v -0.28000 0.15649 0.29264
v -0.28000 0.14196 0.31264
v -0.42000 0.15649 0.29264
v -0.42000 0.14196 0.31264
v -0.28000 0.14196 0.33736
v -0.42000 0.18000 0.28500
v -0.42000 0.20351 0.29264
v -0.42000 0.15649 0.29264
v -0.42000 0.14196 0.31264
v -0.28000 0.18000 0.28500
v -0.28000 0.20351 0.29264
v -0.28000 0.14196 0.31264
v -0.28000 0.15649 0.29264
v -0.28000 0.18000 0.28500
v -0.42000 0.21804 0.31264
v -0.42000 0.14196 0.33736
v -0.28000 0.21804 0.31264
v -0.28000 0.14196 0.33736
v -0.42000 0.14196 0.33736
v -0.28000 0.15649 0.35736
v -0.42000 0.15649 0.35736
v -0.42000 0.21804 0.33736
v -0.42000 0.15649 0.35736
v -0.28000 0.21804 0.33736
v -0.28000 0.15649 0.35736
v -0.28000 0.18000 0.36500
v -0.42000 0.18000 0.36500
v -0.28000 0.20351 0.35736
v -0.28000 0.18000 0.36500
v -0.42000 0.18000 0.28500
v -0.42000 0.20351 0.29264
v -0.28000 0.20351 0.29264
v -0.42000 0.21804 0.31264
v -0.28000 0.21804 0.31264
v -0.42000 0.21804 0.33736
v -0.42000 0.20351 0.35736
v -0.42000 0.18000 0.36500
v -0.28000 0.20351 0.35736
v -0.42000 0.20351 0.35736
v -0.28000 0.21804 0.33736
v 0.42000 0.15649 0.29264
v 0.42000 0.14196 0.31264
v 0.28000 0.15649 0.29264
v 0.28000 0.14196 0.31264
v 0.42000 0.14196 0.33736
v 0.28000 0.20351 0.29264
v 0.28000 0.15649 0.29264
v 0.28000 0.14196 0.31264
v 0.28000 0.18000 0.28500
v 0.42000 0.20351 0.29264
v 0.42000 0.14196 0.31264
v 0.42000 0.15649 0.29264
v 0.42000 0.18000 0.28500
v 0.42000 0.18000 0.28500
v 0.28000 0.21804 0.31264
v 0.28000 0.14196 0.33736
v 0.42000 0.21804 0.31264
v 0.42000 0.14196 0.33736
v 0.28000 0.14196 0.33736
v 0.42000 0.15649 0.35736
v 0.28000 0.15649 0.35736
v 0.28000 0.21804 0.33736
v 0.28000 0.15649 0.35736
v 0.42000 0.21804 0.33736
v 0.42000 0.15649 0.35736
v 0.42000 0.18000 0.36500
v 0.28000 0.18000 0.36500
v 0.42000 0.20351 0.35736
v 0.42000 0.18000 0.36500
v 0.28000 0.18000 0.28500
v 0.28000 0.20351 0.29264
v 0.42000 0.20351 0.29264
v 0.28000 0.21804 0.31264
v 0.42000 0.21804 0.31264
v 0.28000 0.21804 0.33736
v 0.28000 0.20351 0.35736
v 0.28000 0.18000 0.36500
v 0.42000 0.20351 0.35736
v 0.28000 0.20351 0.35736
v 0.42000 0.21804 0.33736
vn -0.0000 -0.5878 -0.8090
vn 0.0000 -0.9511 -0.3090
vn 0.0000 -0.5878 -0.8090
vn 0.0000 -0.9511 -0.3090
vn 0.0000 -0.9511 0.3090
vn -0.0000 -0.0000 -1.0000
vn -1.0000 0.0000 0.0000
vn -1.0000 0.0000 0.0000
vn -1.0000 0.0000 0.0000
vn 0.0000 0.0000 -1.0000
vn 1.0000 0.0000 0.0000
vn 1.0000 0.0000 0.0000
vn 1.0000 0.0000 0.0000
vn 1.0000 0.0000 0.0000
vn -1.0000 0.0000 0.0000
vn -1.0000 0.0000 0.0000
vn 1.0000 0.0000 0.0000
vn 1.0000 0.0000 0.0000
vn 0.0000 -0.9511 0.3090
vn 0.0000 -0.5878 0.8090
vn 0.0000 -0.5878 0.8090
vn -1.0000 0.0000 0.0000
vn -1.0000 0.0000 0.0000
vn 1.0000 0.0000 0.0000
vn 1.0000 0.0000 0.0000
vn 0.0000 -0.0000 1.0000
vn -0.0000 0.0000 1.0000
vn 1.0000 0.0000 0.0000
vn 1.0000 0.0000 0.0000
vn -1.0000 0.0000 0.0000
vn 0.0000 0.5878 -0.8090
vn 0.0000 0.5878 -0.8090
vn 0.0000 0.9511 -0.3090
vn 0.0000 0.9511 -0.3090
vn 0.0000 0.9511 0.3090
vn -1.0000 0.0000 0.0000
vn -1.0000 0.0000 0.0000
vn -0.0000 0.5878 0.8090
vn 0.0000 0.5878 0.8090
vn 0.0000 0.9511 0.3090
vn -0.0000 -0.5878 -0.8090
vn 0.0000 -0.9511 -0.3090
vn 0.0000 -0.5878 -0.8090
vn 0.0000 -0.9511 -0.3090
vn 0.0000 -0.9511 0.3090
vn -1.0000 0.0000 0.0000
vn -1.0000 0.0000 0.0000
vn -1.0000 0.0000 0.0000
vn -0.0000 -0.0000 -1.0000
vn 1.0000 0.0000 0.0000
vn 1.0000 0.0000 0.0000
vn 1.0000 0.0000 0.0000
vn 0.0000 0.0000 -1.0000
vn 1.0000 0.0000 0.0000
vn -1.0000 0.0000 0.0000
vn -1.0000 0.0000 0.0000
vn 1.0000 0.0000 0.0000
vn 1.0000 0.0000 0.0000
vn 0.0000 -0.9511 0.3090
vn 0.0000 -0.5878 0.8090
vn 0.0000 -0.5878 0.8090
vn -1.0000 0.0000 0.0000
vn -1.0000 0.0000 0.0000
vn 1.0000 0.0000 0.0000
vn 1.0000 0.0000 0.0000
vn 0.0000 -0.0000 1.0000
vn -0.0000 0.0000 1.0000
vn 1.0000 0.0000 0.0000
vn 1.0000 0.0000 0.0000
vn -1.0000 0.0000 0.0000
vn 0.0000 0.5878 -0.8090
vn 0.0000 0.5878 -0.8090
vn 0.0000 0.9511 -0.3090
vn 0.0000 0.9511 -0.3090
vn 0.0000 0.9511 0.3090
vn -1.0000 0.0000 0.0000
vn -1.0000 0.0000 0.0000
vn -0.0000 0.5878 0.8090
vn 0.0000 0.5878 0.8090
vn 0.0000 0.9511 0.3090
f 1//1 2//2 3//3
f 2//2 4//4 3//3
f 2//2 5//5 4//4
f 1//1 3//3 6//6
f 7//7 8//8 9//9
f 10//10 1//1 6//6
f 11//11 12//12 13//13
f 14//14 11//11 13//13
f 15//15 9//9 16//16
f 17//17 18//18 12//12
f 5//5 19//19 4//4
f 5//5 20//20 19//19
f 20//20 21//21 19//19
f 22//22 16//16 23//23
f 24//24 25//25 18//18
f 20//20 26//26 21//21
f 26//26 27//27 21//21
f 28//28 29//29 25//25
f 30//30 8//8 7//7
f 10//10 6//6 31//31
f 32//32 10//10 31//31
f 7//7 9//9 15//15
f 11//11 17//17 12//12
f 32//32 31//31 33//33
f 34//34 32//32 33//33
f 34//34 33//33 35//35
f 15//15 16//16 22//22
f 17//17 24//24 18//18
f 36//36 23//23 37//37
f 26//26 38//38 27//27
f 22//22 23//23 36//36
f 38//38 39//39 27//27
f 24//24 28//28 25//25
f 40//40 34//34 35//35
f 40//40 35//35 39//39
f 38//38 40//40 39//39
f 41//41 42//42 43//43
f 42//42 44//44 43//43
f 42//42 45//45 44//44
f 46//46 47//47 48//48
f 41//41 43//43 49//49
f 50//50 51//51 52//52
f 53//53 41//41 49//49
f 54//54 50//50 52//52
f 55//55 48//48 56//56
f 57//57 58//58 51//51
f 45//45 59//59 44//44
f 45//45 60//60 59//59
f 60//60 61//61 59//59
f 62//62 56//56 63//63
f 64//64 65//65 58//58
f 60//60 66//66 61//61
f 66//66 67//67 61//61
f 68//68 69//69 65//65
f 70//70 47//47 46//46
f 53//53 49//49 71//71
f 72//72 53//53 71//71
f 46//46 48//48 55//55
f 50//50 57//57 51//51
f 72//72 71//71 73//73
f 74//74 72//72 73//73
f 74//74 73//73 75//75
f 55//55 56//56 62//62
f 57//57 64//64 58//58
f 76//76 63//63 77//77
f 62//62 63//63 76//76
f 66//66 78//78 67//67
f 64//64 68//68 65//65
f 78//78 79//79 67//67
f 80//80 74//74 75//75
f 80//80 75//75 79//79
f 78//78 80//80 79//79
