v -0.12066 -0.21100 -0.12066
v -0.12066 -0.21666 -0.11500
v -0.12300 -0.21100 -0.11500
v -0.12066 -0.12900 -0.12066
v -0.12300 -0.12900 -0.11500
v -0.12066 -0.12334 -0.11500
v -0.11500 -0.21100 -0.12300
v -0.11500 -0.21666 -0.12066
v -0.11500 -0.21900 -0.11500
v 0.11500 -0.21100 -0.12300
v 0.11500 -0.21900 -0.11500
v -0.11500 -0.12900 -0.12300
v -0.11500 -0.12334 -0.12066
v -0.11500 -0.12100 -0.11500
v 0.11500 -0.12900 -0.12300
v 0.11500 -0.12334 -0.12066
v -0.12066 -0.21666 0.11500
v -0.12300 -0.12900 0.11500
v -0.11500 -0.12100 0.11500
v 0.11500 -0.12100 -0.11500
v -0.12300 -0.21100 0.11500
v -0.12066 -0.12334 0.11500
v -0.11500 -0.21900 0.11500
v 0.11500 -0.21900 0.11500
v -0.12066 -0.21100 0.12066
v -0.12066 -0.12900 0.12066
v -0.11500 -0.21666 0.12066
v -0.11500 -0.21100 0.12300
v 0.11500 -0.21100 0.12300
v -0.11500 -0.12900 0.12300
v -0.11500 -0.12334 0.12066
v 0.11500 -0.12900 0.12300
v 0.11500 -0.12100 0.11500
v 0.11500 -0.21666 -0.12066
v 0.12066 -0.21100 -0.12066
v 0.12066 -0.21666 -0.11500
v 0.12066 -0.12900 -0.12066
v 0.12066 -0.12334 -0.11500
v 0.12300 -0.21100 -0.11500
v 0.12300 -0.12900 -0.11500
v 0.12066 -0.21666 0.11500
v 0.12300 -0.21100 0.11500
v 0.12300 -0.12900 0.11500
v 0.12066 -0.12334 0.11500
v 0.11500 -0.21666 0.12066
v 0.12066 -0.21100 0.12066
v 0.11500 -0.12334 0.12066
v 0.12066 -0.12900 0.12066
v -0.02832 -0.12000 0.02057
v -0.02832 -0.12000 -0.02057
v -0.01082 -0.12000 -0.03329
v -0.01082 -0.12000 0.03329
v 0.01082 -0.12000 -0.03329
v -0.02832 -0.12000 -0.02057
v -0.01082 0.18000 -0.03329
v -0.01082 -0.12000 -0.03329
v -0.03500 -0.12000 0.00000
v -0.03249 0.15622 -0.00773
v -0.03500 -0.12000 0.00000
v -0.02832 -0.12000 0.02057
v -0.03249 0.15622 0.00773
v -0.01082 -0.12000 0.03329
v -0.02832 0.16637 0.02057
v 0.01082 -0.12000 0.03329
v -0.01082 0.18000 0.03329
v 0.01082 0.18000 -0.03329
v -0.02843 0.16531 -0.02023
v -0.02832 0.16637 -0.02057
v -0.03500 0.15622 0.00000
v -0.02222 0.18000 -0.02500
v -0.01082 0.18000 -0.03329
v -0.02222 0.18000 -0.02500
v 0.01082 0.18000 -0.03329
v -0.02843 0.16531 0.02023
v -0.02222 0.18000 0.02500
v -0.01082 0.18000 0.03329
v 0.02222 0.18000 0.02500
v -0.02222 0.18000 0.02500
v 0.01082 -0.12000 0.03329
v 0.02832 -0.12000 -0.02057
v 0.01082 -0.12000 -0.03329
v 0.02832 0.16637 -0.02057
v 0.02832 -0.12000 -0.02057
v 0.03500 -0.12000 0.00000
v 0.03249 0.15622 -0.00773
v 0.02832 -0.12000 0.02057
v 0.03500 -0.12000 0.00000
v 0.02832 -0.12000 0.02057
v 0.03249 0.15622 0.00773
v 0.01082 0.18000 0.03329
v 0.02843 0.16531 -0.02023
v 0.03500 0.15622 0.00000
v 0.02222 0.18000 -0.02500
v 0.02222 0.18000 -0.02500
v 0.02843 0.16531 0.02023
v 0.02832 0.16637 0.02057
v 0.02222 0.18000 0.02500
v 0.01082 0.18000 0.03329
v -0.48000 0.16531 -0.02023
v -0.48000 0.15622 -0.00773
v -0.48000 0.19469 -0.02023
v -0.48000 0.15622 0.00773
v -0.48000 0.20378 -0.00773
v -0.48000 0.18000 -0.02500
v -0.48000 0.16531 -0.02023
v -0.48000 0.18000 -0.02500
v -0.02843 0.16531 -0.02023
v -0.03249 0.15622 -0.00773
v -0.48000 0.15622 -0.00773
v -0.48000 0.19469 -0.02023
v -0.03500 0.15622 0.00000
v -0.48000 0.20378 -0.00773
v 0.48000 0.19469 -0.02023
v -0.48000 0.20378 0.00773
v 0.48000 0.20378 -0.00773
v -0.48000 0.16531 0.02023
v -0.48000 0.20378 0.00773
v -0.48000 0.18000 0.02500
v -0.48000 0.19469 0.02023
v -0.48000 0.15622 0.00773
v -0.02843 0.16531 0.02023
v -0.48000 0.16531 0.02023
v -0.48000 0.18000 0.02500
v -0.03249 0.15622 0.00773
v -0.48000 0.19469 0.02023
v 0.48000 0.20378 0.00773
v 0.48000 0.19469 0.02023
v 0.48000 0.18000 -0.02500
v 0.48000 0.16531 -0.02023
v 0.02843 0.16531 -0.02023
v 0.48000 0.15622 -0.00773
v 0.03249 0.15622 -0.00773
v 0.03500 0.15622 0.00000
v 0.48000 0.16531 -0.02023
v 0.48000 0.19469 -0.02023
v 0.48000 0.15622 -0.00773
v 0.48000 0.20378 -0.00773
v 0.48000 0.15622 0.00773
v 0.48000 0.18000 -0.02500
v 0.48000 0.18000 0.02500
v 0.02843 0.16531 0.02023
v 0.48000 0.15622 0.00773
v 0.03249 0.15622 0.00773
v 0.48000 0.16531 0.02023
v 0.48000 0.20378 0.00773
v 0.48000 0.16531 0.02023
v 0.48000 0.19469 0.02023
v 0.48000 0.18000 0.02500
vn -0.6887 -0.2265 -0.6887
vn -0.6887 -0.6887 -0.2265
vn -0.9641 -0.1877 -0.1877
vn -0.6887 0.2265 -0.6887
vn -0.9641 0.1877 -0.1877
vn -0.6887 0.6887 -0.2265
vn -0.1877 -0.1877 -0.9641
vn -0.2265 -0.6887 -0.6887
vn -0.1877 -0.9641 -0.1877
vn 0.1877 -0.1877 -0.9641
vn 0.1877 -0.9641 -0.1877
vn -0.1877 0.1877 -0.9641
vn -0.2265 0.6887 -0.6887
vn -0.1877 0.9641 -0.1877
vn 0.1877 0.1877 -0.9641
vn 0.2265 0.6887 -0.6887
vn -0.6887 -0.6887 0.2265
vn -0.9641 0.1877 0.1877
vn -0.1877 0.9641 0.1877
vn 0.1877 0.9641 -0.1877
vn -0.9641 -0.1877 0.1877
vn -0.6887 0.6887 0.2265
vn -0.1877 -0.9641 0.1877
vn 0.1877 -0.9641 0.1877
vn -0.6887 -0.2265 0.6887
vn -0.6887 0.2265 0.6887
vn -0.2265 -0.6887 0.6887
vn -0.1877 -0.1877 0.9641
vn 0.1877 -0.1877 0.9641
vn -0.1877 0.1877 0.9641
vn -0.2265 0.6887 0.6887
vn 0.1877 0.1877 0.9641
vn 0.1877 0.9641 0.1877
vn 0.2265 -0.6887 -0.6887
vn 0.6887 -0.2265 -0.6887
vn 0.6887 -0.6887 -0.2265
vn 0.6887 0.2265 -0.6887
vn 0.6887 0.6887 -0.2265
vn 0.9641 -0.1877 -0.1877
vn 0.9641 0.1877 -0.1877
vn 0.6887 -0.6887 0.2265
vn 0.9641 -0.1877 0.1877
vn 0.9641 0.1877 0.1877
vn 0.6887 0.6887 0.2265
vn 0.2265 -0.6887 0.6887
vn 0.6887 -0.2265 0.6887
vn 0.2265 0.6887 0.6887
vn 0.6887 0.2265 0.6887
vn 0.0000 -1.0000 0.0000
vn 0.0000 -1.0000 0.0000
vn 0.0000 -1.0000 0.0000
vn 0.0000 -1.0000 0.0000
vn 0.0000 -1.0000 0.0000
vn -0.8090 0.0000 -0.5878
vn -0.3090 0.0000 -0.9511
vn -0.3090 0.0000 -0.9511
vn -1.0000 0.0000 -0.0000
vn -0.9511 0.0000 -0.3090
vn 0.0000 -1.0000 0.0000
vn -0.8090 0.0000 0.5878
vn -0.9511 -0.0000 0.3090
vn -0.3090 -0.0000 0.9511
vn -0.3151 -0.1800 0.9319
vn 0.3090 0.0000 0.9511
vn -0.3090 0.0000 0.9511
vn 0.3090 0.0000 -0.9511
vn -0.9511 0.0000 -0.3090
vn -0.3151 -0.1800 -0.9319
vn -1.0000 0.0000 0.0000
vn -0.2055 0.1027 -0.9733
vn 0.0000 1.0000 0.0000
vn 0.0000 1.0000 0.0000
vn 0.0000 1.0000 0.0000
vn -0.9511 -0.0000 0.3090
vn -0.2055 0.1027 0.9733
vn 0.0000 1.0000 0.0000
vn 0.0000 1.0000 0.0000
vn 0.0000 1.0000 0.0000
vn 0.0000 -1.0000 0.0000
vn 0.0000 -1.0000 0.0000
vn 0.3090 0.0000 -0.9511
vn 0.3151 -0.1800 -0.9319
vn 0.8090 0.0000 -0.5878
vn 1.0000 0.0000 -0.0000
vn 0.9511 -0.0000 -0.3090
vn 0.0000 -1.0000 0.0000
vn 0.0000 -1.0000 0.0000
vn 0.8090 0.0000 0.5878
vn 0.9511 -0.0000 0.3090
vn 0.3090 -0.0000 0.9511
vn 0.9511 -0.0000 -0.3090
vn 1.0000 0.0000 0.0000
vn 0.2055 0.1027 -0.9733
vn 0.0000 1.0000 0.0000
vn 0.9511 -0.0000 0.3090
vn 0.3151 -0.1800 0.9319
vn 0.2055 0.1027 0.9733
vn 0.0000 1.0000 0.0000
vn -1.0000 0.0000 0.0000
vn -1.0000 0.0000 0.0000
vn -1.0000 0.0000 0.0000
vn -1.0000 0.0000 0.0000
vn -1.0000 0.0000 0.0000
vn -1.0000 0.0000 0.0000
vn 0.0000 -0.5878 -0.8090
vn -0.0000 0.0000 -1.0000
vn -0.0000 -0.5559 -0.8312
vn 0.0000 -0.9308 -0.3656
vn 0.0000 -0.9511 -0.3090
vn 0.0000 0.5878 -0.8090
vn 0.0000 -1.0000 0.0000
vn -0.0000 0.9511 -0.3090
vn -0.0000 0.5878 -0.8090
vn 0.0000 0.9511 0.3090
vn 0.0000 0.9511 -0.3090
vn -1.0000 0.0000 0.0000
vn -1.0000 0.0000 0.0000
vn -1.0000 0.0000 0.0000
vn -1.0000 0.0000 0.0000
vn -0.0000 -0.9511 0.3090
vn 0.0000 -0.5559 0.8312
vn -0.0000 -0.5878 0.8090
vn 0.0000 0.0000 1.0000
vn 0.0000 -0.9308 0.3656
vn 0.0000 0.5878 0.8090
vn 0.0000 0.9511 0.3090
vn 0.0000 0.5878 0.8090
vn 0.0000 0.0000 -1.0000
vn 0.0000 -0.5878 -0.8090
vn 0.0000 -0.5559 -0.8312
vn 0.0000 -0.9511 -0.3090
vn 0.0000 -0.9308 -0.3656
vn 0.0000 -1.0000 0.0000
vn 1.0000 0.0000 0.0000
vn 1.0000 0.0000 0.0000
vn 1.0000 0.0000 0.0000
vn 1.0000 0.0000 0.0000
vn 1.0000 0.0000 0.0000
vn 1.0000 0.0000 0.0000
vn 0.0000 0.0000 1.0000
vn 0.0000 -0.5559 0.8312
vn 0.0000 -0.9511 0.3090
vn 0.0000 -0.9308 0.3656
vn -0.0000 -0.5878 0.8090
vn 1.0000 0.0000 0.0000
vn 1.0000 0.0000 0.0000
vn 1.0000 0.0000 0.0000
vn 1.0000 0.0000 0.0000
f 1//1 2//2 3//3
f 1//1 3//3 4//4
f 3//3 5//5 4//4
f 4//4 5//5 6//6
f 1//1 7//7 8//8
f 2//2 8//8 9//9
f 1//1 8//8 2//2
f 1//1 4//4 7//7
f 8//8 7//7 10//10
f 8//8 11//11 9//9
f 4//4 12//12 7//7
f 4//4 13//13 12//12
f 4//4 6//6 13//13
f 6//6 14//14 13//13
f 7//7 12//12 15//15
f 12//12 13//13 16//16
f 13//13 14//14 16//16
f 2//2 17//17 3//3
f 3//3 18//18 5//5
f 5//5 18//18 6//6
f 2//2 9//9 17//17
f 6//6 19//19 14//14
f 14//14 19//19 20//20
f 3//3 17//17 21//21
f 3//3 21//21 18//18
f 6//6 18//18 22//22
f 9//9 23//23 17//17
f 9//9 24//24 23//23
f 6//6 22//22 19//19
f 17//17 25//25 21//21
f 21//21 25//25 26//26
f 21//21 26//26 18//18
f 18//18 26//26 22//22
f 17//17 23//23 27//27
f 17//17 27//27 25//25
f 25//25 27//27 28//28
f 25//25 28//28 26//26
f 23//23 24//24 27//27
f 27//27 29//29 28//28
f 28//28 29//29 30//30
f 26//26 28//28 30//30
f 26//26 30//30 31//31
f 26//26 31//31 22//22
f 22//22 31//31 19//19
f 30//30 32//32 31//31
f 19//19 31//31 33//33
f 8//8 10//10 34//34
f 8//8 34//34 11//11
f 7//7 15//15 10//10
f 34//34 10//10 35//35
f 34//34 36//36 11//11
f 34//34 35//35 36//36
f 10//10 15//15 35//35
f 12//12 16//16 15//15
f 14//14 20//20 16//16
f 15//15 37//37 35//35
f 15//15 16//16 37//37
f 16//16 38//38 37//37
f 16//16 20//20 38//38
f 35//35 39//39 36//36
f 35//35 40//40 39//39
f 35//35 37//37 40//40
f 37//37 38//38 40//40
f 9//9 11//11 24//24
f 11//11 36//36 41//41
f 20//20 33//33 38//38
f 36//36 39//39 41//41
f 39//39 40//40 42//42
f 40//40 38//38 43//43
f 11//11 41//41 24//24
f 19//19 33//33 20//20
f 38//38 33//33 44//44
f 39//39 42//42 41//41
f 40//40 43//43 42//42
f 38//38 44//44 43//43
f 27//27 24//24 45//45
f 27//27 45//45 29//29
f 24//24 41//41 45//45
f 45//45 41//41 46//46
f 45//45 46//46 29//29
f 29//29 46//46 32//32
f 30//30 29//29 32//32
f 31//31 47//47 33//33
f 31//31 32//32 47//47
f 32//32 46//46 48//48
f 32//32 48//48 47//47
f 47//47 48//48 44//44
f 33//33 47//47 44//44
f 41//41 42//42 46//46
f 42//42 43//43 46//46
f 46//46 43//43 48//48
f 43//43 44//44 48//48
f 49//49 50//50 51//51
f 52//52 51//51 53//53
f 54//54 55//55 56//56
f 57//57 58//58 54//54
f 49//49 59//59 50//50
f 49//49 51//51 52//52
f 60//60 61//61 57//57
f 60//60 62//62 63//63
f 62//62 64//64 65//65
f 56//56 55//55 66//66
f 54//54 67//67 68//68
f 54//54 58//58 67//67
f 57//57 69//69 58//58
f 54//54 70//70 55//55
f 54//54 68//68 70//70
f 71//71 72//72 73//73
f 57//57 61//61 69//69
f 60//60 74//74 61//61
f 60//60 63//63 74//74
f 62//62 75//75 63//63
f 62//62 65//65 75//75
f 76//76 77//77 78//78
f 79//79 53//53 80//80
f 56//56 66//66 81//81
f 81//81 82//82 83//83
f 84//84 83//83 85//85
f 52//52 53//53 79//79
f 79//79 80//80 86//86
f 86//86 80//80 87//87
f 88//88 84//84 89//89
f 64//64 88//88 90//90
f 83//83 82//82 91//91
f 83//83 91//91 85//85
f 84//84 85//85 92//92
f 81//81 66//66 93//93
f 81//81 93//93 82//82
f 73//73 72//72 94//94
f 84//84 92//92 89//89
f 88//88 89//89 95//95
f 88//88 95//95 96//96
f 88//88 96//96 97//97
f 88//88 97//97 90//90
f 65//65 64//64 90//90
f 76//76 98//98 77//77
f 99//99 100//100 101//101
f 100//100 102//102 103//103
f 99//99 101//101 104//104
f 100//100 103//103 101//101
f 105//105 106//106 107//107
f 105//105 108//108 109//109
f 106//106 110//110 70//70
f 105//105 107//107 108//108
f 109//109 108//108 111//111
f 106//106 70//70 68//68
f 106//106 68//68 107//107
f 110//110 93//93 70//70
f 110//110 112//112 113//113
f 112//112 114//114 115//115
f 102//102 116//116 117//117
f 103//103 102//102 117//117
f 116//116 118//118 119//119
f 116//116 119//119 117//117
f 109//109 111//111 120//120
f 120//120 121//121 122//122
f 122//122 75//75 123//123
f 120//120 111//111 124//124
f 120//120 124//124 121//121
f 122//122 121//121 63//63
f 122//122 63//63 75//75
f 114//114 125//125 126//126
f 123//123 127//127 125//125
f 123//123 75//75 127//127
f 110//110 128//128 93//93
f 129//129 130//130 82//82
f 129//129 82//82 93//93
f 110//110 113//113 128//128
f 112//112 115//115 113//113
f 131//131 132//132 130//130
f 131//131 133//133 132//132
f 129//129 131//131 130//130
f 129//129 93//93 128//128
f 134//134 135//135 136//136
f 136//136 137//137 138//138
f 134//134 139//139 135//135
f 136//136 135//135 137//137
f 140//140 96//96 141//141
f 140//140 97//97 96//96
f 114//114 126//126 115//115
f 127//127 75//75 97//97
f 125//125 127//127 126//126
f 142//142 143//143 133//133
f 144//144 141//141 143//143
f 131//131 142//142 133//133
f 142//142 144//144 143//143
f 144//144 140//140 141//141
f 97//97 140//140 127//127
f 138//138 145//145 146//146
f 137//137 145//145 138//138
f 146//146 147//147 148//148
f 146//146 145//145 147//147
