v -0.24000 -0.04666 -0.12066
v -0.24000 -0.04900 -0.11500
v -0.24566 -0.04666 -0.11500
v -0.24566 -0.04100 -0.12066
v -0.24000 -0.04100 -0.12300
v -0.24800 -0.04100 -0.11500
v -0.24566 0.04100 -0.12066
v 0.24000 -0.04900 -0.11500
v 0.24000 -0.04100 -0.12300
v -0.24566 -0.04666 0.11500
v -0.24800 -0.04100 0.11500
v -0.24800 -0.02853 -0.00927
v -0.24800 -0.01763 -0.02427
v -0.24800 0.00000 -0.03000
v -0.24800 0.04100 -0.11500
v -0.24000 0.04100 -0.12300
v 0.24000 0.04100 -0.12300
v -0.24800 0.01763 -0.02427
v -0.24000 -0.04900 0.11500
v -0.24800 -0.02853 0.00927
v -0.24800 -0.01763 0.02427
v -0.24800 0.00000 0.03000
v 0.24000 -0.04900 0.11500
v -0.24000 -0.04666 0.12066
v -0.24566 -0.04100 0.12066
v -0.24000 -0.04100 0.12300
v -0.24566 0.04100 0.12066
v 0.24000 -0.04100 0.12300
v -0.24000 0.04100 0.12300
v -0.24800 0.04100 0.11500
v -0.24800 0.01763 0.02427
v -0.24000 0.04666 -0.12066
v -0.24566 0.04666 -0.11500
v -0.24000 0.04900 -0.11500
v -0.18995 0.04900 -0.03750
v -0.16250 0.04900 -0.06495
v -0.12500 0.04900 -0.07500
v 0.24000 0.04900 -0.11500
v -0.08750 0.04900 -0.06495
v 0.08750 0.04900 -0.06495
v -0.24800 0.02853 -0.00927
v -0.24800 0.02853 0.00927
v -0.20000 0.04900 0.00000
v -0.24566 0.04666 0.11500
v -0.06005 0.04900 -0.03750
v 0.06005 0.04900 -0.03750
v -0.05000 0.04900 0.00000
v 0.05000 0.04900 0.00000
v -0.24000 0.04900 0.11500
v -0.18995 0.04900 0.03750
v -0.06005 0.04900 0.03750
v 0.06005 0.04900 0.03750
v -0.08750 0.04900 0.06495
v 0.08750 0.04900 0.06495
v -0.24000 0.04666 0.12066
v -0.16250 0.04900 0.06495
v -0.12500 0.04900 0.07500
v 0.24000 0.04100 0.12300
v 0.12500 0.04900 0.07500
v 0.24000 0.04900 0.11500
v 0.24000 -0.04666 -0.12066
v 0.24566 -0.04666 -0.11500
v 0.24566 -0.04100 -0.12066
v 0.24800 -0.04100 -0.11500
v 0.24566 0.04100 -0.12066
v 0.24566 -0.04666 0.11500
v 0.24800 -0.02853 -0.00927
v 0.24800 -0.02853 0.00927
v 0.24800 -0.01763 -0.02427
v 0.24800 0.00000 -0.03000
v 0.24800 0.04100 -0.11500
v 0.24800 0.01763 -0.02427
v 0.24800 -0.04100 0.11500
v 0.24800 -0.01763 0.02427
v 0.24800 0.00000 0.03000
v 0.24000 -0.04666 0.12066
v 0.24566 -0.04100 0.12066
v 0.24800 0.04100 0.11500
v 0.24800 0.01763 0.02427
v 0.24566 0.04100 0.12066
v 0.24000 0.04666 -0.12066
v 0.12500 0.04900 -0.07500
v 0.24566 0.04666 -0.11500
v 0.16250 0.04900 -0.06495
v 0.18995 0.04900 -0.03750
v 0.24800 0.02853 -0.00927
v 0.20000 0.04900 0.00000
v 0.24800 0.02853 0.00927
v 0.24566 0.04666 0.11500
v 0.18995 0.04900 0.03750
v 0.24000 0.04666 0.12066
v 0.16250 0.04900 0.06495
v -0.12500 0.09900 -0.07500
v -0.12500 0.04900 -0.07500
v -0.16250 0.04900 -0.06495
v -0.16250 0.09900 -0.06495
v -0.08750 0.09900 -0.06495
v -0.08750 0.04900 -0.06495
v -0.18995 0.04900 -0.03750
v -0.18995 0.09900 -0.03750
v -0.20000 0.04900 0.00000
v -0.20000 0.09900 0.00000
v -0.16250 0.09900 -0.06495
v -0.18995 0.09900 -0.03750
v -0.18995 0.09900 0.03750
v -0.16250 0.09900 0.06495
v -0.12500 0.09900 -0.07500
v -0.06005 0.09900 -0.03750
v -0.06005 0.04900 -0.03750
v -0.05000 0.09900 0.00000
v -0.05000 0.04900 0.00000
v -0.12500 0.09900 0.07500
v -0.08750 0.09900 -0.06495
v -0.08750 0.09900 0.06495
v -0.06005 0.09900 -0.03750
v -0.18995 0.04900 0.03750
v -0.18995 0.09900 0.03750
v -0.16250 0.04900 0.06495
v -0.20000 0.09900 0.00000
v -0.16250 0.09900 0.06495
v -0.06005 0.09900 0.03750
v -0.06005 0.04900 0.03750
v -0.08750 0.09900 0.06495
v -0.08750 0.04900 0.06495
v -0.06005 0.09900 0.03750
v -0.05000 0.09900 0.00000
v -0.12500 0.04900 0.07500
v -0.12500 0.09900 0.07500
v 0.12500 0.09900 -0.07500
v 0.12500 0.04900 -0.07500
v 0.08750 0.04900 -0.06495
v 0.08750 0.09900 -0.06495
v 0.16250 0.09900 -0.06495
v 0.16250 0.04900 -0.06495
v 0.06005 0.04900 -0.03750
v 0.06005 0.09900 -0.03750
v 0.05000 0.04900 0.00000
v 0.05000 0.09900 0.00000
v 0.08750 0.09900 -0.06495
v 0.06005 0.09900 -0.03750
v 0.06005 0.09900 0.03750
v 0.08750 0.09900 0.06495
v 0.12500 0.09900 -0.07500
v 0.18995 0.09900 -0.03750
v 0.18995 0.04900 -0.03750
v 0.20000 0.09900 0.00000
v 0.20000 0.04900 0.00000
v 0.12500 0.09900 0.07500
v 0.16250 0.09900 -0.06495
v 0.16250 0.09900 0.06495
v 0.18995 0.09900 -0.03750
v 0.06005 0.04900 0.03750
v 0.06005 0.09900 0.03750
v 0.08750 0.04900 0.06495
v 0.05000 0.09900 0.00000
v 0.08750 0.09900 0.06495
v 0.18995 0.09900 0.03750
v 0.18995 0.04900 0.03750
v 0.16250 0.09900 0.06495
v 0.16250 0.04900 0.06495
v 0.18995 0.09900 0.03750
v 0.20000 0.09900 0.00000
v 0.12500 0.04900 0.07500
v 0.12500 0.09900 0.07500
v -0.50000 -0.01763 -0.02427
v -0.24800 -0.02853 -0.00927
v -0.50000 -0.02853 -0.00927
v -0.24800 -0.01763 -0.02427
v -0.24800 -0.02853 0.00927
v -0.50000 -0.01763 -0.02427
v -0.50000 -0.02853 -0.00927
v -0.50000 0.01763 -0.02427
v -0.50000 -0.02853 0.00927
v -0.50000 0.02853 -0.00927
v -0.50000 0.00000 -0.03000
v -0.50000 0.00000 -0.03000
v -0.50000 0.01763 -0.02427
v -0.24800 0.00000 -0.03000
v -0.50000 0.02853 -0.00927
v -0.24800 0.01763 -0.02427
v -0.24800 0.02853 -0.00927
v -0.50000 -0.02853 0.00927
v -0.24800 -0.01763 0.02427
v -0.50000 -0.01763 0.02427
v -0.50000 -0.01763 0.02427
v -0.50000 0.02853 0.00927
v -0.50000 0.00000 0.03000
v -0.50000 0.01763 0.02427
v -0.24800 0.00000 0.03000
v -0.50000 0.00000 0.03000
v -0.24800 0.01763 0.02427
v -0.50000 0.01763 0.02427
v -0.24800 0.02853 0.00927
v -0.50000 0.02853 0.00927
v 0.50000 -0.02853 -0.00927
v 0.24800 -0.02853 -0.00927
v 0.24800 -0.01763 -0.02427
v 0.50000 -0.01763 -0.02427
v 0.50000 -0.02853 0.00927
v 0.24800 0.00000 -0.03000
v 0.50000 0.00000 -0.03000
v 0.24800 0.01763 -0.02427
v 0.50000 0.01763 -0.02427
v 0.24800 0.02853 -0.00927
v 0.50000 -0.01763 -0.02427
v 0.50000 0.01763 -0.02427
v 0.50000 -0.02853 -0.00927
v 0.50000 0.02853 -0.00927
v 0.50000 -0.02853 0.00927
v 0.50000 0.00000 -0.03000
v 0.50000 0.02853 -0.00927
v 0.24800 -0.02853 0.00927
v 0.50000 -0.01763 0.02427
v 0.24800 -0.01763 0.02427
v 0.50000 0.00000 0.03000
v 0.24800 0.00000 0.03000
v 0.50000 0.01763 0.02427
v 0.24800 0.01763 0.02427
v 0.50000 0.02853 0.00927
v 0.24800 0.02853 0.00927
v 0.50000 0.02853 0.00927
v 0.50000 -0.01763 0.02427
v 0.50000 0.01763 0.02427
v 0.50000 0.00000 0.03000
vn -0.2265 -0.6887 -0.6887
vn -0.1877 -0.9641 -0.1877
vn -0.6887 -0.6887 -0.2265
vn -0.6887 -0.2265 -0.6887
vn -0.1877 -0.1877 -0.9641
vn -0.9641 -0.1877 -0.1877
vn -0.6887 0.2265 -0.6887
vn 0.1877 -0.9641 -0.1877
vn 0.1877 -0.1877 -0.9641
vn -0.6887 -0.6887 0.2265
vn -0.9641 -0.1877 0.1877
vn -1.0000 0.0000 0.0000
vn -1.0000 0.0000 0.0000
vn -1.0000 0.0000 0.0000
vn -0.9641 0.1877 -0.1877
vn -0.1877 0.1877 -0.9641
vn 0.1877 0.1877 -0.9641
vn -1.0000 0.0000 0.0000
vn -0.1877 -0.9641 0.1877
vn -1.0000 0.0000 0.0000
vn -1.0000 0.0000 0.0000
vn -1.0000 0.0000 0.0000
vn 0.1877 -0.9641 0.1877
vn -0.2265 -0.6887 0.6887
vn -0.6887 -0.2265 0.6887
vn -0.1877 -0.1877 0.9641
vn -0.6887 0.2265 0.6887
vn 0.1877 -0.1877 0.9641
vn -0.1877 0.1877 0.9641
vn -0.9641 0.1877 0.1877
vn -1.0000 0.0000 0.0000
vn -0.2265 0.6887 -0.6887
vn -0.6887 0.6887 -0.2265
vn -0.1877 0.9641 -0.1877
vn 0.0000 1.0000 0.0000
vn 0.0000 1.0000 0.0000
vn 0.0000 1.0000 0.0000
vn 0.1877 0.9641 -0.1877
vn 0.0000 1.0000 0.0000
vn 0.0000 1.0000 0.0000
vn -1.0000 0.0000 0.0000
vn -1.0000 0.0000 0.0000
vn 0.0000 1.0000 0.0000
vn -0.6887 0.6887 0.2265
vn 0.0000 1.0000 0.0000
vn 0.0000 1.0000 0.0000
vn 0.0000 1.0000 0.0000
vn 0.0000 1.0000 0.0000
vn -0.1877 0.9641 0.1877
vn 0.0000 1.0000 0.0000
vn 0.0000 1.0000 0.0000
vn 0.0000 1.0000 0.0000
vn 0.0000 1.0000 0.0000
vn 0.0000 1.0000 0.0000
vn -0.2265 0.6887 0.6887
vn 0.0000 1.0000 0.0000
vn 0.0000 1.0000 0.0000
vn 0.1877 0.1877 0.9641
vn 0.0000 1.0000 0.0000
vn 0.1877 0.9641 0.1877
vn 0.2265 -0.6887 -0.6887
vn 0.6887 -0.6887 -0.2265
vn 0.6887 -0.2265 -0.6887
vn 0.9641 -0.1877 -0.1877
vn 0.6887 0.2265 -0.6887
vn 0.6887 -0.6887 0.2265
vn 1.0000 0.0000 0.0000
vn 1.0000 0.0000 0.0000
vn 1.0000 0.0000 0.0000
vn 1.0000 0.0000 0.0000
vn 0.9641 0.1877 -0.1877
vn 1.0000 0.0000 0.0000
vn 0.9641 -0.1877 0.1877
vn 1.0000 0.0000 0.0000
vn 1.0000 0.0000 0.0000
vn 0.2265 -0.6887 0.6887
vn 0.6887 -0.2265 0.6887
vn 0.9641 0.1877 0.1877
vn 1.0000 0.0000 0.0000
vn 0.6887 0.2265 0.6887
vn 0.2265 0.6887 -0.6887
vn 0.0000 1.0000 0.0000
vn 0.6887 0.6887 -0.2265
vn 0.0000 1.0000 0.0000
vn 0.0000 1.0000 0.0000
vn 1.0000 0.0000 0.0000
vn 0.0000 1.0000 0.0000
vn 1.0000 0.0000 0.0000
vn 0.6887 0.6887 0.2265
vn 0.0000 1.0000 0.0000
vn 0.2265 0.6887 0.6887
vn 0.0000 1.0000 0.0000
vn -0.0000 0.0000 -1.0000
vn 0.0000 0.0000 -1.0000
vn -0.5000 0.0000 -0.8660
vn -0.5000 0.0000 -0.8660
vn 0.5000 0.0000 -0.8660
vn 0.5000 0.0000 -0.8660
vn -0.8660 0.0000 -0.5000
vn -0.8660 0.0000 -0.5000
vn -1.0000 0.0000 0.0000
vn -1.0000 0.0000 0.0000
vn 0.0000 1.0000 0.0000
vn 0.0000 1.0000 0.0000
vn 0.0000 1.0000 0.0000
vn 0.0000 1.0000 0.0000
vn 0.0000 1.0000 0.0000
vn 0.8660 0.0000 -0.5000
vn 0.8660 0.0000 -0.5000
vn 1.0000 0.0000 0.0000
vn 1.0000 0.0000 0.0000
vn 0.0000 1.0000 0.0000
vn 0.0000 1.0000 0.0000
vn 0.0000 1.0000 0.0000
vn 0.0000 1.0000 0.0000
vn -0.8660 0.0000 0.5000
vn -0.8660 0.0000 0.5000
vn -0.5000 0.0000 0.8660
vn 0.0000 1.0000 0.0000
vn -0.5000 0.0000 0.8660
vn 0.8660 0.0000 0.5000
vn 0.8660 0.0000 0.5000
vn 0.5000 0.0000 0.8660
vn 0.5000 0.0000 0.8660
vn 0.0000 1.0000 0.0000
vn 0.0000 1.0000 0.0000
vn 0.0000 0.0000 1.0000
vn 0.0000 0.0000 1.0000
vn -0.0000 0.0000 -1.0000
vn 0.0000 0.0000 -1.0000
vn -0.5000 0.0000 -0.8660
vn -0.5000 0.0000 -0.8660
vn 0.5000 0.0000 -0.8660
vn 0.5000 0.0000 -0.8660
vn -0.8660 0.0000 -0.5000
vn -0.8660 0.0000 -0.5000
vn -1.0000 0.0000 0.0000
vn -1.0000 -0.0000 0.0000
vn 0.0000 1.0000 0.0000
vn 0.0000 1.0000 0.0000
vn 0.0000 1.0000 0.0000
vn 0.0000 1.0000 0.0000
vn 0.0000 1.0000 0.0000
vn 0.8660 0.0000 -0.5000
vn 0.8660 -0.0000 -0.5000
vn 1.0000 -0.0000 0.0000
vn 1.0000 0.0000 0.0000
vn 0.0000 1.0000 0.0000
vn 0.0000 1.0000 0.0000
vn 0.0000 1.0000 0.0000
vn 0.0000 1.0000 0.0000
vn -0.8660 -0.0000 0.5000
vn -0.8660 0.0000 0.5000
vn -0.5000 0.0000 0.8660
vn 0.0000 1.0000 0.0000
vn -0.5000 0.0000 0.8660
vn 0.8660 0.0000 0.5000
vn 0.8660 0.0000 0.5000
vn 0.5000 0.0000 0.8660
vn 0.5000 0.0000 0.8660
vn 0.0000 1.0000 0.0000
vn 0.0000 1.0000 0.0000
vn 0.0000 0.0000 1.0000
vn 0.0000 0.0000 1.0000
vn -0.0000 -0.5878 -0.8090
vn -0.0000 -0.9511 -0.3090
vn 0.0000 -0.9511 -0.3090
vn 0.0000 -0.5878 -0.8090
vn 0.0000 -0.9511 0.3090
vn -1.0000 0.0000 0.0000
vn -1.0000 0.0000 0.0000
vn -1.0000 0.0000 0.0000
vn -1.0000 0.0000 0.0000
vn -1.0000 0.0000 0.0000
vn -1.0000 0.0000 0.0000
vn 0.0000 -0.0000 -1.0000
vn 0.0000 0.5878 -0.8090
vn 0.0000 0.0000 -1.0000
vn 0.0000 0.9511 -0.3090
vn 0.0000 0.5878 -0.8090
vn 0.0000 0.9511 -0.3090
vn 0.0000 -0.9511 0.3090
vn 0.0000 -0.5878 0.8090
vn 0.0000 -0.5878 0.8090
vn -1.0000 0.0000 0.0000
vn -1.0000 0.0000 0.0000
vn -1.0000 0.0000 0.0000
vn -1.0000 0.0000 0.0000
vn 0.0000 -0.0000 1.0000
vn 0.0000 0.0000 1.0000
vn 0.0000 0.5878 0.8090
vn 0.0000 0.5878 0.8090
vn 0.0000 0.9511 0.3090
vn 0.0000 0.9511 0.3090
vn -0.0000 -0.9511 -0.3090
vn 0.0000 -0.9511 -0.3090
vn -0.0000 -0.5878 -0.8090
vn 0.0000 -0.5878 -0.8090
vn 0.0000 -0.9511 0.3090
vn 0.0000 -0.0000 -1.0000
vn 0.0000 0.0000 -1.0000
vn 0.0000 0.5878 -0.8090
vn 0.0000 0.5878 -0.8090
vn 0.0000 0.9511 -0.3090
vn 1.0000 0.0000 0.0000
vn 1.0000 0.0000 0.0000
vn 1.0000 0.0000 0.0000
vn 1.0000 0.0000 0.0000
vn 1.0000 0.0000 0.0000
vn 1.0000 0.0000 0.0000
vn 0.0000 0.9511 -0.3090
vn 0.0000 -0.9511 0.3090
vn 0.0000 -0.5878 0.8090
vn 0.0000 -0.5878 0.8090
vn 0.0000 -0.0000 1.0000
vn 0.0000 0.0000 1.0000
vn 0.0000 0.5878 0.8090
vn 0.0000 0.5878 0.8090
vn 0.0000 0.9511 0.3090
vn 0.0000 0.9511 0.3090
vn 1.0000 0.0000 0.0000
vn 1.0000 0.0000 0.0000
vn 1.0000 0.0000 0.0000
vn 1.0000 0.0000 0.0000
f 1//1 2//2 3//3
f 1//1 3//3 4//4
f 1//1 4//4 5//5
f 3//3 6//6 4//4
f 4//4 7//7 5//5
f 4//4 6//6 7//7
f 1//1 8//8 2//2
f 1//1 5//5 9//9
f 3//3 2//2 10//10
f 3//3 10//10 6//6
f 6//6 11//11 12//12
f 6//6 12//12 13//13
f 6//6 13//13 14//14
f 6//6 14//14 15//15
f 5//5 7//7 16//16
f 6//6 15//15 7//7
f 5//5 16//16 17//17
f 15//15 14//14 18//18
f 2//2 19//19 10//10
f 6//6 10//10 11//11
f 11//11 20//20 12//12
f 11//11 21//21 20//20
f 11//11 22//22 21//21
f 2//2 23//23 19//19
f 10//10 19//19 24//24
f 10//10 24//24 25//25
f 10//10 25//25 11//11
f 24//24 26//26 25//25
f 11//11 25//25 27//27
f 25//25 26//26 27//27
f 19//19 23//23 24//24
f 24//24 28//28 26//26
f 26//26 28//28 29//29
f 30//30 31//31 22//22
f 11//11 30//30 22//22
f 11//11 27//27 30//30
f 26//26 29//29 27//27
f 7//7 32//32 16//16
f 7//7 15//15 33//33
f 7//7 33//33 32//32
f 32//32 33//33 34//34
f 34//34 35//35 36//36
f 34//34 36//36 37//37
f 16//16 32//32 17//17
f 32//32 34//34 38//38
f 34//34 37//37 38//38
f 37//37 39//39 40//40
f 15//15 18//18 41//41
f 15//15 41//41 42//42
f 34//34 43//43 35//35
f 15//15 44//44 33//33
f 33//33 44//44 34//34
f 39//39 45//45 46//46
f 45//45 47//47 48//48
f 15//15 42//42 30//30
f 30//30 42//42 31//31
f 15//15 30//30 44//44
f 34//34 49//49 43//43
f 34//34 44//44 49//49
f 49//49 50//50 43//43
f 51//51 52//52 47//47
f 51//51 53//53 54//54
f 30//30 27//27 44//44
f 27//27 29//29 55//55
f 49//49 56//56 50//50
f 49//49 57//57 56//56
f 27//27 55//55 44//44
f 44//44 55//55 49//49
f 29//29 58//58 55//55
f 49//49 59//59 57//57
f 57//57 54//54 53//53
f 49//49 55//55 60//60
f 1//1 61//61 8//8
f 1//1 9//9 61//61
f 5//5 17//17 9//9
f 61//61 62//62 8//8
f 61//61 63//63 62//62
f 61//61 9//9 63//63
f 62//62 63//63 64//64
f 9//9 65//65 63//63
f 63//63 65//65 64//64
f 2//2 8//8 23//23
f 8//8 62//62 66//66
f 62//62 64//64 66//66
f 64//64 67//67 68//68
f 64//64 69//69 67//67
f 64//64 70//70 69//69
f 64//64 71//71 70//70
f 9//9 17//17 65//65
f 64//64 65//65 71//71
f 71//71 72//72 70//70
f 64//64 68//68 73//73
f 8//8 66//66 23//23
f 64//64 73//73 66//66
f 73//73 68//68 74//74
f 73//73 74//74 75//75
f 24//24 23//23 76//76
f 24//24 76//76 28//28
f 23//23 66//66 76//76
f 66//66 77//77 76//76
f 66//66 73//73 77//77
f 76//76 77//77 28//28
f 73//73 78//78 77//77
f 28//28 77//77 58//58
f 78//78 75//75 79//79
f 29//29 28//28 58//58
f 73//73 75//75 78//78
f 77//77 78//78 80//80
f 77//77 80//80 58//58
f 32//32 81//81 17//17
f 32//32 38//38 81//81
f 37//37 40//40 82//82
f 38//38 37//37 82//82
f 17//17 81//81 65//65
f 65//65 83//83 71//71
f 65//65 81//81 83//83
f 81//81 38//38 83//83
f 38//38 82//82 84//84
f 38//38 84//84 85//85
f 39//39 46//46 40//40
f 45//45 48//48 46//46
f 71//71 86//86 72//72
f 71//71 83//83 78//78
f 71//71 78//78 86//86
f 38//38 85//85 87//87
f 38//38 60//60 83//83
f 48//48 47//47 52//52
f 51//51 54//54 52//52
f 78//78 88//88 86//86
f 78//78 79//79 88//88
f 38//38 87//87 60//60
f 83//83 89//89 78//78
f 83//83 60//60 89//89
f 60//60 87//87 90//90
f 57//57 59//59 54//54
f 49//49 60//60 59//59
f 55//55 58//58 91//91
f 55//55 91//91 60//60
f 78//78 89//89 80//80
f 58//58 80//80 91//91
f 60//60 92//92 59//59
f 60//60 90//90 92//92
f 80//80 89//89 91//91
f 60//60 91//91 89//89
f 93//93 94//94 95//95
f 96//96 93//93 95//95
f 97//97 98//98 94//94
f 93//93 97//97 94//94
f 96//96 95//95 99//99
f 100//100 99//99 101//101
f 96//96 99//99 100//100
f 100//100 101//101 102//102
f 103//103 104//104 105//105
f 103//103 106//106 107//107
f 108//108 109//109 98//98
f 110//110 111//111 109//109
f 97//97 108//108 98//98
f 107//107 112//112 113//113
f 113//113 114//114 115//115
f 108//108 110//110 109//109
f 102//102 101//101 116//116
f 117//117 116//116 118//118
f 102//102 116//116 117//117
f 104//104 119//119 105//105
f 103//103 105//105 106//106
f 107//107 106//106 112//112
f 117//117 118//118 120//120
f 121//121 122//122 111//111
f 123//123 124//124 122//122
f 113//113 112//112 114//114
f 115//115 114//114 125//125
f 110//110 121//121 111//111
f 115//115 125//125 126//126
f 121//121 123//123 122//122
f 120//120 118//118 127//127
f 120//120 127//127 128//128
f 128//128 127//127 124//124
f 123//123 128//128 124//124
f 129//129 130//130 131//131
f 132//132 129//129 131//131
f 133//133 134//134 130//130
f 129//129 133//133 130//130
f 132//132 131//131 135//135
f 136//136 135//135 137//137
f 132//132 135//135 136//136
f 136//136 137//137 138//138
f 139//139 140//140 141//141
f 139//139 142//142 143//143
f 144//144 145//145 134//134
f 146//146 147//147 145//145
f 133//133 144//144 134//134
f 143//143 148//148 149//149
f 149//149 150//150 151//151
f 144//144 146//146 145//145
f 138//138 137//137 152//152
f 153//153 152//152 154//154
f 138//138 152//152 153//153
f 140//140 155//155 141//141
f 139//139 141//141 142//142
f 143//143 142//142 148//148
f 153//153 154//154 156//156
f 157//157 158//158 147//147
f 159//159 160//160 158//158
f 149//149 148//148 150//150
f 151//151 150//150 161//161
f 146//146 157//157 147//147
f 151//151 161//161 162//162
f 157//157 159//159 158//158
f 156//156 154//154 163//163
f 156//156 163//163 164//164
f 164//164 163//163 160//160
f 159//159 164//164 160//160
f 165//165 166//166 167//167
f 165//165 168//168 166//166
f 167//167 166//166 169//169
f 170//170 171//171 172//172
f 171//171 173//173 174//174
f 170//170 172//172 175//175
f 171//171 174//174 172//172
f 165//165 176//176 168//168
f 176//176 177//177 178//178
f 177//177 179//179 180//180
f 176//176 178//178 168//168
f 177//177 180//180 178//178
f 179//179 181//181 180//180
f 167//167 169//169 182//182
f 182//182 183//183 184//184
f 182//182 169//169 183//183
f 173//173 185//185 186//186
f 185//185 187//187 188//188
f 184//184 189//189 190//190
f 174//174 173//173 186//186
f 185//185 188//188 186//186
f 190//190 191//191 192//192
f 192//192 193//193 194//194
f 184//184 183//183 189//189
f 190//190 189//189 191//191
f 192//192 191//191 193//193
f 179//179 194//194 181//181
f 194//194 193//193 181//181
f 195//195 196//196 197//197
f 198//198 195//195 197//197
f 195//195 199//199 196//196
f 198//198 197//197 200//200
f 201//201 200//200 202//202
f 203//203 202//202 204//204
f 198//198 200//200 201//201
f 205//205 206//206 207//207
f 207//207 208//208 209//209
f 205//205 210//210 206//206
f 207//207 206//206 208//208
f 201//201 202//202 203//203
f 203//203 204//204 211//211
f 199//199 212//212 196//196
f 213//213 214//214 212//212
f 199//199 213//213 212//212
f 215//215 216//216 214//214
f 217//217 218//218 216//216
f 219//219 220//220 218//218
f 213//213 215//215 214//214
f 215//215 217//217 216//216
f 209//209 221//221 222//222
f 222//222 223//223 224//224
f 217//217 219//219 218//218
f 208//208 221//221 209//209
f 222//222 221//221 223//223
f 211//211 204//204 220//220
f 211//211 220//220 219//219
