v -0.24566 0.35900 -0.12066
v -0.24000 0.35900 -0.12300
v -0.24000 0.35334 -0.12066
v -0.24566 0.35334 -0.11500
v -0.24800 0.35900 -0.11500
v -0.24000 0.35100 -0.11500
v -0.21307 0.35100 -0.05007
v -0.21507 0.35100 -0.04807
v -0.20800 0.35100 -0.05217
v -0.21717 0.35100 -0.04300
v -0.15200 0.35100 -0.05217
v -0.24566 0.44100 -0.12066
v -0.24800 0.44100 -0.11500
v -0.24000 0.44100 -0.12300
v -0.24000 0.44666 -0.12066
v -0.24566 0.44666 -0.11500
v -0.24000 0.44900 -0.11500
v -0.18995 0.44900 -0.03750
v -0.16250 0.44900 -0.06495
v -0.14693 0.35100 -0.05007
v -0.12500 0.44900 -0.07500
v -0.24566 0.35334 0.11500
v -0.21717 0.35100 0.04300
v -0.24800 0.35900 0.11500
v -0.24566 0.44666 0.11500
v -0.20000 0.44900 0.00000
v 0.24000 0.35900 -0.12300
v 0.24000 0.35100 -0.11500
v 0.24000 0.44100 -0.12300
v 0.24000 0.44900 -0.11500
v -0.08750 0.44900 -0.06495
v 0.08750 0.44900 -0.06495
v 0.24000 0.35100 0.11500
v -0.06005 0.44900 -0.03750
v 0.06005 0.44900 -0.03750
v -0.05000 0.44900 0.00000
v -0.24000 0.35100 0.11500
v -0.24000 0.44900 0.11500
v -0.24800 0.44100 0.11500
v -0.18995 0.44900 0.03750
v -0.21507 0.35100 0.04807
v -0.21307 0.35100 0.05007
v -0.20800 0.35100 0.05217
v -0.15200 0.35100 0.05217
v -0.24566 0.35900 0.12066
v -0.24000 0.35334 0.12066
v -0.24000 0.35900 0.12300
v -0.16250 0.44900 0.06495
v -0.24566 0.44100 0.12066
v -0.24000 0.44100 0.12300
v -0.24000 0.44666 0.12066
v -0.12500 0.44900 0.07500
v -0.14493 0.35100 -0.04807
v -0.14283 0.35100 -0.04300
v -0.14283 0.35100 0.04300
v -0.06005 0.44900 0.03750
v -0.08750 0.44900 0.06495
v 0.08750 0.44900 0.06495
v 0.24000 0.35900 0.12300
v 0.12500 0.44900 0.07500
v 0.24000 0.44900 0.11500
v 0.24000 0.44100 0.12300
v -0.14493 0.35100 0.04807
v -0.14693 0.35100 0.05007
v 0.15200 0.35100 -0.05217
v 0.14693 0.35100 -0.05007
v 0.14493 0.35100 -0.04807
v 0.14283 0.35100 -0.04300
v 0.12500 0.44900 -0.07500
v 0.24000 0.35334 -0.12066
v 0.24000 0.44666 -0.12066
v 0.14283 0.35100 0.04300
v 0.14493 0.35100 0.04807
v 0.14693 0.35100 0.05007
v 0.16250 0.44900 -0.06495
v 0.24566 0.35900 -0.12066
v 0.24566 0.35334 -0.11500
v 0.24800 0.35900 -0.11500
v 0.20800 0.35100 -0.05217
v 0.21307 0.35100 -0.05007
v 0.21507 0.35100 -0.04807
v 0.21717 0.35100 -0.04300
v 0.24566 0.44100 -0.12066
v 0.24800 0.44100 -0.11500
v 0.24566 0.44666 -0.11500
v 0.18995 0.44900 -0.03750
v 0.24566 0.35334 0.11500
v 0.20000 0.44900 0.00000
v 0.24800 0.35900 0.11500
v 0.24800 0.44100 0.11500
v 0.05000 0.44900 0.00000
v 0.06005 0.44900 0.03750
v 0.24000 0.35334 0.12066
v 0.24000 0.44666 0.12066
v 0.21717 0.35100 0.04300
v 0.18995 0.44900 0.03750
v 0.24566 0.44666 0.11500
v 0.15200 0.35100 0.05217
v 0.16250 0.44900 0.06495
v 0.20800 0.35100 0.05217
v 0.21507 0.35100 0.04807
v 0.21307 0.35100 0.05007
v 0.24566 0.35900 0.12066
v 0.24566 0.44100 0.12066
v -0.16250 0.49900 -0.06495
v -0.12500 0.49900 -0.07500
v -0.16250 0.44900 -0.06495
v -0.12500 0.44900 -0.07500
v -0.18995 0.49900 -0.03750
v -0.18995 0.44900 -0.03750
v -0.20000 0.44900 0.00000
v -0.20000 0.49900 0.00000
v -0.16250 0.49900 -0.06495
v -0.18995 0.49900 -0.03750
v -0.18995 0.49900 0.03750
v -0.16250 0.49900 0.06495
v -0.12500 0.49900 -0.07500
v -0.08750 0.49900 -0.06495
v -0.08750 0.44900 -0.06495
v -0.06005 0.49900 -0.03750
v -0.06005 0.44900 -0.03750
v -0.12500 0.49900 0.07500
v -0.08750 0.49900 -0.06495
v -0.08750 0.49900 0.06495
v -0.06005 0.49900 -0.03750
v -0.05000 0.49900 0.00000
v -0.05000 0.44900 0.00000
v -0.18995 0.44900 0.03750
v -0.20000 0.49900 0.00000
v -0.18995 0.49900 0.03750
v -0.16250 0.44900 0.06495
v -0.16250 0.49900 0.06495
v -0.12500 0.44900 0.07500
v -0.12500 0.49900 0.07500
v -0.06005 0.49900 0.03750
v -0.08750 0.49900 0.06495
v -0.08750 0.44900 0.06495
v -0.06005 0.44900 0.03750
v -0.06005 0.49900 0.03750
v -0.05000 0.49900 0.00000
v 0.08750 0.49900 -0.06495
v 0.12500 0.49900 -0.07500
v 0.08750 0.44900 -0.06495
v 0.12500 0.44900 -0.07500
v 0.06005 0.49900 -0.03750
v 0.06005 0.44900 -0.03750
v 0.05000 0.44900 0.00000
v 0.05000 0.49900 0.00000
v 0.08750 0.49900 -0.06495
v 0.06005 0.49900 -0.03750
v 0.06005 0.49900 0.03750
v 0.08750 0.49900 0.06495
v 0.12500 0.49900 -0.07500
v 0.16250 0.49900 -0.06495
v 0.16250 0.44900 -0.06495
v 0.18995 0.49900 -0.03750
v 0.18995 0.44900 -0.03750
v 0.12500 0.49900 0.07500
v 0.16250 0.49900 -0.06495
v 0.16250 0.49900 0.06495
v 0.18995 0.49900 -0.03750
v 0.20000 0.49900 0.00000
v 0.20000 0.44900 0.00000
v 0.06005 0.44900 0.03750
v 0.05000 0.49900 0.00000
v 0.06005 0.49900 0.03750
v 0.08750 0.44900 0.06495
v 0.08750 0.49900 0.06495
v 0.12500 0.44900 0.07500
v 0.12500 0.49900 0.07500
v 0.18995 0.49900 0.03750
v 0.16250 0.49900 0.06495
v 0.16250 0.44900 0.06495
v 0.18995 0.44900 0.03750
v 0.18995 0.49900 0.03750
v 0.20000 0.49900 0.00000
v -0.21800 -0.43900 -0.04300
v -0.21800 -0.42263 -0.02427
v -0.21800 -0.40500 -0.03000
v -0.21800 -0.38737 -0.02427
v -0.20800 -0.43900 -0.05300
v -0.20800 -0.44607 -0.05007
v -0.21507 -0.43900 -0.05007
v -0.21507 -0.44607 -0.04300
v -0.15200 -0.44607 -0.05007
v -0.20800 -0.44900 -0.04300
v -0.21800 -0.43353 -0.00927
v -0.21800 -0.43353 0.00927
v -0.21507 -0.44607 0.04300
v -0.20800 -0.44900 0.04300
v -0.15200 -0.44900 -0.04300
v -0.15200 -0.43900 -0.05300
v -0.14493 -0.43900 -0.05007
v -0.14493 -0.44607 -0.04300
v -0.14200 -0.43900 -0.04300
v -0.14200 -0.40500 -0.03000
v -0.14200 -0.42263 -0.02427
v -0.14200 -0.43353 -0.00927
v -0.15200 -0.44900 0.04300
v -0.14493 -0.44607 0.04300
v -0.14200 -0.43353 0.00927
v -0.21800 0.34900 -0.04300
v -0.20800 0.34900 -0.05300
v -0.21800 0.34900 0.04300
v -0.15200 0.34900 -0.05300
v -0.14200 0.34900 -0.04300
v -0.14200 -0.38737 -0.02427
v -0.14200 -0.37647 -0.00927
v -0.14200 -0.37647 0.00927
v -0.14200 -0.38737 0.02427
v -0.21800 -0.43900 0.04300
v -0.21800 -0.42263 0.02427
v -0.21800 -0.40500 0.03000
v -0.21507 -0.43900 0.05007
v -0.20800 -0.44607 0.05007
v -0.20800 -0.43900 0.05300
v -0.15200 -0.44607 0.05007
v -0.14200 -0.43900 0.04300
v -0.14200 -0.42263 0.02427
v -0.15200 -0.43900 0.05300
v -0.14200 -0.40500 0.03000
v -0.14493 -0.43900 0.05007
v -0.21800 -0.37647 -0.00927
v -0.21800 -0.37647 0.00927
v -0.21800 -0.38737 0.02427
v -0.21507 0.34900 0.05007
v -0.20800 0.34900 0.05300
v -0.15200 0.34900 0.05300
v -0.14200 0.34900 0.04300
v -0.21507 0.34900 -0.05007
v -0.14493 0.34900 -0.05007
v -0.21307 0.35100 -0.05007
v -0.20800 0.35100 -0.05217
v -0.21507 0.35100 -0.04807
v -0.21717 0.35100 -0.04300
v -0.21717 0.35100 0.04300
v -0.15200 0.35100 -0.05217
v -0.14693 0.35100 -0.05007
v -0.14493 0.35100 -0.04807
v -0.14283 0.35100 -0.04300
v -0.14493 0.34900 0.05007
v -0.21507 0.35100 0.04807
v -0.21307 0.35100 0.05007
v -0.20800 0.35100 0.05217
v -0.15200 0.35100 0.05217
v -0.14283 0.35100 0.04300
v -0.14493 0.35100 0.04807
v -0.14693 0.35100 0.05007
v 0.14493 -0.43900 -0.05007
v 0.15200 -0.43900 -0.05300
v 0.15200 -0.44607 -0.05007
v 0.14493 -0.44607 -0.04300
v 0.14200 -0.43900 -0.04300
v 0.15200 -0.44900 -0.04300
v 0.14200 -0.42263 -0.02427
v 0.14200 -0.40500 -0.03000
v 0.14200 -0.38737 -0.02427
v 0.20800 -0.44607 -0.05007
v 0.14200 -0.43353 -0.00927
v 0.14493 -0.44607 0.04300
v 0.15200 -0.44900 0.04300
v 0.14200 -0.43900 0.04300
v 0.20800 -0.44900 -0.04300
v 0.20800 -0.43900 -0.05300
v 0.21507 -0.43900 -0.05007
v 0.21507 -0.44607 -0.04300
v 0.21800 -0.43900 -0.04300
v 0.21800 -0.40500 -0.03000
v 0.21800 -0.42263 -0.02427
v 0.21800 -0.38737 -0.02427
v 0.20800 -0.44900 0.04300
v 0.21800 -0.43353 -0.00927
v 0.21800 -0.43900 0.04300
v 0.21800 -0.43353 0.00927
v 0.15200 0.34900 -0.05300
v 0.14200 0.34900 -0.04300
v 0.14200 0.34900 0.04300
v 0.20800 0.34900 -0.05300
v 0.21800 0.34900 -0.04300
v 0.21800 -0.37647 -0.00927
v 0.21800 -0.37647 0.00927
v 0.21800 -0.38737 0.02427
v 0.14200 -0.43353 0.00927
v 0.14200 -0.42263 0.02427
v 0.14200 -0.40500 0.03000
v 0.14493 -0.43900 0.05007
v 0.15200 -0.44607 0.05007
v 0.15200 -0.43900 0.05300
v 0.20800 -0.44607 0.05007
v 0.21507 -0.44607 0.04300
v 0.21800 -0.42263 0.02427
v 0.21507 -0.43900 0.05007
v 0.20800 -0.43900 0.05300
v 0.21800 -0.40500 0.03000
v 0.14200 -0.37647 -0.00927
v 0.14200 -0.37647 0.00927
v 0.14200 -0.38737 0.02427
v 0.14493 0.34900 0.05007
v 0.20800 0.34900 0.05300
v 0.21800 0.34900 0.04300
v 0.14493 0.34900 -0.05007
v 0.21507 0.34900 -0.05007
v 0.14493 0.35100 -0.04807
v 0.14693 0.35100 -0.05007
v 0.15200 0.35100 -0.05217
v 0.14283 0.35100 -0.04300
v 0.14283 0.35100 0.04300
v 0.20800 0.35100 -0.05217
v 0.21307 0.35100 -0.05007
v 0.21507 0.35100 -0.04807
v 0.21717 0.35100 -0.04300
v 0.15200 0.34900 0.05300
v 0.21507 0.34900 0.05007
v 0.14493 0.35100 0.04807
v 0.14693 0.35100 0.05007
v 0.15200 0.35100 0.05217
v 0.20800 0.35100 0.05217
v 0.21717 0.35100 0.04300
v 0.21507 0.35100 0.04807
v 0.21307 0.35100 0.05007
v -0.22000 -0.42263 -0.02427
v -0.21800 -0.42263 -0.02427
v -0.21800 -0.43353 -0.00927
v -0.22000 -0.40500 -0.03000
v -0.21800 -0.40500 -0.03000
v -0.22000 -0.42263 -0.02427
v -0.22000 -0.38737 -0.02427
v -0.22000 -0.40500 -0.03000
v -0.22000 -0.38737 -0.02427
v -0.21800 -0.38737 -0.02427
v -0.22000 -0.43353 -0.00927
v -0.22000 -0.43353 -0.00927
v -0.21800 -0.43353 0.00927
v -0.22000 -0.37647 -0.00927
v -0.22000 -0.43353 0.00927
v -0.22000 -0.37647 -0.00927
v -0.21800 -0.37647 -0.00927
v -0.22000 -0.37647 0.00927
v -0.14200 -0.40500 -0.03000
v 0.14200 -0.42263 -0.02427
v -0.14200 -0.42263 -0.02427
v -0.14200 -0.38737 -0.02427
v 0.14200 -0.40500 -0.03000
v 0.14200 -0.43353 -0.00927
v -0.14200 -0.43353 -0.00927
v -0.14200 -0.37647 -0.00927
v 0.14200 -0.38737 -0.02427
v -0.14200 -0.37647 0.00927
v 0.14200 -0.37647 -0.00927
v -0.22000 -0.43353 0.00927
v -0.21800 -0.42263 0.02427
v -0.22000 -0.37647 0.00927
v -0.22000 -0.42263 0.02427
v -0.22000 -0.42263 0.02427
v -0.22000 -0.38737 0.02427
v -0.21800 -0.40500 0.03000
v -0.22000 -0.40500 0.03000
v -0.22000 -0.40500 0.03000
v -0.21800 -0.38737 0.02427
v -0.22000 -0.38737 0.02427
v -0.21800 -0.37647 0.00927
v 0.14200 -0.43353 0.00927
v -0.14200 -0.43353 0.00927
v 0.14200 -0.42263 0.02427
v -0.14200 -0.42263 0.02427
v 0.14200 -0.40500 0.03000
v -0.14200 -0.40500 0.03000
v 0.14200 -0.38737 0.02427
v -0.14200 -0.38737 0.02427
v 0.14200 -0.37647 0.00927
v 0.22000 -0.42263 -0.02427
v 0.22000 -0.43353 -0.00927
v 0.21800 -0.42263 -0.02427
v 0.21800 -0.40500 -0.03000
v 0.22000 -0.40500 -0.03000
v 0.22000 -0.42263 -0.02427
v 0.22000 -0.40500 -0.03000
v 0.22000 -0.38737 -0.02427
v 0.21800 -0.38737 -0.02427
v 0.22000 -0.38737 -0.02427
v 0.22000 -0.43353 -0.00927
v 0.21800 -0.43353 -0.00927
v 0.22000 -0.43353 0.00927
v 0.22000 -0.37647 -0.00927
v 0.22000 -0.43353 0.00927
v 0.21800 -0.37647 -0.00927
v 0.22000 -0.37647 -0.00927
v 0.21800 -0.37647 0.00927
v 0.21800 -0.43353 0.00927
v 0.22000 -0.42263 0.02427
v 0.22000 -0.37647 0.00927
v 0.22000 -0.42263 0.02427
v 0.21800 -0.42263 0.02427
v 0.22000 -0.38737 0.02427
v 0.22000 -0.40500 0.03000
v 0.22000 -0.40500 0.03000
v 0.21800 -0.40500 0.03000
v 0.22000 -0.38737 0.02427
v 0.21800 -0.38737 0.02427
v 0.22000 -0.37647 0.00927
vn -0.6887 -0.2265 -0.6887
vn -0.1877 -0.1877 -0.9641
vn -0.2265 -0.6887 -0.6887
vn -0.6887 -0.6887 -0.2265
vn -0.9641 -0.1877 -0.1877
vn -0.1877 -0.9641 -0.1877
vn 0.0000 -1.0000 0.0000
vn 0.0000 -1.0000 0.0000
vn 0.0000 -1.0000 0.0000
vn 0.0000 -1.0000 0.0000
vn 0.0000 -1.0000 0.0000
vn -0.6887 0.2265 -0.6887
vn -0.9641 0.1877 -0.1877
vn -0.1877 0.1877 -0.9641
vn -0.2265 0.6887 -0.6887
vn -0.6887 0.6887 -0.2265
vn -0.1877 0.9641 -0.1877
vn 0.0000 1.0000 0.0000
vn 0.0000 1.0000 0.0000
vn 0.0000 -1.0000 0.0000
vn 0.0000 1.0000 0.0000
vn -0.6887 -0.6887 0.2265
vn 0.0000 -1.0000 0.0000
vn -0.9641 -0.1877 0.1877
vn -0.6887 0.6887 0.2265
vn 0.0000 1.0000 0.0000
vn 0.1877 -0.1877 -0.9641
vn 0.1877 -0.9641 -0.1877
vn 0.1877 0.1877 -0.9641
vn 0.1877 0.9641 -0.1877
vn 0.0000 1.0000 0.0000
vn 0.0000 1.0000 0.0000
vn 0.1877 -0.9641 0.1877
vn 0.0000 1.0000 0.0000
vn 0.0000 1.0000 0.0000
vn 0.0000 1.0000 0.0000
vn -0.1877 -0.9641 0.1877
vn -0.1877 0.9641 0.1877
vn -0.9641 0.1877 0.1877
vn 0.0000 1.0000 0.0000
vn 0.0000 -1.0000 0.0000
vn 0.0000 -1.0000 0.0000
vn 0.0000 -1.0000 0.0000
vn 0.0000 -1.0000 0.0000
vn -0.6887 -0.2265 0.6887
vn -0.2265 -0.6887 0.6887
vn -0.1877 -0.1877 0.9641
vn 0.0000 1.0000 0.0000
vn -0.6887 0.2265 0.6887
vn -0.1877 0.1877 0.9641
vn -0.2265 0.6887 0.6887
vn 0.0000 1.0000 0.0000
vn 0.0000 -1.0000 0.0000
vn 0.0000 -1.0000 0.0000
vn 0.0000 -1.0000 0.0000
vn 0.0000 1.0000 0.0000
vn 0.0000 1.0000 0.0000
vn 0.0000 1.0000 0.0000
vn 0.1877 -0.1877 0.9641
vn 0.0000 1.0000 0.0000
vn 0.1877 0.9641 0.1877
vn 0.1877 0.1877 0.9641
vn 0.0000 -1.0000 0.0000
vn 0.0000 -1.0000 0.0000
vn 0.0000 -1.0000 0.0000
vn 0.0000 -1.0000 0.0000
vn 0.0000 -1.0000 0.0000
vn 0.0000 -1.0000 0.0000
vn 0.0000 1.0000 0.0000
vn 0.2265 -0.6887 -0.6887
vn 0.2265 0.6887 -0.6887
vn 0.0000 -1.0000 0.0000
vn 0.0000 -1.0000 0.0000
vn 0.0000 -1.0000 0.0000
vn 0.0000 1.0000 0.0000
vn 0.6887 -0.2265 -0.6887
vn 0.6887 -0.6887 -0.2265
vn 0.9641 -0.1877 -0.1877
vn 0.0000 -1.0000 0.0000
vn 0.0000 -1.0000 0.0000
vn 0.0000 -1.0000 0.0000
vn 0.0000 -1.0000 0.0000
vn 0.6887 0.2265 -0.6887
vn 0.9641 0.1877 -0.1877
vn 0.6887 0.6887 -0.2265
vn 0.0000 1.0000 0.0000
vn 0.6887 -0.6887 0.2265
vn 0.0000 1.0000 0.0000
vn 0.9641 -0.1877 0.1877
vn 0.9641 0.1877 0.1877
vn 0.0000 1.0000 0.0000
vn 0.0000 1.0000 0.0000
vn 0.2265 -0.6887 0.6887
vn 0.2265 0.6887 0.6887
vn 0.0000 -1.0000 0.0000
vn 0.0000 1.0000 0.0000
vn 0.6887 0.6887 0.2265
vn 0.0000 -1.0000 0.0000
vn 0.0000 1.0000 0.0000
vn 0.0000 -1.0000 0.0000
vn 0.0000 -1.0000 0.0000
vn 0.0000 -1.0000 0.0000
vn 0.6887 -0.2265 0.6887
vn 0.6887 0.2265 0.6887
vn -0.5000 0.0000 -0.8660
vn 0.0000 0.0000 -1.0000
vn -0.5000 0.0000 -0.8660
vn -0.0000 -0.0000 -1.0000
vn -0.8660 -0.0000 -0.5000
vn -0.8660 0.0000 -0.5000
vn -1.0000 -0.0000 0.0000
vn -1.0000 0.0000 0.0000
vn 0.0000 1.0000 0.0000
vn 0.0000 1.0000 0.0000
vn 0.0000 1.0000 0.0000
vn 0.0000 1.0000 0.0000
vn 0.0000 1.0000 0.0000
vn 0.5000 -0.0000 -0.8660
vn 0.5000 -0.0000 -0.8660
vn 0.8660 -0.0000 -0.5000
vn 0.8660 0.0000 -0.5000
vn 0.0000 1.0000 0.0000
vn 0.0000 1.0000 0.0000
vn 0.0000 1.0000 0.0000
vn 0.0000 1.0000 0.0000
vn 1.0000 0.0000 0.0000
vn 1.0000 -0.0000 0.0000
vn -0.8660 0.0000 0.5000
vn 0.0000 1.0000 0.0000
vn -0.8660 0.0000 0.5000
vn -0.5000 0.0000 0.8660
vn -0.5000 -0.0000 0.8660
vn 0.0000 -0.0000 1.0000
vn -0.0000 0.0000 1.0000
vn 0.0000 1.0000 0.0000
vn 0.5000 0.0000 0.8660
vn 0.5000 0.0000 0.8660
vn 0.8660 0.0000 0.5000
vn 0.8660 -0.0000 0.5000
vn 0.0000 1.0000 0.0000
vn -0.5000 0.0000 -0.8660
vn 0.0000 0.0000 -1.0000
vn -0.5000 0.0000 -0.8660
vn -0.0000 -0.0000 -1.0000
vn -0.8660 0.0000 -0.5000
vn -0.8660 0.0000 -0.5000
vn -1.0000 0.0000 0.0000
vn -1.0000 0.0000 0.0000
vn 0.0000 1.0000 0.0000
vn 0.0000 1.0000 0.0000
vn 0.0000 1.0000 0.0000
vn 0.0000 1.0000 0.0000
vn 0.0000 1.0000 0.0000
vn 0.5000 -0.0000 -0.8660
vn 0.5000 0.0000 -0.8660
vn 0.8660 0.0000 -0.5000
vn 0.8660 0.0000 -0.5000
vn 0.0000 1.0000 0.0000
vn 0.0000 1.0000 0.0000
vn 0.0000 1.0000 0.0000
vn 0.0000 1.0000 0.0000
vn 1.0000 0.0000 0.0000
vn 1.0000 0.0000 0.0000
vn -0.8660 0.0000 0.5000
vn 0.0000 1.0000 0.0000
vn -0.8660 0.0000 0.5000
vn -0.5000 0.0000 0.8660
vn -0.5000 -0.0000 0.8660
vn 0.0000 -0.0000 1.0000
vn -0.0000 0.0000 1.0000
vn 0.0000 1.0000 0.0000
vn 0.5000 0.0000 0.8660
vn 0.5000 0.0000 0.8660
vn 0.8660 0.0000 0.5000
vn 0.8660 0.0000 0.5000
vn 0.0000 1.0000 0.0000
vn -0.9641 -0.1877 -0.1877
vn -1.0000 0.0000 0.0000
vn -1.0000 0.0000 0.0000
vn -1.0000 0.0000 0.0000
vn -0.1877 -0.1877 -0.9641
vn -0.2265 -0.6887 -0.6887
vn -0.6887 -0.2265 -0.6887
vn -0.6887 -0.6887 -0.2265
vn 0.2265 -0.6887 -0.6887
vn -0.1877 -0.9641 -0.1877
vn -1.0000 0.0000 0.0000
vn -1.0000 0.0000 0.0000
vn -0.6887 -0.6887 0.2265
vn -0.1877 -0.9641 0.1877
vn 0.1877 -0.9641 -0.1877
vn 0.1877 -0.1877 -0.9641
vn 0.6887 -0.2265 -0.6887
vn 0.6887 -0.6887 -0.2265
vn 0.9641 -0.1877 -0.1877
vn 1.0000 0.0000 0.0000
vn 1.0000 0.0000 0.0000
vn 1.0000 0.0000 0.0000
vn 0.1877 -0.9641 0.1877
vn 0.6887 -0.6887 0.2265
vn 1.0000 0.0000 0.0000
vn -0.9641 0.1877 -0.1877
vn -0.1877 0.1877 -0.9641
vn -0.9641 0.1877 0.1877
vn 0.1877 0.1877 -0.9641
vn 0.9641 0.1877 -0.1877
vn 1.0000 0.0000 0.0000
vn 1.0000 0.0000 0.0000
vn 1.0000 0.0000 0.0000
vn 1.0000 0.0000 0.0000
vn -0.9641 -0.1877 0.1877
vn -1.0000 0.0000 0.0000
vn -1.0000 0.0000 0.0000
vn -0.6887 -0.2265 0.6887
vn -0.2265 -0.6887 0.6887
vn -0.1877 -0.1877 0.9641
vn 0.2265 -0.6887 0.6887
vn 0.9641 -0.1877 0.1877
vn 1.0000 0.0000 0.0000
vn 0.1877 -0.1877 0.9641
vn 1.0000 0.0000 0.0000
vn 0.6887 -0.2265 0.6887
vn -1.0000 0.0000 0.0000
vn -1.0000 0.0000 0.0000
vn -1.0000 0.0000 0.0000
vn -0.6887 0.2265 0.6887
vn -0.1877 0.1877 0.9641
vn 0.1877 0.1877 0.9641
vn 0.9641 0.1877 0.1877
vn -0.6887 0.2265 -0.6887
vn 0.6887 0.2265 -0.6887
vn -0.4350 0.4350 -0.7884
vn -0.1898 0.3757 -0.9071
vn -0.7884 0.4350 -0.4350
vn -0.9071 0.3757 -0.1898
vn -0.9071 0.3757 0.1898
vn 0.1898 0.3757 -0.9071
vn 0.4350 0.4350 -0.7884
vn 0.7884 0.4350 -0.4350
vn 0.9071 0.3757 -0.1898
vn 0.6887 0.2265 0.6887
vn -0.7884 0.4350 0.4350
vn -0.4350 0.4350 0.7884
vn -0.1898 0.3757 0.9071
vn 0.1898 0.3757 0.9071
vn 0.9071 0.3757 0.1898
vn 0.7884 0.4350 0.4350
vn 0.4350 0.4350 0.7884
vn -0.6887 -0.2265 -0.6887
vn -0.1877 -0.1877 -0.9641
vn -0.2265 -0.6887 -0.6887
vn -0.6887 -0.6887 -0.2265
vn -0.9641 -0.1877 -0.1877
vn -0.1877 -0.9641 -0.1877
vn -1.0000 0.0000 0.0000
vn -1.0000 0.0000 0.0000
vn -1.0000 0.0000 0.0000
vn 0.2265 -0.6887 -0.6887
vn -1.0000 0.0000 0.0000
vn -0.6887 -0.6887 0.2265
vn -0.1877 -0.9641 0.1877
vn -0.9641 -0.1877 0.1877
vn 0.1877 -0.9641 -0.1877
vn 0.1877 -0.1877 -0.9641
vn 0.6887 -0.2265 -0.6887
vn 0.6887 -0.6887 -0.2265
vn 0.9641 -0.1877 -0.1877
vn 1.0000 0.0000 0.0000
vn 1.0000 0.0000 0.0000
vn 1.0000 0.0000 0.0000
vn 0.1877 -0.9641 0.1877
vn 1.0000 0.0000 0.0000
vn 0.9641 -0.1877 0.1877
vn 1.0000 0.0000 0.0000
vn -0.1877 0.1877 -0.9641
vn -0.9641 0.1877 -0.1877
vn -0.9641 0.1877 0.1877
vn 0.1877 0.1877 -0.9641
vn 0.9641 0.1877 -0.1877
vn 1.0000 0.0000 0.0000
vn 1.0000 0.0000 0.0000
vn 1.0000 0.0000 0.0000
vn -1.0000 0.0000 0.0000
vn -1.0000 0.0000 0.0000
vn -1.0000 0.0000 0.0000
vn -0.6887 -0.2265 0.6887
vn -0.2265 -0.6887 0.6887
vn -0.1877 -0.1877 0.9641
vn 0.2265 -0.6887 0.6887
vn 0.6887 -0.6887 0.2265
vn 1.0000 0.0000 0.0000
vn 0.6887 -0.2265 0.6887
vn 0.1877 -0.1877 0.9641
vn 1.0000 0.0000 0.0000
vn -1.0000 0.0000 0.0000
vn -1.0000 0.0000 0.0000
vn -1.0000 0.0000 0.0000
vn -0.6887 0.2265 0.6887
vn 0.1877 0.1877 0.9641
vn 0.9641 0.1877 0.1877
vn -0.6887 0.2265 -0.6887
vn 0.6887 0.2265 -0.6887
vn -0.7884 0.4350 -0.4350
vn -0.4350 0.4350 -0.7884
vn -0.1898 0.3757 -0.9071
vn -0.9071 0.3757 -0.1898
vn -0.9071 0.3757 0.1898
vn 0.1898 0.3757 -0.9071
vn 0.4350 0.4350 -0.7884
vn 0.7884 0.4350 -0.4350
vn 0.9071 0.3757 -0.1898
vn -0.1877 0.1877 0.9641
vn 0.6887 0.2265 0.6887
vn -0.7884 0.4350 0.4350
vn -0.4350 0.4350 0.7884
vn -0.1898 0.3757 0.9071
vn 0.1898 0.3757 0.9071
vn 0.9071 0.3757 0.1898
vn 0.7884 0.4350 0.4350
vn 0.4350 0.4350 0.7884
vn 0.0000 -0.5878 -0.8090
vn 0.0000 -0.5878 -0.8090
vn 0.0000 -0.9511 -0.3090
vn 0.0000 -0.0000 -1.0000
vn -0.0000 -0.0000 -1.0000
vn -1.0000 0.0000 0.0000
vn -1.0000 0.0000 0.0000
vn -1.0000 0.0000 0.0000
vn -0.0000 0.5878 -0.8090
vn -0.0000 0.5878 -0.8090
vn -1.0000 0.0000 0.0000
vn 0.0000 -0.9511 -0.3090
vn 0.0000 -0.9511 0.3090
vn -1.0000 0.0000 0.0000
vn -1.0000 0.0000 0.0000
vn -0.0000 0.9511 -0.3090
vn 0.0000 0.9511 -0.3090
vn 0.0000 0.9511 0.3090
vn 0.0000 -0.0000 -1.0000
vn 0.0000 -0.5878 -0.8090
vn 0.0000 -0.5878 -0.8090
vn -0.0000 0.5878 -0.8090
vn -0.0000 -0.0000 -1.0000
vn 0.0000 -0.9511 -0.3090
vn 0.0000 -0.9511 -0.3090
vn 0.0000 0.9511 -0.3090
vn 0.0000 0.5878 -0.8090
vn 0.0000 0.9511 0.3090
vn 0.0000 0.9511 -0.3090
vn -0.0000 -0.9511 0.3090
vn -0.0000 -0.5878 0.8090
vn -1.0000 0.0000 0.0000
vn -1.0000 0.0000 0.0000
vn 0.0000 -0.5878 0.8090
vn -1.0000 0.0000 0.0000
vn 0.0000 -0.0000 1.0000
vn -1.0000 0.0000 0.0000
vn 0.0000 -0.0000 1.0000
vn 0.0000 0.5878 0.8090
vn 0.0000 0.5878 0.8090
vn 0.0000 0.9511 0.3090
vn 0.0000 -0.9511 0.3090
vn -0.0000 -0.9511 0.3090
vn -0.0000 -0.5878 0.8090
vn 0.0000 -0.5878 0.8090
vn 0.0000 -0.0000 1.0000
vn 0.0000 -0.0000 1.0000
vn 0.0000 0.5878 0.8090
vn -0.0000 0.5878 0.8090
vn -0.0000 0.9511 0.3090
vn 0.0000 -0.5878 -0.8090
vn 0.0000 -0.9511 -0.3090
vn 0.0000 -0.5878 -0.8090
vn 0.0000 -0.0000 -1.0000
vn 0.0000 -0.0000 -1.0000
vn 1.0000 0.0000 0.0000
vn 1.0000 0.0000 0.0000
vn 1.0000 0.0000 0.0000
vn 0.0000 0.5878 -0.8090
vn -0.0000 0.5878 -0.8090
vn 1.0000 0.0000 0.0000
vn 0.0000 -0.9511 -0.3090
vn 0.0000 -0.9511 0.3090
vn 1.0000 0.0000 0.0000
vn 1.0000 0.0000 0.0000
vn -0.0000 0.9511 -0.3090
vn 0.0000 0.9511 -0.3090
vn 0.0000 0.9511 0.3090
vn -0.0000 -0.9511 0.3090
vn -0.0000 -0.5878 0.8090
vn 1.0000 0.0000 0.0000
vn 1.0000 0.0000 0.0000
vn 0.0000 -0.5878 0.8090
vn 1.0000 0.0000 0.0000
vn 0.0000 -0.0000 1.0000
vn 1.0000 0.0000 0.0000
vn 0.0000 -0.0000 1.0000
vn 0.0000 0.5878 0.8090
vn 0.0000 0.5878 0.8090
vn 0.0000 0.9511 0.3090
f 1//1 2//2 3//3
f 1//1 4//4 5//5
f 1//1 3//3 4//4
f 3//3 6//6 4//4
f 6//6 7//7 8//8
f 6//6 9//9 7//7
f 6//6 8//8 10//10
f 6//6 11//11 9//9
f 1//1 12//12 2//2
f 1//1 5//5 13//13
f 2//2 12//12 14//14
f 1//1 13//13 12//12
f 12//12 15//15 14//14
f 12//12 13//13 16//16
f 12//12 16//16 15//15
f 15//15 16//16 17//17
f 17//17 18//18 19//19
f 6//6 20//20 11//11
f 17//17 19//19 21//21
f 5//5 4//4 22//22
f 4//4 6//6 22//22
f 6//6 10//10 23//23
f 5//5 24//24 13//13
f 13//13 25//25 16//16
f 16//16 25//25 17//17
f 17//17 26//26 18//18
f 2//2 27//27 3//3
f 3//3 28//28 6//6
f 2//2 14//14 29//29
f 14//14 15//15 29//29
f 15//15 17//17 30//30
f 17//17 21//21 30//30
f 21//21 31//31 32//32
f 6//6 33//33 20//20
f 31//31 34//34 32//32
f 35//35 34//34 36//36
f 6//6 23//23 37//37
f 5//5 22//22 24//24
f 6//6 37//37 22//22
f 17//17 38//38 26//26
f 13//13 24//24 39//39
f 13//13 39//39 25//25
f 17//17 25//25 38//38
f 38//38 40//40 26//26
f 37//37 23//23 41//41
f 37//37 41//41 42//42
f 37//37 42//42 43//43
f 37//37 43//43 44//44
f 24//24 22//22 45//45
f 22//22 37//37 46//46
f 22//22 46//46 45//45
f 45//45 46//46 47//47
f 38//38 48//48 40//40
f 24//24 45//45 49//49
f 45//45 47//47 49//49
f 24//24 49//49 39//39
f 47//47 50//50 49//49
f 39//39 49//49 25//25
f 25//25 49//49 51//51
f 25//25 51//51 38//38
f 49//49 50//50 51//51
f 38//38 52//52 48//48
f 33//33 53//53 20//20
f 33//33 54//54 53//53
f 33//33 55//55 54//54
f 56//56 35//35 36//36
f 56//56 57//57 58//58
f 37//37 33//33 46//46
f 46//46 59//59 47//47
f 38//38 60//60 52//52
f 47//47 59//59 50//50
f 38//38 51//51 61//61
f 50//50 62//62 51//51
f 33//33 63//63 55//55
f 33//33 44//44 64//64
f 33//33 64//64 63//63
f 37//37 44//44 33//33
f 52//52 60//60 57//57
f 6//6 28//28 65//65
f 6//6 66//66 67//67
f 6//6 65//65 66//66
f 6//6 67//67 68//68
f 21//21 32//32 69//69
f 3//3 27//27 70//70
f 3//3 70//70 28//28
f 2//2 29//29 27//27
f 15//15 71//71 29//29
f 15//15 30//30 71//71
f 30//30 21//21 69//69
f 6//6 68//68 72//72
f 6//6 72//72 73//73
f 6//6 73//73 74//74
f 34//34 35//35 32//32
f 30//30 69//69 75//75
f 27//27 76//76 70//70
f 70//70 76//76 77//77
f 70//70 77//77 28//28
f 76//76 78//78 77//77
f 28//28 79//79 65//65
f 28//28 80//80 79//79
f 28//28 81//81 80//80
f 28//28 82//82 81//81
f 27//27 83//83 76//76
f 76//76 83//83 78//78
f 27//27 29//29 83//83
f 78//78 83//83 84//84
f 29//29 71//71 83//83
f 71//71 85//85 83//83
f 71//71 30//30 85//85
f 83//83 85//85 84//84
f 30//30 75//75 86//86
f 28//28 77//77 87//87
f 77//77 78//78 87//87
f 28//28 33//33 82//82
f 30//30 86//86 88//88
f 78//78 84//84 89//89
f 30//30 61//61 85//85
f 84//84 85//85 90//90
f 6//6 74//74 33//33
f 56//56 91//91 35//35
f 56//56 92//92 91//91
f 56//56 58//58 92//92
f 57//57 60//60 58//58
f 38//38 61//61 60//60
f 46//46 33//33 93//93
f 46//46 93//93 59//59
f 50//50 59//59 62//62
f 51//51 94//94 61//61
f 51//51 62//62 94//94
f 33//33 95//95 82//82
f 28//28 87//87 33//33
f 78//78 89//89 87//87
f 30//30 88//88 61//61
f 61//61 88//88 96//96
f 84//84 90//90 89//89
f 85//85 61//61 97//97
f 85//85 97//97 90//90
f 33//33 74//74 98//98
f 61//61 99//99 60//60
f 33//33 98//98 100//100
f 33//33 101//101 95//95
f 33//33 100//100 102//102
f 33//33 102//102 101//101
f 33//33 87//87 93//93
f 87//87 103//103 93//93
f 87//87 89//89 103//103
f 93//93 103//103 59//59
f 61//61 96//96 99//99
f 89//89 90//90 103//103
f 59//59 103//103 62//62
f 103//103 90//90 104//104
f 103//103 104//104 62//62
f 97//97 94//94 104//104
f 61//61 94//94 97//97
f 90//90 97//97 104//104
f 62//62 104//104 94//94
f 105//105 106//106 107//107
f 106//106 108//108 107//107
f 109//109 110//110 111//111
f 109//109 111//111 112//112
f 105//105 107//107 110//110
f 105//105 110//110 109//109
f 113//113 114//114 115//115
f 113//113 116//116 117//117
f 106//106 118//118 108//108
f 118//118 119//119 108//108
f 118//118 120//120 119//119
f 120//120 121//121 119//119
f 117//117 122//122 123//123
f 123//123 124//124 125//125
f 120//120 126//126 121//121
f 126//126 127//127 121//121
f 112//112 111//111 128//128
f 114//114 129//129 115//115
f 112//112 128//128 130//130
f 113//113 115//115 116//116
f 117//117 116//116 122//122
f 130//130 128//128 131//131
f 130//130 131//131 132//132
f 132//132 131//131 133//133
f 132//132 133//133 134//134
f 123//123 122//122 124//124
f 125//125 124//124 135//135
f 136//136 137//137 138//138
f 139//139 136//136 138//138
f 125//125 135//135 140//140
f 126//126 139//139 127//127
f 139//139 138//138 127//127
f 134//134 133//133 137//137
f 134//134 137//137 136//136
f 141//141 142//142 143//143
f 142//142 144//144 143//143
f 145//145 146//146 147//147
f 148//148 145//145 147//147
f 141//141 146//146 145//145
f 141//141 143//143 146//146
f 149//149 150//150 151//151
f 149//149 152//152 153//153
f 142//142 154//154 144//144
f 154//154 155//155 144//144
f 156//156 157//157 155//155
f 154//154 156//156 155//155
f 153//153 158//158 159//159
f 159//159 160//160 161//161
f 156//156 162//162 157//157
f 162//162 163//163 157//157
f 148//148 147//147 164//164
f 165//165 151//151 150//150
f 148//148 164//164 166//166
f 149//149 151//151 152//152
f 153//153 152//152 158//158
f 166//166 164//164 167//167
f 166//166 167//167 168//168
f 168//168 167//167 169//169
f 168//168 169//169 170//170
f 159//159 158//158 160//160
f 161//161 160//160 171//171
f 172//172 173//173 174//174
f 175//175 172//172 174//174
f 161//161 171//171 176//176
f 162//162 175//175 163//163
f 175//175 174//174 163//163
f 170//170 169//169 173//173
f 170//170 173//173 172//172
f 177//177 178//178 179//179
f 177//177 179//179 180//180
f 181//181 182//182 183//183
f 183//183 182//182 184//184
f 181//181 185//185 182//182
f 182//182 185//185 186//186
f 183//183 184//184 177//177
f 182//182 186//186 184//184
f 177//177 187//187 178//178
f 177//177 188//188 187//187
f 184//184 189//189 177//177
f 184//184 186//186 190//190
f 186//186 191//191 190//190
f 181//181 192//192 185//185
f 186//186 185//185 191//191
f 192//192 193//193 185//185
f 185//185 193//193 194//194
f 185//185 194//194 191//191
f 193//193 195//195 194//194
f 195//195 196//196 197//197
f 195//195 197//197 198//198
f 191//191 194//194 199//199
f 194//194 195//195 200//200
f 195//195 198//198 201//201
f 183//183 177//177 202//202
f 181//181 183//183 203//203
f 181//181 203//203 192//192
f 177//177 180//180 204//204
f 192//192 205//205 193//193
f 193//193 206//206 195//195
f 195//195 206//206 196//196
f 206//206 207//207 196//196
f 206//206 208//208 207//207
f 206//206 209//209 208//208
f 206//206 210//210 209//209
f 177//177 211//211 188//188
f 177//177 189//189 211//211
f 211//211 212//212 188//188
f 184//184 190//190 189//189
f 211//211 213//213 212//212
f 189//189 214//214 211//211
f 189//189 190//190 215//215
f 189//189 215//215 214//214
f 214//214 215//215 216//216
f 190//190 217//217 215//215
f 215//215 217//217 216//216
f 191//191 199//199 190//190
f 195//195 201//201 218//218
f 194//194 200//200 199//199
f 195//195 218//218 200//200
f 218//218 201//201 219//219
f 190//190 199//199 217//217
f 216//216 217//217 220//220
f 218//218 219//219 221//221
f 199//199 200//200 217//217
f 200//200 218//218 222//222
f 218//218 221//221 210//210
f 200//200 222//222 217//217
f 217//217 222//222 220//220
f 204//204 180//180 223//223
f 204//204 223//223 224//224
f 204//204 224//224 225//225
f 211//211 204//204 213//213
f 204//204 225//225 213//213
f 211//211 214//214 226//226
f 214//214 216//216 227//227
f 218//218 210//210 206//206
f 216//216 220//220 228//228
f 218//218 229//229 222//222
f 220//220 222//222 228//228
f 183//183 230//230 203//203
f 183//183 202//202 230//230
f 177//177 204//204 202//202
f 192//192 203//203 205//205
f 193//193 205//205 231//231
f 193//193 231//231 206//206
f 203//203 230//230 232//232
f 203//203 232//232 233//233
f 230//230 234//234 232//232
f 230//230 202//202 234//234
f 203//203 233//233 205//205
f 202//202 235//235 234//234
f 202//202 236//236 235//235
f 205//205 233//233 237//237
f 205//205 237//237 238//238
f 205//205 238//238 231//231
f 231//231 238//238 239//239
f 231//231 239//239 206//206
f 206//206 239//239 240//240
f 206//206 240//240 229//229
f 211//211 226//226 204//204
f 214//214 227//227 226//226
f 216//216 228//228 227//227
f 218//218 206//206 229//229
f 222//222 241//241 228//228
f 222//222 229//229 241//241
f 202//202 204//204 236//236
f 204//204 242//242 236//236
f 204//204 226//226 242//242
f 226//226 243//243 242//242
f 226//226 227//227 243//243
f 227//227 244//244 243//243
f 227//227 245//245 244//244
f 229//229 240//240 246//246
f 227//227 228//228 245//245
f 229//229 246//246 247//247
f 228//228 248//248 245//245
f 228//228 241//241 248//248
f 229//229 247//247 241//241
f 241//241 247//247 248//248
f 249//249 250//250 251//251
f 249//249 251//251 252//252
f 249//249 252//252 253//253
f 251//251 254//254 252//252
f 253//253 255//255 256//256
f 253//253 256//256 257//257
f 250//250 258//258 251//251
f 251//251 258//258 254//254
f 253//253 259//259 255//255
f 253//253 252//252 260//260
f 252//252 254//254 261//261
f 253//253 262//262 259//259
f 254//254 263//263 261//261
f 250//250 264//264 258//258
f 264//264 265//265 258//258
f 258//258 265//265 266//266
f 254//254 258//258 263//263
f 258//258 266//266 263//263
f 265//265 267//267 266//266
f 267//267 268//268 269//269
f 267//267 270//270 268//268
f 263//263 266//266 271//271
f 267//267 269//269 272//272
f 266//266 267//267 273//273
f 267//267 272//272 274//274
f 249//249 275//275 250//250
f 249//249 253//253 276//276
f 250//250 275//275 264//264
f 253//253 257//257 277//277
f 264//264 278//278 265//265
f 265//265 279//279 267//267
f 267//267 279//279 270//270
f 279//279 280//280 270//270
f 279//279 281//281 280//280
f 279//279 282//282 281//281
f 253//253 260//260 262//262
f 262//262 283//283 259//259
f 252//252 261//261 260//260
f 262//262 284//284 283//283
f 262//262 285//285 284//284
f 262//262 260//260 286//286
f 260//260 261//261 287//287
f 260//260 287//287 286//286
f 286//286 287//287 288//288
f 261//261 271//271 287//287
f 287//287 289//289 288//288
f 263//263 271//271 261//261
f 266//266 290//290 271//271
f 266//266 273//273 290//290
f 267//267 274//274 273//273
f 273//273 274//274 291//291
f 271//271 290//290 289//289
f 290//290 273//273 292//292
f 287//287 271//271 289//289
f 288//288 289//289 293//293
f 290//290 292//292 289//289
f 289//289 292//292 293//293
f 273//273 291//291 294//294
f 273//273 294//294 282//282
f 277//277 257//257 295//295
f 277//277 295//295 296//296
f 277//277 296//296 297//297
f 262//262 286//286 277//277
f 262//262 277//277 285//285
f 286//286 288//288 298//298
f 277//277 297//297 285//285
f 273//273 282//282 279//279
f 288//288 293//293 299//299
f 292//292 299//299 293//293
f 273//273 300//300 292//292
f 249//249 276//276 301//301
f 249//249 301//301 275//275
f 253//253 277//277 276//276
f 264//264 275//275 278//278
f 265//265 278//278 302//302
f 265//265 302//302 279//279
f 301//301 303//303 304//304
f 301//301 276//276 303//303
f 301//301 304//304 275//275
f 275//275 304//304 305//305
f 276//276 306//306 303//303
f 275//275 305//305 278//278
f 276//276 307//307 306//306
f 278//278 305//305 308//308
f 278//278 308//308 309//309
f 278//278 309//309 302//302
f 302//302 309//309 310//310
f 302//302 310//310 279//279
f 279//279 310//310 311//311
f 279//279 311//311 300//300
f 286//286 298//298 277//277
f 288//288 312//312 298//298
f 288//288 299//299 312//312
f 273//273 279//279 300//300
f 292//292 300//300 313//313
f 292//292 313//313 299//299
f 276//276 277//277 307//307
f 277//277 314//314 307//307
f 277//277 298//298 314//314
f 298//298 315//315 314//314
f 298//298 312//312 315//315
f 312//312 316//316 315//315
f 312//312 317//317 316//316
f 300//300 311//311 318//318
f 300//300 318//318 319//319
f 312//312 299//299 317//317
f 300//300 319//319 313//313
f 313//313 319//319 320//320
f 299//299 320//320 317//317
f 313//313 320//320 299//299
f 321//321 322//322 323//323
f 324//324 325//325 322//322
f 321//321 324//324 322//322
f 326//326 327//327 328//328
f 324//324 329//329 325//325
f 329//329 330//330 325//325
f 326//326 331//331 327//327
f 321//321 323//323 332//332
f 332//332 323//323 333//333
f 327//327 331//331 334//334
f 331//331 335//335 334//334
f 329//329 336//336 330//330
f 336//336 337//337 330//330
f 336//336 338//338 337//337
f 339//339 340//340 341//341
f 342//342 343//343 339//339
f 341//341 344//344 345//345
f 346//346 347//347 342//342
f 348//348 349//349 346//346
f 332//332 333//333 350//350
f 350//350 333//333 351//351
f 334//334 335//335 352//352
f 335//335 353//353 352//352
f 350//350 351//351 354//354
f 353//353 355//355 352//352
f 354//354 351//351 356//356
f 353//353 357//357 355//355
f 354//354 356//356 358//358
f 358//358 359//359 360//360
f 358//358 356//356 359//359
f 338//338 361//361 337//337
f 360//360 361//361 338//338
f 360//360 359//359 361//361
f 345//345 362//362 363//363
f 363//363 364//364 365//365
f 365//365 366//366 367//367
f 367//367 368//368 369//369
f 369//369 370//370 348//348
f 341//341 340//340 344//344
f 339//339 343//343 340//340
f 342//342 347//347 343//343
f 345//345 344//344 362//362
f 346//346 349//349 347//347
f 371//371 372//372 373//373
f 371//371 374//374 375//375
f 371//371 373//373 374//374
f 376//376 377//377 378//378
f 375//375 374//374 379//379
f 375//375 379//379 380//380
f 376//376 378//378 381//381
f 372//372 382//382 373//373
f 372//372 383//383 382//382
f 378//378 384//384 381//381
f 381//381 384//384 385//385
f 380//380 379//379 386//386
f 380//380 386//386 387//387
f 387//387 386//386 388//388
f 363//363 362//362 364//364
f 365//365 364//364 366//366
f 367//367 366//366 368//368
f 348//348 370//370 349//349
f 369//369 368//368 370//370
f 383//383 389//389 382//382
f 383//383 390//390 389//389
f 384//384 391//391 385//385
f 385//385 391//391 392//392
f 390//390 393//393 389//389
f 392//392 391//391 394//394
f 390//390 395//395 393//393
f 392//392 394//394 396//396
f 395//395 397//397 393//393
f 398//398 399//399 397//397
f 395//395 398//398 397//397
f 387//387 388//388 400//400
f 400//400 388//388 399//399
f 398//398 400//400 399//399
