v -0.02815 -0.27875 -0.31250
v -0.01876 -0.28126 -0.33126
v -0.01625 -0.29065 -0.31250
v -0.01876 -0.28126 -0.29374
v -0.02815 -0.26250 -0.29625
v -0.03250 -0.26250 -0.31250
v -0.01625 -0.26250 -0.28435
v -0.02815 -0.24625 -0.31250
v -0.01876 -0.24374 -0.29374
v 0.00000 -0.29065 -0.32875
v 0.00000 -0.29065 -0.29625
v 0.00000 -0.29500 -0.31250
v 0.00000 -0.27875 -0.28435
v 0.00000 -0.24625 -0.28435
v 0.00000 -0.26250 -0.28000
v 0.00000 -0.23435 -0.29625
v 0.01625 -0.29065 -0.31250
v 0.01876 -0.28126 -0.29374
v 0.01876 -0.28126 -0.33126
v 0.02815 -0.27875 -0.31250
v 0.01625 -0.26250 -0.28435
v 0.01876 -0.24374 -0.29374
v 0.02815 -0.26250 -0.29625
v 0.03250 -0.26250 -0.31250
v 0.02815 -0.24625 -0.31250
v -0.03250 0.16250 -0.88750
v -0.02815 0.14625 -0.88750
v -0.01876 0.18126 -0.86874
v -0.01876 0.14374 -0.90626
v 0.00000 0.13435 -0.90375
v 0.01876 0.14374 -0.90626
v 0.01876 0.18126 -0.86874
v 0.02815 0.14625 -0.88750
v 0.02815 0.17875 -0.88750
v -0.02815 0.17875 -0.88750
v 0.00000 0.19065 -0.87125
v -0.02815 0.16250 -0.90375
v -0.01625 0.16250 -0.91565
v -0.01876 0.18126 -0.90626
v 0.00000 0.14625 -0.91565
v 0.00000 0.17875 -0.91565
v 0.00000 0.16250 -0.92000
v 0.03250 0.16250 -0.88750
v 0.01625 0.16250 -0.91565
v 0.02815 0.16250 -0.90375
v 0.01876 0.18126 -0.90626
v -0.01625 0.19065 -0.88750
v 0.00000 0.19065 -0.90375
v 0.00000 0.19500 -0.88750
v 0.01625 0.19065 -0.88750
v -0.01876 0.01874 0.00626
v -0.01625 0.00935 -0.01250
v 0.00000 0.00935 0.00375
v 0.00000 0.00935 -0.02875
v 0.00000 0.00500 -0.01250
v 0.01625 0.00935 -0.01250
v 0.01876 0.01874 0.00626
v -0.03250 0.03750 -0.01250
v -0.02815 0.05375 -0.01250
v -0.03250 0.31250 -0.86250
v -0.02815 0.02125 -0.01250
v -0.01625 0.28435 -0.86250
v -0.02815 0.29625 -0.86250
v -0.01625 0.06565 -0.01250
v -0.01625 0.34065 -0.86250
v 0.00000 0.06565 0.00375
v 0.00000 0.34065 -0.84625
v 0.01625 0.28435 -0.86250
v 0.01625 0.06565 -0.01250
v 0.01625 0.34065 -0.86250
v 0.02815 0.05375 -0.01250
v 0.02815 0.29625 -0.86250
v 0.02815 0.02125 -0.01250
v 0.03250 0.31250 -0.86250
v 0.03250 0.03750 -0.01250
v 0.02815 0.32875 -0.86250
v -0.02815 0.32875 -0.86250
v 0.00000 0.28435 -0.87875
v -0.02815 0.31250 -0.87875
v -0.01876 0.29374 -0.88126
v -0.01876 0.33126 -0.88126
v -0.01625 0.31250 -0.89065
v 0.00000 0.29625 -0.89065
v 0.00000 0.32875 -0.89065
v 0.00000 0.34065 -0.87875
v 0.00000 0.31250 -0.89500
v 0.00000 0.34500 -0.86250
v 0.01876 0.29374 -0.88126
v 0.01625 0.31250 -0.89065
v 0.01876 0.33126 -0.88126
v 0.02815 0.31250 -0.87875
v -0.02815 0.03750 0.00375
v -0.01625 0.03750 0.01565
v -0.01876 0.05626 0.00626
v 0.00000 0.02125 0.01565
v 0.00000 0.05375 0.01565
v 0.00000 0.03750 0.02000
v 0.01625 0.03750 0.01565
v 0.02815 0.03750 0.00375
v 0.01876 0.05626 0.00626
v -0.12066 0.12834 0.52250
v -0.12300 0.13400 0.52250
v -0.12066 0.13400 0.51684
v -0.12300 0.13400 0.55250
v -0.11500 0.12834 0.51684
v -0.12066 0.12834 0.55250
v -0.12066 0.13400 0.55816
v -0.11500 0.12600 0.55250
v -0.11500 0.12834 0.55816
v -0.11500 0.12600 0.52250
v -0.11500 0.13400 0.51450
v -0.11500 0.13400 0.56050
v -0.12300 0.19100 0.52250
v -0.12300 0.19100 0.55250
v -0.11500 0.19100 0.51450
v -0.11500 0.19100 0.56050
v -0.12066 0.19100 0.51684
v -0.12066 0.19100 0.55816
v -0.12066 0.19666 0.52250
v -0.11500 0.19666 0.51684
v -0.12066 0.19666 0.55250
v -0.11500 0.19900 0.55250
v -0.11500 0.19666 0.55816
v -0.11500 0.19900 0.52250
v 0.11500 0.12600 0.55250
v 0.11500 0.12834 0.51684
v 0.11500 0.13400 0.51450
v 0.11500 0.13400 0.56050
v 0.11500 0.12600 0.52250
v 0.11500 0.12834 0.55816
v 0.11500 0.19100 0.51450
v 0.11500 0.19100 0.56050
v 0.11500 0.19666 0.51684
v 0.11500 0.19900 0.52250
v 0.11500 0.19666 0.55816
v 0.11500 0.19900 0.55250
v 0.12066 0.12834 0.52250
v 0.12066 0.13400 0.51684
v 0.12066 0.12834 0.55250
v 0.12066 0.13400 0.55816
v 0.12300 0.13400 0.52250
v 0.12300 0.13400 0.55250
v 0.12066 0.19100 0.55816
v 0.12300 0.19100 0.52250
v 0.12300 0.19100 0.55250
v 0.12066 0.19100 0.51684
v 0.12066 0.19666 0.52250
v 0.12066 0.19666 0.55250
v 0.14250 -0.28750 0.31250
v 0.14685 -0.28750 0.29625
v 0.14685 -0.30375 0.31250
v 0.14685 -0.27125 0.31250
v 0.15624 -0.30626 0.29374
v 0.15875 -0.28750 0.28435
v 0.15624 -0.26874 0.29374
v 0.17500 -0.30375 0.28435
v 0.15875 -0.31565 0.31250
v 0.17500 -0.31565 0.29625
v 0.17500 -0.27125 0.28435
v 0.15875 -0.25935 0.31250
v 0.17500 -0.25935 0.29625
v 0.17500 -0.28750 0.28000
v 0.19376 -0.30626 0.29374
v 0.19125 -0.28750 0.28435
v 0.17500 -0.32000 0.31250
v 0.19125 -0.31565 0.31250
v 0.19376 -0.26874 0.29374
v 0.17500 -0.25500 0.31250
v 0.19125 -0.25935 0.31250
v 0.20315 -0.28750 0.29625
v 0.20315 -0.30375 0.31250
v 0.20750 -0.28750 0.31250
v 0.20315 -0.27125 0.31250
v 0.14685 -0.25375 0.81250
v 0.14250 -0.23750 0.81250
v 0.15875 -0.26565 0.81250
v 0.15875 -0.20935 0.81250
v 0.14685 -0.22125 0.81250
v 0.14685 -0.23750 0.82875
v 0.15624 -0.25626 0.83126
v 0.15875 -0.23750 0.84065
v 0.17500 -0.26565 0.82875
v 0.17500 -0.25375 0.84065
v 0.15624 -0.21874 0.83126
v 0.17500 -0.22125 0.84065
v 0.17500 -0.20935 0.82875
v 0.19125 -0.26565 0.81250
v 0.17500 -0.20500 0.81250
v 0.20315 -0.25375 0.81250
v 0.20315 -0.22125 0.81250
v 0.17500 -0.27000 0.81250
v 0.17500 -0.23750 0.84500
v 0.19376 -0.25626 0.83126
v 0.19125 -0.23750 0.84065
v 0.20750 -0.23750 0.81250
v 0.20315 -0.23750 0.82875
v 0.19125 -0.20935 0.81250
v 0.19376 -0.21874 0.83126
vn -0.8632 -0.5046 0.0174
vn -0.5826 -0.6919 -0.4265
vn -0.4956 -0.8685 0.0000
vn -0.5774 -0.5774 0.5774
vn -0.8685 0.0000 0.4956
vn -0.9945 -0.0534 0.0899
vn -0.4956 0.0000 0.8685
vn -0.8910 0.3531 0.2853
vn -0.5783 0.5254 0.6241
vn -0.0000 -0.8955 -0.4451
vn 0.0000 -0.8685 0.4956
vn 0.0000 -1.0000 0.0000
vn 0.0000 -0.4956 0.8685
vn 0.0000 0.4956 0.8685
vn 0.0000 -0.0000 1.0000
vn 0.0000 0.7694 0.6387
vn 0.4956 -0.8685 0.0000
vn 0.5774 -0.5774 0.5774
vn 0.5826 -0.6919 -0.4265
vn 0.8632 -0.5046 0.0174
vn 0.4956 0.0000 0.8685
vn 0.5783 0.5254 0.6241
vn 0.8685 0.0000 0.4956
vn 0.9945 -0.0534 0.0899
vn 0.8910 0.3531 0.2853
vn -0.9945 0.0534 -0.0899
vn -0.8910 -0.3531 -0.2853
vn -0.5826 0.6919 0.4265
vn -0.5783 -0.5254 -0.6241
vn -0.0000 -0.7694 -0.6387
vn 0.5783 -0.5254 -0.6241
vn 0.5826 0.6919 0.4265
vn 0.8910 -0.3531 -0.2853
vn 0.8632 0.5046 -0.0174
vn -0.8632 0.5046 -0.0174
vn 0.0000 0.8955 0.4451
vn -0.8685 -0.0000 -0.4956
vn -0.4956 -0.0000 -0.8685
vn -0.5774 0.5774 -0.5774
vn -0.0000 -0.4956 -0.8685
vn 0.0000 0.4956 -0.8685
vn 0.0000 0.0000 -1.0000
vn 0.9945 0.0534 -0.0899
vn 0.4956 0.0000 -0.8685
vn 0.8685 0.0000 -0.4956
vn 0.5774 0.5774 -0.5774
vn -0.4956 0.8685 -0.0000
vn 0.0000 0.8685 -0.4956
vn 0.0000 1.0000 0.0000
vn 0.4956 0.8685 -0.0000
vn -0.5774 -0.5774 0.5774
vn -0.4929 -0.8698 0.0210
vn 0.0000 -0.8685 0.4956
vn 0.0000 -0.9555 -0.2949
vn 0.0000 -1.0000 -0.0000
vn 0.4929 -0.8698 0.0210
vn 0.5774 -0.5774 0.5774
vn -0.9925 -0.0265 0.1196
vn -0.8573 0.4649 0.2212
vn -0.9925 0.0265 -0.1196
vn -0.8544 -0.5157 0.0639
vn -0.5047 -0.8148 -0.2854
vn -0.8573 -0.4649 -0.2212
vn -0.5047 0.8148 0.2854
vn -0.4929 0.8698 -0.0210
vn 0.0000 0.8616 0.5077
vn 0.0000 0.9555 0.2949
vn 0.5047 -0.8148 -0.2854
vn 0.5047 0.8148 0.2854
vn 0.4929 0.8698 -0.0210
vn 0.8573 0.4649 0.2212
vn 0.8573 -0.4649 -0.2212
vn 0.8544 -0.5157 0.0639
vn 0.9925 0.0265 -0.1196
vn 0.9925 -0.0265 0.1196
vn 0.8544 0.5157 -0.0639
vn -0.8544 0.5157 -0.0639
vn -0.0000 -0.8616 -0.5077
vn -0.8685 -0.0000 -0.4956
vn -0.5774 -0.5774 -0.5774
vn -0.5774 0.5774 -0.5774
vn -0.4956 -0.0000 -0.8685
vn -0.0000 -0.4956 -0.8685
vn 0.0000 0.4956 -0.8685
vn 0.0000 0.8685 -0.4956
vn 0.0000 0.0000 -1.0000
vn 0.0000 1.0000 0.0000
vn 0.5774 -0.5774 -0.5774
vn 0.4956 0.0000 -0.8685
vn 0.5774 0.5774 -0.5774
vn 0.8685 0.0000 -0.4956
vn -0.8685 0.0000 0.4956
vn -0.4956 0.0000 0.8685
vn -0.5774 0.5774 0.5774
vn 0.0000 -0.4956 0.8685
vn 0.0000 0.4956 0.8685
vn 0.0000 -0.0000 1.0000
vn 0.4956 0.0000 0.8685
vn 0.8685 0.0000 0.4956
vn 0.5774 0.5774 0.5774
vn -0.6887 -0.6887 -0.2265
vn -0.9641 -0.1877 -0.1877
vn -0.6887 -0.2265 -0.6887
vn -0.9641 -0.1877 0.1877
vn -0.2265 -0.6887 -0.6887
vn -0.6887 -0.6887 0.2265
vn -0.6887 -0.2265 0.6887
vn -0.1877 -0.9641 0.1877
vn -0.2265 -0.6887 0.6887
vn -0.1877 -0.9641 -0.1877
vn -0.1877 -0.1877 -0.9641
vn -0.1877 -0.1877 0.9641
vn -0.9641 0.1877 -0.1877
vn -0.9641 0.1877 0.1877
vn -0.1877 0.1877 -0.9641
vn -0.1877 0.1877 0.9641
vn -0.6887 0.2265 -0.6887
vn -0.6887 0.2265 0.6887
vn -0.6887 0.6887 -0.2265
vn -0.2265 0.6887 -0.6887
vn -0.6887 0.6887 0.2265
vn -0.1877 0.9641 0.1877
vn -0.2265 0.6887 0.6887
vn -0.1877 0.9641 -0.1877
vn 0.1877 -0.9641 0.1877
vn 0.2265 -0.6887 -0.6887
vn 0.1877 -0.1877 -0.9641
vn 0.1877 -0.1877 0.9641
vn 0.1877 -0.9641 -0.1877
vn 0.2265 -0.6887 0.6887
vn 0.1877 0.1877 -0.9641
vn 0.1877 0.1877 0.9641
vn 0.2265 0.6887 -0.6887
vn 0.1877 0.9641 -0.1877
vn 0.2265 0.6887 0.6887
vn 0.1877 0.9641 0.1877
vn 0.6887 -0.6887 -0.2265
vn 0.6887 -0.2265 -0.6887
vn 0.6887 -0.6887 0.2265
vn 0.6887 -0.2265 0.6887
vn 0.9641 -0.1877 -0.1877
vn 0.9641 -0.1877 0.1877
vn 0.6887 0.2265 0.6887
vn 0.9641 0.1877 -0.1877
vn 0.9641 0.1877 0.1877
vn 0.6887 0.2265 -0.6887
vn 0.6887 0.6887 -0.2265
vn 0.6887 0.6887 0.2265
vn -0.9919 -0.0085 -0.1270
vn -0.8685 0.0000 -0.4956
vn -0.8570 -0.5004 -0.1228
vn -0.8580 0.4840 -0.1721
vn -0.5774 -0.5774 -0.5774
vn -0.4956 0.0000 -0.8685
vn -0.5774 0.5774 -0.5774
vn 0.0000 -0.4956 -0.8685
vn -0.4915 -0.8645 -0.1054
vn 0.0000 -0.8685 -0.4956
vn 0.0000 0.4956 -0.8685
vn -0.4925 0.8492 -0.1906
vn 0.0000 0.8685 -0.4956
vn 0.0000 0.0000 -1.0000
vn 0.5774 -0.5774 -0.5774
vn 0.4956 -0.0000 -0.8685
vn 0.0000 -0.9969 -0.0787
vn 0.4915 -0.8645 -0.1054
vn 0.5774 0.5774 -0.5774
vn 0.0000 0.9841 -0.1774
vn 0.4925 0.8492 -0.1906
vn 0.8685 0.0000 -0.4956
vn 0.8570 -0.5004 -0.1228
vn 0.9919 -0.0085 -0.1270
vn 0.8580 0.4840 -0.1721
vn -0.8580 -0.4840 0.1721
vn -0.9919 0.0085 0.1270
vn -0.4925 -0.8492 0.1906
vn -0.4915 0.8645 0.1054
vn -0.8570 0.5004 0.1228
vn -0.8685 -0.0000 0.4956
vn -0.5774 -0.5774 0.5774
vn -0.4956 0.0000 0.8685
vn -0.0000 -0.8685 0.4956
vn 0.0000 -0.4956 0.8685
vn -0.5774 0.5774 0.5774
vn 0.0000 0.4956 0.8685
vn 0.0000 0.8685 0.4956
vn 0.4925 -0.8492 0.1906
vn -0.0000 0.9969 0.0787
vn 0.8580 -0.4840 0.1721
vn 0.8570 0.5004 0.1228
vn 0.0000 -0.9841 0.1774
vn 0.0000 0.0000 1.0000
vn 0.5774 -0.5774 0.5774
vn 0.4956 0.0000 0.8685
vn 0.9919 0.0085 0.1270
vn 0.8685 0.0000 0.4956
vn 0.4915 0.8645 0.1054
vn 0.5774 0.5774 0.5774
f 1//1 2//2 3//3
f 1//1 3//3 4//4
f 1//1 4//4 5//5
f 6//6 1//1 5//5
f 5//5 4//4 7//7
f 6//6 5//5 8//8
f 5//5 9//9 8//8
f 5//5 7//7 9//9
f 3//3 2//2 10//10
f 3//3 11//11 4//4
f 3//3 10//10 12//12
f 3//3 12//12 11//11
f 11//11 13//13 4//4
f 4//4 13//13 7//7
f 7//7 14//14 9//9
f 7//7 13//13 15//15
f 7//7 15//15 14//14
f 9//9 14//14 16//16
f 10//10 17//17 12//12
f 12//12 17//17 11//11
f 11//11 18//18 13//13
f 10//10 19//19 17//17
f 17//17 19//19 20//20
f 11//11 17//17 18//18
f 17//17 20//20 18//18
f 13//13 21//21 15//15
f 15//15 21//21 14//14
f 14//14 22//22 16//16
f 13//13 18//18 21//21
f 18//18 23//23 21//21
f 14//14 21//21 22//22
f 21//21 23//23 22//22
f 18//18 20//20 23//23
f 20//20 24//24 23//23
f 23//23 25//25 22//22
f 23//23 24//24 25//25
f 6//6 8//8 26//26
f 1//1 27//27 2//2
f 6//6 27//27 1//1
f 8//8 9//9 28//28
f 10//10 2//2 29//29
f 9//9 16//16 28//28
f 2//2 27//27 29//29
f 10//10 29//29 30//30
f 10//10 31//31 19//19
f 16//16 22//22 32//32
f 19//19 31//31 20//20
f 20//20 33//33 24//24
f 22//22 25//25 32//32
f 24//24 34//34 25//25
f 10//10 30//30 31//31
f 20//20 31//31 33//33
f 6//6 26//26 27//27
f 8//8 35//35 26//26
f 8//8 28//28 35//35
f 16//16 36//36 28//28
f 26//26 37//37 27//27
f 27//27 37//37 29//29
f 37//37 38//38 29//29
f 26//26 35//35 37//37
f 37//37 35//35 39//39
f 37//37 39//39 38//38
f 29//29 38//38 40//40
f 38//38 39//39 41//41
f 29//29 40//40 30//30
f 38//38 42//42 40//40
f 38//38 41//41 42//42
f 16//16 32//32 36//36
f 24//24 33//33 43//43
f 24//24 43//43 34//34
f 25//25 34//34 32//32
f 40//40 42//42 44//44
f 30//30 40//40 31//31
f 42//42 41//41 44//44
f 40//40 44//44 31//31
f 31//31 44//44 45//45
f 41//41 46//46 44//44
f 44//44 46//46 45//45
f 31//31 45//45 33//33
f 33//33 45//45 43//43
f 46//46 34//34 45//45
f 45//45 34//34 43//43
f 35//35 47//47 39//39
f 35//35 28//28 47//47
f 39//39 47//47 48//48
f 28//28 36//36 47//47
f 39//39 48//48 41//41
f 47//47 49//49 48//48
f 47//47 36//36 49//49
f 48//48 49//49 50//50
f 36//36 50//50 49//49
f 41//41 48//48 46//46
f 48//48 50//50 46//46
f 36//36 32//32 50//50
f 46//46 50//50 34//34
f 32//32 34//34 50//50
f 51//51 52//52 53//53
f 52//52 54//54 55//55
f 52//52 55//55 53//53
f 54//54 56//56 55//55
f 55//55 56//56 53//53
f 53//53 56//56 57//57
f 58//58 59//59 60//60
f 61//61 62//62 52//52
f 58//58 63//63 61//61
f 59//59 64//64 65//65
f 52//52 62//62 54//54
f 64//64 66//66 67//67
f 54//54 68//68 56//56
f 66//66 69//69 70//70
f 69//69 71//71 70//70
f 56//56 72//72 73//73
f 73//73 74//74 75//75
f 75//75 76//76 71//71
f 58//58 60//60 63//63
f 61//61 63//63 62//62
f 59//59 77//77 60//60
f 59//59 65//65 77//77
f 62//62 78//78 54//54
f 64//64 67//67 65//65
f 63//63 79//79 80//80
f 63//63 80//80 62//62
f 63//63 60//60 79//79
f 60//60 77//77 79//79
f 79//79 77//77 81//81
f 79//79 82//82 80//80
f 79//79 81//81 82//82
f 77//77 65//65 81//81
f 80//80 78//78 62//62
f 80//80 82//82 83//83
f 80//80 83//83 78//78
f 82//82 81//81 84//84
f 81//81 65//65 85//85
f 82//82 86//86 83//83
f 82//82 84//84 86//86
f 81//81 85//85 84//84
f 65//65 87//87 85//85
f 65//65 67//67 87//87
f 54//54 78//78 68//68
f 56//56 68//68 72//72
f 66//66 70//70 67//67
f 73//73 72//72 74//74
f 71//71 76//76 70//70
f 75//75 74//74 76//76
f 78//78 83//83 88//88
f 78//78 88//88 68//68
f 83//83 89//89 88//88
f 68//68 88//88 72//72
f 83//83 86//86 89//89
f 86//86 84//84 89//89
f 85//85 87//87 70//70
f 84//84 85//85 90//90
f 87//87 67//67 70//70
f 84//84 90//90 89//89
f 88//88 89//89 91//91
f 89//89 90//90 91//91
f 85//85 70//70 90//90
f 70//70 76//76 90//90
f 88//88 91//91 72//72
f 90//90 76//76 91//91
f 72//72 91//91 74//74
f 91//91 76//76 74//74
f 58//58 61//61 92//92
f 61//61 51//51 92//92
f 61//61 52//52 51//51
f 92//92 51//51 93//93
f 58//58 92//92 59//59
f 92//92 94//94 59//59
f 92//92 93//93 94//94
f 59//59 94//94 64//64
f 51//51 95//95 93//93
f 93//93 96//96 94//94
f 51//51 53//53 95//95
f 93//93 95//95 97//97
f 93//93 97//97 96//96
f 94//94 66//66 64//64
f 94//94 96//96 66//66
f 95//95 98//98 97//97
f 53//53 57//57 95//95
f 97//97 98//98 96//96
f 95//95 57//57 98//98
f 56//56 73//73 57//57
f 57//57 99//99 98//98
f 96//96 98//98 100//100
f 98//98 99//99 100//100
f 96//96 100//100 66//66
f 66//66 100//100 69//69
f 69//69 100//100 71//71
f 57//57 73//73 99//99
f 73//73 75//75 99//99
f 100//100 99//99 71//71
f 99//99 75//75 71//71
f 101//101 102//102 103//103
f 101//101 104//104 102//102
f 101//101 103//103 105//105
f 101//101 106//106 104//104
f 106//106 107//107 104//104
f 101//101 108//108 106//106
f 106//106 109//109 107//107
f 101//101 110//110 108//108
f 101//101 105//105 110//110
f 103//103 111//111 105//105
f 106//106 108//108 109//109
f 107//107 109//109 112//112
f 102//102 113//113 103//103
f 102//102 104//104 113//113
f 104//104 107//107 114//114
f 103//103 115//115 111//111
f 107//107 112//112 116//116
f 103//103 113//113 117//117
f 103//103 117//117 115//115
f 104//104 114//114 113//113
f 107//107 118//118 114//114
f 107//107 116//116 118//118
f 113//113 119//119 117//117
f 113//113 114//114 119//119
f 117//117 119//119 120//120
f 114//114 118//118 121//121
f 119//119 114//114 121//121
f 119//119 121//121 122//122
f 118//118 123//123 121//121
f 117//117 120//120 115//115
f 119//119 124//124 120//120
f 119//119 122//122 124//124
f 118//118 116//116 123//123
f 121//121 123//123 122//122
f 110//110 125//125 108//108
f 108//108 125//125 109//109
f 110//110 105//105 126//126
f 105//105 111//111 127//127
f 109//109 128//128 112//112
f 111//111 115//115 127//127
f 112//112 128//128 116//116
f 110//110 126//126 129//129
f 110//110 129//129 125//125
f 105//105 127//127 126//126
f 109//109 125//125 130//130
f 109//109 130//130 128//128
f 115//115 131//131 127//127
f 116//116 128//128 132//132
f 115//115 120//120 131//131
f 120//120 124//124 133//133
f 124//124 122//122 134//134
f 116//116 135//135 123//123
f 122//122 123//123 135//135
f 120//120 133//133 131//131
f 124//124 134//134 133//133
f 116//116 132//132 135//135
f 122//122 136//136 134//134
f 122//122 135//135 136//136
f 129//129 137//137 125//125
f 129//129 126//126 137//137
f 126//126 127//127 138//138
f 126//126 138//138 137//137
f 125//125 139//139 130//130
f 130//130 140//140 128//128
f 125//125 137//137 139//139
f 130//130 139//139 140//140
f 137//137 141//141 139//139
f 137//137 138//138 141//141
f 141//141 142//142 139//139
f 139//139 142//142 140//140
f 127//127 131//131 138//138
f 128//128 140//140 143//143
f 138//138 144//144 141//141
f 141//141 144//144 142//142
f 140//140 142//142 145//145
f 138//138 131//131 146//146
f 128//128 143//143 132//132
f 138//138 146//146 144//144
f 140//140 145//145 143//143
f 142//142 144//144 145//145
f 131//131 133//133 146//146
f 133//133 134//134 147//147
f 133//133 147//147 146//146
f 134//134 148//148 147//147
f 132//132 143//143 135//135
f 134//134 136//136 148//148
f 136//136 135//135 148//148
f 135//135 143//143 148//148
f 146//146 147//147 144//144
f 147//147 145//145 144//144
f 143//143 145//145 148//148
f 147//147 148//148 145//145
f 149//149 150//150 151//151
f 149//149 152//152 150//150
f 153//153 150//150 154//154
f 154//154 150//150 155//155
f 153//153 154//154 156//156
f 151//151 153//153 157//157
f 151//151 150//150 153//153
f 157//157 153//153 158//158
f 154//154 155//155 159//159
f 150//150 152//152 155//155
f 152//152 160//160 155//155
f 155//155 160//160 161//161
f 153//153 156//156 158//158
f 154//154 162//162 156//156
f 154//154 159//159 162//162
f 156//156 163//163 158//158
f 156//156 162//162 164//164
f 162//162 159//159 164//164
f 156//156 164//164 163//163
f 157//157 158//158 165//165
f 165//165 158//158 166//166
f 158//158 163//163 166//166
f 155//155 161//161 159//159
f 159//159 161//161 167//167
f 159//159 167//167 164//164
f 160//160 168//168 161//161
f 161//161 168//168 169//169
f 161//161 169//169 167//167
f 163//163 164//164 170//170
f 164//164 167//167 170//170
f 166//166 163//163 171//171
f 163//163 170//170 171//171
f 171//171 170//170 172//172
f 170//170 173//173 172//172
f 169//169 173//173 167//167
f 167//167 173//173 170//170
f 149//149 151//151 174//174
f 149//149 175//175 152//152
f 151//151 157//157 174//174
f 157//157 165//165 176//176
f 152//152 177//177 160//160
f 160//160 177//177 168//168
f 149//149 174//174 175//175
f 152//152 175//175 178//178
f 175//175 174//174 179//179
f 157//157 176//176 174//174
f 176//176 180//180 174//174
f 180//180 179//179 174//174
f 180//180 181//181 179//179
f 176//176 182//182 180//180
f 180//180 183//183 181//181
f 175//175 179//179 178//178
f 152//152 178//178 177//177
f 179//179 184//184 178//178
f 179//179 181//181 184//184
f 178//178 184//184 177//177
f 181//181 185//185 184//184
f 184//184 186//186 177//177
f 165//165 166//166 187//187
f 169//169 168//168 188//188
f 166//166 171//171 187//187
f 171//171 172//172 189//189
f 172//172 173//173 190//190
f 169//169 190//190 173//173
f 165//165 191//191 176//176
f 165//165 187//187 191//191
f 180//180 182//182 183//183
f 176//176 191//191 182//182
f 181//181 183//183 192//192
f 191//191 187//187 182//182
f 182//182 193//193 183//183
f 182//182 187//187 193//193
f 183//183 194//194 192//192
f 193//193 194//194 183//183
f 171//171 189//189 187//187
f 172//172 195//195 189//189
f 172//172 190//190 195//195
f 187//187 189//189 193//193
f 193//193 196//196 194//194
f 193//193 189//189 196//196
f 189//189 195//195 196//196
f 168//168 177//177 188//188
f 169//169 188//188 197//197
f 181//181 192//192 185//185
f 184//184 185//185 186//186
f 177//177 186//186 188//188
f 192//192 194//194 185//185
f 185//185 198//198 186//186
f 185//185 194//194 198//198
f 186//186 197//197 188//188
f 186//186 198//198 197//197
f 169//169 197//197 190//190
f 194//194 196//196 198//198
f 197//197 198//198 190//190
f 196//196 190//190 198//198
f 195//195 190//190 196//196
