v -0.21714 0.19436 -1.35300
v -0.21714 0.19436 -1.14700
v -0.22300 0.20850 -1.35300
v -0.21714 0.20850 -1.36714
v -0.20300 0.19436 -1.36714
v -0.22300 0.20850 -1.14700
v -0.20300 0.18850 -1.14700
v -0.20300 0.18850 -1.35300
v -0.20300 0.20850 -1.37300
v -0.21714 0.20850 -1.13286
v -0.20300 0.19436 -1.13286
v -0.20300 0.20850 -1.12700
v -0.22300 0.41650 -1.35300
v -0.20300 0.41650 -1.37300
v -0.21714 0.41650 -1.13286
v -0.20300 0.41650 -1.12700
v -0.21714 0.41650 -1.36714
v -0.22300 0.41650 -1.14700
v -0.21714 0.43064 -1.35300
v -0.21714 0.43064 -1.14700
v -0.20300 0.43064 -1.36714
v -0.20300 0.43650 -1.14700
v -0.20300 0.43650 -1.35300
v -0.20300 0.43064 -1.13286
v 0.20300 0.19436 -1.36714
v 0.20300 0.20850 -1.37300
v 0.20300 0.18850 -1.14700
v 0.20300 0.20850 -1.12700
v 0.20300 0.43064 -1.36714
v 0.20300 0.43650 -1.35300
v 0.20300 0.43064 -1.13286
v 0.20300 0.18850 -1.35300
v 0.20300 0.19436 -1.13286
v 0.20300 0.41650 -1.37300
v 0.20300 0.41650 -1.12700
v 0.20300 0.43650 -1.14700
v 0.21714 0.19436 -1.35300
v 0.21714 0.20850 -1.36714
v 0.22300 0.20850 -1.35300
v 0.21714 0.19436 -1.14700
v 0.22300 0.20850 -1.14700
v 0.21714 0.20850 -1.13286
v 0.22300 0.41650 -1.35300
v 0.21714 0.41650 -1.13286
v 0.22300 0.41650 -1.14700
v 0.21714 0.41650 -1.36714
v 0.21714 0.43064 -1.35300
v 0.21714 0.43064 -1.14700
v -0.20000 0.11250 -1.11250
v -0.20000 0.11250 -0.56250
v -0.20000 0.21882 -0.66562
v -0.20000 0.23158 -0.73438
v -0.20000 0.23716 -0.76875
v -0.20000 0.22546 -0.70000
v -0.20000 0.27501 -0.80313
v -0.20000 0.19569 -0.56250
v -0.20000 0.20393 -0.59688
v -0.20000 0.21164 -0.63125
v -0.20000 0.30166 -1.07812
v -0.20000 0.26375 -1.11250
v -0.20000 0.33491 -1.04375
v -0.20000 0.35989 -1.00937
v -0.20000 0.37388 -0.97500
v -0.20000 0.31129 -0.83750
v -0.20000 0.34222 -0.87187
v -0.20000 0.36442 -0.90625
v -0.20000 0.37542 -0.94063
v -0.20000 0.11250 -1.11250
v -0.20000 0.26375 -1.11250
v 0.20000 0.11250 -1.11250
v -0.20000 0.11250 -1.11250
v 0.20000 0.11250 -0.56250
v -0.20000 0.11250 -0.56250
v -0.20000 0.11250 -0.56250
v 0.20000 0.19569 -0.56250
v -0.20000 0.19569 -0.56250
v -0.20000 0.19569 -0.56250
v 0.20000 0.20393 -0.59688
v -0.20000 0.20393 -0.59688
v -0.20000 0.21164 -0.63125
v 0.20000 0.21164 -0.63125
v -0.20000 0.26375 -1.11250
v -0.20000 0.30166 -1.07812
v 0.20000 0.26375 -1.11250
v -0.20000 0.33491 -1.04375
v 0.20000 0.30166 -1.07812
v -0.20000 0.23716 -0.76875
v -0.20000 0.23158 -0.73438
v 0.20000 0.23716 -0.76875
v 0.20000 0.21882 -0.66562
v -0.20000 0.21882 -0.66562
v -0.20000 0.22546 -0.70000
v 0.20000 0.22546 -0.70000
v 0.20000 0.23158 -0.73438
v 0.20000 0.27501 -0.80313
v -0.20000 0.27501 -0.80313
v 0.20000 0.31129 -0.83750
v -0.20000 0.31129 -0.83750
v -0.20000 0.35989 -1.00937
v 0.20000 0.33491 -1.04375
v 0.20000 0.34222 -0.87187
v -0.20000 0.34222 -0.87187
v -0.20000 0.37388 -0.97500
v 0.20000 0.35989 -1.00937
v -0.20000 0.37542 -0.94063
v -0.20000 0.36442 -0.90625
v 0.20000 0.37542 -0.94063
v 0.20000 0.37388 -0.97500
v 0.20000 0.36442 -0.90625
v 0.20000 0.26375 -1.11250
v 0.20000 0.11250 -1.11250
v 0.20000 0.11250 -0.56250
v 0.20000 0.19569 -0.56250
v 0.20000 0.11250 -1.11250
v 0.20000 0.21882 -0.66562
v 0.20000 0.11250 -0.56250
v 0.20000 0.23716 -0.76875
v 0.20000 0.23158 -0.73438
v 0.20000 0.22546 -0.70000
v 0.20000 0.27501 -0.80313
v 0.20000 0.20393 -0.59688
v 0.20000 0.19569 -0.56250
v 0.20000 0.21164 -0.63125
v 0.20000 0.26375 -1.11250
v 0.20000 0.30166 -1.07812
v 0.20000 0.33491 -1.04375
v 0.20000 0.35989 -1.00937
v 0.20000 0.37388 -0.97500
v 0.20000 0.31129 -0.83750
v 0.20000 0.34222 -0.87187
v 0.20000 0.37542 -0.94063
v 0.20000 0.36442 -0.90625
v -0.17671 -0.40650 -0.76421
v -0.17671 -0.42771 -0.74300
v -0.18550 -0.40650 -0.74300
v -0.15550 -0.42771 -0.76421
v -0.17671 -0.11850 -0.76421
v -0.15550 -0.43650 -0.74300
v -0.15550 -0.40650 -0.77300
v -0.15550 -0.11850 -0.77300
v -0.17671 -0.42771 -0.20700
v -0.18550 -0.40650 -0.20700
v -0.15550 -0.43650 -0.20700
v -0.17671 -0.40650 -0.18579
v -0.15550 -0.42771 -0.18579
v -0.18550 -0.11850 -0.20700
v -0.15550 -0.40650 -0.17700
v -0.17671 -0.11850 -0.18579
v -0.18550 -0.11850 -0.74300
v -0.17671 -0.09729 -0.74300
v -0.15550 -0.09729 -0.76421
v -0.15550 -0.08850 -0.74300
v -0.17671 -0.09729 -0.20700
v -0.15550 -0.08850 -0.20700
v -0.15550 -0.09729 -0.18579
v -0.15550 -0.11850 -0.17700
v 0.15550 -0.43650 -0.74300
v 0.15550 -0.40650 -0.77300
v 0.15550 -0.43650 -0.20700
v 0.15550 -0.40650 -0.17700
v 0.15550 -0.09729 -0.76421
v 0.15550 -0.08850 -0.74300
v 0.15550 -0.11850 -0.17700
v 0.15550 -0.09729 -0.18579
v 0.15550 -0.42771 -0.76421
v 0.15550 -0.42771 -0.18579
v 0.15550 -0.11850 -0.77300
v 0.15550 -0.08850 -0.20700
v 0.17671 -0.42771 -0.74300
v 0.17671 -0.40650 -0.76421
v 0.18550 -0.40650 -0.74300
v 0.18550 -0.11850 -0.74300
v 0.17671 -0.42771 -0.20700
v 0.17671 -0.40650 -0.18579
v 0.18550 -0.40650 -0.20700
v 0.18550 -0.11850 -0.20700
v 0.17671 -0.11850 -0.76421
v 0.17671 -0.09729 -0.74300
v 0.17671 -0.09729 -0.20700
v 0.17671 -0.11850 -0.18579
v -0.19800 0.04350 -0.39300
v -0.18921 0.04350 -0.41421
v -0.18921 0.02229 -0.39300
v -0.16800 0.02229 -0.41421
v -0.16800 0.01350 -0.39300
v -0.16800 0.04350 -0.42300
v -0.19800 0.08150 -0.39300
v -0.18921 0.08150 -0.41421
v -0.18921 0.10271 -0.39300
v -0.16800 0.10271 -0.41421
v -0.16800 0.08150 -0.42300
v -0.19800 0.08150 0.11800
v -0.19800 0.04350 0.11800
v -0.18921 0.02229 0.11800
v -0.16800 0.01350 0.11800
v -0.18921 0.10271 0.11800
v -0.16800 0.11150 -0.39300
v -0.16800 0.11150 0.11800
v 0.16800 0.01350 -0.39300
v 0.16800 0.04350 -0.42300
v 0.16800 0.10271 -0.41421
v 0.16800 0.11150 -0.39300
v -0.18921 0.04350 0.13921
v -0.16800 0.02229 0.13921
v -0.16800 0.04350 0.14800
v -0.18921 0.08150 0.13921
v -0.16800 0.10271 0.13921
v -0.16800 0.08150 0.14800
v 0.16800 0.01350 0.11800
v 0.16800 0.04350 0.14800
v 0.16800 0.08150 0.14800
v 0.16800 0.10271 0.13921
v 0.16800 0.02229 -0.41421
v 0.16800 0.08150 -0.42300
v 0.16800 0.11150 0.11800
v 0.18921 0.02229 -0.39300
v 0.18921 0.04350 -0.41421
v 0.19800 0.04350 -0.39300
v 0.18921 0.08150 -0.41421
v 0.19800 0.08150 -0.39300
v 0.18921 0.10271 -0.39300
v 0.18921 0.02229 0.11800
v 0.19800 0.04350 0.11800
v 0.19800 0.08150 0.11800
v 0.18921 0.10271 0.11800
v 0.16800 0.02229 0.13921
v 0.18921 0.04350 0.13921
v 0.18921 0.08150 0.13921
v -0.17300 -0.06650 -0.30300
v -0.16714 -0.06650 -0.31714
v -0.16714 -0.08064 -0.30300
v -0.17300 -0.00850 -0.30300
v -0.16714 -0.00850 -0.31714
v -0.16714 -0.08064 0.12800
v -0.17300 -0.06650 0.12800
v -0.17300 -0.00850 0.12800
v -0.15300 -0.08064 -0.31714
v -0.15300 -0.08650 -0.30300
v -0.15300 -0.06650 -0.32300
v -0.15300 -0.00850 -0.32300
v -0.15300 -0.08650 0.12800
v 0.15300 -0.08650 -0.30300
v 0.15300 -0.06650 -0.32300
v 0.15300 -0.00850 -0.32300
v 0.15300 -0.08650 0.12800
v -0.16714 -0.06650 0.14214
v -0.16714 -0.00850 0.14214
v -0.15300 -0.08064 0.14214
v -0.15300 -0.06650 0.14800
v -0.15300 -0.00850 0.14800
v 0.15300 -0.06650 0.14800
v -0.16714 0.00564 -0.30300
v -0.16714 0.00564 0.12800
v -0.15300 0.00564 -0.31714
v -0.15300 0.01150 -0.30300
v -0.15300 0.01150 0.12800
v 0.15300 0.01150 -0.30300
v -0.15300 0.00564 0.14214
v 0.15300 0.00564 0.14214
v 0.15300 0.01150 0.12800
v 0.15300 -0.08064 -0.31714
v 0.16714 -0.08064 -0.30300
v 0.16714 -0.06650 -0.31714
v 0.16714 -0.00850 -0.31714
v 0.16714 -0.08064 0.12800
v 0.17300 -0.06650 -0.30300
v 0.17300 -0.00850 -0.30300
v 0.17300 -0.06650 0.12800
v 0.17300 -0.00850 0.12800
v 0.15300 -0.08064 0.14214
v 0.15300 -0.00850 0.14800
v 0.16714 -0.06650 0.14214
v 0.16714 -0.00850 0.14214
v 0.15300 0.00564 -0.31714
v 0.16714 0.00564 -0.30300
v 0.16714 0.00564 0.12800
v -0.15000 0.11250 0.15000
v -0.15000 0.13750 0.87500
v -0.15000 0.21250 0.87500
v -0.15000 0.11250 0.15000
v -0.15000 0.21250 0.87500
v 0.15000 0.11250 0.15000
v -0.15000 0.11250 0.15000
v 0.15000 0.13750 0.87500
v -0.15000 0.13750 0.87500
v -0.15000 0.13750 0.87500
v 0.15000 0.21250 0.87500
v -0.15000 0.21250 0.87500
v 0.15000 0.11250 0.15000
v 0.15000 0.21250 0.87500
v 0.15000 0.13750 0.87500
v 0.15000 0.11250 0.15000
v 0.15000 0.21250 0.87500
v 0.15000 0.13750 0.87500
v -0.22007 -0.44607 -0.16300
v -0.22300 -0.43900 -0.16300
v -0.22007 -0.43900 -0.17007
v -0.21300 -0.44607 -0.17007
v -0.21300 -0.44900 -0.16300
v -0.21300 -0.43900 -0.17300
v -0.22300 -0.33600 -0.16300
v -0.22007 -0.33600 -0.17007
v -0.16200 -0.44607 -0.17007
v -0.21300 -0.33600 -0.17300
v -0.16200 -0.33600 -0.17300
v -0.16200 -0.44900 -0.16300
v -0.16200 -0.43900 -0.17300
v -0.22007 -0.32893 -0.16300
v -0.21300 -0.32893 -0.17007
v -0.21300 -0.32600 -0.16300
v -0.16200 -0.32893 -0.17007
v -0.16200 -0.32600 -0.16300
v -0.15493 -0.44607 -0.16300
v -0.15493 -0.43900 -0.17007
v -0.15200 -0.43900 -0.16300
v -0.15493 -0.33600 -0.17007
v -0.15200 -0.33600 -0.16300
v -0.15493 -0.32893 -0.16300
v -0.22300 -0.43900 1.06300
v -0.21300 -0.44900 1.06300
v -0.22300 -0.33600 1.06300
v -0.16200 -0.44900 1.06300
v -0.22007 -0.44607 1.06300
v -0.22007 -0.32893 1.06300
v -0.21300 -0.32600 1.06300
v -0.16200 -0.32600 1.06300
v -0.15200 -0.43900 1.06300
v -0.15493 -0.44607 1.06300
v -0.15200 -0.33600 1.06300
v -0.15493 -0.32893 1.06300
v -0.22007 -0.43900 1.07007
v -0.21300 -0.44607 1.07007
v -0.21300 -0.43900 1.07300
v -0.22007 -0.33600 1.07007
v -0.16200 -0.43900 1.07300
v -0.21300 -0.33600 1.07300
v -0.16200 -0.33600 1.07300
v -0.16200 -0.44607 1.07007
v -0.21300 -0.32893 1.07007
v -0.16200 -0.32893 1.07007
v -0.15493 -0.43900 1.07007
v -0.15493 -0.33600 1.07007
v 0.15200 -0.43900 -0.16300
v 0.15493 -0.43900 -0.17007
v 0.15493 -0.44607 -0.16300
v 0.16200 -0.44607 -0.17007
v 0.16200 -0.44900 -0.16300
v 0.16200 -0.43900 -0.17300
v 0.15493 -0.33600 -0.17007
v 0.16200 -0.33600 -0.17300
v 0.15200 -0.33600 -0.16300
v 0.15493 -0.32893 -0.16300
v 0.16200 -0.32893 -0.17007
v 0.16200 -0.32600 -0.16300
v 0.21300 -0.44607 -0.17007
v 0.21300 -0.43900 -0.17300
v 0.21300 -0.44900 -0.16300
v 0.22007 -0.44607 -0.16300
v 0.22007 -0.43900 -0.17007
v 0.22300 -0.43900 -0.16300
v 0.21300 -0.33600 -0.17300
v 0.22300 -0.33600 -0.16300
v 0.22007 -0.33600 -0.17007
v 0.21300 -0.32893 -0.17007
v 0.21300 -0.32600 -0.16300
v 0.22007 -0.32893 -0.16300
v 0.15200 -0.43900 1.06300
v 0.16200 -0.44900 1.06300
v 0.15200 -0.33600 1.06300
v 0.15493 -0.44607 1.06300
v 0.15493 -0.32893 1.06300
v 0.16200 -0.32600 1.06300
v 0.21300 -0.44900 1.06300
v 0.22300 -0.43900 1.06300
v 0.22007 -0.44607 1.06300
v 0.22300 -0.33600 1.06300
v 0.22007 -0.32893 1.06300
v 0.21300 -0.32600 1.06300
v 0.15493 -0.43900 1.07007
v 0.16200 -0.44607 1.07007
v 0.16200 -0.43900 1.07300
v 0.15493 -0.33600 1.07007
v 0.16200 -0.33600 1.07300
v 0.16200 -0.32893 1.07007
v 0.21300 -0.43900 1.07300
v 0.21300 -0.33600 1.07300
v 0.21300 -0.44607 1.07007
v 0.22007 -0.43900 1.07007
v 0.22007 -0.33600 1.07007
v 0.21300 -0.32893 1.07007
v -0.12500 -0.31350 1.47776
v -0.12500 -0.31350 1.52776
v -0.12500 -0.11875 1.46549
v -0.12500 -0.26133 1.47089
v -0.12500 -0.24838 1.51919
v -0.12500 -0.14375 1.42219
v -0.12500 -0.00743 1.38007
v -0.12500 -0.04279 1.34471
v -0.12500 -0.31350 1.52776
v 0.12500 -0.31350 1.52776
v -0.12500 -0.24838 1.51919
v 0.12500 -0.11875 1.46549
v -0.12500 -0.11875 1.46549
v 0.12500 -0.00743 1.38007
v -0.12500 -0.00743 1.38007
v -0.12500 0.08305 0.87300
v -0.12500 0.08339 0.87383
v -0.12500 0.13328 0.87300
v -0.12500 0.07799 1.26875
v -0.12500 0.03469 1.24375
v -0.12500 0.08339 1.12617
v -0.12500 0.13169 1.13912
v -0.12500 0.10000 1.00000
v -0.12500 0.15000 1.00000
v 0.12500 0.07799 1.26875
v -0.12500 0.07799 1.26875
v -0.12500 0.13328 0.87300
v -0.12500 0.15000 1.00000
v 0.12500 0.15000 1.00000
v -0.12500 0.13169 1.13912
v 0.12500 0.13169 1.13912
v 0.12500 -0.24838 1.51919
v 0.12500 -0.31350 1.47776
v 0.12500 -0.24838 1.51919
v 0.12500 -0.31350 1.52776
v 0.12500 -0.26133 1.47089
v 0.12500 -0.11875 1.46549
v 0.12500 -0.14375 1.42219
v 0.12500 -0.04279 1.34471
v 0.12500 -0.00743 1.38007
v 0.12500 0.13328 0.87300
v 0.12500 0.08305 0.87300
v 0.12500 0.13328 0.87300
v 0.12500 0.08339 0.87383
v 0.12500 0.03469 1.24375
v 0.12500 0.07799 1.26875
v 0.12500 0.08339 1.12617
v 0.12500 0.13169 1.13912
v 0.12500 0.15000 1.00000
v 0.12500 0.10000 1.00000
v -0.12500 -0.31350 1.47776
v -0.12500 -0.26133 1.47089
v 0.12500 -0.26133 1.47089
v -0.12500 -0.14375 1.42219
v 0.12500 -0.14375 1.42219
v -0.12500 -0.04279 1.34471
v 0.12500 -0.04279 1.34471
v -0.12500 0.08305 0.87300
v 0.12500 0.08305 0.87300
v -0.12500 0.08339 0.87383
v 0.12500 0.08339 0.87383
v -0.12500 0.10000 1.00000
v 0.12500 0.10000 1.00000
v -0.12500 0.08339 1.12617
v -0.12500 0.03469 1.24375
v 0.12500 0.03469 1.24375
v 0.12500 0.08339 1.12617
v 0.12500 -0.31350 1.47776
v -0.12500 -0.31350 1.47776
v 0.12500 -0.31350 1.52776
v -0.12500 -0.31350 1.52776
v 0.12500 -0.31350 1.47776
v -0.12500 0.08305 0.87300
v -0.12500 0.13328 0.87300
v 0.12500 0.08305 0.87300
v 0.12500 0.13328 0.87300
vn -0.6887 -0.6887 -0.2265
vn -0.6887 -0.6887 0.2265
vn -0.9641 -0.1877 -0.1877
vn -0.6887 -0.2265 -0.6887
vn -0.2265 -0.6887 -0.6887
vn -0.9641 -0.1877 0.1877
vn -0.1877 -0.9641 0.1877
vn -0.1877 -0.9641 -0.1877
vn -0.1877 -0.1877 -0.9641
vn -0.6887 -0.2265 0.6887
vn -0.2265 -0.6887 0.6887
vn -0.1877 -0.1877 0.9641
vn -0.9641 0.1877 -0.1877
vn -0.1877 0.1877 -0.9641
vn -0.6887 0.2265 0.6887
vn -0.1877 0.1877 0.9641
vn -0.6887 0.2265 -0.6887
vn -0.9641 0.1877 0.1877
vn -0.6887 0.6887 -0.2265
vn -0.6887 0.6887 0.2265
vn -0.2265 0.6887 -0.6887
vn -0.1877 0.9641 0.1877
vn -0.1877 0.9641 -0.1877
vn -0.2265 0.6887 0.6887
vn 0.2265 -0.6887 -0.6887
vn 0.1877 -0.1877 -0.9641
vn 0.1877 -0.9641 0.1877
vn 0.1877 -0.1877 0.9641
vn 0.2265 0.6887 -0.6887
vn 0.1877 0.9641 -0.1877
vn 0.2265 0.6887 0.6887
vn 0.1877 -0.9641 -0.1877
vn 0.2265 -0.6887 0.6887
vn 0.1877 0.1877 -0.9641
vn 0.1877 0.1877 0.9641
vn 0.1877 0.9641 0.1877
vn 0.6887 -0.6887 -0.2265
vn 0.6887 -0.2265 -0.6887
vn 0.9641 -0.1877 -0.1877
vn 0.6887 -0.6887 0.2265
vn 0.9641 -0.1877 0.1877
vn 0.6887 -0.2265 0.6887
vn 0.9641 0.1877 -0.1877
vn 0.6887 0.2265 0.6887
vn 0.9641 0.1877 0.1877
vn 0.6887 0.2265 -0.6887
vn 0.6887 0.6887 -0.2265
vn 0.6887 0.6887 0.2265
vn -1.0000 0.0000 0.0000
vn -1.0000 0.0000 0.0000
vn -1.0000 0.0000 0.0000
vn -1.0000 0.0000 0.0000
vn -1.0000 0.0000 0.0000
vn -1.0000 0.0000 0.0000
vn -1.0000 0.0000 0.0000
vn -1.0000 0.0000 0.0000
vn -1.0000 0.0000 0.0000
vn -1.0000 0.0000 0.0000
vn -1.0000 0.0000 0.0000
vn -1.0000 0.0000 0.0000
vn -1.0000 0.0000 0.0000
vn -1.0000 0.0000 0.0000
vn -1.0000 0.0000 0.0000
vn -1.0000 0.0000 0.0000
vn -1.0000 0.0000 0.0000
vn -1.0000 0.0000 0.0000
vn -1.0000 0.0000 0.0000
vn 0.0000 0.0000 -1.0000
vn 0.0000 0.0000 -1.0000
vn 0.0000 0.0000 -1.0000
vn 0.0000 -1.0000 0.0000
vn 0.0000 -1.0000 0.0000
vn 0.0000 -1.0000 0.0000
vn 0.0000 0.0000 1.0000
vn 0.0000 0.0000 1.0000
vn 0.0000 0.0000 1.0000
vn -0.0000 0.9724 0.2332
vn -0.0000 0.9741 0.2260
vn 0.0000 0.9741 0.2260
vn 0.0000 0.9773 0.2116
vn 0.0000 0.9773 0.2116
vn 0.0000 0.6717 -0.7408
vn 0.0000 0.6956 -0.7184
vn 0.0000 0.6717 -0.7408
vn -0.0000 0.7657 -0.6431
vn -0.0000 0.6956 -0.7184
vn 0.0000 0.8789 0.4770
vn 0.0000 0.9858 0.1677
vn 0.0000 0.8789 0.4770
vn 0.0000 0.9804 0.1971
vn 0.0000 0.9804 0.1971
vn -0.0000 0.9832 0.1825
vn 0.0000 0.9832 0.1825
vn -0.0000 0.9858 0.1677
vn 0.0000 0.6801 0.7331
vn 0.0000 0.6801 0.7331
vn 0.0000 0.7162 0.6979
vn 0.0000 0.7162 0.6979
vn -0.0000 0.8740 -0.4859
vn -0.0000 0.7657 -0.6431
vn 0.0000 0.7942 0.6077
vn 0.0000 0.7942 0.6077
vn 0.0000 0.9769 -0.2139
vn 0.0000 0.8740 -0.4859
vn 0.0000 0.9912 0.1320
vn 0.0000 0.9041 0.4273
vn 0.0000 0.9912 0.1320
vn 0.0000 0.9769 -0.2139
vn 0.0000 0.9041 0.4273
vn 0.0000 0.0000 -1.0000
vn 0.0000 -1.0000 0.0000
vn 0.0000 0.0000 1.0000
vn 0.0000 0.9724 0.2332
vn 1.0000 0.0000 0.0000
vn 1.0000 0.0000 0.0000
vn 1.0000 0.0000 0.0000
vn 1.0000 0.0000 0.0000
vn 1.0000 0.0000 0.0000
vn 1.0000 0.0000 0.0000
vn 1.0000 0.0000 0.0000
vn 1.0000 0.0000 0.0000
vn 1.0000 0.0000 0.0000
vn 1.0000 0.0000 0.0000
vn 1.0000 0.0000 0.0000
vn 1.0000 0.0000 0.0000
vn 1.0000 0.0000 0.0000
vn 1.0000 0.0000 0.0000
vn 1.0000 0.0000 0.0000
vn 1.0000 0.0000 0.0000
vn 1.0000 0.0000 0.0000
vn 1.0000 0.0000 0.0000
vn 1.0000 0.0000 0.0000
vn -0.6887 -0.2265 -0.6887
vn -0.6887 -0.6887 -0.2265
vn -0.9641 -0.1877 -0.1877
vn -0.2265 -0.6887 -0.6887
vn -0.6887 0.2265 -0.6887
vn -0.1877 -0.9641 -0.1877
vn -0.1877 -0.1877 -0.9641
vn -0.1877 0.1877 -0.9641
vn -0.6887 -0.6887 0.2265
vn -0.9641 -0.1877 0.1877
vn -0.1877 -0.9641 0.1877
vn -0.6887 -0.2265 0.6887
vn -0.2265 -0.6887 0.6887
vn -0.9641 0.1877 0.1877
vn -0.1877 -0.1877 0.9641
vn -0.6887 0.2265 0.6887
vn -0.9641 0.1877 -0.1877
vn -0.6887 0.6887 -0.2265
vn -0.2265 0.6887 -0.6887
vn -0.1877 0.9641 -0.1877
vn -0.6887 0.6887 0.2265
vn -0.1877 0.9641 0.1877
vn -0.2265 0.6887 0.6887
vn -0.1877 0.1877 0.9641
vn 0.1877 -0.9641 -0.1877
vn 0.1877 -0.1877 -0.9641
vn 0.1877 -0.9641 0.1877
vn 0.1877 -0.1877 0.9641
vn 0.2265 0.6887 -0.6887
vn 0.1877 0.9641 -0.1877
vn 0.1877 0.1877 0.9641
vn 0.2265 0.6887 0.6887
vn 0.2265 -0.6887 -0.6887
vn 0.2265 -0.6887 0.6887
vn 0.1877 0.1877 -0.9641
vn 0.1877 0.9641 0.1877
vn 0.6887 -0.6887 -0.2265
vn 0.6887 -0.2265 -0.6887
vn 0.9641 -0.1877 -0.1877
vn 0.9641 0.1877 -0.1877
vn 0.6887 -0.6887 0.2265
vn 0.6887 -0.2265 0.6887
vn 0.9641 -0.1877 0.1877
vn 0.9641 0.1877 0.1877
vn 0.6887 0.2265 -0.6887
vn 0.6887 0.6887 -0.2265
vn 0.6887 0.6887 0.2265
vn 0.6887 0.2265 0.6887
vn -0.9641 -0.1877 -0.1877
vn -0.6887 -0.2265 -0.6887
vn -0.6887 -0.6887 -0.2265
vn -0.2265 -0.6887 -0.6887
vn -0.1877 -0.9641 -0.1877
vn -0.1877 -0.1877 -0.9641
vn -0.9641 0.1877 -0.1877
vn -0.6887 0.2265 -0.6887
vn -0.6887 0.6887 -0.2265
vn -0.2265 0.6887 -0.6887
vn -0.1877 0.1877 -0.9641
vn -0.9641 0.1877 0.1877
vn -0.9641 -0.1877 0.1877
vn -0.6887 -0.6887 0.2265
vn -0.1877 -0.9641 0.1877
vn -0.6887 0.6887 0.2265
vn -0.1877 0.9641 -0.1877
vn -0.1877 0.9641 0.1877
vn 0.1877 -0.9641 -0.1877
vn 0.1877 -0.1877 -0.9641
vn 0.2265 0.6887 -0.6887
vn 0.1877 0.9641 -0.1877
vn -0.6887 -0.2265 0.6887
vn -0.2265 -0.6887 0.6887
vn -0.1877 -0.1877 0.9641
vn -0.6887 0.2265 0.6887
vn -0.2265 0.6887 0.6887
vn -0.1877 0.1877 0.9641
vn 0.1877 -0.9641 0.1877
vn 0.1877 -0.1877 0.9641
vn 0.1877 0.1877 0.9641
vn 0.2265 0.6887 0.6887
vn 0.2265 -0.6887 -0.6887
vn 0.1877 0.1877 -0.9641
vn 0.1877 0.9641 0.1877
vn 0.6887 -0.6887 -0.2265
vn 0.6887 -0.2265 -0.6887
vn 0.9641 -0.1877 -0.1877
vn 0.6887 0.2265 -0.6887
vn 0.9641 0.1877 -0.1877
vn 0.6887 0.6887 -0.2265
vn 0.6887 -0.6887 0.2265
vn 0.9641 -0.1877 0.1877
vn 0.9641 0.1877 0.1877
vn 0.6887 0.6887 0.2265
vn 0.2265 -0.6887 0.6887
vn 0.6887 -0.2265 0.6887
vn 0.6887 0.2265 0.6887
vn -0.9641 -0.1877 -0.1877
vn -0.6887 -0.2265 -0.6887
vn -0.6887 -0.6887 -0.2265
vn -0.9641 0.1877 -0.1877
vn -0.6887 0.2265 -0.6887
vn -0.6887 -0.6887 0.2265
vn -0.9641 -0.1877 0.1877
vn -0.9641 0.1877 0.1877
vn -0.2265 -0.6887 -0.6887
vn -0.1877 -0.9641 -0.1877
vn -0.1877 -0.1877 -0.9641
vn -0.1877 0.1877 -0.9641
vn -0.1877 -0.9641 0.1877
vn 0.1877 -0.9641 -0.1877
vn 0.1877 -0.1877 -0.9641
vn 0.1877 0.1877 -0.9641
vn 0.1877 -0.9641 0.1877
vn -0.6887 -0.2265 0.6887
vn -0.6887 0.2265 0.6887
vn -0.2265 -0.6887 0.6887
vn -0.1877 -0.1877 0.9641
vn -0.1877 0.1877 0.9641
vn 0.1877 -0.1877 0.9641
vn -0.6887 0.6887 -0.2265
vn -0.6887 0.6887 0.2265
vn -0.2265 0.6887 -0.6887
vn -0.1877 0.9641 -0.1877
vn -0.1877 0.9641 0.1877
vn 0.1877 0.9641 -0.1877
vn -0.2265 0.6887 0.6887
vn 0.2265 0.6887 0.6887
vn 0.1877 0.9641 0.1877
vn 0.2265 -0.6887 -0.6887
vn 0.6887 -0.6887 -0.2265
vn 0.6887 -0.2265 -0.6887
vn 0.6887 0.2265 -0.6887
vn 0.6887 -0.6887 0.2265
vn 0.9641 -0.1877 -0.1877
vn 0.9641 0.1877 -0.1877
vn 0.9641 -0.1877 0.1877
vn 0.9641 0.1877 0.1877
vn 0.2265 -0.6887 0.6887
vn 0.1877 0.1877 0.9641
vn 0.6887 -0.2265 0.6887
vn 0.6887 0.2265 0.6887
vn 0.2265 0.6887 -0.6887
vn 0.6887 0.6887 -0.2265
vn 0.6887 0.6887 0.2265
vn -1.0000 0.0000 0.0000
vn -1.0000 0.0000 0.0000
vn -1.0000 0.0000 0.0000
vn 0.0000 0.9906 -0.1366
vn 0.0000 0.9906 -0.1366
vn 0.0000 0.9906 -0.1366
vn 0.0000 -0.9994 0.0345
vn 0.0000 -0.9994 0.0345
vn 0.0000 -0.9994 0.0345
vn 0.0000 0.0000 1.0000
vn 0.0000 0.0000 1.0000
vn 0.0000 0.0000 1.0000
vn 0.0000 -0.9994 0.0345
vn 0.0000 0.9906 -0.1366
vn 0.0000 0.0000 1.0000
vn 1.0000 0.0000 0.0000
vn 1.0000 0.0000 0.0000
vn 1.0000 0.0000 0.0000
vn -0.6887 -0.6887 -0.2265
vn -0.9641 -0.1877 -0.1877
vn -0.6887 -0.2265 -0.6887
vn -0.2265 -0.6887 -0.6887
vn -0.1877 -0.9641 -0.1877
vn -0.1877 -0.1877 -0.9641
vn -0.9641 0.1877 -0.1877
vn -0.6887 0.2265 -0.6887
vn 0.2265 -0.6887 -0.6887
vn -0.1877 0.1877 -0.9641
vn 0.1877 0.1877 -0.9641
vn 0.1877 -0.9641 -0.1877
vn 0.1877 -0.1877 -0.9641
vn -0.6887 0.6887 -0.2265
vn -0.2265 0.6887 -0.6887
vn -0.1877 0.9641 -0.1877
vn 0.2265 0.6887 -0.6887
vn 0.1877 0.9641 -0.1877
vn 0.6887 -0.6887 -0.2265
vn 0.6887 -0.2265 -0.6887
vn 0.9641 -0.1877 -0.1877
vn 0.6887 0.2265 -0.6887
vn 0.9641 0.1877 -0.1877
vn 0.6887 0.6887 -0.2265
vn -0.9641 -0.1877 0.1877
vn -0.1877 -0.9641 0.1877
vn -0.9641 0.1877 0.1877
vn 0.1877 -0.9641 0.1877
vn -0.6887 -0.6887 0.2265
vn -0.6887 0.6887 0.2265
vn -0.1877 0.9641 0.1877
vn 0.1877 0.9641 0.1877
vn 0.9641 -0.1877 0.1877
vn 0.6887 -0.6887 0.2265
vn 0.9641 0.1877 0.1877
vn 0.6887 0.6887 0.2265
vn -0.6887 -0.2265 0.6887
vn -0.2265 -0.6887 0.6887
vn -0.1877 -0.1877 0.9641
vn -0.6887 0.2265 0.6887
vn 0.1877 -0.1877 0.9641
vn -0.1877 0.1877 0.9641
vn 0.1877 0.1877 0.9641
vn 0.2265 -0.6887 0.6887
vn -0.2265 0.6887 0.6887
vn 0.2265 0.6887 0.6887
vn 0.6887 -0.2265 0.6887
vn 0.6887 0.2265 0.6887
vn -0.9641 -0.1877 -0.1877
vn -0.6887 -0.2265 -0.6887
vn -0.6887 -0.6887 -0.2265
vn -0.2265 -0.6887 -0.6887
vn -0.1877 -0.9641 -0.1877
vn -0.1877 -0.1877 -0.9641
vn -0.6887 0.2265 -0.6887
vn -0.1877 0.1877 -0.9641
vn -0.9641 0.1877 -0.1877
vn -0.6887 0.6887 -0.2265
vn -0.2265 0.6887 -0.6887
vn -0.1877 0.9641 -0.1877
vn 0.2265 -0.6887 -0.6887
vn 0.1877 -0.1877 -0.9641
vn 0.1877 -0.9641 -0.1877
vn 0.6887 -0.6887 -0.2265
vn 0.6887 -0.2265 -0.6887
vn 0.9641 -0.1877 -0.1877
vn 0.1877 0.1877 -0.9641
vn 0.9641 0.1877 -0.1877
vn 0.6887 0.2265 -0.6887
vn 0.2265 0.6887 -0.6887
vn 0.1877 0.9641 -0.1877
vn 0.6887 0.6887 -0.2265
vn -0.9641 -0.1877 0.1877
vn -0.1877 -0.9641 0.1877
vn -0.9641 0.1877 0.1877
vn -0.6887 -0.6887 0.2265
vn -0.6887 0.6887 0.2265
vn -0.1877 0.9641 0.1877
vn 0.1877 -0.9641 0.1877
vn 0.9641 -0.1877 0.1877
vn 0.6887 -0.6887 0.2265
vn 0.9641 0.1877 0.1877
vn 0.6887 0.6887 0.2265
vn 0.1877 0.9641 0.1877
vn -0.6887 -0.2265 0.6887
vn -0.2265 -0.6887 0.6887
vn -0.1877 -0.1877 0.9641
vn -0.6887 0.2265 0.6887
vn -0.1877 0.1877 0.9641
vn -0.2265 0.6887 0.6887
vn 0.1877 -0.1877 0.9641
vn 0.1877 0.1877 0.9641
vn 0.2265 -0.6887 0.6887
vn 0.6887 -0.2265 0.6887
vn 0.6887 0.2265 0.6887
vn 0.2265 0.6887 0.6887
vn -1.0000 0.0000 0.0000
vn -1.0000 0.0000 0.0000
vn -1.0000 0.0000 0.0000
vn -1.0000 0.0000 0.0000
vn -1.0000 0.0000 0.0000
vn -1.0000 0.0000 0.0000
vn -1.0000 0.0000 0.0000
vn -1.0000 0.0000 0.0000
vn 0.0000 0.1305 0.9914
vn 0.0000 0.1305 0.9914
vn 0.0000 0.2588 0.9659
vn 0.0000 0.5000 0.8660
vn -0.0000 0.5000 0.8660
vn -0.0000 0.7071 0.7071
vn -0.0000 0.7071 0.7071
vn -1.0000 0.0000 0.0000
vn -1.0000 0.0000 0.0000
vn -1.0000 0.0000 0.0000
vn -1.0000 0.0000 0.0000
vn -1.0000 0.0000 0.0000
vn -1.0000 0.0000 0.0000
vn -1.0000 0.0000 0.0000
vn -1.0000 0.0000 0.0000
vn -1.0000 0.0000 0.0000
vn -0.0000 0.8660 0.5000
vn 0.0000 0.8660 0.5000
vn -0.0000 0.9914 -0.1305
vn 0.0000 1.0000 0.0000
vn -0.0000 1.0000 0.0000
vn 0.0000 0.9659 0.2588
vn 0.0000 0.9659 0.2588
vn 0.0000 0.2588 0.9659
vn 1.0000 0.0000 0.0000
vn 1.0000 0.0000 0.0000
vn 1.0000 0.0000 0.0000
vn 1.0000 0.0000 0.0000
vn 1.0000 0.0000 0.0000
vn 1.0000 0.0000 0.0000
vn 1.0000 0.0000 0.0000
vn 1.0000 0.0000 0.0000
vn 0.0000 0.9914 -0.1305
vn 1.0000 0.0000 0.0000
vn 1.0000 0.0000 0.0000
vn 1.0000 0.0000 0.0000
vn 1.0000 0.0000 0.0000
vn 1.0000 0.0000 0.0000
vn 1.0000 0.0000 0.0000
vn 1.0000 0.0000 0.0000
vn 1.0000 0.0000 0.0000
vn 1.0000 0.0000 0.0000
vn 0.0000 -0.1305 -0.9914
vn 0.0000 -0.2588 -0.9659
vn 0.0000 -0.2588 -0.9659
vn 0.0000 -0.5000 -0.8660
vn 0.0000 -0.5000 -0.8660
vn 0.0000 -0.7071 -0.7071
vn 0.0000 -0.7071 -0.7071
vn 0.0000 -0.9239 0.3827
vn -0.0000 -0.9239 0.3827
vn -0.0000 -0.9659 0.2588
vn 0.0000 -0.9659 0.2588
vn 0.0000 -1.0000 0.0000
vn -0.0000 -1.0000 0.0000
vn -0.0000 -0.9659 -0.2588
vn 0.0000 -0.8660 -0.5000
vn 0.0000 -0.8660 -0.5000
vn 0.0000 -0.9659 -0.2588
vn 0.0000 -0.1305 -0.9914
vn 0.0000 -1.0000 0.0000
vn 0.0000 -1.0000 0.0000
vn 0.0000 -1.0000 0.0000
vn 0.0000 -1.0000 0.0000
vn 0.0000 0.0000 -1.0000
vn 0.0000 0.0000 -1.0000
vn 0.0000 0.0000 -1.0000
vn 0.0000 0.0000 -1.0000
f 1//1 2//2 3//3
f 1//1 3//3 4//4
f 1//1 4//4 5//5
f 3//3 2//2 6//6
f 1//1 7//7 2//2
f 1//1 5//5 8//8
f 1//1 8//8 7//7
f 4//4 9//9 5//5
f 2//2 10//10 6//6
f 2//2 11//11 10//10
f 2//2 7//7 11//11
f 10//10 11//11 12//12
f 3//3 13//13 4//4
f 3//3 6//6 13//13
f 4//4 14//14 9//9
f 6//6 10//10 15//15
f 10//10 12//12 16//16
f 4//4 13//13 17//17
f 4//4 17//17 14//14
f 6//6 18//18 13//13
f 6//6 15//15 18//18
f 10//10 16//16 15//15
f 13//13 19//19 17//17
f 13//13 20//20 19//19
f 17//17 19//19 21//21
f 13//13 18//18 20//20
f 19//19 20//20 22//22
f 17//17 21//21 14//14
f 19//19 23//23 21//21
f 19//19 22//22 23//23
f 18//18 15//15 20//20
f 20//20 15//15 24//24
f 15//15 16//16 24//24
f 20//20 24//24 22//22
f 5//5 25//25 8//8
f 5//5 9//9 26//26
f 8//8 27//27 7//7
f 7//7 27//27 11//11
f 11//11 28//28 12//12
f 9//9 14//14 26//26
f 12//12 28//28 16//16
f 14//14 21//21 29//29
f 21//21 23//23 29//29
f 23//23 22//22 30//30
f 16//16 31//31 24//24
f 22//22 24//24 31//31
f 8//8 25//25 32//32
f 5//5 26//26 25//25
f 8//8 32//32 27//27
f 11//11 27//27 33//33
f 11//11 33//33 28//28
f 14//14 34//34 26//26
f 16//16 28//28 35//35
f 14//14 29//29 34//34
f 23//23 30//30 29//29
f 22//22 36//36 30//30
f 16//16 35//35 31//31
f 22//22 31//31 36//36
f 25//25 37//37 32//32
f 32//32 37//37 27//27
f 25//25 26//26 38//38
f 25//25 38//38 37//37
f 37//37 39//39 40//40
f 37//37 38//38 39//39
f 37//37 40//40 27//27
f 39//39 41//41 40//40
f 27//27 40//40 33//33
f 33//33 42//42 28//28
f 33//33 40//40 42//42
f 40//40 41//41 42//42
f 26//26 34//34 38//38
f 38//38 43//43 39//39
f 39//39 43//43 41//41
f 28//28 42//42 44//44
f 41//41 45//45 42//42
f 38//38 34//34 46//46
f 38//38 46//46 43//43
f 41//41 43//43 45//45
f 28//28 44//44 35//35
f 42//42 45//45 44//44
f 34//34 29//29 46//46
f 29//29 30//30 47//47
f 30//30 36//36 47//47
f 29//29 47//47 46//46
f 46//46 47//47 43//43
f 43//43 47//47 45//45
f 47//47 36//36 48//48
f 47//47 48//48 45//45
f 35//35 44//44 31//31
f 36//36 31//31 48//48
f 31//31 44//44 48//48
f 45//45 48//48 44//44
f 49//49 50//50 51//51
f 49//49 52//52 53//53
f 49//49 54//54 52//52
f 49//49 53//53 55//55
f 49//49 51//51 54//54
f 50//50 56//56 57//57
f 50//50 58//58 51//51
f 50//50 57//57 58//58
f 49//49 59//59 60//60
f 49//49 61//61 59//59
f 49//49 62//62 61//61
f 49//49 63//63 62//62
f 49//49 55//55 64//64
f 49//49 64//64 65//65
f 49//49 66//66 67//67
f 49//49 65//65 66//66
f 49//49 67//67 63//63
f 68//68 69//69 70//70
f 71//71 72//72 73//73
f 74//74 75//75 76//76
f 77//77 78//78 79//79
f 80//80 79//79 81//81
f 82//82 83//83 84//84
f 83//83 85//85 86//86
f 87//87 88//88 89//89
f 80//80 90//90 91//91
f 92//92 91//91 93//93
f 92//92 94//94 88//88
f 87//87 95//95 96//96
f 96//96 97//97 98//98
f 85//85 99//99 100//100
f 98//98 101//101 102//102
f 99//99 103//103 104//104
f 105//105 106//106 107//107
f 103//103 105//105 108//108
f 102//102 109//109 106//106
f 69//69 110//110 70//70
f 71//71 111//111 72//72
f 74//74 112//112 75//75
f 77//77 113//113 78//78
f 79//79 78//78 81//81
f 80//80 81//81 90//90
f 83//83 86//86 84//84
f 85//85 100//100 86//86
f 88//88 94//94 89//89
f 92//92 93//93 94//94
f 91//91 90//90 93//93
f 87//87 89//89 95//95
f 98//98 97//97 101//101
f 96//96 95//95 97//97
f 99//99 104//104 100//100
f 102//102 101//101 109//109
f 103//103 108//108 104//104
f 105//105 107//107 108//108
f 106//106 109//109 107//107
f 114//114 115//115 116//116
f 114//114 117//117 118//118
f 114//114 118//118 119//119
f 114//114 120//120 117//117
f 114//114 119//119 115//115
f 116//116 121//121 122//122
f 116//116 115//115 123//123
f 116//116 123//123 121//121
f 114//114 124//124 125//125
f 114//114 125//125 126//126
f 114//114 126//126 127//127
f 114//114 127//127 128//128
f 114//114 129//129 120//120
f 114//114 130//130 129//129
f 114//114 131//131 132//132
f 114//114 132//132 130//130
f 114//114 128//128 131//131
f 133//133 134//134 135//135
f 133//133 136//136 134//134
f 133//133 135//135 137//137
f 136//136 138//138 134//134
f 133//133 139//139 136//136
f 133//133 140//140 139//139
f 135//135 134//134 141//141
f 135//135 141//141 142//142
f 134//134 143//143 141//141
f 142//142 141//141 144//144
f 141//141 145//145 144//144
f 135//135 142//142 146//146
f 142//142 144//144 146//146
f 144//144 147//147 148//148
f 134//134 138//138 143//143
f 141//141 143//143 145//145
f 144//144 145//145 147//147
f 135//135 149//149 137//137
f 133//133 137//137 140//140
f 137//137 149//149 150//150
f 137//137 150//150 151//151
f 137//137 151//151 140//140
f 151//151 150//150 152//152
f 135//135 146//146 149//149
f 144//144 148//148 146//146
f 149//149 146//146 150//150
f 146//146 153//153 150//150
f 150//150 153//153 154//154
f 146//146 148//148 153//153
f 148//148 155//155 153//153
f 147//147 156//156 148//148
f 150//150 154//154 152//152
f 153//153 155//155 154//154
f 148//148 156//156 155//155
f 136//136 157//157 138//138
f 136//136 139//139 158//158
f 139//139 140//140 158//158
f 138//138 157//157 143//143
f 143//143 159//159 145//145
f 145//145 160//160 147//147
f 140//140 151//151 161//161
f 151//151 152//152 162//162
f 147//147 163//163 156//156
f 152//152 154//154 162//162
f 156//156 164//164 155//155
f 155//155 164//164 154//154
f 136//136 165//165 157//157
f 136//136 158//158 165//165
f 143//143 157//157 159//159
f 145//145 159//159 166//166
f 145//145 166//166 160//160
f 147//147 160//160 163//163
f 140//140 167//167 158//158
f 140//140 161//161 167//167
f 151//151 162//162 161//161
f 154//154 168//168 162//162
f 154//154 164//164 168//168
f 156//156 163//163 164//164
f 165//165 169//169 157//157
f 165//165 158//158 170//170
f 158//158 167//167 170//170
f 165//165 170//170 169//169
f 170//170 171//171 169//169
f 170//170 172//172 171//171
f 157//157 173//173 159//159
f 159//159 173//173 166//166
f 166//166 174//174 160//160
f 160//160 174//174 163//163
f 157//157 169//169 173//173
f 169//169 171//171 173//173
f 171//171 175//175 173//173
f 173//173 175//175 174//174
f 166//166 173//173 174//174
f 171//171 172//172 175//175
f 174//174 175//175 176//176
f 167//167 161//161 177//177
f 161//161 162//162 178//178
f 170//170 167//167 177//177
f 170//170 177//177 172//172
f 161//161 178//178 177//177
f 177//177 178//178 172//172
f 162//162 168//168 179//179
f 164//164 179//179 168//168
f 163//163 180//180 164//164
f 175//175 172//172 176//176
f 174//174 180//180 163//163
f 174//174 176//176 180//180
f 162//162 179//179 178//178
f 172//172 178//178 179//179
f 172//172 179//179 176//176
f 180//180 176//176 179//179
f 164//164 180//180 179//179
f 181//181 182//182 183//183
f 183//183 182//182 184//184
f 183//183 184//184 185//185
f 182//182 186//186 184//184
f 181//181 187//187 182//182
f 187//187 188//188 182//182
f 182//182 188//188 186//186
f 187//187 189//189 188//188
f 188//188 189//189 190//190
f 186//186 188//188 191//191
f 188//188 190//190 191//191
f 181//181 192//192 187//187
f 181//181 193//193 192//192
f 183//183 185//185 194//194
f 181//181 183//183 194//194
f 181//181 194//194 193//193
f 185//185 195//195 194//194
f 187//187 196//196 189//189
f 187//187 192//192 196//196
f 189//189 197//197 190//190
f 189//189 196//196 197//197
f 197//197 196//196 198//198
f 185//185 184//184 199//199
f 184//184 186//186 200//200
f 186//186 191//191 200//200
f 191//191 190//190 201//201
f 185//185 199//199 195//195
f 190//190 197//197 201//201
f 197//197 198//198 202//202
f 193//193 194//194 203//203
f 194//194 204//204 203//203
f 194//194 195//195 204//204
f 203//203 204//204 205//205
f 193//193 203//203 206//206
f 193//193 206//206 192//192
f 203//203 205//205 206//206
f 192//192 206//206 196//196
f 206//206 207//207 196//196
f 205//205 208//208 206//206
f 206//206 208//208 207//207
f 196//196 207//207 198//198
f 195//195 209//209 204//204
f 204//204 210//210 205//205
f 205//205 211//211 208//208
f 208//208 212//212 207//207
f 207//207 212//212 198//198
f 184//184 213//213 199//199
f 184//184 200//200 213//213
f 191//191 214//214 200//200
f 191//191 201//201 214//214
f 195//195 199//199 209//209
f 197//197 202//202 201//201
f 198//198 215//215 202//202
f 199//199 213//213 216//216
f 213//213 200//200 217//217
f 213//213 217//217 216//216
f 216//216 217//217 218//218
f 200//200 214//214 219//219
f 214//214 201//201 219//219
f 200//200 219//219 217//217
f 217//217 219//219 218//218
f 219//219 220//220 218//218
f 201//201 221//221 219//219
f 219//219 221//221 220//220
f 199//199 216//216 222//222
f 216//216 218//218 222//222
f 199//199 222//222 209//209
f 218//218 223//223 222//222
f 221//221 224//224 220//220
f 221//221 225//225 224//224
f 218//218 220//220 224//224
f 218//218 224//224 223//223
f 201//201 202//202 221//221
f 221//221 202//202 215//215
f 221//221 215//215 225//225
f 204//204 209//209 226//226
f 204//204 226//226 210//210
f 205//205 210//210 211//211
f 208//208 211//211 212//212
f 198//198 212//212 215//215
f 209//209 222//222 226//226
f 226//226 227//227 210//210
f 226//226 222//222 227//227
f 222//222 223//223 227//227
f 210//210 227//227 211//211
f 211//211 228//228 212//212
f 227//227 228//228 211//211
f 227//227 223//223 224//224
f 227//227 224//224 228//228
f 212//212 228//228 225//225
f 228//228 224//224 225//225
f 212//212 225//225 215//215
f 229//229 230//230 231//231
f 229//229 232//232 230//230
f 232//232 233//233 230//230
f 229//229 231//231 234//234
f 229//229 234//234 235//235
f 229//229 236//236 232//232
f 229//229 235//235 236//236
f 231//231 230//230 237//237
f 231//231 237//237 238//238
f 230//230 239//239 237//237
f 230//230 233//233 239//239
f 239//239 233//233 240//240
f 231//231 238//238 234//234
f 238//238 241//241 234//234
f 238//238 237//237 242//242
f 237//237 239//239 243//243
f 239//239 240//240 244//244
f 238//238 245//245 241//241
f 235//235 234//234 246//246
f 235//235 246//246 247//247
f 235//235 247//247 236//236
f 234//234 248//248 246//246
f 234//234 241//241 248//248
f 246//246 248//248 249//249
f 246//246 249//249 247//247
f 249//249 250//250 247//247
f 241//241 245//245 248//248
f 248//248 251//251 249//249
f 249//249 251//251 250//250
f 232//232 252//252 233//233
f 232//232 236//236 252//252
f 236//236 253//253 252//252
f 233//233 252//252 254//254
f 233//233 254//254 240//240
f 252//252 255//255 254//254
f 252//252 256//256 255//255
f 252//252 253//253 256//256
f 240//240 254//254 244//244
f 254//254 255//255 257//257
f 255//255 256//256 257//257
f 236//236 247//247 253//253
f 247//247 258//258 253//253
f 247//247 250//250 258//258
f 253//253 258//258 256//256
f 250//250 259//259 258//258
f 258//258 260//260 256//256
f 237//237 261//261 242//242
f 237//237 243//243 261//261
f 239//239 244//244 243//243
f 238//238 242//242 245//245
f 242//242 261//261 262//262
f 261//261 243//243 263//263
f 261//261 263//263 262//262
f 243//243 264//264 263//263
f 243//243 244//244 264//264
f 242//242 262//262 265//265
f 242//242 265//265 245//245
f 262//262 263//263 266//266
f 263//263 264//264 266//266
f 264//264 267//267 266//266
f 262//262 266//266 265//265
f 266//266 268//268 265//265
f 266//266 267//267 268//268
f 267//267 269//269 268//268
f 248//248 245//245 270//270
f 248//248 270//270 251//251
f 250//250 251//251 271//271
f 245//245 265//265 270//270
f 270//270 272//272 251//251
f 270//270 265//265 272//272
f 251//251 272//272 271//271
f 272//272 273//273 271//271
f 265//265 268//268 272//272
f 272//272 268//268 269//269
f 272//272 269//269 273//273
f 254//254 274//274 244//244
f 254//254 257//257 274//274
f 256//256 260//260 257//257
f 244//244 274//274 264//264
f 274//274 257//257 275//275
f 264//264 274//274 275//275
f 257//257 260//260 275//275
f 275//275 260//260 276//276
f 264//264 275//275 267//267
f 267//267 275//275 269//269
f 269//269 275//275 276//276
f 250//250 271//271 259//259
f 258//258 259//259 260//260
f 271//271 273//273 259//259
f 259//259 276//276 260//260
f 273//273 276//276 259//259
f 273//273 269//269 276//276
f 277//277 278//278 279//279
f 280//280 281//281 282//282
f 283//283 284//284 285//285
f 286//286 287//287 288//288
f 283//283 289//289 284//284
f 281//281 290//290 282//282
f 286//286 291//291 287//287
f 292//292 293//293 294//294
f 295//295 296//296 297//297
f 295//295 297//297 298//298
f 295//295 298//298 299//299
f 297//297 300//300 298//298
f 297//297 296//296 301//301
f 297//297 302//302 300//300
f 298//298 303//303 299//299
f 298//298 300//300 303//303
f 297//297 301//301 302//302
f 300//300 302//302 304//304
f 300//300 304//304 305//305
f 299//299 303//303 306//306
f 300//300 307//307 303//303
f 300//300 305//305 307//307
f 302//302 301//301 308//308
f 302//302 308//308 309//309
f 302//302 309//309 304//304
f 308//308 310//310 309//309
f 304//304 309//309 311//311
f 309//309 310//310 311//311
f 304//304 311//311 305//305
f 310//310 312//312 311//311
f 303//303 313//313 306//306
f 303//303 314//314 313//313
f 303//303 307//307 314//314
f 313//313 314//314 315//315
f 307//307 305//305 314//314
f 314//314 316//316 315//315
f 314//314 305//305 316//316
f 315//315 316//316 317//317
f 305//305 311//311 316//316
f 311//311 312//312 318//318
f 311//311 318//318 316//316
f 316//316 318//318 317//317
f 295//295 319//319 296//296
f 295//295 299//299 320//320
f 296//296 321//321 301//301
f 299//299 306//306 322//322
f 295//295 323//323 319//319
f 295//295 320//320 323//323
f 296//296 319//319 321//321
f 299//299 322//322 320//320
f 301//301 324//324 308//308
f 308//308 324//324 310//310
f 310//310 325//325 312//312
f 301//301 321//321 324//324
f 310//310 324//324 325//325
f 312//312 325//325 326//326
f 306//306 313//313 322//322
f 313//313 315//315 327//327
f 315//315 317//317 327//327
f 313//313 328//328 322//322
f 313//313 327//327 328//328
f 317//317 329//329 327//327
f 312//312 330//330 318//318
f 318//318 330//330 317//317
f 312//312 326//326 330//330
f 317//317 330//330 329//329
f 323//323 331//331 319//319
f 323//323 332//332 331//331
f 323//323 320//320 332//332
f 331//331 332//332 333//333
f 319//319 331//331 321//321
f 331//331 333//333 334//334
f 320//320 322//322 332//332
f 332//332 335//335 333//333
f 331//331 334//334 321//321
f 333//333 336//336 334//334
f 333//333 337//337 336//336
f 332//332 322//322 338//338
f 332//332 338//338 335//335
f 333//333 335//335 337//337
f 321//321 334//334 324//324
f 334//334 339//339 324//324
f 334//334 336//336 339//339
f 324//324 339//339 325//325
f 336//336 337//337 339//339
f 339//339 340//340 325//325
f 339//339 337//337 340//340
f 325//325 340//340 326//326
f 322//322 328//328 338//338
f 338//338 328//328 341//341
f 338//338 341//341 335//335
f 328//328 327//327 341//341
f 335//335 341//341 342//342
f 341//341 327//327 342//342
f 335//335 342//342 337//337
f 327//327 329//329 342//342
f 337//337 342//342 340//340
f 340//340 330//330 326//326
f 340//340 342//342 330//330
f 342//342 329//329 330//330
f 343//343 344//344 345//345
f 345//345 344//344 346//346
f 345//345 346//346 347//347
f 344//344 348//348 346//346
f 343//343 349//349 344//344
f 344//344 350//350 348//348
f 343//343 351//351 349//349
f 344//344 349//349 350//350
f 351//351 352//352 349//349
f 349//349 353//353 350//350
f 349//349 352//352 353//353
f 352//352 354//354 353//353
f 346//346 355//355 347//347
f 346//346 348//348 355//355
f 348//348 350//350 356//356
f 347//347 355//355 357//357
f 348//348 356//356 355//355
f 355//355 358//358 357//357
f 355//355 356//356 359//359
f 355//355 359//359 358//358
f 358//358 359//359 360//360
f 356//356 361//361 359//359
f 359//359 362//362 360//360
f 350//350 361//361 356//356
f 359//359 361//361 363//363
f 359//359 363//363 362//362
f 350//350 353//353 364//364
f 353//353 354//354 364//364
f 350//350 364//364 361//361
f 354//354 365//365 364//364
f 361//361 364//364 363//363
f 364//364 365//365 366//366
f 364//364 366//366 363//363
f 363//363 366//366 362//362
f 343//343 345//345 367//367
f 345//345 347//347 368//368
f 343//343 369//369 351//351
f 343//343 367//367 369//369
f 345//345 370//370 367//367
f 345//345 368//368 370//370
f 351//351 371//371 352//352
f 352//352 371//371 354//354
f 351//351 369//369 371//371
f 354//354 371//371 372//372
f 347//347 357//357 373//373
f 357//357 358//358 373//373
f 358//358 360//360 374//374
f 360//360 362//362 374//374
f 347//347 373//373 368//368
f 358//358 375//375 373//373
f 358//358 374//374 375//375
f 362//362 376//376 374//374
f 354//354 372//372 365//365
f 365//365 377//377 366//366
f 362//362 366//366 377//377
f 365//365 372//372 378//378
f 365//365 378//378 377//377
f 362//362 377//377 376//376
f 367//367 379//379 369//369
f 367//367 370//370 379//379
f 370//370 380//380 379//379
f 370//370 368//368 380//380
f 379//379 380//380 381//381
f 379//379 381//381 382//382
f 379//379 382//382 369//369
f 381//381 383//383 382//382
f 369//369 382//382 371//371
f 382//382 383//383 384//384
f 382//382 384//384 371//371
f 371//371 384//384 372//372
f 368//368 373//373 380//380
f 380//380 385//385 381//381
f 381//381 386//386 383//383
f 380//380 373//373 387//387
f 380//380 387//387 385//385
f 381//381 385//385 386//386
f 373//373 375//375 387//387
f 387//387 388//388 385//385
f 387//387 375//375 388//388
f 375//375 374//374 388//388
f 385//385 388//388 386//386
f 388//388 374//374 389//389
f 388//388 389//389 386//386
f 374//374 376//376 389//389
f 383//383 386//386 384//384
f 384//384 390//390 372//372
f 384//384 386//386 390//390
f 372//372 390//390 378//378
f 386//386 389//389 390//390
f 390//390 377//377 378//378
f 390//390 389//389 377//377
f 389//389 376//376 377//377
f 391//391 392//392 393//393
f 391//391 393//393 394//394
f 392//392 395//395 393//393
f 394//394 393//393 396//396
f 396//396 393//393 397//397
f 396//396 397//397 398//398
f 399//399 400//400 401//401
f 401//401 402//402 403//403
f 403//403 404//404 405//405
f 406//406 407//407 408//408
f 398//398 397//397 409//409
f 398//398 409//409 410//410
f 411//411 410//410 412//412
f 412//412 410//410 409//409
f 407//407 413//413 408//408
f 408//408 413//413 414//414
f 413//413 411//411 414//414
f 414//414 411//411 412//412
f 405//405 415//415 416//416
f 417//417 418//418 419//419
f 418//418 420//420 419//419
f 420//420 416//416 421//421
f 401//401 400//400 422//422
f 401//401 422//422 402//402
f 403//403 402//402 404//404
f 423//423 424//424 425//425
f 423//423 426//426 427//427
f 423//423 427//427 424//424
f 426//426 428//428 427//427
f 428//428 429//429 427//427
f 427//427 429//429 430//430
f 405//405 404//404 415//415
f 416//416 415//415 421//421
f 417//417 419//419 431//431
f 420//420 421//421 419//419
f 432//432 433//433 434//434
f 429//429 435//435 430//430
f 430//430 435//435 436//436
f 437//437 436//436 435//435
f 437//437 438//438 436//436
f 434//434 439//439 440//440
f 434//434 433//433 439//439
f 440//440 439//439 438//438
f 440//440 438//438 437//437
f 441//441 442//442 443//443
f 442//442 444//444 445//445
f 444//444 446//446 447//447
f 448//448 449//449 450//450
f 450//450 451//451 452//452
f 452//452 453//453 454//454
f 446//446 455//455 456//456
f 454//454 457//457 455//455
f 441//441 443//443 458//458
f 442//442 445//445 443//443
f 444//444 447//447 445//445
f 446//446 456//456 447//447
f 450//450 449//449 451//451
f 452//452 451//451 453//453
f 454//454 453//453 457//457
f 455//455 457//457 456//456
f 459//459 460//460 461//461
f 459//459 462//462 460//460
f 463//463 464//464 465//465
f 464//464 466//466 465//465
