v -0.02815 -0.35375 -0.50000
v -0.01876 -0.35626 -0.48124
v -0.02815 -0.33750 -0.48375
v -0.01625 -0.36565 -0.50000
v -0.01876 -0.35626 -0.51876
v 0.00000 -0.36565 -0.51625
v 0.00000 -0.36565 -0.48375
v 0.00000 -0.35375 -0.47185
v -0.01625 -0.33750 -0.47185
v 0.00000 -0.37000 -0.50000
v -0.03250 -0.33750 -0.50000
v -0.02815 -0.32125 -0.50000
v -0.01876 -0.31874 -0.48124
v 0.00000 -0.32125 -0.47185
v 0.00000 -0.33750 -0.46750
v -0.03250 0.23750 -1.07500
v 0.00000 0.22125 -1.10315
v -0.01876 0.21874 -1.09376
v -0.02815 0.25375 -1.07500
v -0.01876 0.25626 -1.05624
v -0.02815 0.23750 -1.09125
v 0.00000 0.26565 -1.05875
v -0.01876 0.25626 -1.09376
v -0.01625 0.23750 -1.10315
v 0.00000 0.23750 -1.10750
v 0.00000 0.25375 -1.10315
v -0.01625 0.26565 -1.07500
v 0.00000 0.26565 -1.09125
v 0.00000 0.27000 -1.07500
v 0.01625 -0.36565 -0.50000
v 0.01876 -0.35626 -0.48124
v 0.01876 -0.35626 -0.51876
v 0.02815 -0.35375 -0.50000
v 0.01625 -0.33750 -0.47185
v 0.02815 -0.33750 -0.48375
v 0.01876 -0.31874 -0.48124
v 0.03250 -0.33750 -0.50000
v 0.02815 0.22125 -1.07500
v 0.02815 0.25375 -1.07500
v 0.01876 0.21874 -1.09376
v 0.03250 0.23750 -1.07500
v 0.01876 0.25626 -1.05624
v 0.01625 0.23750 -1.10315
v 0.02815 0.23750 -1.09125
v 0.01625 0.26565 -1.07500
v 0.01876 0.25626 -1.09376
v -0.01625 0.15935 -0.20000
v 0.00000 0.15500 -0.20000
v 0.00000 0.15935 -0.18375
v -0.01876 0.16874 -0.18124
v -0.02815 0.17125 -0.20000
v -0.02815 0.18750 -0.18375
v -0.03250 0.18750 -0.20000
v -0.02815 0.20375 -0.20000
v -0.01876 0.20626 -0.18124
v 0.00000 0.17125 -0.17185
v -0.01625 0.18750 -0.17185
v 0.00000 0.18750 -0.16750
v -0.01625 0.21565 -0.20000
v 0.00000 0.20375 -0.17185
v 0.00000 0.21565 -0.18375
v -0.03250 0.38750 -1.05000
v -0.02815 0.37125 -1.05000
v -0.01625 0.35935 -1.05000
v 0.00000 0.35500 -1.05000
v -0.01876 0.36874 -1.06876
v 0.00000 0.35935 -1.06625
v 0.00000 0.37125 -1.07815
v -0.02815 0.38750 -1.06625
v -0.02815 0.40375 -1.05000
v -0.01876 0.40626 -1.06876
v -0.01625 0.38750 -1.07815
v 0.00000 0.38750 -1.08250
v 0.00000 0.40375 -1.07815
v -0.01625 0.41565 -1.05000
v 0.00000 0.41565 -1.06625
v 0.00000 0.42000 -1.05000
v 0.00000 0.22000 -0.20000
v 0.01625 0.15935 -0.20000
v 0.01876 0.16874 -0.18124
v 0.02815 0.17125 -0.20000
v 0.01625 0.18750 -0.17185
v 0.02815 0.18750 -0.18375
v 0.01876 0.20626 -0.18124
v 0.02815 0.20375 -0.20000
v 0.01625 0.21565 -0.20000
v 0.03250 0.18750 -0.20000
v 0.01625 0.35935 -1.05000
v 0.02815 0.37125 -1.05000
v 0.03250 0.38750 -1.05000
v 0.01876 0.36874 -1.06876
v 0.01625 0.38750 -1.07815
v 0.02815 0.38750 -1.06625
v 0.01876 0.40626 -1.06876
v 0.01625 0.41565 -1.05000
v 0.02815 0.40375 -1.05000
v -0.02500 -0.30580 -0.40000
v -0.04330 -0.28750 -0.40000
v -0.02904 -0.29132 -0.42852
v -0.02883 -0.29151 -0.42858
v -0.02763 -0.29199 -0.42870
v 0.00000 -0.30580 -0.42500
v 0.00000 -0.31250 -0.40000
v -0.00420 -0.29875 -0.43051
v 0.00000 -0.29952 -0.43128
v -0.02887 -0.29137 -0.37113
v 0.00000 -0.30580 -0.37500
v 0.00000 -0.28750 -0.35670
v -0.05000 -0.26250 -0.40000
v -0.04330 -0.26250 -0.37500
v -0.05000 -0.21150 -0.38470
v -0.04330 -0.21150 -0.40970
v -0.03186 -0.28539 -0.42807
v -0.03118 -0.28750 -0.42750
v -0.04330 -0.26250 -0.42500
v -0.03275 -0.27625 -0.43051
v -0.02753 -0.26801 -0.43875
v -0.02500 -0.26250 -0.44330
v -0.02071 -0.26679 -0.44330
v -0.02566 -0.26746 -0.44082
v -0.02500 -0.21150 -0.42800
v 0.00000 -0.26250 -0.45000
v 0.00000 -0.26519 -0.44928
v 0.00000 -0.23750 -0.44330
v -0.02500 -0.26250 -0.35670
v -0.04330 -0.21150 -0.35970
v -0.02500 -0.21150 -0.34140
v 0.00000 -0.21150 -0.43550
v 0.00000 -0.21150 -0.33390
v -0.05000 -0.19350 -0.37930
v -0.04330 -0.19350 -0.35430
v -0.05000 -0.12400 -0.35845
v -0.04330 -0.12400 -0.38345
v -0.04330 -0.19350 -0.40430
v -0.02500 -0.12400 -0.40175
v -0.02500 -0.19350 -0.42260
v 0.00000 -0.12400 -0.40925
v 0.00000 -0.19350 -0.43010
v -0.04330 -0.12400 -0.33345
v -0.02500 -0.19350 -0.33600
v -0.02500 -0.12400 -0.31515
v 0.00000 -0.19350 -0.32850
v 0.00000 -0.12400 -0.30765
v -0.05000 -0.03650 -0.33220
v -0.05000 -0.10600 -0.35305
v -0.04330 -0.10600 -0.32805
v -0.04330 -0.03650 -0.35720
v -0.05000 -0.01250 -0.32500
v -0.04330 -0.01250 -0.35000
v -0.05000 -0.01850 -0.32680
v -0.04330 -0.01850 -0.30180
v -0.04330 -0.10600 -0.37805
v -0.02500 -0.03650 -0.37550
v -0.02500 -0.10600 -0.39635
v -0.04330 -0.03650 -0.30720
v -0.02500 -0.10600 -0.30975
v -0.02960 -0.03650 -0.29350
v -0.02712 -0.03533 -0.29067
v -0.02680 -0.03250 -0.28950
v -0.02500 -0.01250 -0.28170
v 0.00000 -0.03650 -0.38300
v 0.00000 -0.10600 -0.40385
v -0.01250 -0.10600 -0.30600
v 0.00000 -0.03750 -0.28170
v -0.00190 -0.10717 -0.30317
v 0.00000 -0.10797 -0.30284
v -0.04330 -0.01850 -0.35180
v -0.02500 -0.01250 -0.36830
v -0.02500 -0.01850 -0.37010
v -0.04330 -0.01250 -0.30000
v -0.03500 -0.01850 -0.29350
v -0.03182 -0.01967 -0.29067
v -0.02980 -0.02250 -0.28950
v -0.04330 0.01250 -0.32500
v -0.02887 0.01637 -0.35387
v -0.02887 0.01637 -0.29613
v 0.00000 -0.01250 -0.27500
v 0.00000 0.01250 -0.36830
v 0.00000 -0.01850 -0.37760
v 0.00000 0.01250 -0.28170
v -0.02500 0.03080 -0.32500
v 0.00000 0.03080 -0.35000
v 0.00000 0.03750 -0.32500
v 0.00000 0.03080 -0.30000
v 0.02500 -0.30580 -0.40000
v 0.00420 -0.29875 -0.43051
v 0.02763 -0.29199 -0.42870
v 0.02883 -0.29151 -0.42858
v 0.02904 -0.29132 -0.42852
v 0.04330 -0.28750 -0.40000
v 0.02887 -0.29137 -0.37113
v 0.02071 -0.26679 -0.44330
v 0.02500 -0.26250 -0.44330
v 0.03118 -0.28750 -0.42750
v 0.04330 -0.26250 -0.42500
v 0.03275 -0.27625 -0.43051
v 0.02753 -0.26801 -0.43875
v 0.03186 -0.28539 -0.42807
v 0.05000 -0.26250 -0.40000
v 0.02566 -0.26746 -0.44082
v 0.02500 -0.21150 -0.42800
v 0.02500 -0.26250 -0.35670
v 0.04330 -0.26250 -0.37500
v 0.02500 -0.21150 -0.34140
v 0.04330 -0.21150 -0.35970
v 0.04330 -0.21150 -0.40970
v 0.05000 -0.21150 -0.38470
v 0.02500 -0.19350 -0.42260
v 0.02500 -0.12400 -0.40175
v 0.04330 -0.12400 -0.38345
v 0.04330 -0.19350 -0.40430
v 0.02500 -0.19350 -0.33600
v 0.02500 -0.12400 -0.31515
v 0.04330 -0.19350 -0.35430
v 0.04330 -0.12400 -0.33345
v 0.05000 -0.19350 -0.37930
v 0.05000 -0.12400 -0.35845
v 0.02500 -0.10600 -0.39635
v 0.02500 -0.03650 -0.37550
v 0.00190 -0.10717 -0.30317
v 0.01250 -0.10600 -0.30600
v 0.02500 -0.10600 -0.30975
v 0.02500 -0.01250 -0.28170
v 0.04330 -0.03650 -0.35720
v 0.04330 -0.10600 -0.37805
v 0.04330 -0.03650 -0.30720
v 0.04330 -0.10600 -0.32805
v 0.05000 -0.10600 -0.35305
v 0.05000 -0.03650 -0.33220
v 0.02960 -0.03650 -0.29350
v 0.02712 -0.03533 -0.29067
v 0.02680 -0.03250 -0.28950
v 0.02500 -0.01250 -0.36830
v 0.02500 -0.01850 -0.37010
v 0.02887 0.01637 -0.35387
v 0.02887 0.01637 -0.29613
v 0.04330 -0.01850 -0.35180
v 0.04330 -0.01250 -0.35000
v 0.05000 -0.01250 -0.32500
v 0.02980 -0.02250 -0.28950
v 0.03182 -0.01967 -0.29067
v 0.03500 -0.01850 -0.29350
v 0.04330 -0.01250 -0.30000
v 0.04330 -0.01850 -0.30180
v 0.05000 -0.01850 -0.32680
v 0.04330 0.01250 -0.32500
v 0.02500 0.03080 -0.32500
v -0.15933 -0.21033 -0.48150
v -0.15650 -0.21033 -0.48433
v -0.15650 -0.21150 -0.48150
v -0.16050 -0.20750 -0.48150
v -0.16050 -0.19750 -0.48150
v -0.15933 -0.20750 -0.48433
v -0.15650 -0.20750 -0.48550
v -0.15933 -0.19750 -0.48433
v -0.15650 -0.19750 -0.48550
v -0.15933 -0.19467 -0.48150
v -0.15650 -0.19467 -0.48433
v -0.15650 -0.19350 -0.48150
v -0.15933 -0.21033 -0.31850
v -0.16050 -0.20750 -0.31850
v -0.15933 -0.19467 -0.31850
v -0.15650 -0.21150 -0.31850
v -0.16050 -0.19750 -0.31850
v -0.15650 -0.19350 -0.31850
v -0.15650 -0.21033 -0.31567
v -0.15933 -0.20750 -0.31567
v -0.15650 -0.20750 -0.31450
v -0.15933 -0.19750 -0.31567
v -0.15650 -0.19750 -0.31450
v -0.15650 -0.19467 -0.31567
v -0.05000 -0.21150 -0.38470
v -0.05000 -0.19350 -0.37930
v -0.04330 -0.21150 -0.40970
v -0.04330 -0.19350 -0.40430
v -0.02500 -0.21150 -0.42800
v -0.02500 -0.19350 -0.42260
v 0.15650 -0.21150 -0.48150
v 0.15650 -0.20750 -0.48550
v 0.15650 -0.19750 -0.48550
v 0.15650 -0.19350 -0.48150
v 0.00000 -0.21150 -0.43550
v 0.00000 -0.19350 -0.43010
v -0.04330 -0.21150 -0.35970
v -0.04330 -0.19350 -0.35430
v -0.02500 -0.21150 -0.34140
v -0.02500 -0.19350 -0.33600
v 0.00000 -0.21150 -0.33390
v 0.00000 -0.19350 -0.32850
v 0.15650 -0.21150 -0.31850
v 0.15650 -0.20750 -0.31450
v 0.15650 -0.19750 -0.31450
v 0.15650 -0.19350 -0.31850
v 0.02500 -0.19350 -0.42260
v 0.15650 -0.21033 -0.48433
v 0.15650 -0.19467 -0.48433
v 0.02500 -0.21150 -0.42800
v 0.04330 -0.21150 -0.40970
v 0.04330 -0.19350 -0.40430
v 0.05000 -0.21150 -0.38470
v 0.15650 -0.21033 -0.31567
v 0.15650 -0.19467 -0.31567
v 0.02500 -0.21150 -0.34140
v 0.02500 -0.19350 -0.33600
v 0.04330 -0.21150 -0.35970
v 0.04330 -0.19350 -0.35430
v 0.05000 -0.19350 -0.37930
v 0.15933 -0.21033 -0.48150
v 0.15933 -0.20750 -0.48433
v 0.16050 -0.20750 -0.48150
v 0.15933 -0.19750 -0.48433
v 0.16050 -0.19750 -0.48150
v 0.15933 -0.19467 -0.48150
v 0.15933 -0.21033 -0.31850
v 0.16050 -0.20750 -0.31850
v 0.16050 -0.19750 -0.31850
v 0.15933 -0.19467 -0.31850
v 0.15933 -0.20750 -0.31567
v 0.15933 -0.19750 -0.31567
v -0.15650 -0.12400 -0.46900
v -0.15933 -0.12283 -0.46900
v -0.15650 -0.12283 -0.47183
v -0.15933 -0.12000 -0.47183
v -0.16050 -0.12000 -0.46900
v -0.16050 -0.11000 -0.46900
v -0.15650 -0.12000 -0.47300
v -0.15933 -0.11000 -0.47183
v -0.15933 -0.12283 -0.30600
v -0.15650 -0.11000 -0.47300
v -0.15933 -0.10717 -0.46900
v -0.15650 -0.10717 -0.47183
v -0.15650 -0.10600 -0.46900
v -0.16050 -0.11000 -0.30600
v -0.15933 -0.10717 -0.30600
v -0.15650 -0.10600 -0.30600
v -0.15650 -0.12400 -0.30600
v -0.16050 -0.12000 -0.30600
v -0.15650 -0.12283 -0.30317
v -0.15933 -0.12000 -0.30317
v -0.15650 -0.12000 -0.30200
v -0.15933 -0.11000 -0.30317
v -0.15650 -0.11000 -0.30200
v -0.15650 -0.10717 -0.30317
v -0.04330 -0.12400 -0.38345
v -0.05000 -0.10600 -0.35305
v -0.01250 -0.10600 -0.30600
v -0.02500 -0.12400 -0.40175
v -0.04330 -0.10600 -0.37805
v -0.02500 -0.10600 -0.39635
v 0.15650 -0.12000 -0.47300
v 0.15650 -0.12400 -0.46900
v 0.15650 -0.11000 -0.47300
v 0.00000 -0.10600 -0.40385
v 0.15650 -0.10600 -0.46900
v -0.05000 -0.12400 -0.35845
v -0.04330 -0.12400 -0.33345
v -0.02500 -0.12400 -0.31515
v -0.04330 -0.10600 -0.32805
v -0.02500 -0.10600 -0.30975
v 0.00000 -0.12400 -0.30765
v 0.15650 -0.12400 -0.30600
v 0.15650 -0.12000 -0.30200
v -0.00190 -0.10717 -0.30317
v 0.00000 -0.10797 -0.30284
v -0.00190 -0.10717 -0.30317
v 0.15650 -0.11000 -0.30200
v 0.00000 -0.12400 -0.40925
v 0.15650 -0.12283 -0.47183
v 0.02500 -0.12400 -0.40175
v 0.15650 -0.10717 -0.47183
v 0.02500 -0.10600 -0.39635
v 0.04330 -0.12400 -0.38345
v 0.05000 -0.12400 -0.35845
v 0.04330 -0.10600 -0.37805
v 0.15650 -0.12283 -0.30317
v 0.02500 -0.12400 -0.31515
v 0.00190 -0.10717 -0.30317
v 0.15650 -0.10717 -0.30317
v 0.01250 -0.10600 -0.30600
v 0.00190 -0.10717 -0.30317
v 0.15650 -0.10600 -0.30600
v 0.02500 -0.10600 -0.30975
v 0.04330 -0.12400 -0.33345
v 0.05000 -0.10600 -0.35305
v 0.04330 -0.10600 -0.32805
v 0.15933 -0.12283 -0.46900
v 0.15933 -0.12000 -0.47183
v 0.16050 -0.12000 -0.46900
v 0.15933 -0.11000 -0.47183
v 0.15933 -0.12283 -0.30600
v 0.16050 -0.11000 -0.46900
v 0.16050 -0.12000 -0.30600
v 0.15933 -0.10717 -0.46900
v 0.16050 -0.11000 -0.30600
v 0.15933 -0.12000 -0.30317
v 0.15933 -0.10717 -0.30600
v 0.15933 -0.11000 -0.30317
v -0.15933 -0.03533 -0.45650
v -0.15650 -0.03533 -0.45933
v -0.15650 -0.03650 -0.45650
v -0.16050 -0.03250 -0.45650
v -0.15933 -0.03250 -0.45933
v -0.15650 -0.03250 -0.46050
v -0.16050 -0.02250 -0.45650
v -0.15933 -0.02250 -0.45933
v -0.15650 -0.02250 -0.46050
v -0.15933 -0.03533 -0.29350
v -0.16050 -0.03250 -0.29350
v -0.15933 -0.01967 -0.45650
v -0.15650 -0.01967 -0.45933
v -0.15650 -0.01850 -0.45650
v -0.15933 -0.01967 -0.29350
v -0.15650 -0.03650 -0.29350
v -0.16050 -0.02250 -0.29350
v -0.15650 -0.01850 -0.29350
v -0.15650 -0.03533 -0.29067
v -0.15933 -0.03250 -0.29067
v -0.15650 -0.03250 -0.28950
v -0.15933 -0.02250 -0.29067
v -0.15650 -0.02250 -0.28950
v -0.15650 -0.01967 -0.29067
v -0.05000 -0.03650 -0.33220
v -0.04330 -0.01850 -0.35180
v -0.02960 -0.03650 -0.29350
v -0.02712 -0.03533 -0.29067
v -0.02680 -0.03250 -0.28950
v -0.03182 -0.01967 -0.29067
v -0.03500 -0.01850 -0.29350
v 0.00000 -0.03650 -0.38300
v -0.02500 -0.03650 -0.37550
v 0.15650 -0.03533 -0.45933
v 0.15650 -0.02250 -0.46050
v 0.15650 -0.01850 -0.45650
v -0.04330 -0.03650 -0.35720
v -0.02500 -0.01850 -0.37010
v -0.04330 -0.03650 -0.30720
v -0.05000 -0.01850 -0.32680
v -0.04330 -0.01850 -0.30180
v -0.02712 -0.03533 -0.29067
v -0.02980 -0.02250 -0.28950
v -0.03182 -0.01967 -0.29067
v 0.00000 -0.01850 -0.37760
v 0.15650 -0.03650 -0.45650
v 0.15650 -0.03250 -0.46050
v 0.15650 -0.01967 -0.45933
v 0.02500 -0.03650 -0.37550
v 0.02500 -0.01850 -0.37010
v 0.04330 -0.03650 -0.35720
v 0.04330 -0.01850 -0.35180
v 0.05000 -0.03650 -0.33220
v 0.05000 -0.01850 -0.32680
v 0.15650 -0.03650 -0.29350
v 0.02960 -0.03650 -0.29350
v 0.04330 -0.03650 -0.30720
v 0.02712 -0.03533 -0.29067
v 0.15650 -0.03250 -0.28950
v 0.02680 -0.03250 -0.28950
v 0.02712 -0.03533 -0.29067
v 0.02980 -0.02250 -0.28950
v 0.15650 -0.01850 -0.29350
v 0.04330 -0.01850 -0.30180
v 0.03500 -0.01850 -0.29350
v 0.15650 -0.02250 -0.28950
v 0.03182 -0.01967 -0.29067
v 0.15650 -0.01967 -0.29067
v 0.03182 -0.01967 -0.29067
v 0.15650 -0.03533 -0.29067
v 0.15933 -0.03533 -0.45650
v 0.15933 -0.03250 -0.45933
v 0.16050 -0.03250 -0.45650
v 0.15933 -0.02250 -0.45933
v 0.16050 -0.02250 -0.45650
v 0.15933 -0.03533 -0.29350
v 0.16050 -0.03250 -0.29350
v 0.15933 -0.01967 -0.45650
v 0.16050 -0.02250 -0.29350
v 0.15933 -0.01967 -0.29350
v 0.15933 -0.03250 -0.29067
v 0.15933 -0.02250 -0.29067
v -0.15933 0.05217 -0.44400
v -0.15650 0.05217 -0.44683
v -0.15650 0.05100 -0.44400
v -0.15933 0.05500 -0.44683
v -0.15650 0.05500 -0.44800
v -0.16050 0.05500 -0.44400
v -0.16050 0.06500 -0.44400
v -0.15933 0.06500 -0.44683
v -0.15650 0.06500 -0.44800
v -0.15933 0.05217 -0.28100
v -0.16050 0.06500 -0.28100
v -0.16050 0.05500 -0.28100
v -0.15650 0.05100 -0.28100
v -0.15650 0.05217 -0.27817
v -0.15933 0.05500 -0.27817
v -0.15650 0.05500 -0.27700
v -0.15933 0.06500 -0.27817
v -0.15650 0.06500 -0.27700
v -0.15650 0.06783 -0.44683
v -0.15933 0.06783 -0.44400
v -0.15650 0.06900 -0.44400
v -0.15650 0.06900 -0.28100
v -0.15933 0.06783 -0.28100
v -0.15650 0.06783 -0.27817
v 0.15650 0.05100 -0.44400
v 0.15650 0.05500 -0.44800
v 0.15650 0.06500 -0.44800
v 0.15650 0.05100 -0.28100
v 0.15650 0.05500 -0.27700
v 0.15650 0.06900 -0.44400
v 0.15650 0.06900 -0.28100
v 0.15650 0.06500 -0.27700
v 0.15650 0.05217 -0.44683
v 0.15650 0.05217 -0.27817
v 0.15650 0.06783 -0.44683
v 0.15650 0.06783 -0.27817
v 0.15933 0.05217 -0.44400
v 0.15933 0.05500 -0.44683
v 0.16050 0.05500 -0.44400
v 0.15933 0.06500 -0.44683
v 0.16050 0.06500 -0.44400
v 0.15933 0.05217 -0.28100
v 0.16050 0.05500 -0.28100
v 0.16050 0.06500 -0.28100
v 0.15933 0.05500 -0.27817
v 0.15933 0.06500 -0.27817
v 0.15933 0.06783 -0.44400
v 0.15933 0.06783 -0.28100
v -0.36299 -0.30049 -0.46299
v -0.36949 -0.29875 -0.45000
v -0.36949 -0.28750 -0.46125
v -0.36299 -0.30049 -0.43701
v -0.36949 -0.28750 -0.43875
v -0.36125 -0.30699 -0.45000
v -0.35000 -0.30699 -0.46125
v -0.35000 -0.31000 -0.45000
v -0.35000 -0.30699 -0.43875
v -0.36125 -0.28750 -0.46949
v -0.35000 -0.29875 -0.46949
v -0.35000 -0.29875 -0.43051
v -0.36125 -0.28750 -0.43051
v -0.37250 -0.28750 -0.45000
v -0.36949 -0.27625 -0.45000
v -0.36299 -0.27451 -0.46299
v -0.36299 -0.27451 -0.43701
v -0.36125 -0.26801 -0.45000
v -0.35000 -0.28750 -0.47250
v -0.35000 -0.27625 -0.46949
v -0.35000 -0.28750 -0.42750
v -0.35000 -0.27625 -0.43051
v -0.35000 -0.26801 -0.46125
v -0.35000 -0.26801 -0.43875
v -0.35000 -0.26500 -0.45000
v -0.03118 -0.28750 -0.42750
v -0.03275 -0.27625 -0.43051
v -0.02753 -0.26801 -0.43875
v -0.02763 -0.29199 -0.42870
v -0.02883 -0.29151 -0.42858
v -0.02904 -0.29132 -0.42852
v 0.35000 -0.30699 -0.46125
v 0.35000 -0.30699 -0.43875
v 0.35000 -0.29875 -0.46949
v -0.00420 -0.29875 -0.43051
v 0.00000 -0.29952 -0.43128
v -0.03186 -0.28539 -0.42807
v 0.35000 -0.27625 -0.46949
v -0.02566 -0.26746 -0.44082
v -0.02071 -0.26679 -0.44330
v 0.00000 -0.26519 -0.44928
v 0.35000 -0.26801 -0.46125
v 0.35000 -0.26500 -0.45000
v 0.35000 -0.31000 -0.45000
v 0.00420 -0.29875 -0.43051
v 0.35000 -0.29875 -0.43051
v 0.02763 -0.29199 -0.42870
v 0.35000 -0.28750 -0.47250
v 0.35000 -0.28750 -0.42750
v 0.02883 -0.29151 -0.42858
v 0.02904 -0.29132 -0.42852
v 0.03118 -0.28750 -0.42750
v 0.03186 -0.28539 -0.42807
v 0.03275 -0.27625 -0.43051
v 0.35000 -0.26801 -0.43875
v 0.02566 -0.26746 -0.44082
v 0.02753 -0.26801 -0.43875
v 0.35000 -0.27625 -0.43051
v 0.02071 -0.26679 -0.44330
v 0.36125 -0.30699 -0.45000
v 0.36299 -0.30049 -0.46299
v 0.36299 -0.30049 -0.43701
v 0.36125 -0.28750 -0.46949
v 0.36125 -0.28750 -0.43051
v 0.36949 -0.29875 -0.45000
v 0.36949 -0.28750 -0.46125
v 0.36949 -0.28750 -0.43875
v 0.36299 -0.27451 -0.46299
v 0.36125 -0.26801 -0.45000
v 0.36299 -0.27451 -0.43701
v 0.37250 -0.28750 -0.45000
v 0.36949 -0.27625 -0.45000
v -0.12066 0.27834 0.71000
v -0.11500 0.27834 0.70434
v -0.11500 0.27600 0.71000
v -0.11500 0.27600 0.74000
v -0.12300 0.28400 0.71000
v -0.12066 0.28400 0.70434
v -0.11500 0.28400 0.70200
v -0.12300 0.28400 0.74000
v -0.12300 0.34100 0.71000
v -0.11500 0.34100 0.70200
v -0.12066 0.27834 0.74000
v -0.11500 0.27834 0.74566
v -0.12066 0.28400 0.74566
v -0.11500 0.28400 0.74800
v -0.12300 0.34100 0.74000
v -0.11500 0.34100 0.74800
v -0.12066 0.34100 0.70434
v -0.12066 0.34666 0.71000
v -0.11500 0.34666 0.70434
v -0.11500 0.34900 0.71000
v -0.11500 0.34900 0.74000
v -0.12066 0.34100 0.74566
v -0.12066 0.34666 0.74000
v -0.11500 0.34666 0.74566
v 0.11500 0.27834 0.70434
v 0.11500 0.28400 0.70200
v 0.11500 0.27600 0.74000
v 0.11500 0.28400 0.74800
v 0.11500 0.34666 0.70434
v 0.11500 0.34900 0.71000
v 0.11500 0.34666 0.74566
v 0.11500 0.27600 0.71000
v 0.11500 0.27834 0.74566
v 0.11500 0.34100 0.70200
v 0.11500 0.34100 0.74800
v 0.11500 0.34900 0.74000
v 0.12066 0.27834 0.71000
v 0.12066 0.28400 0.70434
v 0.12300 0.28400 0.71000
v 0.12066 0.27834 0.74000
v 0.12300 0.34100 0.71000
v 0.12300 0.28400 0.74000
v 0.12066 0.28400 0.74566
v 0.12300 0.34100 0.74000
v 0.12066 0.34100 0.74566
v 0.12066 0.34100 0.70434
v 0.12066 0.34666 0.71000
v 0.12066 0.34666 0.74000
v 0.17185 -0.37875 -0.12500
v 0.18124 -0.38126 -0.14376
v 0.18375 -0.39065 -0.12500
v 0.17185 -0.36250 -0.14125
v 0.16750 -0.36250 -0.12500
v 0.17185 -0.34625 -0.12500
v 0.18375 -0.36250 -0.15315
v 0.18124 -0.34374 -0.14376
v 0.18375 -0.33435 -0.12500
v 0.20000 -0.39065 -0.14125
v 0.20000 -0.39500 -0.12500
v 0.20000 -0.37875 -0.15315
v 0.21625 -0.39065 -0.12500
v 0.21876 -0.38126 -0.14376
v 0.20000 -0.36250 -0.15750
v 0.20000 -0.34625 -0.15315
v 0.21625 -0.36250 -0.15315
v 0.22815 -0.37875 -0.12500
v 0.22815 -0.36250 -0.14125
v 0.21876 -0.34374 -0.14376
v 0.23250 -0.36250 -0.12500
v 0.22815 -0.34625 -0.12500
v 0.20000 -0.33435 -0.14125
v 0.20000 -0.33000 -0.12500
v 0.21625 -0.33435 -0.12500
v 0.17185 -0.33301 0.95000
v 0.16750 -0.31676 0.95000
v 0.18375 -0.28861 0.95000
v 0.18375 -0.34490 0.95000
v 0.17185 -0.30051 0.95000
v 0.20000 -0.34926 0.95000
v 0.21625 -0.34490 0.95000
v 0.22815 -0.33301 0.95000
v 0.23250 -0.31676 0.95000
v 0.22815 -0.30051 0.95000
v 0.21625 -0.28861 0.95000
v 0.20000 -0.28426 0.95000
v 0.16536 -0.33250 0.95000
v 0.17185 -0.33301 0.95000
v 0.18000 -0.34714 0.95000
v 0.16750 -0.31676 0.95000
v 0.18375 -0.34490 0.95000
v 0.16000 -0.31250 0.95000
v 0.16536 -0.29250 0.95000
v 0.17185 -0.30051 0.95000
v 0.18375 -0.28861 0.95000
v 0.16000 -0.31250 0.95000
v 0.16536 -0.33250 0.95000
v 0.16000 -0.31250 1.15000
v 0.16536 -0.29250 1.15000
v 0.18000 -0.34714 0.95000
v 0.16536 -0.33250 1.15000
v 0.18000 -0.34714 1.15000
v 0.16536 -0.33250 1.15000
v 0.18000 -0.34714 1.15000
v 0.18000 -0.27786 1.15000
v 0.16536 -0.29250 0.95000
v 0.16000 -0.31250 1.15000
v 0.16536 -0.29250 1.15000
v 0.18000 -0.27786 0.95000
v 0.18000 -0.27786 1.15000
v 0.18000 -0.27786 0.95000
v 0.20000 -0.35250 0.95000
v 0.20000 -0.34926 0.95000
v 0.21625 -0.34490 0.95000
v 0.22000 -0.34714 0.95000
v 0.20000 -0.35250 0.95000
v 0.22000 -0.34714 0.95000
v 0.20000 -0.35250 1.15000
v 0.22000 -0.34714 1.15000
v 0.23464 -0.33250 0.95000
v 0.22815 -0.33301 0.95000
v 0.23250 -0.31676 0.95000
v 0.23464 -0.29250 0.95000
v 0.22815 -0.30051 0.95000
v 0.20000 -0.35250 1.15000
v 0.20000 -0.27250 1.15000
v 0.22000 -0.27786 1.15000
v 0.23464 -0.33250 0.95000
v 0.22000 -0.34714 1.15000
v 0.23464 -0.33250 1.15000
v 0.23464 -0.33250 1.15000
v 0.23464 -0.29250 1.15000
v 0.24000 -0.31250 0.95000
v 0.24000 -0.31250 0.95000
v 0.24000 -0.31250 1.15000
v 0.23464 -0.29250 0.95000
v 0.24000 -0.31250 1.15000
v 0.23464 -0.29250 1.15000
v 0.20000 -0.28426 0.95000
v 0.20000 -0.27250 0.95000
v 0.22000 -0.27786 0.95000
v 0.21625 -0.28861 0.95000
v 0.20000 -0.27250 1.15000
v 0.20000 -0.27250 0.95000
v 0.22000 -0.27786 1.15000
v 0.22000 -0.27786 0.95000
vn -0.8685 -0.4956 0.0000
vn -0.5774 -0.5774 0.5774
vn -0.8685 -0.0000 0.4956
vn -0.4956 -0.8685 0.0000
vn -0.5811 -0.6491 -0.4908
vn 0.0000 -0.8685 -0.4956
vn 0.0000 -0.8685 0.4956
vn 0.0000 -0.4956 0.8685
vn -0.4956 -0.0000 0.8685
vn 0.0000 -1.0000 -0.0000
vn -0.9957 -0.0652 0.0652
vn -0.8961 0.3139 0.3139
vn -0.5811 0.4908 0.6491
vn -0.0000 0.4956 0.8685
vn 0.0000 -0.0000 1.0000
vn -0.9957 0.0652 -0.0652
vn 0.0000 -0.4956 -0.8685
vn -0.5811 -0.4908 -0.6491
vn -0.8685 0.4956 -0.0000
vn -0.5811 0.6491 0.4908
vn -0.8685 -0.0000 -0.4956
vn -0.0000 0.8685 0.4956
vn -0.5774 0.5774 -0.5774
vn -0.4956 -0.0000 -0.8685
vn 0.0000 0.0000 -1.0000
vn 0.0000 0.4956 -0.8685
vn -0.4956 0.8685 0.0000
vn 0.0000 0.8685 -0.4956
vn 0.0000 1.0000 0.0000
vn 0.4956 -0.8685 0.0000
vn 0.5774 -0.5774 0.5774
vn 0.5811 -0.6491 -0.4908
vn 0.8685 -0.4956 0.0000
vn 0.4956 -0.0000 0.8685
vn 0.8685 -0.0000 0.4956
vn 0.5811 0.4908 0.6491
vn 0.9957 -0.0652 0.0652
vn 0.8961 -0.3139 -0.3139
vn 0.8685 0.4956 -0.0000
vn 0.5811 -0.4908 -0.6491
vn 0.9957 0.0652 -0.0652
vn 0.5811 0.6491 0.4908
vn 0.4956 -0.0000 -0.8685
vn 0.8685 0.0000 -0.4956
vn 0.4956 0.8685 -0.0000
vn 0.5774 0.5774 -0.5774
vn -0.4893 -0.8708 0.0489
vn 0.0000 -0.9999 0.0148
vn 0.0000 -0.8685 0.4956
vn -0.5774 -0.5774 0.5774
vn -0.8556 -0.5102 0.0875
vn -0.8685 0.0000 0.4956
vn -0.9922 -0.0196 0.1234
vn -0.8578 0.4724 0.2026
vn -0.5774 0.5774 0.5774
vn 0.0000 -0.4956 0.8685
vn -0.4956 0.0000 0.8685
vn 0.0000 -0.0000 1.0000
vn -0.4913 0.8353 0.2467
vn 0.0000 0.4956 0.8685
vn 0.0000 0.8685 0.4956
vn -0.9922 0.0196 -0.1234
vn -0.8578 -0.4724 -0.2026
vn -0.4913 -0.8353 -0.2467
vn 0.0000 -0.9699 -0.2434
vn -0.5774 -0.5774 -0.5774
vn 0.0000 -0.8685 -0.4956
vn 0.0000 -0.4956 -0.8685
vn -0.8685 0.0000 -0.4956
vn -0.8556 0.5102 -0.0875
vn -0.5774 0.5774 -0.5774
vn -0.4956 -0.0000 -0.8685
vn 0.0000 0.0000 -1.0000
vn 0.0000 0.4956 -0.8685
vn -0.4893 0.8708 -0.0489
vn 0.0000 0.8685 -0.4956
vn 0.0000 0.9999 -0.0148
vn 0.0000 0.9699 0.2434
vn 0.4893 -0.8708 0.0489
vn 0.5774 -0.5774 0.5774
vn 0.8556 -0.5102 0.0875
vn 0.4956 -0.0000 0.8685
vn 0.8685 0.0000 0.4956
vn 0.5774 0.5774 0.5774
vn 0.8578 0.4724 0.2026
vn 0.4913 0.8353 0.2467
vn 0.9922 -0.0196 0.1234
vn 0.4913 -0.8353 -0.2467
vn 0.8578 -0.4724 -0.2026
vn 0.9922 0.0196 -0.1234
vn 0.5774 -0.5774 -0.5774
vn 0.4956 -0.0000 -0.8685
vn 0.8685 0.0000 -0.4956
vn 0.5774 0.5774 -0.5774
vn 0.4893 0.8708 -0.0489
vn 0.8556 0.5102 -0.0875
vn -0.4956 -0.8685 0.0000
vn -0.8685 -0.4956 0.0000
vn -0.7489 -0.5935 -0.2949
vn -0.5590 -0.7691 -0.3097
vn -0.3657 -0.8393 -0.4023
vn 0.0000 -0.8685 -0.4956
vn 0.0000 -1.0000 0.0000
vn -0.2506 -0.6846 -0.6846
vn 0.0000 -0.7071 -0.7071
vn -0.5774 -0.5774 0.5774
vn -0.0000 -0.8685 0.4956
vn -0.0000 -0.5026 0.8645
vn -0.9924 -0.1207 -0.0247
vn -0.8574 -0.2164 0.4669
vn -0.9987 -0.0144 0.0479
vn -0.8783 0.1374 -0.4580
vn -0.8300 -0.3576 -0.4280
vn -0.8485 -0.3741 -0.3741
vn -0.8547 -0.0702 -0.5143
vn -0.6846 -0.2506 -0.6846
vn -0.6846 -0.2506 -0.6846
vn -0.4911 -0.0271 -0.8707
vn -0.2897 -0.2897 -0.9122
vn -0.5867 -0.2979 -0.7530
vn -0.5172 0.2459 -0.8198
vn -0.0000 0.0000 -1.0000
vn 0.0000 -0.2588 -0.9659
vn 0.0000 0.2799 -0.9600
vn -0.4990 -0.2748 0.8219
vn -0.8347 -0.1582 0.5275
vn -0.4780 -0.2524 0.8413
vn 0.0000 0.2873 -0.9578
vn 0.0000 -0.2873 0.9578
vn -0.9987 0.0144 -0.0479
vn -0.8783 -0.1374 0.4580
vn -0.9987 -0.0144 0.0479
vn -0.8783 0.1374 -0.4580
vn -0.8347 0.1582 -0.5275
vn -0.5172 0.2459 -0.8198
vn -0.4780 0.2524 -0.8413
vn 0.0000 0.2873 -0.9578
vn 0.0000 0.2873 -0.9578
vn -0.8347 -0.1582 0.5275
vn -0.5172 -0.2459 0.8198
vn -0.4780 -0.2524 0.8413
vn 0.0000 -0.2873 0.9578
vn 0.0000 -0.2873 0.9578
vn -0.9987 -0.0144 0.0479
vn -0.9987 0.0144 -0.0479
vn -0.8783 -0.1374 0.4580
vn -0.8783 0.1374 -0.4580
vn -0.9924 0.1207 0.0247
vn -0.8574 0.2164 -0.4669
vn -0.9987 0.0144 -0.0479
vn -0.8783 -0.1374 0.4580
vn -0.8347 0.1582 -0.5275
vn -0.5172 0.2459 -0.8198
vn -0.4780 0.2524 -0.8413
vn -0.8347 -0.1582 0.5275
vn -0.5172 -0.2459 0.8198
vn -0.6917 -0.2075 0.6917
vn -0.6917 -0.2075 0.6917
vn -0.6917 -0.2075 0.6917
vn -0.4911 0.0271 0.8707
vn 0.0000 0.2873 -0.9578
vn 0.0000 0.2873 -0.9578
vn -0.2762 -0.2762 0.9206
vn 0.0000 -0.2799 0.9600
vn -0.2762 -0.2762 0.9206
vn 0.0000 -0.2873 0.9578
vn -0.8347 0.1582 -0.5275
vn -0.4990 0.2748 -0.8219
vn -0.4780 0.2524 -0.8413
vn -0.8547 0.0702 0.5143
vn -0.6917 -0.2075 0.6917
vn -0.6917 -0.2075 0.6917
vn -0.6917 -0.2075 0.6917
vn -0.8685 0.4956 0.0000
vn -0.5774 0.5774 -0.5774
vn -0.5774 0.5774 0.5774
vn 0.0000 0.0000 1.0000
vn -0.0000 0.5026 -0.8645
vn -0.0000 0.2873 -0.9578
vn -0.0000 0.4956 0.8685
vn -0.4956 0.8685 0.0000
vn -0.0000 0.8685 -0.4956
vn 0.0000 1.0000 0.0000
vn 0.0000 0.8685 0.4956
vn 0.4956 -0.8685 -0.0000
vn 0.2506 -0.6846 -0.6846
vn 0.3657 -0.8393 -0.4023
vn 0.5590 -0.7691 -0.3097
vn 0.7489 -0.5935 -0.2949
vn 0.8685 -0.4956 0.0000
vn 0.5774 -0.5774 0.5774
vn 0.2897 -0.2897 -0.9122
vn 0.4911 -0.0271 -0.8707
vn 0.8485 -0.3741 -0.3741
vn 0.8547 -0.0702 -0.5143
vn 0.6846 -0.2506 -0.6846
vn 0.6846 -0.2506 -0.6846
vn 0.8300 -0.3576 -0.4280
vn 0.9924 -0.1207 -0.0247
vn 0.5867 -0.2979 -0.7530
vn 0.5172 0.2459 -0.8198
vn 0.4990 -0.2748 0.8219
vn 0.8574 -0.2164 0.4669
vn 0.4780 -0.2524 0.8413
vn 0.8347 -0.1582 0.5275
vn 0.8783 0.1374 -0.4580
vn 0.9987 -0.0144 0.0479
vn 0.4780 0.2524 -0.8413
vn 0.5172 0.2459 -0.8198
vn 0.8783 0.1374 -0.4580
vn 0.8347 0.1582 -0.5275
vn 0.5172 -0.2459 0.8198
vn 0.4780 -0.2524 0.8413
vn 0.8783 -0.1374 0.4580
vn 0.8347 -0.1582 0.5275
vn 0.9987 0.0144 -0.0479
vn 0.9987 -0.0144 0.0479
vn 0.4780 0.2524 -0.8413
vn 0.5172 0.2459 -0.8198
vn 0.2762 -0.2762 0.9206
vn 0.2762 -0.2762 0.9206
vn 0.5172 -0.2459 0.8198
vn 0.4911 0.0271 0.8707
vn 0.8783 0.1374 -0.4580
vn 0.8347 0.1582 -0.5275
vn 0.8347 -0.1582 0.5275
vn 0.8783 -0.1374 0.4580
vn 0.9987 0.0144 -0.0479
vn 0.9987 -0.0144 0.0479
vn 0.6917 -0.2075 0.6917
vn 0.6917 -0.2075 0.6917
vn 0.6917 -0.2075 0.6917
vn 0.4990 0.2748 -0.8219
vn 0.4780 0.2524 -0.8413
vn 0.5774 0.5774 -0.5774
vn 0.5774 0.5774 0.5774
vn 0.8347 0.1582 -0.5275
vn 0.8574 0.2164 -0.4669
vn 0.9924 0.1207 0.0247
vn 0.6917 -0.2075 0.6917
vn 0.6917 -0.2075 0.6917
vn 0.6917 -0.2075 0.6917
vn 0.8547 0.0702 0.5143
vn 0.8783 -0.1374 0.4580
vn 0.9987 0.0144 -0.0479
vn 0.8685 0.4956 0.0000
vn 0.4956 0.8685 0.0000
vn -0.6887 -0.6887 -0.2265
vn -0.2265 -0.6887 -0.6887
vn -0.1877 -0.9641 -0.1877
vn -0.9641 -0.1877 -0.1877
vn -0.9641 0.1877 -0.1877
vn -0.6887 -0.2265 -0.6887
vn -0.1877 -0.1877 -0.9641
vn -0.6887 0.2265 -0.6887
vn -0.1877 0.1877 -0.9641
vn -0.6887 0.6887 -0.2265
vn -0.2265 0.6887 -0.6887
vn -0.1877 0.9641 -0.1877
vn -0.6887 -0.6887 0.2265
vn -0.9641 -0.1877 0.1877
vn -0.6887 0.6887 0.2265
vn -0.1877 -0.9641 0.1877
vn -0.9641 0.1877 0.1877
vn -0.1877 0.9641 0.1877
vn -0.2265 -0.6887 0.6887
vn -0.6887 -0.2265 0.6887
vn -0.1877 -0.1877 0.9641
vn -0.6887 0.2265 0.6887
vn -0.1877 0.1877 0.9641
vn -0.2265 0.6887 0.6887
vn 0.0000 -1.0000 0.0000
vn 0.0000 1.0000 0.0000
vn 0.0000 -1.0000 0.0000
vn 0.0000 1.0000 0.0000
vn 0.0000 -1.0000 0.0000
vn 0.0000 1.0000 0.0000
vn 0.1877 -0.9641 -0.1877
vn 0.1877 -0.1877 -0.9641
vn 0.1877 0.1877 -0.9641
vn 0.1877 0.9641 -0.1877
vn 0.0000 -1.0000 0.0000
vn 0.0000 1.0000 0.0000
vn 0.0000 -1.0000 0.0000
vn 0.0000 1.0000 0.0000
vn 0.0000 -1.0000 0.0000
vn 0.0000 1.0000 0.0000
vn 0.0000 -1.0000 0.0000
vn 0.0000 1.0000 0.0000
vn 0.1877 -0.9641 0.1877
vn 0.1877 -0.1877 0.9641
vn 0.1877 0.1877 0.9641
vn 0.1877 0.9641 0.1877
vn 0.0000 1.0000 0.0000
vn 0.2265 -0.6887 -0.6887
vn 0.2265 0.6887 -0.6887
vn 0.0000 -1.0000 0.0000
vn 0.0000 -1.0000 0.0000
vn 0.0000 1.0000 0.0000
vn 0.0000 -1.0000 0.0000
vn 0.2265 -0.6887 0.6887
vn 0.2265 0.6887 0.6887
vn 0.0000 -1.0000 0.0000
vn 0.0000 1.0000 0.0000
vn 0.0000 -1.0000 0.0000
vn 0.0000 1.0000 0.0000
vn 0.0000 1.0000 0.0000
vn 0.6887 -0.6887 -0.2265
vn 0.6887 -0.2265 -0.6887
vn 0.9641 -0.1877 -0.1877
vn 0.6887 0.2265 -0.6887
vn 0.9641 0.1877 -0.1877
vn 0.6887 0.6887 -0.2265
vn 0.6887 -0.6887 0.2265
vn 0.9641 -0.1877 0.1877
vn 0.9641 0.1877 0.1877
vn 0.6887 0.6887 0.2265
vn 0.6887 -0.2265 0.6887
vn 0.6887 0.2265 0.6887
vn -0.1877 -0.9641 -0.1877
vn -0.6887 -0.6887 -0.2265
vn -0.2265 -0.6887 -0.6887
vn -0.6887 -0.2265 -0.6887
vn -0.9641 -0.1877 -0.1877
vn -0.9641 0.1877 -0.1877
vn -0.1877 -0.1877 -0.9641
vn -0.6887 0.2265 -0.6887
vn -0.6887 -0.6887 0.2265
vn -0.1877 0.1877 -0.9641
vn -0.6887 0.6887 -0.2265
vn -0.2265 0.6887 -0.6887
vn -0.1877 0.9641 -0.1877
vn -0.9641 0.1877 0.1877
vn -0.6887 0.6887 0.2265
vn -0.1877 0.9641 0.1877
vn -0.1877 -0.9641 0.1877
vn -0.9641 -0.1877 0.1877
vn -0.2265 -0.6887 0.6887
vn -0.6887 -0.2265 0.6887
vn -0.1877 -0.1877 0.9641
vn -0.6887 0.2265 0.6887
vn -0.1877 0.1877 0.9641
vn -0.2265 0.6887 0.6887
vn 0.0000 -1.0000 0.0000
vn 0.0000 1.0000 0.0000
vn 0.0000 0.9369 0.3495
vn 0.0000 -1.0000 0.0000
vn 0.0000 1.0000 0.0000
vn 0.0000 1.0000 0.0000
vn 0.1877 -0.1877 -0.9641
vn 0.1877 -0.9641 -0.1877
vn 0.1877 0.1877 -0.9641
vn 0.0000 1.0000 0.0000
vn 0.1877 0.9641 -0.1877
vn 0.0000 -1.0000 0.0000
vn 0.0000 -1.0000 0.0000
vn 0.0000 -1.0000 0.0000
vn 0.0000 1.0000 0.0000
vn 0.0000 1.0000 0.0000
vn 0.0000 -1.0000 0.0000
vn 0.1877 -0.9641 0.1877
vn 0.1877 -0.1877 0.9641
vn 0.0000 0.9239 0.3827
vn 0.0000 0.3827 0.9239
vn 0.0000 0.3827 0.9239
vn 0.1877 0.1877 0.9641
vn 0.0000 -1.0000 0.0000
vn 0.2265 -0.6887 -0.6887
vn 0.0000 -1.0000 0.0000
vn 0.2265 0.6887 -0.6887
vn 0.0000 1.0000 0.0000
vn 0.0000 -1.0000 0.0000
vn 0.0000 -1.0000 0.0000
vn 0.0000 1.0000 0.0000
vn 0.2265 -0.6887 0.6887
vn 0.0000 -1.0000 0.0000
vn -0.0000 0.3827 0.9239
vn 0.2265 0.6887 0.6887
vn 0.0000 0.9369 0.3495
vn 0.0000 0.9239 0.3827
vn 0.1877 0.9641 0.1877
vn 0.0000 1.0000 0.0000
vn 0.0000 -1.0000 0.0000
vn 0.0000 1.0000 0.0000
vn 0.0000 1.0000 0.0000
vn 0.6887 -0.6887 -0.2265
vn 0.6887 -0.2265 -0.6887
vn 0.9641 -0.1877 -0.1877
vn 0.6887 0.2265 -0.6887
vn 0.6887 -0.6887 0.2265
vn 0.9641 0.1877 -0.1877
vn 0.9641 -0.1877 0.1877
vn 0.6887 0.6887 -0.2265
vn 0.9641 0.1877 0.1877
vn 0.6887 -0.2265 0.6887
vn 0.6887 0.6887 0.2265
vn 0.6887 0.2265 0.6887
vn -0.6887 -0.6887 -0.2265
vn -0.2265 -0.6887 -0.6887
vn -0.1877 -0.9641 -0.1877
vn -0.9641 -0.1877 -0.1877
vn -0.6887 -0.2265 -0.6887
vn -0.1877 -0.1877 -0.9641
vn -0.9641 0.1877 -0.1877
vn -0.6887 0.2265 -0.6887
vn -0.1877 0.1877 -0.9641
vn -0.6887 -0.6887 0.2265
vn -0.9641 -0.1877 0.1877
vn -0.6887 0.6887 -0.2265
vn -0.2265 0.6887 -0.6887
vn -0.1877 0.9641 -0.1877
vn -0.6887 0.6887 0.2265
vn -0.1877 -0.9641 0.1877
vn -0.9641 0.1877 0.1877
vn -0.1877 0.9641 0.1877
vn -0.2265 -0.6887 0.6887
vn -0.6887 -0.2265 0.6887
vn -0.1877 -0.1877 0.9641
vn -0.6887 0.2265 0.6887
vn -0.1877 0.1877 0.9641
vn -0.2265 0.6887 0.6887
vn 0.0000 -1.0000 0.0000
vn 0.0000 1.0000 0.0000
vn 0.0000 -0.9577 0.2879
vn 0.0000 -0.3827 0.9239
vn 0.0000 -0.2083 0.9781
vn 0.0000 0.3827 0.9239
vn -0.0000 0.9565 0.2918
vn 0.0000 -1.0000 0.0000
vn 0.0000 -1.0000 0.0000
vn 0.2265 -0.6887 -0.6887
vn 0.1877 0.1877 -0.9641
vn 0.1877 0.9641 -0.1877
vn 0.0000 -1.0000 0.0000
vn 0.0000 1.0000 0.0000
vn 0.0000 -1.0000 0.0000
vn 0.0000 1.0000 0.0000
vn 0.0000 1.0000 0.0000
vn 0.0000 -0.9239 0.3827
vn 0.0000 0.1350 0.9909
vn 0.0000 0.9239 0.3827
vn 0.0000 1.0000 0.0000
vn 0.1877 -0.9641 -0.1877
vn 0.1877 -0.1877 -0.9641
vn 0.2265 0.6887 -0.6887
vn 0.0000 -1.0000 0.0000
vn 0.0000 1.0000 0.0000
vn 0.0000 -1.0000 0.0000
vn 0.0000 1.0000 0.0000
vn 0.0000 -1.0000 0.0000
vn 0.0000 1.0000 0.0000
vn 0.1877 -0.9641 0.1877
vn 0.0000 -0.9577 0.2879
vn 0.0000 -1.0000 0.0000
vn 0.0000 -0.9239 0.3827
vn 0.1877 -0.1877 0.9641
vn 0.0000 -0.2083 0.9781
vn 0.0000 -0.3827 0.9239
vn 0.0000 0.1350 0.9909
vn 0.1877 0.9641 0.1877
vn 0.0000 1.0000 0.0000
vn 0.0000 0.9565 0.2918
vn 0.1877 0.1877 0.9641
vn 0.0000 0.3827 0.9239
vn 0.2265 0.6887 0.6887
vn 0.0000 0.9239 0.3827
vn 0.2265 -0.6887 0.6887
vn 0.6887 -0.6887 -0.2265
vn 0.6887 -0.2265 -0.6887
vn 0.9641 -0.1877 -0.1877
vn 0.6887 0.2265 -0.6887
vn 0.9641 0.1877 -0.1877
vn 0.6887 -0.6887 0.2265
vn 0.9641 -0.1877 0.1877
vn 0.6887 0.6887 -0.2265
vn 0.9641 0.1877 0.1877
vn 0.6887 0.6887 0.2265
vn 0.6887 -0.2265 0.6887
vn 0.6887 0.2265 0.6887
vn -0.6887 -0.6887 -0.2265
vn -0.2265 -0.6887 -0.6887
vn -0.1877 -0.9641 -0.1877
vn -0.6887 -0.2265 -0.6887
vn -0.1877 -0.1877 -0.9641
vn -0.9641 -0.1877 -0.1877
vn -0.9641 0.1877 -0.1877
vn -0.6887 0.2265 -0.6887
vn -0.1877 0.1877 -0.9641
vn -0.6887 -0.6887 0.2265
vn -0.9641 0.1877 0.1877
vn -0.9641 -0.1877 0.1877
vn -0.1877 -0.9641 0.1877
vn -0.2265 -0.6887 0.6887
vn -0.6887 -0.2265 0.6887
vn -0.1877 -0.1877 0.9641
vn -0.6887 0.2265 0.6887
vn -0.1877 0.1877 0.9641
vn -0.2265 0.6887 -0.6887
vn -0.6887 0.6887 -0.2265
vn -0.1877 0.9641 -0.1877
vn -0.1877 0.9641 0.1877
vn -0.6887 0.6887 0.2265
vn -0.2265 0.6887 0.6887
vn 0.1877 -0.9641 -0.1877
vn 0.1877 -0.1877 -0.9641
vn 0.1877 0.1877 -0.9641
vn 0.1877 -0.9641 0.1877
vn 0.1877 -0.1877 0.9641
vn 0.1877 0.9641 -0.1877
vn 0.1877 0.9641 0.1877
vn 0.1877 0.1877 0.9641
vn 0.2265 -0.6887 -0.6887
vn 0.2265 -0.6887 0.6887
vn 0.2265 0.6887 -0.6887
vn 0.2265 0.6887 0.6887
vn 0.6887 -0.6887 -0.2265
vn 0.6887 -0.2265 -0.6887
vn 0.9641 -0.1877 -0.1877
vn 0.6887 0.2265 -0.6887
vn 0.9641 0.1877 -0.1877
vn 0.6887 -0.6887 0.2265
vn 0.9641 -0.1877 0.1877
vn 0.9641 0.1877 0.1877
vn 0.6887 -0.2265 0.6887
vn 0.6887 0.2265 0.6887
vn 0.6887 0.6887 -0.2265
vn 0.6887 0.6887 0.2265
vn -0.5774 -0.5774 -0.5774
vn -0.8685 -0.4956 -0.0000
vn -0.8685 0.0000 -0.4956
vn -0.5774 -0.5774 0.5774
vn -0.8685 -0.0000 0.4956
vn -0.4956 -0.8685 -0.0000
vn -0.1480 -0.8577 -0.4924
vn -0.1278 -0.9918 -0.0000
vn -0.1480 -0.8577 0.4924
vn -0.4956 0.0000 -0.8685
vn -0.1480 -0.4924 -0.8577
vn -0.1480 -0.4924 0.8577
vn -0.4956 0.0000 0.8685
vn -1.0000 0.0000 0.0000
vn -0.8685 0.4956 -0.0000
vn -0.5774 0.5774 -0.5774
vn -0.5774 0.5774 0.5774
vn -0.4956 0.8685 -0.0000
vn -0.1278 0.0000 -0.9918
vn -0.1480 0.4924 -0.8577
vn -0.1278 0.0000 0.9918
vn -0.1480 0.4924 0.8577
vn -0.1480 0.8577 -0.4924
vn -0.1480 0.8577 0.4924
vn -0.1278 0.9918 -0.0000
vn -0.0000 -0.0639 0.9980
vn 0.0000 0.5206 0.8538
vn -0.0000 0.9068 0.4215
vn -0.0000 -0.2588 0.9659
vn -0.0000 -0.2588 0.9659
vn 0.0000 -0.2588 0.9659
vn 0.1480 -0.8577 -0.4924
vn 0.1480 -0.8577 0.4924
vn 0.1480 -0.4924 -0.8577
vn 0.0000 -0.6737 0.7390
vn 0.0000 -0.7071 0.7071
vn 0.0000 0.2588 0.9659
vn 0.1480 0.4924 -0.8577
vn -0.0000 0.9659 0.2588
vn 0.0000 0.9659 0.2588
vn 0.0000 0.9659 0.2588
vn 0.1480 0.8577 -0.4924
vn 0.1278 0.9918 -0.0000
vn 0.1278 -0.9918 -0.0000
vn 0.0000 -0.6737 0.7390
vn 0.1480 -0.4924 0.8577
vn 0.0000 -0.2588 0.9659
vn 0.1278 0.0000 -0.9918
vn 0.1278 -0.0000 0.9918
vn 0.0000 -0.2588 0.9659
vn 0.0000 -0.2588 0.9659
vn 0.0000 -0.0639 0.9980
vn -0.0000 0.2588 0.9659
vn -0.0000 0.5206 0.8538
vn 0.1480 0.8577 0.4924
vn -0.0000 0.9659 0.2588
vn 0.0000 0.9068 0.4215
vn 0.1480 0.4924 0.8577
vn 0.0000 0.9659 0.2588
vn 0.4956 -0.8685 0.0000
vn 0.5774 -0.5774 -0.5774
vn 0.5774 -0.5774 0.5774
vn 0.4956 -0.0000 -0.8685
vn 0.4956 0.0000 0.8685
vn 0.8685 -0.4956 -0.0000
vn 0.8685 0.0000 -0.4956
vn 0.8685 -0.0000 0.4956
vn 0.5774 0.5774 -0.5774
vn 0.4956 0.8685 -0.0000
vn 0.5774 0.5774 0.5774
vn 1.0000 0.0000 0.0000
vn 0.8685 0.4956 -0.0000
vn -0.6887 -0.6887 -0.2265
vn -0.2265 -0.6887 -0.6887
vn -0.1877 -0.9641 -0.1877
vn -0.1877 -0.9641 0.1877
vn -0.9641 -0.1877 -0.1877
vn -0.6887 -0.2265 -0.6887
vn -0.1877 -0.1877 -0.9641
vn -0.9641 -0.1877 0.1877
vn -0.9641 0.1877 -0.1877
vn -0.1877 0.1877 -0.9641
vn -0.6887 -0.6887 0.2265
vn -0.2265 -0.6887 0.6887
vn -0.6887 -0.2265 0.6887
vn -0.1877 -0.1877 0.9641
vn -0.9641 0.1877 0.1877
vn -0.1877 0.1877 0.9641
vn -0.6887 0.2265 -0.6887
vn -0.6887 0.6887 -0.2265
vn -0.2265 0.6887 -0.6887
vn -0.1877 0.9641 -0.1877
vn -0.1877 0.9641 0.1877
vn -0.6887 0.2265 0.6887
vn -0.6887 0.6887 0.2265
vn -0.2265 0.6887 0.6887
vn 0.2265 -0.6887 -0.6887
vn 0.1877 -0.1877 -0.9641
vn 0.1877 -0.9641 0.1877
vn 0.1877 -0.1877 0.9641
vn 0.2265 0.6887 -0.6887
vn 0.1877 0.9641 -0.1877
vn 0.2265 0.6887 0.6887
vn 0.1877 -0.9641 -0.1877
vn 0.2265 -0.6887 0.6887
vn 0.1877 0.1877 -0.9641
vn 0.1877 0.1877 0.9641
vn 0.1877 0.9641 0.1877
vn 0.6887 -0.6887 -0.2265
vn 0.6887 -0.2265 -0.6887
vn 0.9641 -0.1877 -0.1877
vn 0.6887 -0.6887 0.2265
vn 0.9641 0.1877 -0.1877
vn 0.9641 -0.1877 0.1877
vn 0.6887 -0.2265 0.6887
vn 0.9641 0.1877 0.1877
vn 0.6887 0.2265 0.6887
vn 0.6887 0.2265 -0.6887
vn 0.6887 0.6887 -0.2265
vn 0.6887 0.6887 0.2265
vn -0.8574 -0.4959 -0.1374
vn -0.5774 -0.5774 -0.5774
vn -0.4921 -0.8608 -0.1298
vn -0.8685 0.0000 -0.4956
vn -0.9918 -0.0036 -0.1277
vn -0.8578 0.4889 -0.1584
vn -0.4956 0.0000 -0.8685
vn -0.5774 0.5774 -0.5774
vn -0.4926 0.8543 -0.1662
vn -0.0000 -0.8685 -0.4956
vn 0.0000 -0.9943 -0.1068
vn 0.0000 -0.4956 -0.8685
vn 0.4921 -0.8608 -0.1298
vn 0.5774 -0.5774 -0.5774
vn 0.0000 0.0000 -1.0000
vn 0.0000 0.4956 -0.8685
vn 0.4956 -0.0000 -0.8685
vn 0.8574 -0.4959 -0.1374
vn 0.8685 -0.0000 -0.4956
vn 0.5774 0.5774 -0.5774
vn 0.9918 -0.0036 -0.1277
vn 0.8578 0.4889 -0.1584
vn 0.0000 0.8685 -0.4956
vn 0.0000 0.9888 -0.1489
vn 0.4926 0.8543 -0.1662
vn -0.8689 -0.4946 0.0210
vn -1.0000 0.0070 -0.0003
vn -0.4967 0.8672 -0.0369
vn -0.5027 -0.8637 0.0368
vn -0.8628 0.5051 -0.0215
vn -0.0000 -0.9991 0.0425
vn 0.5027 -0.8637 0.0368
vn 0.8689 -0.4946 0.0210
vn 1.0000 0.0070 -0.0003
vn 0.8628 0.5051 -0.0215
vn 0.4967 0.8672 -0.0369
vn 0.0000 0.9991 -0.0425
vn 0.0000 0.0000 -1.0000
vn 0.0000 0.0000 -1.0000
vn 0.0000 0.0000 -1.0000
vn 0.0000 0.0000 -1.0000
vn 0.0000 0.0000 -1.0000
vn 0.0000 0.0000 -1.0000
vn 0.0000 0.0000 -1.0000
vn 0.0000 0.0000 -1.0000
vn 0.0000 0.0000 -1.0000
vn -1.0000 0.0000 -0.0000
vn -0.8660 -0.5000 0.0000
vn -1.0000 0.0000 0.0000
vn -0.8660 0.5000 -0.0000
vn -0.5000 -0.8660 0.0000
vn -0.8660 -0.5000 0.0000
vn -0.5000 -0.8660 -0.0000
vn 0.0000 0.0000 1.0000
vn 0.0000 0.0000 1.0000
vn 0.0000 0.0000 1.0000
vn -0.8660 0.5000 0.0000
vn 0.0000 0.0000 1.0000
vn 0.0000 0.0000 1.0000
vn 0.0000 0.0000 -1.0000
vn -0.5000 0.8660 0.0000
vn -0.5000 0.8660 0.0000
vn 0.0000 0.0000 -1.0000
vn 0.0000 0.0000 -1.0000
vn 0.0000 0.0000 -1.0000
vn 0.0000 0.0000 -1.0000
vn 0.0000 -1.0000 -0.0000
vn 0.5000 -0.8660 0.0000
vn 0.0000 -1.0000 0.0000
vn 0.5000 -0.8660 0.0000
vn 0.0000 0.0000 -1.0000
vn 0.0000 0.0000 -1.0000
vn 0.0000 0.0000 -1.0000
vn 0.0000 0.0000 -1.0000
vn 0.0000 0.0000 -1.0000
vn 0.0000 0.0000 1.0000
vn 0.0000 0.0000 1.0000
vn 0.0000 0.0000 1.0000
vn 0.8660 -0.5000 0.0000
vn 0.0000 0.0000 1.0000
vn 0.8660 -0.5000 -0.0000
vn 0.0000 0.0000 1.0000
vn 0.0000 0.0000 1.0000
vn 0.0000 0.0000 -1.0000
vn 1.0000 0.0000 -0.0000
vn 1.0000 0.0000 0.0000
vn 0.8660 0.5000 0.0000
vn 0.0000 0.0000 1.0000
vn 0.8660 0.5000 0.0000
vn 0.0000 0.0000 -1.0000
vn 0.0000 0.0000 -1.0000
vn 0.0000 0.0000 -1.0000
vn 0.0000 0.0000 -1.0000
vn 0.0000 1.0000 0.0000
vn 0.0000 1.0000 -0.0000
vn 0.5000 0.8660 -0.0000
vn 0.5000 0.8660 0.0000
f 1//1 2//2 3//3
f 4//4 5//5 6//6
f 1//1 5//5 4//4
f 1//1 4//4 2//2
f 4//4 7//7 2//2
f 2//2 8//8 9//9
f 2//2 7//7 8//8
f 4//4 6//6 10//10
f 4//4 10//10 7//7
f 1//1 3//3 11//11
f 11//11 3//3 12//12
f 3//3 13//13 12//12
f 2//2 9//9 3//3
f 3//3 9//9 13//13
f 9//9 14//14 13//13
f 9//9 8//8 15//15
f 9//9 15//15 14//14
f 1//1 11//11 16//16
f 5//5 17//17 6//6
f 1//1 18//18 5//5
f 11//11 12//12 19//19
f 12//12 13//13 19//19
f 13//13 14//14 20//20
f 1//1 21//21 18//18
f 1//1 16//16 21//21
f 11//11 19//19 16//16
f 5//5 18//18 17//17
f 13//13 20//20 19//19
f 14//14 22//22 20//20
f 16//16 19//19 21//21
f 21//21 19//19 23//23
f 18//18 24//24 17//17
f 21//21 24//24 18//18
f 24//24 25//25 17//17
f 21//21 23//23 24//24
f 24//24 23//23 26//26
f 19//19 27//27 23//23
f 23//23 27//27 28//28
f 19//19 20//20 27//27
f 27//27 20//20 22//22
f 24//24 26//26 25//25
f 23//23 28//28 26//26
f 27//27 29//29 28//28
f 27//27 22//22 29//29
f 10//10 6//6 30//30
f 10//10 30//30 7//7
f 7//7 31//31 8//8
f 6//6 32//32 30//30
f 7//7 30//30 31//31
f 30//30 32//32 33//33
f 30//30 33//33 31//31
f 8//8 31//31 34//34
f 31//31 33//33 35//35
f 31//31 35//35 34//34
f 14//14 34//34 36//36
f 34//34 35//35 36//36
f 8//8 34//34 15//15
f 15//15 34//34 14//14
f 33//33 37//37 35//35
f 6//6 17//17 32//32
f 32//32 38//38 33//33
f 33//33 38//38 37//37
f 37//37 39//39 35//35
f 14//14 36//36 22//22
f 36//36 35//35 39//39
f 32//32 17//17 40//40
f 32//32 40//40 38//38
f 37//37 38//38 41//41
f 37//37 41//41 39//39
f 36//36 42//42 22//22
f 36//36 39//39 42//42
f 17//17 25//25 43//43
f 17//17 43//43 40//40
f 40//40 43//43 44//44
f 25//25 26//26 43//43
f 28//28 29//29 45//45
f 26//26 28//28 46//46
f 22//22 45//45 29//29
f 26//26 46//46 43//43
f 43//43 46//46 44//44
f 28//28 45//45 46//46
f 39//39 46//46 45//45
f 22//22 42//42 45//45
f 39//39 45//45 42//42
f 40//40 44//44 38//38
f 38//38 44//44 41//41
f 44//44 46//46 39//39
f 44//44 39//39 41//41
f 47//47 48//48 49//49
f 47//47 49//49 50//50
f 51//51 52//52 53//53
f 51//51 50//50 52//52
f 53//53 52//52 54//54
f 52//52 55//55 54//54
f 51//51 47//47 50//50
f 50//50 56//56 57//57
f 50//50 57//57 52//52
f 50//50 49//49 56//56
f 56//56 58//58 57//57
f 54//54 55//55 59//59
f 52//52 57//57 55//55
f 57//57 60//60 55//55
f 55//55 61//61 59//59
f 57//57 58//58 60//60
f 55//55 60//60 61//61
f 51//51 62//62 63//63
f 48//48 64//64 65//65
f 47//47 63//63 64//64
f 63//63 66//66 64//64
f 64//64 66//66 67//67
f 66//66 68//68 67//67
f 64//64 67//67 65//65
f 63//63 69//69 66//66
f 63//63 62//62 69//69
f 62//62 70//70 69//69
f 69//69 70//70 71//71
f 66//66 72//72 68//68
f 66//66 69//69 72//72
f 69//69 71//71 72//72
f 68//68 72//72 73//73
f 72//72 74//74 73//73
f 72//72 71//71 74//74
f 70//70 75//75 71//71
f 71//71 75//75 76//76
f 71//71 76//76 74//74
f 75//75 77//77 76//76
f 53//53 70//70 62//62
f 59//59 75//75 70//70
f 78//78 77//77 75//75
f 51//51 63//63 47//47
f 51//51 53//53 62//62
f 53//53 54//54 70//70
f 47//47 64//64 48//48
f 54//54 59//59 70//70
f 59//59 78//78 75//75
f 59//59 61//61 78//78
f 48//48 79//79 49//49
f 49//49 79//79 80//80
f 79//79 81//81 80//80
f 49//49 80//80 56//56
f 56//56 82//82 58//58
f 56//56 80//80 82//82
f 80//80 83//83 82//82
f 84//84 85//85 86//86
f 58//58 82//82 60//60
f 61//61 60//60 84//84
f 60//60 82//82 84//84
f 82//82 83//83 84//84
f 61//61 84//84 86//86
f 81//81 87//87 83//83
f 80//80 81//81 83//83
f 83//83 87//87 85//85
f 84//84 83//83 85//85
f 65//65 88//88 79//79
f 79//79 88//88 89//89
f 81//81 89//89 90//90
f 67//67 88//88 65//65
f 67//67 68//68 91//91
f 67//67 91//91 88//88
f 88//88 91//91 89//89
f 68//68 73//73 92//92
f 73//73 74//74 92//92
f 68//68 92//92 91//91
f 91//91 92//92 93//93
f 92//92 94//94 93//93
f 76//76 77//77 95//95
f 74//74 76//76 94//94
f 74//74 94//94 92//92
f 76//76 95//95 94//94
f 94//94 95//95 96//96
f 91//91 93//93 89//89
f 89//89 93//93 90//90
f 93//93 96//96 90//90
f 94//94 96//96 93//93
f 78//78 95//95 77//77
f 86//86 96//96 95//95
f 87//87 90//90 96//96
f 48//48 65//65 79//79
f 79//79 89//89 81//81
f 81//81 90//90 87//87
f 87//87 96//96 85//85
f 78//78 86//86 95//95
f 86//86 85//85 96//96
f 78//78 61//61 86//86
f 97//97 98//98 99//99
f 97//97 100//100 101//101
f 97//97 99//99 100//100
f 97//97 101//101 102//102
f 97//97 102//102 103//103
f 102//102 101//101 104//104
f 102//102 104//104 105//105
f 97//97 106//106 98//98
f 97//97 107//107 106//106
f 97//97 103//103 107//107
f 106//106 107//107 108//108
f 109//109 110//110 111//111
f 109//109 111//111 112//112
f 98//98 113//113 114//114
f 115//115 98//98 109//109
f 115//115 116//116 113//113
f 115//115 113//113 98//98
f 98//98 114//114 99//99
f 115//115 117//117 116//116
f 115//115 109//109 112//112
f 118//118 119//119 120//120
f 115//115 120//120 117//117
f 115//115 118//118 120//120
f 115//115 121//121 118//118
f 118//118 122//122 119//119
f 122//122 123//123 119//119
f 118//118 124//124 122//122
f 98//98 106//106 110//110
f 109//109 98//98 110//110
f 110//110 106//106 125//125
f 110//110 125//125 126//126
f 106//106 108//108 125//125
f 125//125 108//108 127//127
f 115//115 112//112 121//121
f 118//118 121//121 128//128
f 118//118 128//128 124//124
f 110//110 126//126 111//111
f 125//125 127//127 126//126
f 108//108 129//129 127//127
f 130//130 131//131 132//132
f 130//130 132//132 133//133
f 134//134 135//135 136//136
f 136//136 137//137 138//138
f 135//135 137//137 136//136
f 130//130 133//133 134//134
f 139//139 131//131 140//140
f 134//134 133//133 135//135
f 132//132 131//131 139//139
f 139//139 140//140 141//141
f 141//141 140//140 142//142
f 141//141 142//142 143//143
f 144//144 145//145 146//146
f 144//144 147//147 145//145
f 148//148 149//149 150//150
f 148//148 150//150 151//151
f 152//152 145//145 147//147
f 152//152 153//153 154//154
f 155//155 146//146 156//156
f 152//152 147//147 153//153
f 144//144 146//146 155//155
f 155//155 156//156 157//157
f 156//156 158//158 157//157
f 156//156 159//159 158//158
f 160//160 159//159 156//156
f 154//154 161//161 162//162
f 160//160 156//156 163//163
f 164//164 163//163 165//165
f 164//164 165//165 166//166
f 153//153 161//161 154//154
f 164//164 160//160 163//163
f 149//149 167//167 150//150
f 149//149 168//168 167//167
f 168//168 169//169 167//167
f 148//148 151//151 170//170
f 170//170 151//151 171//171
f 170//170 171//171 160//160
f 160//160 171//171 172//172
f 160//160 173//173 159//159
f 160//160 172//172 173//173
f 148//148 174//174 149//149
f 149//149 174//174 175//175
f 149//149 175//175 168//168
f 148//148 170//170 174//174
f 170//170 176//176 174//174
f 170//170 160//160 176//176
f 164//164 177//177 160//160
f 168//168 178//178 169//169
f 175//175 178//178 168//168
f 178//178 179//179 169//169
f 176//176 160//160 180//180
f 160//160 177//177 180//180
f 174//174 181//181 175//175
f 174//174 176//176 181//181
f 175//175 181//181 182//182
f 175//175 182//182 178//178
f 181//181 183//183 182//182
f 176//176 184//184 181//181
f 176//176 180//180 184//184
f 181//181 184//184 183//183
f 102//102 185//185 103//103
f 102//102 105//105 186//186
f 102//102 186//186 187//187
f 102//102 187//187 185//185
f 185//185 187//187 188//188
f 185//185 188//188 189//189
f 185//185 189//189 190//190
f 103//103 185//185 107//107
f 107//107 191//191 108//108
f 107//107 185//185 191//191
f 185//185 190//190 191//191
f 122//122 192//192 123//123
f 122//122 124//124 193//193
f 122//122 193//193 192//192
f 190//190 189//189 194//194
f 195//195 196//196 197//197
f 190//190 194//194 198//198
f 195//195 198//198 196//196
f 195//195 190//190 198//198
f 195//195 199//199 190//190
f 193//193 200//200 192//192
f 193//193 195//195 200//200
f 195//195 197//197 200//200
f 193//193 201//201 195//195
f 108//108 191//191 202//202
f 108//108 202//202 129//129
f 191//191 203//203 202//202
f 191//191 190//190 203//203
f 190//190 199//199 203//203
f 202//202 203//203 204//204
f 203//203 199//199 205//205
f 124//124 128//128 201//201
f 124//124 201//201 193//193
f 195//195 201//201 206//206
f 195//195 206//206 207//207
f 202//202 204//204 129//129
f 203//203 205//205 204//204
f 195//195 207//207 199//199
f 199//199 207//207 205//205
f 208//208 138//138 209//209
f 138//138 137//137 209//209
f 208//208 210//210 211//211
f 209//209 210//210 208//208
f 143//143 142//142 212//212
f 143//143 212//212 213//213
f 212//212 214//214 213//213
f 215//215 214//214 216//216
f 211//211 210//210 217//217
f 215//215 213//213 214//214
f 211//211 217//217 216//216
f 215//215 216//216 217//217
f 218//218 162//162 219//219
f 164//164 220//220 221//221
f 164//164 166//166 220//220
f 164//164 221//221 222//222
f 162//162 161//161 219//219
f 164//164 222//222 223//223
f 218//218 224//224 225//225
f 226//226 222//222 227//227
f 226//226 227//227 228//228
f 219//219 224//224 218//218
f 225//225 224//224 229//229
f 222//222 230//230 231//231
f 222//222 231//231 232//232
f 226//226 230//230 222//222
f 223//223 222//222 232//232
f 233//233 234//234 179//179
f 164//164 223//223 177//177
f 178//178 233//233 179//179
f 178//178 235//235 233//233
f 177//177 223//223 180//180
f 236//236 180//180 223//223
f 233//233 237//237 234//234
f 233//233 238//238 237//237
f 238//238 239//239 237//237
f 223//223 232//232 240//240
f 223//223 240//240 241//241
f 223//223 241//241 242//242
f 223//223 242//242 243//243
f 243//243 242//242 244//244
f 243//243 244//244 245//245
f 233//233 235//235 238//238
f 238//238 246//246 239//239
f 235//235 246//246 238//238
f 236//236 223//223 243//243
f 243//243 239//239 246//246
f 236//236 243//243 246//246
f 229//229 228//228 225//225
f 226//226 228//228 229//229
f 239//239 245//245 237//237
f 243//243 245//245 239//239
f 178//178 182//182 235//235
f 182//182 183//183 247//247
f 182//182 247//247 235//235
f 184//184 180//180 236//236
f 184//184 247//247 183//183
f 184//184 236//236 247//247
f 235//235 247//247 246//246
f 236//236 246//246 247//247
f 248//248 249//249 250//250
f 251//251 252//252 253//253
f 248//248 251//251 253//253
f 248//248 253//253 249//249
f 249//249 253//253 254//254
f 253//253 255//255 254//254
f 253//253 252//252 255//255
f 255//255 256//256 254//254
f 252//252 257//257 255//255
f 255//255 258//258 256//256
f 255//255 257//257 258//258
f 257//257 259//259 258//258
f 248//248 250//250 260//260
f 251//251 261//261 252//252
f 248//248 260//260 251//251
f 252//252 262//262 257//257
f 257//257 262//262 259//259
f 250//250 263//263 260//260
f 260//260 261//261 251//251
f 252//252 261//261 264//264
f 252//252 264//264 262//262
f 259//259 262//262 265//265
f 260//260 263//263 266//266
f 261//261 267//267 264//264
f 260//260 267//267 261//261
f 260//260 266//266 267//267
f 266//266 268//268 267//267
f 267//267 268//268 269//269
f 267//267 269//269 264//264
f 269//269 268//268 270//270
f 264//264 269//269 262//262
f 269//269 270//270 271//271
f 269//269 271//271 262//262
f 262//262 271//271 265//265
f 250//250 272//272 263//263
f 259//259 265//265 273//273
f 250//250 274//274 272//272
f 259//259 273//273 275//275
f 250//250 276//276 274//274
f 259//259 275//275 277//277
f 250//250 249//249 278//278
f 249//249 254//254 279//279
f 254//254 256//256 280//280
f 256//256 258//258 280//280
f 258//258 259//259 281//281
f 250//250 282//282 276//276
f 259//259 277//277 283//283
f 263//263 272//272 284//284
f 265//265 285//285 273//273
f 263//263 284//284 286//286
f 265//265 287//287 285//285
f 263//263 286//286 288//288
f 265//265 289//289 287//287
f 263//263 290//290 266//266
f 266//266 291//291 268//268
f 268//268 291//291 270//270
f 271//271 270//270 292//292
f 271//271 293//293 265//265
f 259//259 283//283 294//294
f 250//250 278//278 282//282
f 263//263 288//288 290//290
f 265//265 293//293 289//289
f 259//259 294//294 281//281
f 249//249 295//295 278//278
f 249//249 279//279 295//295
f 254//254 280//280 279//279
f 258//258 296//296 280//280
f 258//258 281//281 296//296
f 278//278 297//297 282//282
f 278//278 298//298 297//297
f 281//281 294//294 299//299
f 278//278 300//300 298//298
f 266//266 290//290 301//301
f 266//266 301//301 291//291
f 270//270 291//291 292//292
f 271//271 292//292 302//302
f 271//271 302//302 293//293
f 290//290 288//288 303//303
f 293//293 304//304 289//289
f 290//290 303//303 305//305
f 293//293 306//306 304//304
f 290//290 305//305 300//300
f 293//293 299//299 307//307
f 293//293 307//307 306//306
f 278//278 290//290 300//300
f 281//281 299//299 293//293
f 278//278 295//295 308//308
f 295//295 309//309 308//308
f 295//295 279//279 309//309
f 308//308 309//309 310//310
f 279//279 311//311 309//309
f 309//309 311//311 310//310
f 279//279 280//280 311//311
f 310//310 311//311 312//312
f 280//280 296//296 311//311
f 311//311 296//296 313//313
f 311//311 313//313 312//312
f 296//296 281//281 313//313
f 278//278 308//308 314//314
f 308//308 310//310 314//314
f 310//310 312//312 315//315
f 281//281 293//293 313//313
f 312//312 313//313 316//316
f 278//278 314//314 290//290
f 314//314 310//310 315//315
f 312//312 316//316 315//315
f 313//313 317//317 316//316
f 313//313 293//293 317//317
f 290//290 314//314 301//301
f 301//301 314//314 318//318
f 301//301 318//318 291//291
f 314//314 315//315 318//318
f 318//318 292//292 291//291
f 318//318 315//315 316//316
f 318//318 319//319 292//292
f 318//318 316//316 319//319
f 319//319 302//302 292//292
f 319//319 317//317 302//302
f 319//319 316//316 317//317
f 302//302 317//317 293//293
f 320//320 321//321 322//322
f 321//321 323//323 322//322
f 324//324 325//325 323//323
f 324//324 323//323 321//321
f 323//323 326//326 322//322
f 323//323 327//327 326//326
f 324//324 321//321 328//328
f 320//320 328//328 321//321
f 326//326 327//327 329//329
f 323//323 325//325 327//327
f 325//325 330//330 327//327
f 327//327 331//331 329//329
f 327//327 330//330 331//331
f 330//330 332//332 331//331
f 324//324 333//333 325//325
f 325//325 334//334 330//330
f 330//330 335//335 332//332
f 320//320 336//336 328//328
f 324//324 328//328 337//337
f 324//324 337//337 333//333
f 336//336 338//338 328//328
f 328//328 338//338 339//339
f 337//337 328//328 339//339
f 339//339 338//338 340//340
f 337//337 339//339 341//341
f 339//339 340//340 341//341
f 325//325 333//333 334//334
f 330//330 334//334 335//335
f 337//337 341//341 333//333
f 340//340 342//342 341//341
f 333//333 341//341 334//334
f 341//341 342//342 343//343
f 334//334 343//343 335//335
f 341//341 343//343 334//334
f 320//320 344//344 336//336
f 332//332 335//335 345//345
f 343//343 346//346 335//335
f 320//320 347//347 344//344
f 332//332 348//348 349//349
f 326//326 350//350 322//322
f 320//320 322//322 351//351
f 326//326 329//329 352//352
f 329//329 331//331 352//352
f 332//332 349//349 353//353
f 331//331 332//332 354//354
f 336//336 344//344 355//355
f 336//336 355//355 356//356
f 336//336 356//356 357//357
f 332//332 345//345 348//348
f 335//335 358//358 345//345
f 335//335 359//359 358//358
f 336//336 357//357 360//360
f 336//336 361//361 338//338
f 338//338 362//362 340//340
f 340//340 362//362 342//342
f 335//335 346//346 359//359
f 343//343 363//363 346//346
f 343//343 364//364 365//365
f 342//342 366//366 343//343
f 320//320 351//351 347//347
f 332//332 353//353 354//354
f 336//336 360//360 361//361
f 343//343 366//366 364//364
f 351//351 367//367 347//347
f 326//326 352//352 350//350
f 322//322 368//368 351//351
f 322//322 350//350 368//368
f 351//351 369//369 367//367
f 331//331 370//370 352//352
f 331//331 354//354 370//370
f 354//354 353//353 371//371
f 351//351 372//372 369//369
f 351//351 373//373 372//372
f 354//354 371//371 374//374
f 338//338 361//361 375//375
f 338//338 375//375 362//362
f 361//361 360//360 376//376
f 342//342 362//362 366//366
f 366//366 377//377 364//364
f 378//378 379//379 380//380
f 381//381 382//382 379//379
f 361//361 383//383 373//373
f 361//361 376//376 383//383
f 354//354 374//374 384//384
f 381//381 385//385 382//382
f 381//381 384//384 385//385
f 366//366 378//378 377//377
f 378//378 381//381 379//379
f 351//351 361//361 373//373
f 354//354 384//384 381//381
f 351//351 368//368 386//386
f 368//368 387//387 386//386
f 350//350 387//387 368//368
f 386//386 387//387 388//388
f 350//350 389//389 387//387
f 387//387 389//389 388//388
f 351//351 386//386 390//390
f 386//386 388//388 390//390
f 388//388 391//391 392//392
f 350//350 352//352 389//389
f 352//352 370//370 389//389
f 389//389 393//393 391//391
f 388//388 389//389 391//391
f 370//370 393//393 389//389
f 370//370 354//354 393//393
f 393//393 394//394 391//391
f 354//354 381//381 393//393
f 351//351 390//390 361//361
f 388//388 392//392 390//390
f 361//361 390//390 375//375
f 375//375 390//390 395//395
f 390//390 392//392 395//395
f 375//375 395//395 362//362
f 362//362 395//395 366//366
f 395//395 392//392 394//394
f 392//392 391//391 394//394
f 393//393 381//381 396//396
f 393//393 396//396 394//394
f 395//395 397//397 366//366
f 395//395 394//394 397//397
f 397//397 394//394 396//396
f 366//366 397//397 378//378
f 378//378 396//396 381//381
f 378//378 397//397 396//396
f 398//398 399//399 400//400
f 398//398 401//401 402//402
f 398//398 402//402 399//399
f 402//402 403//403 399//399
f 401//401 404//404 405//405
f 401//401 405//405 402//402
f 402//402 405//405 403//403
f 403//403 405//405 406//406
f 398//398 400//400 407//407
f 398//398 407//407 401//401
f 401//401 408//408 404//404
f 404//404 409//409 405//405
f 405//405 410//410 406//406
f 405//405 409//409 410//410
f 409//409 411//411 410//410
f 404//404 412//412 409//409
f 409//409 412//412 411//411
f 401//401 407//407 408//408
f 400//400 413//413 407//407
f 404//404 408//408 414//414
f 404//404 414//414 412//412
f 411//411 412//412 415//415
f 407//407 413//413 416//416
f 407//407 417//417 408//408
f 407//407 416//416 417//417
f 417//417 416//416 418//418
f 408//408 419//419 414//414
f 408//408 417//417 419//419
f 417//417 418//418 419//419
f 418//418 420//420 419//419
f 414//414 419//419 412//412
f 419//419 420//420 421//421
f 419//419 421//421 412//412
f 412//412 421//421 415//415
f 400//400 422//422 413//413
f 411//411 415//415 423//423
f 413//413 424//424 416//416
f 416//416 425//425 418//418
f 418//418 426//426 420//420
f 420//420 427//427 421//421
f 421//421 428//428 415//415
f 400//400 429//429 430//430
f 400//400 399//399 431//431
f 399//399 403//403 431//431
f 403//403 406//406 432//432
f 406//406 410//410 432//432
f 410//410 411//411 433//433
f 400//400 434//434 422//422
f 400//400 430//430 434//434
f 411//411 423//423 435//435
f 413//413 422//422 436//436
f 415//415 437//437 423//423
f 415//415 438//438 437//437
f 413//413 436//436 424//424
f 416//416 424//424 439//439
f 418//418 425//425 426//426
f 420//420 426//426 440//440
f 415//415 428//428 438//438
f 420//420 440//440 427//427
f 421//421 441//441 428//428
f 411//411 435//435 442//442
f 400//400 443//443 429//429
f 411//411 442//442 433//433
f 400//400 431//431 443//443
f 403//403 444//444 431//431
f 403//403 432//432 444//444
f 410//410 445//445 432//432
f 410//410 433//433 445//445
f 443//443 446//446 429//429
f 433//433 442//442 447//447
f 443//443 448//448 446//446
f 433//433 447//447 449//449
f 443//443 450//450 448//448
f 433//433 449//449 451//451
f 452//452 453//453 454//454
f 452//452 455//455 453//453
f 456//456 457//457 458//458
f 456//456 459//459 457//457
f 460//460 461//461 462//462
f 463//463 464//464 459//459
f 465//465 462//462 466//466
f 452//452 454//454 450//450
f 460//460 451//451 461//461
f 452//452 467//467 455//455
f 467//467 456//456 458//458
f 456//456 463//463 459//459
f 463//463 465//465 464//464
f 465//465 460//460 462//462
f 443//443 452//452 450//450
f 433//433 451//451 460//460
f 443//443 431//431 468//468
f 431//431 469//469 468//468
f 431//431 444//444 469//469
f 468//468 469//469 470//470
f 444//444 471//471 469//469
f 469//469 471//471 470//470
f 444//444 432//432 471//471
f 470//470 471//471 472//472
f 443//443 468//468 473//473
f 468//468 470//470 473//473
f 470//470 472//472 474//474
f 432//432 445//445 471//471
f 445//445 475//475 471//471
f 471//471 475//475 472//472
f 445//445 433//433 475//475
f 472//472 475//475 476//476
f 433//433 460//460 475//475
f 443//443 473//473 452//452
f 470//470 474//474 473//473
f 472//472 476//476 474//474
f 475//475 477//477 476//476
f 475//475 460//460 477//477
f 452//452 473//473 467//467
f 467//467 473//473 478//478
f 467//467 478//478 456//456
f 473//473 474//474 478//478
f 456//456 478//478 463//463
f 478//478 479//479 463//463
f 478//478 476//476 479//479
f 478//478 474//474 476//476
f 463//463 479//479 465//465
f 465//465 479//479 477//477
f 479//479 476//476 477//477
f 465//465 477//477 460//460
f 480//480 481//481 482//482
f 480//480 483//483 481//481
f 483//483 484//484 481//481
f 480//480 485//485 483//483
f 485//485 486//486 487//487
f 483//483 487//487 484//484
f 485//485 487//487 483//483
f 484//484 487//487 488//488
f 480//480 489//489 485//485
f 480//480 482//482 489//489
f 485//485 490//490 486//486
f 485//485 489//489 491//491
f 482//482 492//492 489//489
f 485//485 491//491 490//490
f 489//489 492//492 493//493
f 489//489 493//493 494//494
f 489//489 494//494 491//491
f 494//494 493//493 495//495
f 491//491 496//496 490//490
f 491//491 494//494 496//496
f 494//494 495//495 496//496
f 495//495 497//497 496//496
f 487//487 498//498 488//488
f 486//486 499//499 487//487
f 487//487 499//499 498//498
f 499//499 500//500 498//498
f 486//486 490//490 499//499
f 499//499 501//501 500//500
f 499//499 490//490 502//502
f 499//499 502//502 501//501
f 490//490 496//496 502//502
f 496//496 503//503 502//502
f 502//502 503//503 501//501
f 496//496 497//497 503//503
f 482//482 481//481 504//504
f 481//481 484//484 505//505
f 484//484 488//488 506//506
f 482//482 507//507 492//492
f 492//492 507//507 493//493
f 493//493 508//508 495//495
f 495//495 508//508 497//497
f 488//488 498//498 506//506
f 498//498 500//500 509//509
f 500//500 501//501 509//509
f 503//503 510//510 501//501
f 497//497 511//511 503//503
f 481//481 505//505 512//512
f 481//481 512//512 504//504
f 484//484 506//506 505//505
f 482//482 504//504 507//507
f 493//493 507//507 513//513
f 493//493 513//513 508//508
f 497//497 508//508 511//511
f 498//498 514//514 506//506
f 498//498 509//509 514//514
f 501//501 510//510 509//509
f 503//503 515//515 510//510
f 503//503 511//511 515//515
f 504//504 512//512 516//516
f 512//512 517//517 516//516
f 512//512 505//505 517//517
f 516//516 517//517 518//518
f 505//505 519//519 517//517
f 517//517 519//519 518//518
f 505//505 506//506 519//519
f 518//518 519//519 520//520
f 504//504 516//516 521//521
f 516//516 518//518 521//521
f 518//518 520//520 522//522
f 504//504 521//521 507//507
f 518//518 522//522 521//521
f 520//520 523//523 522//522
f 507//507 521//521 513//513
f 513//513 521//521 524//524
f 521//521 522//522 524//524
f 513//513 524//524 508//508
f 524//524 523//523 525//525
f 524//524 522//522 523//523
f 508//508 524//524 511//511
f 511//511 524//524 525//525
f 506//506 514//514 519//519
f 519//519 526//526 520//520
f 514//514 526//526 519//519
f 514//514 509//509 526//526
f 509//509 510//510 526//526
f 526//526 523//523 520//520
f 526//526 510//510 527//527
f 526//526 527//527 523//523
f 525//525 523//523 527//527
f 515//515 525//525 527//527
f 515//515 527//527 510//510
f 511//511 525//525 515//515
f 528//528 529//529 530//530
f 529//529 531//531 532//532
f 533//533 529//529 528//528
f 533//533 531//531 529//529
f 534//534 535//535 533//533
f 533//533 535//535 536//536
f 534//534 533//533 528//528
f 533//533 536//536 531//531
f 528//528 537//537 538//538
f 534//534 528//528 538//538
f 531//531 539//539 540//540
f 536//536 539//539 531//531
f 530//530 529//529 541//541
f 529//529 532//532 541//541
f 530//530 541//541 542//542
f 541//541 532//532 542//542
f 528//528 530//530 537//537
f 530//530 543//543 537//537
f 531//531 540//540 532//532
f 532//532 540//540 544//544
f 530//530 542//542 543//543
f 532//532 544//544 542//542
f 543//543 542//542 545//545
f 542//542 544//544 545//545
f 537//537 546//546 538//538
f 537//537 547//547 546//546
f 540//540 539//539 548//548
f 540//540 548//548 549//549
f 537//537 543//543 547//547
f 543//543 545//545 550//550
f 544//544 551//551 545//545
f 543//543 550//550 547//547
f 540//540 549//549 544//544
f 544//544 549//549 551//551
f 550//550 545//545 552//552
f 545//545 551//551 552//552
f 539//539 553//553 548//548
f 548//548 554//554 549//549
f 549//549 554//554 551//551
f 551//551 555//555 552//552
f 539//539 556//556 557//557
f 539//539 557//557 558//558
f 534//534 559//559 535//535
f 535//535 560//560 536//536
f 534//534 538//538 561//561
f 538//538 546//546 561//561
f 539//539 562//562 556//556
f 536//536 560//560 539//539
f 539//539 563//563 562//562
f 548//548 553//553 564//564
f 539//539 558//558 553//553
f 548//548 564//564 554//554
f 551//551 554//554 555//555
f 546//546 547//547 565//565
f 547//547 550//550 565//565
f 552//552 555//555 566//566
f 552//552 566//566 567//567
f 552//552 567//567 568//568
f 550//550 552//552 569//569
f 539//539 560//560 563//563
f 552//552 568//568 570//570
f 535//535 559//559 571//571
f 535//535 571//571 560//560
f 534//534 561//561 559//559
f 560//560 572//572 563//563
f 573//573 574//574 572//572
f 546//546 575//575 561//561
f 546//546 565//565 575//575
f 550//550 569//569 565//565
f 576//576 577//577 574//574
f 576//576 578//578 577//577
f 576//576 579//579 578//578
f 576//576 580//580 579//579
f 576//576 581//581 580//580
f 582//582 583//583 584//584
f 585//585 584//584 581//581
f 552//552 570//570 569//569
f 582//582 568//568 586//586
f 582//582 586//586 583//583
f 560//560 573//573 572//572
f 573//573 576//576 574//574
f 576//576 585//585 581//581
f 585//585 582//582 584//584
f 582//582 570//570 568//568
f 559//559 587//587 571//571
f 571//571 587//587 560//560
f 559//559 561//561 588//588
f 559//559 588//588 587//587
f 560//560 587//587 589//589
f 561//561 590//590 588//588
f 560//560 589//589 573//573
f 573//573 589//589 591//591
f 587//587 588//588 592//592
f 587//587 592//592 589//589
f 588//588 593//593 592//592
f 589//589 592//592 594//594
f 561//561 575//575 590//590
f 575//575 565//565 590//590
f 573//573 591//591 576//576
f 576//576 591//591 585//585
f 565//565 569//569 595//595
f 590//590 565//565 595//595
f 569//569 596//596 595//595
f 582//582 597//597 596//596
f 585//585 597//597 582//582
f 591//591 597//597 585//585
f 588//588 590//590 593//593
f 590//590 595//595 593//593
f 593//593 598//598 592//592
f 592//592 598//598 594//594
f 593//593 599//599 598//598
f 594//594 598//598 599//599
f 589//589 594//594 591//591
f 591//591 594//594 597//597
f 595//595 596//596 599//599
f 597//597 599//599 596//596
f 593//593 595//595 599//599
f 594//594 599//599 597//597
f 569//569 570//570 596//596
f 582//582 596//596 570//570
f 600//600 601//601 602//602
f 600//600 602//602 603//603
f 600//600 604//604 605//605
f 600//600 605//605 601//601
f 601//601 605//605 606//606
f 600//600 607//607 604//604
f 604//604 607//607 608//608
f 605//605 604//604 608//608
f 605//605 609//609 606//606
f 600//600 603//603 610//610
f 610//610 603//603 611//611
f 600//600 610//610 607//607
f 610//610 612//612 607//607
f 610//610 611//611 612//612
f 611//611 613//613 612//612
f 607//607 612//612 614//614
f 612//612 613//613 615//615
f 605//605 608//608 616//616
f 605//605 616//616 609//609
f 616//616 608//608 617//617
f 616//616 618//618 609//609
f 608//608 614//614 617//617
f 616//616 617//617 618//618
f 617//617 619//619 618//618
f 617//617 620//620 619//619
f 607//607 614//614 608//608
f 612//612 621//621 614//614
f 612//612 615//615 621//621
f 614//614 621//621 622//622
f 621//621 615//615 623//623
f 614//614 622//622 617//617
f 622//622 621//621 623//623
f 617//617 622//622 620//620
f 622//622 623//623 620//620
f 601//601 624//624 602//602
f 601//601 606//606 625//625
f 606//606 609//609 625//625
f 602//602 626//626 603//603
f 603//603 626//626 611//611
f 611//611 627//627 613//613
f 613//613 627//627 615//615
f 609//609 618//618 628//628
f 618//618 619//619 628//628
f 619//619 620//620 629//629
f 620//620 623//623 630//630
f 615//615 630//630 623//623
f 602//602 624//624 631//631
f 602//602 631//631 626//626
f 601//601 625//625 624//624
f 611//611 626//626 632//632
f 611//611 632//632 627//627
f 609//609 633//633 625//625
f 609//609 628//628 633//633
f 619//619 629//629 628//628
f 615//615 627//627 634//634
f 615//615 634//634 630//630
f 620//620 635//635 629//629
f 620//620 630//630 635//635
f 624//624 636//636 631//631
f 631//631 636//636 626//626
f 624//624 625//625 637//637
f 624//624 637//637 636//636
f 636//636 637//637 638//638
f 636//636 638//638 639//639
f 625//625 633//633 637//637
f 637//637 640//640 638//638
f 638//638 640//640 641//641
f 626//626 636//636 639//639
f 626//626 639//639 632//632
f 639//639 642//642 632//632
f 639//639 638//638 641//641
f 639//639 641//641 642//642
f 632//632 642//642 627//627
f 642//642 641//641 643//643
f 627//627 642//642 644//644
f 637//637 633//633 645//645
f 637//637 645//645 640//640
f 633//633 628//628 645//645
f 645//645 646//646 640//640
f 646//646 643//643 640//640
f 628//628 646//646 645//645
f 628//628 629//629 646//646
f 629//629 635//635 646//646
f 642//642 643//643 644//644
f 627//627 644//644 634//634
f 641//641 640//640 643//643
f 647//647 644//644 643//643
f 634//634 644//644 630//630
f 647//647 630//630 644//644
f 635//635 647//647 646//646
f 635//635 630//630 647//647
f 646//646 647//647 643//643
f 648//648 649//649 650//650
f 648//648 651//651 649//649
f 652//652 651//651 648//648
f 652//652 653//653 651//651
f 649//649 651//651 654//654
f 651//651 655//655 654//654
f 651//651 653//653 655//655
f 653//653 656//656 655//655
f 649//649 657//657 650//650
f 650//650 657//657 658//658
f 649//649 659//659 657//657
f 649//649 654//654 659//659
f 657//657 660//660 658//658
f 659//659 661//661 657//657
f 654//654 662//662 659//659
f 654//654 663//663 662//662
f 655//655 663//663 654//654
f 659//659 662//662 664//664
f 662//662 663//663 664//664
f 657//657 661//661 660//660
f 660//660 661//661 665//665
f 659//659 664//664 661//661
f 661//661 666//666 665//665
f 664//664 666//666 661//661
f 663//663 667//667 664//664
f 664//664 667//667 666//666
f 665//665 666//666 668//668
f 666//666 669//669 668//668
f 666//666 667//667 669//669
f 655//655 656//656 670//670
f 655//655 670//670 663//663
f 656//656 671//671 670//670
f 663//663 670//670 667//667
f 670//670 671//671 672//672
f 670//670 672//672 667//667
f 667//667 672//672 669//669
f 652//652 648//648 673//673
f 648//648 650//650 673//673
f 652//652 674//674 653//653
f 653//653 675//675 656//656
f 650//650 676//676 673//673
f 652//652 673//673 674//674
f 653//653 674//674 677//677
f 653//653 677//677 675//675
f 650//650 658//658 676//676
f 658//658 660//660 678//678
f 660//660 665//665 679//679
f 665//665 668//668 680//680
f 656//656 675//675 671//671
f 668//668 669//669 681//681
f 672//672 682//682 669//669
f 671//671 683//683 672//672
f 658//658 678//678 676//676
f 660//660 679//679 678//678
f 665//665 680//680 679//679
f 671//671 675//675 684//684
f 671//671 684//684 683//683
f 668//668 681//681 680//680
f 669//669 682//682 681//681
f 672//672 683//683 682//682
f 685//685 686//686 687//687
f 685//685 688//688 686//686
f 687//687 686//686 689//689
f 690//690 691//691 685//685
f 685//685 691//691 688//688
f 691//691 692//692 688//688
f 691//691 693//693 692//692
f 694//694 695//695 696//696
f 694//694 696//696 697//697
f 695//695 698//698 699//699
f 695//695 699//699 696//696
f 698//698 700//700 699//699
f 701//701 702//702 703//703
f 694//694 697//697 704//704
f 705//705 701//701 706//706
f 701//701 703//703 706//706
f 691//691 707//707 693//693
f 704//704 708//708 709//709
f 704//704 697//697 708//708
f 687//687 689//689 710//710
f 710//710 689//689 711//711
f 710//710 711//711 712//712
f 710//710 712//712 713//713
f 698//698 714//714 700//700
f 714//714 715//715 716//716
f 700//700 714//714 716//716
f 715//715 717//717 716//716
f 713//713 712//712 718//718
f 718//718 712//712 719//719
f 718//718 719//719 720//720
f 721//721 720//720 722//722
f 702//702 723//723 724//724
f 702//702 724//724 703//703
f 723//723 725//725 724//724
f 715//715 726//726 717//717
f 723//723 727//727 725//725
f 717//717 726//726 728//728
f 727//727 729//729 730//730
f 727//727 730//730 725//725
f 718//718 720//720 721//721
f 718//718 721//721 731//731
f 726//726 732//732 728//728
f 732//732 733//733 728//728
f 732//732 734//734 733//733
f 729//729 735//735 730//730
f 733//733 734//734 736//736
f 707//707 737//737 693//693
f 707//707 738//738 737//737
f 738//738 739//739 737//737
f 739//739 740//740 737//737
f 739//739 722//722 740//740
f 739//739 721//721 722//722
f 709//709 741//741 742//742
f 709//709 708//708 741//741
f 742//742 741//741 743//743
f 742//742 743//743 744//744
f 744//744 736//736 734//734
f 744//744 743//743 736//736
