v -0.20300 0.19436 -1.11714
v -0.20300 0.18850 -1.10300
v -0.21714 0.19436 -1.10300
v -0.22300 0.20850 -1.10300
v -0.21714 0.20850 -1.11714
v -0.20300 0.20850 -1.12300
v -0.20300 0.18850 -0.89700
v -0.21714 0.19436 -0.89700
v -0.22300 0.20850 -0.89700
v -0.20300 0.19436 -0.88286
v -0.21714 0.20850 -0.88286
v -0.20300 0.20850 -0.87700
v 0.20300 0.19436 -1.11714
v 0.20300 0.20850 -1.12300
v 0.20300 0.18850 -0.89700
v 0.20300 0.20850 -0.87700
v -0.22300 0.41650 -1.10300
v -0.20300 0.41650 -1.12300
v -0.21714 0.41650 -1.11714
v -0.21714 0.41650 -0.88286
v -0.20300 0.41650 -0.87700
v -0.22300 0.41650 -0.89700
v -0.21714 0.43064 -1.10300
v -0.20300 0.43064 -1.11714
v -0.20300 0.43650 -1.10300
v -0.21714 0.43064 -0.89700
v -0.20300 0.43650 -0.89700
v -0.20300 0.43064 -0.88286
v 0.20300 0.43064 -1.11714
v 0.20300 0.43650 -1.10300
v 0.20300 0.43064 -0.88286
v 0.20300 0.18850 -1.10300
v 0.20300 0.19436 -0.88286
v 0.21714 0.19436 -1.10300
v 0.21714 0.20850 -1.11714
v 0.22300 0.20850 -1.10300
v 0.21714 0.19436 -0.89700
v 0.22300 0.20850 -0.89700
v 0.21714 0.20850 -0.88286
v 0.20300 0.41650 -1.12300
v 0.20300 0.41650 -0.87700
v 0.20300 0.43650 -0.89700
v 0.22300 0.41650 -1.10300
v 0.21714 0.41650 -1.11714
v 0.21714 0.41650 -0.88286
v 0.22300 0.41650 -0.89700
v 0.21714 0.43064 -1.10300
v 0.21714 0.43064 -0.89700
v -0.20000 0.11250 -0.86250
v -0.20000 0.31885 -0.82812
v -0.20000 0.27750 -0.86250
v 0.20000 0.11250 -0.86250
v -0.20000 0.11250 -0.86250
v -0.20000 0.27750 -0.86250
v -0.20000 0.22848 -0.41563
v -0.20000 0.11250 -0.31250
v -0.20000 0.32936 -0.58750
v -0.20000 0.28978 -0.55313
v -0.20000 0.24850 -0.51875
v -0.20000 0.24241 -0.48438
v -0.20000 0.23573 -0.45000
v -0.20000 0.35513 -0.79375
v 0.20000 0.27750 -0.86250
v -0.20000 0.31885 -0.82812
v -0.20000 0.38238 -0.75937
v -0.20000 0.39764 -0.72500
v -0.20000 0.39932 -0.69063
v -0.20000 0.36310 -0.62187
v -0.20000 0.38733 -0.65625
v 0.20000 0.31885 -0.82812
v -0.20000 0.35513 -0.79375
v 0.20000 0.28978 -0.55313
v -0.20000 0.28978 -0.55313
v -0.20000 0.24850 -0.51875
v 0.20000 0.32936 -0.58750
v -0.20000 0.32936 -0.58750
v 0.20000 0.35513 -0.79375
v -0.20000 0.38238 -0.75937
v 0.20000 0.38238 -0.75937
v -0.20000 0.39764 -0.72500
v 0.20000 0.39764 -0.72500
v -0.20000 0.39932 -0.69063
v 0.20000 0.39932 -0.69063
v -0.20000 0.38733 -0.65625
v 0.20000 0.36310 -0.62187
v -0.20000 0.36310 -0.62187
v 0.20000 0.38733 -0.65625
v -0.20000 0.22065 -0.38125
v -0.20000 0.21224 -0.34688
v -0.20000 0.20325 -0.31250
v 0.20000 0.11250 -0.31250
v -0.20000 0.11250 -0.31250
v -0.20000 0.11250 -0.86250
v 0.20000 0.20325 -0.31250
v -0.20000 0.20325 -0.31250
v -0.20000 0.11250 -0.31250
v 0.20000 0.22065 -0.38125
v -0.20000 0.22065 -0.38125
v -0.20000 0.21224 -0.34688
v 0.20000 0.23573 -0.45000
v -0.20000 0.23573 -0.45000
v -0.20000 0.22848 -0.41563
v 0.20000 0.24850 -0.51875
v -0.20000 0.24850 -0.51875
v -0.20000 0.24241 -0.48438
v 0.20000 0.24241 -0.48438
v 0.20000 0.22848 -0.41563
v 0.20000 0.21224 -0.34688
v -0.20000 0.20325 -0.31250
v 0.20000 0.11250 -0.86250
v 0.20000 0.27750 -0.86250
v 0.20000 0.31885 -0.82812
v 0.20000 0.11250 -0.86250
v 0.20000 0.22848 -0.41563
v 0.20000 0.11250 -0.31250
v 0.20000 0.32936 -0.58750
v 0.20000 0.28978 -0.55313
v 0.20000 0.24850 -0.51875
v 0.20000 0.24241 -0.48438
v 0.20000 0.23573 -0.45000
v 0.20000 0.35513 -0.79375
v 0.20000 0.24850 -0.51875
v 0.20000 0.38238 -0.75937
v 0.20000 0.39764 -0.72500
v 0.20000 0.39932 -0.69063
v 0.20000 0.36310 -0.62187
v 0.20000 0.38733 -0.65625
v 0.20000 0.11250 -0.31250
v 0.20000 0.20325 -0.31250
v 0.20000 0.22065 -0.38125
v 0.20000 0.21224 -0.34688
v 0.20000 0.20325 -0.31250
v -0.15550 -0.40650 -0.52300
v -0.15550 -0.42771 -0.51421
v -0.17671 -0.40650 -0.51421
v -0.15550 -0.11850 -0.52300
v 0.15550 -0.40650 -0.52300
v -0.15550 -0.43650 -0.49300
v -0.17671 -0.42771 -0.49300
v -0.18550 -0.40650 -0.49300
v -0.17671 -0.42771 0.04300
v -0.15550 -0.43650 0.04300
v -0.17671 -0.11850 -0.51421
v 0.15550 -0.43650 -0.49300
v -0.18550 -0.40650 0.04300
v -0.15550 -0.42771 0.06421
v -0.17671 -0.40650 0.06421
v -0.15550 -0.40650 0.07300
v -0.18550 -0.11850 0.04300
v -0.17671 -0.11850 0.06421
v 0.15550 -0.43650 0.04300
v 0.15550 -0.40650 0.07300
v -0.15550 -0.09729 -0.51421
v 0.15550 -0.09729 -0.51421
v -0.18550 -0.11850 -0.49300
v -0.17671 -0.09729 -0.49300
v -0.15550 -0.08850 -0.49300
v -0.15550 -0.08850 0.04300
v 0.15550 -0.08850 -0.49300
v -0.15550 -0.11850 0.07300
v -0.17671 -0.09729 0.04300
v -0.15550 -0.09729 0.06421
v 0.15550 -0.11850 0.07300
v 0.15550 -0.09729 0.06421
v 0.15550 -0.42771 -0.51421
v 0.17671 -0.40650 -0.51421
v 0.15550 -0.11850 -0.52300
v 0.17671 -0.42771 -0.49300
v 0.18550 -0.40650 -0.49300
v 0.17671 -0.42771 0.04300
v 0.18550 -0.11850 -0.49300
v 0.18550 -0.40650 0.04300
v 0.15550 -0.42771 0.06421
v 0.17671 -0.40650 0.06421
v 0.18550 -0.11850 0.04300
v 0.17671 -0.11850 -0.51421
v 0.17671 -0.09729 -0.49300
v 0.17671 -0.09729 0.04300
v 0.15550 -0.08850 0.04300
v 0.17671 -0.11850 0.06421
v -0.19800 0.11850 -0.14300
v -0.18921 0.11850 -0.16421
v -0.18921 0.09729 -0.14300
v -0.19800 0.15650 -0.14300
v -0.18921 0.15650 -0.16421
v -0.18921 0.17771 -0.14300
v -0.16800 0.08850 -0.14300
v -0.16800 0.09729 -0.16421
v -0.16800 0.11850 -0.17300
v -0.16800 0.15650 -0.17300
v -0.16800 0.17771 -0.16421
v -0.18921 0.09729 0.36800
v -0.19800 0.15650 0.36800
v -0.16800 0.18650 -0.14300
v -0.18921 0.17771 0.36800
v 0.16800 0.08850 -0.14300
v 0.16800 0.11850 -0.17300
v 0.16800 0.17771 -0.16421
v -0.16800 0.08850 0.36800
v -0.16800 0.18650 0.36800
v 0.16800 0.18650 -0.14300
v -0.19800 0.11850 0.36800
v -0.18921 0.11850 0.38921
v -0.18921 0.15650 0.38921
v -0.16800 0.09729 0.38921
v -0.16800 0.11850 0.39800
v -0.16800 0.15650 0.39800
v -0.16800 0.17771 0.38921
v 0.16800 0.09729 0.38921
v 0.16800 0.11850 0.39800
v 0.16800 0.15650 0.39800
v 0.16800 0.17771 0.38921
v 0.16800 0.09729 -0.16421
v 0.16800 0.15650 -0.17300
v 0.18921 0.09729 -0.14300
v 0.18921 0.11850 -0.16421
v 0.18921 0.15650 -0.16421
v 0.18921 0.17771 -0.14300
v 0.19800 0.11850 -0.14300
v 0.19800 0.15650 -0.14300
v 0.18921 0.09729 0.36800
v 0.19800 0.11850 0.36800
v 0.19800 0.15650 0.36800
v 0.16800 0.18650 0.36800
v 0.16800 0.08850 0.36800
v 0.18921 0.17771 0.36800
v 0.18921 0.11850 0.38921
v 0.18921 0.15650 0.38921
v -0.17300 -0.06650 -0.05300
v -0.16714 -0.06650 -0.06714
v -0.16714 -0.08064 -0.05300
v -0.15300 -0.08064 -0.06714
v -0.15300 -0.08650 -0.05300
v -0.15300 -0.06650 -0.07300
v -0.16714 0.06650 -0.06714
v -0.16714 -0.08064 0.37800
v -0.17300 -0.06650 0.37800
v -0.17300 0.06650 -0.05300
v -0.15300 0.06650 -0.07300
v -0.16714 0.08064 -0.05300
v -0.15300 0.08064 -0.06714
v -0.15300 0.08650 -0.05300
v -0.16714 0.08064 0.37800
v 0.15300 -0.08650 -0.05300
v 0.15300 -0.06650 -0.07300
v -0.15300 -0.08650 0.37800
v 0.15300 0.06650 -0.07300
v 0.15300 0.08064 -0.06714
v -0.16714 -0.06650 0.39214
v -0.15300 -0.08064 0.39214
v -0.15300 -0.06650 0.39800
v -0.16714 0.06650 0.39214
v -0.17300 0.06650 0.37800
v -0.15300 0.08650 0.37800
v -0.15300 0.06650 0.39800
v -0.15300 0.08064 0.39214
v 0.15300 -0.08064 0.39214
v 0.15300 0.08650 0.37800
v 0.15300 0.06650 0.39800
v 0.15300 -0.08064 -0.06714
v 0.15300 0.08650 -0.05300
v 0.16714 -0.08064 -0.05300
v 0.16714 -0.06650 -0.06714
v 0.17300 -0.06650 -0.05300
v 0.17300 0.06650 -0.05300
v 0.16714 -0.08064 0.37800
v 0.17300 -0.06650 0.37800
v 0.16714 0.06650 -0.06714
v 0.16714 0.08064 -0.05300
v 0.17300 0.06650 0.37800
v 0.15300 -0.08650 0.37800
v 0.15300 -0.06650 0.39800
v 0.15300 0.08064 0.39214
v 0.16714 -0.06650 0.39214
v 0.16714 0.06650 0.39214
v 0.16714 0.08064 0.37800
v 0.15000 0.11250 0.40000
v -0.15000 0.11250 0.40000
v -0.15000 0.18750 0.40000
v -0.15000 0.18750 0.40000
v -0.15000 0.11250 0.40000
v -0.15000 0.28750 1.12500
v 0.15000 0.18750 0.40000
v -0.15000 0.18750 0.40000
v -0.15000 0.28750 1.12500
v -0.15000 0.21250 1.12500
v 0.15000 0.21250 1.12500
v -0.15000 0.21250 1.12500
v -0.15000 0.11250 0.40000
v 0.15000 0.28750 1.12500
v -0.15000 0.28750 1.12500
v -0.15000 0.21250 1.12500
v 0.15000 0.18750 0.40000
v 0.15000 0.11250 0.40000
v 0.15000 0.18750 0.40000
v 0.15000 0.28750 1.12500
v 0.15000 0.11250 0.40000
v 0.15000 0.28750 1.12500
v 0.15000 0.21250 1.12500
v 0.15000 0.21250 1.12500
v -0.49214 -0.44150 0.65786
v -0.49214 -0.45564 0.67200
v -0.49800 -0.44150 0.67200
v -0.47800 -0.45564 0.65786
v -0.47800 -0.46150 0.67200
v -0.47800 -0.44150 0.65200
v -0.49214 -0.33350 0.65786
v -0.49800 -0.33350 0.67200
v -0.47800 -0.33350 0.65200
v -0.49214 -0.31936 0.67200
v -0.47800 -0.31936 0.65786
v -0.47800 -0.31350 0.67200
v 0.47800 -0.46150 0.67200
v 0.47800 -0.44150 0.65200
v 0.47800 -0.33350 0.65200
v 0.47800 -0.31350 0.67200
v -0.49214 -0.45564 0.82800
v -0.49800 -0.44150 0.82800
v -0.47800 -0.46150 0.82800
v -0.49214 -0.44150 0.84214
v -0.47800 -0.45564 0.84214
v -0.47800 -0.44150 0.84800
v -0.49800 -0.33350 0.82800
v -0.49214 -0.33350 0.84214
v -0.47800 -0.33350 0.84800
v -0.49214 -0.31936 0.82800
v -0.47800 -0.31350 0.82800
v -0.47800 -0.31936 0.84214
v 0.47800 -0.46150 0.82800
v 0.47800 -0.45564 0.84214
v 0.47800 -0.44150 0.84800
v 0.47800 -0.31936 0.84214
v 0.47800 -0.45564 0.65786
v 0.47800 -0.31936 0.65786
v 0.49214 -0.45564 0.67200
v 0.49214 -0.44150 0.65786
v 0.49800 -0.44150 0.67200
v 0.49800 -0.33350 0.67200
v 0.49214 -0.33350 0.65786
v 0.49214 -0.31936 0.67200
v 0.47800 -0.33350 0.84800
v 0.47800 -0.31350 0.82800
v 0.49214 -0.45564 0.82800
v 0.49800 -0.44150 0.82800
v 0.49214 -0.44150 0.84214
v 0.49800 -0.33350 0.82800
v 0.49214 -0.33350 0.84214
v 0.49214 -0.31936 0.82800
v -1.01250 -0.96250 0.75000
v -1.01250 -0.96150 0.75760
v -1.01250 -0.96150 0.74240
v -1.01250 -0.96250 0.75000
v -1.01250 -0.96150 0.74240
v -0.73750 -0.96150 0.74240
v -0.73750 -0.96250 0.75000
v -1.01250 -0.96150 0.75760
v -0.73750 -0.96150 0.75760
v -0.73750 -0.96250 0.75000
v -0.73750 -0.96150 0.74240
v -0.73750 -0.96150 0.75760
v -1.01250 -0.23868 0.19459
v -1.01250 -0.33850 0.18145
v -1.01250 -0.33850 0.23145
v -1.01250 -0.25162 0.24289
v -1.01250 -0.23868 0.19459
v -0.73750 -0.23868 0.19459
v -1.01250 -0.33850 0.18145
v -0.73750 -0.33850 0.18145
v -0.73750 -0.23868 0.19459
v -0.73750 -0.33850 0.23145
v -0.73750 -0.33850 0.18145
v -0.73750 -0.25162 0.24289
v -1.01250 -0.33850 1.31855
v -1.01250 -0.25162 1.25711
v -1.01250 -0.33850 1.26855
v -1.01250 -0.23868 1.30541
v -1.01250 -0.33850 1.31855
v -0.73750 -0.33850 1.31855
v -0.73750 -0.23868 1.30541
v -0.73750 -0.23868 1.30541
v -0.73750 -0.33850 1.31855
v -0.73750 -0.33850 1.26855
v -1.01250 -0.12500 0.29534
v -1.01250 -0.10000 0.25204
v -1.01250 -0.10000 0.25204
v -0.73750 -0.10000 0.25204
v -1.01250 -0.01627 0.37877
v -1.01250 0.01909 0.34341
v -1.01250 0.01909 0.34341
v -1.01250 0.11046 0.46250
v -0.73750 0.01909 0.34341
v -1.01250 0.06716 0.48750
v -1.01250 0.11046 0.46250
v -0.73750 0.11046 0.46250
v -0.73750 -0.10000 0.25204
v -0.73750 -0.12500 0.29534
v -0.73750 0.01909 0.34341
v -0.73750 -0.01627 0.37877
v -0.73750 0.11046 0.46250
v -0.73750 0.06716 0.48750
v -1.01250 -0.10000 1.24796
v -1.01250 -0.23868 1.30541
v -1.01250 -0.12500 1.20466
v -0.73750 -0.10000 1.24796
v -1.01250 -0.10000 1.24796
v -1.01250 0.01909 1.15659
v -1.01250 -0.01627 1.12123
v -0.73750 0.01909 1.15659
v -1.01250 0.01909 1.15659
v -1.01250 0.11046 1.03750
v -1.01250 0.06716 1.01250
v -0.73750 0.11046 1.03750
v -1.01250 0.11046 1.03750
v -0.73750 -0.10000 1.24796
v -0.73750 -0.25162 1.25711
v -0.73750 -0.12500 1.20466
v -0.73750 -0.01627 1.12123
v -0.73750 0.01909 1.15659
v -0.73750 0.06716 1.01250
v -0.73750 0.11046 1.03750
v -1.01250 0.11961 0.61412
v -1.01250 0.16791 0.60118
v -1.01250 0.16791 0.60118
v -1.01250 0.13750 0.75000
v -1.01250 0.18750 0.75000
v -1.01250 0.18750 0.75000
v -0.73750 0.16791 0.60118
v -0.73750 0.18750 0.75000
v -0.73750 0.16791 0.60118
v -0.73750 0.11961 0.61412
v -0.73750 0.18750 0.75000
v -0.73750 0.13750 0.75000
v -1.01250 0.11961 0.88588
v -1.01250 0.16791 0.89882
v -0.73750 0.16791 0.89882
v -1.01250 0.16791 0.89882
v -0.73750 0.16791 0.89882
v -0.73750 0.11961 0.88588
v -1.01250 -0.33850 0.23145
v -0.73750 -0.33850 0.23145
v -1.01250 -0.25162 0.24289
v -0.73750 -0.25162 0.24289
v -1.01250 -0.33850 1.26855
v -1.01250 -0.25162 1.25711
v -0.73750 -0.25162 1.25711
v -0.73750 -0.33850 1.26855
v -1.01250 -0.12500 0.29534
v -1.01250 -0.01627 0.37877
v -0.73750 -0.12500 0.29534
v -0.73750 -0.01627 0.37877
v -1.01250 0.06716 0.48750
v -1.01250 0.11961 0.61412
v -0.73750 0.06716 0.48750
v -1.01250 -0.12500 1.20466
v -0.73750 -0.12500 1.20466
v -0.73750 -0.01627 1.12123
v -0.73750 0.11961 0.88588
v -0.73750 0.06716 1.01250
v -1.01250 0.06716 1.01250
v -1.01250 -0.01627 1.12123
v -1.01250 0.13750 0.75000
v -0.73750 0.11961 0.61412
v -0.73750 0.13750 0.75000
v -1.01250 0.11961 0.88588
v -1.01250 -0.96150 0.75760
v -0.73750 -0.96150 0.74240
v -1.01250 -0.96150 0.74240
v -0.73750 -0.96150 0.75760
v -1.01250 -0.33850 0.23145
v -1.01250 -0.33850 0.18145
v -0.73750 -0.33850 0.23145
v -0.73750 -0.33850 0.18145
v -1.01250 -0.33850 1.31855
v -1.01250 -0.33850 1.26855
v -0.73750 -0.33850 1.31855
v -0.73750 -0.33850 1.26855
v 0.73750 -0.96250 0.75000
v 0.73750 -0.96150 0.75760
v 0.73750 -0.96150 0.74240
v 0.73750 -0.96250 0.75000
v 0.73750 -0.96150 0.74240
v 1.01250 -0.96150 0.74240
v 1.01250 -0.96250 0.75000
v 0.73750 -0.96150 0.75760
v 1.01250 -0.96150 0.75760
v 1.01250 -0.96250 0.75000
v 1.01250 -0.96150 0.74240
v 1.01250 -0.96150 0.75760
v 0.73750 -0.23868 0.19459
v 0.73750 -0.33850 0.18145
v 0.73750 -0.33850 0.23145
v 0.73750 -0.25162 0.24289
v 0.73750 -0.23868 0.19459
v 1.01250 -0.23868 0.19459
v 0.73750 -0.33850 0.18145
v 1.01250 -0.33850 0.18145
v 1.01250 -0.23868 0.19459
v 1.01250 -0.33850 0.23145
v 1.01250 -0.33850 0.18145
v 1.01250 -0.25162 0.24289
v 0.73750 -0.33850 1.31855
v 0.73750 -0.25162 1.25711
v 0.73750 -0.33850 1.26855
v 0.73750 -0.23868 1.30541
v 0.73750 -0.33850 1.31855
v 1.01250 -0.33850 1.31855
v 1.01250 -0.23868 1.30541
v 1.01250 -0.23868 1.30541
v 1.01250 -0.33850 1.31855
v 1.01250 -0.33850 1.26855
v 0.73750 -0.12500 0.29534
v 0.73750 -0.10000 0.25204
v 0.73750 -0.01627 0.37877
v 0.73750 0.01909 0.34341
v 0.73750 0.06716 0.48750
v 0.73750 0.11046 0.46250
v 0.73750 -0.10000 0.25204
v 1.01250 -0.10000 0.25204
v 1.01250 -0.10000 0.25204
v 1.01250 -0.12500 0.29534
v 0.73750 0.01909 0.34341
v 0.73750 0.11046 0.46250
v 1.01250 0.01909 0.34341
v 1.01250 0.01909 0.34341
v 1.01250 -0.01627 0.37877
v 1.01250 0.11046 0.46250
v 1.01250 0.11046 0.46250
v 1.01250 0.06716 0.48750
v 0.73750 -0.10000 1.24796
v 0.73750 -0.23868 1.30541
v 0.73750 -0.12500 1.20466
v 0.73750 0.01909 1.15659
v 0.73750 -0.01627 1.12123
v 0.73750 0.11046 1.03750
v 0.73750 0.06716 1.01250
v 1.01250 -0.10000 1.24796
v 0.73750 -0.10000 1.24796
v 1.01250 -0.10000 1.24796
v 1.01250 -0.25162 1.25711
v 1.01250 -0.12500 1.20466
v 1.01250 0.01909 1.15659
v 0.73750 0.01909 1.15659
v 1.01250 0.11046 1.03750
v 0.73750 0.11046 1.03750
v 1.01250 -0.01627 1.12123
v 1.01250 0.01909 1.15659
v 1.01250 0.06716 1.01250
v 1.01250 0.11046 1.03750
v 0.73750 0.11961 0.61412
v 0.73750 0.16791 0.60118
v 0.73750 0.13750 0.75000
v 0.73750 0.18750 0.75000
v 0.73750 0.16791 0.60118
v 0.73750 0.18750 0.75000
v 1.01250 0.16791 0.60118
v 1.01250 0.16791 0.60118
v 1.01250 0.11961 0.61412
v 1.01250 0.18750 0.75000
v 1.01250 0.13750 0.75000
v 1.01250 0.18750 0.75000
v 0.73750 0.11961 0.88588
v 0.73750 0.16791 0.89882
v 1.01250 0.16791 0.89882
v 0.73750 0.16791 0.89882
v 1.01250 0.16791 0.89882
v 1.01250 0.11961 0.88588
v 0.73750 -0.33850 0.23145
v 1.01250 -0.33850 0.23145
v 0.73750 -0.25162 0.24289
v 1.01250 -0.25162 0.24289
v 0.73750 -0.33850 1.26855
v 0.73750 -0.25162 1.25711
v 1.01250 -0.25162 1.25711
v 1.01250 -0.33850 1.26855
v 0.73750 -0.12500 0.29534
v 0.73750 -0.01627 0.37877
v 1.01250 -0.12500 0.29534
v 1.01250 -0.01627 0.37877
v 0.73750 0.06716 0.48750
v 0.73750 0.11961 0.61412
v 1.01250 0.06716 0.48750
v 0.73750 -0.12500 1.20466
v 1.01250 -0.12500 1.20466
v 1.01250 -0.01627 1.12123
v 1.01250 0.11961 0.88588
v 1.01250 0.06716 1.01250
v 0.73750 0.06716 1.01250
v 0.73750 -0.01627 1.12123
v 0.73750 0.13750 0.75000
v 1.01250 0.11961 0.61412
v 1.01250 0.13750 0.75000
v 0.73750 0.11961 0.88588
v 0.73750 -0.96150 0.75760
v 1.01250 -0.96150 0.74240
v 0.73750 -0.96150 0.74240
v 1.01250 -0.96150 0.75760
v 0.73750 -0.33850 0.23145
v 0.73750 -0.33850 0.18145
v 1.01250 -0.33850 0.23145
v 1.01250 -0.33850 0.18145
v 0.73750 -0.33850 1.31855
v 0.73750 -0.33850 1.26855
v 1.01250 -0.33850 1.31855
v 1.01250 -0.33850 1.26855
vn -0.2265 -0.6887 -0.6887
vn -0.1877 -0.9641 -0.1877
vn -0.6887 -0.6887 -0.2265
vn -0.9641 -0.1877 -0.1877
vn -0.6887 -0.2265 -0.6887
vn -0.1877 -0.1877 -0.9641
vn -0.1877 -0.9641 0.1877
vn -0.6887 -0.6887 0.2265
vn -0.9641 -0.1877 0.1877
vn -0.2265 -0.6887 0.6887
vn -0.6887 -0.2265 0.6887
vn -0.1877 -0.1877 0.9641
vn 0.2265 -0.6887 -0.6887
vn 0.1877 -0.1877 -0.9641
vn 0.1877 -0.9641 0.1877
vn 0.1877 -0.1877 0.9641
vn -0.9641 0.1877 -0.1877
vn -0.1877 0.1877 -0.9641
vn -0.6887 0.2265 -0.6887
vn -0.6887 0.2265 0.6887
vn -0.1877 0.1877 0.9641
vn -0.9641 0.1877 0.1877
vn -0.6887 0.6887 -0.2265
vn -0.2265 0.6887 -0.6887
vn -0.1877 0.9641 -0.1877
vn -0.6887 0.6887 0.2265
vn -0.1877 0.9641 0.1877
vn -0.2265 0.6887 0.6887
vn 0.2265 0.6887 -0.6887
vn 0.1877 0.9641 -0.1877
vn 0.2265 0.6887 0.6887
vn 0.1877 -0.9641 -0.1877
vn 0.2265 -0.6887 0.6887
vn 0.6887 -0.6887 -0.2265
vn 0.6887 -0.2265 -0.6887
vn 0.9641 -0.1877 -0.1877
vn 0.6887 -0.6887 0.2265
vn 0.9641 -0.1877 0.1877
vn 0.6887 -0.2265 0.6887
vn 0.1877 0.1877 -0.9641
vn 0.1877 0.1877 0.9641
vn 0.1877 0.9641 0.1877
vn 0.9641 0.1877 -0.1877
vn 0.6887 0.2265 -0.6887
vn 0.6887 0.2265 0.6887
vn 0.9641 0.1877 0.1877
vn 0.6887 0.6887 -0.2265
vn 0.6887 0.6887 0.2265
vn -1.0000 0.0000 0.0000
vn -1.0000 0.0000 0.0000
vn -1.0000 0.0000 0.0000
vn 0.0000 0.0000 -1.0000
vn 0.0000 0.0000 -1.0000
vn 0.0000 0.3398 -0.9405
vn -1.0000 0.0000 0.0000
vn -1.0000 0.0000 0.0000
vn -1.0000 0.0000 0.0000
vn -1.0000 0.0000 0.0000
vn -1.0000 0.0000 0.0000
vn -1.0000 0.0000 0.0000
vn -1.0000 0.0000 0.0000
vn -1.0000 0.0000 0.0000
vn 0.0000 0.3398 -0.9405
vn 0.0000 0.6639 -0.7479
vn -1.0000 0.0000 0.0000
vn -1.0000 0.0000 0.0000
vn -1.0000 0.0000 0.0000
vn -1.0000 0.0000 0.0000
vn -1.0000 0.0000 0.0000
vn 0.0000 0.6639 -0.7479
vn 0.0000 0.7376 -0.6752
vn -0.0000 0.6478 0.7618
vn 0.0000 0.6478 0.7618
vn -0.0000 0.6398 0.7685
vn 0.0000 0.6853 0.7283
vn -0.0000 0.6853 0.7283
vn 0.0000 0.7376 -0.6752
vn 0.0000 0.8556 -0.5176
vn -0.0000 0.8556 -0.5176
vn -0.0000 0.9729 -0.2312
vn 0.0000 0.9729 -0.2312
vn 0.0000 0.9897 0.1430
vn 0.0000 0.9897 0.1430
vn 0.0000 0.8894 0.4571
vn -0.0000 0.7681 0.6404
vn -0.0000 0.7681 0.6404
vn -0.0000 0.8894 0.4571
vn -1.0000 0.0000 0.0000
vn -1.0000 0.0000 0.0000
vn -1.0000 0.0000 0.0000
vn 0.0000 -1.0000 0.0000
vn 0.0000 -1.0000 0.0000
vn 0.0000 -1.0000 0.0000
vn 0.0000 0.0000 1.0000
vn 0.0000 0.0000 1.0000
vn 0.0000 0.0000 1.0000
vn -0.0000 0.9732 0.2299
vn 0.0000 0.9732 0.2299
vn -0.0000 0.9694 0.2454
vn -0.0000 0.9801 0.1985
vn 0.0000 0.9801 0.1985
vn -0.0000 0.9768 0.2143
vn 0.0000 0.9847 0.1745
vn 0.0000 0.9847 0.1745
vn 0.0000 0.9832 0.1825
vn 0.0000 0.9832 0.1825
vn 0.0000 0.9768 0.2143
vn -0.0000 0.9694 0.2454
vn -0.0000 0.9675 0.2530
vn 1.0000 0.0000 0.0000
vn 1.0000 0.0000 0.0000
vn 1.0000 0.0000 0.0000
vn 0.0000 -1.0000 0.0000
vn 1.0000 0.0000 0.0000
vn 1.0000 0.0000 0.0000
vn 1.0000 0.0000 0.0000
vn 1.0000 0.0000 0.0000
vn 1.0000 0.0000 0.0000
vn 1.0000 0.0000 0.0000
vn 1.0000 0.0000 0.0000
vn 1.0000 0.0000 0.0000
vn 0.0000 0.6398 0.7685
vn 1.0000 0.0000 0.0000
vn 1.0000 0.0000 0.0000
vn 1.0000 0.0000 0.0000
vn 1.0000 0.0000 0.0000
vn 1.0000 0.0000 0.0000
vn 0.0000 0.0000 1.0000
vn 0.0000 0.9675 0.2530
vn 1.0000 0.0000 0.0000
vn 1.0000 0.0000 0.0000
vn 1.0000 0.0000 0.0000
vn -0.1877 -0.1877 -0.9641
vn -0.2265 -0.6887 -0.6887
vn -0.6887 -0.2265 -0.6887
vn -0.1877 0.1877 -0.9641
vn 0.1877 -0.1877 -0.9641
vn -0.1877 -0.9641 -0.1877
vn -0.6887 -0.6887 -0.2265
vn -0.9641 -0.1877 -0.1877
vn -0.6887 -0.6887 0.2265
vn -0.1877 -0.9641 0.1877
vn -0.6887 0.2265 -0.6887
vn 0.1877 -0.9641 -0.1877
vn -0.9641 -0.1877 0.1877
vn -0.2265 -0.6887 0.6887
vn -0.6887 -0.2265 0.6887
vn -0.1877 -0.1877 0.9641
vn -0.9641 0.1877 0.1877
vn -0.6887 0.2265 0.6887
vn 0.1877 -0.9641 0.1877
vn 0.1877 -0.1877 0.9641
vn -0.2265 0.6887 -0.6887
vn 0.2265 0.6887 -0.6887
vn -0.9641 0.1877 -0.1877
vn -0.6887 0.6887 -0.2265
vn -0.1877 0.9641 -0.1877
vn -0.1877 0.9641 0.1877
vn 0.1877 0.9641 -0.1877
vn -0.1877 0.1877 0.9641
vn -0.6887 0.6887 0.2265
vn -0.2265 0.6887 0.6887
vn 0.1877 0.1877 0.9641
vn 0.2265 0.6887 0.6887
vn 0.2265 -0.6887 -0.6887
vn 0.6887 -0.2265 -0.6887
vn 0.1877 0.1877 -0.9641
vn 0.6887 -0.6887 -0.2265
vn 0.9641 -0.1877 -0.1877
vn 0.6887 -0.6887 0.2265
vn 0.9641 0.1877 -0.1877
vn 0.9641 -0.1877 0.1877
vn 0.2265 -0.6887 0.6887
vn 0.6887 -0.2265 0.6887
vn 0.9641 0.1877 0.1877
vn 0.6887 0.2265 -0.6887
vn 0.6887 0.6887 -0.2265
vn 0.6887 0.6887 0.2265
vn 0.1877 0.9641 0.1877
vn 0.6887 0.2265 0.6887
vn -0.9641 -0.1877 -0.1877
vn -0.6887 -0.2265 -0.6887
vn -0.6887 -0.6887 -0.2265
vn -0.9641 0.1877 -0.1877
vn -0.6887 0.2265 -0.6887
vn -0.6887 0.6887 -0.2265
vn -0.1877 -0.9641 -0.1877
vn -0.2265 -0.6887 -0.6887
vn -0.1877 -0.1877 -0.9641
vn -0.1877 0.1877 -0.9641
vn -0.2265 0.6887 -0.6887
vn -0.6887 -0.6887 0.2265
vn -0.9641 0.1877 0.1877
vn -0.1877 0.9641 -0.1877
vn -0.6887 0.6887 0.2265
vn 0.1877 -0.9641 -0.1877
vn 0.1877 -0.1877 -0.9641
vn 0.2265 0.6887 -0.6887
vn -0.1877 -0.9641 0.1877
vn -0.1877 0.9641 0.1877
vn 0.1877 0.9641 -0.1877
vn -0.9641 -0.1877 0.1877
vn -0.6887 -0.2265 0.6887
vn -0.6887 0.2265 0.6887
vn -0.2265 -0.6887 0.6887
vn -0.1877 -0.1877 0.9641
vn -0.1877 0.1877 0.9641
vn -0.2265 0.6887 0.6887
vn 0.2265 -0.6887 0.6887
vn 0.1877 -0.1877 0.9641
vn 0.1877 0.1877 0.9641
vn 0.2265 0.6887 0.6887
vn 0.2265 -0.6887 -0.6887
vn 0.1877 0.1877 -0.9641
vn 0.6887 -0.6887 -0.2265
vn 0.6887 -0.2265 -0.6887
vn 0.6887 0.2265 -0.6887
vn 0.6887 0.6887 -0.2265
vn 0.9641 -0.1877 -0.1877
vn 0.9641 0.1877 -0.1877
vn 0.6887 -0.6887 0.2265
vn 0.9641 -0.1877 0.1877
vn 0.9641 0.1877 0.1877
vn 0.1877 0.9641 0.1877
vn 0.1877 -0.9641 0.1877
vn 0.6887 0.6887 0.2265
vn 0.6887 -0.2265 0.6887
vn 0.6887 0.2265 0.6887
vn -0.9641 -0.1877 -0.1877
vn -0.6887 -0.2265 -0.6887
vn -0.6887 -0.6887 -0.2265
vn -0.2265 -0.6887 -0.6887
vn -0.1877 -0.9641 -0.1877
vn -0.1877 -0.1877 -0.9641
vn -0.6887 0.2265 -0.6887
vn -0.6887 -0.6887 0.2265
vn -0.9641 -0.1877 0.1877
vn -0.9641 0.1877 -0.1877
vn -0.1877 0.1877 -0.9641
vn -0.6887 0.6887 -0.2265
vn -0.2265 0.6887 -0.6887
vn -0.1877 0.9641 -0.1877
vn -0.6887 0.6887 0.2265
vn 0.1877 -0.9641 -0.1877
vn 0.1877 -0.1877 -0.9641
vn -0.1877 -0.9641 0.1877
vn 0.1877 0.1877 -0.9641
vn 0.2265 0.6887 -0.6887
vn -0.6887 -0.2265 0.6887
vn -0.2265 -0.6887 0.6887
vn -0.1877 -0.1877 0.9641
vn -0.6887 0.2265 0.6887
vn -0.9641 0.1877 0.1877
vn -0.1877 0.9641 0.1877
vn -0.1877 0.1877 0.9641
vn -0.2265 0.6887 0.6887
vn 0.2265 -0.6887 0.6887
vn 0.1877 0.9641 0.1877
vn 0.1877 0.1877 0.9641
vn 0.2265 -0.6887 -0.6887
vn 0.1877 0.9641 -0.1877
vn 0.6887 -0.6887 -0.2265
vn 0.6887 -0.2265 -0.6887
vn 0.9641 -0.1877 -0.1877
vn 0.9641 0.1877 -0.1877
vn 0.6887 -0.6887 0.2265
vn 0.9641 -0.1877 0.1877
vn 0.6887 0.2265 -0.6887
vn 0.6887 0.6887 -0.2265
vn 0.9641 0.1877 0.1877
vn 0.1877 -0.9641 0.1877
vn 0.1877 -0.1877 0.9641
vn 0.2265 0.6887 0.6887
vn 0.6887 -0.2265 0.6887
vn 0.6887 0.2265 0.6887
vn 0.6887 0.6887 0.2265
vn 0.0000 0.0000 -1.0000
vn 0.0000 0.0000 -1.0000
vn 0.0000 0.0000 -1.0000
vn -1.0000 0.0000 0.0000
vn -1.0000 0.0000 0.0000
vn -1.0000 0.0000 0.0000
vn 0.0000 0.9906 -0.1366
vn 0.0000 0.9906 -0.1366
vn 0.0000 0.9906 -0.1366
vn -1.0000 0.0000 0.0000
vn 0.0000 -0.9906 0.1366
vn 0.0000 -0.9906 0.1366
vn 0.0000 -0.9906 0.1366
vn 0.0000 0.0000 1.0000
vn 0.0000 0.0000 1.0000
vn 0.0000 0.0000 1.0000
vn 0.0000 0.0000 -1.0000
vn 0.0000 -0.9906 0.1366
vn 1.0000 0.0000 0.0000
vn 1.0000 0.0000 0.0000
vn 1.0000 0.0000 0.0000
vn 0.0000 0.9906 -0.1366
vn 1.0000 0.0000 0.0000
vn 0.0000 0.0000 1.0000
vn -0.6887 -0.2265 -0.6887
vn -0.6887 -0.6887 -0.2265
vn -0.9641 -0.1877 -0.1877
vn -0.2265 -0.6887 -0.6887
vn -0.1877 -0.9641 -0.1877
vn -0.1877 -0.1877 -0.9641
vn -0.6887 0.2265 -0.6887
vn -0.9641 0.1877 -0.1877
vn -0.1877 0.1877 -0.9641
vn -0.6887 0.6887 -0.2265
vn -0.2265 0.6887 -0.6887
vn -0.1877 0.9641 -0.1877
vn 0.1877 -0.9641 -0.1877
vn 0.1877 -0.1877 -0.9641
vn 0.1877 0.1877 -0.9641
vn 0.1877 0.9641 -0.1877
vn -0.6887 -0.6887 0.2265
vn -0.9641 -0.1877 0.1877
vn -0.1877 -0.9641 0.1877
vn -0.6887 -0.2265 0.6887
vn -0.2265 -0.6887 0.6887
vn -0.1877 -0.1877 0.9641
vn -0.9641 0.1877 0.1877
vn -0.6887 0.2265 0.6887
vn -0.1877 0.1877 0.9641
vn -0.6887 0.6887 0.2265
vn -0.1877 0.9641 0.1877
vn -0.2265 0.6887 0.6887
vn 0.1877 -0.9641 0.1877
vn 0.2265 -0.6887 0.6887
vn 0.1877 -0.1877 0.9641
vn 0.2265 0.6887 0.6887
vn 0.2265 -0.6887 -0.6887
vn 0.2265 0.6887 -0.6887
vn 0.6887 -0.6887 -0.2265
vn 0.6887 -0.2265 -0.6887
vn 0.9641 -0.1877 -0.1877
vn 0.9641 0.1877 -0.1877
vn 0.6887 0.2265 -0.6887
vn 0.6887 0.6887 -0.2265
vn 0.1877 0.1877 0.9641
vn 0.1877 0.9641 0.1877
vn 0.6887 -0.6887 0.2265
vn 0.9641 -0.1877 0.1877
vn 0.6887 -0.2265 0.6887
vn 0.9641 0.1877 0.1877
vn 0.6887 0.2265 0.6887
vn 0.6887 0.6887 0.2265
vn -1.0000 0.0000 0.0000
vn -1.0000 0.0000 0.0000
vn -1.0000 0.0000 0.0000
vn -0.0000 -1.0000 0.0000
vn 0.0000 -0.9914 -0.1305
vn -0.0000 -0.9914 -0.1305
vn 0.0000 -1.0000 0.0000
vn 0.0000 -0.9914 0.1305
vn 0.0000 -0.9914 0.1305
vn 1.0000 0.0000 0.0000
vn 1.0000 0.0000 0.0000
vn 1.0000 0.0000 0.0000
vn -1.0000 0.0000 0.0000
vn -1.0000 0.0000 0.0000
vn -1.0000 0.0000 0.0000
vn -1.0000 0.0000 0.0000
vn 0.0000 0.2588 -0.9659
vn 0.0000 0.2588 -0.9659
vn 0.0000 0.1305 -0.9914
vn 0.0000 0.1305 -0.9914
vn 1.0000 0.0000 0.0000
vn 1.0000 0.0000 0.0000
vn 1.0000 0.0000 0.0000
vn 1.0000 0.0000 0.0000
vn -1.0000 0.0000 0.0000
vn -1.0000 0.0000 0.0000
vn -1.0000 0.0000 0.0000
vn 0.0000 0.2588 0.9659
vn 0.0000 0.1305 0.9914
vn 0.0000 0.1305 0.9914
vn 0.0000 0.2588 0.9659
vn 1.0000 0.0000 0.0000
vn 1.0000 0.0000 0.0000
vn 1.0000 0.0000 0.0000
vn -1.0000 0.0000 0.0000
vn 0.0000 0.5000 -0.8660
vn -1.0000 0.0000 0.0000
vn 0.0000 0.5000 -0.8660
vn -1.0000 0.0000 0.0000
vn -1.0000 0.0000 0.0000
vn 0.0000 0.7071 -0.7071
vn 0.0000 0.8660 -0.5000
vn 0.0000 0.7071 -0.7071
vn -1.0000 0.0000 0.0000
vn -1.0000 0.0000 0.0000
vn 0.0000 0.8660 -0.5000
vn 1.0000 0.0000 0.0000
vn 1.0000 0.0000 0.0000
vn 1.0000 0.0000 0.0000
vn 1.0000 0.0000 0.0000
vn 1.0000 0.0000 0.0000
vn 1.0000 0.0000 0.0000
vn -1.0000 0.0000 0.0000
vn -1.0000 0.0000 0.0000
vn -1.0000 0.0000 0.0000
vn 0.0000 0.5000 0.8660
vn 0.0000 0.5000 0.8660
vn -1.0000 0.0000 0.0000
vn -1.0000 0.0000 0.0000
vn 0.0000 0.7071 0.7071
vn -0.0000 0.7071 0.7071
vn -1.0000 0.0000 0.0000
vn -1.0000 0.0000 0.0000
vn -0.0000 0.8660 0.5000
vn 0.0000 0.8660 0.5000
vn 1.0000 0.0000 0.0000
vn 1.0000 0.0000 0.0000
vn 1.0000 0.0000 0.0000
vn 1.0000 0.0000 0.0000
vn 1.0000 0.0000 0.0000
vn 1.0000 0.0000 0.0000
vn 1.0000 0.0000 0.0000
vn -1.0000 0.0000 0.0000
vn 0.0000 0.9659 -0.2588
vn -1.0000 0.0000 0.0000
vn -1.0000 0.0000 0.0000
vn -1.0000 0.0000 0.0000
vn 0.0000 1.0000 0.0000
vn 0.0000 0.9659 -0.2588
vn 0.0000 1.0000 -0.0000
vn 1.0000 0.0000 0.0000
vn 1.0000 0.0000 0.0000
vn 1.0000 0.0000 0.0000
vn 1.0000 0.0000 0.0000
vn -1.0000 0.0000 0.0000
vn -1.0000 0.0000 0.0000
vn 0.0000 0.9659 0.2588
vn 0.0000 0.9659 0.2588
vn 1.0000 0.0000 0.0000
vn 1.0000 0.0000 0.0000
vn 0.0000 -0.1305 0.9914
vn 0.0000 -0.1305 0.9914
vn 0.0000 -0.2588 0.9659
vn 0.0000 -0.2588 0.9659
vn 0.0000 -0.1305 -0.9914
vn 0.0000 -0.2588 -0.9659
vn 0.0000 -0.2588 -0.9659
vn 0.0000 -0.1305 -0.9914
vn 0.0000 -0.5000 0.8660
vn 0.0000 -0.7071 0.7071
vn 0.0000 -0.5000 0.8660
vn 0.0000 -0.7071 0.7071
vn 0.0000 -0.8660 0.5000
vn -0.0000 -0.9659 0.2588
vn -0.0000 -0.8660 0.5000
vn 0.0000 -0.5000 -0.8660
vn 0.0000 -0.5000 -0.8660
vn 0.0000 -0.7071 -0.7071
vn 0.0000 -0.9659 -0.2588
vn 0.0000 -0.8660 -0.5000
vn 0.0000 -0.8660 -0.5000
vn 0.0000 -0.7071 -0.7071
vn 0.0000 -1.0000 -0.0000
vn 0.0000 -0.9659 0.2588
vn 0.0000 -1.0000 0.0000
vn 0.0000 -0.9659 -0.2588
vn 0.0000 1.0000 0.0000
vn 0.0000 1.0000 0.0000
vn 0.0000 1.0000 0.0000
vn 0.0000 1.0000 0.0000
vn 0.0000 -1.0000 0.0000
vn 0.0000 -1.0000 0.0000
vn 0.0000 -1.0000 0.0000
vn 0.0000 -1.0000 0.0000
vn 0.0000 -1.0000 0.0000
vn 0.0000 -1.0000 0.0000
vn 0.0000 -1.0000 0.0000
vn 0.0000 -1.0000 0.0000
vn -1.0000 0.0000 0.0000
vn -1.0000 0.0000 0.0000
vn -1.0000 0.0000 0.0000
vn -0.0000 -1.0000 0.0000
vn 0.0000 -0.9914 -0.1305
vn -0.0000 -0.9914 -0.1305
vn 0.0000 -1.0000 0.0000
vn 0.0000 -0.9914 0.1305
vn 0.0000 -0.9914 0.1305
vn 1.0000 0.0000 0.0000
vn 1.0000 0.0000 0.0000
vn 1.0000 0.0000 0.0000
vn -1.0000 0.0000 0.0000
vn -1.0000 0.0000 0.0000
vn -1.0000 0.0000 0.0000
vn -1.0000 0.0000 0.0000
vn 0.0000 0.2588 -0.9659
vn 0.0000 0.2588 -0.9659
vn 0.0000 0.1305 -0.9914
vn 0.0000 0.1305 -0.9914
vn 1.0000 0.0000 0.0000
vn 1.0000 0.0000 0.0000
vn 1.0000 0.0000 0.0000
vn 1.0000 0.0000 0.0000
vn -1.0000 0.0000 0.0000
vn -1.0000 0.0000 0.0000
vn -1.0000 0.0000 0.0000
vn 0.0000 0.2588 0.9659
vn 0.0000 0.1305 0.9914
vn 0.0000 0.1305 0.9914
vn 0.0000 0.2588 0.9659
vn 1.0000 0.0000 0.0000
vn 1.0000 0.0000 0.0000
vn 1.0000 0.0000 0.0000
vn -1.0000 0.0000 0.0000
vn -1.0000 0.0000 0.0000
vn -1.0000 0.0000 0.0000
vn -1.0000 0.0000 0.0000
vn -1.0000 0.0000 0.0000
vn -1.0000 0.0000 0.0000
vn 0.0000 0.5000 -0.8660
vn 1.0000 0.0000 0.0000
vn 0.0000 0.5000 -0.8660
vn 1.0000 0.0000 0.0000
vn 0.0000 0.7071 -0.7071
vn 0.0000 0.8660 -0.5000
vn 0.0000 0.7071 -0.7071
vn 1.0000 0.0000 0.0000
vn 1.0000 0.0000 0.0000
vn 1.0000 0.0000 0.0000
vn 0.0000 0.8660 -0.5000
vn 1.0000 0.0000 0.0000
vn -1.0000 0.0000 0.0000
vn -1.0000 0.0000 0.0000
vn -1.0000 0.0000 0.0000
vn -1.0000 0.0000 0.0000
vn -1.0000 0.0000 0.0000
vn -1.0000 0.0000 0.0000
vn -1.0000 0.0000 0.0000
vn 0.0000 0.5000 0.8660
vn 0.0000 0.5000 0.8660
vn 1.0000 0.0000 0.0000
vn 1.0000 0.0000 0.0000
vn 1.0000 0.0000 0.0000
vn 0.0000 0.7071 0.7071
vn -0.0000 0.7071 0.7071
vn -0.0000 0.8660 0.5000
vn 0.0000 0.8660 0.5000
vn 1.0000 0.0000 0.0000
vn 1.0000 0.0000 0.0000
vn 1.0000 0.0000 0.0000
vn 1.0000 0.0000 0.0000
vn -1.0000 0.0000 0.0000
vn -1.0000 0.0000 0.0000
vn -1.0000 0.0000 0.0000
vn -1.0000 0.0000 0.0000
vn 0.0000 0.9659 -0.2588
vn 0.0000 1.0000 0.0000
vn 0.0000 0.9659 -0.2588
vn 1.0000 0.0000 0.0000
vn 1.0000 0.0000 0.0000
vn 1.0000 0.0000 0.0000
vn 1.0000 0.0000 0.0000
vn 0.0000 1.0000 -0.0000
vn -1.0000 0.0000 0.0000
vn -1.0000 0.0000 0.0000
vn 0.0000 0.9659 0.2588
vn 0.0000 0.9659 0.2588
vn 1.0000 0.0000 0.0000
vn 1.0000 0.0000 0.0000
vn 0.0000 -0.1305 0.9914
vn 0.0000 -0.1305 0.9914
vn 0.0000 -0.2588 0.9659
vn 0.0000 -0.2588 0.9659
vn 0.0000 -0.1305 -0.9914
vn 0.0000 -0.2588 -0.9659
vn 0.0000 -0.2588 -0.9659
vn 0.0000 -0.1305 -0.9914
vn 0.0000 -0.5000 0.8660
vn 0.0000 -0.7071 0.7071
vn 0.0000 -0.5000 0.8660
vn 0.0000 -0.7071 0.7071
vn 0.0000 -0.8660 0.5000
vn -0.0000 -0.9659 0.2588
vn -0.0000 -0.8660 0.5000
vn 0.0000 -0.5000 -0.8660
vn 0.0000 -0.5000 -0.8660
vn 0.0000 -0.7071 -0.7071
vn 0.0000 -0.9659 -0.2588
vn 0.0000 -0.8660 -0.5000
vn 0.0000 -0.8660 -0.5000
vn 0.0000 -0.7071 -0.7071
vn 0.0000 -1.0000 -0.0000
vn 0.0000 -0.9659 0.2588
vn 0.0000 -1.0000 0.0000
vn 0.0000 -0.9659 -0.2588
vn 0.0000 1.0000 0.0000
vn 0.0000 1.0000 0.0000
vn 0.0000 1.0000 0.0000
vn 0.0000 1.0000 0.0000
vn 0.0000 -1.0000 0.0000
vn 0.0000 -1.0000 0.0000
vn 0.0000 -1.0000 0.0000
vn 0.0000 -1.0000 0.0000
vn 0.0000 -1.0000 0.0000
vn 0.0000 -1.0000 0.0000
vn 0.0000 -1.0000 0.0000
vn 0.0000 -1.0000 0.0000
f 1//1 2//2 3//3
f 4//4 5//5 3//3
f 5//5 1//1 3//3
f 5//5 6//6 1//1
f 3//3 2//2 7//7
f 4//4 3//3 8//8
f 3//3 7//7 8//8
f 9//9 4//4 8//8
f 7//7 10//10 8//8
f 8//8 11//11 9//9
f 8//8 10//10 11//11
f 12//12 11//11 10//10
f 1//1 13//13 2//2
f 14//14 1//1 6//6
f 15//15 7//7 2//2
f 15//15 10//10 7//7
f 10//10 16//16 12//12
f 4//4 17//17 5//5
f 18//18 6//6 5//5
f 4//4 9//9 17//17
f 5//5 17//17 19//19
f 5//5 19//19 18//18
f 9//9 11//11 20//20
f 21//21 11//11 12//12
f 22//22 17//17 9//9
f 22//22 9//9 20//20
f 11//11 21//21 20//20
f 17//17 23//23 19//19
f 19//19 24//24 18//18
f 23//23 24//24 19//19
f 24//24 23//23 25//25
f 26//26 23//23 17//17
f 27//27 25//25 23//23
f 22//22 26//26 17//17
f 27//27 23//23 26//26
f 26//26 22//22 20//20
f 21//21 28//28 20//20
f 28//28 26//26 20//20
f 28//28 27//27 26//26
f 18//18 14//14 6//6
f 16//16 21//21 12//12
f 29//29 18//18 24//24
f 25//25 29//29 24//24
f 25//25 27//27 30//30
f 28//28 21//21 31//31
f 27//27 28//28 31//31
f 32//32 2//2 13//13
f 1//1 14//14 13//13
f 15//15 2//2 32//32
f 15//15 33//33 10//10
f 10//10 33//33 16//16
f 13//13 34//34 32//32
f 13//13 35//35 34//34
f 14//14 35//35 13//13
f 34//34 35//35 36//36
f 34//34 15//15 32//32
f 36//36 37//37 34//34
f 37//37 15//15 34//34
f 36//36 38//38 37//37
f 33//33 15//15 37//37
f 39//39 33//33 37//37
f 16//16 33//33 39//39
f 39//39 37//37 38//38
f 14//14 18//18 40//40
f 21//21 16//16 41//41
f 40//40 18//18 29//29
f 29//29 25//25 30//30
f 27//27 42//42 30//30
f 31//31 21//21 41//41
f 27//27 31//31 42//42
f 35//35 14//14 40//40
f 43//43 36//36 35//35
f 36//36 43//43 38//38
f 35//35 40//40 44//44
f 43//43 35//35 44//44
f 16//16 39//39 45//45
f 39//39 38//38 46//46
f 46//46 38//38 43//43
f 16//16 45//45 41//41
f 39//39 46//46 45//45
f 40//40 29//29 44//44
f 47//47 43//43 44//44
f 29//29 47//47 44//44
f 47//47 29//29 30//30
f 47//47 46//46 43//43
f 47//47 30//30 42//42
f 47//47 42//42 48//48
f 46//46 47//47 48//48
f 41//41 45//45 31//31
f 45//45 46//46 48//48
f 31//31 45//45 48//48
f 48//48 42//42 31//31
f 49//49 50//50 51//51
f 52//52 53//53 54//54
f 55//55 49//49 56//56
f 57//57 49//49 58//58
f 58//58 49//49 59//59
f 59//59 49//49 60//60
f 60//60 49//49 61//61
f 61//61 49//49 55//55
f 62//62 50//50 49//49
f 63//63 54//54 64//64
f 62//62 49//49 65//65
f 65//65 49//49 66//66
f 66//66 49//49 67//67
f 68//68 49//49 57//57
f 69//69 49//49 68//68
f 67//67 49//49 69//69
f 70//70 64//64 71//71
f 72//72 73//73 74//74
f 75//75 76//76 73//73
f 77//77 71//71 78//78
f 79//79 78//78 80//80
f 81//81 80//80 82//82
f 83//83 82//82 84//84
f 85//85 86//86 76//76
f 87//87 84//84 86//86
f 55//55 56//56 88//88
f 88//88 56//56 89//89
f 89//89 56//56 90//90
f 91//91 92//92 93//93
f 94//94 95//95 96//96
f 97//97 98//98 99//99
f 100//100 101//101 102//102
f 103//103 104//104 105//105
f 106//106 105//105 101//101
f 107//107 102//102 98//98
f 108//108 99//99 109//109
f 63//63 52//52 54//54
f 110//110 111//111 112//112
f 113//113 91//91 93//93
f 114//114 115//115 110//110
f 116//116 117//117 110//110
f 117//117 118//118 110//110
f 118//118 119//119 110//110
f 119//119 120//120 110//110
f 120//120 114//114 110//110
f 70//70 63//63 64//64
f 121//121 110//110 112//112
f 77//77 70//70 71//71
f 122//122 72//72 74//74
f 72//72 75//75 73//73
f 75//75 85//85 76//76
f 79//79 77//77 78//78
f 81//81 79//79 80//80
f 87//87 83//83 84//84
f 83//83 81//81 82//82
f 85//85 87//87 86//86
f 121//121 123//123 110//110
f 123//123 124//124 110//110
f 124//124 125//125 110//110
f 126//126 116//116 110//110
f 127//127 126//126 110//110
f 125//125 127//127 110//110
f 128//128 94//94 96//96
f 100//100 106//106 101//101
f 106//106 103//103 105//105
f 107//107 100//100 102//102
f 97//97 107//107 98//98
f 129//129 108//108 109//109
f 108//108 97//97 99//99
f 114//114 130//130 115//115
f 130//130 131//131 115//115
f 131//131 132//132 115//115
f 133//133 134//134 135//135
f 133//133 135//135 136//136
f 133//133 137//137 134//134
f 133//133 136//136 137//137
f 134//134 138//138 139//139
f 134//134 139//139 135//135
f 139//139 140//140 135//135
f 141//141 140//140 139//139
f 142//142 139//139 138//138
f 135//135 140//140 143//143
f 144//144 138//138 134//134
f 144//144 142//142 138//138
f 139//139 142//142 141//141
f 145//145 140//140 141//141
f 142//142 146//146 141//141
f 141//141 146//146 147//147
f 141//141 147//147 145//145
f 146//146 148//148 147//147
f 149//149 140//140 145//145
f 147//147 149//149 145//145
f 148//148 150//150 147//147
f 146//146 142//142 151//151
f 152//152 148//148 146//146
f 136//136 135//135 143//143
f 143//143 153//153 136//136
f 136//136 153//153 154//154
f 155//155 143//143 140//140
f 149//149 155//155 140//140
f 155//155 156//156 143//143
f 156//156 153//153 143//143
f 156//156 157//157 153//153
f 149//149 156//156 155//155
f 156//156 158//158 157//157
f 157//157 159//159 153//153
f 157//157 158//158 159//159
f 150//150 149//149 147//147
f 148//148 160//160 150//150
f 149//149 161//161 156//156
f 156//156 161//161 158//158
f 149//149 150//150 161//161
f 150//150 160//160 162//162
f 161//161 150//150 162//162
f 158//158 161//161 162//162
f 148//148 163//163 160//160
f 158//158 162//162 164//164
f 160//160 164//164 162//162
f 134//134 137//137 165//165
f 137//137 166//166 165//165
f 166//166 137//137 167//167
f 134//134 165//165 144//144
f 165//165 168//168 144//144
f 166//166 168//168 165//165
f 168//168 166//166 169//169
f 170//170 144//144 168//168
f 169//169 170//170 168//168
f 171//171 169//169 166//166
f 169//169 171//171 172//172
f 142//142 144//144 151//151
f 146//146 151//151 173//173
f 152//152 146//146 173//173
f 148//148 152//152 163//163
f 151//151 144//144 170//170
f 170//170 169//169 172//172
f 170//170 173//173 151//151
f 170//170 174//174 173//173
f 170//170 172//172 174//174
f 174//174 152//152 173//173
f 174//174 172//172 175//175
f 163//163 152//152 174//174
f 136//136 167//167 137//137
f 167//167 136//136 154//154
f 176//176 166//166 167//167
f 176//176 167//167 154//154
f 153//153 159//159 154//154
f 171//171 166//166 176//176
f 177//177 171//171 176//176
f 177//177 176//176 154//154
f 159//159 177//177 154//154
f 159//159 178//178 177//177
f 177//177 178//178 171//171
f 159//159 158//158 179//179
f 160//160 163//163 164//164
f 158//158 164//164 179//179
f 171//171 175//175 172//172
f 174//174 175//175 180//180
f 163//163 174//174 180//180
f 171//171 178//178 175//175
f 178//178 159//159 179//179
f 180//180 175//175 178//178
f 164//164 163//163 180//180
f 178//178 164//164 180//180
f 179//179 164//164 178//178
f 181//181 182//182 183//183
f 182//182 181//181 184//184
f 182//182 184//184 185//185
f 184//184 186//186 185//185
f 187//187 183//183 188//188
f 188//188 183//183 182//182
f 189//189 188//188 182//182
f 189//189 185//185 190//190
f 185//185 189//189 182//182
f 185//185 186//186 191//191
f 190//190 185//185 191//191
f 192//192 181//181 183//183
f 181//181 193//193 184//184
f 193//193 186//186 184//184
f 187//187 192//192 183//183
f 186//186 194//194 191//191
f 186//186 195//195 194//194
f 196//196 187//187 188//188
f 188//188 189//189 197//197
f 189//189 190//190 197//197
f 198//198 190//190 191//191
f 187//187 196//196 199//199
f 194//194 198//198 191//191
f 200//200 201//201 194//194
f 181//181 192//192 202//202
f 193//193 181//181 202//202
f 193//193 195//195 186//186
f 187//187 199//199 192//192
f 192//192 203//203 202//202
f 204//204 202//202 203//203
f 202//202 204//204 193//193
f 204//204 195//195 193//193
f 199//199 205//205 192//192
f 205//205 203//203 192//192
f 203//203 205//205 206//206
f 204//204 203//203 206//206
f 207//207 204//204 206//206
f 195//195 204//204 208//208
f 204//204 207//207 208//208
f 194//194 195//195 200//200
f 200//200 195//195 208//208
f 205//205 199//199 209//209
f 206//206 205//205 210//210
f 206//206 211//211 207//207
f 207//207 212//212 208//208
f 212//212 200//200 208//208
f 196//196 188//188 213//213
f 213//213 188//188 197//197
f 197//197 190//190 214//214
f 190//190 198//198 214//214
f 201//201 198//198 194//194
f 215//215 196//196 213//213
f 215//215 213//213 216//216
f 213//213 197//197 216//216
f 217//217 197//197 214//214
f 197//197 217//217 216//216
f 198//198 217//217 214//214
f 198//198 218//218 217//217
f 215//215 216//216 219//219
f 216//216 217//217 219//219
f 219//219 217//217 220//220
f 217//217 218//218 220//220
f 221//221 196//196 215//215
f 215//215 219//219 222//222
f 220//220 223//223 219//219
f 218//218 223//223 220//220
f 201//201 218//218 198//198
f 218//218 201//201 224//224
f 225//225 199//199 196//196
f 225//225 209//209 199//199
f 209//209 210//210 205//205
f 211//211 206//206 210//210
f 207//207 211//211 212//212
f 224//224 201//201 200//200
f 224//224 200//200 212//212
f 196//196 221//221 225//225
f 222//222 221//221 215//215
f 219//219 223//223 222//222
f 223//223 218//218 226//226
f 225//225 221//221 209//209
f 221//221 227//227 209//209
f 227//227 210//210 209//209
f 210//210 227//227 211//211
f 211//211 227//227 228//228
f 228//228 226//226 212//212
f 211//211 228//228 212//212
f 221//221 222//222 227//227
f 223//223 227//227 222//222
f 228//228 227//227 223//223
f 223//223 226//226 228//228
f 218//218 224//224 226//226
f 212//212 226//226 224//224
f 229//229 230//230 231//231
f 232//232 231//231 230//230
f 232//232 233//233 231//231
f 234//234 232//232 230//230
f 235//235 230//230 229//229
f 235//235 234//234 230//230
f 233//233 236//236 231//231
f 236//236 229//229 231//231
f 237//237 238//238 229//229
f 229//229 238//238 235//235
f 235//235 239//239 234//234
f 238//238 240//240 235//235
f 235//235 240//240 241//241
f 241//241 239//239 235//235
f 240//240 242//242 241//241
f 243//243 240//240 238//238
f 243//243 242//242 240//240
f 232//232 244//244 233//233
f 232//232 234//234 245//245
f 233//233 244//244 246//246
f 247//247 234//234 239//239
f 248//248 239//239 241//241
f 242//242 248//248 241//241
f 229//229 236//236 237//237
f 233//233 246//246 236//236
f 237//237 236//236 249//249
f 249//249 236//236 250//250
f 236//236 246//246 250//250
f 250//250 251//251 249//249
f 252//252 237//237 249//249
f 251//251 252//252 249//249
f 253//253 238//238 237//237
f 243//243 238//238 253//253
f 242//242 243//243 254//254
f 237//237 252//252 253//253
f 255//255 252//252 251//251
f 252//252 243//243 253//253
f 256//256 243//243 252//252
f 256//256 252//252 255//255
f 243//243 256//256 254//254
f 246//246 257//257 250//250
f 250//250 257//257 251//251
f 258//258 242//242 254//254
f 251//251 259//259 255//255
f 259//259 256//256 255//255
f 256//256 258//258 254//254
f 244//244 232//232 260//260
f 232//232 245//245 260//260
f 245//245 234//234 247//247
f 248//248 247//247 239//239
f 242//242 261//261 248//248
f 258//258 261//261 242//242
f 244//244 260//260 262//262
f 260//260 245//245 263//263
f 260//260 263//263 262//262
f 262//262 263//263 264//264
f 245//245 247//247 263//263
f 264//264 263//263 265//265
f 266//266 244//244 262//262
f 262//262 264//264 267//267
f 263//263 247//247 268//268
f 265//265 263//263 268//268
f 247//247 248//248 268//268
f 261//261 269//269 248//248
f 269//269 265//265 268//268
f 269//269 268//268 248//248
f 270//270 264//264 265//265
f 261//261 258//258 269//269
f 265//265 269//269 270//270
f 246//246 244//244 271//271
f 271//271 257//257 246//246
f 272//272 251//251 257//257
f 272//272 259//259 251//251
f 256//256 259//259 273//273
f 258//258 256//256 273//273
f 244//244 266//266 271//271
f 267//267 266//266 262//262
f 264//264 270//270 267//267
f 266//266 257//257 271//271
f 272//272 257//257 274//274
f 266//266 267//267 274//274
f 266//266 274//274 257//257
f 259//259 272//272 274//274
f 274//274 267//267 275//275
f 269//269 258//258 276//276
f 270//270 269//269 276//276
f 275//275 267//267 270//270
f 259//259 274//274 275//275
f 273//273 259//259 275//275
f 273//273 276//276 258//258
f 276//276 275//275 270//270
f 273//273 275//275 276//276
f 277//277 278//278 279//279
f 280//280 281//281 282//282
f 283//283 284//284 285//285
f 282//282 281//281 286//286
f 287//287 288//288 289//289
f 290//290 291//291 292//292
f 293//293 277//277 279//279
f 294//294 287//287 289//289
f 295//295 296//296 297//297
f 298//298 283//283 285//285
f 296//296 299//299 297//297
f 300//300 290//290 292//292
f 301//301 302//302 303//303
f 304//304 305//305 302//302
f 304//304 302//302 301//301
f 306//306 304//304 301//301
f 303//303 307//307 301//301
f 307//307 306//306 301//301
f 307//307 303//303 308//308
f 306//306 307//307 309//309
f 308//308 310//310 307//307
f 309//309 307//307 311//311
f 307//307 310//310 311//311
f 311//311 310//310 312//312
f 313//313 305//305 304//304
f 304//304 306//306 314//314
f 315//315 306//306 309//309
f 311//311 315//315 309//309
f 316//316 311//311 312//312
f 303//303 302//302 317//317
f 305//305 317//317 302//302
f 303//303 317//317 318//318
f 319//319 317//317 305//305
f 318//318 317//317 320//320
f 321//321 317//317 319//319
f 317//317 321//321 320//320
f 321//321 322//322 320//320
f 303//303 318//318 323//323
f 324//324 318//318 320//320
f 322//322 324//324 320//320
f 303//303 323//323 308//308
f 324//324 323//323 318//318
f 324//324 322//322 325//325
f 323//323 310//310 308//308
f 326//326 312//312 310//310
f 323//323 326//326 310//310
f 326//326 327//327 312//312
f 324//324 326//326 323//323
f 328//328 324//324 325//325
f 326//326 324//324 328//328
f 326//326 328//328 327//327
f 319//319 305//305 329//329
f 330//330 321//321 319//319
f 330//330 322//322 321//321
f 322//322 331//331 325//325
f 327//327 316//316 312//312
f 332//332 328//328 325//325
f 332//332 327//327 328//328
f 304//304 333//333 313//313
f 333//333 304//304 314//314
f 306//306 315//315 314//314
f 311//311 334//334 315//315
f 311//311 316//316 334//334
f 335//335 313//313 333//333
f 336//336 335//335 333//333
f 314//314 336//336 333//333
f 335//335 336//336 337//337
f 314//314 315//315 336//336
f 338//338 337//337 336//336
f 336//336 315//315 339//339
f 338//338 336//336 339//339
f 315//315 334//334 339//339
f 338//338 339//339 340//340
f 334//334 340//340 339//339
f 340//340 334//334 316//316
f 329//329 305//305 313//313
f 330//330 319//319 329//329
f 331//331 322//322 330//330
f 325//325 331//331 341//341
f 342//342 316//316 327//327
f 332//332 325//325 341//341
f 342//342 327//327 332//332
f 329//329 313//313 335//335
f 337//337 343//343 335//335
f 335//335 343//343 329//329
f 343//343 337//337 344//344
f 343//343 330//330 329//329
f 343//343 345//345 330//330
f 330//330 345//345 331//331
f 345//345 343//343 344//344
f 344//344 337//337 346//346
f 331//331 345//345 341//341
f 344//344 346//346 345//345
f 338//338 346//346 337//337
f 345//345 347//347 341//341
f 345//345 346//346 347//347
f 348//348 346//346 338//338
f 316//316 348//348 340//340
f 348//348 338//338 340//340
f 316//316 342//342 348//348
f 347//347 332//332 341//341
f 346//346 348//348 347//347
f 332//332 347//347 348//348
f 342//342 332//332 348//348
f 349//349 350//350 351//351
f 352//352 353//353 354//354
f 352//352 355//355 356//356
f 352//352 354//354 355//355
f 355//355 357//357 356//356
f 358//358 359//359 360//360
f 361//361 362//362 363//363
f 361//361 363//363 364//364
f 365//365 366//366 367//367
f 366//366 368//368 367//367
f 369//369 370//370 371//371
f 369//369 372//372 370//370
f 373//373 374//374 375//375
f 376//376 377//377 378//378
f 376//376 378//378 379//379
f 380//380 381//381 382//382
f 361//361 364//364 383//383
f 365//365 384//384 366//366
f 361//361 383//383 385//385
f 384//384 386//386 366//366
f 385//385 383//383 387//387
f 388//388 385//385 387//387
f 389//389 386//386 384//384
f 389//389 390//390 391//391
f 389//389 391//391 386//386
f 388//388 387//387 392//392
f 388//388 392//392 393//393
f 390//390 394//394 391//391
f 369//369 395//395 372//372
f 395//395 396//396 372//372
f 397//397 396//396 395//395
f 397//397 398//398 396//396
f 397//397 399//399 398//398
f 399//399 400//400 398//398
f 401//401 374//374 373//373
f 402//402 401//401 373//373
f 401//401 403//403 374//374
f 376//376 404//404 405//405
f 376//376 379//379 404//404
f 406//406 407//407 403//403
f 401//401 406//406 403//403
f 405//405 408//408 409//409
f 406//406 410//410 407//407
f 410//410 411//411 407//407
f 409//409 412//412 413//413
f 405//405 404//404 408//408
f 409//409 408//408 412//412
f 414//414 382//382 415//415
f 380//380 382//382 414//414
f 414//414 415//415 416//416
f 414//414 416//416 417//417
f 414//414 417//417 418//418
f 418//418 417//417 419//419
f 418//418 419//419 420//420
f 393//393 392//392 421//421
f 422//422 394//394 390//390
f 423//423 393//393 421//421
f 423//423 421//421 424//424
f 425//425 423//423 424//424
f 426//426 427//427 422//422
f 422//422 427//427 394//394
f 426//426 428//428 427//427
f 429//429 400//400 399//399
f 429//429 430//430 400//400
f 431//431 432//432 430//430
f 431//431 430//430 429//429
f 425//425 424//424 433//433
f 434//434 425//425 433//433
f 434//434 433//433 411//411
f 410//410 434//434 411//411
f 413//413 435//435 436//436
f 436//436 428//428 426//426
f 413//413 412//412 435//435
f 436//436 435//435 428//428
f 437//437 438//438 432//432
f 437//437 432//432 431//431
f 420//420 419//419 438//438
f 420//420 438//438 437//437
f 439//439 440//440 441//441
f 441//441 440//440 442//442
f 443//443 444//444 445//445
f 443//443 445//445 446//446
f 447//447 441//441 442//442
f 448//448 447//447 449//449
f 442//442 449//449 447//447
f 449//449 450//450 448//448
f 451//451 448//448 450//450
f 452//452 451//451 453//453
f 450//450 453//453 451//451
f 444//444 454//454 455//455
f 455//455 445//445 444//444
f 456//456 455//455 454//454
f 457//457 458//458 459//459
f 454//454 460//460 456//456
f 460//460 459//459 458//458
f 458//458 456//456 460//460
f 461//461 452//452 462//462
f 453//453 462//462 452//452
f 461//461 462//462 463//463
f 464//464 461//461 463//463
f 457//457 459//459 464//464
f 464//464 463//463 457//457
f 465//465 466//466 467//467
f 468//468 466//466 465//465
f 469//469 470//470 471//471
f 472//472 471//471 470//470
f 473//473 474//474 475//475
f 474//474 476//476 475//475
f 477//477 478//478 479//479
f 480//480 481//481 482//482
f 480//480 483//483 484//484
f 480//480 482//482 483//483
f 483//483 485//485 484//484
f 486//486 487//487 488//488
f 489//489 490//490 491//491
f 489//489 491//491 492//492
f 493//493 494//494 495//495
f 494//494 496//496 495//495
f 497//497 498//498 499//499
f 497//497 500//500 498//498
f 501//501 502//502 503//503
f 504//504 505//505 506//506
f 504//504 506//506 507//507
f 508//508 509//509 510//510
f 489//489 492//492 511//511
f 489//489 511//511 512//512
f 512//512 511//511 513//513
f 514//514 512//512 513//513
f 514//514 513//513 515//515
f 514//514 515//515 516//516
f 493//493 517//517 494//494
f 497//497 518//518 500//500
f 517//517 519//519 494//494
f 518//518 520//520 500//500
f 521//521 519//519 517//517
f 521//521 522//522 523//523
f 521//521 523//523 519//519
f 524//524 520//520 518//518
f 524//524 525//525 520//520
f 524//524 526//526 525//525
f 522//522 527//527 523//523
f 526//526 528//528 525//525
f 529//529 502//502 501//501
f 530//530 529//529 501//501
f 529//529 531//531 502//502
f 532//532 533//533 531//531
f 529//529 532//532 531//531
f 532//532 534//534 533//533
f 534//534 535//535 533//533
f 504//504 536//536 537//537
f 504//504 507//507 536//536
f 538//538 510//510 539//539
f 508//508 510//510 538//538
f 538//538 539//539 540//540
f 537//537 541//541 542//542
f 542//542 543//543 544//544
f 537//537 536//536 541//541
f 538//538 540//540 545//545
f 538//538 545//545 546//546
f 542//542 541//541 543//543
f 546//546 545//545 547//547
f 546//546 547//547 548//548
f 516//516 515//515 549//549
f 550//550 516//516 549//549
f 550//550 549//549 551//551
f 552//552 550//550 551//551
f 553//553 527//527 522//522
f 554//554 555//555 553//553
f 553//553 555//555 527//527
f 556//556 528//528 526//526
f 556//556 557//557 528//528
f 558//558 559//559 557//557
f 558//558 557//557 556//556
f 554//554 560//560 555//555
f 552//552 551//551 561//561
f 562//562 552//552 561//561
f 562//562 561//561 535//535
f 534//534 562//562 535//535
f 544//544 563//563 564//564
f 564//564 560//560 554//554
f 565//565 566//566 559//559
f 565//565 559//559 558//558
f 544//544 543//543 563//563
f 548//548 547//547 566//566
f 548//548 566//566 565//565
f 564//564 563//563 560//560
f 567//567 568//568 569//569
f 569//569 568//568 570//570
f 571//571 572//572 573//573
f 571//571 573//573 574//574
f 575//575 569//569 570//570
f 576//576 575//575 577//577
f 570//570 577//577 575//575
f 577//577 578//578 576//576
f 579//579 576//576 578//578
f 580//580 579//579 581//581
f 578//578 581//581 579//579
f 572//572 582//582 583//583
f 583//583 573//573 572//572
f 584//584 583//583 582//582
f 585//585 586//586 587//587
f 582//582 588//588 584//584
f 588//588 587//587 586//586
f 586//586 584//584 588//588
f 589//589 580//580 590//590
f 580//580 581//581 590//590
f 589//589 590//590 591//591
f 592//592 589//589 591//591
f 587//587 592//592 585//585
f 592//592 591//591 585//585
f 593//593 594//594 595//595
f 596//596 594//594 593//593
f 597//597 598//598 599//599
f 600//600 599//599 598//598
f 601//601 602//602 603//603
f 602//602 604//604 603//603
