v -0.21714 0.19436 -1.22800
v -0.22300 0.20850 -1.22800
v -0.21714 0.20850 -1.24214
v -0.20300 0.19436 -1.24214
v -0.21714 0.19436 -1.02200
v -0.22300 0.20850 -1.02200
v -0.20300 0.18850 -1.02200
v -0.20300 0.18850 -1.22800
v -0.20300 0.20850 -1.24800
v -0.21714 0.20850 -1.00786
v -0.20300 0.19436 -1.00786
v -0.20300 0.20850 -1.00200
v -0.22300 0.41650 -1.22800
v -0.20300 0.41650 -1.24800
v -0.21714 0.41650 -1.00786
v -0.20300 0.41650 -1.00200
v -0.21714 0.41650 -1.24214
v -0.22300 0.41650 -1.02200
v -0.21714 0.43064 -1.22800
v -0.20300 0.43064 -1.24214
v -0.21714 0.43064 -1.02200
v -0.20300 0.43650 -1.02200
v -0.20300 0.43650 -1.22800
v -0.20300 0.43064 -1.00786
v 0.20300 0.19436 -1.24214
v 0.20300 0.20850 -1.24800
v 0.20300 0.18850 -1.02200
v 0.20300 0.20850 -1.00200
v 0.20300 0.43064 -1.24214
v 0.20300 0.43650 -1.22800
v 0.20300 0.43064 -1.00786
v 0.20300 0.18850 -1.22800
v 0.20300 0.19436 -1.00786
v 0.20300 0.41650 -1.24800
v 0.20300 0.41650 -1.00200
v 0.20300 0.43650 -1.02200
v 0.21714 0.19436 -1.22800
v 0.21714 0.20850 -1.24214
v 0.22300 0.20850 -1.22800
v 0.21714 0.19436 -1.02200
v 0.22300 0.20850 -1.02200
v 0.21714 0.20850 -1.00786
v 0.22300 0.41650 -1.22800
v 0.21714 0.41650 -1.00786
v 0.22300 0.41650 -1.02200
v 0.21714 0.41650 -1.24214
v 0.21714 0.43064 -1.22800
v 0.21714 0.43064 -1.02200
v -0.20000 0.11250 -0.98750
v -0.20000 0.11250 -0.43750
v -0.20000 0.22848 -0.54062
v -0.20000 0.24241 -0.60938
v -0.20000 0.24850 -0.64375
v -0.20000 0.23573 -0.57500
v -0.20000 0.22065 -0.50625
v -0.20000 0.21224 -0.47188
v -0.20000 0.20325 -0.43750
v -0.20000 0.31885 -0.95312
v -0.20000 0.27750 -0.98750
v -0.20000 0.35513 -0.91875
v -0.20000 0.38238 -0.88437
v -0.20000 0.28978 -0.67813
v -0.20000 0.32936 -0.71250
v -0.20000 0.36310 -0.74687
v -0.20000 0.39764 -0.85000
v -0.20000 0.38733 -0.78125
v -0.20000 0.39932 -0.81563
v -0.20000 0.11250 -0.98750
v -0.20000 0.27750 -0.98750
v 0.20000 0.11250 -0.98750
v -0.20000 0.11250 -0.98750
v 0.20000 0.11250 -0.43750
v -0.20000 0.11250 -0.43750
v -0.20000 0.11250 -0.43750
v 0.20000 0.20325 -0.43750
v -0.20000 0.20325 -0.43750
v -0.20000 0.21224 -0.47188
v -0.20000 0.20325 -0.43750
v 0.20000 0.21224 -0.47188
v -0.20000 0.31885 -0.95312
v 0.20000 0.27750 -0.98750
v -0.20000 0.24241 -0.60938
v -0.20000 0.23573 -0.57500
v 0.20000 0.24241 -0.60938
v 0.20000 0.24850 -0.64375
v -0.20000 0.24850 -0.64375
v -0.20000 0.24850 -0.64375
v 0.20000 0.28978 -0.67813
v -0.20000 0.28978 -0.67813
v -0.20000 0.32936 -0.71250
v 0.20000 0.32936 -0.71250
v -0.20000 0.35513 -0.91875
v 0.20000 0.31885 -0.95312
v -0.20000 0.38238 -0.88437
v 0.20000 0.35513 -0.91875
v -0.20000 0.36310 -0.74687
v 0.20000 0.38733 -0.78125
v -0.20000 0.38733 -0.78125
v 0.20000 0.36310 -0.74687
v -0.20000 0.39764 -0.85000
v 0.20000 0.38238 -0.88437
v -0.20000 0.39932 -0.81563
v 0.20000 0.39764 -0.85000
v 0.20000 0.39932 -0.81563
v -0.20000 0.22848 -0.54062
v -0.20000 0.22065 -0.50625
v 0.20000 0.22848 -0.54062
v 0.20000 0.23573 -0.57500
v 0.20000 0.22065 -0.50625
v 0.20000 0.11250 -0.98750
v 0.20000 0.11250 -0.43750
v 0.20000 0.20325 -0.43750
v 0.20000 0.24850 -0.64375
v 0.20000 0.11250 -0.98750
v 0.20000 0.22848 -0.54062
v 0.20000 0.11250 -0.43750
v 0.20000 0.24850 -0.64375
v 0.20000 0.24241 -0.60938
v 0.20000 0.23573 -0.57500
v 0.20000 0.22065 -0.50625
v 0.20000 0.21224 -0.47188
v 0.20000 0.20325 -0.43750
v 0.20000 0.27750 -0.98750
v 0.20000 0.31885 -0.95312
v 0.20000 0.35513 -0.91875
v 0.20000 0.38238 -0.88437
v 0.20000 0.28978 -0.67813
v 0.20000 0.32936 -0.71250
v 0.20000 0.36310 -0.74687
v 0.20000 0.39764 -0.85000
v 0.20000 0.38733 -0.78125
v 0.20000 0.39932 -0.81563
v -0.18550 -0.40650 -0.61800
v -0.17671 -0.40650 -0.63921
v -0.17671 -0.42771 -0.61800
v -0.15550 -0.42771 -0.63921
v -0.17671 -0.11850 -0.63921
v -0.15550 -0.43650 -0.61800
v -0.15550 -0.40650 -0.64800
v -0.15550 -0.11850 -0.64800
v -0.17671 -0.42771 -0.08200
v -0.18550 -0.40650 -0.08200
v -0.15550 -0.43650 -0.08200
v -0.17671 -0.40650 -0.06079
v -0.15550 -0.42771 -0.06079
v -0.18550 -0.11850 -0.08200
v -0.15550 -0.40650 -0.05200
v -0.17671 -0.11850 -0.06079
v -0.18550 -0.11850 -0.61800
v -0.17671 -0.09729 -0.61800
v -0.15550 -0.09729 -0.63921
v -0.15550 -0.08850 -0.61800
v -0.17671 -0.09729 -0.08200
v -0.15550 -0.08850 -0.08200
v -0.15550 -0.09729 -0.06079
v -0.15550 -0.11850 -0.05200
v 0.15550 -0.43650 -0.61800
v 0.15550 -0.40650 -0.64800
v 0.15550 -0.43650 -0.08200
v 0.15550 -0.40650 -0.05200
v 0.15550 -0.09729 -0.63921
v 0.15550 -0.08850 -0.61800
v 0.15550 -0.11850 -0.05200
v 0.15550 -0.09729 -0.06079
v 0.15550 -0.42771 -0.63921
v 0.15550 -0.42771 -0.06079
v 0.15550 -0.11850 -0.64800
v 0.15550 -0.08850 -0.08200
v 0.17671 -0.42771 -0.61800
v 0.17671 -0.40650 -0.63921
v 0.18550 -0.40650 -0.61800
v 0.18550 -0.11850 -0.61800
v 0.17671 -0.42771 -0.08200
v 0.17671 -0.40650 -0.06079
v 0.18550 -0.40650 -0.08200
v 0.18550 -0.11850 -0.08200
v 0.17671 -0.11850 -0.63921
v 0.17671 -0.09729 -0.61800
v 0.17671 -0.09729 -0.08200
v 0.17671 -0.11850 -0.06079
v -0.16800 0.09729 -0.28921
v -0.18921 0.09729 -0.26800
v -0.18921 0.11850 -0.28921
v -0.16800 0.08850 -0.26800
v -0.18921 0.09729 0.24300
v -0.19800 0.11850 -0.26800
v -0.16800 0.08850 0.24300
v -0.19800 0.15650 -0.26800
v -0.18921 0.15650 -0.28921
v -0.16800 0.11850 -0.29800
v -0.16800 0.15650 -0.29800
v -0.18921 0.17771 -0.26800
v -0.16800 0.17771 -0.28921
v -0.16800 0.18650 -0.26800
v -0.19800 0.15650 0.24300
v -0.19800 0.11850 0.24300
v -0.18921 0.17771 0.24300
v -0.16800 0.18650 0.24300
v 0.16800 0.08850 -0.26800
v 0.16800 0.11850 -0.29800
v 0.16800 0.17771 -0.28921
v 0.16800 0.18650 -0.26800
v -0.16800 0.09729 0.26421
v -0.18921 0.11850 0.26421
v -0.18921 0.15650 0.26421
v -0.16800 0.11850 0.27300
v -0.16800 0.15650 0.27300
v -0.16800 0.17771 0.26421
v 0.16800 0.09729 0.26421
v 0.16800 0.11850 0.27300
v 0.16800 0.15650 0.27300
v 0.16800 0.17771 0.26421
v 0.16800 0.09729 -0.28921
v 0.16800 0.08850 0.24300
v 0.16800 0.15650 -0.29800
v 0.16800 0.18650 0.24300
v 0.18921 0.09729 -0.26800
v 0.18921 0.11850 -0.28921
v 0.18921 0.09729 0.24300
v 0.19800 0.11850 0.24300
v 0.18921 0.15650 -0.28921
v 0.19800 0.11850 -0.26800
v 0.19800 0.15650 -0.26800
v 0.18921 0.17771 -0.26800
v 0.19800 0.15650 0.24300
v 0.18921 0.17771 0.24300
v 0.18921 0.11850 0.26421
v 0.18921 0.15650 0.26421
v -0.17300 -0.06650 -0.17800
v -0.16714 -0.06650 -0.19214
v -0.16714 -0.08064 -0.17800
v -0.16714 -0.08064 0.25300
v -0.16714 0.06650 -0.19214
v -0.17300 -0.06650 0.25300
v -0.17300 0.06650 -0.17800
v -0.15300 -0.08064 -0.19214
v -0.15300 -0.08650 -0.17800
v -0.15300 -0.06650 -0.19800
v 0.15300 -0.08650 -0.17800
v 0.15300 -0.06650 -0.19800
v -0.15300 -0.08650 0.25300
v -0.16714 -0.06650 0.26714
v -0.16714 0.06650 0.26714
v -0.15300 -0.08064 0.26714
v -0.15300 -0.06650 0.27300
v 0.15300 -0.08064 0.26714
v -0.16714 0.08064 -0.17800
v -0.16714 0.08064 0.25300
v -0.15300 0.06650 -0.19800
v -0.15300 0.08064 -0.19214
v -0.15300 0.08650 -0.17800
v 0.15300 0.06650 -0.19800
v 0.15300 0.08064 -0.19214
v -0.17300 0.06650 0.25300
v -0.15300 0.06650 0.27300
v -0.15300 0.08650 0.25300
v -0.15300 0.08064 0.26714
v 0.15300 0.06650 0.27300
v 0.15300 0.08650 0.25300
v 0.15300 -0.08064 -0.19214
v 0.16714 -0.08064 -0.17800
v 0.16714 -0.06650 -0.19214
v 0.16714 -0.08064 0.25300
v 0.17300 -0.06650 -0.17800
v 0.17300 -0.06650 0.25300
v 0.17300 0.06650 -0.17800
v 0.15300 -0.08650 0.25300
v 0.15300 -0.06650 0.27300
v 0.16714 -0.06650 0.26714
v 0.17300 0.06650 0.25300
v 0.16714 0.06650 0.26714
v 0.15300 0.08650 -0.17800
v 0.16714 0.06650 -0.19214
v 0.16714 0.08064 -0.17800
v 0.15300 0.08064 0.26714
v 0.16714 0.08064 0.25300
v -0.15000 0.11250 0.27500
v -0.15000 0.28750 0.75000
v -0.15000 0.18750 0.27500
v -0.15000 0.21250 0.75000
v -0.15000 0.11250 0.27500
v -0.15000 0.18750 0.27500
v 0.15000 0.11250 0.27500
v -0.15000 0.11250 0.27500
v 0.15000 0.21250 0.75000
v -0.15000 0.21250 0.75000
v -0.15000 0.18750 0.27500
v -0.15000 0.28750 0.75000
v 0.15000 0.18750 0.27500
v -0.15000 0.21250 0.75000
v 0.15000 0.28750 0.75000
v -0.15000 0.28750 0.75000
v 0.15000 0.18750 0.27500
v 0.15000 0.11250 0.27500
v 0.15000 0.28750 0.75000
v 0.15000 0.21250 0.75000
v 0.15000 0.11250 0.27500
v 0.15000 0.18750 0.27500
v 0.15000 0.28750 0.75000
v 0.15000 0.21250 0.75000
v -0.22007 -0.44607 -0.03800
v -0.22300 -0.43900 -0.03800
v -0.22007 -0.43900 -0.04507
v -0.21300 -0.44607 -0.04507
v -0.21300 -0.44900 -0.03800
v -0.21300 -0.43900 -0.04800
v -0.22300 -0.33600 -0.03800
v -0.22007 -0.33600 -0.04507
v -0.16200 -0.44607 -0.04507
v -0.21300 -0.33600 -0.04800
v -0.16200 -0.33600 -0.04800
v -0.16200 -0.43900 -0.04800
v -0.16200 -0.44900 -0.03800
v -0.22007 -0.32893 -0.03800
v -0.21300 -0.32893 -0.04507
v -0.21300 -0.32600 -0.03800
v -0.16200 -0.32893 -0.04507
v -0.16200 -0.32600 -0.03800
v -0.15493 -0.44607 -0.03800
v -0.15493 -0.43900 -0.04507
v -0.15200 -0.43900 -0.03800
v -0.15493 -0.33600 -0.04507
v -0.15200 -0.33600 -0.03800
v -0.15493 -0.32893 -0.03800
v -0.22007 -0.44607 0.93800
v -0.21300 -0.44900 0.93800
v -0.22300 -0.33600 0.93800
v -0.16200 -0.44900 0.93800
v -0.22300 -0.43900 0.93800
v -0.22007 -0.32893 0.93800
v -0.21300 -0.32600 0.93800
v -0.16200 -0.32600 0.93800
v -0.15200 -0.43900 0.93800
v -0.15493 -0.44607 0.93800
v -0.15200 -0.33600 0.93800
v -0.15493 -0.32893 0.93800
v -0.22007 -0.43900 0.94507
v -0.21300 -0.44607 0.94507
v -0.21300 -0.43900 0.94800
v -0.22007 -0.33600 0.94507
v -0.16200 -0.44607 0.94507
v -0.21300 -0.33600 0.94800
v -0.16200 -0.33600 0.94800
v -0.16200 -0.43900 0.94800
v -0.21300 -0.32893 0.94507
v -0.16200 -0.32893 0.94507
v -0.15493 -0.43900 0.94507
v -0.15493 -0.33600 0.94507
v 0.15200 -0.43900 -0.03800
v 0.15493 -0.43900 -0.04507
v 0.15493 -0.44607 -0.03800
v 0.16200 -0.44607 -0.04507
v 0.16200 -0.44900 -0.03800
v 0.16200 -0.43900 -0.04800
v 0.16200 -0.33600 -0.04800
v 0.15493 -0.33600 -0.04507
v 0.15200 -0.33600 -0.03800
v 0.15493 -0.32893 -0.03800
v 0.16200 -0.32893 -0.04507
v 0.16200 -0.32600 -0.03800
v 0.21300 -0.44607 -0.04507
v 0.21300 -0.43900 -0.04800
v 0.21300 -0.44900 -0.03800
v 0.22007 -0.44607 -0.03800
v 0.22007 -0.43900 -0.04507
v 0.22300 -0.43900 -0.03800
v 0.21300 -0.33600 -0.04800
v 0.22300 -0.33600 -0.03800
v 0.22007 -0.33600 -0.04507
v 0.21300 -0.32893 -0.04507
v 0.21300 -0.32600 -0.03800
v 0.22007 -0.32893 -0.03800
v 0.15200 -0.43900 0.93800
v 0.16200 -0.44900 0.93800
v 0.15200 -0.33600 0.93800
v 0.15493 -0.44607 0.93800
v 0.15493 -0.32893 0.93800
v 0.16200 -0.32600 0.93800
v 0.21300 -0.44900 0.93800
v 0.22300 -0.43900 0.93800
v 0.22007 -0.44607 0.93800
v 0.22300 -0.33600 0.93800
v 0.22007 -0.32893 0.93800
v 0.21300 -0.32600 0.93800
v 0.15493 -0.43900 0.94507
v 0.16200 -0.44607 0.94507
v 0.16200 -0.43900 0.94800
v 0.15493 -0.33600 0.94507
v 0.16200 -0.33600 0.94800
v 0.16200 -0.32893 0.94507
v 0.21300 -0.44607 0.94507
v 0.21300 -0.33600 0.94800
v 0.21300 -0.43900 0.94800
v 0.22007 -0.43900 0.94507
v 0.22007 -0.33600 0.94507
v 0.21300 -0.32893 0.94507
v -0.12500 -0.31350 1.35276
v -0.12500 -0.31350 1.40276
v -0.12500 -0.11875 1.34049
v -0.12500 -0.26133 1.34589
v -0.12500 -0.24838 1.39419
v -0.12500 -0.14375 1.29719
v -0.12500 -0.00743 1.25507
v -0.12500 -0.04279 1.21971
v -0.12500 -0.31350 1.40276
v 0.12500 -0.31350 1.40276
v -0.12500 -0.24838 1.39419
v 0.12500 -0.11875 1.34049
v -0.12500 -0.11875 1.34049
v 0.12500 -0.00743 1.25507
v -0.12500 -0.00743 1.25507
v -0.12500 0.08305 0.74800
v -0.12500 0.08339 0.74883
v -0.12500 0.13328 0.74800
v -0.12500 0.08339 1.00117
v -0.12500 0.03469 1.11875
v -0.12500 0.13169 1.01412
v -0.12500 0.07799 1.14375
v -0.12500 0.10000 0.87500
v -0.12500 0.15000 0.87500
v 0.12500 0.07799 1.14375
v -0.12500 0.07799 1.14375
v -0.12500 0.13328 0.74800
v -0.12500 0.15000 0.87500
v 0.12500 0.15000 0.87500
v -0.12500 0.13169 1.01412
v 0.12500 0.13169 1.01412
v 0.12500 -0.24838 1.39419
v 0.12500 -0.31350 1.35276
v 0.12500 -0.24838 1.39419
v 0.12500 -0.31350 1.40276
v 0.12500 -0.26133 1.34589
v 0.12500 -0.11875 1.34049
v 0.12500 -0.14375 1.29719
v 0.12500 -0.04279 1.21971
v 0.12500 -0.00743 1.25507
v 0.12500 0.13328 0.74800
v 0.12500 0.08305 0.74800
v 0.12500 0.13328 0.74800
v 0.12500 0.08339 0.74883
v 0.12500 0.08339 1.00117
v 0.12500 0.13169 1.01412
v 0.12500 0.07799 1.14375
v 0.12500 0.03469 1.11875
v 0.12500 0.15000 0.87500
v 0.12500 0.10000 0.87500
v -0.12500 -0.31350 1.35276
v -0.12500 -0.26133 1.34589
v 0.12500 -0.26133 1.34589
v -0.12500 -0.14375 1.29719
v 0.12500 -0.14375 1.29719
v -0.12500 -0.04279 1.21971
v 0.12500 -0.04279 1.21971
v -0.12500 0.08305 0.74800
v 0.12500 0.08305 0.74800
v -0.12500 0.08339 0.74883
v 0.12500 0.08339 0.74883
v -0.12500 0.10000 0.87500
v -0.12500 0.08339 1.00117
v 0.12500 0.08339 1.00117
v -0.12500 0.03469 1.11875
v 0.12500 0.10000 0.87500
v 0.12500 0.03469 1.11875
v 0.12500 -0.31350 1.35276
v -0.12500 -0.31350 1.35276
v 0.12500 -0.31350 1.40276
v -0.12500 -0.31350 1.40276
v 0.12500 -0.31350 1.35276
v -0.12500 0.08305 0.74800
v -0.12500 0.13328 0.74800
v 0.12500 0.08305 0.74800
v 0.12500 0.13328 0.74800
vn -0.6887 -0.6887 -0.2265
vn -0.9641 -0.1877 -0.1877
vn -0.6887 -0.2265 -0.6887
vn -0.2265 -0.6887 -0.6887
vn -0.6887 -0.6887 0.2265
vn -0.9641 -0.1877 0.1877
vn -0.1877 -0.9641 0.1877
vn -0.1877 -0.9641 -0.1877
vn -0.1877 -0.1877 -0.9641
vn -0.6887 -0.2265 0.6887
vn -0.2265 -0.6887 0.6887
vn -0.1877 -0.1877 0.9641
vn -0.9641 0.1877 -0.1877
vn -0.1877 0.1877 -0.9641
vn -0.6887 0.2265 0.6887
vn -0.1877 0.1877 0.9641
vn -0.6887 0.2265 -0.6887
vn -0.9641 0.1877 0.1877
vn -0.6887 0.6887 -0.2265
vn -0.2265 0.6887 -0.6887
vn -0.6887 0.6887 0.2265
vn -0.1877 0.9641 0.1877
vn -0.1877 0.9641 -0.1877
vn -0.2265 0.6887 0.6887
vn 0.2265 -0.6887 -0.6887
vn 0.1877 -0.1877 -0.9641
vn 0.1877 -0.9641 0.1877
vn 0.1877 -0.1877 0.9641
vn 0.2265 0.6887 -0.6887
vn 0.1877 0.9641 -0.1877
vn 0.2265 0.6887 0.6887
vn 0.1877 -0.9641 -0.1877
vn 0.2265 -0.6887 0.6887
vn 0.1877 0.1877 -0.9641
vn 0.1877 0.1877 0.9641
vn 0.1877 0.9641 0.1877
vn 0.6887 -0.6887 -0.2265
vn 0.6887 -0.2265 -0.6887
vn 0.9641 -0.1877 -0.1877
vn 0.6887 -0.6887 0.2265
vn 0.9641 -0.1877 0.1877
vn 0.6887 -0.2265 0.6887
vn 0.9641 0.1877 -0.1877
vn 0.6887 0.2265 0.6887
vn 0.9641 0.1877 0.1877
vn 0.6887 0.2265 -0.6887
vn 0.6887 0.6887 -0.2265
vn 0.6887 0.6887 0.2265
vn -1.0000 0.0000 0.0000
vn -1.0000 0.0000 0.0000
vn -1.0000 0.0000 0.0000
vn -1.0000 0.0000 0.0000
vn -1.0000 0.0000 0.0000
vn -1.0000 0.0000 0.0000
vn -1.0000 0.0000 0.0000
vn -1.0000 0.0000 0.0000
vn -1.0000 0.0000 0.0000
vn -1.0000 0.0000 0.0000
vn -1.0000 0.0000 0.0000
vn -1.0000 0.0000 0.0000
vn -1.0000 0.0000 0.0000
vn -1.0000 0.0000 0.0000
vn -1.0000 0.0000 0.0000
vn -1.0000 0.0000 0.0000
vn -1.0000 0.0000 0.0000
vn -1.0000 0.0000 0.0000
vn -1.0000 0.0000 0.0000
vn 0.0000 0.0000 -1.0000
vn 0.0000 0.3398 -0.9405
vn 0.0000 0.0000 -1.0000
vn 0.0000 -1.0000 0.0000
vn 0.0000 -1.0000 0.0000
vn 0.0000 -1.0000 0.0000
vn 0.0000 0.0000 1.0000
vn 0.0000 0.0000 1.0000
vn 0.0000 0.0000 1.0000
vn -0.0000 0.9694 0.2454
vn -0.0000 0.9675 0.2530
vn -0.0000 0.9694 0.2454
vn 0.0000 0.6639 -0.7479
vn 0.0000 0.3398 -0.9405
vn 0.0000 0.9832 0.1825
vn 0.0000 0.9801 0.1985
vn 0.0000 0.9832 0.1825
vn 0.0000 0.9847 0.1745
vn 0.0000 0.9847 0.1745
vn -0.0000 0.6398 0.7685
vn -0.0000 0.6478 0.7618
vn 0.0000 0.6478 0.7618
vn -0.0000 0.6853 0.7283
vn 0.0000 0.6853 0.7283
vn 0.0000 0.7376 -0.6752
vn 0.0000 0.6639 -0.7479
vn 0.0000 0.8556 -0.5176
vn 0.0000 0.7376 -0.6752
vn -0.0000 0.7681 0.6404
vn -0.0000 0.8894 0.4571
vn 0.0000 0.8894 0.4571
vn -0.0000 0.7681 0.6404
vn -0.0000 0.9729 -0.2312
vn -0.0000 0.8556 -0.5176
vn 0.0000 0.9897 0.1430
vn 0.0000 0.9729 -0.2312
vn 0.0000 0.9897 0.1430
vn -0.0000 0.9768 0.2143
vn 0.0000 0.9732 0.2299
vn 0.0000 0.9768 0.2143
vn -0.0000 0.9801 0.1985
vn -0.0000 0.9732 0.2299
vn 0.0000 -1.0000 0.0000
vn 0.0000 0.0000 1.0000
vn 0.0000 0.9675 0.2530
vn 0.0000 0.6398 0.7685
vn 1.0000 0.0000 0.0000
vn 1.0000 0.0000 0.0000
vn 1.0000 0.0000 0.0000
vn 1.0000 0.0000 0.0000
vn 1.0000 0.0000 0.0000
vn 1.0000 0.0000 0.0000
vn 1.0000 0.0000 0.0000
vn 1.0000 0.0000 0.0000
vn 1.0000 0.0000 0.0000
vn 1.0000 0.0000 0.0000
vn 1.0000 0.0000 0.0000
vn 1.0000 0.0000 0.0000
vn 1.0000 0.0000 0.0000
vn 1.0000 0.0000 0.0000
vn 1.0000 0.0000 0.0000
vn 1.0000 0.0000 0.0000
vn 1.0000 0.0000 0.0000
vn 1.0000 0.0000 0.0000
vn 1.0000 0.0000 0.0000
vn -0.9641 -0.1877 -0.1877
vn -0.6887 -0.2265 -0.6887
vn -0.6887 -0.6887 -0.2265
vn -0.2265 -0.6887 -0.6887
vn -0.6887 0.2265 -0.6887
vn -0.1877 -0.9641 -0.1877
vn -0.1877 -0.1877 -0.9641
vn -0.1877 0.1877 -0.9641
vn -0.6887 -0.6887 0.2265
vn -0.9641 -0.1877 0.1877
vn -0.1877 -0.9641 0.1877
vn -0.6887 -0.2265 0.6887
vn -0.2265 -0.6887 0.6887
vn -0.9641 0.1877 0.1877
vn -0.1877 -0.1877 0.9641
vn -0.6887 0.2265 0.6887
vn -0.9641 0.1877 -0.1877
vn -0.6887 0.6887 -0.2265
vn -0.2265 0.6887 -0.6887
vn -0.1877 0.9641 -0.1877
vn -0.6887 0.6887 0.2265
vn -0.1877 0.9641 0.1877
vn -0.2265 0.6887 0.6887
vn -0.1877 0.1877 0.9641
vn 0.1877 -0.9641 -0.1877
vn 0.1877 -0.1877 -0.9641
vn 0.1877 -0.9641 0.1877
vn 0.1877 -0.1877 0.9641
vn 0.2265 0.6887 -0.6887
vn 0.1877 0.9641 -0.1877
vn 0.1877 0.1877 0.9641
vn 0.2265 0.6887 0.6887
vn 0.2265 -0.6887 -0.6887
vn 0.2265 -0.6887 0.6887
vn 0.1877 0.1877 -0.9641
vn 0.1877 0.9641 0.1877
vn 0.6887 -0.6887 -0.2265
vn 0.6887 -0.2265 -0.6887
vn 0.9641 -0.1877 -0.1877
vn 0.9641 0.1877 -0.1877
vn 0.6887 -0.6887 0.2265
vn 0.6887 -0.2265 0.6887
vn 0.9641 -0.1877 0.1877
vn 0.9641 0.1877 0.1877
vn 0.6887 0.2265 -0.6887
vn 0.6887 0.6887 -0.2265
vn 0.6887 0.6887 0.2265
vn 0.6887 0.2265 0.6887
vn -0.2265 -0.6887 -0.6887
vn -0.6887 -0.6887 -0.2265
vn -0.6887 -0.2265 -0.6887
vn -0.1877 -0.9641 -0.1877
vn -0.6887 -0.6887 0.2265
vn -0.9641 -0.1877 -0.1877
vn -0.1877 -0.9641 0.1877
vn -0.9641 0.1877 -0.1877
vn -0.6887 0.2265 -0.6887
vn -0.1877 -0.1877 -0.9641
vn -0.1877 0.1877 -0.9641
vn -0.6887 0.6887 -0.2265
vn -0.2265 0.6887 -0.6887
vn -0.1877 0.9641 -0.1877
vn -0.9641 0.1877 0.1877
vn -0.9641 -0.1877 0.1877
vn -0.6887 0.6887 0.2265
vn -0.1877 0.9641 0.1877
vn 0.1877 -0.9641 -0.1877
vn 0.1877 -0.1877 -0.9641
vn 0.2265 0.6887 -0.6887
vn 0.1877 0.9641 -0.1877
vn -0.2265 -0.6887 0.6887
vn -0.6887 -0.2265 0.6887
vn -0.6887 0.2265 0.6887
vn -0.1877 -0.1877 0.9641
vn -0.1877 0.1877 0.9641
vn -0.2265 0.6887 0.6887
vn 0.2265 -0.6887 0.6887
vn 0.1877 -0.1877 0.9641
vn 0.1877 0.1877 0.9641
vn 0.2265 0.6887 0.6887
vn 0.2265 -0.6887 -0.6887
vn 0.1877 -0.9641 0.1877
vn 0.1877 0.1877 -0.9641
vn 0.1877 0.9641 0.1877
vn 0.6887 -0.6887 -0.2265
vn 0.6887 -0.2265 -0.6887
vn 0.6887 -0.6887 0.2265
vn 0.9641 -0.1877 0.1877
vn 0.6887 0.2265 -0.6887
vn 0.9641 -0.1877 -0.1877
vn 0.9641 0.1877 -0.1877
vn 0.6887 0.6887 -0.2265
vn 0.9641 0.1877 0.1877
vn 0.6887 0.6887 0.2265
vn 0.6887 -0.2265 0.6887
vn 0.6887 0.2265 0.6887
vn -0.9641 -0.1877 -0.1877
vn -0.6887 -0.2265 -0.6887
vn -0.6887 -0.6887 -0.2265
vn -0.6887 -0.6887 0.2265
vn -0.6887 0.2265 -0.6887
vn -0.9641 -0.1877 0.1877
vn -0.9641 0.1877 -0.1877
vn -0.2265 -0.6887 -0.6887
vn -0.1877 -0.9641 -0.1877
vn -0.1877 -0.1877 -0.9641
vn 0.1877 -0.9641 -0.1877
vn 0.1877 -0.1877 -0.9641
vn -0.1877 -0.9641 0.1877
vn -0.6887 -0.2265 0.6887
vn -0.6887 0.2265 0.6887
vn -0.2265 -0.6887 0.6887
vn -0.1877 -0.1877 0.9641
vn 0.2265 -0.6887 0.6887
vn -0.6887 0.6887 -0.2265
vn -0.6887 0.6887 0.2265
vn -0.1877 0.1877 -0.9641
vn -0.2265 0.6887 -0.6887
vn -0.1877 0.9641 -0.1877
vn 0.1877 0.1877 -0.9641
vn 0.2265 0.6887 -0.6887
vn -0.9641 0.1877 0.1877
vn -0.1877 0.1877 0.9641
vn -0.1877 0.9641 0.1877
vn -0.2265 0.6887 0.6887
vn 0.1877 0.1877 0.9641
vn 0.1877 0.9641 0.1877
vn 0.2265 -0.6887 -0.6887
vn 0.6887 -0.6887 -0.2265
vn 0.6887 -0.2265 -0.6887
vn 0.6887 -0.6887 0.2265
vn 0.9641 -0.1877 -0.1877
vn 0.9641 -0.1877 0.1877
vn 0.9641 0.1877 -0.1877
vn 0.1877 -0.9641 0.1877
vn 0.1877 -0.1877 0.9641
vn 0.6887 -0.2265 0.6887
vn 0.9641 0.1877 0.1877
vn 0.6887 0.2265 0.6887
vn 0.1877 0.9641 -0.1877
vn 0.6887 0.2265 -0.6887
vn 0.6887 0.6887 -0.2265
vn 0.2265 0.6887 0.6887
vn 0.6887 0.6887 0.2265
vn -1.0000 0.0000 0.0000
vn -1.0000 0.0000 0.0000
vn -1.0000 0.0000 0.0000
vn -1.0000 0.0000 0.0000
vn 0.0000 0.0000 -1.0000
vn 0.0000 0.0000 -1.0000
vn 0.0000 0.0000 -1.0000
vn -0.0000 -0.9785 0.2060
vn -0.0000 -0.9785 0.2060
vn 0.0000 -0.9785 0.2060
vn 0.0000 0.9785 -0.2060
vn 0.0000 0.9785 -0.2060
vn 0.0000 0.9785 -0.2060
vn 0.0000 0.0000 1.0000
vn 0.0000 0.0000 1.0000
vn 0.0000 0.0000 1.0000
vn 0.0000 0.0000 -1.0000
vn 0.0000 -0.9785 0.2060
vn 0.0000 0.9785 -0.2060
vn 0.0000 0.0000 1.0000
vn 1.0000 0.0000 0.0000
vn 1.0000 0.0000 0.0000
vn 1.0000 0.0000 0.0000
vn 1.0000 0.0000 0.0000
vn -0.6887 -0.6887 -0.2265
vn -0.9641 -0.1877 -0.1877
vn -0.6887 -0.2265 -0.6887
vn -0.2265 -0.6887 -0.6887
vn -0.1877 -0.9641 -0.1877
vn -0.1877 -0.1877 -0.9641
vn -0.9641 0.1877 -0.1877
vn -0.6887 0.2265 -0.6887
vn 0.2265 -0.6887 -0.6887
vn -0.1877 0.1877 -0.9641
vn 0.1877 0.1877 -0.9641
vn 0.1877 -0.1877 -0.9641
vn 0.1877 -0.9641 -0.1877
vn -0.6887 0.6887 -0.2265
vn -0.2265 0.6887 -0.6887
vn -0.1877 0.9641 -0.1877
vn 0.2265 0.6887 -0.6887
vn 0.1877 0.9641 -0.1877
vn 0.6887 -0.6887 -0.2265
vn 0.6887 -0.2265 -0.6887
vn 0.9641 -0.1877 -0.1877
vn 0.6887 0.2265 -0.6887
vn 0.9641 0.1877 -0.1877
vn 0.6887 0.6887 -0.2265
vn -0.6887 -0.6887 0.2265
vn -0.1877 -0.9641 0.1877
vn -0.9641 0.1877 0.1877
vn 0.1877 -0.9641 0.1877
vn -0.9641 -0.1877 0.1877
vn -0.6887 0.6887 0.2265
vn -0.1877 0.9641 0.1877
vn 0.1877 0.9641 0.1877
vn 0.9641 -0.1877 0.1877
vn 0.6887 -0.6887 0.2265
vn 0.9641 0.1877 0.1877
vn 0.6887 0.6887 0.2265
vn -0.6887 -0.2265 0.6887
vn -0.2265 -0.6887 0.6887
vn -0.1877 -0.1877 0.9641
vn -0.6887 0.2265 0.6887
vn 0.2265 -0.6887 0.6887
vn -0.1877 0.1877 0.9641
vn 0.1877 0.1877 0.9641
vn 0.1877 -0.1877 0.9641
vn -0.2265 0.6887 0.6887
vn 0.2265 0.6887 0.6887
vn 0.6887 -0.2265 0.6887
vn 0.6887 0.2265 0.6887
vn -0.9641 -0.1877 -0.1877
vn -0.6887 -0.2265 -0.6887
vn -0.6887 -0.6887 -0.2265
vn -0.2265 -0.6887 -0.6887
vn -0.1877 -0.9641 -0.1877
vn -0.1877 -0.1877 -0.9641
vn -0.1877 0.1877 -0.9641
vn -0.6887 0.2265 -0.6887
vn -0.9641 0.1877 -0.1877
vn -0.6887 0.6887 -0.2265
vn -0.2265 0.6887 -0.6887
vn -0.1877 0.9641 -0.1877
vn 0.2265 -0.6887 -0.6887
vn 0.1877 -0.1877 -0.9641
vn 0.1877 -0.9641 -0.1877
vn 0.6887 -0.6887 -0.2265
vn 0.6887 -0.2265 -0.6887
vn 0.9641 -0.1877 -0.1877
vn 0.1877 0.1877 -0.9641
vn 0.9641 0.1877 -0.1877
vn 0.6887 0.2265 -0.6887
vn 0.2265 0.6887 -0.6887
vn 0.1877 0.9641 -0.1877
vn 0.6887 0.6887 -0.2265
vn -0.9641 -0.1877 0.1877
vn -0.1877 -0.9641 0.1877
vn -0.9641 0.1877 0.1877
vn -0.6887 -0.6887 0.2265
vn -0.6887 0.6887 0.2265
vn -0.1877 0.9641 0.1877
vn 0.1877 -0.9641 0.1877
vn 0.9641 -0.1877 0.1877
vn 0.6887 -0.6887 0.2265
vn 0.9641 0.1877 0.1877
vn 0.6887 0.6887 0.2265
vn 0.1877 0.9641 0.1877
vn -0.6887 -0.2265 0.6887
vn -0.2265 -0.6887 0.6887
vn -0.1877 -0.1877 0.9641
vn -0.6887 0.2265 0.6887
vn -0.1877 0.1877 0.9641
vn -0.2265 0.6887 0.6887
vn 0.2265 -0.6887 0.6887
vn 0.1877 0.1877 0.9641
vn 0.1877 -0.1877 0.9641
vn 0.6887 -0.2265 0.6887
vn 0.6887 0.2265 0.6887
vn 0.2265 0.6887 0.6887
vn -1.0000 0.0000 0.0000
vn -1.0000 0.0000 0.0000
vn -1.0000 0.0000 0.0000
vn -1.0000 0.0000 0.0000
vn -1.0000 0.0000 0.0000
vn -1.0000 0.0000 0.0000
vn -1.0000 0.0000 0.0000
vn -1.0000 0.0000 0.0000
vn 0.0000 0.1305 0.9914
vn 0.0000 0.1305 0.9914
vn 0.0000 0.2588 0.9659
vn 0.0000 0.5000 0.8660
vn -0.0000 0.5000 0.8660
vn -0.0000 0.7071 0.7071
vn -0.0000 0.7071 0.7071
vn -1.0000 0.0000 0.0000
vn -1.0000 0.0000 0.0000
vn -1.0000 0.0000 0.0000
vn -1.0000 0.0000 0.0000
vn -1.0000 0.0000 0.0000
vn -1.0000 0.0000 0.0000
vn -1.0000 0.0000 0.0000
vn -1.0000 0.0000 0.0000
vn -1.0000 0.0000 0.0000
vn -0.0000 0.8660 0.5000
vn 0.0000 0.8660 0.5000
vn 0.0000 0.9914 -0.1305
vn 0.0000 1.0000 -0.0000
vn 0.0000 1.0000 -0.0000
vn 0.0000 0.9659 0.2588
vn 0.0000 0.9659 0.2588
vn 0.0000 0.2588 0.9659
vn 1.0000 0.0000 0.0000
vn 1.0000 0.0000 0.0000
vn 1.0000 0.0000 0.0000
vn 1.0000 0.0000 0.0000
vn 1.0000 0.0000 0.0000
vn 1.0000 0.0000 0.0000
vn 1.0000 0.0000 0.0000
vn 1.0000 0.0000 0.0000
vn 0.0000 0.9914 -0.1305
vn 1.0000 0.0000 0.0000
vn 1.0000 0.0000 0.0000
vn 1.0000 0.0000 0.0000
vn 1.0000 0.0000 0.0000
vn 1.0000 0.0000 0.0000
vn 1.0000 0.0000 0.0000
vn 1.0000 0.0000 0.0000
vn 1.0000 0.0000 0.0000
vn 1.0000 0.0000 0.0000
vn 0.0000 -0.1305 -0.9914
vn 0.0000 -0.2588 -0.9659
vn 0.0000 -0.2588 -0.9659
vn 0.0000 -0.5000 -0.8660
vn 0.0000 -0.5000 -0.8660
vn 0.0000 -0.7071 -0.7071
vn 0.0000 -0.7071 -0.7071
vn 0.0000 -0.9239 0.3827
vn -0.0000 -0.9239 0.3827
vn -0.0000 -0.9659 0.2588
vn 0.0000 -0.9659 0.2588
vn 0.0000 -1.0000 -0.0000
vn -0.0000 -0.9659 -0.2588
vn 0.0000 -0.9659 -0.2588
vn 0.0000 -0.8660 -0.5000
vn -0.0000 -1.0000 -0.0000
vn 0.0000 -0.8660 -0.5000
vn 0.0000 -0.1305 -0.9914
vn 0.0000 -1.0000 0.0000
vn 0.0000 -1.0000 0.0000
vn 0.0000 -1.0000 0.0000
vn 0.0000 -1.0000 0.0000
vn 0.0000 0.0000 -1.0000
vn 0.0000 0.0000 -1.0000
vn 0.0000 0.0000 -1.0000
vn 0.0000 0.0000 -1.0000
f 1//1 2//2 3//3
f 1//1 3//3 4//4
f 1//1 5//5 2//2
f 2//2 5//5 6//6
f 1//1 7//7 5//5
f 1//1 4//4 8//8
f 3//3 9//9 4//4
f 1//1 8//8 7//7
f 5//5 10//10 6//6
f 5//5 11//11 10//10
f 5//5 7//7 11//11
f 10//10 11//11 12//12
f 2//2 13//13 3//3
f 2//2 6//6 13//13
f 3//3 14//14 9//9
f 6//6 10//10 15//15
f 10//10 12//12 16//16
f 3//3 13//13 17//17
f 3//3 17//17 14//14
f 6//6 18//18 13//13
f 6//6 15//15 18//18
f 10//10 16//16 15//15
f 13//13 19//19 17//17
f 17//17 19//19 20//20
f 13//13 18//18 21//21
f 13//13 21//21 19//19
f 19//19 21//21 22//22
f 17//17 20//20 14//14
f 19//19 23//23 20//20
f 19//19 22//22 23//23
f 18//18 15//15 21//21
f 15//15 24//24 21//21
f 15//15 16//16 24//24
f 21//21 24//24 22//22
f 4//4 25//25 8//8
f 4//4 9//9 26//26
f 8//8 27//27 7//7
f 7//7 27//27 11//11
f 11//11 28//28 12//12
f 9//9 14//14 26//26
f 12//12 28//28 16//16
f 14//14 20//20 29//29
f 20//20 23//23 29//29
f 23//23 22//22 30//30
f 16//16 31//31 24//24
f 24//24 31//31 22//22
f 8//8 25//25 32//32
f 4//4 26//26 25//25
f 8//8 32//32 27//27
f 11//11 27//27 33//33
f 11//11 33//33 28//28
f 14//14 34//34 26//26
f 16//16 28//28 35//35
f 14//14 29//29 34//34
f 23//23 30//30 29//29
f 22//22 36//36 30//30
f 16//16 35//35 31//31
f 22//22 31//31 36//36
f 25//25 37//37 32//32
f 25//25 26//26 38//38
f 32//32 37//37 27//27
f 25//25 38//38 37//37
f 37//37 38//38 39//39
f 37//37 40//40 27//27
f 37//37 39//39 40//40
f 39//39 41//41 40//40
f 27//27 40//40 33//33
f 33//33 42//42 28//28
f 33//33 40//40 42//42
f 40//40 41//41 42//42
f 26//26 34//34 38//38
f 38//38 43//43 39//39
f 39//39 43//43 41//41
f 28//28 42//42 44//44
f 42//42 41//41 45//45
f 38//38 34//34 46//46
f 38//38 46//46 43//43
f 41//41 43//43 45//45
f 28//28 44//44 35//35
f 42//42 45//45 44//44
f 34//34 29//29 46//46
f 29//29 30//30 47//47
f 30//30 36//36 47//47
f 29//29 47//47 46//46
f 46//46 47//47 43//43
f 47//47 36//36 48//48
f 43//43 47//47 45//45
f 47//47 48//48 45//45
f 35//35 44//44 31//31
f 31//31 48//48 36//36
f 31//31 44//44 48//48
f 44//44 45//45 48//48
f 49//49 50//50 51//51
f 49//49 52//52 53//53
f 49//49 54//54 52//52
f 49//49 51//51 54//54
f 50//50 55//55 51//51
f 50//50 56//56 55//55
f 50//50 57//57 56//56
f 49//49 58//58 59//59
f 49//49 60//60 58//58
f 49//49 61//61 60//60
f 49//49 53//53 62//62
f 49//49 62//62 63//63
f 49//49 63//63 64//64
f 49//49 65//65 61//61
f 49//49 64//64 66//66
f 49//49 67//67 65//65
f 49//49 66//66 67//67
f 68//68 69//69 70//70
f 71//71 72//72 73//73
f 74//74 75//75 76//76
f 77//77 78//78 79//79
f 69//69 80//80 81//81
f 82//82 83//83 84//84
f 82//82 85//85 86//86
f 87//87 88//88 89//89
f 90//90 89//89 91//91
f 80//80 92//92 93//93
f 92//92 94//94 95//95
f 96//96 97//97 98//98
f 90//90 99//99 96//96
f 94//94 100//100 101//101
f 100//100 102//102 103//103
f 98//98 104//104 102//102
f 105//105 106//106 107//107
f 83//83 105//105 108//108
f 77//77 109//109 106//106
f 71//71 110//110 72//72
f 74//74 111//111 75//75
f 77//77 79//79 109//109
f 78//78 112//112 79//79
f 69//69 81//81 70//70
f 80//80 93//93 81//81
f 83//83 108//108 84//84
f 82//82 84//84 85//85
f 87//87 113//113 88//88
f 89//89 88//88 91//91
f 92//92 95//95 93//93
f 94//94 101//101 95//95
f 96//96 99//99 97//97
f 90//90 91//91 99//99
f 100//100 103//103 101//101
f 98//98 97//97 104//104
f 102//102 104//104 103//103
f 106//106 109//109 107//107
f 105//105 107//107 108//108
f 114//114 115//115 116//116
f 114//114 117//117 118//118
f 114//114 118//118 119//119
f 114//114 119//119 115//115
f 116//116 115//115 120//120
f 116//116 120//120 121//121
f 116//116 121//121 122//122
f 114//114 123//123 124//124
f 114//114 124//124 125//125
f 114//114 125//125 126//126
f 114//114 127//127 117//117
f 114//114 128//128 127//127
f 114//114 129//129 128//128
f 114//114 126//126 130//130
f 114//114 131//131 129//129
f 114//114 130//130 132//132
f 114//114 132//132 131//131
f 133//133 134//134 135//135
f 135//135 134//134 136//136
f 133//133 137//137 134//134
f 135//135 136//136 138//138
f 134//134 139//139 136//136
f 134//134 140//140 139//139
f 133//133 135//135 141//141
f 133//133 141//141 142//142
f 135//135 143//143 141//141
f 142//142 141//141 144//144
f 141//141 145//145 144//144
f 133//133 142//142 146//146
f 142//142 144//144 146//146
f 144//144 147//147 148//148
f 135//135 138//138 143//143
f 141//141 143//143 145//145
f 144//144 145//145 147//147
f 133//133 149//149 137//137
f 134//134 137//137 140//140
f 149//149 150//150 137//137
f 137//137 150//150 151//151
f 137//137 151//151 140//140
f 150//150 152//152 151//151
f 133//133 146//146 149//149
f 144//144 148//148 146//146
f 149//149 146//146 150//150
f 150//150 146//146 153//153
f 150//150 153//153 154//154
f 146//146 148//148 153//153
f 148//148 155//155 153//153
f 147//147 156//156 148//148
f 150//150 154//154 152//152
f 148//148 156//156 155//155
f 153//153 155//155 154//154
f 136//136 157//157 138//138
f 136//136 139//139 158//158
f 139//139 140//140 158//158
f 138//138 157//157 143//143
f 143//143 159//159 145//145
f 145//145 160//160 147//147
f 140//140 151//151 161//161
f 151//151 152//152 162//162
f 147//147 163//163 156//156
f 152//152 154//154 162//162
f 156//156 164//164 155//155
f 155//155 164//164 154//154
f 136//136 165//165 157//157
f 136//136 158//158 165//165
f 143//143 157//157 159//159
f 145//145 159//159 166//166
f 145//145 166//166 160//160
f 147//147 160//160 163//163
f 140//140 167//167 158//158
f 140//140 161//161 167//167
f 151//151 162//162 161//161
f 154//154 168//168 162//162
f 156//156 163//163 164//164
f 154//154 164//164 168//168
f 165//165 169//169 157//157
f 165//165 158//158 170//170
f 158//158 167//167 170//170
f 165//165 170//170 169//169
f 169//169 170//170 171//171
f 170//170 172//172 171//171
f 157//157 173//173 159//159
f 159//159 173//173 166//166
f 166//166 174//174 160//160
f 160//160 174//174 163//163
f 157//157 169//169 173//173
f 169//169 171//171 173//173
f 171//171 175//175 173//173
f 166//166 173//173 174//174
f 173//173 175//175 174//174
f 171//171 172//172 175//175
f 174//174 175//175 176//176
f 167//167 161//161 177//177
f 161//161 162//162 178//178
f 170//170 167//167 177//177
f 170//170 177//177 172//172
f 161//161 178//178 177//177
f 177//177 178//178 172//172
f 162//162 168//168 179//179
f 163//163 180//180 164//164
f 164//164 179//179 168//168
f 172//172 176//176 175//175
f 174//174 180//180 163//163
f 174//174 176//176 180//180
f 162//162 179//179 178//178
f 172//172 178//178 179//179
f 172//172 179//179 176//176
f 164//164 180//180 179//179
f 180//180 176//176 179//179
f 181//181 182//182 183//183
f 181//181 184//184 182//182
f 182//182 185//185 186//186
f 182//182 184//184 185//185
f 184//184 187//187 185//185
f 182//182 186//186 183//183
f 186//186 188//188 183//183
f 183//183 189//189 190//190
f 188//188 189//189 183//183
f 181//181 183//183 190//190
f 189//189 191//191 190//190
f 188//188 192//192 189//189
f 189//189 192//192 193//193
f 189//189 193//193 191//191
f 193//193 192//192 194//194
f 186//186 195//195 188//188
f 186//186 196//196 195//195
f 186//186 185//185 196//196
f 188//188 195//195 192//192
f 192//192 197//197 194//194
f 192//192 195//195 197//197
f 194//194 197//197 198//198
f 181//181 199//199 184//184
f 184//184 199//199 187//187
f 181//181 190//190 200//200
f 190//190 191//191 200//200
f 191//191 193//193 201//201
f 193//193 194//194 201//201
f 194//194 198//198 202//202
f 185//185 203//203 204//204
f 185//185 187//187 203//203
f 185//185 204//204 196//196
f 196//196 204//204 205//205
f 204//204 206//206 205//205
f 196//196 205//205 195//195
f 203//203 206//206 204//204
f 205//205 206//206 207//207
f 195//195 205//205 197//197
f 205//205 208//208 197//197
f 205//205 207//207 208//208
f 197//197 208//208 198//198
f 187//187 209//209 203//203
f 203//203 210//210 206//206
f 206//206 211//211 207//207
f 207//207 212//212 208//208
f 198//198 208//208 212//212
f 181//181 213//213 199//199
f 181//181 200//200 213//213
f 187//187 199//199 214//214
f 191//191 215//215 200//200
f 191//191 201//201 215//215
f 194//194 202//202 201//201
f 198//198 216//216 202//202
f 213//213 217//217 199//199
f 213//213 218//218 217//217
f 199//199 217//217 219//219
f 199//199 219//219 214//214
f 217//217 220//220 219//219
f 213//213 200//200 218//218
f 200//200 215//215 221//221
f 200//200 221//221 218//218
f 217//217 218//218 222//222
f 218//218 221//221 222//222
f 221//221 223//223 222//222
f 215//215 201//201 221//221
f 201//201 202//202 224//224
f 221//221 201//201 224//224
f 221//221 224//224 223//223
f 217//217 222//222 220//220
f 202//202 216//216 224//224
f 224//224 225//225 223//223
f 224//224 216//216 226//226
f 224//224 226//226 225//225
f 222//222 223//223 225//225
f 222//222 225//225 220//220
f 187//187 214//214 209//209
f 203//203 209//209 210//210
f 206//206 210//210 211//211
f 207//207 211//211 212//212
f 198//198 212//212 216//216
f 214//214 219//219 209//209
f 219//219 227//227 209//209
f 209//209 227//227 210//210
f 210//210 227//227 211//211
f 219//219 220//220 227//227
f 227//227 220//220 225//225
f 211//211 227//227 228//228
f 227//227 225//225 228//228
f 211//211 228//228 212//212
f 216//216 212//212 226//226
f 228//228 226//226 212//212
f 228//228 225//225 226//226
f 229//229 230//230 231//231
f 229//229 231//231 232//232
f 229//229 233//233 230//230
f 229//229 234//234 235//235
f 231//231 230//230 236//236
f 231//231 236//236 237//237
f 230//230 238//238 236//236
f 231//231 237//237 232//232
f 230//230 233//233 238//238
f 236//236 239//239 237//237
f 236//236 238//238 240//240
f 237//237 239//239 241//241
f 229//229 232//232 234//234
f 234//234 232//232 242//242
f 234//234 242//242 243//243
f 237//237 241//241 232//232
f 232//232 244//244 242//242
f 232//232 241//241 244//244
f 242//242 244//244 245//245
f 242//242 245//245 243//243
f 241//241 246//246 244//244
f 244//244 246//246 245//245
f 229//229 235//235 233//233
f 235//235 247//247 233//233
f 235//235 248//248 247//247
f 238//238 233//233 249//249
f 233//233 247//247 250//250
f 233//233 250//250 249//249
f 247//247 251//251 250//250
f 247//247 248//248 251//251
f 238//238 249//249 252//252
f 249//249 250//250 253//253
f 250//250 251//251 253//253
f 234//234 254//254 235//235
f 234//234 243//243 254//254
f 235//235 254//254 248//248
f 254//254 243//243 248//248
f 245//245 255//255 243//243
f 251//251 248//248 256//256
f 248//248 243//243 257//257
f 243//243 255//255 257//257
f 248//248 257//257 256//256
f 245//245 258//258 255//255
f 251//251 256//256 259//259
f 255//255 258//258 257//257
f 256//256 257//257 259//259
f 236//236 260//260 239//239
f 236//236 240//240 260//260
f 238//238 252//252 240//240
f 260//260 261//261 239//239
f 260//260 240//240 262//262
f 260//260 262//262 261//261
f 239//239 261//261 263//263
f 240//240 252//252 262//262
f 261//261 262//262 264//264
f 261//261 264//264 265//265
f 262//262 266//266 264//264
f 241//241 239//239 267//267
f 241//241 267//267 246//246
f 245//245 246//246 268//268
f 245//245 268//268 258//258
f 239//239 263//263 267//267
f 267//267 263//263 246//246
f 246//246 269//269 268//268
f 263//263 269//269 246//246
f 268//268 269//269 258//258
f 261//261 265//265 263//263
f 263//263 265//265 269//269
f 264//264 270//270 265//265
f 269//269 265//265 271//271
f 249//249 253//253 252//252
f 251//251 272//272 253//253
f 251//251 259//259 272//272
f 262//262 252//252 273//273
f 252//252 253//253 273//273
f 253//253 274//274 273//273
f 253//253 272//272 274//274
f 272//272 259//259 274//274
f 262//262 273//273 266//266
f 264//264 266//266 270//270
f 273//273 274//274 266//266
f 274//274 270//270 266//266
f 257//257 258//258 275//275
f 257//257 275//275 259//259
f 269//269 271//271 258//258
f 274//274 259//259 276//276
f 258//258 271//271 275//275
f 276//276 275//275 271//271
f 259//259 275//275 276//276
f 265//265 270//270 271//271
f 274//274 276//276 270//270
f 276//276 271//271 270//270
f 277//277 278//278 279//279
f 277//277 280//280 278//278
f 281//281 282//282 283//283
f 284//284 285//285 286//286
f 287//287 288//288 289//289
f 290//290 291//291 292//292
f 282//282 293//293 283//283
f 284//284 294//294 285//285
f 288//288 295//295 289//289
f 290//290 296//296 291//291
f 297//297 298//298 299//299
f 297//297 299//299 300//300
f 301//301 302//302 303//303
f 301//301 303//303 304//304
f 301//301 304//304 305//305
f 303//303 306//306 304//304
f 302//302 307//307 303//303
f 303//303 308//308 306//306
f 304//304 309//309 305//305
f 306//306 309//309 304//304
f 303//303 307//307 308//308
f 306//306 308//308 310//310
f 306//306 310//310 311//311
f 306//306 312//312 309//309
f 305//305 309//309 313//313
f 306//306 311//311 312//312
f 307//307 314//314 308//308
f 308//308 314//314 315//315
f 308//308 315//315 310//310
f 314//314 316//316 315//315
f 310//310 315//315 317//317
f 315//315 316//316 317//317
f 310//310 317//317 311//311
f 316//316 318//318 317//317
f 309//309 319//319 313//313
f 309//309 320//320 319//319
f 312//312 320//320 309//309
f 319//319 320//320 321//321
f 312//312 311//311 320//320
f 320//320 322//322 321//321
f 320//320 311//311 322//322
f 321//321 322//322 323//323
f 311//311 317//317 322//322
f 317//317 318//318 324//324
f 317//317 324//324 322//322
f 322//322 324//324 323//323
f 301//301 325//325 302//302
f 301//301 305//305 326//326
f 302//302 327//327 307//307
f 305//305 313//313 328//328
f 302//302 325//325 329//329
f 301//301 326//326 325//325
f 302//302 329//329 327//327
f 305//305 328//328 326//326
f 307//307 330//330 314//314
f 314//314 330//330 316//316
f 316//316 331//331 318//318
f 307//307 327//327 330//330
f 316//316 330//330 331//331
f 318//318 331//331 332//332
f 313//313 319//319 328//328
f 319//319 321//321 333//333
f 321//321 323//323 333//333
f 319//319 334//334 328//328
f 319//319 333//333 334//334
f 323//323 335//335 333//333
f 318//318 336//336 324//324
f 324//324 336//336 323//323
f 318//318 332//332 336//336
f 323//323 336//336 335//335
f 325//325 337//337 329//329
f 325//325 338//338 337//337
f 325//325 326//326 338//338
f 337//337 338//338 339//339
f 329//329 337//337 327//327
f 337//337 339//339 340//340
f 326//326 341//341 338//338
f 338//338 341//341 339//339
f 337//337 340//340 327//327
f 339//339 342//342 340//340
f 339//339 343//343 342//342
f 326//326 328//328 341//341
f 339//339 341//341 344//344
f 339//339 344//344 343//343
f 327//327 340//340 330//330
f 340//340 345//345 330//330
f 340//340 342//342 345//345
f 330//330 345//345 331//331
f 342//342 343//343 345//345
f 345//345 332//332 331//331
f 345//345 343//343 346//346
f 345//345 346//346 332//332
f 328//328 334//334 341//341
f 341//341 334//334 347//347
f 341//341 347//347 344//344
f 334//334 333//333 347//347
f 344//344 347//347 348//348
f 347//347 333//333 348//348
f 344//344 348//348 343//343
f 333//333 335//335 348//348
f 343//343 348//348 346//346
f 346//346 336//336 332//332
f 346//346 348//348 336//336
f 348//348 335//335 336//336
f 349//349 350//350 351//351
f 351//351 350//350 352//352
f 351//351 352//352 353//353
f 350//350 354//354 352//352
f 350//350 355//355 354//354
f 349//349 356//356 350//350
f 349//349 357//357 356//356
f 350//350 356//356 355//355
f 357//357 358//358 356//356
f 356//356 359//359 355//355
f 356//356 358//358 359//359
f 358//358 360//360 359//359
f 352//352 361//361 353//353
f 354//354 361//361 352//352
f 354//354 355//355 362//362
f 354//354 362//362 361//361
f 353//353 361//361 363//363
f 361//361 364//364 363//363
f 362//362 365//365 361//361
f 361//361 365//365 364//364
f 364//364 365//365 366//366
f 362//362 367//367 365//365
f 365//365 368//368 366//366
f 355//355 367//367 362//362
f 365//365 367//367 369//369
f 365//365 369//369 368//368
f 355//355 359//359 370//370
f 359//359 360//360 370//370
f 355//355 370//370 367//367
f 360//360 371//371 370//370
f 367//367 370//370 369//369
f 370//370 371//371 372//372
f 370//370 372//372 369//369
f 369//369 372//372 368//368
f 349//349 351//351 373//373
f 351//351 353//353 374//374
f 349//349 375//375 357//357
f 349//349 373//373 375//375
f 351//351 376//376 373//373
f 351//351 374//374 376//376
f 357//357 377//377 358//358
f 358//358 377//377 360//360
f 357//357 375//375 377//377
f 360//360 377//377 378//378
f 353//353 363//363 379//379
f 363//363 364//364 379//379
f 364//364 366//366 380//380
f 366//366 368//368 380//380
f 353//353 379//379 374//374
f 364//364 381//381 379//379
f 364//364 380//380 381//381
f 368//368 382//382 380//380
f 360//360 378//378 371//371
f 371//371 383//383 372//372
f 368//368 372//372 383//383
f 371//371 378//378 384//384
f 371//371 384//384 383//383
f 368//368 383//383 382//382
f 373//373 376//376 385//385
f 376//376 386//386 385//385
f 376//376 374//374 386//386
f 385//385 386//386 387//387
f 373//373 385//385 388//388
f 385//385 387//387 388//388
f 373//373 388//388 375//375
f 387//387 389//389 388//388
f 375//375 388//388 377//377
f 388//388 389//389 390//390
f 388//388 390//390 377//377
f 377//377 390//390 378//378
f 374//374 391//391 386//386
f 386//386 391//391 387//387
f 387//387 392//392 389//389
f 374//374 379//379 391//391
f 387//387 391//391 393//393
f 387//387 393//393 392//392
f 379//379 381//381 391//391
f 391//391 394//394 393//393
f 391//391 381//381 394//394
f 381//381 380//380 394//394
f 393//393 394//394 395//395
f 394//394 380//380 395//395
f 393//393 395//395 392//392
f 380//380 382//382 395//395
f 389//389 392//392 390//390
f 390//390 384//384 378//378
f 390//390 392//392 396//396
f 390//390 396//396 384//384
f 392//392 395//395 396//396
f 396//396 383//383 384//384
f 396//396 395//395 383//383
f 395//395 382//382 383//383
f 397//397 398//398 399//399
f 397//397 399//399 400//400
f 398//398 401//401 399//399
f 400//400 399//399 402//402
f 402//402 399//399 403//403
f 402//402 403//403 404//404
f 405//405 406//406 407//407
f 407//407 408//408 409//409
f 409//409 410//410 411//411
f 412//412 413//413 414//414
f 415//415 416//416 417//417
f 404//404 403//403 418//418
f 404//404 418//418 416//416
f 417//417 416//416 418//418
f 413//413 419//419 414//414
f 414//414 419//419 420//420
f 419//419 415//415 420//420
f 420//420 415//415 417//417
f 411//411 421//421 422//422
f 423//423 424//424 425//425
f 426//426 422//422 427//427
f 424//424 426//426 425//425
f 407//407 406//406 428//428
f 407//407 428//428 408//408
f 409//409 408//408 410//410
f 429//429 430//430 431//431
f 429//429 432//432 433//433
f 429//429 433//433 430//430
f 432//432 434//434 433//433
f 434//434 435//435 433//433
f 433//433 435//435 436//436
f 411//411 410//410 421//421
f 422//422 421//421 427//427
f 423//423 425//425 437//437
f 426//426 427//427 425//425
f 438//438 439//439 440//440
f 441//441 442//442 443//443
f 435//435 444//444 436//436
f 436//436 444//444 443//443
f 441//441 443//443 444//444
f 440//440 439//439 445//445
f 440//440 445//445 446//446
f 446//446 442//442 441//441
f 446//446 445//445 442//442
f 447//447 448//448 449//449
f 448//448 450//450 451//451
f 450//450 452//452 453//453
f 454//454 455//455 456//456
f 456//456 457//457 458//458
f 459//459 460//460 461//461
f 458//458 462//462 459//459
f 452//452 461//461 463//463
f 447//447 449//449 464//464
f 448//448 451//451 449//449
f 450//450 453//453 451//451
f 452//452 463//463 453//453
f 456//456 455//455 457//457
f 458//458 457//457 462//462
f 459//459 462//462 460//460
f 461//461 460//460 463//463
f 465//465 466//466 467//467
f 465//465 468//468 466//466
f 469//469 470//470 471//471
f 470//470 472//472 471//471
