v -0.21714 0.11936 -1.04050
v -0.22300 0.13350 -1.04050
v -0.21714 0.13350 -1.05464
v -0.20300 0.11936 -1.05464
v -0.22300 0.13350 -0.83450
v -0.20300 0.11350 -1.04050
v -0.20300 0.13350 -1.06050
v -0.20300 0.11350 -0.83450
v -0.21714 0.11936 -0.83450
v -0.21714 0.13350 -0.82036
v -0.20300 0.11936 -0.82036
v -0.20300 0.13350 -0.81450
v -0.22300 0.34150 -1.04050
v -0.20300 0.34150 -1.06050
v -0.21714 0.34150 -0.82036
v -0.20300 0.34150 -0.81450
v -0.21714 0.34150 -1.05464
v -0.22300 0.34150 -0.83450
v -0.21714 0.35564 -1.04050
v -0.20300 0.35564 -1.05464
v -0.21714 0.35564 -0.83450
v -0.20300 0.36150 -1.04050
v -0.20300 0.36150 -0.83450
v -0.20300 0.35564 -0.82036
v 0.20300 0.11936 -1.05464
v 0.20300 0.13350 -1.06050
v 0.20300 0.11350 -0.83450
v 0.20300 0.13350 -0.81450
v 0.20300 0.35564 -1.05464
v 0.20300 0.36150 -1.04050
v 0.20300 0.35564 -0.82036
v 0.20300 0.11350 -1.04050
v 0.20300 0.11936 -0.82036
v 0.20300 0.34150 -1.06050
v 0.20300 0.34150 -0.81450
v 0.20300 0.36150 -0.83450
v 0.21714 0.11936 -1.04050
v 0.21714 0.13350 -1.05464
v 0.22300 0.13350 -1.04050
v 0.21714 0.11936 -0.83450
v 0.21714 0.13350 -0.82036
v 0.22300 0.13350 -0.83450
v 0.22300 0.34150 -1.04050
v 0.21714 0.34150 -0.82036
v 0.22300 0.34150 -0.83450
v 0.21714 0.34150 -1.05464
v 0.21714 0.35564 -1.04050
v 0.21714 0.35564 -0.83450
v -0.21861 0.01789 -0.79550
v -0.20800 0.01789 -0.80611
v -0.20800 0.01350 -0.79550
v -0.22300 0.02850 -0.79550
v -0.21861 0.02850 -0.80611
v -0.20800 0.02850 -0.81050
v -0.21861 0.01789 -0.72950
v -0.20800 0.01350 -0.72950
v -0.20800 0.01789 -0.71889
v -0.22300 0.02850 -0.72950
v -0.21861 0.02850 -0.71889
v -0.20800 0.02850 -0.71450
v -0.21861 0.34650 -0.80611
v -0.22300 0.34650 -0.72950
v -0.20800 0.34650 -0.71450
v -0.22300 0.34650 -0.79550
v -0.20800 0.34650 -0.81050
v -0.21861 0.34650 -0.71889
v -0.21861 0.35711 -0.79550
v -0.20800 0.35711 -0.80611
v -0.20800 0.36150 -0.79550
v -0.21861 0.35711 -0.72950
v -0.20800 0.36150 -0.72950
v -0.20800 0.35711 -0.71889
v 0.20800 0.01789 -0.80611
v 0.20800 0.01350 -0.79550
v 0.20800 0.01789 -0.71889
v 0.20800 0.02850 -0.71450
v 0.20800 0.34650 -0.81050
v 0.20800 0.36150 -0.79550
v 0.20800 0.34650 -0.71450
v 0.20800 0.36150 -0.72950
v 0.20800 0.02850 -0.81050
v 0.20800 0.01350 -0.72950
v 0.20800 0.35711 -0.80611
v 0.20800 0.35711 -0.71889
v 0.21861 0.01789 -0.79550
v 0.21861 0.02850 -0.80611
v 0.22300 0.02850 -0.79550
v 0.21861 0.01789 -0.72950
v 0.22300 0.02850 -0.72950
v 0.21861 0.02850 -0.71889
v 0.22300 0.34650 -0.79550
v 0.22300 0.34650 -0.72950
v 0.21861 0.34650 -0.80611
v 0.21861 0.34650 -0.71889
v 0.21861 0.35711 -0.79550
v 0.21861 0.35711 -0.72950
v -0.21861 -0.14650 -0.60611
v -0.21861 -0.15711 -0.59550
v -0.22300 -0.14650 -0.59550
v -0.20800 -0.15711 -0.60611
v -0.20800 -0.16150 -0.59550
v -0.20800 -0.14650 -0.61050
v -0.21861 -0.07850 -0.60611
v -0.20800 -0.07850 -0.61050
v -0.22300 -0.07850 -0.59550
v -0.21861 -0.06789 -0.59550
v -0.20800 -0.06789 -0.60611
v -0.20800 -0.06350 -0.59550
v -0.21861 -0.15711 -0.02950
v -0.22300 -0.07850 -0.02950
v -0.22300 -0.14650 -0.02950
v -0.20800 -0.16150 -0.02950
v -0.21861 -0.14650 -0.01889
v -0.20800 -0.15711 -0.01889
v -0.20800 -0.14650 -0.01450
v -0.20800 -0.07850 -0.01450
v -0.21861 -0.07850 -0.01889
v -0.20800 -0.06350 -0.02950
v -0.21861 -0.06789 -0.02950
v -0.20800 -0.06789 -0.01889
v 0.20800 -0.15711 -0.60611
v 0.20800 -0.07850 -0.61050
v 0.20800 -0.06350 -0.59550
v 0.20800 -0.16150 -0.02950
v 0.20800 -0.15711 -0.01889
v 0.20800 -0.14650 -0.01450
v 0.20800 -0.06789 -0.01889
v 0.20800 -0.06350 -0.02950
v 0.20800 -0.16150 -0.59550
v 0.20800 -0.14650 -0.61050
v 0.20800 -0.06789 -0.60611
v 0.20800 -0.07850 -0.01450
v 0.21861 -0.15711 -0.59550
v 0.21861 -0.14650 -0.60611
v 0.22300 -0.14650 -0.59550
v 0.21861 -0.07850 -0.60611
v 0.22300 -0.07850 -0.59550
v 0.21861 -0.06789 -0.59550
v 0.21861 -0.15711 -0.02950
v 0.22300 -0.14650 -0.02950
v 0.21861 -0.14650 -0.01889
v 0.22300 -0.07850 -0.02950
v 0.21861 -0.07850 -0.01889
v 0.21861 -0.06789 -0.02950
v -0.16421 -0.33150 -0.00171
v -0.14300 -0.33150 -0.01050
v -0.14300 -0.35271 -0.00171
v -0.14300 -0.14150 -0.01050
v -0.16714 -0.15150 0.00536
v -0.16421 -0.14736 -0.00171
v -0.16421 -0.14736 -0.00171
v -0.15714 -0.15150 -0.00464
v -0.15300 -0.15150 -0.00636
v 0.14300 -0.35271 -0.00171
v 0.14300 -0.33150 -0.01050
v -0.03061 -0.14150 -0.01050
v -0.06540 -0.10343 -0.01050
v -0.17300 -0.33150 0.01950
v -0.16421 -0.35271 0.01950
v -0.17300 -0.33150 0.13950
v -0.17300 -0.26100 0.13950
v -0.16886 -0.15150 0.00950
v -0.17300 -0.14150 0.01950
v -0.17300 -0.25393 0.14243
v -0.17300 -0.25100 0.14950
v -0.17300 -0.25100 0.30550
v -0.16421 -0.25100 0.32671
v -0.17300 -0.14150 0.30550
v -0.14300 -0.36150 0.01950
v -0.16200 -0.35363 0.13950
v -0.16421 -0.35271 0.13950
v -0.16421 -0.35271 0.13950
v -0.15493 -0.35656 0.14243
v -0.15200 -0.35777 0.14950
v -0.14300 -0.36150 0.30550
v -0.15200 -0.35777 0.30550
v -0.15200 -0.35271 0.31771
v -0.14300 -0.35271 0.32671
v -0.15200 -0.34371 0.32671
v -0.14300 -0.33150 0.33550
v -0.15200 -0.33150 0.33177
v -0.15200 -0.26100 0.33177
v -0.16421 -0.15686 0.32671
v -0.16421 -0.25100 0.32671
v -0.16200 -0.25100 0.32763
v -0.15493 -0.25393 0.33056
v -0.15300 -0.16150 0.33136
v -0.14300 -0.16150 0.33550
v -0.17300 -0.01850 0.01950
v -0.17300 -0.14150 0.01950
v -0.16714 -0.15564 0.31964
v -0.17300 -0.01850 0.30550
v -0.16421 -0.15686 0.32671
v 0.14300 -0.36150 0.30550
v 0.14300 -0.35271 0.32671
v 0.14300 -0.33150 0.33550
v 0.14300 -0.14150 -0.01050
v 0.16421 -0.33150 -0.00171
v 0.15714 -0.15150 -0.00464
v 0.15300 -0.15150 -0.00636
v 0.16421 -0.14736 -0.00171
v 0.16421 -0.14736 -0.00171
v 0.16714 -0.15150 0.00536
v 0.14300 -0.36150 0.01950
v 0.14300 -0.16150 0.33550
v 0.16421 -0.35271 0.01950
v 0.15493 -0.35656 0.14243
v 0.15200 -0.35777 0.14950
v 0.16200 -0.35363 0.13950
v 0.16421 -0.35271 0.13950
v 0.17300 -0.33150 0.01950
v 0.16421 -0.35271 0.13950
v 0.15200 -0.35777 0.30550
v 0.15200 -0.35271 0.31771
v 0.15200 -0.34371 0.32671
v 0.15200 -0.33150 0.33177
v 0.15200 -0.26100 0.33177
v 0.16886 -0.15150 0.00950
v 0.15300 -0.16150 0.33136
v 0.15493 -0.25393 0.33056
v 0.16200 -0.25100 0.32763
v 0.16421 -0.25100 0.32671
v 0.16421 -0.15686 0.32671
v 0.16421 -0.25100 0.32671
v 0.17300 -0.25100 0.30550
v 0.17300 -0.33150 0.13950
v 0.17300 -0.26100 0.13950
v 0.17300 -0.25393 0.14243
v 0.17300 -0.14150 0.30550
v 0.17300 -0.14150 0.01950
v 0.17300 -0.25100 0.14950
v 0.16421 -0.15686 0.32671
v 0.16714 -0.15564 0.31964
v -0.19800 0.04350 -0.08050
v -0.18921 0.04350 -0.10171
v -0.18921 0.02229 -0.08050
v -0.16800 0.02229 -0.10171
v -0.16800 0.01350 -0.08050
v -0.16800 0.04350 -0.11050
v -0.19800 0.08150 -0.08050
v -0.18921 0.08150 -0.10171
v -0.16800 0.08150 -0.11050
v -0.18921 0.10271 -0.08050
v -0.16800 0.10271 -0.10171
v -0.16800 0.11150 -0.08050
v 0.16800 0.01350 -0.08050
v 0.16800 0.04350 -0.11050
v 0.16800 0.10271 -0.10171
v -0.19800 0.08150 0.43050
v -0.19800 0.04350 0.43050
v -0.18921 0.02229 0.43050
v -0.16800 0.01350 0.43050
v -0.18921 0.04350 0.45171
v -0.16800 0.02229 0.45171
v -0.16800 0.04350 0.46050
v -0.18921 0.08150 0.45171
v -0.16800 0.08150 0.46050
v -0.18921 0.10271 0.43050
v -0.16800 0.11150 0.43050
v -0.16800 0.10271 0.45171
v 0.16800 0.01350 0.43050
v 0.16800 0.02229 0.45171
v 0.16800 0.08150 0.46050
v 0.16800 0.11150 -0.08050
v 0.16800 0.10271 0.45171
v 0.16800 0.02229 -0.10171
v 0.16800 0.08150 -0.11050
v 0.18921 0.02229 -0.08050
v 0.18921 0.04350 -0.10171
v 0.19800 0.04350 -0.08050
v 0.18921 0.08150 -0.10171
v 0.19800 0.08150 -0.08050
v 0.18921 0.10271 -0.08050
v 0.16800 0.04350 0.46050
v 0.16800 0.11150 0.43050
v 0.18921 0.02229 0.43050
v 0.19800 0.04350 0.43050
v 0.19800 0.08150 0.43050
v 0.18921 0.04350 0.45171
v 0.18921 0.08150 0.45171
v 0.18921 0.10271 0.43050
v -0.17300 -0.14150 0.00950
v -0.16714 -0.00850 -0.00464
v -0.16714 -0.14150 -0.00464
v -0.16421 -0.14736 -0.00171
v -0.15300 -0.14150 -0.01050
v -0.15300 -0.00850 -0.01050
v 0.15300 -0.00850 -0.01050
v -0.16714 -0.15564 0.44050
v -0.17300 -0.14150 0.44050
v -0.16714 -0.14150 0.45464
v -0.17300 -0.00850 0.00950
v -0.17300 -0.00850 0.44050
v -0.16714 -0.00850 0.45464
v -0.16714 -0.15564 0.31964
v -0.16421 -0.15686 0.32671
v -0.15300 -0.16150 0.33136
v -0.15300 -0.16150 0.44050
v -0.14300 -0.16150 0.33550
v -0.15300 -0.15564 0.45464
v -0.15300 -0.14150 0.46050
v -0.15300 -0.00850 0.46050
v 0.15300 -0.16150 0.44050
v 0.15300 -0.15564 0.45464
v 0.15300 -0.00850 0.46050
v -0.16714 0.00564 0.00950
v -0.15300 0.00564 -0.00464
v -0.15300 0.01150 0.00950
v 0.15300 0.00564 -0.00464
v -0.16714 0.00564 0.44050
v -0.15300 0.01150 0.44050
v -0.15300 0.00564 0.45464
v 0.15300 0.01150 0.44050
v 0.15300 0.00564 0.45464
v 0.15300 -0.14150 -0.01050
v 0.16714 -0.14150 -0.00464
v 0.16421 -0.14736 -0.00171
v 0.16714 -0.00850 -0.00464
v 0.17300 -0.00850 0.00950
v 0.14300 -0.16150 0.33550
v 0.15300 -0.14150 0.46050
v 0.15300 -0.16150 0.33136
v 0.16714 -0.15564 0.44050
v 0.16421 -0.15686 0.32671
v 0.16714 -0.15564 0.31964
v 0.16714 -0.14150 0.45464
v 0.16714 -0.00850 0.45464
v 0.17300 -0.14150 0.00950
v 0.17300 -0.14150 0.44050
v 0.17300 -0.00850 0.44050
v 0.16714 0.00564 0.00950
v 0.15300 0.01150 0.00950
v 0.16714 0.00564 0.44050
v -0.15000 0.03750 0.46250
v -0.15000 0.21250 0.56250
v -0.15000 0.11250 0.46250
v -0.15000 0.13750 0.56250
v -0.15000 0.03750 0.46250
v -0.15000 0.11250 0.46250
v 0.15000 0.03750 0.46250
v -0.15000 0.03750 0.46250
v 0.15000 0.13750 0.56250
v -0.15000 0.13750 0.56250
v -0.15000 0.11250 0.46250
v -0.15000 0.21250 0.56250
v 0.15000 0.11250 0.46250
v -0.15000 0.13750 0.56250
v 0.15000 0.21250 0.56250
v -0.15000 0.21250 0.56250
v 0.15000 0.03750 0.46250
v 0.15000 0.11250 0.46250
v 0.15000 0.13750 0.56250
v 0.15000 0.21250 0.56250
v 0.15000 0.03750 0.46250
v 0.15000 0.11250 0.46250
v 0.15000 0.21250 0.56250
v 0.15000 0.13750 0.56250
v -0.22007 -0.37107 0.14950
v -0.22300 -0.36400 0.14950
v -0.22007 -0.36400 0.14243
v -0.21300 -0.37107 0.14243
v -0.21300 -0.37400 0.14950
v -0.21300 -0.36400 0.13950
v -0.22007 -0.26100 0.14243
v -0.16200 -0.37107 0.14243
v -0.16200 -0.36400 0.13950
v -0.21300 -0.26100 0.13950
v -0.22300 -0.26100 0.14950
v -0.16200 -0.37400 0.14950
v -0.17300 -0.33150 0.13950
v -0.16421 -0.35271 0.13950
v -0.17300 -0.26100 0.13950
v -0.22300 -0.36400 0.75050
v -0.22007 -0.37107 0.75050
v -0.21300 -0.37400 0.75050
v -0.22007 -0.25393 0.14950
v -0.21300 -0.25393 0.14243
v -0.21300 -0.25100 0.14950
v -0.17300 -0.25393 0.14243
v -0.17300 -0.25100 0.14950
v -0.17300 -0.25393 0.14243
v -0.17300 -0.25100 0.30550
v -0.22300 -0.26100 0.75050
v -0.22007 -0.25393 0.75050
v -0.21300 -0.25100 0.75050
v -0.16421 -0.25100 0.32671
v -0.16200 -0.25100 0.32763
v -0.16200 -0.35363 0.13950
v -0.15493 -0.37107 0.14950
v -0.15493 -0.36400 0.14243
v -0.15200 -0.36400 0.14950
v -0.15493 -0.35656 0.14243
v -0.15493 -0.35656 0.14243
v -0.15200 -0.35777 0.14950
v -0.15200 -0.35777 0.30550
v -0.15493 -0.37107 0.75050
v -0.15200 -0.36400 0.75050
v -0.15200 -0.35271 0.31771
v -0.15200 -0.34371 0.32671
v -0.15200 -0.33150 0.33177
v -0.15200 -0.26100 0.75050
v -0.15200 -0.26100 0.33177
v -0.16200 -0.25100 0.75050
v -0.15493 -0.25393 0.33056
v -0.15493 -0.25393 0.75050
v -0.15493 -0.25393 0.33056
v -0.22007 -0.36400 0.75757
v -0.21300 -0.37107 0.75757
v -0.21300 -0.36400 0.76050
v -0.22007 -0.26100 0.75757
v -0.16200 -0.37107 0.75757
v -0.16200 -0.36400 0.76050
v -0.21300 -0.26100 0.76050
v -0.16200 -0.37400 0.75050
v -0.16200 -0.26100 0.76050
v -0.21300 -0.25393 0.75757
v -0.16200 -0.25393 0.75757
v -0.15493 -0.36400 0.75757
v -0.15493 -0.26100 0.75757
v 0.15200 -0.36400 0.14950
v 0.15200 -0.35777 0.14950
v 0.15493 -0.36400 0.14243
v 0.15200 -0.35777 0.30550
v 0.15493 -0.37107 0.14950
v 0.16200 -0.37107 0.14243
v 0.16200 -0.37400 0.14950
v 0.16200 -0.36400 0.13950
v 0.15493 -0.35656 0.14243
v 0.15493 -0.35656 0.14243
v 0.16200 -0.35363 0.13950
v 0.15200 -0.36400 0.75050
v 0.16200 -0.37400 0.75050
v 0.15200 -0.35271 0.31771
v 0.15200 -0.34371 0.32671
v 0.15200 -0.33150 0.33177
v 0.15200 -0.26100 0.33177
v 0.16200 -0.25100 0.75050
v 0.17300 -0.25100 0.30550
v 0.16421 -0.25100 0.32671
v 0.15493 -0.25393 0.75050
v 0.15493 -0.25393 0.33056
v 0.16200 -0.25100 0.32763
v 0.15493 -0.25393 0.33056
v 0.21300 -0.37107 0.14243
v 0.21300 -0.36400 0.13950
v 0.16421 -0.35271 0.13950
v 0.17300 -0.33150 0.13950
v 0.21300 -0.26100 0.13950
v 0.17300 -0.26100 0.13950
v 0.21300 -0.37400 0.14950
v 0.22007 -0.37107 0.14950
v 0.22007 -0.36400 0.14243
v 0.22300 -0.36400 0.14950
v 0.22007 -0.26100 0.14243
v 0.22300 -0.26100 0.14950
v 0.22007 -0.37107 0.75050
v 0.22300 -0.36400 0.75050
v 0.21300 -0.25393 0.14243
v 0.17300 -0.25393 0.14243
v 0.21300 -0.25100 0.14950
v 0.17300 -0.25393 0.14243
v 0.17300 -0.25100 0.14950
v 0.22007 -0.25393 0.14950
v 0.22007 -0.25393 0.75050
v 0.15493 -0.37107 0.75050
v 0.15493 -0.36400 0.75757
v 0.16200 -0.37107 0.75757
v 0.16200 -0.36400 0.76050
v 0.15493 -0.26100 0.75757
v 0.15200 -0.26100 0.75050
v 0.16200 -0.26100 0.76050
v 0.16200 -0.25393 0.75757
v 0.21300 -0.37107 0.75757
v 0.21300 -0.36400 0.76050
v 0.21300 -0.37400 0.75050
v 0.22007 -0.36400 0.75757
v 0.21300 -0.26100 0.76050
v 0.22300 -0.26100 0.75050
v 0.22007 -0.26100 0.75757
v 0.21300 -0.25393 0.75757
v 0.21300 -0.25100 0.75050
v -0.12500 -0.23850 1.01526
v -0.12500 -0.11875 1.02308
v -0.12500 -0.22515 1.01350
v -0.12500 -0.23850 1.06526
v -0.12500 -0.21221 1.06180
v -0.12500 -0.14375 0.97978
v -0.12500 -0.03850 0.96150
v -0.12500 -0.07385 0.92615
v -0.12500 0.02308 0.88125
v -0.12500 -0.02022 0.85625
v -0.12500 -0.23850 1.06526
v 0.12500 -0.23850 1.06526
v -0.12500 -0.21221 1.06180
v 0.12500 -0.11875 1.02308
v -0.12500 -0.11875 1.02308
v 0.12500 -0.03850 0.96150
v -0.12500 -0.03850 0.96150
v -0.12500 -0.00292 0.56050
v -0.12500 0.01350 0.60015
v -0.12500 0.05073 0.56050
v -0.12500 0.02500 0.68750
v -0.12500 0.06180 0.58721
v -0.12500 0.01350 0.77485
v -0.12500 0.07500 0.68750
v -0.12500 0.06180 0.78779
v -0.12500 0.05073 0.56050
v -0.12500 0.06180 0.58721
v 0.12500 0.06180 0.58721
v -0.12500 0.07500 0.68750
v -0.12500 0.06180 0.78779
v 0.12500 0.07500 0.68750
v 0.12500 0.02308 0.88125
v -0.12500 0.02308 0.88125
v 0.12500 0.06180 0.78779
v 0.12500 -0.21221 1.06180
v 0.12500 -0.23850 1.01526
v 0.12500 -0.21221 1.06180
v 0.12500 -0.23850 1.06526
v 0.12500 -0.22515 1.01350
v 0.12500 -0.11875 1.02308
v 0.12500 -0.14375 0.97978
v 0.12500 -0.07385 0.92615
v 0.12500 -0.03850 0.96150
v 0.12500 -0.02022 0.85625
v 0.12500 0.02308 0.88125
v 0.12500 0.05073 0.56050
v 0.12500 -0.00292 0.56050
v 0.12500 0.06180 0.58721
v 0.12500 0.01350 0.60015
v 0.12500 0.05073 0.56050
v 0.12500 0.07500 0.68750
v 0.12500 0.02500 0.68750
v 0.12500 0.01350 0.77485
v 0.12500 0.06180 0.78779
v -0.12500 -0.23850 1.01526
v -0.12500 -0.22515 1.01350
v 0.12500 -0.22515 1.01350
v -0.12500 -0.14375 0.97978
v 0.12500 -0.14375 0.97978
v -0.12500 -0.07385 0.92615
v 0.12500 -0.07385 0.92615
v -0.12500 -0.02022 0.85625
v 0.12500 -0.02022 0.85625
v -0.12500 -0.00292 0.56050
v 0.12500 -0.00292 0.56050
v -0.12500 0.01350 0.60015
v 0.12500 0.01350 0.60015
v -0.12500 0.02500 0.68750
v -0.12500 0.01350 0.77485
v 0.12500 0.02500 0.68750
v 0.12500 0.01350 0.77485
v 0.12500 -0.23850 1.01526
v -0.12500 -0.23850 1.01526
v 0.12500 -0.23850 1.06526
v -0.12500 -0.23850 1.06526
v 0.12500 -0.23850 1.01526
v -0.12500 -0.00292 0.56050
v -0.12500 0.05073 0.56050
v 0.12500 -0.00292 0.56050
v 0.12500 0.05073 0.56050
vn -0.6887 -0.6887 -0.2265
vn -0.9641 -0.1877 -0.1877
vn -0.6887 -0.2265 -0.6887
vn -0.2265 -0.6887 -0.6887
vn -0.9641 -0.1877 0.1877
vn -0.1877 -0.9641 -0.1877
vn -0.1877 -0.1877 -0.9641
vn -0.1877 -0.9641 0.1877
vn -0.6887 -0.6887 0.2265
vn -0.6887 -0.2265 0.6887
vn -0.2265 -0.6887 0.6887
vn -0.1877 -0.1877 0.9641
vn -0.9641 0.1877 -0.1877
vn -0.1877 0.1877 -0.9641
vn -0.6887 0.2265 0.6887
vn -0.1877 0.1877 0.9641
vn -0.6887 0.2265 -0.6887
vn -0.9641 0.1877 0.1877
vn -0.6887 0.6887 -0.2265
vn -0.2265 0.6887 -0.6887
vn -0.6887 0.6887 0.2265
vn -0.1877 0.9641 -0.1877
vn -0.1877 0.9641 0.1877
vn -0.2265 0.6887 0.6887
vn 0.2265 -0.6887 -0.6887
vn 0.1877 -0.1877 -0.9641
vn 0.1877 -0.9641 0.1877
vn 0.1877 -0.1877 0.9641
vn 0.2265 0.6887 -0.6887
vn 0.1877 0.9641 -0.1877
vn 0.2265 0.6887 0.6887
vn 0.1877 -0.9641 -0.1877
vn 0.2265 -0.6887 0.6887
vn 0.1877 0.1877 -0.9641
vn 0.1877 0.1877 0.9641
vn 0.1877 0.9641 0.1877
vn 0.6887 -0.6887 -0.2265
vn 0.6887 -0.2265 -0.6887
vn 0.9641 -0.1877 -0.1877
vn 0.6887 -0.6887 0.2265
vn 0.6887 -0.2265 0.6887
vn 0.9641 -0.1877 0.1877
vn 0.9641 0.1877 -0.1877
vn 0.6887 0.2265 0.6887
vn 0.9641 0.1877 0.1877
vn 0.6887 0.2265 -0.6887
vn 0.6887 0.6887 -0.2265
vn 0.6887 0.6887 0.2265
vn -0.6887 -0.6887 -0.2265
vn -0.2265 -0.6887 -0.6887
vn -0.1877 -0.9641 -0.1877
vn -0.9641 -0.1877 -0.1877
vn -0.6887 -0.2265 -0.6887
vn -0.1877 -0.1877 -0.9641
vn -0.6887 -0.6887 0.2265
vn -0.1877 -0.9641 0.1877
vn -0.2265 -0.6887 0.6887
vn -0.9641 -0.1877 0.1877
vn -0.6887 -0.2265 0.6887
vn -0.1877 -0.1877 0.9641
vn -0.6887 0.2265 -0.6887
vn -0.9641 0.1877 0.1877
vn -0.1877 0.1877 0.9641
vn -0.9641 0.1877 -0.1877
vn -0.1877 0.1877 -0.9641
vn -0.6887 0.2265 0.6887
vn -0.6887 0.6887 -0.2265
vn -0.2265 0.6887 -0.6887
vn -0.1877 0.9641 -0.1877
vn -0.6887 0.6887 0.2265
vn -0.1877 0.9641 0.1877
vn -0.2265 0.6887 0.6887
vn 0.2265 -0.6887 -0.6887
vn 0.1877 -0.9641 -0.1877
vn 0.2265 -0.6887 0.6887
vn 0.1877 -0.1877 0.9641
vn 0.1877 0.1877 -0.9641
vn 0.1877 0.9641 -0.1877
vn 0.1877 0.1877 0.9641
vn 0.1877 0.9641 0.1877
vn 0.1877 -0.1877 -0.9641
vn 0.1877 -0.9641 0.1877
vn 0.2265 0.6887 -0.6887
vn 0.2265 0.6887 0.6887
vn 0.6887 -0.6887 -0.2265
vn 0.6887 -0.2265 -0.6887
vn 0.9641 -0.1877 -0.1877
vn 0.6887 -0.6887 0.2265
vn 0.9641 -0.1877 0.1877
vn 0.6887 -0.2265 0.6887
vn 0.9641 0.1877 -0.1877
vn 0.9641 0.1877 0.1877
vn 0.6887 0.2265 -0.6887
vn 0.6887 0.2265 0.6887
vn 0.6887 0.6887 -0.2265
vn 0.6887 0.6887 0.2265
vn -0.6887 -0.2265 -0.6887
vn -0.6887 -0.6887 -0.2265
vn -0.9641 -0.1877 -0.1877
vn -0.2265 -0.6887 -0.6887
vn -0.1877 -0.9641 -0.1877
vn -0.1877 -0.1877 -0.9641
vn -0.6887 0.2265 -0.6887
vn -0.1877 0.1877 -0.9641
vn -0.9641 0.1877 -0.1877
vn -0.6887 0.6887 -0.2265
vn -0.2265 0.6887 -0.6887
vn -0.1877 0.9641 -0.1877
vn -0.6887 -0.6887 0.2265
vn -0.9641 0.1877 0.1877
vn -0.9641 -0.1877 0.1877
vn -0.1877 -0.9641 0.1877
vn -0.6887 -0.2265 0.6887
vn -0.2265 -0.6887 0.6887
vn -0.1877 -0.1877 0.9641
vn -0.1877 0.1877 0.9641
vn -0.6887 0.2265 0.6887
vn -0.1877 0.9641 0.1877
vn -0.6887 0.6887 0.2265
vn -0.2265 0.6887 0.6887
vn 0.2265 -0.6887 -0.6887
vn 0.1877 0.1877 -0.9641
vn 0.1877 0.9641 -0.1877
vn 0.1877 -0.9641 0.1877
vn 0.2265 -0.6887 0.6887
vn 0.1877 -0.1877 0.9641
vn 0.2265 0.6887 0.6887
vn 0.1877 0.9641 0.1877
vn 0.1877 -0.9641 -0.1877
vn 0.1877 -0.1877 -0.9641
vn 0.2265 0.6887 -0.6887
vn 0.1877 0.1877 0.9641
vn 0.6887 -0.6887 -0.2265
vn 0.6887 -0.2265 -0.6887
vn 0.9641 -0.1877 -0.1877
vn 0.6887 0.2265 -0.6887
vn 0.9641 0.1877 -0.1877
vn 0.6887 0.6887 -0.2265
vn 0.6887 -0.6887 0.2265
vn 0.9641 -0.1877 0.1877
vn 0.6887 -0.2265 0.6887
vn 0.9641 0.1877 0.1877
vn 0.6887 0.2265 0.6887
vn 0.6887 0.6887 0.2265
vn -0.6887 -0.2265 -0.6887
vn -0.1877 -0.1877 -0.9641
vn -0.2265 -0.6887 -0.6887
vn -0.0505 -0.0505 -0.9974
vn -0.9017 -0.1716 -0.3968
vn -0.9239 0.0000 -0.3827
vn -0.3827 0.0000 -0.9239
vn -0.3968 -0.1716 -0.9017
vn -0.3390 -0.1451 -0.9295
vn 0.2265 -0.6887 -0.6887
vn 0.1877 -0.1877 -0.9641
vn 0.0000 0.0000 -1.0000
vn 0.0000 0.0000 -1.0000
vn -0.9641 -0.1877 -0.1877
vn -0.6887 -0.6887 -0.2265
vn -0.9808 -0.1951 0.0000
vn -1.0000 0.0000 0.0000
vn -0.9295 -0.1451 -0.3390
vn -0.9682 -0.2450 -0.0510
vn -1.0000 0.0000 0.0000
vn -1.0000 0.0000 0.0000
vn -0.9808 0.0000 0.1951
vn -0.9239 0.0000 0.3827
vn -0.9974 -0.0505 0.0505
vn -0.1877 -0.9641 -0.1877
vn -0.3827 -0.9239 -0.0000
vn -0.3827 -0.9239 0.0000
vn -0.9239 -0.3827 0.0000
vn -0.3827 -0.9239 -0.0000
vn -0.3827 -0.9239 -0.0000
vn -0.1877 -0.9641 0.1877
vn -0.3757 -0.9071 0.1898
vn -0.4350 -0.7884 0.4350
vn -0.2265 -0.6887 0.6887
vn -0.4350 -0.4350 0.7884
vn -0.1877 -0.1877 0.9641
vn -0.3757 -0.1898 0.9071
vn -0.3827 0.0000 0.9239
vn -0.3827 0.0000 0.9239
vn -0.3827 0.0000 0.9239
vn -0.3827 -0.0000 0.9239
vn -0.3827 -0.0000 0.9239
vn -0.3827 0.0000 0.9239
vn -0.1951 0.0000 0.9808
vn -1.0000 0.0000 0.0000
vn -1.0000 0.0000 0.0000
vn -0.9576 -0.1520 0.2447
vn -1.0000 0.0000 0.0000
vn -0.9239 0.0000 0.3827
vn 0.1877 -0.9641 0.1877
vn 0.2265 -0.6887 0.6887
vn 0.1877 -0.1877 0.9641
vn 0.0505 -0.0505 -0.9974
vn 0.6887 -0.2265 -0.6887
vn 0.3968 -0.1716 -0.9017
vn 0.3390 -0.1451 -0.9295
vn 0.3827 0.0000 -0.9239
vn 0.9239 0.0000 -0.3827
vn 0.9017 -0.1716 -0.3968
vn 0.1877 -0.9641 -0.1877
vn 0.1951 0.0000 0.9808
vn 0.6887 -0.6887 -0.2265
vn 0.3827 -0.9239 -0.0000
vn 0.3827 -0.9239 -0.0000
vn 0.3827 -0.9239 0.0000
vn 0.3827 -0.9239 0.0000
vn 0.9641 -0.1877 -0.1877
vn 0.9239 -0.3827 0.0000
vn 0.3757 -0.9071 0.1898
vn 0.4350 -0.7884 0.4350
vn 0.4350 -0.4350 0.7884
vn 0.3757 -0.1898 0.9071
vn 0.3827 0.0000 0.9239
vn 0.9295 -0.1451 -0.3390
vn 0.3827 0.0000 0.9239
vn 0.3827 0.0000 0.9239
vn 0.3827 0.0000 0.9239
vn 0.3827 0.0000 0.9239
vn 0.9239 -0.0000 0.3827
vn 0.9239 0.0000 0.3827
vn 0.9808 -0.0000 0.1951
vn 0.9808 -0.1951 0.0000
vn 1.0000 0.0000 0.0000
vn 1.0000 0.0000 0.0000
vn 0.9974 -0.0505 0.0505
vn 0.9974 -0.0505 -0.0505
vn 1.0000 0.0000 0.0000
vn 0.3827 0.0000 0.9239
vn 0.9576 -0.1520 0.2447
vn -0.9641 -0.1877 -0.1877
vn -0.6887 -0.2265 -0.6887
vn -0.6887 -0.6887 -0.2265
vn -0.2265 -0.6887 -0.6887
vn -0.1877 -0.9641 -0.1877
vn -0.1877 -0.1877 -0.9641
vn -0.9641 0.1877 -0.1877
vn -0.6887 0.2265 -0.6887
vn -0.1877 0.1877 -0.9641
vn -0.6887 0.6887 -0.2265
vn -0.2265 0.6887 -0.6887
vn -0.1877 0.9641 -0.1877
vn 0.1877 -0.9641 -0.1877
vn 0.1877 -0.1877 -0.9641
vn 0.2265 0.6887 -0.6887
vn -0.9641 0.1877 0.1877
vn -0.9641 -0.1877 0.1877
vn -0.6887 -0.6887 0.2265
vn -0.1877 -0.9641 0.1877
vn -0.6887 -0.2265 0.6887
vn -0.2265 -0.6887 0.6887
vn -0.1877 -0.1877 0.9641
vn -0.6887 0.2265 0.6887
vn -0.1877 0.1877 0.9641
vn -0.6887 0.6887 0.2265
vn -0.1877 0.9641 0.1877
vn -0.2265 0.6887 0.6887
vn 0.1877 -0.9641 0.1877
vn 0.2265 -0.6887 0.6887
vn 0.1877 0.1877 0.9641
vn 0.1877 0.9641 -0.1877
vn 0.2265 0.6887 0.6887
vn 0.2265 -0.6887 -0.6887
vn 0.1877 0.1877 -0.9641
vn 0.6887 -0.6887 -0.2265
vn 0.6887 -0.2265 -0.6887
vn 0.9641 -0.1877 -0.1877
vn 0.6887 0.2265 -0.6887
vn 0.9641 0.1877 -0.1877
vn 0.6887 0.6887 -0.2265
vn 0.1877 -0.1877 0.9641
vn 0.1877 0.9641 0.1877
vn 0.6887 -0.6887 0.2265
vn 0.9641 -0.1877 0.1877
vn 0.9641 0.1877 0.1877
vn 0.6887 -0.2265 0.6887
vn 0.6887 0.2265 0.6887
vn 0.6887 0.6887 0.2265
vn -0.9641 -0.1877 -0.1877
vn -0.6887 0.2265 -0.6887
vn -0.6887 -0.2265 -0.6887
vn -0.5774 -0.5774 -0.5774
vn -0.1877 -0.1877 -0.9641
vn -0.1877 0.1877 -0.9641
vn 0.1877 0.1877 -0.9641
vn -0.6887 -0.6887 0.2265
vn -0.9641 -0.1877 0.1877
vn -0.6887 -0.2265 0.6887
vn -0.9641 0.1877 -0.1877
vn -0.9641 0.1877 0.1877
vn -0.6887 0.2265 0.6887
vn -0.3827 -0.9239 0.0000
vn -0.3827 -0.9239 0.0000
vn -0.2423 -0.9702 0.0000
vn -0.1877 -0.9641 0.1877
vn 0.0000 -1.0000 0.0000
vn -0.2265 -0.6887 0.6887
vn -0.1877 -0.1877 0.9641
vn -0.1877 0.1877 0.9641
vn 0.1877 -0.9641 0.1877
vn 0.2265 -0.6887 0.6887
vn 0.1877 0.1877 0.9641
vn -0.6887 0.6887 -0.2265
vn -0.2265 0.6887 -0.6887
vn -0.1877 0.9641 -0.1877
vn 0.2265 0.6887 -0.6887
vn -0.6887 0.6887 0.2265
vn -0.1877 0.9641 0.1877
vn -0.2265 0.6887 0.6887
vn 0.1877 0.9641 0.1877
vn 0.2265 0.6887 0.6887
vn 0.1877 -0.1877 -0.9641
vn 0.6887 -0.2265 -0.6887
vn 0.5774 -0.5774 -0.5774
vn 0.6887 0.2265 -0.6887
vn 0.9641 0.1877 -0.1877
vn 0.0000 -1.0000 0.0000
vn 0.1877 -0.1877 0.9641
vn 0.2423 -0.9702 0.0000
vn 0.6887 -0.6887 0.2265
vn 0.3827 -0.9239 0.0000
vn 0.3827 -0.9239 0.0000
vn 0.6887 -0.2265 0.6887
vn 0.6887 0.2265 0.6887
vn 0.9641 -0.1877 -0.1877
vn 0.9641 -0.1877 0.1877
vn 0.9641 0.1877 0.1877
vn 0.6887 0.6887 -0.2265
vn 0.1877 0.9641 -0.1877
vn 0.6887 0.6887 0.2265
vn -1.0000 0.0000 0.0000
vn -1.0000 0.0000 0.0000
vn -1.0000 0.0000 0.0000
vn -1.0000 0.0000 0.0000
vn 0.0000 0.0000 -1.0000
vn 0.0000 0.0000 -1.0000
vn 0.0000 0.0000 -1.0000
vn 0.0000 -0.7071 0.7071
vn 0.0000 -0.7071 0.7071
vn 0.0000 -0.7071 0.7071
vn 0.0000 0.7071 -0.7071
vn 0.0000 0.7071 -0.7071
vn 0.0000 0.7071 -0.7071
vn 0.0000 0.0000 1.0000
vn 0.0000 0.0000 1.0000
vn 0.0000 0.0000 1.0000
vn 0.0000 -0.7071 0.7071
vn 0.0000 0.0000 -1.0000
vn 0.0000 0.0000 1.0000
vn 0.0000 0.7071 -0.7071
vn 1.0000 0.0000 0.0000
vn 1.0000 0.0000 0.0000
vn 1.0000 0.0000 0.0000
vn 1.0000 0.0000 0.0000
vn -0.6887 -0.6887 -0.2265
vn -0.9641 -0.1877 -0.1877
vn -0.6887 -0.2265 -0.6887
vn -0.2265 -0.6887 -0.6887
vn -0.1877 -0.9641 -0.1877
vn -0.1877 -0.1877 -0.9641
vn -0.6887 0.2265 -0.6887
vn 0.2265 -0.6887 -0.6887
vn 0.1877 -0.1877 -0.9641
vn -0.1877 0.1877 -0.9641
vn -0.9641 0.1877 -0.1877
vn 0.1877 -0.9641 -0.1877
vn 0.0000 0.0000 -1.0000
vn 0.0000 0.0000 -1.0000
vn 0.0000 0.1951 -0.9808
vn -0.9641 -0.1877 0.1877
vn -0.6887 -0.6887 0.2265
vn -0.1877 -0.9641 0.1877
vn -0.6887 0.6887 -0.2265
vn -0.2265 0.6887 -0.6887
vn -0.1877 0.9641 -0.1877
vn 0.0000 0.3827 -0.9239
vn -0.0000 0.9808 -0.1951
vn 0.0000 0.9239 -0.3827
vn 0.0000 1.0000 0.0000
vn -0.9641 0.1877 0.1877
vn -0.6887 0.6887 0.2265
vn -0.1877 0.9641 0.1877
vn 0.0000 1.0000 0.0000
vn 0.1482 0.9890 0.0000
vn 0.1482 0.0000 -0.9890
vn 0.6887 -0.6887 -0.2265
vn 0.6887 -0.2265 -0.6887
vn 0.9641 -0.1877 -0.1877
vn 0.3827 -0.0000 -0.9239
vn 0.9239 0.0000 -0.3827
vn 0.9789 0.0000 -0.2044
vn 1.0000 0.0000 0.0000
vn 0.6887 -0.6887 0.2265
vn 0.9641 -0.1877 0.1877
vn 1.0000 0.0000 0.0000
vn 1.0000 0.0000 0.0000
vn 1.0000 0.0000 0.0000
vn 0.9641 0.1877 0.1877
vn 0.9789 0.2044 -0.0000
vn 0.1877 0.9641 0.1877
vn 0.3827 0.9239 0.0000
vn 0.6887 0.6887 0.2265
vn 0.9239 0.3827 0.0000
vn -0.6887 -0.2265 0.6887
vn -0.2265 -0.6887 0.6887
vn -0.1877 -0.1877 0.9641
vn -0.6887 0.2265 0.6887
vn 0.2265 -0.6887 0.6887
vn 0.1877 -0.1877 0.9641
vn -0.1877 0.1877 0.9641
vn 0.1877 -0.9641 0.1877
vn 0.1877 0.1877 0.9641
vn -0.2265 0.6887 0.6887
vn 0.2265 0.6887 0.6887
vn 0.6887 -0.2265 0.6887
vn 0.6887 0.2265 0.6887
vn -0.9641 -0.1877 -0.1877
vn -0.9789 0.0000 -0.2044
vn -0.6887 -0.2265 -0.6887
vn -1.0000 0.0000 0.0000
vn -0.6887 -0.6887 -0.2265
vn -0.2265 -0.6887 -0.6887
vn -0.1877 -0.9641 -0.1877
vn -0.1877 -0.1877 -0.9641
vn -0.9239 0.0000 -0.3827
vn -0.3827 -0.0000 -0.9239
vn -0.1482 0.0000 -0.9890
vn -0.9641 -0.1877 0.1877
vn -0.1877 -0.9641 0.1877
vn -1.0000 0.0000 0.0000
vn -1.0000 0.0000 0.0000
vn -1.0000 0.0000 0.0000
vn -0.9789 0.2044 0.0000
vn -0.1877 0.9641 0.1877
vn 0.0000 1.0000 0.0000
vn 0.0000 1.0000 0.0000
vn -0.6887 0.6887 0.2265
vn -0.9239 0.3827 0.0000
vn -0.1482 0.9890 0.0000
vn -0.3827 0.9239 0.0000
vn 0.2265 -0.6887 -0.6887
vn 0.1877 -0.1877 -0.9641
vn 0.0000 0.0000 -1.0000
vn 0.0000 0.0000 -1.0000
vn 0.1877 0.1877 -0.9641
vn 0.0000 0.1951 -0.9808
vn 0.1877 -0.9641 -0.1877
vn 0.6887 -0.6887 -0.2265
vn 0.6887 -0.2265 -0.6887
vn 0.9641 -0.1877 -0.1877
vn 0.6887 0.2265 -0.6887
vn 0.9641 0.1877 -0.1877
vn 0.6887 -0.6887 0.2265
vn 0.9641 -0.1877 0.1877
vn 0.2265 0.6887 -0.6887
vn 0.0000 0.3827 -0.9239
vn 0.1877 0.9641 -0.1877
vn 0.0000 0.9239 -0.3827
vn 0.0000 0.9808 -0.1951
vn 0.6887 0.6887 -0.2265
vn 0.6887 0.6887 0.2265
vn -0.6887 -0.6887 0.2265
vn -0.6887 -0.2265 0.6887
vn -0.2265 -0.6887 0.6887
vn -0.1877 -0.1877 0.9641
vn -0.6887 0.2265 0.6887
vn -0.9641 0.1877 0.1877
vn -0.1877 0.1877 0.9641
vn -0.2265 0.6887 0.6887
vn 0.2265 -0.6887 0.6887
vn 0.1877 -0.1877 0.9641
vn 0.1877 -0.9641 0.1877
vn 0.6887 -0.2265 0.6887
vn 0.1877 0.1877 0.9641
vn 0.9641 0.1877 0.1877
vn 0.6887 0.2265 0.6887
vn 0.2265 0.6887 0.6887
vn 0.1877 0.9641 0.1877
vn -1.0000 0.0000 0.0000
vn -1.0000 0.0000 0.0000
vn -1.0000 0.0000 0.0000
vn -1.0000 0.0000 0.0000
vn -1.0000 0.0000 0.0000
vn -1.0000 0.0000 0.0000
vn -1.0000 0.0000 0.0000
vn -1.0000 0.0000 0.0000
vn -1.0000 0.0000 0.0000
vn -1.0000 0.0000 0.0000
vn 0.0000 0.1305 0.9914
vn 0.0000 0.1305 0.9914
vn 0.0000 0.2588 0.9659
vn 0.0000 0.5000 0.8660
vn 0.0000 0.5000 0.8660
vn 0.0000 0.7071 0.7071
vn -0.0000 0.7071 0.7071
vn -1.0000 0.0000 0.0000
vn -1.0000 0.0000 0.0000
vn -1.0000 0.0000 0.0000
vn -1.0000 0.0000 0.0000
vn -1.0000 0.0000 0.0000
vn -1.0000 0.0000 0.0000
vn -1.0000 0.0000 0.0000
vn -1.0000 0.0000 0.0000
vn -0.0000 0.9239 -0.3827
vn 0.0000 0.9659 -0.2588
vn -0.0000 0.9659 -0.2588
vn 0.0000 1.0000 -0.0000
vn 0.0000 0.9659 0.2588
vn 0.0000 1.0000 0.0000
vn -0.0000 0.8660 0.5000
vn 0.0000 0.8660 0.5000
vn 0.0000 0.9659 0.2588
vn 0.0000 0.2588 0.9659
vn 1.0000 0.0000 0.0000
vn 1.0000 0.0000 0.0000
vn 1.0000 0.0000 0.0000
vn 1.0000 0.0000 0.0000
vn 1.0000 0.0000 0.0000
vn 1.0000 0.0000 0.0000
vn 1.0000 0.0000 0.0000
vn 1.0000 0.0000 0.0000
vn 1.0000 0.0000 0.0000
vn 1.0000 0.0000 0.0000
vn -0.0000 0.9239 -0.3827
vn 1.0000 0.0000 0.0000
vn 1.0000 0.0000 0.0000
vn 1.0000 0.0000 0.0000
vn 1.0000 0.0000 0.0000
vn 1.0000 0.0000 0.0000
vn 1.0000 0.0000 0.0000
vn 1.0000 0.0000 0.0000
vn 1.0000 0.0000 0.0000
vn 0.0000 -0.1305 -0.9914
vn 0.0000 -0.2588 -0.9659
vn 0.0000 -0.2588 -0.9659
vn 0.0000 -0.5000 -0.8660
vn 0.0000 -0.5000 -0.8660
vn 0.0000 -0.7071 -0.7071
vn 0.0000 -0.7071 -0.7071
vn 0.0000 -0.8660 -0.5000
vn 0.0000 -0.8660 -0.5000
vn 0.0000 -0.9239 0.3827
vn -0.0000 -0.9239 0.3827
vn -0.0000 -0.9659 0.2588
vn 0.0000 -0.9659 0.2588
vn 0.0000 -1.0000 0.0000
vn 0.0000 -0.9659 -0.2588
vn 0.0000 -1.0000 -0.0000
vn 0.0000 -0.9659 -0.2588
vn 0.0000 -0.1305 -0.9914
vn 0.0000 -1.0000 0.0000
vn 0.0000 -1.0000 0.0000
vn 0.0000 -1.0000 0.0000
vn 0.0000 -1.0000 0.0000
vn 0.0000 0.0000 -1.0000
vn 0.0000 0.0000 -1.0000
vn 0.0000 0.0000 -1.0000
vn 0.0000 0.0000 -1.0000
f 1//1 2//2 3//3
f 1//1 3//3 4//4
f 1//1 5//5 2//2
f 1//1 4//4 6//6
f 3//3 7//7 4//4
f 1//1 6//6 8//8
f 1//1 9//9 5//5
f 1//1 8//8 9//9
f 9//9 10//10 5//5
f 9//9 11//11 10//10
f 9//9 8//8 11//11
f 10//10 11//11 12//12
f 2//2 13//13 3//3
f 2//2 5//5 13//13
f 3//3 14//14 7//7
f 5//5 10//10 15//15
f 10//10 12//12 16//16
f 3//3 13//13 17//17
f 3//3 17//17 14//14
f 5//5 18//18 13//13
f 5//5 15//15 18//18
f 10//10 16//16 15//15
f 13//13 19//19 17//17
f 17//17 19//19 20//20
f 13//13 21//21 19//19
f 17//17 20//20 14//14
f 19//19 22//22 20//20
f 19//19 23//23 22//22
f 13//13 18//18 21//21
f 19//19 21//21 23//23
f 18//18 15//15 21//21
f 15//15 24//24 21//21
f 15//15 16//16 24//24
f 21//21 24//24 23//23
f 6//6 4//4 25//25
f 4//4 7//7 26//26
f 6//6 27//27 8//8
f 8//8 27//27 11//11
f 11//11 28//28 12//12
f 7//7 14//14 26//26
f 12//12 28//28 16//16
f 14//14 20//20 29//29
f 20//20 22//22 29//29
f 22//22 23//23 30//30
f 16//16 31//31 24//24
f 23//23 24//24 31//31
f 6//6 25//25 32//32
f 4//4 26//26 25//25
f 6//6 32//32 27//27
f 11//11 27//27 33//33
f 11//11 33//33 28//28
f 14//14 34//34 26//26
f 16//16 28//28 35//35
f 14//14 29//29 34//34
f 22//22 30//30 29//29
f 23//23 36//36 30//30
f 16//16 35//35 31//31
f 23//23 31//31 36//36
f 32//32 25//25 37//37
f 25//25 26//26 38//38
f 32//32 37//37 27//27
f 25//25 38//38 37//37
f 37//37 38//38 39//39
f 37//37 39//39 40//40
f 27//27 40//40 33//33
f 33//33 41//41 28//28
f 37//37 40//40 27//27
f 39//39 42//42 40//40
f 33//33 40//40 41//41
f 40//40 42//42 41//41
f 26//26 34//34 38//38
f 38//38 43//43 39//39
f 39//39 43//43 42//42
f 28//28 41//41 44//44
f 42//42 45//45 41//41
f 38//38 34//34 46//46
f 38//38 46//46 43//43
f 28//28 44//44 35//35
f 42//42 43//43 45//45
f 41//41 45//45 44//44
f 34//34 29//29 46//46
f 29//29 30//30 47//47
f 30//30 36//36 47//47
f 29//29 47//47 46//46
f 46//46 47//47 43//43
f 43//43 47//47 45//45
f 35//35 44//44 31//31
f 36//36 31//31 48//48
f 47//47 36//36 48//48
f 47//47 48//48 45//45
f 31//31 44//44 48//48
f 45//45 48//48 44//44
f 49//49 50//50 51//51
f 49//49 52//52 53//53
f 49//49 53//53 50//50
f 53//53 54//54 50//50
f 49//49 51//51 55//55
f 51//51 56//56 55//55
f 55//55 56//56 57//57
f 49//49 55//55 52//52
f 52//52 55//55 58//58
f 55//55 59//59 58//58
f 55//55 57//57 59//59
f 59//59 57//57 60//60
f 52//52 61//61 53//53
f 53//53 61//61 54//54
f 52//52 58//58 62//62
f 58//58 59//59 62//62
f 59//59 60//60 63//63
f 52//52 64//64 61//61
f 54//54 61//61 65//65
f 52//52 62//62 64//64
f 59//59 66//66 62//62
f 59//59 63//63 66//66
f 64//64 67//67 61//61
f 61//61 67//67 68//68
f 61//61 68//68 65//65
f 67//67 69//69 68//68
f 64//64 70//70 67//67
f 64//64 62//62 70//70
f 67//67 70//70 69//69
f 69//69 70//70 71//71
f 62//62 66//66 70//70
f 66//66 72//72 70//70
f 66//66 63//63 72//72
f 70//70 72//72 71//71
f 51//51 50//50 73//73
f 50//50 54//54 73//73
f 51//51 74//74 56//56
f 56//56 75//75 57//57
f 57//57 75//75 60//60
f 60//60 76//76 63//63
f 54//54 65//65 77//77
f 65//65 68//68 77//77
f 68//68 69//69 78//78
f 69//69 71//71 78//78
f 63//63 79//79 72//72
f 72//72 80//80 71//71
f 51//51 73//73 74//74
f 54//54 81//81 73//73
f 56//56 74//74 82//82
f 56//56 82//82 75//75
f 60//60 75//75 76//76
f 54//54 77//77 81//81
f 63//63 76//76 79//79
f 68//68 83//83 77//77
f 68//68 78//78 83//83
f 71//71 80//80 78//78
f 72//72 79//79 84//84
f 72//72 84//84 80//80
f 74//74 73//73 85//85
f 73//73 81//81 86//86
f 73//73 86//86 85//85
f 85//85 86//86 87//87
f 74//74 85//85 88//88
f 74//74 88//88 82//82
f 82//82 88//88 75//75
f 85//85 87//87 89//89
f 85//85 89//89 88//88
f 75//75 90//90 76//76
f 75//75 88//88 90//90
f 88//88 89//89 90//90
f 81//81 77//77 86//86
f 86//86 91//91 87//87
f 87//87 91//91 89//89
f 76//76 90//90 79//79
f 90//90 89//89 92//92
f 86//86 77//77 93//93
f 86//86 93//93 91//91
f 89//89 91//91 92//92
f 90//90 94//94 79//79
f 90//90 92//92 94//94
f 77//77 83//83 93//93
f 83//83 78//78 95//95
f 83//83 95//95 93//93
f 93//93 95//95 91//91
f 78//78 80//80 95//95
f 95//95 80//80 96//96
f 91//91 95//95 92//92
f 95//95 96//96 92//92
f 79//79 94//94 84//84
f 84//84 96//96 80//80
f 84//84 94//94 96//96
f 94//94 92//92 96//96
f 97//97 98//98 99//99
f 98//98 100//100 101//101
f 97//97 100//100 98//98
f 97//97 102//102 100//100
f 97//97 99//99 103//103
f 97//97 104//104 102//102
f 99//99 105//105 103//103
f 97//97 103//103 104//104
f 103//103 105//105 106//106
f 103//103 106//106 107//107
f 103//103 107//107 104//104
f 106//106 108//108 107//107
f 98//98 109//109 99//99
f 98//98 101//101 109//109
f 99//99 110//110 105//105
f 99//99 109//109 111//111
f 101//101 112//112 109//109
f 109//109 113//113 111//111
f 109//109 112//112 114//114
f 109//109 114//114 113//113
f 113//113 114//114 115//115
f 99//99 111//111 110//110
f 111//111 113//113 110//110
f 113//113 115//115 116//116
f 113//113 117//117 110//110
f 113//113 116//116 117//117
f 105//105 110//110 106//106
f 106//106 118//118 108//108
f 106//106 110//110 119//119
f 106//106 119//119 118//118
f 110//110 117//117 119//119
f 119//119 117//117 120//120
f 117//117 116//116 120//120
f 119//119 120//120 118//118
f 101//101 100//100 121//121
f 100//100 102//102 121//121
f 102//102 104//104 122//122
f 104//104 107//107 122//122
f 107//107 108//108 123//123
f 101//101 124//124 112//112
f 112//112 125//125 114//114
f 114//114 125//125 115//115
f 115//115 126//126 116//116
f 108//108 118//118 123//123
f 116//116 127//127 120//120
f 120//120 128//128 118//118
f 101//101 121//121 129//129
f 102//102 130//130 121//121
f 102//102 122//122 130//130
f 107//107 131//131 122//122
f 107//107 123//123 131//131
f 101//101 129//129 124//124
f 112//112 124//124 125//125
f 115//115 125//125 126//126
f 116//116 126//126 132//132
f 118//118 128//128 123//123
f 116//116 132//132 127//127
f 120//120 127//127 128//128
f 129//129 121//121 133//133
f 121//121 130//130 134//134
f 121//121 134//134 133//133
f 134//134 135//135 133//133
f 130//130 136//136 134//134
f 134//134 136//136 135//135
f 130//130 122//122 136//136
f 135//135 136//136 137//137
f 122//122 131//131 136//136
f 131//131 123//123 138//138
f 131//131 138//138 136//136
f 136//136 138//138 137//137
f 129//129 133//133 139//139
f 133//133 135//135 139//139
f 135//135 137//137 140//140
f 129//129 139//139 124//124
f 135//135 140//140 139//139
f 124//124 139//139 125//125
f 125//125 141//141 126//126
f 125//125 139//139 141//141
f 139//139 140//140 141//141
f 137//137 142//142 140//140
f 126//126 141//141 132//132
f 140//140 142//142 141//141
f 141//141 143//143 132//132
f 141//141 142//142 143//143
f 123//123 128//128 138//138
f 138//138 142//142 137//137
f 138//138 128//128 144//144
f 138//138 144//144 142//142
f 132//132 143//143 127//127
f 127//127 144//144 128//128
f 127//127 143//143 144//144
f 144//144 143//143 142//142
f 145//145 146//146 147//147
f 145//145 148//148 146//146
f 145//145 149//149 150//150
f 145//145 151//151 152//152
f 145//145 152//152 153//153
f 145//145 153//153 148//148
f 147//147 146//146 154//154
f 146//146 148//148 155//155
f 155//155 148//148 156//156
f 148//148 157//157 156//156
f 158//158 159//159 160//160
f 158//158 160//160 161//161
f 158//158 162//162 145//145
f 158//158 161//161 163//163
f 163//163 161//161 164//164
f 163//163 164//164 165//165
f 158//158 163//163 162//162
f 166//166 163//163 165//165
f 167//167 168//168 166//166
f 159//159 169//169 170//170
f 159//159 170//170 171//171
f 158//158 145//145 159//159
f 159//159 145//145 147//147
f 159//159 172//172 160//160
f 159//159 147//147 169//169
f 169//169 173//173 170//170
f 169//169 174//174 173//173
f 169//169 175//175 174//174
f 175//175 176//176 174//174
f 175//175 177//177 176//176
f 175//175 178//178 177//177
f 178//178 179//179 177//177
f 180//180 181//181 179//179
f 178//178 180//180 179//179
f 180//180 182//182 181//181
f 145//145 162//162 149//149
f 180//180 183//183 182//182
f 183//183 184//184 185//185
f 183//183 185//185 186//186
f 183//183 186//186 182//182
f 180//180 187//187 183//183
f 180//180 188//188 187//187
f 166//166 168//168 163//163
f 189//189 190//190 168//168
f 167//167 191//191 168//168
f 189//189 168//168 192//192
f 167//167 193//193 191//191
f 147//147 154//154 169//169
f 169//169 194//194 175//175
f 175//175 195//195 178//178
f 178//178 195//195 180//180
f 180//180 196//196 188//188
f 146//146 155//155 154//154
f 155//155 156//156 197//197
f 154//154 155//155 198//198
f 155//155 199//199 198//198
f 155//155 197//197 200//200
f 155//155 200//200 199//199
f 198//198 199//199 201//201
f 198//198 202//202 203//203
f 169//169 154//154 204//204
f 169//169 204//204 194//194
f 175//175 194//194 195//195
f 180//180 195//195 196//196
f 196//196 205//205 188//188
f 154//154 206//206 204//204
f 204//204 207//207 208//208
f 204//204 206//206 207//207
f 206//206 209//209 207//207
f 206//206 210//210 209//209
f 154//154 198//198 206//206
f 206//206 211//211 212//212
f 206//206 198//198 211//211
f 204//204 208//208 213//213
f 204//204 213//213 194//194
f 194//194 214//214 195//195
f 194//194 213//213 214//214
f 195//195 215//215 196//196
f 195//195 214//214 215//215
f 196//196 215//215 216//216
f 196//196 216//216 217//217
f 198//198 203//203 218//218
f 196//196 217//217 219//219
f 196//196 219//219 205//205
f 219//219 217//217 220//220
f 219//219 220//220 221//221
f 222//222 219//219 221//221
f 223//223 224//224 225//225
f 211//211 226//226 212//212
f 211//211 227//227 226//226
f 211//211 228//228 227//227
f 198//198 218//218 211//211
f 211//211 229//229 228//228
f 211//211 218//218 230//230
f 211//211 230//230 229//229
f 229//229 231//231 228//228
f 229//229 225//225 231//231
f 232//232 219//219 222//222
f 223//223 225//225 233//233
f 225//225 229//229 233//233
f 234//234 235//235 236//236
f 236//236 235//235 237//237
f 236//236 237//237 238//238
f 235//235 239//239 237//237
f 234//234 240//240 235//235
f 235//235 241//241 239//239
f 240//240 241//241 235//235
f 239//239 241//241 242//242
f 240//240 243//243 241//241
f 241//241 243//243 244//244
f 241//241 244//244 242//242
f 243//243 245//245 244//244
f 237//237 246//246 238//238
f 237//237 239//239 247//247
f 239//239 242//242 247//247
f 242//242 244//244 248//248
f 244//244 245//245 248//248
f 234//234 249//249 240//240
f 234//234 250//250 249//249
f 234//234 236//236 251//251
f 236//236 238//238 251//251
f 234//234 251//251 250//250
f 238//238 252//252 251//251
f 250//250 251//251 253//253
f 251//251 254//254 253//253
f 251//251 252//252 254//254
f 253//253 254//254 255//255
f 250//250 253//253 256//256
f 253//253 255//255 256//256
f 250//250 256//256 249//249
f 255//255 257//257 256//256
f 240//240 249//249 243//243
f 243//243 258//258 245//245
f 243//243 249//249 258//258
f 245//245 258//258 259//259
f 249//249 256//256 258//258
f 256//256 260//260 258//258
f 256//256 257//257 260//260
f 258//258 260//260 259//259
f 238//238 246//246 252//252
f 252//252 261//261 254//254
f 254//254 262//262 255//255
f 255//255 263//263 257//257
f 245//245 259//259 264//264
f 257//257 265//265 260//260
f 259//259 260//260 265//265
f 237//237 266//266 246//246
f 237//237 247//247 266//266
f 242//242 267//267 247//247
f 242//242 248//248 267//267
f 245//245 264//264 248//248
f 266//266 268//268 246//246
f 266//266 247//247 269//269
f 266//266 269//269 268//268
f 268//268 269//269 270//270
f 247//247 267//267 271//271
f 247//247 271//271 269//269
f 269//269 271//271 270//270
f 271//271 272//272 270//270
f 267//267 248//248 271//271
f 248//248 264//264 273//273
f 271//271 248//248 273//273
f 271//271 273//273 272//272
f 252//252 246//246 261//261
f 254//254 261//261 262//262
f 255//255 262//262 274//274
f 255//255 274//274 263//263
f 259//259 275//275 264//264
f 257//257 263//263 265//265
f 259//259 265//265 275//275
f 246//246 268//268 276//276
f 268//268 270//270 277//277
f 246//246 276//276 261//261
f 268//268 277//277 276//276
f 270//270 272//272 278//278
f 270//270 278//278 277//277
f 261//261 276//276 262//262
f 262//262 279//279 274//274
f 262//262 276//276 279//279
f 276//276 277//277 279//279
f 274//274 279//279 263//263
f 279//279 277//277 278//278
f 279//279 280//280 263//263
f 279//279 278//278 280//280
f 264//264 275//275 273//273
f 272//272 273//273 278//278
f 273//273 275//275 281//281
f 273//273 281//281 278//278
f 263//263 280//280 265//265
f 275//275 265//265 281//281
f 280//280 281//281 265//265
f 280//280 278//278 281//281
f 282//282 283//283 284//284
f 284//284 285//285 149//149
f 284//284 152//152 285//285
f 284//284 286//286 152//152
f 286//286 153//153 152//152
f 286//286 148//148 153//153
f 286//286 157//157 148//148
f 284//284 283//283 286//286
f 286//286 283//283 287//287
f 286//286 287//287 157//157
f 287//287 288//288 157//157
f 282//282 162//162 163//163
f 282//282 149//149 162//162
f 282//282 284//284 149//149
f 282//282 168//168 190//190
f 282//282 163//163 168//168
f 282//282 190//190 189//189
f 289//289 168//168 191//191
f 289//289 290//290 168//168
f 289//289 291//291 290//290
f 290//290 192//192 168//168
f 282//282 189//189 292//292
f 282//282 292//292 283//283
f 292//292 189//189 192//192
f 292//292 192//192 293//293
f 290//290 293//293 192//192
f 290//290 291//291 293//293
f 291//291 294//294 293//293
f 289//289 295//295 296//296
f 289//289 296//296 297//297
f 298//298 297//297 299//299
f 289//289 300//300 291//291
f 289//289 297//297 298//298
f 289//289 298//298 300//300
f 300//300 301//301 291//291
f 291//291 301//301 294//294
f 301//301 302//302 294//294
f 298//298 303//303 300//300
f 300//300 304//304 301//301
f 298//298 299//299 303//303
f 301//301 305//305 302//302
f 283//283 306//306 307//307
f 283//283 307//307 287//287
f 287//287 307//307 288//288
f 307//307 308//308 309//309
f 292//292 306//306 283//283
f 292//292 310//310 306//306
f 292//292 293//293 310//310
f 293//293 294//294 310//310
f 306//306 308//308 307//307
f 306//306 310//310 308//308
f 308//308 310//310 311//311
f 294//294 312//312 310//310
f 294//294 302//302 312//312
f 310//310 312//312 311//311
f 308//308 311//311 313//313
f 312//312 302//302 314//314
f 311//311 312//312 313//313
f 288//288 156//156 157//157
f 197//197 156//156 288//288
f 315//315 200//200 197//197
f 315//315 199//199 200//200
f 315//315 316//316 199//199
f 316//316 317//317 199//199
f 316//316 203//203 317//317
f 315//315 197//197 288//288
f 315//315 288//288 316//316
f 316//316 288//288 318//318
f 316//316 318//318 319//319
f 303//303 299//299 320//320
f 300//300 303//303 304//304
f 301//301 304//304 321//321
f 301//301 321//321 305//305
f 303//303 320//320 322//322
f 323//323 322//322 324//324
f 323//323 324//324 325//325
f 303//303 322//322 323//323
f 303//303 323//323 304//304
f 304//304 326//326 321//321
f 304//304 323//323 326//326
f 326//326 305//305 321//321
f 326//326 327//327 305//305
f 328//328 218//218 203//203
f 316//316 328//328 203//203
f 328//328 230//230 218//218
f 329//329 233//233 229//229
f 323//323 233//233 329//329
f 323//323 329//329 326//326
f 316//316 319//319 328//328
f 328//328 330//330 230//230
f 330//330 229//229 230//230
f 328//328 319//319 330//330
f 330//330 329//329 229//229
f 326//326 329//329 330//330
f 326//326 330//330 327//327
f 307//307 309//309 288//288
f 288//288 309//309 318//318
f 309//309 331//331 318//318
f 308//308 332//332 309//309
f 308//308 313//313 332//332
f 302//302 305//305 314//314
f 312//312 314//314 313//313
f 309//309 332//332 331//331
f 332//332 313//313 331//331
f 331//331 313//313 333//333
f 314//314 305//305 327//327
f 313//313 314//314 333//333
f 314//314 327//327 333//333
f 318//318 331//331 319//319
f 331//331 330//330 319//319
f 331//331 333//333 330//330
f 327//327 330//330 333//333
f 334//334 335//335 336//336
f 334//334 337//337 335//335
f 338//338 339//339 340//340
f 341//341 342//342 343//343
f 344//344 345//345 346//346
f 347//347 348//348 349//349
f 341//341 350//350 342//342
f 339//339 351//351 340//340
f 347//347 352//352 348//348
f 345//345 353//353 346//346
f 354//354 355//355 356//356
f 354//354 356//356 357//357
f 358//358 359//359 360//360
f 358//358 360//360 361//361
f 358//358 361//361 362//362
f 360//360 363//363 361//361
f 360//360 359//359 364//364
f 360//360 364//364 363//363
f 361//361 365//365 362//362
f 361//361 363//363 366//366
f 363//363 367//367 366//366
f 359//359 368//368 364//364
f 363//363 364//364 367//367
f 362//362 365//365 369//369
f 361//361 366//366 365//365
f 367//367 370//370 371//371
f 367//367 372//372 370//370
f 366//366 367//367 371//371
f 358//358 373//373 359//359
f 358//358 362//362 374//374
f 359//359 373//373 368//368
f 362//362 369//369 375//375
f 364//364 368//368 376//376
f 364//364 376//376 377//377
f 364//364 377//377 367//367
f 376//376 378//378 377//377
f 367//367 377//377 379//379
f 377//377 378//378 380//380
f 367//367 379//379 372//372
f 377//377 380//380 381//381
f 378//378 382//382 380//380
f 368//368 383//383 376//376
f 376//376 384//384 378//378
f 378//378 385//385 382//382
f 385//385 386//386 382//382
f 385//385 387//387 386//386
f 366//366 371//371 388//388
f 365//365 389//389 369//369
f 365//365 390//390 389//389
f 365//365 366//366 390//390
f 389//389 390//390 391//391
f 366//366 388//388 392//392
f 366//366 392//392 390//390
f 390//390 393//393 391//391
f 391//391 393//393 394//394
f 391//391 394//394 395//395
f 369//369 389//389 396//396
f 389//389 391//391 396//396
f 391//391 395//395 397//397
f 397//397 395//395 398//398
f 397//397 398//398 399//399
f 397//397 399//399 400//400
f 401//401 400//400 402//402
f 403//403 404//404 387//387
f 405//405 402//402 406//406
f 358//358 374//374 373//373
f 362//362 375//375 374//374
f 374//374 407//407 373//373
f 374//374 408//408 407//407
f 374//374 375//375 408//408
f 407//407 408//408 409//409
f 373//373 407//407 410//410
f 407//407 409//409 410//410
f 375//375 411//411 408//408
f 408//408 412//412 409//409
f 409//409 412//412 413//413
f 368//368 373//373 383//383
f 373//373 410//410 383//383
f 409//409 413//413 410//410
f 369//369 414//414 375//375
f 375//375 414//414 411//411
f 408//408 411//411 412//412
f 412//412 415//415 413//413
f 376//376 383//383 384//384
f 378//378 384//384 385//385
f 383//383 410//410 384//384
f 410//410 416//416 384//384
f 410//410 413//413 416//416
f 384//384 416//416 385//385
f 413//413 415//415 416//416
f 416//416 417//417 385//385
f 385//385 403//403 387//387
f 416//416 415//415 417//417
f 385//385 417//417 403//403
f 369//369 396//396 414//414
f 391//391 397//397 396//396
f 414//414 396//396 411//411
f 411//411 396//396 418//418
f 411//411 418//418 412//412
f 396//396 397//397 418//418
f 412//412 418//418 419//419
f 418//418 397//397 401//401
f 397//397 400//400 401//401
f 412//412 419//419 415//415
f 418//418 401//401 419//419
f 403//403 405//405 404//404
f 405//405 401//401 402//402
f 415//415 419//419 417//417
f 417//417 419//419 405//405
f 417//417 405//405 403//403
f 419//419 401//401 405//405
f 420//420 421//421 422//422
f 420//420 423//423 421//421
f 420//420 422//422 424//424
f 424//424 422//422 425//425
f 424//424 425//425 426//426
f 422//422 427//427 425//425
f 422//422 421//421 428//428
f 422//422 429//429 427//427
f 427//427 429//429 430//430
f 420//420 424//424 431//431
f 424//424 426//426 432//432
f 420//420 431//431 423//423
f 431//431 433//433 423//423
f 431//431 434//434 433//433
f 431//431 435//435 434//434
f 431//431 436//436 435//435
f 437//437 438//438 439//439
f 440//440 441//441 436//436
f 440//440 442//442 443//443
f 437//437 439//439 442//442
f 425//425 444//444 426//426
f 425//425 427//427 445//445
f 427//427 430//430 445//445
f 445//445 430//430 446//446
f 445//445 446//446 447//447
f 448//448 447//447 449//449
f 426//426 444//444 450//450
f 425//425 445//445 444//444
f 444//444 451//451 450//450
f 444//444 445//445 452//452
f 444//444 452//452 451//451
f 451//451 452//452 453//453
f 445//445 454//454 452//452
f 452//452 455//455 453//453
f 445//445 447//447 448//448
f 445//445 448//448 454//454
f 452//452 454//454 455//455
f 426//426 450//450 432//432
f 450//450 451//451 456//456
f 451//451 453//453 456//456
f 453//453 455//455 457//457
f 458//458 449//449 459//459
f 460//460 461//461 462//462
f 460//460 462//462 438//438
f 448//448 449//449 458//458
f 458//458 461//461 460//460
f 448//448 458//458 454//454
f 458//458 460//460 463//463
f 458//458 463//463 454//454
f 454//454 463//463 455//455
f 460//460 438//438 437//437
f 460//460 464//464 463//463
f 455//455 463//463 464//464
f 424//424 465//465 431//431
f 424//424 432//432 465//465
f 431//431 465//465 466//466
f 465//465 467//467 466//466
f 465//465 432//432 467//467
f 466//466 467//467 468//468
f 431//431 466//466 469//469
f 466//466 468//468 469//469
f 431//431 470//470 436//436
f 431//431 469//469 470//470
f 468//468 471//471 469//469
f 470//470 440//440 436//436
f 440//440 437//437 442//442
f 470//470 469//469 440//440
f 469//469 472//472 440//440
f 469//469 471//471 472//472
f 440//440 472//472 437//437
f 432//432 473//473 467//467
f 467//467 474//474 468//468
f 468//468 474//474 471//471
f 450//450 475//475 432//432
f 450//450 456//456 475//475
f 453//453 457//457 456//456
f 432//432 475//475 473//473
f 467//467 473//473 474//474
f 475//475 456//456 473//473
f 473//473 476//476 474//474
f 473//473 456//456 476//476
f 456//456 457//457 476//476
f 474//474 476//476 477//477
f 457//457 478//478 476//476
f 455//455 478//478 457//457
f 474//474 477//477 471//471
f 476//476 479//479 477//477
f 476//476 478//478 479//479
f 471//471 477//477 472//472
f 472//472 480//480 437//437
f 460//460 437//437 481//481
f 460//460 481//481 464//464
f 455//455 464//464 478//478
f 472//472 477//477 480//480
f 437//437 480//480 481//481
f 477//477 479//479 480//480
f 480//480 464//464 481//481
f 480//480 479//479 464//464
f 478//478 464//464 479//479
f 482//482 483//483 484//484
f 482//482 485//485 483//483
f 485//485 486//486 483//483
f 484//484 483//483 487//487
f 487//487 483//483 488//488
f 487//487 488//488 489//489
f 489//489 488//488 490//490
f 489//489 490//490 491//491
f 492//492 493//493 494//494
f 494//494 495//495 496//496
f 496//496 497//497 498//498
f 499//499 500//500 501//501
f 500//500 502//502 503//503
f 504//504 505//505 502//502
f 500//500 503//503 501//501
f 503//503 502//502 505//505
f 504//504 506//506 505//505
f 504//504 491//491 506//506
f 506//506 491//491 490//490
f 507//507 508//508 509//509
f 508//508 510//510 509//509
f 510//510 511//511 512//512
f 498//498 513//513 514//514
f 511//511 514//514 515//515
f 494//494 493//493 516//516
f 494//494 516//516 495//495
f 496//496 495//495 497//497
f 498//498 497//497 513//513
f 517//517 518//518 519//519
f 517//517 520//520 521//521
f 517//517 521//521 518//518
f 520//520 522//522 521//521
f 522//522 523//523 521//521
f 521//521 523//523 524//524
f 523//523 525//525 524//524
f 524//524 525//525 526//526
f 507//507 509//509 527//527
f 510//510 512//512 509//509
f 511//511 515//515 512//512
f 514//514 513//513 515//515
f 528//528 529//529 530//530
f 528//528 531//531 529//529
f 530//530 532//532 533//533
f 534//534 533//533 535//535
f 530//530 529//529 532//532
f 533//533 532//532 535//535
f 534//534 526//526 525//525
f 534//534 535//535 526//526
f 536//536 537//537 538//538
f 537//537 539//539 540//540
f 539//539 541//541 542//542
f 541//541 543//543 544//544
f 545//545 546//546 547//547
f 547//547 548//548 549//549
f 550//550 549//549 551//551
f 550//550 552//552 543//543
f 536//536 538//538 553//553
f 537//537 540//540 538//538
f 539//539 542//542 540//540
f 541//541 544//544 542//542
f 543//543 552//552 544//544
f 547//547 546//546 548//548
f 549//549 548//548 551//551
f 550//550 551//551 552//552
f 554//554 555//555 556//556
f 554//554 557//557 555//555
f 558//558 559//559 560//560
f 559//559 561//561 560//560
