v -0.33750 0.47536 0.36750
v -0.36059 0.48691 0.36441
v -0.33750 0.49000 0.35286
v -0.22500 0.49000 0.35286
v -0.22500 0.47536 0.36750
v -0.20191 0.48691 0.36441
v -0.35750 0.47536 0.38750
v -0.33750 0.47000 0.38750
v -0.37214 0.49000 0.38750
v -0.20500 0.47536 0.38750
v -0.22500 0.47000 0.38750
v -0.19036 0.49000 0.38750
v -0.35750 0.51000 0.35286
v -0.33750 0.51000 0.34750
v -0.37214 0.51000 0.36750
v -0.20500 0.51000 0.35286
v -0.22500 0.51000 0.34750
v -0.19036 0.51000 0.36750
v -0.37750 0.51000 0.38750
v -0.18500 0.51000 0.38750
v -0.33750 0.47536 0.40750
v -0.36059 0.48691 0.41059
v -0.22500 0.47536 0.40750
v -0.20191 0.48691 0.41059
v -0.33750 0.49000 0.42214
v -0.22500 0.49000 0.42214
v -0.37214 0.51000 0.40750
v -0.19036 0.51000 0.40750
v -0.35750 0.51000 0.42214
v -0.33750 0.51000 0.42750
v -0.22500 0.51000 0.42750
v -0.20500 0.51000 0.42214
v -0.33750 0.53000 0.35286
v -0.36059 0.53309 0.36441
v -0.22500 0.53000 0.35286
v -0.20191 0.53309 0.36441
v -0.37214 0.53000 0.38750
v -0.19036 0.53000 0.38750
v -0.33750 0.54464 0.36750
v -0.22500 0.54464 0.36750
v -0.35750 0.54464 0.38750
v -0.33750 0.55000 0.38750
v -0.20500 0.54464 0.38750
v -0.22500 0.55000 0.38750
v -0.36059 0.53309 0.41059
v -0.20191 0.53309 0.41059
v -0.33750 0.53000 0.42214
v -0.22500 0.53000 0.42214
v -0.33750 0.54464 0.40750
v -0.22500 0.54464 0.40750
v 0.18500 0.51000 0.38750
v 0.19036 0.51000 0.36750
v 0.19036 0.49000 0.38750
v 0.20191 0.48691 0.36441
v 0.22500 0.49000 0.35286
v 0.22500 0.47536 0.36750
v 0.33750 0.47536 0.36750
v 0.33750 0.49000 0.35286
v 0.36059 0.48691 0.36441
v 0.20500 0.47536 0.38750
v 0.22500 0.47000 0.38750
v 0.33750 0.47000 0.38750
v 0.35750 0.47536 0.38750
v 0.37214 0.49000 0.38750
v 0.20500 0.51000 0.35286
v 0.22500 0.51000 0.34750
v 0.35750 0.51000 0.35286
v 0.33750 0.51000 0.34750
v 0.37214 0.51000 0.36750
v 0.37750 0.51000 0.38750
v 0.19036 0.51000 0.40750
v 0.22500 0.47536 0.40750
v 0.20191 0.48691 0.41059
v 0.33750 0.47536 0.40750
v 0.36059 0.48691 0.41059
v 0.22500 0.49000 0.42214
v 0.33750 0.49000 0.42214
v 0.37214 0.51000 0.40750
v 0.20500 0.51000 0.42214
v 0.22500 0.51000 0.42750
v 0.35750 0.51000 0.42214
v 0.33750 0.51000 0.42750
v 0.19036 0.53000 0.38750
v 0.22500 0.53000 0.35286
v 0.20191 0.53309 0.36441
v 0.33750 0.53000 0.35286
v 0.36059 0.53309 0.36441
v 0.37214 0.53000 0.38750
v 0.22500 0.54464 0.36750
v 0.33750 0.54464 0.36750
v 0.20500 0.54464 0.38750
v 0.22500 0.55000 0.38750
v 0.33750 0.55000 0.38750
v 0.35750 0.54464 0.38750
v 0.20191 0.53309 0.41059
v 0.36059 0.53309 0.41059
v 0.22500 0.53000 0.42214
v 0.33750 0.53000 0.42214
v 0.22500 0.54464 0.40750
v 0.33750 0.54464 0.40750
vn -0.1480 -0.8577 -0.4924
vn -0.5774 -0.5774 -0.5774
vn -0.1480 -0.4924 -0.8577
vn 0.1480 -0.4924 -0.8577
vn 0.1480 -0.8577 -0.4924
vn 0.5774 -0.5774 -0.5774
vn -0.4956 -0.8685 0.0000
vn -0.1278 -0.9918 -0.0000
vn -0.8685 -0.4956 0.0000
vn 0.4956 -0.8685 -0.0000
vn 0.1278 -0.9918 0.0000
vn 0.8685 -0.4956 0.0000
vn -0.4956 0.0000 -0.8685
vn -0.1278 0.0000 -0.9918
vn -0.8685 0.0000 -0.4956
vn 0.4956 -0.0000 -0.8685
vn 0.1278 0.0000 -0.9918
vn 0.8685 -0.0000 -0.4956
vn -1.0000 0.0000 0.0000
vn 1.0000 0.0000 0.0000
vn -0.1480 -0.8577 0.4924
vn -0.5774 -0.5774 0.5774
vn 0.1480 -0.8577 0.4924
vn 0.5774 -0.5774 0.5774
vn -0.1480 -0.4924 0.8577
vn 0.1480 -0.4924 0.8577
vn -0.8685 0.0000 0.4956
vn 0.8685 -0.0000 0.4956
vn -0.4956 -0.0000 0.8685
vn -0.1278 -0.0000 0.9918
vn 0.1278 0.0000 0.9918
vn 0.4956 -0.0000 0.8685
vn -0.1480 0.4924 -0.8577
vn -0.5774 0.5774 -0.5774
vn 0.1480 0.4924 -0.8577
vn 0.5774 0.5774 -0.5774
vn -0.8685 0.4956 -0.0000
vn 0.8685 0.4956 0.0000
vn -0.1480 0.8577 -0.4924
vn 0.1480 0.8577 -0.4924
vn -0.4956 0.8685 -0.0000
vn -0.1278 0.9918 -0.0000
vn 0.4956 0.8685 0.0000
vn 0.1278 0.9918 0.0000
vn -0.5774 0.5774 0.5774
vn 0.5774 0.5774 0.5774
vn -0.1480 0.4924 0.8577
vn 0.1480 0.4924 0.8577
vn -0.1480 0.8577 0.4924
vn 0.1480 0.8577 0.4924
vn -1.0000 0.0000 0.0000
vn -0.8685 -0.0000 -0.4956
vn -0.8685 -0.4956 0.0000
vn -0.5774 -0.5774 -0.5774
vn -0.1480 -0.4924 -0.8577
vn -0.1480 -0.8577 -0.4924
vn 0.1480 -0.8577 -0.4924
vn 0.1480 -0.4924 -0.8577
vn 0.5774 -0.5774 -0.5774
vn -0.4956 -0.8685 0.0000
vn -0.1278 -0.9918 0.0000
vn 0.1278 -0.9918 0.0000
vn 0.4956 -0.8685 0.0000
vn 0.8685 -0.4956 0.0000
vn -0.4956 0.0000 -0.8685
vn -0.1278 0.0000 -0.9918
vn 0.4956 -0.0000 -0.8685
vn 0.1278 0.0000 -0.9918
vn 0.8685 0.0000 -0.4956
vn 1.0000 0.0000 0.0000
vn -0.8685 -0.0000 0.4956
vn -0.1480 -0.8577 0.4924
vn -0.5774 -0.5774 0.5774
vn 0.1480 -0.8577 0.4924
vn 0.5774 -0.5774 0.5774
vn -0.1480 -0.4924 0.8577
vn 0.1480 -0.4924 0.8577
vn 0.8685 -0.0000 0.4956
vn -0.4956 0.0000 0.8685
vn -0.1278 -0.0000 0.9918
vn 0.4956 -0.0000 0.8685
vn 0.1278 0.0000 0.9918
vn -0.8685 0.4956 0.0000
vn -0.1480 0.4924 -0.8577
vn -0.5774 0.5774 -0.5774
vn 0.1480 0.4924 -0.8577
vn 0.5774 0.5774 -0.5774
vn 0.8685 0.4956 -0.0000
vn -0.1480 0.8577 -0.4924
vn 0.1480 0.8577 -0.4924
vn -0.4956 0.8685 0.0000
vn -0.1278 0.9918 0.0000
vn 0.1278 0.9918 0.0000
vn 0.4956 0.8685 0.0000
vn -0.5774 0.5774 0.5774
vn 0.5774 0.5774 0.5774
vn -0.1480 0.4924 0.8577
vn 0.1480 0.4924 0.8577
vn -0.1480 0.8577 0.4924
vn 0.1480 0.8577 0.4924
f 1//1 2//2 3//3
f 3//3 4//4 1//1
f 1//1 4//4 5//5
f 4//4 6//6 5//5
f 2//2 1//1 7//7
f 1//1 5//5 8//8
f 8//8 7//7 1//1
f 7//7 9//9 2//2
f 5//5 6//6 10//10
f 8//8 5//5 11//11
f 5//5 10//10 11//11
f 6//6 12//12 10//10
f 2//2 13//13 3//3
f 14//14 4//4 3//3
f 13//13 14//14 3//3
f 13//13 2//2 15//15
f 6//6 4//4 16//16
f 4//4 14//14 17//17
f 16//16 4//4 17//17
f 6//6 16//16 18//18
f 15//15 2//2 9//9
f 19//19 15//15 9//9
f 12//12 6//6 18//18
f 20//20 12//12 18//18
f 8//8 21//21 7//7
f 21//21 22//22 7//7
f 23//23 21//21 8//8
f 22//22 9//9 7//7
f 23//23 8//8 11//11
f 11//11 10//10 23//23
f 23//23 10//10 24//24
f 10//10 12//12 24//24
f 25//25 22//22 21//21
f 26//26 25//25 21//21
f 23//23 26//26 21//21
f 23//23 24//24 26//26
f 22//22 27//27 9//9
f 9//9 27//27 19//19
f 12//12 28//28 24//24
f 29//29 22//22 25//25
f 22//22 29//29 27//27
f 29//29 25//25 30//30
f 25//25 31//31 30//30
f 25//25 26//26 31//31
f 24//24 32//32 26//26
f 24//24 28//28 32//32
f 31//31 26//26 32//32
f 20//20 28//28 12//12
f 13//13 33//33 14//14
f 34//34 13//13 15//15
f 34//34 33//33 13//13
f 35//35 14//14 33//33
f 17//17 14//14 35//35
f 35//35 16//16 17//17
f 16//16 36//36 18//18
f 35//35 36//36 16//16
f 37//37 15//15 19//19
f 34//34 15//15 37//37
f 18//18 36//36 38//38
f 33//33 34//34 39//39
f 35//35 33//33 39//39
f 40//40 35//35 39//39
f 40//40 36//36 35//35
f 41//41 34//34 37//37
f 41//41 39//39 34//34
f 40//40 39//39 42//42
f 39//39 41//41 42//42
f 36//36 43//43 38//38
f 36//36 40//40 43//43
f 44//44 40//40 42//42
f 44//44 43//43 40//40
f 18//18 38//38 20//20
f 19//19 27//27 37//37
f 27//27 45//45 37//37
f 46//46 28//28 38//38
f 29//29 45//45 27//27
f 30//30 47//47 29//29
f 31//31 47//47 30//30
f 45//45 29//29 47//47
f 32//32 28//28 46//46
f 48//48 31//31 32//32
f 48//48 47//47 31//31
f 48//48 32//32 46//46
f 45//45 41//41 37//37
f 41//41 49//49 42//42
f 42//42 49//49 44//44
f 49//49 41//41 45//45
f 46//46 38//38 43//43
f 43//43 44//44 50//50
f 50//50 44//44 49//49
f 46//46 43//43 50//50
f 49//49 45//45 47//47
f 49//49 47//47 50//50
f 48//48 50//50 47//47
f 48//48 46//46 50//50
f 38//38 28//28 20//20
f 51//51 52//52 53//53
f 54//54 55//55 56//56
f 56//56 55//55 57//57
f 55//55 58//58 57//57
f 58//58 59//59 57//57
f 60//60 54//54 56//56
f 60//60 56//56 61//61
f 56//56 62//62 61//61
f 60//60 53//53 54//54
f 56//56 57//57 62//62
f 59//59 63//63 57//57
f 62//62 57//57 63//63
f 63//63 59//59 64//64
f 65//65 55//55 54//54
f 66//66 58//58 55//55
f 55//55 65//65 66//66
f 65//65 54//54 52//52
f 67//67 59//59 58//58
f 68//68 58//58 66//66
f 58//58 68//68 67//67
f 59//59 67//67 69//69
f 53//53 52//52 54//54
f 64//64 59//59 69//69
f 70//70 64//64 69//69
f 51//51 53//53 71//71
f 72//72 60//60 61//61
f 61//61 62//62 72//72
f 60//60 72//72 73//73
f 60//60 73//73 53//53
f 74//74 62//62 63//63
f 72//72 62//62 74//74
f 75//75 74//74 63//63
f 75//75 63//63 64//64
f 73//73 72//72 76//76
f 76//76 72//72 74//74
f 77//77 76//76 74//74
f 77//77 74//74 75//75
f 53//53 73//73 71//71
f 78//78 75//75 64//64
f 64//64 70//70 78//78
f 73//73 76//76 79//79
f 76//76 77//77 80//80
f 71//71 73//73 79//79
f 76//76 80//80 79//79
f 81//81 77//77 75//75
f 81//81 75//75 78//78
f 80//80 77//77 82//82
f 77//77 81//81 82//82
f 51//51 83//83 52//52
f 65//65 84//84 66//66
f 85//85 65//65 52//52
f 84//84 65//65 85//85
f 66//66 84//84 86//86
f 66//66 86//86 68//68
f 68//68 86//86 67//67
f 87//87 69//69 67//67
f 86//86 87//87 67//67
f 85//85 52//52 83//83
f 69//69 88//88 70//70
f 88//88 69//69 87//87
f 89//89 84//84 85//85
f 89//89 90//90 84//84
f 86//86 84//84 90//90
f 90//90 87//87 86//86
f 85//85 83//83 91//91
f 89//89 85//85 91//91
f 91//91 92//92 89//89
f 89//89 92//92 93//93
f 87//87 94//94 88//88
f 93//93 90//90 89//89
f 94//94 87//87 90//90
f 94//94 90//90 93//93
f 83//83 51//51 71//71
f 71//71 95//95 83//83
f 88//88 78//78 70//70
f 96//96 78//78 88//88
f 71//71 79//79 95//95
f 80//80 97//97 79//79
f 97//97 95//95 79//79
f 97//97 80//80 98//98
f 96//96 81//81 78//78
f 82//82 98//98 80//80
f 81//81 98//98 82//82
f 98//98 81//81 96//96
f 83//83 95//95 91//91
f 92//92 91//91 99//99
f 99//99 93//93 92//92
f 95//95 99//99 91//91
f 94//94 96//96 88//88
f 100//100 94//94 93//93
f 99//99 100//100 93//93
f 94//94 100//100 96//96
f 95//95 97//97 99//99
f 97//97 100//100 99//99
f 100//100 97//97 98//98
f 100//100 98//98 96//96
