v -0.04243 -0.04507 -0.17250
v -0.04243 -0.04507 -0.11250
v -0.02296 -0.03207 -0.11250
v -0.04243 -0.12993 -0.11250
v -0.04243 -0.04507 -0.11250
v -0.05543 -0.06454 -0.11250
v -0.05543 -0.06454 -0.17250
v -0.05543 -0.06454 -0.11250
v -0.06000 -0.08750 -0.17250
v -0.06000 -0.08750 -0.11250
v -0.02296 -0.03207 -0.17250
v 0.00000 -0.02750 -0.11250
v -0.02296 -0.14293 -0.11250
v -0.02296 -0.03207 -0.11250
v 0.00000 -0.14750 -0.11250
v 0.00000 -0.02750 -0.11250
v -0.04243 -0.12993 -0.17250
v -0.05543 -0.06454 -0.17250
v -0.04243 -0.04507 -0.17250
v 0.00000 -0.02750 -0.17250
v -0.02296 -0.14293 -0.17250
v -0.02296 -0.03207 -0.17250
v 0.00000 -0.14750 -0.17250
v 0.00000 -0.02750 -0.17250
v -0.05543 -0.11046 -0.11250
v -0.06000 -0.08750 -0.11250
v -0.05543 -0.11046 -0.17250
v -0.05543 -0.11046 -0.11250
v -0.04243 -0.12993 -0.17250
v -0.04243 -0.12993 -0.11250
v -0.02296 -0.14293 -0.17250
v -0.02296 -0.14293 -0.11250
v 0.00000 -0.14750 -0.17250
v 0.00000 -0.14750 -0.11250
v -0.05543 -0.11046 -0.17250
v -0.06000 -0.08750 -0.17250
v 0.02296 -0.03207 -0.11250
v 0.02296 -0.03207 -0.17250
v 0.04243 -0.04507 -0.11250
v 0.02296 -0.14293 -0.11250
v 0.02296 -0.03207 -0.11250
v 0.04243 -0.04507 -0.17250
v 0.05543 -0.06454 -0.11250
v 0.04243 -0.12993 -0.11250
v 0.04243 -0.04507 -0.11250
v 0.05543 -0.11046 -0.11250
v 0.05543 -0.06454 -0.11250
v 0.05543 -0.06454 -0.17250
v 0.06000 -0.08750 -0.11250
v 0.02296 -0.14293 -0.17250
v 0.02296 -0.03207 -0.17250
v 0.06000 -0.08750 -0.17250
v 0.04243 -0.12993 -0.17250
v 0.04243 -0.04507 -0.17250
v 0.05543 -0.11046 -0.17250
v 0.05543 -0.06454 -0.17250
v 0.02296 -0.14293 -0.17250
v 0.02296 -0.14293 -0.11250
v 0.06000 -0.08750 -0.11250
v 0.05543 -0.11046 -0.11250
v 0.05543 -0.11046 -0.17250
v 0.04243 -0.12993 -0.11250
v 0.04243 -0.12993 -0.17250
v 0.06000 -0.08750 -0.17250
vn -0.7071 0.7071 -0.0000
vn -0.7071 0.7071 0.0000
vn -0.3827 0.9239 -0.0000
vn 0.0000 0.0000 1.0000
vn 0.0000 0.0000 1.0000
vn 0.0000 0.0000 1.0000
vn -0.9239 0.3827 0.0000
vn -0.9239 0.3827 0.0000
vn -1.0000 0.0000 0.0000
vn -1.0000 0.0000 -0.0000
vn -0.3827 0.9239 0.0000
vn -0.0000 1.0000 0.0000
vn 0.0000 0.0000 1.0000
vn 0.0000 0.0000 1.0000
vn 0.0000 0.0000 1.0000
vn 0.0000 0.0000 1.0000
vn 0.0000 0.0000 -1.0000
vn 0.0000 0.0000 -1.0000
vn 0.0000 0.0000 -1.0000
vn 0.0000 1.0000 0.0000
vn 0.0000 0.0000 -1.0000
vn 0.0000 0.0000 -1.0000
vn 0.0000 0.0000 -1.0000
vn 0.0000 0.0000 -1.0000
vn 0.0000 0.0000 1.0000
vn 0.0000 0.0000 1.0000
vn -0.9239 -0.3827 -0.0000
vn -0.9239 -0.3827 0.0000
vn -0.7071 -0.7071 0.0000
vn -0.7071 -0.7071 0.0000
vn -0.3827 -0.9239 0.0000
vn -0.3827 -0.9239 0.0000
vn -0.0000 -1.0000 0.0000
vn 0.0000 -1.0000 0.0000
vn 0.0000 0.0000 -1.0000
vn 0.0000 0.0000 -1.0000
vn 0.3827 0.9239 0.0000
vn 0.3827 0.9239 0.0000
vn 0.7071 0.7071 0.0000
vn 0.0000 0.0000 1.0000
vn 0.0000 0.0000 1.0000
vn 0.7071 0.7071 0.0000
vn 0.9239 0.3827 0.0000
vn 0.0000 0.0000 1.0000
vn 0.0000 0.0000 1.0000
vn 0.0000 0.0000 1.0000
vn 0.0000 0.0000 1.0000
vn 0.9239 0.3827 -0.0000
vn 1.0000 0.0000 -0.0000
vn 0.0000 0.0000 -1.0000
vn 0.0000 0.0000 -1.0000
vn 1.0000 0.0000 0.0000
vn 0.0000 0.0000 -1.0000
vn 0.0000 0.0000 -1.0000
vn 0.0000 0.0000 -1.0000
vn 0.0000 0.0000 -1.0000
vn 0.3827 -0.9239 0.0000
vn 0.3827 -0.9239 -0.0000
vn 0.0000 0.0000 1.0000
vn 0.9239 -0.3827 0.0000
vn 0.9239 -0.3827 -0.0000
vn 0.7071 -0.7071 -0.0000
vn 0.7071 -0.7071 -0.0000
vn 0.0000 0.0000 -1.0000
f 1//1 2//2 3//3
f 4//4 5//5 6//6
f 7//7 8//8 2//2
f 9//9 10//10 8//8
f 11//11 3//3 12//12
f 13//13 14//14 5//5
f 15//15 16//16 14//14
f 1//1 7//7 2//2
f 7//7 9//9 8//8
f 17//17 18//18 19//19
f 11//11 1//1 3//3
f 20//20 11//11 12//12
f 21//21 19//19 22//22
f 23//23 22//22 24//24
f 25//25 6//6 26//26
f 4//4 6//6 25//25
f 13//13 5//5 4//4
f 27//27 28//28 10//10
f 29//29 30//30 28//28
f 15//15 14//14 13//13
f 31//31 32//32 30//30
f 33//33 34//34 32//32
f 9//9 27//27 10//10
f 27//27 29//29 28//28
f 35//35 36//36 18//18
f 17//17 35//35 18//18
f 21//21 17//17 19//19
f 29//29 31//31 30//30
f 23//23 21//21 22//22
f 31//31 33//33 32//32
f 20//20 12//12 37//37
f 38//38 37//37 39//39
f 40//40 41//41 16//16
f 42//42 39//39 43//43
f 44//44 45//45 41//41
f 46//46 47//47 45//45
f 48//48 43//43 49//49
f 38//38 20//20 37//37
f 50//50 24//24 51//51
f 42//42 38//38 39//39
f 48//48 42//42 43//43
f 52//52 48//48 49//49
f 53//53 51//51 54//54
f 55//55 54//54 56//56
f 40//40 16//16 15//15
f 44//44 41//41 40//40
f 57//57 58//58 34//34
f 46//46 45//45 44//44
f 59//59 47//47 46//46
f 52//52 49//49 60//60
f 61//61 60//60 62//62
f 63//63 62//62 58//58
f 50//50 23//23 24//24
f 53//53 50//50 51//51
f 33//33 57//57 34//34
f 57//57 63//63 58//58
f 61//61 52//52 60//60
f 55//55 53//53 54//54
f 64//64 55//55 56//56
f 63//63 61//61 62//62
