v -0.24800 0.01350 -0.42050
v -0.24800 0.08150 -0.42050
v -0.24361 0.08150 -0.43111
v -0.24800 0.08150 -0.20450
v -0.24361 0.00289 -0.20450
v -0.24800 0.01350 -0.20450
v -0.24361 0.09211 -0.20450
v -0.24361 0.00289 -0.42050
v -0.23300 0.00289 -0.43111
v -0.23300 -0.00150 -0.42050
v -0.24361 0.01350 -0.43111
v -0.23300 0.01350 -0.43550
v -0.21507 -0.00150 -0.37007
v -0.21800 -0.00150 -0.36300
v -0.20800 -0.00150 -0.37300
v -0.23300 -0.00150 -0.20450
v -0.23300 0.08150 -0.43550
v -0.24361 0.09211 -0.42050
v -0.23300 0.09211 -0.43111
v -0.23300 0.09650 -0.42050
v -0.23300 0.09650 -0.20450
v -0.15200 -0.00150 -0.37300
v -0.14493 -0.00150 -0.37007
v -0.21800 -0.00150 -0.26200
v -0.21507 -0.00150 -0.25493
v -0.20800 -0.00150 -0.25200
v -0.15200 -0.00150 -0.25200
v -0.24361 0.08150 -0.19389
v -0.23300 0.00289 -0.19389
v -0.24361 0.01350 -0.19389
v -0.23300 0.01350 -0.18950
v -0.23300 0.08150 -0.18950
v -0.23300 0.09211 -0.19389
v 0.23300 -0.00150 -0.42050
v 0.23300 0.01350 -0.43550
v 0.23300 -0.00150 -0.20450
v 0.23300 0.08150 -0.43550
v 0.23300 0.09650 -0.42050
v -0.14200 -0.00150 -0.36300
v -0.14200 -0.00150 -0.26200
v -0.14493 -0.00150 -0.25493
v 0.23300 0.01350 -0.18950
v 0.23300 0.09650 -0.20450
v 0.23300 0.09211 -0.19389
v 0.14493 -0.00150 -0.37007
v 0.14200 -0.00150 -0.36300
v 0.15200 -0.00150 -0.37300
v 0.14200 -0.00150 -0.26200
v 0.23300 0.00289 -0.43111
v 0.23300 0.09211 -0.43111
v 0.14493 -0.00150 -0.25493
v 0.23300 0.00289 -0.19389
v 0.23300 0.08150 -0.18950
v 0.20800 -0.00150 -0.37300
v 0.21507 -0.00150 -0.37007
v 0.21800 -0.00150 -0.36300
v 0.24361 0.00289 -0.42050
v 0.24361 0.01350 -0.43111
v 0.24800 0.01350 -0.42050
v 0.24361 0.08150 -0.43111
v 0.24361 0.00289 -0.20450
v 0.24361 0.09211 -0.42050
v 0.24800 0.08150 -0.42050
v 0.15200 -0.00150 -0.25200
v 0.20800 -0.00150 -0.25200
v 0.21800 -0.00150 -0.26200
v 0.21507 -0.00150 -0.25493
v 0.24361 0.09211 -0.20450
v 0.24800 0.08150 -0.20450
v 0.24800 0.01350 -0.20450
v 0.24361 0.01350 -0.19389
v 0.24361 0.08150 -0.19389
v -0.21507 -0.51857 -0.36300
v -0.21800 -0.51150 -0.36300
v -0.21507 -0.51150 -0.37007
v -0.20800 -0.51150 -0.37300
v -0.20800 -0.51857 -0.37007
v -0.20800 -0.52150 -0.36300
v -0.21800 -0.51150 -0.26200
v -0.20800 -0.52150 -0.26200
v -0.15200 -0.51150 -0.37300
v -0.15200 -0.51857 -0.37007
v -0.15200 -0.52150 -0.36300
v -0.15200 -0.52150 -0.26200
v -0.21507 -0.51857 -0.26200
v -0.21507 -0.51150 -0.25493
v -0.20800 -0.51857 -0.25493
v -0.20800 -0.51150 -0.25200
v -0.15200 -0.51857 -0.25493
v -0.15200 -0.51150 -0.25200
v -0.21800 -0.00150 -0.36300
v -0.21507 -0.00150 -0.37007
v -0.20800 -0.00150 -0.37300
v -0.21800 -0.00150 -0.26200
v -0.21507 -0.00150 -0.25493
v -0.20800 -0.00150 -0.25200
v -0.15200 -0.00150 -0.25200
v -0.21507 -0.00150 -0.37007
v -0.15200 -0.00150 -0.37300
v -0.21507 -0.00150 -0.25493
v -0.14493 -0.51150 -0.37007
v -0.14493 -0.51857 -0.36300
v -0.14200 -0.51150 -0.36300
v -0.14493 -0.51857 -0.26200
v -0.14200 -0.51150 -0.26200
v -0.14493 -0.51150 -0.25493
v -0.14493 -0.00150 -0.37007
v -0.14200 -0.00150 -0.36300
v -0.14493 -0.00150 -0.25493
v -0.14200 -0.00150 -0.26200
v -0.14493 -0.00150 -0.37007
v -0.14493 -0.00150 -0.25493
v 0.14200 -0.51150 -0.36300
v 0.14493 -0.51857 -0.36300
v 0.14200 -0.51150 -0.26200
v 0.14493 -0.51150 -0.37007
v 0.15200 -0.51150 -0.37300
v 0.15200 -0.51857 -0.37007
v 0.15200 -0.52150 -0.36300
v 0.15200 -0.52150 -0.26200
v 0.14493 -0.51857 -0.26200
v 0.14493 -0.51150 -0.25493
v 0.15200 -0.51857 -0.25493
v 0.15200 -0.51150 -0.25200
v 0.14200 -0.00150 -0.36300
v 0.14493 -0.00150 -0.37007
v 0.14200 -0.00150 -0.26200
v 0.14493 -0.00150 -0.25493
v 0.15200 -0.00150 -0.25200
v 0.15200 -0.00150 -0.37300
v 0.14493 -0.00150 -0.37007
v 0.14493 -0.00150 -0.25493
v 0.20800 -0.51150 -0.37300
v 0.20800 -0.51857 -0.37007
v 0.20800 -0.52150 -0.36300
v 0.20800 -0.52150 -0.26200
v 0.21507 -0.51150 -0.37007
v 0.21507 -0.51857 -0.36300
v 0.21800 -0.51150 -0.36300
v 0.21507 -0.51857 -0.26200
v 0.21800 -0.51150 -0.26200
v 0.20800 -0.51857 -0.25493
v 0.20800 -0.51150 -0.25200
v 0.21507 -0.51150 -0.25493
v 0.20800 -0.00150 -0.37300
v 0.21507 -0.00150 -0.37007
v 0.21800 -0.00150 -0.36300
v 0.20800 -0.00150 -0.25200
v 0.21507 -0.00150 -0.25493
v 0.21800 -0.00150 -0.26200
v 0.21507 -0.00150 -0.37007
v 0.21507 -0.00150 -0.25493
v -0.14000 -0.49513 -0.33677
v -0.14000 -0.50603 -0.32177
v -0.14000 -0.45987 -0.33677
v -0.14000 -0.47750 -0.34250
v -0.14000 -0.50603 -0.30323
v -0.14000 -0.44897 -0.32177
v -0.14000 -0.44897 -0.30323
v -0.14000 -0.49513 -0.28823
v -0.14000 -0.47750 -0.28250
v -0.14000 -0.45987 -0.28823
v -0.14000 -0.49513 -0.33677
v -0.14000 -0.47750 -0.34250
v 0.14000 -0.49513 -0.33677
v -0.14000 -0.45987 -0.33677
v 0.14000 -0.47750 -0.34250
v -0.14000 -0.44897 -0.32177
v 0.14000 -0.45987 -0.33677
v -0.14000 -0.50603 -0.32177
v 0.14000 -0.50603 -0.30323
v -0.14000 -0.50603 -0.30323
v 0.14000 -0.50603 -0.32177
v 0.14000 -0.49513 -0.28823
v -0.14000 -0.49513 -0.28823
v 0.14000 -0.47750 -0.28250
v -0.14000 -0.47750 -0.28250
v 0.14000 -0.45987 -0.28823
v -0.14000 -0.45987 -0.28823
v -0.14000 -0.44897 -0.30323
v 0.14000 -0.44897 -0.32177
v 0.14000 -0.44897 -0.30323
v 0.14000 -0.49513 -0.33677
v 0.14000 -0.45987 -0.33677
v 0.14000 -0.50603 -0.32177
v 0.14000 -0.47750 -0.34250
v 0.14000 -0.44897 -0.32177
v 0.14000 -0.50603 -0.30323
v 0.14000 -0.44897 -0.30323
v 0.14000 -0.49513 -0.28823
v 0.14000 -0.45987 -0.28823
v 0.14000 -0.47750 -0.28250
v -0.03031 0.09750 -0.33000
v -0.03031 0.09750 -0.29500
v -0.03500 0.09750 -0.31250
v -0.01750 0.09750 -0.34281
v -0.01750 0.09750 -0.28219
v 0.00000 0.09750 -0.34750
v 0.00000 0.09750 -0.27750
v -0.03031 0.09750 -0.33000
v -0.01750 0.47250 -0.34281
v -0.01750 0.09750 -0.34281
v 0.00000 0.47250 -0.34750
v 0.00000 0.09750 -0.34750
v -0.03500 0.09750 -0.31250
v -0.03031 0.47250 -0.33000
v -0.03031 0.09750 -0.29500
v -0.03500 0.47250 -0.31250
v -0.01750 0.09750 -0.28219
v -0.03031 0.47250 -0.29500
v 0.00000 0.09750 -0.27750
v -0.01750 0.45243 -0.28219
v -0.02750 0.47250 -0.29219
v -0.02382 0.45875 -0.28850
v -0.01375 0.44868 -0.28118
v 0.00000 0.44500 -0.27750
v -0.03031 0.47250 -0.33000
v -0.01375 0.47250 -0.33632
v -0.01750 0.47250 -0.34281
v -0.02382 0.47250 -0.32625
v 0.00000 0.47250 -0.34000
v 0.00000 0.47250 -0.34750
v -0.03500 0.47250 -0.31250
v -0.03031 0.47250 -0.29500
v -0.02750 0.47250 -0.31250
v -0.02750 0.47250 -0.29219
v 0.01750 0.09750 -0.34281
v 0.01750 0.09750 -0.28219
v 0.03031 0.09750 -0.33000
v 0.03500 0.09750 -0.31250
v 0.03031 0.09750 -0.29500
v 0.01750 0.47250 -0.34281
v 0.01750 0.09750 -0.34281
v 0.03031 0.47250 -0.33000
v 0.03031 0.09750 -0.33000
v 0.01750 0.09750 -0.28219
v 0.03500 0.47250 -0.31250
v 0.03500 0.09750 -0.31250
v 0.03031 0.09750 -0.29500
v 0.01750 0.45243 -0.28219
v 0.03031 0.47250 -0.29500
v 0.01375 0.44868 -0.28118
v 0.02382 0.45875 -0.28850
v 0.02750 0.47250 -0.29219
v 0.01750 0.47250 -0.34281
v 0.01375 0.47250 -0.33632
v 0.02382 0.47250 -0.32625
v 0.03031 0.47250 -0.33000
v 0.02750 0.47250 -0.31250
v 0.03031 0.47250 -0.29500
v 0.03500 0.47250 -0.31250
v 0.02750 0.47250 -0.29219
v -0.01588 0.48838 -0.32838
v -0.01375 0.47250 -0.33632
v -0.02382 0.47250 -0.32625
v 0.00000 0.48625 -0.33632
v 0.00000 0.47250 -0.34000
v 0.00000 0.49632 -0.32625
v -0.02382 0.48625 -0.31250
v -0.02750 0.47250 -0.31250
v -0.02750 0.47250 -0.29219
v -0.01375 0.49632 -0.31250
v 0.00000 0.50000 -0.31250
v -0.01375 0.49632 0.26250
v -0.02382 0.45875 0.26250
v -0.02382 0.45875 -0.28850
v -0.02750 0.47250 0.26250
v -0.01375 0.44868 0.26250
v -0.01750 0.45243 -0.28219
v -0.01375 0.44868 -0.28118
v 0.00000 0.44500 0.26250
v 0.00000 0.44500 -0.27750
v -0.02382 0.48625 0.26250
v 0.00000 0.50000 0.26250
v -0.02382 0.47250 0.27625
v -0.01588 0.45662 0.27838
v -0.01588 0.48838 0.27838
v -0.01375 0.47250 0.28632
v 0.00000 0.44868 0.27625
v 0.00000 0.45875 0.28632
v 0.00000 0.47250 0.29000
v 0.00000 0.49632 0.27625
v 0.00000 0.48625 0.28632
v 0.01375 0.47250 -0.33632
v 0.01588 0.48838 -0.32838
v 0.02382 0.47250 -0.32625
v 0.01375 0.49632 -0.31250
v 0.02382 0.48625 -0.31250
v 0.02750 0.47250 -0.31250
v 0.02382 0.48625 0.26250
v 0.01375 0.44868 0.26250
v 0.01375 0.44868 -0.28118
v 0.02382 0.45875 0.26250
v 0.01750 0.45243 -0.28219
v 0.02750 0.47250 0.26250
v 0.02382 0.45875 -0.28850
v 0.02750 0.47250 -0.29219
v 0.01375 0.49632 0.26250
v 0.01588 0.45662 0.27838
v 0.02382 0.47250 0.27625
v 0.01375 0.47250 0.28632
v 0.01588 0.48838 0.27838
v -0.31588 0.45662 0.37162
v -0.32382 0.47250 0.37375
v -0.31375 0.47250 0.36368
v -0.32382 0.45875 0.38750
v -0.32750 0.47250 0.38750
v -0.31375 0.44868 0.38750
v -0.30000 0.44868 0.37375
v -0.30654 0.46529 0.36368
v -0.30751 0.45807 0.36730
v -0.30670 0.45785 0.36703
v -0.30000 0.45450 0.36793
v -0.32382 0.47250 0.40125
v -0.31588 0.45662 0.40338
v -0.31375 0.47250 0.41132
v -0.30000 0.44868 0.40125
v -0.30000 0.45875 0.41132
v -0.31588 0.48838 0.37162
v -0.32382 0.48625 0.38750
v -0.31375 0.49632 0.38750
v -0.30808 0.47250 0.36216
v -0.30654 0.47971 0.36368
v -0.30751 0.48693 0.36730
v -0.30670 0.48715 0.36703
v -0.30000 0.49632 0.37375
v -0.31588 0.48838 0.40338
v -0.30000 0.48625 0.41132
v -0.30000 0.49632 0.40125
v -0.29590 0.45085 0.37158
v -0.30000 0.44500 0.38750
v -0.28880 0.44868 0.37375
v -0.28880 0.44750 0.37817
v -0.30000 0.47250 0.41500
v -0.30000 0.49050 0.36793
v -0.29590 0.49415 0.37158
v -0.30000 0.50000 0.38750
v -0.28880 0.49632 0.37375
v -0.28880 0.49750 0.37817
v 0.30000 0.44500 0.38750
v -0.27820 0.44868 0.37375
v -0.26590 0.45085 0.37158
v 0.27820 0.44868 0.37375
v 0.30000 0.44868 0.40125
v 0.30000 0.45875 0.41132
v 0.24049 0.48693 0.36437
v -0.26590 0.49415 0.37158
v -0.27820 0.49632 0.37375
v 0.27820 0.49632 0.37375
v 0.30000 0.50000 0.38750
v -0.24049 0.48693 0.36437
v 0.30000 0.47250 0.41500
v 0.30000 0.49632 0.40125
v -0.22852 0.47250 0.36000
v -0.23935 0.48625 0.36368
v 0.22852 0.47250 0.36000
v -0.23935 0.45875 0.36368
v 0.24049 0.45807 0.36437
v -0.24049 0.45807 0.36437
v 0.23935 0.45875 0.36368
v 0.23935 0.48625 0.36368
v 0.26590 0.49415 0.37158
v 0.26590 0.45085 0.37158
v 0.28880 0.44750 0.37817
v 0.28880 0.49750 0.37817
v 0.30000 0.48625 0.41132
v 0.30000 0.44868 0.37375
v 0.28880 0.44868 0.37375
v 0.29590 0.45085 0.37158
v 0.30000 0.45450 0.36793
v 0.31375 0.44868 0.38750
v 0.30670 0.45785 0.36703
v 0.31588 0.45662 0.40338
v 0.31375 0.47250 0.41132
v 0.30000 0.49632 0.37375
v 0.29590 0.49415 0.37158
v 0.28880 0.49632 0.37375
v 0.30000 0.49050 0.36793
v 0.30670 0.48715 0.36703
v 0.31375 0.49632 0.38750
v 0.31588 0.48838 0.40338
v 0.31588 0.45662 0.37162
v 0.30751 0.45807 0.36730
v 0.30654 0.46529 0.36368
v 0.31375 0.47250 0.36368
v 0.32382 0.47250 0.37375
v 0.32382 0.45875 0.38750
v 0.32750 0.47250 0.38750
v 0.32382 0.47250 0.40125
v 0.30808 0.47250 0.36216
v 0.30654 0.47971 0.36368
v 0.31588 0.48838 0.37162
v 0.30751 0.48693 0.36730
v 0.32382 0.48625 0.38750
v -0.16443 0.45807 0.24807
v -0.15000 0.45085 0.25000
v -0.16250 0.47250 0.24085
v -0.16443 0.48693 0.24807
v -0.15000 0.44750 0.26250
v -0.15000 0.45085 0.27500
v -0.15000 0.49415 0.25000
v -0.15000 0.49750 0.26250
v -0.15000 0.49415 0.27500
v -0.13557 0.45807 0.27693
v -0.24049 0.45807 0.36437
v -0.13750 0.47250 0.28415
v -0.22852 0.47250 0.36000
v -0.24049 0.48693 0.36437
v -0.13557 0.48693 0.27693
v -0.23935 0.48625 0.36368
v -0.26590 0.45085 0.37158
v -0.26590 0.49415 0.37158
v -0.23935 0.45875 0.36368
v -0.15000 0.46000 0.24085
v -0.13557 0.45807 0.24807
v -0.15000 0.47250 0.23750
v -0.15000 0.48500 0.24085
v -0.13750 0.47250 0.24085
v -0.13557 0.48693 0.24807
v -0.13750 0.45085 0.26250
v -0.12835 0.47250 0.25000
v -0.12835 0.46000 0.26250
v -0.13750 0.49415 0.26250
v -0.12835 0.48500 0.26250
v -0.12835 0.47250 0.27500
v -0.12500 0.47250 0.26250
v 0.12835 0.46000 0.26250
v 0.12835 0.47250 0.25000
v 0.13557 0.45807 0.24807
v 0.13750 0.47250 0.24085
v 0.13750 0.45085 0.26250
v 0.15000 0.45085 0.25000
v 0.15000 0.46000 0.24085
v 0.12835 0.48500 0.26250
v 0.13557 0.48693 0.24807
v 0.15000 0.48500 0.24085
v 0.13750 0.49415 0.26250
v 0.15000 0.49415 0.25000
v 0.16443 0.45807 0.24807
v 0.16250 0.47250 0.24085
v 0.15000 0.47250 0.23750
v 0.16443 0.48693 0.24807
v 0.13557 0.45807 0.27693
v 0.12835 0.47250 0.27500
v 0.13750 0.47250 0.28415
v 0.15000 0.45085 0.27500
v 0.12500 0.47250 0.26250
v 0.13557 0.48693 0.27693
v 0.15000 0.49415 0.27500
v 0.15000 0.44750 0.26250
v 0.15000 0.49750 0.26250
v 0.23935 0.45875 0.36368
v 0.24049 0.45807 0.36437
v 0.22852 0.47250 0.36000
v 0.24049 0.48693 0.36437
v 0.26590 0.49415 0.37158
v 0.23935 0.48625 0.36368
v 0.26590 0.45085 0.37158
vn -0.9641 -0.1877 -0.1877
vn -0.9641 0.1877 -0.1877
vn -0.6887 0.2265 -0.6887
vn -0.9641 0.1877 0.1877
vn -0.6887 -0.6887 0.2265
vn -0.9641 -0.1877 0.1877
vn -0.6887 0.6887 0.2265
vn -0.6887 -0.6887 -0.2265
vn -0.2265 -0.6887 -0.6887
vn -0.1877 -0.9641 -0.1877
vn -0.6887 -0.2265 -0.6887
vn -0.1877 -0.1877 -0.9641
vn 0.0000 -1.0000 0.0000
vn 0.0000 -1.0000 0.0000
vn 0.0000 -1.0000 0.0000
vn -0.1877 -0.9641 0.1877
vn -0.1877 0.1877 -0.9641
vn -0.6887 0.6887 -0.2265
vn -0.2265 0.6887 -0.6887
vn -0.1877 0.9641 -0.1877
vn -0.1877 0.9641 0.1877
vn 0.0000 -1.0000 0.0000
vn 0.0000 -1.0000 0.0000
vn 0.0000 -1.0000 0.0000
vn 0.0000 -1.0000 0.0000
vn 0.0000 -1.0000 0.0000
vn 0.0000 -1.0000 0.0000
vn -0.6887 0.2265 0.6887
vn -0.2265 -0.6887 0.6887
vn -0.6887 -0.2265 0.6887
vn -0.1877 -0.1877 0.9641
vn -0.1877 0.1877 0.9641
vn -0.2265 0.6887 0.6887
vn 0.1877 -0.9641 -0.1877
vn 0.1877 -0.1877 -0.9641
vn 0.1877 -0.9641 0.1877
vn 0.1877 0.1877 -0.9641
vn 0.1877 0.9641 -0.1877
vn 0.0000 -1.0000 0.0000
vn 0.0000 -1.0000 0.0000
vn 0.0000 -1.0000 0.0000
vn 0.1877 -0.1877 0.9641
vn 0.1877 0.9641 0.1877
vn 0.2265 0.6887 0.6887
vn 0.0000 -1.0000 0.0000
vn 0.0000 -1.0000 0.0000
vn 0.0000 -1.0000 0.0000
vn 0.0000 -1.0000 0.0000
vn 0.2265 -0.6887 -0.6887
vn 0.2265 0.6887 -0.6887
vn 0.0000 -1.0000 0.0000
vn 0.2265 -0.6887 0.6887
vn 0.1877 0.1877 0.9641
vn 0.0000 -1.0000 0.0000
vn 0.0000 -1.0000 0.0000
vn 0.0000 -1.0000 0.0000
vn 0.6887 -0.6887 -0.2265
vn 0.6887 -0.2265 -0.6887
vn 0.9641 -0.1877 -0.1877
vn 0.6887 0.2265 -0.6887
vn 0.6887 -0.6887 0.2265
vn 0.6887 0.6887 -0.2265
vn 0.9641 0.1877 -0.1877
vn 0.0000 -1.0000 0.0000
vn 0.0000 -1.0000 0.0000
vn 0.0000 -1.0000 0.0000
vn 0.0000 -1.0000 0.0000
vn 0.6887 0.6887 0.2265
vn 0.9641 0.1877 0.1877
vn 0.9641 -0.1877 0.1877
vn 0.6887 -0.2265 0.6887
vn 0.6887 0.2265 0.6887
vn -0.6887 -0.6887 -0.2265
vn -0.9641 -0.1877 -0.1877
vn -0.6887 -0.2265 -0.6887
vn -0.1877 -0.1877 -0.9641
vn -0.2265 -0.6887 -0.6887
vn -0.1877 -0.9641 -0.1877
vn -0.9641 -0.1877 0.1877
vn -0.1877 -0.9641 0.1877
vn 0.1877 -0.1877 -0.9641
vn 0.2265 -0.6887 -0.6887
vn 0.1877 -0.9641 -0.1877
vn 0.1877 -0.9641 0.1877
vn -0.6887 -0.6887 0.2265
vn -0.6887 -0.2265 0.6887
vn -0.2265 -0.6887 0.6887
vn -0.1877 -0.1877 0.9641
vn 0.2265 -0.6887 0.6887
vn 0.1877 -0.1877 0.9641
vn -0.9808 -0.0000 -0.1951
vn -0.3827 0.0000 -0.9239
vn -0.1951 0.0000 -0.9808
vn -0.9808 0.0000 0.1951
vn -0.9239 0.0000 0.3827
vn -0.1951 0.0000 0.9808
vn 0.1951 0.0000 0.9808
vn -0.9239 0.0000 -0.3827
vn 0.1951 0.0000 -0.9808
vn -0.3827 0.0000 0.9239
vn 0.6887 -0.2265 -0.6887
vn 0.6887 -0.6887 -0.2265
vn 0.9641 -0.1877 -0.1877
vn 0.6887 -0.6887 0.2265
vn 0.9641 -0.1877 0.1877
vn 0.6887 -0.2265 0.6887
vn 0.9239 0.0000 -0.3827
vn 0.9808 0.0000 -0.1951
vn 0.3827 0.0000 0.9239
vn 0.9808 -0.0000 0.1951
vn 0.3827 0.0000 -0.9239
vn 0.9239 0.0000 0.3827
vn -0.9641 -0.1877 -0.1877
vn -0.6887 -0.6887 -0.2265
vn -0.9641 -0.1877 0.1877
vn -0.6887 -0.2265 -0.6887
vn -0.1877 -0.1877 -0.9641
vn -0.2265 -0.6887 -0.6887
vn -0.1877 -0.9641 -0.1877
vn -0.1877 -0.9641 0.1877
vn -0.6887 -0.6887 0.2265
vn -0.6887 -0.2265 0.6887
vn -0.2265 -0.6887 0.6887
vn -0.1877 -0.1877 0.9641
vn -0.9808 -0.0000 -0.1951
vn -0.3827 0.0000 -0.9239
vn -0.9808 0.0000 0.1951
vn -0.9239 0.0000 0.3827
vn -0.1951 -0.0000 0.9808
vn -0.1951 0.0000 -0.9808
vn -0.9239 0.0000 -0.3827
vn -0.3827 0.0000 0.9239
vn 0.1877 -0.1877 -0.9641
vn 0.2265 -0.6887 -0.6887
vn 0.1877 -0.9641 -0.1877
vn 0.1877 -0.9641 0.1877
vn 0.6887 -0.2265 -0.6887
vn 0.6887 -0.6887 -0.2265
vn 0.9641 -0.1877 -0.1877
vn 0.6887 -0.6887 0.2265
vn 0.9641 -0.1877 0.1877
vn 0.2265 -0.6887 0.6887
vn 0.1877 -0.1877 0.9641
vn 0.6887 -0.2265 0.6887
vn 0.1951 -0.0000 -0.9808
vn 0.9239 0.0000 -0.3827
vn 0.9808 0.0000 -0.1951
vn 0.1951 0.0000 0.9808
vn 0.3827 0.0000 0.9239
vn 0.9808 -0.0000 0.1951
vn 0.3827 0.0000 -0.9239
vn 0.9239 0.0000 0.3827
vn -1.0000 0.0000 0.0000
vn -1.0000 0.0000 0.0000
vn -1.0000 0.0000 0.0000
vn -1.0000 0.0000 0.0000
vn -1.0000 0.0000 0.0000
vn -1.0000 0.0000 0.0000
vn -1.0000 0.0000 0.0000
vn -1.0000 0.0000 0.0000
vn -1.0000 0.0000 0.0000
vn -1.0000 0.0000 0.0000
vn 0.0000 -0.5878 -0.8090
vn 0.0000 -0.0000 -1.0000
vn 0.0000 -0.5878 -0.8090
vn -0.0000 0.5878 -0.8090
vn -0.0000 0.0000 -1.0000
vn -0.0000 0.9511 -0.3090
vn -0.0000 0.5878 -0.8090
vn 0.0000 -0.9511 -0.3090
vn 0.0000 -0.9511 0.3090
vn -0.0000 -0.9511 0.3090
vn 0.0000 -0.9511 -0.3090
vn -0.0000 -0.5878 0.8090
vn -0.0000 -0.5878 0.8090
vn -0.0000 -0.0000 1.0000
vn 0.0000 0.0000 1.0000
vn 0.0000 0.5878 0.8090
vn 0.0000 0.5878 0.8090
vn 0.0000 0.9511 0.3090
vn 0.0000 0.9511 -0.3090
vn 0.0000 0.9511 0.3090
vn 1.0000 0.0000 0.0000
vn 1.0000 0.0000 0.0000
vn 1.0000 0.0000 0.0000
vn 1.0000 0.0000 0.0000
vn 1.0000 0.0000 0.0000
vn 1.0000 0.0000 0.0000
vn 1.0000 0.0000 0.0000
vn 1.0000 0.0000 0.0000
vn 1.0000 0.0000 0.0000
vn 1.0000 0.0000 0.0000
vn 0.0000 -1.0000 0.0000
vn 0.0000 -1.0000 0.0000
vn 0.0000 -1.0000 0.0000
vn 0.0000 -1.0000 0.0000
vn 0.0000 -1.0000 0.0000
vn 0.0000 -1.0000 0.0000
vn 0.0000 -1.0000 0.0000
vn -0.8660 0.0000 -0.5000
vn -0.5000 0.0000 -0.8660
vn -0.5000 0.0000 -0.8660
vn 0.0000 0.0000 -1.0000
vn 0.0000 0.0000 -1.0000
vn -1.0000 0.0000 0.0000
vn -0.8660 0.0000 -0.5000
vn -0.8660 -0.0000 0.5000
vn -1.0000 -0.0000 0.0000
vn -0.5000 0.0000 0.8660
vn -0.8660 0.0000 0.5000
vn 0.0000 0.0000 1.0000
vn -0.6028 0.0000 0.7979
vn -0.7071 0.0000 0.7071
vn -0.7071 -0.0000 0.7071
vn -0.2588 0.0000 0.9659
vn 0.0000 0.0000 1.0000
vn 0.0000 1.0000 0.0000
vn 0.0000 1.0000 0.0000
vn 0.0000 1.0000 0.0000
vn 0.0000 1.0000 0.0000
vn 0.0000 1.0000 0.0000
vn 0.0000 1.0000 0.0000
vn 0.0000 1.0000 0.0000
vn 0.0000 1.0000 0.0000
vn 0.0000 1.0000 0.0000
vn 0.0000 1.0000 0.0000
vn 0.0000 -1.0000 0.0000
vn 0.0000 -1.0000 0.0000
vn 0.0000 -1.0000 0.0000
vn 0.0000 -1.0000 0.0000
vn 0.0000 -1.0000 0.0000
vn 0.5000 0.0000 -0.8660
vn 0.5000 0.0000 -0.8660
vn 0.8660 0.0000 -0.5000
vn 0.8660 0.0000 -0.5000
vn 0.5000 0.0000 0.8660
vn 1.0000 0.0000 0.0000
vn 1.0000 0.0000 0.0000
vn 0.8660 0.0000 0.5000
vn 0.6028 0.0000 0.7979
vn 0.8660 0.0000 0.5000
vn 0.2588 0.0000 0.9659
vn 0.7071 0.0000 0.7071
vn 0.7071 0.0000 0.7071
vn 0.0000 1.0000 0.0000
vn 0.0000 1.0000 0.0000
vn 0.0000 1.0000 0.0000
vn 0.0000 1.0000 0.0000
vn 0.0000 1.0000 0.0000
vn 0.0000 1.0000 0.0000
vn 0.0000 1.0000 0.0000
vn 0.0000 1.0000 0.0000
vn -0.5774 0.5774 -0.5774
vn -0.4729 0.2993 -0.8287
vn -0.8287 0.2993 -0.4729
vn -0.0000 0.4956 -0.8685
vn -0.0000 0.2588 -0.9659
vn -0.0000 0.8685 -0.4956
vn -0.8577 0.4924 -0.1480
vn -0.9585 0.2568 -0.1235
vn -0.9940 0.1090 0.0000
vn -0.4924 0.8577 -0.1480
vn -0.0000 0.9918 -0.1278
vn -0.4924 0.8577 0.1480
vn -0.8577 -0.4924 0.1480
vn -0.9047 -0.4260 -0.0000
vn -0.9918 0.0000 0.1278
vn -0.4924 -0.8577 0.1480
vn -0.7071 -0.7071 -0.0000
vn -0.5328 -0.8462 0.0000
vn -0.0000 -0.9918 0.1278
vn -0.0000 -1.0000 -0.0000
vn -0.8577 0.4924 0.1480
vn -0.0000 0.9918 0.1278
vn -0.8685 0.0000 0.4956
vn -0.5774 -0.5774 0.5774
vn -0.5774 0.5774 0.5774
vn -0.4956 0.0000 0.8685
vn -0.0000 -0.8685 0.4956
vn -0.0000 -0.4956 0.8685
vn -0.0000 0.0000 1.0000
vn -0.0000 0.8685 0.4956
vn -0.0000 0.4956 0.8685
vn 0.4729 0.2993 -0.8287
vn 0.5774 0.5774 -0.5774
vn 0.8287 0.2993 -0.4729
vn 0.4924 0.8577 -0.1480
vn 0.8577 0.4924 -0.1480
vn 0.9585 0.2568 -0.1235
vn 0.8577 0.4924 0.1480
vn 0.4924 -0.8577 0.1480
vn 0.5328 -0.8462 0.0000
vn 0.8577 -0.4924 0.1480
vn 0.7071 -0.7071 0.0000
vn 0.9918 0.0000 0.1278
vn 0.9047 -0.4260 0.0000
vn 0.9940 0.1090 0.0000
vn 0.4924 0.8577 0.1480
vn 0.5774 -0.5774 0.5774
vn 0.8685 0.0000 0.4956
vn 0.4956 -0.0000 0.8685
vn 0.5774 0.5774 0.5774
vn -0.5774 -0.5774 -0.5774
vn -0.8685 -0.0000 -0.4956
vn -0.4956 0.0000 -0.8685
vn -0.8685 -0.4956 -0.0000
vn -1.0000 0.0000 0.0000
vn -0.4956 -0.8685 -0.0000
vn -0.1480 -0.8577 -0.4924
vn -0.5036 -0.3166 -0.8038
vn -0.4254 -0.3972 -0.8132
vn -0.3253 -0.7625 -0.5593
vn -0.2909 -0.7844 -0.5477
vn -0.8685 -0.0000 0.4956
vn -0.5774 -0.5774 0.5774
vn -0.4956 0.0000 0.8685
vn -0.1480 -0.8577 0.4924
vn -0.1480 -0.4924 0.8577
vn -0.5774 0.5774 -0.5774
vn -0.8685 0.4956 -0.0000
vn -0.4956 0.8685 0.0000
vn -0.4489 -0.0000 -0.8936
vn -0.5036 0.3166 -0.8038
vn -0.4254 0.3972 -0.8132
vn -0.3253 0.7625 -0.5593
vn -0.1480 0.8577 -0.4924
vn -0.5774 0.5774 0.5774
vn -0.1480 0.4924 0.8577
vn -0.1480 0.8577 0.4924
vn -0.1336 -0.8042 -0.5791
vn -0.1278 -0.9918 -0.0000
vn -0.1469 -0.9465 -0.2873
vn -0.0197 -0.9718 -0.2349
vn -0.1278 0.0000 0.9918
vn -0.2909 0.7844 -0.5477
vn -0.1336 0.8042 -0.5791
vn -0.1278 0.9918 -0.0000
vn -0.1469 0.9465 -0.2873
vn -0.0197 0.9718 -0.2349
vn 0.1278 -0.9918 0.0000
vn 0.1177 -0.9930 -0.0046
vn 0.0000 -0.7071 -0.7071
vn -0.1177 -0.9930 -0.0046
vn 0.1480 -0.8577 0.4924
vn 0.1480 -0.4924 0.8577
vn -0.0000 0.7071 -0.7071
vn -0.0000 0.7071 -0.7071
vn 0.1177 0.9930 -0.0046
vn -0.1177 0.9930 -0.0046
vn 0.1278 0.9918 0.0000
vn -0.0000 0.7071 -0.7071
vn 0.1278 -0.0000 0.9918
vn 0.1480 0.8577 0.4924
vn 0.0000 -0.0000 -1.0000
vn -0.0000 0.6005 -0.7997
vn 0.0000 0.0000 -1.0000
vn 0.0000 -0.6005 -0.7997
vn 0.0000 -0.7071 -0.7071
vn 0.0000 -0.7071 -0.7071
vn 0.0000 -0.6005 -0.7997
vn 0.0000 0.6005 -0.7997
vn 0.0000 0.7071 -0.7071
vn 0.0000 -0.7071 -0.7071
vn 0.0197 -0.9718 -0.2349
vn 0.0197 0.9718 -0.2349
vn 0.1480 0.4924 0.8577
vn 0.1480 -0.8577 -0.4924
vn 0.1469 -0.9465 -0.2873
vn 0.1336 -0.8042 -0.5791
vn 0.2909 -0.7844 -0.5477
vn 0.4956 -0.8685 0.0000
vn 0.3253 -0.7625 -0.5593
vn 0.5774 -0.5774 0.5774
vn 0.4956 -0.0000 0.8685
vn 0.1480 0.8577 -0.4924
vn 0.1336 0.8042 -0.5791
vn 0.1469 0.9465 -0.2873
vn 0.2909 0.7844 -0.5477
vn 0.3253 0.7625 -0.5593
vn 0.4956 0.8685 0.0000
vn 0.5774 0.5774 0.5774
vn 0.5774 -0.5774 -0.5774
vn 0.4254 -0.3972 -0.8132
vn 0.5036 -0.3166 -0.8038
vn 0.4956 0.0000 -0.8685
vn 0.8685 0.0000 -0.4956
vn 0.8685 -0.4956 0.0000
vn 1.0000 0.0000 0.0000
vn 0.8685 0.0000 0.4956
vn 0.4489 0.0000 -0.8936
vn 0.5036 0.3166 -0.8038
vn 0.5774 0.5774 -0.5774
vn 0.4254 0.3972 -0.8132
vn 0.8685 0.4956 0.0000
vn -0.4518 -0.5831 -0.6752
vn 0.0105 -0.8652 -0.5013
vn -0.4652 -0.0000 -0.8852
vn -0.4518 0.5831 -0.6752
vn 0.0813 -0.9950 -0.0581
vn 0.2960 -0.8939 0.3367
vn 0.0105 0.8652 -0.5013
vn 0.0813 0.9950 -0.0581
vn 0.2960 0.8939 0.3367
vn 0.6341 -0.5794 0.5121
vn 0.4105 -0.7673 0.4926
vn 0.6659 0.0000 0.7460
vn 0.6402 -0.0000 0.7682
vn 0.4105 0.7673 0.4926
vn 0.6341 0.5794 0.5121
vn 0.6135 0.2859 0.7362
vn 0.2352 -0.9301 0.2822
vn 0.2352 0.9301 0.2822
vn 0.6135 -0.2859 0.7362
vn 0.0000 -0.4956 -0.8685
vn 0.5774 -0.5774 -0.5774
vn 0.0000 0.0000 -1.0000
vn 0.0000 0.4956 -0.8685
vn 0.4956 0.0000 -0.8685
vn 0.5774 0.5774 -0.5774
vn 0.4956 -0.8685 0.0000
vn 0.8685 0.0000 -0.4956
vn 0.8685 -0.4956 -0.0000
vn 0.4956 0.8685 -0.0000
vn 0.8685 0.4956 -0.0000
vn 0.8685 0.0000 0.4956
vn 1.0000 0.0000 0.0000
vn -0.8685 -0.4956 0.0000
vn -0.8685 -0.0000 -0.4956
vn -0.5774 -0.5774 -0.5774
vn -0.4956 0.0000 -0.8685
vn -0.4956 -0.8685 0.0000
vn -0.0105 -0.8652 -0.5013
vn 0.0000 -0.4956 -0.8685
vn -0.8685 0.4956 0.0000
vn -0.5774 0.5774 -0.5774
vn 0.0000 0.4956 -0.8685
vn -0.4956 0.8685 0.0000
vn -0.0105 0.8652 -0.5013
vn 0.4518 -0.5831 -0.6752
vn 0.4652 0.0000 -0.8852
vn 0.0000 0.0000 -1.0000
vn 0.4518 0.5831 -0.6752
vn -0.6341 -0.5794 0.5121
vn -0.8685 0.0000 0.4956
vn -0.6659 0.0000 0.7460
vn -0.2960 -0.8939 0.3367
vn -1.0000 0.0000 0.0000
vn -0.6341 0.5794 0.5121
vn -0.2960 0.8939 0.3367
vn -0.0813 -0.9950 -0.0581
vn -0.0813 0.9950 -0.0581
vn -0.6135 -0.2859 0.7362
vn -0.4105 -0.7673 0.4926
vn -0.6402 -0.0000 0.7682
vn -0.4105 0.7673 0.4926
vn -0.2352 0.9301 0.2822
vn -0.6135 0.2859 0.7362
vn -0.2352 -0.9301 0.2822
f 1//1 2//2 3//3
f 1//1 4//4 2//2
f 1//1 5//5 6//6
f 1//1 6//6 4//4
f 2//2 4//4 7//7
f 8//8 9//9 10//10
f 1//1 11//11 8//8
f 11//11 12//12 9//9
f 8//8 11//11 9//9
f 1//1 3//3 11//11
f 11//11 3//3 12//12
f 10//10 13//13 14//14
f 10//10 15//15 13//13
f 8//8 10//10 5//5
f 1//1 8//8 5//5
f 10//10 14//14 16//16
f 12//12 3//3 17//17
f 2//2 18//18 3//3
f 3//3 19//19 17//17
f 3//3 18//18 19//19
f 18//18 20//20 19//19
f 2//2 7//7 18//18
f 18//18 21//21 20//20
f 10//10 22//22 15//15
f 10//10 23//23 22//22
f 10//10 16//16 5//5
f 16//16 14//14 24//24
f 16//16 24//24 25//25
f 16//16 25//25 26//26
f 18//18 7//7 21//21
f 16//16 26//26 27//27
f 6//6 28//28 4//4
f 5//5 16//16 29//29
f 6//6 5//5 30//30
f 5//5 29//29 30//30
f 30//30 29//29 31//31
f 6//6 30//30 28//28
f 30//30 31//31 28//28
f 31//31 32//32 28//28
f 4//4 28//28 7//7
f 28//28 33//33 7//7
f 7//7 33//33 21//21
f 28//28 32//32 33//33
f 9//9 34//34 10//10
f 9//9 12//12 35//35
f 10//10 36//36 23//23
f 12//12 17//17 37//37
f 17//17 19//19 37//37
f 19//19 20//20 38//38
f 20//20 21//21 38//38
f 36//36 39//39 23//23
f 36//36 40//40 39//39
f 36//36 27//27 41//41
f 36//36 41//41 40//40
f 16//16 36//36 29//29
f 29//29 42//42 31//31
f 31//31 42//42 32//32
f 16//16 27//27 36//36
f 21//21 33//33 43//43
f 32//32 44//44 33//33
f 10//10 45//45 46//46
f 10//10 47//47 45//45
f 10//10 46//46 48//48
f 10//10 34//34 47//47
f 9//9 49//49 34//34
f 9//9 35//35 49//49
f 12//12 37//37 35//35
f 19//19 50//50 37//37
f 19//19 38//38 50//50
f 10//10 48//48 51//51
f 10//10 51//51 36//36
f 21//21 43//43 38//38
f 29//29 36//36 52//52
f 29//29 52//52 42//42
f 32//32 42//42 53//53
f 33//33 44//44 43//43
f 32//32 53//53 44//44
f 34//34 54//54 47//47
f 34//34 55//55 54//54
f 34//34 56//56 55//55
f 49//49 57//57 34//34
f 49//49 35//35 58//58
f 49//49 58//58 57//57
f 57//57 58//58 59//59
f 35//35 60//60 58//58
f 58//58 60//60 59//59
f 34//34 36//36 56//56
f 34//34 57//57 36//36
f 57//57 59//59 61//61
f 35//35 37//37 60//60
f 37//37 50//50 60//60
f 60//60 50//50 62//62
f 50//50 38//38 62//62
f 60//60 62//62 63//63
f 38//38 43//43 62//62
f 36//36 51//51 64//64
f 36//36 64//64 65//65
f 36//36 66//66 56//56
f 57//57 61//61 36//36
f 36//36 65//65 67//67
f 36//36 67//67 66//66
f 62//62 43//43 68//68
f 62//62 68//68 69//69
f 59//59 63//63 70//70
f 60//60 63//63 59//59
f 62//62 69//69 63//63
f 59//59 70//70 61//61
f 63//63 69//69 70//70
f 36//36 61//61 52//52
f 61//61 71//71 52//52
f 61//61 70//70 71//71
f 52//52 71//71 42//42
f 42//42 71//71 53//53
f 71//71 69//69 72//72
f 71//71 72//72 53//53
f 72//72 68//68 44//44
f 43//43 44//44 68//68
f 72//72 69//69 68//68
f 53//53 72//72 44//44
f 71//71 70//70 69//69
f 73//73 74//74 75//75
f 75//75 76//76 77//77
f 73//73 75//75 77//77
f 73//73 77//77 78//78
f 73//73 79//79 74//74
f 73//73 78//78 80//80
f 77//77 76//76 81//81
f 77//77 82//82 78//78
f 77//77 81//81 82//82
f 78//78 82//82 83//83
f 78//78 83//83 84//84
f 73//73 85//85 79//79
f 73//73 80//80 85//85
f 85//85 86//86 79//79
f 85//85 87//87 86//86
f 85//85 80//80 87//87
f 86//86 87//87 88//88
f 78//78 84//84 80//80
f 80//80 89//89 87//87
f 87//87 89//89 88//88
f 80//80 84//84 89//89
f 88//88 89//89 90//90
f 75//75 74//74 91//91
f 75//75 92//92 76//76
f 76//76 93//93 81//81
f 74//74 79//79 94//94
f 79//79 86//86 95//95
f 86//86 88//88 96//96
f 88//88 90//90 97//97
f 75//75 91//91 98//98
f 76//76 92//92 93//93
f 74//74 94//94 91//91
f 81//81 93//93 99//99
f 79//79 95//95 94//94
f 86//86 96//96 100//100
f 88//88 97//97 96//96
f 82//82 81//81 101//101
f 82//82 102//102 83//83
f 82//82 101//101 102//102
f 102//102 101//101 103//103
f 83//83 102//102 104//104
f 102//102 103//103 104//104
f 83//83 104//104 84//84
f 103//103 105//105 104//104
f 84//84 104//104 89//89
f 89//89 106//106 90//90
f 89//89 104//104 106//106
f 104//104 105//105 106//106
f 81//81 99//99 101//101
f 101//101 107//107 103//103
f 103//103 108//108 105//105
f 90//90 106//106 109//109
f 106//106 105//105 110//110
f 101//101 99//99 111//111
f 103//103 107//107 108//108
f 105//105 108//108 110//110
f 90//90 109//109 97//97
f 106//106 110//110 112//112
f 113//113 114//114 115//115
f 116//116 117//117 118//118
f 113//113 116//116 114//114
f 114//114 116//116 118//118
f 114//114 118//118 119//119
f 114//114 119//119 120//120
f 114//114 121//121 115//115
f 114//114 120//120 121//121
f 115//115 121//121 122//122
f 121//121 123//123 122//122
f 121//121 120//120 123//123
f 122//122 123//123 124//124
f 113//113 125//125 116//116
f 116//116 126//126 117//117
f 113//113 115//115 127//127
f 115//115 122//122 128//128
f 122//122 124//124 129//129
f 113//113 127//127 125//125
f 117//117 126//126 130//130
f 116//116 125//125 131//131
f 115//115 128//128 127//127
f 122//122 129//129 132//132
f 118//118 117//117 133//133
f 118//118 134//134 119//119
f 118//118 133//133 134//134
f 119//119 134//134 135//135
f 119//119 135//135 136//136
f 134//134 133//133 137//137
f 134//134 138//138 135//135
f 134//134 137//137 138//138
f 138//138 137//137 139//139
f 135//135 138//138 140//140
f 138//138 139//139 141//141
f 119//119 136//136 120//120
f 120//120 142//142 123//123
f 123//123 142//142 124//124
f 120//120 136//136 142//142
f 124//124 142//142 143//143
f 135//135 140//140 136//136
f 138//138 141//141 140//140
f 136//136 140//140 142//142
f 142//142 140//140 144//144
f 142//142 144//144 143//143
f 140//140 141//141 144//144
f 117//117 130//130 133//133
f 133//133 145//145 137//137
f 137//137 146//146 139//139
f 139//139 147//147 141//141
f 124//124 143//143 148//148
f 143//143 144//144 149//149
f 141//141 150//150 144//144
f 133//133 130//130 145//145
f 137//137 145//145 151//151
f 139//139 146//146 147//147
f 124//124 148//148 129//129
f 141//141 147//147 150//150
f 143//143 149//149 148//148
f 144//144 150//150 152//152
f 153//153 154//154 155//155
f 153//153 155//155 156//156
f 154//154 157//157 158//158
f 155//155 154//154 158//158
f 157//157 159//159 158//158
f 157//157 160//160 159//159
f 160//160 161//161 162//162
f 160//160 162//162 159//159
f 163//163 164//164 165//165
f 164//164 166//166 167//167
f 166//166 168//168 169//169
f 170//170 171//171 172//172
f 163//163 173//173 170//170
f 172//172 174//174 175//175
f 175//175 176//176 177//177
f 177//177 178//178 179//179
f 168//168 180//180 181//181
f 180//180 179//179 182//182
f 163//163 165//165 173//173
f 164//164 167//167 165//165
f 166//166 169//169 167//167
f 170//170 173//173 171//171
f 172//172 171//171 174//174
f 175//175 174//174 176//176
f 177//177 176//176 178//178
f 168//168 181//181 169//169
f 180//180 182//182 181//181
f 179//179 178//178 182//182
f 183//183 184//184 185//185
f 183//183 186//186 184//184
f 185//185 187//187 188//188
f 184//184 187//187 185//185
f 188//188 187//187 189//189
f 188//188 189//189 190//190
f 190//190 191//191 192//192
f 190//190 189//189 191//191
f 193//193 194//194 195//195
f 193//193 196//196 194//194
f 196//196 197//197 194//194
f 196//196 198//198 197//197
f 197//197 198//198 199//199
f 200//200 201//201 202//202
f 202//202 203//203 204//204
f 200//200 205//205 206//206
f 205//205 207//207 208//208
f 207//207 209//209 210//210
f 209//209 211//211 212//212
f 200//200 206//206 201//201
f 202//202 201//201 203//203
f 205//205 208//208 206//206
f 207//207 210//210 208//208
f 209//209 213//213 210//210
f 209//209 214//214 213//213
f 209//209 212//212 214//214
f 211//211 215//215 212//212
f 211//211 216//216 215//215
f 217//217 218//218 219//219
f 217//217 220//220 218//218
f 219//219 218//218 221//221
f 219//219 221//221 222//222
f 217//217 223//223 224//224
f 217//217 225//225 220//220
f 217//217 224//224 225//225
f 224//224 226//226 225//225
f 198//198 227//227 199//199
f 227//227 228//228 199//199
f 227//227 229//229 228//228
f 229//229 230//230 231//231
f 229//229 231//231 228//228
f 204//204 232//232 233//233
f 233//233 234//234 235//235
f 211//211 236//236 216//216
f 235//235 237//237 238//238
f 236//236 239//239 240//240
f 238//238 241//241 239//239
f 204//204 203//203 232//232
f 233//233 232//232 234//234
f 236//236 242//242 216//216
f 236//236 240//240 242//242
f 239//239 243//243 240//240
f 235//235 234//234 237//237
f 238//238 237//237 241//241
f 239//239 244//244 243//243
f 239//239 241//241 244//244
f 222//222 221//221 245//245
f 245//245 221//221 246//246
f 245//245 246//246 247//247
f 245//245 247//247 248//248
f 248//248 247//247 249//249
f 248//248 249//249 250//250
f 248//248 250//250 251//251
f 250//250 249//249 252//252
f 253//253 254//254 255//255
f 253//253 256//256 254//254
f 256//256 257//257 254//254
f 253//253 258//258 256//256
f 259//259 255//255 260//260
f 253//253 255//255 259//259
f 259//259 260//260 261//261
f 253//253 259//259 262//262
f 253//253 262//262 258//258
f 258//258 262//262 263//263
f 259//259 264//264 262//262
f 262//262 264//264 263//263
f 265//265 261//261 266//266
f 259//259 261//261 267//267
f 268//268 269//269 270//270
f 268//268 266//266 269//269
f 271//271 270//270 272//272
f 265//265 267//267 261//261
f 259//259 267//267 273//273
f 265//265 266//266 268//268
f 268//268 270//270 271//271
f 259//259 273//273 264//264
f 263//263 264//264 274//274
f 265//265 275//275 267//267
f 265//265 276//276 275//275
f 267//267 275//275 273//273
f 273//273 275//275 277//277
f 265//265 268//268 276//276
f 275//275 276//276 278//278
f 268//268 271//271 279//279
f 268//268 279//279 276//276
f 276//276 279//279 280//280
f 276//276 280//280 278//278
f 280//280 281//281 278//278
f 275//275 278//278 277//277
f 273//273 277//277 264//264
f 264//264 282//282 274//274
f 277//277 283//283 282//282
f 264//264 277//277 282//282
f 278//278 283//283 277//277
f 278//278 281//281 283//283
f 256//256 284//284 257//257
f 256//256 285//285 284//284
f 256//256 258//258 285//285
f 285//285 286//286 284//284
f 258//258 263//263 287//287
f 258//258 287//287 285//285
f 285//285 287//287 288//288
f 285//285 288//288 286//286
f 288//288 289//289 286//286
f 263//263 274//274 287//287
f 287//287 290//290 288//288
f 288//288 290//290 289//289
f 291//291 272//272 292//292
f 293//293 292//292 294//294
f 295//295 296//296 297//297
f 293//293 294//294 296//296
f 290//290 297//297 289//289
f 271//271 272//272 291//291
f 291//291 292//292 293//293
f 274//274 298//298 287//287
f 287//287 298//298 290//290
f 293//293 296//296 295//295
f 295//295 297//297 290//290
f 271//271 291//291 279//279
f 279//279 291//291 299//299
f 279//279 299//299 280//280
f 291//291 293//293 299//299
f 299//299 300//300 301//301
f 280//280 301//301 281//281
f 280//280 299//299 301//301
f 274//274 282//282 298//298
f 282//282 283//283 302//302
f 282//282 302//302 298//298
f 301//301 300//300 302//302
f 298//298 302//302 290//290
f 283//283 281//281 301//301
f 283//283 301//301 302//302
f 293//293 295//295 300//300
f 293//293 300//300 299//299
f 295//295 290//290 300//300
f 290//290 302//302 300//300
f 303//303 304//304 305//305
f 306//306 307//307 304//304
f 306//306 303//303 308//308
f 306//306 304//304 303//303
f 308//308 303//303 309//309
f 303//303 310//310 311//311
f 303//303 311//311 312//312
f 303//303 312//312 313//313
f 303//303 305//305 310//310
f 306//306 314//314 307//307
f 306//306 308//308 315//315
f 306//306 315//315 314//314
f 315//315 316//316 314//314
f 308//308 317//317 315//315
f 315//315 318//318 316//316
f 304//304 319//319 305//305
f 304//304 307//307 320//320
f 304//304 320//320 319//319
f 320//320 321//321 319//319
f 305//305 322//322 310//310
f 305//305 323//323 322//322
f 305//305 319//319 323//323
f 319//319 324//324 323//323
f 319//319 325//325 324//324
f 319//319 326//326 325//325
f 319//319 321//321 326//326
f 307//307 314//314 320//320
f 320//320 314//314 327//327
f 314//314 316//316 327//327
f 320//320 327//327 321//321
f 316//316 328//328 327//327
f 321//321 327//327 329//329
f 309//309 313//313 330//330
f 308//308 309//309 331//331
f 303//303 313//313 309//309
f 309//309 330//330 332//332
f 309//309 333//333 331//331
f 309//309 332//332 333//333
f 308//308 331//331 317//317
f 315//315 317//317 318//318
f 316//316 318//318 334//334
f 326//326 335//335 325//325
f 326//326 336//336 335//335
f 321//321 337//337 326//326
f 326//326 338//338 336//336
f 326//326 337//337 338//338
f 337//337 339//339 338//338
f 316//316 334//334 328//328
f 321//321 329//329 337//337
f 327//327 328//328 329//329
f 331//331 333//333 340//340
f 341//341 342//342 343//343
f 340//340 333//333 341//341
f 331//331 344//344 317//317
f 317//317 344//344 318//318
f 318//318 345//345 334//334
f 346//346 347//347 348//348
f 348//348 339//339 349//349
f 337//337 350//350 339//339
f 346//346 351//351 347//347
f 334//334 352//352 328//328
f 337//337 329//329 353//353
f 329//329 328//328 353//353
f 354//354 355//355 356//356
f 357//357 358//358 359//359
f 343//343 342//342 359//359
f 357//357 354//354 360//360
f 355//355 351//351 346//346
f 354//354 356//356 360//360
f 357//357 360//360 358//358
f 361//361 356//356 355//355
f 348//348 362//362 346//346
f 355//355 346//346 361//361
f 359//359 358//358 363//363
f 341//341 343//343 364//364
f 359//359 363//363 343//343
f 331//331 340//340 344//344
f 318//318 344//344 345//345
f 334//334 345//345 352//352
f 348//348 349//349 362//362
f 349//349 339//339 365//365
f 350//350 365//365 339//339
f 328//328 352//352 366//366
f 337//337 353//353 350//350
f 328//328 366//366 353//353
f 340//340 341//341 364//364
f 367//367 368//368 369//369
f 340//340 364//364 368//368
f 367//367 340//340 368//368
f 367//367 369//369 370//370
f 367//367 371//371 340//340
f 367//367 370//370 372//372
f 340//340 371//371 344//344
f 344//344 373//373 345//345
f 345//345 374//374 352//352
f 375//375 376//376 377//377
f 375//375 377//377 365//365
f 375//375 365//365 350//350
f 375//375 378//378 376//376
f 375//375 379//379 378//378
f 375//375 350//350 380//380
f 352//352 374//374 366//366
f 350//350 353//353 380//380
f 353//353 366//366 381//381
f 367//367 382//382 371//371
f 382//382 383//383 384//384
f 367//367 372//372 382//382
f 382//382 372//372 383//383
f 382//382 384//384 385//385
f 382//382 385//385 386//386
f 371//371 382//382 387//387
f 382//382 386//386 387//387
f 387//387 386//386 388//388
f 344//344 371//371 373//373
f 345//345 373//373 374//374
f 371//371 387//387 373//373
f 387//387 389//389 373//373
f 387//387 388//388 389//389
f 373//373 389//389 374//374
f 385//385 384//384 390//390
f 385//385 390//390 391//391
f 385//385 391//391 392//392
f 392//392 391//391 393//393
f 375//375 392//392 379//379
f 392//392 393//393 379//379
f 375//375 380//380 392//392
f 385//385 392//392 386//386
f 392//392 394//394 386//386
f 386//386 394//394 388//388
f 392//392 380//380 394//394
f 366//366 374//374 381//381
f 353//353 381//381 380//380
f 394//394 381//381 389//389
f 388//388 394//394 389//389
f 374//374 389//389 381//381
f 380//380 381//381 394//394
f 395//395 312//312 311//311
f 395//395 313//313 312//312
f 395//395 311//311 310//310
f 395//395 310//310 322//322
f 396//396 330//330 313//313
f 397//397 322//322 323//323
f 398//398 323//323 324//324
f 398//398 324//324 325//325
f 398//398 325//325 335//335
f 398//398 335//335 336//336
f 395//395 322//322 397//397
f 395//395 396//396 313//313
f 398//398 397//397 323//323
f 396//396 399//399 330//330
f 399//399 400//400 333//333
f 398//398 336//336 401//401
f 401//401 338//338 402//402
f 402//402 348//348 403//403
f 400//400 404//404 405//405
f 404//404 406//406 407//407
f 403//403 408//408 409//409
f 406//406 409//409 410//410
f 399//399 332//332 330//330
f 399//399 333//333 332//332
f 400//400 341//341 333//333
f 400//400 411//411 341//341
f 401//401 336//336 338//338
f 402//402 338//338 339//339
f 402//402 339//339 348//348
f 403//403 348//348 412//412
f 404//404 413//413 405//405
f 400//400 405//405 411//411
f 409//409 408//408 410//410
f 403//403 412//412 408//408
f 404//404 407//407 413//413
f 406//406 410//410 407//407
f 395//395 397//397 414//414
f 395//395 414//414 396//396
f 396//396 414//414 415//415
f 414//414 397//397 416//416
f 416//416 397//397 417//417
f 398//398 417//417 397//397
f 398//398 401//401 417//417
f 414//414 416//416 418//418
f 416//416 417//417 418//418
f 417//417 401//401 419//419
f 396//396 415//415 420//420
f 414//414 418//418 415//415
f 415//415 418//418 421//421
f 415//415 421//421 422//422
f 417//417 419//419 418//418
f 418//418 419//419 421//421
f 401//401 423//423 419//419
f 419//419 424//424 421//421
f 396//396 420//420 399//399
f 399//399 420//420 400//400
f 401//401 402//402 423//423
f 402//402 403//403 423//423
f 420//420 415//415 422//422
f 420//420 422//422 404//404
f 420//420 404//404 400//400
f 404//404 425//425 406//406
f 422//422 425//425 404//404
f 406//406 425//425 409//409
f 419//419 423//423 424//424
f 423//423 409//409 424//424
f 423//423 403//403 409//409
f 422//422 421//421 426//426
f 422//422 426//426 425//425
f 421//421 424//424 426//426
f 426//426 424//424 425//425
f 424//424 409//409 425//425
f 427//427 428//428 429//429
f 429//429 428//428 430//430
f 431//431 429//429 432//432
f 429//429 430//430 433//433
f 428//428 434//434 435//435
f 428//428 435//435 430//430
f 430//430 435//435 436//436
f 435//435 437//437 438//438
f 429//429 433//433 432//432
f 432//432 433//433 439//439
f 433//433 440//440 439//439
f 430//430 441//441 433//433
f 430//430 436//436 441//441
f 435//435 438//438 436//436
f 433//433 441//441 440//440
f 441//441 436//436 440//440
f 436//436 442//442 440//440
f 436//436 438//438 442//442
f 427//427 443//443 444//444
f 427//427 429//429 431//431
f 427//427 431//431 443//443
f 443//443 445//445 444//444
f 431//431 446//446 443//443
f 427//427 447//447 428//428
f 427//427 444//444 447//447
f 428//428 447//447 434//434
f 447//447 444//444 434//434
f 434//434 444//444 448//448
f 444//444 445//445 448//448
f 434//434 437//437 435//435
f 434//434 448//448 437//437
f 437//437 448//448 449//449
f 431//431 432//432 450//450
f 431//431 450//450 446//446
f 437//437 451//451 438//438
f 437//437 449//449 451//451
f 443//443 452//452 445//445
f 443//443 446//446 453//453
f 445//445 454//454 448//448
f 448//448 455//455 449//449
f 432//432 368//368 450//450
f 450//450 364//364 446//446
f 432//432 439//439 369//369
f 451//451 449//449 456//456
f 438//438 451//451 376//376
f 438//438 376//376 442//442
f 440//440 390//390 439//439
f 440//440 442//442 390//390
f 445//445 452//452 454//454
f 448//448 454//454 457//457
f 443//443 453//453 452//452
f 446//446 458//458 453//453
f 448//448 457//457 455//455
f 449//449 455//455 456//456
f 432//432 369//369 368//368
f 446//446 343//343 458//458
f 446//446 364//364 343//343
f 450//450 368//368 364//364
f 451//451 456//456 349//349
f 451//451 349//349 365//365
f 451//451 365//365 377//377
f 451//451 377//377 376//376
f 439//439 370//370 369//369
f 439//439 372//372 370//370
f 439//439 383//383 372//372
f 439//439 384//384 383//383
f 439//439 390//390 384//384
f 442//442 376//376 378//378
f 442//442 391//391 390//390
f 442//442 378//378 379//379
f 442//442 393//393 391//391
f 442//442 379//379 393//393
