v -0.33750 0.36286 0.36750
v -0.33750 0.35750 0.38750
v -0.35750 0.36286 0.38750
v -0.33750 0.36286 0.40750
v -0.36059 0.37441 0.36441
v -0.33750 0.37750 0.35286
v -0.37214 0.37750 0.38750
v -0.36059 0.37441 0.41059
v -0.33750 0.37750 0.42214
v -0.22500 0.36286 0.36750
v -0.22500 0.36286 0.40750
v -0.22500 0.37750 0.42214
v -0.37214 0.39750 0.36750
v -0.35750 0.39750 0.35286
v -0.37214 0.39750 0.40750
v -0.35750 0.39750 0.42214
v -0.33750 0.39750 0.34750
v -0.37750 0.39750 0.38750
v -0.33750 0.39750 0.42750
v -0.22500 0.37750 0.35286
v -0.22500 0.39750 0.42750
v -0.22500 0.35750 0.38750
v -0.20500 0.36286 0.38750
v -0.20191 0.37441 0.36441
v -0.20191 0.37441 0.41059
v -0.19036 0.37750 0.38750
v -0.22500 0.39750 0.34750
v -0.20500 0.39750 0.35286
v -0.19036 0.39750 0.36750
v -0.19036 0.39750 0.40750
v -0.20500 0.39750 0.42214
v -0.36059 0.42059 0.36441
v -0.33750 0.41750 0.35286
v -0.37214 0.41750 0.38750
v -0.36059 0.42059 0.41059
v -0.33750 0.41750 0.42214
v -0.33750 0.43214 0.36750
v -0.35750 0.43214 0.38750
v -0.33750 0.43214 0.40750
v -0.33750 0.43750 0.38750
v -0.22500 0.41750 0.35286
v -0.22500 0.41750 0.42214
v -0.22500 0.43214 0.40750
v -0.22500 0.43750 0.38750
v -0.20191 0.42059 0.36441
v -0.20191 0.42059 0.41059
v -0.19036 0.41750 0.38750
v -0.22500 0.43214 0.36750
v -0.20500 0.43214 0.38750
v -0.18500 0.39750 0.38750
v 0.19036 0.37750 0.38750
v 0.18500 0.39750 0.38750
v 0.19036 0.39750 0.36750
v 0.19036 0.39750 0.40750
v 0.19036 0.41750 0.38750
v 0.20500 0.36286 0.38750
v 0.22500 0.36286 0.36750
v 0.22500 0.35750 0.38750
v 0.22500 0.36286 0.40750
v 0.20191 0.37441 0.36441
v 0.22500 0.37750 0.35286
v 0.20191 0.37441 0.41059
v 0.22500 0.37750 0.42214
v 0.33750 0.35750 0.38750
v 0.33750 0.37750 0.35286
v 0.33750 0.36286 0.40750
v 0.20500 0.39750 0.35286
v 0.20500 0.39750 0.42214
v 0.22500 0.39750 0.34750
v 0.22500 0.39750 0.42750
v 0.33750 0.37750 0.42214
v 0.33750 0.36286 0.36750
v 0.35750 0.36286 0.38750
v 0.36059 0.37441 0.36441
v 0.36059 0.37441 0.41059
v 0.37214 0.37750 0.38750
v 0.33750 0.39750 0.34750
v 0.33750 0.39750 0.42750
v 0.35750 0.39750 0.35286
v 0.37214 0.39750 0.36750
v 0.35750 0.39750 0.42214
v 0.37214 0.39750 0.40750
v 0.37750 0.39750 0.38750
v 0.20191 0.42059 0.36441
v 0.22500 0.41750 0.35286
v 0.20191 0.42059 0.41059
v 0.22500 0.41750 0.42214
v 0.33750 0.41750 0.35286
v 0.33750 0.41750 0.42214
v 0.22500 0.43214 0.36750
v 0.20500 0.43214 0.38750
v 0.22500 0.43214 0.40750
v 0.22500 0.43750 0.38750
v 0.33750 0.43214 0.36750
v 0.33750 0.43214 0.40750
v 0.36059 0.42059 0.36441
v 0.37214 0.41750 0.38750
v 0.36059 0.42059 0.41059
v 0.33750 0.43750 0.38750
v 0.35750 0.43214 0.38750
v -0.03117 0.28341 -0.37750
v -0.01113 0.27375 -0.37750
v -0.03117 0.28341 -0.33750
v 0.01113 0.27375 -0.37750
v -0.01113 0.27375 -0.33750
v -0.04505 0.30081 -0.33750
v -0.04505 0.30081 -0.37750
v -0.03117 0.28341 -0.37750
v -0.04505 0.30081 -0.37750
v -0.04505 0.34419 -0.37750
v -0.01113 0.27375 -0.37750
v -0.03117 0.36159 -0.37750
v -0.05000 0.32250 -0.33750
v -0.03117 0.28341 -0.33750
v -0.04505 0.34419 -0.33750
v -0.04505 0.30081 -0.33750
v -0.01113 0.27375 -0.33750
v -0.03117 0.36159 -0.33750
v 0.01113 0.27375 -0.37750
v -0.01113 0.37125 -0.37750
v 0.01113 0.27375 -0.33750
v -0.01113 0.37125 -0.33750
v -0.05000 0.32250 -0.37750
v -0.04505 0.34419 -0.33750
v -0.05000 0.32250 -0.37750
v -0.05000 0.32250 -0.33750
v -0.04505 0.34419 -0.37750
v -0.03117 0.36159 -0.33750
v -0.03117 0.36159 -0.37750
v -0.01113 0.37125 -0.33750
v -0.01113 0.37125 -0.37750
v 0.01113 0.37125 -0.33750
v 0.03117 0.28341 -0.37750
v 0.01113 0.27375 -0.33750
v 0.03117 0.28341 -0.33750
v 0.04505 0.30081 -0.37750
v 0.04505 0.30081 -0.33750
v 0.03117 0.28341 -0.37750
v 0.01113 0.37125 -0.37750
v 0.03117 0.28341 -0.33750
v 0.01113 0.37125 -0.33750
v 0.05000 0.32250 -0.37750
v 0.04505 0.30081 -0.37750
v 0.03117 0.36159 -0.37750
v 0.04505 0.30081 -0.33750
v 0.03117 0.36159 -0.33750
v 0.05000 0.32250 -0.37750
v 0.04505 0.34419 -0.37750
v 0.05000 0.32250 -0.33750
v 0.04505 0.34419 -0.33750
v 0.05000 0.32250 -0.33750
v 0.04505 0.34419 -0.37750
v 0.04505 0.34419 -0.33750
v 0.03117 0.36159 -0.37750
v 0.03117 0.36159 -0.33750
v 0.01113 0.37125 -0.37750
vn -0.1480 -0.8577 -0.4924
vn -0.1278 -0.9918 -0.0000
vn -0.4956 -0.8685 0.0000
vn -0.1480 -0.8577 0.4924
vn -0.5774 -0.5774 -0.5774
vn -0.1480 -0.4924 -0.8577
vn -0.8685 -0.4956 0.0000
vn -0.5774 -0.5774 0.5774
vn -0.1480 -0.4924 0.8577
vn 0.1480 -0.8577 -0.4924
vn 0.1480 -0.8577 0.4924
vn 0.1480 -0.4924 0.8577
vn -0.8685 0.0000 -0.4956
vn -0.4956 0.0000 -0.8685
vn -0.8685 0.0000 0.4956
vn -0.4956 0.0000 0.8685
vn -0.1278 -0.0000 -0.9918
vn -1.0000 0.0000 0.0000
vn -0.1278 -0.0000 0.9918
vn 0.1480 -0.4924 -0.8577
vn 0.1278 0.0000 0.9918
vn 0.1278 -0.9918 0.0000
vn 0.4956 -0.8685 -0.0000
vn 0.5774 -0.5774 -0.5774
vn 0.5774 -0.5774 0.5774
vn 0.8685 -0.4956 0.0000
vn 0.1278 0.0000 -0.9918
vn 0.4956 -0.0000 -0.8685
vn 0.8685 -0.0000 -0.4956
vn 0.8685 0.0000 0.4956
vn 0.4956 0.0000 0.8685
vn -0.5774 0.5774 -0.5774
vn -0.1480 0.4924 -0.8577
vn -0.8685 0.4956 -0.0000
vn -0.5774 0.5774 0.5774
vn -0.1480 0.4924 0.8577
vn -0.1480 0.8577 -0.4924
vn -0.4956 0.8685 -0.0000
vn -0.1480 0.8577 0.4924
vn -0.1278 0.9918 0.0000
vn 0.1480 0.4924 -0.8577
vn 0.1480 0.4924 0.8577
vn 0.1480 0.8577 0.4924
vn 0.1278 0.9918 -0.0000
vn 0.5774 0.5774 -0.5774
vn 0.5774 0.5774 0.5774
vn 0.8685 0.4956 0.0000
vn 0.1480 0.8577 -0.4924
vn 0.4956 0.8685 -0.0000
vn 1.0000 0.0000 0.0000
vn -0.8685 -0.4956 0.0000
vn -1.0000 0.0000 0.0000
vn -0.8685 -0.0000 -0.4956
vn -0.8685 -0.0000 0.4956
vn -0.8685 0.4956 -0.0000
vn -0.4956 -0.8685 0.0000
vn -0.1480 -0.8577 -0.4924
vn -0.1278 -0.9918 0.0000
vn -0.1480 -0.8577 0.4924
vn -0.5774 -0.5774 -0.5774
vn -0.1480 -0.4924 -0.8577
vn -0.5774 -0.5774 0.5774
vn -0.1480 -0.4924 0.8577
vn 0.1278 -0.9918 0.0000
vn 0.1480 -0.4924 -0.8577
vn 0.1480 -0.8577 0.4924
vn -0.4956 0.0000 -0.8685
vn -0.4956 0.0000 0.8685
vn -0.1278 0.0000 -0.9918
vn -0.1278 -0.0000 0.9918
vn 0.1480 -0.4924 0.8577
vn 0.1480 -0.8577 -0.4924
vn 0.4956 -0.8685 0.0000
vn 0.5774 -0.5774 -0.5774
vn 0.5774 -0.5774 0.5774
vn 0.8685 -0.4956 -0.0000
vn 0.1278 0.0000 -0.9918
vn 0.1278 0.0000 0.9918
vn 0.4956 -0.0000 -0.8685
vn 0.8685 0.0000 -0.4956
vn 0.4956 -0.0000 0.8685
vn 0.8685 0.0000 0.4956
vn 1.0000 0.0000 0.0000
vn -0.5774 0.5774 -0.5774
vn -0.1480 0.4924 -0.8577
vn -0.5774 0.5774 0.5774
vn -0.1480 0.4924 0.8577
vn 0.1480 0.4924 -0.8577
vn 0.1480 0.4924 0.8577
vn -0.1480 0.8577 -0.4924
vn -0.4956 0.8685 0.0000
vn -0.1480 0.8577 0.4924
vn -0.1278 0.9918 0.0000
vn 0.1480 0.8577 -0.4924
vn 0.1480 0.8577 0.4924
vn 0.5774 0.5774 -0.5774
vn 0.8685 0.4956 -0.0000
vn 0.5774 0.5774 0.5774
vn 0.1278 0.9918 0.0000
vn 0.4956 0.8685 0.0000
vn -0.6235 -0.7818 -0.0000
vn -0.2225 -0.9749 0.0000
vn -0.6235 -0.7818 0.0000
vn 0.2225 -0.9749 0.0000
vn -0.2225 -0.9749 0.0000
vn -0.9010 -0.4339 -0.0000
vn -0.9010 -0.4339 0.0000
vn 0.0000 0.0000 -1.0000
vn 0.0000 0.0000 -1.0000
vn 0.0000 0.0000 -1.0000
vn 0.0000 0.0000 -1.0000
vn 0.0000 0.0000 -1.0000
vn -1.0000 0.0000 0.0000
vn 0.0000 0.0000 1.0000
vn 0.0000 0.0000 1.0000
vn 0.0000 0.0000 1.0000
vn 0.0000 0.0000 1.0000
vn 0.0000 0.0000 1.0000
vn 0.0000 0.0000 -1.0000
vn 0.0000 0.0000 -1.0000
vn 0.0000 0.0000 1.0000
vn 0.0000 0.0000 1.0000
vn -1.0000 0.0000 0.0000
vn -0.9010 0.4339 0.0000
vn 0.0000 0.0000 -1.0000
vn 0.0000 0.0000 1.0000
vn -0.9010 0.4339 -0.0000
vn -0.6235 0.7818 -0.0000
vn -0.6235 0.7818 0.0000
vn -0.2225 0.9749 0.0000
vn -0.2225 0.9749 0.0000
vn 0.2225 0.9749 0.0000
vn 0.6235 -0.7818 -0.0000
vn 0.2225 -0.9749 -0.0000
vn 0.6235 -0.7818 0.0000
vn 0.9010 -0.4339 0.0000
vn 0.9010 -0.4339 0.0000
vn 0.0000 0.0000 -1.0000
vn 0.0000 0.0000 -1.0000
vn 0.0000 0.0000 1.0000
vn 0.0000 0.0000 1.0000
vn 1.0000 0.0000 0.0000
vn 0.0000 0.0000 -1.0000
vn 0.0000 0.0000 -1.0000
vn 0.0000 0.0000 1.0000
vn 0.0000 0.0000 1.0000
vn 0.0000 0.0000 -1.0000
vn 0.0000 0.0000 -1.0000
vn 0.0000 0.0000 1.0000
vn 0.0000 0.0000 1.0000
vn 1.0000 -0.0000 0.0000
vn 0.9010 0.4339 0.0000
vn 0.9010 0.4339 -0.0000
vn 0.6235 0.7818 -0.0000
vn 0.6235 0.7818 0.0000
vn 0.2225 0.9749 0.0000
f 1//1 2//2 3//3
f 4//4 3//3 2//2
f 1//1 3//3 5//5
f 6//6 1//1 5//5
f 5//5 3//3 7//7
f 3//3 8//8 7//7
f 8//8 3//3 4//4
f 9//9 8//8 4//4
f 10//10 2//2 1//1
f 2//2 11//11 4//4
f 6//6 10//10 1//1
f 12//12 9//9 4//4
f 5//5 7//7 13//13
f 14//14 6//6 5//5
f 15//15 7//7 8//8
f 8//8 9//9 16//16
f 14//14 5//5 13//13
f 17//17 6//6 14//14
f 13//13 7//7 18//18
f 15//15 18//18 7//7
f 15//15 8//8 16//16
f 19//19 16//16 9//9
f 6//6 17//17 20//20
f 9//9 21//21 19//19
f 2//2 10//10 22//22
f 11//11 2//2 22//22
f 10//10 6//6 20//20
f 4//4 11//11 12//12
f 10//10 23//23 22//22
f 22//22 23//23 11//11
f 20//20 24//24 10//10
f 10//10 24//24 23//23
f 11//11 25//25 12//12
f 11//11 23//23 25//25
f 24//24 26//26 23//23
f 23//23 26//26 25//25
f 9//9 12//12 21//21
f 20//20 17//17 27//27
f 24//24 20//20 28//28
f 24//24 29//29 26//26
f 26//26 30//30 25//25
f 12//12 25//25 31//31
f 28//28 20//20 27//27
f 24//24 28//28 29//29
f 21//21 12//12 31//31
f 25//25 30//30 31//31
f 32//32 14//14 13//13
f 17//17 14//14 33//33
f 13//13 18//18 34//34
f 18//18 15//15 34//34
f 35//35 15//15 16//16
f 36//36 16//16 19//19
f 34//34 32//32 13//13
f 14//14 32//32 33//33
f 15//15 35//35 34//34
f 36//36 35//35 16//16
f 17//17 33//33 27//27
f 21//21 36//36 19//19
f 32//32 37//37 33//33
f 32//32 34//34 38//38
f 38//38 34//34 35//35
f 35//35 36//36 39//39
f 37//37 32//32 38//38
f 38//38 35//35 39//39
f 40//40 37//37 38//38
f 40//40 38//38 39//39
f 33//33 37//37 41//41
f 36//36 42//42 39//39
f 43//43 40//40 39//39
f 37//37 40//40 44//44
f 33//33 41//41 27//27
f 42//42 36//36 21//21
f 41//41 28//28 27//27
f 45//45 29//29 28//28
f 31//31 42//42 21//21
f 46//46 31//31 30//30
f 41//41 45//45 28//28
f 47//47 29//29 45//45
f 46//46 30//30 47//47
f 42//42 31//31 46//46
f 48//48 41//41 37//37
f 42//42 43//43 39//39
f 48//48 37//37 44//44
f 40//40 43//43 44//44
f 41//41 48//48 45//45
f 42//42 46//46 43//43
f 45//45 49//49 47//47
f 49//49 46//46 47//47
f 48//48 49//49 45//45
f 49//49 48//48 44//44
f 44//44 43//43 49//49
f 46//46 49//49 43//43
f 26//26 29//29 50//50
f 50//50 30//30 26//26
f 29//29 47//47 50//50
f 47//47 30//30 50//50
f 51//51 52//52 53//53
f 52//52 51//51 54//54
f 52//52 55//55 53//53
f 54//54 55//55 52//52
f 56//56 57//57 58//58
f 59//59 56//56 58//58
f 57//57 56//56 60//60
f 57//57 60//60 61//61
f 56//56 59//59 62//62
f 56//56 51//51 60//60
f 56//56 62//62 51//51
f 62//62 59//59 63//63
f 57//57 64//64 58//58
f 58//58 64//64 59//59
f 65//65 57//57 61//61
f 63//63 59//59 66//66
f 51//51 53//53 60//60
f 61//61 60//60 67//67
f 51//51 62//62 54//54
f 62//62 63//63 68//68
f 60//60 53//53 67//67
f 61//61 67//67 69//69
f 54//54 62//62 68//68
f 63//63 70//70 68//68
f 69//69 65//65 61//61
f 63//63 71//71 70//70
f 64//64 57//57 72//72
f 59//59 64//64 66//66
f 57//57 65//65 72//72
f 71//71 63//63 66//66
f 72//72 73//73 64//64
f 66//66 64//64 73//73
f 74//74 73//73 72//72
f 65//65 74//74 72//72
f 75//75 66//66 73//73
f 71//71 66//66 75//75
f 74//74 76//76 73//73
f 73//73 76//76 75//75
f 77//77 65//65 69//69
f 70//70 71//71 78//78
f 79//79 74//74 65//65
f 76//76 74//74 80//80
f 81//81 71//71 75//75
f 75//75 76//76 82//82
f 65//65 77//77 79//79
f 74//74 79//79 80//80
f 71//71 81//81 78//78
f 83//83 76//76 80//80
f 82//82 76//76 83//83
f 81//81 75//75 82//82
f 67//67 53//53 84//84
f 67//67 85//85 69//69
f 54//54 68//68 86//86
f 70//70 87//87 68//68
f 53//53 55//55 84//84
f 85//85 67//67 84//84
f 86//86 55//55 54//54
f 87//87 86//86 68//68
f 69//69 85//85 88//88
f 87//87 70//70 89//89
f 90//90 85//85 84//84
f 84//84 55//55 91//91
f 55//55 86//86 91//91
f 86//86 87//87 92//92
f 84//84 91//91 90//90
f 86//86 92//92 91//91
f 91//91 93//93 90//90
f 93//93 91//91 92//92
f 90//90 94//94 85//85
f 89//89 92//92 87//87
f 90//90 93//93 94//94
f 95//95 93//93 92//92
f 69//69 88//88 77//77
f 78//78 89//89 70//70
f 77//77 88//88 79//79
f 96//96 80//80 79//79
f 81//81 89//89 78//78
f 80//80 97//97 83//83
f 97//97 82//82 83//83
f 98//98 81//81 82//82
f 88//88 96//96 79//79
f 97//97 80//80 96//96
f 89//89 81//81 98//98
f 98//98 82//82 97//97
f 88//88 85//85 94//94
f 89//89 95//95 92//92
f 99//99 94//94 93//93
f 93//93 95//95 99//99
f 94//94 96//96 88//88
f 95//95 89//89 98//98
f 96//96 100//100 97//97
f 100//100 98//98 97//97
f 100//100 96//96 94//94
f 100//100 95//95 98//98
f 100//100 94//94 99//99
f 95//95 100//100 99//99
f 101//101 102//102 103//103
f 102//102 104//104 105//105
f 102//102 105//105 103//103
f 101//101 103//103 106//106
f 107//107 101//101 106//106
f 108//108 109//109 110//110
f 111//111 108//108 112//112
f 107//107 106//106 113//113
f 114//114 115//115 116//116
f 117//117 118//118 114//114
f 119//119 111//111 120//120
f 121//121 122//122 117//117
f 123//123 107//107 113//113
f 123//123 113//113 124//124
f 109//109 125//125 110//110
f 116//116 115//115 126//126
f 108//108 110//110 112//112
f 114//114 118//118 115//115
f 127//127 123//123 124//124
f 111//111 112//112 120//120
f 117//117 122//122 118//118
f 127//127 124//124 128//128
f 129//129 127//127 128//128
f 129//129 128//128 130//130
f 131//131 129//129 130//130
f 131//131 130//130 132//132
f 104//104 133//133 134//134
f 104//104 134//134 105//105
f 133//133 135//135 134//134
f 133//133 136//136 135//135
f 136//136 137//137 135//135
f 138//138 119//119 139//139
f 140//140 141//141 121//121
f 136//136 142//142 137//137
f 143//143 138//138 144//144
f 145//145 146//146 140//140
f 147//147 143//143 148//148
f 149//149 150//150 145//145
f 142//142 151//151 137//137
f 142//142 152//152 151//151
f 119//119 120//120 139//139
f 121//121 141//141 122//122
f 138//138 139//139 144//144
f 143//143 144//144 148//148
f 140//140 146//146 141//141
f 152//152 153//153 151//151
f 145//145 150//150 146//146
f 152//152 154//154 153//153
f 154//154 155//155 153//153
f 154//154 156//156 155//155
f 156//156 132//132 155//155
f 156//156 131//131 132//132
