v -0.04243 -0.12993 -0.14250
v -0.04243 -0.12993 -0.11250
v -0.05543 -0.11046 -0.11250
v -0.06000 -0.08750 -0.14250
v -0.05543 -0.11046 -0.14250
v -0.06000 -0.08750 -0.11250
v -0.04243 -0.12993 -0.14250
v -0.05543 -0.11046 -0.14250
v -0.05543 -0.06454 -0.14250
v -0.04243 -0.12993 -0.11250
v -0.05543 -0.06454 -0.11250
v -0.05543 -0.11046 -0.11250
v -0.06000 -0.08750 -0.14250
v -0.05543 -0.06454 -0.11250
v -0.05543 -0.06454 -0.14250
v -0.04243 -0.04507 -0.14250
v -0.06000 -0.08750 -0.11250
v -0.04243 -0.04507 -0.11250
v -0.04243 -0.04507 -0.14250
v -0.04243 -0.04507 -0.11250
v -0.02296 -0.14293 -0.14250
v -0.02296 -0.14293 -0.11250
v -0.02296 -0.14293 -0.14250
v -0.02296 -0.14293 -0.11250
v 0.00000 -0.14750 -0.14250
v 0.00000 -0.14750 -0.11250
v 0.00000 -0.14750 -0.14250
v -0.02296 -0.03207 -0.14250
v 0.00000 -0.14750 -0.11250
v -0.02296 -0.03207 -0.11250
v -0.02296 -0.03207 -0.11250
v -0.02296 -0.03207 -0.14250
v 0.00000 -0.02750 -0.14250
v 0.00000 -0.02750 -0.11250
v 0.00000 -0.02750 -0.11250
v 0.00000 -0.02750 -0.14250
v 0.02296 -0.14293 -0.14250
v 0.02296 -0.14293 -0.11250
v 0.02296 -0.14293 -0.14250
v 0.02296 -0.14293 -0.11250
v 0.04243 -0.12993 -0.14250
v 0.04243 -0.12993 -0.11250
v 0.04243 -0.12993 -0.14250
v 0.02296 -0.03207 -0.14250
v 0.04243 -0.12993 -0.11250
v 0.02296 -0.03207 -0.11250
v 0.04243 -0.04507 -0.14250
v 0.04243 -0.04507 -0.11250
v 0.02296 -0.03207 -0.14250
v 0.02296 -0.03207 -0.11250
v 0.04243 -0.04507 -0.11250
v 0.04243 -0.04507 -0.14250
v 0.05543 -0.11046 -0.14250
v 0.05543 -0.11046 -0.11250
v 0.05543 -0.11046 -0.14250
v 0.06000 -0.08750 -0.14250
v 0.06000 -0.08750 -0.11250
v 0.05543 -0.11046 -0.11250
v 0.05543 -0.06454 -0.14250
v 0.06000 -0.08750 -0.14250
v 0.05543 -0.06454 -0.14250
v 0.05543 -0.06454 -0.11250
v 0.05543 -0.06454 -0.11250
v 0.06000 -0.08750 -0.11250
v 0.17500 0.13750 0.02500
v -0.17500 0.13750 0.02500
v -0.17500 0.13750 -0.02500
v -0.17500 0.31250 0.20000
v -0.17500 0.13750 -0.02500
v -0.17500 0.13750 0.02500
v -0.17500 0.31250 0.17500
v 0.17500 0.13750 -0.02500
v -0.17500 0.13750 -0.02500
v -0.17500 0.31250 0.17500
v 0.17500 0.31250 0.20000
v -0.17500 0.31250 0.20000
v -0.17500 0.13750 0.02500
v 0.17500 0.31250 0.17500
v -0.17500 0.31250 0.17500
v -0.17500 0.31250 0.20000
v 0.17500 0.13750 -0.02500
v 0.17500 0.13750 0.02500
v 0.17500 0.31250 0.17500
v 0.17500 0.31250 0.20000
v 0.17500 0.31250 0.20000
v 0.17500 0.13750 0.02500
v 0.17500 0.13750 -0.02500
v 0.17500 0.31250 0.17500
vn -0.7071 -0.7071 0.0000
vn -0.7071 -0.7071 0.0000
vn -0.9239 -0.3827 0.0000
vn -1.0000 0.0000 0.0000
vn -0.9239 -0.3827 -0.0000
vn -1.0000 0.0000 -0.0000
vn 0.0000 0.0000 -1.0000
vn 0.0000 0.0000 -1.0000
vn 0.0000 0.0000 -1.0000
vn 0.0000 0.0000 1.0000
vn 0.0000 0.0000 1.0000
vn 0.0000 0.0000 1.0000
vn 0.0000 0.0000 -1.0000
vn -0.9239 0.3827 0.0000
vn -0.9239 0.3827 0.0000
vn 0.0000 0.0000 -1.0000
vn 0.0000 0.0000 1.0000
vn 0.0000 0.0000 1.0000
vn -0.7071 0.7071 -0.0000
vn -0.7071 0.7071 0.0000
vn -0.3827 -0.9239 0.0000
vn -0.3827 -0.9239 0.0000
vn 0.0000 0.0000 -1.0000
vn 0.0000 0.0000 1.0000
vn 0.0000 -1.0000 0.0000
vn 0.0000 -1.0000 0.0000
vn 0.0000 0.0000 -1.0000
vn 0.0000 0.0000 -1.0000
vn 0.0000 0.0000 1.0000
vn 0.0000 0.0000 1.0000
vn -0.3827 0.9239 -0.0000
vn -0.3827 0.9239 -0.0000
vn 0.0000 0.0000 -1.0000
vn 0.0000 0.0000 1.0000
vn 0.0000 1.0000 -0.0000
vn 0.0000 1.0000 0.0000
vn 0.3827 -0.9239 0.0000
vn 0.3827 -0.9239 0.0000
vn 0.0000 0.0000 -1.0000
vn 0.0000 0.0000 1.0000
vn 0.7071 -0.7071 0.0000
vn 0.7071 -0.7071 -0.0000
vn 0.0000 0.0000 -1.0000
vn 0.0000 0.0000 -1.0000
vn 0.0000 0.0000 1.0000
vn 0.0000 0.0000 1.0000
vn 0.0000 0.0000 -1.0000
vn 0.0000 0.0000 1.0000
vn 0.3827 0.9239 -0.0000
vn 0.3827 0.9239 0.0000
vn 0.7071 0.7071 -0.0000
vn 0.7071 0.7071 0.0000
vn 0.9239 -0.3827 -0.0000
vn 0.9239 -0.3827 0.0000
vn 0.0000 0.0000 -1.0000
vn 1.0000 0.0000 0.0000
vn 1.0000 0.0000 -0.0000
vn 0.0000 0.0000 1.0000
vn 0.0000 0.0000 -1.0000
vn 0.0000 0.0000 -1.0000
vn 0.9239 0.3827 -0.0000
vn 0.9239 0.3827 0.0000
vn 0.0000 0.0000 1.0000
vn 0.0000 0.0000 1.0000
vn 0.0000 -1.0000 0.0000
vn 0.0000 -1.0000 0.0000
vn 0.0000 -1.0000 0.0000
vn -1.0000 0.0000 0.0000
vn -1.0000 0.0000 0.0000
vn -1.0000 0.0000 0.0000
vn -1.0000 0.0000 0.0000
vn 0.0000 0.7526 -0.6585
vn 0.0000 0.7526 -0.6585
vn 0.0000 0.7526 -0.6585
vn 0.0000 -0.7071 0.7071
vn 0.0000 -0.7071 0.7071
vn 0.0000 -0.7071 0.7071
vn 0.0000 1.0000 0.0000
vn 0.0000 1.0000 0.0000
vn 0.0000 1.0000 0.0000
vn 0.0000 -1.0000 0.0000
vn 0.0000 -0.7071 0.7071
vn 0.0000 0.7526 -0.6585
vn 0.0000 1.0000 0.0000
vn 1.0000 0.0000 0.0000
vn 1.0000 0.0000 0.0000
vn 1.0000 0.0000 0.0000
vn 1.0000 0.0000 0.0000
f 1//1 2//2 3//3
f 4//4 5//5 6//6
f 5//5 3//3 6//6
f 5//5 1//1 3//3
f 7//7 8//8 9//9
f 10//10 11//11 12//12
f 8//8 13//13 9//9
f 4//4 6//6 14//14
f 15//15 4//4 14//14
f 7//7 9//9 16//16
f 12//12 11//11 17//17
f 10//10 18//18 11//11
f 19//19 15//15 20//20
f 15//15 14//14 20//20
f 1//1 21//21 2//2
f 21//21 22//22 2//2
f 23//23 7//7 16//16
f 24//24 18//18 10//10
f 21//21 25//25 22//22
f 25//25 26//26 22//22
f 27//27 23//23 28//28
f 29//29 30//30 24//24
f 23//23 16//16 28//28
f 24//24 30//30 18//18
f 19//19 20//20 31//31
f 32//32 19//19 31//31
f 27//27 28//28 33//33
f 29//29 34//34 30//30
f 32//32 31//31 35//35
f 36//36 32//32 35//35
f 25//25 37//37 26//26
f 37//37 38//38 26//26
f 39//39 27//27 33//33
f 40//40 34//34 29//29
f 37//37 41//41 38//38
f 41//41 42//42 38//38
f 43//43 39//39 44//44
f 45//45 46//46 40//40
f 39//39 33//33 44//44
f 40//40 46//46 34//34
f 43//43 44//44 47//47
f 45//45 48//48 46//46
f 49//49 50//50 51//51
f 52//52 49//49 51//51
f 41//41 53//53 42//42
f 53//53 54//54 42//42
f 55//55 43//43 47//47
f 53//53 56//56 54//54
f 56//56 57//57 54//54
f 58//58 48//48 45//45
f 55//55 47//47 59//59
f 60//60 55//55 59//59
f 56//56 61//61 57//57
f 61//61 62//62 57//57
f 58//58 63//63 48//48
f 64//64 63//63 58//58
f 61//61 52//52 62//62
f 52//52 51//51 62//62
f 36//36 35//35 50//50
f 49//49 36//36 50//50
f 65//65 66//66 67//67
f 68//68 69//69 70//70
f 71//71 69//69 68//68
f 72//72 73//73 74//74
f 75//75 76//76 77//77
f 78//78 79//79 80//80
f 81//81 65//65 67//67
f 82//82 75//75 77//77
f 83//83 72//72 74//74
f 84//84 78//78 80//80
f 85//85 86//86 87//87
f 88//88 85//85 87//87
