v -0.22500 -0.31250 -0.12500
v -0.22500 -0.12008 -0.16875
v -0.22500 -0.16250 -0.20000
v -0.22500 -0.31250 0.17500
v -0.22500 -0.07838 -0.13750
v -0.05819 -0.07838 -0.13750
v -0.05951 -0.08506 -0.14250
v -0.22500 -0.07838 -0.13750
v -0.22500 -0.31250 -0.12500
v -0.22500 -0.16250 -0.20000
v 0.22500 -0.31250 -0.12500
v -0.22500 -0.16250 -0.20000
v -0.22500 -0.12008 -0.16875
v 0.22500 -0.16250 -0.20000
v 0.22500 -0.12008 -0.16875
v -0.22500 0.16250 0.17500
v -0.22500 -0.31250 0.17500
v -0.22500 -0.31250 -0.12500
v 0.22500 -0.31250 0.17500
v -0.22500 -0.03813 -0.10625
v -0.05543 -0.06454 -0.12675
v -0.22500 -0.03813 -0.10625
v -0.04317 -0.04618 -0.11250
v 0.22500 -0.03813 -0.10625
v -0.22500 0.00000 -0.07500
v -0.22500 0.03535 -0.04375
v 0.22500 0.00000 -0.07500
v -0.22500 0.06731 -0.01250
v 0.22500 0.03535 -0.04375
v -0.22500 0.15972 0.14375
v -0.22500 0.00000 -0.07500
v -0.22500 0.15143 0.11250
v -0.22500 0.03535 -0.04375
v -0.22500 0.13776 0.08125
v -0.22500 0.06731 -0.01250
v -0.22500 0.11896 0.05000
v -0.22500 0.09534 0.01875
v -0.22500 -0.31250 0.17500
v 0.22500 0.16250 0.17500
v -0.22500 0.16250 0.17500
v -0.22500 0.09534 0.01875
v 0.22500 0.06731 -0.01250
v -0.22500 0.11896 0.05000
v 0.22500 0.09534 0.01875
v -0.22500 0.13776 0.08125
v 0.22500 0.11896 0.05000
v -0.22500 0.15143 0.11250
v 0.22500 0.13776 0.08125
v -0.22500 0.15972 0.14375
v 0.22500 0.15143 0.11250
v -0.22500 0.16250 0.17500
v 0.22500 0.15972 0.14375
v 0.22500 -0.16250 -0.20000
v 0.22500 -0.31250 -0.12500
v 0.05951 -0.08506 -0.14250
v 0.22500 -0.31250 -0.12500
v 0.22500 -0.16250 -0.20000
v 0.22500 -0.12008 -0.16875
v 0.22500 -0.31250 0.17500
v 0.22500 -0.07838 -0.13750
v 0.05819 -0.07838 -0.13750
v 0.22500 -0.07838 -0.13750
v 0.22500 -0.31250 0.17500
v 0.22500 0.16250 0.17500
v 0.04317 -0.04618 -0.11250
v 0.05543 -0.06454 -0.12675
v 0.22500 -0.03813 -0.10625
v 0.22500 0.16250 0.17500
v 0.22500 0.15972 0.14375
v 0.22500 0.00000 -0.07500
v 0.22500 0.15143 0.11250
v 0.22500 0.03535 -0.04375
v 0.22500 0.13776 0.08125
v 0.22500 0.06731 -0.01250
v 0.22500 0.11896 0.05000
v 0.22500 0.09534 0.01875
v -0.05543 -0.06454 -0.14250
v -0.05951 -0.08506 -0.14250
v -0.05819 -0.07838 -0.13750
v -0.05543 -0.06454 -0.14250
v -0.05543 -0.06454 -0.12675
v -0.04243 -0.04507 -0.11250
v -0.04243 -0.04507 -0.14250
v -0.04317 -0.04618 -0.11250
v -0.02296 -0.03207 -0.11250
v -0.02296 -0.03207 -0.14250
v -0.04243 -0.04507 -0.11250
v -0.04317 -0.04618 -0.11250
v -0.02296 -0.03207 -0.11250
v -0.04243 -0.04507 -0.14250
v -0.02296 -0.03207 -0.14250
v 0.00000 -0.02750 -0.11250
v 0.00000 -0.02750 -0.14250
v 0.00000 -0.02750 -0.11250
v 0.02296 -0.03207 -0.11250
v 0.05543 -0.06454 -0.14250
v 0.05819 -0.07838 -0.13750
v 0.05951 -0.08506 -0.14250
v 0.00000 -0.02750 -0.14250
v 0.02296 -0.03207 -0.14250
v 0.04243 -0.04507 -0.11250
v 0.04317 -0.04618 -0.11250
v 0.02296 -0.03207 -0.11250
v 0.02296 -0.03207 -0.14250
v 0.04243 -0.04507 -0.14250
v 0.05543 -0.06454 -0.14250
v 0.04243 -0.04507 -0.14250
v 0.05543 -0.06454 -0.12675
v 0.04317 -0.04618 -0.11250
v 0.04243 -0.04507 -0.11250
vn -1.0000 0.0000 0.0000
vn -1.0000 0.0000 0.0000
vn -1.0000 0.0000 0.0000
vn -1.0000 0.0000 0.0000
vn -0.0000 0.6065 -0.7951
vn -0.0000 0.6072 -0.7946
vn -0.0000 0.4847 -0.8747
vn -1.0000 0.0000 0.0000
vn 0.0000 -0.4472 -0.8944
vn 0.0000 -0.4472 -0.8944
vn 0.0000 -0.4472 -0.8944
vn 0.0000 0.5931 -0.8051
vn -0.0000 0.5964 -0.8027
vn -0.0000 0.5931 -0.8051
vn 0.0000 0.5964 -0.8027
vn -1.0000 0.0000 0.0000
vn 0.0000 -1.0000 0.0000
vn 0.0000 -1.0000 0.0000
vn 0.0000 -1.0000 0.0000
vn -0.0000 0.6236 -0.7817
vn -0.0000 0.6132 -0.7899
vn -1.0000 0.0000 0.0000
vn -0.0000 0.6132 -0.7899
vn 0.0000 0.6236 -0.7817
vn 0.0000 0.6482 -0.7614
vn 0.0000 0.6809 -0.7323
vn 0.0000 0.6482 -0.7614
vn 0.0000 0.7221 -0.6917
vn 0.0000 0.6809 -0.7323
vn -1.0000 0.0000 0.0000
vn -1.0000 0.0000 0.0000
vn -1.0000 0.0000 0.0000
vn -1.0000 0.0000 0.0000
vn -1.0000 0.0000 0.0000
vn -1.0000 0.0000 0.0000
vn -1.0000 0.0000 0.0000
vn -1.0000 0.0000 0.0000
vn 0.0000 0.0000 1.0000
vn 0.0000 0.0000 1.0000
vn 0.0000 0.0000 1.0000
vn 0.0000 0.7718 -0.6359
vn 0.0000 0.7221 -0.6917
vn 0.0000 0.8285 -0.5600
vn 0.0000 0.7718 -0.6359
vn 0.0000 0.8884 -0.4591
vn 0.0000 0.8285 -0.5600
vn -0.0000 0.9441 -0.3295
vn -0.0000 0.8884 -0.4591
vn 0.0000 0.9849 -0.1732
vn 0.0000 0.9441 -0.3295
vn 0.0000 0.9961 -0.0886
vn 0.0000 0.9849 -0.1732
vn 0.0000 -0.4472 -0.8944
vn 0.0000 -1.0000 0.0000
vn 0.0000 0.4847 -0.8747
vn 1.0000 0.0000 0.0000
vn 1.0000 0.0000 0.0000
vn 1.0000 0.0000 0.0000
vn 1.0000 0.0000 0.0000
vn 0.0000 0.6065 -0.7951
vn 0.0000 0.6072 -0.7946
vn 1.0000 0.0000 0.0000
vn 0.0000 0.0000 1.0000
vn 1.0000 0.0000 0.0000
vn 0.0000 0.6132 -0.7899
vn 0.0000 0.6132 -0.7899
vn 1.0000 0.0000 0.0000
vn 0.0000 0.9961 -0.0886
vn 1.0000 0.0000 0.0000
vn 1.0000 0.0000 0.0000
vn 1.0000 0.0000 0.0000
vn 1.0000 0.0000 0.0000
vn 1.0000 0.0000 0.0000
vn 1.0000 0.0000 0.0000
vn 1.0000 0.0000 0.0000
vn 1.0000 0.0000 0.0000
vn -0.9239 0.3827 0.0000
vn -0.9808 0.1951 0.0000
vn -0.9808 0.1951 0.0000
vn 0.0000 0.0000 -1.0000
vn -0.8907 0.4547 -0.0000
vn -0.7071 0.7071 -0.0000
vn -0.7071 0.7071 -0.0000
vn -0.8315 0.5556 -0.0000
vn -0.3827 0.9239 -0.0000
vn -0.3827 0.9239 -0.0000
vn 0.0000 0.0000 1.0000
vn 0.0000 0.0000 1.0000
vn 0.0000 0.0000 1.0000
vn 0.0000 0.0000 -1.0000
vn 0.0000 0.0000 -1.0000
vn 0.0000 1.0000 -0.0000
vn 0.0000 1.0000 0.0000
vn 0.0000 0.0000 1.0000
vn 0.0000 0.0000 1.0000
vn 0.9239 0.3827 -0.0000
vn 0.9808 0.1951 -0.0000
vn 0.9808 0.1951 -0.0000
vn 0.0000 0.0000 -1.0000
vn 0.0000 0.0000 -1.0000
vn 0.0000 0.0000 1.0000
vn 0.0000 0.0000 1.0000
vn 0.3827 0.9239 0.0000
vn 0.3827 0.9239 -0.0000
vn 0.0000 0.0000 -1.0000
vn 0.0000 0.0000 -1.0000
vn 0.7071 0.7071 0.0000
vn 0.8907 0.4547 0.0000
vn 0.8315 0.5556 0.0000
vn 0.7071 0.7071 -0.0000
f 1//1 2//2 3//3
f 4//4 2//2 1//1
f 5//5 6//6 7//7
f 4//4 8//8 2//2
f 9//9 10//10 11//11
f 12//12 13//13 14//14
f 5//5 15//15 13//13
f 5//5 7//7 15//15
f 4//4 16//16 8//8
f 17//17 18//18 19//19
f 5//5 20//20 6//6
f 20//20 21//21 6//6
f 16//16 22//22 8//8
f 20//20 23//23 21//21
f 20//20 24//24 23//23
f 25//25 24//24 20//20
f 26//26 27//27 25//25
f 26//26 28//28 29//29
f 30//30 31//31 22//22
f 32//32 33//33 31//31
f 34//34 35//35 33//33
f 36//36 37//37 35//35
f 16//16 30//30 22//22
f 34//34 36//36 35//35
f 32//32 34//34 33//33
f 30//30 32//32 31//31
f 38//38 39//39 40//40
f 41//41 42//42 28//28
f 43//43 44//44 41//41
f 45//45 46//46 43//43
f 47//47 48//48 45//45
f 49//49 50//50 47//47
f 51//51 52//52 49//49
f 10//10 53//53 11//11
f 19//19 18//18 54//54
f 13//13 15//15 14//14
f 15//15 7//7 55//55
f 56//56 57//57 58//58
f 59//59 56//56 58//58
f 60//60 55//55 61//61
f 60//60 15//15 55//55
f 59//59 58//58 62//62
f 38//38 63//63 39//39
f 59//59 62//62 64//64
f 24//24 65//65 23//23
f 60//60 66//66 65//65
f 25//25 27//27 24//24
f 26//26 29//29 27//27
f 28//28 42//42 29//29
f 60//60 61//61 66//66
f 60//60 65//65 24//24
f 64//64 62//62 67//67
f 41//41 44//44 42//42
f 43//43 46//46 44//44
f 45//45 48//48 46//46
f 47//47 50//50 48//48
f 49//49 52//52 50//50
f 51//51 68//68 52//52
f 69//69 67//67 70//70
f 71//71 70//70 72//72
f 73//73 72//72 74//74
f 75//75 74//74 76//76
f 64//64 67//67 69//69
f 73//73 74//74 75//75
f 71//71 72//72 73//73
f 69//69 70//70 71//71
f 77//77 78//78 79//79
f 80//80 55//55 7//7
f 77//77 79//79 81//81
f 82//82 83//83 77//77
f 82//82 77//77 81//81
f 82//82 81//81 84//84
f 85//85 86//86 83//83
f 82//82 85//85 83//83
f 87//87 88//88 89//89
f 90//90 55//55 80//80
f 90//90 91//91 55//55
f 86//86 92//92 93//93
f 85//85 92//92 86//86
f 89//89 88//88 94//94
f 94//94 88//88 95//95
f 96//96 97//97 98//98
f 91//91 99//99 55//55
f 99//99 100//100 55//55
f 101//101 88//88 102//102
f 103//103 104//104 93//93
f 95//95 88//88 101//101
f 92//92 103//103 93//93
f 100//100 105//105 55//55
f 105//105 106//106 55//55
f 107//107 108//108 96//96
f 107//107 109//109 108//108
f 110//110 109//109 107//107
f 110//110 107//107 104//104
f 103//103 110//110 104//104
f 96//96 108//108 97//97
