v -0.24800 -0.02400 -0.42050
v -0.24361 -0.03461 -0.20450
v -0.24800 -0.02400 -0.20450
v -0.24361 -0.02400 -0.43111
v -0.23300 -0.03461 -0.43111
v -0.24361 -0.03461 -0.42050
v -0.23300 -0.03900 -0.42050
v -0.23300 -0.02400 -0.43550
v -0.21507 -0.03900 -0.37007
v -0.21800 -0.03900 -0.36300
v -0.20800 -0.03900 -0.37300
v -0.11250 -0.03900 -0.42050
v -0.11250 -0.03461 -0.43111
v -0.15200 -0.03900 -0.37300
v -0.23300 -0.03900 -0.20450
v -0.21800 -0.03900 -0.26200
v -0.21507 -0.03900 -0.25493
v -0.20800 -0.03900 -0.25200
v -0.15200 -0.03900 -0.25200
v -0.11250 -0.03900 -0.20450
v -0.11250 -0.03461 -0.43111
v -0.11250 -0.02400 -0.43550
v -0.14493 -0.03900 -0.37007
v -0.14200 -0.03900 -0.36300
v -0.14200 -0.03900 -0.26200
v -0.14493 -0.03900 -0.25493
v -0.23300 -0.03461 -0.19389
v -0.24361 -0.02400 -0.19389
v -0.23300 -0.02400 -0.18950
v -0.11250 -0.03461 -0.19389
v -0.11250 -0.02400 -0.18950
v -0.11250 -0.03461 -0.19389
v -0.11250 -0.00619 -0.18950
v -0.24800 0.04400 -0.42050
v -0.24361 0.04400 -0.43111
v -0.24800 0.04400 -0.20450
v -0.24361 0.05461 -0.20450
v -0.23300 0.04400 -0.43550
v -0.24361 0.05461 -0.42050
v -0.23300 0.05461 -0.43111
v -0.23300 0.05900 -0.42050
v -0.23300 0.05900 -0.20450
v -0.11250 -0.00619 -0.43550
v 0.23300 0.04400 -0.43550
v 0.23300 0.05900 -0.42050
v -0.24361 0.04400 -0.19389
v -0.23300 0.04400 -0.18950
v -0.23300 0.05461 -0.19389
v 0.11250 -0.00619 -0.18950
v 0.23300 0.05900 -0.20450
v 0.23300 0.05461 -0.19389
v 0.14200 -0.03900 -0.36300
v 0.11250 -0.03900 -0.42050
v 0.14493 -0.03900 -0.37007
v 0.15200 -0.03900 -0.37300
v 0.23300 -0.03900 -0.42050
v 0.11250 -0.03461 -0.43111
v 0.23300 -0.03461 -0.43111
v 0.11250 -0.03461 -0.43111
v 0.11250 -0.02400 -0.43550
v 0.23300 -0.02400 -0.43550
v 0.11250 -0.00619 -0.43550
v 0.11250 -0.03900 -0.20450
v 0.14200 -0.03900 -0.26200
v 0.14493 -0.03900 -0.25493
v 0.23300 -0.03900 -0.20450
v 0.20800 -0.03900 -0.37300
v 0.21507 -0.03900 -0.37007
v 0.21800 -0.03900 -0.36300
v 0.24361 -0.02400 -0.43111
v 0.24361 -0.03461 -0.42050
v 0.24800 -0.02400 -0.42050
v 0.15200 -0.03900 -0.25200
v 0.20800 -0.03900 -0.25200
v 0.24361 -0.03461 -0.20450
v 0.21800 -0.03900 -0.26200
v 0.21507 -0.03900 -0.25493
v 0.24800 -0.02400 -0.20450
v 0.23300 -0.03461 -0.19389
v 0.11250 -0.03461 -0.19389
v 0.23300 -0.02400 -0.18950
v 0.11250 -0.02400 -0.18950
v 0.11250 -0.03461 -0.19389
v 0.24361 -0.02400 -0.19389
v 0.23300 0.05461 -0.43111
v 0.24361 0.04400 -0.43111
v 0.24361 0.05461 -0.42050
v 0.24800 0.04400 -0.42050
v 0.24361 0.05461 -0.20450
v 0.24800 0.04400 -0.20450
v 0.23300 0.04400 -0.18950
v 0.24361 0.04400 -0.19389
v -0.21507 -0.55607 -0.36300
v -0.21800 -0.54900 -0.36300
v -0.21507 -0.54900 -0.37007
v -0.20800 -0.54900 -0.37300
v -0.20800 -0.55607 -0.37007
v -0.20800 -0.55900 -0.36300
v -0.15200 -0.54900 -0.37300
v -0.15200 -0.55607 -0.37007
v -0.15200 -0.55900 -0.36300
v -0.21800 -0.54900 -0.26200
v -0.20800 -0.55900 -0.26200
v -0.21507 -0.55607 -0.26200
v -0.21507 -0.54900 -0.25493
v -0.20800 -0.55607 -0.25493
v -0.20800 -0.54900 -0.25200
v -0.15200 -0.55900 -0.26200
v -0.15200 -0.55607 -0.25493
v -0.15200 -0.54900 -0.25200
v -0.21800 -0.03900 -0.36300
v -0.21507 -0.03900 -0.37007
v -0.20800 -0.03900 -0.37300
v -0.21800 -0.03900 -0.26200
v -0.21507 -0.03900 -0.25493
v -0.20800 -0.03900 -0.25200
v -0.15200 -0.03900 -0.25200
v -0.21507 -0.03900 -0.37007
v -0.15200 -0.03900 -0.37300
v -0.21507 -0.03900 -0.25493
v -0.14493 -0.54900 -0.37007
v -0.14493 -0.55607 -0.36300
v -0.14200 -0.54900 -0.36300
v -0.14493 -0.55607 -0.26200
v -0.14200 -0.54900 -0.26200
v -0.14493 -0.54900 -0.25493
v -0.14493 -0.03900 -0.37007
v -0.14200 -0.03900 -0.36300
v -0.14493 -0.03900 -0.25493
v -0.14200 -0.03900 -0.26200
v -0.14493 -0.03900 -0.37007
v -0.14493 -0.03900 -0.25493
v 0.14200 -0.54900 -0.36300
v 0.14493 -0.54900 -0.37007
v 0.14493 -0.55607 -0.36300
v 0.15200 -0.55607 -0.37007
v 0.15200 -0.54900 -0.37300
v 0.15200 -0.55900 -0.36300
v 0.14200 -0.54900 -0.26200
v 0.15200 -0.55900 -0.26200
v 0.14493 -0.55607 -0.26200
v 0.14493 -0.54900 -0.25493
v 0.15200 -0.55607 -0.25493
v 0.15200 -0.54900 -0.25200
v 0.14200 -0.03900 -0.36300
v 0.14493 -0.03900 -0.37007
v 0.14200 -0.03900 -0.26200
v 0.14493 -0.03900 -0.25493
v 0.15200 -0.03900 -0.25200
v 0.14493 -0.03900 -0.37007
v 0.15200 -0.03900 -0.37300
v 0.14493 -0.03900 -0.25493
v 0.20800 -0.54900 -0.37300
v 0.20800 -0.55607 -0.37007
v 0.20800 -0.55900 -0.36300
v 0.21507 -0.54900 -0.37007
v 0.21507 -0.55607 -0.36300
v 0.21800 -0.54900 -0.36300
v 0.20800 -0.55900 -0.26200
v 0.20800 -0.55607 -0.25493
v 0.20800 -0.54900 -0.25200
v 0.21507 -0.55607 -0.26200
v 0.21800 -0.54900 -0.26200
v 0.21507 -0.54900 -0.25493
v 0.20800 -0.03900 -0.37300
v 0.21507 -0.03900 -0.37007
v 0.20800 -0.03900 -0.25200
v 0.21800 -0.03900 -0.36300
v 0.21507 -0.03900 -0.25493
v 0.21800 -0.03900 -0.26200
v 0.21507 -0.03900 -0.37007
v 0.21507 -0.03900 -0.25493
v -0.14000 -0.53263 -0.33677
v -0.14000 -0.54353 -0.32177
v -0.14000 -0.49737 -0.33677
v -0.14000 -0.51500 -0.34250
v -0.14000 -0.48647 -0.32177
v -0.14000 -0.54353 -0.30323
v -0.14000 -0.53263 -0.28823
v -0.14000 -0.48647 -0.30323
v -0.14000 -0.51500 -0.28250
v -0.14000 -0.49737 -0.28823
v -0.14000 -0.53263 -0.33677
v 0.14000 -0.54353 -0.32177
v -0.14000 -0.54353 -0.32177
v -0.14000 -0.51500 -0.34250
v 0.14000 -0.53263 -0.33677
v 0.14000 -0.54353 -0.30323
v -0.14000 -0.54353 -0.30323
v 0.14000 -0.53263 -0.28823
v -0.14000 -0.53263 -0.28823
v -0.14000 -0.49737 -0.33677
v 0.14000 -0.51500 -0.34250
v -0.14000 -0.48647 -0.32177
v 0.14000 -0.49737 -0.33677
v 0.14000 -0.51500 -0.28250
v -0.14000 -0.51500 -0.28250
v 0.14000 -0.49737 -0.28823
v -0.14000 -0.49737 -0.28823
v -0.14000 -0.48647 -0.30323
v 0.14000 -0.48647 -0.32177
v 0.14000 -0.48647 -0.30323
v 0.14000 -0.53263 -0.33677
v 0.14000 -0.49737 -0.33677
v 0.14000 -0.54353 -0.32177
v 0.14000 -0.51500 -0.34250
v 0.14000 -0.48647 -0.32177
v 0.14000 -0.54353 -0.30323
v 0.14000 -0.48647 -0.30323
v 0.14000 -0.53263 -0.28823
v 0.14000 -0.49737 -0.28823
v 0.14000 -0.51500 -0.28250
v -0.03031 0.06000 -0.33000
v -0.01750 0.06000 -0.34281
v -0.03031 0.06000 -0.29500
v -0.03500 0.06000 -0.31250
v -0.01750 0.06000 -0.28219
v 0.00000 0.06000 -0.34750
v 0.00000 0.06000 -0.27750
v -0.03031 0.06000 -0.33000
v -0.03500 0.06000 -0.31250
v -0.03031 0.51000 -0.33000
v -0.01750 0.51000 -0.34281
v -0.01750 0.06000 -0.34281
v -0.03031 0.06000 -0.29500
v -0.03500 0.51000 -0.31250
v -0.01750 0.06000 -0.28219
v -0.03031 0.51000 -0.29500
v 0.00000 0.51000 -0.34750
v 0.00000 0.06000 -0.34750
v 0.00000 0.06000 -0.27750
v -0.01750 0.48993 -0.28219
v -0.02382 0.49625 -0.28850
v -0.02750 0.51000 -0.29219
v -0.01375 0.48618 -0.28118
v 0.00000 0.48250 -0.27750
v -0.03031 0.51000 -0.33000
v -0.02750 0.51000 -0.31250
v -0.02382 0.51000 -0.32625
v -0.01375 0.51000 -0.33632
v -0.01750 0.51000 -0.34281
v -0.03500 0.51000 -0.31250
v -0.03031 0.51000 -0.29500
v -0.02750 0.51000 -0.29219
v 0.00000 0.51000 -0.34000
v 0.00000 0.51000 -0.34750
v 0.01750 0.06000 -0.34281
v 0.01750 0.06000 -0.28219
v 0.03031 0.06000 -0.33000
v 0.03031 0.06000 -0.29500
v 0.03500 0.06000 -0.31250
v 0.01750 0.51000 -0.34281
v 0.01750 0.06000 -0.34281
v 0.03031 0.51000 -0.33000
v 0.03031 0.06000 -0.33000
v 0.01750 0.06000 -0.28219
v 0.03031 0.06000 -0.29500
v 0.01750 0.48993 -0.28219
v 0.03500 0.51000 -0.31250
v 0.03500 0.06000 -0.31250
v 0.03031 0.51000 -0.29500
v 0.02382 0.49625 -0.28850
v 0.02750 0.51000 -0.29219
v 0.01375 0.48618 -0.28118
v 0.01750 0.51000 -0.34281
v 0.01375 0.51000 -0.33632
v 0.02382 0.51000 -0.32625
v 0.03031 0.51000 -0.33000
v 0.02750 0.51000 -0.31250
v 0.03031 0.51000 -0.29500
v 0.02750 0.51000 -0.29219
v 0.03500 0.51000 -0.31250
v -0.02382 0.52375 -0.31250
v -0.01588 0.52588 -0.32838
v -0.02382 0.51000 -0.32625
v -0.02750 0.51000 -0.31250
v -0.02750 0.51000 -0.29219
v -0.01375 0.51000 -0.33632
v 0.00000 0.52375 -0.33632
v 0.00000 0.51000 -0.34000
v 0.00000 0.53382 -0.32625
v -0.01375 0.53382 -0.31250
v 0.00000 0.53750 -0.31250
v -0.02382 0.49625 0.26250
v -0.02382 0.49625 -0.28850
v -0.02750 0.51000 0.26250
v -0.01375 0.48618 0.26250
v -0.01750 0.48993 -0.28219
v -0.01375 0.48618 -0.28118
v 0.00000 0.48250 -0.27750
v -0.02382 0.52375 0.26250
v 0.00000 0.53750 0.26250
v 0.00000 0.48250 0.26250
v -0.01375 0.53382 0.26250
v -0.01588 0.49412 0.27838
v -0.02382 0.51000 0.27625
v -0.01588 0.52588 0.27838
v 0.00000 0.48618 0.27625
v 0.00000 0.49625 0.28632
v -0.01375 0.51000 0.28632
v 0.00000 0.52375 0.28632
v 0.00000 0.51000 0.29000
v 0.00000 0.53382 0.27625
v 0.01375 0.51000 -0.33632
v 0.01588 0.52588 -0.32838
v 0.01375 0.53382 -0.31250
v 0.02382 0.51000 -0.32625
v 0.02382 0.52375 -0.31250
v 0.02750 0.51000 -0.31250
v 0.01375 0.48618 0.26250
v 0.01375 0.48618 -0.28118
v 0.01750 0.48993 -0.28219
v 0.01375 0.53382 0.26250
v 0.02382 0.52375 0.26250
v 0.02382 0.49625 0.26250
v 0.02382 0.49625 -0.28850
v 0.02750 0.51000 -0.29219
v 0.02750 0.51000 0.26250
v 0.01588 0.49412 0.27838
v 0.01375 0.51000 0.28632
v 0.01588 0.52588 0.27838
v 0.02382 0.51000 0.27625
v -0.31588 0.49412 0.37162
v -0.30670 0.49535 0.36703
v -0.30000 0.49200 0.36793
v -0.31375 0.51000 0.36368
v -0.30654 0.50279 0.36368
v -0.30751 0.49557 0.36730
v -0.32382 0.49625 0.38750
v -0.31375 0.48618 0.38750
v -0.31588 0.49412 0.40338
v -0.32382 0.51000 0.37375
v -0.32382 0.51000 0.40125
v -0.30000 0.48618 0.37375
v -0.30000 0.48618 0.40125
v -0.30000 0.49625 0.41132
v -0.31375 0.51000 0.41132
v -0.31588 0.52588 0.37162
v -0.30808 0.51000 0.36216
v -0.30654 0.51721 0.36368
v -0.30751 0.52443 0.36730
v -0.30670 0.52465 0.36703
v -0.30000 0.53382 0.37375
v -0.32750 0.51000 0.38750
v -0.32382 0.52375 0.38750
v -0.31588 0.52588 0.40338
v -0.31375 0.53382 0.38750
v -0.30000 0.52375 0.41132
v -0.30000 0.53382 0.40125
v -0.29590 0.48835 0.37158
v -0.28880 0.48618 0.37375
v -0.28880 0.48500 0.37817
v -0.30000 0.48250 0.38750
v -0.30000 0.52800 0.36793
v -0.29590 0.53165 0.37158
v -0.28880 0.53382 0.37375
v -0.30000 0.51000 0.41500
v -0.30000 0.53750 0.38750
v -0.28880 0.53500 0.37817
v -0.27820 0.48618 0.37375
v -0.26590 0.48835 0.37158
v 0.27820 0.48618 0.37375
v 0.30000 0.48250 0.38750
v 0.30000 0.48618 0.40125
v 0.30000 0.49625 0.41132
v 0.24049 0.52443 0.36437
v -0.26590 0.53165 0.37158
v -0.27820 0.53382 0.37375
v 0.27820 0.53382 0.37375
v -0.24049 0.52443 0.36437
v 0.30000 0.51000 0.41500
v 0.30000 0.53750 0.38750
v 0.30000 0.53382 0.40125
v -0.23935 0.49625 0.36368
v 0.24049 0.49557 0.36437
v -0.24049 0.49557 0.36437
v -0.22852 0.51000 0.36000
v 0.23935 0.49625 0.36368
v -0.23935 0.52375 0.36368
v 0.22852 0.51000 0.36000
v 0.23935 0.52375 0.36368
v 0.26590 0.53165 0.37158
v 0.26590 0.48835 0.37158
v 0.28880 0.48500 0.37817
v 0.30000 0.52375 0.41132
v 0.28880 0.53500 0.37817
v 0.30000 0.48618 0.37375
v 0.28880 0.48618 0.37375
v 0.29590 0.48835 0.37158
v 0.30000 0.49200 0.36793
v 0.30670 0.49535 0.36703
v 0.31375 0.48618 0.38750
v 0.31588 0.49412 0.40338
v 0.30000 0.53382 0.37375
v 0.28880 0.53382 0.37375
v 0.29590 0.53165 0.37158
v 0.30000 0.52800 0.36793
v 0.31588 0.52588 0.37162
v 0.31375 0.51000 0.41132
v 0.31375 0.53382 0.38750
v 0.31588 0.52588 0.40338
v 0.31588 0.49412 0.37162
v 0.30654 0.50279 0.36368
v 0.31375 0.51000 0.36368
v 0.30751 0.49557 0.36730
v 0.32382 0.49625 0.38750
v 0.32382 0.51000 0.37375
v 0.32382 0.51000 0.40125
v 0.30808 0.51000 0.36216
v 0.30654 0.51721 0.36368
v 0.30670 0.52465 0.36703
v 0.30751 0.52443 0.36730
v 0.32382 0.52375 0.38750
v 0.32750 0.51000 0.38750
v -0.16443 0.49557 0.24807
v -0.16250 0.51000 0.24085
v -0.15000 0.48835 0.25000
v -0.16443 0.52443 0.24807
v -0.15000 0.48500 0.26250
v -0.15000 0.53165 0.25000
v -0.15000 0.48835 0.27500
v -0.24049 0.49557 0.36437
v -0.26590 0.48835 0.37158
v -0.13557 0.49557 0.27693
v -0.23935 0.49625 0.36368
v -0.15000 0.53165 0.27500
v -0.26590 0.53165 0.37158
v -0.24049 0.52443 0.36437
v -0.13557 0.52443 0.27693
v -0.23935 0.52375 0.36368
v -0.15000 0.53500 0.26250
v -0.22852 0.51000 0.36000
v -0.13750 0.51000 0.28415
v -0.15000 0.49750 0.24085
v -0.13557 0.49557 0.24807
v -0.13750 0.48835 0.26250
v -0.15000 0.51000 0.23750
v -0.15000 0.52250 0.24085
v -0.13750 0.51000 0.24085
v -0.13557 0.52443 0.24807
v -0.13750 0.53165 0.26250
v -0.12835 0.49750 0.26250
v -0.12835 0.51000 0.25000
v -0.12835 0.52250 0.26250
v -0.12500 0.51000 0.26250
v -0.12835 0.51000 0.27500
v 0.13557 0.49557 0.24807
v 0.12835 0.49750 0.26250
v 0.12835 0.51000 0.25000
v 0.13750 0.48835 0.26250
v 0.15000 0.48835 0.25000
v 0.13750 0.51000 0.24085
v 0.15000 0.49750 0.24085
v 0.12500 0.51000 0.26250
v 0.12835 0.52250 0.26250
v 0.13557 0.52443 0.24807
v 0.15000 0.52250 0.24085
v 0.13750 0.53165 0.26250
v 0.15000 0.53165 0.25000
v 0.15000 0.48500 0.26250
v 0.16443 0.49557 0.24807
v 0.16250 0.51000 0.24085
v 0.15000 0.51000 0.23750
v 0.15000 0.53500 0.26250
v 0.16443 0.52443 0.24807
v 0.13557 0.49557 0.27693
v 0.12835 0.51000 0.27500
v 0.15000 0.48835 0.27500
v 0.13557 0.52443 0.27693
v 0.13750 0.51000 0.28415
v 0.15000 0.53165 0.27500
v 0.23935 0.49625 0.36368
v 0.24049 0.49557 0.36437
v 0.22852 0.51000 0.36000
v 0.24049 0.52443 0.36437
v 0.26590 0.53165 0.37158
v 0.23935 0.52375 0.36368
v 0.26590 0.48835 0.37158
v -0.11250 -0.41600 -0.82447
v -0.11250 -0.41600 -0.77447
v -0.11250 -0.37912 -0.81961
v -0.11250 -0.39206 -0.77131
v -0.11250 -0.27750 -0.72386
v -0.11250 -0.25250 -0.76716
v -0.11250 -0.41600 -0.82447
v -0.11250 -0.37912 -0.81961
v 0.11250 -0.37912 -0.81961
v -0.11250 -0.25250 -0.76716
v -0.11250 -0.17912 -0.64838
v -0.11250 -0.14377 -0.68373
v -0.11250 -0.10364 -0.55000
v -0.11250 -0.06034 -0.57500
v -0.11250 -0.05619 -0.43544
v -0.11250 -0.14377 -0.68373
v 0.11250 -0.25250 -0.76716
v -0.11250 -0.06034 -0.57500
v 0.11250 -0.14377 -0.68373
v -0.11250 -0.00789 -0.44838
v 0.11250 -0.06034 -0.57500
v -0.11250 -0.00789 -0.44838
v -0.11250 -0.02400 -0.43550
v -0.11250 -0.00619 -0.43550
v -0.11250 -0.04000 -0.31250
v -0.11250 -0.03900 -0.42050
v -0.11250 -0.03461 -0.43111
v -0.11250 -0.03900 -0.20450
v -0.11250 -0.05619 -0.18956
v -0.11250 -0.41600 0.14947
v -0.11250 -0.41600 0.19947
v -0.11250 -0.39206 0.14631
v -0.11250 -0.25250 0.14216
v -0.11250 -0.37912 0.19461
v -0.11250 -0.27750 0.09886
v -0.11250 -0.41600 0.19947
v 0.11250 -0.41600 0.19947
v -0.11250 -0.37912 0.19461
v 0.11250 -0.25250 0.14216
v -0.11250 -0.25250 0.14216
v -0.11250 -0.14377 0.05873
v -0.11250 -0.17912 0.02338
v -0.11250 -0.10364 -0.07500
v -0.11250 -0.00789 -0.17662
v -0.11250 -0.03461 -0.19389
v -0.11250 -0.02400 -0.18950
v -0.11250 -0.00619 -0.18950
v -0.11250 -0.06034 -0.05000
v -0.11250 -0.14377 0.05873
v 0.11250 -0.14377 0.05873
v -0.11250 -0.06034 -0.05000
v 0.11250 -0.00789 -0.17662
v -0.11250 -0.00789 -0.17662
v 0.11250 -0.06034 -0.05000
v -0.11250 -0.00619 -0.43550
v 0.11250 -0.00789 -0.44838
v 0.11250 -0.00619 -0.18950
v -0.11250 -0.00619 -0.18950
v 0.11250 -0.41600 -0.82447
v 0.11250 -0.41600 -0.82447
v 0.11250 -0.37912 -0.81961
v 0.11250 -0.41600 -0.77447
v 0.11250 -0.39206 -0.77131
v 0.11250 -0.25250 -0.76716
v 0.11250 -0.27750 -0.72386
v 0.11250 -0.14377 -0.68373
v 0.11250 -0.17912 -0.64838
v 0.11250 -0.06034 -0.57500
v 0.11250 -0.10364 -0.55000
v 0.11250 -0.00789 -0.44838
v 0.11250 -0.05619 -0.43544
v 0.11250 -0.02400 -0.43550
v 0.11250 -0.00619 -0.43550
v 0.11250 -0.03900 -0.42050
v 0.11250 -0.04000 -0.31250
v 0.11250 -0.03461 -0.43111
v 0.11250 -0.03900 -0.20450
v 0.11250 -0.05619 -0.18956
v 0.11250 -0.37912 0.19461
v 0.11250 -0.41600 0.14947
v 0.11250 -0.37912 0.19461
v 0.11250 -0.41600 0.19947
v 0.11250 -0.39206 0.14631
v 0.11250 -0.25250 0.14216
v 0.11250 -0.27750 0.09886
v 0.11250 -0.17912 0.02338
v 0.11250 -0.14377 0.05873
v 0.11250 -0.03461 -0.19389
v 0.11250 -0.02400 -0.18950
v 0.11250 -0.00789 -0.17662
v 0.11250 -0.00619 -0.18950
v 0.11250 -0.06034 -0.05000
v 0.11250 -0.10364 -0.07500
v 0.11250 -0.00619 -0.43550
v -0.11250 -0.41600 -0.77447
v 0.11250 -0.41600 -0.77447
v -0.11250 -0.39206 -0.77131
v 0.11250 -0.39206 -0.77131
v -0.11250 -0.27750 -0.72386
v 0.11250 -0.27750 -0.72386
v -0.11250 -0.17912 -0.64838
v 0.11250 -0.17912 -0.64838
v -0.11250 -0.10364 -0.55000
v 0.11250 -0.10364 -0.55000
v -0.11250 -0.05619 -0.43544
v 0.11250 -0.05619 -0.43544
v -0.11250 -0.04000 -0.31250
v 0.11250 -0.04000 -0.31250
v -0.11250 -0.05619 -0.18956
v -0.11250 -0.41600 0.14947
v -0.11250 -0.39206 0.14631
v 0.11250 -0.39206 0.14631
v -0.11250 -0.27750 0.09886
v 0.11250 -0.27750 0.09886
v -0.11250 -0.17912 0.02338
v 0.11250 -0.17912 0.02338
v -0.11250 -0.10364 -0.07500
v 0.11250 -0.05619 -0.18956
v 0.11250 -0.10364 -0.07500
v 0.11250 -0.41600 0.14947
v -0.11250 -0.41600 -0.82447
v 0.11250 -0.41600 -0.77447
v -0.11250 -0.41600 -0.77447
v -0.11250 -0.41600 0.14947
v 0.11250 -0.41600 0.19947
v -0.11250 -0.41600 0.19947
v 0.11250 -0.41600 -0.82447
v 0.11250 -0.41600 0.14947
vn -0.9641 -0.1877 -0.1877
vn -0.6887 -0.6887 0.2265
vn -0.9641 -0.1877 0.1877
vn -0.6887 -0.2265 -0.6887
vn -0.2265 -0.6887 -0.6887
vn -0.6887 -0.6887 -0.2265
vn -0.1877 -0.9641 -0.1877
vn -0.1877 -0.1877 -0.9641
vn 0.0000 -1.0000 0.0000
vn 0.0000 -1.0000 0.0000
vn 0.0000 -1.0000 0.0000
vn -0.0000 -0.9808 -0.1951
vn 0.0000 -0.3827 -0.9239
vn 0.0000 -1.0000 0.0000
vn -0.1877 -0.9641 0.1877
vn 0.0000 -1.0000 0.0000
vn 0.0000 -1.0000 0.0000
vn 0.0000 -1.0000 0.0000
vn 0.0000 -1.0000 0.0000
vn 0.0000 -0.9808 0.1951
vn 0.0000 -0.9239 -0.3827
vn 0.0000 -0.1951 -0.9808
vn 0.0000 -1.0000 0.0000
vn 0.0000 -1.0000 0.0000
vn 0.0000 -1.0000 0.0000
vn 0.0000 -1.0000 0.0000
vn -0.2265 -0.6887 0.6887
vn -0.6887 -0.2265 0.6887
vn -0.1877 -0.1877 0.9641
vn 0.0000 -0.9239 0.3827
vn 0.0000 -0.1951 0.9808
vn 0.0000 -0.3827 0.9239
vn 0.0000 0.0000 1.0000
vn -0.9641 0.1877 -0.1877
vn -0.6887 0.2265 -0.6887
vn -0.9641 0.1877 0.1877
vn -0.6887 0.6887 0.2265
vn -0.1877 0.1877 -0.9641
vn -0.6887 0.6887 -0.2265
vn -0.2265 0.6887 -0.6887
vn -0.1877 0.9641 -0.1877
vn -0.1877 0.9641 0.1877
vn 0.0000 0.0000 -1.0000
vn 0.1877 0.1877 -0.9641
vn 0.1877 0.9641 -0.1877
vn -0.6887 0.2265 0.6887
vn -0.1877 0.1877 0.9641
vn -0.2265 0.6887 0.6887
vn 0.0000 0.0000 1.0000
vn 0.1877 0.9641 0.1877
vn 0.2265 0.6887 0.6887
vn 0.0000 -1.0000 0.0000
vn 0.0000 -0.9808 -0.1951
vn 0.0000 -1.0000 0.0000
vn 0.0000 -1.0000 0.0000
vn 0.1877 -0.9641 -0.1877
vn 0.0000 -0.9239 -0.3827
vn 0.2265 -0.6887 -0.6887
vn 0.0000 -0.3827 -0.9239
vn 0.0000 -0.1951 -0.9808
vn 0.1877 -0.1877 -0.9641
vn 0.0000 0.0000 -1.0000
vn 0.0000 -0.9808 0.1951
vn 0.0000 -1.0000 0.0000
vn 0.0000 -1.0000 0.0000
vn 0.1877 -0.9641 0.1877
vn 0.0000 -1.0000 0.0000
vn 0.0000 -1.0000 0.0000
vn 0.0000 -1.0000 0.0000
vn 0.6887 -0.2265 -0.6887
vn 0.6887 -0.6887 -0.2265
vn 0.9641 -0.1877 -0.1877
vn 0.0000 -1.0000 0.0000
vn 0.0000 -1.0000 0.0000
vn 0.6887 -0.6887 0.2265
vn 0.0000 -1.0000 0.0000
vn 0.0000 -1.0000 0.0000
vn 0.9641 -0.1877 0.1877
vn 0.2265 -0.6887 0.6887
vn 0.0000 -0.9239 0.3827
vn 0.1877 -0.1877 0.9641
vn 0.0000 -0.1951 0.9808
vn 0.0000 -0.3827 0.9239
vn 0.6887 -0.2265 0.6887
vn 0.2265 0.6887 -0.6887
vn 0.6887 0.2265 -0.6887
vn 0.6887 0.6887 -0.2265
vn 0.9641 0.1877 -0.1877
vn 0.6887 0.6887 0.2265
vn 0.9641 0.1877 0.1877
vn 0.1877 0.1877 0.9641
vn 0.6887 0.2265 0.6887
vn -0.6887 -0.6887 -0.2265
vn -0.9641 -0.1877 -0.1877
vn -0.6887 -0.2265 -0.6887
vn -0.1877 -0.1877 -0.9641
vn -0.2265 -0.6887 -0.6887
vn -0.1877 -0.9641 -0.1877
vn 0.1877 -0.1877 -0.9641
vn 0.2265 -0.6887 -0.6887
vn 0.1877 -0.9641 -0.1877
vn -0.9641 -0.1877 0.1877
vn -0.1877 -0.9641 0.1877
vn -0.6887 -0.6887 0.2265
vn -0.6887 -0.2265 0.6887
vn -0.2265 -0.6887 0.6887
vn -0.1877 -0.1877 0.9641
vn 0.1877 -0.9641 0.1877
vn 0.2265 -0.6887 0.6887
vn 0.1877 -0.1877 0.9641
vn -0.9808 -0.0000 -0.1951
vn -0.3827 0.0000 -0.9239
vn -0.1951 0.0000 -0.9808
vn -0.9808 0.0000 0.1951
vn -0.9239 0.0000 0.3827
vn -0.1951 0.0000 0.9808
vn 0.1951 0.0000 0.9808
vn -0.9239 0.0000 -0.3827
vn 0.1951 0.0000 -0.9808
vn -0.3827 0.0000 0.9239
vn 0.6887 -0.2265 -0.6887
vn 0.6887 -0.6887 -0.2265
vn 0.9641 -0.1877 -0.1877
vn 0.6887 -0.6887 0.2265
vn 0.9641 -0.1877 0.1877
vn 0.6887 -0.2265 0.6887
vn 0.9239 0.0000 -0.3827
vn 0.9808 0.0000 -0.1951
vn 0.3827 0.0000 0.9239
vn 0.9808 -0.0000 0.1951
vn 0.3827 0.0000 -0.9239
vn 0.9239 0.0000 0.3827
vn -0.9641 -0.1877 -0.1877
vn -0.6887 -0.2265 -0.6887
vn -0.6887 -0.6887 -0.2265
vn -0.2265 -0.6887 -0.6887
vn -0.1877 -0.1877 -0.9641
vn -0.1877 -0.9641 -0.1877
vn -0.9641 -0.1877 0.1877
vn -0.1877 -0.9641 0.1877
vn -0.6887 -0.6887 0.2265
vn -0.6887 -0.2265 0.6887
vn -0.2265 -0.6887 0.6887
vn -0.1877 -0.1877 0.9641
vn -0.9808 -0.0000 -0.1951
vn -0.3827 0.0000 -0.9239
vn -0.9808 0.0000 0.1951
vn -0.9239 0.0000 0.3827
vn -0.1951 -0.0000 0.9808
vn -0.9239 0.0000 -0.3827
vn -0.1951 0.0000 -0.9808
vn -0.3827 0.0000 0.9239
vn 0.1877 -0.1877 -0.9641
vn 0.2265 -0.6887 -0.6887
vn 0.1877 -0.9641 -0.1877
vn 0.6887 -0.2265 -0.6887
vn 0.6887 -0.6887 -0.2265
vn 0.9641 -0.1877 -0.1877
vn 0.1877 -0.9641 0.1877
vn 0.2265 -0.6887 0.6887
vn 0.1877 -0.1877 0.9641
vn 0.6887 -0.6887 0.2265
vn 0.9641 -0.1877 0.1877
vn 0.6887 -0.2265 0.6887
vn 0.1951 -0.0000 -0.9808
vn 0.9239 0.0000 -0.3827
vn 0.1951 0.0000 0.9808
vn 0.9808 0.0000 -0.1951
vn 0.3827 0.0000 0.9239
vn 0.9808 -0.0000 0.1951
vn 0.3827 0.0000 -0.9239
vn 0.9239 0.0000 0.3827
vn -1.0000 0.0000 0.0000
vn -1.0000 0.0000 0.0000
vn -1.0000 0.0000 0.0000
vn -1.0000 0.0000 0.0000
vn -1.0000 0.0000 0.0000
vn -1.0000 0.0000 0.0000
vn -1.0000 0.0000 0.0000
vn -1.0000 0.0000 0.0000
vn -1.0000 0.0000 0.0000
vn -1.0000 0.0000 0.0000
vn 0.0000 -0.5878 -0.8090
vn 0.0000 -0.9511 -0.3090
vn 0.0000 -0.9511 -0.3090
vn -0.0000 0.0000 -1.0000
vn -0.0000 -0.5878 -0.8090
vn 0.0000 -0.9511 0.3090
vn -0.0000 -0.9511 0.3090
vn -0.0000 -0.5878 0.8090
vn 0.0000 -0.5878 0.8090
vn 0.0000 0.5878 -0.8090
vn 0.0000 0.0000 -1.0000
vn -0.0000 0.9511 -0.3090
vn -0.0000 0.5878 -0.8090
vn 0.0000 0.0000 1.0000
vn 0.0000 0.0000 1.0000
vn 0.0000 0.5878 0.8090
vn 0.0000 0.5878 0.8090
vn 0.0000 0.9511 0.3090
vn 0.0000 0.9511 -0.3090
vn 0.0000 0.9511 0.3090
vn 1.0000 0.0000 0.0000
vn 1.0000 0.0000 0.0000
vn 1.0000 0.0000 0.0000
vn 1.0000 0.0000 0.0000
vn 1.0000 0.0000 0.0000
vn 1.0000 0.0000 0.0000
vn 1.0000 0.0000 0.0000
vn 1.0000 0.0000 0.0000
vn 1.0000 0.0000 0.0000
vn 1.0000 0.0000 0.0000
vn 0.0000 -1.0000 0.0000
vn 0.0000 -1.0000 0.0000
vn 0.0000 -1.0000 0.0000
vn 0.0000 -1.0000 0.0000
vn 0.0000 -1.0000 0.0000
vn 0.0000 -1.0000 0.0000
vn 0.0000 -1.0000 0.0000
vn -0.8660 -0.0000 -0.5000
vn -1.0000 -0.0000 0.0000
vn -0.8660 -0.0000 -0.5000
vn -0.5000 -0.0000 -0.8660
vn -0.5000 0.0000 -0.8660
vn -0.8660 0.0000 0.5000
vn -1.0000 0.0000 0.0000
vn -0.5000 0.0000 0.8660
vn -0.8660 0.0000 0.5000
vn 0.0000 0.0000 -1.0000
vn 0.0000 -0.0000 -1.0000
vn 0.0000 0.0000 1.0000
vn -0.6028 0.0000 0.7979
vn -0.7071 -0.0000 0.7071
vn -0.7071 0.0000 0.7071
vn -0.2588 0.0000 0.9659
vn 0.0000 0.0000 1.0000
vn 0.0000 1.0000 0.0000
vn 0.0000 1.0000 0.0000
vn 0.0000 1.0000 0.0000
vn 0.0000 1.0000 0.0000
vn 0.0000 1.0000 0.0000
vn 0.0000 1.0000 0.0000
vn 0.0000 1.0000 0.0000
vn 0.0000 1.0000 0.0000
vn 0.0000 1.0000 0.0000
vn 0.0000 1.0000 0.0000
vn 0.0000 -1.0000 0.0000
vn 0.0000 -1.0000 0.0000
vn 0.0000 -1.0000 0.0000
vn 0.0000 -1.0000 0.0000
vn 0.0000 -1.0000 0.0000
vn 0.5000 -0.0000 -0.8660
vn 0.5000 0.0000 -0.8660
vn 0.8660 0.0000 -0.5000
vn 0.8660 0.0000 -0.5000
vn 0.5000 0.0000 0.8660
vn 0.8660 0.0000 0.5000
vn 0.6028 0.0000 0.7979
vn 1.0000 0.0000 0.0000
vn 1.0000 -0.0000 0.0000
vn 0.8660 -0.0000 0.5000
vn 0.7071 0.0000 0.7071
vn 0.7071 0.0000 0.7071
vn 0.2588 0.0000 0.9659
vn 0.0000 1.0000 0.0000
vn 0.0000 1.0000 0.0000
vn 0.0000 1.0000 0.0000
vn 0.0000 1.0000 0.0000
vn 0.0000 1.0000 0.0000
vn 0.0000 1.0000 0.0000
vn 0.0000 1.0000 0.0000
vn 0.0000 1.0000 0.0000
vn -0.8577 0.4924 -0.1480
vn -0.5774 0.5774 -0.5774
vn -0.8287 0.2993 -0.4729
vn -0.9585 0.2568 -0.1235
vn -0.9940 0.1090 0.0000
vn -0.4729 0.2993 -0.8287
vn -0.0000 0.4956 -0.8685
vn -0.0000 0.2588 -0.9659
vn -0.0000 0.8685 -0.4956
vn -0.4924 0.8577 -0.1480
vn -0.0000 0.9918 -0.1278
vn -0.8577 -0.4924 0.1480
vn -0.9047 -0.4260 -0.0000
vn -0.9918 0.0000 0.1278
vn -0.4924 -0.8577 0.1480
vn -0.7071 -0.7071 -0.0000
vn -0.5328 -0.8462 0.0000
vn -0.0000 -1.0000 -0.0000
vn -0.8577 0.4924 0.1480
vn -0.0000 0.9918 0.1278
vn -0.0000 -0.9918 0.1278
vn -0.4924 0.8577 0.1480
vn -0.5774 -0.5774 0.5774
vn -0.8685 0.0000 0.4956
vn -0.5774 0.5774 0.5774
vn -0.0000 -0.8685 0.4956
vn -0.0000 -0.4956 0.8685
vn -0.4956 0.0000 0.8685
vn -0.0000 0.4956 0.8685
vn -0.0000 0.0000 1.0000
vn -0.0000 0.8685 0.4956
vn 0.4729 0.2993 -0.8287
vn 0.5774 0.5774 -0.5774
vn 0.4924 0.8577 -0.1480
vn 0.8287 0.2993 -0.4729
vn 0.8577 0.4924 -0.1480
vn 0.9585 0.2568 -0.1235
vn 0.4924 -0.8577 0.1480
vn 0.5328 -0.8462 0.0000
vn 0.7071 -0.7071 -0.0000
vn 0.4924 0.8577 0.1480
vn 0.8577 0.4924 0.1480
vn 0.8577 -0.4924 0.1480
vn 0.9047 -0.4260 0.0000
vn 0.9940 0.1090 0.0000
vn 0.9918 0.0000 0.1278
vn 0.5774 -0.5774 0.5774
vn 0.4956 0.0000 0.8685
vn 0.5774 0.5774 0.5774
vn 0.8685 0.0000 0.4956
vn -0.5774 -0.5774 -0.5774
vn -0.3253 -0.7625 -0.5593
vn -0.2909 -0.7844 -0.5477
vn -0.4956 -0.0000 -0.8685
vn -0.5036 -0.3166 -0.8038
vn -0.4254 -0.3972 -0.8132
vn -0.8685 -0.4956 -0.0000
vn -0.4956 -0.8685 -0.0000
vn -0.5774 -0.5774 0.5774
vn -0.8685 -0.0000 -0.4956
vn -0.8685 -0.0000 0.4956
vn -0.1480 -0.8577 -0.4924
vn -0.1480 -0.8577 0.4924
vn -0.1480 -0.4924 0.8577
vn -0.4956 0.0000 0.8685
vn -0.5774 0.5774 -0.5774
vn -0.4489 0.0000 -0.8936
vn -0.5036 0.3166 -0.8038
vn -0.4254 0.3972 -0.8132
vn -0.3253 0.7625 -0.5593
vn -0.1480 0.8577 -0.4924
vn -1.0000 0.0000 0.0000
vn -0.8685 0.4956 -0.0000
vn -0.5774 0.5774 0.5774
vn -0.4956 0.8685 0.0000
vn -0.1480 0.4924 0.8577
vn -0.1480 0.8577 0.4924
vn -0.1336 -0.8042 -0.5791
vn -0.1469 -0.9465 -0.2873
vn -0.0197 -0.9718 -0.2349
vn -0.1278 -0.9918 -0.0000
vn -0.2909 0.7844 -0.5477
vn -0.1336 0.8042 -0.5791
vn -0.1469 0.9465 -0.2873
vn -0.1278 0.0000 0.9918
vn -0.1278 0.9918 -0.0000
vn -0.0197 0.9718 -0.2349
vn 0.1177 -0.9930 -0.0046
vn 0.0000 -0.7071 -0.7071
vn -0.1177 -0.9930 -0.0046
vn 0.1278 -0.9918 0.0000
vn 0.1480 -0.8577 0.4924
vn 0.1480 -0.4924 0.8577
vn -0.0000 0.7071 -0.7071
vn -0.0000 0.7071 -0.7071
vn 0.1177 0.9930 -0.0046
vn -0.1177 0.9930 -0.0046
vn -0.0000 0.7071 -0.7071
vn 0.1278 -0.0000 0.9918
vn 0.1278 0.9918 0.0000
vn 0.1480 0.8577 0.4924
vn 0.0000 -0.6005 -0.7997
vn 0.0000 -0.7071 -0.7071
vn 0.0000 -0.7071 -0.7071
vn 0.0000 -0.0000 -1.0000
vn 0.0000 -0.6005 -0.7997
vn -0.0000 0.6005 -0.7997
vn 0.0000 0.0000 -1.0000
vn 0.0000 0.6005 -0.7997
vn 0.0000 0.7071 -0.7071
vn 0.0000 -0.7071 -0.7071
vn 0.0197 -0.9718 -0.2349
vn 0.1480 0.4924 0.8577
vn 0.0197 0.9718 -0.2349
vn 0.1480 -0.8577 -0.4924
vn 0.1469 -0.9465 -0.2873
vn 0.1336 -0.8042 -0.5791
vn 0.2909 -0.7844 -0.5477
vn 0.3253 -0.7625 -0.5593
vn 0.4956 -0.8685 0.0000
vn 0.5774 -0.5774 0.5774
vn 0.1480 0.8577 -0.4924
vn 0.1469 0.9465 -0.2873
vn 0.1336 0.8042 -0.5791
vn 0.2909 0.7844 -0.5477
vn 0.5774 0.5774 -0.5774
vn 0.4956 -0.0000 0.8685
vn 0.4956 0.8685 0.0000
vn 0.5774 0.5774 0.5774
vn 0.5774 -0.5774 -0.5774
vn 0.5036 -0.3166 -0.8038
vn 0.4956 0.0000 -0.8685
vn 0.4254 -0.3972 -0.8132
vn 0.8685 -0.4956 0.0000
vn 0.8685 0.0000 -0.4956
vn 0.8685 0.0000 0.4956
vn 0.4489 0.0000 -0.8936
vn 0.5036 0.3166 -0.8038
vn 0.3253 0.7625 -0.5593
vn 0.4254 0.3972 -0.8132
vn 0.8685 0.4956 0.0000
vn 1.0000 0.0000 0.0000
vn -0.4518 -0.5831 -0.6752
vn -0.4652 -0.0000 -0.8852
vn 0.0105 -0.8652 -0.5013
vn -0.4518 0.5831 -0.6752
vn 0.0813 -0.9950 -0.0581
vn 0.0105 0.8652 -0.5013
vn 0.2960 -0.8939 0.3367
vn 0.4105 -0.7673 0.4926
vn 0.2352 -0.9301 0.2822
vn 0.6341 -0.5794 0.5121
vn 0.6135 -0.2859 0.7362
vn 0.2960 0.8939 0.3367
vn 0.2352 0.9301 0.2822
vn 0.4105 0.7673 0.4926
vn 0.6341 0.5794 0.5121
vn 0.6135 0.2859 0.7362
vn 0.0813 0.9950 -0.0581
vn 0.6402 -0.0000 0.7682
vn 0.6659 0.0000 0.7460
vn 0.0000 -0.4956 -0.8685
vn 0.5774 -0.5774 -0.5774
vn 0.4956 -0.8685 0.0000
vn 0.0000 0.0000 -1.0000
vn 0.0000 0.4956 -0.8685
vn 0.4956 0.0000 -0.8685
vn 0.5774 0.5774 -0.5774
vn 0.4956 0.8685 0.0000
vn 0.8685 -0.4956 -0.0000
vn 0.8685 0.0000 -0.4956
vn 0.8685 0.4956 -0.0000
vn 1.0000 0.0000 0.0000
vn 0.8685 0.0000 0.4956
vn -0.5774 -0.5774 -0.5774
vn -0.8685 -0.4956 0.0000
vn -0.8685 -0.0000 -0.4956
vn -0.4956 -0.8685 0.0000
vn -0.0105 -0.8652 -0.5013
vn -0.4956 0.0000 -0.8685
vn 0.0000 -0.4956 -0.8685
vn -1.0000 0.0000 0.0000
vn -0.8685 0.4956 0.0000
vn -0.5774 0.5774 -0.5774
vn 0.0000 0.4956 -0.8685
vn -0.4956 0.8685 0.0000
vn -0.0105 0.8652 -0.5013
vn -0.0813 -0.9950 -0.0581
vn 0.4518 -0.5831 -0.6752
vn 0.4652 0.0000 -0.8852
vn 0.0000 0.0000 -1.0000
vn -0.0813 0.9950 -0.0581
vn 0.4518 0.5831 -0.6752
vn -0.6341 -0.5794 0.5121
vn -0.8685 0.0000 0.4956
vn -0.2960 -0.8939 0.3367
vn -0.6341 0.5794 0.5121
vn -0.6659 0.0000 0.7460
vn -0.2960 0.8939 0.3367
vn -0.6135 -0.2859 0.7362
vn -0.4105 -0.7673 0.4926
vn -0.6402 -0.0000 0.7682
vn -0.4105 0.7673 0.4926
vn -0.2352 0.9301 0.2822
vn -0.6135 0.2859 0.7362
vn -0.2352 -0.9301 0.2822
vn -1.0000 0.0000 0.0000
vn -1.0000 0.0000 0.0000
vn -1.0000 0.0000 0.0000
vn -1.0000 0.0000 0.0000
vn -1.0000 0.0000 0.0000
vn -1.0000 0.0000 0.0000
vn 0.0000 0.1305 -0.9914
vn 0.0000 0.2588 -0.9659
vn -0.0000 0.2588 -0.9659
vn -0.0000 0.5000 -0.8660
vn -1.0000 0.0000 0.0000
vn -1.0000 0.0000 0.0000
vn -1.0000 0.0000 0.0000
vn -1.0000 0.0000 0.0000
vn -1.0000 0.0000 0.0000
vn 0.0000 0.7071 -0.7071
vn 0.0000 0.5000 -0.8660
vn 0.0000 0.8660 -0.5000
vn 0.0000 0.7071 -0.7071
vn 0.0000 0.9659 -0.2588
vn 0.0000 0.8660 -0.5000
vn -1.0000 0.0000 0.0000
vn -1.0000 0.0000 0.0000
vn -1.0000 0.0000 0.0000
vn -1.0000 0.0000 0.0000
vn -1.0000 0.0000 0.0000
vn -1.0000 0.0000 0.0000
vn -1.0000 0.0000 0.0000
vn -1.0000 0.0000 0.0000
vn -1.0000 0.0000 0.0000
vn -1.0000 0.0000 0.0000
vn -1.0000 0.0000 0.0000
vn -1.0000 0.0000 0.0000
vn -1.0000 0.0000 0.0000
vn -1.0000 0.0000 0.0000
vn 0.0000 0.1305 0.9914
vn -0.0000 0.1305 0.9914
vn 0.0000 0.2588 0.9659
vn 0.0000 0.5000 0.8660
vn -0.0000 0.5000 0.8660
vn -1.0000 0.0000 0.0000
vn -1.0000 0.0000 0.0000
vn -1.0000 0.0000 0.0000
vn -1.0000 0.0000 0.0000
vn -1.0000 0.0000 0.0000
vn -1.0000 0.0000 0.0000
vn -1.0000 0.0000 0.0000
vn -1.0000 0.0000 0.0000
vn 0.0000 0.7071 0.7071
vn -0.0000 0.7071 0.7071
vn 0.0000 0.8660 0.5000
vn 0.0000 0.9659 0.2588
vn 0.0000 0.9659 0.2588
vn 0.0000 0.8660 0.5000
vn -0.0000 0.9914 -0.1305
vn -0.0000 0.9659 -0.2588
vn 0.0000 0.9914 0.1305
vn 0.0000 0.9914 0.1305
vn 0.0000 0.1305 -0.9914
vn 1.0000 0.0000 0.0000
vn 1.0000 0.0000 0.0000
vn 1.0000 0.0000 0.0000
vn 1.0000 0.0000 0.0000
vn 1.0000 0.0000 0.0000
vn 1.0000 0.0000 0.0000
vn 1.0000 0.0000 0.0000
vn 1.0000 0.0000 0.0000
vn 1.0000 0.0000 0.0000
vn 1.0000 0.0000 0.0000
vn 1.0000 0.0000 0.0000
vn 1.0000 0.0000 0.0000
vn 1.0000 0.0000 0.0000
vn 1.0000 0.0000 0.0000
vn 1.0000 0.0000 0.0000
vn 1.0000 0.0000 0.0000
vn 1.0000 0.0000 0.0000
vn 1.0000 0.0000 0.0000
vn 1.0000 0.0000 0.0000
vn 0.0000 0.2588 0.9659
vn 1.0000 0.0000 0.0000
vn 1.0000 0.0000 0.0000
vn 1.0000 0.0000 0.0000
vn 1.0000 0.0000 0.0000
vn 1.0000 0.0000 0.0000
vn 1.0000 0.0000 0.0000
vn 1.0000 0.0000 0.0000
vn 1.0000 0.0000 0.0000
vn 1.0000 0.0000 0.0000
vn 1.0000 0.0000 0.0000
vn 1.0000 0.0000 0.0000
vn 1.0000 0.0000 0.0000
vn 1.0000 0.0000 0.0000
vn 1.0000 0.0000 0.0000
vn 0.0000 0.9914 -0.1305
vn 0.0000 -0.1305 0.9914
vn -0.0000 -0.1305 0.9914
vn -0.0000 -0.2588 0.9659
vn 0.0000 -0.2588 0.9659
vn 0.0000 -0.5000 0.8660
vn 0.0000 -0.5000 0.8660
vn 0.0000 -0.7071 0.7071
vn 0.0000 -0.7071 0.7071
vn 0.0000 -0.8660 0.5000
vn 0.0000 -0.8660 0.5000
vn 0.0000 -0.9659 0.2588
vn 0.0000 -0.9659 0.2588
vn 0.0000 -1.0000 -0.0000
vn -0.0000 -1.0000 0.0000
vn -0.0000 -0.9659 -0.2588
vn 0.0000 -0.1305 -0.9914
vn 0.0000 -0.2588 -0.9659
vn 0.0000 -0.2588 -0.9659
vn 0.0000 -0.5000 -0.8660
vn 0.0000 -0.5000 -0.8660
vn -0.0000 -0.7071 -0.7071
vn 0.0000 -0.7071 -0.7071
vn 0.0000 -0.8660 -0.5000
vn 0.0000 -0.9659 -0.2588
vn -0.0000 -0.8660 -0.5000
vn 0.0000 -0.1305 -0.9914
vn 0.0000 -1.0000 0.0000
vn 0.0000 -1.0000 0.0000
vn 0.0000 -1.0000 0.0000
vn 0.0000 -1.0000 0.0000
vn 0.0000 -1.0000 0.0000
vn 0.0000 -1.0000 0.0000
vn 0.0000 -1.0000 0.0000
vn 0.0000 -1.0000 0.0000
f 1//1 2//2 3//3
f 4//4 5//5 6//6
f 7//7 6//6 5//5
f 1//1 4//4 6//6
f 4//4 8//8 5//5
f 7//7 9//9 10//10
f 7//7 11//11 9//9
f 7//7 5//5 12//12
f 5//5 8//8 13//13
f 7//7 14//14 11//11
f 7//7 12//12 14//14
f 1//1 6//6 2//2
f 7//7 2//2 6//6
f 7//7 10//10 15//15
f 7//7 15//15 2//2
f 15//15 10//10 16//16
f 15//15 16//16 17//17
f 15//15 17//17 18//18
f 15//15 18//18 19//19
f 15//15 19//19 20//20
f 5//5 21//21 12//12
f 8//8 22//22 13//13
f 12//12 23//23 14//14
f 12//12 24//24 23//23
f 24//24 20//20 25//25
f 19//19 26//26 20//20
f 26//26 25//25 20//20
f 12//12 20//20 24//24
f 2//2 27//27 28//28
f 15//15 27//27 2//2
f 3//3 2//2 28//28
f 28//28 27//27 29//29
f 15//15 30//30 27//27
f 27//27 31//31 29//29
f 15//15 20//20 30//30
f 27//27 32//32 31//31
f 29//29 31//31 33//33
f 1//1 34//34 35//35
f 1//1 36//36 34//34
f 1//1 3//3 36//36
f 34//34 36//36 37//37
f 1//1 35//35 4//4
f 4//4 35//35 8//8
f 8//8 35//35 38//38
f 34//34 39//39 35//35
f 35//35 40//40 38//38
f 35//35 39//39 40//40
f 39//39 41//41 40//40
f 8//8 38//38 22//22
f 34//34 37//37 39//39
f 39//39 42//42 41//41
f 39//39 37//37 42//42
f 38//38 43//43 22//22
f 38//38 40//40 44//44
f 40//40 41//41 45//45
f 38//38 44//44 43//43
f 41//41 42//42 45//45
f 3//3 46//46 36//36
f 3//3 28//28 46//46
f 28//28 29//29 46//46
f 29//29 47//47 46//46
f 36//36 46//46 37//37
f 46//46 47//47 48//48
f 37//37 46//46 48//48
f 37//37 48//48 42//42
f 29//29 33//33 47//47
f 47//47 33//33 49//49
f 42//42 48//48 50//50
f 47//47 51//51 48//48
f 52//52 53//53 54//54
f 54//54 53//53 55//55
f 56//56 53//53 57//57
f 58//58 59//59 60//60
f 61//61 60//60 62//62
f 63//63 53//53 64//64
f 64//64 53//53 52//52
f 63//63 64//64 65//65
f 66//66 63//63 65//65
f 56//56 55//55 53//53
f 56//56 57//57 58//58
f 58//58 60//60 61//61
f 56//56 67//67 55//55
f 56//56 68//68 67//67
f 56//56 69//69 68//68
f 58//58 70//70 71//71
f 56//56 58//58 71//71
f 58//58 61//61 70//70
f 70//70 72//72 71//71
f 66//66 65//65 73//73
f 66//66 73//73 74//74
f 56//56 66//66 69//69
f 56//56 71//71 66//66
f 71//71 72//72 75//75
f 66//66 76//76 69//69
f 66//66 74//74 77//77
f 66//66 77//77 76//76
f 71//71 75//75 66//66
f 72//72 78//78 75//75
f 79//79 80//80 63//63
f 81//81 82//82 83//83
f 66//66 79//79 63//63
f 79//79 81//81 83//83
f 66//66 75//75 79//79
f 75//75 84//84 79//79
f 79//79 84//84 81//81
f 75//75 78//78 84//84
f 44//44 62//62 43//43
f 40//40 85//85 44//44
f 40//40 45//45 85//85
f 42//42 50//50 45//45
f 61//61 62//62 44//44
f 61//61 86//86 70//70
f 70//70 86//86 72//72
f 61//61 44//44 86//86
f 44//44 85//85 86//86
f 85//85 87//87 86//86
f 85//85 45//45 87//87
f 86//86 87//87 88//88
f 45//45 50//50 87//87
f 87//87 50//50 89//89
f 87//87 89//89 90//90
f 72//72 86//86 88//88
f 72//72 88//88 78//78
f 87//87 90//90 88//88
f 78//78 88//88 90//90
f 47//47 49//49 91//91
f 47//47 91//91 51//51
f 48//48 51//51 50//50
f 91//91 49//49 82//82
f 81//81 91//91 82//82
f 81//81 84//84 91//91
f 84//84 92//92 91//91
f 84//84 90//90 92//92
f 91//91 92//92 51//51
f 50//50 51//51 89//89
f 89//89 51//51 92//92
f 89//89 92//92 90//90
f 84//84 78//78 90//90
f 93//93 94//94 95//95
f 95//95 96//96 97//97
f 93//93 95//95 97//97
f 93//93 97//97 98//98
f 97//97 96//96 99//99
f 97//97 100//100 98//98
f 97//97 99//99 100//100
f 98//98 100//100 101//101
f 93//93 102//102 94//94
f 93//93 98//98 103//103
f 93//93 104//104 102//102
f 93//93 103//103 104//104
f 104//104 105//105 102//102
f 104//104 106//106 105//105
f 104//104 103//103 106//106
f 105//105 106//106 107//107
f 98//98 108//108 103//103
f 98//98 101//101 108//108
f 103//103 109//109 106//106
f 106//106 109//109 107//107
f 103//103 108//108 109//109
f 107//107 109//109 110//110
f 94//94 111//111 95//95
f 95//95 112//112 96//96
f 96//96 113//113 99//99
f 94//94 102//102 114//114
f 102//102 105//105 115//115
f 105//105 107//107 116//116
f 107//107 110//110 117//117
f 95//95 111//111 118//118
f 96//96 112//112 113//113
f 99//99 113//113 119//119
f 94//94 114//114 111//111
f 102//102 115//115 114//114
f 105//105 116//116 120//120
f 107//107 117//117 116//116
f 100//100 99//99 121//121
f 100//100 122//122 101//101
f 100//100 121//121 122//122
f 122//122 121//121 123//123
f 101//101 122//122 124//124
f 122//122 123//123 124//124
f 101//101 124//124 108//108
f 123//123 125//125 124//124
f 108//108 124//124 109//109
f 109//109 126//126 110//110
f 109//109 124//124 126//126
f 124//124 125//125 126//126
f 99//99 119//119 121//121
f 121//121 127//127 123//123
f 123//123 128//128 125//125
f 110//110 126//126 129//129
f 126//126 125//125 130//130
f 121//121 119//119 131//131
f 123//123 127//127 128//128
f 125//125 128//128 130//130
f 110//110 129//129 117//117
f 126//126 130//130 132//132
f 133//133 134//134 135//135
f 135//135 134//134 136//136
f 134//134 137//137 136//136
f 135//135 136//136 138//138
f 133//133 135//135 139//139
f 135//135 138//138 140//140
f 135//135 141//141 139//139
f 135//135 140//140 141//141
f 139//139 141//141 142//142
f 141//141 143//143 142//142
f 141//141 140//140 143//143
f 142//142 143//143 144//144
f 133//133 145//145 134//134
f 134//134 146//146 137//137
f 133//133 139//139 147//147
f 139//139 142//142 148//148
f 142//142 144//144 149//149
f 134//134 145//145 150//150
f 137//137 146//146 151//151
f 133//133 147//147 145//145
f 139//139 148//148 147//147
f 142//142 149//149 152//152
f 136//136 137//137 153//153
f 136//136 154//154 138//138
f 136//136 153//153 154//154
f 138//138 154//154 155//155
f 154//154 153//153 156//156
f 154//154 157//157 155//155
f 154//154 156//156 157//157
f 157//157 156//156 158//158
f 138//138 159//159 140//140
f 138//138 155//155 159//159
f 140//140 160//160 143//143
f 143//143 160//160 144//144
f 140//140 159//159 160//160
f 144//144 160//160 161//161
f 155//155 157//157 162//162
f 157//157 158//158 163//163
f 155//155 162//162 159//159
f 157//157 163//163 162//162
f 159//159 162//162 160//160
f 160//160 164//164 161//161
f 160//160 162//162 164//164
f 162//162 163//163 164//164
f 137//137 151//151 153//153
f 153//153 165//165 156//156
f 156//156 166//166 158//158
f 144//144 161//161 167//167
f 158//158 168//168 163//163
f 161//161 164//164 169//169
f 164//164 163//163 170//170
f 153//153 151//151 165//165
f 156//156 165//165 171//171
f 158//158 166//166 168//168
f 144//144 167//167 149//149
f 163//163 168//168 170//170
f 161//161 169//169 167//167
f 164//164 170//170 172//172
f 173//173 174//174 175//175
f 173//173 175//175 176//176
f 175//175 174//174 177//177
f 174//174 178//178 177//177
f 178//178 179//179 180//180
f 179//179 181//181 182//182
f 178//178 180//180 177//177
f 179//179 182//182 180//180
f 183//183 184//184 185//185
f 183//183 186//186 187//187
f 185//185 188//188 189//189
f 189//189 190//190 191//191
f 186//186 192//192 193//193
f 192//192 194//194 195//195
f 191//191 196//196 197//197
f 197//197 198//198 199//199
f 194//194 200//200 201//201
f 200//200 199//199 202//202
f 183//183 187//187 184//184
f 185//185 184//184 188//188
f 189//189 188//188 190//190
f 191//191 190//190 196//196
f 186//186 193//193 187//187
f 192//192 195//195 193//193
f 197//197 196//196 198//198
f 199//199 198//198 202//202
f 194//194 201//201 195//195
f 200//200 202//202 201//201
f 203//203 204//204 205//205
f 203//203 206//206 204//204
f 204//204 207//207 205//205
f 205//205 207//207 208//208
f 208//208 209//209 210//210
f 210//210 211//211 212//212
f 208//208 207//207 209//209
f 210//210 209//209 211//211
f 213//213 214//214 215//215
f 213//213 215//215 216//216
f 214//214 217//217 215//215
f 214//214 218//218 217//217
f 217//217 218//218 219//219
f 220//220 221//221 222//222
f 220//220 223//223 224//224
f 221//221 225//225 226//226
f 225//225 227//227 228//228
f 224//224 229//229 230//230
f 227//227 231//231 232//232
f 220//220 222//222 223//223
f 221//221 226//226 222//222
f 225//225 228//228 226//226
f 227//227 233//233 234//234
f 227//227 234//234 228//228
f 224//224 223//223 229//229
f 227//227 232//232 233//233
f 231//231 235//235 232//232
f 231//231 236//236 235//235
f 237//237 238//238 239//239
f 237//237 240//240 241//241
f 237//237 239//239 240//240
f 237//237 242//242 243//243
f 237//237 243//243 238//238
f 243//243 244//244 238//238
f 241//241 240//240 245//245
f 241//241 245//245 246//246
f 218//218 247//247 219//219
f 247//247 248//248 219//219
f 247//247 249//249 248//248
f 249//249 250//250 248//248
f 249//249 251//251 250//250
f 230//230 252//252 253//253
f 253//253 254//254 255//255
f 256//256 257//257 258//258
f 255//255 259//259 260//260
f 260//260 261//261 257//257
f 231//231 256//256 236//236
f 230//230 229//229 252//252
f 253//253 252//252 254//254
f 255//255 254//254 259//259
f 257//257 262//262 258//258
f 257//257 263//263 262//262
f 257//257 261//261 263//263
f 260//260 259//259 261//261
f 256//256 264//264 236//236
f 256//256 258//258 264//264
f 246//246 245//245 265//265
f 265//265 245//245 266//266
f 265//265 266//266 267//267
f 265//265 267//267 268//268
f 268//268 267//267 269//269
f 268//268 269//269 270//270
f 270//270 269//269 271//271
f 268//268 270//270 272//272
f 273//273 274//274 275//275
f 273//273 276//276 277//277
f 273//273 275//275 276//276
f 274//274 278//278 275//275
f 274//274 279//279 278//278
f 279//279 280//280 278//278
f 274//274 281//281 279//279
f 274//274 282//282 281//281
f 273//273 282//282 274//274
f 281//281 282//282 283//283
f 284//284 277//277 285//285
f 273//273 277//277 286//286
f 287//287 285//285 288//288
f 287//287 288//288 289//289
f 287//287 289//289 290//290
f 273//273 291//291 282//282
f 282//282 292//292 283//283
f 284//284 286//286 277//277
f 273//273 286//286 291//291
f 284//284 285//285 287//287
f 287//287 290//290 293//293
f 282//282 291//291 294//294
f 282//282 294//294 292//292
f 284//284 295//295 296//296
f 284//284 296//296 286//286
f 286//286 296//296 291//291
f 296//296 297//297 291//291
f 284//284 287//287 295//295
f 287//287 293//293 298//298
f 287//287 298//298 295//295
f 295//295 298//298 299//299
f 295//295 299//299 300//300
f 296//296 295//295 300//300
f 296//296 300//300 297//297
f 291//291 297//297 294//294
f 300//300 301//301 297//297
f 299//299 302//302 300//300
f 300//300 302//302 301//301
f 294//294 297//297 303//303
f 294//294 303//303 292//292
f 297//297 301//301 303//303
f 279//279 304//304 280//280
f 279//279 305//305 304//304
f 279//279 281//281 305//305
f 281//281 306//306 305//305
f 305//305 307//307 304//304
f 281//281 283//283 306//306
f 305//305 306//306 308//308
f 305//305 308//308 307//307
f 308//308 309//309 307//307
f 310//310 290//290 311//311
f 310//310 311//311 312//312
f 283//283 313//313 306//306
f 306//306 314//314 308//308
f 315//315 312//312 316//316
f 308//308 314//314 309//309
f 314//314 317//317 309//309
f 318//318 316//316 317//317
f 293//293 290//290 310//310
f 310//310 312//312 315//315
f 283//283 292//292 313//313
f 306//306 313//313 314//314
f 315//315 316//316 318//318
f 318//318 317//317 314//314
f 293//293 310//310 298//298
f 298//298 310//310 319//319
f 298//298 319//319 299//299
f 299//299 319//319 320//320
f 310//310 315//315 319//319
f 299//299 320//320 302//302
f 302//302 320//320 301//301
f 301//301 320//320 321//321
f 292//292 303//303 313//313
f 303//303 321//321 313//313
f 303//303 301//301 321//321
f 319//319 322//322 320//320
f 320//320 322//322 321//321
f 313//313 321//321 314//314
f 319//319 315//315 322//322
f 315//315 318//318 322//322
f 322//322 318//318 314//314
f 321//321 322//322 314//314
f 323//323 324//324 325//325
f 323//323 326//326 327//327
f 323//323 328//328 324//324
f 323//323 327//327 328//328
f 329//329 323//323 330//330
f 329//329 330//330 331//331
f 329//329 332//332 323//323
f 329//329 331//331 333//333
f 330//330 323//323 334//334
f 330//330 335//335 331//331
f 331//331 336//336 337//337
f 323//323 332//332 326//326
f 332//332 338//338 326//326
f 326//326 339//339 327//327
f 326//326 338//338 340//340
f 326//326 340//340 339//339
f 338//338 341//341 340//340
f 338//338 342//342 341//341
f 338//338 343//343 342//342
f 329//329 344//344 332//332
f 329//329 333//333 344//344
f 332//332 344//344 345//345
f 344//344 333//333 345//345
f 332//332 345//345 338//338
f 331//331 337//337 333//333
f 345//345 333//333 346//346
f 333//333 337//337 346//346
f 345//345 347//347 338//338
f 345//345 346//346 347//347
f 337//337 348//348 346//346
f 338//338 347//347 343//343
f 347//347 346//346 349//349
f 323//323 325//325 334//334
f 334//334 325//325 350//350
f 334//334 351//351 352//352
f 334//334 350//350 351//351
f 330//330 334//334 353//353
f 330//330 353//353 335//335
f 331//331 335//335 336//336
f 334//334 352//352 353//353
f 343//343 354//354 342//342
f 343//343 355//355 354//354
f 343//343 356//356 355//355
f 337//337 336//336 357//357
f 337//337 357//357 348//348
f 347//347 358//358 343//343
f 347//347 349//349 358//358
f 346//346 348//348 349//349
f 343//343 358//358 356//356
f 358//358 359//359 356//356
f 360//360 361//361 362//362
f 353//353 352//352 363//363
f 353//353 364//364 335//335
f 335//335 365//365 336//336
f 336//336 365//365 357//357
f 363//363 352//352 360//360
f 366//366 367//367 368//368
f 368//368 359//359 369//369
f 366//366 370//370 367//367
f 357//357 371//371 348//348
f 358//358 372//372 359//359
f 349//349 348//348 373//373
f 358//358 349//349 373//373
f 374//374 375//375 376//376
f 362//362 361//361 376//376
f 374//374 377//377 378//378
f 377//377 379//379 380//380
f 379//379 370//370 366//366
f 374//374 378//378 375//375
f 381//381 380//380 379//379
f 377//377 380//380 378//378
f 368//368 382//382 366//366
f 379//379 366//366 381//381
f 376//376 375//375 383//383
f 360//360 362//362 384//384
f 376//376 383//383 362//362
f 353//353 363//363 364//364
f 335//335 364//364 365//365
f 368//368 369//369 382//382
f 357//357 365//365 371//371
f 348//348 371//371 385//385
f 369//369 359//359 386//386
f 372//372 386//386 359//359
f 358//358 373//373 372//372
f 348//348 385//385 373//373
f 363//363 360//360 384//384
f 387//387 388//388 389//389
f 387//387 389//389 390//390
f 387//387 390//390 391//391
f 363//363 384//384 388//388
f 387//387 363//363 388//388
f 387//387 392//392 363//363
f 363//363 392//392 364//364
f 364//364 393//393 365//365
f 394//394 395//395 386//386
f 394//394 396//396 395//395
f 394//394 397//397 396//396
f 394//394 398//398 397//397
f 394//394 386//386 372//372
f 365//365 399//399 371//371
f 371//371 399//399 385//385
f 394//394 372//372 400//400
f 372//372 373//373 400//400
f 373//373 385//385 401//401
f 387//387 391//391 402//402
f 402//402 403//403 404//404
f 402//402 391//391 405//405
f 402//402 405//405 403//403
f 387//387 402//402 392//392
f 364//364 392//392 393//393
f 365//365 393//393 399//399
f 392//392 402//402 406//406
f 392//392 406//406 393//393
f 402//402 407//407 406//406
f 406//406 408//408 393//393
f 404//404 403//403 409//409
f 404//404 409//409 410//410
f 404//404 410//410 398//398
f 398//398 411//411 397//397
f 398//398 410//410 412//412
f 398//398 412//412 411//411
f 402//402 404//404 407//407
f 404//404 398//398 407//407
f 385//385 399//399 401//401
f 394//394 400//400 398//398
f 373//373 401//401 400//400
f 398//398 413//413 407//407
f 406//406 407//407 414//414
f 406//406 414//414 408//408
f 407//407 413//413 414//414
f 414//414 413//413 408//408
f 393//393 408//408 399//399
f 399//399 408//408 401//401
f 413//413 401//401 408//408
f 398//398 400//400 413//413
f 400//400 401//401 413//413
f 415//415 325//325 324//324
f 415//415 324//324 328//328
f 416//416 328//328 327//327
f 417//417 350//350 325//325
f 416//416 327//327 339//339
f 416//416 339//339 340//340
f 418//418 340//340 341//341
f 418//418 341//341 342//342
f 418//418 342//342 354//354
f 418//418 354//354 355//355
f 419//419 351//351 350//350
f 420//420 355//355 356//356
f 415//415 328//328 416//416
f 415//415 417//417 325//325
f 421//421 422//422 423//423
f 424//424 425//425 422//422
f 418//418 416//416 340//340
f 426//426 427//427 428//428
f 429//429 428//428 430//430
f 419//419 352//352 351//351
f 421//421 360//360 352//352
f 421//421 423//423 360//360
f 431//431 356//356 359//359
f 431//431 359//359 368//368
f 426//426 368//368 427//427
f 417//417 419//419 350//350
f 419//419 421//421 352//352
f 424//424 432//432 425//425
f 418//418 355//355 420//420
f 420//420 356//356 431//431
f 433//433 430//430 432//432
f 431//431 368//368 426//426
f 421//421 424//424 422//422
f 426//426 428//428 429//429
f 433//433 429//429 430//430
f 424//424 433//433 432//432
f 415//415 416//416 434//434
f 415//415 434//434 417//417
f 417//417 434//434 435//435
f 417//417 436//436 419//419
f 434//434 416//416 437//437
f 416//416 438//438 437//437
f 418//418 438//438 416//416
f 418//418 420//420 438//438
f 434//434 437//437 439//439
f 437//437 438//438 439//439
f 438//438 420//420 440//440
f 420//420 431//431 441//441
f 417//417 435//435 436//436
f 434//434 439//439 435//435
f 435//435 442//442 436//436
f 435//435 443//443 442//442
f 438//438 440//440 439//439
f 435//435 439//439 443//443
f 439//439 440//440 443//443
f 420//420 441//441 440//440
f 440//440 441//441 444//444
f 440//440 444//444 443//443
f 443//443 445//445 442//442
f 443//443 444//444 445//445
f 419//419 436//436 421//421
f 431//431 426//426 441//441
f 421//421 436//436 424//424
f 436//436 442//442 424//424
f 424//424 442//442 446//446
f 424//424 446//446 433//433
f 433//433 446//446 429//429
f 426//426 429//429 441//441
f 441//441 429//429 444//444
f 429//429 446//446 444//444
f 442//442 445//445 446//446
f 446//446 445//445 444//444
f 447//447 448//448 449//449
f 447//447 450//450 448//448
f 447//447 451//451 450//450
f 447//447 452//452 453//453
f 449//449 448//448 454//454
f 449//449 454//454 455//455
f 449//449 455//455 456//456
f 447//447 449//449 452//452
f 449//449 456//456 452//452
f 452//452 456//456 457//457
f 456//456 455//455 458//458
f 456//456 458//458 459//459
f 447//447 453//453 451//451
f 451//451 460//460 450//450
f 451//451 453//453 461//461
f 453//453 462//462 461//461
f 452//452 463//463 453//453
f 452//452 457//457 463//463
f 456//456 459//459 457//457
f 459//459 458//458 464//464
f 453//453 463//463 462//462
f 463//463 457//457 462//462
f 457//457 465//465 462//462
f 457//457 459//459 465//465
f 448//448 466//466 467//467
f 448//448 450//450 466//466
f 466//466 450//450 468//468
f 448//448 467//467 454//454
f 454//454 467//467 455//455
f 467//467 469//469 455//455
f 466//466 470//470 467//467
f 467//467 470//470 469//469
f 455//455 469//469 458//458
f 469//469 471//471 458//458
f 450//450 460//460 468//468
f 458//458 471//471 464//464
f 466//466 472//472 470//470
f 466//466 468//468 473//473
f 470//470 474//474 469//469
f 469//469 475//475 471//471
f 451//451 388//388 460//460
f 451//451 461//461 389//389
f 460//460 384//384 468//468
f 459//459 464//464 396//396
f 464//464 471//471 476//476
f 470//470 472//472 474//474
f 469//469 474//474 477//477
f 466//466 473//473 472//472
f 468//468 478//478 473//473
f 462//462 409//409 461//461
f 462//462 465//465 409//409
f 459//459 397//397 465//465
f 469//469 477//477 475//475
f 471//471 475//475 476//476
f 451//451 389//389 388//388
f 464//464 476//476 369//369
f 464//464 395//395 396//396
f 468//468 362//362 478//478
f 460//460 388//388 384//384
f 468//468 384//384 362//362
f 464//464 369//369 386//386
f 464//464 386//386 395//395
f 461//461 390//390 389//389
f 461//461 391//391 390//390
f 461//461 405//405 391//391
f 461//461 403//403 405//405
f 461//461 409//409 403//403
f 459//459 396//396 397//397
f 465//465 410//410 409//409
f 465//465 397//397 411//411
f 465//465 412//412 410//410
f 465//465 411//411 412//412
f 479//479 480//480 481//481
f 480//480 482//482 481//481
f 482//482 483//483 481//481
f 481//481 483//483 484//484
f 485//485 486//486 487//487
f 486//486 488//488 487//487
f 484//484 483//483 489//489
f 484//484 489//489 490//490
f 489//489 491//491 490//490
f 490//490 491//491 492//492
f 491//491 493//493 492//492
f 488//488 494//494 495//495
f 494//494 496//496 497//497
f 496//496 498//498 499//499
f 492//492 493//493 500//500
f 493//493 501//501 500//500
f 500//500 501//501 502//502
f 493//493 503//503 504//504
f 493//493 504//504 505//505
f 493//493 505//505 501//501
f 503//503 506//506 504//504
f 503//503 507//507 506//506
f 508//508 509//509 510//510
f 510//510 509//509 511//511
f 509//509 512//512 511//511
f 510//510 511//511 513//513
f 514//514 515//515 516//516
f 516//516 517//517 518//518
f 513//513 511//511 519//519
f 513//513 519//519 520//520
f 521//521 522//522 507//507
f 507//507 523//523 506//506
f 507//507 524//524 523//523
f 507//507 522//522 524//524
f 522//522 525//525 524//524
f 521//521 526//526 522//522
f 520//520 526//526 521//521
f 520//520 519//519 526//526
f 527//527 518//518 528//528
f 529//529 530//530 531//531
f 527//527 532//532 529//529
f 498//498 533//533 534//534
f 531//531 535//535 536//536
f 485//485 487//487 537//537
f 488//488 495//495 487//487
f 538//538 539//539 540//540
f 540//540 539//539 541//541
f 541//541 539//539 542//542
f 541//541 542//542 543//543
f 494//494 497//497 495//495
f 496//496 499//499 497//497
f 542//542 544//544 543//543
f 543//543 544//544 545//545
f 545//545 544//544 546//546
f 545//545 546//546 547//547
f 547//547 546//546 548//548
f 498//498 534//534 499//499
f 547//547 548//548 549//549
f 549//549 548//548 550//550
f 548//548 551//551 550//550
f 549//549 552//552 553//553
f 549//549 554//554 552//552
f 549//549 550//550 554//554
f 553//553 552//552 555//555
f 553//553 555//555 556//556
f 516//516 515//515 557//557
f 516//516 557//557 517//517
f 558//558 559//559 560//560
f 558//558 561//561 562//562
f 558//558 562//562 559//559
f 561//561 563//563 562//562
f 529//529 532//532 530//530
f 527//527 528//528 532//532
f 563//563 564//564 562//562
f 564//564 565//565 562//562
f 556//556 555//555 566//566
f 556//556 566//566 567//567
f 556//556 567//567 568//568
f 568//568 567//567 569//569
f 556//556 568//568 570//570
f 571//571 556//556 570//570
f 564//564 571//571 565//565
f 571//571 570//570 565//565
f 518//518 517//517 528//528
f 534//534 533//533 572//572
f 531//531 530//530 535//535
f 573//573 574//574 575//575
f 575//575 576//576 577//577
f 577//577 578//578 579//579
f 579//579 580//580 581//581
f 581//581 582//582 583//583
f 583//583 584//584 585//585
f 585//585 586//586 587//587
f 588//588 589//589 590//590
f 589//589 591//591 592//592
f 591//591 593//593 594//594
f 595//595 587//587 596//596
f 593//593 595//595 597//597
f 575//575 574//574 576//576
f 577//577 576//576 578//578
f 579//579 578//578 580//580
f 581//581 580//580 582//582
f 583//583 582//582 584//584
f 585//585 584//584 586//586
f 587//587 586//586 596//596
f 588//588 590//590 598//598
f 589//589 592//592 590//590
f 591//591 594//594 592//592
f 593//593 597//597 594//594
f 595//595 596//596 597//597
f 599//599 600//600 601//601
f 602//602 603//603 604//604
f 599//599 605//605 600//600
f 602//602 606//606 603//603
