v -0.33750 0.43786 0.36750
v -0.36059 0.44941 0.36441
v -0.33750 0.45250 0.35286
v -0.35750 0.43786 0.38750
v -0.37214 0.45250 0.38750
v -0.36059 0.44941 0.41059
v -0.33750 0.43250 0.38750
v -0.33750 0.43786 0.40750
v -0.33750 0.45250 0.42214
v -0.37214 0.47250 0.36750
v -0.35750 0.47250 0.35286
v -0.33750 0.47250 0.34750
v -0.37214 0.47250 0.40750
v -0.37750 0.47250 0.38750
v -0.35750 0.47250 0.42214
v -0.33750 0.47250 0.42750
v -0.22500 0.45250 0.35286
v -0.22500 0.43786 0.36750
v -0.22500 0.43786 0.40750
v -0.22500 0.47250 0.42750
v -0.36059 0.49559 0.36441
v -0.33750 0.49250 0.35286
v -0.37214 0.49250 0.38750
v -0.36059 0.49559 0.41059
v -0.33750 0.49250 0.42214
v -0.33750 0.50714 0.36750
v -0.35750 0.50714 0.38750
v -0.33750 0.50714 0.40750
v -0.33750 0.51250 0.38750
v -0.22500 0.49250 0.35286
v -0.22500 0.49250 0.42214
v -0.22500 0.50714 0.36750
v -0.22500 0.51250 0.38750
v -0.22500 0.43250 0.38750
v -0.22500 0.45250 0.42214
v -0.22500 0.47250 0.34750
v -0.20191 0.44941 0.36441
v -0.20500 0.43786 0.38750
v -0.20191 0.44941 0.41059
v -0.19036 0.45250 0.38750
v -0.20500 0.47250 0.35286
v -0.19036 0.47250 0.36750
v -0.20500 0.47250 0.42214
v -0.19036 0.47250 0.40750
v -0.22500 0.50714 0.40750
v -0.20191 0.49559 0.36441
v -0.20191 0.49559 0.41059
v -0.19036 0.49250 0.38750
v -0.20500 0.50714 0.38750
v -0.18500 0.47250 0.38750
v 0.18500 0.47250 0.38750
v 0.19036 0.47250 0.36750
v 0.19036 0.45250 0.38750
v 0.19036 0.47250 0.40750
v 0.19036 0.49250 0.38750
v 0.20191 0.44941 0.36441
v 0.22500 0.45250 0.35286
v 0.22500 0.43786 0.36750
v 0.20500 0.43786 0.38750
v 0.20191 0.44941 0.41059
v 0.22500 0.43786 0.40750
v 0.22500 0.43250 0.38750
v 0.22500 0.45250 0.42214
v 0.20500 0.47250 0.35286
v 0.22500 0.47250 0.34750
v 0.20500 0.47250 0.42214
v 0.22500 0.47250 0.42750
v 0.33750 0.43786 0.36750
v 0.33750 0.43250 0.38750
v 0.33750 0.43786 0.40750
v 0.33750 0.47250 0.34750
v 0.33750 0.45250 0.42214
v 0.20191 0.49559 0.36441
v 0.22500 0.49250 0.35286
v 0.20191 0.49559 0.41059
v 0.22500 0.49250 0.42214
v 0.22500 0.50714 0.36750
v 0.20500 0.50714 0.38750
v 0.22500 0.50714 0.40750
v 0.22500 0.51250 0.38750
v 0.33750 0.49250 0.35286
v 0.33750 0.47250 0.42750
v 0.33750 0.50714 0.36750
v 0.33750 0.51250 0.38750
v 0.33750 0.50714 0.40750
v 0.33750 0.45250 0.35286
v 0.36059 0.44941 0.36441
v 0.35750 0.43786 0.38750
v 0.36059 0.44941 0.41059
v 0.37214 0.45250 0.38750
v 0.35750 0.47250 0.35286
v 0.37214 0.47250 0.36750
v 0.35750 0.47250 0.42214
v 0.37214 0.47250 0.40750
v 0.37750 0.47250 0.38750
v 0.33750 0.49250 0.42214
v 0.36059 0.49559 0.36441
v 0.36059 0.49559 0.41059
v 0.37214 0.49250 0.38750
v 0.35750 0.50714 0.38750
v -0.05303 0.19447 -0.48500
v -0.05303 0.19447 -0.42500
v -0.06929 0.21880 -0.42500
v -0.06929 0.21880 -0.48500
v -0.02870 0.17821 -0.48500
v -0.02870 0.17821 -0.42500
v 0.00000 0.17250 -0.48500
v 0.00000 0.17250 -0.42500
v -0.07500 0.24750 -0.42500
v -0.05303 0.19447 -0.48500
v -0.06929 0.21880 -0.48500
v -0.06929 0.27620 -0.48500
v -0.05303 0.19447 -0.42500
v -0.06929 0.27620 -0.42500
v -0.06929 0.21880 -0.42500
v -0.07500 0.24750 -0.48500
v -0.07500 0.24750 -0.48500
v -0.06929 0.27620 -0.42500
v -0.05303 0.30053 -0.48500
v -0.07500 0.24750 -0.42500
v -0.05303 0.30053 -0.42500
v -0.02870 0.17821 -0.48500
v 0.00000 0.17250 -0.48500
v -0.02870 0.31679 -0.48500
v -0.02870 0.17821 -0.42500
v 0.00000 0.17250 -0.42500
v -0.02870 0.31679 -0.42500
v -0.06929 0.27620 -0.48500
v -0.05303 0.30053 -0.42500
v -0.05303 0.30053 -0.48500
v 0.00000 0.32250 -0.48500
v 0.00000 0.32250 -0.42500
v -0.02870 0.31679 -0.42500
v -0.02870 0.31679 -0.48500
v 0.00000 0.32250 -0.48500
v 0.00000 0.32250 -0.42500
v 0.02870 0.17821 -0.48500
v 0.02870 0.17821 -0.42500
v 0.05303 0.19447 -0.48500
v 0.05303 0.19447 -0.42500
v 0.06929 0.21880 -0.48500
v 0.06929 0.21880 -0.42500
v 0.02870 0.17821 -0.48500
v 0.05303 0.19447 -0.48500
v 0.02870 0.31679 -0.48500
v 0.02870 0.17821 -0.42500
v 0.05303 0.19447 -0.42500
v 0.02870 0.31679 -0.42500
v 0.07500 0.24750 -0.48500
v 0.06929 0.21880 -0.48500
v 0.05303 0.30053 -0.48500
v 0.07500 0.24750 -0.42500
v 0.07500 0.24750 -0.48500
v 0.06929 0.27620 -0.48500
v 0.06929 0.27620 -0.48500
v 0.06929 0.21880 -0.42500
v 0.05303 0.30053 -0.42500
v 0.07500 0.24750 -0.42500
v 0.06929 0.27620 -0.42500
v 0.06929 0.27620 -0.42500
v 0.05303 0.30053 -0.48500
v 0.05303 0.30053 -0.42500
v 0.02870 0.31679 -0.48500
v 0.02870 0.31679 -0.42500
vn -0.1480 -0.8577 -0.4924
vn -0.5774 -0.5774 -0.5774
vn -0.1480 -0.4924 -0.8577
vn -0.4956 -0.8685 0.0000
vn -0.8685 -0.4956 0.0000
vn -0.5774 -0.5774 0.5774
vn -0.1278 -0.9918 -0.0000
vn -0.1480 -0.8577 0.4924
vn -0.1480 -0.4924 0.8577
vn -0.8685 0.0000 -0.4956
vn -0.4956 0.0000 -0.8685
vn -0.1278 0.0000 -0.9918
vn -0.8685 0.0000 0.4956
vn -1.0000 0.0000 0.0000
vn -0.4956 0.0000 0.8685
vn -0.1278 0.0000 0.9918
vn 0.1480 -0.4924 -0.8577
vn 0.1480 -0.8577 -0.4924
vn 0.1480 -0.8577 0.4924
vn 0.1278 -0.0000 0.9918
vn -0.5774 0.5774 -0.5774
vn -0.1480 0.4924 -0.8577
vn -0.8685 0.4956 -0.0000
vn -0.5774 0.5774 0.5774
vn -0.1480 0.4924 0.8577
vn -0.1480 0.8577 -0.4924
vn -0.4956 0.8685 -0.0000
vn -0.1480 0.8577 0.4924
vn -0.1278 0.9918 -0.0000
vn 0.1480 0.4924 -0.8577
vn 0.1480 0.4924 0.8577
vn 0.1480 0.8577 -0.4924
vn 0.1278 0.9918 0.0000
vn 0.1278 -0.9918 0.0000
vn 0.1480 -0.4924 0.8577
vn 0.1278 0.0000 -0.9918
vn 0.5774 -0.5774 -0.5774
vn 0.4956 -0.8685 0.0000
vn 0.5774 -0.5774 0.5774
vn 0.8685 -0.4956 0.0000
vn 0.4956 -0.0000 -0.8685
vn 0.8685 -0.0000 -0.4956
vn 0.4956 -0.0000 0.8685
vn 0.8685 -0.0000 0.4956
vn 0.1480 0.8577 0.4924
vn 0.5774 0.5774 -0.5774
vn 0.5774 0.5774 0.5774
vn 0.8685 0.4956 0.0000
vn 0.4956 0.8685 0.0000
vn 1.0000 0.0000 0.0000
vn -1.0000 0.0000 0.0000
vn -0.8685 -0.0000 -0.4956
vn -0.8685 -0.4956 0.0000
vn -0.8685 0.0000 0.4956
vn -0.8685 0.4956 -0.0000
vn -0.5774 -0.5774 -0.5774
vn -0.1480 -0.4924 -0.8577
vn -0.1480 -0.8577 -0.4924
vn -0.4956 -0.8685 0.0000
vn -0.5774 -0.5774 0.5774
vn -0.1480 -0.8577 0.4924
vn -0.1278 -0.9918 0.0000
vn -0.1480 -0.4924 0.8577
vn -0.4956 0.0000 -0.8685
vn -0.1278 0.0000 -0.9918
vn -0.4956 -0.0000 0.8685
vn -0.1278 -0.0000 0.9918
vn 0.1480 -0.8577 -0.4924
vn 0.1278 -0.9918 0.0000
vn 0.1480 -0.8577 0.4924
vn 0.1278 -0.0000 -0.9918
vn 0.1480 -0.4924 0.8577
vn -0.5774 0.5774 -0.5774
vn -0.1480 0.4924 -0.8577
vn -0.5774 0.5774 0.5774
vn -0.1480 0.4924 0.8577
vn -0.1480 0.8577 -0.4924
vn -0.4956 0.8685 0.0000
vn -0.1480 0.8577 0.4924
vn -0.1278 0.9918 0.0000
vn 0.1480 0.4924 -0.8577
vn 0.1278 0.0000 0.9918
vn 0.1480 0.8577 -0.4924
vn 0.1278 0.9918 0.0000
vn 0.1480 0.8577 0.4924
vn 0.1480 -0.4924 -0.8577
vn 0.5774 -0.5774 -0.5774
vn 0.4956 -0.8685 0.0000
vn 0.5774 -0.5774 0.5774
vn 0.8685 -0.4956 -0.0000
vn 0.4956 -0.0000 -0.8685
vn 0.8685 0.0000 -0.4956
vn 0.4956 0.0000 0.8685
vn 0.8685 0.0000 0.4956
vn 1.0000 0.0000 0.0000
vn 0.1480 0.4924 0.8577
vn 0.5774 0.5774 -0.5774
vn 0.5774 0.5774 0.5774
vn 0.8685 0.4956 0.0000
vn 0.4956 0.8685 0.0000
vn -0.7071 -0.7071 0.0000
vn -0.7071 -0.7071 -0.0000
vn -0.9239 -0.3827 0.0000
vn -0.9239 -0.3827 0.0000
vn -0.3827 -0.9239 -0.0000
vn -0.3827 -0.9239 0.0000
vn -0.0000 -1.0000 0.0000
vn 0.0000 -1.0000 0.0000
vn -1.0000 0.0000 0.0000
vn 0.0000 0.0000 -1.0000
vn 0.0000 0.0000 -1.0000
vn 0.0000 0.0000 -1.0000
vn 0.0000 0.0000 1.0000
vn 0.0000 0.0000 1.0000
vn 0.0000 0.0000 1.0000
vn -1.0000 -0.0000 0.0000
vn 0.0000 0.0000 -1.0000
vn -0.9239 0.3827 0.0000
vn 0.0000 0.0000 -1.0000
vn 0.0000 0.0000 1.0000
vn 0.0000 0.0000 1.0000
vn 0.0000 0.0000 -1.0000
vn 0.0000 0.0000 -1.0000
vn 0.0000 0.0000 -1.0000
vn 0.0000 0.0000 1.0000
vn 0.0000 0.0000 1.0000
vn 0.0000 0.0000 1.0000
vn -0.9239 0.3827 -0.0000
vn -0.7071 0.7071 -0.0000
vn -0.7071 0.7071 0.0000
vn 0.0000 0.0000 -1.0000
vn 0.0000 0.0000 1.0000
vn -0.3827 0.9239 0.0000
vn -0.3827 0.9239 0.0000
vn 0.0000 1.0000 0.0000
vn -0.0000 1.0000 0.0000
vn 0.3827 -0.9239 0.0000
vn 0.3827 -0.9239 0.0000
vn 0.7071 -0.7071 0.0000
vn 0.7071 -0.7071 -0.0000
vn 0.9239 -0.3827 -0.0000
vn 0.9239 -0.3827 0.0000
vn 0.0000 0.0000 -1.0000
vn 0.0000 0.0000 -1.0000
vn 0.0000 0.0000 -1.0000
vn 0.0000 0.0000 1.0000
vn 0.0000 0.0000 1.0000
vn 0.0000 0.0000 1.0000
vn 1.0000 0.0000 0.0000
vn 0.0000 0.0000 -1.0000
vn 0.0000 0.0000 -1.0000
vn 1.0000 -0.0000 -0.0000
vn 0.0000 0.0000 -1.0000
vn 0.0000 0.0000 -1.0000
vn 0.9239 0.3827 -0.0000
vn 0.0000 0.0000 1.0000
vn 0.0000 0.0000 1.0000
vn 0.0000 0.0000 1.0000
vn 0.0000 0.0000 1.0000
vn 0.9239 0.3827 0.0000
vn 0.7071 0.7071 0.0000
vn 0.7071 0.7071 -0.0000
vn 0.3827 0.9239 -0.0000
vn 0.3827 0.9239 0.0000
f 1//1 2//2 3//3
f 2//2 4//4 5//5
f 4//4 6//6 5//5
f 4//4 1//1 7//7
f 8//8 4//4 7//7
f 1//1 4//4 2//2
f 6//6 4//4 8//8
f 9//9 6//6 8//8
f 2//2 10//10 11//11
f 3//3 2//2 11//11
f 12//12 3//3 11//11
f 10//10 2//2 5//5
f 5//5 6//6 13//13
f 5//5 14//14 10//10
f 14//14 5//5 13//13
f 15//15 13//13 6//6
f 15//15 6//6 9//9
f 16//16 15//15 9//9
f 17//17 1//1 3//3
f 1//1 18//18 7//7
f 19//19 8//8 7//7
f 19//19 9//9 8//8
f 12//12 17//17 3//3
f 16//16 9//9 20//20
f 21//21 11//11 10//10
f 12//12 11//11 22//22
f 11//11 21//21 22//22
f 23//23 10//10 14//14
f 13//13 23//23 14//14
f 24//24 13//13 15//15
f 23//23 21//21 10//10
f 24//24 23//23 13//13
f 16//16 25//25 15//15
f 25//25 24//24 15//15
f 21//21 26//26 22//22
f 21//21 23//23 27//27
f 27//27 23//23 24//24
f 28//28 24//24 25//25
f 26//26 21//21 27//27
f 29//29 26//26 27//27
f 29//29 27//27 28//28
f 27//27 24//24 28//28
f 30//30 12//12 22//22
f 16//16 31//31 25//25
f 30//30 22//22 26//26
f 31//31 28//28 25//25
f 29//29 32//32 26//26
f 33//33 29//29 28//28
f 18//18 1//1 17//17
f 7//7 18//18 34//34
f 19//19 7//7 34//34
f 9//9 19//19 35//35
f 17//17 12//12 36//36
f 9//9 35//35 20//20
f 17//17 37//37 18//18
f 18//18 38//38 34//34
f 38//38 19//19 34//34
f 19//19 39//39 35//35
f 37//37 38//38 18//18
f 38//38 37//37 40//40
f 39//39 38//38 40//40
f 19//19 38//38 39//39
f 41//41 17//17 36//36
f 41//41 37//37 17//17
f 41//41 42//42 37//37
f 20//20 35//35 43//43
f 42//42 40//40 37//37
f 39//39 43//43 35//35
f 44//44 39//39 40//40
f 39//39 44//44 43//43
f 36//36 12//12 30//30
f 31//31 16//16 20//20
f 32//32 30//30 26//26
f 32//32 29//29 33//33
f 45//45 28//28 31//31
f 33//33 28//28 45//45
f 41//41 36//36 30//30
f 41//41 46//46 42//42
f 46//46 41//41 30//30
f 43//43 31//31 20//20
f 43//43 44//44 47//47
f 46//46 48//48 42//42
f 43//43 47//47 31//31
f 44//44 48//48 47//47
f 32//32 46//46 30//30
f 31//31 47//47 45//45
f 32//32 33//33 49//49
f 33//33 45//45 49//49
f 48//48 46//46 49//49
f 49//49 47//47 48//48
f 46//46 32//32 49//49
f 45//45 47//47 49//49
f 42//42 50//50 40//40
f 50//50 44//44 40//40
f 42//42 48//48 50//50
f 44//44 50//50 48//48
f 51//51 52//52 53//53
f 53//53 54//54 51//51
f 52//52 51//51 55//55
f 54//54 55//55 51//51
f 56//56 57//57 58//58
f 53//53 56//56 59//59
f 60//60 53//53 59//59
f 56//56 58//58 59//59
f 61//61 60//60 59//59
f 62//62 59//59 58//58
f 59//59 62//62 61//61
f 61//61 63//63 60//60
f 57//57 56//56 64//64
f 56//56 52//52 64//64
f 65//65 57//57 64//64
f 52//52 56//56 53//53
f 60//60 54//54 53//53
f 63//63 66//66 60//60
f 66//66 54//54 60//60
f 66//66 63//63 67//67
f 57//57 68//68 58//58
f 68//68 62//62 58//58
f 62//62 69//69 61//61
f 70//70 63//63 61//61
f 71//71 57//57 65//65
f 67//67 63//63 72//72
f 64//64 52//52 73//73
f 73//73 74//74 64//64
f 65//65 64//64 74//74
f 66//66 75//75 54//54
f 55//55 73//73 52//52
f 75//75 55//55 54//54
f 66//66 76//76 75//75
f 76//76 66//66 67//67
f 73//73 77//77 74//74
f 78//78 73//73 55//55
f 75//75 78//78 55//55
f 77//77 73//73 78//78
f 78//78 75//75 79//79
f 76//76 79//79 75//75
f 77//77 78//78 80//80
f 78//78 79//79 80//80
f 81//81 65//65 74//74
f 76//76 67//67 82//82
f 77//77 83//83 74//74
f 84//84 77//77 80//80
f 80//80 79//79 84//84
f 79//79 76//76 85//85
f 57//57 86//86 68//68
f 62//62 68//68 69//69
f 61//61 69//69 70//70
f 72//72 63//63 70//70
f 57//57 71//71 86//86
f 72//72 82//82 67//67
f 87//87 68//68 86//86
f 68//68 88//88 69//69
f 69//69 88//88 70//70
f 87//87 88//88 68//68
f 89//89 70//70 88//88
f 89//89 72//72 70//70
f 88//88 87//87 90//90
f 89//89 88//88 90//90
f 91//91 87//87 86//86
f 71//71 91//91 86//86
f 87//87 91//91 92//92
f 89//89 93//93 72//72
f 72//72 93//93 82//82
f 92//92 90//90 87//87
f 89//89 90//90 94//94
f 92//92 95//95 90//90
f 90//90 95//95 94//94
f 89//89 94//94 93//93
f 71//71 65//65 81//81
f 76//76 82//82 96//96
f 74//74 83//83 81//81
f 85//85 76//76 96//96
f 77//77 84//84 83//83
f 84//84 79//79 85//85
f 71//71 81//81 91//91
f 91//91 81//81 97//97
f 91//91 97//97 92//92
f 82//82 93//93 96//96
f 98//98 96//96 93//93
f 92//92 99//99 95//95
f 99//99 94//94 95//95
f 94//94 98//98 93//93
f 97//97 99//99 92//92
f 98//98 94//94 99//99
f 81//81 83//83 97//97
f 96//96 98//98 85//85
f 97//97 83//83 100//100
f 84//84 100//100 83//83
f 100//100 84//84 85//85
f 98//98 100//100 85//85
f 97//97 100//100 99//99
f 100//100 98//98 99//99
f 101//101 102//102 103//103
f 104//104 101//101 103//103
f 101//101 105//105 102//102
f 105//105 106//106 102//102
f 105//105 107//107 106//106
f 107//107 108//108 106//106
f 104//104 103//103 109//109
f 110//110 111//111 112//112
f 113//113 114//114 115//115
f 116//116 104//104 109//109
f 111//111 117//117 112//112
f 116//116 109//109 118//118
f 110//110 112//112 119//119
f 115//115 114//114 120//120
f 113//113 121//121 114//114
f 122//122 110//110 119//119
f 123//123 122//122 124//124
f 125//125 121//121 113//113
f 126//126 127//127 125//125
f 128//128 116//116 118//118
f 128//128 118//118 129//129
f 130//130 128//128 129//129
f 122//122 119//119 124//124
f 123//123 124//124 131//131
f 125//125 127//127 121//121
f 126//126 132//132 127//127
f 130//130 129//129 133//133
f 134//134 130//130 133//133
f 135//135 134//134 136//136
f 134//134 133//133 136//136
f 107//107 137//137 108//108
f 137//137 138//138 108//108
f 137//137 139//139 138//138
f 139//139 140//140 138//138
f 139//139 141//141 140//140
f 141//141 142//142 140//140
f 143//143 123//123 131//131
f 144//144 143//143 145//145
f 146//146 132//132 126//126
f 147//147 148//148 146//146
f 141//141 149//149 142//142
f 150//150 144//144 151//151
f 149//149 152//152 142//142
f 153//153 150//150 154//154
f 149//149 155//155 152//152
f 156//156 157//157 147//147
f 158//158 159//159 156//156
f 143//143 131//131 145//145
f 144//144 145//145 151//151
f 146//146 148//148 132//132
f 147//147 157//157 148//148
f 150//150 151//151 154//154
f 155//155 160//160 152//152
f 156//156 159//159 157//157
f 155//155 161//161 160//160
f 161//161 162//162 160//160
f 163//163 135//135 164//164
f 135//135 136//136 164//164
f 161//161 163//163 162//162
f 163//163 164//164 162//162
