v -0.24800 -0.06150 -0.42050
v -0.24800 0.00650 -0.42050
v -0.24361 0.00650 -0.43111
v -0.24800 0.00650 -0.20450
v -0.24361 -0.07211 -0.20450
v -0.24800 -0.06150 -0.20450
v -0.24361 -0.07211 -0.42050
v -0.23300 -0.07211 -0.43111
v -0.23300 -0.07650 -0.42050
v -0.24361 -0.06150 -0.43111
v -0.21507 -0.07650 -0.37007
v -0.21800 -0.07650 -0.36300
v -0.20800 -0.07650 -0.37300
v -0.23300 -0.07650 -0.20450
v -0.23300 -0.06150 -0.43550
v -0.23300 0.00650 -0.43550
v -0.15200 -0.07650 -0.37300
v -0.14493 -0.07650 -0.37007
v -0.21800 -0.07650 -0.26200
v -0.21507 -0.07650 -0.25493
v -0.20800 -0.07650 -0.25200
v -0.15200 -0.07650 -0.25200
v -0.24361 0.00650 -0.19389
v -0.23300 -0.07211 -0.19389
v -0.24361 -0.06150 -0.19389
v -0.23300 -0.06150 -0.18950
v -0.23300 0.00650 -0.18950
v 0.23300 -0.07650 -0.42050
v 0.23300 -0.07650 -0.20450
v 0.23300 -0.06150 -0.43550
v 0.23300 0.00650 -0.43550
v -0.14200 -0.07650 -0.36300
v -0.14200 -0.07650 -0.26200
v -0.14493 -0.07650 -0.25493
v 0.23300 -0.06150 -0.18950
v -0.24361 0.01711 -0.20450
v -0.24361 0.01711 -0.42050
v -0.23300 0.01711 -0.43111
v -0.23300 0.02150 -0.42050
v -0.23300 0.02150 -0.20450
v -0.23300 0.01711 -0.19389
v 0.23300 0.02150 -0.42050
v 0.23300 0.01711 -0.19389
v 0.23300 0.02150 -0.20450
v 0.14493 -0.07650 -0.37007
v 0.14200 -0.07650 -0.36300
v 0.15200 -0.07650 -0.37300
v 0.14200 -0.07650 -0.26200
v 0.23300 -0.07211 -0.43111
v 0.14493 -0.07650 -0.25493
v 0.23300 -0.07211 -0.19389
v 0.23300 0.00650 -0.18950
v 0.20800 -0.07650 -0.37300
v 0.21507 -0.07650 -0.37007
v 0.21800 -0.07650 -0.36300
v 0.24361 -0.07211 -0.42050
v 0.24361 -0.06150 -0.43111
v 0.24800 -0.06150 -0.42050
v 0.24361 -0.07211 -0.20450
v 0.24361 0.00650 -0.43111
v 0.15200 -0.07650 -0.25200
v 0.20800 -0.07650 -0.25200
v 0.21800 -0.07650 -0.26200
v 0.21507 -0.07650 -0.25493
v 0.24800 0.00650 -0.42050
v 0.24800 -0.06150 -0.20450
v 0.24800 0.00650 -0.20450
v 0.24361 -0.06150 -0.19389
v 0.24361 0.00650 -0.19389
v 0.23300 0.01711 -0.43111
v 0.24361 0.01711 -0.42050
v 0.24361 0.01711 -0.20450
v -0.21507 -0.44357 -0.36300
v -0.21800 -0.43650 -0.36300
v -0.21507 -0.43650 -0.37007
v -0.20800 -0.43650 -0.37300
v -0.20800 -0.44357 -0.37007
v -0.20800 -0.44650 -0.36300
v -0.21800 -0.43650 -0.26200
v -0.20800 -0.44650 -0.26200
v -0.15200 -0.43650 -0.37300
v -0.15200 -0.44650 -0.36300
v -0.15200 -0.44357 -0.37007
v -0.21507 -0.44357 -0.26200
v -0.21507 -0.43650 -0.25493
v -0.20800 -0.44357 -0.25493
v -0.20800 -0.43650 -0.25200
v -0.15200 -0.44650 -0.26200
v -0.15200 -0.44357 -0.25493
v -0.15200 -0.43650 -0.25200
v -0.21800 -0.07650 -0.36300
v -0.21507 -0.07650 -0.37007
v -0.20800 -0.07650 -0.37300
v -0.21800 -0.07650 -0.26200
v -0.21507 -0.07650 -0.25493
v -0.20800 -0.07650 -0.25200
v -0.15200 -0.07650 -0.25200
v -0.21507 -0.07650 -0.37007
v -0.15200 -0.07650 -0.37300
v -0.21507 -0.07650 -0.25493
v -0.14493 -0.43650 -0.37007
v -0.14493 -0.44357 -0.36300
v -0.14200 -0.43650 -0.36300
v -0.14200 -0.43650 -0.26200
v -0.14493 -0.44357 -0.26200
v -0.14493 -0.43650 -0.25493
v -0.14493 -0.07650 -0.37007
v -0.14200 -0.07650 -0.36300
v -0.14493 -0.07650 -0.25493
v -0.14200 -0.07650 -0.26200
v -0.14493 -0.07650 -0.37007
v -0.14493 -0.07650 -0.25493
v 0.14200 -0.43650 -0.36300
v 0.14493 -0.44357 -0.36300
v 0.14200 -0.43650 -0.26200
v 0.14493 -0.43650 -0.37007
v 0.15200 -0.43650 -0.37300
v 0.15200 -0.44357 -0.37007
v 0.15200 -0.44650 -0.36300
v 0.15200 -0.44650 -0.26200
v 0.14493 -0.44357 -0.26200
v 0.15200 -0.44357 -0.25493
v 0.14493 -0.43650 -0.25493
v 0.15200 -0.43650 -0.25200
v 0.14200 -0.07650 -0.36300
v 0.14493 -0.07650 -0.37007
v 0.14200 -0.07650 -0.26200
v 0.14493 -0.07650 -0.25493
v 0.15200 -0.07650 -0.25200
v 0.15200 -0.07650 -0.37300
v 0.14493 -0.07650 -0.37007
v 0.14493 -0.07650 -0.25493
v 0.20800 -0.43650 -0.37300
v 0.20800 -0.44357 -0.37007
v 0.20800 -0.44650 -0.36300
v 0.21507 -0.43650 -0.37007
v 0.21507 -0.44357 -0.36300
v 0.21800 -0.43650 -0.36300
v 0.20800 -0.44650 -0.26200
v 0.21800 -0.43650 -0.26200
v 0.20800 -0.44357 -0.25493
v 0.20800 -0.43650 -0.25200
v 0.21507 -0.44357 -0.26200
v 0.21507 -0.43650 -0.25493
v 0.20800 -0.07650 -0.37300
v 0.21507 -0.07650 -0.37007
v 0.21800 -0.07650 -0.36300
v 0.20800 -0.07650 -0.25200
v 0.21507 -0.07650 -0.25493
v 0.21800 -0.07650 -0.26200
v 0.21507 -0.07650 -0.37007
v 0.21507 -0.07650 -0.25493
v -0.14000 -0.42013 -0.33677
v -0.14000 -0.43103 -0.32177
v -0.14000 -0.38487 -0.33677
v -0.14000 -0.40250 -0.34250
v -0.14000 -0.43103 -0.30323
v -0.14000 -0.37397 -0.32177
v -0.14000 -0.37397 -0.30323
v -0.14000 -0.42013 -0.28823
v -0.14000 -0.38487 -0.28823
v -0.14000 -0.40250 -0.28250
v -0.14000 -0.42013 -0.33677
v -0.14000 -0.40250 -0.34250
v 0.14000 -0.42013 -0.33677
v -0.14000 -0.38487 -0.33677
v 0.14000 -0.40250 -0.34250
v -0.14000 -0.37397 -0.32177
v 0.14000 -0.38487 -0.33677
v 0.14000 -0.43103 -0.32177
v -0.14000 -0.43103 -0.32177
v 0.14000 -0.43103 -0.30323
v -0.14000 -0.43103 -0.30323
v 0.14000 -0.42013 -0.28823
v -0.14000 -0.42013 -0.28823
v 0.14000 -0.40250 -0.28250
v -0.14000 -0.40250 -0.28250
v -0.14000 -0.37397 -0.30323
v 0.14000 -0.37397 -0.32177
v 0.14000 -0.38487 -0.28823
v -0.14000 -0.38487 -0.28823
v 0.14000 -0.37397 -0.30323
v 0.14000 -0.42013 -0.33677
v 0.14000 -0.38487 -0.33677
v 0.14000 -0.43103 -0.32177
v 0.14000 -0.40250 -0.34250
v 0.14000 -0.37397 -0.32177
v 0.14000 -0.43103 -0.30323
v 0.14000 -0.37397 -0.30323
v 0.14000 -0.42013 -0.28823
v 0.14000 -0.38487 -0.28823
v 0.14000 -0.40250 -0.28250
v -0.03031 0.02250 -0.33000
v -0.03031 0.02250 -0.29500
v -0.03500 0.02250 -0.31250
v -0.01750 0.02250 -0.34281
v -0.01750 0.02250 -0.28219
v 0.00000 0.02250 -0.34750
v 0.00000 0.02250 -0.27750
v -0.03031 0.02250 -0.33000
v -0.01750 0.39750 -0.34281
v -0.01750 0.02250 -0.34281
v 0.00000 0.39750 -0.34750
v 0.00000 0.02250 -0.34750
v -0.03500 0.02250 -0.31250
v -0.03031 0.39750 -0.33000
v -0.03031 0.02250 -0.29500
v -0.03500 0.39750 -0.31250
v -0.01750 0.02250 -0.28219
v -0.03031 0.39750 -0.29500
v 0.00000 0.02250 -0.27750
v -0.01750 0.37743 -0.28219
v -0.02382 0.38375 -0.28850
v -0.01375 0.37368 -0.28118
v 0.00000 0.37000 -0.27750
v -0.02750 0.39750 -0.29219
v -0.03031 0.39750 -0.33000
v -0.01375 0.39750 -0.33632
v -0.01750 0.39750 -0.34281
v -0.02382 0.39750 -0.32625
v 0.00000 0.39750 -0.34000
v 0.00000 0.39750 -0.34750
v -0.03500 0.39750 -0.31250
v -0.03031 0.39750 -0.29500
v -0.02750 0.39750 -0.31250
v -0.02750 0.39750 -0.29219
v 0.01750 0.02250 -0.34281
v 0.01750 0.02250 -0.28219
v 0.03031 0.02250 -0.33000
v 0.03500 0.02250 -0.31250
v 0.03031 0.02250 -0.29500
v 0.01750 0.39750 -0.34281
v 0.01750 0.02250 -0.34281
v 0.03031 0.39750 -0.33000
v 0.03031 0.02250 -0.33000
v 0.01750 0.02250 -0.28219
v 0.03500 0.39750 -0.31250
v 0.03500 0.02250 -0.31250
v 0.03031 0.02250 -0.29500
v 0.01750 0.37743 -0.28219
v 0.03031 0.39750 -0.29500
v 0.01375 0.37368 -0.28118
v 0.02382 0.38375 -0.28850
v 0.02750 0.39750 -0.29219
v 0.01750 0.39750 -0.34281
v 0.01375 0.39750 -0.33632
v 0.02382 0.39750 -0.32625
v 0.03031 0.39750 -0.33000
v 0.02750 0.39750 -0.31250
v 0.03031 0.39750 -0.29500
v 0.03500 0.39750 -0.31250
v 0.02750 0.39750 -0.29219
v -0.01588 0.41338 -0.32838
v -0.01375 0.39750 -0.33632
v -0.02382 0.39750 -0.32625
v 0.00000 0.41125 -0.33632
v 0.00000 0.39750 -0.34000
v 0.00000 0.42132 -0.32625
v -0.02382 0.41125 -0.31250
v -0.02750 0.39750 -0.31250
v -0.02750 0.39750 -0.29219
v -0.01375 0.42132 -0.31250
v 0.00000 0.42500 -0.31250
v -0.01375 0.42132 0.26250
v -0.02382 0.38375 0.26250
v -0.02382 0.38375 -0.28850
v -0.02750 0.39750 0.26250
v -0.01375 0.37368 0.26250
v -0.01750 0.37743 -0.28219
v -0.01375 0.37368 -0.28118
v 0.00000 0.37000 0.26250
v 0.00000 0.37000 -0.27750
v -0.02382 0.41125 0.26250
v 0.00000 0.42500 0.26250
v -0.02382 0.39750 0.27625
v -0.01588 0.38162 0.27838
v -0.01588 0.41338 0.27838
v -0.01375 0.39750 0.28632
v 0.00000 0.37368 0.27625
v 0.00000 0.38375 0.28632
v 0.00000 0.39750 0.29000
v 0.00000 0.42132 0.27625
v 0.00000 0.41125 0.28632
v 0.01375 0.39750 -0.33632
v 0.01588 0.41338 -0.32838
v 0.02382 0.39750 -0.32625
v 0.01375 0.42132 -0.31250
v 0.02382 0.41125 -0.31250
v 0.02750 0.39750 -0.31250
v 0.01375 0.42132 0.26250
v 0.02382 0.41125 0.26250
v 0.01375 0.37368 0.26250
v 0.01375 0.37368 -0.28118
v 0.01750 0.37743 -0.28219
v 0.02382 0.38375 0.26250
v 0.02382 0.38375 -0.28850
v 0.02750 0.39750 0.26250
v 0.02750 0.39750 -0.29219
v 0.01588 0.38162 0.27838
v 0.02382 0.39750 0.27625
v 0.01375 0.39750 0.28632
v 0.01588 0.41338 0.27838
v -0.32382 0.38375 0.38750
v -0.31588 0.38162 0.37162
v -0.31375 0.37368 0.38750
v -0.32382 0.39750 0.37375
v -0.31375 0.39750 0.36368
v -0.32750 0.39750 0.38750
v -0.30751 0.38307 0.36730
v -0.30670 0.38285 0.36703
v -0.30000 0.37368 0.37375
v -0.30654 0.39029 0.36368
v -0.30808 0.39750 0.36216
v -0.31588 0.38162 0.40338
v -0.32382 0.39750 0.40125
v -0.31375 0.39750 0.41132
v -0.30000 0.37368 0.40125
v -0.30000 0.38375 0.41132
v -0.31588 0.41338 0.37162
v -0.32382 0.41125 0.38750
v -0.31375 0.42132 0.38750
v -0.30654 0.40471 0.36368
v -0.30751 0.41193 0.36730
v -0.30670 0.41215 0.36703
v -0.30000 0.42132 0.37375
v -0.31588 0.41338 0.40338
v -0.30000 0.41125 0.41132
v -0.30000 0.42132 0.40125
v -0.30000 0.37950 0.36793
v -0.29590 0.37585 0.37158
v -0.30000 0.37000 0.38750
v -0.28880 0.37368 0.37375
v -0.28880 0.37250 0.37817
v -0.30000 0.39750 0.41500
v -0.30000 0.41550 0.36793
v -0.29590 0.41915 0.37158
v -0.30000 0.42500 0.38750
v -0.28880 0.42132 0.37375
v -0.28880 0.42250 0.37817
v 0.30000 0.37000 0.38750
v -0.27820 0.37368 0.37375
v -0.26590 0.37585 0.37158
v 0.27820 0.37368 0.37375
v 0.30000 0.37368 0.40125
v 0.30000 0.38375 0.41132
v 0.24049 0.41193 0.36437
v -0.26590 0.41915 0.37158
v -0.27820 0.42132 0.37375
v 0.27820 0.42132 0.37375
v 0.30000 0.42500 0.38750
v -0.24049 0.41193 0.36437
v 0.30000 0.39750 0.41500
v 0.30000 0.42132 0.40125
v -0.22852 0.39750 0.36000
v -0.23935 0.41125 0.36368
v 0.22852 0.39750 0.36000
v -0.23935 0.38375 0.36368
v 0.24049 0.38307 0.36437
v -0.24049 0.38307 0.36437
v 0.23935 0.38375 0.36368
v 0.23935 0.41125 0.36368
v 0.26590 0.41915 0.37158
v 0.26590 0.37585 0.37158
v 0.28880 0.37250 0.37817
v 0.28880 0.42250 0.37817
v 0.30000 0.41125 0.41132
v 0.30000 0.37368 0.37375
v 0.28880 0.37368 0.37375
v 0.29590 0.37585 0.37158
v 0.30000 0.37950 0.36793
v 0.30670 0.38285 0.36703
v 0.31375 0.37368 0.38750
v 0.31588 0.38162 0.40338
v 0.31375 0.39750 0.41132
v 0.30000 0.42132 0.37375
v 0.29590 0.41915 0.37158
v 0.28880 0.42132 0.37375
v 0.30000 0.41550 0.36793
v 0.31588 0.41338 0.37162
v 0.31375 0.42132 0.38750
v 0.31588 0.41338 0.40338
v 0.31588 0.38162 0.37162
v 0.30751 0.38307 0.36730
v 0.30654 0.39029 0.36368
v 0.31375 0.39750 0.36368
v 0.30808 0.39750 0.36216
v 0.32382 0.38375 0.38750
v 0.32382 0.39750 0.37375
v 0.32750 0.39750 0.38750
v 0.32382 0.39750 0.40125
v 0.30654 0.40471 0.36368
v 0.30751 0.41193 0.36730
v 0.30670 0.41215 0.36703
v 0.32382 0.41125 0.38750
v -0.16443 0.38307 0.24807
v -0.16250 0.39750 0.24085
v -0.16443 0.41193 0.24807
v -0.15000 0.41915 0.25000
v -0.15000 0.37585 0.25000
v -0.15000 0.37250 0.26250
v -0.15000 0.37585 0.27500
v -0.15000 0.42250 0.26250
v -0.15000 0.41915 0.27500
v -0.13557 0.38307 0.27693
v -0.24049 0.38307 0.36437
v -0.13750 0.39750 0.28415
v -0.22852 0.39750 0.36000
v -0.24049 0.41193 0.36437
v -0.13557 0.41193 0.27693
v -0.23935 0.41125 0.36368
v -0.26590 0.37585 0.37158
v -0.26590 0.41915 0.37158
v -0.23935 0.38375 0.36368
v -0.15000 0.38500 0.24085
v -0.15000 0.39750 0.23750
v -0.13557 0.38307 0.24807
v -0.13750 0.39750 0.24085
v -0.15000 0.41000 0.24085
v -0.13557 0.41193 0.24807
v -0.13750 0.37585 0.26250
v -0.12835 0.39750 0.25000
v -0.12835 0.38500 0.26250
v -0.13750 0.41915 0.26250
v -0.12835 0.41000 0.26250
v -0.12835 0.39750 0.27500
v -0.12500 0.39750 0.26250
v 0.12835 0.39750 0.25000
v 0.13557 0.38307 0.24807
v 0.12835 0.38500 0.26250
v 0.15000 0.37585 0.25000
v 0.13750 0.37585 0.26250
v 0.13750 0.39750 0.24085
v 0.15000 0.38500 0.24085
v 0.12835 0.41000 0.26250
v 0.13557 0.41193 0.24807
v 0.15000 0.41000 0.24085
v 0.13750 0.41915 0.26250
v 0.15000 0.41915 0.25000
v 0.15000 0.39750 0.23750
v 0.16443 0.38307 0.24807
v 0.16250 0.39750 0.24085
v 0.16443 0.41193 0.24807
v 0.12500 0.39750 0.26250
v 0.12835 0.39750 0.27500
v 0.13557 0.38307 0.27693
v 0.15000 0.37585 0.27500
v 0.13750 0.39750 0.28415
v 0.13557 0.41193 0.27693
v 0.15000 0.41915 0.27500
v 0.15000 0.37250 0.26250
v 0.15000 0.42250 0.26250
v 0.23935 0.38375 0.36368
v 0.24049 0.38307 0.36437
v 0.22852 0.39750 0.36000
v 0.24049 0.41193 0.36437
v 0.26590 0.41915 0.37158
v 0.23935 0.41125 0.36368
v 0.26590 0.37585 0.37158
vn -0.9641 -0.1877 -0.1877
vn -0.9641 0.1877 -0.1877
vn -0.6887 0.2265 -0.6887
vn -0.9641 0.1877 0.1877
vn -0.6887 -0.6887 0.2265
vn -0.9641 -0.1877 0.1877
vn -0.6887 -0.6887 -0.2265
vn -0.2265 -0.6887 -0.6887
vn -0.1877 -0.9641 -0.1877
vn -0.6887 -0.2265 -0.6887
vn 0.0000 -1.0000 0.0000
vn 0.0000 -1.0000 0.0000
vn 0.0000 -1.0000 0.0000
vn -0.1877 -0.9641 0.1877
vn -0.1877 -0.1877 -0.9641
vn -0.1877 0.1877 -0.9641
vn 0.0000 -1.0000 0.0000
vn 0.0000 -1.0000 0.0000
vn 0.0000 -1.0000 0.0000
vn 0.0000 -1.0000 0.0000
vn 0.0000 -1.0000 0.0000
vn 0.0000 -1.0000 0.0000
vn -0.6887 0.2265 0.6887
vn -0.2265 -0.6887 0.6887
vn -0.6887 -0.2265 0.6887
vn -0.1877 -0.1877 0.9641
vn -0.1877 0.1877 0.9641
vn 0.1877 -0.9641 -0.1877
vn 0.1877 -0.9641 0.1877
vn 0.1877 -0.1877 -0.9641
vn 0.1877 0.1877 -0.9641
vn 0.0000 -1.0000 0.0000
vn 0.0000 -1.0000 0.0000
vn 0.0000 -1.0000 0.0000
vn 0.1877 -0.1877 0.9641
vn -0.6887 0.6887 0.2265
vn -0.6887 0.6887 -0.2265
vn -0.2265 0.6887 -0.6887
vn -0.1877 0.9641 -0.1877
vn -0.1877 0.9641 0.1877
vn -0.2265 0.6887 0.6887
vn 0.1877 0.9641 -0.1877
vn 0.2265 0.6887 0.6887
vn 0.1877 0.9641 0.1877
vn 0.0000 -1.0000 0.0000
vn 0.0000 -1.0000 0.0000
vn 0.0000 -1.0000 0.0000
vn 0.0000 -1.0000 0.0000
vn 0.2265 -0.6887 -0.6887
vn 0.0000 -1.0000 0.0000
vn 0.2265 -0.6887 0.6887
vn 0.1877 0.1877 0.9641
vn 0.0000 -1.0000 0.0000
vn 0.0000 -1.0000 0.0000
vn 0.0000 -1.0000 0.0000
vn 0.6887 -0.6887 -0.2265
vn 0.6887 -0.2265 -0.6887
vn 0.9641 -0.1877 -0.1877
vn 0.6887 -0.6887 0.2265
vn 0.6887 0.2265 -0.6887
vn 0.0000 -1.0000 0.0000
vn 0.0000 -1.0000 0.0000
vn 0.0000 -1.0000 0.0000
vn 0.0000 -1.0000 0.0000
vn 0.9641 0.1877 -0.1877
vn 0.9641 -0.1877 0.1877
vn 0.9641 0.1877 0.1877
vn 0.6887 -0.2265 0.6887
vn 0.6887 0.2265 0.6887
vn 0.2265 0.6887 -0.6887
vn 0.6887 0.6887 -0.2265
vn 0.6887 0.6887 0.2265
vn -0.6887 -0.6887 -0.2265
vn -0.9641 -0.1877 -0.1877
vn -0.6887 -0.2265 -0.6887
vn -0.1877 -0.1877 -0.9641
vn -0.2265 -0.6887 -0.6887
vn -0.1877 -0.9641 -0.1877
vn -0.9641 -0.1877 0.1877
vn -0.1877 -0.9641 0.1877
vn 0.1877 -0.1877 -0.9641
vn 0.1877 -0.9641 -0.1877
vn 0.2265 -0.6887 -0.6887
vn -0.6887 -0.6887 0.2265
vn -0.6887 -0.2265 0.6887
vn -0.2265 -0.6887 0.6887
vn -0.1877 -0.1877 0.9641
vn 0.1877 -0.9641 0.1877
vn 0.2265 -0.6887 0.6887
vn 0.1877 -0.1877 0.9641
vn -0.9808 0.0000 -0.1951
vn -0.3827 0.0000 -0.9239
vn -0.1951 0.0000 -0.9808
vn -0.9808 0.0000 0.1951
vn -0.9239 0.0000 0.3827
vn -0.1951 -0.0000 0.9808
vn 0.1951 0.0000 0.9808
vn -0.9239 0.0000 -0.3827
vn 0.1951 -0.0000 -0.9808
vn -0.3827 0.0000 0.9239
vn 0.6887 -0.2265 -0.6887
vn 0.6887 -0.6887 -0.2265
vn 0.9641 -0.1877 -0.1877
vn 0.9641 -0.1877 0.1877
vn 0.6887 -0.6887 0.2265
vn 0.6887 -0.2265 0.6887
vn 0.9239 0.0000 -0.3827
vn 0.9808 0.0000 -0.1951
vn 0.3827 0.0000 0.9239
vn 0.9808 0.0000 0.1951
vn 0.3827 0.0000 -0.9239
vn 0.9239 0.0000 0.3827
vn -0.9641 -0.1877 -0.1877
vn -0.6887 -0.6887 -0.2265
vn -0.9641 -0.1877 0.1877
vn -0.6887 -0.2265 -0.6887
vn -0.1877 -0.1877 -0.9641
vn -0.2265 -0.6887 -0.6887
vn -0.1877 -0.9641 -0.1877
vn -0.1877 -0.9641 0.1877
vn -0.6887 -0.6887 0.2265
vn -0.2265 -0.6887 0.6887
vn -0.6887 -0.2265 0.6887
vn -0.1877 -0.1877 0.9641
vn -0.9808 -0.0000 -0.1951
vn -0.3827 0.0000 -0.9239
vn -0.9808 0.0000 0.1951
vn -0.9239 0.0000 0.3827
vn -0.1951 -0.0000 0.9808
vn -0.1951 0.0000 -0.9808
vn -0.9239 0.0000 -0.3827
vn -0.3827 0.0000 0.9239
vn 0.1877 -0.1877 -0.9641
vn 0.2265 -0.6887 -0.6887
vn 0.1877 -0.9641 -0.1877
vn 0.6887 -0.2265 -0.6887
vn 0.6887 -0.6887 -0.2265
vn 0.9641 -0.1877 -0.1877
vn 0.1877 -0.9641 0.1877
vn 0.9641 -0.1877 0.1877
vn 0.2265 -0.6887 0.6887
vn 0.1877 -0.1877 0.9641
vn 0.6887 -0.6887 0.2265
vn 0.6887 -0.2265 0.6887
vn 0.1951 -0.0000 -0.9808
vn 0.9239 0.0000 -0.3827
vn 0.9808 0.0000 -0.1951
vn 0.1951 0.0000 0.9808
vn 0.3827 0.0000 0.9239
vn 0.9808 -0.0000 0.1951
vn 0.3827 0.0000 -0.9239
vn 0.9239 0.0000 0.3827
vn -1.0000 0.0000 0.0000
vn -1.0000 0.0000 0.0000
vn -1.0000 0.0000 0.0000
vn -1.0000 0.0000 0.0000
vn -1.0000 0.0000 0.0000
vn -1.0000 0.0000 0.0000
vn -1.0000 0.0000 0.0000
vn -1.0000 0.0000 0.0000
vn -1.0000 0.0000 0.0000
vn -1.0000 0.0000 0.0000
vn 0.0000 -0.5878 -0.8090
vn 0.0000 -0.0000 -1.0000
vn 0.0000 -0.5878 -0.8090
vn -0.0000 0.5878 -0.8090
vn -0.0000 0.0000 -1.0000
vn -0.0000 0.9511 -0.3090
vn -0.0000 0.5878 -0.8090
vn 0.0000 -0.9511 -0.3090
vn 0.0000 -0.9511 -0.3090
vn 0.0000 -0.9511 0.3090
vn -0.0000 -0.9511 0.3090
vn -0.0000 -0.5878 0.8090
vn -0.0000 -0.5878 0.8090
vn -0.0000 -0.0000 1.0000
vn 0.0000 0.0000 1.0000
vn 0.0000 0.9511 0.3090
vn 0.0000 0.9511 -0.3090
vn 0.0000 0.5878 0.8090
vn 0.0000 0.5878 0.8090
vn 0.0000 0.9511 0.3090
vn 1.0000 0.0000 0.0000
vn 1.0000 0.0000 0.0000
vn 1.0000 0.0000 0.0000
vn 1.0000 0.0000 0.0000
vn 1.0000 0.0000 0.0000
vn 1.0000 0.0000 0.0000
vn 1.0000 0.0000 0.0000
vn 1.0000 0.0000 0.0000
vn 1.0000 0.0000 0.0000
vn 1.0000 0.0000 0.0000
vn 0.0000 -1.0000 0.0000
vn 0.0000 -1.0000 0.0000
vn 0.0000 -1.0000 0.0000
vn 0.0000 -1.0000 0.0000
vn 0.0000 -1.0000 0.0000
vn 0.0000 -1.0000 0.0000
vn 0.0000 -1.0000 0.0000
vn -0.8660 0.0000 -0.5000
vn -0.5000 0.0000 -0.8660
vn -0.5000 0.0000 -0.8660
vn 0.0000 0.0000 -1.0000
vn 0.0000 0.0000 -1.0000
vn -1.0000 0.0000 0.0000
vn -0.8660 0.0000 -0.5000
vn -0.8660 -0.0000 0.5000
vn -1.0000 -0.0000 0.0000
vn -0.5000 0.0000 0.8660
vn -0.8660 0.0000 0.5000
vn 0.0000 0.0000 1.0000
vn -0.6028 0.0000 0.7979
vn -0.7071 -0.0000 0.7071
vn -0.2588 0.0000 0.9659
vn 0.0000 0.0000 1.0000
vn -0.7071 0.0000 0.7071
vn 0.0000 1.0000 0.0000
vn 0.0000 1.0000 0.0000
vn 0.0000 1.0000 0.0000
vn 0.0000 1.0000 0.0000
vn 0.0000 1.0000 0.0000
vn 0.0000 1.0000 0.0000
vn 0.0000 1.0000 0.0000
vn 0.0000 1.0000 0.0000
vn 0.0000 1.0000 0.0000
vn 0.0000 1.0000 0.0000
vn 0.0000 -1.0000 0.0000
vn 0.0000 -1.0000 0.0000
vn 0.0000 -1.0000 0.0000
vn 0.0000 -1.0000 0.0000
vn 0.0000 -1.0000 0.0000
vn 0.5000 0.0000 -0.8660
vn 0.5000 0.0000 -0.8660
vn 0.8660 0.0000 -0.5000
vn 0.8660 0.0000 -0.5000
vn 0.5000 0.0000 0.8660
vn 1.0000 0.0000 0.0000
vn 1.0000 0.0000 0.0000
vn 0.8660 0.0000 0.5000
vn 0.6028 0.0000 0.7979
vn 0.8660 0.0000 0.5000
vn 0.2588 0.0000 0.9659
vn 0.7071 0.0000 0.7071
vn 0.7071 0.0000 0.7071
vn 0.0000 1.0000 0.0000
vn 0.0000 1.0000 0.0000
vn 0.0000 1.0000 0.0000
vn 0.0000 1.0000 0.0000
vn 0.0000 1.0000 0.0000
vn 0.0000 1.0000 0.0000
vn 0.0000 1.0000 0.0000
vn 0.0000 1.0000 0.0000
vn -0.5774 0.5774 -0.5774
vn -0.4729 0.2993 -0.8287
vn -0.8287 0.2993 -0.4729
vn -0.0000 0.4956 -0.8685
vn -0.0000 0.2588 -0.9659
vn -0.0000 0.8685 -0.4956
vn -0.8577 0.4924 -0.1480
vn -0.9585 0.2568 -0.1235
vn -0.9940 0.1090 0.0000
vn -0.4924 0.8577 -0.1480
vn -0.0000 0.9918 -0.1278
vn -0.4924 0.8577 0.1480
vn -0.8577 -0.4924 0.1480
vn -0.9047 -0.4260 -0.0000
vn -0.9918 0.0000 0.1278
vn -0.4924 -0.8577 0.1480
vn -0.7071 -0.7071 -0.0000
vn -0.5328 -0.8462 0.0000
vn -0.0000 -0.9918 0.1278
vn -0.0000 -1.0000 -0.0000
vn -0.8577 0.4924 0.1480
vn -0.0000 0.9918 0.1278
vn -0.8685 -0.0000 0.4956
vn -0.5774 -0.5774 0.5774
vn -0.5774 0.5774 0.5774
vn -0.4956 0.0000 0.8685
vn -0.0000 -0.8685 0.4956
vn -0.0000 -0.4956 0.8685
vn -0.0000 0.0000 1.0000
vn -0.0000 0.8685 0.4956
vn -0.0000 0.4956 0.8685
vn 0.4729 0.2993 -0.8287
vn 0.5774 0.5774 -0.5774
vn 0.8287 0.2993 -0.4729
vn 0.4924 0.8577 -0.1480
vn 0.8577 0.4924 -0.1480
vn 0.9585 0.2568 -0.1235
vn 0.4924 0.8577 0.1480
vn 0.8577 0.4924 0.1480
vn 0.4924 -0.8577 0.1480
vn 0.5328 -0.8462 0.0000
vn 0.7071 -0.7071 -0.0000
vn 0.8577 -0.4924 0.1480
vn 0.9047 -0.4260 0.0000
vn 0.9918 0.0000 0.1278
vn 0.9940 0.1090 0.0000
vn 0.5774 -0.5774 0.5774
vn 0.8685 0.0000 0.4956
vn 0.4956 -0.0000 0.8685
vn 0.5774 0.5774 0.5774
vn -0.8685 -0.4956 -0.0000
vn -0.5774 -0.5774 -0.5774
vn -0.4956 -0.8685 -0.0000
vn -0.8685 -0.0000 -0.4956
vn -0.4956 -0.0000 -0.8685
vn -1.0000 0.0000 0.0000
vn -0.4254 -0.3972 -0.8132
vn -0.3253 -0.7625 -0.5593
vn -0.1480 -0.8577 -0.4924
vn -0.5036 -0.3166 -0.8038
vn -0.4489 0.0000 -0.8936
vn -0.5774 -0.5774 0.5774
vn -0.8685 -0.0000 0.4956
vn -0.4956 0.0000 0.8685
vn -0.1480 -0.8577 0.4924
vn -0.1480 -0.4924 0.8577
vn -0.5774 0.5774 -0.5774
vn -0.8685 0.4956 -0.0000
vn -0.4956 0.8685 0.0000
vn -0.5036 0.3166 -0.8038
vn -0.4254 0.3972 -0.8132
vn -0.3253 0.7625 -0.5593
vn -0.1480 0.8577 -0.4924
vn -0.5774 0.5774 0.5774
vn -0.1480 0.4924 0.8577
vn -0.1480 0.8577 0.4924
vn -0.2909 -0.7844 -0.5477
vn -0.1336 -0.8042 -0.5791
vn -0.1278 -0.9918 -0.0000
vn -0.1469 -0.9465 -0.2873
vn -0.0197 -0.9718 -0.2349
vn -0.1278 0.0000 0.9918
vn -0.2909 0.7844 -0.5477
vn -0.1336 0.8042 -0.5791
vn -0.1278 0.9918 -0.0000
vn -0.1469 0.9465 -0.2873
vn -0.0197 0.9718 -0.2349
vn 0.1278 -0.9918 0.0000
vn 0.1177 -0.9930 -0.0046
vn 0.0000 -0.7071 -0.7071
vn -0.1177 -0.9930 -0.0046
vn 0.1480 -0.8577 0.4924
vn 0.1480 -0.4924 0.8577
vn -0.0000 0.7071 -0.7071
vn -0.0000 0.7071 -0.7071
vn 0.1177 0.9930 -0.0046
vn -0.1177 0.9930 -0.0046
vn 0.1278 0.9918 0.0000
vn -0.0000 0.7071 -0.7071
vn 0.1278 -0.0000 0.9918
vn 0.1480 0.8577 0.4924
vn 0.0000 -0.0000 -1.0000
vn -0.0000 0.6005 -0.7997
vn 0.0000 0.0000 -1.0000
vn 0.0000 -0.6005 -0.7997
vn 0.0000 -0.7071 -0.7071
vn 0.0000 -0.7071 -0.7071
vn 0.0000 -0.6005 -0.7997
vn 0.0000 0.6005 -0.7997
vn 0.0000 0.7071 -0.7071
vn 0.0000 -0.7071 -0.7071
vn 0.0197 -0.9718 -0.2349
vn 0.0197 0.9718 -0.2349
vn 0.1480 0.4924 0.8577
vn 0.1480 -0.8577 -0.4924
vn 0.1469 -0.9465 -0.2873
vn 0.1336 -0.8042 -0.5791
vn 0.2909 -0.7844 -0.5477
vn 0.3253 -0.7625 -0.5593
vn 0.4956 -0.8685 0.0000
vn 0.5774 -0.5774 0.5774
vn 0.4956 -0.0000 0.8685
vn 0.1480 0.8577 -0.4924
vn 0.1336 0.8042 -0.5791
vn 0.1469 0.9465 -0.2873
vn 0.2909 0.7844 -0.5477
vn 0.5774 0.5774 -0.5774
vn 0.4956 0.8685 0.0000
vn 0.5774 0.5774 0.5774
vn 0.5774 -0.5774 -0.5774
vn 0.4254 -0.3972 -0.8132
vn 0.5036 -0.3166 -0.8038
vn 0.4956 0.0000 -0.8685
vn 0.4489 0.0000 -0.8936
vn 0.8685 -0.4956 0.0000
vn 0.8685 0.0000 -0.4956
vn 1.0000 0.0000 0.0000
vn 0.8685 0.0000 0.4956
vn 0.5036 0.3166 -0.8038
vn 0.4254 0.3972 -0.8132
vn 0.3253 0.7625 -0.5593
vn 0.8685 0.4956 0.0000
vn -0.4518 -0.5831 -0.6752
vn -0.4652 -0.0000 -0.8852
vn -0.4518 0.5831 -0.6752
vn 0.0105 0.8652 -0.5013
vn 0.0105 -0.8652 -0.5013
vn 0.0813 -0.9950 -0.0581
vn 0.2960 -0.8939 0.3367
vn 0.0813 0.9950 -0.0581
vn 0.2960 0.8939 0.3367
vn 0.6341 -0.5794 0.5121
vn 0.4105 -0.7673 0.4926
vn 0.6659 0.0000 0.7460
vn 0.6402 -0.0000 0.7682
vn 0.4105 0.7673 0.4926
vn 0.6341 0.5794 0.5121
vn 0.6135 0.2859 0.7362
vn 0.2352 -0.9301 0.2822
vn 0.2352 0.9301 0.2822
vn 0.6135 -0.2859 0.7362
vn 0.0000 -0.4956 -0.8685
vn 0.0000 0.0000 -1.0000
vn 0.5774 -0.5774 -0.5774
vn 0.4956 0.0000 -0.8685
vn 0.0000 0.4956 -0.8685
vn 0.5774 0.5774 -0.5774
vn 0.4956 -0.8685 0.0000
vn 0.8685 0.0000 -0.4956
vn 0.8685 -0.4956 -0.0000
vn 0.4956 0.8685 -0.0000
vn 0.8685 0.4956 -0.0000
vn 0.8685 0.0000 0.4956
vn 1.0000 0.0000 0.0000
vn -0.8685 -0.0000 -0.4956
vn -0.5774 -0.5774 -0.5774
vn -0.8685 -0.4956 0.0000
vn -0.0105 -0.8652 -0.5013
vn -0.4956 -0.8685 0.0000
vn -0.4956 0.0000 -0.8685
vn 0.0000 -0.4956 -0.8685
vn -0.8685 0.4956 0.0000
vn -0.5774 0.5774 -0.5774
vn 0.0000 0.4956 -0.8685
vn -0.4956 0.8685 0.0000
vn -0.0105 0.8652 -0.5013
vn 0.0000 0.0000 -1.0000
vn 0.4518 -0.5831 -0.6752
vn 0.4652 0.0000 -0.8852
vn 0.4518 0.5831 -0.6752
vn -1.0000 0.0000 0.0000
vn -0.8685 0.0000 0.4956
vn -0.6341 -0.5794 0.5121
vn -0.2960 -0.8939 0.3367
vn -0.6659 -0.0000 0.7460
vn -0.6341 0.5794 0.5121
vn -0.2960 0.8939 0.3367
vn -0.0813 -0.9950 -0.0581
vn -0.0813 0.9950 -0.0581
vn -0.6135 -0.2859 0.7362
vn -0.4105 -0.7673 0.4926
vn -0.6402 -0.0000 0.7682
vn -0.4105 0.7673 0.4926
vn -0.2352 0.9301 0.2822
vn -0.6135 0.2859 0.7362
vn -0.2352 -0.9301 0.2822
f 1//1 2//2 3//3
f 1//1 4//4 2//2
f 1//1 5//5 6//6
f 1//1 6//6 4//4
f 7//7 8//8 9//9
f 7//7 10//10 8//8
f 9//9 11//11 12//12
f 9//9 13//13 11//11
f 1//1 7//7 5//5
f 7//7 9//9 5//5
f 9//9 12//12 14//14
f 1//1 10//10 7//7
f 10//10 15//15 8//8
f 1//1 3//3 10//10
f 10//10 3//3 15//15
f 15//15 3//3 16//16
f 9//9 17//17 13//13
f 9//9 18//18 17//17
f 9//9 14//14 5//5
f 14//14 12//12 19//19
f 14//14 19//19 20//20
f 14//14 20//20 21//21
f 14//14 21//21 22//22
f 6//6 23//23 4//4
f 5//5 14//14 24//24
f 5//5 24//24 25//25
f 6//6 5//5 25//25
f 6//6 25//25 23//23
f 25//25 24//24 26//26
f 25//25 26//26 23//23
f 26//26 27//27 23//23
f 8//8 28//28 9//9
f 9//9 29//29 18//18
f 8//8 15//15 30//30
f 15//15 16//16 31//31
f 29//29 32//32 18//18
f 29//29 33//33 32//32
f 29//29 22//22 34//34
f 29//29 34//34 33//33
f 14//14 29//29 24//24
f 14//14 22//22 29//29
f 24//24 35//35 26//26
f 26//26 35//35 27//27
f 2//2 4//4 36//36
f 2//2 37//37 3//3
f 3//3 38//38 16//16
f 3//3 37//37 38//38
f 37//37 39//39 38//38
f 2//2 36//36 37//37
f 37//37 40//40 39//39
f 37//37 36//36 40//40
f 4//4 23//23 36//36
f 36//36 23//23 41//41
f 23//23 27//27 41//41
f 36//36 41//41 40//40
f 16//16 38//38 31//31
f 38//38 39//39 42//42
f 39//39 40//40 42//42
f 27//27 43//43 41//41
f 40//40 41//41 44//44
f 9//9 45//45 46//46
f 9//9 47//47 45//45
f 9//9 46//46 48//48
f 9//9 28//28 47//47
f 8//8 49//49 28//28
f 8//8 30//30 49//49
f 15//15 31//31 30//30
f 9//9 48//48 50//50
f 9//9 50//50 29//29
f 24//24 29//29 51//51
f 24//24 51//51 35//35
f 27//27 35//35 52//52
f 28//28 53//53 47//47
f 28//28 54//54 53//53
f 28//28 55//55 54//54
f 49//49 56//56 28//28
f 49//49 57//57 56//56
f 28//28 29//29 55//55
f 28//28 56//56 29//29
f 56//56 58//58 59//59
f 49//49 30//30 57//57
f 56//56 57//57 58//58
f 30//30 60//60 57//57
f 57//57 60//60 58//58
f 30//30 31//31 60//60
f 29//29 50//50 61//61
f 29//29 61//61 62//62
f 29//29 63//63 55//55
f 56//56 59//59 29//29
f 29//29 62//62 64//64
f 29//29 64//64 63//63
f 58//58 60//60 65//65
f 58//58 65//65 66//66
f 58//58 66//66 59//59
f 66//66 65//65 67//67
f 29//29 59//59 51//51
f 59//59 68//68 51//51
f 59//59 66//66 68//68
f 51//51 68//68 35//35
f 35//35 68//68 69//69
f 68//68 67//67 69//69
f 35//35 69//69 52//52
f 68//68 66//66 67//67
f 38//38 70//70 31//31
f 38//38 42//42 70//70
f 40//40 44//44 42//42
f 27//27 52//52 43//43
f 41//41 43//43 44//44
f 31//31 70//70 60//60
f 70//70 71//71 60//60
f 60//60 71//71 65//65
f 70//70 42//42 71//71
f 42//42 44//44 71//71
f 71//71 72//72 67//67
f 71//71 44//44 72//72
f 71//71 67//67 65//65
f 72//72 43//43 69//69
f 72//72 69//69 67//67
f 52//52 69//69 43//43
f 44//44 43//43 72//72
f 73//73 74//74 75//75
f 75//75 76//76 77//77
f 73//73 75//75 77//77
f 73//73 77//77 78//78
f 73//73 79//79 74//74
f 73//73 78//78 80//80
f 77//77 76//76 81//81
f 77//77 82//82 78//78
f 78//78 82//82 80//80
f 77//77 81//81 83//83
f 77//77 83//83 82//82
f 73//73 84//84 79//79
f 73//73 80//80 84//84
f 84//84 85//85 79//79
f 84//84 86//86 85//85
f 84//84 80//80 86//86
f 85//85 86//86 87//87
f 80//80 82//82 88//88
f 80//80 89//89 86//86
f 86//86 90//90 87//87
f 80//80 88//88 89//89
f 86//86 89//89 90//90
f 75//75 74//74 91//91
f 75//75 92//92 76//76
f 76//76 93//93 81//81
f 74//74 79//79 94//94
f 79//79 85//85 95//95
f 85//85 87//87 96//96
f 87//87 90//90 97//97
f 75//75 91//91 98//98
f 76//76 92//92 93//93
f 74//74 94//94 91//91
f 81//81 93//93 99//99
f 79//79 95//95 94//94
f 85//85 96//96 100//100
f 87//87 97//97 96//96
f 83//83 81//81 101//101
f 83//83 102//102 82//82
f 83//83 101//101 102//102
f 102//102 101//101 103//103
f 82//82 102//102 88//88
f 102//102 103//103 104//104
f 102//102 105//105 88//88
f 102//102 104//104 105//105
f 88//88 105//105 89//89
f 89//89 106//106 90//90
f 89//89 105//105 106//106
f 105//105 104//104 106//106
f 81//81 99//99 101//101
f 101//101 107//107 103//103
f 103//103 108//108 104//104
f 90//90 106//106 109//109
f 106//106 104//104 110//110
f 101//101 99//99 111//111
f 103//103 107//107 108//108
f 104//104 108//108 110//110
f 90//90 109//109 97//97
f 106//106 110//110 112//112
f 113//113 114//114 115//115
f 116//116 117//117 118//118
f 114//114 116//116 118//118
f 113//113 116//116 114//114
f 114//114 118//118 119//119
f 114//114 119//119 120//120
f 114//114 121//121 115//115
f 114//114 120//120 121//121
f 121//121 122//122 123//123
f 115//115 121//121 123//123
f 121//121 120//120 122//122
f 123//123 122//122 124//124
f 113//113 125//125 116//116
f 116//116 126//126 117//117
f 113//113 115//115 127//127
f 115//115 123//123 128//128
f 123//123 124//124 129//129
f 113//113 127//127 125//125
f 117//117 126//126 130//130
f 116//116 125//125 131//131
f 115//115 128//128 127//127
f 123//123 129//129 132//132
f 118//118 117//117 133//133
f 118//118 134//134 119//119
f 119//119 135//135 120//120
f 118//118 133//133 134//134
f 119//119 134//134 135//135
f 134//134 133//133 136//136
f 134//134 137//137 135//135
f 134//134 136//136 137//137
f 137//137 136//136 138//138
f 135//135 137//137 139//139
f 137//137 138//138 140//140
f 120//120 135//135 139//139
f 120//120 141//141 122//122
f 122//122 142//142 124//124
f 120//120 139//139 141//141
f 122//122 141//141 142//142
f 137//137 143//143 139//139
f 137//137 140//140 143//143
f 139//139 143//143 141//141
f 141//141 143//143 144//144
f 141//141 144//144 142//142
f 143//143 140//140 144//144
f 117//117 130//130 133//133
f 133//133 145//145 136//136
f 136//136 146//146 138//138
f 138//138 147//147 140//140
f 124//124 142//142 148//148
f 142//142 144//144 149//149
f 140//140 150//150 144//144
f 133//133 130//130 145//145
f 136//136 145//145 151//151
f 138//138 146//146 147//147
f 124//124 148//148 129//129
f 140//140 147//147 150//150
f 142//142 149//149 148//148
f 144//144 150//150 152//152
f 153//153 154//154 155//155
f 153//153 155//155 156//156
f 154//154 157//157 158//158
f 155//155 154//154 158//158
f 157//157 159//159 158//158
f 157//157 160//160 159//159
f 160//160 161//161 159//159
f 160//160 162//162 161//161
f 163//163 164//164 165//165
f 164//164 166//166 167//167
f 166//166 168//168 169//169
f 163//163 170//170 171//171
f 171//171 172//172 173//173
f 173//173 174//174 175//175
f 175//175 176//176 177//177
f 168//168 178//178 179//179
f 177//177 180//180 181//181
f 181//181 182//182 178//178
f 163//163 165//165 170//170
f 164//164 167//167 165//165
f 166//166 169//169 167//167
f 171//171 170//170 172//172
f 173//173 172//172 174//174
f 175//175 174//174 176//176
f 177//177 176//176 180//180
f 168//168 179//179 169//169
f 178//178 182//182 179//179
f 181//181 180//180 182//182
f 183//183 184//184 185//185
f 183//183 186//186 184//184
f 185//185 187//187 188//188
f 184//184 187//187 185//185
f 188//188 187//187 189//189
f 188//188 189//189 190//190
f 190//190 189//189 191//191
f 190//190 191//191 192//192
f 193//193 194//194 195//195
f 193//193 196//196 194//194
f 196//196 197//197 194//194
f 196//196 198//198 197//197
f 197//197 198//198 199//199
f 200//200 201//201 202//202
f 202//202 203//203 204//204
f 200//200 205//205 206//206
f 205//205 207//207 208//208
f 207//207 209//209 210//210
f 209//209 211//211 212//212
f 200//200 206//206 201//201
f 202//202 201//201 203//203
f 209//209 212//212 213//213
f 211//211 214//214 212//212
f 211//211 215//215 214//214
f 205//205 208//208 206//206
f 207//207 210//210 208//208
f 209//209 216//216 210//210
f 209//209 213//213 216//216
f 217//217 218//218 219//219
f 217//217 220//220 218//218
f 219//219 218//218 221//221
f 219//219 221//221 222//222
f 217//217 223//223 224//224
f 217//217 225//225 220//220
f 217//217 224//224 225//225
f 224//224 226//226 225//225
f 198//198 227//227 199//199
f 227//227 228//228 199//199
f 227//227 229//229 228//228
f 229//229 230//230 231//231
f 229//229 231//231 228//228
f 204//204 232//232 233//233
f 233//233 234//234 235//235
f 211//211 236//236 215//215
f 235//235 237//237 238//238
f 236//236 239//239 240//240
f 238//238 241//241 239//239
f 204//204 203//203 232//232
f 233//233 232//232 234//234
f 236//236 242//242 215//215
f 236//236 240//240 242//242
f 239//239 243//243 240//240
f 235//235 234//234 237//237
f 238//238 237//237 241//241
f 239//239 244//244 243//243
f 239//239 241//241 244//244
f 222//222 221//221 245//245
f 245//245 221//221 246//246
f 245//245 246//246 247//247
f 245//245 247//247 248//248
f 248//248 247//247 249//249
f 248//248 249//249 250//250
f 248//248 250//250 251//251
f 250//250 249//249 252//252
f 253//253 254//254 255//255
f 253//253 256//256 254//254
f 256//256 257//257 254//254
f 253//253 258//258 256//256
f 259//259 255//255 260//260
f 253//253 255//255 259//259
f 259//259 260//260 261//261
f 253//253 259//259 262//262
f 253//253 262//262 258//258
f 258//258 262//262 263//263
f 259//259 264//264 262//262
f 262//262 264//264 263//263
f 265//265 261//261 266//266
f 259//259 261//261 267//267
f 268//268 266//266 269//269
f 268//268 269//269 270//270
f 271//271 270//270 272//272
f 265//265 267//267 261//261
f 259//259 267//267 273//273
f 265//265 266//266 268//268
f 271//271 268//268 270//270
f 259//259 273//273 264//264
f 263//263 264//264 274//274
f 265//265 275//275 267//267
f 265//265 276//276 275//275
f 267//267 275//275 273//273
f 273//273 275//275 277//277
f 265//265 268//268 276//276
f 275//275 276//276 278//278
f 271//271 279//279 268//268
f 268//268 279//279 276//276
f 276//276 279//279 280//280
f 276//276 280//280 278//278
f 278//278 280//280 281//281
f 275//275 278//278 277//277
f 273//273 277//277 264//264
f 264//264 282//282 274//274
f 277//277 283//283 282//282
f 264//264 277//277 282//282
f 278//278 283//283 277//277
f 278//278 281//281 283//283
f 256//256 284//284 257//257
f 256//256 285//285 284//284
f 256//256 258//258 285//285
f 285//285 286//286 284//284
f 258//258 263//263 287//287
f 258//258 287//287 285//285
f 285//285 287//287 288//288
f 288//288 289//289 286//286
f 285//285 288//288 286//286
f 263//263 290//290 287//287
f 287//287 291//291 288//288
f 288//288 291//291 289//289
f 292//292 272//272 293//293
f 292//292 293//293 294//294
f 295//295 294//294 296//296
f 297//297 296//296 298//298
f 291//291 298//298 289//289
f 271//271 272//272 292//292
f 292//292 294//294 295//295
f 263//263 274//274 290//290
f 287//287 290//290 291//291
f 295//295 296//296 297//297
f 297//297 298//298 291//291
f 271//271 292//292 279//279
f 279//279 292//292 299//299
f 279//279 299//299 280//280
f 292//292 295//295 299//299
f 299//299 300//300 301//301
f 280//280 301//301 281//281
f 280//280 299//299 301//301
f 274//274 282//282 290//290
f 283//283 302//302 282//282
f 282//282 302//302 290//290
f 301//301 300//300 302//302
f 290//290 302//302 291//291
f 281//281 301//301 283//283
f 283//283 301//301 302//302
f 295//295 297//297 300//300
f 295//295 300//300 299//299
f 297//297 291//291 300//300
f 291//291 302//302 300//300
f 303//303 304//304 305//305
f 306//306 307//307 304//304
f 303//303 308//308 306//306
f 303//303 306//306 304//304
f 304//304 309//309 310//310
f 304//304 310//310 311//311
f 304//304 311//311 305//305
f 304//304 312//312 309//309
f 304//304 307//307 312//312
f 307//307 313//313 312//312
f 303//303 305//305 314//314
f 303//303 315//315 308//308
f 303//303 314//314 315//315
f 315//315 314//314 316//316
f 305//305 317//317 314//314
f 314//314 318//318 316//316
f 306//306 319//319 307//307
f 306//306 308//308 320//320
f 306//306 320//320 319//319
f 320//320 321//321 319//319
f 307//307 322//322 313//313
f 307//307 319//319 322//322
f 319//319 323//323 322//322
f 319//319 324//324 323//323
f 319//319 325//325 324//324
f 319//319 321//321 325//325
f 308//308 315//315 320//320
f 315//315 326//326 320//320
f 315//315 316//316 326//326
f 320//320 326//326 321//321
f 316//316 327//327 326//326
f 321//321 326//326 328//328
f 311//311 310//310 329//329
f 311//311 329//329 330//330
f 331//331 305//305 311//311
f 311//311 330//330 332//332
f 331//331 311//311 333//333
f 311//311 332//332 333//333
f 331//331 317//317 305//305
f 314//314 317//317 318//318
f 316//316 318//318 334//334
f 325//325 335//335 324//324
f 325//325 336//336 335//335
f 321//321 337//337 325//325
f 325//325 338//338 336//336
f 325//325 337//337 338//338
f 337//337 339//339 338//338
f 316//316 334//334 327//327
f 321//321 328//328 337//337
f 326//326 327//327 328//328
f 331//331 333//333 340//340
f 341//341 342//342 343//343
f 340//340 333//333 341//341
f 331//331 344//344 317//317
f 317//317 345//345 318//318
f 318//318 345//345 334//334
f 346//346 347//347 348//348
f 348//348 339//339 349//349
f 337//337 350//350 339//339
f 346//346 351//351 347//347
f 334//334 352//352 327//327
f 337//337 328//328 353//353
f 327//327 353//353 328//328
f 354//354 355//355 356//356
f 357//357 358//358 359//359
f 343//343 342//342 359//359
f 357//357 354//354 360//360
f 355//355 351//351 346//346
f 354//354 356//356 360//360
f 357//357 360//360 358//358
f 361//361 356//356 355//355
f 348//348 362//362 346//346
f 355//355 346//346 361//361
f 359//359 358//358 363//363
f 359//359 363//363 343//343
f 341//341 343//343 364//364
f 331//331 340//340 344//344
f 317//317 344//344 345//345
f 334//334 345//345 352//352
f 348//348 349//349 362//362
f 349//349 339//339 365//365
f 350//350 365//365 339//339
f 327//327 352//352 366//366
f 337//337 353//353 350//350
f 327//327 366//366 353//353
f 340//340 341//341 364//364
f 367//367 368//368 369//369
f 340//340 364//364 368//368
f 340//340 368//368 367//367
f 367//367 369//369 370//370
f 367//367 370//370 371//371
f 340//340 367//367 372//372
f 340//340 372//372 344//344
f 344//344 373//373 345//345
f 345//345 374//374 352//352
f 375//375 376//376 377//377
f 375//375 377//377 365//365
f 375//375 365//365 350//350
f 375//375 378//378 376//376
f 375//375 379//379 378//378
f 375//375 350//350 380//380
f 352//352 374//374 366//366
f 350//350 353//353 380//380
f 366//366 381//381 353//353
f 367//367 371//371 382//382
f 382//382 371//371 383//383
f 367//367 382//382 372//372
f 382//382 383//383 384//384
f 382//382 384//384 385//385
f 385//385 384//384 386//386
f 382//382 387//387 372//372
f 382//382 385//385 388//388
f 382//382 388//388 387//387
f 387//387 388//388 389//389
f 344//344 372//372 373//373
f 345//345 373//373 374//374
f 372//372 387//387 373//373
f 387//387 390//390 373//373
f 387//387 389//389 390//390
f 373//373 390//390 374//374
f 385//385 386//386 391//391
f 385//385 391//391 379//379
f 379//379 391//391 392//392
f 379//379 393//393 378//378
f 379//379 392//392 393//393
f 375//375 380//380 379//379
f 385//385 379//379 388//388
f 388//388 379//379 394//394
f 388//388 394//394 389//389
f 379//379 380//380 394//394
f 366//366 374//374 381//381
f 353//353 381//381 380//380
f 390//390 394//394 381//381
f 389//389 394//394 390//390
f 374//374 390//390 381//381
f 380//380 381//381 394//394
f 395//395 310//310 309//309
f 395//395 329//329 310//310
f 396//396 309//309 312//312
f 396//396 312//312 313//313
f 395//395 330//330 329//329
f 396//396 313//313 322//322
f 397//397 322//322 323//323
f 397//397 323//323 324//324
f 398//398 324//324 335//335
f 398//398 335//335 336//336
f 395//395 309//309 396//396
f 397//397 396//396 322//322
f 397//397 324//324 398//398
f 395//395 399//399 330//330
f 399//399 400//400 330//330
f 400//400 401//401 333//333
f 398//398 338//338 402//402
f 402//402 348//348 403//403
f 401//401 404//404 405//405
f 404//404 406//406 407//407
f 403//403 408//408 409//409
f 406//406 409//409 410//410
f 400//400 332//332 330//330
f 400//400 333//333 332//332
f 401//401 341//341 333//333
f 401//401 411//411 341//341
f 398//398 336//336 338//338
f 402//402 338//338 339//339
f 402//402 339//339 348//348
f 403//403 348//348 412//412
f 404//404 413//413 405//405
f 401//401 405//405 411//411
f 409//409 408//408 410//410
f 403//403 412//412 408//408
f 404//404 407//407 413//413
f 406//406 410//410 407//407
f 395//395 414//414 399//399
f 415//415 414//414 396//396
f 395//395 396//396 414//414
f 399//399 414//414 416//416
f 415//415 417//417 414//414
f 415//415 396//396 418//418
f 397//397 418//418 396//396
f 397//397 398//398 418//418
f 415//415 418//418 417//417
f 418//418 398//398 419//419
f 399//399 416//416 420//420
f 414//414 417//417 416//416
f 416//416 417//417 421//421
f 416//416 421//421 422//422
f 418//418 419//419 417//417
f 417//417 419//419 421//421
f 398//398 423//423 419//419
f 421//421 419//419 424//424
f 399//399 420//420 400//400
f 400//400 420//420 401//401
f 398//398 402//402 423//423
f 402//402 403//403 423//423
f 416//416 422//422 420//420
f 420//420 422//422 404//404
f 420//420 404//404 401//401
f 404//404 425//425 406//406
f 421//421 426//426 422//422
f 422//422 426//426 425//425
f 422//422 425//425 404//404
f 406//406 425//425 409//409
f 419//419 423//423 424//424
f 423//423 409//409 424//424
f 423//423 403//403 409//409
f 421//421 424//424 426//426
f 426//426 424//424 425//425
f 424//424 409//409 425//425
f 427//427 428//428 429//429
f 428//428 430//430 431//431
f 427//427 432//432 428//428
f 428//428 432//432 433//433
f 427//427 434//434 435//435
f 427//427 435//435 432//432
f 432//432 435//435 436//436
f 435//435 437//437 438//438
f 428//428 433//433 430//430
f 432//432 439//439 433//433
f 430//430 433//433 440//440
f 439//439 441//441 433//433
f 433//433 441//441 440//440
f 432//432 436//436 439//439
f 435//435 438//438 436//436
f 439//439 436//436 441//441
f 441//441 436//436 442//442
f 436//436 438//438 442//442
f 427//427 429//429 443//443
f 443//443 429//429 444//444
f 429//429 445//445 444//444
f 429//429 428//428 431//431
f 429//429 431//431 445//445
f 431//431 446//446 445//445
f 444//444 445//445 447//447
f 427//427 443//443 434//434
f 443//443 444//444 434//434
f 434//434 444//444 448//448
f 444//444 447//447 448//448
f 434//434 437//437 435//435
f 434//434 448//448 437//437
f 437//437 448//448 449//449
f 431//431 430//430 450//450
f 431//431 450//450 446//446
f 437//437 451//451 438//438
f 437//437 449//449 451//451
f 445//445 452//452 447//447
f 445//445 446//446 453//453
f 447//447 454//454 448//448
f 448//448 455//455 449//449
f 430//430 440//440 369//369
f 430//430 368//368 450//450
f 450//450 364//364 446//446
f 451//451 449//449 456//456
f 438//438 451//451 376//376
f 441//441 386//386 440//440
f 441//441 442//442 386//386
f 438//438 378//378 442//442
f 447//447 452//452 454//454
f 448//448 454//454 457//457
f 445//445 453//453 452//452
f 446//446 458//458 453//453
f 448//448 457//457 455//455
f 449//449 455//455 456//456
f 430//430 369//369 368//368
f 446//446 343//343 458//458
f 446//446 364//364 343//343
f 450//450 368//368 364//364
f 451//451 456//456 349//349
f 451//451 349//349 365//365
f 451//451 365//365 377//377
f 451//451 377//377 376//376
f 440//440 370//370 369//369
f 440//440 371//371 370//370
f 440//440 383//383 371//371
f 440//440 384//384 383//383
f 440//440 386//386 384//384
f 438//438 376//376 378//378
f 442//442 391//391 386//386
f 442//442 392//392 391//391
f 442//442 378//378 393//393
f 442//442 393//393 392//392
