v -0.22000 -0.17500 0.20000
v -0.22000 -0.22500 -0.05000
v -0.22000 -0.22500 0.25000
v 0.22000 -0.22500 0.25000
v -0.22000 -0.22500 0.25000
v -0.22000 -0.22500 -0.05000
v 0.22000 -0.17500 0.20000
v -0.22000 -0.17500 0.20000
v -0.22000 -0.14167 0.14126
v -0.22000 0.22500 0.25000
v -0.22000 -0.14167 0.14126
v -0.22000 -0.10833 0.08353
v 0.22000 -0.14167 0.14126
v -0.22000 -0.10833 0.08353
v 0.22000 -0.10833 0.08353
v -0.22000 -0.07500 0.02779
v 0.22000 -0.07500 0.02779
v -0.22000 -0.04167 -0.02500
v 0.22000 -0.17500 0.20000
v 0.22000 -0.22500 0.25000
v 0.22000 -0.22500 -0.05000
v 0.22000 -0.22500 0.25000
v 0.22000 0.22500 0.25000
v -0.22000 -0.22500 0.25000
v 0.22000 0.22500 0.25000
v 0.22000 -0.14167 0.14126
v 0.22000 -0.10833 0.08353
v 0.22000 -0.22500 -0.05000
v 0.22000 -0.17500 0.20000
v 0.22000 -0.17500 -0.25000
v -0.22000 -0.17500 0.20000
v -0.22000 0.22500 0.25000
v -0.22000 -0.07500 0.02779
v -0.22000 -0.04167 -0.02500
v -0.22000 -0.00833 -0.07394
v -0.22000 0.02500 -0.11820
v 0.22000 -0.07500 0.02779
v 0.22000 -0.04167 -0.02500
v 0.22000 -0.00833 -0.07394
v 0.22000 0.02500 -0.11820
v 0.22000 0.22500 0.25000
v 0.22000 0.22500 -0.25000
v -0.22000 0.22500 0.25000
v -0.22000 -0.17500 -0.25000
v -0.22000 -0.17500 -0.25000
v -0.22000 -0.17500 -0.25000
v 0.22000 -0.04167 -0.02500
v -0.22000 -0.00833 -0.07394
v 0.22000 -0.17500 -0.25000
v 0.22000 -0.00833 -0.07394
v 0.22000 -0.17500 -0.25000
v -0.22000 0.05833 -0.15701
v -0.22000 0.02500 -0.11820
v -0.22000 0.09167 -0.18971
v -0.22000 0.12500 -0.21575
v -0.22000 0.15833 -0.23467
v -0.22000 0.19167 -0.24615
v -0.22000 0.22500 -0.25000
v -0.22000 0.22500 -0.25000
v 0.22000 0.02500 -0.11820
v -0.22000 0.05833 -0.15701
v 0.22000 0.05833 -0.15701
v -0.22000 0.09167 -0.18971
v 0.22000 0.09167 -0.18971
v -0.22000 0.12500 -0.21575
v 0.22000 0.12500 -0.21575
v -0.22000 0.15833 -0.23467
v 0.22000 0.15833 -0.23467
v -0.22000 0.19167 -0.24615
v 0.22000 0.19167 -0.24615
v -0.22000 0.22500 -0.25000
v 0.22000 0.05833 -0.15701
v 0.22000 0.09167 -0.18971
v 0.22000 0.12500 -0.21575
v 0.22000 0.15833 -0.23467
v 0.22000 0.19167 -0.24615
v 0.22000 0.22500 -0.25000
v 0.22000 0.22500 -0.25000
vn -1.0000 0.0000 0.0000
vn -1.0000 0.0000 0.0000
vn -1.0000 0.0000 0.0000
vn 0.0000 -1.0000 0.0000
vn 0.0000 -1.0000 0.0000
vn 0.0000 -0.9925 -0.1222
vn 0.0000 -0.8697 -0.4936
vn 0.0000 -0.8697 -0.4936
vn 0.0000 -0.8679 -0.4968
vn -1.0000 0.0000 0.0000
vn -1.0000 0.0000 0.0000
vn -1.0000 0.0000 0.0000
vn 0.0000 -0.8679 -0.4968
vn 0.0000 -0.8622 -0.5067
vn 0.0000 -0.8622 -0.5067
vn 0.0000 -0.8520 -0.5236
vn 0.0000 -0.8520 -0.5236
vn 0.0000 -0.8362 -0.5485
vn 1.0000 0.0000 0.0000
vn 1.0000 0.0000 0.0000
vn 1.0000 0.0000 0.0000
vn 0.0000 0.0000 1.0000
vn 0.0000 0.0000 1.0000
vn 0.0000 0.0000 1.0000
vn 1.0000 0.0000 0.0000
vn 1.0000 0.0000 0.0000
vn 1.0000 0.0000 0.0000
vn 0.0000 -0.9925 -0.1222
vn 0.0000 1.0000 0.0000
vn 0.0000 1.0000 0.0000
vn 0.0000 1.0000 0.0000
vn 0.0000 0.0000 1.0000
vn -1.0000 0.0000 0.0000
vn -1.0000 0.0000 0.0000
vn -1.0000 0.0000 0.0000
vn -1.0000 0.0000 0.0000
vn 1.0000 0.0000 0.0000
vn 1.0000 0.0000 0.0000
vn 1.0000 0.0000 0.0000
vn 1.0000 0.0000 0.0000
vn 0.0000 1.0000 0.0000
vn 0.0000 1.0000 0.0000
vn 0.0000 1.0000 0.0000
vn -1.0000 0.0000 0.0000
vn 0.0000 -0.9701 -0.2425
vn 0.0000 1.0000 0.0000
vn 0.0000 -0.8362 -0.5485
vn 0.0000 -0.8129 -0.5824
vn 1.0000 0.0000 0.0000
vn -0.0000 -0.8129 -0.5824
vn 0.0000 -0.9701 -0.2425
vn -1.0000 0.0000 0.0000
vn -0.0000 -0.7791 -0.6269
vn -1.0000 0.0000 0.0000
vn -1.0000 0.0000 0.0000
vn -1.0000 0.0000 0.0000
vn -1.0000 0.0000 0.0000
vn -1.0000 0.0000 0.0000
vn 0.0000 1.0000 0.0000
vn -0.0000 -0.7791 -0.6269
vn -0.0000 -0.7301 -0.6833
vn -0.0000 -0.7301 -0.6833
vn -0.0000 -0.6590 -0.7522
vn 0.0000 -0.6590 -0.7522
vn 0.0000 -0.5561 -0.8311
vn 0.0000 -0.5561 -0.8311
vn 0.0000 -0.4114 -0.9114
vn 0.0000 -0.4114 -0.9114
vn 0.0000 -0.2215 -0.9752
vn 0.0000 -0.2215 -0.9752
vn 0.0000 -0.1147 -0.9934
vn 1.0000 0.0000 0.0000
vn 1.0000 0.0000 0.0000
vn 1.0000 0.0000 0.0000
vn 1.0000 0.0000 0.0000
vn 1.0000 0.0000 0.0000
vn 1.0000 0.0000 0.0000
vn 0.0000 -0.1147 -0.9934
f 1//1 2//2 3//3
f 4//4 5//5 6//6
f 7//7 8//8 9//9
f 1//1 3//3 10//10
f 1//1 10//10 11//11
f 11//11 10//10 12//12
f 13//13 9//9 14//14
f 15//15 14//14 16//16
f 17//17 16//16 18//18
f 13//13 7//7 9//9
f 19//19 20//20 21//21
f 22//22 23//23 24//24
f 19//19 25//25 20//20
f 19//19 26//26 25//25
f 26//26 27//27 25//25
f 15//15 13//13 14//14
f 28//28 4//4 6//6
f 29//29 30//30 31//31
f 17//17 15//15 16//16
f 23//23 32//32 24//24
f 12//12 10//10 33//33
f 33//33 10//10 34//34
f 34//34 10//10 35//35
f 35//35 10//10 36//36
f 27//27 37//37 25//25
f 37//37 38//38 25//25
f 38//38 39//39 25//25
f 39//39 40//40 25//25
f 41//41 42//42 43//43
f 44//44 2//2 1//1
f 28//28 6//6 45//45
f 30//30 46//46 31//31
f 47//47 18//18 48//48
f 49//49 19//19 21//21
f 47//47 17//17 18//18
f 50//50 47//47 48//48
f 51//51 28//28 45//45
f 36//36 10//10 52//52
f 50//50 48//48 53//53
f 52//52 10//10 54//54
f 54//54 10//10 55//55
f 55//55 10//10 56//56
f 56//56 10//10 57//57
f 57//57 10//10 58//58
f 42//42 59//59 43//43
f 60//60 53//53 61//61
f 62//62 61//61 63//63
f 64//64 63//63 65//65
f 66//66 65//65 67//67
f 68//68 67//67 69//69
f 70//70 69//69 71//71
f 60//60 50//50 53//53
f 40//40 72//72 25//25
f 72//72 73//73 25//25
f 73//73 74//74 25//25
f 74//74 75//75 25//25
f 75//75 76//76 25//25
f 76//76 77//77 25//25
f 62//62 60//60 61//61
f 64//64 62//62 63//63
f 66//66 64//64 65//65
f 68//68 66//66 67//67
f 70//70 68//68 69//69
f 78//78 70//70 71//71
