v 0.23000 0.02000 0.37500
v -0.23000 0.02000 0.37500
v -0.23000 -0.10000 0.37500
v 0.23000 -0.10000 0.37500
v -0.23000 -0.10000 0.37500
v -0.23000 -0.10000 -0.37500
v 0.23000 -0.10000 0.37500
v -0.23000 0.09000 0.27500
v -0.23000 -0.10000 0.37500
v -0.23000 0.02000 0.37500
v 0.23000 0.09000 0.27500
v -0.23000 0.09000 0.27500
v -0.23000 0.02000 0.37500
v -0.23000 0.10000 -0.22500
v 0.23000 0.02000 0.37500
v 0.23000 0.09000 0.27500
v 0.23000 0.02000 0.37500
v 0.23000 -0.10000 0.37500
v 0.23000 0.10000 -0.22500
v 0.23000 0.10000 -0.22500
v -0.23000 -0.10000 -0.37500
v 0.23000 -0.10000 -0.37500
v -0.23000 -0.10000 -0.37500
v -0.23000 0.04000 -0.37500
v 0.23000 -0.10000 -0.37500
v 0.23000 -0.10000 -0.37500
v 0.23000 0.04000 -0.37500
v -0.23000 0.10000 -0.22500
v -0.23000 0.04000 -0.37500
v 0.23000 0.04000 -0.37500
v -0.23000 0.04000 -0.37500
v 0.23000 0.04000 -0.37500
vn 0.0000 0.0000 1.0000
vn 0.0000 0.0000 1.0000
vn 0.0000 0.0000 1.0000
vn 0.0000 -1.0000 0.0000
vn 0.0000 -1.0000 0.0000
vn 0.0000 -1.0000 0.0000
vn 0.0000 0.0000 1.0000
vn -1.0000 0.0000 0.0000
vn -1.0000 0.0000 0.0000
vn -1.0000 0.0000 0.0000
vn 0.0000 0.9507 0.3102
vn -0.0000 0.9507 0.3102
vn 0.0000 0.8192 0.5735
vn -1.0000 0.0000 0.0000
vn 0.0000 0.8192 0.5735
vn 1.0000 0.0000 0.0000
vn 1.0000 0.0000 0.0000
vn 1.0000 0.0000 0.0000
vn 1.0000 0.0000 0.0000
vn -0.0000 0.9838 -0.1793
vn -1.0000 0.0000 0.0000
vn 0.0000 0.0000 -1.0000
vn 0.0000 0.0000 -1.0000
vn 0.0000 0.0000 -1.0000
vn 0.0000 -1.0000 0.0000
vn 1.0000 0.0000 0.0000
vn 0.0000 0.0000 -1.0000
vn 0.0000 0.9838 -0.1793
vn -1.0000 0.0000 0.0000
vn 0.0000 0.9285 -0.3714
vn 0.0000 0.9285 -0.3714
vn 1.0000 0.0000 0.0000
f 1//1 2//2 3//3
f 4//4 5//5 6//6
f 7//7 1//1 3//3
f 8//8 9//9 10//10
f 11//11 12//12 13//13
f 14//14 9//9 8//8
f 15//15 11//11 13//13
f 16//16 17//17 18//18
f 19//19 16//16 18//18
f 11//11 20//20 12//12
f 14//14 21//21 9//9
f 22//22 23//23 24//24
f 25//25 4//4 6//6
f 19//19 18//18 26//26
f 27//27 22//22 24//24
f 20//20 28//28 12//12
f 29//29 21//21 14//14
f 30//30 31//31 28//28
f 32//32 19//19 26//26
f 20//20 30//30 28//28
