v -0.24566 0.15334 -0.49000
v -0.24800 0.15900 -0.49000
v -0.24566 0.15900 -0.49566
v -0.24000 0.15334 -0.49566
v -0.24000 0.15100 -0.49000
v -0.24000 0.15900 -0.49800
v -0.24566 0.15334 -0.01000
v -0.21507 0.15100 -0.19507
v -0.21800 0.15100 -0.18800
v -0.20800 0.15100 -0.19800
v -0.16200 0.15100 -0.19800
v -0.15493 0.15100 -0.19507
v -0.15200 0.15100 -0.18800
v -0.24000 0.15100 -0.01000
v -0.24800 0.15900 -0.01000
v -0.21800 0.15100 -0.01000
v -0.24566 0.15900 -0.00434
v -0.24000 0.15334 -0.00434
v -0.24000 0.15900 -0.00200
v -0.21800 0.15334 -0.00434
v -0.21800 0.15900 -0.00200
v -0.21800 0.15334 -0.00434
v -0.24800 0.24100 -0.49000
v -0.24566 0.24100 -0.49566
v -0.24000 0.24100 -0.49800
v -0.24800 0.24100 -0.01000
v -0.24566 0.24666 -0.49000
v -0.24000 0.24666 -0.49566
v -0.24000 0.24900 -0.49000
v -0.18995 0.24900 -0.41250
v -0.16250 0.24900 -0.43995
v -0.20000 0.24900 -0.37500
v -0.18995 0.24900 -0.33750
v -0.24000 0.24900 -0.01000
v -0.20000 0.24900 -0.12500
v -0.12500 0.24900 -0.45000
v -0.18995 0.24900 -0.16250
v -0.16250 0.24900 -0.31005
v -0.12500 0.24900 -0.20000
v -0.12500 0.24900 -0.30000
v -0.24566 0.24100 -0.00434
v -0.24000 0.24100 -0.00200
v -0.21507 0.16607 -0.00200
v -0.20800 0.16900 -0.00200
v -0.16200 0.16900 -0.00200
v -0.24566 0.24666 -0.01000
v -0.24000 0.24666 -0.00434
v -0.18995 0.24900 -0.08750
v -0.16250 0.24900 -0.06005
v -0.15493 0.16607 -0.00200
v -0.16250 0.24900 -0.18995
v -0.12500 0.24900 -0.05000
v 0.24000 0.15100 -0.49000
v 0.24000 0.15900 -0.49800
v 0.15200 0.15100 -0.01000
v -0.15200 0.15100 -0.01000
v 0.15200 0.15334 -0.00434
v -0.15200 0.15334 -0.00434
v -0.15200 0.15334 -0.00434
v 0.15200 0.15900 -0.00200
v -0.15200 0.15900 -0.00200
v 0.15493 0.16607 -0.00200
v 0.24000 0.24100 -0.49800
v 0.24000 0.24900 -0.49000
v 0.12500 0.24900 -0.45000
v -0.08750 0.24900 -0.31005
v -0.08750 0.24900 -0.43995
v 0.08750 0.24900 -0.43995
v -0.06005 0.24900 -0.41250
v -0.05000 0.24900 -0.37500
v 0.05000 0.24900 -0.37500
v -0.08750 0.24900 -0.18995
v 0.06005 0.24900 -0.33750
v -0.06005 0.24900 -0.33750
v 0.12500 0.24900 -0.05000
v 0.24000 0.24100 -0.00200
v 0.24000 0.24900 -0.01000
v -0.06005 0.24900 -0.16250
v -0.08750 0.24900 -0.06005
v 0.08750 0.24900 -0.06005
v -0.06005 0.24900 -0.08750
v 0.15493 0.15100 -0.19507
v 0.15200 0.15100 -0.18800
v 0.24000 0.15334 -0.49566
v 0.15200 0.15334 -0.00434
v 0.06005 0.24900 -0.41250
v 0.08750 0.24900 -0.31005
v 0.12500 0.24900 -0.30000
v 0.24000 0.24666 -0.49566
v 0.16200 0.16900 -0.00200
v 0.20800 0.16900 -0.00200
v -0.05000 0.24900 -0.12500
v 0.16250 0.24900 -0.31005
v 0.05000 0.24900 -0.12500
v 0.06005 0.24900 -0.16250
v 0.06005 0.24900 -0.08750
v 0.08750 0.24900 -0.18995
v 0.24000 0.24666 -0.00434
v 0.16200 0.15100 -0.19800
v 0.24566 0.15334 -0.49000
v 0.24566 0.15900 -0.49566
v 0.24800 0.15900 -0.49000
v 0.20800 0.15100 -0.19800
v 0.24566 0.15334 -0.01000
v 0.21507 0.15100 -0.19507
v 0.21800 0.15100 -0.18800
v 0.24000 0.15100 -0.01000
v 0.24800 0.15900 -0.01000
v 0.21800 0.15100 -0.01000
v 0.24000 0.15334 -0.00434
v 0.21800 0.15334 -0.00434
v 0.24000 0.15900 -0.00200
v 0.21800 0.15900 -0.00200
v 0.21800 0.15334 -0.00434
v 0.24566 0.15900 -0.00434
v 0.16250 0.24900 -0.43995
v 0.18995 0.24900 -0.16250
v 0.18995 0.24900 -0.33750
v 0.24566 0.24100 -0.49566
v 0.24800 0.24100 -0.49000
v 0.18995 0.24900 -0.41250
v 0.20000 0.24900 -0.37500
v 0.24566 0.24666 -0.49000
v 0.20000 0.24900 -0.12500
v 0.24800 0.24100 -0.01000
v 0.12500 0.24900 -0.20000
v 0.16250 0.24900 -0.18995
v 0.16250 0.24900 -0.06005
v 0.21507 0.16607 -0.00200
v 0.24566 0.24100 -0.00434
v 0.24566 0.24666 -0.01000
v 0.18995 0.24900 -0.08750
v -0.18995 0.29900 -0.41250
v -0.18995 0.24900 -0.41250
v -0.20000 0.24900 -0.37500
v -0.20000 0.29900 -0.37500
v -0.20000 0.29900 -0.37500
v -0.18995 0.29900 -0.33750
v -0.18995 0.29900 -0.41250
v -0.18995 0.24900 -0.33750
v -0.18995 0.29900 -0.33750
v -0.16250 0.29900 -0.43995
v -0.16250 0.24900 -0.43995
v -0.16250 0.29900 -0.43995
v -0.12500 0.29900 -0.45000
v -0.12500 0.24900 -0.45000
v -0.16250 0.29900 -0.31005
v -0.12500 0.29900 -0.45000
v -0.16250 0.24900 -0.31005
v -0.16250 0.29900 -0.31005
v -0.12500 0.24900 -0.30000
v -0.12500 0.29900 -0.30000
v -0.12500 0.29900 -0.30000
v -0.08750 0.29900 -0.43995
v -0.08750 0.24900 -0.43995
v -0.08750 0.29900 -0.43995
v -0.06005 0.29900 -0.41250
v -0.06005 0.24900 -0.41250
v -0.08750 0.29900 -0.31005
v -0.06005 0.29900 -0.41250
v -0.08750 0.24900 -0.31005
v -0.08750 0.29900 -0.31005
v -0.06005 0.24900 -0.33750
v -0.06005 0.29900 -0.33750
v -0.06005 0.29900 -0.33750
v -0.05000 0.29900 -0.37500
v -0.05000 0.24900 -0.37500
v -0.05000 0.29900 -0.37500
v -0.18995 0.29900 -0.16250
v -0.18995 0.24900 -0.16250
v -0.20000 0.24900 -0.12500
v -0.20000 0.29900 -0.12500
v -0.20000 0.29900 -0.12500
v -0.18995 0.29900 -0.08750
v -0.18995 0.29900 -0.16250
v -0.18995 0.24900 -0.08750
v -0.18995 0.29900 -0.08750
v -0.16250 0.29900 -0.18995
v -0.16250 0.24900 -0.18995
v -0.16250 0.29900 -0.18995
v -0.12500 0.29900 -0.20000
v -0.12500 0.24900 -0.20000
v -0.16250 0.29900 -0.06005
v -0.12500 0.29900 -0.20000
v -0.16250 0.24900 -0.06005
v -0.16250 0.29900 -0.06005
v -0.12500 0.24900 -0.05000
v -0.12500 0.29900 -0.05000
v -0.12500 0.29900 -0.05000
v -0.08750 0.29900 -0.18995
v -0.08750 0.24900 -0.18995
v -0.08750 0.29900 -0.18995
v -0.06005 0.29900 -0.16250
v -0.06005 0.24900 -0.16250
v -0.08750 0.29900 -0.06005
v -0.06005 0.29900 -0.16250
v -0.08750 0.24900 -0.06005
v -0.08750 0.29900 -0.06005
v -0.06005 0.24900 -0.08750
v -0.06005 0.29900 -0.08750
v -0.06005 0.29900 -0.08750
v -0.05000 0.29900 -0.12500
v -0.05000 0.24900 -0.12500
v -0.05000 0.29900 -0.12500
v 0.06005 0.29900 -0.41250
v 0.06005 0.24900 -0.41250
v 0.05000 0.24900 -0.37500
v 0.05000 0.29900 -0.37500
v 0.05000 0.29900 -0.37500
v 0.06005 0.29900 -0.33750
v 0.06005 0.29900 -0.41250
v 0.06005 0.24900 -0.33750
v 0.06005 0.29900 -0.33750
v 0.08750 0.29900 -0.43995
v 0.08750 0.24900 -0.43995
v 0.08750 0.29900 -0.43995
v 0.12500 0.29900 -0.45000
v 0.12500 0.24900 -0.45000
v 0.08750 0.29900 -0.31005
v 0.12500 0.29900 -0.45000
v 0.08750 0.24900 -0.31005
v 0.08750 0.29900 -0.31005
v 0.12500 0.24900 -0.30000
v 0.12500 0.29900 -0.30000
v 0.12500 0.29900 -0.30000
v 0.16250 0.29900 -0.43995
v 0.16250 0.24900 -0.43995
v 0.16250 0.29900 -0.43995
v 0.18995 0.29900 -0.41250
v 0.18995 0.24900 -0.41250
v 0.16250 0.29900 -0.31005
v 0.18995 0.29900 -0.41250
v 0.16250 0.24900 -0.31005
v 0.16250 0.29900 -0.31005
v 0.18995 0.24900 -0.33750
v 0.18995 0.29900 -0.33750
v 0.18995 0.29900 -0.33750
v 0.20000 0.29900 -0.37500
v 0.20000 0.24900 -0.37500
v 0.20000 0.29900 -0.37500
v 0.06005 0.29900 -0.16250
v 0.06005 0.24900 -0.16250
v 0.05000 0.24900 -0.12500
v 0.05000 0.29900 -0.12500
v 0.05000 0.29900 -0.12500
v 0.06005 0.29900 -0.08750
v 0.06005 0.29900 -0.16250
v 0.06005 0.24900 -0.08750
v 0.06005 0.29900 -0.08750
v 0.08750 0.29900 -0.18995
v 0.08750 0.24900 -0.18995
v 0.08750 0.29900 -0.18995
v 0.12500 0.29900 -0.20000
v 0.12500 0.24900 -0.20000
v 0.08750 0.29900 -0.06005
v 0.12500 0.29900 -0.20000
v 0.08750 0.24900 -0.06005
v 0.08750 0.29900 -0.06005
v 0.12500 0.24900 -0.05000
v 0.12500 0.29900 -0.05000
v 0.12500 0.29900 -0.05000
v 0.16250 0.29900 -0.18995
v 0.16250 0.24900 -0.18995
v 0.16250 0.29900 -0.18995
v 0.18995 0.29900 -0.16250
v 0.18995 0.24900 -0.16250
v 0.16250 0.29900 -0.06005
v 0.18995 0.29900 -0.16250
v 0.16250 0.24900 -0.06005
v 0.16250 0.29900 -0.06005
v 0.18995 0.24900 -0.08750
v 0.18995 0.29900 -0.08750
v 0.18995 0.29900 -0.08750
v 0.20000 0.29900 -0.12500
v 0.20000 0.24900 -0.12500
v 0.20000 0.29900 -0.12500
v -0.21507 -0.22607 -0.18800
v -0.20800 -0.22607 -0.19507
v -0.20800 -0.22900 -0.18800
v -0.21800 -0.21900 -0.18800
v -0.21507 -0.21900 -0.19507
v -0.20800 -0.21900 -0.19800
v -0.16200 -0.22607 -0.19507
v -0.21800 -0.21900 0.34955
v -0.20800 -0.22900 0.35949
v -0.16200 -0.22900 -0.18800
v -0.16200 -0.21900 -0.19800
v -0.15493 -0.22607 -0.18800
v -0.15493 -0.21900 -0.19507
v -0.15200 -0.21900 -0.18800
v -0.16200 -0.22900 0.35949
v -0.15493 -0.22607 0.35546
v -0.15351 -0.22263 0.35073
v -0.21800 0.15100 -0.18800
v -0.21507 0.15100 -0.19507
v -0.20800 0.15100 -0.19800
v -0.21800 0.15100 -0.01000
v -0.21507 0.15100 -0.19507
v -0.16200 0.15100 -0.19800
v -0.15493 0.15100 -0.19507
v -0.15200 0.15100 -0.18800
v -0.15200 -0.20500 0.34500
v -0.15493 0.15100 -0.19507
v -0.21800 -0.20500 0.34500
v -0.21800 -0.18737 0.35073
v -0.21800 -0.17647 0.36573
v -0.21507 -0.22607 0.35546
v -0.21649 -0.22263 0.35073
v -0.21507 -0.22607 0.35546
v -0.15200 -0.21900 0.34955
v -0.15493 -0.22607 0.35546
v -0.21800 -0.21900 0.48800
v -0.21800 -0.20500 0.40500
v -0.21800 -0.21900 0.40045
v -0.21507 -0.22607 0.48800
v -0.20800 -0.22900 0.48800
v -0.21507 -0.22607 0.39454
v -0.20800 -0.22900 0.39051
v -0.21649 -0.22263 0.39927
v -0.21507 -0.22607 0.39454
v -0.20800 -0.22607 0.49507
v -0.21507 -0.21900 0.49507
v -0.20800 -0.21900 0.49800
v -0.16200 -0.22900 0.48800
v -0.16200 -0.21900 0.49800
v -0.16200 -0.22900 0.39051
v -0.15493 -0.22607 0.48800
v -0.15493 -0.22607 0.39454
v -0.16200 -0.22607 0.49507
v -0.15493 -0.21900 0.49507
v -0.15493 -0.22607 0.39454
v -0.15351 -0.22263 0.39927
v -0.15200 -0.21900 0.40045
v -0.15200 -0.21900 0.48800
v -0.15200 -0.20500 0.40500
v -0.15200 -0.18737 0.39927
v -0.15200 -0.17647 0.38427
v -0.21800 0.15900 0.48800
v -0.15200 -0.18737 0.35073
v -0.15200 -0.17647 0.36573
v -0.15200 0.15100 -0.01000
v -0.15200 0.15334 -0.00434
v -0.15200 0.15900 -0.00200
v -0.21800 -0.18737 0.39927
v -0.21800 -0.17647 0.38427
v -0.21507 0.15900 0.49507
v -0.20800 0.15900 0.49800
v -0.16200 0.15900 0.49800
v -0.15200 0.15900 0.48800
v -0.21800 0.15334 -0.00434
v -0.21800 0.15900 -0.00200
v -0.21507 0.16607 -0.00200
v -0.15493 0.16607 0.48800
v -0.15493 0.16607 -0.00200
v -0.21507 0.16607 0.48800
v -0.20800 0.16607 0.49507
v -0.15493 0.15900 0.49507
v -0.16200 0.16607 0.49507
v -0.20800 0.16900 -0.00200
v -0.21507 0.16607 -0.00200
v -0.20800 0.16900 0.48800
v -0.16200 0.16900 -0.00200
v -0.16200 0.16900 0.48800
v -0.15493 0.16607 -0.00200
v 0.15493 -0.22607 -0.18800
v 0.15200 -0.21900 -0.18800
v 0.15493 -0.21900 -0.19507
v 0.16200 -0.22607 -0.19507
v 0.16200 -0.22900 -0.18800
v 0.16200 -0.21900 -0.19800
v 0.20800 -0.22607 -0.19507
v 0.15200 -0.21900 0.34955
v 0.16200 -0.22900 0.35949
v 0.20800 -0.22900 -0.18800
v 0.20800 -0.21900 -0.19800
v 0.21507 -0.22607 -0.18800
v 0.21507 -0.21900 -0.19507
v 0.21800 -0.21900 -0.18800
v 0.20800 -0.22900 0.35949
v 0.21507 -0.22607 0.35546
v 0.21649 -0.22263 0.35073
v 0.15200 0.15100 -0.18800
v 0.15493 0.15100 -0.19507
v 0.16200 0.15100 -0.19800
v 0.15493 0.15100 -0.19507
v 0.15200 0.15100 -0.01000
v 0.20800 0.15100 -0.19800
v 0.21507 0.15100 -0.19507
v 0.21800 0.15100 -0.18800
v 0.21800 -0.20500 0.34500
v 0.21507 0.15100 -0.19507
v 0.15351 -0.22263 0.35073
v 0.15493 -0.22607 0.35546
v 0.15200 -0.20500 0.34500
v 0.15200 -0.18737 0.35073
v 0.15200 -0.17647 0.36573
v 0.15493 -0.22607 0.35546
v 0.21507 -0.22607 0.35546
v 0.21800 -0.21900 0.34955
v 0.15493 -0.22607 0.48800
v 0.15351 -0.22263 0.39927
v 0.15493 -0.22607 0.39454
v 0.15200 -0.21900 0.40045
v 0.15200 -0.21900 0.48800
v 0.15200 -0.20500 0.40500
v 0.15493 -0.21900 0.49507
v 0.16200 -0.22900 0.48800
v 0.15493 -0.22607 0.39454
v 0.16200 -0.22900 0.39051
v 0.16200 -0.22607 0.49507
v 0.16200 -0.21900 0.49800
v 0.20800 -0.22900 0.48800
v 0.20800 -0.21900 0.49800
v 0.20800 -0.22900 0.39051
v 0.21507 -0.22607 0.48800
v 0.21507 -0.22607 0.39454
v 0.21507 -0.22607 0.39454
v 0.21649 -0.22263 0.39927
v 0.21800 -0.21900 0.40045
v 0.20800 -0.22607 0.49507
v 0.21507 -0.21900 0.49507
v 0.21800 -0.21900 0.48800
v 0.21800 -0.20500 0.40500
v 0.21800 -0.18737 0.39927
v 0.21800 -0.17647 0.38427
v 0.15200 0.15900 0.48800
v 0.21800 -0.18737 0.35073
v 0.21800 -0.17647 0.36573
v 0.21800 0.15100 -0.01000
v 0.21800 0.15334 -0.00434
v 0.21800 0.15900 -0.00200
v 0.15200 -0.18737 0.39927
v 0.15200 -0.17647 0.38427
v 0.15493 0.15900 0.49507
v 0.16200 0.15900 0.49800
v 0.20800 0.15900 0.49800
v 0.21800 0.15900 0.48800
v 0.15200 0.15334 -0.00434
v 0.15200 0.15900 -0.00200
v 0.15493 0.16607 -0.00200
v 0.21507 0.16607 0.48800
v 0.21507 0.16607 -0.00200
v 0.15493 0.16607 0.48800
v 0.16200 0.16607 0.49507
v 0.21507 0.15900 0.49507
v 0.20800 0.16607 0.49507
v 0.16200 0.16900 -0.00200
v 0.15493 0.16607 -0.00200
v 0.16200 0.16900 0.48800
v 0.20800 0.16900 -0.00200
v 0.20800 0.16900 0.48800
v 0.21507 0.16607 -0.00200
v -0.22000 -0.23353 0.36573
v -0.22000 -0.22263 0.35073
v -0.21507 -0.22607 0.35546
v -0.21649 -0.22263 0.35073
v -0.21800 -0.21900 0.34955
v -0.22000 -0.20500 0.34500
v -0.22000 -0.23353 0.36573
v -0.22000 -0.18737 0.35073
v -0.22000 -0.22263 0.35073
v -0.21800 -0.20500 0.34500
v -0.22000 -0.23353 0.38427
v -0.22000 -0.17647 0.36573
v -0.22000 -0.20500 0.34500
v -0.22000 -0.18737 0.35073
v -0.21800 -0.18737 0.35073
v -0.22000 -0.17647 0.36573
v -0.21800 -0.17647 0.36573
v -0.22000 -0.17647 0.38427
v -0.22000 -0.23353 0.38427
v -0.21507 -0.22607 0.39454
v -0.22000 -0.22263 0.39927
v -0.21649 -0.22263 0.39927
v -0.21800 -0.21900 0.40045
v -0.22000 -0.20500 0.40500
v -0.22000 -0.22263 0.39927
v -0.22000 -0.17647 0.38427
v -0.21800 -0.20500 0.40500
v -0.22000 -0.20500 0.40500
v -0.22000 -0.18737 0.39927
v -0.21800 -0.18737 0.39927
v -0.22000 -0.18737 0.39927
v -0.21800 -0.17647 0.38427
v 0.22000 -0.23353 0.36573
v 0.22000 -0.23353 0.38427
v 0.15351 -0.22263 0.39927
v -0.15351 -0.22263 0.35073
v -0.15200 -0.21900 0.34955
v 0.15351 -0.22263 0.35073
v -0.15200 -0.20500 0.34500
v -0.15493 -0.22607 0.35546
v -0.15200 -0.18737 0.35073
v 0.15200 -0.20500 0.34500
v -0.15200 -0.17647 0.36573
v 0.15200 -0.18737 0.35073
v -0.15200 -0.17647 0.38427
v 0.15200 -0.17647 0.36573
v -0.15493 -0.22607 0.39454
v -0.15351 -0.22263 0.39927
v 0.15200 -0.20500 0.40500
v -0.15200 -0.21900 0.40045
v -0.15200 -0.20500 0.40500
v 0.15200 -0.18737 0.39927
v -0.15200 -0.18737 0.39927
v 0.15200 -0.17647 0.38427
v 0.15493 -0.22607 0.35546
v 0.15200 -0.21900 0.34955
v 0.15493 -0.22607 0.39454
v 0.15200 -0.21900 0.40045
v 0.21507 -0.22607 0.35546
v 0.21649 -0.22263 0.35073
v 0.22000 -0.22263 0.35073
v 0.21800 -0.21900 0.34955
v 0.22000 -0.20500 0.34500
v 0.22000 -0.23353 0.36573
v 0.22000 -0.22263 0.35073
v 0.22000 -0.18737 0.35073
v 0.21800 -0.20500 0.34500
v 0.22000 -0.17647 0.36573
v 0.22000 -0.23353 0.38427
v 0.22000 -0.20500 0.34500
v 0.21800 -0.18737 0.35073
v 0.22000 -0.18737 0.35073
v 0.21800 -0.17647 0.36573
v 0.22000 -0.17647 0.36573
v 0.21800 -0.17647 0.38427
v 0.21507 -0.22607 0.39454
v 0.22000 -0.22263 0.39927
v 0.21649 -0.22263 0.39927
v 0.21800 -0.21900 0.40045
v 0.22000 -0.20500 0.40500
v 0.22000 -0.17647 0.38427
v 0.22000 -0.22263 0.39927
v 0.21800 -0.20500 0.40500
v 0.22000 -0.18737 0.39927
v 0.22000 -0.20500 0.40500
v 0.22000 -0.18737 0.39927
v 0.21800 -0.18737 0.39927
v 0.22000 -0.17647 0.38427
vn -0.6887 -0.6887 -0.2265
vn -0.9641 -0.1877 -0.1877
vn -0.6887 -0.2265 -0.6887
vn -0.2265 -0.6887 -0.6887
vn -0.1877 -0.9641 -0.1877
vn -0.1877 -0.1877 -0.9641
vn -0.6887 -0.6887 0.2265
vn 0.0000 -1.0000 0.0000
vn 0.0000 -1.0000 0.0000
vn 0.0000 -1.0000 0.0000
vn 0.0000 -1.0000 0.0000
vn 0.0000 -1.0000 0.0000
vn 0.0000 -1.0000 0.0000
vn -0.1877 -0.9641 0.1877
vn -0.9641 -0.1877 0.1877
vn 0.0000 -0.9808 0.1951
vn -0.6887 -0.2265 0.6887
vn -0.2265 -0.6887 0.6887
vn -0.1877 -0.1877 0.9641
vn 0.0000 -0.9239 0.3827
vn 0.0000 -0.1734 0.9849
vn 0.0000 -0.3827 0.9239
vn -0.9641 0.1877 -0.1877
vn -0.6887 0.2265 -0.6887
vn -0.1877 0.1877 -0.9641
vn -0.9641 0.1877 0.1877
vn -0.6887 0.6887 -0.2265
vn -0.2265 0.6887 -0.6887
vn -0.1877 0.9641 -0.1877
vn 0.0000 1.0000 0.0000
vn 0.0000 1.0000 0.0000
vn 0.0000 1.0000 0.0000
vn 0.0000 1.0000 0.0000
vn -0.1877 0.9641 0.1877
vn 0.0000 1.0000 0.0000
vn 0.0000 1.0000 0.0000
vn 0.0000 1.0000 0.0000
vn 0.0000 1.0000 0.0000
vn 0.0000 1.0000 0.0000
vn 0.0000 1.0000 0.0000
vn -0.6887 0.2265 0.6887
vn -0.1877 0.1877 0.9641
vn 0.0000 0.0000 1.0000
vn 0.0000 0.0000 1.0000
vn 0.0000 0.0000 1.0000
vn -0.6887 0.6887 0.2265
vn -0.2265 0.6887 0.6887
vn 0.0000 1.0000 0.0000
vn 0.0000 1.0000 0.0000
vn 0.0000 0.0000 1.0000
vn 0.0000 1.0000 0.0000
vn 0.0000 1.0000 0.0000
vn 0.1877 -0.9641 -0.1877
vn 0.1877 -0.1877 -0.9641
vn 0.0000 -0.9808 0.1951
vn 0.0000 -0.9808 0.1951
vn 0.0000 -0.9239 0.3827
vn 0.0000 -0.9239 0.3827
vn 0.0000 -0.3827 0.9239
vn 0.0000 -0.1734 0.9849
vn 0.0000 -0.1734 0.9849
vn 0.0000 0.0000 1.0000
vn 0.1877 0.1877 -0.9641
vn 0.1877 0.9641 -0.1877
vn 0.0000 1.0000 0.0000
vn 0.0000 1.0000 0.0000
vn 0.0000 1.0000 0.0000
vn 0.0000 1.0000 0.0000
vn 0.0000 1.0000 0.0000
vn 0.0000 1.0000 0.0000
vn 0.0000 1.0000 0.0000
vn 0.0000 1.0000 0.0000
vn 0.0000 1.0000 0.0000
vn 0.0000 1.0000 0.0000
vn 0.0000 1.0000 0.0000
vn 0.1877 0.1877 0.9641
vn 0.1877 0.9641 0.1877
vn 0.0000 1.0000 0.0000
vn 0.0000 1.0000 0.0000
vn 0.0000 1.0000 0.0000
vn 0.0000 1.0000 0.0000
vn 0.0000 -1.0000 0.0000
vn 0.0000 -1.0000 0.0000
vn 0.2265 -0.6887 -0.6887
vn 0.0000 -0.3827 0.9239
vn 0.0000 1.0000 0.0000
vn 0.0000 1.0000 0.0000
vn 0.0000 1.0000 0.0000
vn 0.2265 0.6887 -0.6887
vn 0.0000 0.0000 1.0000
vn 0.0000 0.0000 1.0000
vn 0.0000 1.0000 0.0000
vn 0.0000 1.0000 0.0000
vn 0.0000 1.0000 0.0000
vn 0.0000 1.0000 0.0000
vn 0.0000 1.0000 0.0000
vn 0.0000 1.0000 0.0000
vn 0.2265 0.6887 0.6887
vn 0.0000 -1.0000 0.0000
vn 0.6887 -0.6887 -0.2265
vn 0.6887 -0.2265 -0.6887
vn 0.9641 -0.1877 -0.1877
vn 0.0000 -1.0000 0.0000
vn 0.6887 -0.6887 0.2265
vn 0.0000 -1.0000 0.0000
vn 0.0000 -1.0000 0.0000
vn 0.1877 -0.9641 0.1877
vn 0.9641 -0.1877 0.1877
vn -0.0000 -0.9808 0.1951
vn 0.2265 -0.6887 0.6887
vn 0.0000 -0.9239 0.3827
vn 0.1877 -0.1877 0.9641
vn 0.0000 -0.1734 0.9849
vn 0.0000 -0.3827 0.9239
vn 0.6887 -0.2265 0.6887
vn 0.0000 1.0000 0.0000
vn 0.0000 1.0000 0.0000
vn 0.0000 1.0000 0.0000
vn 0.6887 0.2265 -0.6887
vn 0.9641 0.1877 -0.1877
vn 0.0000 1.0000 0.0000
vn 0.0000 1.0000 0.0000
vn 0.6887 0.6887 -0.2265
vn 0.0000 1.0000 0.0000
vn 0.9641 0.1877 0.1877
vn 0.0000 1.0000 0.0000
vn 0.0000 1.0000 0.0000
vn 0.0000 1.0000 0.0000
vn 0.0000 0.0000 1.0000
vn 0.6887 0.2265 0.6887
vn 0.6887 0.6887 0.2265
vn 0.0000 1.0000 0.0000
vn -0.8660 -0.0000 -0.5000
vn -0.8660 0.0000 -0.5000
vn -1.0000 -0.0000 0.0000
vn -1.0000 0.0000 -0.0000
vn 0.0000 1.0000 0.0000
vn 0.0000 1.0000 0.0000
vn 0.0000 1.0000 0.0000
vn -0.8660 0.0000 0.5000
vn -0.8660 0.0000 0.5000
vn -0.5000 0.0000 -0.8660
vn -0.5000 0.0000 -0.8660
vn 0.0000 1.0000 0.0000
vn 0.0000 0.0000 -1.0000
vn 0.0000 0.0000 -1.0000
vn 0.0000 1.0000 0.0000
vn 0.0000 1.0000 0.0000
vn -0.5000 0.0000 0.8660
vn -0.5000 0.0000 0.8660
vn 0.0000 0.0000 1.0000
vn 0.0000 1.0000 0.0000
vn 0.0000 0.0000 1.0000
vn 0.5000 0.0000 -0.8660
vn 0.5000 0.0000 -0.8660
vn 0.0000 1.0000 0.0000
vn 0.8660 0.0000 -0.5000
vn 0.8660 0.0000 -0.5000
vn 0.0000 1.0000 0.0000
vn 0.0000 1.0000 0.0000
vn 0.5000 0.0000 0.8660
vn 0.5000 0.0000 0.8660
vn 0.8660 0.0000 0.5000
vn 0.8660 -0.0000 0.5000
vn 0.0000 1.0000 0.0000
vn 1.0000 0.0000 0.0000
vn 1.0000 -0.0000 -0.0000
vn 0.0000 1.0000 0.0000
vn -0.8660 -0.0000 -0.5000
vn -0.8660 0.0000 -0.5000
vn -1.0000 -0.0000 0.0000
vn -1.0000 0.0000 -0.0000
vn 0.0000 1.0000 0.0000
vn 0.0000 1.0000 0.0000
vn 0.0000 1.0000 0.0000
vn -0.8660 0.0000 0.5000
vn -0.8660 0.0000 0.5000
vn -0.5000 0.0000 -0.8660
vn -0.5000 0.0000 -0.8660
vn 0.0000 1.0000 0.0000
vn 0.0000 0.0000 -1.0000
vn 0.0000 0.0000 -1.0000
vn 0.0000 1.0000 0.0000
vn 0.0000 1.0000 0.0000
vn -0.5000 0.0000 0.8660
vn -0.5000 0.0000 0.8660
vn 0.0000 0.0000 1.0000
vn 0.0000 1.0000 0.0000
vn 0.0000 0.0000 1.0000
vn 0.5000 0.0000 -0.8660
vn 0.5000 0.0000 -0.8660
vn 0.0000 1.0000 0.0000
vn 0.8660 0.0000 -0.5000
vn 0.8660 0.0000 -0.5000
vn 0.0000 1.0000 0.0000
vn 0.0000 1.0000 0.0000
vn 0.5000 0.0000 0.8660
vn 0.5000 0.0000 0.8660
vn 0.8660 0.0000 0.5000
vn 0.8660 -0.0000 0.5000
vn 0.0000 1.0000 0.0000
vn 1.0000 0.0000 0.0000
vn 1.0000 -0.0000 -0.0000
vn 0.0000 1.0000 0.0000
vn -0.8660 0.0000 -0.5000
vn -0.8660 0.0000 -0.5000
vn -1.0000 0.0000 0.0000
vn -1.0000 0.0000 0.0000
vn 0.0000 1.0000 0.0000
vn 0.0000 1.0000 0.0000
vn 0.0000 1.0000 0.0000
vn -0.8660 0.0000 0.5000
vn -0.8660 0.0000 0.5000
vn -0.5000 0.0000 -0.8660
vn -0.5000 0.0000 -0.8660
vn 0.0000 1.0000 0.0000
vn 0.0000 0.0000 -1.0000
vn 0.0000 0.0000 -1.0000
vn 0.0000 1.0000 0.0000
vn 0.0000 1.0000 0.0000
vn -0.5000 0.0000 0.8660
vn -0.5000 0.0000 0.8660
vn 0.0000 0.0000 1.0000
vn 0.0000 1.0000 0.0000
vn 0.0000 0.0000 1.0000
vn 0.5000 0.0000 -0.8660
vn 0.5000 0.0000 -0.8660
vn 0.0000 1.0000 0.0000
vn 0.8660 0.0000 -0.5000
vn 0.8660 0.0000 -0.5000
vn 0.0000 1.0000 0.0000
vn 0.0000 1.0000 0.0000
vn 0.5000 0.0000 0.8660
vn 0.5000 0.0000 0.8660
vn 0.8660 0.0000 0.5000
vn 0.8660 0.0000 0.5000
vn 0.0000 1.0000 0.0000
vn 1.0000 0.0000 0.0000
vn 1.0000 0.0000 0.0000
vn 0.0000 1.0000 0.0000
vn -0.8660 0.0000 -0.5000
vn -0.8660 0.0000 -0.5000
vn -1.0000 0.0000 0.0000
vn -1.0000 0.0000 0.0000
vn 0.0000 1.0000 0.0000
vn 0.0000 1.0000 0.0000
vn 0.0000 1.0000 0.0000
vn -0.8660 0.0000 0.5000
vn -0.8660 0.0000 0.5000
vn -0.5000 0.0000 -0.8660
vn -0.5000 0.0000 -0.8660
vn 0.0000 1.0000 0.0000
vn 0.0000 0.0000 -1.0000
vn 0.0000 0.0000 -1.0000
vn 0.0000 1.0000 0.0000
vn 0.0000 1.0000 0.0000
vn -0.5000 0.0000 0.8660
vn -0.5000 0.0000 0.8660
vn 0.0000 0.0000 1.0000
vn 0.0000 1.0000 0.0000
vn 0.0000 0.0000 1.0000
vn 0.5000 0.0000 -0.8660
vn 0.5000 0.0000 -0.8660
vn 0.0000 1.0000 0.0000
vn 0.8660 0.0000 -0.5000
vn 0.8660 0.0000 -0.5000
vn 0.0000 1.0000 0.0000
vn 0.0000 1.0000 0.0000
vn 0.5000 0.0000 0.8660
vn 0.5000 0.0000 0.8660
vn 0.8660 0.0000 0.5000
vn 0.8660 0.0000 0.5000
vn 0.0000 1.0000 0.0000
vn 1.0000 0.0000 0.0000
vn 1.0000 0.0000 0.0000
vn 0.0000 1.0000 0.0000
vn -0.6887 -0.6887 -0.2265
vn -0.2265 -0.6887 -0.6887
vn -0.1877 -0.9641 -0.1877
vn -0.9641 -0.1877 -0.1877
vn -0.6887 -0.2265 -0.6887
vn -0.1877 -0.1877 -0.9641
vn 0.2265 -0.6887 -0.6887
vn -0.9725 -0.2328 -0.0000
vn -0.0687 -0.9284 -0.3652
vn 0.1877 -0.9641 -0.1877
vn 0.1877 -0.1877 -0.9641
vn 0.6887 -0.6887 -0.2265
vn 0.6887 -0.2265 -0.6887
vn 0.9641 -0.1877 -0.1877
vn 0.0687 -0.9284 -0.3652
vn 0.3827 -0.9239 0.0000
vn 0.9239 -0.3827 0.0000
vn -0.9808 -0.0000 -0.1951
vn -0.3827 0.0000 -0.9239
vn -0.1951 0.0000 -0.9808
vn -1.0000 0.0000 0.0000
vn -0.9239 0.0000 -0.3827
vn 0.1951 -0.0000 -0.9808
vn 0.9239 0.0000 -0.3827
vn 0.9808 0.0000 -0.1951
vn 1.0000 0.0000 0.0000
vn 0.3827 0.0000 -0.9239
vn -1.0000 0.0000 0.0000
vn -1.0000 0.0000 0.0000
vn -1.0000 0.0000 0.0000
vn -0.3827 -0.9239 0.0000
vn -0.9239 -0.3827 -0.0000
vn -0.9239 -0.3827 0.0000
vn 0.9725 -0.2328 0.0000
vn 0.9239 -0.3827 0.0000
vn -0.9641 -0.1877 0.1877
vn -1.0000 0.0000 0.0000
vn -0.9725 -0.2328 0.0000
vn -0.6887 -0.6887 0.2265
vn -0.1877 -0.9641 0.1877
vn -0.3827 -0.9239 -0.0000
vn -0.0687 -0.9284 0.3652
vn -0.9239 -0.3827 0.0000
vn -0.9239 -0.3827 0.0000
vn -0.2265 -0.6887 0.6887
vn -0.6887 -0.2265 0.6887
vn -0.1877 -0.1877 0.9641
vn 0.1877 -0.9641 0.1877
vn 0.1877 -0.1877 0.9641
vn 0.0687 -0.9284 0.3652
vn 0.6887 -0.6887 0.2265
vn 0.3827 -0.9239 0.0000
vn 0.2265 -0.6887 0.6887
vn 0.6887 -0.2265 0.6887
vn 0.9239 -0.3827 0.0000
vn 0.9239 -0.3827 0.0000
vn 0.9725 -0.2328 0.0000
vn 0.9641 -0.1877 0.1877
vn 1.0000 0.0000 0.0000
vn 1.0000 0.0000 0.0000
vn 1.0000 0.0000 0.0000
vn -0.9641 0.1877 0.1877
vn 1.0000 0.0000 0.0000
vn 1.0000 0.0000 0.0000
vn 1.0000 0.0000 0.0000
vn 1.0000 0.0000 0.0000
vn 0.9849 0.1734 0.0000
vn -1.0000 0.0000 0.0000
vn -1.0000 0.0000 0.0000
vn -0.6887 0.2265 0.6887
vn -0.1877 0.1877 0.9641
vn 0.1877 0.1877 0.9641
vn 0.9641 0.1877 0.1877
vn -1.0000 0.0000 -0.0000
vn -0.9849 0.1734 -0.0000
vn -0.9239 0.3827 -0.0000
vn 0.6887 0.6887 0.2265
vn 0.9239 0.3827 0.0000
vn -0.6887 0.6887 0.2265
vn -0.2265 0.6887 0.6887
vn 0.6887 0.2265 0.6887
vn 0.2265 0.6887 0.6887
vn -0.1951 0.9808 0.0000
vn -0.3827 0.9239 0.0000
vn -0.1877 0.9641 0.1877
vn 0.1951 0.9808 0.0000
vn 0.1877 0.9641 0.1877
vn 0.3827 0.9239 -0.0000
vn -0.6887 -0.6887 -0.2265
vn -0.9641 -0.1877 -0.1877
vn -0.6887 -0.2265 -0.6887
vn -0.2265 -0.6887 -0.6887
vn -0.1877 -0.9641 -0.1877
vn -0.1877 -0.1877 -0.9641
vn 0.2265 -0.6887 -0.6887
vn -0.9725 -0.2328 -0.0000
vn -0.0687 -0.9284 -0.3652
vn 0.1877 -0.9641 -0.1877
vn 0.1877 -0.1877 -0.9641
vn 0.6887 -0.6887 -0.2265
vn 0.6887 -0.2265 -0.6887
vn 0.9641 -0.1877 -0.1877
vn 0.0687 -0.9284 -0.3652
vn 0.3827 -0.9239 0.0000
vn 0.9239 -0.3827 0.0000
vn -0.9808 -0.0000 -0.1951
vn -0.3827 0.0000 -0.9239
vn -0.1951 0.0000 -0.9808
vn -0.9239 0.0000 -0.3827
vn -1.0000 0.0000 0.0000
vn 0.1951 -0.0000 -0.9808
vn 0.9239 0.0000 -0.3827
vn 0.9808 0.0000 -0.1951
vn 1.0000 0.0000 0.0000
vn 0.3827 0.0000 -0.9239
vn -0.9239 -0.3827 -0.0000
vn -0.9239 -0.3827 0.0000
vn -1.0000 0.0000 0.0000
vn -1.0000 0.0000 0.0000
vn -1.0000 0.0000 0.0000
vn -0.3827 -0.9239 0.0000
vn 0.9239 -0.3827 0.0000
vn 0.9725 -0.2328 0.0000
vn -0.6887 -0.6887 0.2265
vn -0.9239 -0.3827 0.0000
vn -0.9239 -0.3827 0.0000
vn -0.9725 -0.2328 0.0000
vn -0.9641 -0.1877 0.1877
vn -1.0000 0.0000 0.0000
vn -0.6887 -0.2265 0.6887
vn -0.1877 -0.9641 0.1877
vn -0.3827 -0.9239 0.0000
vn -0.0687 -0.9284 0.3652
vn -0.2265 -0.6887 0.6887
vn -0.1877 -0.1877 0.9641
vn 0.1877 -0.9641 0.1877
vn 0.1877 -0.1877 0.9641
vn 0.0687 -0.9284 0.3652
vn 0.6887 -0.6887 0.2265
vn 0.3827 -0.9239 0.0000
vn 0.9239 -0.3827 0.0000
vn 0.9239 -0.3827 0.0000
vn 0.9725 -0.2328 0.0000
vn 0.2265 -0.6887 0.6887
vn 0.6887 -0.2265 0.6887
vn 0.9641 -0.1877 0.1877
vn 1.0000 0.0000 0.0000
vn 1.0000 0.0000 0.0000
vn 1.0000 0.0000 0.0000
vn -0.9641 0.1877 0.1877
vn 1.0000 0.0000 0.0000
vn 1.0000 0.0000 0.0000
vn 1.0000 0.0000 0.0000
vn 1.0000 0.0000 0.0000
vn 0.9849 0.1734 0.0000
vn -1.0000 0.0000 0.0000
vn -1.0000 0.0000 0.0000
vn -0.6887 0.2265 0.6887
vn -0.1877 0.1877 0.9641
vn 0.1877 0.1877 0.9641
vn 0.9641 0.1877 0.1877
vn -1.0000 0.0000 0.0000
vn -0.9849 0.1734 0.0000
vn -0.9239 0.3827 0.0000
vn 0.6887 0.6887 0.2265
vn 0.9239 0.3827 0.0000
vn -0.6887 0.6887 0.2265
vn -0.2265 0.6887 0.6887
vn 0.6887 0.2265 0.6887
vn 0.2265 0.6887 0.6887
vn -0.1951 0.9808 0.0000
vn -0.3827 0.9239 0.0000
vn -0.1877 0.9641 0.1877
vn 0.1951 0.9808 0.0000
vn 0.1877 0.9641 0.1877
vn 0.3827 0.9239 -0.0000
vn 0.0000 -0.9511 -0.3090
vn 0.0000 -0.5878 -0.8090
vn 0.0000 -0.8090 -0.5878
vn 0.0000 -0.6401 -0.7683
vn 0.0000 -0.3090 -0.9511
vn 0.0000 -0.0000 -1.0000
vn -1.0000 0.0000 0.0000
vn -1.0000 0.0000 0.0000
vn -1.0000 0.0000 0.0000
vn -0.0000 -0.0000 -1.0000
vn -1.0000 0.0000 0.0000
vn -1.0000 0.0000 0.0000
vn -1.0000 0.0000 0.0000
vn -0.0000 0.5878 -0.8090
vn 0.0000 0.5878 -0.8090
vn 0.0000 0.9511 -0.3090
vn 0.0000 0.9511 -0.3090
vn 0.0000 0.9511 0.3090
vn 0.0000 -0.9511 0.3090
vn 0.0000 -0.8090 0.5878
vn 0.0000 -0.5878 0.8090
vn 0.0000 -0.6401 0.7683
vn 0.0000 -0.3090 0.9511
vn 0.0000 -0.0000 1.0000
vn -1.0000 0.0000 0.0000
vn -1.0000 0.0000 0.0000
vn 0.0000 -0.0000 1.0000
vn -1.0000 0.0000 0.0000
vn -1.0000 0.0000 0.0000
vn 0.0000 0.5878 0.8090
vn 0.0000 0.5878 0.8090
vn 0.0000 0.9511 0.3090
vn -0.0000 -0.9511 -0.3090
vn -0.0000 -0.9511 0.3090
vn 0.0000 -0.6401 0.7683
vn -0.0000 -0.6401 -0.7683
vn -0.0000 -0.3090 -0.9511
vn 0.0000 -0.6401 -0.7683
vn -0.0000 -0.0000 -1.0000
vn -0.0000 -0.8090 -0.5878
vn 0.0000 0.5878 -0.8090
vn 0.0000 -0.0000 -1.0000
vn 0.0000 0.9511 -0.3090
vn 0.0000 0.5878 -0.8090
vn 0.0000 0.9511 0.3090
vn 0.0000 0.9511 -0.3090
vn -0.0000 -0.8090 0.5878
vn -0.0000 -0.6401 0.7683
vn 0.0000 -0.0000 1.0000
vn -0.0000 -0.3090 0.9511
vn 0.0000 -0.0000 1.0000
vn 0.0000 0.5878 0.8090
vn -0.0000 0.5878 0.8090
vn -0.0000 0.9511 0.3090
vn 0.0000 -0.8090 -0.5878
vn 0.0000 -0.3090 -0.9511
vn 0.0000 -0.8090 0.5878
vn 0.0000 -0.3090 0.9511
vn -0.0000 -0.8090 -0.5878
vn -0.0000 -0.6401 -0.7683
vn -0.0000 -0.5878 -0.8090
vn -0.0000 -0.3090 -0.9511
vn -0.0000 -0.0000 -1.0000
vn 1.0000 0.0000 0.0000
vn 1.0000 0.0000 0.0000
vn 1.0000 0.0000 0.0000
vn 0.0000 -0.0000 -1.0000
vn 1.0000 0.0000 0.0000
vn 1.0000 0.0000 0.0000
vn 1.0000 0.0000 0.0000
vn 0.0000 0.5878 -0.8090
vn 0.0000 0.5878 -0.8090
vn 0.0000 0.9511 -0.3090
vn 0.0000 0.9511 -0.3090
vn 0.0000 0.9511 0.3090
vn -0.0000 -0.8090 0.5878
vn -0.0000 -0.5878 0.8090
vn 0.0000 -0.6401 0.7683
vn -0.0000 -0.3090 0.9511
vn -0.0000 -0.0000 1.0000
vn 1.0000 0.0000 0.0000
vn 1.0000 0.0000 0.0000
vn 0.0000 -0.0000 1.0000
vn 1.0000 0.0000 0.0000
vn 1.0000 0.0000 0.0000
vn 0.0000 0.5878 0.8090
vn -0.0000 0.5878 0.8090
vn -0.0000 0.9511 0.3090
f 1//1 2//2 3//3
f 1//1 4//4 5//5
f 1//1 3//3 4//4
f 4//4 3//3 6//6
f 1//1 7//7 2//2
f 1//1 5//5 7//7
f 5//5 8//8 9//9
f 5//5 10//10 8//8
f 5//5 11//11 10//10
f 5//5 12//12 11//11
f 5//5 13//13 12//12
f 5//5 9//9 14//14
f 2//2 7//7 15//15
f 5//5 14//14 7//7
f 14//14 9//9 16//16
f 7//7 17//17 15//15
f 7//7 14//14 18//18
f 7//7 18//18 17//17
f 18//18 19//19 17//17
f 14//14 20//20 18//18
f 18//18 21//21 19//19
f 14//14 16//16 20//20
f 18//18 22//22 21//21
f 3//3 2//2 23//23
f 3//3 24//24 6//6
f 3//3 23//23 24//24
f 6//6 24//24 25//25
f 2//2 26//26 23//23
f 24//24 23//23 27//27
f 24//24 27//27 28//28
f 24//24 28//28 25//25
f 27//27 29//29 28//28
f 29//29 30//30 31//31
f 29//29 32//32 30//30
f 29//29 33//33 32//32
f 23//23 26//26 27//27
f 27//27 34//34 29//29
f 29//29 35//35 33//33
f 29//29 31//31 36//36
f 33//33 37//37 38//38
f 38//38 39//39 40//40
f 2//2 15//15 26//26
f 15//15 17//17 41//41
f 17//17 19//19 41//41
f 19//19 21//21 42//42
f 42//42 21//21 43//43
f 42//42 43//43 44//44
f 15//15 41//41 26//26
f 19//19 42//42 41//41
f 42//42 44//44 45//45
f 29//29 34//34 35//35
f 27//27 26//26 46//46
f 27//27 46//46 34//34
f 33//33 35//35 37//37
f 26//26 41//41 46//46
f 41//41 47//47 46//46
f 41//41 42//42 47//47
f 46//46 47//47 34//34
f 34//34 48//48 35//35
f 34//34 49//49 48//48
f 42//42 45//45 50//50
f 38//38 37//37 51//51
f 38//38 51//51 39//39
f 34//34 52//52 49//49
f 4//4 53//53 5//5
f 4//4 6//6 54//54
f 5//5 55//55 13//13
f 55//55 56//56 13//13
f 56//56 57//57 58//58
f 59//59 60//60 61//61
f 61//61 62//62 50//50
f 6//6 25//25 63//63
f 25//25 28//28 63//63
f 28//28 29//29 64//64
f 29//29 36//36 65//65
f 40//40 39//39 66//66
f 36//36 67//67 68//68
f 67//67 69//69 68//68
f 69//69 70//70 71//71
f 66//66 72//72 73//73
f 74//74 71//71 70//70
f 66//66 73//73 74//74
f 42//42 50//50 62//62
f 66//66 39//39 72//72
f 34//34 75//75 52//52
f 42//42 76//76 47//47
f 47//47 77//77 34//34
f 78//78 73//73 72//72
f 79//79 80//80 81//81
f 52//52 75//75 79//79
f 5//5 53//53 82//82
f 5//5 82//82 83//83
f 4//4 84//84 53//53
f 4//4 54//54 84//84
f 5//5 83//83 55//55
f 56//56 55//55 57//57
f 59//59 85//85 60//60
f 60//60 62//62 61//61
f 36//36 68//68 65//65
f 69//69 86//86 68//68
f 69//69 71//71 86//86
f 29//29 65//65 64//64
f 74//74 73//73 71//71
f 78//78 87//87 73//73
f 78//78 88//88 87//87
f 6//6 63//63 54//54
f 28//28 89//89 63//63
f 28//28 64//64 89//89
f 42//42 62//62 90//90
f 42//42 90//90 91//91
f 78//78 92//92 88//88
f 81//81 93//93 92//92
f 81//81 94//94 95//95
f 81//81 95//95 93//93
f 81//81 96//96 94//94
f 81//81 80//80 96//96
f 79//79 75//75 80//80
f 34//34 77//77 75//75
f 42//42 91//91 76//76
f 92//92 93//93 88//88
f 95//95 97//97 93//93
f 47//47 76//76 98//98
f 47//47 98//98 77//77
f 53//53 99//99 82//82
f 84//84 100//100 53//53
f 84//84 54//54 101//101
f 84//84 101//101 100//100
f 100//100 101//101 102//102
f 53//53 103//103 99//99
f 53//53 100//100 104//104
f 100//100 102//102 104//104
f 53//53 105//105 103//103
f 53//53 106//106 105//105
f 53//53 107//107 106//106
f 53//53 104//104 107//107
f 102//102 108//108 104//104
f 107//107 109//109 106//106
f 110//110 111//111 109//109
f 112//112 113//113 114//114
f 107//107 110//110 109//109
f 110//110 112//112 114//114
f 107//107 104//104 110//110
f 110//110 115//115 112//112
f 110//110 104//104 115//115
f 104//104 108//108 115//115
f 64//64 65//65 116//116
f 93//93 117//117 118//118
f 54//54 119//119 101//101
f 101//101 119//119 102//102
f 54//54 63//63 119//119
f 102//102 119//119 120//120
f 102//102 120//120 108//108
f 64//64 116//116 121//121
f 64//64 121//121 122//122
f 63//63 89//89 119//119
f 89//89 123//123 119//119
f 89//89 64//64 123//123
f 119//119 123//123 120//120
f 64//64 122//122 124//124
f 122//122 118//118 117//117
f 64//64 77//77 123//123
f 120//120 123//123 125//125
f 93//93 97//97 126//126
f 93//93 126//126 127//127
f 93//93 127//127 117//117
f 77//77 128//128 75//75
f 120//120 125//125 108//108
f 76//76 129//129 113//113
f 76//76 91//91 129//129
f 112//112 76//76 113//113
f 112//112 115//115 76//76
f 115//115 108//108 125//125
f 115//115 130//130 76//76
f 115//115 125//125 130//130
f 122//122 117//117 124//124
f 64//64 124//124 77//77
f 123//123 77//77 131//131
f 123//123 131//131 125//125
f 77//77 124//124 132//132
f 77//77 132//132 128//128
f 76//76 130//130 98//98
f 98//98 130//130 131//131
f 98//98 131//131 77//77
f 130//130 125//125 131//131
f 133//133 134//134 135//135
f 136//136 133//133 135//135
f 137//137 138//138 139//139
f 136//136 135//135 140//140
f 136//136 140//140 141//141
f 142//142 143//143 134//134
f 133//133 142//142 134//134
f 139//139 138//138 144//144
f 145//145 146//146 143//143
f 142//142 145//145 143//143
f 144//144 147//147 148//148
f 141//141 140//140 149//149
f 141//141 149//149 150//150
f 138//138 147//147 144//144
f 150//150 149//149 151//151
f 148//148 147//147 152//152
f 150//150 151//151 153//153
f 154//154 155//155 146//146
f 145//145 154//154 146//146
f 148//148 152//152 156//156
f 157//157 158//158 155//155
f 154//154 157//157 155//155
f 156//156 159//159 160//160
f 153//153 151//151 161//161
f 152//152 159//159 156//156
f 153//153 161//161 162//162
f 162//162 161//161 163//163
f 164//164 162//162 163//163
f 160//160 159//159 165//165
f 166//166 167//167 158//158
f 157//157 166//166 158//158
f 160//160 165//165 168//168
f 164//164 163//163 167//167
f 164//164 167//167 166//166
f 169//169 170//170 171//171
f 172//172 169//169 171//171
f 173//173 174//174 175//175
f 172//172 171//171 176//176
f 172//172 176//176 177//177
f 178//178 179//179 170//170
f 169//169 178//178 170//170
f 175//175 174//174 180//180
f 181//181 182//182 179//179
f 178//178 181//181 179//179
f 180//180 183//183 184//184
f 177//177 176//176 185//185
f 177//177 185//185 186//186
f 174//174 183//183 180//180
f 186//186 185//185 187//187
f 184//184 183//183 188//188
f 186//186 187//187 189//189
f 190//190 191//191 182//182
f 181//181 190//190 182//182
f 184//184 188//188 192//192
f 193//193 194//194 191//191
f 190//190 193//193 191//191
f 192//192 195//195 196//196
f 189//189 187//187 197//197
f 188//188 195//195 192//192
f 189//189 197//197 198//198
f 198//198 197//197 199//199
f 198//198 199//199 200//200
f 196//196 195//195 201//201
f 202//202 203//203 194//194
f 193//193 202//202 194//194
f 196//196 201//201 204//204
f 200//200 199//199 203//203
f 200//200 203//203 202//202
f 205//205 206//206 207//207
f 208//208 205//205 207//207
f 209//209 210//210 211//211
f 208//208 207//207 212//212
f 208//208 212//212 213//213
f 214//214 215//215 206//206
f 205//205 214//214 206//206
f 211//211 210//210 216//216
f 217//217 218//218 215//215
f 214//214 217//217 215//215
f 216//216 219//219 220//220
f 213//213 212//212 221//221
f 213//213 221//221 222//222
f 210//210 219//219 216//216
f 222//222 221//221 223//223
f 219//219 224//224 220//220
f 222//222 223//223 225//225
f 226//226 227//227 218//218
f 217//217 226//226 218//218
f 220//220 224//224 228//228
f 229//229 230//230 227//227
f 226//226 229//229 227//227
f 228//228 231//231 232//232
f 225//225 223//223 233//233
f 228//228 224//224 231//231
f 225//225 233//233 234//234
f 234//234 233//233 235//235
f 234//234 235//235 236//236
f 231//231 237//237 232//232
f 238//238 239//239 230//230
f 229//229 238//238 230//230
f 232//232 237//237 240//240
f 236//236 235//235 239//239
f 236//236 239//239 238//238
f 241//241 242//242 243//243
f 244//244 241//241 243//243
f 245//245 246//246 247//247
f 244//244 243//243 248//248
f 244//244 248//248 249//249
f 250//250 251//251 242//242
f 241//241 250//250 242//242
f 247//247 246//246 252//252
f 253//253 254//254 251//251
f 250//250 253//253 251//251
f 252//252 255//255 256//256
f 249//249 248//248 257//257
f 249//249 257//257 258//258
f 252//252 246//246 255//255
f 258//258 257//257 259//259
f 255//255 260//260 256//256
f 258//258 259//259 261//261
f 262//262 263//263 254//254
f 253//253 262//262 254//254
f 256//256 260//260 264//264
f 265//265 266//266 263//263
f 262//262 265//265 263//263
f 264//264 267//267 268//268
f 261//261 259//259 269//269
f 264//264 260//260 267//267
f 261//261 269//269 270//270
f 270//270 269//269 271//271
f 270//270 271//271 272//272
f 267//267 273//273 268//268
f 274//274 275//275 266//266
f 265//265 274//274 266//266
f 268//268 273//273 276//276
f 272//272 271//271 275//275
f 274//274 272//272 275//275
f 277//277 278//278 279//279
f 277//277 280//280 281//281
f 281//281 282//282 278//278
f 277//277 281//281 278//278
f 278//278 283//283 279//279
f 278//278 282//282 283//283
f 277//277 284//284 280//280
f 277//277 279//279 285//285
f 279//279 283//283 286//286
f 282//282 287//287 283//283
f 283//283 288//288 286//286
f 283//283 287//287 289//289
f 283//283 289//289 288//288
f 288//288 289//289 290//290
f 279//279 286//286 291//291
f 286//286 288//288 292//292
f 288//288 290//290 293//293
f 281//281 280//280 294//294
f 281//281 295//295 282//282
f 282//282 296//296 287//287
f 280//280 297//297 294//294
f 281//281 294//294 298//298
f 282//282 295//295 296//296
f 287//287 299//299 289//289
f 289//289 300//300 290//290
f 290//290 301//301 302//302
f 287//287 296//296 299//299
f 289//289 299//299 303//303
f 290//290 300//300 301//301
f 280//280 284//284 304//304
f 280//280 304//304 305//305
f 280//280 305//305 306//306
f 277//277 285//285 307//307
f 277//277 308//308 284//284
f 277//277 309//309 308//308
f 279//279 291//291 285//285
f 286//286 292//292 291//291
f 290//290 310//310 293//293
f 288//288 293//293 311//311
f 290//290 302//302 310//310
f 312//312 313//313 314//314
f 315//315 312//312 314//314
f 316//316 317//317 318//318
f 315//315 319//319 320//320
f 315//315 314//314 319//319
f 315//315 317//317 316//316
f 315//315 316//316 321//321
f 315//315 322//322 312//312
f 315//315 321//321 322//322
f 322//322 321//321 323//323
f 316//316 318//318 324//324
f 316//316 324//324 321//321
f 321//321 325//325 323//323
f 324//324 318//318 326//326
f 327//327 326//326 328//328
f 321//321 324//324 329//329
f 321//321 329//329 325//325
f 324//324 326//326 327//327
f 324//324 327//327 329//329
f 329//329 330//330 325//325
f 329//329 327//327 330//330
f 327//327 331//331 332//332
f 327//327 332//332 333//333
f 334//334 333//333 335//335
f 334//334 335//335 336//336
f 327//327 333//333 334//334
f 327//327 334//334 330//330
f 334//334 336//336 337//337
f 280//280 306//306 338//338
f 280//280 338//338 297//297
f 339//339 302//302 301//301
f 340//340 339//339 301//301
f 337//337 340//340 301//301
f 334//334 337//337 301//301
f 334//334 301//301 341//341
f 334//334 341//341 342//342
f 334//334 342//342 343//343
f 338//338 344//344 313//313
f 338//338 345//345 344//344
f 312//312 338//338 313//313
f 338//338 306//306 345//345
f 312//312 322//322 346//346
f 322//322 323//323 346//346
f 323//323 325//325 347//347
f 325//325 330//330 348//348
f 330//330 334//334 349//349
f 338//338 350//350 297//297
f 338//338 351//351 350//350
f 338//338 352//352 351//351
f 353//353 343//343 354//354
f 312//312 346//346 338//338
f 323//323 347//347 346//346
f 338//338 355//355 352//352
f 338//338 346//346 355//355
f 346//346 347//347 356//356
f 346//346 356//356 355//355
f 347//347 348//348 356//356
f 334//334 343//343 349//349
f 325//325 348//348 347//347
f 330//330 357//357 348//348
f 330//330 349//349 357//357
f 353//353 349//349 343//343
f 356//356 348//348 358//358
f 348//348 357//357 358//358
f 358//358 357//357 353//353
f 357//357 349//349 353//353
f 355//355 359//359 360//360
f 361//361 362//362 359//359
f 363//363 364//364 362//362
f 355//355 361//361 359//359
f 355//355 356//356 361//361
f 356//356 363//363 361//361
f 361//361 363//363 362//362
f 353//353 364//364 363//363
f 356//356 358//358 363//363
f 358//358 353//353 363//363
f 365//365 366//366 367//367
f 365//365 368//368 369//369
f 365//365 367//367 368//368
f 367//367 370//370 368//368
f 368//368 371//371 369//369
f 368//368 370//370 371//371
f 365//365 372//372 366//366
f 365//365 369//369 373//373
f 369//369 371//371 374//374
f 370//370 375//375 371//371
f 371//371 376//376 374//374
f 371//371 375//375 377//377
f 371//371 377//377 376//376
f 376//376 377//377 378//378
f 369//369 374//374 379//379
f 374//374 376//376 380//380
f 376//376 378//378 381//381
f 366//366 382//382 367//367
f 367//367 383//383 370//370
f 370//370 384//384 375//375
f 367//367 382//382 385//385
f 366//366 386//386 382//382
f 370//370 383//383 384//384
f 375//375 387//387 377//377
f 377//377 388//388 378//378
f 378//378 389//389 390//390
f 375//375 384//384 387//387
f 377//377 387//387 391//391
f 378//378 388//388 389//389
f 365//365 392//392 372//372
f 365//365 393//393 392//392
f 366//366 372//372 394//394
f 366//366 394//394 395//395
f 366//366 395//395 396//396
f 365//365 373//373 397//397
f 369//369 379//379 373//373
f 374//374 380//380 379//379
f 376//376 381//381 398//398
f 378//378 399//399 381//381
f 378//378 390//390 399//399
f 400//400 401//401 402//402
f 400//400 403//403 401//401
f 404//404 405//405 403//403
f 400//400 404//404 403//403
f 400//400 406//406 404//404
f 407//407 408//408 409//409
f 400//400 408//408 407//407
f 400//400 407//407 410//410
f 400//400 410//410 406//406
f 406//406 410//410 411//411
f 407//407 409//409 412//412
f 407//407 412//412 410//410
f 410//410 413//413 411//411
f 412//412 409//409 414//414
f 415//415 414//414 416//416
f 415//415 417//417 418//418
f 415//415 418//418 419//419
f 410//410 412//412 420//420
f 410//410 420//420 413//413
f 412//412 414//414 415//415
f 412//412 415//415 420//420
f 420//420 421//421 413//413
f 420//420 415//415 421//421
f 415//415 422//422 421//421
f 422//422 419//419 423//423
f 422//422 423//423 424//424
f 415//415 419//419 422//422
f 422//422 424//424 425//425
f 366//366 396//396 426//426
f 366//366 426//426 386//386
f 427//427 390//390 389//389
f 428//428 427//427 389//389
f 425//425 428//428 389//389
f 422//422 425//425 389//389
f 422//422 389//389 429//429
f 422//422 429//429 430//430
f 422//422 430//430 431//431
f 426//426 432//432 405//405
f 426//426 433//433 432//432
f 404//404 426//426 405//405
f 404//404 406//406 434//434
f 426//426 396//396 433//433
f 406//406 411//411 434//434
f 411//411 413//413 435//435
f 413//413 421//421 436//436
f 422//422 437//437 421//421
f 426//426 438//438 386//386
f 426//426 439//439 438//438
f 426//426 440//440 439//439
f 441//441 431//431 442//442
f 404//404 434//434 426//426
f 411//411 435//435 434//434
f 426//426 443//443 440//440
f 426//426 434//434 443//443
f 434//434 444//444 443//443
f 434//434 435//435 444//444
f 435//435 436//436 444//444
f 422//422 431//431 437//437
f 413//413 436//436 435//435
f 421//421 445//445 436//436
f 421//421 437//437 445//445
f 437//437 431//431 441//441
f 444//444 436//436 446//446
f 436//436 445//445 446//446
f 446//446 445//445 441//441
f 437//437 441//441 445//445
f 443//443 447//447 448//448
f 449//449 450//450 447//447
f 451//451 452//452 450//450
f 443//443 449//449 447//447
f 443//443 444//444 449//449
f 444//444 451//451 449//449
f 449//449 451//451 450//450
f 441//441 452//452 451//451
f 444//444 446//446 451//451
f 446//446 441//441 451//451
f 453//453 454//454 455//455
f 454//454 456//456 455//455
f 454//454 457//457 456//456
f 458//458 457//457 454//454
f 459//459 460//460 461//461
f 458//458 462//462 457//457
f 459//459 463//463 464//464
f 465//465 461//461 460//460
f 458//458 466//466 462//462
f 466//466 467//467 462//462
f 459//459 464//464 460//460
f 466//466 468//468 467//467
f 468//468 469//469 467//467
f 468//468 470//470 469//469
f 453//453 455//455 285//285
f 471//471 472//472 473//473
f 473//473 472//472 474//474
f 473//473 474//474 475//475
f 473//473 475//475 476//476
f 463//463 477//477 478//478
f 476//476 475//475 479//479
f 477//477 480//480 481//481
f 463//463 478//478 464//464
f 476//476 479//479 482//482
f 477//477 481//481 478//478
f 476//476 482//482 483//483
f 483//483 482//482 484//484
f 470//470 484//484 469//469
f 483//483 484//484 470//470
f 471//471 318//318 472//472
f 471//471 326//326 318//318
f 453//453 285//285 485//485
f 453//453 486//486 471//471
f 471//471 487//487 326//326
f 485//485 285//285 291//291
f 488//488 489//489 490//490
f 491//491 490//490 489//489
f 485//485 291//291 492//492
f 493//493 494//494 491//491
f 495//495 496//496 493//493
f 497//497 498//498 495//495
f 485//485 492//492 488//488
f 487//487 499//499 326//326
f 500//500 499//499 487//487
f 500//500 501//501 502//502
f 501//501 503//503 502//502
f 503//503 504//504 505//505
f 505//505 506//506 497//497
f 488//488 490//490 507//507
f 488//488 507//507 373//373
f 491//491 508//508 490//490
f 491//491 494//494 508//508
f 493//493 496//496 494//494
f 495//495 498//498 496//496
f 471//471 509//509 487//487
f 471//471 409//409 509//509
f 471//471 414//414 409//409
f 500//500 487//487 510//510
f 500//500 510//510 501//501
f 503//503 501//501 504//504
f 505//505 504//504 506//506
f 497//497 506//506 498//498
f 453//453 485//485 486//486
f 485//485 488//488 373//373
f 471//471 486//486 414//414
f 485//485 373//373 379//379
f 485//485 379//379 511//511
f 485//485 511//511 512//512
f 485//485 512//512 513//513
f 513//513 512//512 514//514
f 515//515 513//513 514//514
f 516//516 517//517 518//518
f 515//515 514//514 519//519
f 516//516 520//520 521//521
f 522//522 518//518 517//517
f 515//515 519//519 523//523
f 515//515 523//523 524//524
f 516//516 518//518 520//520
f 524//524 523//523 525//525
f 524//524 525//525 526//526
f 526//526 525//525 527//527
f 486//486 528//528 414//414
f 486//486 529//529 528//528
f 529//529 530//530 528//528
f 529//529 531//531 530//530
f 529//529 532//532 531//531
f 521//521 533//533 534//534
f 532//532 535//535 531//531
f 534//534 536//536 537//537
f 521//521 520//520 533//533
f 532//532 538//538 535//535
f 534//534 533//533 536//536
f 538//538 539//539 535//535
f 538//538 540//540 539//539
f 526//526 527//527 540//540
f 540//540 527//527 539//539
