v 0.22000 0.00000 0.25000
v -0.22000 0.00000 0.25000
v -0.22000 -0.13000 0.25000
v 0.22000 -0.13000 0.25000
v -0.22000 -0.13000 0.25000
v -0.22000 -0.13000 -0.25000
v -0.22000 0.04975 -0.23097
v -0.22000 -0.13000 0.25000
v -0.22000 0.00000 0.25000
v 0.22000 -0.13000 0.25000
v 0.22000 0.04975 -0.23097
v 0.22000 0.00000 0.25000
v 0.22000 -0.13000 0.25000
v 0.22000 0.02536 0.24520
v -0.22000 0.02536 0.24520
v 0.22000 0.04975 0.23097
v -0.22000 0.04975 0.23097
v 0.22000 0.07222 0.20787
v -0.22000 0.07222 0.20787
v 0.22000 0.09192 0.17678
v -0.22000 0.09192 0.17678
v 0.22000 0.10809 0.13889
v -0.22000 0.10809 0.13889
v -0.22000 0.07222 -0.20787
v -0.22000 0.02536 0.24520
v -0.22000 0.09192 -0.17678
v -0.22000 0.04975 0.23097
v -0.22000 0.10809 -0.13889
v -0.22000 0.07222 0.20787
v -0.22000 0.12010 -0.09567
v -0.22000 0.09192 0.17678
v -0.22000 0.12750 -0.04877
v -0.22000 0.10809 0.13889
v -0.22000 0.13000 0.00000
v -0.22000 0.12010 0.09567
v -0.22000 0.12750 0.04877
v 0.22000 0.12010 0.09567
v -0.22000 0.12010 0.09567
v 0.22000 0.12750 0.04877
v -0.22000 0.12750 0.04877
v 0.22000 0.13000 0.00000
v -0.22000 0.13000 0.00000
v 0.22000 0.07222 -0.20787
v 0.22000 0.02536 0.24520
v 0.22000 0.09192 -0.17678
v 0.22000 0.04975 0.23097
v 0.22000 0.10809 -0.13889
v 0.22000 0.07222 0.20787
v 0.22000 0.12010 -0.09567
v 0.22000 0.09192 0.17678
v 0.22000 0.12750 -0.04877
v 0.22000 0.10809 0.13889
v 0.22000 0.13000 0.00000
v 0.22000 0.12010 0.09567
v 0.22000 0.12750 0.04877
v -0.22000 0.02536 -0.24520
v -0.22000 -0.13000 -0.25000
v 0.22000 -0.13000 -0.25000
v -0.22000 -0.13000 -0.25000
v -0.22000 0.00000 -0.25000
v -0.22000 0.00000 -0.25000
v 0.22000 -0.13000 -0.25000
v 0.22000 0.02536 -0.24520
v 0.22000 -0.13000 -0.25000
v 0.22000 0.00000 -0.25000
v 0.22000 0.00000 -0.25000
v 0.22000 0.12750 -0.04877
v -0.22000 0.12750 -0.04877
v 0.22000 0.12010 -0.09567
v -0.22000 0.12010 -0.09567
v 0.22000 0.10809 -0.13889
v -0.22000 0.10809 -0.13889
v -0.22000 0.02536 -0.24520
v 0.22000 0.02536 -0.24520
v -0.22000 0.04975 -0.23097
v 0.22000 0.04975 -0.23097
v -0.22000 0.07222 -0.20787
v 0.22000 0.09192 -0.17678
v -0.22000 0.09192 -0.17678
v 0.22000 0.07222 -0.20787
vn 0.0000 0.0935 0.9956
vn 0.0000 0.0935 0.9956
vn 0.0000 0.0000 1.0000
vn 0.0000 -1.0000 0.0000
vn 0.0000 -1.0000 0.0000
vn 0.0000 -1.0000 0.0000
vn -1.0000 0.0000 0.0000
vn -1.0000 0.0000 0.0000
vn -1.0000 0.0000 0.0000
vn 0.0000 0.0000 1.0000
vn 1.0000 0.0000 0.0000
vn 1.0000 0.0000 0.0000
vn 1.0000 0.0000 0.0000
vn 0.0000 0.3501 0.9367
vn 0.0000 0.3501 0.9367
vn 0.0000 0.6160 0.7878
vn 0.0000 0.6160 0.7878
vn 0.0000 0.7849 0.6196
vn 0.0000 0.7849 0.6196
vn 0.0000 0.8851 0.4654
vn 0.0000 0.8851 0.4654
vn 0.0000 0.9437 0.3309
vn 0.0000 0.9437 0.3309
vn -1.0000 0.0000 0.0000
vn -1.0000 0.0000 0.0000
vn -1.0000 0.0000 0.0000
vn -1.0000 0.0000 0.0000
vn -1.0000 0.0000 0.0000
vn -1.0000 0.0000 0.0000
vn -1.0000 0.0000 0.0000
vn -1.0000 0.0000 0.0000
vn -1.0000 0.0000 0.0000
vn -1.0000 0.0000 0.0000
vn -1.0000 0.0000 0.0000
vn -1.0000 0.0000 0.0000
vn -1.0000 0.0000 0.0000
vn 0.0000 0.9772 0.2122
vn -0.0000 0.9772 0.2122
vn -0.0000 0.9946 0.1036
vn 0.0000 0.9946 0.1036
vn 0.0000 1.0000 -0.0000
vn 0.0000 1.0000 0.0000
vn 1.0000 0.0000 0.0000
vn 1.0000 0.0000 0.0000
vn 1.0000 0.0000 0.0000
vn 1.0000 0.0000 0.0000
vn 1.0000 0.0000 0.0000
vn 1.0000 0.0000 0.0000
vn 1.0000 0.0000 0.0000
vn 1.0000 0.0000 0.0000
vn 1.0000 0.0000 0.0000
vn 1.0000 0.0000 0.0000
vn 1.0000 0.0000 0.0000
vn 1.0000 0.0000 0.0000
vn 1.0000 0.0000 0.0000
vn -1.0000 0.0000 0.0000
vn -1.0000 0.0000 0.0000
vn 0.0000 0.0000 -1.0000
vn 0.0000 0.0000 -1.0000
vn 0.0000 0.0935 -0.9956
vn -1.0000 0.0000 0.0000
vn 0.0000 -1.0000 0.0000
vn 1.0000 0.0000 0.0000
vn 1.0000 0.0000 0.0000
vn -0.0000 0.0935 -0.9956
vn 1.0000 0.0000 0.0000
vn 0.0000 0.9946 -0.1036
vn 0.0000 0.9946 -0.1036
vn 0.0000 0.9772 -0.2122
vn -0.0000 0.9772 -0.2122
vn -0.0000 0.9437 -0.3309
vn 0.0000 0.9437 -0.3309
vn -0.0000 0.3501 -0.9367
vn -0.0000 0.3501 -0.9367
vn -0.0000 0.6160 -0.7878
vn 0.0000 0.6160 -0.7878
vn 0.0000 0.7849 -0.6196
vn 0.0000 0.8851 -0.4654
vn -0.0000 0.8851 -0.4654
vn -0.0000 0.7849 -0.6196
f 1//1 2//2 3//3
f 4//4 5//5 6//6
f 7//7 8//8 9//9
f 10//10 1//1 3//3
f 11//11 12//12 13//13
f 14//14 15//15 2//2
f 16//16 17//17 15//15
f 18//18 19//19 17//17
f 20//20 21//21 19//19
f 22//22 23//23 21//21
f 24//24 9//9 25//25
f 26//26 25//25 27//27
f 28//28 27//27 29//29
f 30//30 29//29 31//31
f 32//32 31//31 33//33
f 34//34 33//33 35//35
f 34//34 35//35 36//36
f 30//30 31//31 32//32
f 32//32 33//33 34//34
f 37//37 38//38 23//23
f 39//39 40//40 38//38
f 41//41 42//42 40//40
f 1//1 14//14 2//2
f 14//14 16//16 15//15
f 16//16 18//18 17//17
f 18//18 20//20 19//19
f 20//20 22//22 21//21
f 43//43 44//44 12//12
f 45//45 46//46 44//44
f 22//22 37//37 23//23
f 37//37 39//39 38//38
f 39//39 41//41 40//40
f 47//47 48//48 46//46
f 49//49 50//50 48//48
f 51//51 52//52 50//50
f 53//53 54//54 52//52
f 53//53 55//55 54//54
f 49//49 51//51 50//50
f 51//51 53//53 52//52
f 56//56 57//57 8//8
f 56//56 8//8 7//7
f 58//58 59//59 60//60
f 61//61 57//57 56//56
f 62//62 4//4 6//6
f 63//63 13//13 64//64
f 63//63 11//11 13//13
f 65//65 58//58 60//60
f 66//66 63//63 64//64
f 24//24 25//25 26//26
f 7//7 9//9 24//24
f 26//26 27//27 28//28
f 28//28 29//29 30//30
f 67//67 68//68 42//42
f 69//69 70//70 68//68
f 71//71 72//72 70//70
f 65//65 60//60 73//73
f 74//74 73//73 75//75
f 76//76 75//75 77//77
f 78//78 79//79 72//72
f 80//80 77//77 79//79
f 43//43 45//45 44//44
f 11//11 43//43 12//12
f 41//41 67//67 42//42
f 67//67 69//69 68//68
f 69//69 71//71 70//70
f 45//45 47//47 46//46
f 47//47 49//49 48//48
f 74//74 65//65 73//73
f 80//80 76//76 77//77
f 76//76 74//74 75//75
f 78//78 80//80 79//79
f 71//71 78//78 72//72
