v -0.08043 0.04900 0.06749
v -0.08043 -0.04900 0.06749
v -0.05250 -0.04900 0.09093
v -0.08043 -0.04900 -0.06749
v -0.08043 -0.04900 0.06749
v -0.09867 -0.04900 0.03591
v -0.05250 -0.04900 -0.09093
v -0.05250 -0.04900 0.09093
v -0.09867 0.04900 0.03591
v -0.09867 -0.04900 0.03591
v -0.10500 0.04900 0.00000
v -0.10500 -0.04900 0.00000
v -0.05250 0.04900 0.09093
v -0.01823 -0.04900 0.10340
v -0.01823 0.04900 0.10340
v 0.01823 -0.04900 0.10340
v -0.01823 -0.04900 -0.10340
v -0.01823 -0.04900 0.10340
v -0.08043 0.04900 -0.06749
v -0.09867 0.04900 0.03591
v -0.08043 0.04900 0.06749
v -0.05250 0.04900 -0.09093
v -0.05250 0.04900 0.09093
v -0.01823 0.04900 -0.10340
v -0.01823 0.04900 0.10340
v -0.09867 -0.04900 -0.03591
v -0.10500 -0.04900 0.00000
v -0.09867 0.04900 -0.03591
v -0.09867 -0.04900 -0.03591
v -0.08043 0.04900 -0.06749
v -0.08043 -0.04900 -0.06749
v -0.05250 0.04900 -0.09093
v -0.05250 -0.04900 -0.09093
v 0.01823 -0.04900 -0.10340
v -0.01823 0.04900 -0.10340
v -0.01823 -0.04900 -0.10340
v -0.09867 0.04900 -0.03591
v -0.10500 0.04900 0.00000
v 0.01823 0.04900 -0.10340
v 0.01823 0.04900 -0.10340
v 0.01823 0.04900 0.10340
v 0.05250 -0.04900 0.09093
v 0.01823 -0.04900 0.10340
v 0.05250 -0.04900 -0.09093
v 0.05250 -0.04900 0.09093
v 0.05250 0.04900 0.09093
v 0.08043 -0.04900 0.06749
v 0.08043 0.04900 0.06749
v 0.09867 -0.04900 0.03591
v 0.08043 -0.04900 -0.06749
v 0.08043 -0.04900 0.06749
v 0.09867 -0.04900 -0.03591
v 0.09867 -0.04900 0.03591
v 0.09867 0.04900 0.03591
v 0.10500 -0.04900 0.00000
v 0.01823 0.04900 0.10340
v 0.05250 0.04900 -0.09093
v 0.05250 0.04900 0.09093
v 0.10500 0.04900 0.00000
v 0.08043 0.04900 -0.06749
v 0.08043 0.04900 0.06749
v 0.09867 0.04900 -0.03591
v 0.09867 0.04900 0.03591
v 0.01823 -0.04900 -0.10340
v 0.05250 0.04900 -0.09093
v 0.05250 -0.04900 -0.09093
v 0.10500 -0.04900 0.00000
v 0.09867 -0.04900 -0.03591
v 0.09867 0.04900 -0.03591
v 0.08043 -0.04900 -0.06749
v 0.08043 0.04900 -0.06749
v 0.10500 0.04900 0.00000
vn -0.7660 0.0000 0.6428
vn -0.7660 0.0000 0.6428
vn -0.5000 0.0000 0.8660
vn 0.0000 -1.0000 0.0000
vn 0.0000 -1.0000 0.0000
vn 0.0000 -1.0000 0.0000
vn 0.0000 -1.0000 0.0000
vn 0.0000 -1.0000 0.0000
vn -0.9397 0.0000 0.3420
vn -0.9397 -0.0000 0.3420
vn -1.0000 -0.0000 0.0000
vn -1.0000 0.0000 0.0000
vn -0.5000 -0.0000 0.8660
vn -0.1736 -0.0000 0.9848
vn -0.1736 0.0000 0.9848
vn 0.1736 0.0000 0.9848
vn 0.0000 -1.0000 0.0000
vn 0.0000 -1.0000 0.0000
vn 0.0000 1.0000 0.0000
vn 0.0000 1.0000 0.0000
vn 0.0000 1.0000 0.0000
vn 0.0000 1.0000 0.0000
vn 0.0000 1.0000 0.0000
vn 0.0000 1.0000 0.0000
vn 0.0000 1.0000 0.0000
vn 0.0000 -1.0000 0.0000
vn 0.0000 -1.0000 0.0000
vn -0.9397 0.0000 -0.3420
vn -0.9397 0.0000 -0.3420
vn -0.7660 0.0000 -0.6428
vn -0.7660 0.0000 -0.6428
vn -0.5000 0.0000 -0.8660
vn -0.5000 0.0000 -0.8660
vn 0.0000 -1.0000 0.0000
vn -0.1736 0.0000 -0.9848
vn -0.1736 0.0000 -0.9848
vn 0.0000 1.0000 0.0000
vn 0.0000 1.0000 0.0000
vn 0.0000 1.0000 0.0000
vn 0.1736 0.0000 -0.9848
vn 0.1736 0.0000 0.9848
vn 0.5000 0.0000 0.8660
vn 0.0000 -1.0000 0.0000
vn 0.0000 -1.0000 0.0000
vn 0.0000 -1.0000 0.0000
vn 0.5000 0.0000 0.8660
vn 0.7660 0.0000 0.6428
vn 0.7660 0.0000 0.6428
vn 0.9397 0.0000 0.3420
vn 0.0000 -1.0000 0.0000
vn 0.0000 -1.0000 0.0000
vn 0.0000 -1.0000 0.0000
vn 0.0000 -1.0000 0.0000
vn 0.9397 0.0000 0.3420
vn 1.0000 0.0000 0.0000
vn 0.0000 1.0000 0.0000
vn 0.0000 1.0000 0.0000
vn 0.0000 1.0000 0.0000
vn 1.0000 -0.0000 0.0000
vn 0.0000 1.0000 0.0000
vn 0.0000 1.0000 0.0000
vn 0.0000 1.0000 0.0000
vn 0.0000 1.0000 0.0000
vn 0.1736 -0.0000 -0.9848
vn 0.5000 -0.0000 -0.8660
vn 0.5000 0.0000 -0.8660
vn 0.0000 -1.0000 0.0000
vn 0.9397 -0.0000 -0.3420
vn 0.9397 0.0000 -0.3420
vn 0.7660 0.0000 -0.6428
vn 0.7660 0.0000 -0.6428
vn 0.0000 1.0000 0.0000
f 1//1 2//2 3//3
f 4//4 5//5 6//6
f 7//7 8//8 5//5
f 9//9 10//10 2//2
f 11//11 12//12 10//10
f 13//13 3//3 14//14
f 15//15 14//14 16//16
f 17//17 18//18 8//8
f 1//1 9//9 2//2
f 13//13 1//1 3//3
f 9//9 11//11 10//10
f 19//19 20//20 21//21
f 22//22 21//21 23//23
f 15//15 13//13 14//14
f 24//24 23//23 25//25
f 26//26 6//6 27//27
f 4//4 6//6 26//26
f 7//7 5//5 4//4
f 28//28 29//29 12//12
f 30//30 31//31 29//29
f 32//32 33//33 31//31
f 17//17 8//8 7//7
f 34//34 18//18 17//17
f 35//35 36//36 33//33
f 11//11 28//28 12//12
f 28//28 30//30 29//29
f 37//37 38//38 20//20
f 19//19 37//37 20//20
f 22//22 19//19 21//21
f 30//30 32//32 31//31
f 24//24 22//22 23//23
f 39//39 24//24 25//25
f 32//32 35//35 33//33
f 35//35 40//40 36//36
f 41//41 16//16 42//42
f 34//34 43//43 18//18
f 44//44 45//45 43//43
f 46//46 42//42 47//47
f 48//48 47//47 49//49
f 50//50 51//51 45//45
f 52//52 53//53 51//51
f 54//54 49//49 55//55
f 41//41 15//15 16//16
f 46//46 41//41 42//42
f 39//39 25//25 56//56
f 57//57 56//56 58//58
f 48//48 46//46 47//47
f 54//54 48//48 49//49
f 59//59 54//54 55//55
f 60//60 58//58 61//61
f 62//62 61//61 63//63
f 44//44 43//43 34//34
f 40//40 64//64 36//36
f 65//65 66//66 64//64
f 50//50 45//45 44//44
f 52//52 51//51 50//50
f 67//67 53//53 52//52
f 59//59 55//55 68//68
f 69//69 68//68 70//70
f 71//71 70//70 66//66
f 57//57 39//39 56//56
f 40//40 65//65 64//64
f 69//69 59//59 68//68
f 60//60 57//57 58//58
f 62//62 60//60 61//61
f 72//72 62//62 63//63
f 65//65 71//71 66//66
f 71//71 69//69 70//70
