v -0.37536 -0.22500 -0.47566
v -0.37502 -0.22600 -0.47603
v -0.37563 -0.22600 -0.47490
v -0.42415 -0.22600 -0.37027
v -0.42435 -0.22500 -0.37000
v -0.40313 -0.12243 -0.39737
v -0.31497 -0.22500 -0.56687
v -0.31446 -0.22600 -0.56728
v -0.31521 -0.22600 -0.56636
v -0.24500 -0.22500 -0.64086
v -0.24518 -0.22600 -0.64055
v -0.26313 -0.12243 -0.60881
v -0.34033 -0.12180 -0.51397
v -0.42459 -0.22600 -0.36898
v -0.46033 -0.22600 -0.25323
v -0.46045 -0.22500 -0.25309
v -0.46059 -0.22600 -0.25187
v -0.48247 -0.22600 -0.12854
v -0.48256 -0.22500 -0.12850
v -0.48256 -0.22600 -0.12715
v -0.48992 -0.22600 0.00000
v -0.49000 -0.22500 0.00000
v -0.44802 -0.12417 -0.26721
v -0.47408 -0.12667 -0.13230
v -0.48256 -0.12949 0.00000
v -0.35659 -0.01203 -0.41890
v -0.27738 -0.01203 -0.53853
v -0.28290 0.09254 -0.42724
v -0.44802 -0.02640 -0.13567
v -0.41432 -0.01736 -0.27936
v -0.46045 -0.03689 0.00000
v -0.35659 0.08635 -0.28655
v -0.42435 0.05000 0.00000
v -0.40313 0.07034 -0.13801
v -0.16759 -0.22500 -0.69537
v -0.24432 -0.22600 -0.64121
v -0.16768 -0.22600 -0.69519
v -0.16678 -0.22600 -0.69558
v -0.08509 -0.22500 -0.72876
v -0.17694 -0.12417 -0.67660
v -0.08761 -0.12667 -0.71596
v -0.08511 -0.22600 -0.72863
v -0.08420 -0.22600 -0.72876
v 0.00000 -0.22500 -0.74000
v 0.00000 -0.22600 -0.73988
v 0.00000 -0.12949 -0.72876
v -0.18498 -0.01736 -0.62571
v -0.08983 -0.02640 -0.67660
v -0.18974 0.08635 -0.53853
v 0.00000 -0.03689 -0.69537
v -0.09138 0.07034 -0.60881
v 0.00000 0.05000 -0.64086
v -0.48256 -0.22600 0.12715
v -0.48256 -0.22500 0.12850
v -0.48247 -0.22600 0.12854
v -0.46059 -0.22600 0.25187
v -0.46045 -0.22500 0.25309
v -0.46033 -0.22600 0.25323
v -0.42459 -0.22600 0.36898
v -0.42435 -0.22500 0.37000
v -0.42415 -0.22600 0.37027
v -0.47408 -0.12667 0.13230
v -0.44802 -0.12417 0.26721
v -0.40313 -0.12243 0.39737
v -0.37536 -0.22500 0.47566
v -0.37563 -0.22600 0.47490
v -0.37502 -0.22600 0.47603
v -0.31521 -0.22600 0.56636
v -0.31497 -0.22500 0.56687
v -0.31446 -0.22600 0.56728
v -0.24518 -0.22600 0.64055
v -0.24500 -0.22500 0.64086
v -0.34033 -0.12180 0.51397
v -0.26313 -0.12243 0.60881
v -0.44802 -0.02640 0.13567
v -0.41432 -0.01736 0.27936
v -0.35659 -0.01203 0.41890
v -0.40313 0.07034 0.13801
v -0.35659 0.08635 0.28655
v -0.27738 -0.01203 0.53853
v -0.28290 0.09254 0.42724
v -0.24432 -0.22600 0.64121
v -0.16768 -0.22600 0.69519
v -0.16759 -0.22500 0.69537
v -0.16678 -0.22600 0.69558
v -0.08511 -0.22600 0.72863
v -0.17694 -0.12417 0.67660
v -0.08761 -0.12667 0.71596
v -0.08509 -0.22500 0.72876
v -0.08420 -0.22600 0.72876
v 0.00000 -0.22500 0.74000
v 0.00000 -0.22600 0.73988
v 0.00000 -0.12949 0.72876
v -0.18498 -0.01736 0.62571
v -0.08983 -0.02640 0.67660
v -0.18974 0.08635 0.53853
v 0.00000 -0.03689 0.69537
v -0.09138 0.07034 0.60881
v 0.00000 0.05000 0.64086
v -0.27738 0.17526 -0.28655
v -0.18974 0.17526 -0.41890
v -0.37536 0.12853 0.00000
v -0.34033 0.15700 -0.13885
v -0.31497 0.19632 0.00000
v -0.26313 0.22749 -0.13801
v -0.24500 0.25131 0.00000
v -0.09194 0.15700 -0.51397
v 0.00000 0.12853 -0.56687
v 0.00000 0.19632 -0.47566
v -0.09138 0.22749 -0.39737
v 0.00000 0.25131 -0.37000
v -0.18498 0.24005 -0.27936
v -0.17694 0.27788 -0.13567
v -0.08983 0.27788 -0.26721
v -0.16759 0.29183 0.00000
v -0.08761 0.30713 -0.13230
v 0.00000 0.29183 -0.25309
v -0.08509 0.31664 0.00000
v 0.00000 0.31664 -0.12850
v 0.00000 0.32500 0.00000
v -0.34033 0.15700 0.13885
v -0.27738 0.17526 0.28655
v -0.18974 0.17526 0.41890
v -0.26313 0.22749 0.13801
v -0.09194 0.15700 0.51397
v 0.00000 0.12853 0.56687
v 0.00000 0.19632 0.47566
v -0.18498 0.24005 0.27936
v -0.17694 0.27788 0.13567
v -0.09138 0.22749 0.39737
v -0.08761 0.30713 0.13230
v -0.08983 0.27788 0.26721
v 0.00000 0.31664 0.12850
v 0.00000 0.29183 0.25309
v 0.00000 0.25131 0.37000
v 0.08509 -0.22500 -0.72876
v 0.08420 -0.22600 -0.72876
v 0.08511 -0.22600 -0.72863
v 0.16759 -0.22500 -0.69537
v 0.08761 -0.12667 -0.71596
v 0.16678 -0.22600 -0.69558
v 0.16768 -0.22600 -0.69519
v 0.24500 -0.22500 -0.64086
v 0.24432 -0.22600 -0.64121
v 0.24518 -0.22600 -0.64055
v 0.17694 -0.12417 -0.67660
v 0.26313 -0.12243 -0.60881
v 0.08983 -0.02640 -0.67660
v 0.09138 0.07034 -0.60881
v 0.18498 -0.01736 -0.62571
v 0.27738 -0.01203 -0.53853
v 0.18974 0.08635 -0.53853
v 0.31497 -0.22500 -0.56687
v 0.31446 -0.22600 -0.56728
v 0.31521 -0.22600 -0.56636
v 0.37502 -0.22600 -0.47603
v 0.37536 -0.22500 -0.47566
v 0.34033 -0.12180 -0.51397
v 0.40313 -0.12243 -0.39737
v 0.37563 -0.22600 -0.47490
v 0.42435 -0.22500 -0.37000
v 0.42415 -0.22600 -0.37027
v 0.42459 -0.22600 -0.36898
v 0.46045 -0.22500 -0.25309
v 0.46033 -0.22600 -0.25323
v 0.46059 -0.22600 -0.25187
v 0.48256 -0.22500 -0.12850
v 0.48247 -0.22600 -0.12854
v 0.48256 -0.22600 -0.12715
v 0.49000 -0.22500 0.00000
v 0.48992 -0.22600 0.00000
v 0.44802 -0.12417 -0.26721
v 0.47408 -0.12667 -0.13230
v 0.48256 -0.12949 0.00000
v 0.35659 -0.01203 -0.41890
v 0.28290 0.09254 -0.42724
v 0.41432 -0.01736 -0.27936
v 0.44802 -0.02640 -0.13567
v 0.46045 -0.03689 0.00000
v 0.35659 0.08635 -0.28655
v 0.40313 0.07034 -0.13801
v 0.42435 0.05000 0.00000
v 0.08420 -0.22600 0.72876
v 0.08509 -0.22500 0.72876
v 0.08511 -0.22600 0.72863
v 0.16678 -0.22600 0.69558
v 0.08761 -0.12667 0.71596
v 0.16759 -0.22500 0.69537
v 0.16768 -0.22600 0.69519
v 0.24500 -0.22500 0.64086
v 0.24432 -0.22600 0.64121
v 0.24518 -0.22600 0.64055
v 0.17694 -0.12417 0.67660
v 0.26313 -0.12243 0.60881
v 0.08983 -0.02640 0.67660
v 0.18498 -0.01736 0.62571
v 0.09138 0.07034 0.60881
v 0.27738 -0.01203 0.53853
v 0.18974 0.08635 0.53853
v 0.48256 -0.22500 0.12850
v 0.48256 -0.22600 0.12715
v 0.48247 -0.22600 0.12854
v 0.46045 -0.22500 0.25309
v 0.42435 -0.22500 0.37000
v 0.42415 -0.22600 0.37027
v 0.42459 -0.22600 0.36898
v 0.46033 -0.22600 0.25323
v 0.46059 -0.22600 0.25187
v 0.47408 -0.12667 0.13230
v 0.44802 -0.12417 0.26721
v 0.40313 -0.12243 0.39737
v 0.31497 -0.22500 0.56687
v 0.31521 -0.22600 0.56636
v 0.37536 -0.22500 0.47566
v 0.37502 -0.22600 0.47603
v 0.31446 -0.22600 0.56728
v 0.34033 -0.12180 0.51397
v 0.37563 -0.22600 0.47490
v 0.44802 -0.02640 0.13567
v 0.41432 -0.01736 0.27936
v 0.35659 -0.01203 0.41890
v 0.40313 0.07034 0.13801
v 0.35659 0.08635 0.28655
v 0.28290 0.09254 0.42724
v 0.09194 0.15700 -0.51397
v 0.18974 0.17526 -0.41890
v 0.09138 0.22749 -0.39737
v 0.08983 0.27788 -0.26721
v 0.18498 0.24005 -0.27936
v 0.08761 0.30713 -0.13230
v 0.08509 0.31664 0.00000
v 0.17694 0.27788 -0.13567
v 0.16759 0.29183 0.00000
v 0.27738 0.17526 -0.28655
v 0.26313 0.22749 -0.13801
v 0.24500 0.25131 0.00000
v 0.34033 0.15700 -0.13885
v 0.37536 0.12853 0.00000
v 0.31497 0.19632 0.00000
v 0.09194 0.15700 0.51397
v 0.18974 0.17526 0.41890
v 0.08983 0.27788 0.26721
v 0.09138 0.22749 0.39737
v 0.18498 0.24005 0.27936
v 0.08761 0.30713 0.13230
v 0.17694 0.27788 0.13567
v 0.26313 0.22749 0.13801
v 0.27738 0.17526 0.28655
v 0.34033 0.15700 0.13885
v -0.39837 -0.22500 -0.35500
v -0.39817 -0.22600 -0.35527
v -0.35265 -0.22600 -0.45560
v -0.35238 -0.22500 -0.45638
v -0.37845 -0.12802 -0.38126
v -0.29568 -0.22500 -0.54389
v -0.29518 -0.22600 -0.54431
v -0.23000 -0.22500 -0.61488
v -0.23018 -0.22600 -0.61456
v -0.29593 -0.22600 -0.54337
v -0.35204 -0.22600 -0.45676
v -0.24702 -0.12802 -0.58413
v -0.31949 -0.12743 -0.49313
v -0.43226 -0.22500 -0.24283
v -0.45301 -0.22500 -0.12329
v -0.43240 -0.22600 -0.24159
v -0.39860 -0.22600 -0.35397
v -0.43214 -0.22600 -0.24298
v -0.45293 -0.22600 -0.12333
v -0.45301 -0.22600 -0.12192
v -0.46000 -0.22500 0.00000
v -0.45992 -0.22600 0.00000
v -0.42059 -0.12967 -0.25638
v -0.44505 -0.13203 -0.12694
v -0.45301 -0.13470 0.00000
v -0.33476 -0.02364 -0.40192
v -0.26040 -0.02364 -0.51670
v -0.26558 0.07522 -0.40992
v -0.38895 -0.02869 -0.26804
v -0.42059 -0.03723 -0.13017
v -0.43226 -0.04715 0.00000
v -0.39837 0.03500 0.00000
v -0.37845 0.05423 -0.13241
v -0.33476 0.06936 -0.27493
v -0.22933 -0.22600 -0.61524
v -0.15733 -0.22500 -0.66718
v -0.15742 -0.22600 -0.66699
v -0.15652 -0.22600 -0.66739
v -0.07988 -0.22500 -0.69921
v -0.16610 -0.12967 -0.64917
v -0.08224 -0.13203 -0.68693
v -0.07990 -0.22600 -0.69908
v -0.07899 -0.22600 -0.69921
v 0.00000 -0.22500 -0.71000
v 0.00000 -0.22600 -0.70988
v 0.00000 -0.13470 -0.69921
v -0.17366 -0.02869 -0.60034
v -0.08433 -0.03723 -0.64917
v -0.17812 0.06936 -0.51670
v 0.00000 -0.04715 -0.66718
v -0.08579 0.05423 -0.58413
v 0.00000 0.03500 -0.61488
v -0.45301 -0.22600 0.12192
v -0.45301 -0.22500 0.12329
v -0.45293 -0.22600 0.12333
v -0.43240 -0.22600 0.24159
v -0.43226 -0.22500 0.24283
v -0.43214 -0.22600 0.24298
v -0.39860 -0.22600 0.35397
v -0.39837 -0.22500 0.35500
v -0.39817 -0.22600 0.35527
v -0.44505 -0.13203 0.12694
v -0.42059 -0.12967 0.25638
v -0.37845 -0.12802 0.38126
v -0.35265 -0.22600 0.45560
v -0.35238 -0.22500 0.45638
v -0.35204 -0.22600 0.45676
v -0.29593 -0.22600 0.54337
v -0.29568 -0.22500 0.54389
v -0.29518 -0.22600 0.54431
v -0.23000 -0.22500 0.61488
v -0.23018 -0.22600 0.61456
v -0.31949 -0.12743 0.49313
v -0.24702 -0.12802 0.58413
v -0.42059 -0.03723 0.13017
v -0.38895 -0.02869 0.26804
v -0.37845 0.05423 0.13241
v -0.33476 -0.02364 0.40192
v -0.33476 0.06936 0.27493
v -0.26040 -0.02364 0.51670
v -0.26558 0.07522 0.40992
v -0.22933 -0.22600 0.61524
v -0.15733 -0.22500 0.66718
v -0.15742 -0.22600 0.66699
v -0.15652 -0.22600 0.66739
v -0.07988 -0.22500 0.69921
v -0.16610 -0.12967 0.64917
v -0.08224 -0.13203 0.68693
v -0.07990 -0.22600 0.69908
v -0.07899 -0.22600 0.69921
v 0.00000 -0.22500 0.71000
v 0.00000 -0.22600 0.70988
v 0.00000 -0.13470 0.69921
v -0.17366 -0.02869 0.60034
v -0.08433 -0.03723 0.64917
v -0.17812 0.06936 0.51670
v 0.00000 -0.04715 0.66718
v -0.08579 0.05423 0.58413
v 0.00000 0.03500 0.61488
v -0.35238 0.10925 0.00000
v -0.26040 0.15343 -0.27493
v -0.31949 0.13617 -0.13322
v -0.29568 0.17334 0.00000
v -0.24702 0.20281 -0.13241
v -0.23000 0.22533 0.00000
v -0.17812 0.15343 -0.40192
v -0.08631 0.13617 -0.49313
v 0.00000 0.10925 -0.54389
v -0.08579 0.20281 -0.38126
v 0.00000 0.17334 -0.45638
v -0.17366 0.21469 -0.26804
v 0.00000 0.22533 -0.35500
v -0.08433 0.25045 -0.25638
v -0.16610 0.25045 -0.13017
v -0.15733 0.26364 0.00000
v -0.08224 0.27810 -0.12694
v 0.00000 0.26364 -0.24283
v -0.07988 0.28710 0.00000
v 0.00000 0.28710 -0.12329
v 0.00000 0.29500 0.00000
v -0.31949 0.13617 0.13322
v -0.26040 0.15343 0.27493
v -0.24702 0.20281 0.13241
v -0.17812 0.15343 0.40192
v -0.17366 0.21469 0.26804
v -0.08631 0.13617 0.49313
v 0.00000 0.10925 0.54389
v -0.08579 0.20281 0.38126
v 0.00000 0.17334 0.45638
v -0.16610 0.25045 0.13017
v -0.08433 0.25045 0.25638
v -0.08224 0.27810 0.12694
v 0.00000 0.22533 0.35500
v 0.00000 0.26364 0.24283
v 0.00000 0.28710 0.12329
v 0.07899 -0.22600 -0.69921
v 0.07988 -0.22500 -0.69921
v 0.07990 -0.22600 -0.69908
v 0.15652 -0.22600 -0.66739
v 0.08224 -0.13203 -0.68693
v 0.15733 -0.22500 -0.66718
v 0.15742 -0.22600 -0.66699
v 0.22933 -0.22600 -0.61524
v 0.23000 -0.22500 -0.61488
v 0.23018 -0.22600 -0.61456
v 0.16610 -0.12967 -0.64917
v 0.24702 -0.12802 -0.58413
v 0.08433 -0.03723 -0.64917
v 0.08579 0.05423 -0.58413
v 0.17366 -0.02869 -0.60034
v 0.26040 -0.02364 -0.51670
v 0.17812 0.06936 -0.51670
v 0.29518 -0.22600 -0.54431
v 0.29568 -0.22500 -0.54389
v 0.29593 -0.22600 -0.54337
v 0.35238 -0.22500 -0.45638
v 0.35204 -0.22600 -0.45676
v 0.35265 -0.22600 -0.45560
v 0.39837 -0.22500 -0.35500
v 0.31949 -0.12743 -0.49313
v 0.37845 -0.12802 -0.38126
v 0.39817 -0.22600 -0.35527
v 0.39860 -0.22600 -0.35397
v 0.43226 -0.22500 -0.24283
v 0.43214 -0.22600 -0.24298
v 0.43240 -0.22600 -0.24159
v 0.45301 -0.22500 -0.12329
v 0.45293 -0.22600 -0.12333
v 0.45301 -0.22600 -0.12192
v 0.46000 -0.22500 0.00000
v 0.45992 -0.22600 0.00000
v 0.42059 -0.12967 -0.25638
v 0.44505 -0.13203 -0.12694
v 0.45301 -0.13470 0.00000
v 0.33476 -0.02364 -0.40192
v 0.26558 0.07522 -0.40992
v 0.38895 -0.02869 -0.26804
v 0.33476 0.06936 -0.27493
v 0.42059 -0.03723 -0.13017
v 0.43226 -0.04715 0.00000
v 0.39837 0.03500 0.00000
v 0.37845 0.05423 -0.13241
v 0.07899 -0.22600 0.69921
v 0.07988 -0.22500 0.69921
v 0.07990 -0.22600 0.69908
v 0.15652 -0.22600 0.66739
v 0.08224 -0.13203 0.68693
v 0.15733 -0.22500 0.66718
v 0.22933 -0.22600 0.61524
v 0.15742 -0.22600 0.66699
v 0.23000 -0.22500 0.61488
v 0.23018 -0.22600 0.61456
v 0.16610 -0.12967 0.64917
v 0.24702 -0.12802 0.58413
v 0.08433 -0.03723 0.64917
v 0.08579 0.05423 0.58413
v 0.17366 -0.02869 0.60034
v 0.26040 -0.02364 0.51670
v 0.17812 0.06936 0.51670
v 0.45301 -0.22600 0.12192
v 0.45301 -0.22500 0.12329
v 0.45293 -0.22600 0.12333
v 0.43226 -0.22500 0.24283
v 0.43240 -0.22600 0.24159
v 0.43214 -0.22600 0.24298
v 0.39860 -0.22600 0.35397
v 0.39837 -0.22500 0.35500
v 0.39817 -0.22600 0.35527
v 0.44505 -0.13203 0.12694
v 0.42059 -0.12967 0.25638
v 0.37845 -0.12802 0.38126
v 0.29518 -0.22600 0.54431
v 0.29568 -0.22500 0.54389
v 0.29593 -0.22600 0.54337
v 0.35238 -0.22500 0.45638
v 0.35265 -0.22600 0.45560
v 0.35204 -0.22600 0.45676
v 0.31949 -0.12743 0.49313
v 0.33476 -0.02364 0.40192
v 0.38895 -0.02869 0.26804
v 0.33476 0.06936 0.27493
v 0.42059 -0.03723 0.13017
v 0.37845 0.05423 0.13241
v 0.26558 0.07522 0.40992
v 0.08631 0.13617 -0.49313
v 0.08579 0.20281 -0.38126
v 0.17812 0.15343 -0.40192
v 0.26040 0.15343 -0.27493
v 0.17366 0.21469 -0.26804
v 0.08433 0.25045 -0.25638
v 0.08224 0.27810 -0.12694
v 0.07988 0.28710 0.00000
v 0.16610 0.25045 -0.13017
v 0.15733 0.26364 0.00000
v 0.24702 0.20281 -0.13241
v 0.23000 0.22533 0.00000
v 0.31949 0.13617 -0.13322
v 0.35238 0.10925 0.00000
v 0.29568 0.17334 0.00000
v 0.17812 0.15343 0.40192
v 0.26040 0.15343 0.27493
v 0.17366 0.21469 0.26804
v 0.08631 0.13617 0.49313
v 0.08579 0.20281 0.38126
v 0.08433 0.25045 0.25638
v 0.08224 0.27810 0.12694
v 0.16610 0.25045 0.13017
v 0.24702 0.20281 0.13241
v 0.31949 0.13617 0.13322
v -0.35265 -0.22600 -0.45560
v -0.42415 -0.22600 -0.37027
v -0.37563 -0.22600 -0.47490
v -0.39817 -0.22600 -0.35527
v -0.29518 -0.22600 -0.54431
v -0.31446 -0.22600 -0.56728
v -0.23018 -0.22600 -0.61456
v -0.22933 -0.22600 -0.61524
v -0.24518 -0.22600 -0.64055
v -0.37502 -0.22600 -0.47603
v -0.31521 -0.22600 -0.56636
v -0.29593 -0.22600 -0.54337
v -0.35204 -0.22600 -0.45676
v -0.43214 -0.22600 -0.24298
v -0.46059 -0.22600 -0.25187
v -0.46033 -0.22600 -0.25323
v -0.48247 -0.22600 -0.12854
v -0.43240 -0.22600 -0.24159
v -0.39860 -0.22600 -0.35397
v -0.42459 -0.22600 -0.36898
v -0.45293 -0.22600 -0.12333
v -0.48256 -0.22600 -0.12715
v -0.48992 -0.22600 0.00000
v -0.45301 -0.22600 -0.12192
v -0.45992 -0.22600 0.00000
v -0.15742 -0.22600 -0.66699
v -0.24432 -0.22600 -0.64121
v -0.16768 -0.22600 -0.69519
v -0.16678 -0.22600 -0.69558
v -0.08511 -0.22600 -0.72863
v -0.08420 -0.22600 -0.72876
v -0.15652 -0.22600 -0.66739
v -0.07990 -0.22600 -0.69908
v -0.07899 -0.22600 -0.69921
v 0.00000 -0.22600 -0.70988
v 0.00000 -0.22600 -0.73988
v -0.48256 -0.22600 0.12715
v -0.45301 -0.22600 0.12192
v -0.48247 -0.22600 0.12854
v -0.46059 -0.22600 0.25187
v -0.45293 -0.22600 0.12333
v -0.43240 -0.22600 0.24159
v -0.46033 -0.22600 0.25323
v -0.42459 -0.22600 0.36898
v -0.43214 -0.22600 0.24298
v -0.39860 -0.22600 0.35397
v -0.42415 -0.22600 0.37027
v -0.39817 -0.22600 0.35527
v -0.37563 -0.22600 0.47490
v -0.35265 -0.22600 0.45560
v -0.35204 -0.22600 0.45676
v -0.37502 -0.22600 0.47603
v -0.29593 -0.22600 0.54337
v -0.31521 -0.22600 0.56636
v -0.29518 -0.22600 0.54431
v -0.31446 -0.22600 0.56728
v -0.24518 -0.22600 0.64055
v -0.23018 -0.22600 0.61456
v -0.22933 -0.22600 0.61524
v -0.24432 -0.22600 0.64121
v -0.16768 -0.22600 0.69519
v -0.15742 -0.22600 0.66699
v -0.15652 -0.22600 0.66739
v -0.16678 -0.22600 0.69558
v -0.08511 -0.22600 0.72863
v -0.07990 -0.22600 0.69908
v -0.08420 -0.22600 0.72876
v 0.00000 -0.22600 0.73988
v -0.07899 -0.22600 0.69921
v 0.08420 -0.22600 0.72876
v 0.07899 -0.22600 -0.69921
v 0.08420 -0.22600 -0.72876
v 0.08511 -0.22600 -0.72863
v 0.07990 -0.22600 -0.69908
v 0.15652 -0.22600 -0.66739
v 0.16678 -0.22600 -0.69558
v 0.16768 -0.22600 -0.69519
v 0.15742 -0.22600 -0.66699
v 0.22933 -0.22600 -0.61524
v 0.24432 -0.22600 -0.64121
v 0.24518 -0.22600 -0.64055
v 0.23018 -0.22600 -0.61456
v 0.31446 -0.22600 -0.56728
v 0.29518 -0.22600 -0.54431
v 0.31521 -0.22600 -0.56636
v 0.29593 -0.22600 -0.54337
v 0.35204 -0.22600 -0.45676
v 0.35265 -0.22600 -0.45560
v 0.37502 -0.22600 -0.47603
v 0.37563 -0.22600 -0.47490
v 0.39817 -0.22600 -0.35527
v 0.39860 -0.22600 -0.35397
v 0.42415 -0.22600 -0.37027
v 0.42459 -0.22600 -0.36898
v 0.43214 -0.22600 -0.24298
v 0.46033 -0.22600 -0.25323
v 0.46059 -0.22600 -0.25187
v 0.43240 -0.22600 -0.24159
v 0.45293 -0.22600 -0.12333
v 0.48247 -0.22600 -0.12854
v 0.48256 -0.22600 -0.12715
v 0.45301 -0.22600 -0.12192
v 0.45992 -0.22600 0.00000
v 0.48992 -0.22600 0.00000
v 0.00000 -0.22600 0.70988
v 0.07899 -0.22600 0.69921
v 0.08511 -0.22600 0.72863
v 0.07990 -0.22600 0.69908
v 0.16678 -0.22600 0.69558
v 0.15652 -0.22600 0.66739
v 0.16768 -0.22600 0.69519
v 0.15742 -0.22600 0.66699
v 0.24432 -0.22600 0.64121
v 0.22933 -0.22600 0.61524
v 0.24518 -0.22600 0.64055
v 0.45301 -0.22600 0.12192
v 0.48256 -0.22600 0.12715
v 0.48247 -0.22600 0.12854
v 0.45293 -0.22600 0.12333
v 0.43240 -0.22600 0.24159
v 0.43214 -0.22600 0.24298
v 0.46033 -0.22600 0.25323
v 0.39860 -0.22600 0.35397
v 0.42459 -0.22600 0.36898
v 0.42415 -0.22600 0.37027
v 0.39817 -0.22600 0.35527
v 0.46059 -0.22600 0.25187
v 0.29518 -0.22600 0.54431
v 0.31521 -0.22600 0.56636
v 0.31446 -0.22600 0.56728
v 0.35204 -0.22600 0.45676
v 0.37502 -0.22600 0.47603
v 0.29593 -0.22600 0.54337
v 0.37563 -0.22600 0.47490
v 0.23018 -0.22600 0.61456
v 0.35265 -0.22600 0.45560
v -0.48800 -0.27400 -0.73800
v -0.49507 -0.27107 -0.73800
v -0.48800 -0.27107 -0.74507
v -0.49800 -0.26400 -0.73800
v -0.49507 -0.26400 -0.74507
v -0.48800 -0.26400 -0.74800
v -0.49800 -0.23600 -0.73800
v -0.49507 -0.23600 -0.74507
v -0.48800 -0.23600 -0.74800
v -0.49507 -0.22893 -0.73800
v -0.48800 -0.22893 -0.74507
v -0.48800 -0.22600 -0.73800
v -0.49507 -0.27107 0.73800
v -0.49800 -0.23600 0.73800
v -0.43800 -0.27400 -0.68800
v -0.43800 -0.27400 0.68800
v -0.48800 -0.22600 0.73800
v -0.43800 -0.22600 -0.68800
v 0.48800 -0.27400 -0.73800
v 0.48800 -0.26400 -0.74800
v 0.48800 -0.23600 -0.74800
v 0.48800 -0.22600 -0.73800
v 0.43800 -0.22600 -0.68800
v -0.48800 -0.27400 0.73800
v -0.49800 -0.26400 0.73800
v -0.49507 -0.22893 0.73800
v -0.43800 -0.22600 0.68800
v -0.48800 -0.27107 0.74507
v -0.49507 -0.26400 0.74507
v -0.48800 -0.26400 0.74800
v -0.49507 -0.23600 0.74507
v -0.48800 -0.23600 0.74800
v -0.48800 -0.22893 0.74507
v 0.43800 -0.27400 0.68800
v 0.48800 -0.27107 0.74507
v 0.48800 -0.26400 0.74800
v 0.48800 -0.23600 0.74800
v 0.48800 -0.22600 0.73800
v 0.48800 -0.27107 -0.74507
v 0.43800 -0.27400 -0.68800
v 0.48800 -0.22893 -0.74507
v 0.49507 -0.27107 -0.73800
v 0.49507 -0.26400 -0.74507
v 0.49800 -0.26400 -0.73800
v 0.49507 -0.23600 -0.74507
v 0.49800 -0.23600 -0.73800
v 0.49507 -0.22893 -0.73800
v 0.48800 -0.27400 0.73800
v 0.49800 -0.26400 0.73800
v 0.43800 -0.22600 0.68800
v 0.49800 -0.23600 0.73800
v 0.48800 -0.22893 0.74507
v 0.49507 -0.27107 0.73800
v 0.49507 -0.22893 0.73800
v 0.49507 -0.26400 0.74507
v 0.49507 -0.23600 0.74507
v -0.43800 -0.27400 0.68800
v -0.43800 -0.27400 -0.68800
v -0.43800 -0.22600 -0.68800
v 0.43800 -0.22600 -0.68800
v -0.43800 -0.22600 -0.68800
v -0.43800 -0.27400 -0.68800
v -0.43800 -0.22600 0.68800
v -0.43800 -0.27400 0.68800
v -0.43800 -0.22600 0.68800
v 0.43800 -0.27400 0.68800
v 0.43800 -0.27400 -0.68800
v 0.43800 -0.22600 0.68800
v 0.43800 -0.22600 -0.68800
v 0.43800 -0.27400 -0.68800
v 0.43800 -0.22600 0.68800
v 0.43800 -0.27400 0.68800
vn -0.8732 0.0000 -0.4873
vn -0.8475 -0.0938 -0.5225
vn -0.8964 -0.0887 -0.4342
vn -0.9202 -0.0886 -0.3812
vn -0.9343 -0.0000 -0.3565
vn -0.8999 0.1903 -0.3923
vn -0.7814 0.0000 -0.6240
vn -0.7387 -0.1009 -0.6664
vn -0.8110 -0.0965 -0.5770
vn -0.6506 0.0000 -0.7594
vn -0.6810 -0.1061 -0.7246
vn -0.6804 0.2209 -0.6987
vn -0.8133 0.2064 -0.5441
vn -0.9498 -0.0841 -0.3012
vn -0.9654 -0.0845 -0.2466
vn -0.9724 -0.0000 -0.2334
vn -0.9808 -0.0815 -0.1770
vn -0.9895 -0.0807 -0.1200
vn -0.9932 -0.0000 -0.1160
vn -0.9952 -0.0788 -0.0585
vn -0.9970 -0.0777 -0.0000
vn -1.0000 -0.0000 0.0000
vn -0.9519 0.1755 -0.2512
vn -0.9790 0.1634 -0.1219
vn -0.9879 0.1551 -0.0000
vn -0.8151 0.3933 -0.4254
vn -0.6862 0.4251 -0.5902
vn -0.6666 0.5967 -0.4467
vn -0.9349 0.3308 -0.1285
vn -0.8933 0.3600 -0.2689
vn -0.9515 0.3077 0.0000
vn -0.7866 0.5486 -0.2835
vn -0.8896 0.4568 0.0000
vn -0.8558 0.4994 -0.1348
vn -0.4743 0.0000 -0.8804
vn -0.5844 -0.1095 -0.8040
vn -0.4967 -0.1141 -0.8604
vn -0.3795 -0.1166 -0.9178
vn -0.2530 0.0000 -0.9675
vn -0.4940 0.2307 -0.8383
vn -0.2605 0.2330 -0.9370
vn -0.2623 -0.1180 -0.9577
vn -0.1327 -0.1182 -0.9841
vn -0.0000 -0.0000 -1.0000
vn -0.0000 -0.1169 -0.9931
vn -0.0000 0.2274 -0.9738
vn -0.4987 0.4465 -0.7429
vn -0.2624 0.4499 -0.8536
vn -0.4867 0.6298 -0.6054
vn -0.0000 0.4331 -0.9013
vn -0.2574 0.6344 -0.7289
vn -0.0000 0.6070 -0.7947
vn -0.9952 -0.0788 0.0585
vn -0.9932 0.0000 0.1160
vn -0.9895 -0.0807 0.1200
vn -0.9808 -0.0815 0.1770
vn -0.9724 0.0000 0.2334
vn -0.9654 -0.0845 0.2466
vn -0.9498 -0.0841 0.3012
vn -0.9343 -0.0000 0.3565
vn -0.9202 -0.0886 0.3812
vn -0.9790 0.1634 0.1219
vn -0.9519 0.1755 0.2512
vn -0.8999 0.1903 0.3923
vn -0.8732 0.0000 0.4873
vn -0.8964 -0.0887 0.4342
vn -0.8475 -0.0938 0.5225
vn -0.8110 -0.0965 0.5770
vn -0.7814 -0.0000 0.6240
vn -0.7387 -0.1009 0.6664
vn -0.6810 -0.1061 0.7246
vn -0.6506 0.0000 0.7594
vn -0.8133 0.2064 0.5441
vn -0.6804 0.2209 0.6987
vn -0.9349 0.3308 0.1285
vn -0.8933 0.3600 0.2689
vn -0.8151 0.3933 0.4254
vn -0.8558 0.4994 0.1348
vn -0.7866 0.5486 0.2835
vn -0.6862 0.4251 0.5902
vn -0.6666 0.5967 0.4467
vn -0.5844 -0.1095 0.8040
vn -0.4967 -0.1141 0.8604
vn -0.4743 0.0000 0.8804
vn -0.3795 -0.1166 0.9178
vn -0.2623 -0.1180 0.9577
vn -0.4940 0.2307 0.8383
vn -0.2605 0.2330 0.9370
vn -0.2530 0.0000 0.9675
vn -0.1327 -0.1182 0.9841
vn -0.0000 -0.0000 1.0000
vn 0.0000 -0.1169 0.9931
vn -0.0000 0.2274 0.9738
vn -0.4987 0.4465 0.7429
vn -0.2624 0.4499 0.8536
vn -0.4867 0.6298 0.6054
vn 0.0000 0.4331 0.9013
vn -0.2574 0.6344 0.7289
vn -0.0000 0.6070 0.7947
vn -0.6288 0.7211 -0.2908
vn -0.4618 0.7660 -0.4472
vn -0.8007 0.5991 0.0000
vn -0.7384 0.6598 -0.1394
vn -0.6843 0.7292 0.0000
vn -0.5842 0.7993 -0.1410
vn -0.5415 0.8407 0.0000
vn -0.2462 0.7758 -0.5809
vn -0.0000 0.7451 -0.6669
vn 0.0000 0.8481 -0.5298
vn -0.2314 0.8743 -0.4267
vn 0.0000 0.9198 -0.3925
vn -0.4311 0.8550 -0.2881
vn -0.4013 0.9053 -0.1394
vn -0.2162 0.9363 -0.2768
vn -0.3760 0.9266 0.0000
vn -0.2029 0.9698 -0.1352
vn 0.0000 0.9658 -0.2593
vn -0.1932 0.9812 0.0000
vn -0.0000 0.9916 -0.1296
vn 0.0000 1.0000 0.0000
vn -0.7384 0.6598 0.1394
vn -0.6288 0.7211 0.2908
vn -0.4618 0.7660 0.4472
vn -0.5842 0.7993 0.1410
vn -0.2462 0.7758 0.5809
vn -0.0000 0.7451 0.6669
vn 0.0000 0.8481 0.5298
vn -0.4311 0.8550 0.2881
vn -0.4013 0.9053 0.1394
vn -0.2314 0.8743 0.4267
vn -0.2029 0.9698 0.1352
vn -0.2162 0.9363 0.2768
vn 0.0000 0.9916 0.1296
vn 0.0000 0.9658 0.2593
vn 0.0000 0.9198 0.3925
vn 0.2530 -0.0000 -0.9675
vn 0.1327 -0.1182 -0.9841
vn 0.2623 -0.1180 -0.9577
vn 0.4743 -0.0000 -0.8804
vn 0.2605 0.2330 -0.9370
vn 0.3795 -0.1166 -0.9178
vn 0.4967 -0.1141 -0.8604
vn 0.6506 0.0000 -0.7594
vn 0.5844 -0.1095 -0.8040
vn 0.6810 -0.1061 -0.7246
vn 0.4940 0.2307 -0.8383
vn 0.6804 0.2209 -0.6987
vn 0.2624 0.4499 -0.8536
vn 0.2574 0.6344 -0.7289
vn 0.4987 0.4465 -0.7429
vn 0.6862 0.4251 -0.5902
vn 0.4867 0.6298 -0.6054
vn 0.7814 -0.0000 -0.6240
vn 0.7387 -0.1009 -0.6664
vn 0.8110 -0.0965 -0.5770
vn 0.8475 -0.0938 -0.5225
vn 0.8732 0.0000 -0.4873
vn 0.8133 0.2064 -0.5441
vn 0.8999 0.1903 -0.3923
vn 0.8964 -0.0887 -0.4342
vn 0.9343 0.0000 -0.3565
vn 0.9202 -0.0886 -0.3812
vn 0.9498 -0.0841 -0.3012
vn 0.9724 -0.0000 -0.2334
vn 0.9654 -0.0845 -0.2466
vn 0.9808 -0.0815 -0.1770
vn 0.9932 -0.0000 -0.1160
vn 0.9895 -0.0807 -0.1200
vn 0.9952 -0.0788 -0.0585
vn 1.0000 -0.0000 -0.0000
vn 0.9970 -0.0777 -0.0000
vn 0.9519 0.1755 -0.2512
vn 0.9790 0.1634 -0.1219
vn 0.9879 0.1551 -0.0000
vn 0.8151 0.3933 -0.4254
vn 0.6666 0.5967 -0.4467
vn 0.8933 0.3600 -0.2689
vn 0.9349 0.3308 -0.1285
vn 0.9515 0.3077 0.0000
vn 0.7866 0.5486 -0.2835
vn 0.8558 0.4994 -0.1348
vn 0.8896 0.4568 0.0000
vn 0.1327 -0.1182 0.9841
vn 0.2530 -0.0000 0.9675
vn 0.2623 -0.1180 0.9577
vn 0.3795 -0.1166 0.9178
vn 0.2605 0.2330 0.9370
vn 0.4743 -0.0000 0.8804
vn 0.4967 -0.1141 0.8604
vn 0.6506 0.0000 0.7594
vn 0.5844 -0.1095 0.8040
vn 0.6810 -0.1061 0.7246
vn 0.4940 0.2307 0.8383
vn 0.6804 0.2209 0.6987
vn 0.2624 0.4499 0.8536
vn 0.4987 0.4465 0.7429
vn 0.2574 0.6344 0.7289
vn 0.6862 0.4251 0.5902
vn 0.4867 0.6298 0.6054
vn 0.9932 -0.0000 0.1160
vn 0.9952 -0.0788 0.0585
vn 0.9895 -0.0807 0.1200
vn 0.9724 -0.0000 0.2334
vn 0.9343 -0.0000 0.3565
vn 0.9202 -0.0886 0.3812
vn 0.9498 -0.0841 0.3012
vn 0.9654 -0.0845 0.2466
vn 0.9808 -0.0815 0.1770
vn 0.9790 0.1634 0.1219
vn 0.9519 0.1755 0.2512
vn 0.8999 0.1903 0.3923
vn 0.7814 -0.0000 0.6240
vn 0.8110 -0.0965 0.5770
vn 0.8732 0.0000 0.4873
vn 0.8475 -0.0938 0.5225
vn 0.7387 -0.1009 0.6664
vn 0.8133 0.2064 0.5441
vn 0.8964 -0.0887 0.4342
vn 0.9349 0.3308 0.1285
vn 0.8933 0.3600 0.2689
vn 0.8151 0.3933 0.4254
vn 0.8558 0.4994 0.1348
vn 0.7866 0.5486 0.2835
vn 0.6666 0.5967 0.4467
vn 0.2462 0.7758 -0.5809
vn 0.4618 0.7660 -0.4472
vn 0.2314 0.8743 -0.4267
vn 0.2162 0.9363 -0.2768
vn 0.4311 0.8550 -0.2881
vn 0.2029 0.9698 -0.1352
vn 0.1932 0.9812 0.0000
vn 0.4013 0.9053 -0.1394
vn 0.3760 0.9266 0.0000
vn 0.6288 0.7211 -0.2908
vn 0.5842 0.7993 -0.1410
vn 0.5415 0.8407 0.0000
vn 0.7384 0.6598 -0.1394
vn 0.8007 0.5991 0.0000
vn 0.6843 0.7292 0.0000
vn 0.2462 0.7758 0.5809
vn 0.4618 0.7660 0.4472
vn 0.2162 0.9363 0.2768
vn 0.2314 0.8743 0.4267
vn 0.4311 0.8550 0.2881
vn 0.2029 0.9698 0.1352
vn 0.4013 0.9053 0.1394
vn 0.5842 0.7993 0.1410
vn 0.6288 0.7211 0.2908
vn 0.7384 0.6598 0.1394
vn 0.9368 -0.0000 0.3498
vn 0.9231 0.0883 0.3743
vn 0.9002 0.0884 0.4265
vn 0.8776 0.0000 0.4794
vn 0.9031 -0.1896 0.3853
vn 0.7879 -0.0000 0.6159
vn 0.7458 0.1011 0.6584
vn 0.6585 -0.0000 0.7526
vn 0.6888 0.1065 0.7170
vn 0.8170 0.0964 0.5686
vn 0.8525 0.0936 0.5144
vn 0.6876 -0.2218 0.6914
vn 0.8186 -0.2063 0.5361
vn 0.9735 -0.0000 0.2287
vn 0.9935 0.0000 0.1136
vn 0.9815 0.0809 0.1733
vn 0.9518 0.0836 0.2953
vn 0.9667 0.0840 0.2417
vn 0.9898 0.0801 0.1175
vn 0.9953 0.0782 0.0573
vn 1.0000 0.0000 -0.0000
vn 0.9970 0.0772 0.0000
vn 0.9534 -0.1745 0.2463
vn 0.9795 -0.1624 0.1193
vn 0.9881 -0.1541 0.0000
vn 0.8190 -0.3926 0.4184
vn 0.6921 -0.4258 0.5828
vn 0.6710 -0.5966 0.4402
vn 0.8955 -0.3584 0.2638
vn 0.9359 -0.3289 0.1259
vn 0.9521 -0.3058 -0.0000
vn 0.8908 -0.4543 -0.0000
vn 0.8576 -0.4970 0.1322
vn 0.7895 -0.5469 0.2785
vn 0.5927 0.1102 0.7978
vn 0.4820 -0.0000 0.8761
vn 0.5047 0.1152 0.8556
vn 0.3866 0.1179 0.9147
vn 0.2579 0.0000 0.9662
vn 0.5015 -0.2326 0.8333
vn 0.2653 -0.2358 0.9349
vn 0.2676 0.1195 0.9561
vn 0.1355 0.1199 0.9835
vn 0.0000 0.0000 1.0000
vn 0.0000 0.1186 0.9929
vn 0.0000 -0.2304 0.9731
vn 0.5051 -0.4493 0.7369
vn 0.2668 -0.4543 0.8499
vn 0.4917 -0.6321 0.5989
vn 0.0000 -0.4380 0.8990
vn 0.2610 -0.6389 0.7236
vn 0.0000 -0.6124 0.7906
vn 0.9953 0.0782 -0.0573
vn 0.9935 0.0000 -0.1136
vn 0.9898 0.0801 -0.1175
vn 0.9815 0.0809 -0.1733
vn 0.9735 -0.0000 -0.2287
vn 0.9667 0.0840 -0.2417
vn 0.9518 0.0836 -0.2953
vn 0.9368 -0.0000 -0.3498
vn 0.9231 0.0883 -0.3743
vn 0.9795 -0.1624 -0.1193
vn 0.9534 -0.1745 -0.2463
vn 0.9031 -0.1896 -0.3853
vn 0.9002 0.0884 -0.4265
vn 0.8776 0.0000 -0.4794
vn 0.8525 0.0936 -0.5144
vn 0.8170 0.0964 -0.5686
vn 0.7879 -0.0000 -0.6159
vn 0.7458 0.1011 -0.6584
vn 0.6585 -0.0000 -0.7526
vn 0.6888 0.1065 -0.7170
vn 0.8186 -0.2063 -0.5361
vn 0.6876 -0.2218 -0.6914
vn 0.9359 -0.3289 -0.1259
vn 0.8955 -0.3584 -0.2638
vn 0.8576 -0.4970 -0.1322
vn 0.8190 -0.3926 -0.4184
vn 0.7895 -0.5469 -0.2785
vn 0.6921 -0.4258 -0.5828
vn 0.6710 -0.5966 -0.4402
vn 0.5927 0.1102 -0.7978
vn 0.4820 -0.0000 -0.8761
vn 0.5047 0.1152 -0.8556
vn 0.3866 0.1179 -0.9147
vn 0.2579 -0.0000 -0.9662
vn 0.5015 -0.2326 -0.8333
vn 0.2653 -0.2358 -0.9349
vn 0.2676 0.1195 -0.9561
vn 0.1355 0.1199 -0.9835
vn -0.0000 -0.0000 -1.0000
vn 0.0000 0.1186 -0.9929
vn 0.0000 -0.2304 -0.9731
vn 0.5051 -0.4493 -0.7369
vn 0.2668 -0.4543 -0.8499
vn 0.4917 -0.6321 -0.5989
vn -0.0000 -0.4380 -0.8990
vn 0.2610 -0.6389 -0.7236
vn 0.0000 -0.6124 -0.7906
vn 0.8027 -0.5964 -0.0000
vn 0.6322 -0.7201 0.2861
vn 0.7409 -0.6575 0.1369
vn 0.6868 -0.7269 -0.0000
vn 0.5870 -0.7976 0.1387
vn 0.5442 -0.8390 -0.0000
vn 0.4656 -0.7671 0.4414
vn 0.2490 -0.7792 0.5751
vn 0.0000 -0.7499 0.6616
vn 0.2335 -0.8762 0.4215
vn -0.0000 -0.8516 0.5242
vn 0.4341 -0.8550 0.2839
vn -0.0000 -0.9218 0.3876
vn 0.2178 -0.9370 0.2730
vn 0.4037 -0.9045 0.1373
vn 0.3782 -0.9257 0.0000
vn 0.2043 -0.9698 0.1333
vn -0.0000 -0.9668 0.2557
vn 0.1945 -0.9809 0.0000
vn 0.0000 -0.9918 0.1278
vn 0.0000 -1.0000 0.0000
vn 0.7409 -0.6575 -0.1369
vn 0.6322 -0.7201 -0.2861
vn 0.5870 -0.7976 -0.1387
vn 0.4656 -0.7671 -0.4414
vn 0.4341 -0.8550 -0.2839
vn 0.2490 -0.7792 -0.5751
vn 0.0000 -0.7499 -0.6616
vn 0.2335 -0.8762 -0.4215
vn 0.0000 -0.8516 -0.5242
vn 0.4037 -0.9045 -0.1373
vn 0.2178 -0.9370 -0.2730
vn 0.2043 -0.9698 -0.1333
vn 0.0000 -0.9218 -0.3876
vn -0.0000 -0.9668 -0.2557
vn 0.0000 -0.9918 -0.1278
vn -0.1355 0.1199 0.9835
vn -0.2579 0.0000 0.9662
vn -0.2676 0.1195 0.9561
vn -0.3866 0.1179 0.9147
vn -0.2653 -0.2358 0.9349
vn -0.4820 0.0000 0.8761
vn -0.5047 0.1152 0.8556
vn -0.5927 0.1102 0.7978
vn -0.6585 0.0000 0.7526
vn -0.6888 0.1065 0.7170
vn -0.5015 -0.2326 0.8333
vn -0.6876 -0.2218 0.6914
vn -0.2668 -0.4543 0.8499
vn -0.2610 -0.6389 0.7236
vn -0.5051 -0.4493 0.7369
vn -0.6921 -0.4258 0.5828
vn -0.4917 -0.6321 0.5989
vn -0.7458 0.1011 0.6584
vn -0.7879 -0.0000 0.6159
vn -0.8170 0.0964 0.5686
vn -0.8776 0.0000 0.4794
vn -0.8525 0.0936 0.5144
vn -0.9002 0.0884 0.4265
vn -0.9368 -0.0000 0.3498
vn -0.8186 -0.2063 0.5361
vn -0.9031 -0.1896 0.3853
vn -0.9231 0.0883 0.3743
vn -0.9518 0.0836 0.2953
vn -0.9735 -0.0000 0.2287
vn -0.9667 0.0840 0.2417
vn -0.9815 0.0809 0.1733
vn -0.9935 -0.0000 0.1136
vn -0.9898 0.0801 0.1175
vn -0.9953 0.0782 0.0573
vn -1.0000 -0.0000 -0.0000
vn -0.9970 0.0772 0.0000
vn -0.9534 -0.1745 0.2463
vn -0.9795 -0.1624 0.1193
vn -0.9881 -0.1541 -0.0000
vn -0.8190 -0.3926 0.4184
vn -0.6710 -0.5966 0.4402
vn -0.8955 -0.3584 0.2638
vn -0.7895 -0.5469 0.2785
vn -0.9359 -0.3289 0.1259
vn -0.9521 -0.3058 -0.0000
vn -0.8908 -0.4543 -0.0000
vn -0.8576 -0.4970 0.1322
vn -0.1355 0.1199 -0.9835
vn -0.2579 -0.0000 -0.9662
vn -0.2676 0.1195 -0.9561
vn -0.3866 0.1179 -0.9147
vn -0.2653 -0.2358 -0.9349
vn -0.4820 0.0000 -0.8761
vn -0.5927 0.1102 -0.7978
vn -0.5047 0.1152 -0.8556
vn -0.6585 -0.0000 -0.7526
vn -0.6888 0.1065 -0.7170
vn -0.5015 -0.2326 -0.8333
vn -0.6876 -0.2218 -0.6914
vn -0.2668 -0.4543 -0.8499
vn -0.2610 -0.6389 -0.7236
vn -0.5051 -0.4493 -0.7369
vn -0.6921 -0.4258 -0.5828
vn -0.4917 -0.6321 -0.5989
vn -0.9953 0.0782 -0.0573
vn -0.9935 -0.0000 -0.1136
vn -0.9898 0.0801 -0.1175
vn -0.9735 0.0000 -0.2287
vn -0.9815 0.0809 -0.1733
vn -0.9667 0.0840 -0.2417
vn -0.9518 0.0836 -0.2953
vn -0.9368 -0.0000 -0.3498
vn -0.9231 0.0883 -0.3743
vn -0.9795 -0.1624 -0.1193
vn -0.9534 -0.1745 -0.2463
vn -0.9031 -0.1896 -0.3853
vn -0.7458 0.1011 -0.6584
vn -0.7879 -0.0000 -0.6159
vn -0.8170 0.0964 -0.5686
vn -0.8776 -0.0000 -0.4794
vn -0.9002 0.0884 -0.4265
vn -0.8525 0.0936 -0.5144
vn -0.8186 -0.2063 -0.5361
vn -0.8190 -0.3926 -0.4184
vn -0.8955 -0.3584 -0.2638
vn -0.7895 -0.5469 -0.2785
vn -0.9359 -0.3289 -0.1259
vn -0.8576 -0.4970 -0.1322
vn -0.6710 -0.5966 -0.4402
vn -0.2490 -0.7792 0.5751
vn -0.2335 -0.8762 0.4215
vn -0.4656 -0.7671 0.4414
vn -0.6322 -0.7201 0.2861
vn -0.4341 -0.8550 0.2839
vn -0.2178 -0.9370 0.2730
vn -0.2043 -0.9698 0.1333
vn -0.1945 -0.9809 0.0000
vn -0.4037 -0.9045 0.1373
vn -0.3782 -0.9257 -0.0000
vn -0.5870 -0.7976 0.1387
vn -0.5442 -0.8390 -0.0000
vn -0.7409 -0.6575 0.1369
vn -0.8027 -0.5964 -0.0000
vn -0.6868 -0.7269 -0.0000
vn -0.4656 -0.7671 -0.4414
vn -0.6322 -0.7201 -0.2861
vn -0.4341 -0.8550 -0.2839
vn -0.2490 -0.7792 -0.5751
vn -0.2335 -0.8762 -0.4215
vn -0.2178 -0.9370 -0.2730
vn -0.2043 -0.9698 -0.1333
vn -0.4037 -0.9045 -0.1373
vn -0.5870 -0.7976 -0.1387
vn -0.7409 -0.6575 -0.1369
vn 0.0000 -1.0000 0.0000
vn 0.0000 -1.0000 0.0000
vn 0.0000 -1.0000 0.0000
vn 0.0000 -1.0000 0.0000
vn 0.0000 -1.0000 0.0000
vn 0.0000 -1.0000 0.0000
vn 0.0000 -1.0000 0.0000
vn 0.0000 -1.0000 0.0000
vn 0.0000 -1.0000 0.0000
vn 0.0000 -1.0000 0.0000
vn 0.0000 -1.0000 0.0000
vn 0.0000 -1.0000 0.0000
vn 0.0000 -1.0000 0.0000
vn 0.0000 -1.0000 0.0000
vn 0.0000 -1.0000 0.0000
vn 0.0000 -1.0000 0.0000
vn 0.0000 -1.0000 0.0000
vn 0.0000 -1.0000 0.0000
vn 0.0000 -1.0000 0.0000
vn 0.0000 -1.0000 0.0000
vn 0.0000 -1.0000 0.0000
vn 0.0000 -1.0000 0.0000
vn 0.0000 -1.0000 0.0000
vn 0.0000 -1.0000 0.0000
vn 0.0000 -1.0000 0.0000
vn 0.0000 -1.0000 0.0000
vn 0.0000 -1.0000 0.0000
vn 0.0000 -1.0000 0.0000
vn 0.0000 -1.0000 0.0000
vn 0.0000 -1.0000 0.0000
vn 0.0000 -1.0000 0.0000
vn 0.0000 -1.0000 0.0000
vn 0.0000 -1.0000 0.0000
vn 0.0000 -1.0000 0.0000
vn 0.0000 -1.0000 0.0000
vn 0.0000 -1.0000 0.0000
vn 0.0000 -1.0000 0.0000
vn 0.0000 -1.0000 0.0000
vn 0.0000 -1.0000 0.0000
vn 0.0000 -1.0000 0.0000
vn 0.0000 -1.0000 0.0000
vn 0.0000 -1.0000 0.0000
vn 0.0000 -1.0000 0.0000
vn 0.0000 -1.0000 0.0000
vn 0.0000 -1.0000 0.0000
vn 0.0000 -1.0000 0.0000
vn 0.0000 -1.0000 0.0000
vn 0.0000 -1.0000 0.0000
vn 0.0000 -1.0000 0.0000
vn 0.0000 -1.0000 0.0000
vn 0.0000 -1.0000 0.0000
vn 0.0000 -1.0000 0.0000
vn 0.0000 -1.0000 0.0000
vn 0.0000 -1.0000 0.0000
vn 0.0000 -1.0000 0.0000
vn 0.0000 -1.0000 0.0000
vn 0.0000 -1.0000 0.0000
vn 0.0000 -1.0000 0.0000
vn 0.0000 -1.0000 0.0000
vn 0.0000 -1.0000 0.0000
vn 0.0000 -1.0000 0.0000
vn 0.0000 -1.0000 0.0000
vn 0.0000 -1.0000 0.0000
vn 0.0000 -1.0000 0.0000
vn 0.0000 -1.0000 0.0000
vn 0.0000 -1.0000 0.0000
vn 0.0000 -1.0000 0.0000
vn 0.0000 -1.0000 0.0000
vn 0.0000 -1.0000 0.0000
vn 0.0000 -1.0000 0.0000
vn 0.0000 -1.0000 0.0000
vn 0.0000 -1.0000 0.0000
vn 0.0000 -1.0000 0.0000
vn 0.0000 -1.0000 0.0000
vn 0.0000 -1.0000 0.0000
vn 0.0000 -1.0000 0.0000
vn 0.0000 -1.0000 0.0000
vn 0.0000 -1.0000 0.0000
vn 0.0000 -1.0000 0.0000
vn 0.0000 -1.0000 0.0000
vn 0.0000 -1.0000 0.0000
vn 0.0000 -1.0000 0.0000
vn 0.0000 -1.0000 0.0000
vn 0.0000 -1.0000 0.0000
vn 0.0000 -1.0000 0.0000
vn 0.0000 -1.0000 0.0000
vn 0.0000 -1.0000 0.0000
vn 0.0000 -1.0000 0.0000
vn 0.0000 -1.0000 0.0000
vn 0.0000 -1.0000 0.0000
vn 0.0000 -1.0000 0.0000
vn 0.0000 -1.0000 0.0000
vn 0.0000 -1.0000 0.0000
vn 0.0000 -1.0000 0.0000
vn 0.0000 -1.0000 0.0000
vn 0.0000 -1.0000 0.0000
vn 0.0000 -1.0000 0.0000
vn 0.0000 -1.0000 0.0000
vn 0.0000 -1.0000 0.0000
vn 0.0000 -1.0000 0.0000
vn 0.0000 -1.0000 0.0000
vn 0.0000 -1.0000 0.0000
vn 0.0000 -1.0000 0.0000
vn 0.0000 -1.0000 0.0000
vn 0.0000 -1.0000 0.0000
vn 0.0000 -1.0000 0.0000
vn 0.0000 -1.0000 0.0000
vn 0.0000 -1.0000 0.0000
vn 0.0000 -1.0000 0.0000
vn 0.0000 -1.0000 0.0000
vn 0.0000 -1.0000 0.0000
vn 0.0000 -1.0000 0.0000
vn 0.0000 -1.0000 0.0000
vn 0.0000 -1.0000 0.0000
vn 0.0000 -1.0000 0.0000
vn 0.0000 -1.0000 0.0000
vn 0.0000 -1.0000 0.0000
vn 0.0000 -1.0000 0.0000
vn 0.0000 -1.0000 0.0000
vn 0.0000 -1.0000 0.0000
vn 0.0000 -1.0000 0.0000
vn 0.0000 -1.0000 0.0000
vn 0.0000 -1.0000 0.0000
vn 0.0000 -1.0000 0.0000
vn 0.0000 -1.0000 0.0000
vn 0.0000 -1.0000 0.0000
vn 0.0000 -1.0000 0.0000
vn 0.0000 -1.0000 0.0000
vn 0.0000 -1.0000 0.0000
vn 0.0000 -1.0000 0.0000
vn 0.0000 -1.0000 0.0000
vn 0.0000 -1.0000 0.0000
vn 0.0000 -1.0000 0.0000
vn 0.0000 -1.0000 0.0000
vn 0.0000 -1.0000 0.0000
vn 0.0000 -1.0000 0.0000
vn -0.1877 -0.9641 -0.1877
vn -0.6887 -0.6887 -0.2265
vn -0.2265 -0.6887 -0.6887
vn -0.9641 -0.1877 -0.1877
vn -0.6887 -0.2265 -0.6887
vn -0.1877 -0.1877 -0.9641
vn -0.9641 0.1877 -0.1877
vn -0.6887 0.2265 -0.6887
vn -0.1877 0.1877 -0.9641
vn -0.6887 0.6887 -0.2265
vn -0.2265 0.6887 -0.6887
vn -0.1877 0.9641 -0.1877
vn -0.6887 -0.6887 0.2265
vn -0.9641 0.1877 0.1877
vn 0.0000 -1.0000 0.0000
vn 0.0000 -1.0000 0.0000
vn -0.1877 0.9641 0.1877
vn 0.0000 1.0000 0.0000
vn 0.1877 -0.9641 -0.1877
vn 0.1877 -0.1877 -0.9641
vn 0.1877 0.1877 -0.9641
vn 0.1877 0.9641 -0.1877
vn 0.0000 1.0000 0.0000
vn -0.1877 -0.9641 0.1877
vn -0.9641 -0.1877 0.1877
vn -0.6887 0.6887 0.2265
vn 0.0000 1.0000 0.0000
vn -0.2265 -0.6887 0.6887
vn -0.6887 -0.2265 0.6887
vn -0.1877 -0.1877 0.9641
vn -0.6887 0.2265 0.6887
vn -0.1877 0.1877 0.9641
vn -0.2265 0.6887 0.6887
vn 0.0000 -1.0000 0.0000
vn 0.2265 -0.6887 0.6887
vn 0.1877 -0.1877 0.9641
vn 0.1877 0.1877 0.9641
vn 0.1877 0.9641 0.1877
vn 0.2265 -0.6887 -0.6887
vn 0.0000 -1.0000 0.0000
vn 0.2265 0.6887 -0.6887
vn 0.6887 -0.6887 -0.2265
vn 0.6887 -0.2265 -0.6887
vn 0.9641 -0.1877 -0.1877
vn 0.6887 0.2265 -0.6887
vn 0.9641 0.1877 -0.1877
vn 0.6887 0.6887 -0.2265
vn 0.1877 -0.9641 0.1877
vn 0.9641 -0.1877 0.1877
vn 0.0000 1.0000 0.0000
vn 0.9641 0.1877 0.1877
vn 0.2265 0.6887 0.6887
vn 0.6887 -0.6887 0.2265
vn 0.6887 0.6887 0.2265
vn 0.6887 -0.2265 0.6887
vn 0.6887 0.2265 0.6887
vn 1.0000 0.0000 0.0000
vn 1.0000 0.0000 0.0000
vn 1.0000 0.0000 0.0000
vn 0.0000 0.0000 1.0000
vn 0.0000 0.0000 1.0000
vn 0.0000 0.0000 1.0000
vn 1.0000 0.0000 0.0000
vn 0.0000 0.0000 -1.0000
vn 0.0000 0.0000 -1.0000
vn 0.0000 0.0000 -1.0000
vn 0.0000 0.0000 1.0000
vn -1.0000 0.0000 0.0000
vn -1.0000 0.0000 0.0000
vn -1.0000 0.0000 0.0000
vn 0.0000 0.0000 -1.0000
vn -1.0000 0.0000 0.0000
f 1//1 2//2 3//3
f 1//1 4//4 5//5
f 1//1 3//3 4//4
f 1//1 5//5 6//6
f 7//7 8//8 9//9
f 7//7 10//10 8//8
f 10//10 11//11 8//8
f 1//1 7//7 2//2
f 7//7 9//9 2//2
f 7//7 12//12 10//10
f 7//7 13//13 12//12
f 1//1 13//13 7//7
f 1//1 6//6 13//13
f 5//5 14//14 15//15
f 16//16 5//5 15//15
f 16//16 17//17 18//18
f 16//16 15//15 17//17
f 5//5 4//4 14//14
f 16//16 18//18 19//19
f 19//19 18//18 20//20
f 19//19 20//20 21//21
f 19//19 21//21 22//22
f 16//16 23//23 5//5
f 16//16 24//24 23//23
f 6//6 5//5 23//23
f 16//16 19//19 24//24
f 19//19 22//22 25//25
f 19//19 25//25 24//24
f 6//6 26//26 13//13
f 12//12 13//13 27//27
f 13//13 26//26 27//27
f 26//26 28//28 27//27
f 23//23 29//29 30//30
f 6//6 23//23 30//30
f 6//6 30//30 26//26
f 23//23 24//24 29//29
f 24//24 25//25 31//31
f 24//24 31//31 29//29
f 26//26 30//30 32//32
f 29//29 31//31 33//33
f 30//30 29//29 34//34
f 10//10 35//35 36//36
f 35//35 37//37 36//36
f 10//10 36//36 11//11
f 35//35 38//38 37//37
f 35//35 39//39 38//38
f 10//10 40//40 35//35
f 10//10 12//12 40//40
f 35//35 40//40 41//41
f 39//39 42//42 38//38
f 39//39 43//43 42//42
f 39//39 44//44 43//43
f 44//44 45//45 43//43
f 35//35 41//41 39//39
f 39//39 46//46 44//44
f 39//39 41//41 46//46
f 12//12 47//47 40//40
f 12//12 27//27 47//47
f 40//40 47//47 48//48
f 27//27 49//49 47//47
f 40//40 48//48 41//41
f 41//41 50//50 46//46
f 41//41 48//48 50//50
f 47//47 51//51 48//48
f 48//48 52//52 50//50
f 22//22 21//21 53//53
f 22//22 53//53 54//54
f 54//54 53//53 55//55
f 54//54 55//55 56//56
f 54//54 56//56 57//57
f 57//57 56//56 58//58
f 57//57 58//58 59//59
f 57//57 59//59 60//60
f 60//60 59//59 61//61
f 22//22 54//54 25//25
f 54//54 57//57 62//62
f 54//54 62//62 25//25
f 57//57 60//60 63//63
f 62//62 57//57 63//63
f 63//63 60//60 64//64
f 60//60 61//61 65//65
f 65//65 61//61 66//66
f 65//65 66//66 67//67
f 60//60 65//65 64//64
f 65//65 67//67 68//68
f 65//65 68//68 69//69
f 69//69 68//68 70//70
f 69//69 70//70 71//71
f 69//69 71//71 72//72
f 65//65 69//69 73//73
f 65//65 73//73 64//64
f 69//69 72//72 74//74
f 73//73 69//69 74//74
f 25//25 62//62 31//31
f 62//62 63//63 75//75
f 62//62 75//75 31//31
f 63//63 76//76 75//75
f 63//63 64//64 76//76
f 76//76 64//64 77//77
f 31//31 75//75 33//33
f 75//75 76//76 78//78
f 76//76 77//77 79//79
f 64//64 73//73 77//77
f 73//73 74//74 80//80
f 73//73 80//80 77//77
f 77//77 80//80 81//81
f 72//72 71//71 82//82
f 72//72 82//82 83//83
f 72//72 83//83 84//84
f 84//84 83//83 85//85
f 84//84 85//85 86//86
f 72//72 84//84 87//87
f 72//72 87//87 74//74
f 84//84 88//88 87//87
f 84//84 86//86 89//89
f 89//89 86//86 90//90
f 89//89 90//90 91//91
f 91//91 90//90 92//92
f 84//84 89//89 88//88
f 89//89 91//91 93//93
f 89//89 93//93 88//88
f 74//74 87//87 94//94
f 74//74 94//94 80//80
f 87//87 95//95 94//94
f 80//80 94//94 96//96
f 87//87 88//88 95//95
f 88//88 93//93 97//97
f 88//88 97//97 95//95
f 94//94 95//95 98//98
f 95//95 97//97 99//99
f 26//26 32//32 28//28
f 27//27 28//28 49//49
f 28//28 100//100 101//101
f 30//30 34//34 32//32
f 29//29 33//33 34//34
f 34//34 33//33 102//102
f 34//34 103//103 32//32
f 32//32 103//103 100//100
f 28//28 32//32 100//100
f 34//34 102//102 103//103
f 103//103 102//102 104//104
f 100//100 103//103 105//105
f 103//103 104//104 105//105
f 105//105 104//104 106//106
f 47//47 49//49 51//51
f 28//28 101//101 49//49
f 49//49 101//101 107//107
f 48//48 51//51 52//52
f 51//51 108//108 52//52
f 51//51 107//107 108//108
f 49//49 107//107 51//51
f 107//107 109//109 108//108
f 101//101 110//110 107//107
f 107//107 110//110 109//109
f 110//110 111//111 109//109
f 100//100 112//112 101//101
f 100//100 105//105 112//112
f 101//101 112//112 110//110
f 105//105 113//113 112//112
f 112//112 113//113 114//114
f 105//105 106//106 113//113
f 113//113 106//106 115//115
f 113//113 115//115 116//116
f 110//110 112//112 114//114
f 110//110 114//114 111//111
f 114//114 117//117 111//111
f 114//114 116//116 117//117
f 113//113 116//116 114//114
f 116//116 115//115 118//118
f 116//116 119//119 117//117
f 116//116 118//118 119//119
f 118//118 120//120 119//119
f 75//75 78//78 33//33
f 33//33 78//78 102//102
f 76//76 79//79 78//78
f 78//78 121//121 102//102
f 102//102 121//121 104//104
f 78//78 79//79 121//121
f 121//121 79//79 122//122
f 79//79 81//81 122//122
f 77//77 81//81 79//79
f 80//80 96//96 81//81
f 122//122 81//81 123//123
f 121//121 124//124 104//104
f 104//104 124//124 106//106
f 121//121 122//122 124//124
f 94//94 98//98 96//96
f 81//81 96//96 123//123
f 96//96 125//125 123//123
f 95//95 99//99 98//98
f 98//98 99//99 126//126
f 96//96 98//98 125//125
f 125//125 126//126 127//127
f 125//125 98//98 126//126
f 124//124 128//128 129//129
f 122//122 123//123 128//128
f 122//122 128//128 124//124
f 128//128 123//123 130//130
f 106//106 124//124 129//129
f 106//106 129//129 115//115
f 115//115 129//129 131//131
f 129//129 128//128 132//132
f 128//128 130//130 132//132
f 115//115 131//131 118//118
f 129//129 132//132 131//131
f 118//118 131//131 133//133
f 118//118 133//133 120//120
f 131//131 134//134 133//133
f 132//132 130//130 135//135
f 132//132 135//135 134//134
f 131//131 132//132 134//134
f 123//123 125//125 130//130
f 125//125 127//127 130//130
f 130//130 127//127 135//135
f 44//44 136//136 45//45
f 136//136 137//137 45//45
f 136//136 138//138 137//137
f 136//136 139//139 138//138
f 44//44 46//46 136//136
f 46//46 140//140 136//136
f 136//136 140//140 139//139
f 139//139 141//141 138//138
f 139//139 142//142 141//141
f 139//139 143//143 142//142
f 143//143 144//144 142//142
f 143//143 145//145 144//144
f 140//140 146//146 139//139
f 139//139 146//146 143//143
f 146//146 147//147 143//143
f 46//46 50//50 140//140
f 140//140 50//50 148//148
f 140//140 148//148 146//146
f 50//50 52//52 148//148
f 148//148 149//149 150//150
f 148//148 150//150 146//146
f 146//146 150//150 147//147
f 150//150 151//151 147//147
f 150//150 152//152 151//151
f 143//143 153//153 145//145
f 153//153 154//154 145//145
f 153//153 155//155 154//154
f 153//153 156//156 155//155
f 153//153 157//157 156//156
f 143//143 147//147 153//153
f 147//147 158//158 153//153
f 153//153 158//158 157//157
f 158//158 159//159 157//157
f 157//157 160//160 156//156
f 157//157 161//161 160//160
f 161//161 162//162 160//160
f 157//157 159//159 161//161
f 161//161 163//163 162//162
f 161//161 164//164 163//163
f 164//164 165//165 163//163
f 164//164 166//166 165//165
f 164//164 167//167 166//166
f 167//167 168//168 166//166
f 167//167 169//169 168//168
f 167//167 170//170 169//169
f 170//170 171//171 169//169
f 161//161 159//159 172//172
f 161//161 172//172 164//164
f 164//164 172//172 173//173
f 164//164 173//173 167//167
f 167//167 174//174 170//170
f 167//167 173//173 174//174
f 147//147 151//151 158//158
f 158//158 175//175 159//159
f 151//151 176//176 175//175
f 158//158 151//151 175//175
f 159//159 177//177 172//172
f 175//175 177//177 159//159
f 172//172 177//177 178//178
f 172//172 178//178 173//173
f 173//173 179//179 174//174
f 173//173 178//178 179//179
f 175//175 180//180 177//177
f 177//177 181//181 178//178
f 178//178 182//182 179//179
f 91//91 92//92 183//183
f 91//91 183//183 184//184
f 184//184 183//183 185//185
f 184//184 185//185 186//186
f 91//91 184//184 93//93
f 93//93 184//184 187//187
f 184//184 188//188 187//187
f 184//184 186//186 188//188
f 188//188 186//186 189//189
f 190//190 191//191 192//192
f 188//188 189//189 191//191
f 188//188 191//191 190//190
f 187//187 188//188 193//193
f 188//188 190//190 193//193
f 193//193 190//190 194//194
f 93//93 187//187 97//97
f 187//187 195//195 97//97
f 187//187 193//193 195//195
f 97//97 195//195 99//99
f 195//195 196//196 197//197
f 195//195 193//193 196//196
f 193//193 194//194 196//196
f 196//196 194//194 198//198
f 196//196 198//198 199//199
f 170//170 200//200 171//171
f 200//200 201//201 171//171
f 200//200 202//202 201//201
f 200//200 203//203 202//202
f 204//204 205//205 206//206
f 203//203 207//207 208//208
f 203//203 208//208 202//202
f 203//203 204//204 207//207
f 204//204 206//206 207//207
f 170//170 174//174 200//200
f 200//200 209//209 203//203
f 200//200 174//174 209//209
f 210//210 211//211 204//204
f 203//203 210//210 204//204
f 209//209 210//210 203//203
f 212//212 213//213 214//214
f 214//214 213//213 215//215
f 190//190 192//192 216//216
f 190//190 216//216 212//212
f 212//212 216//216 213//213
f 217//217 212//212 214//214
f 217//217 214//214 211//211
f 190//190 212//212 194//194
f 217//217 194//194 212//212
f 214//214 218//218 205//205
f 204//204 214//214 205//205
f 214//214 215//215 218//218
f 204//204 211//211 214//214
f 174//174 179//179 209//209
f 209//209 219//219 210//210
f 209//209 179//179 219//219
f 210//210 220//220 211//211
f 220//220 221//221 211//211
f 210//210 219//219 220//220
f 219//219 222//222 220//220
f 179//179 182//182 219//219
f 220//220 223//223 221//221
f 217//217 198//198 194//194
f 217//217 211//211 221//221
f 198//198 221//221 224//224
f 217//217 221//221 198//198
f 148//148 52//52 149//149
f 52//52 108//108 149//149
f 108//108 225//225 149//149
f 108//108 109//109 225//225
f 149//149 225//225 152//152
f 150//150 149//149 152//152
f 225//225 226//226 152//152
f 152//152 226//226 176//176
f 225//225 109//109 227//227
f 109//109 111//111 227//227
f 225//225 227//227 226//226
f 227//227 228//228 229//229
f 111//111 117//117 228//228
f 111//111 228//228 227//227
f 117//117 230//230 228//228
f 117//117 119//119 230//230
f 119//119 120//120 231//231
f 119//119 231//231 230//230
f 228//228 230//230 232//232
f 230//230 231//231 233//233
f 227//227 229//229 226//226
f 226//226 229//229 234//234
f 229//229 235//235 234//234
f 229//229 232//232 235//235
f 228//228 232//232 229//229
f 230//230 233//233 232//232
f 232//232 233//233 236//236
f 232//232 236//236 235//235
f 152//152 176//176 151//151
f 175//175 176//176 180//180
f 226//226 234//234 176//176
f 176//176 234//234 180//180
f 180//180 237//237 181//181
f 234//234 237//237 180//180
f 237//237 238//238 181//181
f 237//237 239//239 238//238
f 177//177 180//180 181//181
f 178//178 181//181 182//182
f 181//181 238//238 182//182
f 234//234 235//235 237//237
f 237//237 235//235 239//239
f 235//235 236//236 239//239
f 195//195 197//197 99//99
f 99//99 197//197 126//126
f 240//240 127//127 126//126
f 240//240 197//197 199//199
f 240//240 126//126 197//197
f 196//196 199//199 197//197
f 240//240 199//199 241//241
f 199//199 224//224 241//241
f 242//242 243//243 244//244
f 120//120 133//133 231//231
f 133//133 245//245 231//231
f 133//133 134//134 245//245
f 231//231 245//245 233//233
f 245//245 242//242 246//246
f 134//134 135//135 242//242
f 242//242 135//135 243//243
f 245//245 134//134 242//242
f 246//246 244//244 247//247
f 244//244 243//243 241//241
f 244//244 241//241 248//248
f 244//244 248//248 247//247
f 245//245 246//246 233//233
f 233//233 246//246 236//236
f 246//246 247//247 236//236
f 242//242 244//244 246//246
f 240//240 243//243 127//127
f 135//135 127//127 243//243
f 240//240 241//241 243//243
f 249//249 222//222 238//238
f 249//249 238//238 239//239
f 248//248 224//224 223//223
f 249//249 223//223 222//222
f 249//249 248//248 223//223
f 219//219 182//182 222//222
f 182//182 238//238 222//222
f 220//220 222//222 223//223
f 199//199 198//198 224//224
f 221//221 223//223 224//224
f 241//241 224//224 248//248
f 249//249 239//239 247//247
f 236//236 247//247 239//239
f 249//249 247//247 248//248
f 250//250 251//251 252//252
f 250//250 253//253 254//254
f 255//255 256//256 257//257
f 256//256 258//258 257//257
f 255//255 253//253 259//259
f 259//259 253//253 260//260
f 250//250 252//252 253//253
f 253//253 252//252 260//260
f 255//255 259//259 256//256
f 255//255 257//257 261//261
f 255//255 262//262 253//253
f 254//254 253//253 262//262
f 255//255 261//261 262//262
f 263//263 264//264 265//265
f 250//250 263//263 266//266
f 250//250 266//266 251//251
f 266//266 263//263 267//267
f 263//263 265//265 267//267
f 265//265 264//264 268//268
f 264//264 269//269 268//268
f 264//264 270//270 269//269
f 269//269 270//270 271//271
f 250//250 272//272 263//263
f 272//272 273//273 263//263
f 250//250 254//254 272//272
f 263//263 273//273 264//264
f 264//264 274//274 270//270
f 264//264 273//273 274//274
f 254//254 262//262 275//275
f 262//262 261//261 276//276
f 262//262 276//276 275//275
f 276//276 277//277 275//275
f 254//254 278//278 272//272
f 272//272 278//278 279//279
f 273//273 280//280 274//274
f 272//272 279//279 273//273
f 273//273 279//279 280//280
f 279//279 281//281 280//280
f 278//278 282//282 279//279
f 279//279 282//282 281//281
f 254//254 275//275 278//278
f 278//278 275//275 283//283
f 257//257 258//258 284//284
f 285//285 257//257 284//284
f 285//285 286//286 287//287
f 285//285 287//287 288//288
f 285//285 284//284 286//286
f 289//289 261//261 257//257
f 285//285 290//290 289//289
f 285//285 289//289 257//257
f 287//287 291//291 288//288
f 288//288 291//291 292//292
f 288//288 292//292 293//293
f 292//292 294//294 293//293
f 285//285 288//288 290//290
f 288//288 295//295 290//290
f 288//288 293//293 295//295
f 289//289 296//296 261//261
f 261//261 296//296 276//276
f 289//289 297//297 296//296
f 276//276 296//296 298//298
f 289//289 290//290 297//297
f 290//290 295//295 299//299
f 290//290 299//299 297//297
f 297//297 300//300 296//296
f 297//297 299//299 301//301
f 297//297 301//301 300//300
f 270//270 302//302 271//271
f 270//270 303//303 302//302
f 303//303 304//304 302//302
f 303//303 305//305 304//304
f 303//303 306//306 305//305
f 306//306 307//307 305//305
f 306//306 308//308 307//307
f 306//306 309//309 308//308
f 309//309 310//310 308//308
f 270//270 274//274 303//303
f 303//303 274//274 311//311
f 303//303 311//311 306//306
f 306//306 311//311 312//312
f 306//306 312//312 309//309
f 309//309 312//312 313//313
f 309//309 314//314 310//310
f 309//309 313//313 315//315
f 309//309 315//315 314//314
f 315//315 316//316 314//314
f 315//315 317//317 316//316
f 315//315 318//318 317//317
f 318//318 319//319 317//317
f 318//318 320//320 319//319
f 319//319 320//320 321//321
f 315//315 322//322 318//318
f 313//313 322//322 315//315
f 322//322 323//323 318//318
f 318//318 323//323 320//320
f 274//274 280//280 311//311
f 311//311 324//324 312//312
f 280//280 324//324 311//311
f 312//312 325//325 313//313
f 312//312 324//324 325//325
f 280//280 281//281 324//324
f 324//324 281//281 326//326
f 324//324 326//326 325//325
f 325//325 327//327 313//313
f 325//325 328//328 327//327
f 313//313 327//327 322//322
f 322//322 329//329 323//323
f 322//322 327//327 329//329
f 327//327 330//330 329//329
f 320//320 331//331 321//321
f 320//320 332//332 331//331
f 331//331 332//332 333//333
f 332//332 334//334 333//333
f 332//332 335//335 334//334
f 320//320 323//323 336//336
f 320//320 336//336 332//332
f 332//332 336//336 337//337
f 334//334 335//335 338//338
f 335//335 339//339 338//338
f 335//335 340//340 339//339
f 339//339 340//340 341//341
f 332//332 337//337 335//335
f 335//335 337//337 342//342
f 335//335 342//342 340//340
f 323//323 343//343 336//336
f 323//323 329//329 343//343
f 336//336 343//343 344//344
f 329//329 345//345 343//343
f 336//336 344//344 337//337
f 337//337 346//346 342//342
f 344//344 346//346 337//337
f 343//343 347//347 344//344
f 344//344 348//348 346//346
f 344//344 347//347 348//348
f 282//282 349//349 281//281
f 275//275 277//277 283//283
f 278//278 283//283 282//282
f 283//283 277//277 350//350
f 283//283 351//351 282//282
f 282//282 351//351 349//349
f 283//283 350//350 351//351
f 351//351 352//352 349//349
f 350//350 353//353 351//351
f 351//351 353//353 352//352
f 353//353 354//354 352//352
f 296//296 300//300 298//298
f 276//276 298//298 277//277
f 277//277 298//298 355//355
f 298//298 356//356 355//355
f 300//300 301//301 357//357
f 298//298 300//300 356//356
f 300//300 357//357 356//356
f 356//356 358//358 355//355
f 356//356 357//357 359//359
f 356//356 359//359 358//358
f 277//277 355//355 350//350
f 350//350 355//355 360//360
f 358//358 359//359 361//361
f 350//350 360//360 353//353
f 355//355 358//358 360//360
f 360//360 362//362 363//363
f 360//360 363//363 353//353
f 353//353 363//363 354//354
f 354//354 363//363 364//364
f 363//363 365//365 364//364
f 360//360 358//358 362//362
f 358//358 361//361 362//362
f 362//362 361//361 366//366
f 362//362 366//366 365//365
f 362//362 365//365 363//363
f 365//365 367//367 364//364
f 365//365 366//366 368//368
f 365//365 368//368 367//367
f 367//367 368//368 369//369
f 281//281 349//349 326//326
f 326//326 349//349 370//370
f 326//326 370//370 328//328
f 325//325 326//326 328//328
f 327//327 328//328 330//330
f 328//328 371//371 330//330
f 349//349 352//352 370//370
f 352//352 372//372 370//370
f 370//370 372//372 371//371
f 370//370 371//371 328//328
f 352//352 354//354 372//372
f 330//330 371//371 373//373
f 371//371 374//374 373//373
f 330//330 345//345 329//329
f 330//330 373//373 345//345
f 343//343 345//345 347//347
f 375//375 345//345 373//373
f 375//375 347//347 345//345
f 375//375 376//376 347//347
f 347//347 376//376 348//348
f 375//375 373//373 377//377
f 375//375 377//377 378//378
f 375//375 378//378 376//376
f 354//354 379//379 372//372
f 372//372 379//379 374//374
f 354//354 364//364 379//379
f 372//372 374//374 371//371
f 374//374 377//377 373//373
f 374//374 379//379 380//380
f 364//364 381//381 379//379
f 374//374 380//380 377//377
f 380//380 382//382 377//377
f 380//380 383//383 382//382
f 364//364 367//367 381//381
f 379//379 381//381 380//380
f 367//367 384//384 381//381
f 381//381 384//384 383//383
f 367//367 369//369 384//384
f 381//381 383//383 380//380
f 377//377 382//382 378//378
f 293//293 294//294 385//385
f 293//293 385//385 386//386
f 385//385 387//387 386//386
f 386//386 387//387 388//388
f 293//293 386//386 295//295
f 386//386 389//389 295//295
f 386//386 390//390 389//389
f 386//386 388//388 390//390
f 390//390 388//388 391//391
f 390//390 391//391 392//392
f 390//390 392//392 393//393
f 393//393 392//392 394//394
f 390//390 395//395 389//389
f 390//390 393//393 395//395
f 395//395 393//393 396//396
f 295//295 389//389 299//299
f 389//389 397//397 299//299
f 389//389 395//395 397//397
f 299//299 397//397 301//301
f 397//397 398//398 301//301
f 397//397 399//399 398//398
f 397//397 395//395 399//399
f 395//395 396//396 399//399
f 399//399 396//396 400//400
f 399//399 400//400 401//401
f 393//393 394//394 402//402
f 393//393 402//402 403//403
f 402//402 404//404 403//403
f 403//403 404//404 405//405
f 404//404 406//406 405//405
f 405//405 406//406 407//407
f 405//405 407//407 408//408
f 393//393 403//403 396//396
f 403//403 409//409 396//396
f 403//403 405//405 409//409
f 405//405 410//410 409//409
f 407//407 411//411 408//408
f 405//405 408//408 410//410
f 408//408 411//411 412//412
f 408//408 412//412 413//413
f 412//412 414//414 413//413
f 413//413 414//414 415//415
f 413//413 415//415 416//416
f 415//415 417//417 416//416
f 416//416 417//417 418//418
f 416//416 418//418 419//419
f 418//418 420//420 419//419
f 408//408 413//413 421//421
f 421//421 413//413 422//422
f 408//408 421//421 410//410
f 413//413 416//416 422//422
f 416//416 419//419 423//423
f 416//416 423//423 422//422
f 396//396 409//409 400//400
f 400//400 409//409 424//424
f 409//409 410//410 424//424
f 400//400 424//424 425//425
f 424//424 410//410 426//426
f 424//424 426//426 427//427
f 410//410 421//421 426//426
f 421//421 428//428 426//426
f 421//421 422//422 428//428
f 422//422 429//429 428//428
f 422//422 423//423 429//429
f 428//428 429//429 430//430
f 426//426 428//428 431//431
f 428//428 430//430 431//431
f 340//340 432//432 341//341
f 340//340 433//433 432//432
f 432//432 433//433 434//434
f 435//435 434//434 433//433
f 340//340 342//342 433//433
f 433//433 342//342 436//436
f 437//437 433//433 436//436
f 437//437 438//438 439//439
f 437//437 435//435 433//433
f 437//437 439//439 435//435
f 437//437 440//440 438//438
f 440//440 441//441 438//438
f 437//437 442//442 440//440
f 437//437 436//436 442//442
f 442//442 443//443 440//440
f 346//346 436//436 342//342
f 346//346 444//444 436//436
f 444//444 442//442 436//436
f 346//346 348//348 444//444
f 444//444 348//348 445//445
f 444//444 445//445 446//446
f 444//444 446//446 442//442
f 442//442 446//446 443//443
f 446//446 447//447 443//443
f 446//446 448//448 447//447
f 419//419 420//420 449//449
f 419//419 449//449 450//450
f 450//450 449//449 451//451
f 450//450 451//451 452//452
f 452//452 453//453 454//454
f 452//452 454//454 455//455
f 456//456 455//455 457//457
f 452//452 455//455 456//456
f 451//451 453//453 452//452
f 419//419 450//450 423//423
f 450//450 458//458 423//423
f 450//450 452//452 458//458
f 452//452 459//459 458//458
f 452//452 456//456 459//459
f 456//456 460//460 459//459
f 461//461 462//462 463//463
f 464//464 465//465 466//466
f 464//464 456//456 465//465
f 464//464 466//466 463//463
f 464//464 463//463 462//462
f 440//440 461//461 441//441
f 440//440 462//462 461//461
f 467//467 462//462 443//443
f 464//464 462//462 467//467
f 464//464 467//467 460//460
f 440//440 443//443 462//462
f 465//465 456//456 457//457
f 464//464 460//460 456//456
f 468//468 469//469 460//460
f 468//468 470//470 469//469
f 458//458 459//459 471//471
f 429//429 458//458 471//471
f 423//423 458//458 429//429
f 459//459 460//460 469//469
f 459//459 469//469 471//471
f 429//429 471//471 430//430
f 471//471 472//472 430//430
f 471//471 469//469 472//472
f 467//467 443//443 447//447
f 467//467 447//447 468//468
f 467//467 468//468 460//460
f 468//468 447//447 473//473
f 301//301 398//398 357//357
f 398//398 474//474 357//357
f 398//398 401//401 474//474
f 357//357 474//474 359//359
f 474//474 475//475 359//359
f 474//474 476//476 475//475
f 399//399 401//401 398//398
f 400//400 425//425 401//401
f 401//401 425//425 476//476
f 474//474 401//401 476//476
f 476//476 425//425 477//477
f 476//476 477//477 478//478
f 359//359 475//475 361//361
f 361//361 479//479 366//366
f 475//475 479//479 361//361
f 475//475 478//478 479//479
f 479//479 480//480 366//366
f 366//366 480//480 368//368
f 368//368 480//480 481//481
f 368//368 481//481 369//369
f 479//479 482//482 480//480
f 480//480 483//483 481//481
f 475//475 476//476 478//478
f 479//479 478//478 482//482
f 478//478 477//477 484//484
f 482//482 485//485 483//483
f 478//478 484//484 482//482
f 482//482 484//484 485//485
f 480//480 482//482 483//483
f 425//425 427//427 477//477
f 424//424 427//427 425//425
f 427//427 426//426 431//431
f 427//427 431//431 486//486
f 486//486 431//431 487//487
f 427//427 486//486 477//477
f 477//477 486//486 484//484
f 486//486 488//488 484//484
f 486//486 487//487 488//488
f 487//487 431//431 430//430
f 484//484 488//488 485//485
f 489//489 490//490 473//473
f 491//491 490//490 489//489
f 492//492 445//445 376//376
f 492//492 448//448 445//445
f 445//445 348//348 376//376
f 492//492 378//378 493//493
f 492//492 376//376 378//378
f 492//492 493//493 489//489
f 473//473 447//447 448//448
f 489//489 473//473 448//448
f 446//446 445//445 448//448
f 492//492 489//489 448//448
f 383//383 494//494 382//382
f 494//494 493//493 382//382
f 494//494 491//491 493//493
f 481//481 495//495 384//384
f 384//384 495//495 383//383
f 369//369 481//481 384//384
f 481//481 483//483 495//495
f 495//495 496//496 494//494
f 495//495 494//494 383//383
f 483//483 485//485 496//496
f 485//485 497//497 496//496
f 491//491 496//496 497//497
f 491//491 489//489 493//493
f 494//494 496//496 491//491
f 491//491 497//497 490//490
f 483//483 496//496 495//495
f 493//493 378//378 382//382
f 487//487 472//472 498//498
f 498//498 472//472 470//470
f 470//470 473//473 490//490
f 470//470 472//472 469//469
f 468//468 473//473 470//470
f 488//488 498//498 497//497
f 498//498 490//490 497//497
f 487//487 498//498 488//488
f 498//498 470//470 490//490
f 487//487 430//430 472//472
f 485//485 488//488 497//497
f 499//499 500//500 501//501
f 502//502 500//500 499//499
f 503//503 504//504 505//505
f 506//506 504//504 507//507
f 505//505 504//504 506//506
f 499//499 501//501 508//508
f 503//503 508//508 509//509
f 510//510 508//508 503//503
f 510//510 511//511 508//508
f 499//499 508//508 511//511
f 503//503 509//509 504//504
f 512//512 513//513 514//514
f 512//512 515//515 513//513
f 512//512 516//516 515//515
f 517//517 518//518 500//500
f 502//502 517//517 500//500
f 517//517 514//514 518//518
f 517//517 512//512 514//514
f 519//519 520//520 515//515
f 516//516 519//519 515//515
f 519//519 521//521 520//520
f 522//522 523//523 521//521
f 519//519 522//522 521//521
f 524//524 525//525 526//526
f 506//506 507//507 525//525
f 524//524 506//506 525//525
f 524//524 526//526 527//527
f 524//524 527//527 528//528
f 524//524 529//529 530//530
f 524//524 528//528 529//529
f 530//530 529//529 531//531
f 531//531 529//529 532//532
f 532//532 529//529 533//533
f 533//533 529//529 534//534
f 523//523 535//535 521//521
f 523//523 536//536 535//535
f 536//536 537//537 535//535
f 536//536 538//538 537//537
f 536//536 539//539 538//538
f 539//539 540//540 538//538
f 540//540 541//541 538//538
f 540//540 542//542 541//541
f 540//540 543//543 542//542
f 543//543 544//544 542//542
f 544//544 545//545 542//542
f 544//544 546//546 547//547
f 544//544 547//547 545//545
f 546//546 548//548 547//547
f 548//548 549//549 547//547
f 549//549 550//550 547//547
f 549//549 551//551 550//550
f 551//551 552//552 550//550
f 553//553 554//554 552//552
f 551//551 553//553 552//552
f 553//553 555//555 554//554
f 553//553 556//556 555//555
f 556//556 557//557 555//555
f 557//557 558//558 555//555
f 557//557 559//559 558//558
f 557//557 560//560 559//559
f 560//560 561//561 559//559
f 561//561 562//562 559//559
f 561//561 563//563 562//562
f 561//561 564//564 563//563
f 564//564 565//565 563//563
f 564//564 566//566 565//565
f 564//564 567//567 568//568
f 533//533 534//534 569//569
f 569//569 534//534 570//570
f 569//569 570//570 571//571
f 569//569 571//571 572//572
f 572//572 571//571 573//573
f 573//573 571//571 574//574
f 573//573 574//574 575//575
f 573//573 575//575 576//576
f 576//576 575//575 577//577
f 577//577 575//575 578//578
f 577//577 578//578 579//579
f 577//577 579//579 580//580
f 580//580 579//579 581//581
f 580//580 581//581 582//582
f 582//582 583//583 584//584
f 582//582 581//581 583//583
f 584//584 583//583 585//585
f 585//585 583//583 586//586
f 586//586 583//583 587//587
f 586//586 587//587 588//588
f 586//586 588//588 589//589
f 590//590 588//588 591//591
f 589//589 588//588 590//590
f 590//590 591//591 592//592
f 590//590 592//592 593//593
f 593//593 592//592 594//594
f 593//593 595//595 596//596
f 593//593 594//594 595//595
f 596//596 595//595 597//597
f 597//597 595//595 598//598
f 597//597 599//599 600//600
f 597//597 598//598 599//599
f 600//600 599//599 601//601
f 601//601 599//599 602//602
f 567//567 603//603 568//568
f 564//564 568//568 566//566
f 603//603 604//604 568//568
f 604//604 605//605 568//568
f 604//604 606//606 607//607
f 604//604 607//607 605//605
f 608//608 607//607 606//606
f 608//608 609//609 607//607
f 608//608 610//610 611//611
f 610//610 612//612 611//611
f 612//612 613//613 611//611
f 608//608 611//611 609//609
f 601//601 602//602 614//614
f 614//614 602//602 615//615
f 614//614 616//616 617//617
f 617//617 616//616 618//618
f 614//614 615//615 616//616
f 619//619 620//620 621//621
f 621//621 620//620 622//622
f 621//621 623//623 624//624
f 621//621 622//622 623//623
f 618//618 616//616 625//625
f 618//618 620//620 619//619
f 618//618 625//625 620//620
f 626//626 627//627 628//628
f 629//629 630//630 631//631
f 626//626 631//631 630//630
f 626//626 630//630 627//627
f 629//629 632//632 630//630
f 633//633 628//628 612//612
f 612//612 628//628 613//613
f 633//633 626//626 628//628
f 634//634 624//624 623//623
f 634//634 623//623 629//629
f 629//629 623//623 632//632
f 635//635 636//636 637//637
f 636//636 638//638 639//639
f 636//636 639//639 637//637
f 637//637 639//639 640//640
f 639//639 638//638 641//641
f 639//639 642//642 640//640
f 639//639 641//641 642//642
f 640//640 642//642 643//643
f 642//642 641//641 644//644
f 642//642 645//645 643//643
f 642//642 644//644 645//645
f 644//644 646//646 645//645
f 635//635 647//647 636//636
f 636//636 647//647 638//638
f 638//638 648//648 641//641
f 635//635 649//649 650//650
f 641//641 648//648 644//644
f 644//644 651//651 646//646
f 646//646 651//651 652//652
f 635//635 637//637 653//653
f 637//637 640//640 654//654
f 640//640 643//643 655//655
f 635//635 653//653 649//649
f 643//643 645//645 655//655
f 645//645 646//646 656//656
f 646//646 652//652 657//657
f 635//635 650//650 658//658
f 635//635 658//658 647//647
f 638//638 647//647 659//659
f 638//638 659//659 648//648
f 644//644 648//648 660//660
f 644//644 660//660 651//651
f 651//651 661//661 652//652
f 658//658 662//662 647//647
f 647//647 663//663 659//659
f 647//647 662//662 663//663
f 662//662 664//664 663//663
f 659//659 663//663 665//665
f 663//663 664//664 665//665
f 659//659 665//665 648//648
f 664//664 666//666 665//665
f 648//648 665//665 660//660
f 665//665 666//666 667//667
f 665//665 667//667 660//660
f 660//660 667//667 651//651
f 658//658 650//650 668//668
f 658//658 669//669 662//662
f 662//662 669//669 664//664
f 664//664 670//670 666//666
f 666//666 671//671 667//667
f 667//667 672//672 651//651
f 651//651 672//672 661//661
f 637//637 673//673 653//653
f 637//637 654//654 673//673
f 653//653 674//674 649//649
f 640//640 655//655 654//654
f 646//646 657//657 656//656
f 645//645 675//675 655//655
f 645//645 656//656 675//675
f 653//653 673//673 676//676
f 673//673 677//677 676//676
f 673//673 654//654 677//677
f 676//676 677//677 678//678
f 654//654 679//679 677//677
f 677//677 679//679 678//678
f 654//654 655//655 679//679
f 678//678 679//679 680//680
f 655//655 675//675 679//679
f 679//679 681//681 680//680
f 679//679 675//675 681//681
f 675//675 656//656 681//681
f 653//653 676//676 682//682
f 676//676 678//678 683//683
f 653//653 682//682 674//674
f 678//678 680//680 683//683
f 656//656 657//657 684//684
f 680//680 681//681 685//685
f 681//681 656//656 672//672
f 658//658 668//668 682//682
f 658//658 682//682 669//669
f 664//664 669//669 670//670
f 666//666 670//670 671//671
f 667//667 671//671 686//686
f 667//667 686//686 672//672
f 672//672 684//684 661//661
f 682//682 668//668 674//674
f 676//676 687//687 682//682
f 676//676 683//683 687//687
f 683//683 680//680 685//685
f 656//656 684//684 672//672
f 681//681 672//672 688//688
f 681//681 688//688 685//685
f 682//682 687//687 669//669
f 669//669 687//687 689//689
f 669//669 689//689 670//670
f 687//687 683//683 689//689
f 670//670 689//689 671//671
f 683//683 685//685 689//689
f 689//689 690//690 671//671
f 689//689 685//685 690//690
f 671//671 690//690 686//686
f 685//685 688//688 690//690
f 690//690 688//688 686//686
f 686//686 688//688 672//672
f 691//691 692//692 693//693
f 694//694 695//695 696//696
f 693//693 697//697 691//691
f 698//698 699//699 700//700
f 696//696 701//701 694//694
f 702//702 703//703 704//704
f 700//700 699//699 705//705
f 704//704 706//706 702//702
