v -0.12066 -0.10666 -0.34000
v -0.12300 -0.10100 -0.34000
v -0.12066 -0.10100 -0.34566
v -0.11500 -0.10666 -0.34566
v -0.11500 -0.10900 -0.34000
v -0.11500 -0.10100 -0.34800
v -0.12066 -0.10666 0.14000
v -0.12066 -0.01900 -0.34566
v -0.12300 -0.10100 0.14000
v -0.11500 -0.10900 0.14000
v -0.12300 -0.01900 0.14000
v -0.12300 -0.01900 -0.34000
v -0.11500 -0.01900 -0.34800
v -0.12066 -0.01334 -0.34000
v -0.11500 -0.01334 -0.34566
v -0.11500 -0.01100 -0.34000
v -0.11500 -0.01100 0.14000
v -0.07500 -0.01100 -0.22500
v -0.06495 -0.01100 -0.26250
v -0.03750 -0.01100 -0.28995
v -0.12066 -0.01334 0.14000
v -0.06495 -0.01100 -0.18750
v -0.03750 -0.01100 -0.16005
v 0.11500 -0.10900 -0.34000
v 0.11500 -0.10100 -0.34800
v 0.11500 -0.10900 0.14000
v 0.11500 -0.01900 -0.34800
v 0.00000 -0.01100 -0.30000
v 0.11500 -0.01100 -0.34000
v 0.00000 -0.01100 -0.15000
v 0.03750 -0.01100 -0.16005
v -0.12066 -0.10100 0.14566
v -0.11500 -0.10666 0.14566
v -0.11500 -0.10100 0.14800
v -0.12066 -0.01900 0.14566
v -0.11500 -0.01900 0.14800
v -0.11500 -0.01334 0.14566
v 0.11500 -0.10666 0.14566
v 0.11500 -0.10100 0.14800
v 0.11500 -0.01900 0.14800
v 0.11500 -0.01100 0.14000
v 0.11500 -0.10666 -0.34566
v 0.11500 -0.01334 -0.34566
v 0.03750 -0.01100 -0.28995
v 0.12066 -0.10666 -0.34000
v 0.12066 -0.10100 -0.34566
v 0.12300 -0.10100 -0.34000
v 0.12066 -0.10666 0.14000
v 0.12066 -0.01900 -0.34566
v 0.12300 -0.01900 -0.34000
v 0.12300 -0.10100 0.14000
v 0.06495 -0.01100 -0.26250
v 0.07500 -0.01100 -0.22500
v 0.12066 -0.01334 -0.34000
v 0.12300 -0.01900 0.14000
v 0.06495 -0.01100 -0.18750
v 0.12066 -0.01334 0.14000
v 0.11500 -0.01334 0.14566
v 0.12066 -0.10100 0.14566
v 0.12066 -0.01900 0.14566
v -0.04243 0.00757 -0.16497
v -0.03750 -0.01100 -0.16005
v -0.03750 0.00428 -0.16005
v -0.02296 -0.00543 -0.15615
v 0.00000 -0.01100 -0.15000
v 0.00000 -0.01000 -0.15000
v -0.06495 0.03900 -0.26250
v -0.06495 -0.01100 -0.26250
v -0.07500 -0.01100 -0.22500
v -0.07500 0.03900 -0.22500
v -0.06495 -0.01100 -0.18750
v -0.06495 0.03900 -0.18750
v -0.06495 0.03900 -0.18750
v -0.06495 0.03900 -0.26250
v -0.07500 0.03900 -0.22500
v -0.05781 0.03900 -0.18036
v -0.03750 0.03900 -0.28995
v -0.03750 -0.01100 -0.28995
v -0.05543 0.02704 -0.17798
v -0.05781 0.03900 -0.25000
v -0.03750 0.03900 -0.28995
v 0.00000 0.03900 -0.30000
v -0.05781 0.03900 -0.18036
v 0.00000 0.03900 -0.30000
v 0.00000 -0.01100 -0.30000
v 0.03750 0.03900 -0.28995
v 0.02296 -0.00543 -0.15615
v 0.03750 -0.01100 -0.16005
v 0.03750 0.00428 -0.16005
v 0.06495 -0.01100 -0.18750
v 0.04243 0.00757 -0.16497
v 0.03750 0.03900 -0.28995
v 0.03750 -0.01100 -0.28995
v 0.05781 0.03900 -0.25000
v 0.06495 0.03900 -0.26250
v 0.06495 -0.01100 -0.26250
v 0.05543 0.02704 -0.17798
v 0.06495 0.03900 -0.26250
v 0.06495 0.03900 -0.18750
v 0.05781 0.03900 -0.18036
v 0.06495 0.03900 -0.18750
v 0.05781 0.03900 -0.18036
v 0.07500 0.03900 -0.22500
v 0.07500 -0.01100 -0.22500
v 0.07500 0.03900 -0.22500
v -0.02296 -0.00543 0.35000
v -0.02296 -0.00543 -0.15615
v 0.00000 -0.01000 -0.15000
v -0.04243 0.00757 0.35000
v 0.00000 -0.01000 0.35000
v -0.02296 -0.00543 0.35000
v 0.00000 -0.01000 0.35000
v -0.01722 0.00843 0.35000
v -0.06000 0.05000 -0.25000
v -0.05781 0.03900 -0.25000
v -0.05781 0.03900 -0.18036
v -0.06000 0.05000 -0.25000
v -0.05543 0.07296 -0.25000
v -0.05781 0.03900 -0.25000
v -0.06000 0.05000 0.35000
v -0.05543 0.02704 -0.17798
v -0.04243 0.09243 -0.25000
v -0.02296 0.10543 -0.25000
v 0.00000 0.11000 -0.25000
v 0.02296 0.10543 -0.25000
v -0.05543 0.07296 0.35000
v -0.05543 0.07296 -0.25000
v -0.04243 0.09243 0.35000
v -0.04243 0.09243 -0.25000
v -0.02296 0.10543 0.35000
v -0.02296 0.10543 -0.25000
v 0.00000 0.11000 0.35000
v 0.00000 0.11000 -0.25000
v -0.05543 0.02704 0.35000
v -0.04243 0.00757 -0.16497
v -0.03750 0.00428 -0.16005
v -0.03182 0.01818 0.35000
v -0.04243 0.00757 0.35000
v -0.04157 0.03278 0.35000
v -0.05543 0.02704 0.35000
v -0.04500 0.05000 0.35000
v -0.05543 0.07296 0.35000
v -0.06000 0.05000 0.35000
v 0.00000 0.00500 0.35000
v -0.04243 0.09243 0.35000
v -0.04157 0.06722 0.35000
v -0.03182 0.08182 0.35000
v -0.01722 0.09157 0.35000
v -0.02296 0.10543 0.35000
v 0.00000 0.09500 0.35000
v 0.00000 0.11000 0.35000
v 0.02296 -0.00543 -0.15615
v 0.02296 -0.00543 0.35000
v 0.03750 0.00428 -0.16005
v 0.02296 -0.00543 0.35000
v 0.06000 0.05000 -0.25000
v 0.05781 0.03900 -0.25000
v 0.05543 0.07296 -0.25000
v 0.06000 0.05000 -0.25000
v 0.05781 0.03900 -0.18036
v 0.05781 0.03900 -0.25000
v 0.05543 0.02704 0.35000
v 0.05543 0.02704 -0.17798
v 0.04243 0.09243 -0.25000
v 0.02296 0.10543 0.35000
v 0.02296 0.10543 -0.25000
v 0.05543 0.07296 -0.25000
v 0.06000 0.05000 0.35000
v 0.04243 0.09243 -0.25000
v 0.05543 0.07296 0.35000
v 0.04243 0.09243 0.35000
v 0.04243 0.00757 -0.16497
v 0.04243 0.00757 0.35000
v 0.01722 0.00843 0.35000
v 0.04243 0.00757 0.35000
v 0.03182 0.01818 0.35000
v 0.04157 0.03278 0.35000
v 0.04500 0.05000 0.35000
v 0.05543 0.02704 0.35000
v 0.05543 0.07296 0.35000
v 0.06000 0.05000 0.35000
v 0.01722 0.09157 0.35000
v 0.02296 0.10543 0.35000
v 0.03182 0.08182 0.35000
v 0.04243 0.09243 0.35000
v 0.04157 0.06722 0.35000
v -0.03182 0.01818 0.20000
v -0.04157 0.03278 0.35000
v -0.03182 0.01818 0.35000
v -0.04157 0.03278 0.20000
v -0.04157 0.03278 0.20000
v -0.04157 0.06722 0.20000
v -0.04500 0.05000 0.20000
v -0.03182 0.01818 0.20000
v -0.03182 0.08182 0.20000
v -0.04500 0.05000 0.20000
v -0.04500 0.05000 0.35000
v -0.01722 0.00843 0.20000
v -0.01722 0.00843 0.35000
v 0.00000 0.00500 0.20000
v 0.00000 0.00500 0.35000
v -0.01722 0.00843 0.20000
v -0.01722 0.09157 0.20000
v 0.00000 0.00500 0.20000
v 0.00000 0.09500 0.20000
v -0.04157 0.06722 0.20000
v -0.04157 0.06722 0.35000
v -0.03182 0.08182 0.20000
v -0.03182 0.08182 0.35000
v -0.01722 0.09157 0.20000
v -0.01722 0.09157 0.35000
v 0.00000 0.09500 0.20000
v 0.00000 0.09500 0.35000
v 0.01722 0.00843 0.20000
v 0.01722 0.00843 0.35000
v 0.03182 0.01818 0.20000
v 0.03182 0.01818 0.35000
v 0.01722 0.00843 0.20000
v 0.01722 0.09157 0.20000
v 0.03182 0.01818 0.20000
v 0.03182 0.08182 0.20000
v 0.04157 0.03278 0.20000
v 0.04157 0.03278 0.20000
v 0.04157 0.06722 0.20000
v 0.04157 0.03278 0.35000
v 0.04500 0.05000 0.20000
v 0.04500 0.05000 0.20000
v 0.04500 0.05000 0.35000
v 0.01722 0.09157 0.20000
v 0.01722 0.09157 0.35000
v 0.03182 0.08182 0.20000
v 0.03182 0.08182 0.35000
v 0.04157 0.06722 0.20000
v 0.04157 0.06722 0.35000
vn -0.6887 -0.6887 -0.2265
vn -0.9641 -0.1877 -0.1877
vn -0.6887 -0.2265 -0.6887
vn -0.2265 -0.6887 -0.6887
vn -0.1877 -0.9641 -0.1877
vn -0.1877 -0.1877 -0.9641
vn -0.6887 -0.6887 0.2265
vn -0.6887 0.2265 -0.6887
vn -0.9641 -0.1877 0.1877
vn -0.1877 -0.9641 0.1877
vn -0.9641 0.1877 0.1877
vn -0.9641 0.1877 -0.1877
vn -0.1877 0.1877 -0.9641
vn -0.6887 0.6887 -0.2265
vn -0.2265 0.6887 -0.6887
vn -0.1877 0.9641 -0.1877
vn -0.1877 0.9641 0.1877
vn 0.0000 1.0000 0.0000
vn 0.0000 1.0000 0.0000
vn 0.0000 1.0000 0.0000
vn -0.6887 0.6887 0.2265
vn 0.0000 1.0000 0.0000
vn 0.0000 1.0000 0.0000
vn 0.1877 -0.9641 -0.1877
vn 0.1877 -0.1877 -0.9641
vn 0.1877 -0.9641 0.1877
vn 0.1877 0.1877 -0.9641
vn 0.0000 1.0000 0.0000
vn 0.1877 0.9641 -0.1877
vn 0.0000 1.0000 0.0000
vn 0.0000 1.0000 0.0000
vn -0.6887 -0.2265 0.6887
vn -0.2265 -0.6887 0.6887
vn -0.1877 -0.1877 0.9641
vn -0.6887 0.2265 0.6887
vn -0.1877 0.1877 0.9641
vn -0.2265 0.6887 0.6887
vn 0.2265 -0.6887 0.6887
vn 0.1877 -0.1877 0.9641
vn 0.1877 0.1877 0.9641
vn 0.1877 0.9641 0.1877
vn 0.2265 -0.6887 -0.6887
vn 0.2265 0.6887 -0.6887
vn 0.0000 1.0000 0.0000
vn 0.6887 -0.6887 -0.2265
vn 0.6887 -0.2265 -0.6887
vn 0.9641 -0.1877 -0.1877
vn 0.6887 -0.6887 0.2265
vn 0.6887 0.2265 -0.6887
vn 0.9641 0.1877 -0.1877
vn 0.9641 -0.1877 0.1877
vn 0.0000 1.0000 0.0000
vn 0.0000 1.0000 0.0000
vn 0.6887 0.6887 -0.2265
vn 0.9641 0.1877 0.1877
vn 0.0000 1.0000 0.0000
vn 0.6887 0.6887 0.2265
vn 0.2265 0.6887 0.6887
vn 0.6887 -0.2265 0.6887
vn 0.6887 0.2265 0.6887
vn -0.7071 0.0000 0.7071
vn -0.5000 0.0000 0.8660
vn -0.5759 0.0000 0.8175
vn -0.2588 0.0000 0.9659
vn 0.0000 0.0000 1.0000
vn 0.0000 0.0000 1.0000
vn -0.8660 0.0000 -0.5000
vn -0.8660 0.0000 -0.5000
vn -1.0000 0.0000 -0.0000
vn -1.0000 0.0000 0.0000
vn -0.8660 0.0000 0.5000
vn -0.8660 0.0000 0.5000
vn 0.0000 1.0000 0.0000
vn 0.0000 1.0000 0.0000
vn 0.0000 1.0000 0.0000
vn 0.0000 1.0000 0.0000
vn -0.5000 0.0000 -0.8660
vn -0.5000 0.0000 -0.8660
vn -0.7071 0.0000 0.7071
vn 0.0000 1.0000 0.0000
vn 0.0000 1.0000 0.0000
vn 0.0000 1.0000 0.0000
vn -0.7071 0.0000 0.7071
vn 0.0000 0.0000 -1.0000
vn 0.0000 0.0000 -1.0000
vn 0.0000 1.0000 0.0000
vn 0.2588 0.0000 0.9659
vn 0.5000 0.0000 0.8660
vn 0.5759 0.0000 0.8175
vn 0.8660 0.0000 0.5000
vn 0.7071 0.0000 0.7071
vn 0.5000 0.0000 -0.8660
vn 0.5000 0.0000 -0.8660
vn 0.0000 1.0000 0.0000
vn 0.8660 0.0000 -0.5000
vn 0.8660 0.0000 -0.5000
vn 0.7071 0.0000 0.7071
vn 0.0000 1.0000 0.0000
vn 0.0000 1.0000 0.0000
vn 0.0000 1.0000 0.0000
vn 0.8660 0.0000 0.5000
vn 0.7071 0.0000 0.7071
vn 1.0000 0.0000 0.0000
vn 1.0000 0.0000 0.0000
vn 0.0000 1.0000 0.0000
vn -0.3827 -0.9239 -0.0000
vn -0.4107 -0.9118 0.0000
vn 0.0000 -1.0000 0.0000
vn -0.7071 -0.7071 0.0000
vn -0.0000 -1.0000 0.0000
vn 0.0000 0.0000 1.0000
vn 0.0000 0.0000 1.0000
vn 0.0000 0.0000 1.0000
vn -1.0000 -0.0000 0.0000
vn -0.9808 -0.1951 0.0000
vn -0.9808 -0.1951 0.0000
vn 0.0000 0.0000 -1.0000
vn 0.0000 0.0000 -1.0000
vn 0.0000 0.0000 -1.0000
vn -1.0000 -0.0000 0.0000
vn -0.9416 -0.3368 0.0000
vn 0.0000 0.0000 -1.0000
vn 0.0000 0.0000 -1.0000
vn 0.0000 0.0000 -1.0000
vn 0.0000 0.0000 -1.0000
vn -0.9239 0.3827 0.0000
vn -0.9239 0.3827 0.0000
vn -0.7071 0.7071 0.0000
vn -0.7071 0.7071 0.0000
vn -0.3827 0.9239 0.0000
vn -0.3827 0.9239 -0.0000
vn 0.0000 1.0000 -0.0000
vn -0.0000 1.0000 0.0000
vn -0.9239 -0.3827 0.0000
vn -0.7618 -0.6478 0.0000
vn -0.5556 -0.8315 0.0000
vn 0.0000 0.0000 1.0000
vn 0.0000 0.0000 1.0000
vn 0.0000 0.0000 1.0000
vn 0.0000 0.0000 1.0000
vn 0.0000 0.0000 1.0000
vn 0.0000 0.0000 1.0000
vn 0.0000 0.0000 1.0000
vn 0.0000 0.0000 1.0000
vn 0.0000 0.0000 1.0000
vn 0.0000 0.0000 1.0000
vn 0.0000 0.0000 1.0000
vn 0.0000 0.0000 1.0000
vn 0.0000 0.0000 1.0000
vn 0.0000 0.0000 1.0000
vn 0.0000 0.0000 1.0000
vn 0.4107 -0.9118 0.0000
vn 0.3827 -0.9239 0.0000
vn 0.5556 -0.8315 -0.0000
vn 0.0000 0.0000 1.0000
vn 0.0000 0.0000 -1.0000
vn 0.0000 0.0000 -1.0000
vn 0.0000 0.0000 -1.0000
vn 1.0000 0.0000 0.0000
vn 0.9808 -0.1951 0.0000
vn 0.9808 -0.1951 0.0000
vn 0.9239 -0.3827 0.0000
vn 0.9416 -0.3368 0.0000
vn 0.0000 0.0000 -1.0000
vn 0.3827 0.9239 0.0000
vn 0.3827 0.9239 0.0000
vn 0.9239 0.3827 -0.0000
vn 1.0000 -0.0000 -0.0000
vn 0.7071 0.7071 0.0000
vn 0.9239 0.3827 0.0000
vn 0.7071 0.7071 0.0000
vn 0.7618 -0.6478 -0.0000
vn 0.7071 -0.7071 0.0000
vn 0.0000 0.0000 1.0000
vn 0.0000 0.0000 1.0000
vn 0.0000 0.0000 1.0000
vn 0.0000 0.0000 1.0000
vn 0.0000 0.0000 1.0000
vn 0.0000 0.0000 1.0000
vn 0.0000 0.0000 1.0000
vn 0.0000 0.0000 1.0000
vn 0.0000 0.0000 1.0000
vn 0.0000 0.0000 1.0000
vn 0.0000 0.0000 1.0000
vn 0.0000 0.0000 1.0000
vn 0.0000 0.0000 1.0000
vn 0.7071 0.7071 -0.0000
vn 0.9239 0.3827 -0.0000
vn 0.7071 0.7071 0.0000
vn 0.9239 0.3827 -0.0000
vn 0.0000 0.0000 1.0000
vn 0.0000 0.0000 1.0000
vn 0.0000 0.0000 1.0000
vn 0.0000 0.0000 1.0000
vn 0.0000 0.0000 1.0000
vn 1.0000 -0.0000 0.0000
vn 1.0000 0.0000 -0.0000
vn 0.3827 0.9239 0.0000
vn 0.3827 0.9239 0.0000
vn 0.0000 1.0000 0.0000
vn -0.0000 1.0000 -0.0000
vn 0.0000 0.0000 1.0000
vn 0.0000 0.0000 1.0000
vn 0.0000 0.0000 1.0000
vn 0.0000 0.0000 1.0000
vn 0.9239 -0.3827 0.0000
vn 0.9239 -0.3827 0.0000
vn 0.7071 -0.7071 -0.0000
vn 0.7071 -0.7071 0.0000
vn 0.3827 -0.9239 0.0000
vn 0.3827 -0.9239 -0.0000
vn -0.0000 -1.0000 0.0000
vn 0.0000 -1.0000 0.0000
vn -0.3827 0.9239 -0.0000
vn -0.3827 0.9239 -0.0000
vn -0.7071 0.7071 -0.0000
vn -0.7071 0.7071 0.0000
vn 0.0000 0.0000 1.0000
vn 0.0000 0.0000 1.0000
vn 0.0000 0.0000 1.0000
vn 0.0000 0.0000 1.0000
vn -0.9239 0.3827 0.0000
vn 0.0000 0.0000 1.0000
vn 0.0000 0.0000 1.0000
vn -0.9239 0.3827 0.0000
vn -1.0000 0.0000 0.0000
vn 0.0000 0.0000 1.0000
vn -1.0000 -0.0000 0.0000
vn -0.3827 -0.9239 0.0000
vn -0.3827 -0.9239 0.0000
vn -0.7071 -0.7071 -0.0000
vn -0.7071 -0.7071 0.0000
vn -0.9239 -0.3827 0.0000
vn -0.9239 -0.3827 -0.0000
f 1//1 2//2 3//3
f 1//1 4//4 5//5
f 1//1 3//3 4//4
f 3//3 6//6 4//4
f 1//1 7//7 2//2
f 1//1 5//5 7//7
f 2//2 8//8 3//3
f 3//3 8//8 6//6
f 2//2 7//7 9//9
f 5//5 10//10 7//7
f 2//2 9//9 11//11
f 2//2 12//12 8//8
f 6//6 8//8 13//13
f 2//2 11//11 12//12
f 12//12 14//14 8//8
f 8//8 15//15 13//13
f 8//8 14//14 15//15
f 14//14 16//16 15//15
f 12//12 11//11 14//14
f 14//14 17//17 16//16
f 16//16 18//18 19//19
f 16//16 19//19 20//20
f 16//16 17//17 18//18
f 14//14 11//11 21//21
f 14//14 21//21 17//17
f 17//17 22//22 18//18
f 17//17 23//23 22//22
f 5//5 4//4 24//24
f 4//4 6//6 25//25
f 5//5 26//26 10//10
f 6//6 13//13 27//27
f 16//16 20//20 28//28
f 13//13 15//15 27//27
f 15//15 16//16 29//29
f 17//17 30//30 23//23
f 17//17 31//31 30//30
f 7//7 32//32 9//9
f 7//7 10//10 33//33
f 7//7 33//33 32//32
f 32//32 33//33 34//34
f 9//9 32//32 35//35
f 32//32 34//34 35//35
f 9//9 35//35 11//11
f 34//34 36//36 35//35
f 11//11 35//35 21//21
f 35//35 36//36 37//37
f 35//35 37//37 21//21
f 21//21 37//37 17//17
f 10//10 38//38 33//33
f 33//33 38//38 34//34
f 34//34 39//39 36//36
f 36//36 40//40 37//37
f 37//37 41//41 17//17
f 4//4 42//42 24//24
f 4//4 25//25 42//42
f 5//5 24//24 26//26
f 6//6 27//27 25//25
f 16//16 28//28 29//29
f 15//15 43//43 27//27
f 15//15 29//29 43//43
f 29//29 28//28 44//44
f 24//24 42//42 45//45
f 42//42 25//25 46//46
f 42//42 46//46 45//45
f 45//45 46//46 47//47
f 24//24 45//45 48//48
f 45//45 47//47 48//48
f 25//25 49//49 46//46
f 46//46 49//49 47//47
f 47//47 50//50 51//51
f 24//24 48//48 26//26
f 47//47 51//51 48//48
f 29//29 44//44 52//52
f 29//29 52//52 53//53
f 25//25 27//27 49//49
f 47//47 49//49 50//50
f 27//27 43//43 49//49
f 43//43 54//54 49//49
f 49//49 54//54 50//50
f 43//43 29//29 54//54
f 50//50 54//54 55//55
f 54//54 29//29 41//41
f 41//41 53//53 56//56
f 41//41 56//56 31//31
f 50//50 55//55 51//51
f 29//29 53//53 41//41
f 54//54 57//57 55//55
f 54//54 41//41 57//57
f 10//10 26//26 38//38
f 34//34 38//38 39//39
f 17//17 41//41 31//31
f 36//36 39//39 40//40
f 37//37 40//40 58//58
f 37//37 58//58 41//41
f 26//26 48//48 38//38
f 38//38 59//59 39//39
f 38//38 48//48 59//59
f 48//48 51//51 59//59
f 39//39 59//59 40//40
f 51//51 55//55 59//59
f 59//59 60//60 40//40
f 59//59 55//55 60//60
f 40//40 60//60 58//58
f 58//58 60//60 57//57
f 55//55 57//57 60//60
f 58//58 57//57 41//41
f 61//61 62//62 63//63
f 64//64 63//63 62//62
f 64//64 62//62 65//65
f 64//64 65//65 66//66
f 67//67 68//68 69//69
f 70//70 69//69 71//71
f 70//70 67//67 69//69
f 72//72 70//70 71//71
f 73//73 74//74 75//75
f 73//73 76//76 74//74
f 77//77 78//78 68//68
f 67//67 77//77 68//68
f 72//72 71//71 62//62
f 72//72 62//62 79//79
f 74//74 80//80 81//81
f 81//81 80//80 82//82
f 74//74 76//76 80//80
f 72//72 79//79 83//83
f 77//77 84//84 78//78
f 84//84 85//85 78//78
f 82//82 80//80 86//86
f 61//61 79//79 62//62
f 87//87 66//66 65//65
f 88//88 87//87 65//65
f 88//88 89//89 87//87
f 90//90 89//89 88//88
f 91//91 89//89 90//90
f 84//84 92//92 85//85
f 92//92 93//93 85//85
f 86//86 80//80 94//94
f 95//95 96//96 93//93
f 92//92 95//95 93//93
f 91//91 90//90 97//97
f 86//86 94//94 98//98
f 99//99 94//94 100//100
f 101//101 102//102 97//97
f 103//103 104//104 96//96
f 101//101 90//90 104//104
f 103//103 96//96 95//95
f 101//101 97//97 90//90
f 101//101 104//104 103//103
f 99//99 98//98 94//94
f 99//99 105//105 98//98
f 106//106 107//107 108//108
f 106//106 109//109 107//107
f 106//106 108//108 110//110
f 111//111 112//112 113//113
f 114//114 115//115 116//116
f 117//117 118//118 119//119
f 120//120 116//116 121//121
f 114//114 116//116 120//120
f 118//118 122//122 119//119
f 122//122 123//123 119//119
f 123//123 124//124 119//119
f 124//124 125//125 119//119
f 114//114 126//126 127//127
f 127//127 128//128 129//129
f 129//129 130//130 131//131
f 131//131 132//132 133//133
f 134//134 121//121 135//135
f 109//109 135//135 136//136
f 109//109 136//136 107//107
f 134//134 120//120 121//121
f 134//134 135//135 109//109
f 111//111 137//137 138//138
f 138//138 137//137 139//139
f 140//140 138//138 141//141
f 140//140 142//142 143//143
f 138//138 139//139 141//141
f 111//111 113//113 137//137
f 113//113 112//112 144//144
f 114//114 120//120 126//126
f 127//127 126//126 128//128
f 129//129 128//128 130//130
f 131//131 130//130 132//132
f 140//140 141//141 145//145
f 140//140 145//145 142//142
f 141//141 146//146 145//145
f 146//146 147//147 145//145
f 147//147 148//148 145//145
f 145//145 148//148 149//149
f 148//148 150//150 149//149
f 149//149 150//150 151//151
f 110//110 108//108 152//152
f 153//153 152//152 154//154
f 110//110 152//152 153//153
f 112//112 155//155 144//144
f 156//156 157//157 119//119
f 156//156 119//119 158//158
f 159//159 160//160 161//161
f 162//162 163//163 160//160
f 159//159 162//162 160//160
f 158//158 119//119 164//164
f 125//125 164//164 119//119
f 133//133 165//165 166//166
f 159//159 167//167 168//168
f 167//167 169//169 170//170
f 166//166 171//171 169//169
f 153//153 154//154 172//172
f 173//173 172//172 163//163
f 173//173 163//163 162//162
f 159//159 168//168 162//162
f 155//155 174//174 144//144
f 155//155 175//175 174//174
f 174//174 175//175 176//176
f 153//153 172//172 173//173
f 175//175 177//177 176//176
f 175//175 178//178 177//177
f 175//175 179//179 180//180
f 175//175 180//180 178//178
f 179//179 181//181 180//180
f 133//133 132//132 165//165
f 166//166 165//165 171//171
f 167//167 170//170 168//168
f 169//169 171//171 170//170
f 150//150 182//182 151//151
f 151//151 182//182 183//183
f 182//182 184//184 183//183
f 178//178 185//185 186//186
f 186//186 185//185 184//184
f 178//178 180//180 185//185
f 183//183 184//184 185//185
f 187//187 188//188 189//189
f 187//187 190//190 188//188
f 191//191 192//192 193//193
f 194//194 195//195 191//191
f 190//190 196//196 197//197
f 190//190 197//197 188//188
f 187//187 189//189 198//198
f 198//198 199//199 200//200
f 189//189 199//199 198//198
f 199//199 201//201 200//200
f 194//194 202//202 203//203
f 202//202 204//204 205//205
f 191//191 195//195 192//192
f 196//196 206//206 207//207
f 206//206 208//208 209//209
f 196//196 207//207 197//197
f 206//206 209//209 207//207
f 194//194 203//203 195//195
f 202//202 205//205 203//203
f 208//208 210//210 211//211
f 210//210 212//212 213//213
f 208//208 211//211 209//209
f 210//210 213//213 211//211
f 200//200 201//201 214//214
f 214//214 215//215 216//216
f 214//214 201//201 215//215
f 215//215 217//217 216//216
f 204//204 218//218 219//219
f 218//218 220//220 221//221
f 216//216 217//217 222//222
f 220//220 223//223 224//224
f 222//222 225//225 226//226
f 223//223 227//227 224//224
f 217//217 225//225 222//222
f 226//226 225//225 228//228
f 204//204 219//219 205//205
f 218//218 221//221 219//219
f 212//212 229//229 230//230
f 229//229 231//231 232//232
f 212//212 230//230 213//213
f 229//229 232//232 230//230
f 220//220 224//224 221//221
f 226//226 228//228 233//233
f 233//233 234//234 231//231
f 228//228 234//234 233//233
f 231//231 234//234 232//232
