v -0.43864 -0.06364 -0.14000
v -0.40944 -0.08315 -0.14000
v -0.43864 -0.06364 -0.10000
v -0.37500 -0.09000 -0.14000
v -0.40944 -0.08315 -0.10000
v -0.34056 -0.08315 -0.14000
v -0.37500 -0.09000 -0.10000
v -0.31136 -0.06364 -0.14000
v -0.34056 -0.08315 -0.10000
v -0.29185 -0.03444 -0.14000
v -0.31136 -0.06364 -0.10000
v -0.40944 -0.08315 -0.14000
v -0.43864 -0.06364 -0.14000
v -0.43864 0.06364 -0.14000
v -0.37500 -0.09000 -0.14000
v -0.40944 0.08315 -0.14000
v -0.34056 -0.08315 -0.14000
v -0.37500 0.09000 -0.14000
v -0.45815 -0.03444 -0.14000
v -0.45815 0.03444 -0.14000
v -0.31136 -0.06364 -0.14000
v -0.34056 0.08315 -0.14000
v -0.29185 -0.03444 -0.14000
v -0.31136 0.06364 -0.14000
v -0.45815 -0.03444 -0.14000
v -0.45815 -0.03444 -0.10000
v -0.46500 0.00000 -0.14000
v -0.46500 0.00000 -0.10000
v -0.28500 0.00000 -0.14000
v -0.29185 -0.03444 -0.10000
v -0.28500 0.00000 -0.10000
v -0.40944 -0.08315 -0.10000
v -0.43864 0.06364 -0.10000
v -0.43864 -0.06364 -0.10000
v -0.37500 -0.09000 -0.10000
v -0.40944 0.08315 -0.10000
v -0.34056 -0.08315 -0.10000
v -0.37500 0.09000 -0.10000
v -0.45815 0.03444 -0.10000
v -0.45815 -0.03444 -0.10000
v -0.31136 -0.06364 -0.10000
v -0.34056 0.08315 -0.10000
v -0.29185 -0.03444 -0.10000
v -0.31136 0.06364 -0.10000
v -0.46500 0.00000 -0.14000
v -0.29185 0.03444 -0.14000
v -0.28500 0.00000 -0.14000
v -0.45815 0.03444 -0.14000
v -0.45815 0.03444 -0.10000
v -0.29185 0.03444 -0.14000
v -0.31136 0.06364 -0.14000
v -0.29185 0.03444 -0.10000
v -0.43864 0.06364 -0.14000
v -0.43864 0.06364 -0.10000
v -0.40944 0.08315 -0.14000
v -0.40944 0.08315 -0.10000
v -0.37500 0.09000 -0.14000
v -0.37500 0.09000 -0.10000
v -0.34056 0.08315 -0.14000
v -0.34056 0.08315 -0.10000
v -0.31136 0.06364 -0.10000
v -0.46500 0.00000 -0.10000
v -0.29185 0.03444 -0.10000
v -0.28500 0.00000 -0.10000
v -0.18864 -0.06364 -0.14000
v -0.15944 -0.08315 -0.14000
v -0.18864 -0.06364 -0.10000
v -0.12500 -0.09000 -0.14000
v -0.15944 -0.08315 -0.10000
v -0.09056 -0.08315 -0.14000
v -0.12500 -0.09000 -0.10000
v -0.06136 -0.06364 -0.14000
v -0.09056 -0.08315 -0.10000
v -0.04185 -0.03444 -0.14000
v -0.06136 -0.06364 -0.10000
v -0.15944 -0.08315 -0.14000
v -0.18864 -0.06364 -0.14000
v -0.18864 0.06364 -0.14000
v -0.12500 -0.09000 -0.14000
v -0.15944 0.08315 -0.14000
v -0.20815 -0.03444 -0.14000
v -0.20815 0.03444 -0.14000
v -0.09056 -0.08315 -0.14000
v -0.12500 0.09000 -0.14000
v -0.06136 -0.06364 -0.14000
v -0.09056 0.08315 -0.14000
v -0.04185 -0.03444 -0.14000
v -0.06136 0.06364 -0.14000
v -0.20815 -0.03444 -0.14000
v -0.20815 -0.03444 -0.10000
v -0.21500 0.00000 -0.14000
v -0.21500 0.00000 -0.10000
v -0.03500 0.00000 -0.14000
v -0.04185 -0.03444 -0.10000
v -0.03500 0.00000 -0.10000
v -0.15944 -0.08315 -0.10000
v -0.18864 0.06364 -0.10000
v -0.18864 -0.06364 -0.10000
v -0.12500 -0.09000 -0.10000
v -0.15944 0.08315 -0.10000
v -0.20815 0.03444 -0.10000
v -0.20815 -0.03444 -0.10000
v -0.09056 -0.08315 -0.10000
v -0.12500 0.09000 -0.10000
v -0.06136 -0.06364 -0.10000
v -0.09056 0.08315 -0.10000
v -0.04185 -0.03444 -0.10000
v -0.06136 0.06364 -0.10000
v -0.21500 0.00000 -0.14000
v -0.03500 0.00000 -0.14000
v -0.04185 0.03444 -0.14000
v -0.20815 0.03444 -0.14000
v -0.20815 0.03444 -0.10000
v -0.04185 0.03444 -0.14000
v -0.06136 0.06364 -0.14000
v -0.04185 0.03444 -0.10000
v -0.18864 0.06364 -0.14000
v -0.18864 0.06364 -0.10000
v -0.15944 0.08315 -0.14000
v -0.15944 0.08315 -0.10000
v -0.12500 0.09000 -0.14000
v -0.12500 0.09000 -0.10000
v -0.09056 0.08315 -0.14000
v -0.06136 0.06364 -0.10000
v -0.09056 0.08315 -0.10000
v -0.21500 0.00000 -0.10000
v -0.03500 0.00000 -0.10000
v -0.04185 0.03444 -0.10000
v 0.09056 -0.08315 -0.14000
v 0.12500 -0.09000 -0.14000
v 0.09056 -0.08315 -0.10000
v 0.06136 -0.06364 -0.14000
v 0.06136 -0.06364 -0.10000
v 0.15944 -0.08315 -0.14000
v 0.12500 -0.09000 -0.10000
v 0.18864 -0.06364 -0.14000
v 0.15944 -0.08315 -0.10000
v 0.20815 -0.03444 -0.14000
v 0.18864 -0.06364 -0.10000
v 0.09056 -0.08315 -0.14000
v 0.06136 -0.06364 -0.14000
v 0.06136 0.06364 -0.14000
v 0.12500 -0.09000 -0.14000
v 0.09056 0.08315 -0.14000
v 0.04185 -0.03444 -0.14000
v 0.04185 0.03444 -0.14000
v 0.15944 -0.08315 -0.14000
v 0.12500 0.09000 -0.14000
v 0.18864 -0.06364 -0.14000
v 0.15944 0.08315 -0.14000
v 0.20815 -0.03444 -0.14000
v 0.18864 0.06364 -0.14000
v 0.04185 -0.03444 -0.14000
v 0.04185 -0.03444 -0.10000
v 0.03500 0.00000 -0.14000
v 0.03500 0.00000 -0.10000
v 0.21500 0.00000 -0.14000
v 0.20815 -0.03444 -0.10000
v 0.21500 0.00000 -0.10000
v 0.09056 -0.08315 -0.10000
v 0.06136 0.06364 -0.10000
v 0.06136 -0.06364 -0.10000
v 0.12500 -0.09000 -0.10000
v 0.09056 0.08315 -0.10000
v 0.04185 0.03444 -0.10000
v 0.04185 -0.03444 -0.10000
v 0.15944 -0.08315 -0.10000
v 0.12500 0.09000 -0.10000
v 0.18864 -0.06364 -0.10000
v 0.15944 0.08315 -0.10000
v 0.20815 -0.03444 -0.10000
v 0.18864 0.06364 -0.10000
v 0.03500 0.00000 -0.14000
v 0.21500 0.00000 -0.14000
v 0.20815 0.03444 -0.14000
v 0.04185 0.03444 -0.14000
v 0.04185 0.03444 -0.10000
v 0.20815 0.03444 -0.14000
v 0.18864 0.06364 -0.14000
v 0.20815 0.03444 -0.10000
v 0.06136 0.06364 -0.14000
v 0.06136 0.06364 -0.10000
v 0.09056 0.08315 -0.14000
v 0.09056 0.08315 -0.10000
v 0.12500 0.09000 -0.14000
v 0.12500 0.09000 -0.10000
v 0.15944 0.08315 -0.14000
v 0.15944 0.08315 -0.10000
v 0.18864 0.06364 -0.10000
v 0.03500 0.00000 -0.10000
v 0.21500 0.00000 -0.10000
v 0.20815 0.03444 -0.10000
v 0.31136 -0.06364 -0.14000
v 0.34056 -0.08315 -0.14000
v 0.31136 -0.06364 -0.10000
v 0.37500 -0.09000 -0.14000
v 0.34056 -0.08315 -0.10000
v 0.40944 -0.08315 -0.14000
v 0.37500 -0.09000 -0.10000
v 0.43864 -0.06364 -0.14000
v 0.40944 -0.08315 -0.10000
v 0.45815 -0.03444 -0.14000
v 0.43864 -0.06364 -0.10000
v 0.34056 -0.08315 -0.14000
v 0.31136 -0.06364 -0.14000
v 0.31136 0.06364 -0.14000
v 0.29185 -0.03444 -0.14000
v 0.29185 0.03444 -0.14000
v 0.37500 -0.09000 -0.14000
v 0.34056 0.08315 -0.14000
v 0.40944 -0.08315 -0.14000
v 0.37500 0.09000 -0.14000
v 0.43864 -0.06364 -0.14000
v 0.40944 0.08315 -0.14000
v 0.45815 -0.03444 -0.14000
v 0.43864 0.06364 -0.14000
v 0.29185 -0.03444 -0.14000
v 0.29185 -0.03444 -0.10000
v 0.28500 0.00000 -0.14000
v 0.28500 0.00000 -0.10000
v 0.46500 0.00000 -0.14000
v 0.45815 -0.03444 -0.10000
v 0.46500 0.00000 -0.10000
v 0.34056 -0.08315 -0.10000
v 0.31136 0.06364 -0.10000
v 0.31136 -0.06364 -0.10000
v 0.29185 0.03444 -0.10000
v 0.29185 -0.03444 -0.10000
v 0.37500 -0.09000 -0.10000
v 0.34056 0.08315 -0.10000
v 0.40944 -0.08315 -0.10000
v 0.37500 0.09000 -0.10000
v 0.43864 -0.06364 -0.10000
v 0.40944 0.08315 -0.10000
v 0.45815 -0.03444 -0.10000
v 0.43864 0.06364 -0.10000
v 0.28500 0.00000 -0.14000
v 0.46500 0.00000 -0.14000
v 0.45815 0.03444 -0.14000
v 0.29185 0.03444 -0.14000
v 0.29185 0.03444 -0.10000
v 0.45815 0.03444 -0.14000
v 0.43864 0.06364 -0.14000
v 0.45815 0.03444 -0.10000
v 0.31136 0.06364 -0.14000
v 0.31136 0.06364 -0.10000
v 0.34056 0.08315 -0.14000
v 0.34056 0.08315 -0.10000
v 0.37500 0.09000 -0.14000
v 0.37500 0.09000 -0.10000
v 0.40944 0.08315 -0.14000
v 0.40944 0.08315 -0.10000
v 0.43864 0.06364 -0.10000
v 0.28500 0.00000 -0.10000
v 0.46500 0.00000 -0.10000
v 0.45815 0.03444 -0.10000
vn -0.7071 -0.7071 0.0000
vn -0.3827 -0.9239 0.0000
vn -0.7071 -0.7071 0.0000
vn 0.0000 -1.0000 0.0000
vn -0.3827 -0.9239 0.0000
vn 0.3827 -0.9239 0.0000
vn 0.0000 -1.0000 0.0000
vn 0.7071 -0.7071 0.0000
vn 0.3827 -0.9239 0.0000
vn 0.9239 -0.3827 0.0000
vn 0.7071 -0.7071 0.0000
vn 0.0000 0.0000 -1.0000
vn 0.0000 0.0000 -1.0000
vn 0.0000 0.0000 -1.0000
vn 0.0000 0.0000 -1.0000
vn 0.0000 0.0000 -1.0000
vn 0.0000 0.0000 -1.0000
vn 0.0000 0.0000 -1.0000
vn 0.0000 0.0000 -1.0000
vn 0.0000 0.0000 -1.0000
vn 0.0000 0.0000 -1.0000
vn 0.0000 0.0000 -1.0000
vn 0.0000 0.0000 -1.0000
vn 0.0000 0.0000 -1.0000
vn -0.9239 -0.3827 0.0000
vn -0.9239 -0.3827 0.0000
vn -1.0000 0.0000 0.0000
vn -1.0000 0.0000 0.0000
vn 1.0000 0.0000 0.0000
vn 0.9239 -0.3827 0.0000
vn 1.0000 0.0000 0.0000
vn 0.0000 0.0000 1.0000
vn 0.0000 0.0000 1.0000
vn 0.0000 0.0000 1.0000
vn 0.0000 0.0000 1.0000
vn 0.0000 0.0000 1.0000
vn 0.0000 0.0000 1.0000
vn 0.0000 0.0000 1.0000
vn 0.0000 0.0000 1.0000
vn 0.0000 0.0000 1.0000
vn 0.0000 0.0000 1.0000
vn 0.0000 0.0000 1.0000
vn 0.0000 0.0000 1.0000
vn 0.0000 0.0000 1.0000
vn 0.0000 0.0000 -1.0000
vn 0.0000 0.0000 -1.0000
vn 0.0000 0.0000 -1.0000
vn -0.9239 0.3827 0.0000
vn -0.9239 0.3827 0.0000
vn 0.9239 0.3827 0.0000
vn 0.7071 0.7071 0.0000
vn 0.9239 0.3827 0.0000
vn -0.7071 0.7071 0.0000
vn -0.7071 0.7071 0.0000
vn -0.3827 0.9239 0.0000
vn -0.3827 0.9239 0.0000
vn 0.0000 1.0000 0.0000
vn 0.0000 1.0000 0.0000
vn 0.3827 0.9239 0.0000
vn 0.3827 0.9239 0.0000
vn 0.7071 0.7071 0.0000
vn 0.0000 0.0000 1.0000
vn 0.0000 0.0000 1.0000
vn 0.0000 0.0000 1.0000
vn -0.7071 -0.7071 0.0000
vn -0.3827 -0.9239 0.0000
vn -0.7071 -0.7071 0.0000
vn 0.0000 -1.0000 0.0000
vn -0.3827 -0.9239 0.0000
vn 0.3827 -0.9239 0.0000
vn 0.0000 -1.0000 0.0000
vn 0.7071 -0.7071 0.0000
vn 0.3827 -0.9239 0.0000
vn 0.9239 -0.3827 0.0000
vn 0.7071 -0.7071 0.0000
vn 0.0000 0.0000 -1.0000
vn 0.0000 0.0000 -1.0000
vn 0.0000 0.0000 -1.0000
vn 0.0000 0.0000 -1.0000
vn 0.0000 0.0000 -1.0000
vn 0.0000 0.0000 -1.0000
vn 0.0000 0.0000 -1.0000
vn 0.0000 0.0000 -1.0000
vn 0.0000 0.0000 -1.0000
vn 0.0000 0.0000 -1.0000
vn 0.0000 0.0000 -1.0000
vn 0.0000 0.0000 -1.0000
vn 0.0000 0.0000 -1.0000
vn -0.9239 -0.3827 0.0000
vn -0.9239 -0.3827 0.0000
vn -1.0000 0.0000 0.0000
vn -1.0000 0.0000 0.0000
vn 1.0000 0.0000 0.0000
vn 0.9239 -0.3827 0.0000
vn 1.0000 0.0000 0.0000
vn 0.0000 0.0000 1.0000
vn 0.0000 0.0000 1.0000
vn 0.0000 0.0000 1.0000
vn 0.0000 0.0000 1.0000
vn 0.0000 0.0000 1.0000
vn 0.0000 0.0000 1.0000
vn 0.0000 0.0000 1.0000
vn 0.0000 0.0000 1.0000
vn 0.0000 0.0000 1.0000
vn 0.0000 0.0000 1.0000
vn 0.0000 0.0000 1.0000
vn 0.0000 0.0000 1.0000
vn 0.0000 0.0000 1.0000
vn 0.0000 0.0000 -1.0000
vn 0.0000 0.0000 -1.0000
vn 0.0000 0.0000 -1.0000
vn -0.9239 0.3827 0.0000
vn -0.9239 0.3827 0.0000
vn 0.9239 0.3827 0.0000
vn 0.7071 0.7071 0.0000
vn 0.9239 0.3827 0.0000
vn -0.7071 0.7071 0.0000
vn -0.7071 0.7071 0.0000
vn -0.3827 0.9239 0.0000
vn -0.3827 0.9239 0.0000
vn 0.0000 1.0000 0.0000
vn 0.0000 1.0000 0.0000
vn 0.3827 0.9239 0.0000
vn 0.7071 0.7071 0.0000
vn 0.3827 0.9239 0.0000
vn 0.0000 0.0000 1.0000
vn 0.0000 0.0000 1.0000
vn 0.0000 0.0000 1.0000
vn -0.3827 -0.9239 0.0000
vn 0.0000 -1.0000 0.0000
vn -0.3827 -0.9239 0.0000
vn -0.7071 -0.7071 0.0000
vn -0.7071 -0.7071 0.0000
vn 0.3827 -0.9239 -0.0000
vn -0.0000 -1.0000 -0.0000
vn 0.7071 -0.7071 0.0000
vn 0.3827 -0.9239 0.0000
vn 0.9239 -0.3827 0.0000
vn 0.7071 -0.7071 0.0000
vn 0.0000 0.0000 -1.0000
vn 0.0000 0.0000 -1.0000
vn 0.0000 0.0000 -1.0000
vn 0.0000 0.0000 -1.0000
vn 0.0000 0.0000 -1.0000
vn 0.0000 0.0000 -1.0000
vn 0.0000 0.0000 -1.0000
vn 0.0000 0.0000 -1.0000
vn 0.0000 0.0000 -1.0000
vn 0.0000 0.0000 -1.0000
vn 0.0000 0.0000 -1.0000
vn 0.0000 0.0000 -1.0000
vn 0.0000 0.0000 -1.0000
vn -0.9239 -0.3827 -0.0000
vn -0.9239 -0.3827 0.0000
vn -1.0000 0.0000 0.0000
vn -1.0000 -0.0000 -0.0000
vn 1.0000 -0.0000 0.0000
vn 0.9239 -0.3827 0.0000
vn 1.0000 0.0000 -0.0000
vn 0.0000 0.0000 1.0000
vn 0.0000 0.0000 1.0000
vn 0.0000 0.0000 1.0000
vn 0.0000 0.0000 1.0000
vn 0.0000 0.0000 1.0000
vn 0.0000 0.0000 1.0000
vn 0.0000 0.0000 1.0000
vn 0.0000 0.0000 1.0000
vn 0.0000 0.0000 1.0000
vn 0.0000 0.0000 1.0000
vn 0.0000 0.0000 1.0000
vn 0.0000 0.0000 1.0000
vn 0.0000 0.0000 1.0000
vn 0.0000 0.0000 -1.0000
vn 0.0000 0.0000 -1.0000
vn 0.0000 0.0000 -1.0000
vn -0.9239 0.3827 0.0000
vn -0.9239 0.3827 0.0000
vn 0.9239 0.3827 -0.0000
vn 0.7071 0.7071 0.0000
vn 0.9239 0.3827 0.0000
vn -0.7071 0.7071 -0.0000
vn -0.7071 0.7071 0.0000
vn -0.3827 0.9239 -0.0000
vn -0.3827 0.9239 -0.0000
vn -0.0000 1.0000 0.0000
vn 0.0000 1.0000 -0.0000
vn 0.3827 0.9239 0.0000
vn 0.3827 0.9239 0.0000
vn 0.7071 0.7071 0.0000
vn 0.0000 0.0000 1.0000
vn 0.0000 0.0000 1.0000
vn 0.0000 0.0000 1.0000
vn -0.7071 -0.7071 0.0000
vn -0.3827 -0.9239 0.0000
vn -0.7071 -0.7071 0.0000
vn 0.0000 -1.0000 0.0000
vn -0.3827 -0.9239 0.0000
vn 0.3827 -0.9239 -0.0000
vn -0.0000 -1.0000 -0.0000
vn 0.7071 -0.7071 0.0000
vn 0.3827 -0.9239 0.0000
vn 0.9239 -0.3827 0.0000
vn 0.7071 -0.7071 0.0000
vn 0.0000 0.0000 -1.0000
vn 0.0000 0.0000 -1.0000
vn 0.0000 0.0000 -1.0000
vn 0.0000 0.0000 -1.0000
vn 0.0000 0.0000 -1.0000
vn 0.0000 0.0000 -1.0000
vn 0.0000 0.0000 -1.0000
vn 0.0000 0.0000 -1.0000
vn 0.0000 0.0000 -1.0000
vn 0.0000 0.0000 -1.0000
vn 0.0000 0.0000 -1.0000
vn 0.0000 0.0000 -1.0000
vn 0.0000 0.0000 -1.0000
vn -0.9239 -0.3827 -0.0000
vn -0.9239 -0.3827 0.0000
vn -1.0000 0.0000 0.0000
vn -1.0000 -0.0000 -0.0000
vn 1.0000 -0.0000 0.0000
vn 0.9239 -0.3827 0.0000
vn 1.0000 0.0000 -0.0000
vn 0.0000 0.0000 1.0000
vn 0.0000 0.0000 1.0000
vn 0.0000 0.0000 1.0000
vn 0.0000 0.0000 1.0000
vn 0.0000 0.0000 1.0000
vn 0.0000 0.0000 1.0000
vn 0.0000 0.0000 1.0000
vn 0.0000 0.0000 1.0000
vn 0.0000 0.0000 1.0000
vn 0.0000 0.0000 1.0000
vn 0.0000 0.0000 1.0000
vn 0.0000 0.0000 1.0000
vn 0.0000 0.0000 1.0000
vn 0.0000 0.0000 -1.0000
vn 0.0000 0.0000 -1.0000
vn 0.0000 0.0000 -1.0000
vn -0.9239 0.3827 0.0000
vn -0.9239 0.3827 0.0000
vn 0.9239 0.3827 -0.0000
vn 0.7071 0.7071 0.0000
vn 0.9239 0.3827 0.0000
vn -0.7071 0.7071 -0.0000
vn -0.7071 0.7071 0.0000
vn -0.3827 0.9239 -0.0000
vn -0.3827 0.9239 -0.0000
vn -0.0000 1.0000 0.0000
vn 0.0000 1.0000 -0.0000
vn 0.3827 0.9239 0.0000
vn 0.3827 0.9239 0.0000
vn 0.7071 0.7071 0.0000
vn 0.0000 0.0000 1.0000
vn 0.0000 0.0000 1.0000
vn 0.0000 0.0000 1.0000
f 1//1 2//2 3//3
f 2//2 4//4 5//5
f 4//4 6//6 7//7
f 6//6 8//8 9//9
f 8//8 10//10 11//11
f 12//12 13//13 14//14
f 15//15 12//12 16//16
f 17//17 15//15 18//18
f 13//13 19//19 20//20
f 21//21 17//17 22//22
f 23//23 21//21 24//24
f 25//25 1//1 26//26
f 27//27 25//25 28//28
f 10//10 29//29 30//30
f 2//2 5//5 3//3
f 4//4 7//7 5//5
f 6//6 9//9 7//7
f 1//1 3//3 26//26
f 8//8 11//11 9//9
f 25//25 26//26 28//28
f 10//10 30//30 11//11
f 29//29 31//31 30//30
f 32//32 33//33 34//34
f 35//35 36//36 32//32
f 37//37 38//38 35//35
f 34//34 39//39 40//40
f 41//41 42//42 37//37
f 43//43 44//44 41//41
f 19//19 45//45 20//20
f 13//13 20//20 14//14
f 12//12 14//14 16//16
f 15//15 16//16 18//18
f 17//17 18//18 22//22
f 23//23 24//24 46//46
f 47//47 23//23 46//46
f 21//21 22//22 24//24
f 48//48 27//27 49//49
f 29//29 50//50 31//31
f 50//50 51//51 52//52
f 53//53 48//48 54//54
f 55//55 53//53 56//56
f 57//57 55//55 58//58
f 59//59 57//57 60//60
f 51//51 59//59 61//61
f 27//27 28//28 49//49
f 48//48 49//49 54//54
f 50//50 52//52 31//31
f 40//40 39//39 62//62
f 34//34 33//33 39//39
f 32//32 36//36 33//33
f 35//35 38//38 36//36
f 37//37 42//42 38//38
f 43//43 63//63 44//44
f 64//64 63//63 43//43
f 41//41 44//44 42//42
f 53//53 54//54 56//56
f 55//55 56//56 58//58
f 57//57 58//58 60//60
f 51//51 61//61 52//52
f 59//59 60//60 61//61
f 65//65 66//66 67//67
f 66//66 68//68 69//69
f 68//68 70//70 71//71
f 70//70 72//72 73//73
f 72//72 74//74 75//75
f 76//76 77//77 78//78
f 79//79 76//76 80//80
f 77//77 81//81 82//82
f 83//83 79//79 84//84
f 85//85 83//83 86//86
f 87//87 85//85 88//88
f 89//89 65//65 90//90
f 91//91 89//89 92//92
f 74//74 93//93 94//94
f 68//68 71//71 69//69
f 66//66 69//69 67//67
f 65//65 67//67 90//90
f 70//70 73//73 71//71
f 72//72 75//75 73//73
f 89//89 90//90 92//92
f 74//74 94//94 75//75
f 93//93 95//95 94//94
f 96//96 97//97 98//98
f 99//99 100//100 96//96
f 98//98 101//101 102//102
f 103//103 104//104 99//99
f 105//105 106//106 103//103
f 107//107 108//108 105//105
f 81//81 109//109 82//82
f 77//77 82//82 78//78
f 76//76 78//78 80//80
f 79//79 80//80 84//84
f 110//110 87//87 111//111
f 87//87 88//88 111//111
f 83//83 84//84 86//86
f 85//85 86//86 88//88
f 112//112 91//91 113//113
f 93//93 114//114 95//95
f 114//114 115//115 116//116
f 117//117 112//112 118//118
f 119//119 117//117 120//120
f 121//121 119//119 122//122
f 115//115 123//123 124//124
f 123//123 121//121 125//125
f 91//91 92//92 113//113
f 112//112 113//113 118//118
f 114//114 116//116 95//95
f 102//102 101//101 126//126
f 98//98 97//97 101//101
f 96//96 100//100 97//97
f 99//99 104//104 100//100
f 127//127 128//128 107//107
f 107//107 128//128 108//108
f 103//103 106//106 104//104
f 105//105 108//108 106//106
f 117//117 118//118 120//120
f 119//119 120//120 122//122
f 115//115 124//124 116//116
f 123//123 125//125 124//124
f 121//121 122//122 125//125
f 129//129 130//130 131//131
f 132//132 129//129 133//133
f 130//130 134//134 135//135
f 134//134 136//136 137//137
f 136//136 138//138 139//139
f 140//140 141//141 142//142
f 143//143 140//140 144//144
f 141//141 145//145 146//146
f 147//147 143//143 148//148
f 149//149 147//147 150//150
f 151//151 149//149 152//152
f 153//153 132//132 154//154
f 155//155 153//153 156//156
f 138//138 157//157 158//158
f 130//130 135//135 131//131
f 129//129 131//131 133//133
f 132//132 133//133 154//154
f 134//134 137//137 135//135
f 136//136 139//139 137//137
f 153//153 154//154 156//156
f 138//138 158//158 139//139
f 157//157 159//159 158//158
f 160//160 161//161 162//162
f 163//163 164//164 160//160
f 162//162 165//165 166//166
f 167//167 168//168 163//163
f 169//169 170//170 167//167
f 171//171 172//172 169//169
f 145//145 173//173 146//146
f 141//141 146//146 142//142
f 140//140 142//142 144//144
f 143//143 144//144 148//148
f 174//174 151//151 175//175
f 151//151 152//152 175//175
f 147//147 148//148 150//150
f 149//149 150//150 152//152
f 176//176 155//155 177//177
f 157//157 178//178 159//159
f 178//178 179//179 180//180
f 181//181 176//176 182//182
f 183//183 181//181 184//184
f 185//185 183//183 186//186
f 187//187 185//185 188//188
f 179//179 187//187 189//189
f 155//155 156//156 177//177
f 176//176 177//177 182//182
f 178//178 180//180 159//159
f 166//166 165//165 190//190
f 162//162 161//161 165//165
f 160//160 164//164 161//161
f 163//163 168//168 164//164
f 191//191 192//192 171//171
f 171//171 192//192 172//172
f 167//167 170//170 168//168
f 169//169 172//172 170//170
f 181//181 182//182 184//184
f 183//183 184//184 186//186
f 179//179 189//189 180//180
f 187//187 188//188 189//189
f 185//185 186//186 188//188
f 193//193 194//194 195//195
f 194//194 196//196 197//197
f 196//196 198//198 199//199
f 198//198 200//200 201//201
f 200//200 202//202 203//203
f 204//204 205//205 206//206
f 205//205 207//207 208//208
f 209//209 204//204 210//210
f 211//211 209//209 212//212
f 213//213 211//211 214//214
f 215//215 213//213 216//216
f 217//217 193//193 218//218
f 219//219 217//217 220//220
f 202//202 221//221 222//222
f 194//194 197//197 195//195
f 193//193 195//195 218//218
f 196//196 199//199 197//197
f 198//198 201//201 199//199
f 200//200 203//203 201//201
f 217//217 218//218 220//220
f 202//202 222//222 203//203
f 221//221 223//223 222//222
f 224//224 225//225 226//226
f 226//226 227//227 228//228
f 229//229 230//230 224//224
f 231//231 232//232 229//229
f 233//233 234//234 231//231
f 235//235 236//236 233//233
f 207//207 237//237 208//208
f 205//205 208//208 206//206
f 204//204 206//206 210//210
f 238//238 215//215 239//239
f 215//215 216//216 239//239
f 209//209 210//210 212//212
f 211//211 212//212 214//214
f 213//213 214//214 216//216
f 240//240 219//219 241//241
f 221//221 242//242 223//223
f 242//242 243//243 244//244
f 245//245 240//240 246//246
f 247//247 245//245 248//248
f 249//249 247//247 250//250
f 251//251 249//249 252//252
f 243//243 251//251 253//253
f 219//219 220//220 241//241
f 240//240 241//241 246//246
f 242//242 244//244 223//223
f 228//228 227//227 254//254
f 226//226 225//225 227//227
f 224//224 230//230 225//225
f 255//255 256//256 235//235
f 235//235 256//256 236//236
f 229//229 232//232 230//230
f 231//231 234//234 232//232
f 233//233 236//236 234//234
f 245//245 246//246 248//248
f 243//243 253//253 244//244
f 247//247 248//248 250//250
f 249//249 250//250 252//252
f 251//251 252//252 253//253
