v -0.49214 -0.12900 -0.09714
v -0.47800 -0.12900 -0.10300
v -0.47800 -0.14314 -0.09714
v -0.49214 -0.14314 -0.08300
v -0.47800 -0.14900 -0.08300
v -0.49800 -0.12900 -0.08300
v -0.49214 -0.14314 0.10300
v -0.49800 -0.12900 0.10300
v -0.49214 0.12900 -0.09714
v 0.47800 -0.14314 -0.09714
v 0.47800 -0.14900 -0.08300
v -0.47800 0.12900 -0.10300
v 0.47800 -0.12900 -0.10300
v -0.47800 -0.14900 0.10300
v -0.47800 -0.14314 0.11714
v -0.49214 -0.12900 0.11714
v -0.47800 -0.12900 0.12300
v -0.49800 0.12900 0.10300
v -0.47800 0.12900 0.12300
v 0.47800 -0.14900 0.10300
v 0.47800 -0.12900 0.12300
v -0.49800 0.12900 -0.08300
v -0.47800 0.14314 -0.09714
v -0.49214 0.14314 -0.08300
v -0.47800 0.14900 -0.08300
v -0.49214 0.14314 0.10300
v -0.47800 0.14900 0.10300
v 0.47800 0.12900 -0.10300
v 0.47800 0.14900 -0.08300
v -0.49214 0.12900 0.11714
v -0.47800 0.14314 0.11714
v 0.47800 0.14314 0.11714
v 0.49214 -0.12900 -0.09714
v 0.49214 -0.14314 -0.08300
v 0.49800 -0.12900 -0.08300
v 0.49214 -0.14314 0.10300
v 0.49214 0.12900 -0.09714
v 0.49800 0.12900 -0.08300
v 0.49800 -0.12900 0.10300
v 0.47800 -0.14314 0.11714
v 0.49214 -0.12900 0.11714
v 0.49800 0.12900 0.10300
v 0.49214 0.12900 0.11714
v 0.47800 0.14314 -0.09714
v 0.49214 0.14314 -0.08300
v 0.49214 0.14314 0.10300
v 0.47800 0.12900 0.12300
v 0.47800 0.14900 0.10300
vn -0.6887 -0.2265 -0.6887
vn -0.1877 -0.1877 -0.9641
vn -0.2265 -0.6887 -0.6887
vn -0.6887 -0.6887 -0.2265
vn -0.1877 -0.9641 -0.1877
vn -0.9641 -0.1877 -0.1877
vn -0.6887 -0.6887 0.2265
vn -0.9641 -0.1877 0.1877
vn -0.6887 0.2265 -0.6887
vn 0.2265 -0.6887 -0.6887
vn 0.1877 -0.9641 -0.1877
vn -0.1877 0.1877 -0.9641
vn 0.1877 -0.1877 -0.9641
vn -0.1877 -0.9641 0.1877
vn -0.2265 -0.6887 0.6887
vn -0.6887 -0.2265 0.6887
vn -0.1877 -0.1877 0.9641
vn -0.9641 0.1877 0.1877
vn -0.1877 0.1877 0.9641
vn 0.1877 -0.9641 0.1877
vn 0.1877 -0.1877 0.9641
vn -0.9641 0.1877 -0.1877
vn -0.2265 0.6887 -0.6887
vn -0.6887 0.6887 -0.2265
vn -0.1877 0.9641 -0.1877
vn -0.6887 0.6887 0.2265
vn -0.1877 0.9641 0.1877
vn 0.1877 0.1877 -0.9641
vn 0.1877 0.9641 -0.1877
vn -0.6887 0.2265 0.6887
vn -0.2265 0.6887 0.6887
vn 0.2265 0.6887 0.6887
vn 0.6887 -0.2265 -0.6887
vn 0.6887 -0.6887 -0.2265
vn 0.9641 -0.1877 -0.1877
vn 0.6887 -0.6887 0.2265
vn 0.6887 0.2265 -0.6887
vn 0.9641 0.1877 -0.1877
vn 0.9641 -0.1877 0.1877
vn 0.2265 -0.6887 0.6887
vn 0.6887 -0.2265 0.6887
vn 0.9641 0.1877 0.1877
vn 0.6887 0.2265 0.6887
vn 0.2265 0.6887 -0.6887
vn 0.6887 0.6887 -0.2265
vn 0.6887 0.6887 0.2265
vn 0.1877 0.1877 0.9641
vn 0.1877 0.9641 0.1877
f 1//1 2//2 3//3
f 4//4 1//1 3//3
f 4//4 3//3 5//5
f 4//4 6//6 1//1
f 4//4 5//5 7//7
f 6//6 4//4 8//8
f 9//9 2//2 1//1
f 6//6 9//9 1//1
f 10//10 3//3 2//2
f 3//3 11//11 5//5
f 12//12 13//13 2//2
f 7//7 5//5 14//14
f 7//7 8//8 4//4
f 15//15 7//7 14//14
f 7//7 16//16 8//8
f 7//7 15//15 16//16
f 17//17 16//16 15//15
f 8//8 18//18 6//6
f 18//18 8//8 16//16
f 19//19 16//16 17//17
f 5//5 20//20 14//14
f 20//20 15//15 14//14
f 15//15 21//21 17//17
f 21//21 19//19 17//17
f 12//12 2//2 9//9
f 6//6 22//22 9//9
f 6//6 18//18 22//22
f 12//12 9//9 23//23
f 9//9 24//24 23//23
f 9//9 22//22 24//24
f 25//25 23//23 24//24
f 24//24 22//22 26//26
f 27//27 25//25 24//24
f 28//28 12//12 23//23
f 29//29 23//23 25//25
f 25//25 27//27 29//29
f 30//30 18//18 16//16
f 19//19 30//30 16//16
f 22//22 18//18 26//26
f 27//27 24//24 26//26
f 18//18 30//30 26//26
f 31//31 27//27 26//26
f 26//26 30//30 31//31
f 19//19 31//31 30//30
f 31//31 19//19 32//32
f 31//31 32//32 27//27
f 3//3 10//10 11//11
f 10//10 2//2 13//13
f 20//20 5//5 11//11
f 13//13 33//33 10//10
f 33//33 34//34 10//10
f 34//34 11//11 10//10
f 33//33 35//35 34//34
f 36//36 11//11 34//34
f 35//35 36//36 34//34
f 37//37 33//33 13//13
f 38//38 35//35 33//33
f 35//35 38//38 39//39
f 40//40 15//15 20//20
f 15//15 40//40 21//21
f 36//36 20//20 11//11
f 35//35 39//39 36//36
f 40//40 20//20 36//36
f 39//39 41//41 36//36
f 41//41 40//40 36//36
f 21//21 40//40 41//41
f 41//41 39//39 42//42
f 21//21 41//41 43//43
f 13//13 12//12 28//28
f 28//28 23//23 44//44
f 44//44 23//23 29//29
f 37//37 13//13 28//28
f 38//38 33//33 37//37
f 44//44 37//37 28//28
f 44//44 45//45 37//37
f 45//45 38//38 37//37
f 29//29 45//45 44//44
f 45//45 42//42 38//38
f 45//45 29//29 46//46
f 19//19 21//21 47//47
f 27//27 48//48 29//29
f 27//27 32//32 48//48
f 32//32 19//19 47//47
f 42//42 39//39 38//38
f 41//41 42//42 43//43
f 21//21 43//43 47//47
f 42//42 45//45 46//46
f 29//29 48//48 46//46
f 43//43 42//42 46//46
f 46//46 48//48 32//32
f 32//32 43//43 46//46
f 47//47 43//43 32//32
