v -0.12066 -0.17100 -0.12066
v -0.12066 -0.17666 -0.11500
v -0.12300 -0.17100 -0.11500
v -0.11500 -0.17666 -0.12066
v -0.11500 -0.17900 -0.11500
v -0.11500 -0.17100 -0.12300
v -0.12066 -0.08900 -0.12066
v -0.12300 -0.08900 -0.11500
v -0.11500 -0.08900 -0.12300
v -0.12066 -0.17666 0.11500
v -0.12300 -0.08900 0.11500
v -0.12066 -0.08334 -0.11500
v -0.11500 -0.08334 -0.12066
v -0.11500 -0.08100 -0.11500
v -0.11500 -0.08100 0.11500
v 0.11500 -0.17900 -0.11500
v 0.11500 -0.17100 -0.12300
v 0.11500 -0.08900 -0.12300
v 0.11500 -0.08100 -0.11500
v -0.12300 -0.17100 0.11500
v -0.11500 -0.17900 0.11500
v -0.12066 -0.17100 0.12066
v -0.11500 -0.17666 0.12066
v -0.11500 -0.17100 0.12300
v -0.12066 -0.08900 0.12066
v -0.11500 -0.08900 0.12300
v -0.12066 -0.08334 0.11500
v -0.11500 -0.08334 0.12066
v 0.11500 -0.17900 0.11500
v 0.11500 -0.17100 0.12300
v 0.11500 -0.08900 0.12300
v 0.11500 -0.08100 0.11500
v 0.11500 -0.17666 -0.12066
v 0.11500 -0.08334 -0.12066
v 0.12066 -0.17666 -0.11500
v 0.12066 -0.17100 -0.12066
v 0.12300 -0.17100 -0.11500
v 0.12066 -0.08900 -0.12066
v 0.12300 -0.08900 -0.11500
v 0.12066 -0.17666 0.11500
v 0.12300 -0.17100 0.11500
v 0.12066 -0.08334 -0.11500
v 0.12300 -0.08900 0.11500
v 0.11500 -0.17666 0.12066
v 0.11500 -0.08334 0.12066
v 0.12066 -0.17100 0.12066
v 0.12066 -0.08900 0.12066
v 0.12066 -0.08334 0.11500
v -0.01414 -0.08000 -0.01414
v 0.00000 -0.08000 -0.02000
v -0.01414 -0.08000 0.01414
v -0.01414 -0.08000 -0.01414
v -0.02000 -0.08000 0.00000
v -0.01462 0.06100 -0.01300
v -0.01414 -0.08000 -0.01414
v 0.00000 0.06390 -0.02000
v 0.00000 -0.08000 -0.02000
v -0.02000 -0.08000 0.00000
v 0.00000 -0.08000 0.02000
v -0.02000 -0.08000 0.00000
v -0.01414 -0.08000 0.01414
v -0.02000 0.06100 0.00000
v -0.01414 -0.08000 0.01414
v 0.00000 -0.08000 0.02000
v -0.01414 0.06147 0.01414
v -0.02000 0.06100 0.00000
v -0.01414 0.06147 -0.01414
v -0.01414 0.06147 -0.01414
v -0.01462 0.06100 0.01300
v -0.01414 0.06147 0.01414
v 0.00000 0.06390 0.02000
v 0.01414 -0.08000 -0.01414
v 0.00000 -0.08000 -0.02000
v 0.01414 0.06147 -0.01414
v 0.01414 -0.08000 -0.01414
v 0.01414 -0.08000 -0.01414
v 0.02000 0.06100 0.00000
v 0.02000 -0.08000 0.00000
v 0.01414 -0.08000 0.01414
v 0.02000 -0.08000 0.00000
v 0.01414 -0.08000 0.01414
v 0.00000 0.06390 0.02000
v 0.00000 -0.08000 0.02000
v 0.01414 -0.08000 0.01414
v 0.02000 -0.08000 0.00000
v 0.01462 0.06100 0.01300
v 0.00000 0.06390 -0.02000
v 0.01414 0.06147 -0.01414
v 0.01462 0.06100 -0.01300
v 0.01414 0.06147 0.01414
v 0.01414 0.06147 0.01414
v 0.02000 0.06100 0.00000
v -0.09361 0.07600 -0.02361
v -0.09361 0.06539 -0.01300
v -0.09800 0.07600 -0.01300
v -0.09361 0.06539 0.01300
v -0.08300 0.06539 -0.02361
v -0.08300 0.06100 -0.01300
v -0.08300 0.07600 -0.02800
v -0.09800 0.16400 -0.01300
v -0.09361 0.16400 -0.02361
v -0.09800 0.16400 0.01300
v -0.09361 0.17461 -0.01300
v -0.09361 0.17461 0.01300
v -0.08300 0.16400 -0.02800
v -0.08300 0.17461 -0.02361
v -0.08300 0.17900 -0.01300
v -0.01462 0.06100 -0.01300
v -0.01414 0.06147 -0.01414
v 0.00000 0.06390 -0.02000
v -0.02000 0.06100 0.00000
v 0.08300 0.07600 -0.02800
v 0.08300 0.16400 -0.02800
v 0.08300 0.17461 -0.02361
v -0.09800 0.07600 0.01300
v -0.09361 0.07600 0.02361
v -0.08300 0.06100 0.01300
v -0.08300 0.06539 0.02361
v -0.08300 0.07600 0.02800
v -0.09361 0.16400 0.02361
v -0.08300 0.16400 0.02800
v -0.08300 0.17900 0.01300
v -0.08300 0.17461 0.02361
v -0.01462 0.06100 0.01300
v -0.01414 0.06147 0.01414
v 0.00000 0.06390 0.02000
v 0.08300 0.06539 0.02361
v 0.08300 0.16400 0.02800
v 0.08300 0.17900 0.01300
v 0.08300 0.17461 0.02361
v 0.08300 0.06539 -0.02361
v 0.01414 0.06147 -0.01414
v 0.08300 0.06100 -0.01300
v 0.01462 0.06100 -0.01300
v 0.02000 0.06100 0.00000
v 0.08300 0.17900 -0.01300
v 0.09361 0.06539 -0.01300
v 0.09361 0.06539 0.01300
v 0.09361 0.07600 -0.02361
v 0.09800 0.07600 -0.01300
v 0.09800 0.07600 0.01300
v 0.09361 0.16400 -0.02361
v 0.09361 0.17461 -0.01300
v 0.09361 0.17461 0.01300
v 0.09800 0.16400 -0.01300
v 0.09800 0.16400 0.01300
v 0.08300 0.07600 0.02800
v 0.08300 0.06100 0.01300
v 0.01414 0.06147 0.01414
v 0.01462 0.06100 0.01300
v 0.09361 0.07600 0.02361
v 0.09361 0.16400 0.02361
vn -0.6887 -0.2265 -0.6887
vn -0.6887 -0.6887 -0.2265
vn -0.9641 -0.1877 -0.1877
vn -0.2265 -0.6887 -0.6887
vn -0.1877 -0.9641 -0.1877
vn -0.1877 -0.1877 -0.9641
vn -0.6887 0.2265 -0.6887
vn -0.9641 0.1877 -0.1877
vn -0.1877 0.1877 -0.9641
vn -0.6887 -0.6887 0.2265
vn -0.9641 0.1877 0.1877
vn -0.6887 0.6887 -0.2265
vn -0.2265 0.6887 -0.6887
vn -0.1877 0.9641 -0.1877
vn -0.1877 0.9641 0.1877
vn 0.1877 -0.9641 -0.1877
vn 0.1877 -0.1877 -0.9641
vn 0.1877 0.1877 -0.9641
vn 0.1877 0.9641 -0.1877
vn -0.9641 -0.1877 0.1877
vn -0.1877 -0.9641 0.1877
vn -0.6887 -0.2265 0.6887
vn -0.2265 -0.6887 0.6887
vn -0.1877 -0.1877 0.9641
vn -0.6887 0.2265 0.6887
vn -0.1877 0.1877 0.9641
vn -0.6887 0.6887 0.2265
vn -0.2265 0.6887 0.6887
vn 0.1877 -0.9641 0.1877
vn 0.1877 -0.1877 0.9641
vn 0.1877 0.1877 0.9641
vn 0.1877 0.9641 0.1877
vn 0.2265 -0.6887 -0.6887
vn 0.2265 0.6887 -0.6887
vn 0.6887 -0.6887 -0.2265
vn 0.6887 -0.2265 -0.6887
vn 0.9641 -0.1877 -0.1877
vn 0.6887 0.2265 -0.6887
vn 0.9641 0.1877 -0.1877
vn 0.6887 -0.6887 0.2265
vn 0.9641 -0.1877 0.1877
vn 0.6887 0.6887 -0.2265
vn 0.9641 0.1877 0.1877
vn 0.2265 -0.6887 0.6887
vn 0.2265 0.6887 0.6887
vn 0.6887 -0.2265 0.6887
vn 0.6887 0.2265 0.6887
vn 0.6887 0.6887 0.2265
vn 0.0000 -1.0000 0.0000
vn 0.0000 -1.0000 0.0000
vn 0.0000 -1.0000 0.0000
vn -0.9239 -0.0000 -0.3827
vn -0.9239 -0.0000 -0.3827
vn -0.9239 -0.0000 -0.3827
vn -0.3827 0.0000 -0.9239
vn -0.3827 0.0000 -0.9239
vn -0.3827 0.0000 -0.9239
vn 0.0000 -1.0000 0.0000
vn 0.0000 -1.0000 0.0000
vn -0.9239 0.0000 0.3827
vn -0.9239 0.0000 0.3827
vn -0.9239 0.0000 0.3827
vn -0.3827 0.0000 0.9239
vn -0.3827 0.0000 0.9239
vn -0.3827 0.0000 0.9239
vn -0.9239 0.0000 -0.3827
vn -0.3827 0.0000 -0.9239
vn -0.9239 0.0000 -0.3827
vn -0.9239 0.0000 0.3827
vn -0.9239 0.0000 0.3827
vn -0.3827 0.0000 0.9239
vn 0.0000 -1.0000 0.0000
vn 0.3827 0.0000 -0.9239
vn 0.3827 0.0000 -0.9239
vn 0.3827 0.0000 -0.9239
vn 0.9239 -0.0000 -0.3827
vn 0.9239 -0.0000 -0.3827
vn 0.9239 0.0000 -0.3827
vn 0.0000 -1.0000 0.0000
vn 0.0000 -1.0000 0.0000
vn 0.3827 0.0000 0.9239
vn 0.3827 0.0000 0.9239
vn 0.3827 0.0000 0.9239
vn 0.9239 -0.0000 0.3827
vn 0.9239 -0.0000 0.3827
vn 0.9239 -0.0000 0.3827
vn 0.3827 0.0000 -0.9239
vn 0.9239 0.0000 -0.3827
vn 0.9239 -0.0000 -0.3827
vn 0.9239 0.0000 0.3827
vn 0.3827 0.0000 0.9239
vn 0.9239 0.0000 0.3827
vn -0.6887 -0.2265 -0.6887
vn -0.6887 -0.6887 -0.2265
vn -0.9641 -0.1877 -0.1877
vn -0.6887 -0.6887 0.2265
vn -0.2265 -0.6887 -0.6887
vn -0.1877 -0.9641 -0.1877
vn -0.1877 -0.1877 -0.9641
vn -0.9641 0.1877 -0.1877
vn -0.6887 0.2265 -0.6887
vn -0.9641 0.1877 0.1877
vn -0.6887 0.6887 -0.2265
vn -0.6887 0.6887 0.2265
vn -0.1877 0.1877 -0.9641
vn -0.2265 0.6887 -0.6887
vn -0.1877 0.9641 -0.1877
vn 0.0000 -0.9702 -0.2423
vn -0.0000 -0.9239 -0.3827
vn -0.0000 -0.9239 -0.3827
vn 0.0000 -1.0000 0.0000
vn 0.1877 -0.1877 -0.9641
vn 0.1877 0.1877 -0.9641
vn 0.2265 0.6887 -0.6887
vn -0.9641 -0.1877 0.1877
vn -0.6887 -0.2265 0.6887
vn -0.1877 -0.9641 0.1877
vn -0.2265 -0.6887 0.6887
vn -0.1877 -0.1877 0.9641
vn -0.6887 0.2265 0.6887
vn -0.1877 0.1877 0.9641
vn -0.1877 0.9641 0.1877
vn -0.2265 0.6887 0.6887
vn 0.0000 -0.9702 0.2423
vn 0.0000 -0.9239 0.3827
vn -0.0000 -0.9239 0.3827
vn 0.2265 -0.6887 0.6887
vn 0.1877 0.1877 0.9641
vn 0.1877 0.9641 0.1877
vn 0.2265 0.6887 0.6887
vn 0.2265 -0.6887 -0.6887
vn 0.0000 -0.9239 -0.3827
vn 0.1877 -0.9641 -0.1877
vn 0.0000 -0.9702 -0.2423
vn 0.0000 -1.0000 0.0000
vn 0.1877 0.9641 -0.1877
vn 0.6887 -0.6887 -0.2265
vn 0.6887 -0.6887 0.2265
vn 0.6887 -0.2265 -0.6887
vn 0.9641 -0.1877 -0.1877
vn 0.9641 -0.1877 0.1877
vn 0.6887 0.2265 -0.6887
vn 0.6887 0.6887 -0.2265
vn 0.6887 0.6887 0.2265
vn 0.9641 0.1877 -0.1877
vn 0.9641 0.1877 0.1877
vn 0.1877 -0.1877 0.9641
vn 0.1877 -0.9641 0.1877
vn -0.0000 -0.9239 0.3827
vn 0.0000 -0.9702 0.2423
vn 0.6887 -0.2265 0.6887
vn 0.6887 0.2265 0.6887
f 1//1 2//2 3//3
f 1//1 4//4 2//2
f 2//2 4//4 5//5
f 1//1 6//6 4//4
f 1//1 3//3 7//7
f 1//1 7//7 6//6
f 3//3 8//8 7//7
f 6//6 7//7 9//9
f 2//2 10//10 3//3
f 2//2 5//5 10//10
f 3//3 11//11 8//8
f 7//7 8//8 12//12
f 7//7 13//13 9//9
f 7//7 12//12 13//13
f 12//12 14//14 13//13
f 8//8 11//11 12//12
f 12//12 15//15 14//14
f 4//4 16//16 5//5
f 4//4 6//6 17//17
f 6//6 9//9 18//18
f 9//9 13//13 18//18
f 13//13 14//14 19//19
f 14//14 15//15 19//19
f 3//3 10//10 20//20
f 5//5 21//21 10//10
f 3//3 20//20 11//11
f 10//10 22//22 20//20
f 10//10 23//23 22//22
f 10//10 21//21 23//23
f 22//22 23//23 24//24
f 20//20 22//22 25//25
f 22//22 24//24 25//25
f 20//20 25//25 11//11
f 24//24 26//26 25//25
f 12//12 11//11 27//27
f 12//12 27//27 15//15
f 11//11 25//25 27//27
f 27//27 25//25 28//28
f 25//25 26//26 28//28
f 27//27 28//28 15//15
f 5//5 29//29 21//21
f 21//21 29//29 23//23
f 23//23 30//30 24//24
f 24//24 30//30 26//26
f 26//26 31//31 28//28
f 28//28 32//32 15//15
f 4//4 17//17 33//33
f 4//4 33//33 16//16
f 6//6 18//18 17//17
f 5//5 16//16 29//29
f 13//13 34//34 18//18
f 13//13 19//19 34//34
f 33//33 35//35 16//16
f 33//33 36//36 35//35
f 33//33 17//17 36//36
f 36//36 37//37 35//35
f 17//17 38//38 36//36
f 36//36 38//38 37//37
f 17//17 18//18 38//38
f 37//37 38//38 39//39
f 16//16 35//35 40//40
f 35//35 37//37 40//40
f 37//37 39//39 41//41
f 18//18 34//34 38//38
f 34//34 42//42 38//38
f 34//34 19//19 42//42
f 38//38 42//42 39//39
f 19//19 32//32 42//42
f 39//39 42//42 43//43
f 23//23 29//29 44//44
f 23//23 44//44 30//30
f 26//26 30//30 31//31
f 15//15 32//32 19//19
f 28//28 31//31 45//45
f 28//28 45//45 32//32
f 16//16 40//40 29//29
f 37//37 41//41 40//40
f 39//39 43//43 41//41
f 29//29 40//40 44//44
f 44//44 40//40 46//46
f 44//44 46//46 30//30
f 40//40 41//41 46//46
f 30//30 46//46 31//31
f 41//41 43//43 46//46
f 46//46 47//47 31//31
f 46//46 43//43 47//47
f 42//42 32//32 48//48
f 42//42 48//48 43//43
f 45//45 47//47 48//48
f 31//31 47//47 45//45
f 45//45 48//48 32//32
f 43//43 48//48 47//47
f 49//49 50//50 51//51
f 52//52 53//53 54//54
f 55//55 56//56 57//57
f 49//49 51//51 58//58
f 51//51 50//50 59//59
f 60//60 61//61 62//62
f 63//63 64//64 65//65
f 53//53 66//66 54//54
f 55//55 67//67 56//56
f 52//52 54//54 68//68
f 61//61 69//69 62//62
f 61//61 70//70 69//69
f 64//64 71//71 65//65
f 50//50 72//72 59//59
f 73//73 74//74 75//75
f 76//76 77//77 78//78
f 72//72 79//79 59//59
f 72//72 80//80 79//79
f 81//81 82//82 83//83
f 84//84 85//85 86//86
f 73//73 87//87 74//74
f 76//76 88//88 89//89
f 76//76 89//89 77//77
f 84//84 86//86 90//90
f 81//81 91//91 82//82
f 85//85 92//92 86//86
f 93//93 94//94 95//95
f 94//94 96//96 95//95
f 97//97 98//98 94//94
f 94//94 98//98 96//96
f 97//97 93//93 99//99
f 97//97 94//94 93//93
f 93//93 95//95 100//100
f 93//93 100//100 101//101
f 95//95 102//102 100//100
f 101//101 100//100 103//103
f 100//100 104//104 103//103
f 93//93 105//105 99//99
f 93//93 101//101 105//105
f 101//101 106//106 105//105
f 101//101 103//103 106//106
f 106//106 103//103 107//107
f 103//103 104//104 107//107
f 97//97 108//108 98//98
f 97//97 109//109 108//108
f 97//97 110//110 109//109
f 98//98 108//108 111//111
f 97//97 99//99 112//112
f 99//99 105//105 112//112
f 105//105 106//106 113//113
f 106//106 107//107 114//114
f 95//95 96//96 115//115
f 96//96 116//116 115//115
f 98//98 117//117 96//96
f 96//96 117//117 118//118
f 96//96 118//118 116//116
f 118//118 119//119 116//116
f 98//98 111//111 117//117
f 95//95 115//115 102//102
f 115//115 116//116 102//102
f 116//116 120//120 102//102
f 100//100 102//102 104//104
f 102//102 120//120 104//104
f 116//116 119//119 121//121
f 116//116 121//121 120//120
f 107//107 104//104 122//122
f 120//120 121//121 123//123
f 104//104 120//120 123//123
f 104//104 123//123 122//122
f 117//117 124//124 118//118
f 117//117 111//111 124//124
f 118//118 124//124 125//125
f 118//118 125//125 126//126
f 118//118 127//127 119//119
f 119//119 128//128 121//121
f 107//107 122//122 129//129
f 121//121 128//128 123//123
f 122//122 123//123 130//130
f 97//97 131//131 110//110
f 97//97 112//112 131//131
f 131//131 132//132 110//110
f 133//133 134//134 132//132
f 133//133 135//135 134//134
f 131//131 133//133 132//132
f 105//105 113//113 112//112
f 106//106 114//114 113//113
f 107//107 136//136 114//114
f 107//107 129//129 136//136
f 131//131 137//137 133//133
f 133//133 137//137 138//138
f 131//131 112//112 139//139
f 131//131 139//139 137//137
f 139//139 140//140 137//137
f 137//137 140//140 141//141
f 112//112 142//142 139//139
f 112//112 113//113 142//142
f 113//113 114//114 142//142
f 114//114 136//136 143//143
f 142//142 114//114 143//143
f 136//136 144//144 143//143
f 139//139 142//142 140//140
f 140//140 142//142 145//145
f 140//140 145//145 146//146
f 142//142 143//143 145//145
f 145//145 143//143 146//146
f 118//118 126//126 127//127
f 119//119 127//127 147//147
f 148//148 149//149 150//150
f 148//148 150//150 135//135
f 148//148 126//126 149//149
f 148//148 127//127 126//126
f 119//119 147//147 128//128
f 122//122 130//130 129//129
f 123//123 128//128 130//130
f 133//133 148//148 135//135
f 133//133 138//138 148//148
f 148//148 138//138 127//127
f 138//138 151//151 127//127
f 127//127 151//151 147//147
f 137//137 141//141 138//138
f 138//138 141//141 151//151
f 147//147 151//151 128//128
f 151//151 152//152 128//128
f 136//136 129//129 144//144
f 128//128 152//152 130//130
f 129//129 130//130 144//144
f 144//144 130//130 152//152
f 140//140 146//146 141//141
f 141//141 146//146 151//151
f 151//151 146//146 152//152
f 143//143 144//144 146//146
f 146//146 144//144 152//152
