v -0.17321 0.12000 -0.16000
v -0.17321 0.12000 -0.13000
v -0.14142 0.16142 -0.13000
v -0.14142 0.16142 -0.16000
v -0.10000 0.19321 -0.13000
v -0.17321 -0.08000 -0.13000
v -0.17321 0.12000 -0.13000
v -0.19319 0.07176 -0.13000
v -0.14142 -0.12142 -0.13000
v -0.14142 0.16142 -0.13000
v -0.10000 -0.15321 -0.13000
v -0.10000 0.19321 -0.13000
v -0.19319 0.07176 -0.16000
v -0.19319 0.07176 -0.13000
v -0.20000 0.02000 -0.16000
v -0.20000 0.02000 -0.13000
v -0.10000 0.19321 -0.16000
v -0.05176 0.21319 -0.13000
v -0.05176 0.21319 -0.16000
v 0.00000 0.22000 -0.13000
v -0.05176 -0.17319 -0.13000
v -0.05176 0.21319 -0.13000
v 0.00000 -0.18000 -0.13000
v 0.00000 0.22000 -0.13000
v -0.17321 -0.08000 -0.16000
v -0.19319 0.07176 -0.16000
v -0.17321 0.12000 -0.16000
v -0.14142 -0.12142 -0.16000
v -0.14142 0.16142 -0.16000
v -0.10000 -0.15321 -0.16000
v -0.10000 0.19321 -0.16000
v 0.00000 0.22000 -0.16000
v -0.05176 -0.17319 -0.16000
v -0.05176 0.21319 -0.16000
v 0.00000 -0.18000 -0.16000
v 0.00000 0.22000 -0.16000
v -0.19319 -0.03176 -0.13000
v -0.20000 0.02000 -0.13000
v -0.19319 -0.03176 -0.16000
v -0.19319 -0.03176 -0.13000
v -0.17321 -0.08000 -0.16000
v -0.17321 -0.08000 -0.13000
v -0.14142 -0.12142 -0.16000
v -0.14142 -0.12142 -0.13000
v -0.10000 -0.15321 -0.16000
v -0.10000 -0.15321 -0.13000
v -0.05176 -0.17319 -0.16000
v -0.05176 -0.17319 -0.13000
v 0.00000 -0.18000 -0.16000
v 0.00000 -0.18000 -0.13000
v -0.19319 -0.03176 -0.16000
v -0.20000 0.02000 -0.16000
v 0.05176 0.21319 -0.13000
v 0.05176 0.21319 -0.16000
v 0.10000 0.19321 -0.13000
v 0.05176 -0.17319 -0.13000
v 0.05176 0.21319 -0.13000
v 0.10000 -0.15321 -0.13000
v 0.10000 0.19321 -0.13000
v 0.10000 0.19321 -0.16000
v 0.14142 0.16142 -0.13000
v 0.14142 0.16142 -0.16000
v 0.17321 0.12000 -0.13000
v 0.14142 -0.12142 -0.13000
v 0.14142 0.16142 -0.13000
v 0.17321 -0.08000 -0.13000
v 0.17321 0.12000 -0.13000
v 0.19319 -0.03176 -0.13000
v 0.19319 0.07176 -0.13000
v 0.17321 0.12000 -0.16000
v 0.19319 0.07176 -0.13000
v 0.19319 0.07176 -0.16000
v 0.20000 0.02000 -0.13000
v 0.05176 -0.17319 -0.16000
v 0.05176 0.21319 -0.16000
v 0.10000 -0.15321 -0.16000
v 0.10000 0.19321 -0.16000
v 0.20000 0.02000 -0.16000
v 0.14142 -0.12142 -0.16000
v 0.14142 0.16142 -0.16000
v 0.17321 -0.08000 -0.16000
v 0.17321 0.12000 -0.16000
v 0.19319 -0.03176 -0.16000
v 0.19319 0.07176 -0.16000
v 0.05176 -0.17319 -0.16000
v 0.05176 -0.17319 -0.13000
v 0.10000 -0.15321 -0.16000
v 0.10000 -0.15321 -0.13000
v 0.20000 0.02000 -0.13000
v 0.19319 -0.03176 -0.13000
v 0.19319 -0.03176 -0.16000
v 0.17321 -0.08000 -0.13000
v 0.14142 -0.12142 -0.16000
v 0.14142 -0.12142 -0.13000
v 0.17321 -0.08000 -0.16000
v 0.20000 0.02000 -0.16000
vn -0.8660 0.5000 0.0000
vn -0.8660 0.5000 0.0000
vn -0.7071 0.7071 0.0000
vn -0.7071 0.7071 -0.0000
vn -0.5000 0.8660 -0.0000
vn 0.0000 0.0000 1.0000
vn 0.0000 0.0000 1.0000
vn 0.0000 0.0000 1.0000
vn 0.0000 0.0000 1.0000
vn 0.0000 0.0000 1.0000
vn 0.0000 0.0000 1.0000
vn 0.0000 0.0000 1.0000
vn -0.9659 0.2588 0.0000
vn -0.9659 0.2588 0.0000
vn -1.0000 -0.0000 0.0000
vn -1.0000 0.0000 0.0000
vn -0.5000 0.8660 0.0000
vn -0.2588 0.9659 0.0000
vn -0.2588 0.9659 0.0000
vn 0.0000 1.0000 0.0000
vn 0.0000 0.0000 1.0000
vn 0.0000 0.0000 1.0000
vn 0.0000 0.0000 1.0000
vn 0.0000 0.0000 1.0000
vn 0.0000 0.0000 -1.0000
vn 0.0000 0.0000 -1.0000
vn 0.0000 0.0000 -1.0000
vn 0.0000 0.0000 -1.0000
vn 0.0000 0.0000 -1.0000
vn 0.0000 0.0000 -1.0000
vn 0.0000 0.0000 -1.0000
vn -0.0000 1.0000 0.0000
vn 0.0000 0.0000 -1.0000
vn 0.0000 0.0000 -1.0000
vn 0.0000 0.0000 -1.0000
vn 0.0000 0.0000 -1.0000
vn 0.0000 0.0000 1.0000
vn 0.0000 0.0000 1.0000
vn -0.9659 -0.2588 0.0000
vn -0.9659 -0.2588 0.0000
vn -0.8660 -0.5000 0.0000
vn -0.8660 -0.5000 -0.0000
vn -0.7071 -0.7071 -0.0000
vn -0.7071 -0.7071 0.0000
vn -0.5000 -0.8660 0.0000
vn -0.5000 -0.8660 0.0000
vn -0.2588 -0.9659 0.0000
vn -0.2588 -0.9659 0.0000
vn 0.0000 -1.0000 0.0000
vn -0.0000 -1.0000 0.0000
vn 0.0000 0.0000 -1.0000
vn 0.0000 0.0000 -1.0000
vn 0.2588 0.9659 0.0000
vn 0.2588 0.9659 0.0000
vn 0.5000 0.8660 0.0000
vn 0.0000 0.0000 1.0000
vn 0.0000 0.0000 1.0000
vn 0.0000 0.0000 1.0000
vn 0.0000 0.0000 1.0000
vn 0.5000 0.8660 0.0000
vn 0.7071 0.7071 0.0000
vn 0.7071 0.7071 -0.0000
vn 0.8660 0.5000 -0.0000
vn 0.0000 0.0000 1.0000
vn 0.0000 0.0000 1.0000
vn 0.0000 0.0000 1.0000
vn 0.0000 0.0000 1.0000
vn 0.0000 0.0000 1.0000
vn 0.0000 0.0000 1.0000
vn 0.8660 0.5000 0.0000
vn 0.9659 0.2588 0.0000
vn 0.9659 0.2588 0.0000
vn 1.0000 -0.0000 0.0000
vn 0.0000 0.0000 -1.0000
vn 0.0000 0.0000 -1.0000
vn 0.0000 0.0000 -1.0000
vn 0.0000 0.0000 -1.0000
vn 1.0000 0.0000 0.0000
vn 0.0000 0.0000 -1.0000
vn 0.0000 0.0000 -1.0000
vn 0.0000 0.0000 -1.0000
vn 0.0000 0.0000 -1.0000
vn 0.0000 0.0000 -1.0000
vn 0.0000 0.0000 -1.0000
vn 0.2588 -0.9659 0.0000
vn 0.2588 -0.9659 0.0000
vn 0.5000 -0.8660 0.0000
vn 0.5000 -0.8660 -0.0000
vn 0.0000 0.0000 1.0000
vn 0.9659 -0.2588 0.0000
vn 0.9659 -0.2588 0.0000
vn 0.8660 -0.5000 0.0000
vn 0.7071 -0.7071 -0.0000
vn 0.7071 -0.7071 0.0000
vn 0.8660 -0.5000 0.0000
vn 0.0000 0.0000 -1.0000
f 1//1 2//2 3//3
f 4//4 3//3 5//5
f 6//6 7//7 8//8
f 9//9 10//10 7//7
f 11//11 12//12 10//10
f 13//13 14//14 2//2
f 15//15 16//16 14//14
f 17//17 5//5 18//18
f 19//19 18//18 20//20
f 21//21 22//22 12//12
f 23//23 24//24 22//22
f 4//4 1//1 3//3
f 17//17 4//4 5//5
f 1//1 13//13 2//2
f 13//13 15//15 14//14
f 25//25 26//26 27//27
f 28//28 27//27 29//29
f 30//30 29//29 31//31
f 19//19 17//17 18//18
f 32//32 19//19 20//20
f 33//33 31//31 34//34
f 35//35 34//34 36//36
f 37//37 8//8 38//38
f 6//6 8//8 37//37
f 9//9 7//7 6//6
f 11//11 10//10 9//9
f 39//39 40//40 16//16
f 41//41 42//42 40//40
f 43//43 44//44 42//42
f 45//45 46//46 44//44
f 21//21 12//12 11//11
f 23//23 22//22 21//21
f 47//47 48//48 46//46
f 49//49 50//50 48//48
f 15//15 39//39 16//16
f 39//39 41//41 40//40
f 51//51 52//52 26//26
f 25//25 51//51 26//26
f 28//28 25//25 27//27
f 30//30 28//28 29//29
f 41//41 43//43 42//42
f 43//43 45//45 44//44
f 33//33 30//30 31//31
f 35//35 33//33 34//34
f 45//45 47//47 46//46
f 47//47 49//49 48//48
f 32//32 20//20 53//53
f 54//54 53//53 55//55
f 56//56 57//57 24//24
f 58//58 59//59 57//57
f 60//60 55//55 61//61
f 62//62 61//61 63//63
f 64//64 65//65 59//59
f 66//66 67//67 65//65
f 68//68 69//69 67//67
f 70//70 63//63 71//71
f 72//72 71//71 73//73
f 54//54 32//32 53//53
f 60//60 54//54 55//55
f 74//74 36//36 75//75
f 76//76 75//75 77//77
f 62//62 60//60 61//61
f 70//70 62//62 63//63
f 72//72 70//70 71//71
f 78//78 72//72 73//73
f 79//79 77//77 80//80
f 81//81 80//80 82//82
f 83//83 82//82 84//84
f 56//56 24//24 23//23
f 58//58 57//57 56//56
f 85//85 86//86 50//50
f 87//87 88//88 86//86
f 64//64 59//59 58//58
f 66//66 65//65 64//64
f 68//68 67//67 66//66
f 89//89 69//69 68//68
f 78//78 73//73 90//90
f 91//91 90//90 92//92
f 93//93 94//94 88//88
f 95//95 92//92 94//94
f 74//74 35//35 36//36
f 76//76 74//74 75//75
f 49//49 85//85 50//50
f 85//85 87//87 86//86
f 91//91 78//78 90//90
f 95//95 91//91 92//92
f 79//79 76//76 77//77
f 81//81 79//79 80//80
f 83//83 81//81 82//82
f 96//96 83//83 84//84
f 87//87 93//93 88//88
f 93//93 95//95 94//94
