v -0.24507 -0.24607 -0.13800
v -0.24507 -0.23900 -0.14507
v -0.23800 -0.24607 -0.14507
v -0.23800 -0.24900 -0.13800
v -0.23800 -0.23900 -0.14800
v -0.24800 -0.23900 -0.13800
v -0.24507 -0.18100 -0.14507
v -0.23800 -0.18100 -0.14800
v -0.24800 -0.18100 -0.13800
v -0.23800 -0.17393 -0.14507
v -0.24507 -0.17393 -0.13800
v -0.23800 -0.17100 -0.13800
v -0.10885 -0.17100 0.07000
v -0.10885 -0.17100 -0.13000
v -0.24507 -0.24607 0.23800
v -0.24800 -0.18100 0.23800
v -0.24507 -0.17393 0.23800
v -0.23800 -0.17100 0.23800
v 0.23800 -0.24900 -0.13800
v 0.23800 -0.23900 -0.14800
v 0.23800 -0.18100 -0.14800
v 0.23800 -0.17100 -0.13800
v -0.23800 -0.24900 0.23800
v -0.24800 -0.23900 0.23800
v -0.23800 -0.24607 0.24507
v -0.24507 -0.23900 0.24507
v -0.23800 -0.23900 0.24800
v -0.24507 -0.18100 0.24507
v -0.23800 -0.18100 0.24800
v -0.23800 -0.17393 0.24507
v 0.23800 -0.24900 0.23800
v 0.23800 -0.23900 0.24800
v 0.23800 -0.18100 0.24800
v 0.23800 -0.17100 0.23800
v 0.23800 -0.24607 -0.14507
v 0.23800 -0.17393 -0.14507
v 0.10885 -0.17100 -0.13000
v 0.10885 -0.17100 0.07000
v 0.24507 -0.23900 -0.14507
v 0.24507 -0.24607 -0.13800
v 0.24800 -0.23900 -0.13800
v 0.24507 -0.18100 -0.14507
v 0.24800 -0.18100 -0.13800
v 0.24507 -0.17393 -0.13800
v 0.24507 -0.24607 0.23800
v 0.24800 -0.23900 0.23800
v 0.24800 -0.18100 0.23800
v 0.23800 -0.24607 0.24507
v 0.23800 -0.17393 0.24507
v 0.24507 -0.17393 0.23800
v 0.24507 -0.23900 0.24507
v 0.24507 -0.18100 0.24507
v -0.15556 -0.13556 0.07000
v -0.15556 -0.13556 -0.13000
v -0.11000 -0.17053 -0.13000
v -0.11000 -0.17053 0.07000
v -0.21250 0.07694 -0.13000
v -0.19053 -0.09000 -0.13000
v -0.21250 -0.03694 -0.13000
v -0.21250 -0.03694 0.07000
v -0.21250 -0.03694 -0.13000
v -0.19053 -0.09000 -0.13000
v -0.19053 -0.09000 0.07000
v -0.19053 0.13000 -0.13000
v -0.15556 -0.13556 -0.13000
v -0.15556 0.17556 -0.13000
v -0.11000 -0.17053 -0.13000
v -0.22000 0.02000 0.07000
v -0.10885 -0.17100 -0.13000
v 0.10885 -0.17100 -0.13000
v -0.10885 -0.17100 -0.13000
v -0.10885 -0.17100 0.07000
v -0.11000 0.21053 -0.13000
v -0.21250 0.07694 0.07000
v -0.21250 -0.03694 0.07000
v -0.19053 -0.09000 0.07000
v -0.19053 0.13000 0.07000
v -0.15556 -0.13556 0.07000
v -0.15556 0.17556 0.07000
v -0.11000 -0.17053 0.07000
v -0.11000 0.21053 0.07000
v -0.10885 -0.17100 0.07000
v -0.22000 0.02000 -0.13000
v -0.22000 0.02000 -0.13000
v -0.21250 0.07694 0.07000
v -0.21250 0.07694 -0.13000
v -0.19053 0.13000 0.07000
v -0.19053 0.13000 -0.13000
v -0.15556 0.17556 0.07000
v -0.15556 0.17556 -0.13000
v -0.11000 0.21053 0.07000
v -0.11000 0.21053 -0.13000
v -0.05694 0.23250 -0.13000
v -0.05694 0.23250 0.07000
v -0.05694 0.23250 -0.13000
v 0.00000 0.24000 0.07000
v 0.00000 0.24000 -0.13000
v -0.22000 0.02000 0.07000
v -0.05694 0.23250 0.07000
v 0.00000 0.24000 0.07000
v 0.05694 0.23250 0.07000
v 0.11000 -0.17053 -0.13000
v 0.10885 -0.17100 0.07000
v 0.10885 -0.17100 -0.13000
v 0.11000 -0.17053 0.07000
v 0.05694 0.23250 -0.13000
v 0.11000 -0.17053 -0.13000
v 0.15556 -0.13556 -0.13000
v 0.15556 -0.13556 0.07000
v 0.19053 -0.09000 -0.13000
v 0.11000 0.21053 -0.13000
v 0.15556 -0.13556 -0.13000
v 0.15556 0.17556 -0.13000
v 0.19053 -0.09000 -0.13000
v 0.19053 -0.09000 0.07000
v 0.21250 -0.03694 -0.13000
v 0.21250 -0.03694 0.07000
v 0.22000 0.02000 -0.13000
v 0.11000 -0.17053 0.07000
v 0.10885 -0.17100 0.07000
v 0.11000 0.21053 0.07000
v 0.15556 -0.13556 0.07000
v 0.15556 0.17556 0.07000
v 0.19053 -0.09000 0.07000
v 0.00000 0.24000 -0.13000
v 0.05694 0.23250 0.07000
v 0.05694 0.23250 -0.13000
v 0.11000 0.21053 0.07000
v 0.11000 0.21053 -0.13000
v 0.19053 0.13000 -0.13000
v 0.21250 -0.03694 -0.13000
v 0.21250 0.07694 -0.13000
v 0.22000 0.02000 -0.13000
v 0.21250 0.07694 -0.13000
v 0.22000 0.02000 0.07000
v 0.21250 0.07694 0.07000
v 0.19053 0.13000 -0.13000
v 0.19053 0.13000 0.07000
v 0.15556 0.17556 -0.13000
v 0.15556 0.17556 0.07000
v 0.19053 0.13000 0.07000
v 0.21250 -0.03694 0.07000
v 0.21250 0.07694 0.07000
v 0.22000 0.02000 0.07000
vn -0.6887 -0.6887 -0.2265
vn -0.6887 -0.2265 -0.6887
vn -0.2265 -0.6887 -0.6887
vn -0.1877 -0.9641 -0.1877
vn -0.1877 -0.1877 -0.9641
vn -0.9641 -0.1877 -0.1877
vn -0.6887 0.2265 -0.6887
vn -0.1877 0.1877 -0.9641
vn -0.9641 0.1877 -0.1877
vn -0.2265 0.6887 -0.6887
vn -0.6887 0.6887 -0.2265
vn -0.1877 0.9641 -0.1877
vn 0.0000 1.0000 0.0000
vn 0.0000 1.0000 0.0000
vn -0.6887 -0.6887 0.2265
vn -0.9641 0.1877 0.1877
vn -0.6887 0.6887 0.2265
vn -0.1877 0.9641 0.1877
vn 0.1877 -0.9641 -0.1877
vn 0.1877 -0.1877 -0.9641
vn 0.1877 0.1877 -0.9641
vn 0.1877 0.9641 -0.1877
vn -0.1877 -0.9641 0.1877
vn -0.9641 -0.1877 0.1877
vn -0.2265 -0.6887 0.6887
vn -0.6887 -0.2265 0.6887
vn -0.1877 -0.1877 0.9641
vn -0.6887 0.2265 0.6887
vn -0.1877 0.1877 0.9641
vn -0.2265 0.6887 0.6887
vn 0.1877 -0.9641 0.1877
vn 0.1877 -0.1877 0.9641
vn 0.1877 0.1877 0.9641
vn 0.1877 0.9641 0.1877
vn 0.2265 -0.6887 -0.6887
vn 0.2265 0.6887 -0.6887
vn 0.0000 1.0000 0.0000
vn 0.0000 1.0000 0.0000
vn 0.6887 -0.2265 -0.6887
vn 0.6887 -0.6887 -0.2265
vn 0.9641 -0.1877 -0.1877
vn 0.6887 0.2265 -0.6887
vn 0.9641 0.1877 -0.1877
vn 0.6887 0.6887 -0.2265
vn 0.6887 -0.6887 0.2265
vn 0.9641 -0.1877 0.1877
vn 0.9641 0.1877 0.1877
vn 0.2265 -0.6887 0.6887
vn 0.2265 0.6887 0.6887
vn 0.6887 0.6887 0.2265
vn 0.6887 -0.2265 0.6887
vn 0.6887 0.2265 0.6887
vn -0.7071 -0.7071 0.0000
vn -0.7071 -0.7071 0.0000
vn -0.5000 -0.8660 0.0000
vn -0.5000 -0.8660 0.0000
vn 0.0000 0.0000 -1.0000
vn 0.0000 0.0000 -1.0000
vn 0.0000 0.0000 -1.0000
vn -0.9659 -0.2588 0.0000
vn -0.9659 -0.2588 0.0000
vn -0.8660 -0.5000 0.0000
vn -0.8660 -0.5000 0.0000
vn 0.0000 0.0000 -1.0000
vn 0.0000 0.0000 -1.0000
vn 0.0000 0.0000 -1.0000
vn 0.0000 0.0000 -1.0000
vn -1.0000 0.0000 0.0000
vn -0.3827 -0.9239 0.0000
vn 0.0000 0.0000 -1.0000
vn 0.0000 0.0000 -1.0000
vn -0.3827 -0.9239 0.0000
vn 0.0000 0.0000 -1.0000
vn 0.0000 0.0000 1.0000
vn 0.0000 0.0000 1.0000
vn 0.0000 0.0000 1.0000
vn 0.0000 0.0000 1.0000
vn 0.0000 0.0000 1.0000
vn 0.0000 0.0000 1.0000
vn 0.0000 0.0000 1.0000
vn 0.0000 0.0000 1.0000
vn 0.0000 0.0000 1.0000
vn 0.0000 0.0000 -1.0000
vn -1.0000 0.0000 -0.0000
vn -0.9659 0.2588 -0.0000
vn -0.9659 0.2588 -0.0000
vn -0.8660 0.5000 -0.0000
vn -0.8660 0.5000 -0.0000
vn -0.7071 0.7071 -0.0000
vn -0.7071 0.7071 0.0000
vn -0.5000 0.8660 0.0000
vn -0.5000 0.8660 -0.0000
vn 0.0000 0.0000 -1.0000
vn -0.2588 0.9659 -0.0000
vn -0.2588 0.9659 0.0000
vn 0.0000 1.0000 0.0000
vn 0.0000 1.0000 0.0000
vn 0.0000 0.0000 1.0000
vn 0.0000 0.0000 1.0000
vn 0.0000 0.0000 1.0000
vn 0.0000 0.0000 1.0000
vn 0.5000 -0.8660 0.0000
vn 0.3827 -0.9239 0.0000
vn 0.3827 -0.9239 0.0000
vn 0.5000 -0.8660 0.0000
vn 0.0000 0.0000 -1.0000
vn 0.0000 0.0000 -1.0000
vn 0.7071 -0.7071 0.0000
vn 0.7071 -0.7071 0.0000
vn 0.8660 -0.5000 0.0000
vn 0.0000 0.0000 -1.0000
vn 0.0000 0.0000 -1.0000
vn 0.0000 0.0000 -1.0000
vn 0.0000 0.0000 -1.0000
vn 0.8660 -0.5000 0.0000
vn 0.9659 -0.2588 0.0000
vn 0.9659 -0.2588 0.0000
vn 1.0000 0.0000 0.0000
vn 0.0000 0.0000 1.0000
vn 0.0000 0.0000 1.0000
vn 0.0000 0.0000 1.0000
vn 0.0000 0.0000 1.0000
vn 0.0000 0.0000 1.0000
vn 0.0000 0.0000 1.0000
vn 0.0000 0.0000 -1.0000
vn 0.2588 0.9659 0.0000
vn 0.2588 0.9659 0.0000
vn 0.5000 0.8660 0.0000
vn 0.5000 0.8660 -0.0000
vn 0.0000 0.0000 -1.0000
vn 0.0000 0.0000 -1.0000
vn 0.0000 0.0000 -1.0000
vn 0.0000 0.0000 -1.0000
vn 0.9659 0.2588 0.0000
vn 1.0000 0.0000 0.0000
vn 0.9659 0.2588 -0.0000
vn 0.8660 0.5000 -0.0000
vn 0.8660 0.5000 0.0000
vn 0.7071 0.7071 0.0000
vn 0.7071 0.7071 -0.0000
vn 0.0000 0.0000 1.0000
vn 0.0000 0.0000 1.0000
vn 0.0000 0.0000 1.0000
vn 0.0000 0.0000 1.0000
f 1//1 2//2 3//3
f 4//4 1//1 3//3
f 3//3 2//2 5//5
f 1//1 6//6 2//2
f 2//2 6//6 7//7
f 2//2 7//7 5//5
f 5//5 7//7 8//8
f 6//6 9//9 7//7
f 7//7 10//10 8//8
f 7//7 11//11 10//10
f 7//7 9//9 11//11
f 11//11 12//12 10//10
f 12//12 13//13 14//14
f 1//1 15//15 6//6
f 4//4 15//15 1//1
f 6//6 16//16 9//9
f 9//9 17//17 11//11
f 11//11 18//18 12//12
f 4//4 3//3 19//19
f 3//3 5//5 20//20
f 5//5 8//8 21//21
f 8//8 10//10 21//21
f 10//10 12//12 22//22
f 12//12 14//14 22//22
f 4//4 23//23 15//15
f 6//6 15//15 24//24
f 6//6 24//24 16//16
f 12//12 18//18 13//13
f 9//9 16//16 17//17
f 11//11 17//17 18//18
f 23//23 25//25 15//15
f 15//15 25//25 26//26
f 15//15 26//26 24//24
f 25//25 27//27 26//26
f 24//24 26//26 28//28
f 26//26 27//27 28//28
f 24//24 28//28 16//16
f 27//27 29//29 28//28
f 16//16 28//28 17//17
f 17//17 30//30 18//18
f 28//28 29//29 30//30
f 28//28 30//30 17//17
f 4//4 31//31 23//23
f 23//23 31//31 25//25
f 25//25 32//32 27//27
f 27//27 32//32 29//29
f 29//29 33//33 30//30
f 30//30 34//34 18//18
f 18//18 34//34 13//13
f 3//3 35//35 19//19
f 3//3 20//20 35//35
f 5//5 21//21 20//20
f 10//10 36//36 21//21
f 10//10 22//22 36//36
f 22//22 14//14 37//37
f 4//4 19//19 31//31
f 22//22 37//37 38//38
f 35//35 39//39 40//40
f 19//19 35//35 40//40
f 35//35 20//20 39//39
f 40//40 39//39 41//41
f 20//20 42//42 39//39
f 39//39 42//42 41//41
f 20//20 21//21 42//42
f 41//41 42//42 43//43
f 21//21 36//36 42//42
f 42//42 36//36 44//44
f 36//36 22//22 44//44
f 42//42 44//44 43//43
f 19//19 40//40 45//45
f 40//40 41//41 45//45
f 41//41 43//43 46//46
f 43//43 44//44 47//47
f 44//44 22//22 34//34
f 34//34 38//38 13//13
f 25//25 31//31 48//48
f 25//25 48//48 32//32
f 29//29 32//32 33//33
f 30//30 49//49 34//34
f 30//30 33//33 49//49
f 19//19 45//45 31//31
f 41//41 46//46 45//45
f 46//46 43//43 47//47
f 22//22 38//38 34//34
f 44//44 34//34 50//50
f 44//44 50//50 47//47
f 31//31 45//45 48//48
f 48//48 45//45 51//51
f 45//45 46//46 51//51
f 48//48 51//51 32//32
f 46//46 47//47 51//51
f 32//32 51//51 33//33
f 51//51 52//52 33//33
f 51//51 47//47 52//52
f 49//49 50//50 34//34
f 47//47 50//50 52//52
f 33//33 52//52 49//49
f 52//52 50//50 49//49
f 53//53 54//54 55//55
f 53//53 55//55 56//56
f 57//57 58//58 59//59
f 60//60 61//61 62//62
f 63//63 62//62 54//54
f 64//64 65//65 58//58
f 66//66 67//67 65//65
f 60//60 62//62 63//63
f 68//68 61//61 60//60
f 63//63 54//54 53//53
f 56//56 55//55 69//69
f 67//67 70//70 71//71
f 56//56 69//69 72//72
f 73//73 70//70 67//67
f 74//74 75//75 76//76
f 77//77 76//76 78//78
f 79//79 78//78 80//80
f 81//81 80//80 82//82
f 57//57 59//59 83//83
f 57//57 64//64 58//58
f 68//68 84//84 61//61
f 85//85 86//86 84//84
f 87//87 88//88 86//86
f 66//66 65//65 64//64
f 66//66 73//73 67//67
f 85//85 84//84 68//68
f 85//85 87//87 86//86
f 89//89 90//90 88//88
f 91//91 92//92 90//90
f 89//89 88//88 87//87
f 89//89 91//91 90//90
f 73//73 93//93 70//70
f 94//94 95//95 92//92
f 95//95 96//96 97//97
f 91//91 94//94 92//92
f 94//94 96//96 95//95
f 74//74 98//98 75//75
f 74//74 76//76 77//77
f 79//79 77//77 78//78
f 79//79 80//80 81//81
f 81//81 82//82 99//99
f 99//99 82//82 100//100
f 100//100 82//82 101//101
f 102//102 103//103 104//104
f 105//105 103//103 102//102
f 106//106 107//107 70//70
f 105//105 102//102 108//108
f 105//105 108//108 109//109
f 109//109 108//108 110//110
f 111//111 112//112 107//107
f 113//113 114//114 112//112
f 115//115 110//110 116//116
f 117//117 116//116 118//118
f 115//115 109//109 110//110
f 115//115 116//116 117//117
f 119//119 82//82 120//120
f 101//101 82//82 119//119
f 121//121 119//119 122//122
f 123//123 122//122 124//124
f 93//93 125//125 70//70
f 125//125 106//106 70//70
f 106//106 111//111 107//107
f 126//126 127//127 97//97
f 128//128 129//129 127//127
f 96//96 126//126 97//97
f 126//126 128//128 127//127
f 111//111 113//113 112//112
f 113//113 130//130 114//114
f 130//130 131//131 114//114
f 132//132 133//133 131//131
f 134//134 135//135 118//118
f 130//130 132//132 131//131
f 136//136 134//134 137//137
f 135//135 117//117 118//118
f 136//136 135//135 134//134
f 138//138 136//136 137//137
f 138//138 137//137 139//139
f 140//140 139//139 129//129
f 140//140 138//138 139//139
f 128//128 140//140 129//129
f 101//101 119//119 121//121
f 121//121 122//122 123//123
f 123//123 124//124 141//141
f 141//141 124//124 142//142
f 143//143 142//142 144//144
f 141//141 142//142 143//143
