v 0.49600 0.20000 0.19000
v -0.49600 0.20000 0.19000
v -0.49600 0.18000 0.23000
v -0.49600 0.20000 0.19000
v -0.49600 -0.20000 -0.25000
v -0.49600 0.18000 0.23000
v 0.49600 0.18000 0.23000
v -0.49600 0.18000 0.23000
v -0.49600 -0.20000 -0.21000
v 0.49600 0.18000 0.23000
v 0.49600 0.20000 0.19000
v 0.49600 -0.20000 -0.25000
v -0.49600 0.20000 0.19000
v 0.49600 0.20000 0.19000
v 0.49600 0.18000 0.23000
v 0.49600 -0.20000 -0.25000
v -0.49600 -0.20000 -0.21000
v -0.49600 -0.20000 -0.25000
v 0.49600 -0.20000 -0.21000
v -0.49600 -0.20000 -0.21000
v -0.49600 -0.20000 -0.25000
v 0.49600 -0.20000 -0.21000
v 0.49600 -0.20000 -0.21000
v 0.49600 -0.20000 -0.25000
vn -0.0000 0.8944 0.4472
vn 0.0000 0.8944 0.4472
vn -0.0000 0.8944 0.4472
vn -1.0000 0.0000 0.0000
vn -1.0000 0.0000 0.0000
vn -1.0000 0.0000 0.0000
vn -0.0000 -0.7568 0.6536
vn 0.0000 -0.7568 0.6536
vn -0.0000 -0.7568 0.6536
vn 0.0000 0.8944 0.4472
vn 0.0000 0.7399 -0.6727
vn 0.0000 0.7399 -0.6727
vn 0.0000 0.7399 -0.6727
vn 1.0000 0.0000 0.0000
vn 1.0000 0.0000 0.0000
vn 1.0000 0.0000 0.0000
vn -1.0000 0.0000 0.0000
vn 0.0000 0.7399 -0.6727
vn 0.0000 -1.0000 0.0000
vn 0.0000 -1.0000 0.0000
vn 0.0000 -1.0000 0.0000
vn 0.0000 -0.7568 0.6536
vn 1.0000 0.0000 0.0000
vn 0.0000 -1.0000 0.0000
f 1//1 2//2 3//3
f 4//4 5//5 6//6
f 7//7 8//8 9//9
f 10//10 1//1 3//3
f 11//11 12//12 13//13
f 14//14 15//15 16//16
f 6//6 5//5 17//17
f 12//12 18//18 13//13
f 19//19 20//20 21//21
f 22//22 7//7 9//9
f 15//15 23//23 16//16
f 24//24 19//19 21//21
