v -0.20160 -0.06428 -0.15500
v -0.17500 -0.08660 -0.15500
v -0.20160 -0.06428 -0.12500
v -0.14236 -0.09848 -0.15500
v -0.17500 -0.08660 -0.12500
v -0.10764 -0.09848 -0.15500
v -0.14236 -0.09848 -0.12500
v -0.17500 -0.08660 -0.15500
v -0.20160 -0.06428 -0.15500
v -0.20160 0.06428 -0.15500
v -0.21897 -0.03420 -0.15500
v -0.21897 0.03420 -0.15500
v -0.22500 0.00000 -0.15500
v -0.14236 -0.09848 -0.15500
v -0.17500 0.08660 -0.15500
v -0.10764 -0.09848 -0.15500
v -0.14236 0.09848 -0.15500
v -0.21897 -0.03420 -0.15500
v -0.21897 -0.03420 -0.12500
v -0.22500 0.00000 -0.15500
v -0.22500 0.00000 -0.12500
v -0.07500 -0.08660 -0.15500
v -0.10764 -0.09848 -0.12500
v -0.04840 -0.06428 -0.15500
v -0.07500 -0.08660 -0.12500
v -0.03103 -0.03420 -0.15500
v -0.04840 -0.06428 -0.12500
v -0.07500 -0.08660 -0.15500
v -0.10764 0.09848 -0.15500
v -0.04840 -0.06428 -0.15500
v -0.07500 0.08660 -0.15500
v -0.03103 -0.03420 -0.15500
v -0.04840 0.06428 -0.15500
v -0.02500 0.00000 -0.15500
v -0.03103 0.03420 -0.15500
v -0.02500 0.00000 -0.15500
v -0.03103 -0.03420 -0.12500
v -0.17500 -0.08660 -0.12500
v -0.20160 0.06428 -0.12500
v -0.20160 -0.06428 -0.12500
v -0.21897 0.03420 -0.12500
v -0.21897 -0.03420 -0.12500
v -0.22500 0.00000 -0.12500
v -0.14236 -0.09848 -0.12500
v -0.17500 0.08660 -0.12500
v -0.10764 -0.09848 -0.12500
v -0.14236 0.09848 -0.12500
v -0.02500 0.00000 -0.12500
v -0.07500 -0.08660 -0.12500
v -0.10764 0.09848 -0.12500
v -0.04840 -0.06428 -0.12500
v -0.07500 0.08660 -0.12500
v -0.03103 -0.03420 -0.12500
v -0.04840 0.06428 -0.12500
v -0.02500 0.00000 -0.12500
v -0.03103 0.03420 -0.12500
v -0.21897 0.03420 -0.15500
v -0.21897 0.03420 -0.12500
v -0.20160 0.06428 -0.15500
v -0.20160 0.06428 -0.12500
v -0.17500 0.08660 -0.15500
v -0.17500 0.08660 -0.12500
v -0.14236 0.09848 -0.15500
v -0.14236 0.09848 -0.12500
v -0.10764 0.09848 -0.15500
v -0.10764 0.09848 -0.12500
v -0.03103 0.03420 -0.15500
v -0.04840 0.06428 -0.15500
v -0.03103 0.03420 -0.12500
v -0.07500 0.08660 -0.15500
v -0.04840 0.06428 -0.12500
v -0.07500 0.08660 -0.12500
v 0.07500 -0.08660 -0.15500
v 0.10764 -0.09848 -0.15500
v 0.07500 -0.08660 -0.12500
v 0.04840 -0.06428 -0.15500
v 0.04840 -0.06428 -0.12500
v 0.04840 -0.06428 -0.15500
v 0.03103 -0.03420 -0.15500
v 0.03103 0.03420 -0.15500
v 0.02500 0.00000 -0.15500
v 0.07500 -0.08660 -0.15500
v 0.04840 0.06428 -0.15500
v 0.10764 -0.09848 -0.15500
v 0.07500 0.08660 -0.15500
v 0.03103 -0.03420 -0.15500
v 0.03103 -0.03420 -0.12500
v 0.02500 0.00000 -0.15500
v 0.02500 0.00000 -0.12500
v 0.14236 -0.09848 -0.15500
v 0.10764 -0.09848 -0.12500
v 0.17500 -0.08660 -0.15500
v 0.14236 -0.09848 -0.12500
v 0.20160 -0.06428 -0.15500
v 0.17500 -0.08660 -0.12500
v 0.21897 -0.03420 -0.15500
v 0.20160 -0.06428 -0.12500
v 0.14236 -0.09848 -0.15500
v 0.10764 0.09848 -0.15500
v 0.17500 -0.08660 -0.15500
v 0.14236 0.09848 -0.15500
v 0.20160 -0.06428 -0.15500
v 0.17500 0.08660 -0.15500
v 0.21897 -0.03420 -0.15500
v 0.20160 0.06428 -0.15500
v 0.22500 0.00000 -0.15500
v 0.21897 0.03420 -0.15500
v 0.22500 0.00000 -0.15500
v 0.21897 -0.03420 -0.12500
v 0.04840 -0.06428 -0.12500
v 0.03103 0.03420 -0.12500
v 0.03103 -0.03420 -0.12500
v 0.02500 0.00000 -0.12500
v 0.07500 -0.08660 -0.12500
v 0.04840 0.06428 -0.12500
v 0.10764 -0.09848 -0.12500
v 0.07500 0.08660 -0.12500
v 0.22500 0.00000 -0.12500
v 0.14236 -0.09848 -0.12500
v 0.10764 0.09848 -0.12500
v 0.17500 -0.08660 -0.12500
v 0.14236 0.09848 -0.12500
v 0.20160 -0.06428 -0.12500
v 0.17500 0.08660 -0.12500
v 0.21897 -0.03420 -0.12500
v 0.20160 0.06428 -0.12500
v 0.22500 0.00000 -0.12500
v 0.21897 0.03420 -0.12500
v 0.03103 0.03420 -0.15500
v 0.03103 0.03420 -0.12500
v 0.04840 0.06428 -0.15500
v 0.04840 0.06428 -0.12500
v 0.07500 0.08660 -0.15500
v 0.07500 0.08660 -0.12500
v 0.10764 0.09848 -0.15500
v 0.10764 0.09848 -0.12500
v 0.21897 0.03420 -0.15500
v 0.20160 0.06428 -0.15500
v 0.21897 0.03420 -0.12500
v 0.14236 0.09848 -0.15500
v 0.14236 0.09848 -0.12500
v 0.17500 0.08660 -0.15500
v 0.17500 0.08660 -0.12500
v 0.20160 0.06428 -0.12500
vn -0.7660 -0.6428 0.0000
vn -0.5000 -0.8660 0.0000
vn -0.7660 -0.6428 0.0000
vn -0.1736 -0.9848 0.0000
vn -0.5000 -0.8660 0.0000
vn 0.1736 -0.9848 0.0000
vn -0.1736 -0.9848 0.0000
vn 0.0000 0.0000 -1.0000
vn 0.0000 0.0000 -1.0000
vn 0.0000 0.0000 -1.0000
vn 0.0000 0.0000 -1.0000
vn 0.0000 0.0000 -1.0000
vn 0.0000 0.0000 -1.0000
vn 0.0000 0.0000 -1.0000
vn 0.0000 0.0000 -1.0000
vn 0.0000 0.0000 -1.0000
vn 0.0000 0.0000 -1.0000
vn -0.9397 -0.3420 0.0000
vn -0.9397 -0.3420 0.0000
vn -1.0000 0.0000 0.0000
vn -1.0000 0.0000 0.0000
vn 0.5000 -0.8660 0.0000
vn 0.1736 -0.9848 0.0000
vn 0.7660 -0.6428 -0.0000
vn 0.5000 -0.8660 -0.0000
vn 0.9397 -0.3420 0.0000
vn 0.7660 -0.6428 0.0000
vn 0.0000 0.0000 -1.0000
vn 0.0000 0.0000 -1.0000
vn 0.0000 0.0000 -1.0000
vn 0.0000 0.0000 -1.0000
vn 0.0000 0.0000 -1.0000
vn 0.0000 0.0000 -1.0000
vn 0.0000 0.0000 -1.0000
vn 0.0000 0.0000 -1.0000
vn 1.0000 0.0000 0.0000
vn 0.9397 -0.3420 0.0000
vn 0.0000 0.0000 1.0000
vn 0.0000 0.0000 1.0000
vn 0.0000 0.0000 1.0000
vn 0.0000 0.0000 1.0000
vn 0.0000 0.0000 1.0000
vn 0.0000 0.0000 1.0000
vn 0.0000 0.0000 1.0000
vn 0.0000 0.0000 1.0000
vn 0.0000 0.0000 1.0000
vn 0.0000 0.0000 1.0000
vn 1.0000 0.0000 0.0000
vn 0.0000 0.0000 1.0000
vn 0.0000 0.0000 1.0000
vn 0.0000 0.0000 1.0000
vn 0.0000 0.0000 1.0000
vn 0.0000 0.0000 1.0000
vn 0.0000 0.0000 1.0000
vn 0.0000 0.0000 1.0000
vn 0.0000 0.0000 1.0000
vn -0.9397 0.3420 0.0000
vn -0.9397 0.3420 0.0000
vn -0.7660 0.6428 -0.0000
vn -0.7660 0.6428 0.0000
vn -0.5000 0.8660 0.0000
vn -0.5000 0.8660 -0.0000
vn -0.1736 0.9848 0.0000
vn -0.1736 0.9848 0.0000
vn 0.1736 0.9848 -0.0000
vn 0.1736 0.9848 0.0000
vn 0.9397 0.3420 0.0000
vn 0.7660 0.6428 0.0000
vn 0.9397 0.3420 0.0000
vn 0.5000 0.8660 0.0000
vn 0.7660 0.6428 0.0000
vn 0.5000 0.8660 -0.0000
vn -0.5000 -0.8660 0.0000
vn -0.1736 -0.9848 0.0000
vn -0.5000 -0.8660 0.0000
vn -0.7660 -0.6428 0.0000
vn -0.7660 -0.6428 0.0000
vn 0.0000 0.0000 -1.0000
vn 0.0000 0.0000 -1.0000
vn 0.0000 0.0000 -1.0000
vn 0.0000 0.0000 -1.0000
vn 0.0000 0.0000 -1.0000
vn 0.0000 0.0000 -1.0000
vn 0.0000 0.0000 -1.0000
vn 0.0000 0.0000 -1.0000
vn -0.9397 -0.3420 0.0000
vn -0.9397 -0.3420 0.0000
vn -1.0000 -0.0000 -0.0000
vn -1.0000 0.0000 0.0000
vn 0.1736 -0.9848 0.0000
vn -0.1736 -0.9848 0.0000
vn 0.5000 -0.8660 0.0000
vn 0.1736 -0.9848 0.0000
vn 0.7660 -0.6428 0.0000
vn 0.5000 -0.8660 0.0000
vn 0.9397 -0.3420 0.0000
vn 0.7660 -0.6428 0.0000
vn 0.0000 0.0000 -1.0000
vn 0.0000 0.0000 -1.0000
vn 0.0000 0.0000 -1.0000
vn 0.0000 0.0000 -1.0000
vn 0.0000 0.0000 -1.0000
vn 0.0000 0.0000 -1.0000
vn 0.0000 0.0000 -1.0000
vn 0.0000 0.0000 -1.0000
vn 0.0000 0.0000 -1.0000
vn 0.0000 0.0000 -1.0000
vn 1.0000 0.0000 -0.0000
vn 0.9397 -0.3420 -0.0000
vn 0.0000 0.0000 1.0000
vn 0.0000 0.0000 1.0000
vn 0.0000 0.0000 1.0000
vn 0.0000 0.0000 1.0000
vn 0.0000 0.0000 1.0000
vn 0.0000 0.0000 1.0000
vn 0.0000 0.0000 1.0000
vn 0.0000 0.0000 1.0000
vn 1.0000 -0.0000 0.0000
vn 0.0000 0.0000 1.0000
vn 0.0000 0.0000 1.0000
vn 0.0000 0.0000 1.0000
vn 0.0000 0.0000 1.0000
vn 0.0000 0.0000 1.0000
vn 0.0000 0.0000 1.0000
vn 0.0000 0.0000 1.0000
vn 0.0000 0.0000 1.0000
vn 0.0000 0.0000 1.0000
vn 0.0000 0.0000 1.0000
vn -0.9397 0.3420 0.0000
vn -0.9397 0.3420 -0.0000
vn -0.7660 0.6428 0.0000
vn -0.7660 0.6428 0.0000
vn -0.5000 0.8660 0.0000
vn -0.5000 0.8660 0.0000
vn -0.1736 0.9848 0.0000
vn -0.1736 0.9848 0.0000
vn 0.9397 0.3420 0.0000
vn 0.7660 0.6428 0.0000
vn 0.9397 0.3420 0.0000
vn 0.1736 0.9848 -0.0000
vn 0.1736 0.9848 0.0000
vn 0.5000 0.8660 0.0000
vn 0.5000 0.8660 -0.0000
vn 0.7660 0.6428 0.0000
f 1//1 2//2 3//3
f 2//2 4//4 5//5
f 4//4 6//6 7//7
f 8//8 9//9 10//10
f 9//9 11//11 12//12
f 11//11 13//13 12//12
f 14//14 8//8 15//15
f 16//16 14//14 17//17
f 18//18 1//1 19//19
f 20//20 18//18 21//21
f 6//6 22//22 23//23
f 22//22 24//24 25//25
f 24//24 26//26 27//27
f 28//28 16//16 29//29
f 30//30 28//28 31//31
f 32//32 30//30 33//33
f 34//34 32//32 35//35
f 26//26 36//36 37//37
f 2//2 5//5 3//3
f 1//1 3//3 19//19
f 4//4 7//7 5//5
f 6//6 23//23 7//7
f 18//18 19//19 21//21
f 38//38 39//39 40//40
f 40//40 41//41 42//42
f 42//42 41//41 43//43
f 44//44 45//45 38//38
f 46//46 47//47 44//44
f 22//22 25//25 23//23
f 24//24 27//27 25//25
f 26//26 37//37 27//27
f 36//36 48//48 37//37
f 49//49 50//50 46//46
f 51//51 52//52 49//49
f 53//53 54//54 51//51
f 55//55 56//56 53//53
f 9//9 12//12 10//10
f 8//8 10//10 15//15
f 14//14 15//15 17//17
f 16//16 17//17 29//29
f 57//57 20//20 58//58
f 59//59 57//57 60//60
f 61//61 59//59 62//62
f 63//63 61//61 64//64
f 65//65 63//63 66//66
f 28//28 29//29 31//31
f 30//30 31//31 33//33
f 32//32 33//33 35//35
f 36//36 67//67 48//48
f 67//67 68//68 69//69
f 68//68 70//70 71//71
f 70//70 65//65 72//72
f 20//20 21//21 58//58
f 57//57 58//58 60//60
f 40//40 39//39 41//41
f 38//38 45//45 39//39
f 44//44 47//47 45//45
f 46//46 50//50 47//47
f 59//59 60//60 62//62
f 61//61 62//62 64//64
f 63//63 64//64 66//66
f 67//67 69//69 48//48
f 49//49 52//52 50//50
f 51//51 54//54 52//52
f 53//53 56//56 54//54
f 65//65 66//66 72//72
f 70//70 72//72 71//71
f 68//68 71//71 69//69
f 73//73 74//74 75//75
f 76//76 73//73 77//77
f 78//78 79//79 80//80
f 79//79 81//81 80//80
f 82//82 78//78 83//83
f 84//84 82//82 85//85
f 86//86 76//76 87//87
f 88//88 86//86 89//89
f 74//74 90//90 91//91
f 90//90 92//92 93//93
f 92//92 94//94 95//95
f 94//94 96//96 97//97
f 98//98 84//84 99//99
f 100//100 98//98 101//101
f 102//102 100//100 103//103
f 104//104 102//102 105//105
f 106//106 104//104 107//107
f 96//96 108//108 109//109
f 76//76 77//77 87//87
f 73//73 75//75 77//77
f 74//74 91//91 75//75
f 86//86 87//87 89//89
f 110//110 111//111 112//112
f 112//112 111//111 113//113
f 114//114 115//115 110//110
f 116//116 117//117 114//114
f 90//90 93//93 91//91
f 92//92 95//95 93//93
f 94//94 97//97 95//95
f 96//96 109//109 97//97
f 108//108 118//118 109//109
f 119//119 120//120 116//116
f 121//121 122//122 119//119
f 123//123 124//124 121//121
f 125//125 126//126 123//123
f 127//127 128//128 125//125
f 78//78 80//80 83//83
f 82//82 83//83 85//85
f 84//84 85//85 99//99
f 129//129 88//88 130//130
f 131//131 129//129 132//132
f 133//133 131//131 134//134
f 135//135 133//133 136//136
f 98//98 99//99 101//101
f 100//100 101//101 103//103
f 104//104 105//105 107//107
f 102//102 103//103 105//105
f 108//108 137//137 118//118
f 137//137 138//138 139//139
f 140//140 135//135 141//141
f 142//142 140//140 143//143
f 138//138 142//142 144//144
f 88//88 89//89 130//130
f 129//129 130//130 132//132
f 110//110 115//115 111//111
f 114//114 117//117 115//115
f 116//116 120//120 117//117
f 131//131 132//132 134//134
f 133//133 134//134 136//136
f 137//137 139//139 118//118
f 119//119 122//122 120//120
f 121//121 124//124 122//122
f 125//125 128//128 126//126
f 123//123 126//126 124//124
f 135//135 136//136 141//141
f 140//140 141//141 143//143
f 138//138 144//144 139//139
f 142//142 143//143 144//144
