v -0.22800 -0.14314 -0.07714
v -0.24214 -0.12900 -0.07714
v -0.22800 -0.12900 -0.08300
v -0.24214 -0.14314 -0.06300
v -0.22800 -0.03826 -0.08300
v -0.20926 -0.07071 -0.08300
v -0.18000 -0.09526 -0.08300
v -0.14410 -0.10833 -0.08300
v -0.22800 -0.14900 -0.06300
v -0.24800 -0.12900 -0.06300
v -0.24214 -0.14314 0.10300
v -0.24800 -0.12900 0.10300
v -0.22837 -0.03762 -0.08285
v -0.23500 0.00000 -0.08010
v -0.24800 0.12900 -0.06300
v 0.22800 -0.14314 -0.07714
v 0.22800 -0.12900 -0.08300
v -0.10590 -0.10833 -0.08300
v -0.07000 -0.09526 -0.08300
v 0.10590 -0.10833 -0.08300
v -0.04074 -0.07071 -0.08300
v 0.07000 -0.09526 -0.08300
v -0.02163 -0.03762 -0.08300
v 0.04074 -0.07071 -0.08300
v -0.01500 0.00000 -0.08300
v 0.02163 -0.03762 -0.08300
v -0.22800 -0.14900 0.10300
v -0.22800 -0.14314 0.11714
v -0.24214 -0.12900 0.11714
v -0.22800 -0.12900 0.12300
v -0.24214 0.12900 0.11714
v -0.22800 0.12900 0.12300
v 0.22800 -0.14900 0.10300
v 0.22800 -0.12900 0.12300
v -0.22800 0.12900 -0.08300
v -0.24214 0.12900 -0.07714
v -0.22837 0.03762 -0.08285
v -0.22800 0.03826 -0.08300
v -0.20926 0.07071 -0.08300
v -0.18000 0.09526 -0.08300
v -0.22800 0.14314 -0.07714
v -0.24214 0.14314 -0.06300
v -0.14410 0.10833 -0.08300
v -0.22800 0.14900 -0.06300
v -0.24214 0.14314 0.10300
v -0.22800 0.14900 0.10300
v -0.02163 0.03762 -0.08300
v -0.04074 0.07071 -0.08300
v 0.02163 0.03762 -0.08300
v 0.22800 0.14314 -0.07714
v -0.10590 0.10833 -0.08300
v 0.07000 0.09526 -0.08300
v -0.07000 0.09526 -0.08300
v 0.04074 0.07071 -0.08300
v 0.22800 0.12900 -0.08300
v 0.22800 0.14900 -0.06300
v -0.24800 0.12900 0.10300
v -0.22800 0.14314 0.11714
v 0.22800 0.14314 0.11714
v 0.22800 -0.14900 -0.06300
v 0.14410 -0.10833 -0.08300
v 0.18000 -0.09526 -0.08300
v 0.24214 -0.12900 -0.07714
v 0.24214 -0.14314 -0.06300
v 0.20926 -0.07071 -0.08300
v 0.22800 -0.03826 -0.08300
v 0.24800 -0.12900 -0.06300
v 0.24214 -0.14314 0.10300
v 0.22837 -0.03762 -0.08285
v 0.23500 0.00000 -0.08010
v 0.24214 0.12900 -0.07714
v 0.24800 0.12900 -0.06300
v 0.24800 -0.12900 0.10300
v 0.22800 -0.14314 0.11714
v 0.24214 -0.12900 0.11714
v 0.24800 0.12900 0.10300
v 0.24214 0.12900 0.11714
v 0.01500 0.00000 -0.08300
v 0.10590 0.10833 -0.08300
v 0.22837 0.03762 -0.08285
v 0.22800 0.03826 -0.08300
v 0.18000 0.09526 -0.08300
v 0.14410 0.10833 -0.08300
v 0.20926 0.07071 -0.08300
v 0.24214 0.14314 -0.06300
v 0.22800 0.14900 0.10300
v 0.22800 0.12900 0.12300
v 0.24214 0.14314 0.10300
v -0.18000 -0.09526 -0.13500
v -0.18000 -0.09526 -0.08300
v -0.20926 -0.07071 -0.13500
v -0.20926 -0.07071 -0.08300
v -0.14410 -0.10833 -0.13500
v -0.14410 -0.10833 -0.08300
v -0.10590 -0.10833 -0.08300
v -0.22837 -0.03762 -0.13500
v -0.22800 -0.03826 -0.08300
v -0.22837 -0.03762 -0.08285
v -0.20926 -0.07071 -0.13500
v -0.22837 -0.03762 -0.13500
v -0.22837 0.03762 -0.13500
v -0.23500 0.00000 -0.13500
v -0.18000 -0.09526 -0.13500
v -0.20926 0.07071 -0.13500
v -0.23500 0.00000 -0.08010
v -0.18000 0.09526 -0.13500
v -0.14410 -0.10833 -0.13500
v -0.14410 0.10833 -0.13500
v -0.10590 -0.10833 -0.13500
v -0.10590 -0.10833 -0.13500
v -0.07000 -0.09526 -0.13500
v -0.07000 -0.09526 -0.08300
v -0.04074 -0.07071 -0.13500
v -0.04074 -0.07071 -0.08300
v -0.10590 0.10833 -0.13500
v -0.07000 -0.09526 -0.13500
v -0.02163 -0.03762 -0.13500
v -0.02163 -0.03762 -0.08300
v -0.07000 0.09526 -0.13500
v -0.04074 -0.07071 -0.13500
v -0.04074 0.07071 -0.13500
v -0.02163 -0.03762 -0.13500
v -0.01500 0.00000 -0.13500
v -0.01500 0.00000 -0.08300
v -0.23500 0.00000 -0.13500
v -0.22837 0.03762 -0.13500
v -0.22837 0.03762 -0.08285
v -0.22800 0.03826 -0.08300
v -0.20926 0.07071 -0.13500
v -0.20926 0.07071 -0.08300
v -0.18000 0.09526 -0.13500
v -0.18000 0.09526 -0.08300
v -0.14410 0.10833 -0.13500
v -0.14410 0.10833 -0.08300
v -0.10590 0.10833 -0.13500
v -0.02163 0.03762 -0.13500
v -0.01500 0.00000 -0.13500
v -0.02163 0.03762 -0.13500
v -0.02163 0.03762 -0.08300
v -0.04074 0.07071 -0.13500
v -0.04074 0.07071 -0.08300
v -0.10590 0.10833 -0.08300
v -0.07000 0.09526 -0.13500
v -0.07000 0.09526 -0.08300
v 0.04074 -0.07071 -0.13500
v 0.07000 -0.09526 -0.13500
v 0.07000 -0.09526 -0.08300
v 0.04074 -0.07071 -0.08300
v 0.10590 -0.10833 -0.13500
v 0.10590 -0.10833 -0.08300
v 0.14410 -0.10833 -0.08300
v 0.02163 -0.03762 -0.13500
v 0.02163 -0.03762 -0.08300
v 0.04074 -0.07071 -0.13500
v 0.02163 -0.03762 -0.13500
v 0.02163 0.03762 -0.13500
v 0.01500 0.00000 -0.13500
v 0.04074 0.07071 -0.13500
v 0.07000 -0.09526 -0.13500
v 0.01500 0.00000 -0.08300
v 0.07000 0.09526 -0.13500
v 0.10590 -0.10833 -0.13500
v 0.10590 0.10833 -0.13500
v 0.14410 -0.10833 -0.13500
v 0.14410 -0.10833 -0.13500
v 0.18000 -0.09526 -0.13500
v 0.18000 -0.09526 -0.08300
v 0.20926 -0.07071 -0.13500
v 0.20926 -0.07071 -0.08300
v 0.14410 0.10833 -0.13500
v 0.18000 -0.09526 -0.13500
v 0.22837 -0.03762 -0.13500
v 0.22800 -0.03826 -0.08300
v 0.22837 -0.03762 -0.08285
v 0.18000 0.09526 -0.13500
v 0.20926 -0.07071 -0.13500
v 0.20926 0.07071 -0.13500
v 0.22837 -0.03762 -0.13500
v 0.23500 0.00000 -0.13500
v 0.23500 0.00000 -0.08010
v 0.01500 0.00000 -0.13500
v 0.02163 0.03762 -0.13500
v 0.02163 0.03762 -0.08300
v 0.04074 0.07071 -0.13500
v 0.04074 0.07071 -0.08300
v 0.07000 0.09526 -0.13500
v 0.07000 0.09526 -0.08300
v 0.10590 0.10833 -0.13500
v 0.10590 0.10833 -0.08300
v 0.14410 0.10833 -0.13500
v 0.22837 0.03762 -0.13500
v 0.23500 0.00000 -0.13500
v 0.22837 0.03762 -0.13500
v 0.22837 0.03762 -0.08285
v 0.20926 0.07071 -0.13500
v 0.20926 0.07071 -0.08300
v 0.22800 0.03826 -0.08300
v 0.14410 0.10833 -0.08300
v 0.18000 0.09526 -0.13500
v 0.18000 0.09526 -0.08300
vn -0.2265 -0.6887 -0.6887
vn -0.6887 -0.2265 -0.6887
vn -0.1877 -0.1877 -0.9641
vn -0.6887 -0.6887 -0.2265
vn -0.3216 -0.0000 -0.9469
vn 0.0000 0.0000 -1.0000
vn 0.0000 0.0000 -1.0000
vn 0.0000 0.0000 -1.0000
vn -0.1877 -0.9641 -0.1877
vn -0.9641 -0.1877 -0.1877
vn -0.6887 -0.6887 0.2265
vn -0.9641 -0.1877 0.1877
vn -0.3827 0.0000 -0.9239
vn -0.3827 -0.0000 -0.9239
vn -0.9641 0.1877 -0.1877
vn 0.2265 -0.6887 -0.6887
vn 0.1877 -0.1877 -0.9641
vn 0.0000 0.0000 -1.0000
vn 0.0000 0.0000 -1.0000
vn 0.0000 0.0000 -1.0000
vn 0.0000 0.0000 -1.0000
vn 0.0000 0.0000 -1.0000
vn 0.0000 0.0000 -1.0000
vn 0.0000 0.0000 -1.0000
vn 0.0000 0.0000 -1.0000
vn 0.0000 0.0000 -1.0000
vn -0.1877 -0.9641 0.1877
vn -0.2265 -0.6887 0.6887
vn -0.6887 -0.2265 0.6887
vn -0.1877 -0.1877 0.9641
vn -0.6887 0.2265 0.6887
vn -0.1877 0.1877 0.9641
vn 0.1877 -0.9641 0.1877
vn 0.1877 -0.1877 0.9641
vn -0.1877 0.1877 -0.9641
vn -0.6887 0.2265 -0.6887
vn -0.3827 0.0000 -0.9239
vn -0.3216 0.0000 -0.9469
vn 0.0000 0.0000 -1.0000
vn 0.0000 0.0000 -1.0000
vn -0.2265 0.6887 -0.6887
vn -0.6887 0.6887 -0.2265
vn 0.0000 0.0000 -1.0000
vn -0.1877 0.9641 -0.1877
vn -0.6887 0.6887 0.2265
vn -0.1877 0.9641 0.1877
vn 0.0000 0.0000 -1.0000
vn 0.0000 0.0000 -1.0000
vn 0.0000 0.0000 -1.0000
vn 0.2265 0.6887 -0.6887
vn 0.0000 0.0000 -1.0000
vn 0.0000 0.0000 -1.0000
vn 0.0000 0.0000 -1.0000
vn 0.0000 0.0000 -1.0000
vn 0.1877 0.1877 -0.9641
vn 0.1877 0.9641 -0.1877
vn -0.9641 0.1877 0.1877
vn -0.2265 0.6887 0.6887
vn 0.2265 0.6887 0.6887
vn 0.1877 -0.9641 -0.1877
vn 0.0000 0.0000 -1.0000
vn 0.0000 0.0000 -1.0000
vn 0.6887 -0.2265 -0.6887
vn 0.6887 -0.6887 -0.2265
vn 0.0000 0.0000 -1.0000
vn 0.3216 0.0000 -0.9469
vn 0.9641 -0.1877 -0.1877
vn 0.6887 -0.6887 0.2265
vn 0.3827 0.0000 -0.9239
vn 0.3827 0.0000 -0.9239
vn 0.6887 0.2265 -0.6887
vn 0.9641 0.1877 -0.1877
vn 0.9641 -0.1877 0.1877
vn 0.2265 -0.6887 0.6887
vn 0.6887 -0.2265 0.6887
vn 0.9641 0.1877 0.1877
vn 0.6887 0.2265 0.6887
vn 0.0000 0.0000 -1.0000
vn 0.0000 0.0000 -1.0000
vn 0.3827 -0.0000 -0.9239
vn 0.3216 -0.0000 -0.9469
vn 0.0000 0.0000 -1.0000
vn 0.0000 0.0000 -1.0000
vn 0.0000 0.0000 -1.0000
vn 0.6887 0.6887 -0.2265
vn 0.1877 0.9641 0.1877
vn 0.1877 0.1877 0.9641
vn 0.6887 0.6887 0.2265
vn -0.5000 -0.8660 0.0000
vn -0.5000 -0.8660 0.0000
vn -0.7660 -0.6428 0.0000
vn -0.7660 -0.6428 0.0000
vn -0.1736 -0.9848 0.0000
vn -0.1736 -0.9848 0.0000
vn 0.1736 -0.9848 0.0000
vn -0.9397 -0.3420 -0.0000
vn -0.8660 -0.5000 0.0000
vn -0.9451 -0.3268 0.0000
vn 0.0000 0.0000 -1.0000
vn 0.0000 0.0000 -1.0000
vn 0.0000 0.0000 -1.0000
vn -1.0000 0.0000 -0.0000
vn 0.0000 0.0000 -1.0000
vn 0.0000 0.0000 -1.0000
vn -1.0000 0.0000 0.0000
vn 0.0000 0.0000 -1.0000
vn 0.0000 0.0000 -1.0000
vn 0.0000 0.0000 -1.0000
vn 0.0000 0.0000 -1.0000
vn 0.1736 -0.9848 -0.0000
vn 0.5000 -0.8660 0.0000
vn 0.5000 -0.8660 -0.0000
vn 0.7660 -0.6428 0.0000
vn 0.7660 -0.6428 0.0000
vn 0.0000 0.0000 -1.0000
vn 0.0000 0.0000 -1.0000
vn 0.9397 -0.3420 0.0000
vn 0.9397 -0.3420 0.0000
vn 0.0000 0.0000 -1.0000
vn 0.0000 0.0000 -1.0000
vn 0.0000 0.0000 -1.0000
vn 0.0000 0.0000 -1.0000
vn 1.0000 0.0000 -0.0000
vn 1.0000 -0.0000 0.0000
vn 0.0000 0.0000 -1.0000
vn -0.9397 0.3420 0.0000
vn -0.9451 0.3268 0.0000
vn -0.8660 0.5000 0.0000
vn -0.7660 0.6428 0.0000
vn -0.7660 0.6428 0.0000
vn -0.5000 0.8660 0.0000
vn -0.5000 0.8660 0.0000
vn -0.1736 0.9848 0.0000
vn -0.1736 0.9848 0.0000
vn 0.1736 0.9848 0.0000
vn 0.0000 0.0000 -1.0000
vn 0.0000 0.0000 -1.0000
vn 0.9397 0.3420 0.0000
vn 0.9397 0.3420 -0.0000
vn 0.7660 0.6428 0.0000
vn 0.7660 0.6428 0.0000
vn 0.1736 0.9848 -0.0000
vn 0.5000 0.8660 -0.0000
vn 0.5000 0.8660 0.0000
vn -0.7660 -0.6428 0.0000
vn -0.5000 -0.8660 -0.0000
vn -0.5000 -0.8660 0.0000
vn -0.7660 -0.6428 -0.0000
vn -0.1736 -0.9848 0.0000
vn -0.1736 -0.9848 -0.0000
vn 0.1736 -0.9848 0.0000
vn -0.9397 -0.3420 -0.0000
vn -0.9397 -0.3420 -0.0000
vn 0.0000 0.0000 -1.0000
vn 0.0000 0.0000 -1.0000
vn 0.0000 0.0000 -1.0000
vn -1.0000 -0.0000 -0.0000
vn 0.0000 0.0000 -1.0000
vn 0.0000 0.0000 -1.0000
vn -1.0000 0.0000 0.0000
vn 0.0000 0.0000 -1.0000
vn 0.0000 0.0000 -1.0000
vn 0.0000 0.0000 -1.0000
vn 0.0000 0.0000 -1.0000
vn 0.1736 -0.9848 0.0000
vn 0.5000 -0.8660 0.0000
vn 0.5000 -0.8660 0.0000
vn 0.7660 -0.6428 0.0000
vn 0.7660 -0.6428 0.0000
vn 0.0000 0.0000 -1.0000
vn 0.0000 0.0000 -1.0000
vn 0.9397 -0.3420 -0.0000
vn 0.8660 -0.5000 -0.0000
vn 0.9451 -0.3268 0.0000
vn 0.0000 0.0000 -1.0000
vn 0.0000 0.0000 -1.0000
vn 0.0000 0.0000 -1.0000
vn 0.0000 0.0000 -1.0000
vn 1.0000 -0.0000 -0.0000
vn 1.0000 0.0000 0.0000
vn 0.0000 0.0000 -1.0000
vn -0.9397 0.3420 0.0000
vn -0.9397 0.3420 -0.0000
vn -0.7660 0.6428 -0.0000
vn -0.7660 0.6428 0.0000
vn -0.5000 0.8660 0.0000
vn -0.5000 0.8660 0.0000
vn -0.1736 0.9848 0.0000
vn -0.1736 0.9848 0.0000
vn 0.1736 0.9848 0.0000
vn 0.0000 0.0000 -1.0000
vn 0.0000 0.0000 -1.0000
vn 0.9397 0.3420 0.0000
vn 0.9451 0.3268 -0.0000
vn 0.7660 0.6428 0.0000
vn 0.7660 0.6428 0.0000
vn 0.8660 0.5000 0.0000
vn 0.1736 0.9848 0.0000
vn 0.5000 0.8660 0.0000
vn 0.5000 0.8660 0.0000
f 1//1 2//2 3//3
f 1//1 4//4 2//2
f 2//2 5//5 3//3
f 3//3 5//5 6//6
f 3//3 6//6 7//7
f 3//3 7//7 8//8
f 1//1 9//9 4//4
f 4//4 10//10 2//2
f 4//4 9//9 11//11
f 4//4 12//12 10//10
f 2//2 13//13 5//5
f 2//2 14//14 13//13
f 2//2 10//10 15//15
f 10//10 12//12 15//15
f 1//1 16//16 9//9
f 1//1 3//3 17//17
f 3//3 8//8 17//17
f 17//17 8//8 18//18
f 19//19 20//20 18//18
f 21//21 22//22 19//19
f 23//23 24//24 21//21
f 23//23 25//25 26//26
f 9//9 27//27 11//11
f 4//4 11//11 12//12
f 11//11 27//27 28//28
f 11//11 29//29 12//12
f 11//11 28//28 29//29
f 28//28 30//30 29//29
f 12//12 29//29 31//31
f 29//29 30//30 32//32
f 9//9 33//33 27//27
f 27//27 33//33 28//28
f 28//28 34//34 30//30
f 30//30 34//34 32//32
f 2//2 35//35 14//14
f 2//2 36//36 35//35
f 2//2 15//15 36//36
f 35//35 37//37 14//14
f 35//35 38//38 37//37
f 35//35 39//39 38//38
f 35//35 40//40 39//39
f 36//36 41//41 35//35
f 36//36 42//42 41//41
f 35//35 43//43 40//40
f 36//36 15//15 42//42
f 41//41 42//42 44//44
f 15//15 45//45 42//42
f 42//42 46//46 44//44
f 26//26 25//25 47//47
f 48//48 49//49 47//47
f 35//35 41//41 50//50
f 41//41 44//44 50//50
f 51//51 52//52 53//53
f 53//53 54//54 48//48
f 35//35 55//55 43//43
f 55//55 51//51 43//43
f 44//44 46//46 56//56
f 12//12 57//57 15//15
f 12//12 31//31 57//57
f 29//29 32//32 31//31
f 15//15 57//57 45//45
f 42//42 45//45 46//46
f 57//57 31//31 45//45
f 31//31 58//58 45//45
f 31//31 32//32 58//58
f 45//45 58//58 46//46
f 32//32 59//59 58//58
f 46//46 58//58 59//59
f 21//21 24//24 22//22
f 19//19 22//22 20//20
f 1//1 17//17 16//16
f 17//17 18//18 20//20
f 9//9 16//16 60//60
f 9//9 60//60 33//33
f 23//23 26//26 24//24
f 17//17 20//20 61//61
f 17//17 61//61 62//62
f 16//16 17//17 63//63
f 16//16 63//63 64//64
f 17//17 62//62 65//65
f 17//17 65//65 66//66
f 16//16 64//64 60//60
f 64//64 63//63 67//67
f 60//60 64//64 33//33
f 64//64 67//67 68//68
f 17//17 66//66 69//69
f 17//17 69//69 70//70
f 17//17 71//71 63//63
f 63//63 72//72 67//67
f 67//67 72//72 73//73
f 28//28 33//33 74//74
f 28//28 74//74 34//34
f 64//64 68//68 33//33
f 67//67 73//73 68//68
f 33//33 68//68 74//74
f 68//68 75//75 74//74
f 68//68 73//73 75//75
f 74//74 75//75 34//34
f 73//73 76//76 75//75
f 34//34 75//75 77//77
f 47//47 78//78 26//26
f 47//47 49//49 78//78
f 48//48 54//54 49//49
f 53//53 52//52 54//54
f 51//51 79//79 52//52
f 55//55 79//79 51//51
f 35//35 50//50 55//55
f 44//44 56//56 50//50
f 17//17 70//70 71//71
f 63//63 71//71 72//72
f 71//71 70//70 80//80
f 71//71 80//80 81//81
f 55//55 82//82 83//83
f 55//55 83//83 79//79
f 55//55 84//84 82//82
f 55//55 81//81 84//84
f 55//55 71//71 81//81
f 55//55 50//50 71//71
f 71//71 50//50 85//85
f 71//71 85//85 72//72
f 50//50 56//56 85//85
f 72//72 85//85 76//76
f 56//56 86//86 85//85
f 32//32 34//34 87//87
f 46//46 86//86 56//56
f 32//32 87//87 59//59
f 46//46 59//59 86//86
f 73//73 72//72 76//76
f 75//75 76//76 77//77
f 34//34 77//77 87//87
f 85//85 88//88 76//76
f 85//85 86//86 88//88
f 77//77 88//88 59//59
f 76//76 88//88 77//77
f 87//87 77//77 59//59
f 86//86 59//59 88//88
f 89//89 90//90 91//91
f 91//91 90//90 92//92
f 89//89 93//93 94//94
f 89//89 94//94 90//90
f 93//93 95//95 94//94
f 91//91 92//92 96//96
f 96//96 92//92 97//97
f 96//96 97//97 98//98
f 99//99 100//100 101//101
f 96//96 98//98 102//102
f 103//103 99//99 104//104
f 102//102 98//98 105//105
f 103//103 106//106 107//107
f 107//107 108//108 109//109
f 93//93 110//110 95//95
f 110//110 111//111 112//112
f 110//110 112//112 95//95
f 111//111 113//113 114//114
f 111//111 114//114 112//112
f 109//109 115//115 116//116
f 113//113 117//117 118//118
f 113//113 118//118 114//114
f 116//116 119//119 120//120
f 120//120 121//121 122//122
f 117//117 123//123 124//124
f 117//117 124//124 118//118
f 100//100 125//125 101//101
f 102//102 105//105 126//126
f 99//99 101//101 104//104
f 103//103 104//104 106//106
f 126//126 105//105 127//127
f 126//126 128//128 129//129
f 126//126 127//127 128//128
f 129//129 128//128 130//130
f 107//107 106//106 108//108
f 129//129 130//130 131//131
f 131//131 130//130 132//132
f 131//131 132//132 133//133
f 133//133 134//134 135//135
f 133//133 132//132 134//134
f 109//109 108//108 115//115
f 116//116 115//115 119//119
f 120//120 119//119 121//121
f 122//122 136//136 137//137
f 122//122 121//121 136//136
f 123//123 138//138 139//139
f 123//123 139//139 124//124
f 138//138 140//140 141//141
f 138//138 141//141 139//139
f 135//135 142//142 143//143
f 135//135 134//134 142//142
f 143//143 142//142 144//144
f 143//143 144//144 140//140
f 140//140 144//144 141//141
f 145//145 146//146 147//147
f 145//145 147//147 148//148
f 146//146 149//149 150//150
f 146//146 150//150 147//147
f 149//149 151//151 150//150
f 145//145 148//148 152//152
f 152//152 148//148 153//153
f 154//154 155//155 156//156
f 152//152 153//153 157//157
f 154//154 158//158 159//159
f 157//157 153//153 160//160
f 159//159 161//161 162//162
f 162//162 163//163 164//164
f 149//149 165//165 151//151
f 165//165 166//166 167//167
f 165//165 167//167 151//151
f 166//166 168//168 169//169
f 166//166 169//169 167//167
f 164//164 170//170 171//171
f 168//168 172//172 173//173
f 168//168 173//173 169//169
f 172//172 174//174 173//173
f 171//171 175//175 176//176
f 176//176 177//177 178//178
f 172//172 179//179 180//180
f 172//172 180//180 174//174
f 155//155 181//181 156//156
f 157//157 160//160 182//182
f 154//154 156//156 158//158
f 159//159 158//158 161//161
f 182//182 160//160 183//183
f 182//182 183//183 184//184
f 184//184 183//183 185//185
f 162//162 161//161 163//163
f 184//184 185//185 186//186
f 186//186 185//185 187//187
f 186//186 187//187 188//188
f 188//188 189//189 190//190
f 188//188 187//187 189//189
f 164//164 163//163 170//170
f 171//171 170//170 175//175
f 176//176 175//175 177//177
f 178//178 191//191 192//192
f 178//178 177//177 191//191
f 179//179 193//193 194//194
f 179//179 194//194 180//180
f 193//193 195//195 196//196
f 193//193 197//197 194//194
f 193//193 196//196 197//197
f 190//190 198//198 199//199
f 190//190 189//189 198//198
f 199//199 198//198 200//200
f 195//195 199//199 200//200
f 195//195 200//200 196//196
