v -0.49800 0.12000 -0.18750
v -0.36500 0.12000 -0.08550
v -0.37066 0.12000 -0.08316
v -0.32500 0.12000 -0.08550
v -0.37300 0.12000 -0.07750
v -0.37300 0.12000 0.05250
v -0.49800 0.12000 -0.18750
v -0.49800 0.17000 0.16250
v -0.49800 0.15000 -0.15750
v -0.49800 0.12000 -0.18750
v -0.49800 0.15000 -0.15750
v 0.49800 0.12000 -0.18750
v -0.49800 0.15000 -0.15750
v -0.49800 0.17000 0.16250
v 0.49800 0.15000 -0.15750
v 0.49800 0.12000 0.18750
v -0.49800 0.12000 0.18750
v -0.49800 0.12000 0.18750
v -0.37066 0.12000 0.05816
v -0.36500 0.12000 0.06050
v -0.32500 0.12000 0.06050
v -0.31934 0.12000 0.05816
v -0.49800 0.14000 0.18750
v -0.31934 0.12000 -0.08316
v -0.31700 0.12000 -0.07750
v -0.31700 0.12000 0.05250
v -0.49800 0.12000 0.18750
v 0.49800 0.14000 0.18750
v -0.49800 0.14000 0.18750
v 0.49800 0.17000 0.16250
v -0.49800 0.17000 0.16250
v 0.49800 0.12000 -0.18750
v 0.36500 0.12000 -0.08550
v 0.32500 0.12000 -0.08550
v 0.31934 0.12000 -0.08316
v 0.31700 0.12000 -0.07750
v 0.49800 0.15000 -0.15750
v 0.31700 0.12000 0.05250
v 0.31934 0.12000 0.05816
v 0.37066 0.12000 -0.08316
v 0.37300 0.12000 -0.07750
v 0.37300 0.12000 0.05250
v 0.49800 0.12000 -0.18750
v 0.49800 0.15000 -0.15750
v 0.49800 0.17000 0.16250
v 0.49800 0.17000 0.16250
v 0.49800 0.12000 0.18750
v 0.49800 0.12000 0.18750
v 0.32500 0.12000 0.06050
v 0.36500 0.12000 0.06050
v 0.37066 0.12000 0.05816
v 0.49800 0.14000 0.18750
v -0.37066 -0.08100 -0.08316
v -0.37066 0.12000 -0.08316
v -0.36500 -0.08100 -0.08550
v -0.32500 -0.08100 -0.08550
v -0.36500 0.12000 -0.08550
v -0.37066 -0.08100 -0.08316
v -0.37300 -0.08100 -0.07750
v -0.37300 0.12000 -0.07750
v -0.31934 -0.08100 -0.08316
v -0.32500 0.12000 -0.08550
v -0.31700 -0.08100 -0.07750
v -0.31934 -0.08100 -0.08316
v -0.31934 0.12000 -0.08316
v -0.31700 0.12000 -0.07750
v -0.31700 -0.08100 0.05250
v -0.37300 -0.08100 0.05250
v -0.37300 0.12000 0.05250
v -0.37066 -0.08334 0.05816
v -0.36500 -0.08900 0.06050
v -0.36500 0.12000 0.06050
v -0.37066 -0.08334 0.05816
v -0.37066 0.12000 0.05816
v -0.32500 -0.08900 0.06050
v -0.32500 0.12000 0.06050
v -0.31934 -0.08334 0.05816
v -0.31934 0.12000 0.05816
v -0.31934 -0.08334 0.05816
v -0.31700 0.12000 0.05250
v -0.37066 0.12000 -0.08316
v -0.31934 0.12000 -0.08316
v -0.37066 0.12000 0.05816
v -0.31934 0.12000 0.05816
v 0.31934 -0.08100 -0.08316
v 0.31934 0.12000 -0.08316
v 0.32500 -0.08100 -0.08550
v 0.36500 -0.08100 -0.08550
v 0.32500 0.12000 -0.08550
v 0.31934 -0.08100 -0.08316
v 0.31700 -0.08100 -0.07750
v 0.31700 0.12000 -0.07750
v 0.37066 -0.08100 -0.08316
v 0.36500 0.12000 -0.08550
v 0.37300 -0.08100 -0.07750
v 0.37066 -0.08100 -0.08316
v 0.37066 0.12000 -0.08316
v 0.37300 0.12000 -0.07750
v 0.37300 -0.08100 0.05250
v 0.31700 -0.08100 0.05250
v 0.31700 0.12000 0.05250
v 0.32500 -0.08900 0.06050
v 0.35888 -0.12483 0.06050
v 0.36500 0.12000 0.06050
v 0.36500 -0.08900 0.06050
v 0.31934 -0.08334 0.05816
v 0.32500 0.12000 0.06050
v 0.31934 -0.08334 0.05816
v 0.31934 0.12000 0.05816
v 0.37066 -0.08334 0.05816
v 0.37066 0.12000 0.05816
v 0.37066 -0.08334 0.05816
v 0.37300 0.12000 0.05250
v 0.31934 0.12000 -0.08316
v 0.37066 0.12000 -0.08316
v 0.31934 0.12000 0.05816
v 0.37066 0.12000 0.05816
v -0.45500 -0.17666 -0.18316
v -0.45500 -0.17900 -0.17750
v -0.46066 -0.17666 -0.17750
v -0.46066 -0.17100 -0.18316
v -0.45500 -0.17100 -0.18550
v -0.46300 -0.17100 -0.17750
v -0.45500 -0.08900 -0.18550
v -0.46066 -0.08900 -0.18316
v -0.23500 -0.17900 -0.17750
v -0.23500 -0.17100 -0.18550
v -0.45500 -0.17900 0.05250
v -0.46300 -0.17100 0.05250
v -0.46300 -0.08900 -0.17750
v -0.23500 -0.08900 -0.18550
v -0.46300 -0.08900 0.05250
v -0.23500 -0.17666 -0.18316
v -0.46066 -0.17666 0.05250
v -0.23500 -0.17900 0.05250
v -0.45500 -0.08334 -0.18316
v -0.46066 -0.08334 -0.17750
v -0.45500 -0.08100 -0.17750
v -0.23500 -0.08100 -0.17750
v -0.46066 -0.08334 0.05250
v -0.37066 -0.08100 -0.08316
v -0.36500 -0.08100 -0.08550
v -0.37300 -0.08100 -0.07750
v -0.32500 -0.08100 -0.08550
v -0.23500 -0.08334 -0.18316
v -0.31934 -0.08100 -0.08316
v -0.31700 -0.08100 -0.07750
v -0.45500 -0.08100 0.05250
v -0.23500 -0.08100 0.05250
v -0.22934 -0.17666 -0.17750
v -0.22934 -0.17100 -0.18316
v -0.22700 -0.17100 -0.17750
v -0.22934 -0.08900 -0.18316
v -0.22934 -0.17666 0.05250
v -0.22700 -0.17100 0.05250
v -0.22700 -0.08900 -0.17750
v -0.22700 -0.08900 0.05250
v -0.22934 -0.08334 -0.17750
v -0.22934 -0.08334 0.05250
v -0.45500 -0.17666 0.05816
v -0.46066 -0.17100 0.05816
v -0.45500 -0.17100 0.06050
v -0.46066 -0.08900 0.05816
v -0.23500 -0.17100 0.06050
v -0.45500 -0.08900 0.06050
v -0.23500 -0.17666 0.05816
v -0.23500 -0.08900 0.06050
v -0.37300 -0.08100 0.05250
v -0.45500 -0.08334 0.05816
v -0.37066 -0.08334 0.05816
v -0.31700 -0.08100 0.05250
v -0.23500 -0.08334 0.05816
v -0.31934 -0.08334 0.05816
v -0.22934 -0.17100 0.05816
v -0.22934 -0.08900 0.05816
v 0.22934 -0.17666 -0.17750
v 0.23500 -0.17666 -0.18316
v 0.23500 -0.17900 -0.17750
v 0.22934 -0.17100 -0.18316
v 0.23500 -0.17100 -0.18550
v 0.22700 -0.17100 -0.17750
v 0.22934 -0.08900 -0.18316
v 0.22700 -0.08900 -0.17750
v 0.22934 -0.17666 0.05250
v 0.22700 -0.17100 0.05250
v 0.23500 -0.08900 -0.18550
v 0.23500 -0.17900 0.05250
v 0.22700 -0.08900 0.05250
v 0.23500 -0.08334 -0.18316
v 0.22934 -0.08334 -0.17750
v 0.23500 -0.08100 -0.17750
v 0.22934 -0.08334 0.05250
v 0.23500 -0.08100 0.05250
v 0.45500 -0.17900 -0.17750
v 0.45500 -0.17100 -0.18550
v 0.45500 -0.08900 -0.18550
v 0.45500 -0.17666 -0.18316
v 0.46066 -0.17666 -0.17750
v 0.46066 -0.17100 -0.18316
v 0.46300 -0.17100 -0.17750
v 0.46066 -0.08900 -0.18316
v 0.46066 -0.17666 0.05250
v 0.46300 -0.17100 0.05250
v 0.46300 -0.08900 -0.17750
v 0.46300 -0.08900 0.05250
v 0.45500 -0.17900 0.05250
v 0.45500 -0.08100 -0.17750
v 0.36500 -0.08100 -0.08550
v 0.31934 -0.08100 -0.08316
v 0.32500 -0.08100 -0.08550
v 0.31700 -0.08100 -0.07750
v 0.45500 -0.08334 -0.18316
v 0.46066 -0.08334 -0.17750
v 0.37066 -0.08100 -0.08316
v 0.37300 -0.08100 -0.07750
v 0.45500 -0.08100 0.05250
v 0.46066 -0.08334 0.05250
v 0.23500 -0.17666 0.05816
v 0.22934 -0.17100 0.05816
v 0.23500 -0.17100 0.06050
v 0.23500 -0.08900 0.06050
v 0.22934 -0.08900 0.05816
v 0.23500 -0.08334 0.05816
v 0.45500 -0.17100 0.06050
v 0.45500 -0.17666 0.05816
v 0.46066 -0.17100 0.05816
v 0.45500 -0.08900 0.06050
v 0.46066 -0.08900 0.05816
v 0.31700 -0.08100 0.05250
v 0.31934 -0.08334 0.05816
v 0.37300 -0.08100 0.05250
v 0.45500 -0.08334 0.05816
v 0.37066 -0.08334 0.05816
vn 0.0000 -1.0000 0.0000
vn 0.0000 -1.0000 0.0000
vn 0.0000 -1.0000 0.0000
vn 0.0000 -1.0000 0.0000
vn 0.0000 -1.0000 0.0000
vn 0.0000 -1.0000 0.0000
vn -1.0000 0.0000 0.0000
vn -1.0000 0.0000 0.0000
vn -1.0000 0.0000 0.0000
vn 0.0000 0.7071 -0.7071
vn 0.0000 0.7071 -0.7071
vn 0.0000 0.7071 -0.7071
vn 0.0000 0.9981 -0.0624
vn 0.0000 0.9981 -0.0624
vn 0.0000 0.9981 -0.0624
vn 0.0000 -1.0000 0.0000
vn 0.0000 -1.0000 0.0000
vn -1.0000 0.0000 0.0000
vn 0.0000 -1.0000 0.0000
vn 0.0000 -1.0000 0.0000
vn 0.0000 -1.0000 0.0000
vn 0.0000 -1.0000 0.0000
vn -1.0000 0.0000 0.0000
vn 0.0000 -1.0000 0.0000
vn 0.0000 -1.0000 0.0000
vn 0.0000 -1.0000 0.0000
vn 0.0000 0.0000 1.0000
vn 0.0000 0.3404 0.9403
vn 0.0000 0.3404 0.9403
vn 0.0000 0.6402 0.7682
vn 0.0000 0.6402 0.7682
vn 0.0000 -1.0000 0.0000
vn 0.0000 -1.0000 0.0000
vn 0.0000 -1.0000 0.0000
vn 0.0000 -1.0000 0.0000
vn 0.0000 -1.0000 0.0000
vn 0.0000 0.7071 -0.7071
vn 0.0000 -1.0000 0.0000
vn 0.0000 -1.0000 0.0000
vn 0.0000 -1.0000 0.0000
vn 0.0000 -1.0000 0.0000
vn 0.0000 -1.0000 0.0000
vn 1.0000 0.0000 0.0000
vn 1.0000 0.0000 0.0000
vn 1.0000 0.0000 0.0000
vn 0.0000 0.9981 -0.0624
vn 0.0000 0.0000 1.0000
vn 1.0000 0.0000 0.0000
vn 0.0000 -1.0000 0.0000
vn 0.0000 -1.0000 0.0000
vn 0.0000 -1.0000 0.0000
vn 1.0000 0.0000 0.0000
vn -0.3827 0.0000 -0.9239
vn -0.3827 -0.0000 -0.9239
vn -0.1951 -0.0000 -0.9808
vn 0.1951 0.0000 -0.9808
vn -0.1951 0.0000 -0.9808
vn -0.9239 -0.0000 -0.3827
vn -0.9808 0.0000 -0.1951
vn -0.9808 -0.0000 -0.1951
vn 0.3827 0.0000 -0.9239
vn 0.1951 0.0000 -0.9808
vn 0.9808 0.0000 -0.1951
vn 0.9239 0.0000 -0.3827
vn 0.9239 0.0000 -0.3827
vn 0.9808 0.0000 -0.1951
vn 0.9765 0.0000 0.2154
vn -0.9765 0.0000 0.2154
vn -0.9808 0.0000 0.1951
vn -0.1988 0.1988 0.9597
vn -0.0505 0.0505 0.9974
vn -0.1951 0.0000 0.9808
vn -0.9239 0.0000 0.3827
vn -0.9239 0.0000 0.3827
vn 0.0505 0.0505 0.9974
vn 0.1951 0.0000 0.9808
vn 0.1988 0.1988 0.9597
vn 0.3827 0.0000 0.9239
vn 0.9239 0.0000 0.3827
vn 0.9808 0.0000 0.1951
vn -0.9239 0.0000 -0.3827
vn 0.3827 0.0000 -0.9239
vn -0.3827 0.0000 0.9239
vn 0.9239 0.0000 0.3827
vn -0.3827 0.0000 -0.9239
vn -0.3827 -0.0000 -0.9239
vn -0.1951 -0.0000 -0.9808
vn 0.1951 0.0000 -0.9808
vn -0.1951 0.0000 -0.9808
vn -0.9239 -0.0000 -0.3827
vn -0.9808 0.0000 -0.1951
vn -0.9808 -0.0000 -0.1951
vn 0.3827 0.0000 -0.9239
vn 0.1951 0.0000 -0.9808
vn 0.9808 0.0000 -0.1951
vn 0.9239 0.0000 -0.3827
vn 0.9239 0.0000 -0.3827
vn 0.9808 0.0000 -0.1951
vn 0.9765 0.0000 0.2154
vn -0.9765 0.0000 0.2154
vn -0.9808 0.0000 0.1951
vn -0.0505 0.0505 0.9974
vn 0.0000 0.0000 1.0000
vn 0.1951 0.0000 0.9808
vn 0.0505 0.0505 0.9974
vn -0.1988 0.1988 0.9597
vn -0.1951 0.0000 0.9808
vn -0.9239 0.0000 0.3827
vn -0.9239 0.0000 0.3827
vn 0.1988 0.1988 0.9597
vn 0.3827 0.0000 0.9239
vn 0.9239 0.0000 0.3827
vn 0.9808 0.0000 0.1951
vn -0.9239 0.0000 -0.3827
vn 0.3827 0.0000 -0.9239
vn -0.3827 0.0000 0.9239
vn 0.9239 0.0000 0.3827
vn -0.2265 -0.6887 -0.6887
vn -0.1877 -0.9641 -0.1877
vn -0.6887 -0.6887 -0.2265
vn -0.6887 -0.2265 -0.6887
vn -0.1877 -0.1877 -0.9641
vn -0.9641 -0.1877 -0.1877
vn -0.1877 0.1877 -0.9641
vn -0.6887 0.2265 -0.6887
vn 0.1877 -0.9641 -0.1877
vn 0.1877 -0.1877 -0.9641
vn -0.1877 -0.9641 0.1877
vn -0.9641 -0.1877 0.1877
vn -0.9641 0.1877 -0.1877
vn 0.1877 0.1877 -0.9641
vn -0.9641 0.1877 0.1877
vn 0.2265 -0.6887 -0.6887
vn -0.6887 -0.6887 0.2265
vn 0.1877 -0.9641 0.1877
vn -0.2265 0.6887 -0.6887
vn -0.6887 0.6887 -0.2265
vn -0.1877 0.9641 -0.1877
vn 0.1877 0.9641 -0.1877
vn -0.6887 0.6887 0.2265
vn 0.0000 1.0000 0.0000
vn 0.0000 1.0000 0.0000
vn 0.0000 1.0000 0.0000
vn 0.0000 1.0000 0.0000
vn 0.2265 0.6887 -0.6887
vn 0.0000 1.0000 0.0000
vn 0.0000 1.0000 0.0000
vn -0.1877 0.9641 0.1877
vn 0.1877 0.9641 0.1877
vn 0.6887 -0.6887 -0.2265
vn 0.6887 -0.2265 -0.6887
vn 0.9641 -0.1877 -0.1877
vn 0.6887 0.2265 -0.6887
vn 0.6887 -0.6887 0.2265
vn 0.9641 -0.1877 0.1877
vn 0.9641 0.1877 -0.1877
vn 0.9641 0.1877 0.1877
vn 0.6887 0.6887 -0.2265
vn 0.6887 0.6887 0.2265
vn -0.2265 -0.6887 0.6887
vn -0.6887 -0.2265 0.6887
vn -0.1877 -0.1877 0.9641
vn -0.6887 0.2265 0.6887
vn 0.1877 -0.1877 0.9641
vn -0.1877 0.1877 0.9641
vn 0.2265 -0.6887 0.6887
vn 0.1877 0.1877 0.9641
vn 0.0000 0.9765 0.2154
vn -0.2265 0.6887 0.6887
vn 0.0000 0.9239 0.3827
vn 0.0000 0.9765 0.2154
vn 0.2265 0.6887 0.6887
vn 0.0000 0.9239 0.3827
vn 0.6887 -0.2265 0.6887
vn 0.6887 0.2265 0.6887
vn -0.6887 -0.6887 -0.2265
vn -0.2265 -0.6887 -0.6887
vn -0.1877 -0.9641 -0.1877
vn -0.6887 -0.2265 -0.6887
vn -0.1877 -0.1877 -0.9641
vn -0.9641 -0.1877 -0.1877
vn -0.6887 0.2265 -0.6887
vn -0.9641 0.1877 -0.1877
vn -0.6887 -0.6887 0.2265
vn -0.9641 -0.1877 0.1877
vn -0.1877 0.1877 -0.9641
vn -0.1877 -0.9641 0.1877
vn -0.9641 0.1877 0.1877
vn -0.2265 0.6887 -0.6887
vn -0.6887 0.6887 -0.2265
vn -0.1877 0.9641 -0.1877
vn -0.6887 0.6887 0.2265
vn -0.1877 0.9641 0.1877
vn 0.1877 -0.9641 -0.1877
vn 0.1877 -0.1877 -0.9641
vn 0.1877 0.1877 -0.9641
vn 0.2265 -0.6887 -0.6887
vn 0.6887 -0.6887 -0.2265
vn 0.6887 -0.2265 -0.6887
vn 0.9641 -0.1877 -0.1877
vn 0.6887 0.2265 -0.6887
vn 0.6887 -0.6887 0.2265
vn 0.9641 -0.1877 0.1877
vn 0.9641 0.1877 -0.1877
vn 0.9641 0.1877 0.1877
vn 0.1877 -0.9641 0.1877
vn 0.1877 0.9641 -0.1877
vn 0.0000 1.0000 0.0000
vn 0.0000 1.0000 0.0000
vn 0.0000 1.0000 0.0000
vn 0.0000 1.0000 0.0000
vn 0.2265 0.6887 -0.6887
vn 0.6887 0.6887 -0.2265
vn 0.0000 1.0000 0.0000
vn 0.0000 1.0000 0.0000
vn 0.1877 0.9641 0.1877
vn 0.6887 0.6887 0.2265
vn -0.2265 -0.6887 0.6887
vn -0.6887 -0.2265 0.6887
vn -0.1877 -0.1877 0.9641
vn -0.1877 0.1877 0.9641
vn -0.6887 0.2265 0.6887
vn -0.2265 0.6887 0.6887
vn 0.1877 -0.1877 0.9641
vn 0.2265 -0.6887 0.6887
vn 0.6887 -0.2265 0.6887
vn 0.1877 0.1877 0.9641
vn 0.6887 0.2265 0.6887
vn -0.0000 0.9765 0.2154
vn 0.0000 0.9239 0.3827
vn 0.0000 0.9765 0.2154
vn 0.2265 0.6887 0.6887
vn 0.0000 0.9239 0.3827
f 1//1 2//2 3//3
f 1//1 4//4 2//2
f 1//1 3//3 5//5
f 1//1 5//5 6//6
f 7//7 8//8 9//9
f 10//10 11//11 12//12
f 13//13 14//14 15//15
f 1//1 16//16 4//4
f 1//1 6//6 17//17
f 7//7 18//18 8//8
f 17//17 6//6 19//19
f 17//17 19//19 20//20
f 17//17 20//20 21//21
f 17//17 21//21 22//22
f 18//18 23//23 8//8
f 16//16 24//24 4//4
f 16//16 25//25 24//24
f 16//16 26//26 25//25
f 27//27 28//28 29//29
f 29//29 30//30 31//31
f 16//16 22//22 26//26
f 17//17 22//22 16//16
f 1//1 32//32 33//33
f 1//1 34//34 35//35
f 1//1 35//35 36//36
f 1//1 33//33 34//34
f 11//11 37//37 12//12
f 1//1 36//36 38//38
f 1//1 38//38 39//39
f 32//32 40//40 33//33
f 32//32 41//41 40//40
f 32//32 42//42 41//41
f 43//43 44//44 45//45
f 1//1 39//39 16//16
f 14//14 46//46 15//15
f 27//27 47//47 28//28
f 29//29 28//28 30//30
f 32//32 16//16 42//42
f 43//43 45//45 48//48
f 16//16 39//39 49//49
f 16//16 49//49 50//50
f 16//16 51//51 42//42
f 16//16 50//50 51//51
f 48//48 45//45 52//52
f 53//53 54//54 55//55
f 56//56 55//55 57//57
f 58//58 59//59 60//60
f 61//61 56//56 62//62
f 63//63 64//64 65//65
f 63//63 66//66 67//67
f 59//59 68//68 69//69
f 70//70 71//71 72//72
f 68//68 73//73 74//74
f 71//71 75//75 76//76
f 75//75 77//77 78//78
f 79//79 67//67 80//80
f 55//55 54//54 57//57
f 58//58 60//60 81//81
f 57//57 62//62 56//56
f 62//62 82//82 61//61
f 65//65 66//66 63//63
f 60//60 59//59 69//69
f 80//80 67//67 66//66
f 68//68 74//74 69//69
f 70//70 72//72 83//83
f 71//71 76//76 72//72
f 79//79 80//80 84//84
f 75//75 78//78 76//76
f 85//85 86//86 87//87
f 88//88 87//87 89//89
f 90//90 91//91 92//92
f 93//93 88//88 94//94
f 95//95 96//96 97//97
f 95//95 98//98 99//99
f 91//91 100//100 101//101
f 102//102 103//103 104//104
f 103//103 105//105 104//104
f 106//106 102//102 107//107
f 100//100 108//108 109//109
f 105//105 110//110 111//111
f 112//112 99//99 113//113
f 87//87 86//86 89//89
f 90//90 92//92 114//114
f 89//89 94//94 88//88
f 94//94 115//115 93//93
f 97//97 98//98 95//95
f 92//92 91//91 101//101
f 113//113 99//99 98//98
f 100//100 109//109 101//101
f 106//106 107//107 116//116
f 102//102 104//104 107//107
f 112//112 113//113 117//117
f 105//105 111//111 104//104
f 118//118 119//119 120//120
f 118//118 120//120 121//121
f 118//118 121//121 122//122
f 120//120 123//123 121//121
f 121//121 124//124 122//122
f 121//121 123//123 125//125
f 118//118 126//126 119//119
f 118//118 122//122 127//127
f 120//120 119//119 128//128
f 120//120 129//129 123//123
f 119//119 126//126 128//128
f 121//121 125//125 124//124
f 123//123 130//130 125//125
f 122//122 124//124 131//131
f 123//123 132//132 130//130
f 118//118 127//127 133//133
f 118//118 133//133 126//126
f 122//122 131//131 127//127
f 120//120 134//134 129//129
f 120//120 128//128 134//134
f 123//123 129//129 132//132
f 126//126 135//135 128//128
f 125//125 136//136 124//124
f 125//125 130//130 137//137
f 125//125 137//137 136//136
f 136//136 137//137 138//138
f 124//124 136//136 131//131
f 136//136 138//138 139//139
f 130//130 132//132 137//137
f 137//137 140//140 138//138
f 138//138 141//141 142//142
f 138//138 143//143 141//141
f 138//138 142//142 144//144
f 138//138 144//144 139//139
f 136//136 145//145 131//131
f 136//136 139//139 145//145
f 139//139 144//144 146//146
f 139//139 146//146 147//147
f 138//138 148//148 143//143
f 137//137 132//132 140//140
f 138//138 140//140 148//148
f 139//139 147//147 149//149
f 133//133 150//150 126//126
f 133//133 151//151 150//150
f 133//133 127//127 151//151
f 150//150 151//151 152//152
f 127//127 153//153 151//151
f 151//151 153//153 152//152
f 126//126 150//150 154//154
f 150//150 152//152 155//155
f 127//127 131//131 153//153
f 152//152 153//153 156//156
f 152//152 156//156 157//157
f 126//126 154//154 135//135
f 150//150 155//155 154//154
f 152//152 157//157 155//155
f 131//131 145//145 153//153
f 153//153 158//158 156//156
f 145//145 158//158 153//153
f 145//145 139//139 158//158
f 156//156 158//158 157//157
f 139//139 149//149 158//158
f 158//158 159//159 157//157
f 158//158 149//149 159//159
f 134//134 128//128 160//160
f 134//134 160//160 161//161
f 134//134 161//161 129//129
f 160//160 162//162 161//161
f 129//129 161//161 163//163
f 161//161 162//162 163//163
f 128//128 135//135 160//160
f 160//160 164//164 162//162
f 129//129 163//163 132//132
f 162//162 165//165 163//163
f 162//162 71//71 165//165
f 162//162 75//75 71//71
f 160//160 135//135 166//166
f 160//160 166//166 164//164
f 162//162 164//164 167//167
f 162//162 167//167 75//75
f 148//148 168//168 143//143
f 132//132 163//163 140//140
f 163//163 169//169 140//140
f 140//140 169//169 148//148
f 163//163 165//165 169//169
f 148//148 169//169 168//168
f 169//169 165//165 70//70
f 169//169 170//170 168//168
f 165//165 71//71 70//70
f 149//149 147//147 171//171
f 172//172 171//171 173//173
f 172//172 77//77 75//75
f 149//149 171//171 172//172
f 172//172 75//75 167//167
f 135//135 154//154 166//166
f 166//166 154//154 174//174
f 154//154 155//155 174//174
f 166//166 174//174 164//164
f 155//155 157//157 174//174
f 174//174 167//167 164//164
f 174//174 157//157 175//175
f 174//174 175//175 167//167
f 157//157 159//159 175//175
f 172//172 175//175 159//159
f 149//149 172//172 159//159
f 172//172 167//167 175//175
f 176//176 177//177 178//178
f 176//176 179//179 177//177
f 179//179 180//180 177//177
f 176//176 181//181 179//179
f 179//179 182//182 180//180
f 179//179 181//181 183//183
f 176//176 178//178 184//184
f 176//176 184//184 181//181
f 181//181 185//185 183//183
f 180//180 182//182 186//186
f 179//179 183//183 182//182
f 178//178 187//187 184//184
f 181//181 184//184 185//185
f 183//183 185//185 188//188
f 182//182 189//189 186//186
f 182//182 183//183 190//190
f 182//182 190//190 189//189
f 190//190 191//191 189//189
f 183//183 192//192 190//190
f 190//190 192//192 191//191
f 183//183 188//188 192//192
f 191//191 192//192 193//193
f 177//177 194//194 178//178
f 177//177 180//180 195//195
f 178//178 194//194 187//187
f 180//180 186//186 196//196
f 177//177 195//195 197//197
f 177//177 197//197 194//194
f 180//180 196//196 195//195
f 197//197 198//198 194//194
f 197//197 199//199 198//198
f 197//197 195//195 199//199
f 198//198 199//199 200//200
f 195//195 201//201 199//199
f 199//199 201//201 200//200
f 194//194 198//198 202//202
f 198//198 200//200 203//203
f 195//195 196//196 201//201
f 200//200 201//201 204//204
f 200//200 204//204 205//205
f 194//194 206//206 187//187
f 194//194 202//202 206//206
f 198//198 203//203 202//202
f 200//200 205//205 203//203
f 186//186 189//189 196//196
f 189//189 191//191 207//207
f 191//191 208//208 207//207
f 191//191 209//209 210//210
f 191//191 211//211 209//209
f 191//191 210//210 208//208
f 189//189 212//212 196//196
f 189//189 207//207 212//212
f 196//196 212//212 201//201
f 201//201 213//213 204//204
f 201//201 212//212 213//213
f 212//212 207//207 213//213
f 207//207 208//208 214//214
f 207//207 214//214 215//215
f 204//204 213//213 205//205
f 207//207 216//216 213//213
f 191//191 193//193 211//211
f 207//207 215//215 216//216
f 213//213 216//216 217//217
f 213//213 217//217 205//205
f 184//184 187//187 218//218
f 184//184 218//218 219//219
f 184//184 219//219 185//185
f 219//219 218//218 220//220
f 185//185 219//219 188//188
f 219//219 220//220 221//221
f 219//219 222//222 188//188
f 219//219 221//221 222//222
f 188//188 222//222 192//192
f 222//222 223//223 192//192
f 192//192 223//223 193//193
f 222//222 221//221 223//223
f 187//187 206//206 218//218
f 218//218 224//224 220//220
f 220//220 224//224 103//103
f 220//220 102//102 221//221
f 220//220 103//103 102//102
f 218//218 206//206 225//225
f 218//218 225//225 224//224
f 206//206 202//202 225//225
f 202//202 226//226 225//225
f 202//202 203//203 226//226
f 225//225 226//226 224//224
f 203//203 205//205 226//226
f 226//226 227//227 224//224
f 224//224 227//227 103//103
f 227//227 105//105 103//103
f 226//226 205//205 228//228
f 226//226 228//228 227//227
f 193//193 229//229 211//211
f 193//193 223//223 229//229
f 223//223 221//221 106//106
f 223//223 230//230 229//229
f 221//221 102//102 106//106
f 216//216 215//215 231//231
f 232//232 231//231 233//233
f 232//232 110//110 105//105
f 216//216 231//231 232//232
f 232//232 105//105 227//227
f 205//205 217//217 228//228
f 228//228 217//217 232//232
f 216//216 232//232 217//217
f 228//228 232//232 227//227
