v -0.11861 -0.04461 -0.23300
v -0.10800 -0.04461 -0.24361
v -0.10800 -0.04900 -0.23300
v -0.12300 -0.03400 -0.23300
v -0.11861 -0.03400 -0.24361
v -0.10800 -0.03400 -0.24800
v -0.11861 -0.04461 0.23300
v -0.11861 0.03400 -0.24361
v -0.10800 0.03400 -0.24800
v 0.10800 -0.04900 -0.23300
v 0.10800 -0.03400 -0.24800
v -0.10800 -0.04900 0.23300
v -0.12300 -0.03400 0.23300
v -0.10800 -0.04461 0.24361
v -0.11861 -0.03400 0.24361
v -0.10800 -0.03400 0.24800
v -0.12300 0.03400 0.23300
v -0.11861 0.03400 0.24361
v 0.10800 -0.04900 0.23300
v 0.10800 -0.04461 0.24361
v -0.10800 0.03400 0.24800
v 0.10800 -0.03400 0.24800
v -0.12300 0.03400 -0.23300
v -0.11861 0.04461 -0.23300
v -0.10800 0.04461 -0.24361
v -0.10800 0.04900 -0.23300
v -0.10800 0.04900 0.23300
v 0.10800 0.03400 -0.24800
v 0.10800 0.04900 -0.23300
v -0.11861 0.04461 0.23300
v -0.10800 0.04461 0.24361
v 0.10800 0.03400 0.24800
v 0.10800 0.04900 0.23300
v 0.10800 -0.04461 -0.24361
v 0.11861 -0.04461 -0.23300
v 0.11861 -0.03400 -0.24361
v 0.12300 -0.03400 -0.23300
v 0.11861 -0.04461 0.23300
v 0.11861 0.03400 -0.24361
v 0.12300 0.03400 -0.23300
v 0.12300 -0.03400 0.23300
v 0.11861 -0.03400 0.24361
v 0.12300 0.03400 0.23300
v 0.10800 0.04461 -0.24361
v 0.11861 0.04461 -0.23300
v 0.10800 0.04461 0.24361
v 0.11861 0.03400 0.24361
v 0.11861 0.04461 0.23300
vn -0.6887 -0.6887 -0.2265
vn -0.2265 -0.6887 -0.6887
vn -0.1877 -0.9641 -0.1877
vn -0.9641 -0.1877 -0.1877
vn -0.6887 -0.2265 -0.6887
vn -0.1877 -0.1877 -0.9641
vn -0.6887 -0.6887 0.2265
vn -0.6887 0.2265 -0.6887
vn -0.1877 0.1877 -0.9641
vn 0.1877 -0.9641 -0.1877
vn 0.1877 -0.1877 -0.9641
vn -0.1877 -0.9641 0.1877
vn -0.9641 -0.1877 0.1877
vn -0.2265 -0.6887 0.6887
vn -0.6887 -0.2265 0.6887
vn -0.1877 -0.1877 0.9641
vn -0.9641 0.1877 0.1877
vn -0.6887 0.2265 0.6887
vn 0.1877 -0.9641 0.1877
vn 0.2265 -0.6887 0.6887
vn -0.1877 0.1877 0.9641
vn 0.1877 -0.1877 0.9641
vn -0.9641 0.1877 -0.1877
vn -0.6887 0.6887 -0.2265
vn -0.2265 0.6887 -0.6887
vn -0.1877 0.9641 -0.1877
vn -0.1877 0.9641 0.1877
vn 0.1877 0.1877 -0.9641
vn 0.1877 0.9641 -0.1877
vn -0.6887 0.6887 0.2265
vn -0.2265 0.6887 0.6887
vn 0.1877 0.1877 0.9641
vn 0.1877 0.9641 0.1877
vn 0.2265 -0.6887 -0.6887
vn 0.6887 -0.6887 -0.2265
vn 0.6887 -0.2265 -0.6887
vn 0.9641 -0.1877 -0.1877
vn 0.6887 -0.6887 0.2265
vn 0.6887 0.2265 -0.6887
vn 0.9641 0.1877 -0.1877
vn 0.9641 -0.1877 0.1877
vn 0.6887 -0.2265 0.6887
vn 0.9641 0.1877 0.1877
vn 0.2265 0.6887 -0.6887
vn 0.6887 0.6887 -0.2265
vn 0.2265 0.6887 0.6887
vn 0.6887 0.2265 0.6887
vn 0.6887 0.6887 0.2265
f 1//1 2//2 3//3
f 4//4 5//5 1//1
f 5//5 2//2 1//1
f 6//6 2//2 5//5
f 7//7 1//1 3//3
f 7//7 4//4 1//1
f 5//5 4//4 8//8
f 9//9 6//6 5//5
f 10//10 3//3 2//2
f 2//2 6//6 11//11
f 3//3 12//12 7//7
f 13//13 4//4 7//7
f 7//7 12//12 14//14
f 13//13 7//7 15//15
f 15//15 7//7 14//14
f 14//14 16//16 15//15
f 4//4 13//13 17//17
f 18//18 13//13 15//15
f 16//16 18//18 15//15
f 3//3 19//19 12//12
f 12//12 20//20 14//14
f 14//14 20//20 16//16
f 21//21 16//16 22//22
f 8//8 4//4 23//23
f 9//9 5//5 8//8
f 4//4 17//17 23//23
f 23//23 24//24 8//8
f 25//25 9//9 8//8
f 25//25 8//8 24//24
f 24//24 26//26 25//25
f 17//17 24//24 23//23
f 27//27 26//26 24//24
f 28//28 6//6 9//9
f 28//28 9//9 25//25
f 26//26 29//29 25//25
f 27//27 29//29 26//26
f 13//13 18//18 17//17
f 16//16 21//21 18//18
f 24//24 17//17 30//30
f 27//27 24//24 30//30
f 30//30 17//17 18//18
f 18//18 21//21 31//31
f 31//31 30//30 18//18
f 31//31 27//27 30//30
f 32//32 31//31 21//21
f 33//33 27//27 31//31
f 10//10 2//2 34//34
f 34//34 2//2 11//11
f 19//19 3//3 10//10
f 11//11 6//6 28//28
f 35//35 10//10 34//34
f 35//35 34//34 36//36
f 34//34 11//11 36//36
f 36//36 37//37 35//35
f 38//38 10//10 35//35
f 37//37 38//38 35//35
f 11//11 39//39 36//36
f 36//36 39//39 37//37
f 37//37 40//40 41//41
f 12//12 19//19 20//20
f 16//16 20//20 22//22
f 38//38 19//19 10//10
f 37//37 41//41 38//38
f 38//38 20//20 19//19
f 42//42 20//20 38//38
f 22//22 20//20 42//42
f 41//41 42//42 38//38
f 42//42 32//32 22//22
f 41//41 43//43 42//42
f 28//28 25//25 44//44
f 44//44 25//25 29//29
f 11//11 28//28 39//39
f 40//40 37//37 39//39
f 39//39 28//28 44//44
f 45//45 39//39 44//44
f 45//45 40//40 39//39
f 44//44 29//29 45//45
f 45//45 43//43 40//40
f 29//29 33//33 45//45
f 21//21 22//22 32//32
f 33//33 29//29 27//27
f 31//31 32//32 46//46
f 33//33 31//31 46//46
f 43//43 41//41 40//40
f 42//42 47//47 32//32
f 42//42 43//43 47//47
f 43//43 45//45 48//48
f 45//45 33//33 48//48
f 32//32 47//47 46//46
f 48//48 46//46 47//47
f 43//43 48//48 47//47
f 33//33 46//46 48//48
