v -0.12300 -0.11084 0.49572
v -0.12300 -0.15000 0.44000
v -0.12300 -0.15000 0.50000
v -0.12300 -0.11867 0.43624
v -0.12300 -0.07235 0.48296
v -0.12300 -0.08788 0.42501
v 0.12300 -0.15000 0.50000
v -0.12300 -0.15000 0.50000
v -0.12300 -0.15000 0.44000
v 0.12300 -0.15000 0.44000
v -0.12300 -0.15000 0.44000
v -0.12300 -0.11867 0.43624
v 0.12300 -0.11084 0.49572
v -0.12300 -0.11084 0.49572
v -0.12300 -0.15000 0.50000
v 0.12300 -0.07235 0.48296
v -0.12300 -0.07235 0.48296
v 0.12300 -0.11867 0.43624
v -0.12300 -0.08788 0.42501
v 0.12300 -0.08788 0.42501
v -0.12300 -0.05816 0.40651
v -0.12300 -0.03519 0.46194
v -0.12300 -0.05816 0.40651
v -0.12300 -0.00000 0.43301
v -0.12300 -0.03000 0.38105
v -0.12300 0.03263 0.39668
v -0.12300 -0.00390 0.34908
v 0.12300 -0.03519 0.46194
v -0.12300 -0.03519 0.46194
v 0.12300 -0.05816 0.40651
v -0.12300 -0.03000 0.38105
v 0.12300 -0.00000 0.43301
v -0.12300 -0.00000 0.43301
v 0.12300 -0.03000 0.38105
v -0.12300 -0.00390 0.34908
v 0.12300 -0.15000 0.50000
v 0.12300 -0.15000 0.44000
v 0.12300 -0.11084 0.49572
v 0.12300 -0.15000 0.50000
v 0.12300 -0.15000 0.44000
v 0.12300 -0.11867 0.43624
v 0.12300 -0.07235 0.48296
v 0.12300 -0.08788 0.42501
v 0.12300 -0.00390 0.34908
v 0.12300 -0.03519 0.46194
v 0.12300 -0.05816 0.40651
v 0.12300 -0.00000 0.43301
v 0.12300 -0.03000 0.38105
v 0.12300 0.03263 0.39668
v 0.12300 -0.00390 0.34908
v -0.12300 0.06213 0.35355
v -0.12300 0.01971 0.31113
v -0.12300 0.08801 0.30438
v -0.12300 0.04040 0.26786
v 0.12300 0.03263 0.39668
v -0.12300 0.03263 0.39668
v -0.12300 0.01971 0.31113
v 0.12300 0.01971 0.31113
v -0.12300 0.04040 0.26786
v 0.12300 0.06213 0.35355
v -0.12300 0.06213 0.35355
v 0.12300 0.04040 0.26786
v -0.12300 0.05785 0.22000
v -0.12300 0.10981 0.25000
v 0.12300 0.08801 0.30438
v -0.12300 0.08801 0.30438
v 0.12300 0.10981 0.25000
v -0.12300 0.10981 0.25000
v -0.12300 0.05785 0.22000
v 0.12300 0.05785 0.22000
v -0.12300 0.07173 0.16838
v -0.12300 0.12716 0.19134
v -0.12300 0.07173 0.16838
v -0.12300 0.13978 0.12941
v -0.12300 0.08182 0.11388
v -0.12300 0.14743 0.06526
v -0.12300 0.08795 0.05743
v -0.12300 0.15000 0.00000
v -0.12300 0.09000 0.00000
v 0.12300 0.07173 0.16838
v -0.12300 0.08182 0.11388
v 0.12300 0.12716 0.19134
v -0.12300 0.12716 0.19134
v 0.12300 0.13978 0.12941
v -0.12300 0.13978 0.12941
v 0.12300 0.08182 0.11388
v -0.12300 0.08795 0.05743
v 0.12300 0.08795 0.05743
v -0.12300 0.09000 0.00000
v 0.12300 0.14743 0.06526
v -0.12300 0.14743 0.06526
v 0.12300 0.15000 0.00000
v -0.12300 0.15000 0.00000
v 0.12300 0.06213 0.35355
v 0.12300 0.01971 0.31113
v 0.12300 0.08801 0.30438
v 0.12300 0.04040 0.26786
v 0.12300 0.10981 0.25000
v 0.12300 0.05785 0.22000
v 0.12300 0.09000 0.00000
v 0.12300 0.12716 0.19134
v 0.12300 0.07173 0.16838
v 0.12300 0.13978 0.12941
v 0.12300 0.08182 0.11388
v 0.12300 0.14743 0.06526
v 0.12300 0.08795 0.05743
v 0.12300 0.09000 0.00000
v 0.12300 0.15000 0.00000
v -0.12300 -0.15000 -0.44000
v -0.12300 -0.11084 -0.49572
v -0.12300 -0.15000 -0.50000
v -0.12300 -0.11867 -0.43624
v -0.12300 -0.07235 -0.48296
v -0.12300 -0.08788 -0.42501
v 0.12300 -0.11867 -0.43624
v -0.12300 -0.11867 -0.43624
v -0.12300 -0.15000 -0.44000
v 0.12300 -0.15000 -0.44000
v -0.12300 -0.15000 -0.44000
v -0.12300 -0.15000 -0.50000
v 0.12300 -0.15000 -0.50000
v -0.12300 -0.15000 -0.50000
v -0.12300 -0.11084 -0.49572
v 0.12300 -0.08788 -0.42501
v -0.12300 -0.08788 -0.42501
v 0.12300 -0.11084 -0.49572
v -0.12300 -0.07235 -0.48296
v -0.12300 -0.05816 -0.40651
v -0.12300 -0.03519 -0.46194
v -0.12300 -0.03000 -0.38105
v -0.12300 -0.00000 -0.43301
v -0.12300 -0.00390 -0.34908
v -0.12300 0.03263 -0.39668
v 0.12300 -0.00390 -0.34908
v -0.12300 -0.00390 -0.34908
v -0.12300 -0.03000 -0.38105
v 0.12300 -0.05816 -0.40651
v -0.12300 -0.05816 -0.40651
v 0.12300 -0.03000 -0.38105
v 0.12300 -0.07235 -0.48296
v -0.12300 -0.03519 -0.46194
v 0.12300 -0.03519 -0.46194
v -0.12300 -0.00000 -0.43301
v 0.12300 -0.15000 -0.44000
v 0.12300 -0.15000 -0.50000
v 0.12300 -0.15000 -0.44000
v 0.12300 -0.15000 -0.50000
v 0.12300 -0.11084 -0.49572
v 0.12300 -0.11867 -0.43624
v 0.12300 -0.07235 -0.48296
v 0.12300 -0.08788 -0.42501
v 0.12300 -0.00000 -0.43301
v 0.12300 -0.05816 -0.40651
v 0.12300 -0.03519 -0.46194
v 0.12300 -0.03000 -0.38105
v 0.12300 -0.00000 -0.43301
v 0.12300 -0.00390 -0.34908
v 0.12300 0.03263 -0.39668
v -0.12300 0.05785 -0.22000
v -0.12300 0.10981 -0.25000
v -0.12300 0.04040 -0.26786
v 0.12300 0.07173 -0.16838
v -0.12300 0.07173 -0.16838
v -0.12300 0.05785 -0.22000
v 0.12300 0.05785 -0.22000
v -0.12300 0.04040 -0.26786
v -0.12300 0.08795 -0.05743
v -0.12300 0.14743 -0.06526
v -0.12300 0.08182 -0.11388
v -0.12300 0.13978 -0.12941
v -0.12300 0.07173 -0.16838
v -0.12300 0.12716 -0.19134
v -0.12300 0.08795 -0.05743
v 0.12300 0.08795 -0.05743
v -0.12300 0.08182 -0.11388
v 0.12300 0.14743 -0.06526
v -0.12300 0.14743 -0.06526
v 0.12300 0.13978 -0.12941
v -0.12300 0.13978 -0.12941
v 0.12300 0.08182 -0.11388
v 0.12300 0.12716 -0.19134
v -0.12300 0.12716 -0.19134
v 0.12300 0.10981 -0.25000
v -0.12300 0.10981 -0.25000
v -0.12300 0.01971 -0.31113
v -0.12300 0.06213 -0.35355
v -0.12300 0.08801 -0.30438
v 0.12300 0.04040 -0.26786
v -0.12300 0.01971 -0.31113
v 0.12300 0.01971 -0.31113
v 0.12300 0.06213 -0.35355
v -0.12300 0.06213 -0.35355
v -0.12300 0.08801 -0.30438
v -0.12300 0.03263 -0.39668
v 0.12300 0.03263 -0.39668
v 0.12300 0.08801 -0.30438
v 0.12300 0.05785 -0.22000
v 0.12300 0.04040 -0.26786
v 0.12300 0.10981 -0.25000
v 0.12300 0.08795 -0.05743
v 0.12300 0.08182 -0.11388
v 0.12300 0.14743 -0.06526
v 0.12300 0.13978 -0.12941
v 0.12300 0.07173 -0.16838
v 0.12300 0.12716 -0.19134
v 0.12300 0.01971 -0.31113
v 0.12300 0.06213 -0.35355
v 0.12300 0.08801 -0.30438
vn -1.0000 0.0000 0.0000
vn -1.0000 0.0000 0.0000
vn -1.0000 0.0000 0.0000
vn -1.0000 0.0000 0.0000
vn -1.0000 0.0000 0.0000
vn -1.0000 0.0000 0.0000
vn 0.0000 -1.0000 0.0000
vn 0.0000 -1.0000 0.0000
vn 0.0000 -1.0000 0.0000
vn -0.0000 -0.1193 -0.9929
vn 0.0000 -0.1193 -0.9929
vn -0.0000 -0.2325 -0.9726
vn -0.0000 0.2128 0.9771
vn 0.0000 0.2128 0.9771
vn -0.0000 0.1086 0.9941
vn 0.0000 0.4055 0.9141
vn 0.0000 0.4055 0.9141
vn -0.0000 -0.2325 -0.9726
vn -0.0000 -0.4378 -0.8991
vn 0.0000 -0.4378 -0.8991
vn 0.0000 -0.6019 -0.7986
vn -1.0000 0.0000 0.0000
vn -1.0000 0.0000 0.0000
vn -1.0000 0.0000 0.0000
vn -1.0000 0.0000 0.0000
vn -1.0000 0.0000 0.0000
vn -1.0000 0.0000 0.0000
vn 0.0000 0.5658 0.8245
vn 0.0000 0.5658 0.8245
vn 0.0000 -0.6019 -0.7986
vn 0.0000 -0.7247 -0.6890
vn 0.0000 0.6915 0.7224
vn 0.0000 0.6915 0.7224
vn 0.0000 -0.7247 -0.6890
vn 0.0000 -0.8136 -0.5815
vn 0.0000 0.1086 0.9941
vn 0.0000 -1.0000 0.0000
vn 1.0000 0.0000 0.0000
vn 1.0000 0.0000 0.0000
vn 1.0000 0.0000 0.0000
vn 1.0000 0.0000 0.0000
vn 1.0000 0.0000 0.0000
vn 1.0000 0.0000 0.0000
vn 0.0000 -0.8136 -0.5815
vn 1.0000 0.0000 0.0000
vn 1.0000 0.0000 0.0000
vn 1.0000 0.0000 0.0000
vn 1.0000 0.0000 0.0000
vn 1.0000 0.0000 0.0000
vn 1.0000 0.0000 0.0000
vn -1.0000 0.0000 0.0000
vn -1.0000 0.0000 0.0000
vn -1.0000 0.0000 0.0000
vn -1.0000 0.0000 0.0000
vn 0.0000 0.7864 0.6177
vn 0.0000 0.7864 0.6177
vn 0.0000 -0.8770 -0.4806
vn 0.0000 -0.8770 -0.4806
vn 0.0000 -0.9219 -0.3874
vn 0.0000 0.8566 0.5160
vn 0.0000 0.8566 0.5160
vn 0.0000 -0.9219 -0.3874
vn 0.0000 -0.9535 -0.3014
vn -1.0000 0.0000 0.0000
vn 0.0000 0.9078 0.4194
vn -0.0000 0.9078 0.4194
vn -0.0000 0.9446 0.3283
vn 0.0000 0.9446 0.3283
vn -1.0000 0.0000 0.0000
vn 0.0000 -0.9535 -0.3014
vn 0.0000 -0.9753 -0.2211
vn -1.0000 0.0000 0.0000
vn -1.0000 0.0000 0.0000
vn -1.0000 0.0000 0.0000
vn -1.0000 0.0000 0.0000
vn -1.0000 0.0000 0.0000
vn -1.0000 0.0000 0.0000
vn -1.0000 0.0000 0.0000
vn -1.0000 0.0000 0.0000
vn 0.0000 -0.9753 -0.2211
vn 0.0000 -0.9894 -0.1451
vn 0.0000 0.9703 0.2419
vn 0.0000 0.9703 0.2419
vn 0.0000 0.9873 0.1592
vn 0.0000 0.9873 0.1592
vn 0.0000 -0.9894 -0.1451
vn 0.0000 -0.9974 -0.0718
vn 0.0000 -0.9974 -0.0718
vn 0.0000 -1.0000 -0.0000
vn 0.0000 0.9969 0.0790
vn 0.0000 0.9969 0.0790
vn 0.0000 1.0000 0.0000
vn -0.0000 1.0000 0.0000
vn 1.0000 0.0000 0.0000
vn 1.0000 0.0000 0.0000
vn 1.0000 0.0000 0.0000
vn 1.0000 0.0000 0.0000
vn 1.0000 0.0000 0.0000
vn 1.0000 0.0000 0.0000
vn 0.0000 -1.0000 0.0000
vn 1.0000 0.0000 0.0000
vn 1.0000 0.0000 0.0000
vn 1.0000 0.0000 0.0000
vn 1.0000 0.0000 0.0000
vn 1.0000 0.0000 0.0000
vn 1.0000 0.0000 0.0000
vn 1.0000 0.0000 0.0000
vn 1.0000 0.0000 0.0000
vn -1.0000 0.0000 0.0000
vn -1.0000 0.0000 0.0000
vn -1.0000 0.0000 0.0000
vn -1.0000 0.0000 0.0000
vn -1.0000 0.0000 0.0000
vn -1.0000 0.0000 0.0000
vn 0.0000 -0.2325 0.9726
vn 0.0000 -0.2325 0.9726
vn 0.0000 -0.1193 0.9929
vn 0.0000 -1.0000 0.0000
vn 0.0000 -1.0000 0.0000
vn 0.0000 -1.0000 0.0000
vn 0.0000 0.1086 -0.9941
vn 0.0000 0.1086 -0.9941
vn 0.0000 0.2128 -0.9771
vn 0.0000 -0.4378 0.8991
vn -0.0000 -0.4378 0.8991
vn 0.0000 0.2128 -0.9771
vn 0.0000 0.4055 -0.9141
vn -1.0000 0.0000 0.0000
vn -1.0000 0.0000 0.0000
vn -1.0000 0.0000 0.0000
vn -1.0000 0.0000 0.0000
vn -1.0000 0.0000 0.0000
vn -1.0000 0.0000 0.0000
vn -0.0000 -0.8136 0.5815
vn -0.0000 -0.8136 0.5815
vn -0.0000 -0.7247 0.6890
vn -0.0000 -0.6019 0.7986
vn 0.0000 -0.6019 0.7986
vn 0.0000 -0.7247 0.6890
vn 0.0000 0.4055 -0.9141
vn 0.0000 0.5658 -0.8245
vn -0.0000 0.5658 -0.8245
vn -0.0000 0.6915 -0.7224
vn 0.0000 -0.1193 0.9929
vn 0.0000 -1.0000 0.0000
vn 1.0000 0.0000 0.0000
vn 1.0000 0.0000 0.0000
vn 1.0000 0.0000 0.0000
vn 1.0000 0.0000 0.0000
vn 1.0000 0.0000 0.0000
vn 1.0000 0.0000 0.0000
vn -0.0000 0.6915 -0.7224
vn 1.0000 0.0000 0.0000
vn 1.0000 0.0000 0.0000
vn 1.0000 0.0000 0.0000
vn 1.0000 0.0000 0.0000
vn 1.0000 0.0000 0.0000
vn 1.0000 0.0000 0.0000
vn -1.0000 0.0000 0.0000
vn -1.0000 0.0000 0.0000
vn -1.0000 0.0000 0.0000
vn 0.0000 -0.9753 0.2211
vn 0.0000 -0.9753 0.2211
vn 0.0000 -0.9535 0.3014
vn 0.0000 -0.9535 0.3014
vn 0.0000 -0.9219 0.3874
vn -1.0000 0.0000 0.0000
vn -1.0000 0.0000 0.0000
vn -1.0000 0.0000 0.0000
vn -1.0000 0.0000 0.0000
vn -1.0000 0.0000 0.0000
vn -1.0000 0.0000 0.0000
vn 0.0000 -0.9974 0.0718
vn 0.0000 -0.9974 0.0718
vn 0.0000 -0.9894 0.1451
vn -0.0000 0.9969 -0.0790
vn 0.0000 0.9969 -0.0790
vn 0.0000 0.9873 -0.1592
vn -0.0000 0.9873 -0.1592
vn 0.0000 -0.9894 0.1451
vn -0.0000 0.9703 -0.2419
vn 0.0000 0.9703 -0.2419
vn 0.0000 0.9446 -0.3283
vn 0.0000 0.9446 -0.3283
vn -1.0000 0.0000 0.0000
vn -1.0000 0.0000 0.0000
vn -1.0000 0.0000 0.0000
vn 0.0000 -0.9219 0.3874
vn 0.0000 -0.8770 0.4806
vn -0.0000 -0.8770 0.4806
vn -0.0000 0.8566 -0.5160
vn -0.0000 0.8566 -0.5160
vn -0.0000 0.9078 -0.4194
vn -0.0000 0.7864 -0.6177
vn -0.0000 0.7864 -0.6177
vn 0.0000 0.9078 -0.4194
vn 1.0000 0.0000 0.0000
vn 1.0000 0.0000 0.0000
vn 1.0000 0.0000 0.0000
vn 1.0000 0.0000 0.0000
vn 1.0000 0.0000 0.0000
vn 1.0000 0.0000 0.0000
vn 1.0000 0.0000 0.0000
vn 1.0000 0.0000 0.0000
vn 1.0000 0.0000 0.0000
vn 1.0000 0.0000 0.0000
vn 1.0000 0.0000 0.0000
vn 1.0000 0.0000 0.0000
f 1//1 2//2 3//3
f 1//1 4//4 2//2
f 5//5 4//4 1//1
f 5//5 6//6 4//4
f 7//7 8//8 9//9
f 10//10 11//11 12//12
f 13//13 14//14 15//15
f 16//16 17//17 14//14
f 18//18 12//12 19//19
f 20//20 19//19 21//21
f 22//22 6//6 5//5
f 22//22 23//23 6//6
f 24//24 23//23 22//22
f 24//24 25//25 23//23
f 26//26 27//27 25//25
f 28//28 29//29 17//17
f 30//30 21//21 31//31
f 32//32 33//33 29//29
f 34//34 31//31 35//35
f 36//36 13//13 15//15
f 37//37 7//7 9//9
f 18//18 10//10 12//12
f 13//13 16//16 14//14
f 20//20 18//18 19//19
f 38//38 39//39 40//40
f 38//38 40//40 41//41
f 42//42 38//38 41//41
f 42//42 41//41 43//43
f 16//16 28//28 17//17
f 30//30 20//20 21//21
f 34//34 30//30 31//31
f 28//28 32//32 29//29
f 44//44 34//34 35//35
f 45//45 42//42 43//43
f 45//45 43//43 46//46
f 47//47 45//45 46//46
f 47//47 46//46 48//48
f 49//49 48//48 50//50
f 26//26 25//25 24//24
f 51//51 27//27 26//26
f 51//51 52//52 27//27
f 53//53 52//52 51//51
f 53//53 54//54 52//52
f 55//55 56//56 33//33
f 44//44 35//35 57//57
f 58//58 57//57 59//59
f 60//60 61//61 56//56
f 62//62 59//59 63//63
f 64//64 54//54 53//53
f 65//65 66//66 61//61
f 67//67 68//68 66//66
f 64//64 69//69 54//54
f 70//70 63//63 71//71
f 72//72 73//73 69//69
f 72//72 69//69 64//64
f 74//74 75//75 73//73
f 74//74 73//73 72//72
f 76//76 77//77 75//75
f 77//77 78//78 79//79
f 76//76 75//75 74//74
f 77//77 76//76 78//78
f 80//80 71//71 81//81
f 82//82 83//83 68//68
f 84//84 85//85 83//83
f 86//86 81//81 87//87
f 88//88 87//87 89//89
f 90//90 91//91 85//85
f 92//92 93//93 91//91
f 32//32 55//55 33//33
f 55//55 60//60 56//56
f 58//58 44//44 57//57
f 62//62 58//58 59//59
f 60//60 65//65 61//61
f 49//49 47//47 48//48
f 94//94 49//49 50//50
f 94//94 50//50 95//95
f 96//96 94//94 95//95
f 96//96 95//95 97//97
f 65//65 67//67 66//66
f 98//98 96//96 97//97
f 70//70 62//62 63//63
f 80//80 70//70 71//71
f 98//98 97//97 99//99
f 86//86 80//80 81//81
f 67//67 82//82 68//68
f 82//82 84//84 83//83
f 88//88 86//86 87//87
f 100//100 88//88 89//89
f 84//84 90//90 85//85
f 90//90 92//92 91//91
f 101//101 99//99 102//102
f 101//101 98//98 99//99
f 103//103 102//102 104//104
f 103//103 101//101 102//102
f 105//105 104//104 106//106
f 106//106 107//107 108//108
f 105//105 103//103 104//104
f 106//106 108//108 105//105
f 109//109 110//110 111//111
f 112//112 110//110 109//109
f 112//112 113//113 110//110
f 114//114 113//113 112//112
f 115//115 116//116 117//117
f 118//118 119//119 120//120
f 121//121 122//122 123//123
f 124//124 125//125 116//116
f 126//126 123//123 127//127
f 128//128 129//129 114//114
f 114//114 129//129 113//113
f 130//130 131//131 128//128
f 128//128 131//131 129//129
f 132//132 133//133 130//130
f 134//134 135//135 136//136
f 137//137 138//138 125//125
f 139//139 136//136 138//138
f 140//140 127//127 141//141
f 142//142 141//141 143//143
f 144//144 115//115 117//117
f 145//145 118//118 120//120
f 126//126 121//121 123//123
f 115//115 124//124 116//116
f 124//124 137//137 125//125
f 140//140 126//126 127//127
f 146//146 147//147 148//148
f 149//149 146//146 148//148
f 149//149 148//148 150//150
f 151//151 149//149 150//150
f 139//139 134//134 136//136
f 137//137 139//139 138//138
f 142//142 140//140 141//141
f 152//152 142//142 143//143
f 153//153 151//151 154//154
f 151//151 150//150 154//154
f 155//155 153//153 156//156
f 153//153 154//154 156//156
f 157//157 155//155 158//158
f 159//159 160//160 161//161
f 162//162 163//163 164//164
f 165//165 164//164 166//166
f 79//79 78//78 167//167
f 167//167 168//168 169//169
f 167//167 78//78 168//168
f 169//169 168//168 170//170
f 169//169 170//170 171//171
f 171//171 172//172 159//159
f 159//159 172//172 160//160
f 171//171 170//170 172//172
f 100//100 89//89 173//173
f 174//174 173//173 175//175
f 176//176 177//177 93//93
f 178//178 179//179 177//177
f 180//180 175//175 163//163
f 181//181 182//182 179//179
f 183//183 184//184 182//182
f 185//185 186//186 132//132
f 132//132 186//186 133//133
f 161//161 187//187 185//185
f 185//185 187//187 186//186
f 130//130 133//133 131//131
f 188//188 166//166 189//189
f 190//190 189//189 135//135
f 191//191 192//192 193//193
f 152//152 143//143 194//194
f 195//195 194//194 192//192
f 161//161 160//160 187//187
f 196//196 193//193 184//184
f 165//165 162//162 164//164
f 197//197 198//198 199//199
f 174//174 100//100 173//173
f 180//180 174//174 175//175
f 92//92 176//176 93//93
f 176//176 178//178 177//177
f 162//162 180//180 163//163
f 178//178 181//181 179//179
f 181//181 183//183 182//182
f 107//107 200//200 108//108
f 200//200 201//201 202//202
f 200//200 202//202 108//108
f 201//201 203//203 202//202
f 201//201 204//204 203//203
f 204//204 197//197 205//205
f 197//197 199//199 205//205
f 204//204 205//205 203//203
f 190//190 188//188 189//189
f 134//134 190//190 135//135
f 188//188 165//165 166//166
f 191//191 195//195 192//192
f 195//195 152//152 194//194
f 206//206 157//157 207//207
f 157//157 158//158 207//207
f 198//198 206//206 208//208
f 206//206 207//207 208//208
f 155//155 156//156 158//158
f 183//183 196//196 184//184
f 196//196 191//191 193//193
f 198//198 208//208 199//199
