v -0.24600 -0.02900 -0.05300
v -0.24600 -0.02900 -0.02800
v -0.24600 0.02900 -0.02800
v -0.24600 -0.02900 -0.05300
v 0.24600 -0.02900 -0.05300
v -0.24600 -0.02900 -0.02800
v -0.24600 -0.02900 -0.05300
v -0.24600 0.02900 -0.05300
v 0.24600 -0.02900 -0.05300
v -0.24600 -0.02900 0.05300
v -0.24600 0.02900 0.05300
v -0.24600 -0.02900 0.02800
v -0.24600 -0.02900 0.05300
v -0.24600 -0.02900 0.02800
v 0.24600 -0.02900 0.02800
v -0.24600 -0.02900 0.05300
v 0.24600 -0.02900 0.05300
v -0.24600 0.02900 0.05300
v -0.24600 0.02900 -0.05300
v -0.24600 0.02900 -0.05300
v -0.24600 0.02900 -0.02800
v 0.24600 0.02900 -0.02800
v -0.24600 0.02900 0.02800
v -0.24600 0.02900 0.05300
v 0.24600 0.02900 0.05300
v -0.24600 0.02900 0.02800
v 0.24600 -0.02900 -0.02800
v 0.24600 -0.02900 -0.05300
v 0.24600 0.02900 -0.05300
v 0.24600 -0.02900 -0.02800
v 0.24600 -0.02900 0.05300
v 0.24600 -0.02900 0.05300
v 0.24600 -0.02900 0.02800
v 0.24600 0.02900 0.02800
v 0.24600 0.02900 -0.05300
v 0.24600 0.02900 -0.05300
v 0.24600 0.02900 -0.02800
v 0.24600 0.02900 0.05300
v 0.24600 0.02900 0.02800
v 0.24600 0.02900 0.05300
v -0.24600 -0.05400 -0.02800
v -0.24600 0.05400 0.02800
v -0.24600 -0.05400 -0.02800
v -0.24600 -0.02900 -0.02800
v 0.24600 -0.05400 -0.02800
v -0.24600 -0.05400 -0.02800
v 0.24600 -0.05400 -0.02800
v -0.24600 -0.05400 0.02800
v -0.24600 -0.05400 0.02800
v -0.24600 -0.05400 0.02800
v 0.24600 -0.02900 0.02800
v -0.24600 -0.02900 0.02800
v -0.24600 0.05400 -0.02800
v -0.24600 0.05400 -0.02800
v 0.24600 0.02900 -0.02800
v -0.24600 0.02900 -0.02800
v -0.24600 0.05400 -0.02800
v -0.24600 0.05400 0.02800
v 0.24600 0.05400 0.02800
v -0.24600 0.05400 0.02800
v -0.24600 0.02900 0.02800
v 0.24600 0.05400 0.02800
v 0.24600 -0.02900 -0.02800
v 0.24600 -0.05400 -0.02800
v 0.24600 -0.05400 0.02800
v 0.24600 -0.05400 0.02800
v 0.24600 -0.05400 0.02800
v 0.24600 0.05400 -0.02800
v 0.24600 0.05400 -0.02800
v 0.24600 0.05400 -0.02800
v 0.24600 0.02900 0.02800
v 0.24600 0.05400 0.02800
vn -1.0000 0.0000 0.0000
vn -1.0000 0.0000 0.0000
vn -1.0000 0.0000 0.0000
vn 0.0000 -1.0000 0.0000
vn 0.0000 -1.0000 0.0000
vn 0.0000 -1.0000 0.0000
vn 0.0000 0.0000 -1.0000
vn 0.0000 0.0000 -1.0000
vn 0.0000 0.0000 -1.0000
vn -1.0000 0.0000 0.0000
vn -1.0000 0.0000 0.0000
vn -1.0000 0.0000 0.0000
vn 0.0000 -1.0000 0.0000
vn 0.0000 -1.0000 0.0000
vn 0.0000 -1.0000 0.0000
vn 0.0000 0.0000 1.0000
vn 0.0000 0.0000 1.0000
vn 0.0000 0.0000 1.0000
vn -1.0000 0.0000 0.0000
vn 0.0000 1.0000 0.0000
vn 0.0000 1.0000 0.0000
vn 0.0000 1.0000 0.0000
vn -1.0000 0.0000 0.0000
vn 0.0000 1.0000 0.0000
vn 0.0000 1.0000 0.0000
vn 0.0000 1.0000 0.0000
vn 0.0000 -1.0000 0.0000
vn 1.0000 0.0000 0.0000
vn 1.0000 0.0000 0.0000
vn 1.0000 0.0000 0.0000
vn 0.0000 -1.0000 0.0000
vn 1.0000 0.0000 0.0000
vn 1.0000 0.0000 0.0000
vn 1.0000 0.0000 0.0000
vn 0.0000 0.0000 -1.0000
vn 0.0000 1.0000 0.0000
vn 1.0000 0.0000 0.0000
vn 0.0000 0.0000 1.0000
vn 0.0000 1.0000 0.0000
vn 1.0000 0.0000 0.0000
vn -1.0000 0.0000 0.0000
vn -1.0000 0.0000 0.0000
vn 0.0000 0.0000 -1.0000
vn 0.0000 0.0000 -1.0000
vn 0.0000 0.0000 -1.0000
vn 0.0000 -1.0000 0.0000
vn 0.0000 -1.0000 0.0000
vn 0.0000 -1.0000 0.0000
vn -1.0000 0.0000 0.0000
vn 0.0000 0.0000 1.0000
vn 0.0000 0.0000 1.0000
vn 0.0000 0.0000 1.0000
vn -1.0000 0.0000 0.0000
vn 0.0000 0.0000 -1.0000
vn 0.0000 0.0000 -1.0000
vn 0.0000 0.0000 -1.0000
vn 0.0000 1.0000 0.0000
vn 0.0000 1.0000 0.0000
vn 0.0000 1.0000 0.0000
vn 0.0000 0.0000 1.0000
vn 0.0000 0.0000 1.0000
vn 0.0000 0.0000 1.0000
vn 0.0000 0.0000 -1.0000
vn 1.0000 0.0000 0.0000
vn 1.0000 0.0000 0.0000
vn 0.0000 -1.0000 0.0000
vn 0.0000 0.0000 1.0000
vn 1.0000 0.0000 0.0000
vn 0.0000 0.0000 -1.0000
vn 0.0000 1.0000 0.0000
vn 0.0000 0.0000 1.0000
vn 1.0000 0.0000 0.0000
f 1//1 2//2 3//3
f 4//4 5//5 6//6
f 7//7 8//8 9//9
f 10//10 11//11 12//12
f 13//13 14//14 15//15
f 16//16 17//17 18//18
f 1//1 3//3 19//19
f 20//20 21//21 22//22
f 11//11 23//23 12//12
f 24//24 25//25 26//26
f 5//5 27//27 6//6
f 28//28 29//29 30//30
f 13//13 15//15 31//31
f 32//32 33//33 34//34
f 8//8 35//35 9//9
f 20//20 22//22 36//36
f 29//29 37//37 30//30
f 18//18 17//17 38//38
f 25//25 39//39 26//26
f 32//32 34//34 40//40
f 41//41 42//42 2//2
f 43//43 44//44 45//45
f 46//46 47//47 48//48
f 49//49 12//12 41//41
f 12//12 23//23 41//41
f 50//50 51//51 52//52
f 42//42 3//3 2//2
f 42//42 53//53 3//3
f 54//54 55//55 56//56
f 41//41 23//23 42//42
f 57//57 58//58 59//59
f 60//60 61//61 62//62
f 45//45 44//44 63//63
f 64//64 30//30 65//65
f 65//65 30//30 37//37
f 48//48 47//47 66//66
f 50//50 67//67 51//51
f 65//65 68//68 33//33
f 54//54 69//69 55//55
f 57//57 59//59 70//70
f 37//37 68//68 65//65
f 62//62 61//61 71//71
f 68//68 34//34 33//33
f 72//72 34//34 68//68
