v -0.37100 -0.02900 -0.05300
v -0.37100 -0.02900 -0.02800
v -0.37100 0.02900 -0.02800
v -0.37100 -0.02900 -0.05300
v 0.37100 -0.02900 -0.05300
v -0.37100 -0.02900 -0.02800
v -0.37100 -0.02900 -0.05300
v -0.37100 0.02900 -0.05300
v 0.37100 -0.02900 -0.05300
v -0.37100 -0.02900 0.05300
v -0.37100 0.02900 0.05300
v -0.37100 -0.02900 0.02800
v -0.37100 -0.02900 0.05300
v -0.37100 -0.02900 0.02800
v 0.37100 -0.02900 0.02800
v -0.37100 -0.02900 0.05300
v 0.37100 -0.02900 0.05300
v -0.37100 0.02900 0.05300
v -0.37100 0.02900 -0.05300
v -0.37100 0.02900 -0.05300
v -0.37100 0.02900 -0.02800
v 0.37100 0.02900 -0.02800
v -0.37100 0.02900 0.02800
v -0.37100 0.02900 0.05300
v 0.37100 0.02900 0.05300
v -0.37100 0.02900 0.02800
v 0.37100 -0.02900 -0.02800
v 0.37100 -0.02900 -0.05300
v 0.37100 0.02900 -0.05300
v 0.37100 -0.02900 -0.02800
v 0.37100 -0.02900 0.05300
v 0.37100 -0.02900 0.02800
v 0.37100 -0.02900 0.01504
v 0.37100 0.02900 -0.01504
v 0.37100 -0.02900 0.05300
v 0.37100 0.02900 -0.05300
v 0.37100 0.02900 -0.05300
v 0.37100 0.02900 -0.02800
v 0.37100 0.02900 0.05300
v 0.37100 0.02900 0.02800
v 0.37100 0.02900 0.02800
v 0.37100 0.02900 0.05300
v -0.37100 -0.05400 -0.02800
v -0.37100 0.05400 0.02800
v -0.37100 -0.05400 -0.02800
v -0.37100 -0.02900 -0.02800
v 0.37100 -0.05400 -0.02800
v -0.37100 -0.05400 -0.02800
v 0.37100 -0.05400 -0.02800
v -0.37100 -0.05400 0.02800
v -0.37100 -0.05400 0.02800
v -0.37100 -0.05400 0.02800
v 0.37100 -0.02900 0.02800
v -0.37100 -0.02900 0.02800
v -0.37100 0.05400 -0.02800
v -0.37100 0.05400 -0.02800
v 0.37100 0.02900 -0.02800
v -0.37100 0.02900 -0.02800
v -0.37100 0.05400 -0.02800
v -0.37100 0.05400 0.02800
v 0.37100 0.05400 0.02800
v -0.37100 0.05400 0.02800
v -0.37100 0.02900 0.02800
v 0.37100 0.05400 0.02800
v 0.37100 -0.02900 -0.02800
v 0.37100 -0.05400 -0.02800
v 0.37100 -0.05400 0.02800
v 0.37100 -0.05400 0.02800
v 0.37100 -0.05400 0.02800
v 0.37100 0.05400 -0.02800
v 0.37100 0.05400 -0.02800
v 0.37100 0.05400 -0.02800
v 0.37100 0.05400 0.02800
v 0.37100 0.02900 0.02800
vn -1.0000 0.0000 0.0000
vn -1.0000 0.0000 0.0000
vn -1.0000 0.0000 0.0000
vn 0.0000 -1.0000 0.0000
vn 0.0000 -1.0000 0.0000
vn 0.0000 -1.0000 0.0000
vn 0.0000 0.0000 -1.0000
vn 0.0000 0.0000 -1.0000
vn 0.0000 0.0000 -1.0000
vn -1.0000 0.0000 0.0000
vn -1.0000 0.0000 0.0000
vn -1.0000 0.0000 0.0000
vn 0.0000 -1.0000 0.0000
vn 0.0000 -1.0000 0.0000
vn 0.0000 -1.0000 0.0000
vn 0.0000 0.0000 1.0000
vn 0.0000 0.0000 1.0000
vn 0.0000 0.0000 1.0000
vn -1.0000 0.0000 0.0000
vn 0.0000 1.0000 0.0000
vn 0.0000 1.0000 0.0000
vn 0.0000 1.0000 0.0000
vn -1.0000 0.0000 0.0000
vn 0.0000 1.0000 0.0000
vn 0.0000 1.0000 0.0000
vn 0.0000 1.0000 0.0000
vn 0.0000 -1.0000 0.0000
vn 1.0000 0.0000 0.0000
vn 1.0000 0.0000 0.0000
vn 1.0000 0.0000 0.0000
vn 0.0000 -1.0000 0.0000
vn 1.0000 0.0000 0.0000
vn 1.0000 0.0000 0.0000
vn 1.0000 0.0000 0.0000
vn 1.0000 0.0000 0.0000
vn 0.0000 0.0000 -1.0000
vn 0.0000 1.0000 0.0000
vn 1.0000 0.0000 0.0000
vn 0.0000 0.0000 1.0000
vn 0.0000 1.0000 0.0000
vn 1.0000 0.0000 0.0000
vn 1.0000 0.0000 0.0000
vn -1.0000 0.0000 0.0000
vn -1.0000 0.0000 0.0000
vn 0.0000 0.0000 -1.0000
vn 0.0000 0.0000 -1.0000
vn 0.0000 0.0000 -1.0000
vn 0.0000 -1.0000 0.0000
vn 0.0000 -1.0000 0.0000
vn 0.0000 -1.0000 0.0000
vn -1.0000 0.0000 0.0000
vn 0.0000 0.0000 1.0000
vn 0.0000 0.0000 1.0000
vn 0.0000 0.0000 1.0000
vn -1.0000 0.0000 0.0000
vn 0.0000 0.0000 -1.0000
vn 0.0000 0.0000 -1.0000
vn 0.0000 0.0000 -1.0000
vn 0.0000 1.0000 0.0000
vn 0.0000 1.0000 0.0000
vn 0.0000 1.0000 0.0000
vn 0.0000 0.0000 1.0000
vn 0.0000 0.0000 1.0000
vn 0.0000 0.0000 1.0000
vn 0.0000 0.0000 -1.0000
vn 1.0000 0.0000 0.0000
vn 1.0000 0.0000 0.0000
vn 0.0000 -1.0000 0.0000
vn 0.0000 0.0000 1.0000
vn 0.0000 0.0000 -1.0000
vn 0.0000 1.0000 0.0000
vn 1.0000 0.0000 0.0000
vn 1.0000 0.0000 0.0000
vn 0.0000 0.0000 1.0000
f 1//1 2//2 3//3
f 4//4 5//5 6//6
f 7//7 8//8 9//9
f 10//10 11//11 12//12
f 13//13 14//14 15//15
f 16//16 17//17 18//18
f 1//1 3//3 19//19
f 20//20 21//21 22//22
f 11//11 23//23 12//12
f 24//24 25//25 26//26
f 5//5 27//27 6//6
f 28//28 29//29 30//30
f 13//13 15//15 31//31
f 32//32 33//33 34//34
f 35//35 32//32 34//34
f 8//8 36//36 9//9
f 20//20 22//22 37//37
f 29//29 38//38 30//30
f 18//18 17//17 39//39
f 25//25 40//40 26//26
f 35//35 34//34 41//41
f 35//35 41//41 42//42
f 43//43 44//44 2//2
f 45//45 46//46 47//47
f 48//48 49//49 50//50
f 51//51 12//12 43//43
f 12//12 23//23 43//43
f 52//52 53//53 54//54
f 44//44 3//3 2//2
f 44//44 55//55 3//3
f 56//56 57//57 58//58
f 43//43 23//23 44//44
f 59//59 60//60 61//61
f 62//62 63//63 64//64
f 47//47 46//46 65//65
f 66//66 30//30 67//67
f 67//67 30//30 38//38
f 50//50 49//49 68//68
f 52//52 69//69 53//53
f 67//67 33//33 32//32
f 38//38 33//33 67//67
f 56//56 70//70 57//57
f 59//59 61//61 71//71
f 38//38 34//34 33//33
f 72//72 34//34 38//38
f 72//72 73//73 34//34
f 64//64 63//63 74//74
f 73//73 41//41 34//34
