v -0.74600 -0.02900 -0.05300
v -0.74600 -0.02900 -0.02800
v -0.74600 0.02900 -0.02800
v -0.74600 -0.02900 -0.05300
v 0.74600 -0.02900 -0.05300
v -0.74600 -0.02900 -0.02800
v -0.74600 -0.02900 -0.05300
v -0.74600 0.02900 -0.05300
v 0.74600 -0.02900 -0.05300
v -0.74600 -0.02900 0.05300
v -0.74600 0.02900 0.05300
v -0.74600 -0.02900 0.02800
v -0.74600 -0.02900 0.05300
v -0.74600 -0.02900 0.02800
v 0.74600 -0.02900 0.02800
v -0.74600 -0.02900 0.05300
v 0.74600 -0.02900 0.05300
v -0.74600 0.02900 0.05300
v -0.74600 0.02900 -0.05300
v -0.74600 0.02900 -0.05300
v -0.74600 0.02900 -0.02800
v 0.74600 0.02900 -0.02800
v -0.74600 0.02900 0.02800
v -0.74600 0.02900 0.05300
v 0.74600 0.02900 0.05300
v -0.74600 0.02900 0.02800
v 0.74600 -0.02900 -0.02800
v 0.74600 -0.02900 -0.05300
v 0.74600 -0.00890 -0.02800
v 0.74600 -0.02900 -0.02800
v 0.74600 0.02900 -0.05300
v 0.74600 -0.02900 -0.00848
v 0.74600 -0.02900 0.05300
v 0.74600 -0.02900 0.02800
v 0.74600 -0.02900 0.01504
v 0.74600 0.00000 0.00000
v 0.74600 -0.02900 0.05300
v 0.74600 0.02900 -0.05300
v 0.74600 0.02900 -0.05300
v 0.74600 0.01532 -0.02800
v 0.74600 0.02900 -0.02800
v 0.74600 0.02900 0.02800
v 0.74600 0.02900 0.05300
v 0.74600 0.02900 0.02800
v 0.74600 0.02900 0.05300
v -0.74600 -0.05400 -0.02800
v -0.74600 0.05400 0.02800
v -0.74600 -0.05400 -0.02800
v -0.74600 -0.02900 -0.02800
v 0.74600 -0.05400 -0.02800
v -0.74600 -0.05400 -0.02800
v 0.74600 -0.05400 -0.02800
v -0.74600 -0.05400 0.02800
v -0.74600 -0.05400 0.02800
v -0.74600 -0.05400 0.02800
v 0.74600 -0.02900 0.02800
v -0.74600 -0.02900 0.02800
v -0.74600 0.05400 -0.02800
v -0.74600 0.05400 -0.02800
v 0.74600 0.02900 -0.02800
v -0.74600 0.02900 -0.02800
v -0.74600 0.05400 -0.02800
v -0.74600 0.05400 0.02800
v 0.74600 0.05400 0.02800
v -0.74600 0.05400 0.02800
v -0.74600 0.02900 0.02800
v 0.74600 0.05400 0.02800
v 0.74600 -0.02900 -0.02800
v 0.74600 -0.05400 -0.02800
v 0.74600 -0.05400 0.02800
v 0.74600 -0.05400 0.02800
v 0.74600 -0.05400 0.02800
v 0.74600 0.05400 -0.02800
v 0.74600 0.05400 -0.02800
v 0.74600 0.05400 -0.02800
v 0.74600 0.02900 0.02800
v 0.74600 0.05400 0.02800
vn -1.0000 0.0000 0.0000
vn -1.0000 0.0000 0.0000
vn -1.0000 0.0000 0.0000
vn 0.0000 -1.0000 0.0000
vn 0.0000 -1.0000 0.0000
vn 0.0000 -1.0000 0.0000
vn 0.0000 0.0000 -1.0000
vn 0.0000 0.0000 -1.0000
vn 0.0000 0.0000 -1.0000
vn -1.0000 0.0000 0.0000
vn -1.0000 0.0000 0.0000
vn -1.0000 0.0000 0.0000
vn 0.0000 -1.0000 0.0000
vn 0.0000 -1.0000 0.0000
vn 0.0000 -1.0000 0.0000
vn 0.0000 0.0000 1.0000
vn 0.0000 0.0000 1.0000
vn 0.0000 0.0000 1.0000
vn -1.0000 0.0000 0.0000
vn 0.0000 1.0000 0.0000
vn 0.0000 1.0000 0.0000
vn 0.0000 1.0000 0.0000
vn -1.0000 0.0000 0.0000
vn 0.0000 1.0000 0.0000
vn 0.0000 1.0000 0.0000
vn 0.0000 1.0000 0.0000
vn 0.0000 -1.0000 0.0000
vn 1.0000 0.0000 0.0000
vn 1.0000 0.0000 0.0000
vn 1.0000 0.0000 0.0000
vn 1.0000 0.0000 0.0000
vn 1.0000 0.0000 0.0000
vn 0.0000 -1.0000 0.0000
vn 1.0000 0.0000 0.0000
vn 1.0000 0.0000 0.0000
vn 1.0000 0.0000 0.0000
vn 1.0000 0.0000 0.0000
vn 0.0000 0.0000 -1.0000
vn 0.0000 1.0000 0.0000
vn 1.0000 0.0000 0.0000
vn 1.0000 0.0000 0.0000
vn 1.0000 0.0000 0.0000
vn 0.0000 0.0000 1.0000
vn 0.0000 1.0000 0.0000
vn 1.0000 0.0000 0.0000
vn -1.0000 0.0000 0.0000
vn -1.0000 0.0000 0.0000
vn 0.0000 0.0000 -1.0000
vn 0.0000 0.0000 -1.0000
vn 0.0000 0.0000 -1.0000
vn 0.0000 -1.0000 0.0000
vn 0.0000 -1.0000 0.0000
vn 0.0000 -1.0000 0.0000
vn -1.0000 0.0000 0.0000
vn 0.0000 0.0000 1.0000
vn 0.0000 0.0000 1.0000
vn 0.0000 0.0000 1.0000
vn -1.0000 0.0000 0.0000
vn 0.0000 0.0000 -1.0000
vn 0.0000 0.0000 -1.0000
vn 0.0000 0.0000 -1.0000
vn 0.0000 1.0000 0.0000
vn 0.0000 1.0000 0.0000
vn 0.0000 1.0000 0.0000
vn 0.0000 0.0000 1.0000
vn 0.0000 0.0000 1.0000
vn 0.0000 0.0000 1.0000
vn 0.0000 0.0000 -1.0000
vn 1.0000 0.0000 0.0000
vn 1.0000 0.0000 0.0000
vn 0.0000 -1.0000 0.0000
vn 0.0000 0.0000 1.0000
vn 0.0000 0.0000 -1.0000
vn 0.0000 1.0000 0.0000
vn 1.0000 0.0000 0.0000
vn 0.0000 0.0000 1.0000
vn 1.0000 0.0000 0.0000
f 1//1 2//2 3//3
f 4//4 5//5 6//6
f 7//7 8//8 9//9
f 10//10 11//11 12//12
f 13//13 14//14 15//15
f 16//16 17//17 18//18
f 1//1 3//3 19//19
f 20//20 21//21 22//22
f 11//11 23//23 12//12
f 24//24 25//25 26//26
f 5//5 27//27 6//6
f 28//28 29//29 30//30
f 28//28 31//31 29//29
f 29//29 32//32 30//30
f 13//13 15//15 33//33
f 34//34 35//35 36//36
f 37//37 34//34 36//36
f 8//8 38//38 9//9
f 20//20 22//22 39//39
f 31//31 40//40 29//29
f 31//31 41//41 40//40
f 41//41 42//42 40//40
f 18//18 17//17 43//43
f 25//25 44//44 26//26
f 45//45 36//36 40//40
f 42//42 45//45 40//40
f 37//37 36//36 45//45
f 46//46 47//47 2//2
f 48//48 49//49 50//50
f 51//51 52//52 53//53
f 54//54 12//12 46//46
f 12//12 23//23 46//46
f 55//55 56//56 57//57
f 47//47 3//3 2//2
f 58//58 3//3 47//47
f 59//59 60//60 61//61
f 46//46 23//23 47//47
f 62//62 63//63 64//64
f 65//65 66//66 67//67
f 50//50 49//49 68//68
f 69//69 32//32 70//70
f 69//69 30//30 32//32
f 32//32 29//29 36//36
f 53//53 52//52 71//71
f 55//55 72//72 56//56
f 70//70 32//32 35//35
f 70//70 35//35 34//34
f 32//32 36//36 35//35
f 59//59 73//73 60//60
f 62//62 64//64 74//74
f 29//29 40//40 36//36
f 75//75 42//42 41//41
f 67//67 66//66 76//76
f 75//75 77//77 42//42
