v -0.99600 -0.02900 -0.05300
v -0.99600 -0.02900 -0.02800
v -0.99600 0.02900 0.05300
v -0.99600 -0.02900 -0.05300
v 0.99600 -0.02900 -0.05300
v -0.99600 -0.02900 -0.02800
v -0.99600 -0.02900 -0.05300
v -0.99600 0.02900 -0.05300
v 0.99600 -0.02900 -0.05300
v -0.99600 -0.02900 0.02800
v -0.99600 -0.02900 0.05300
v -0.99600 -0.02900 0.05300
v -0.99600 -0.02900 0.02800
v 0.99600 -0.02900 0.02800
v -0.99600 -0.02900 0.05300
v 0.99600 -0.02900 0.05300
v -0.99600 0.02900 0.05300
v -0.99600 0.02900 -0.02800
v -0.99600 0.02900 -0.05300
v -0.99600 0.02900 0.02800
v -0.99600 0.02900 -0.05300
v -0.99600 0.02900 -0.02800
v 0.99600 0.02900 -0.02800
v -0.99600 0.02900 0.05300
v 0.99600 0.02900 0.05300
v -0.99600 0.02900 0.02800
v 0.99600 -0.02900 -0.02800
v 0.99600 -0.02900 -0.05300
v 0.99600 0.01532 -0.02800
v 0.99600 -0.02900 -0.02800
v 0.99600 -0.02900 0.05300
v 0.99600 -0.02900 -0.02800
v 0.99600 -0.02900 0.05300
v 0.99600 0.00000 0.00000
v 0.99600 0.02900 -0.05300
v 0.99600 0.02900 -0.05300
v 0.99600 0.02900 -0.05300
v 0.99600 0.02900 -0.02800
v 0.99600 0.02900 0.02800
v 0.99600 0.02900 0.05300
v 0.99600 0.02900 0.02800
v 0.99600 0.02900 0.05300
v -0.99600 -0.05400 -0.02800
v -0.99600 -0.05400 -0.02800
v -0.99600 -0.02900 -0.02800
v 0.99600 -0.05400 -0.02800
v -0.99600 -0.05400 -0.02800
v 0.99600 -0.05400 -0.02800
v -0.99600 -0.05400 0.02800
v -0.99600 -0.05400 0.02800
v -0.99600 -0.05400 0.02800
v 0.99600 -0.02900 0.02800
v -0.99600 -0.02900 0.02800
v -0.99600 0.05400 -0.02800
v -0.99600 0.05400 0.02800
v -0.99600 0.05400 -0.02800
v 0.99600 0.02900 -0.02800
v -0.99600 0.02900 -0.02800
v -0.99600 0.05400 -0.02800
v -0.99600 0.05400 0.02800
v 0.99600 0.05400 0.02800
v -0.99600 0.05400 0.02800
v -0.99600 0.02900 0.02800
v 0.99600 0.05400 0.02800
v 0.99600 -0.02900 -0.02800
v 0.99600 -0.05400 -0.02800
v 0.99600 -0.02900 -0.02800
v 0.99600 -0.05400 0.02800
v 0.99600 -0.05400 0.02800
v 0.99600 -0.05400 0.02800
v 0.99600 -0.02900 0.02800
v 0.99600 0.05400 -0.02800
v 0.99600 0.05400 -0.02800
v 0.99600 0.05400 -0.02800
v 0.99600 0.02900 0.02800
v 0.99600 0.05400 0.02800
vn -1.0000 0.0000 0.0000
vn -1.0000 0.0000 0.0000
vn -1.0000 0.0000 0.0000
vn 0.0000 -1.0000 0.0000
vn 0.0000 -1.0000 0.0000
vn 0.0000 -1.0000 0.0000
vn 0.0000 0.0000 -1.0000
vn 0.0000 0.0000 -1.0000
vn 0.0000 0.0000 -1.0000
vn -1.0000 0.0000 0.0000
vn -1.0000 0.0000 0.0000
vn 0.0000 -1.0000 0.0000
vn 0.0000 -1.0000 0.0000
vn 0.0000 -1.0000 0.0000
vn 0.0000 0.0000 1.0000
vn 0.0000 0.0000 1.0000
vn 0.0000 0.0000 1.0000
vn -1.0000 0.0000 0.0000
vn -1.0000 0.0000 0.0000
vn -1.0000 0.0000 0.0000
vn 0.0000 1.0000 0.0000
vn 0.0000 1.0000 0.0000
vn 0.0000 1.0000 0.0000
vn 0.0000 1.0000 0.0000
vn 0.0000 1.0000 0.0000
vn 0.0000 1.0000 0.0000
vn 0.0000 -1.0000 0.0000
vn 1.0000 0.0000 0.0000
vn 1.0000 0.0000 0.0000
vn 1.0000 0.0000 0.0000
vn 0.0000 -1.0000 0.0000
vn 0.0000 0.0000 0.0000
vn 1.0000 0.0000 0.0000
vn 1.0000 0.0000 0.0000
vn 0.0000 0.0000 -1.0000
vn 0.0000 1.0000 0.0000
vn 1.0000 0.0000 0.0000
vn 1.0000 0.0000 0.0000
vn 1.0000 0.0000 0.0000
vn 0.0000 0.0000 1.0000
vn 0.0000 1.0000 0.0000
vn 1.0000 0.0000 0.0000
vn -1.0000 0.0000 0.0000
vn 0.0000 0.0000 -1.0000
vn 0.0000 0.0000 -1.0000
vn 0.0000 0.0000 -1.0000
vn 0.0000 -1.0000 0.0000
vn 0.0000 -1.0000 0.0000
vn 0.0000 -1.0000 0.0000
vn -1.0000 0.0000 0.0000
vn 0.0000 0.0000 1.0000
vn 0.0000 0.0000 1.0000
vn 0.0000 0.0000 1.0000
vn -1.0000 0.0000 0.0000
vn -1.0000 0.0000 0.0000
vn 0.0000 0.0000 -1.0000
vn 0.0000 0.0000 -1.0000
vn 0.0000 0.0000 -1.0000
vn 0.0000 1.0000 0.0000
vn 0.0000 1.0000 0.0000
vn 0.0000 1.0000 0.0000
vn 0.0000 0.0000 1.0000
vn 0.0000 0.0000 1.0000
vn 0.0000 0.0000 1.0000
vn 0.0000 0.0000 -1.0000
vn 1.0000 0.0000 0.0000
vn 1.0000 0.0000 0.0000
vn 1.0000 0.0000 0.0000
vn 0.0000 -1.0000 0.0000
vn 0.0000 0.0000 1.0000
vn 1.0000 0.0000 0.0000
vn 0.0000 0.0000 -1.0000
vn 0.0000 1.0000 0.0000
vn 1.0000 0.0000 0.0000
vn 0.0000 0.0000 1.0000
vn 1.0000 0.0000 0.0000
f 1//1 2//2 3//3
f 4//4 5//5 6//6
f 7//7 8//8 9//9
f 3//3 2//2 10//10
f 11//11 3//3 10//10
f 12//12 13//13 14//14
f 15//15 16//16 17//17
f 1//1 18//18 19//19
f 1//1 20//20 18//18
f 21//21 22//22 23//23
f 3//3 20//20 1//1
f 24//24 25//25 26//26
f 5//5 27//27 6//6
f 28//28 29//29 30//30
f 12//12 14//14 31//31
f 31//31 14//14 32//32
f 33//33 30//30 34//34
f 8//8 35//35 9//9
f 21//21 23//23 36//36
f 28//28 37//37 29//29
f 37//37 38//38 29//29
f 38//38 39//39 29//29
f 17//17 16//16 40//40
f 25//25 41//41 26//26
f 42//42 34//34 29//29
f 39//39 42//42 29//29
f 33//33 34//34 42//42
f 43//43 10//10 2//2
f 44//44 45//45 46//46
f 47//47 48//48 49//49
f 43//43 50//50 10//10
f 51//51 52//52 53//53
f 54//54 18//18 55//55
f 56//56 57//57 58//58
f 55//55 18//18 20//20
f 59//59 60//60 61//61
f 62//62 63//63 64//64
f 46//46 45//45 65//65
f 66//66 67//67 68//68
f 34//34 30//30 29//29
f 49//49 48//48 69//69
f 51//51 70//70 52//52
f 68//68 67//67 71//71
f 56//56 72//72 57//57
f 59//59 61//61 73//73
f 74//74 39//39 38//38
f 64//64 63//63 75//75
f 74//74 76//76 39//39
