v -0.24566 -0.01666 -0.74000
v -0.24000 -0.01666 -0.74566
v -0.24000 -0.01900 -0.74000
v -0.24000 -0.01900 -0.66300
v -0.24566 -0.01100 -0.74566
v -0.24566 -0.01666 -0.66300
v -0.24800 -0.01100 -0.74000
v -0.24566 -0.01666 -0.66300
v -0.24000 -0.01100 -0.74800
v -0.24800 -0.01100 -0.66300
v -0.24800 -0.00100 -0.66300
v -0.24800 0.07100 -0.74000
v -0.24000 0.07100 -0.74800
v -0.24800 -0.00100 -0.58700
v 0.24000 -0.01900 -0.74000
v 0.24000 -0.01900 -0.66300
v 0.24000 -0.01100 -0.74800
v -0.24000 -0.01900 -0.58700
v -0.24000 -0.01900 0.58700
v -0.24566 -0.01666 -0.58700
v -0.24800 -0.01100 -0.58700
v -0.24566 -0.01666 -0.58700
v -0.24566 -0.01666 0.58700
v -0.24800 -0.01100 0.58700
v -0.24566 -0.01666 0.58700
v -0.24800 -0.00100 0.58700
v -0.24800 -0.00100 0.66300
v 0.24000 -0.01900 0.58700
v -0.24000 -0.01900 0.74000
v -0.24566 -0.01666 0.66300
v -0.24000 -0.01900 0.66300
v -0.24566 -0.01666 0.74000
v -0.24800 -0.01100 0.66300
v -0.24566 -0.01666 0.66300
v -0.24000 -0.01666 0.74566
v -0.24566 -0.01100 0.74566
v -0.24800 -0.01100 0.74000
v -0.24000 -0.01100 0.74800
v -0.24800 0.07100 0.74000
v -0.24566 0.07100 0.74566
v 0.24000 -0.01900 0.74000
v 0.24000 -0.01666 0.74566
v 0.24000 -0.01100 0.74800
v -0.24000 0.07100 0.74800
v -0.24566 0.07100 -0.74566
v -0.24566 0.07666 -0.74000
v -0.24000 0.07666 -0.74566
v 0.24000 0.07100 -0.74800
v -0.24000 0.07900 -0.74000
v -0.20000 0.07900 -0.62500
v -0.18995 0.07900 -0.66250
v -0.16250 0.07900 -0.68995
v -0.20000 0.07900 -0.37500
v -0.12500 0.07900 -0.70000
v -0.18995 0.07900 -0.58750
v -0.18995 0.07900 -0.41250
v -0.16250 0.07900 -0.56005
v -0.16250 0.07900 -0.43995
v -0.12500 0.07900 -0.45000
v -0.12500 0.07900 -0.55000
v 0.24000 0.07900 -0.74000
v 0.12500 0.07900 -0.70000
v -0.08750 0.07900 -0.68995
v 0.08750 0.07900 -0.68995
v -0.06005 0.07900 -0.66250
v 0.06005 0.07900 -0.66250
v -0.05000 0.07900 -0.62500
v -0.06005 0.07900 -0.58750
v 0.06005 0.07900 -0.58750
v -0.08750 0.07900 -0.56005
v -0.08750 0.07900 -0.43995
v -0.06005 0.07900 -0.41250
v 0.06005 0.07900 -0.41250
v -0.05000 0.07900 -0.37500
v -0.24566 0.07666 0.74000
v -0.20000 0.07900 -0.12500
v -0.18995 0.07900 -0.33750
v -0.18995 0.07900 -0.16250
v -0.16250 0.07900 -0.31005
v -0.16250 0.07900 -0.18995
v -0.12500 0.07900 -0.30000
v -0.12500 0.07900 -0.20000
v -0.24000 0.07900 0.74000
v -0.20000 0.07900 0.12500
v -0.18995 0.07900 -0.08750
v -0.18995 0.07900 0.08750
v -0.16250 0.07900 -0.06005
v -0.16250 0.07900 0.06005
v -0.12500 0.07900 -0.05000
v -0.08750 0.07900 -0.18995
v -0.08750 0.07900 -0.31005
v -0.06005 0.07900 -0.33750
v -0.06005 0.07900 -0.16250
v 0.06005 0.07900 -0.33750
v -0.05000 0.07900 -0.12500
v 0.08750 0.07900 -0.31005
v -0.12500 0.07900 0.05000
v -0.08750 0.07900 -0.06005
v -0.06005 0.07900 -0.08750
v -0.08750 0.07900 0.06005
v -0.06005 0.07900 0.08750
v -0.05000 0.07900 0.12500
v -0.06005 0.07900 0.16250
v -0.24000 0.07666 0.74566
v 0.24000 0.07100 0.74800
v -0.18995 0.07900 0.33750
v -0.18995 0.07900 0.16250
v -0.20000 0.07900 0.37500
v -0.16250 0.07900 0.18995
v -0.16250 0.07900 0.31005
v -0.12500 0.07900 0.20000
v -0.12500 0.07900 0.30000
v -0.08750 0.07900 0.31005
v -0.08750 0.07900 0.18995
v -0.06005 0.07900 0.33750
v 0.05000 0.07900 0.12500
v -0.05000 0.07900 0.37500
v 0.06005 0.07900 0.33750
v -0.18995 0.07900 0.41250
v -0.16250 0.07900 0.43995
v -0.18995 0.07900 0.58750
v -0.16250 0.07900 0.56005
v -0.12500 0.07900 0.45000
v -0.08750 0.07900 0.43995
v -0.20000 0.07900 0.62500
v -0.18995 0.07900 0.66250
v -0.16250 0.07900 0.68995
v -0.12500 0.07900 0.70000
v -0.06005 0.07900 0.41250
v -0.12500 0.07900 0.55000
v 0.05000 0.07900 0.37500
v 0.06005 0.07900 0.41250
v -0.08750 0.07900 0.56005
v -0.06005 0.07900 0.58750
v 0.24000 0.07900 0.74000
v -0.05000 0.07900 0.62500
v 0.06005 0.07900 0.58750
v -0.06005 0.07900 0.66250
v 0.06005 0.07900 0.66250
v 0.08750 0.07900 0.68995
v -0.08750 0.07900 0.68995
v 0.24000 -0.01666 -0.74566
v 0.24566 -0.01666 -0.74000
v 0.24566 -0.01666 -0.66300
v 0.24566 -0.01100 -0.74566
v 0.24800 -0.01100 -0.66300
v 0.24566 -0.01666 -0.66300
v 0.24800 -0.01100 -0.74000
v 0.24800 -0.00100 -0.66300
v 0.24566 0.07100 -0.74566
v 0.24800 0.07100 -0.74000
v 0.24800 -0.00100 -0.58700
v 0.24000 -0.01900 -0.58700
v 0.24566 -0.01666 -0.58700
v 0.24566 -0.01666 0.58700
v 0.24566 -0.01666 -0.58700
v 0.24800 -0.01100 -0.58700
v 0.24800 -0.01100 0.58700
v 0.24800 -0.00100 0.58700
v 0.24566 -0.01666 0.58700
v 0.24800 -0.00100 0.66300
v 0.24000 -0.01900 0.66300
v 0.24566 -0.01666 0.74000
v 0.24566 -0.01666 0.66300
v 0.24566 -0.01666 0.66300
v 0.24800 -0.01100 0.74000
v 0.24566 -0.01100 0.74566
v 0.24800 -0.01100 0.66300
v 0.24566 0.07100 0.74566
v 0.24800 0.07100 0.74000
v 0.24000 0.07666 -0.74566
v 0.24566 0.07666 -0.74000
v 0.05000 0.07900 -0.62500
v 0.05000 0.07900 -0.37500
v 0.08750 0.07900 -0.56005
v 0.08750 0.07900 -0.43995
v 0.12500 0.07900 -0.45000
v 0.12500 0.07900 -0.55000
v 0.16250 0.07900 -0.68995
v 0.18995 0.07900 -0.66250
v 0.20000 0.07900 -0.62500
v 0.18995 0.07900 -0.58750
v 0.16250 0.07900 -0.43995
v 0.16250 0.07900 -0.56005
v 0.18995 0.07900 -0.41250
v 0.20000 0.07900 -0.37500
v 0.20000 0.07900 -0.12500
v 0.06005 0.07900 -0.16250
v 0.08750 0.07900 -0.18995
v 0.12500 0.07900 -0.30000
v 0.12500 0.07900 -0.20000
v 0.05000 0.07900 -0.12500
v 0.06005 0.07900 -0.08750
v 0.06005 0.07900 0.08750
v 0.08750 0.07900 -0.06005
v 0.08750 0.07900 0.06005
v 0.12500 0.07900 -0.05000
v 0.16250 0.07900 -0.18995
v 0.16250 0.07900 -0.31005
v 0.18995 0.07900 -0.33750
v 0.18995 0.07900 -0.16250
v 0.20000 0.07900 0.12500
v 0.12500 0.07900 0.05000
v 0.16250 0.07900 -0.06005
v 0.16250 0.07900 0.06005
v 0.18995 0.07900 -0.08750
v 0.18995 0.07900 0.08750
v 0.24566 0.07666 0.74000
v 0.24000 0.07666 0.74566
v 0.06005 0.07900 0.16250
v 0.08750 0.07900 0.18995
v 0.08750 0.07900 0.31005
v 0.12500 0.07900 0.20000
v 0.12500 0.07900 0.30000
v 0.16250 0.07900 0.31005
v 0.16250 0.07900 0.18995
v 0.18995 0.07900 0.16250
v 0.18995 0.07900 0.33750
v 0.20000 0.07900 0.37500
v 0.08750 0.07900 0.43995
v 0.08750 0.07900 0.56005
v 0.12500 0.07900 0.45000
v 0.12500 0.07900 0.55000
v 0.05000 0.07900 0.62500
v 0.12500 0.07900 0.70000
v 0.16250 0.07900 0.43995
v 0.16250 0.07900 0.56005
v 0.18995 0.07900 0.41250
v 0.18995 0.07900 0.58750
v 0.20000 0.07900 0.62500
v 0.16250 0.07900 0.68995
v 0.18995 0.07900 0.66250
v -0.18995 0.12900 -0.66250
v -0.18995 0.07900 -0.66250
v -0.20000 0.07900 -0.62500
v -0.20000 0.12900 -0.62500
v -0.18995 0.07900 -0.58750
v -0.16250 0.12900 -0.68995
v -0.16250 0.07900 -0.68995
v -0.12500 0.12900 -0.70000
v -0.12500 0.07900 -0.70000
v -0.18995 0.12900 -0.58750
v -0.16250 0.07900 -0.56005
v -0.16250 0.12900 -0.56005
v -0.12500 0.07900 -0.55000
v -0.18995 0.12900 -0.66250
v -0.20000 0.12900 -0.62500
v -0.18995 0.12900 -0.58750
v -0.16250 0.12900 -0.68995
v -0.16250 0.12900 -0.56005
v -0.12500 0.12900 -0.70000
v -0.12500 0.12900 -0.55000
v -0.12500 0.12900 -0.55000
v -0.08750 0.12900 -0.68995
v -0.08750 0.07900 -0.68995
v -0.06005 0.12900 -0.66250
v -0.06005 0.07900 -0.66250
v -0.08750 0.12900 -0.56005
v -0.08750 0.07900 -0.56005
v -0.06005 0.07900 -0.58750
v -0.05000 0.12900 -0.62500
v -0.05000 0.07900 -0.62500
v -0.06005 0.12900 -0.58750
v -0.08750 0.12900 -0.68995
v -0.08750 0.12900 -0.56005
v -0.06005 0.12900 -0.66250
v -0.06005 0.12900 -0.58750
v -0.05000 0.12900 -0.62500
v -0.18995 0.12900 -0.41250
v -0.18995 0.07900 -0.41250
v -0.20000 0.07900 -0.37500
v -0.16250 0.12900 -0.43995
v -0.16250 0.07900 -0.43995
v -0.12500 0.12900 -0.45000
v -0.12500 0.07900 -0.45000
v -0.20000 0.12900 -0.37500
v -0.18995 0.12900 -0.41250
v -0.20000 0.12900 -0.37500
v -0.18995 0.12900 -0.33750
v -0.16250 0.12900 -0.43995
v -0.16250 0.12900 -0.31005
v -0.12500 0.12900 -0.45000
v -0.08750 0.12900 -0.43995
v -0.08750 0.07900 -0.43995
v -0.06005 0.12900 -0.41250
v -0.06005 0.07900 -0.41250
v -0.05000 0.12900 -0.37500
v -0.05000 0.07900 -0.37500
v -0.12500 0.12900 -0.30000
v -0.08750 0.12900 -0.43995
v -0.08750 0.12900 -0.31005
v -0.06005 0.12900 -0.41250
v -0.06005 0.12900 -0.33750
v -0.05000 0.12900 -0.37500
v -0.18995 0.07900 -0.33750
v -0.18995 0.12900 -0.33750
v -0.16250 0.07900 -0.31005
v -0.16250 0.12900 -0.31005
v -0.12500 0.07900 -0.30000
v -0.12500 0.12900 -0.30000
v -0.08750 0.07900 -0.31005
v -0.08750 0.12900 -0.31005
v -0.06005 0.07900 -0.33750
v -0.06005 0.12900 -0.33750
v -0.12500 0.12900 -0.20000
v -0.12500 0.07900 -0.20000
v -0.16250 0.07900 -0.18995
v -0.18995 0.12900 -0.16250
v -0.18995 0.07900 -0.16250
v -0.20000 0.07900 -0.12500
v -0.20000 0.12900 -0.12500
v -0.18995 0.07900 -0.08750
v -0.16250 0.12900 -0.18995
v -0.18995 0.12900 -0.08750
v -0.16250 0.07900 -0.06005
v -0.16250 0.12900 -0.06005
v -0.12500 0.07900 -0.05000
v -0.18995 0.12900 -0.16250
v -0.20000 0.12900 -0.12500
v -0.18995 0.12900 -0.08750
v -0.12500 0.12900 -0.05000
v -0.16250 0.12900 -0.18995
v -0.16250 0.12900 -0.06005
v -0.12500 0.12900 -0.20000
v -0.12500 0.12900 -0.05000
v -0.08750 0.12900 -0.18995
v -0.08750 0.07900 -0.18995
v -0.06005 0.12900 -0.16250
v -0.06005 0.07900 -0.16250
v -0.08750 0.07900 -0.06005
v -0.08750 0.12900 -0.06005
v -0.06005 0.07900 -0.08750
v -0.05000 0.12900 -0.12500
v -0.05000 0.07900 -0.12500
v -0.06005 0.12900 -0.08750
v -0.08750 0.12900 -0.18995
v -0.08750 0.12900 -0.06005
v -0.06005 0.12900 -0.16250
v -0.06005 0.12900 -0.08750
v -0.05000 0.12900 -0.12500
v -0.18995 0.12900 0.08750
v -0.18995 0.07900 0.08750
v -0.20000 0.07900 0.12500
v -0.20000 0.12900 0.12500
v -0.18995 0.07900 0.16250
v -0.16250 0.12900 0.06005
v -0.16250 0.07900 0.06005
v -0.12500 0.12900 0.05000
v -0.12500 0.07900 0.05000
v -0.18995 0.12900 0.16250
v -0.16250 0.07900 0.18995
v -0.16250 0.12900 0.18995
v -0.12500 0.07900 0.20000
v -0.18995 0.12900 0.08750
v -0.20000 0.12900 0.12500
v -0.18995 0.12900 0.16250
v -0.16250 0.12900 0.06005
v -0.16250 0.12900 0.18995
v -0.12500 0.12900 0.05000
v -0.12500 0.12900 0.20000
v -0.12500 0.12900 0.20000
v -0.08750 0.12900 0.06005
v -0.08750 0.07900 0.06005
v -0.06005 0.12900 0.08750
v -0.06005 0.07900 0.08750
v -0.08750 0.12900 0.18995
v -0.08750 0.07900 0.18995
v -0.06005 0.07900 0.16250
v -0.05000 0.12900 0.12500
v -0.05000 0.07900 0.12500
v -0.06005 0.12900 0.16250
v -0.08750 0.12900 0.06005
v -0.08750 0.12900 0.18995
v -0.06005 0.12900 0.08750
v -0.06005 0.12900 0.16250
v -0.05000 0.12900 0.12500
v -0.18995 0.12900 0.33750
v -0.18995 0.07900 0.33750
v -0.20000 0.07900 0.37500
v -0.16250 0.12900 0.31005
v -0.16250 0.07900 0.31005
v -0.12500 0.12900 0.30000
v -0.12500 0.07900 0.30000
v -0.20000 0.12900 0.37500
v -0.18995 0.12900 0.33750
v -0.18995 0.12900 0.41250
v -0.16250 0.12900 0.31005
v -0.16250 0.12900 0.43995
v -0.12500 0.12900 0.30000
v -0.08750 0.12900 0.31005
v -0.08750 0.07900 0.31005
v -0.06005 0.12900 0.33750
v -0.06005 0.07900 0.33750
v -0.05000 0.12900 0.37500
v -0.05000 0.07900 0.37500
v -0.12500 0.12900 0.45000
v -0.08750 0.12900 0.31005
v -0.08750 0.12900 0.43995
v -0.06005 0.12900 0.33750
v -0.18995 0.07900 0.41250
v -0.18995 0.12900 0.41250
v -0.16250 0.07900 0.43995
v -0.16250 0.12900 0.43995
v -0.12500 0.07900 0.45000
v -0.20000 0.12900 0.37500
v -0.12500 0.12900 0.45000
v -0.08750 0.07900 0.43995
v -0.08750 0.12900 0.43995
v -0.06005 0.07900 0.41250
v -0.06005 0.12900 0.41250
v -0.06005 0.12900 0.41250
v -0.05000 0.12900 0.37500
v -0.12500 0.12900 0.55000
v -0.12500 0.07900 0.55000
v -0.16250 0.07900 0.56005
v -0.18995 0.12900 0.58750
v -0.18995 0.07900 0.58750
v -0.20000 0.07900 0.62500
v -0.20000 0.12900 0.62500
v -0.18995 0.07900 0.66250
v -0.16250 0.12900 0.56005
v -0.18995 0.12900 0.66250
v -0.16250 0.07900 0.68995
v -0.16250 0.12900 0.68995
v -0.12500 0.07900 0.70000
v -0.18995 0.12900 0.58750
v -0.20000 0.12900 0.62500
v -0.18995 0.12900 0.66250
v -0.12500 0.12900 0.70000
v -0.16250 0.12900 0.56005
v -0.16250 0.12900 0.68995
v -0.12500 0.12900 0.55000
v -0.12500 0.12900 0.70000
v -0.08750 0.12900 0.56005
v -0.08750 0.07900 0.56005
v -0.06005 0.12900 0.58750
v -0.06005 0.07900 0.58750
v -0.08750 0.07900 0.68995
v -0.08750 0.12900 0.68995
v -0.06005 0.07900 0.66250
v -0.05000 0.12900 0.62500
v -0.05000 0.07900 0.62500
v -0.06005 0.12900 0.66250
v -0.08750 0.12900 0.56005
v -0.08750 0.12900 0.68995
v -0.06005 0.12900 0.58750
v -0.06005 0.12900 0.66250
v -0.05000 0.12900 0.62500
v 0.06005 0.12900 -0.66250
v 0.06005 0.07900 -0.66250
v 0.05000 0.07900 -0.62500
v 0.05000 0.12900 -0.62500
v 0.06005 0.07900 -0.58750
v 0.08750 0.12900 -0.68995
v 0.08750 0.07900 -0.68995
v 0.12500 0.12900 -0.70000
v 0.12500 0.07900 -0.70000
v 0.06005 0.12900 -0.58750
v 0.08750 0.07900 -0.56005
v 0.08750 0.12900 -0.56005
v 0.12500 0.07900 -0.55000
v 0.06005 0.12900 -0.66250
v 0.05000 0.12900 -0.62500
v 0.06005 0.12900 -0.58750
v 0.08750 0.12900 -0.68995
v 0.08750 0.12900 -0.56005
v 0.12500 0.12900 -0.70000
v 0.12500 0.12900 -0.55000
v 0.12500 0.12900 -0.55000
v 0.16250 0.12900 -0.68995
v 0.16250 0.07900 -0.68995
v 0.18995 0.12900 -0.66250
v 0.18995 0.07900 -0.66250
v 0.16250 0.12900 -0.56005
v 0.16250 0.07900 -0.56005
v 0.18995 0.07900 -0.58750
v 0.20000 0.12900 -0.62500
v 0.20000 0.07900 -0.62500
v 0.18995 0.12900 -0.58750
v 0.16250 0.12900 -0.68995
v 0.16250 0.12900 -0.56005
v 0.18995 0.12900 -0.66250
v 0.18995 0.12900 -0.58750
v 0.20000 0.12900 -0.62500
v 0.06005 0.12900 -0.41250
v 0.06005 0.07900 -0.41250
v 0.05000 0.07900 -0.37500
v 0.08750 0.12900 -0.43995
v 0.08750 0.07900 -0.43995
v 0.12500 0.12900 -0.45000
v 0.12500 0.07900 -0.45000
v 0.05000 0.12900 -0.37500
v 0.06005 0.12900 -0.41250
v 0.05000 0.12900 -0.37500
v 0.06005 0.12900 -0.33750
v 0.08750 0.12900 -0.43995
v 0.08750 0.12900 -0.31005
v 0.12500 0.12900 -0.45000
v 0.16250 0.12900 -0.43995
v 0.16250 0.07900 -0.43995
v 0.18995 0.12900 -0.41250
v 0.18995 0.07900 -0.41250
v 0.20000 0.12900 -0.37500
v 0.20000 0.07900 -0.37500
v 0.12500 0.12900 -0.30000
v 0.16250 0.12900 -0.43995
v 0.16250 0.12900 -0.31005
v 0.18995 0.12900 -0.41250
v 0.18995 0.12900 -0.33750
v 0.20000 0.12900 -0.37500
v 0.06005 0.07900 -0.33750
v 0.06005 0.12900 -0.33750
v 0.08750 0.07900 -0.31005
v 0.08750 0.12900 -0.31005
v 0.12500 0.07900 -0.30000
v 0.12500 0.12900 -0.30000
v 0.16250 0.07900 -0.31005
v 0.16250 0.12900 -0.31005
v 0.18995 0.07900 -0.33750
v 0.18995 0.12900 -0.33750
v 0.12500 0.12900 -0.20000
v 0.12500 0.07900 -0.20000
v 0.08750 0.07900 -0.18995
v 0.06005 0.12900 -0.16250
v 0.06005 0.07900 -0.16250
v 0.05000 0.07900 -0.12500
v 0.05000 0.12900 -0.12500
v 0.06005 0.07900 -0.08750
v 0.08750 0.12900 -0.18995
v 0.06005 0.12900 -0.08750
v 0.08750 0.07900 -0.06005
v 0.08750 0.12900 -0.06005
v 0.12500 0.07900 -0.05000
v 0.06005 0.12900 -0.16250
v 0.05000 0.12900 -0.12500
v 0.06005 0.12900 -0.08750
v 0.12500 0.12900 -0.05000
v 0.08750 0.12900 -0.18995
v 0.08750 0.12900 -0.06005
v 0.12500 0.12900 -0.20000
v 0.12500 0.12900 -0.05000
v 0.16250 0.12900 -0.18995
v 0.16250 0.07900 -0.18995
v 0.18995 0.12900 -0.16250
v 0.18995 0.07900 -0.16250
v 0.16250 0.07900 -0.06005
v 0.16250 0.12900 -0.06005
v 0.18995 0.07900 -0.08750
v 0.20000 0.12900 -0.12500
v 0.20000 0.07900 -0.12500
v 0.18995 0.12900 -0.08750
v 0.16250 0.12900 -0.18995
v 0.16250 0.12900 -0.06005
v 0.18995 0.12900 -0.16250
v 0.18995 0.12900 -0.08750
v 0.20000 0.12900 -0.12500
v 0.06005 0.12900 0.08750
v 0.06005 0.07900 0.08750
v 0.05000 0.07900 0.12500
v 0.05000 0.12900 0.12500
v 0.06005 0.07900 0.16250
v 0.08750 0.12900 0.06005
v 0.08750 0.07900 0.06005
v 0.12500 0.12900 0.05000
v 0.12500 0.07900 0.05000
v 0.06005 0.12900 0.16250
v 0.08750 0.07900 0.18995
v 0.08750 0.12900 0.18995
v 0.12500 0.07900 0.20000
v 0.06005 0.12900 0.08750
v 0.05000 0.12900 0.12500
v 0.06005 0.12900 0.16250
v 0.08750 0.12900 0.06005
v 0.08750 0.12900 0.18995
v 0.12500 0.12900 0.05000
v 0.12500 0.12900 0.20000
v 0.12500 0.12900 0.20000
v 0.16250 0.12900 0.06005
v 0.16250 0.07900 0.06005
v 0.18995 0.12900 0.08750
v 0.18995 0.07900 0.08750
v 0.16250 0.12900 0.18995
v 0.16250 0.07900 0.18995
v 0.18995 0.07900 0.16250
v 0.20000 0.12900 0.12500
v 0.20000 0.07900 0.12500
v 0.18995 0.12900 0.16250
v 0.16250 0.12900 0.06005
v 0.16250 0.12900 0.18995
v 0.18995 0.12900 0.08750
v 0.18995 0.12900 0.16250
v 0.20000 0.12900 0.12500
v 0.06005 0.12900 0.33750
v 0.06005 0.07900 0.33750
v 0.05000 0.07900 0.37500
v 0.08750 0.12900 0.31005
v 0.08750 0.07900 0.31005
v 0.12500 0.12900 0.30000
v 0.12500 0.07900 0.30000
v 0.05000 0.12900 0.37500
v 0.06005 0.12900 0.33750
v 0.06005 0.12900 0.41250
v 0.08750 0.12900 0.31005
v 0.08750 0.12900 0.43995
v 0.12500 0.12900 0.30000
v 0.16250 0.12900 0.31005
v 0.16250 0.07900 0.31005
v 0.18995 0.12900 0.33750
v 0.18995 0.07900 0.33750
v 0.20000 0.12900 0.37500
v 0.20000 0.07900 0.37500
v 0.12500 0.12900 0.45000
v 0.16250 0.12900 0.31005
v 0.16250 0.12900 0.43995
v 0.18995 0.12900 0.33750
v 0.06005 0.07900 0.41250
v 0.06005 0.12900 0.41250
v 0.08750 0.07900 0.43995
v 0.08750 0.12900 0.43995
v 0.12500 0.07900 0.45000
v 0.05000 0.12900 0.37500
v 0.12500 0.12900 0.45000
v 0.16250 0.07900 0.43995
v 0.16250 0.12900 0.43995
v 0.18995 0.07900 0.41250
v 0.18995 0.12900 0.41250
v 0.18995 0.12900 0.41250
v 0.20000 0.12900 0.37500
v 0.12500 0.12900 0.55000
v 0.12500 0.07900 0.55000
v 0.08750 0.07900 0.56005
v 0.06005 0.12900 0.58750
v 0.06005 0.07900 0.58750
v 0.05000 0.07900 0.62500
v 0.05000 0.12900 0.62500
v 0.06005 0.07900 0.66250
v 0.08750 0.12900 0.56005
v 0.06005 0.12900 0.66250
v 0.08750 0.07900 0.68995
v 0.08750 0.12900 0.68995
v 0.12500 0.07900 0.70000
v 0.06005 0.12900 0.58750
v 0.05000 0.12900 0.62500
v 0.06005 0.12900 0.66250
v 0.12500 0.12900 0.70000
v 0.08750 0.12900 0.56005
v 0.08750 0.12900 0.68995
v 0.12500 0.12900 0.55000
v 0.12500 0.12900 0.70000
v 0.16250 0.12900 0.56005
v 0.16250 0.07900 0.56005
v 0.18995 0.12900 0.58750
v 0.18995 0.07900 0.58750
v 0.16250 0.07900 0.68995
v 0.16250 0.12900 0.68995
v 0.18995 0.07900 0.66250
v 0.20000 0.12900 0.62500
v 0.20000 0.07900 0.62500
v 0.18995 0.12900 0.66250
v 0.16250 0.12900 0.56005
v 0.16250 0.12900 0.68995
v 0.18995 0.12900 0.58750
v 0.18995 0.12900 0.66250
v 0.20000 0.12900 0.62500
v -0.49800 -0.07900 -0.66300
v -0.49800 -0.07900 -0.58700
v -0.49800 -0.00100 -0.58700
v -0.49800 -0.00100 -0.66300
v -0.49800 -0.00100 -0.66300
v -0.49800 -0.00100 -0.58700
v -0.24800 -0.00100 -0.66300
v -0.49800 -0.00100 -0.66300
v -0.24566 -0.01666 -0.66300
v -0.24000 -0.01900 -0.66300
v -0.24800 -0.01100 -0.66300
v -0.24800 -0.00100 -0.66300
v -0.49800 -0.00100 -0.58700
v -0.24000 -0.01900 -0.58700
v -0.24566 -0.01666 -0.58700
v -0.24800 -0.01100 -0.58700
v -0.24800 -0.00100 -0.58700
v -0.24800 -0.00100 -0.58700
v -0.49800 -0.07900 -0.66300
v 0.49800 -0.07900 -0.66300
v -0.49800 -0.07900 -0.58700
v -0.49800 -0.07900 -0.66300
v 0.49800 -0.07900 -0.66300
v -0.49800 -0.07900 -0.58700
v 0.49800 -0.07900 -0.58700
v 0.49800 -0.07900 -0.58700
v 0.24000 -0.01900 -0.66300
v 0.24000 -0.01900 -0.58700
v 0.24566 -0.01666 -0.66300
v 0.24800 -0.01100 -0.66300
v 0.24566 -0.01666 -0.58700
v 0.24800 -0.01100 -0.58700
v 0.49800 -0.07900 -0.66300
v 0.49800 -0.00100 -0.66300
v 0.49800 -0.07900 -0.58700
v 0.49800 -0.00100 -0.66300
v 0.49800 -0.00100 -0.58700
v 0.49800 -0.00100 -0.58700
v 0.24800 -0.00100 -0.66300
v 0.49800 -0.00100 -0.66300
v 0.24800 -0.00100 -0.66300
v 0.24800 -0.00100 -0.58700
v 0.24800 -0.00100 -0.58700
v 0.49800 -0.00100 -0.58700
v -0.49800 -0.07900 0.58700
v -0.49800 -0.07900 0.66300
v -0.49800 -0.00100 0.66300
v -0.49800 -0.00100 0.58700
v -0.49800 -0.00100 0.58700
v -0.49800 -0.00100 0.66300
v -0.24800 -0.00100 0.58700
v -0.49800 -0.00100 0.58700
v -0.24566 -0.01666 0.58700
v -0.24000 -0.01900 0.58700
v -0.24800 -0.01100 0.58700
v -0.24800 -0.00100 0.58700
v -0.24800 -0.00100 0.66300
v -0.49800 -0.00100 0.66300
v -0.24000 -0.01900 0.66300
v -0.24566 -0.01666 0.66300
v -0.24800 -0.01100 0.66300
v -0.24800 -0.00100 0.66300
v -0.49800 -0.07900 0.58700
v 0.49800 -0.07900 0.58700
v -0.49800 -0.07900 0.66300
v -0.49800 -0.07900 0.58700
v 0.49800 -0.07900 0.58700
v -0.49800 -0.07900 0.66300
v 0.49800 -0.07900 0.66300
v 0.49800 -0.07900 0.66300
v 0.24000 -0.01900 0.58700
v 0.24000 -0.01900 0.66300
v 0.24566 -0.01666 0.58700
v 0.24800 -0.01100 0.58700
v 0.24566 -0.01666 0.66300
v 0.24800 -0.01100 0.66300
v 0.49800 -0.07900 0.58700
v 0.49800 -0.00100 0.58700
v 0.49800 -0.07900 0.66300
v 0.49800 -0.00100 0.58700
v 0.49800 -0.00100 0.66300
v 0.49800 -0.00100 0.66300
v 0.24800 -0.00100 0.58700
v 0.49800 -0.00100 0.58700
v 0.24800 -0.00100 0.58700
v 0.24800 -0.00100 0.66300
v 0.24800 -0.00100 0.66300
v 0.49800 -0.00100 0.66300
vn -0.6887 -0.6887 -0.2265
vn -0.2265 -0.6887 -0.6887
vn -0.1877 -0.9641 -0.1877
vn -0.1951 -0.9808 0.0000
vn -0.6887 -0.2265 -0.6887
vn -0.9239 -0.3827 0.0000
vn -0.9641 -0.1877 -0.1877
vn -0.3827 -0.9239 0.0000
vn -0.1877 -0.1877 -0.9641
vn -0.9808 -0.1951 0.0000
vn -1.0000 0.0000 0.0000
vn -0.9641 0.1877 -0.1877
vn -0.1877 0.1877 -0.9641
vn -1.0000 0.0000 0.0000
vn 0.1877 -0.9641 -0.1877
vn 0.1951 -0.9808 0.0000
vn 0.1877 -0.1877 -0.9641
vn -0.1951 -0.9808 0.0000
vn -0.1951 -0.9808 -0.0000
vn -0.3827 -0.9239 -0.0000
vn -0.9808 -0.1951 -0.0000
vn -0.9239 -0.3827 0.0000
vn -0.9239 -0.3827 -0.0000
vn -0.9808 -0.1951 0.0000
vn -0.3827 -0.9239 0.0000
vn -1.0000 0.0000 0.0000
vn -1.0000 0.0000 0.0000
vn 0.1951 -0.9808 0.0000
vn -0.1877 -0.9641 0.1877
vn -0.3827 -0.9239 0.0000
vn -0.1951 -0.9808 0.0000
vn -0.6887 -0.6887 0.2265
vn -0.9808 -0.1951 0.0000
vn -0.9239 -0.3827 0.0000
vn -0.2265 -0.6887 0.6887
vn -0.6887 -0.2265 0.6887
vn -0.9641 -0.1877 0.1877
vn -0.1877 -0.1877 0.9641
vn -0.9641 0.1877 0.1877
vn -0.6887 0.2265 0.6887
vn 0.1877 -0.9641 0.1877
vn 0.2265 -0.6887 0.6887
vn 0.1877 -0.1877 0.9641
vn -0.1877 0.1877 0.9641
vn -0.6887 0.2265 -0.6887
vn -0.6887 0.6887 -0.2265
vn -0.2265 0.6887 -0.6887
vn 0.1877 0.1877 -0.9641
vn -0.1877 0.9641 -0.1877
vn 0.0000 1.0000 0.0000
vn 0.0000 1.0000 0.0000
vn 0.0000 1.0000 0.0000
vn 0.0000 1.0000 0.0000
vn 0.0000 1.0000 0.0000
vn 0.0000 1.0000 0.0000
vn 0.0000 1.0000 0.0000
vn 0.0000 1.0000 0.0000
vn 0.0000 1.0000 0.0000
vn 0.0000 1.0000 0.0000
vn 0.0000 1.0000 0.0000
vn 0.1877 0.9641 -0.1877
vn 0.0000 1.0000 0.0000
vn 0.0000 1.0000 0.0000
vn 0.0000 1.0000 0.0000
vn 0.0000 1.0000 0.0000
vn 0.0000 1.0000 0.0000
vn 0.0000 1.0000 0.0000
vn 0.0000 1.0000 0.0000
vn 0.0000 1.0000 0.0000
vn 0.0000 1.0000 0.0000
vn 0.0000 1.0000 0.0000
vn 0.0000 1.0000 0.0000
vn 0.0000 1.0000 0.0000
vn 0.0000 1.0000 0.0000
vn -0.6887 0.6887 0.2265
vn 0.0000 1.0000 0.0000
vn 0.0000 1.0000 0.0000
vn 0.0000 1.0000 0.0000
vn 0.0000 1.0000 0.0000
vn 0.0000 1.0000 0.0000
vn 0.0000 1.0000 0.0000
vn 0.0000 1.0000 0.0000
vn -0.1877 0.9641 0.1877
vn 0.0000 1.0000 0.0000
vn 0.0000 1.0000 0.0000
vn 0.0000 1.0000 0.0000
vn 0.0000 1.0000 0.0000
vn 0.0000 1.0000 0.0000
vn 0.0000 1.0000 0.0000
vn 0.0000 1.0000 0.0000
vn 0.0000 1.0000 0.0000
vn 0.0000 1.0000 0.0000
vn 0.0000 1.0000 0.0000
vn 0.0000 1.0000 0.0000
vn 0.0000 1.0000 0.0000
vn 0.0000 1.0000 0.0000
vn 0.0000 1.0000 0.0000
vn 0.0000 1.0000 0.0000
vn 0.0000 1.0000 0.0000
vn 0.0000 1.0000 0.0000
vn 0.0000 1.0000 0.0000
vn 0.0000 1.0000 0.0000
vn 0.0000 1.0000 0.0000
vn -0.2265 0.6887 0.6887
vn 0.1877 0.1877 0.9641
vn 0.0000 1.0000 0.0000
vn 0.0000 1.0000 0.0000
vn 0.0000 1.0000 0.0000
vn 0.0000 1.0000 0.0000
vn 0.0000 1.0000 0.0000
vn 0.0000 1.0000 0.0000
vn 0.0000 1.0000 0.0000
vn 0.0000 1.0000 0.0000
vn 0.0000 1.0000 0.0000
vn 0.0000 1.0000 0.0000
vn 0.0000 1.0000 0.0000
vn 0.0000 1.0000 0.0000
vn 0.0000 1.0000 0.0000
vn 0.0000 1.0000 0.0000
vn 0.0000 1.0000 0.0000
vn 0.0000 1.0000 0.0000
vn 0.0000 1.0000 0.0000
vn 0.0000 1.0000 0.0000
vn 0.0000 1.0000 0.0000
vn 0.0000 1.0000 0.0000
vn 0.0000 1.0000 0.0000
vn 0.0000 1.0000 0.0000
vn 0.0000 1.0000 0.0000
vn 0.0000 1.0000 0.0000
vn 0.0000 1.0000 0.0000
vn 0.0000 1.0000 0.0000
vn 0.0000 1.0000 0.0000
vn 0.0000 1.0000 0.0000
vn 0.0000 1.0000 0.0000
vn 0.1877 0.9641 0.1877
vn 0.0000 1.0000 0.0000
vn 0.0000 1.0000 0.0000
vn 0.0000 1.0000 0.0000
vn 0.0000 1.0000 0.0000
vn 0.0000 1.0000 0.0000
vn 0.0000 1.0000 0.0000
vn 0.2265 -0.6887 -0.6887
vn 0.6887 -0.6887 -0.2265
vn 0.3827 -0.9239 0.0000
vn 0.6887 -0.2265 -0.6887
vn 0.9808 -0.1951 0.0000
vn 0.9239 -0.3827 0.0000
vn 0.9641 -0.1877 -0.1877
vn 1.0000 0.0000 0.0000
vn 0.6887 0.2265 -0.6887
vn 0.9641 0.1877 -0.1877
vn 1.0000 0.0000 0.0000
vn 0.1951 -0.9808 0.0000
vn 0.3827 -0.9239 0.0000
vn 0.3827 -0.9239 0.0000
vn 0.9239 -0.3827 0.0000
vn 0.9808 -0.1951 0.0000
vn 0.9808 -0.1951 0.0000
vn 1.0000 0.0000 0.0000
vn 0.9239 -0.3827 0.0000
vn 1.0000 0.0000 0.0000
vn 0.1951 -0.9808 0.0000
vn 0.6887 -0.6887 0.2265
vn 0.3827 -0.9239 0.0000
vn 0.9239 -0.3827 0.0000
vn 0.9641 -0.1877 0.1877
vn 0.6887 -0.2265 0.6887
vn 0.9808 -0.1951 0.0000
vn 0.6887 0.2265 0.6887
vn 0.9641 0.1877 0.1877
vn 0.2265 0.6887 -0.6887
vn 0.6887 0.6887 -0.2265
vn 0.0000 1.0000 0.0000
vn 0.0000 1.0000 0.0000
vn 0.0000 1.0000 0.0000
vn 0.0000 1.0000 0.0000
vn 0.0000 1.0000 0.0000
vn 0.0000 1.0000 0.0000
vn 0.0000 1.0000 0.0000
vn 0.0000 1.0000 0.0000
vn 0.0000 1.0000 0.0000
vn 0.0000 1.0000 0.0000
vn 0.0000 1.0000 0.0000
vn 0.0000 1.0000 0.0000
vn 0.0000 1.0000 0.0000
vn 0.0000 1.0000 0.0000
vn 0.0000 1.0000 0.0000
vn 0.0000 1.0000 0.0000
vn 0.0000 1.0000 0.0000
vn 0.0000 1.0000 0.0000
vn 0.0000 1.0000 0.0000
vn 0.0000 1.0000 0.0000
vn 0.0000 1.0000 0.0000
vn 0.0000 1.0000 0.0000
vn 0.0000 1.0000 0.0000
vn 0.0000 1.0000 0.0000
vn 0.0000 1.0000 0.0000
vn 0.0000 1.0000 0.0000
vn 0.0000 1.0000 0.0000
vn 0.0000 1.0000 0.0000
vn 0.0000 1.0000 0.0000
vn 0.0000 1.0000 0.0000
vn 0.0000 1.0000 0.0000
vn 0.0000 1.0000 0.0000
vn 0.0000 1.0000 0.0000
vn 0.0000 1.0000 0.0000
vn 0.0000 1.0000 0.0000
vn 0.6887 0.6887 0.2265
vn 0.2265 0.6887 0.6887
vn 0.0000 1.0000 0.0000
vn 0.0000 1.0000 0.0000
vn 0.0000 1.0000 0.0000
vn 0.0000 1.0000 0.0000
vn 0.0000 1.0000 0.0000
vn 0.0000 1.0000 0.0000
vn 0.0000 1.0000 0.0000
vn 0.0000 1.0000 0.0000
vn 0.0000 1.0000 0.0000
vn 0.0000 1.0000 0.0000
vn 0.0000 1.0000 0.0000
vn 0.0000 1.0000 0.0000
vn 0.0000 1.0000 0.0000
vn 0.0000 1.0000 0.0000
vn 0.0000 1.0000 0.0000
vn 0.0000 1.0000 0.0000
vn 0.0000 1.0000 0.0000
vn 0.0000 1.0000 0.0000
vn 0.0000 1.0000 0.0000
vn 0.0000 1.0000 0.0000
vn 0.0000 1.0000 0.0000
vn 0.0000 1.0000 0.0000
vn 0.0000 1.0000 0.0000
vn -0.8660 0.0000 -0.5000
vn -0.8660 0.0000 -0.5000
vn -1.0000 0.0000 0.0000
vn -1.0000 -0.0000 -0.0000
vn -0.8660 -0.0000 0.5000
vn -0.5000 0.0000 -0.8660
vn -0.5000 0.0000 -0.8660
vn 0.0000 0.0000 -1.0000
vn 0.0000 0.0000 -1.0000
vn -0.8660 0.0000 0.5000
vn -0.5000 0.0000 0.8660
vn -0.5000 0.0000 0.8660
vn 0.0000 0.0000 1.0000
vn 0.0000 1.0000 0.0000
vn 0.0000 1.0000 0.0000
vn 0.0000 1.0000 0.0000
vn 0.0000 1.0000 0.0000
vn 0.0000 1.0000 0.0000
vn 0.0000 1.0000 0.0000
vn 0.0000 1.0000 0.0000
vn 0.0000 0.0000 1.0000
vn 0.5000 0.0000 -0.8660
vn 0.5000 0.0000 -0.8660
vn 0.8660 0.0000 -0.5000
vn 0.8660 -0.0000 -0.5000
vn 0.5000 0.0000 0.8660
vn 0.5000 0.0000 0.8660
vn 0.8660 0.0000 0.5000
vn 1.0000 -0.0000 0.0000
vn 1.0000 0.0000 -0.0000
vn 0.8660 0.0000 0.5000
vn 0.0000 1.0000 0.0000
vn 0.0000 1.0000 0.0000
vn 0.0000 1.0000 0.0000
vn 0.0000 1.0000 0.0000
vn 0.0000 1.0000 0.0000
vn -0.8660 0.0000 -0.5000
vn -0.8660 0.0000 -0.5000
vn -1.0000 0.0000 0.0000
vn -0.5000 0.0000 -0.8660
vn -0.5000 0.0000 -0.8660
vn 0.0000 0.0000 -1.0000
vn 0.0000 0.0000 -1.0000
vn -1.0000 -0.0000 -0.0000
vn 0.0000 1.0000 0.0000
vn 0.0000 1.0000 0.0000
vn 0.0000 1.0000 0.0000
vn 0.0000 1.0000 0.0000
vn 0.0000 1.0000 0.0000
vn 0.0000 1.0000 0.0000
vn 0.5000 0.0000 -0.8660
vn 0.5000 0.0000 -0.8660
vn 0.8660 0.0000 -0.5000
vn 0.8660 -0.0000 -0.5000
vn 1.0000 -0.0000 0.0000
vn 1.0000 0.0000 -0.0000
vn 0.0000 1.0000 0.0000
vn 0.0000 1.0000 0.0000
vn 0.0000 1.0000 0.0000
vn 0.0000 1.0000 0.0000
vn 0.0000 1.0000 0.0000
vn 0.0000 1.0000 0.0000
vn -0.8660 -0.0000 0.5000
vn -0.8660 0.0000 0.5000
vn -0.5000 0.0000 0.8660
vn -0.5000 0.0000 0.8660
vn 0.0000 0.0000 1.0000
vn 0.0000 0.0000 1.0000
vn 0.5000 0.0000 0.8660
vn 0.5000 0.0000 0.8660
vn 0.8660 0.0000 0.5000
vn 0.8660 0.0000 0.5000
vn 0.0000 0.0000 -1.0000
vn 0.0000 0.0000 -1.0000
vn -0.5000 0.0000 -0.8660
vn -0.8660 0.0000 -0.5000
vn -0.8660 0.0000 -0.5000
vn -1.0000 0.0000 0.0000
vn -1.0000 -0.0000 -0.0000
vn -0.8660 -0.0000 0.5000
vn -0.5000 0.0000 -0.8660
vn -0.8660 0.0000 0.5000
vn -0.5000 0.0000 0.8660
vn -0.5000 0.0000 0.8660
vn 0.0000 0.0000 1.0000
vn 0.0000 1.0000 0.0000
vn 0.0000 1.0000 0.0000
vn 0.0000 1.0000 0.0000
vn 0.0000 0.0000 1.0000
vn 0.0000 1.0000 0.0000
vn 0.0000 1.0000 0.0000
vn 0.0000 1.0000 0.0000
vn 0.0000 1.0000 0.0000
vn 0.5000 0.0000 -0.8660
vn 0.5000 0.0000 -0.8660
vn 0.8660 0.0000 -0.5000
vn 0.8660 -0.0000 -0.5000
vn 0.5000 0.0000 0.8660
vn 0.5000 0.0000 0.8660
vn 0.8660 0.0000 0.5000
vn 1.0000 -0.0000 0.0000
vn 1.0000 0.0000 -0.0000
vn 0.8660 0.0000 0.5000
vn 0.0000 1.0000 0.0000
vn 0.0000 1.0000 0.0000
vn 0.0000 1.0000 0.0000
vn 0.0000 1.0000 0.0000
vn 0.0000 1.0000 0.0000
vn -0.8660 0.0000 -0.5000
vn -0.8660 0.0000 -0.5000
vn -1.0000 0.0000 0.0000
vn -1.0000 -0.0000 -0.0000
vn -0.8660 -0.0000 0.5000
vn -0.5000 0.0000 -0.8660
vn -0.5000 0.0000 -0.8660
vn 0.0000 0.0000 -1.0000
vn 0.0000 0.0000 -1.0000
vn -0.8660 0.0000 0.5000
vn -0.5000 0.0000 0.8660
vn -0.5000 0.0000 0.8660
vn 0.0000 0.0000 1.0000
vn 0.0000 1.0000 0.0000
vn 0.0000 1.0000 0.0000
vn 0.0000 1.0000 0.0000
vn 0.0000 1.0000 0.0000
vn 0.0000 1.0000 0.0000
vn 0.0000 1.0000 0.0000
vn 0.0000 1.0000 0.0000
vn 0.0000 0.0000 1.0000
vn 0.5000 0.0000 -0.8660
vn 0.5000 0.0000 -0.8660
vn 0.8660 0.0000 -0.5000
vn 0.8660 -0.0000 -0.5000
vn 0.5000 0.0000 0.8660
vn 0.5000 0.0000 0.8660
vn 0.8660 0.0000 0.5000
vn 1.0000 -0.0000 0.0000
vn 1.0000 0.0000 -0.0000
vn 0.8660 0.0000 0.5000
vn 0.0000 1.0000 0.0000
vn 0.0000 1.0000 0.0000
vn 0.0000 1.0000 0.0000
vn 0.0000 1.0000 0.0000
vn 0.0000 1.0000 0.0000
vn -0.8660 -0.0000 -0.5000
vn -0.8660 0.0000 -0.5000
vn -1.0000 -0.0000 0.0000
vn -0.5000 0.0000 -0.8660
vn -0.5000 0.0000 -0.8660
vn -0.0000 0.0000 -1.0000
vn 0.0000 0.0000 -1.0000
vn -1.0000 0.0000 0.0000
vn 0.0000 1.0000 0.0000
vn 0.0000 1.0000 0.0000
vn 0.0000 1.0000 0.0000
vn 0.0000 1.0000 0.0000
vn 0.0000 1.0000 0.0000
vn 0.5000 0.0000 -0.8660
vn 0.5000 0.0000 -0.8660
vn 0.8660 0.0000 -0.5000
vn 0.8660 0.0000 -0.5000
vn 1.0000 0.0000 0.0000
vn 1.0000 -0.0000 0.0000
vn 0.0000 1.0000 0.0000
vn 0.0000 1.0000 0.0000
vn 0.0000 1.0000 0.0000
vn 0.0000 1.0000 0.0000
vn -0.8660 0.0000 0.5000
vn -0.8660 0.0000 0.5000
vn -0.5000 0.0000 0.8660
vn -0.5000 0.0000 0.8660
vn -0.0000 0.0000 1.0000
vn 0.0000 1.0000 0.0000
vn 0.0000 0.0000 1.0000
vn 0.5000 0.0000 0.8660
vn 0.5000 0.0000 0.8660
vn 0.8660 0.0000 0.5000
vn 0.8660 -0.0000 0.5000
vn 0.0000 1.0000 0.0000
vn 0.0000 1.0000 0.0000
vn -0.0000 0.0000 -1.0000
vn 0.0000 0.0000 -1.0000
vn -0.5000 0.0000 -0.8660
vn -0.8660 -0.0000 -0.5000
vn -0.8660 0.0000 -0.5000
vn -1.0000 -0.0000 0.0000
vn -1.0000 0.0000 0.0000
vn -0.8660 0.0000 0.5000
vn -0.5000 0.0000 -0.8660
vn -0.8660 0.0000 0.5000
vn -0.5000 0.0000 0.8660
vn -0.5000 0.0000 0.8660
vn -0.0000 0.0000 1.0000
vn 0.0000 1.0000 0.0000
vn 0.0000 1.0000 0.0000
vn 0.0000 1.0000 0.0000
vn 0.0000 0.0000 1.0000
vn 0.0000 1.0000 0.0000
vn 0.0000 1.0000 0.0000
vn 0.0000 1.0000 0.0000
vn 0.0000 1.0000 0.0000
vn 0.5000 0.0000 -0.8660
vn 0.5000 0.0000 -0.8660
vn 0.8660 0.0000 -0.5000
vn 0.8660 0.0000 -0.5000
vn 0.5000 0.0000 0.8660
vn 0.5000 0.0000 0.8660
vn 0.8660 0.0000 0.5000
vn 1.0000 0.0000 0.0000
vn 1.0000 -0.0000 0.0000
vn 0.8660 -0.0000 0.5000
vn 0.0000 1.0000 0.0000
vn 0.0000 1.0000 0.0000
vn 0.0000 1.0000 0.0000
vn 0.0000 1.0000 0.0000
vn 0.0000 1.0000 0.0000
vn -0.8660 0.0000 -0.5000
vn -0.8660 0.0000 -0.5000
vn -1.0000 0.0000 0.0000
vn -1.0000 0.0000 0.0000
vn -0.8660 0.0000 0.5000
vn -0.5000 0.0000 -0.8660
vn -0.5000 0.0000 -0.8660
vn 0.0000 0.0000 -1.0000
vn 0.0000 0.0000 -1.0000
vn -0.8660 0.0000 0.5000
vn -0.5000 0.0000 0.8660
vn -0.5000 0.0000 0.8660
vn 0.0000 0.0000 1.0000
vn 0.0000 1.0000 0.0000
vn 0.0000 1.0000 0.0000
vn 0.0000 1.0000 0.0000
vn 0.0000 1.0000 0.0000
vn 0.0000 1.0000 0.0000
vn 0.0000 1.0000 0.0000
vn 0.0000 1.0000 0.0000
vn 0.0000 0.0000 1.0000
vn 0.5000 0.0000 -0.8660
vn 0.5000 0.0000 -0.8660
vn 0.8660 0.0000 -0.5000
vn 0.8660 0.0000 -0.5000
vn 0.5000 0.0000 0.8660
vn 0.5000 0.0000 0.8660
vn 0.8660 0.0000 0.5000
vn 1.0000 0.0000 0.0000
vn 1.0000 0.0000 0.0000
vn 0.8660 0.0000 0.5000
vn 0.0000 1.0000 0.0000
vn 0.0000 1.0000 0.0000
vn 0.0000 1.0000 0.0000
vn 0.0000 1.0000 0.0000
vn 0.0000 1.0000 0.0000
vn -0.8660 0.0000 -0.5000
vn -0.8660 0.0000 -0.5000
vn -1.0000 0.0000 0.0000
vn -0.5000 0.0000 -0.8660
vn -0.5000 0.0000 -0.8660
vn 0.0000 0.0000 -1.0000
vn 0.0000 0.0000 -1.0000
vn -1.0000 0.0000 0.0000
vn 0.0000 1.0000 0.0000
vn 0.0000 1.0000 0.0000
vn 0.0000 1.0000 0.0000
vn 0.0000 1.0000 0.0000
vn 0.0000 1.0000 0.0000
vn 0.0000 1.0000 0.0000
vn 0.5000 0.0000 -0.8660
vn 0.5000 0.0000 -0.8660
vn 0.8660 0.0000 -0.5000
vn 0.8660 0.0000 -0.5000
vn 1.0000 0.0000 0.0000
vn 1.0000 0.0000 0.0000
vn 0.0000 1.0000 0.0000
vn 0.0000 1.0000 0.0000
vn 0.0000 1.0000 0.0000
vn 0.0000 1.0000 0.0000
vn 0.0000 1.0000 0.0000
vn 0.0000 1.0000 0.0000
vn -0.8660 0.0000 0.5000
vn -0.8660 0.0000 0.5000
vn -0.5000 0.0000 0.8660
vn -0.5000 0.0000 0.8660
vn 0.0000 0.0000 1.0000
vn 0.0000 0.0000 1.0000
vn 0.5000 0.0000 0.8660
vn 0.5000 0.0000 0.8660
vn 0.8660 0.0000 0.5000
vn 0.8660 0.0000 0.5000
vn 0.0000 0.0000 -1.0000
vn 0.0000 0.0000 -1.0000
vn -0.5000 0.0000 -0.8660
vn -0.8660 0.0000 -0.5000
vn -0.8660 0.0000 -0.5000
vn -1.0000 0.0000 0.0000
vn -1.0000 0.0000 0.0000
vn -0.8660 0.0000 0.5000
vn -0.5000 0.0000 -0.8660
vn -0.8660 0.0000 0.5000
vn -0.5000 0.0000 0.8660
vn -0.5000 0.0000 0.8660
vn 0.0000 0.0000 1.0000
vn 0.0000 1.0000 0.0000
vn 0.0000 1.0000 0.0000
vn 0.0000 1.0000 0.0000
vn 0.0000 0.0000 1.0000
vn 0.0000 1.0000 0.0000
vn 0.0000 1.0000 0.0000
vn 0.0000 1.0000 0.0000
vn 0.0000 1.0000 0.0000
vn 0.5000 0.0000 -0.8660
vn 0.5000 0.0000 -0.8660
vn 0.8660 0.0000 -0.5000
vn 0.8660 0.0000 -0.5000
vn 0.5000 0.0000 0.8660
vn 0.5000 0.0000 0.8660
vn 0.8660 0.0000 0.5000
vn 1.0000 0.0000 0.0000
vn 1.0000 0.0000 0.0000
vn 0.8660 0.0000 0.5000
vn 0.0000 1.0000 0.0000
vn 0.0000 1.0000 0.0000
vn 0.0000 1.0000 0.0000
vn 0.0000 1.0000 0.0000
vn 0.0000 1.0000 0.0000
vn -0.8660 0.0000 -0.5000
vn -0.8660 0.0000 -0.5000
vn -1.0000 0.0000 0.0000
vn -1.0000 0.0000 0.0000
vn -0.8660 0.0000 0.5000
vn -0.5000 0.0000 -0.8660
vn -0.5000 0.0000 -0.8660
vn 0.0000 0.0000 -1.0000
vn 0.0000 0.0000 -1.0000
vn -0.8660 0.0000 0.5000
vn -0.5000 0.0000 0.8660
vn -0.5000 0.0000 0.8660
vn 0.0000 0.0000 1.0000
vn 0.0000 1.0000 0.0000
vn 0.0000 1.0000 0.0000
vn 0.0000 1.0000 0.0000
vn 0.0000 1.0000 0.0000
vn 0.0000 1.0000 0.0000
vn 0.0000 1.0000 0.0000
vn 0.0000 1.0000 0.0000
vn 0.0000 0.0000 1.0000
vn 0.5000 0.0000 -0.8660
vn 0.5000 0.0000 -0.8660
vn 0.8660 0.0000 -0.5000
vn 0.8660 0.0000 -0.5000
vn 0.5000 0.0000 0.8660
vn 0.5000 0.0000 0.8660
vn 0.8660 0.0000 0.5000
vn 1.0000 0.0000 0.0000
vn 1.0000 0.0000 0.0000
vn 0.8660 0.0000 0.5000
vn 0.0000 1.0000 0.0000
vn 0.0000 1.0000 0.0000
vn 0.0000 1.0000 0.0000
vn 0.0000 1.0000 0.0000
vn 0.0000 1.0000 0.0000
vn -0.8660 -0.0000 -0.5000
vn -0.8660 0.0000 -0.5000
vn -1.0000 -0.0000 -0.0000
vn -0.5000 0.0000 -0.8660
vn -0.5000 0.0000 -0.8660
vn -0.0000 0.0000 -1.0000
vn 0.0000 0.0000 -1.0000
vn -1.0000 0.0000 0.0000
vn 0.0000 1.0000 0.0000
vn 0.0000 1.0000 0.0000
vn 0.0000 1.0000 0.0000
vn 0.0000 1.0000 0.0000
vn 0.0000 1.0000 0.0000
vn 0.5000 0.0000 -0.8660
vn 0.5000 0.0000 -0.8660
vn 0.8660 0.0000 -0.5000
vn 0.8660 0.0000 -0.5000
vn 1.0000 0.0000 -0.0000
vn 1.0000 -0.0000 0.0000
vn 0.0000 1.0000 0.0000
vn 0.0000 1.0000 0.0000
vn 0.0000 1.0000 0.0000
vn 0.0000 1.0000 0.0000
vn -0.8660 0.0000 0.5000
vn -0.8660 0.0000 0.5000
vn -0.5000 0.0000 0.8660
vn -0.5000 0.0000 0.8660
vn -0.0000 0.0000 1.0000
vn 0.0000 1.0000 0.0000
vn 0.0000 0.0000 1.0000
vn 0.5000 0.0000 0.8660
vn 0.5000 0.0000 0.8660
vn 0.8660 0.0000 0.5000
vn 0.8660 -0.0000 0.5000
vn 0.0000 1.0000 0.0000
vn 0.0000 1.0000 0.0000
vn -0.0000 0.0000 -1.0000
vn 0.0000 0.0000 -1.0000
vn -0.5000 0.0000 -0.8660
vn -0.8660 -0.0000 -0.5000
vn -0.8660 0.0000 -0.5000
vn -1.0000 -0.0000 -0.0000
vn -1.0000 0.0000 0.0000
vn -0.8660 0.0000 0.5000
vn -0.5000 0.0000 -0.8660
vn -0.8660 0.0000 0.5000
vn -0.5000 0.0000 0.8660
vn -0.5000 0.0000 0.8660
vn -0.0000 0.0000 1.0000
vn 0.0000 1.0000 0.0000
vn 0.0000 1.0000 0.0000
vn 0.0000 1.0000 0.0000
vn 0.0000 0.0000 1.0000
vn 0.0000 1.0000 0.0000
vn 0.0000 1.0000 0.0000
vn 0.0000 1.0000 0.0000
vn 0.0000 1.0000 0.0000
vn 0.5000 0.0000 -0.8660
vn 0.5000 0.0000 -0.8660
vn 0.8660 0.0000 -0.5000
vn 0.8660 0.0000 -0.5000
vn 0.5000 0.0000 0.8660
vn 0.5000 0.0000 0.8660
vn 0.8660 0.0000 0.5000
vn 1.0000 0.0000 -0.0000
vn 1.0000 -0.0000 0.0000
vn 0.8660 -0.0000 0.5000
vn 0.0000 1.0000 0.0000
vn 0.0000 1.0000 0.0000
vn 0.0000 1.0000 0.0000
vn 0.0000 1.0000 0.0000
vn 0.0000 1.0000 0.0000
vn -1.0000 0.0000 0.0000
vn -1.0000 0.0000 0.0000
vn -1.0000 0.0000 0.0000
vn -1.0000 0.0000 0.0000
vn 0.0000 1.0000 0.0000
vn 0.0000 1.0000 0.0000
vn 0.0000 1.0000 0.0000
vn 0.0000 0.0000 -1.0000
vn 0.0000 0.0000 -1.0000
vn 0.0000 0.0000 -1.0000
vn 0.0000 0.0000 -1.0000
vn 0.0000 0.0000 -1.0000
vn 0.0000 0.0000 1.0000
vn 0.0000 0.0000 1.0000
vn 0.0000 0.0000 1.0000
vn 0.0000 0.0000 1.0000
vn 0.0000 1.0000 0.0000
vn 0.0000 0.0000 1.0000
vn 0.0000 -1.0000 0.0000
vn 0.0000 -1.0000 0.0000
vn 0.0000 -1.0000 0.0000
vn 0.0000 0.0000 -1.0000
vn 0.0000 0.0000 -1.0000
vn 0.0000 0.0000 1.0000
vn 0.0000 0.0000 1.0000
vn 0.0000 -1.0000 0.0000
vn 0.0000 0.0000 -1.0000
vn 0.0000 0.0000 1.0000
vn 0.0000 0.0000 -1.0000
vn 0.0000 0.0000 -1.0000
vn 0.0000 0.0000 1.0000
vn 0.0000 0.0000 1.0000
vn 1.0000 0.0000 0.0000
vn 1.0000 0.0000 0.0000
vn 1.0000 0.0000 0.0000
vn 0.0000 0.0000 -1.0000
vn 0.0000 0.0000 1.0000
vn 1.0000 0.0000 0.0000
vn 0.0000 0.0000 -1.0000
vn 0.0000 1.0000 0.0000
vn 0.0000 1.0000 0.0000
vn 0.0000 1.0000 0.0000
vn 0.0000 0.0000 1.0000
vn 0.0000 1.0000 0.0000
vn -1.0000 0.0000 0.0000
vn -1.0000 0.0000 0.0000
vn -1.0000 0.0000 0.0000
vn -1.0000 0.0000 0.0000
vn 0.0000 1.0000 0.0000
vn 0.0000 1.0000 0.0000
vn 0.0000 1.0000 0.0000
vn 0.0000 0.0000 -1.0000
vn 0.0000 0.0000 -1.0000
vn 0.0000 0.0000 -1.0000
vn 0.0000 0.0000 -1.0000
vn 0.0000 0.0000 -1.0000
vn 0.0000 1.0000 0.0000
vn 0.0000 0.0000 1.0000
vn 0.0000 0.0000 1.0000
vn 0.0000 0.0000 1.0000
vn 0.0000 0.0000 1.0000
vn 0.0000 0.0000 1.0000
vn 0.0000 -1.0000 0.0000
vn 0.0000 -1.0000 0.0000
vn 0.0000 -1.0000 0.0000
vn 0.0000 0.0000 -1.0000
vn 0.0000 0.0000 -1.0000
vn 0.0000 0.0000 1.0000
vn 0.0000 0.0000 1.0000
vn 0.0000 -1.0000 0.0000
vn 0.0000 0.0000 -1.0000
vn 0.0000 0.0000 1.0000
vn 0.0000 0.0000 -1.0000
vn 0.0000 0.0000 -1.0000
vn 0.0000 0.0000 1.0000
vn 0.0000 0.0000 1.0000
vn 1.0000 0.0000 0.0000
vn 1.0000 0.0000 0.0000
vn 1.0000 0.0000 0.0000
vn 0.0000 0.0000 -1.0000
vn 0.0000 0.0000 1.0000
vn 1.0000 0.0000 0.0000
vn 0.0000 0.0000 -1.0000
vn 0.0000 1.0000 0.0000
vn 0.0000 1.0000 0.0000
vn 0.0000 1.0000 0.0000
vn 0.0000 0.0000 1.0000
vn 0.0000 1.0000 0.0000
f 1//1 2//2 3//3
f 1//1 3//3 4//4
f 1//1 5//5 2//2
f 1//1 6//6 7//7
f 1//1 4//4 8//8
f 1//1 7//7 5//5
f 2//2 5//5 9//9
f 7//7 6//6 10//10
f 7//7 10//10 11//11
f 7//7 12//12 5//5
f 5//5 13//13 9//9
f 7//7 11//11 12//12
f 12//12 11//11 14//14
f 3//3 2//2 15//15
f 3//3 16//16 4//4
f 2//2 9//9 17//17
f 9//9 13//13 17//17
f 18//18 19//19 20//20
f 21//21 22//22 23//23
f 14//14 21//21 24//24
f 12//12 14//14 24//24
f 20//20 19//19 25//25
f 23//23 24//24 21//21
f 12//12 24//24 26//26
f 12//12 26//26 27//27
f 19//19 18//18 28//28
f 29//29 30//30 31//31
f 32//32 33//33 34//34
f 32//32 30//30 29//29
f 32//32 29//29 35//35
f 32//32 35//35 36//36
f 37//37 27//27 33//33
f 32//32 37//37 33//33
f 32//32 36//36 37//37
f 35//35 38//38 36//36
f 37//37 36//36 39//39
f 36//36 38//38 40//40
f 37//37 39//39 27//27
f 29//29 31//31 41//41
f 29//29 42//42 35//35
f 35//35 42//42 38//38
f 38//38 43//43 44//44
f 5//5 12//12 45//45
f 5//5 45//45 13//13
f 12//12 46//46 45//45
f 45//45 47//47 13//13
f 45//45 46//46 47//47
f 13//13 47//47 48//48
f 12//12 39//39 46//46
f 46//46 49//49 47//47
f 49//49 50//50 51//51
f 49//49 51//51 52//52
f 49//49 53//53 50//50
f 49//49 52//52 54//54
f 50//50 53//53 55//55
f 55//55 53//53 56//56
f 55//55 56//56 57//57
f 57//57 56//56 58//58
f 57//57 59//59 60//60
f 57//57 58//58 59//59
f 47//47 49//49 61//61
f 49//49 54//54 62//62
f 54//54 63//63 64//64
f 63//63 65//65 66//66
f 65//65 67//67 66//66
f 68//68 69//69 67//67
f 60//60 59//59 70//70
f 59//59 71//71 70//70
f 68//68 70//70 72//72
f 71//71 72//72 70//70
f 68//68 72//72 73//73
f 72//72 74//74 73//73
f 46//46 75//75 49//49
f 53//53 76//76 77//77
f 78//78 77//77 76//76
f 79//79 77//77 78//78
f 79//79 78//78 80//80
f 79//79 80//80 81//81
f 81//81 80//80 82//82
f 49//49 83//83 53//53
f 76//76 84//84 85//85
f 85//85 86//86 87//87
f 87//87 88//88 89//89
f 81//81 90//90 91//91
f 81//81 82//82 90//90
f 92//92 91//91 90//90
f 92//92 90//90 93//93
f 92//92 94//94 74//74
f 92//92 93//93 94//94
f 93//93 95//95 96//96
f 89//89 97//97 98//98
f 99//99 98//98 100//100
f 99//99 96//96 95//95
f 99//99 101//101 96//96
f 101//101 102//102 96//96
f 102//102 103//103 96//96
f 12//12 27//27 39//39
f 46//46 39//39 75//75
f 36//36 40//40 39//39
f 38//38 44//44 40//40
f 39//39 40//40 75//75
f 40//40 44//44 104//104
f 40//40 104//104 75//75
f 44//44 105//105 104//104
f 85//85 84//84 86//86
f 83//83 76//76 53//53
f 87//87 86//86 88//88
f 89//89 88//88 97//97
f 49//49 75//75 83//83
f 84//84 106//106 107//107
f 83//83 84//84 76//76
f 84//84 108//108 106//106
f 107//107 106//106 109//109
f 109//109 106//106 110//110
f 109//109 110//110 111//111
f 111//111 110//110 112//112
f 98//98 97//97 100//100
f 99//99 100//100 101//101
f 103//103 113//113 96//96
f 111//111 113//113 114//114
f 111//111 112//112 113//113
f 103//103 114//114 113//113
f 113//113 115//115 116//116
f 115//115 117//117 118//118
f 83//83 108//108 84//84
f 83//83 119//119 108//108
f 83//83 120//120 119//119
f 121//121 122//122 120//120
f 123//123 120//120 122//122
f 123//123 122//122 124//124
f 83//83 121//121 120//120
f 83//83 125//125 121//121
f 75//75 104//104 83//83
f 83//83 126//126 125//125
f 83//83 127//127 126//126
f 83//83 128//128 127//127
f 122//122 129//129 124//124
f 122//122 130//130 118//118
f 122//122 118//118 129//129
f 129//129 118//118 117//117
f 130//130 131//131 118//118
f 130//130 132//132 131//131
f 130//130 133//133 132//132
f 133//133 134//134 132//132
f 104//104 135//135 83//83
f 134//134 136//136 137//137
f 138//138 139//139 136//136
f 128//128 140//140 141//141
f 83//83 135//135 128//128
f 138//138 141//141 140//140
f 2//2 142//142 15//15
f 3//3 15//15 16//16
f 2//2 17//17 142//142
f 15//15 142//142 143//143
f 15//15 143//143 144//144
f 142//142 145//145 143//143
f 15//15 144//144 16//16
f 143//143 146//146 147//147
f 142//142 17//17 145//145
f 143//143 145//145 148//148
f 143//143 148//148 146//146
f 148//148 149//149 146//146
f 17//17 150//150 145//145
f 145//145 150//150 148//148
f 148//148 151//151 149//149
f 151//151 152//152 149//149
f 18//18 153//153 28//28
f 154//154 155//155 153//153
f 156//156 157//157 158//158
f 152//152 159//159 157//157
f 151//151 159//159 152//152
f 28//28 153//153 155//155
f 156//156 158//158 160//160
f 157//157 159//159 158//158
f 151//151 161//161 159//159
f 41//41 31//31 162//162
f 29//29 41//41 42//42
f 38//38 42//42 43//43
f 163//163 162//162 164//164
f 41//41 162//162 163//163
f 41//41 163//163 42//42
f 163//163 165//165 166//166
f 42//42 163//163 167//167
f 166//166 165//165 168//168
f 166//166 168//168 161//161
f 42//42 167//167 43//43
f 163//163 166//166 167//167
f 43//43 167//167 169//169
f 167//167 166//166 170//170
f 166//166 161//161 170//170
f 13//13 48//48 17//17
f 47//47 171//171 48//48
f 17//17 48//48 150//150
f 148//148 150//150 151//151
f 48//48 171//171 150//150
f 150//150 172//172 151//151
f 150//150 171//171 172//172
f 151//151 172//172 170//170
f 63//63 66//66 64//64
f 54//54 64//64 62//62
f 49//49 62//62 61//61
f 67//67 173//173 66//66
f 67//67 69//69 173//173
f 47//47 61//61 171//171
f 68//68 73//73 69//69
f 74//74 174//174 73//73
f 69//69 73//73 175//175
f 175//175 73//73 176//176
f 175//175 177//177 178//178
f 175//175 176//176 177//177
f 61//61 62//62 179//179
f 61//61 179//179 180//180
f 61//61 180//180 181//181
f 171//171 61//61 172//172
f 61//61 181//181 182//182
f 61//61 182//182 183//183
f 178//178 177//177 184//184
f 184//184 177//177 183//183
f 184//184 183//183 182//182
f 61//61 183//183 185//185
f 61//61 185//185 186//186
f 61//61 186//186 187//187
f 74//74 94//94 174//174
f 93//93 96//96 94//94
f 188//188 189//189 96//96
f 189//189 190//190 96//96
f 189//189 191//191 190//190
f 113//113 188//188 96//96
f 192//192 116//116 193//193
f 193//193 194//194 195//195
f 195//195 196//196 197//197
f 190//190 198//198 199//199
f 190//190 191//191 198//198
f 199//199 198//198 200//200
f 200//200 198//198 201//201
f 200//200 201//201 186//186
f 61//61 187//187 202//202
f 186//186 201//201 187//187
f 61//61 135//135 172//172
f 197//197 203//203 204//204
f 204//204 205//205 206//206
f 206//206 207//207 187//187
f 151//151 170//170 161//161
f 172//172 208//208 170//170
f 44//44 43//43 105//105
f 104//104 105//105 209//209
f 43//43 169//169 105//105
f 167//167 170//170 169//169
f 105//105 169//169 209//209
f 169//169 170//170 208//208
f 169//169 208//208 209//209
f 113//113 192//192 188//188
f 193//193 116//116 194//194
f 113//113 116//116 192//192
f 195//195 194//194 196//196
f 197//197 196//196 203//203
f 115//115 118//118 116//116
f 116//116 118//118 210//210
f 210//210 118//118 211//211
f 211//211 118//118 212//212
f 211//211 212//212 213//213
f 212//212 214//214 213//213
f 204//204 203//203 205//205
f 206//206 205//205 207//207
f 187//187 207//207 202//202
f 61//61 202//202 135//135
f 213//213 215//215 216//216
f 213//213 214//214 215//215
f 216//216 215//215 217//217
f 217//217 215//215 218//218
f 202//202 217//217 218//218
f 202//202 218//218 219//219
f 172//172 135//135 208//208
f 134//134 137//137 132//132
f 132//132 137//137 220//220
f 220//220 137//137 221//221
f 220//220 221//221 222//222
f 221//221 223//223 222//222
f 136//136 224//224 137//137
f 136//136 139//139 224//224
f 138//138 140//140 139//139
f 128//128 225//225 140//140
f 135//135 225//225 128//128
f 104//104 209//209 135//135
f 222//222 223//223 226//226
f 226//226 223//223 227//227
f 228//228 226//226 227//227
f 228//228 227//227 229//229
f 135//135 202//202 219//219
f 228//228 229//229 219//219
f 219//219 229//229 230//230
f 135//135 231//231 225//225
f 135//135 219//219 230//230
f 135//135 232//232 231//231
f 135//135 230//230 232//232
f 209//209 208//208 135//135
f 233//233 234//234 235//235
f 236//236 235//235 237//237
f 238//238 239//239 234//234
f 240//240 241//241 239//239
f 242//242 237//237 243//243
f 244//244 243//243 245//245
f 233//233 235//235 236//236
f 236//236 237//237 242//242
f 246//246 247//247 248//248
f 233//233 238//238 234//234
f 238//238 240//240 239//239
f 242//242 243//243 244//244
f 246//246 248//248 249//249
f 248//248 250//250 249//249
f 249//249 250//250 251//251
f 251//251 250//250 252//252
f 244//244 245//245 253//253
f 254//254 255//255 241//241
f 256//256 257//257 255//255
f 258//258 259//259 260//260
f 261//261 262//262 257//257
f 263//263 260//260 262//262
f 253//253 245//245 259//259
f 240//240 254//254 241//241
f 254//254 256//256 255//255
f 258//258 260//260 263//263
f 251//251 252//252 264//264
f 252//252 265//265 264//264
f 264//264 265//265 266//266
f 265//265 267//267 266//266
f 256//256 261//261 257//257
f 261//261 263//263 262//262
f 266//266 267//267 268//268
f 253//253 259//259 258//258
f 269//269 270//270 271//271
f 272//272 273//273 270//270
f 274//274 275//275 273//273
f 269//269 271//271 276//276
f 277//277 278//278 279//279
f 269//269 272//272 270//270
f 272//272 274//274 273//273
f 277//277 279//279 280//280
f 280//280 281//281 282//282
f 283//283 284//284 275//275
f 285//285 286//286 284//284
f 287//287 288//288 286//286
f 274//274 283//283 275//275
f 283//283 285//285 284//284
f 282//282 289//289 290//290
f 290//290 291//291 292//292
f 285//285 287//287 286//286
f 292//292 293//293 294//294
f 276//276 271//271 295//295
f 296//296 295//295 297//297
f 298//298 297//297 299//299
f 276//276 295//295 296//296
f 296//296 297//297 298//298
f 298//298 299//299 300//300
f 280//280 279//279 281//281
f 282//282 281//281 289//289
f 300//300 299//299 301//301
f 302//302 301//301 303//303
f 304//304 303//303 288//288
f 300//300 301//301 302//302
f 302//302 303//303 304//304
f 290//290 289//289 291//291
f 292//292 291//291 293//293
f 287//287 304//304 288//288
f 305//305 306//306 307//307
f 308//308 309//309 310//310
f 311//311 310//310 312//312
f 313//313 307//307 309//309
f 314//314 312//312 315//315
f 316//316 315//315 317//317
f 313//313 305//305 307//307
f 308//308 310//310 311//311
f 311//311 312//312 314//314
f 318//318 319//319 320//320
f 313//313 309//309 308//308
f 314//314 315//315 316//316
f 316//316 317//317 321//321
f 322//322 318//318 320//320
f 322//322 320//320 323//323
f 322//322 323//323 324//324
f 324//324 323//323 325//325
f 326//326 327//327 306//306
f 328//328 329//329 327//327
f 321//321 317//317 330//330
f 331//331 330//330 332//332
f 333//333 334//334 329//329
f 335//335 332//332 334//334
f 305//305 326//326 306//306
f 326//326 328//328 327//327
f 321//321 330//330 331//331
f 331//331 332//332 335//335
f 324//324 325//325 336//336
f 325//325 337//337 336//336
f 336//336 337//337 338//338
f 337//337 339//339 338//338
f 328//328 333//333 329//329
f 333//333 335//335 334//334
f 338//338 339//339 340//340
f 341//341 342//342 343//343
f 344//344 343//343 345//345
f 346//346 347//347 342//342
f 348//348 349//349 347//347
f 350//350 345//345 351//351
f 352//352 351//351 353//353
f 341//341 343//343 344//344
f 344//344 345//345 350//350
f 354//354 355//355 356//356
f 341//341 346//346 342//342
f 346//346 348//348 347//347
f 350//350 351//351 352//352
f 354//354 356//356 357//357
f 356//356 358//358 357//357
f 357//357 358//358 359//359
f 359//359 358//358 360//360
f 352//352 353//353 361//361
f 362//362 363//363 349//349
f 364//364 365//365 363//363
f 366//366 367//367 368//368
f 369//369 370//370 365//365
f 371//371 368//368 370//370
f 361//361 353//353 367//367
f 348//348 362//362 349//349
f 362//362 364//364 363//363
f 371//371 366//366 368//368
f 359//359 360//360 372//372
f 360//360 373//373 372//372
f 372//372 373//373 374//374
f 374//374 373//373 375//375
f 364//364 369//369 365//365
f 369//369 371//371 370//370
f 374//374 375//375 376//376
f 361//361 367//367 366//366
f 377//377 378//378 379//379
f 380//380 381//381 378//378
f 382//382 383//383 381//381
f 377//377 379//379 384//384
f 377//377 380//380 378//378
f 380//380 382//382 381//381
f 385//385 386//386 387//387
f 387//387 388//388 389//389
f 390//390 391//391 383//383
f 392//392 393//393 391//391
f 394//394 395//395 393//393
f 382//382 390//390 383//383
f 390//390 392//392 391//391
f 389//389 396//396 397//397
f 397//397 398//398 399//399
f 392//392 394//394 393//393
f 384//384 379//379 400//400
f 401//401 400//400 402//402
f 403//403 402//402 404//404
f 384//384 400//400 401//401
f 385//385 405//405 386//386
f 401//401 402//402 403//403
f 403//403 404//404 406//406
f 387//387 386//386 388//388
f 389//389 388//388 396//396
f 406//406 404//404 407//407
f 408//408 407//407 409//409
f 410//410 409//409 395//395
f 406//406 407//407 408//408
f 408//408 409//409 410//410
f 397//397 396//396 398//398
f 399//399 398//398 411//411
f 394//394 410//410 395//395
f 399//399 411//411 412//412
f 413//413 414//414 415//415
f 416//416 417//417 418//418
f 419//419 418//418 420//420
f 421//421 415//415 417//417
f 422//422 420//420 423//423
f 424//424 423//423 425//425
f 421//421 413//413 415//415
f 416//416 418//418 419//419
f 419//419 420//420 422//422
f 426//426 427//427 428//428
f 416//416 421//421 417//417
f 422//422 423//423 424//424
f 424//424 425//425 429//429
f 426//426 428//428 430//430
f 428//428 431//431 430//430
f 430//430 431//431 432//432
f 432//432 431//431 433//433
f 434//434 435//435 414//414
f 436//436 437//437 435//435
f 429//429 425//425 438//438
f 439//439 438//438 440//440
f 441//441 442//442 437//437
f 443//443 440//440 442//442
f 413//413 434//434 414//414
f 434//434 436//436 435//435
f 429//429 438//438 439//439
f 439//439 440//440 443//443
f 432//432 433//433 444//444
f 433//433 445//445 444//444
f 444//444 445//445 446//446
f 445//445 447//447 446//446
f 436//436 441//441 437//437
f 441//441 443//443 442//442
f 446//446 447//447 448//448
f 449//449 450//450 451//451
f 452//452 451//451 453//453
f 454//454 455//455 450//450
f 456//456 457//457 455//455
f 458//458 453//453 459//459
f 460//460 459//459 461//461
f 449//449 451//451 452//452
f 452//452 453//453 458//458
f 462//462 463//463 464//464
f 449//449 454//454 450//450
f 454//454 456//456 455//455
f 458//458 459//459 460//460
f 462//462 464//464 465//465
f 464//464 466//466 465//465
f 465//465 466//466 467//467
f 466//466 468//468 467//467
f 460//460 461//461 469//469
f 470//470 471//471 457//457
f 472//472 473//473 471//471
f 474//474 475//475 476//476
f 477//477 478//478 473//473
f 479//479 476//476 478//478
f 469//469 461//461 475//475
f 456//456 470//470 457//457
f 470//470 472//472 471//471
f 474//474 476//476 479//479
f 467//467 468//468 480//480
f 480//480 468//468 481//481
f 480//480 481//481 482//482
f 481//481 483//483 482//482
f 472//472 477//477 473//473
f 477//477 479//479 478//478
f 482//482 483//483 484//484
f 469//469 475//475 474//474
f 485//485 486//486 487//487
f 488//488 489//489 486//486
f 490//490 491//491 489//489
f 485//485 487//487 492//492
f 493//493 494//494 495//495
f 485//485 488//488 486//486
f 488//488 490//490 489//489
f 493//493 495//495 496//496
f 496//496 497//497 498//498
f 499//499 500//500 491//491
f 501//501 502//502 500//500
f 503//503 504//504 502//502
f 490//490 499//499 491//491
f 499//499 501//501 500//500
f 498//498 505//505 506//506
f 506//506 507//507 508//508
f 501//501 503//503 502//502
f 508//508 509//509 510//510
f 492//492 487//487 511//511
f 512//512 511//511 513//513
f 514//514 513//513 515//515
f 492//492 511//511 512//512
f 512//512 513//513 514//514
f 514//514 515//515 516//516
f 496//496 495//495 497//497
f 498//498 497//497 505//505
f 516//516 515//515 517//517
f 518//518 517//517 519//519
f 520//520 519//519 504//504
f 516//516 517//517 518//518
f 518//518 519//519 520//520
f 506//506 505//505 507//507
f 508//508 507//507 509//509
f 503//503 520//520 504//504
f 521//521 522//522 523//523
f 524//524 525//525 526//526
f 527//527 526//526 528//528
f 529//529 523//523 525//525
f 530//530 528//528 531//531
f 532//532 531//531 533//533
f 529//529 521//521 523//523
f 524//524 526//526 527//527
f 527//527 528//528 530//530
f 534//534 535//535 536//536
f 529//529 525//525 524//524
f 530//530 531//531 532//532
f 532//532 533//533 537//537
f 538//538 534//534 536//536
f 538//538 536//536 539//539
f 538//538 539//539 540//540
f 539//539 541//541 540//540
f 542//542 543//543 522//522
f 544//544 545//545 543//543
f 537//537 533//533 546//546
f 547//547 546//546 548//548
f 549//549 550//550 545//545
f 551//551 548//548 550//550
f 521//521 542//542 522//522
f 542//542 544//544 543//543
f 537//537 546//546 547//547
f 547//547 548//548 551//551
f 540//540 541//541 552//552
f 552//552 541//541 553//553
f 552//552 553//553 554//554
f 553//553 555//555 554//554
f 544//544 549//549 545//545
f 549//549 551//551 550//550
f 554//554 555//555 556//556
f 557//557 558//558 559//559
f 560//560 559//559 561//561
f 562//562 563//563 558//558
f 564//564 565//565 563//563
f 566//566 561//561 567//567
f 568//568 567//567 569//569
f 557//557 559//559 560//560
f 560//560 561//561 566//566
f 570//570 571//571 572//572
f 557//557 562//562 558//558
f 562//562 564//564 563//563
f 566//566 567//567 568//568
f 570//570 572//572 573//573
f 572//572 574//574 573//573
f 573//573 574//574 575//575
f 574//574 576//576 575//575
f 568//568 569//569 577//577
f 578//578 579//579 565//565
f 580//580 581//581 579//579
f 582//582 583//583 584//584
f 585//585 586//586 581//581
f 587//587 584//584 586//586
f 577//577 569//569 583//583
f 564//564 578//578 565//565
f 578//578 580//580 579//579
f 587//587 582//582 584//584
f 575//575 576//576 588//588
f 588//588 576//576 589//589
f 588//588 589//589 590//590
f 590//590 589//589 591//591
f 580//580 585//585 581//581
f 585//585 587//587 586//586
f 590//590 591//591 592//592
f 577//577 583//583 582//582
f 593//593 594//594 595//595
f 596//596 597//597 594//594
f 598//598 599//599 597//597
f 593//593 595//595 600//600
f 593//593 596//596 594//594
f 596//596 598//598 597//597
f 601//601 602//602 603//603
f 603//603 604//604 605//605
f 606//606 607//607 599//599
f 608//608 609//609 607//607
f 610//610 611//611 609//609
f 598//598 606//606 599//599
f 606//606 608//608 607//607
f 605//605 612//612 613//613
f 613//613 614//614 615//615
f 608//608 610//610 609//609
f 600//600 595//595 616//616
f 617//617 616//616 618//618
f 619//619 618//618 620//620
f 600//600 616//616 617//617
f 601//601 621//621 602//602
f 617//617 618//618 619//619
f 619//619 620//620 622//622
f 603//603 602//602 604//604
f 605//605 604//604 612//612
f 622//622 620//620 623//623
f 624//624 623//623 625//625
f 626//626 625//625 611//611
f 622//622 623//623 624//624
f 624//624 625//625 626//626
f 613//613 612//612 614//614
f 615//615 614//614 627//627
f 610//610 626//626 611//611
f 615//615 627//627 628//628
f 629//629 630//630 631//631
f 632//632 633//633 634//634
f 635//635 634//634 636//636
f 637//637 631//631 633//633
f 638//638 636//636 639//639
f 640//640 639//639 641//641
f 637//637 629//629 631//631
f 632//632 634//634 635//635
f 635//635 636//636 638//638
f 642//642 643//643 644//644
f 632//632 637//637 633//633
f 638//638 639//639 640//640
f 640//640 641//641 645//645
f 642//642 644//644 646//646
f 644//644 647//647 646//646
f 646//646 647//647 648//648
f 647//647 649//649 648//648
f 650//650 651//651 630//630
f 652//652 653//653 651//651
f 645//645 641//641 654//654
f 655//655 654//654 656//656
f 657//657 658//658 653//653
f 659//659 656//656 658//658
f 629//629 650//650 630//630
f 650//650 652//652 651//651
f 645//645 654//654 655//655
f 655//655 656//656 659//659
f 648//648 649//649 660//660
f 660//660 649//649 661//661
f 660//660 661//661 662//662
f 661//661 663//663 662//662
f 652//652 657//657 653//653
f 657//657 659//659 658//658
f 662//662 663//663 664//664
f 665//665 666//666 667//667
f 665//665 667//667 668//668
f 669//669 670//670 671//671
f 672//672 673//673 674//674
f 672//672 675//675 673//673
f 672//672 676//676 675//675
f 677//677 678//678 679//679
f 677//677 679//679 680//680
f 670//670 681//681 671//671
f 677//677 680//680 682//682
f 683//683 684//684 685//685
f 686//686 672//672 687//687
f 688//688 689//689 677//677
f 672//672 674//674 687//687
f 677//677 689//689 678//678
f 685//685 684//684 690//690
f 687//687 674//674 691//691
f 689//689 692//692 678//678
f 687//687 691//691 693//693
f 687//687 693//693 694//694
f 689//689 695//695 692//692
f 689//689 696//696 695//695
f 697//697 698//698 699//699
f 687//687 694//694 700//700
f 689//689 701//701 696//696
f 699//699 698//698 702//702
f 700//700 694//694 703//703
f 704//704 705//705 706//706
f 701//701 707//707 696//696
f 704//704 706//706 708//708
f 709//709 710//710 711//711
f 709//709 711//711 712//712
f 713//713 714//714 715//715
f 716//716 717//717 718//718
f 716//716 719//719 717//717
f 716//716 720//720 719//719
f 714//714 721//721 715//715
f 722//722 723//723 724//724
f 722//722 724//724 725//725
f 722//722 725//725 726//726
f 727//727 728//728 729//729
f 730//730 716//716 731//731
f 732//732 733//733 722//722
f 716//716 718//718 731//731
f 722//722 733//733 723//723
f 729//729 728//728 734//734
f 731//731 718//718 735//735
f 733//733 736//736 723//723
f 731//731 735//735 737//737
f 731//731 737//737 738//738
f 733//733 739//739 736//736
f 733//733 740//740 739//739
f 741//741 742//742 743//743
f 731//731 738//738 744//744
f 733//733 745//745 740//740
f 743//743 742//742 746//746
f 744//744 738//738 747//747
f 748//748 749//749 750//750
f 745//745 751//751 740//740
f 748//748 750//750 752//752
