v -0.12066 -0.04100 -0.24566
v -0.12066 -0.04666 -0.24000
v -0.12300 -0.04100 -0.24000
v -0.11500 -0.04666 -0.24566
v -0.11500 -0.04900 -0.24000
v -0.11500 -0.04100 -0.24800
v -0.12066 0.04100 -0.24566
v 0.11500 -0.04900 -0.24000
v 0.11500 -0.04100 -0.24800
v -0.12066 -0.04666 0.24000
v -0.11500 -0.04900 0.24000
v -0.12300 -0.04100 0.24000
v -0.12066 -0.04100 0.24566
v -0.11500 -0.04666 0.24566
v -0.11500 -0.04100 0.24800
v -0.12300 0.04100 0.24000
v -0.12066 0.04100 0.24566
v 0.11500 -0.04900 0.24000
v 0.11500 -0.04666 0.24566
v 0.11500 -0.04100 0.24800
v -0.11500 0.04100 0.24800
v -0.12300 0.04100 -0.24000
v -0.11500 0.04100 -0.24800
v -0.12066 0.04666 -0.24000
v -0.11500 0.04666 -0.24566
v -0.11500 0.04900 -0.24000
v 0.11500 0.04100 -0.24800
v 0.11500 0.04900 -0.24000
v -0.11500 0.04900 0.24000
v -0.07500 0.04900 0.12500
v -0.06495 0.04900 0.08750
v -0.03750 0.04900 0.06005
v -0.12066 0.04666 0.24000
v -0.11500 0.04666 0.24566
v -0.06495 0.04900 0.16250
v -0.03750 0.04900 0.18995
v 0.00000 0.04900 0.05000
v 0.00000 0.04900 0.20000
v 0.11500 0.04100 0.24800
v 0.11500 0.04900 0.24000
v 0.11500 -0.04666 -0.24566
v 0.12066 -0.04666 -0.24000
v 0.12066 -0.04100 -0.24566
v 0.12300 -0.04100 -0.24000
v 0.12066 0.04100 -0.24566
v 0.12066 -0.04666 0.24000
v 0.12300 -0.04100 0.24000
v 0.12066 -0.04100 0.24566
v 0.12300 0.04100 -0.24000
v 0.12300 0.04100 0.24000
v 0.11500 0.04666 -0.24566
v 0.12066 0.04666 -0.24000
v 0.03750 0.04900 0.06005
v 0.11500 0.04666 0.24566
v 0.03750 0.04900 0.18995
v 0.06495 0.04900 0.08750
v 0.07500 0.04900 0.12500
v 0.06495 0.04900 0.16250
v 0.12066 0.04100 0.24566
v 0.12066 0.04666 0.24000
v -0.06495 0.09900 0.08750
v -0.06495 0.04900 0.08750
v -0.07500 0.04900 0.12500
v -0.07500 0.09900 0.12500
v -0.06495 0.04900 0.16250
v -0.06495 0.09900 0.16250
v -0.06495 0.09900 0.08750
v -0.07500 0.09900 0.12500
v -0.06495 0.09900 0.16250
v -0.03750 0.09900 0.06005
v -0.03750 0.04900 0.06005
v 0.00000 0.09900 0.05000
v 0.00000 0.04900 0.05000
v -0.03750 0.04900 0.18995
v -0.03750 0.09900 0.06005
v -0.03750 0.09900 0.18995
v -0.03750 0.09900 0.18995
v 0.00000 0.04900 0.20000
v 0.00000 0.09900 0.05000
v 0.00000 0.09900 0.20000
v 0.00000 0.09900 0.20000
v 0.03750 0.09900 0.06005
v 0.03750 0.04900 0.06005
v 0.06495 0.09900 0.08750
v 0.06495 0.04900 0.08750
v 0.03750 0.04900 0.18995
v 0.03750 0.09900 0.06005
v 0.03750 0.09900 0.18995
v 0.03750 0.09900 0.18995
v 0.06495 0.04900 0.16250
v 0.06495 0.09900 0.08750
v 0.06495 0.09900 0.16250
v 0.06495 0.09900 0.16250
v 0.07500 0.09900 0.12500
v 0.07500 0.04900 0.12500
v 0.07500 0.09900 0.12500
v -0.02427 -0.01763 -0.25000
v -0.02427 -0.01763 -0.28430
v -0.00927 -0.02853 -0.28319
v -0.03000 0.00000 -0.25000
v -0.00927 -0.02853 -0.25000
v -0.00017 -0.02853 -0.28071
v 0.00000 -0.02853 -0.28068
v 0.00017 -0.02853 -0.28071
v -0.02903 -0.00299 -0.28161
v -0.03000 0.00000 -0.28158
v -0.02903 0.00299 -0.28161
v -0.02427 0.01763 -0.25000
v -0.02427 -0.01763 -0.25000
v -0.02427 0.01763 -0.25000
v -0.03000 0.00000 -0.25000
v -0.00927 -0.02853 -0.25000
v 0.00927 -0.02853 -0.25000
v -0.00927 0.02853 -0.25000
v -0.02427 0.01763 -0.28430
v -0.00927 0.02853 -0.25000
v -0.00927 0.02853 -0.28319
v 0.00927 0.02853 -0.25000
v -0.00017 0.02853 -0.28071
v 0.00927 -0.02853 -0.28319
v 0.00927 -0.02853 -0.25000
v 0.02427 -0.01763 -0.28430
v 0.02427 -0.01763 -0.25000
v 0.02903 -0.00299 -0.28161
v 0.03000 0.00000 -0.25000
v 0.03000 0.00000 -0.28158
v 0.02903 0.00299 -0.28161
v 0.02427 0.01763 -0.28430
v 0.02427 0.01763 -0.25000
v 0.02427 -0.01763 -0.25000
v 0.00927 0.02853 -0.25000
v 0.03000 0.00000 -0.25000
v 0.02427 0.01763 -0.25000
v 0.00000 0.02853 -0.28068
v 0.00017 0.02853 -0.28071
v 0.00927 0.02853 -0.28319
v -0.05956 -0.03223 -0.38223
v -0.06929 -0.02870 -0.35000
v -0.06929 0.00000 -0.37870
v -0.05956 -0.03223 -0.31777
v -0.06929 0.00000 -0.32130
v -0.07500 0.00000 -0.35000
v -0.06929 0.02870 -0.35000
v -0.05303 -0.05303 -0.35000
v -0.03223 -0.05956 -0.38223
v -0.02870 -0.06929 -0.35000
v -0.03223 -0.05956 -0.31777
v -0.03223 -0.03223 -0.40956
v -0.03223 -0.03223 -0.29044
v 0.00000 -0.06929 -0.37870
v 0.00000 -0.07500 -0.35000
v 0.00000 -0.05303 -0.40303
v 0.00000 -0.06929 -0.32130
v 0.00000 -0.05303 -0.29697
v 0.00000 -0.02870 -0.41929
v 0.00000 -0.02870 -0.28071
v -0.05303 0.00000 -0.40303
v -0.02870 0.00000 -0.41929
v -0.05303 0.00000 -0.29697
v -0.02903 -0.00299 -0.28161
v -0.05956 0.03223 -0.38223
v -0.03223 0.03223 -0.40956
v -0.05956 0.03223 -0.31777
v -0.03000 0.00000 -0.28158
v -0.02903 0.00299 -0.28161
v -0.03223 0.03223 -0.29044
v -0.00927 -0.02853 -0.28319
v -0.02427 -0.01763 -0.28430
v -0.00017 -0.02853 -0.28071
v 0.00000 -0.02853 -0.28068
v 0.00000 0.00000 -0.42500
v 0.00000 0.02870 -0.41929
v -0.05303 0.05303 -0.35000
v -0.03223 0.05956 -0.38223
v -0.03223 0.05956 -0.31777
v -0.02427 0.01763 -0.28430
v -0.00927 0.02853 -0.28319
v 0.00000 0.02870 -0.28071
v -0.00017 0.02853 -0.28071
v 0.00000 0.02853 -0.28068
v 0.00000 0.05303 -0.40303
v 0.00000 0.05303 -0.29697
v -0.02870 0.06929 -0.35000
v 0.00000 0.06929 -0.37870
v 0.00000 0.07500 -0.35000
v 0.00000 0.06929 -0.32130
v 0.02870 -0.06929 -0.35000
v 0.03223 -0.05956 -0.38223
v 0.03223 -0.05956 -0.31777
v 0.03223 -0.03223 -0.40956
v 0.03223 -0.03223 -0.29044
v 0.05303 -0.05303 -0.35000
v 0.05956 -0.03223 -0.38223
v 0.06929 -0.02870 -0.35000
v 0.05956 -0.03223 -0.31777
v 0.02870 0.00000 -0.41929
v 0.00017 -0.02853 -0.28071
v 0.00927 -0.02853 -0.28319
v 0.02427 -0.01763 -0.28430
v 0.02903 -0.00299 -0.28161
v 0.05303 0.00000 -0.40303
v 0.06929 0.00000 -0.37870
v 0.05303 0.00000 -0.29697
v 0.06929 0.00000 -0.32130
v 0.03223 0.03223 -0.40956
v 0.05956 0.03223 -0.38223
v 0.03000 0.00000 -0.28158
v 0.02903 0.00299 -0.28161
v 0.03223 0.03223 -0.29044
v 0.05956 0.03223 -0.31777
v 0.07500 0.00000 -0.35000
v 0.06929 0.02870 -0.35000
v 0.00017 0.02853 -0.28071
v 0.00927 0.02853 -0.28319
v 0.02427 0.01763 -0.28430
v 0.03223 0.05956 -0.38223
v 0.03223 0.05956 -0.31777
v 0.05303 0.05303 -0.35000
v 0.02870 0.06929 -0.35000
vn -0.6887 -0.2265 -0.6887
vn -0.6887 -0.6887 -0.2265
vn -0.9641 -0.1877 -0.1877
vn -0.2265 -0.6887 -0.6887
vn -0.1877 -0.9641 -0.1877
vn -0.1877 -0.1877 -0.9641
vn -0.6887 0.2265 -0.6887
vn 0.1877 -0.9641 -0.1877
vn 0.1877 -0.1877 -0.9641
vn -0.6887 -0.6887 0.2265
vn -0.1877 -0.9641 0.1877
vn -0.9641 -0.1877 0.1877
vn -0.6887 -0.2265 0.6887
vn -0.2265 -0.6887 0.6887
vn -0.1877 -0.1877 0.9641
vn -0.9641 0.1877 0.1877
vn -0.6887 0.2265 0.6887
vn 0.1877 -0.9641 0.1877
vn 0.2265 -0.6887 0.6887
vn 0.1877 -0.1877 0.9641
vn -0.1877 0.1877 0.9641
vn -0.9641 0.1877 -0.1877
vn -0.1877 0.1877 -0.9641
vn -0.6887 0.6887 -0.2265
vn -0.2265 0.6887 -0.6887
vn -0.1877 0.9641 -0.1877
vn 0.1877 0.1877 -0.9641
vn 0.1877 0.9641 -0.1877
vn -0.1877 0.9641 0.1877
vn 0.0000 1.0000 0.0000
vn 0.0000 1.0000 0.0000
vn 0.0000 1.0000 0.0000
vn -0.6887 0.6887 0.2265
vn -0.2265 0.6887 0.6887
vn 0.0000 1.0000 0.0000
vn 0.0000 1.0000 0.0000
vn 0.0000 1.0000 0.0000
vn 0.0000 1.0000 0.0000
vn 0.1877 0.1877 0.9641
vn 0.1877 0.9641 0.1877
vn 0.2265 -0.6887 -0.6887
vn 0.6887 -0.6887 -0.2265
vn 0.6887 -0.2265 -0.6887
vn 0.9641 -0.1877 -0.1877
vn 0.6887 0.2265 -0.6887
vn 0.6887 -0.6887 0.2265
vn 0.9641 -0.1877 0.1877
vn 0.6887 -0.2265 0.6887
vn 0.9641 0.1877 -0.1877
vn 0.9641 0.1877 0.1877
vn 0.2265 0.6887 -0.6887
vn 0.6887 0.6887 -0.2265
vn 0.0000 1.0000 0.0000
vn 0.2265 0.6887 0.6887
vn 0.0000 1.0000 0.0000
vn 0.0000 1.0000 0.0000
vn 0.0000 1.0000 0.0000
vn 0.0000 1.0000 0.0000
vn 0.6887 0.2265 0.6887
vn 0.6887 0.6887 0.2265
vn -0.8660 0.0000 -0.5000
vn -0.8660 0.0000 -0.5000
vn -1.0000 0.0000 -0.0000
vn -1.0000 0.0000 0.0000
vn -0.8660 0.0000 0.5000
vn -0.8660 0.0000 0.5000
vn 0.0000 1.0000 0.0000
vn 0.0000 1.0000 0.0000
vn 0.0000 1.0000 0.0000
vn -0.5000 0.0000 -0.8660
vn -0.5000 0.0000 -0.8660
vn 0.0000 0.0000 -1.0000
vn 0.0000 0.0000 -1.0000
vn -0.5000 0.0000 0.8660
vn 0.0000 1.0000 0.0000
vn 0.0000 1.0000 0.0000
vn -0.5000 0.0000 0.8660
vn 0.0000 0.0000 1.0000
vn 0.0000 1.0000 0.0000
vn 0.0000 1.0000 0.0000
vn 0.0000 0.0000 1.0000
vn 0.5000 0.0000 -0.8660
vn 0.5000 0.0000 -0.8660
vn 0.8660 0.0000 -0.5000
vn 0.8660 0.0000 -0.5000
vn 0.5000 0.0000 0.8660
vn 0.0000 1.0000 0.0000
vn 0.0000 1.0000 0.0000
vn 0.5000 0.0000 0.8660
vn 0.8660 0.0000 0.5000
vn 0.0000 1.0000 0.0000
vn 0.0000 1.0000 0.0000
vn 0.8660 0.0000 0.5000
vn 1.0000 0.0000 0.0000
vn 1.0000 0.0000 0.0000
vn 0.0000 1.0000 0.0000
vn -0.8090 -0.5878 -0.0000
vn -0.8015 -0.5979 -0.0000
vn -0.3431 -0.9393 -0.0000
vn -1.0000 0.0000 -0.0000
vn -0.3090 -0.9511 0.0000
vn 0.0000 -1.0000 0.0000
vn 0.0000 -1.0000 0.0000
vn 0.0000 -1.0000 0.0000
vn -0.9511 -0.3090 -0.0000
vn -1.0000 -0.0000 0.0000
vn -0.9511 0.3090 -0.0000
vn -0.8090 0.5878 -0.0000
vn 0.0000 0.0000 1.0000
vn 0.0000 0.0000 1.0000
vn 0.0000 0.0000 1.0000
vn 0.0000 0.0000 1.0000
vn 0.0000 0.0000 1.0000
vn 0.0000 0.0000 1.0000
vn -0.8015 0.5979 -0.0000
vn -0.3090 0.9511 -0.0000
vn -0.3431 0.9393 0.0000
vn 0.3090 0.9511 0.0000
vn 0.0000 1.0000 0.0000
vn 0.3431 -0.9393 0.0000
vn 0.3090 -0.9511 0.0000
vn 0.8015 -0.5979 -0.0000
vn 0.8090 -0.5878 -0.0000
vn 0.9511 -0.3090 -0.0000
vn 1.0000 -0.0000 -0.0000
vn 1.0000 0.0000 0.0000
vn 0.9511 0.3090 -0.0000
vn 0.8015 0.5979 -0.0000
vn 0.8090 0.5878 0.0000
vn 0.0000 0.0000 1.0000
vn 0.0000 0.0000 1.0000
vn 0.0000 0.0000 1.0000
vn 0.0000 0.0000 1.0000
vn 0.0000 1.0000 0.0000
vn 0.0000 1.0000 0.0000
vn 0.3431 0.9393 0.0000
vn -0.7838 -0.4391 -0.4391
vn -0.9257 -0.3782 -0.0000
vn -0.9257 -0.0000 -0.3782
vn -0.7838 -0.4391 0.4391
vn -0.9257 -0.0000 0.3782
vn -1.0000 0.0000 0.0000
vn -0.9257 0.3782 -0.0000
vn -0.7071 -0.7071 0.0000
vn -0.4391 -0.7838 -0.4391
vn -0.3782 -0.9257 0.0000
vn -0.4391 -0.7838 0.4391
vn -0.4391 -0.4391 -0.7838
vn -0.4391 -0.4391 0.7838
vn 0.0000 -0.9257 -0.3782
vn 0.0000 -1.0000 0.0000
vn -0.0000 -0.7071 -0.7071
vn -0.0000 -0.9257 0.3782
vn 0.0000 -0.7071 0.7071
vn 0.0000 -0.3782 -0.9257
vn -0.0000 -0.3782 0.9257
vn -0.7071 -0.0000 -0.7071
vn -0.3782 0.0000 -0.9257
vn -0.7071 -0.0000 0.7071
vn -0.5082 -0.1975 0.8383
vn -0.7838 0.4391 -0.4391
vn -0.4391 0.4391 -0.7838
vn -0.7838 0.4391 0.4391
vn -0.5556 -0.0000 0.8315
vn -0.5082 0.1975 0.8383
vn -0.4391 0.4391 0.7838
vn -0.2540 -0.2540 0.9333
vn -0.2540 -0.2540 0.9333
vn -0.2381 -0.2381 0.9416
vn -0.0000 -0.1951 0.9808
vn 0.0000 0.0000 -1.0000
vn 0.0000 0.3782 -0.9257
vn -0.7071 0.7071 -0.0000
vn -0.4391 0.7838 -0.4391
vn -0.4391 0.7838 0.4391
vn -0.2540 0.2540 0.9333
vn -0.2540 0.2540 0.9333
vn 0.0000 0.3782 0.9257
vn -0.2381 0.2381 0.9416
vn 0.0000 0.1951 0.9808
vn 0.0000 0.7071 -0.7071
vn 0.0000 0.7071 0.7071
vn -0.3782 0.9257 0.0000
vn -0.0000 0.9257 -0.3782
vn 0.0000 1.0000 0.0000
vn -0.0000 0.9257 0.3782
vn 0.3782 -0.9257 -0.0000
vn 0.4391 -0.7838 -0.4391
vn 0.4391 -0.7838 0.4391
vn 0.4391 -0.4391 -0.7838
vn 0.4391 -0.4391 0.7838
vn 0.7071 -0.7071 0.0000
vn 0.7838 -0.4391 -0.4391
vn 0.9257 -0.3782 -0.0000
vn 0.7838 -0.4391 0.4391
vn 0.3782 0.0000 -0.9257
vn 0.2381 -0.2381 0.9416
vn 0.2540 -0.2540 0.9333
vn 0.2540 -0.2540 0.9333
vn 0.5082 -0.1975 0.8383
vn 0.7071 0.0000 -0.7071
vn 0.9257 -0.0000 -0.3782
vn 0.7071 0.0000 0.7071
vn 0.9257 -0.0000 0.3782
vn 0.4391 0.4391 -0.7838
vn 0.7838 0.4391 -0.4391
vn 0.5556 0.0000 0.8315
vn 0.5082 0.1975 0.8383
vn 0.4391 0.4391 0.7838
vn 0.7838 0.4391 0.4391
vn 1.0000 0.0000 0.0000
vn 0.9257 0.3782 -0.0000
vn 0.2381 0.2381 0.9416
vn 0.2540 0.2540 0.9333
vn 0.2540 0.2540 0.9333
vn 0.4391 0.7838 -0.4391
vn 0.4391 0.7838 0.4391
vn 0.7071 0.7071 0.0000
vn 0.3782 0.9257 -0.0000
f 1//1 2//2 3//3
f 4//4 5//5 2//2
f 4//4 1//1 6//6
f 4//4 2//2 1//1
f 1//1 3//3 7//7
f 1//1 7//7 6//6
f 4//4 8//8 5//5
f 4//4 6//6 9//9
f 2//2 10//10 3//3
f 2//2 5//5 10//10
f 5//5 11//11 10//10
f 3//3 10//10 12//12
f 10//10 13//13 12//12
f 10//10 11//11 14//14
f 10//10 14//14 13//13
f 14//14 15//15 13//13
f 3//3 12//12 16//16
f 12//12 13//13 17//17
f 13//13 15//15 17//17
f 5//5 18//18 11//11
f 11//11 19//19 14//14
f 14//14 19//19 15//15
f 15//15 20//20 21//21
f 3//3 22//22 7//7
f 6//6 7//7 23//23
f 7//7 22//22 24//24
f 7//7 25//25 23//23
f 7//7 24//24 25//25
f 25//25 24//24 26//26
f 6//6 23//23 27//27
f 23//23 25//25 27//27
f 25//25 26//26 28//28
f 3//3 16//16 22//22
f 22//22 16//16 24//24
f 24//24 29//29 26//26
f 26//26 29//29 30//30
f 26//26 30//30 31//31
f 26//26 31//31 32//32
f 12//12 17//17 16//16
f 15//15 21//21 17//17
f 24//24 16//16 33//33
f 24//24 33//33 29//29
f 16//16 17//17 33//33
f 17//17 21//21 34//34
f 17//17 34//34 33//33
f 33//33 34//34 29//29
f 29//29 35//35 30//30
f 29//29 36//36 35//35
f 26//26 32//32 37//37
f 29//29 38//38 36//36
f 21//21 39//39 34//34
f 34//34 40//40 29//29
f 4//4 41//41 8//8
f 4//4 9//9 41//41
f 6//6 27//27 9//9
f 41//41 42//42 8//8
f 41//41 9//9 43//43
f 41//41 43//43 42//42
f 43//43 44//44 42//42
f 9//9 45//45 43//43
f 43//43 45//45 44//44
f 5//5 8//8 18//18
f 11//11 18//18 19//19
f 15//15 19//19 20//20
f 8//8 42//42 46//46
f 42//42 44//44 46//46
f 8//8 46//46 18//18
f 44//44 47//47 46//46
f 18//18 46//46 19//19
f 19//19 48//48 20//20
f 19//19 46//46 48//48
f 46//46 47//47 48//48
f 44//44 49//49 47//47
f 20//20 48//48 39//39
f 48//48 47//47 50//50
f 26//26 37//37 28//28
f 25//25 51//51 27//27
f 25//25 28//28 51//51
f 9//9 27//27 45//45
f 44//44 45//45 49//49
f 27//27 51//51 45//45
f 45//45 52//52 49//49
f 45//45 51//51 52//52
f 51//51 28//28 52//52
f 28//28 37//37 53//53
f 29//29 40//40 38//38
f 21//21 20//20 39//39
f 34//34 39//39 54//54
f 34//34 54//54 40//40
f 40//40 55//55 38//38
f 28//28 53//53 56//56
f 28//28 56//56 57//57
f 49//49 52//52 50//50
f 28//28 40//40 52//52
f 28//28 57//57 40//40
f 40//40 58//58 55//55
f 40//40 57//57 58//58
f 47//47 49//49 50//50
f 48//48 59//59 39//39
f 48//48 50//50 59//59
f 52//52 40//40 60//60
f 52//52 60//60 50//50
f 39//39 59//59 54//54
f 59//59 50//50 60//60
f 59//59 60//60 54//54
f 54//54 60//60 40//40
f 61//61 62//62 63//63
f 64//64 63//63 65//65
f 61//61 63//63 64//64
f 64//64 65//65 66//66
f 67//67 68//68 69//69
f 70//70 71//71 62//62
f 61//61 70//70 62//62
f 72//72 73//73 71//71
f 70//70 72//72 71//71
f 66//66 65//65 74//74
f 67//67 69//69 75//75
f 69//69 76//76 75//75
f 66//66 74//74 77//77
f 77//77 74//74 78//78
f 75//75 76//76 79//79
f 76//76 80//80 79//79
f 77//77 78//78 81//81
f 82//82 83//83 73//73
f 72//72 82//82 73//73
f 84//84 85//85 83//83
f 82//82 84//84 83//83
f 81//81 78//78 86//86
f 79//79 80//80 87//87
f 80//80 88//88 87//87
f 81//81 86//86 89//89
f 89//89 86//86 90//90
f 87//87 88//88 91//91
f 88//88 92//92 91//91
f 89//89 90//90 93//93
f 94//94 95//95 85//85
f 93//93 90//90 95//95
f 84//84 94//94 85//85
f 93//93 95//95 94//94
f 91//91 92//92 96//96
f 97//97 98//98 99//99
f 97//97 100//100 98//98
f 101//101 97//97 99//99
f 101//101 99//99 102//102
f 101//101 102//102 103//103
f 101//101 103//103 104//104
f 100//100 105//105 98//98
f 100//100 106//106 105//105
f 100//100 107//107 106//106
f 100//100 108//108 107//107
f 109//109 110//110 111//111
f 112//112 110//110 109//109
f 112//112 113//113 114//114
f 112//112 114//114 110//110
f 108//108 115//115 107//107
f 108//108 116//116 115//115
f 116//116 117//117 115//115
f 118//118 119//119 117//117
f 116//116 118//118 117//117
f 101//101 104//104 120//120
f 101//101 120//120 121//121
f 121//121 120//120 122//122
f 121//121 122//122 123//123
f 123//123 122//122 124//124
f 123//123 124//124 125//125
f 125//125 124//124 126//126
f 125//125 126//126 127//127
f 125//125 128//128 129//129
f 125//125 127//127 128//128
f 113//113 130//130 131//131
f 114//114 113//113 131//131
f 130//130 132//132 133//133
f 130//130 133//133 131//131
f 118//118 134//134 119//119
f 118//118 135//135 134//134
f 118//118 136//136 135//135
f 129//129 136//136 118//118
f 129//129 128//128 136//136
f 137//137 138//138 139//139
f 140//140 141//141 138//138
f 138//138 142//142 139//139
f 142//142 143//143 139//139
f 138//138 141//141 142//142
f 142//142 141//141 143//143
f 144//144 145//145 146//146
f 144//144 146//146 147//147
f 137//137 145//145 144//144
f 137//137 144//144 138//138
f 137//137 148//148 145//145
f 140//140 144//144 147//147
f 140//140 138//138 144//144
f 140//140 147//147 149//149
f 146//146 145//145 150//150
f 146//146 150//150 151//151
f 145//145 152//152 150//150
f 146//146 153//153 147//147
f 146//146 151//151 153//153
f 147//147 153//153 154//154
f 145//145 148//148 152//152
f 148//148 155//155 152//152
f 147//147 154//154 149//149
f 149//149 154//154 156//156
f 137//137 157//157 148//148
f 137//137 139//139 157//157
f 157//157 158//158 148//148
f 140//140 149//149 159//159
f 140//140 159//159 141//141
f 159//159 149//149 160//160
f 139//139 161//161 157//157
f 157//157 162//162 158//158
f 141//141 159//159 163//163
f 159//159 160//160 164//164
f 159//159 164//164 165//165
f 159//159 165//165 166//166
f 148//148 158//158 155//155
f 149//149 167//167 168//168
f 149//149 168//168 160//160
f 149//149 156//156 167//167
f 156//156 169//169 167//167
f 156//156 170//170 169//169
f 158//158 171//171 155//155
f 158//158 172//172 171//171
f 139//139 143//143 161//161
f 141//141 163//163 143//143
f 157//157 161//161 162//162
f 159//159 166//166 163//163
f 143//143 173//173 161//161
f 161//161 173//173 174//174
f 161//161 174//174 162//162
f 143//143 163//163 173//173
f 163//163 175//175 173//173
f 163//163 166//166 175//175
f 158//158 162//162 172//172
f 166//166 165//165 176//176
f 166//166 176//176 177//177
f 166//166 177//177 178//178
f 178//178 177//177 179//179
f 178//178 179//179 180//180
f 162//162 174//174 181//181
f 162//162 181//181 172//172
f 166//166 182//182 175//175
f 166//166 178//178 182//182
f 173//173 183//183 174//174
f 173//173 175//175 183//183
f 174//174 183//183 184//184
f 181//181 174//174 184//184
f 183//183 185//185 184//184
f 183//183 175//175 186//186
f 182//182 186//186 175//175
f 183//183 186//186 185//185
f 151//151 150//150 187//187
f 150//150 152//152 188//188
f 150//150 188//188 187//187
f 151//151 187//187 153//153
f 153//153 189//189 154//154
f 153//153 187//187 189//189
f 152//152 155//155 190//190
f 152//152 190//190 188//188
f 154//154 191//191 156//156
f 154//154 189//189 191//191
f 187//187 188//188 192//192
f 187//187 192//192 189//189
f 188//188 190//190 193//193
f 188//188 193//193 192//192
f 192//192 193//193 194//194
f 189//189 195//195 191//191
f 189//189 192//192 195//195
f 192//192 194//194 195//195
f 155//155 196//196 190//190
f 156//156 197//197 170//170
f 156//156 198//198 197//197
f 156//156 191//191 198//198
f 191//191 199//199 198//198
f 191//191 200//200 199//199
f 155//155 171//171 196//196
f 171//171 172//172 196//196
f 190//190 196//196 201//201
f 190//190 201//201 193//193
f 193//193 201//201 202//202
f 191//191 203//203 200//200
f 191//191 195//195 203//203
f 195//195 204//204 203//203
f 196//196 205//205 201//201
f 201//201 206//206 202//202
f 203//203 207//207 200//200
f 203//203 208//208 207//207
f 203//203 209//209 208//208
f 203//203 204//204 210//210
f 193//193 202//202 194//194
f 195//195 194//194 204//204
f 194//194 202//202 211//211
f 202//202 212//212 211//211
f 194//194 211//211 204//204
f 211//211 212//212 204//204
f 172//172 205//205 196//196
f 178//178 180//180 213//213
f 178//178 213//213 214//214
f 178//178 214//214 209//209
f 209//209 215//215 208//208
f 209//209 214//214 215//215
f 172//172 181//181 205//205
f 181//181 216//216 205//205
f 178//178 209//209 182//182
f 182//182 209//209 217//217
f 201//201 205//205 206//206
f 203//203 210//210 209//209
f 205//205 216//216 206//206
f 218//218 212//212 206//206
f 216//216 218//218 206//206
f 209//209 210//210 217//217
f 218//218 210//210 212//212
f 217//217 210//210 218//218
f 181//181 184//184 216//216
f 184//184 185//185 219//219
f 184//184 219//219 216//216
f 182//182 217//217 186//186
f 185//185 186//186 219//219
f 186//186 217//217 219//219
f 216//216 219//219 218//218
f 219//219 217//217 218//218
f 202//202 206//206 212//212
f 204//204 212//212 210//210
