v -0.04330 -0.02500 0.74800
v -0.04330 -0.02500 -0.74800
v -0.02500 -0.04330 -0.74800
v -0.02500 0.04330 -0.74800
v -0.02500 -0.04330 -0.74800
v -0.04330 -0.02500 -0.74800
v -0.05000 0.00000 0.74800
v -0.05000 0.00000 -0.74800
v -0.02500 -0.04330 0.74800
v 0.00000 -0.05000 -0.74800
v 0.00000 0.05000 -0.74800
v 0.00000 -0.05000 -0.74800
v -0.02500 0.04330 0.74800
v -0.04330 -0.02500 0.74800
v -0.02500 -0.04330 0.74800
v 0.00000 -0.05000 0.74800
v 0.00000 0.05000 0.74800
v 0.00000 -0.05000 0.74800
v -0.04330 0.02500 -0.74800
v -0.05000 0.00000 -0.74800
v -0.04330 0.02500 0.74800
v -0.04330 0.02500 -0.74800
v -0.02500 0.04330 0.74800
v -0.02500 0.04330 -0.74800
v 0.00000 0.05000 0.74800
v 0.00000 0.05000 -0.74800
v -0.04330 0.02500 0.74800
v -0.05000 0.00000 0.74800
v 0.02500 -0.04330 -0.74800
v 0.02500 0.04330 -0.74800
v 0.02500 -0.04330 -0.74800
v 0.02500 -0.04330 0.74800
v 0.04330 -0.02500 -0.74800
v 0.04330 0.02500 -0.74800
v 0.04330 -0.02500 -0.74800
v 0.04330 -0.02500 0.74800
v 0.05000 0.00000 -0.74800
v 0.02500 0.04330 0.74800
v 0.02500 -0.04330 0.74800
v 0.05000 0.00000 0.74800
v 0.04330 0.02500 0.74800
v 0.04330 -0.02500 0.74800
v 0.02500 0.04330 0.74800
v 0.02500 0.04330 -0.74800
v 0.05000 0.00000 -0.74800
v 0.04330 0.02500 -0.74800
v 0.04330 0.02500 0.74800
v 0.05000 0.00000 0.74800
vn -0.8660 -0.5000 0.0000
vn -0.8660 -0.5000 0.0000
vn -0.5000 -0.8660 0.0000
vn 0.0000 0.0000 -1.0000
vn 0.0000 0.0000 -1.0000
vn 0.0000 0.0000 -1.0000
vn -1.0000 -0.0000 0.0000
vn -1.0000 0.0000 -0.0000
vn -0.5000 -0.8660 -0.0000
vn -0.0000 -1.0000 -0.0000
vn 0.0000 0.0000 -1.0000
vn 0.0000 0.0000 -1.0000
vn 0.0000 0.0000 1.0000
vn 0.0000 0.0000 1.0000
vn 0.0000 0.0000 1.0000
vn 0.0000 -1.0000 0.0000
vn 0.0000 0.0000 1.0000
vn 0.0000 0.0000 1.0000
vn 0.0000 0.0000 -1.0000
vn 0.0000 0.0000 -1.0000
vn -0.8660 0.5000 -0.0000
vn -0.8660 0.5000 0.0000
vn -0.5000 0.8660 0.0000
vn -0.5000 0.8660 0.0000
vn -0.0000 1.0000 0.0000
vn 0.0000 1.0000 -0.0000
vn 0.0000 0.0000 1.0000
vn 0.0000 0.0000 1.0000
vn 0.5000 -0.8660 0.0000
vn 0.0000 0.0000 -1.0000
vn 0.0000 0.0000 -1.0000
vn 0.5000 -0.8660 0.0000
vn 0.8660 -0.5000 0.0000
vn 0.0000 0.0000 -1.0000
vn 0.0000 0.0000 -1.0000
vn 0.8660 -0.5000 -0.0000
vn 1.0000 -0.0000 -0.0000
vn 0.0000 0.0000 1.0000
vn 0.0000 0.0000 1.0000
vn 1.0000 0.0000 0.0000
vn 0.0000 0.0000 1.0000
vn 0.0000 0.0000 1.0000
vn 0.5000 0.8660 -0.0000
vn 0.5000 0.8660 0.0000
vn 0.0000 0.0000 -1.0000
vn 0.8660 0.5000 0.0000
vn 0.8660 0.5000 0.0000
vn 0.0000 0.0000 1.0000
f 1//1 2//2 3//3
f 4//4 5//5 6//6
f 7//7 8//8 2//2
f 9//9 3//3 10//10
f 11//11 12//12 5//5
f 9//9 1//1 3//3
f 1//1 7//7 2//2
f 13//13 14//14 15//15
f 16//16 9//9 10//10
f 17//17 15//15 18//18
f 19//19 6//6 20//20
f 4//4 6//6 19//19
f 21//21 22//22 8//8
f 23//23 24//24 22//22
f 11//11 5//5 4//4
f 25//25 26//26 24//24
f 7//7 21//21 8//8
f 27//27 28//28 14//14
f 13//13 27//27 14//14
f 21//21 23//23 22//22
f 17//17 13//13 15//15
f 23//23 25//25 24//24
f 16//16 10//10 29//29
f 30//30 31//31 12//12
f 32//32 29//29 33//33
f 34//34 35//35 31//31
f 36//36 33//33 37//37
f 32//32 16//16 29//29
f 38//38 18//18 39//39
f 36//36 32//32 33//33
f 40//40 36//36 37//37
f 41//41 39//39 42//42
f 30//30 12//12 11//11
f 43//43 44//44 26//26
f 34//34 31//31 30//30
f 45//45 35//35 34//34
f 40//40 37//37 46//46
f 47//47 46//46 44//44
f 38//38 17//17 18//18
f 25//25 43//43 26//26
f 47//47 40//40 46//46
f 41//41 38//38 39//39
f 48//48 41//41 42//42
f 43//43 47//47 44//44
