v -0.11179 -0.07500 -0.04630
v -0.08556 0.07500 -0.08556
v -0.08556 -0.07500 -0.08556
v -0.04630 -0.00784 -0.11179
v -0.04630 -0.07500 -0.11179
v -0.04898 0.00000 -0.11000
v -0.01796 -0.03254 -0.11743
v 0.00000 -0.07500 -0.12100
v 0.00000 -0.03702 -0.12100
v -0.04630 0.00784 -0.11179
v -0.04630 0.07500 -0.11179
v -0.11179 -0.07500 0.04630
v -0.11179 -0.07500 -0.04630
v -0.08556 -0.07500 -0.08556
v -0.12100 -0.07500 0.00000
v -0.08556 -0.07500 0.08556
v -0.04630 -0.07500 -0.11179
v -0.12100 -0.07500 0.00000
v -0.11179 0.07500 -0.04630
v -0.11179 -0.07500 0.04630
v -0.12100 0.07500 0.00000
v -0.08556 -0.07500 0.08556
v -0.11179 0.07500 0.04630
v -0.04630 -0.07500 0.11179
v -0.08556 0.07500 0.08556
v -0.04630 -0.07500 0.11179
v 0.00000 -0.07500 -0.12100
v 0.00000 -0.07500 0.12100
v 0.00000 -0.07500 0.12100
v -0.04630 0.07500 0.11179
v -0.01796 0.03254 -0.11743
v 0.00000 0.07500 -0.12100
v 0.00000 0.03702 -0.12100
v -0.08556 0.07500 -0.08556
v -0.03750 0.07500 -0.06495
v -0.04630 0.07500 -0.11179
v 0.00000 0.07500 -0.07500
v 0.00000 0.07500 -0.12100
v -0.11179 0.07500 0.04630
v -0.11179 0.07500 -0.04630
v -0.12100 0.07500 0.00000
v -0.08556 0.07500 0.08556
v -0.06495 0.07500 -0.03750
v -0.07500 0.07500 0.00000
v -0.06495 0.07500 0.03750
v -0.04630 0.07500 0.11179
v 0.00000 0.07500 0.12100
v -0.03750 0.07500 0.06495
v 0.00000 0.07500 0.12100
v 0.00000 0.07500 0.07500
v 0.01796 -0.03254 -0.11743
v 0.04630 -0.07500 -0.11179
v 0.04630 -0.00784 -0.11179
v 0.08556 0.07500 -0.08556
v 0.04898 0.00000 -0.11000
v 0.08556 -0.07500 -0.08556
v 0.04630 -0.07500 -0.11179
v 0.04630 -0.07500 0.11179
v 0.08556 -0.07500 -0.08556
v 0.04630 -0.07500 0.11179
v 0.08556 -0.07500 0.08556
v 0.04630 0.07500 0.11179
v 0.08556 -0.07500 0.08556
v 0.11179 -0.07500 -0.04630
v 0.11179 -0.07500 0.04630
v 0.12100 -0.07500 0.00000
v 0.11179 -0.07500 -0.04630
v 0.11179 0.07500 -0.04630
v 0.12100 -0.07500 0.00000
v 0.12100 0.07500 0.00000
v 0.11179 -0.07500 0.04630
v 0.08556 0.07500 0.08556
v 0.11179 0.07500 0.04630
v 0.01796 0.03254 -0.11743
v 0.04630 0.07500 -0.11179
v 0.04630 0.00784 -0.11179
v 0.03750 0.07500 -0.06495
v 0.04630 0.07500 -0.11179
v 0.06495 0.07500 -0.03750
v 0.08556 0.07500 -0.08556
v 0.04630 0.07500 0.11179
v 0.03750 0.07500 0.06495
v 0.08556 0.07500 0.08556
v 0.07500 0.07500 0.00000
v 0.11179 0.07500 -0.04630
v 0.11179 0.07500 0.04630
v 0.12100 0.07500 0.00000
v 0.06495 0.07500 0.03750
v -0.06000 -0.05864 -0.23176
v -0.06000 -0.07312 -0.20169
v -0.06000 -0.03909 -0.21617
v -0.06000 -0.07312 -0.16831
v -0.06000 -0.04875 -0.19613
v -0.06000 -0.04875 -0.17387
v -0.06000 -0.02169 -0.23005
v -0.06000 0.00000 -0.23500
v -0.06000 -0.05864 -0.23176
v 0.06000 -0.07312 -0.20169
v -0.06000 -0.07312 -0.20169
v 0.06000 -0.07312 -0.16831
v -0.06000 -0.07312 -0.16831
v -0.06000 -0.03254 -0.25257
v 0.06000 -0.05864 -0.23176
v -0.06000 -0.05864 -0.13824
v -0.06000 -0.03909 -0.15383
v -0.06000 -0.02169 -0.13995
v -0.06000 -0.05864 -0.13824
v -0.01796 -0.03254 -0.11743
v -0.06000 -0.03254 -0.11743
v -0.06000 -0.03254 -0.11743
v 0.06000 -0.05864 -0.13824
v 0.00000 -0.03702 -0.12100
v -0.06000 0.03254 -0.25257
v -0.06000 -0.03254 -0.25257
v -0.06000 0.00000 -0.26000
v -0.06000 0.02169 -0.23005
v -0.06000 0.00000 -0.26000
v 0.06000 -0.03254 -0.25257
v -0.06000 0.03254 -0.25257
v 0.06000 0.00000 -0.26000
v -0.06000 0.00000 -0.13500
v -0.04630 -0.00784 -0.11179
v -0.06000 0.00000 -0.11000
v -0.04898 0.00000 -0.11000
v -0.06000 0.05864 -0.13824
v -0.06000 0.03254 -0.11743
v -0.06000 0.00000 -0.11000
v -0.06000 0.03254 -0.11743
v -0.04630 0.00784 -0.11179
v -0.01796 0.03254 -0.11743
v -0.06000 0.05864 -0.23176
v -0.06000 0.03909 -0.21617
v -0.06000 0.04875 -0.19613
v -0.06000 0.07312 -0.20169
v -0.06000 0.04875 -0.17387
v -0.06000 0.03909 -0.15383
v -0.06000 0.07312 -0.16831
v -0.06000 0.05864 -0.23176
v 0.06000 0.03254 -0.25257
v -0.06000 0.07312 -0.20169
v 0.06000 0.05864 -0.23176
v -0.06000 0.07312 -0.16831
v 0.06000 0.07312 -0.20169
v -0.06000 0.02169 -0.13995
v 0.00000 0.03702 -0.12100
v 0.06000 0.05864 -0.13824
v -0.06000 0.05864 -0.13824
v 0.06000 0.07312 -0.16831
v 0.06000 -0.07312 -0.20169
v 0.06000 -0.04875 -0.17387
v 0.06000 -0.07312 -0.16831
v 0.06000 -0.05864 -0.23176
v 0.06000 -0.04875 -0.19613
v 0.06000 -0.03909 -0.15383
v 0.06000 -0.03909 -0.21617
v 0.06000 -0.02169 -0.23005
v 0.06000 0.00000 -0.23500
v 0.06000 -0.03254 -0.11743
v 0.01796 -0.03254 -0.11743
v 0.06000 -0.05864 -0.13824
v 0.06000 -0.02169 -0.13995
v 0.06000 0.00000 -0.13500
v 0.06000 -0.03254 -0.11743
v 0.06000 -0.03254 -0.25257
v 0.06000 0.03254 -0.25257
v 0.06000 0.00000 -0.26000
v 0.04630 -0.00784 -0.11179
v 0.04898 0.00000 -0.11000
v 0.06000 0.00000 -0.11000
v 0.06000 0.05864 -0.13824
v 0.06000 0.03254 -0.11743
v 0.06000 0.03254 -0.11743
v 0.01796 0.03254 -0.11743
v 0.04630 0.00784 -0.11179
v 0.06000 0.00000 -0.11000
v 0.06000 0.05864 -0.23176
v 0.06000 0.02169 -0.23005
v 0.06000 0.03909 -0.21617
v 0.06000 0.07312 -0.20169
v 0.06000 0.04875 -0.19613
v 0.06000 0.07312 -0.16831
v 0.06000 0.04875 -0.17387
v 0.06000 0.02169 -0.13995
v 0.06000 0.03909 -0.15383
v -0.06000 -0.03909 -0.21617
v 0.06000 -0.03909 -0.21617
v -0.06000 -0.02169 -0.23005
v -0.06000 -0.04875 -0.19613
v 0.06000 -0.04875 -0.19613
v -0.06000 -0.04875 -0.17387
v 0.06000 -0.04875 -0.17387
v -0.06000 -0.03909 -0.15383
v 0.06000 -0.03909 -0.15383
v -0.06000 -0.02169 -0.13995
v 0.06000 -0.02169 -0.13995
v 0.06000 -0.02169 -0.23005
v -0.06000 0.00000 -0.23500
v 0.06000 0.00000 -0.23500
v -0.06000 0.02169 -0.23005
v -0.06000 0.00000 -0.13500
v 0.06000 0.00000 -0.13500
v -0.06000 0.02169 -0.13995
v 0.06000 0.02169 -0.13995
v 0.06000 0.02169 -0.23005
v -0.06000 0.03909 -0.21617
v 0.06000 0.03909 -0.21617
v -0.06000 0.04875 -0.19613
v 0.06000 0.04875 -0.19613
v -0.06000 0.04875 -0.17387
v 0.06000 0.04875 -0.17387
v -0.06000 0.03909 -0.15383
v 0.06000 0.03909 -0.15383
v -0.03750 0.12400 -0.06495
v 0.00000 0.12400 -0.07500
v 0.00000 0.07500 -0.07500
v -0.07500 0.12400 0.00000
v -0.06495 0.07500 -0.03750
v -0.07500 0.07500 0.00000
v -0.06495 0.12400 0.03750
v -0.06495 0.07500 0.03750
v -0.06495 0.12400 -0.03750
v -0.06495 0.12400 -0.03750
v -0.07500 0.12400 0.00000
v -0.06495 0.12400 0.03750
v -0.03750 0.07500 -0.06495
v -0.03750 0.12400 -0.06495
v -0.03750 0.12400 0.06495
v 0.00000 0.12400 -0.07500
v 0.00000 0.12400 0.07500
v -0.03750 0.12400 0.06495
v -0.03750 0.07500 0.06495
v 0.00000 0.12400 0.07500
v 0.00000 0.07500 0.07500
v 0.03750 0.07500 -0.06495
v 0.03750 0.12400 -0.06495
v 0.03750 0.12400 -0.06495
v 0.03750 0.12400 0.06495
v 0.06495 0.07500 -0.03750
v 0.06495 0.12400 -0.03750
v 0.06495 0.12400 -0.03750
v 0.06495 0.12400 0.03750
v 0.03750 0.12400 0.06495
v 0.03750 0.07500 0.06495
v 0.06495 0.12400 0.03750
v 0.06495 0.07500 0.03750
v 0.07500 0.07500 0.00000
v 0.07500 0.12400 0.00000
v 0.07500 0.12400 0.00000
vn -0.9239 0.0000 -0.3827
vn -0.7071 0.0000 -0.7071
vn -0.7071 0.0000 -0.7071
vn -0.4761 0.0000 -0.8794
vn -0.3827 -0.0000 -0.9239
vn -0.5556 -0.0000 -0.8315
vn -0.1951 -0.0000 -0.9808
vn 0.0000 -0.0000 -1.0000
vn 0.0000 0.0000 -1.0000
vn -0.4761 -0.0000 -0.8794
vn -0.3827 0.0000 -0.9239
vn 0.0000 -1.0000 0.0000
vn 0.0000 -1.0000 0.0000
vn 0.0000 -1.0000 0.0000
vn 0.0000 -1.0000 0.0000
vn 0.0000 -1.0000 0.0000
vn 0.0000 -1.0000 0.0000
vn -1.0000 0.0000 -0.0000
vn -0.9239 0.0000 -0.3827
vn -0.9239 0.0000 0.3827
vn -1.0000 0.0000 0.0000
vn -0.7071 0.0000 0.7071
vn -0.9239 0.0000 0.3827
vn -0.3827 0.0000 0.9239
vn -0.7071 0.0000 0.7071
vn 0.0000 -1.0000 0.0000
vn 0.0000 -1.0000 0.0000
vn 0.0000 -1.0000 0.0000
vn -0.0000 0.0000 1.0000
vn -0.3827 0.0000 0.9239
vn -0.1951 0.0000 -0.9808
vn -0.0000 0.0000 -1.0000
vn -0.0000 0.0000 -1.0000
vn 0.0000 1.0000 0.0000
vn 0.0000 1.0000 0.0000
vn 0.0000 1.0000 0.0000
vn 0.0000 1.0000 0.0000
vn 0.0000 1.0000 0.0000
vn 0.0000 1.0000 0.0000
vn 0.0000 1.0000 0.0000
vn 0.0000 1.0000 0.0000
vn 0.0000 1.0000 0.0000
vn 0.0000 1.0000 0.0000
vn 0.0000 1.0000 0.0000
vn 0.0000 1.0000 0.0000
vn 0.0000 1.0000 0.0000
vn 0.0000 0.0000 1.0000
vn 0.0000 1.0000 0.0000
vn 0.0000 1.0000 0.0000
vn 0.0000 1.0000 0.0000
vn 0.1951 -0.0000 -0.9808
vn 0.3827 -0.0000 -0.9239
vn 0.4761 -0.0000 -0.8794
vn 0.7071 0.0000 -0.7071
vn 0.5556 -0.0000 -0.8315
vn 0.7071 0.0000 -0.7071
vn 0.0000 -1.0000 0.0000
vn 0.0000 -1.0000 0.0000
vn 0.0000 -1.0000 0.0000
vn 0.3827 0.0000 0.9239
vn 0.7071 0.0000 0.7071
vn 0.3827 0.0000 0.9239
vn 0.0000 -1.0000 0.0000
vn 0.0000 -1.0000 0.0000
vn 0.0000 -1.0000 0.0000
vn 0.0000 -1.0000 0.0000
vn 0.9239 0.0000 -0.3827
vn 0.9239 0.0000 -0.3827
vn 1.0000 0.0000 0.0000
vn 1.0000 0.0000 -0.0000
vn 0.9239 0.0000 0.3827
vn 0.7071 0.0000 0.7071
vn 0.9239 0.0000 0.3827
vn 0.1951 0.0000 -0.9808
vn 0.3827 0.0000 -0.9239
vn 0.4761 0.0000 -0.8794
vn 0.0000 1.0000 0.0000
vn 0.0000 1.0000 0.0000
vn 0.0000 1.0000 0.0000
vn 0.0000 1.0000 0.0000
vn 0.0000 1.0000 0.0000
vn 0.0000 1.0000 0.0000
vn 0.0000 1.0000 0.0000
vn 0.0000 1.0000 0.0000
vn 0.0000 1.0000 0.0000
vn 0.0000 1.0000 0.0000
vn 0.0000 1.0000 0.0000
vn 0.0000 1.0000 0.0000
vn -1.0000 0.0000 0.0000
vn -1.0000 0.0000 0.0000
vn -1.0000 0.0000 0.0000
vn -1.0000 0.0000 0.0000
vn -1.0000 0.0000 0.0000
vn -1.0000 0.0000 0.0000
vn -1.0000 0.0000 0.0000
vn -1.0000 0.0000 0.0000
vn 0.0000 -0.7818 -0.6235
vn 0.0000 -0.9749 -0.2225
vn 0.0000 -0.9749 -0.2225
vn 0.0000 -0.9749 0.2225
vn 0.0000 -0.9749 0.2225
vn 0.0000 -0.4339 -0.9010
vn 0.0000 -0.7818 -0.6235
vn -1.0000 0.0000 0.0000
vn -1.0000 0.0000 0.0000
vn -1.0000 0.0000 0.0000
vn -0.0000 -0.7818 0.6235
vn -0.0000 -0.5503 0.8349
vn 0.0000 -0.4339 0.9010
vn -1.0000 0.0000 0.0000
vn 0.0000 -0.7818 0.6235
vn 0.0000 -0.6235 0.7818
vn -1.0000 0.0000 0.0000
vn -1.0000 0.0000 0.0000
vn -1.0000 0.0000 0.0000
vn -1.0000 0.0000 0.0000
vn 0.0000 0.0000 -1.0000
vn 0.0000 -0.4339 -0.9010
vn 0.0000 0.4339 -0.9010
vn 0.0000 0.0000 -1.0000
vn -1.0000 0.0000 0.0000
vn 0.0000 -0.2225 0.9749
vn 0.0000 -0.0000 1.0000
vn 0.0000 -0.0000 1.0000
vn -1.0000 0.0000 0.0000
vn -1.0000 0.0000 0.0000
vn -1.0000 0.0000 0.0000
vn 0.0000 0.4339 0.9010
vn 0.0000 0.2225 0.9749
vn 0.0000 0.5503 0.8349
vn -1.0000 0.0000 0.0000
vn -1.0000 0.0000 0.0000
vn -1.0000 0.0000 0.0000
vn -1.0000 0.0000 0.0000
vn -1.0000 0.0000 0.0000
vn -1.0000 0.0000 0.0000
vn -1.0000 0.0000 0.0000
vn -0.0000 0.7818 -0.6235
vn -0.0000 0.4339 -0.9010
vn 0.0000 0.9749 -0.2225
vn 0.0000 0.7818 -0.6235
vn 0.0000 0.9749 0.2225
vn 0.0000 0.9749 -0.2225
vn -1.0000 0.0000 0.0000
vn -0.0000 0.6235 0.7818
vn 0.0000 0.7818 0.6235
vn -0.0000 0.7818 0.6235
vn -0.0000 0.9749 0.2225
vn 1.0000 0.0000 0.0000
vn 1.0000 0.0000 0.0000
vn 1.0000 0.0000 0.0000
vn 1.0000 0.0000 0.0000
vn 1.0000 0.0000 0.0000
vn 1.0000 0.0000 0.0000
vn 1.0000 0.0000 0.0000
vn 1.0000 0.0000 0.0000
vn 1.0000 0.0000 0.0000
vn -0.0000 -0.4339 0.9010
vn 0.0000 -0.5503 0.8349
vn 1.0000 0.0000 0.0000
vn 1.0000 0.0000 0.0000
vn 1.0000 0.0000 0.0000
vn 1.0000 0.0000 0.0000
vn 1.0000 0.0000 0.0000
vn 1.0000 0.0000 0.0000
vn 1.0000 0.0000 0.0000
vn -0.0000 -0.2225 0.9749
vn -0.0000 0.0000 1.0000
vn -0.0000 0.0000 1.0000
vn 1.0000 0.0000 0.0000
vn 1.0000 0.0000 0.0000
vn -0.0000 0.4339 0.9010
vn 0.0000 0.5503 0.8349
vn -0.0000 0.2225 0.9749
vn 1.0000 0.0000 0.0000
vn 1.0000 0.0000 0.0000
vn 1.0000 0.0000 0.0000
vn 1.0000 0.0000 0.0000
vn 1.0000 0.0000 0.0000
vn 1.0000 0.0000 0.0000
vn 1.0000 0.0000 0.0000
vn 1.0000 0.0000 0.0000
vn 1.0000 0.0000 0.0000
vn 1.0000 0.0000 0.0000
vn 0.0000 0.7818 0.6235
vn -0.0000 0.7818 0.6235
vn -0.0000 0.4339 0.9010
vn 0.0000 0.9749 0.2225
vn 0.0000 0.9749 0.2225
vn -0.0000 0.9749 -0.2225
vn 0.0000 0.9749 -0.2225
vn 0.0000 0.7818 -0.6235
vn -0.0000 0.7818 -0.6235
vn 0.0000 0.4339 -0.9010
vn 0.0000 0.4339 -0.9010
vn 0.0000 0.4339 0.9010
vn 0.0000 0.0000 1.0000
vn 0.0000 -0.0000 1.0000
vn 0.0000 -0.4339 0.9010
vn -0.0000 -0.0000 -1.0000
vn 0.0000 0.0000 -1.0000
vn -0.0000 -0.4339 -0.9010
vn -0.0000 -0.4339 -0.9010
vn 0.0000 -0.4339 0.9010
vn 0.0000 -0.7818 0.6235
vn 0.0000 -0.7818 0.6235
vn 0.0000 -0.9749 0.2225
vn 0.0000 -0.9749 0.2225
vn 0.0000 -0.9749 -0.2225
vn 0.0000 -0.9749 -0.2225
vn 0.0000 -0.7818 -0.6235
vn -0.0000 -0.7818 -0.6235
vn -0.5000 -0.0000 -0.8660
vn 0.0000 0.0000 -1.0000
vn 0.0000 -0.0000 -1.0000
vn -1.0000 0.0000 0.0000
vn -0.8660 0.0000 -0.5000
vn -1.0000 0.0000 0.0000
vn -0.8660 0.0000 0.5000
vn -0.8660 -0.0000 0.5000
vn -0.8660 0.0000 -0.5000
vn 0.0000 1.0000 0.0000
vn 0.0000 1.0000 0.0000
vn 0.0000 1.0000 0.0000
vn -0.5000 0.0000 -0.8660
vn 0.0000 1.0000 0.0000
vn 0.0000 1.0000 0.0000
vn 0.0000 1.0000 0.0000
vn 0.0000 1.0000 0.0000
vn -0.5000 -0.0000 0.8660
vn -0.5000 0.0000 0.8660
vn 0.0000 0.0000 1.0000
vn 0.0000 0.0000 1.0000
vn 0.5000 0.0000 -0.8660
vn 0.5000 0.0000 -0.8660
vn 0.0000 1.0000 0.0000
vn 0.0000 1.0000 0.0000
vn 0.8660 0.0000 -0.5000
vn 0.8660 0.0000 -0.5000
vn 0.0000 1.0000 0.0000
vn 0.0000 1.0000 0.0000
vn 0.5000 0.0000 0.8660
vn 0.5000 0.0000 0.8660
vn 0.8660 0.0000 0.5000
vn 0.8660 -0.0000 0.5000
vn 1.0000 0.0000 0.0000
vn 1.0000 -0.0000 0.0000
vn 0.0000 1.0000 0.0000
f 1//1 2//2 3//3
f 3//3 4//4 5//5
f 3//3 6//6 4//4
f 5//5 4//4 7//7
f 5//5 7//7 8//8
f 8//8 7//7 9//9
f 3//3 10//10 6//6
f 3//3 11//11 10//10
f 12//12 13//13 14//14
f 12//12 15//15 13//13
f 16//16 12//12 14//14
f 16//16 14//14 17//17
f 18//18 19//19 1//1
f 20//20 21//21 18//18
f 22//22 23//23 20//20
f 22//22 24//24 25//25
f 26//26 17//17 27//27
f 16//16 17//17 26//26
f 26//26 27//27 28//28
f 24//24 29//29 30//30
f 3//3 2//2 11//11
f 11//11 31//31 10//10
f 32//32 33//33 31//31
f 11//11 32//32 31//31
f 34//34 35//35 36//36
f 36//36 37//37 38//38
f 36//36 35//35 37//37
f 1//1 19//19 2//2
f 18//18 21//21 19//19
f 20//20 23//23 21//21
f 22//22 25//25 23//23
f 39//39 34//34 40//40
f 39//39 40//40 41//41
f 42//42 34//34 39//39
f 34//34 43//43 35//35
f 34//34 44//44 43//43
f 42//42 44//44 34//34
f 42//42 45//45 44//44
f 42//42 46//46 45//45
f 24//24 30//30 25//25
f 30//30 29//29 47//47
f 46//46 48//48 45//45
f 46//46 49//49 48//48
f 49//49 50//50 48//48
f 8//8 51//51 52//52
f 8//8 9//9 51//51
f 52//52 51//51 53//53
f 52//52 53//53 54//54
f 54//54 53//53 55//55
f 52//52 54//54 56//56
f 28//28 27//27 57//57
f 58//58 57//57 59//59
f 28//28 57//57 58//58
f 29//29 60//60 47//47
f 60//60 61//61 62//62
f 63//63 59//59 64//64
f 65//65 64//64 66//66
f 58//58 59//59 63//63
f 63//63 64//64 65//65
f 67//67 56//56 68//68
f 69//69 67//67 70//70
f 61//61 71//71 72//72
f 71//71 69//69 73//73
f 32//32 74//74 33//33
f 32//32 75//75 74//74
f 75//75 76//76 74//74
f 54//54 55//55 76//76
f 75//75 54//54 76//76
f 38//38 37//37 77//77
f 38//38 77//77 78//78
f 78//78 77//77 79//79
f 56//56 54//54 68//68
f 78//78 79//79 80//80
f 60//60 62//62 47//47
f 81//81 82//82 50//50
f 49//49 81//81 50//50
f 81//81 83//83 82//82
f 67//67 68//68 70//70
f 73//73 69//69 70//70
f 61//61 72//72 62//62
f 71//71 73//73 72//72
f 80//80 79//79 84//84
f 83//83 80//80 84//84
f 83//83 85//85 80//80
f 86//86 87//87 85//85
f 83//83 84//84 88//88
f 83//83 88//88 82//82
f 83//83 86//86 85//85
f 89//89 90//90 91//91
f 90//90 92//92 93//93
f 90//90 93//93 91//91
f 93//93 92//92 94//94
f 89//89 91//91 95//95
f 89//89 95//95 96//96
f 97//97 98//98 99//99
f 99//99 100//100 101//101
f 97//97 102//102 103//103
f 92//92 104//104 94//94
f 94//94 104//104 105//105
f 104//104 106//106 105//105
f 107//107 108//108 109//109
f 104//104 110//110 106//106
f 101//101 111//111 107//107
f 107//107 112//112 108//108
f 89//89 113//113 114//114
f 89//89 96//96 113//113
f 114//114 113//113 115//115
f 96//96 116//116 113//113
f 102//102 117//117 118//118
f 117//117 119//119 120//120
f 110//110 121//121 106//106
f 109//109 122//122 123//123
f 123//123 122//122 124//124
f 109//109 108//108 122//122
f 110//110 125//125 121//121
f 110//110 126//126 125//125
f 110//110 127//127 126//126
f 123//123 124//124 128//128
f 128//128 124//124 129//129
f 128//128 129//129 130//130
f 116//116 131//131 113//113
f 116//116 132//132 131//131
f 132//132 133//133 131//131
f 133//133 134//134 131//131
f 133//133 135//135 134//134
f 135//135 136//136 137//137
f 134//134 135//135 137//137
f 119//119 138//138 139//139
f 138//138 140//140 141//141
f 140//140 142//142 143//143
f 121//121 125//125 144//144
f 144//144 125//125 136//136
f 136//136 125//125 137//137
f 128//128 130//130 145//145
f 128//128 146//146 147//147
f 147//147 148//148 142//142
f 97//97 103//103 98//98
f 99//99 98//98 100//100
f 102//102 118//118 103//103
f 149//149 150//150 151//151
f 152//152 153//153 149//149
f 149//149 153//153 150//150
f 151//151 150//150 154//154
f 152//152 155//155 153//153
f 152//152 156//156 155//155
f 152//152 157//157 156//156
f 101//101 100//100 111//111
f 107//107 158//158 112//112
f 107//107 111//111 158//158
f 158//158 159//159 112//112
f 151//151 154//154 160//160
f 160//160 154//154 161//161
f 160//160 162//162 163//163
f 160//160 161//161 162//162
f 117//117 120//120 118//118
f 119//119 139//139 120//120
f 152//152 164//164 165//165
f 152//152 165//165 157//157
f 164//164 166//166 165//165
f 158//158 167//167 159//159
f 158//158 168//168 167//167
f 158//158 169//169 168//168
f 163//163 162//162 170//170
f 163//163 170//170 171//171
f 172//172 173//173 174//174
f 169//169 174//174 168//168
f 163//163 171//171 175//175
f 169//169 172//172 174//174
f 138//138 141//141 139//139
f 140//140 143//143 141//141
f 142//142 148//148 143//143
f 157//157 165//165 176//176
f 157//157 176//176 177//177
f 177//177 176//176 178//178
f 178//178 176//176 179//179
f 178//178 179//179 180//180
f 180//180 181//181 182//182
f 180//180 179//179 181//181
f 128//128 145//145 146//146
f 146//146 145//145 173//173
f 147//147 146//146 148//148
f 162//162 183//183 170//170
f 183//183 184//184 170//170
f 182//182 170//170 184//184
f 172//172 146//146 173//173
f 182//182 181//181 170//170
f 185//185 186//186 187//187
f 188//188 189//189 185//185
f 188//188 190//190 191//191
f 190//190 192//192 193//193
f 192//192 194//194 195//195
f 187//187 196//196 197//197
f 197//197 198//198 199//199
f 194//194 200//200 201//201
f 200//200 202//202 203//203
f 199//199 204//204 205//205
f 205//205 206//206 207//207
f 207//207 208//208 209//209
f 209//209 210//210 211//211
f 202//202 211//211 212//212
f 187//187 186//186 196//196
f 188//188 191//191 189//189
f 185//185 189//189 186//186
f 190//190 193//193 191//191
f 192//192 195//195 193//193
f 197//197 196//196 198//198
f 199//199 198//198 204//204
f 194//194 201//201 195//195
f 200//200 203//203 201//201
f 205//205 204//204 206//206
f 207//207 206//206 208//208
f 209//209 208//208 210//210
f 202//202 212//212 203//203
f 211//211 210//210 212//212
f 213//213 214//214 215//215
f 216//216 217//217 218//218
f 219//219 218//218 220//220
f 221//221 217//217 216//216
f 216//216 218//218 219//219
f 222//222 223//223 224//224
f 221//221 225//225 217//217
f 221//221 213//213 225//225
f 222//222 224//224 226//226
f 224//224 227//227 226//226
f 213//213 215//215 225//225
f 226//226 227//227 228//228
f 228//228 227//227 229//229
f 230//230 220//220 231//231
f 219//219 220//220 230//230
f 232//232 231//231 233//233
f 230//230 231//231 232//232
f 214//214 234//234 215//215
f 214//214 235//235 234//234
f 228//228 229//229 236//236
f 229//229 237//237 236//236
f 235//235 238//238 234//234
f 235//235 239//239 238//238
f 236//236 237//237 240//240
f 237//237 241//241 240//240
f 242//242 233//233 243//243
f 232//232 233//233 242//242
f 244//244 243//243 245//245
f 242//242 243//243 244//244
f 239//239 246//246 238//238
f 247//247 245//245 246//246
f 239//239 247//247 246//246
f 247//247 244//244 245//245
f 240//240 241//241 248//248
