v -0.12100 -0.11250 -0.51250
v -0.12100 -0.09743 -0.56875
v -0.12100 -0.10867 -0.54162
v -0.12100 -0.11250 0.51250
v -0.12100 -0.07955 -0.59205
v -0.12100 -0.10867 0.54162
v -0.12100 -0.05625 -0.60993
v -0.12100 -0.09743 0.56875
v -0.12100 -0.05850 -0.51335
v -0.12100 -0.05850 -0.48665
v -0.12100 -0.05850 -0.26335
v -0.12100 -0.04691 -0.53741
v -0.12100 -0.02603 -0.55406
v -0.12100 -0.02912 -0.62117
v -0.12100 -0.04691 -0.28741
v -0.12100 -0.04691 -0.46259
v -0.12100 -0.02603 -0.30406
v -0.12100 -0.02603 -0.44594
v -0.12100 0.00000 -0.56000
v -0.12100 -0.00000 -0.62500
v -0.12100 0.00000 -0.31000
v -0.12100 0.00000 -0.44000
v -0.12100 -0.04691 -0.03741
v -0.12100 -0.04691 -0.21259
v -0.12100 -0.05850 -0.01335
v -0.12100 -0.02603 -0.05406
v -0.12100 -0.02603 -0.19594
v -0.12100 0.00000 -0.06000
v -0.12100 0.00000 -0.19000
v -0.12100 -0.10867 -0.54162
v -0.12100 -0.09743 -0.56875
v 0.12100 -0.10867 -0.54162
v -0.12100 -0.11250 -0.51250
v 0.12100 -0.11250 -0.51250
v -0.12100 -0.07955 -0.59205
v 0.12100 -0.09743 -0.56875
v -0.12100 -0.05625 -0.60993
v 0.12100 -0.07955 -0.59205
v -0.12100 -0.02912 -0.62117
v 0.12100 -0.05625 -0.60993
v -0.12100 -0.00000 -0.62500
v 0.12100 -0.02912 -0.62117
v -0.12100 -0.05850 -0.23665
v -0.12100 -0.05850 0.01335
v -0.12100 -0.07955 0.59205
v -0.12100 -0.05850 0.23665
v -0.12100 -0.05850 0.26335
v -0.12100 -0.05850 0.48665
v -0.12100 -0.05850 0.51335
v -0.12100 -0.05625 0.60993
v -0.12100 -0.04691 0.21259
v -0.12100 -0.04691 0.03741
v -0.12100 -0.02603 0.19594
v -0.12100 -0.02603 0.05406
v -0.12100 0.00000 0.19000
v -0.12100 0.00000 0.06000
v -0.12100 -0.04691 0.46259
v -0.12100 -0.04691 0.28741
v -0.12100 -0.02603 0.44594
v -0.12100 -0.02603 0.30406
v -0.12100 -0.04691 0.53741
v -0.12100 -0.02603 0.55406
v -0.12100 -0.02912 0.62117
v -0.12100 0.00000 0.44000
v -0.12100 0.00000 0.31000
v -0.12100 0.00000 0.56000
v -0.12100 -0.00000 0.62500
v -0.12100 -0.11250 0.51250
v 0.12100 -0.11250 0.51250
v -0.12100 -0.10867 0.54162
v 0.12100 -0.10867 0.54162
v -0.12100 -0.09743 0.56875
v 0.12100 -0.09743 0.56875
v 0.12100 -0.07955 0.59205
v -0.12100 -0.07955 0.59205
v 0.12100 -0.05625 0.60993
v -0.12100 -0.05625 0.60993
v 0.12100 -0.02912 0.62117
v -0.12100 -0.02912 0.62117
v 0.12100 -0.00000 0.62500
v -0.12100 -0.00000 0.62500
v -0.12100 0.02912 -0.62117
v -0.12100 0.02603 -0.55406
v -0.12100 0.02603 -0.30406
v -0.12100 0.02603 -0.44594
v -0.12100 0.05625 -0.60993
v -0.12100 0.04691 -0.53741
v -0.12100 0.05850 -0.51335
v -0.12100 0.04691 -0.28741
v -0.12100 0.04691 -0.46259
v -0.12100 0.05850 -0.26335
v -0.12100 0.05850 -0.48665
v -0.12100 0.02603 -0.05406
v -0.12100 0.02603 -0.19594
v -0.12100 0.04691 -0.03741
v -0.12100 0.04691 -0.21259
v -0.12100 0.05850 -0.01335
v -0.12100 0.05850 -0.23665
v -0.12100 0.07955 -0.59205
v -0.12100 0.09743 -0.56875
v -0.12100 0.05850 0.01335
v -0.12100 0.04691 0.21259
v -0.12100 0.05850 0.23665
v -0.12100 0.05850 0.26335
v -0.12100 0.05625 0.60993
v -0.12100 0.10867 -0.54162
v -0.12100 0.07955 0.59205
v -0.12100 0.11250 -0.51250
v -0.12100 0.02912 -0.62117
v 0.12100 -0.00000 -0.62500
v -0.12100 0.05625 -0.60993
v 0.12100 0.02912 -0.62117
v -0.12100 0.07955 -0.59205
v 0.12100 0.05625 -0.60993
v -0.12100 0.09743 -0.56875
v 0.12100 0.07955 -0.59205
v -0.12100 0.10867 -0.54162
v 0.12100 0.09743 -0.56875
v -0.12100 0.11250 -0.51250
v 0.12100 0.10867 -0.54162
v -0.12100 0.11250 0.51250
v 0.12100 0.11250 -0.51250
v -0.12100 0.02603 0.19594
v -0.12100 0.02603 0.05406
v -0.12100 0.04691 0.03741
v -0.12100 0.02603 0.44594
v -0.12100 0.02603 0.30406
v -0.12100 0.02912 0.62117
v -0.12100 0.02603 0.55406
v -0.12100 0.04691 0.46259
v -0.12100 0.04691 0.28741
v -0.12100 0.05850 0.48665
v -0.12100 0.04691 0.53741
v -0.12100 0.05850 0.51335
v -0.12100 0.09743 0.56875
v -0.12100 0.11250 0.51250
v -0.12100 0.10867 0.54162
v 0.12100 0.02912 0.62117
v -0.12100 0.02912 0.62117
v 0.12100 0.05625 0.60993
v -0.12100 0.05625 0.60993
v 0.12100 0.07955 0.59205
v -0.12100 0.07955 0.59205
v 0.12100 0.09743 0.56875
v -0.12100 0.09743 0.56875
v -0.12100 0.10867 0.54162
v 0.12100 0.11250 0.51250
v 0.12100 0.10867 0.54162
v 0.12100 -0.11250 -0.51250
v 0.12100 -0.10867 -0.54162
v 0.12100 -0.09743 -0.56875
v 0.12100 -0.11250 0.51250
v 0.12100 -0.07955 -0.59205
v 0.12100 -0.10867 0.54162
v 0.12100 -0.05625 -0.60993
v 0.12100 -0.09743 0.56875
v 0.12100 -0.05850 -0.51335
v 0.12100 -0.05850 -0.48665
v 0.12100 -0.05850 -0.26335
v 0.12100 -0.04691 -0.53741
v 0.12100 -0.02912 -0.62117
v 0.12100 -0.02603 -0.55406
v 0.12100 -0.04691 -0.46259
v 0.12100 -0.02603 -0.44594
v 0.12100 -0.04691 -0.28741
v 0.12100 -0.02603 -0.30406
v 0.12100 -0.00000 -0.62500
v 0.12100 0.00000 -0.56000
v 0.12100 0.00000 -0.44000
v 0.12100 0.00000 -0.31000
v 0.12100 -0.05850 -0.01335
v 0.12100 -0.04691 -0.21259
v 0.12100 -0.02603 -0.19594
v 0.12100 -0.04691 -0.03741
v 0.12100 -0.02603 -0.05406
v 0.12100 0.00000 -0.19000
v 0.12100 0.00000 -0.06000
v 0.12100 -0.05850 -0.23665
v 0.12100 -0.05850 0.01335
v 0.12100 -0.04691 0.03741
v 0.12100 -0.07955 0.59205
v 0.12100 -0.05850 0.23665
v 0.12100 -0.05850 0.26335
v 0.12100 -0.04691 0.28741
v 0.12100 -0.05850 0.48665
v 0.12100 -0.05850 0.51335
v 0.12100 -0.04691 0.53741
v 0.12100 -0.05625 0.60993
v 0.12100 -0.02603 0.05406
v 0.12100 -0.04691 0.21259
v 0.12100 0.00000 0.06000
v 0.12100 -0.02603 0.19594
v 0.12100 0.00000 0.19000
v 0.12100 -0.02603 0.30406
v 0.12100 -0.04691 0.46259
v 0.12100 -0.02603 0.44594
v 0.12100 -0.02603 0.55406
v 0.12100 0.00000 0.56000
v 0.12100 -0.02912 0.62117
v 0.12100 0.00000 0.31000
v 0.12100 0.00000 0.44000
v 0.12100 -0.00000 0.62500
v 0.12100 0.02912 -0.62117
v 0.12100 0.05625 -0.60993
v 0.12100 0.02603 -0.55406
v 0.12100 0.02603 -0.44594
v 0.12100 0.02603 -0.30406
v 0.12100 0.04691 -0.53741
v 0.12100 0.04691 -0.46259
v 0.12100 0.05850 -0.48665
v 0.12100 0.04691 -0.28741
v 0.12100 0.02603 -0.19594
v 0.12100 0.04691 -0.21259
v 0.12100 0.02603 -0.05406
v 0.12100 0.05850 -0.23665
v 0.12100 0.04691 -0.03741
v 0.12100 0.07955 -0.59205
v 0.12100 0.05850 -0.51335
v 0.12100 0.05850 -0.26335
v 0.12100 0.09743 -0.56875
v 0.12100 0.05850 -0.01335
v 0.12100 0.05850 0.01335
v 0.12100 0.04691 0.21259
v 0.12100 0.05850 0.23665
v 0.12100 0.05850 0.26335
v 0.12100 0.05625 0.60993
v 0.12100 0.10867 -0.54162
v 0.12100 0.07955 0.59205
v 0.12100 0.11250 -0.51250
v 0.12100 0.02603 0.05406
v 0.12100 0.02603 0.19594
v 0.12100 0.04691 0.03741
v 0.12100 0.02603 0.30406
v 0.12100 0.02603 0.44594
v 0.12100 0.02603 0.55406
v 0.12100 0.02912 0.62117
v 0.12100 0.04691 0.28741
v 0.12100 0.04691 0.46259
v 0.12100 0.05850 0.48665
v 0.12100 0.04691 0.53741
v 0.12100 0.05850 0.51335
v 0.12100 0.09743 0.56875
v 0.12100 0.11250 0.51250
v 0.12100 0.10867 0.54162
v -0.12100 -0.05850 -0.51335
v -0.12100 -0.05850 -0.48665
v 0.12100 -0.05850 -0.48665
v -0.12100 -0.04691 -0.53741
v 0.12100 -0.05850 -0.51335
v -0.12100 -0.04691 -0.46259
v 0.12100 -0.04691 -0.46259
v -0.12100 -0.02603 -0.55406
v 0.12100 -0.04691 -0.53741
v -0.12100 -0.02603 -0.44594
v 0.12100 -0.02603 -0.44594
v -0.12100 0.00000 -0.56000
v 0.12100 -0.02603 -0.55406
v -0.12100 0.00000 -0.44000
v 0.12100 0.00000 -0.44000
v -0.12100 0.02603 -0.55406
v 0.12100 0.00000 -0.56000
v -0.12100 0.02603 -0.44594
v 0.12100 0.02603 -0.44594
v -0.12100 0.04691 -0.53741
v 0.12100 0.02603 -0.55406
v -0.12100 0.05850 -0.51335
v 0.12100 0.04691 -0.53741
v -0.12100 0.04691 -0.46259
v -0.12100 0.05850 -0.48665
v 0.12100 0.05850 -0.48665
v 0.12100 0.04691 -0.46259
v 0.12100 0.05850 -0.51335
v -0.12100 -0.05850 -0.26335
v -0.12100 -0.05850 -0.23665
v 0.12100 -0.05850 -0.23665
v -0.12100 -0.04691 -0.28741
v 0.12100 -0.05850 -0.26335
v -0.12100 -0.04691 -0.21259
v 0.12100 -0.04691 -0.21259
v -0.12100 -0.02603 -0.30406
v 0.12100 -0.04691 -0.28741
v -0.12100 -0.02603 -0.19594
v 0.12100 -0.02603 -0.19594
v -0.12100 0.00000 -0.31000
v 0.12100 -0.02603 -0.30406
v -0.12100 0.00000 -0.19000
v 0.12100 0.00000 -0.19000
v -0.12100 0.02603 -0.30406
v 0.12100 0.00000 -0.31000
v -0.12100 0.02603 -0.19594
v 0.12100 0.02603 -0.19594
v -0.12100 0.04691 -0.28741
v 0.12100 0.02603 -0.30406
v -0.12100 0.04691 -0.21259
v 0.12100 0.04691 -0.21259
v -0.12100 0.05850 -0.26335
v 0.12100 0.04691 -0.28741
v -0.12100 0.05850 -0.23665
v 0.12100 0.05850 -0.23665
v 0.12100 0.05850 -0.26335
v -0.12100 -0.04691 -0.03741
v -0.12100 -0.05850 -0.01335
v 0.12100 -0.05850 -0.01335
v -0.12100 -0.02603 -0.05406
v 0.12100 -0.04691 -0.03741
v -0.12100 0.00000 -0.06000
v 0.12100 -0.02603 -0.05406
v -0.12100 -0.05850 0.01335
v 0.12100 -0.05850 0.01335
v -0.12100 -0.04691 0.03741
v 0.12100 -0.04691 0.03741
v -0.12100 -0.02603 0.05406
v 0.12100 -0.02603 0.05406
v -0.12100 0.00000 0.06000
v 0.12100 0.00000 0.06000
v -0.12100 0.02603 -0.05406
v 0.12100 0.00000 -0.06000
v -0.12100 0.04691 -0.03741
v 0.12100 0.02603 -0.05406
v -0.12100 0.05850 -0.01335
v 0.12100 0.04691 -0.03741
v -0.12100 0.05850 0.01335
v 0.12100 0.05850 -0.01335
v -0.12100 0.02603 0.05406
v 0.12100 0.02603 0.05406
v -0.12100 0.04691 0.03741
v 0.12100 0.04691 0.03741
v 0.12100 0.05850 0.01335
v -0.12100 -0.05850 0.23665
v -0.12100 -0.05850 0.26335
v 0.12100 -0.05850 0.26335
v -0.12100 -0.04691 0.21259
v 0.12100 -0.05850 0.23665
v -0.12100 -0.04691 0.28741
v 0.12100 -0.04691 0.28741
v -0.12100 -0.02603 0.19594
v 0.12100 -0.04691 0.21259
v -0.12100 -0.02603 0.30406
v 0.12100 -0.02603 0.30406
v -0.12100 0.00000 0.19000
v 0.12100 -0.02603 0.19594
v -0.12100 0.00000 0.31000
v 0.12100 0.00000 0.31000
v -0.12100 0.02603 0.19594
v 0.12100 0.00000 0.19000
v -0.12100 0.02603 0.30406
v 0.12100 0.02603 0.30406
v -0.12100 0.04691 0.21259
v 0.12100 0.02603 0.19594
v -0.12100 0.04691 0.28741
v 0.12100 0.04691 0.28741
v -0.12100 0.05850 0.23665
v 0.12100 0.04691 0.21259
v -0.12100 0.05850 0.26335
v 0.12100 0.05850 0.26335
v 0.12100 0.05850 0.23665
v -0.12100 -0.05850 0.48665
v -0.12100 -0.05850 0.51335
v 0.12100 -0.05850 0.51335
v -0.12100 -0.02603 0.44594
v -0.12100 -0.04691 0.46259
v 0.12100 -0.04691 0.46259
v 0.12100 -0.05850 0.48665
v -0.12100 -0.04691 0.53741
v 0.12100 -0.04691 0.53741
v -0.12100 -0.02603 0.55406
v 0.12100 -0.02603 0.55406
v -0.12100 0.00000 0.44000
v 0.12100 -0.02603 0.44594
v -0.12100 0.00000 0.56000
v 0.12100 0.00000 0.56000
v -0.12100 0.02603 0.44594
v 0.12100 0.00000 0.44000
v -0.12100 0.02603 0.55406
v 0.12100 0.02603 0.55406
v -0.12100 0.04691 0.46259
v 0.12100 0.02603 0.44594
v -0.12100 0.04691 0.53741
v 0.12100 0.04691 0.53741
v -0.12100 0.05850 0.48665
v 0.12100 0.04691 0.46259
v -0.12100 0.05850 0.51335
v 0.12100 0.05850 0.51335
v 0.12100 0.05850 0.48665
vn -1.0000 0.0000 0.0000
vn -1.0000 0.0000 0.0000
vn -1.0000 0.0000 0.0000
vn -1.0000 0.0000 0.0000
vn -1.0000 0.0000 0.0000
vn -1.0000 0.0000 0.0000
vn -1.0000 0.0000 0.0000
vn -1.0000 0.0000 0.0000
vn -1.0000 0.0000 0.0000
vn -1.0000 0.0000 0.0000
vn -1.0000 0.0000 0.0000
vn -1.0000 0.0000 0.0000
vn -1.0000 0.0000 0.0000
vn -1.0000 0.0000 0.0000
vn -1.0000 0.0000 0.0000
vn -1.0000 0.0000 0.0000
vn -1.0000 0.0000 0.0000
vn -1.0000 0.0000 0.0000
vn -1.0000 0.0000 0.0000
vn -1.0000 0.0000 0.0000
vn -1.0000 0.0000 0.0000
vn -1.0000 0.0000 0.0000
vn -1.0000 0.0000 0.0000
vn -1.0000 0.0000 0.0000
vn -1.0000 0.0000 0.0000
vn -1.0000 0.0000 0.0000
vn -1.0000 0.0000 0.0000
vn -1.0000 0.0000 0.0000
vn -1.0000 0.0000 0.0000
vn 0.0000 -0.9659 -0.2588
vn -0.0000 -0.8660 -0.5000
vn -0.0000 -0.9659 -0.2588
vn 0.0000 -0.9979 -0.0654
vn 0.0000 -0.9979 -0.0654
vn 0.0000 -0.7071 -0.7071
vn 0.0000 -0.8660 -0.5000
vn 0.0000 -0.5000 -0.8660
vn 0.0000 -0.7071 -0.7071
vn 0.0000 -0.2588 -0.9659
vn 0.0000 -0.5000 -0.8660
vn 0.0000 -0.0000 -1.0000
vn 0.0000 -0.2588 -0.9659
vn -1.0000 0.0000 0.0000
vn -1.0000 0.0000 0.0000
vn -1.0000 0.0000 0.0000
vn -1.0000 0.0000 0.0000
vn -1.0000 0.0000 0.0000
vn -1.0000 0.0000 0.0000
vn -1.0000 0.0000 0.0000
vn -1.0000 0.0000 0.0000
vn -1.0000 0.0000 0.0000
vn -1.0000 0.0000 0.0000
vn -1.0000 0.0000 0.0000
vn -1.0000 0.0000 0.0000
vn -1.0000 0.0000 0.0000
vn -1.0000 0.0000 0.0000
vn -1.0000 0.0000 0.0000
vn -1.0000 0.0000 0.0000
vn -1.0000 0.0000 0.0000
vn -1.0000 0.0000 0.0000
vn -1.0000 0.0000 0.0000
vn -1.0000 0.0000 0.0000
vn -1.0000 0.0000 0.0000
vn -1.0000 0.0000 0.0000
vn -1.0000 0.0000 0.0000
vn -1.0000 0.0000 0.0000
vn -1.0000 0.0000 0.0000
vn 0.0000 -0.9979 0.0654
vn 0.0000 -0.9979 0.0654
vn 0.0000 -0.9659 0.2588
vn 0.0000 -0.9659 0.2588
vn 0.0000 -0.8660 0.5000
vn 0.0000 -0.8660 0.5000
vn 0.0000 -0.7071 0.7071
vn 0.0000 -0.7071 0.7071
vn 0.0000 -0.5000 0.8660
vn -0.0000 -0.5000 0.8660
vn -0.0000 -0.2588 0.9659
vn 0.0000 -0.2588 0.9659
vn 0.0000 -0.0000 1.0000
vn -0.0000 -0.0000 1.0000
vn -1.0000 0.0000 0.0000
vn -1.0000 0.0000 0.0000
vn -1.0000 0.0000 0.0000
vn -1.0000 0.0000 0.0000
vn -1.0000 0.0000 0.0000
vn -1.0000 0.0000 0.0000
vn -1.0000 0.0000 0.0000
vn -1.0000 0.0000 0.0000
vn -1.0000 0.0000 0.0000
vn -1.0000 0.0000 0.0000
vn -1.0000 0.0000 0.0000
vn -1.0000 0.0000 0.0000
vn -1.0000 0.0000 0.0000
vn -1.0000 0.0000 0.0000
vn -1.0000 0.0000 0.0000
vn -1.0000 0.0000 0.0000
vn -1.0000 0.0000 0.0000
vn -1.0000 0.0000 0.0000
vn -1.0000 0.0000 0.0000
vn -1.0000 0.0000 0.0000
vn -1.0000 0.0000 0.0000
vn -1.0000 0.0000 0.0000
vn -1.0000 0.0000 0.0000
vn -1.0000 0.0000 0.0000
vn -1.0000 0.0000 0.0000
vn -1.0000 0.0000 0.0000
vn -1.0000 0.0000 0.0000
vn 0.0000 0.2588 -0.9659
vn 0.0000 -0.0000 -1.0000
vn -0.0000 0.5000 -0.8660
vn -0.0000 0.2588 -0.9659
vn 0.0000 0.7071 -0.7071
vn 0.0000 0.5000 -0.8660
vn 0.0000 0.8660 -0.5000
vn 0.0000 0.7071 -0.7071
vn 0.0000 0.9659 -0.2588
vn 0.0000 0.8660 -0.5000
vn 0.0000 0.9979 -0.0654
vn 0.0000 0.9659 -0.2588
vn 0.0000 0.9979 0.0654
vn 0.0000 0.9979 -0.0654
vn -1.0000 0.0000 0.0000
vn -1.0000 0.0000 0.0000
vn -1.0000 0.0000 0.0000
vn -1.0000 0.0000 0.0000
vn -1.0000 0.0000 0.0000
vn -1.0000 0.0000 0.0000
vn -1.0000 0.0000 0.0000
vn -1.0000 0.0000 0.0000
vn -1.0000 0.0000 0.0000
vn -1.0000 0.0000 0.0000
vn -1.0000 0.0000 0.0000
vn -1.0000 0.0000 0.0000
vn -1.0000 0.0000 0.0000
vn -1.0000 0.0000 0.0000
vn -1.0000 0.0000 0.0000
vn -0.0000 0.2588 0.9659
vn 0.0000 0.2588 0.9659
vn 0.0000 0.5000 0.8660
vn 0.0000 0.5000 0.8660
vn 0.0000 0.7071 0.7071
vn 0.0000 0.7071 0.7071
vn 0.0000 0.8660 0.5000
vn -0.0000 0.8660 0.5000
vn 0.0000 0.9659 0.2588
vn 0.0000 0.9979 0.0654
vn -0.0000 0.9659 0.2588
vn 1.0000 0.0000 0.0000
vn 1.0000 0.0000 0.0000
vn 1.0000 0.0000 0.0000
vn 1.0000 0.0000 0.0000
vn 1.0000 0.0000 0.0000
vn 1.0000 0.0000 0.0000
vn 1.0000 0.0000 0.0000
vn 1.0000 0.0000 0.0000
vn 1.0000 0.0000 0.0000
vn 1.0000 0.0000 0.0000
vn 1.0000 0.0000 0.0000
vn 1.0000 0.0000 0.0000
vn 1.0000 0.0000 0.0000
vn 1.0000 0.0000 0.0000
vn 1.0000 0.0000 0.0000
vn 1.0000 0.0000 0.0000
vn 1.0000 0.0000 0.0000
vn 1.0000 0.0000 0.0000
vn 1.0000 0.0000 0.0000
vn 1.0000 0.0000 0.0000
vn 1.0000 0.0000 0.0000
vn 1.0000 0.0000 0.0000
vn 1.0000 0.0000 0.0000
vn 1.0000 0.0000 0.0000
vn 1.0000 0.0000 0.0000
vn 1.0000 0.0000 0.0000
vn 1.0000 0.0000 0.0000
vn 1.0000 0.0000 0.0000
vn 1.0000 0.0000 0.0000
vn 1.0000 0.0000 0.0000
vn 1.0000 0.0000 0.0000
vn 1.0000 0.0000 0.0000
vn 1.0000 0.0000 0.0000
vn 1.0000 0.0000 0.0000
vn 1.0000 0.0000 0.0000
vn 1.0000 0.0000 0.0000
vn 1.0000 0.0000 0.0000
vn 1.0000 0.0000 0.0000
vn 1.0000 0.0000 0.0000
vn 1.0000 0.0000 0.0000
vn 1.0000 0.0000 0.0000
vn 1.0000 0.0000 0.0000
vn 1.0000 0.0000 0.0000
vn 1.0000 0.0000 0.0000
vn 1.0000 0.0000 0.0000
vn 1.0000 0.0000 0.0000
vn 1.0000 0.0000 0.0000
vn 1.0000 0.0000 0.0000
vn 1.0000 0.0000 0.0000
vn 1.0000 0.0000 0.0000
vn 1.0000 0.0000 0.0000
vn 1.0000 0.0000 0.0000
vn 1.0000 0.0000 0.0000
vn 1.0000 0.0000 0.0000
vn 1.0000 0.0000 0.0000
vn 1.0000 0.0000 0.0000
vn 1.0000 0.0000 0.0000
vn 1.0000 0.0000 0.0000
vn 1.0000 0.0000 0.0000
vn 1.0000 0.0000 0.0000
vn 1.0000 0.0000 0.0000
vn 1.0000 0.0000 0.0000
vn 1.0000 0.0000 0.0000
vn 1.0000 0.0000 0.0000
vn 1.0000 0.0000 0.0000
vn 1.0000 0.0000 0.0000
vn 1.0000 0.0000 0.0000
vn 1.0000 0.0000 0.0000
vn 1.0000 0.0000 0.0000
vn 1.0000 0.0000 0.0000
vn 1.0000 0.0000 0.0000
vn 1.0000 0.0000 0.0000
vn 1.0000 0.0000 0.0000
vn 1.0000 0.0000 0.0000
vn 1.0000 0.0000 0.0000
vn 1.0000 0.0000 0.0000
vn 1.0000 0.0000 0.0000
vn 1.0000 0.0000 0.0000
vn 1.0000 0.0000 0.0000
vn 1.0000 0.0000 0.0000
vn 1.0000 0.0000 0.0000
vn 1.0000 0.0000 0.0000
vn 1.0000 0.0000 0.0000
vn 1.0000 0.0000 0.0000
vn 1.0000 0.0000 0.0000
vn 1.0000 0.0000 0.0000
vn 1.0000 0.0000 0.0000
vn 1.0000 0.0000 0.0000
vn 1.0000 0.0000 0.0000
vn 1.0000 0.0000 0.0000
vn 1.0000 0.0000 0.0000
vn 1.0000 0.0000 0.0000
vn 1.0000 0.0000 0.0000
vn 1.0000 0.0000 0.0000
vn 1.0000 0.0000 0.0000
vn 1.0000 0.0000 0.0000
vn 0.0000 0.9749 0.2225
vn 0.0000 0.9749 -0.2225
vn 0.0000 0.9749 -0.2225
vn 0.0000 0.7818 0.6235
vn 0.0000 0.9749 0.2225
vn -0.0000 0.7818 -0.6235
vn 0.0000 0.7818 -0.6235
vn 0.0000 0.4339 0.9010
vn 0.0000 0.7818 0.6235
vn 0.0000 0.4339 -0.9010
vn -0.0000 0.4339 -0.9010
vn 0.0000 0.0000 1.0000
vn 0.0000 0.4339 0.9010
vn 0.0000 -0.0000 -1.0000
vn 0.0000 0.0000 -1.0000
vn 0.0000 -0.4339 0.9010
vn 0.0000 -0.0000 1.0000
vn 0.0000 -0.4339 -0.9010
vn 0.0000 -0.4339 -0.9010
vn -0.0000 -0.7818 0.6235
vn -0.0000 -0.4339 0.9010
vn 0.0000 -0.9749 0.2225
vn 0.0000 -0.7818 0.6235
vn 0.0000 -0.7818 -0.6235
vn 0.0000 -0.9749 -0.2225
vn 0.0000 -0.9749 -0.2225
vn 0.0000 -0.7818 -0.6235
vn 0.0000 -0.9749 0.2225
vn 0.0000 0.9749 0.2225
vn 0.0000 0.9749 -0.2225
vn 0.0000 0.9749 -0.2225
vn 0.0000 0.7818 0.6235
vn 0.0000 0.9749 0.2225
vn -0.0000 0.7818 -0.6235
vn 0.0000 0.7818 -0.6235
vn 0.0000 0.4339 0.9010
vn 0.0000 0.7818 0.6235
vn 0.0000 0.4339 -0.9010
vn -0.0000 0.4339 -0.9010
vn 0.0000 0.0000 1.0000
vn 0.0000 0.4339 0.9010
vn 0.0000 -0.0000 -1.0000
vn 0.0000 0.0000 -1.0000
vn 0.0000 -0.4339 0.9010
vn 0.0000 -0.0000 1.0000
vn 0.0000 -0.4339 -0.9010
vn 0.0000 -0.4339 -0.9010
vn -0.0000 -0.7818 0.6235
vn -0.0000 -0.4339 0.9010
vn -0.0000 -0.7818 -0.6235
vn 0.0000 -0.7818 -0.6235
vn 0.0000 -0.9749 0.2225
vn 0.0000 -0.7818 0.6235
vn 0.0000 -0.9749 -0.2225
vn -0.0000 -0.9749 -0.2225
vn 0.0000 -0.9749 0.2225
vn 0.0000 0.7818 0.6235
vn 0.0000 0.9749 0.2225
vn 0.0000 0.9749 0.2225
vn 0.0000 0.4339 0.9010
vn 0.0000 0.7818 0.6235
vn 0.0000 0.0000 1.0000
vn 0.0000 0.4339 0.9010
vn -0.0000 0.9749 -0.2225
vn 0.0000 0.9749 -0.2225
vn 0.0000 0.7818 -0.6235
vn -0.0000 0.7818 -0.6235
vn 0.0000 0.4339 -0.9010
vn 0.0000 0.4339 -0.9010
vn 0.0000 -0.0000 -1.0000
vn 0.0000 0.0000 -1.0000
vn 0.0000 -0.4339 0.9010
vn 0.0000 -0.0000 1.0000
vn -0.0000 -0.7818 0.6235
vn -0.0000 -0.4339 0.9010
vn 0.0000 -0.9749 0.2225
vn 0.0000 -0.7818 0.6235
vn 0.0000 -0.9749 -0.2225
vn 0.0000 -0.9749 0.2225
vn 0.0000 -0.4339 -0.9010
vn 0.0000 -0.4339 -0.9010
vn 0.0000 -0.7818 -0.6235
vn 0.0000 -0.7818 -0.6235
vn 0.0000 -0.9749 -0.2225
vn 0.0000 0.9749 0.2225
vn -0.0000 0.9749 -0.2225
vn 0.0000 0.9749 -0.2225
vn 0.0000 0.7818 0.6235
vn 0.0000 0.9749 0.2225
vn 0.0000 0.7818 -0.6235
vn -0.0000 0.7818 -0.6235
vn 0.0000 0.4339 0.9010
vn 0.0000 0.7818 0.6235
vn 0.0000 0.4339 -0.9010
vn 0.0000 0.4339 -0.9010
vn 0.0000 0.0000 1.0000
vn 0.0000 0.4339 0.9010
vn 0.0000 -0.0000 -1.0000
vn 0.0000 0.0000 -1.0000
vn 0.0000 -0.4339 0.9010
vn 0.0000 -0.0000 1.0000
vn 0.0000 -0.4339 -0.9010
vn 0.0000 -0.4339 -0.9010
vn -0.0000 -0.7818 0.6235
vn -0.0000 -0.4339 0.9010
vn 0.0000 -0.7818 -0.6235
vn 0.0000 -0.7818 -0.6235
vn 0.0000 -0.9749 0.2225
vn 0.0000 -0.7818 0.6235
vn 0.0000 -0.9749 -0.2225
vn 0.0000 -0.9749 -0.2225
vn 0.0000 -0.9749 0.2225
vn 0.0000 0.9749 0.2225
vn 0.0000 0.9749 -0.2225
vn 0.0000 0.9749 -0.2225
vn 0.0000 0.4339 0.9010
vn 0.0000 0.7818 0.6235
vn 0.0000 0.7818 0.6235
vn 0.0000 0.9749 0.2225
vn 0.0000 0.7818 -0.6235
vn 0.0000 0.7818 -0.6235
vn 0.0000 0.4339 -0.9010
vn 0.0000 0.4339 -0.9010
vn 0.0000 0.0000 1.0000
vn 0.0000 0.4339 0.9010
vn 0.0000 -0.0000 -1.0000
vn 0.0000 0.0000 -1.0000
vn 0.0000 -0.4339 0.9010
vn 0.0000 -0.0000 1.0000
vn 0.0000 -0.4339 -0.9010
vn 0.0000 -0.4339 -0.9010
vn -0.0000 -0.7818 0.6235
vn -0.0000 -0.4339 0.9010
vn 0.0000 -0.7818 -0.6235
vn 0.0000 -0.7818 -0.6235
vn 0.0000 -0.9749 0.2225
vn 0.0000 -0.7818 0.6235
vn 0.0000 -0.9749 -0.2225
vn 0.0000 -0.9749 -0.2225
vn 0.0000 -0.9749 0.2225
f 1//1 2//2 3//3
f 4//4 2//2 1//1
f 4//4 5//5 2//2
f 6//6 7//7 5//5
f 8//8 9//9 7//7
f 8//8 10//10 9//9
f 8//8 11//11 10//10
f 7//7 9//9 12//12
f 7//7 12//12 13//13
f 7//7 13//13 14//14
f 15//15 16//16 10//10
f 15//15 10//10 11//11
f 16//16 17//17 18//18
f 17//17 16//16 15//15
f 14//14 13//13 19//19
f 14//14 19//19 20//20
f 21//21 18//18 17//17
f 18//18 21//21 22//22
f 23//23 24//24 25//25
f 24//24 23//23 26//26
f 24//24 26//26 27//27
f 28//28 27//27 26//26
f 27//27 28//28 29//29
f 30//30 31//31 32//32
f 33//33 30//30 34//34
f 31//31 35//35 36//36
f 35//35 37//37 38//38
f 37//37 39//39 40//40
f 39//39 41//41 42//42
f 6//6 5//5 4//4
f 8//8 7//7 6//6
f 8//8 43//43 11//11
f 8//8 24//24 43//43
f 8//8 25//25 24//24
f 8//8 44//44 25//25
f 45//45 46//46 44//44
f 8//8 45//45 44//44
f 45//45 47//47 46//46
f 45//45 48//48 47//47
f 45//45 49//49 48//48
f 45//45 50//50 49//49
f 44//44 51//51 52//52
f 44//44 46//46 51//51
f 52//52 51//51 53//53
f 52//52 53//53 54//54
f 55//55 54//54 53//53
f 54//54 55//55 56//56
f 57//57 58//58 47//47
f 57//57 47//47 48//48
f 58//58 59//59 60//60
f 58//58 57//57 59//59
f 50//50 61//61 49//49
f 50//50 62//62 61//61
f 50//50 63//63 62//62
f 64//64 60//60 59//59
f 60//60 64//64 65//65
f 63//63 66//66 62//62
f 63//63 67//67 66//66
f 68//68 33//33 69//69
f 70//70 68//68 71//71
f 72//72 70//70 73//73
f 72//72 74//74 75//75
f 75//75 76//76 77//77
f 77//77 78//78 79//79
f 79//79 80//80 81//81
f 20//20 19//19 82//82
f 82//82 19//19 83//83
f 84//84 22//22 21//21
f 22//22 84//84 85//85
f 82//82 83//83 86//86
f 86//86 83//83 87//87
f 86//86 87//87 88//88
f 85//85 89//89 90//90
f 89//89 85//85 84//84
f 90//90 91//91 92//92
f 90//90 89//89 91//91
f 93//93 29//29 28//28
f 29//29 93//93 94//94
f 95//95 94//94 93//93
f 94//94 95//95 96//96
f 97//97 98//98 96//96
f 97//97 96//96 95//95
f 86//86 88//88 99//99
f 99//99 88//88 92//92
f 99//99 92//92 91//91
f 99//99 91//91 98//98
f 99//99 97//97 100//100
f 99//99 98//98 97//97
f 100//100 97//97 101//101
f 100//100 101//101 102//102
f 100//100 102//102 103//103
f 100//100 103//103 104//104
f 105//105 106//106 100//100
f 107//107 108//108 106//106
f 41//41 109//109 110//110
f 109//109 111//111 112//112
f 111//111 113//113 114//114
f 113//113 115//115 116//116
f 117//117 118//118 115//115
f 119//119 120//120 117//117
f 121//121 122//122 119//119
f 123//123 56//56 55//55
f 123//123 124//124 56//56
f 102//102 124//124 123//123
f 124//124 102//102 125//125
f 125//125 102//102 101//101
f 126//126 65//65 64//64
f 65//65 126//126 127//127
f 67//67 128//128 66//66
f 128//128 129//129 66//66
f 127//127 130//130 131//131
f 130//130 127//127 126//126
f 131//131 132//132 104//104
f 131//131 130//130 132//132
f 128//128 105//105 129//129
f 105//105 133//133 129//129
f 105//105 134//134 133//133
f 100//100 104//104 132//132
f 100//100 132//132 134//134
f 105//105 100//100 134//134
f 105//105 107//107 106//106
f 107//107 135//135 108//108
f 135//135 136//136 108//108
f 135//135 137//137 136//136
f 81//81 138//138 139//139
f 139//139 140//140 141//141
f 141//141 142//142 143//143
f 143//143 144//144 145//145
f 146//146 147//147 121//121
f 145//145 148//148 146//146
f 31//31 36//36 32//32
f 30//30 32//32 34//34
f 35//35 38//38 36//36
f 37//37 40//40 38//38
f 69//69 33//33 34//34
f 39//39 42//42 40//40
f 41//41 110//110 42//42
f 149//149 150//150 151//151
f 152//152 149//149 151//151
f 152//152 151//151 153//153
f 154//154 153//153 155//155
f 156//156 155//155 157//157
f 156//156 157//157 158//158
f 156//156 158//158 159//159
f 155//155 160//160 157//157
f 155//155 161//161 160//160
f 161//161 162//162 160//160
f 159//159 158//158 163//163
f 164//164 159//159 163//163
f 164//164 165//165 159//159
f 164//164 166//166 165//165
f 161//161 167//167 162//162
f 167//167 168//168 162//162
f 169//169 166//166 164//164
f 169//169 170//170 166//166
f 171//171 172//172 173//173
f 171//171 173//173 174//174
f 173//173 175//175 174//174
f 176//176 175//175 173//173
f 176//176 177//177 175//175
f 68//68 69//69 71//71
f 70//70 71//71 73//73
f 72//72 73//73 74//74
f 75//75 74//74 76//76
f 77//77 76//76 78//78
f 79//79 78//78 80//80
f 154//154 152//152 153//153
f 156//156 154//154 155//155
f 156//156 159//159 178//178
f 156//156 178//178 172//172
f 156//156 172//172 171//171
f 156//156 171//171 179//179
f 156//156 179//179 180//180
f 181//181 180//180 182//182
f 156//156 180//180 181//181
f 181//181 182//182 183//183
f 181//181 183//183 184//184
f 181//181 184//184 185//185
f 181//181 185//185 186//186
f 181//181 186//186 187//187
f 181//181 187//187 188//188
f 182//182 180//180 189//189
f 182//182 189//189 190//190
f 190//190 189//189 191//191
f 190//190 191//191 192//192
f 191//191 193//193 192//192
f 185//185 184//184 194//194
f 185//185 194//194 195//195
f 194//194 196//196 195//195
f 188//188 187//187 197//197
f 188//188 198//198 199//199
f 200//200 196//196 194//194
f 200//200 201//201 196//196
f 188//188 197//197 198//198
f 199//199 198//198 202//202
f 110//110 109//109 112//112
f 111//111 114//114 112//112
f 113//113 116//116 114//114
f 115//115 118//118 116//116
f 117//117 120//120 118//118
f 119//119 122//122 120//120
f 167//167 203//203 168//168
f 204//204 205//205 168//168
f 206//206 170//170 169//169
f 206//206 207//207 170//170
f 203//203 204//204 168//168
f 204//204 208//208 205//205
f 207//207 206//206 209//209
f 207//207 209//209 210//210
f 207//207 210//210 211//211
f 212//212 177//177 176//176
f 177//177 212//212 213//213
f 177//177 213//213 214//214
f 214//214 213//213 215//215
f 214//214 215//215 216//216
f 204//204 217//217 208//208
f 217//217 218//218 208//208
f 217//217 210//210 218//218
f 217//217 211//211 210//210
f 217//217 219//219 211//211
f 217//217 215//215 219//219
f 217//217 220//220 216//216
f 217//217 216//216 215//215
f 220//220 221//221 216//216
f 220//220 222//222 221//221
f 220//220 223//223 222//222
f 220//220 224//224 223//223
f 220//220 225//225 224//224
f 226//226 220//220 227//227
f 228//228 227//227 229//229
f 81//81 80//80 138//138
f 139//139 138//138 140//140
f 121//121 147//147 122//122
f 141//141 140//140 142//142
f 143//143 142//142 144//144
f 146//146 148//148 147//147
f 145//145 144//144 148//148
f 193//193 191//191 230//230
f 193//193 230//230 231//231
f 232//232 231//231 230//230
f 231//231 232//232 222//222
f 231//231 222//222 223//223
f 233//233 201//201 200//200
f 233//233 234//234 201//201
f 202//202 198//198 235//235
f 202//202 235//235 236//236
f 237//237 234//234 233//233
f 225//225 234//234 237//237
f 225//225 238//238 234//234
f 225//225 239//239 238//238
f 236//236 235//235 240//240
f 236//236 240//240 226//226
f 226//226 240//240 241//241
f 220//220 239//239 225//225
f 220//220 241//241 239//239
f 226//226 241//241 220//220
f 226//226 227//227 228//228
f 228//228 229//229 242//242
f 242//242 229//229 243//243
f 242//242 243//243 244//244
f 245//245 246//246 247//247
f 248//248 245//245 249//249
f 246//246 250//250 251//251
f 252//252 248//248 253//253
f 250//250 254//254 255//255
f 256//256 252//252 257//257
f 254//254 258//258 259//259
f 260//260 256//256 261//261
f 258//258 262//262 263//263
f 264//264 260//260 265//265
f 266//266 264//264 267//267
f 268//268 269//269 270//270
f 262//262 268//268 271//271
f 269//269 266//266 272//272
f 245//245 247//247 249//249
f 248//248 249//249 253//253
f 246//246 251//251 247//247
f 253//253 257//257 252//252
f 255//255 251//251 250//250
f 257//257 261//261 256//256
f 259//259 255//255 254//254
f 261//261 265//265 260//260
f 263//263 259//259 258//258
f 264//264 265//265 267//267
f 267//267 272//272 266//266
f 270//270 271//271 268//268
f 262//262 271//271 263//263
f 269//269 272//272 270//270
f 273//273 274//274 275//275
f 276//276 273//273 277//277
f 274//274 278//278 279//279
f 280//280 276//276 281//281
f 278//278 282//282 283//283
f 284//284 280//280 285//285
f 282//282 286//286 287//287
f 288//288 284//284 289//289
f 286//286 290//290 291//291
f 292//292 288//288 293//293
f 290//290 294//294 295//295
f 296//296 292//292 297//297
f 294//294 298//298 299//299
f 298//298 296//296 300//300
f 273//273 275//275 277//277
f 277//277 281//281 276//276
f 279//279 275//275 274//274
f 281//281 285//285 280//280
f 283//283 279//279 278//278
f 287//287 283//283 282//282
f 285//285 289//289 284//284
f 291//291 287//287 286//286
f 289//289 293//293 288//288
f 293//293 297//297 292//292
f 295//295 291//291 290//290
f 297//297 300//300 296//296
f 299//299 295//295 294//294
f 298//298 300//300 299//299
f 301//301 302//302 303//303
f 304//304 301//301 305//305
f 306//306 304//304 307//307
f 302//302 308//308 309//309
f 308//308 310//310 311//311
f 310//310 312//312 313//313
f 312//312 314//314 315//315
f 316//316 306//306 317//317
f 318//318 316//316 319//319
f 320//320 318//318 321//321
f 322//322 320//320 323//323
f 314//314 324//324 325//325
f 324//324 326//326 327//327
f 326//326 322//322 328//328
f 302//302 309//309 303//303
f 303//303 305//305 301//301
f 305//305 307//307 304//304
f 307//307 317//317 306//306
f 311//311 309//309 308//308
f 313//313 311//311 310//310
f 315//315 313//313 312//312
f 317//317 319//319 316//316
f 319//319 321//321 318//318
f 321//321 323//323 320//320
f 325//325 315//315 314//314
f 327//327 325//325 324//324
f 328//328 327//327 326//326
f 322//322 323//323 328//328
f 329//329 330//330 331//331
f 332//332 329//329 333//333
f 330//330 334//334 335//335
f 336//336 332//332 337//337
f 334//334 338//338 339//339
f 340//340 336//336 341//341
f 338//338 342//342 343//343
f 344//344 340//340 345//345
f 342//342 346//346 347//347
f 348//348 344//344 349//349
f 346//346 350//350 351//351
f 352//352 348//348 353//353
f 350//350 354//354 355//355
f 354//354 352//352 356//356
f 329//329 331//331 333//333
f 333//333 337//337 332//332
f 335//335 331//331 330//330
f 337//337 341//341 336//336
f 339//339 335//335 334//334
f 343//343 339//339 338//338
f 341//341 345//345 340//340
f 347//347 343//343 342//342
f 345//345 349//349 344//344
f 349//349 353//353 348//348
f 351//351 347//347 346//346
f 353//353 356//356 352//352
f 355//355 351//351 350//350
f 354//354 356//356 355//355
f 357//357 358//358 359//359
f 360//360 361//361 362//362
f 361//361 357//357 363//363
f 358//358 364//364 365//365
f 364//364 366//366 367//367
f 368//368 360//360 369//369
f 366//366 370//370 371//371
f 372//372 368//368 373//373
f 370//370 374//374 375//375
f 376//376 372//372 377//377
f 374//374 378//378 379//379
f 380//380 376//376 381//381
f 378//378 382//382 383//383
f 382//382 380//380 384//384
f 357//357 359//359 363//363
f 360//360 362//362 369//369
f 363//363 362//362 361//361
f 365//365 359//359 358//358
f 364//364 367//367 365//365
f 369//369 373//373 368//368
f 371//371 367//367 366//366
f 373//373 377//377 372//372
f 375//375 371//371 370//370
f 377//377 381//381 376//376
f 379//379 375//375 374//374
f 380//380 381//381 384//384
f 378//378 383//383 379//379
f 382//382 384//384 383//383
