v -0.12100 -0.11250 -0.26250
v -0.12100 -0.09743 -0.31875
v -0.12100 -0.10867 -0.29162
v -0.12100 -0.11250 0.26250
v -0.12100 -0.07955 -0.34205
v -0.12100 -0.10867 0.29162
v -0.12100 -0.05625 -0.35993
v -0.12100 -0.09743 0.31875
v -0.12100 -0.05850 -0.26335
v -0.12100 -0.05850 -0.23665
v -0.12100 -0.04691 -0.21259
v -0.12100 -0.04691 -0.28741
v -0.12100 -0.02603 -0.30406
v -0.12100 -0.02912 -0.37117
v -0.12100 0.00000 -0.31000
v -0.12100 -0.00000 -0.37500
v -0.12100 -0.04691 -0.03741
v -0.12100 -0.02603 -0.19594
v -0.12100 -0.02603 -0.05406
v -0.12100 -0.05850 -0.01335
v -0.12100 0.00000 -0.06000
v -0.12100 0.00000 -0.19000
v -0.12100 -0.10867 -0.29162
v -0.12100 -0.09743 -0.31875
v 0.12100 -0.10867 -0.29162
v -0.12100 -0.07955 -0.34205
v 0.12100 -0.09743 -0.31875
v -0.12100 -0.11250 -0.26250
v 0.12100 -0.11250 -0.26250
v -0.12100 -0.05625 -0.35993
v 0.12100 -0.07955 -0.34205
v -0.12100 -0.02912 -0.37117
v 0.12100 -0.05625 -0.35993
v -0.12100 -0.00000 -0.37500
v 0.12100 -0.02912 -0.37117
v -0.12100 -0.05850 0.01335
v -0.12100 -0.07955 0.34205
v -0.12100 -0.04691 0.03741
v -0.12100 -0.05850 0.23665
v -0.12100 -0.05850 0.26335
v -0.12100 -0.05625 0.35993
v -0.12100 -0.04691 0.21259
v -0.12100 -0.02603 0.19594
v -0.12100 -0.02603 0.05406
v -0.12100 0.00000 0.19000
v -0.12100 0.00000 0.06000
v -0.12100 -0.04691 0.28741
v -0.12100 -0.02603 0.30406
v -0.12100 -0.02912 0.37117
v -0.12100 0.00000 0.31000
v -0.12100 -0.00000 0.37500
v -0.12100 -0.11250 0.26250
v 0.12100 -0.11250 0.26250
v -0.12100 -0.10867 0.29162
v 0.12100 -0.10867 0.29162
v 0.12100 -0.09743 0.31875
v -0.12100 -0.09743 0.31875
v 0.12100 -0.07955 0.34205
v -0.12100 -0.07955 0.34205
v 0.12100 -0.05625 0.35993
v -0.12100 -0.05625 0.35993
v 0.12100 -0.02912 0.37117
v -0.12100 -0.02912 0.37117
v 0.12100 -0.00000 0.37500
v -0.12100 -0.00000 0.37500
v -0.12100 0.02912 -0.37117
v -0.12100 0.02603 -0.30406
v -0.12100 0.05625 -0.35993
v -0.12100 0.04691 -0.28741
v -0.12100 0.05850 -0.26335
v -0.12100 0.02603 -0.05406
v -0.12100 0.02603 -0.19594
v -0.12100 0.04691 -0.03741
v -0.12100 0.04691 -0.21259
v -0.12100 0.05850 -0.23665
v -0.12100 0.07955 -0.34205
v -0.12100 0.05850 -0.01335
v -0.12100 0.09743 -0.31875
v -0.12100 0.05850 0.01335
v -0.12100 0.04691 0.21259
v -0.12100 0.05625 0.35993
v -0.12100 0.10867 -0.29162
v -0.12100 0.07955 0.34205
v -0.12100 0.11250 -0.26250
v -0.12100 0.02912 -0.37117
v 0.12100 -0.00000 -0.37500
v -0.12100 0.05625 -0.35993
v 0.12100 0.02912 -0.37117
v -0.12100 0.07955 -0.34205
v 0.12100 0.05625 -0.35993
v -0.12100 0.09743 -0.31875
v 0.12100 0.07955 -0.34205
v -0.12100 0.10867 -0.29162
v 0.12100 0.09743 -0.31875
v -0.12100 0.11250 -0.26250
v 0.12100 0.10867 -0.29162
v -0.12100 0.11250 0.26250
v 0.12100 0.11250 -0.26250
v -0.12100 0.02603 0.19594
v -0.12100 0.02603 0.05406
v -0.12100 0.04691 0.03741
v -0.12100 0.02912 0.37117
v -0.12100 0.02603 0.30406
v -0.12100 0.04691 0.28741
v -0.12100 0.05850 0.26335
v -0.12100 0.05850 0.23665
v -0.12100 0.09743 0.31875
v -0.12100 0.11250 0.26250
v -0.12100 0.10867 0.29162
v 0.12100 0.02912 0.37117
v -0.12100 0.02912 0.37117
v 0.12100 0.05625 0.35993
v -0.12100 0.05625 0.35993
v 0.12100 0.07955 0.34205
v -0.12100 0.07955 0.34205
v -0.12100 0.10867 0.29162
v 0.12100 0.11250 0.26250
v 0.12100 0.09743 0.31875
v -0.12100 0.09743 0.31875
v 0.12100 0.10867 0.29162
v 0.12100 -0.11250 -0.26250
v 0.12100 -0.10867 -0.29162
v 0.12100 -0.09743 -0.31875
v 0.12100 -0.11250 0.26250
v 0.12100 -0.07955 -0.34205
v 0.12100 -0.10867 0.29162
v 0.12100 -0.05625 -0.35993
v 0.12100 -0.09743 0.31875
v 0.12100 -0.05850 -0.26335
v 0.12100 -0.05850 -0.23665
v 0.12100 -0.04691 -0.21259
v 0.12100 -0.02912 -0.37117
v 0.12100 -0.04691 -0.28741
v 0.12100 -0.02603 -0.30406
v 0.12100 -0.00000 -0.37500
v 0.12100 0.00000 -0.31000
v 0.12100 -0.02603 -0.19594
v 0.12100 -0.04691 -0.03741
v 0.12100 -0.05850 -0.01335
v 0.12100 0.00000 -0.19000
v 0.12100 -0.02603 -0.05406
v 0.12100 0.02603 -0.19594
v 0.12100 0.00000 -0.06000
v 0.12100 -0.05850 0.01335
v 0.12100 -0.04691 0.03741
v 0.12100 -0.07955 0.34205
v 0.12100 -0.05850 0.23665
v 0.12100 -0.05850 0.26335
v 0.12100 -0.04691 0.28741
v 0.12100 -0.05625 0.35993
v 0.12100 -0.02603 0.05406
v 0.12100 -0.04691 0.21259
v 0.12100 0.00000 0.06000
v 0.12100 -0.02603 0.19594
v 0.12100 0.02603 0.05406
v 0.12100 0.00000 0.19000
v 0.12100 -0.02603 0.30406
v 0.12100 0.00000 0.31000
v 0.12100 -0.02912 0.37117
v 0.12100 -0.00000 0.37500
v 0.12100 0.02912 -0.37117
v 0.12100 0.05625 -0.35993
v 0.12100 0.02603 -0.30406
v 0.12100 0.04691 -0.28741
v 0.12100 0.07955 -0.34205
v 0.12100 0.02603 -0.05406
v 0.12100 0.05850 -0.23665
v 0.12100 0.04691 -0.21259
v 0.12100 0.04691 -0.03741
v 0.12100 0.05850 -0.26335
v 0.12100 0.09743 -0.31875
v 0.12100 0.05850 -0.01335
v 0.12100 0.05850 0.01335
v 0.12100 0.04691 0.21259
v 0.12100 0.05625 0.35993
v 0.12100 0.10867 -0.29162
v 0.12100 0.07955 0.34205
v 0.12100 0.11250 -0.26250
v 0.12100 0.04691 0.03741
v 0.12100 0.02603 0.19594
v 0.12100 0.02603 0.30406
v 0.12100 0.02912 0.37117
v 0.12100 0.04691 0.28741
v 0.12100 0.05850 0.26335
v 0.12100 0.05850 0.23665
v 0.12100 0.09743 0.31875
v 0.12100 0.11250 0.26250
v 0.12100 0.10867 0.29162
v -0.12100 -0.05850 -0.26335
v -0.12100 -0.05850 -0.23665
v 0.12100 -0.05850 -0.23665
v -0.12100 -0.02603 -0.30406
v -0.12100 -0.04691 -0.28741
v 0.12100 -0.04691 -0.28741
v 0.12100 -0.05850 -0.26335
v -0.12100 -0.04691 -0.21259
v 0.12100 -0.04691 -0.21259
v -0.12100 -0.02603 -0.19594
v 0.12100 -0.02603 -0.19594
v -0.12100 0.00000 -0.31000
v 0.12100 -0.02603 -0.30406
v -0.12100 0.00000 -0.19000
v 0.12100 0.00000 -0.19000
v -0.12100 0.02603 -0.30406
v 0.12100 0.00000 -0.31000
v -0.12100 0.02603 -0.19594
v 0.12100 0.02603 -0.19594
v -0.12100 0.04691 -0.28741
v 0.12100 0.02603 -0.30406
v -0.12100 0.04691 -0.21259
v 0.12100 0.04691 -0.21259
v -0.12100 0.05850 -0.26335
v 0.12100 0.04691 -0.28741
v -0.12100 0.05850 -0.23665
v 0.12100 0.05850 -0.23665
v 0.12100 0.05850 -0.26335
v -0.12100 -0.04691 -0.03741
v -0.12100 -0.05850 -0.01335
v 0.12100 -0.05850 -0.01335
v -0.12100 -0.02603 -0.05406
v 0.12100 -0.04691 -0.03741
v -0.12100 0.00000 -0.06000
v 0.12100 -0.02603 -0.05406
v -0.12100 -0.05850 0.01335
v 0.12100 -0.05850 0.01335
v -0.12100 -0.04691 0.03741
v 0.12100 -0.04691 0.03741
v -0.12100 -0.02603 0.05406
v 0.12100 -0.02603 0.05406
v -0.12100 0.00000 0.06000
v 0.12100 0.00000 0.06000
v -0.12100 0.02603 -0.05406
v 0.12100 0.00000 -0.06000
v -0.12100 0.04691 -0.03741
v 0.12100 0.02603 -0.05406
v -0.12100 0.05850 -0.01335
v 0.12100 0.04691 -0.03741
v -0.12100 0.05850 0.01335
v 0.12100 0.05850 -0.01335
v -0.12100 0.02603 0.05406
v 0.12100 0.02603 0.05406
v -0.12100 0.04691 0.03741
v 0.12100 0.04691 0.03741
v 0.12100 0.05850 0.01335
v -0.12100 -0.05850 0.23665
v -0.12100 -0.05850 0.26335
v 0.12100 -0.05850 0.26335
v -0.12100 -0.04691 0.21259
v 0.12100 -0.05850 0.23665
v -0.12100 -0.04691 0.28741
v 0.12100 -0.04691 0.28741
v -0.12100 -0.02603 0.19594
v 0.12100 -0.04691 0.21259
v -0.12100 -0.02603 0.30406
v 0.12100 -0.02603 0.30406
v -0.12100 0.00000 0.19000
v 0.12100 -0.02603 0.19594
v -0.12100 0.00000 0.31000
v 0.12100 0.00000 0.31000
v -0.12100 0.02603 0.19594
v 0.12100 0.00000 0.19000
v -0.12100 0.02603 0.30406
v 0.12100 0.02603 0.30406
v -0.12100 0.04691 0.21259
v 0.12100 0.02603 0.19594
v -0.12100 0.05850 0.23665
v 0.12100 0.04691 0.21259
v -0.12100 0.04691 0.28741
v -0.12100 0.05850 0.26335
v 0.12100 0.05850 0.26335
v 0.12100 0.04691 0.28741
v 0.12100 0.05850 0.23665
vn -1.0000 0.0000 0.0000
vn -1.0000 0.0000 0.0000
vn -1.0000 0.0000 0.0000
vn -1.0000 0.0000 0.0000
vn -1.0000 0.0000 0.0000
vn -1.0000 0.0000 0.0000
vn -1.0000 0.0000 0.0000
vn -1.0000 0.0000 0.0000
vn -1.0000 0.0000 0.0000
vn -1.0000 0.0000 0.0000
vn -1.0000 0.0000 0.0000
vn -1.0000 0.0000 0.0000
vn -1.0000 0.0000 0.0000
vn -1.0000 0.0000 0.0000
vn -1.0000 0.0000 0.0000
vn -1.0000 0.0000 0.0000
vn -1.0000 0.0000 0.0000
vn -1.0000 0.0000 0.0000
vn -1.0000 0.0000 0.0000
vn -1.0000 0.0000 0.0000
vn -1.0000 0.0000 0.0000
vn -1.0000 0.0000 0.0000
vn 0.0000 -0.9659 -0.2588
vn -0.0000 -0.8660 -0.5000
vn -0.0000 -0.9659 -0.2588
vn 0.0000 -0.7071 -0.7071
vn 0.0000 -0.8660 -0.5000
vn 0.0000 -0.9979 -0.0654
vn 0.0000 -0.9979 -0.0654
vn 0.0000 -0.5000 -0.8660
vn 0.0000 -0.7071 -0.7071
vn 0.0000 -0.2588 -0.9659
vn 0.0000 -0.5000 -0.8660
vn 0.0000 -0.0000 -1.0000
vn 0.0000 -0.2588 -0.9659
vn -1.0000 0.0000 0.0000
vn -1.0000 0.0000 0.0000
vn -1.0000 0.0000 0.0000
vn -1.0000 0.0000 0.0000
vn -1.0000 0.0000 0.0000
vn -1.0000 0.0000 0.0000
vn -1.0000 0.0000 0.0000
vn -1.0000 0.0000 0.0000
vn -1.0000 0.0000 0.0000
vn -1.0000 0.0000 0.0000
vn -1.0000 0.0000 0.0000
vn -1.0000 0.0000 0.0000
vn -1.0000 0.0000 0.0000
vn -1.0000 0.0000 0.0000
vn -1.0000 0.0000 0.0000
vn -1.0000 0.0000 0.0000
vn 0.0000 -0.9979 0.0654
vn 0.0000 -0.9979 0.0654
vn 0.0000 -0.9659 0.2588
vn 0.0000 -0.9659 0.2588
vn 0.0000 -0.8660 0.5000
vn 0.0000 -0.8660 0.5000
vn 0.0000 -0.7071 0.7071
vn 0.0000 -0.7071 0.7071
vn 0.0000 -0.5000 0.8660
vn -0.0000 -0.5000 0.8660
vn -0.0000 -0.2588 0.9659
vn 0.0000 -0.2588 0.9659
vn 0.0000 -0.0000 1.0000
vn -0.0000 -0.0000 1.0000
vn -1.0000 0.0000 0.0000
vn -1.0000 0.0000 0.0000
vn -1.0000 0.0000 0.0000
vn -1.0000 0.0000 0.0000
vn -1.0000 0.0000 0.0000
vn -1.0000 0.0000 0.0000
vn -1.0000 0.0000 0.0000
vn -1.0000 0.0000 0.0000
vn -1.0000 0.0000 0.0000
vn -1.0000 0.0000 0.0000
vn -1.0000 0.0000 0.0000
vn -1.0000 0.0000 0.0000
vn -1.0000 0.0000 0.0000
vn -1.0000 0.0000 0.0000
vn -1.0000 0.0000 0.0000
vn -1.0000 0.0000 0.0000
vn -1.0000 0.0000 0.0000
vn -1.0000 0.0000 0.0000
vn -1.0000 0.0000 0.0000
vn 0.0000 0.2588 -0.9659
vn 0.0000 -0.0000 -1.0000
vn -0.0000 0.5000 -0.8660
vn -0.0000 0.2588 -0.9659
vn 0.0000 0.7071 -0.7071
vn 0.0000 0.5000 -0.8660
vn 0.0000 0.8660 -0.5000
vn 0.0000 0.7071 -0.7071
vn 0.0000 0.9659 -0.2588
vn 0.0000 0.8660 -0.5000
vn 0.0000 0.9979 -0.0654
vn 0.0000 0.9659 -0.2588
vn 0.0000 0.9979 0.0654
vn 0.0000 0.9979 -0.0654
vn -1.0000 0.0000 0.0000
vn -1.0000 0.0000 0.0000
vn -1.0000 0.0000 0.0000
vn -1.0000 0.0000 0.0000
vn -1.0000 0.0000 0.0000
vn -1.0000 0.0000 0.0000
vn -1.0000 0.0000 0.0000
vn -1.0000 0.0000 0.0000
vn -1.0000 0.0000 0.0000
vn -1.0000 0.0000 0.0000
vn -1.0000 0.0000 0.0000
vn -0.0000 0.2588 0.9659
vn 0.0000 0.2588 0.9659
vn 0.0000 0.5000 0.8660
vn 0.0000 0.5000 0.8660
vn 0.0000 0.7071 0.7071
vn 0.0000 0.7071 0.7071
vn 0.0000 0.9659 0.2588
vn 0.0000 0.9979 0.0654
vn 0.0000 0.8660 0.5000
vn -0.0000 0.8660 0.5000
vn -0.0000 0.9659 0.2588
vn 1.0000 0.0000 0.0000
vn 1.0000 0.0000 0.0000
vn 1.0000 0.0000 0.0000
vn 1.0000 0.0000 0.0000
vn 1.0000 0.0000 0.0000
vn 1.0000 0.0000 0.0000
vn 1.0000 0.0000 0.0000
vn 1.0000 0.0000 0.0000
vn 1.0000 0.0000 0.0000
vn 1.0000 0.0000 0.0000
vn 1.0000 0.0000 0.0000
vn 1.0000 0.0000 0.0000
vn 1.0000 0.0000 0.0000
vn 1.0000 0.0000 0.0000
vn 1.0000 0.0000 0.0000
vn 1.0000 0.0000 0.0000
vn 1.0000 0.0000 0.0000
vn 1.0000 0.0000 0.0000
vn 1.0000 0.0000 0.0000
vn 1.0000 0.0000 0.0000
vn 1.0000 0.0000 0.0000
vn 1.0000 0.0000 0.0000
vn 1.0000 0.0000 0.0000
vn 1.0000 0.0000 0.0000
vn 1.0000 0.0000 0.0000
vn 1.0000 0.0000 0.0000
vn 1.0000 0.0000 0.0000
vn 1.0000 0.0000 0.0000
vn 1.0000 0.0000 0.0000
vn 1.0000 0.0000 0.0000
vn 1.0000 0.0000 0.0000
vn 1.0000 0.0000 0.0000
vn 1.0000 0.0000 0.0000
vn 1.0000 0.0000 0.0000
vn 1.0000 0.0000 0.0000
vn 1.0000 0.0000 0.0000
vn 1.0000 0.0000 0.0000
vn 1.0000 0.0000 0.0000
vn 1.0000 0.0000 0.0000
vn 1.0000 0.0000 0.0000
vn 1.0000 0.0000 0.0000
vn 1.0000 0.0000 0.0000
vn 1.0000 0.0000 0.0000
vn 1.0000 0.0000 0.0000
vn 1.0000 0.0000 0.0000
vn 1.0000 0.0000 0.0000
vn 1.0000 0.0000 0.0000
vn 1.0000 0.0000 0.0000
vn 1.0000 0.0000 0.0000
vn 1.0000 0.0000 0.0000
vn 1.0000 0.0000 0.0000
vn 1.0000 0.0000 0.0000
vn 1.0000 0.0000 0.0000
vn 1.0000 0.0000 0.0000
vn 1.0000 0.0000 0.0000
vn 1.0000 0.0000 0.0000
vn 1.0000 0.0000 0.0000
vn 1.0000 0.0000 0.0000
vn 1.0000 0.0000 0.0000
vn 1.0000 0.0000 0.0000
vn 1.0000 0.0000 0.0000
vn 1.0000 0.0000 0.0000
vn 1.0000 0.0000 0.0000
vn 1.0000 0.0000 0.0000
vn 1.0000 0.0000 0.0000
vn 1.0000 0.0000 0.0000
vn 1.0000 0.0000 0.0000
vn 1.0000 0.0000 0.0000
vn -0.0000 0.9749 0.2225
vn -0.0000 0.9749 -0.2225
vn -0.0000 0.9749 -0.2225
vn 0.0000 0.4339 0.9010
vn 0.0000 0.7818 0.6235
vn 0.0000 0.7818 0.6235
vn 0.0000 0.9749 0.2225
vn 0.0000 0.7818 -0.6235
vn -0.0000 0.7818 -0.6235
vn 0.0000 0.4339 -0.9010
vn 0.0000 0.4339 -0.9010
vn 0.0000 0.0000 1.0000
vn 0.0000 0.4339 0.9010
vn 0.0000 -0.0000 -1.0000
vn 0.0000 0.0000 -1.0000
vn 0.0000 -0.4339 0.9010
vn 0.0000 -0.0000 1.0000
vn 0.0000 -0.4339 -0.9010
vn 0.0000 -0.4339 -0.9010
vn -0.0000 -0.7818 0.6235
vn -0.0000 -0.4339 0.9010
vn 0.0000 -0.7818 -0.6235
vn 0.0000 -0.7818 -0.6235
vn 0.0000 -0.9749 0.2225
vn 0.0000 -0.7818 0.6235
vn 0.0000 -0.9749 -0.2225
vn 0.0000 -0.9749 -0.2225
vn 0.0000 -0.9749 0.2225
vn 0.0000 0.7818 0.6235
vn 0.0000 0.9749 0.2225
vn 0.0000 0.9749 0.2225
vn 0.0000 0.4339 0.9010
vn 0.0000 0.7818 0.6235
vn 0.0000 0.0000 1.0000
vn 0.0000 0.4339 0.9010
vn 0.0000 0.9749 -0.2225
vn 0.0000 0.9749 -0.2225
vn -0.0000 0.7818 -0.6235
vn 0.0000 0.7818 -0.6235
vn 0.0000 0.4339 -0.9010
vn -0.0000 0.4339 -0.9010
vn 0.0000 -0.0000 -1.0000
vn 0.0000 0.0000 -1.0000
vn 0.0000 -0.4339 0.9010
vn 0.0000 -0.0000 1.0000
vn -0.0000 -0.7818 0.6235
vn -0.0000 -0.4339 0.9010
vn 0.0000 -0.9749 0.2225
vn 0.0000 -0.7818 0.6235
vn 0.0000 -0.9749 -0.2225
vn 0.0000 -0.9749 0.2225
vn 0.0000 -0.4339 -0.9010
vn 0.0000 -0.4339 -0.9010
vn -0.0000 -0.7818 -0.6235
vn 0.0000 -0.7818 -0.6235
vn -0.0000 -0.9749 -0.2225
vn 0.0000 0.9749 0.2225
vn -0.0000 0.9749 -0.2225
vn 0.0000 0.9749 -0.2225
vn 0.0000 0.7818 0.6235
vn 0.0000 0.9749 0.2225
vn 0.0000 0.7818 -0.6235
vn -0.0000 0.7818 -0.6235
vn 0.0000 0.4339 0.9010
vn 0.0000 0.7818 0.6235
vn 0.0000 0.4339 -0.9010
vn 0.0000 0.4339 -0.9010
vn 0.0000 0.0000 1.0000
vn 0.0000 0.4339 0.9010
vn 0.0000 -0.0000 -1.0000
vn 0.0000 0.0000 -1.0000
vn 0.0000 -0.4339 0.9010
vn 0.0000 -0.0000 1.0000
vn 0.0000 -0.4339 -0.9010
vn 0.0000 -0.4339 -0.9010
vn -0.0000 -0.7818 0.6235
vn -0.0000 -0.4339 0.9010
vn 0.0000 -0.9749 0.2225
vn 0.0000 -0.7818 0.6235
vn 0.0000 -0.7818 -0.6235
vn 0.0000 -0.9749 -0.2225
vn 0.0000 -0.9749 -0.2225
vn 0.0000 -0.7818 -0.6235
vn 0.0000 -0.9749 0.2225
f 1//1 2//2 3//3
f 4//4 2//2 1//1
f 4//4 5//5 2//2
f 6//6 7//7 5//5
f 8//8 9//9 7//7
f 8//8 10//10 9//9
f 8//8 11//11 10//10
f 7//7 9//9 12//12
f 7//7 12//12 13//13
f 7//7 13//13 14//14
f 14//14 13//13 15//15
f 14//14 15//15 16//16
f 11//11 17//17 18//18
f 19//19 18//18 17//17
f 17//17 11//11 20//20
f 18//18 19//19 21//21
f 18//18 21//21 22//22
f 23//23 24//24 25//25
f 24//24 26//26 27//27
f 28//28 23//23 29//29
f 26//26 30//30 31//31
f 30//30 32//32 33//33
f 32//32 34//34 35//35
f 6//6 5//5 4//4
f 6//6 8//8 7//7
f 8//8 20//20 11//11
f 8//8 36//36 20//20
f 37//37 38//38 36//36
f 8//8 37//37 36//36
f 37//37 39//39 38//38
f 37//37 40//40 39//39
f 37//37 41//41 40//40
f 38//38 39//39 42//42
f 38//38 43//43 44//44
f 43//43 38//38 42//42
f 45//45 44//44 43//43
f 44//44 45//45 46//46
f 41//41 47//47 40//40
f 41//41 48//48 47//47
f 41//41 49//49 48//48
f 49//49 50//50 48//48
f 49//49 51//51 50//50
f 52//52 28//28 53//53
f 54//54 52//52 55//55
f 54//54 56//56 57//57
f 57//57 58//58 59//59
f 59//59 60//60 61//61
f 61//61 62//62 63//63
f 63//63 64//64 65//65
f 16//16 15//15 66//66
f 66//66 15//15 67//67
f 66//66 67//67 68//68
f 68//68 67//67 69//69
f 68//68 69//69 70//70
f 71//71 22//22 21//21
f 22//22 71//71 72//72
f 72//72 73//73 74//74
f 73//73 72//72 71//71
f 73//73 75//75 74//74
f 68//68 70//70 76//76
f 76//76 70//70 75//75
f 76//76 75//75 73//73
f 76//76 77//77 78//78
f 76//76 73//73 77//77
f 78//78 77//77 79//79
f 78//78 79//79 80//80
f 81//81 82//82 78//78
f 83//83 84//84 82//82
f 34//34 85//85 86//86
f 85//85 87//87 88//88
f 87//87 89//89 90//90
f 89//89 91//91 92//92
f 91//91 93//93 94//94
f 95//95 96//96 93//93
f 97//97 98//98 95//95
f 99//99 46//46 45//45
f 46//46 99//99 100//100
f 101//101 80//80 79//79
f 100//100 99//99 101//101
f 80//80 101//101 99//99
f 51//51 102//102 50//50
f 102//102 103//103 50//50
f 102//102 81//81 103//103
f 81//81 104//104 103//103
f 81//81 105//105 104//104
f 78//78 80//80 106//106
f 78//78 106//106 105//105
f 81//81 78//78 105//105
f 81//81 83//83 82//82
f 83//83 107//107 84//84
f 107//107 108//108 84//84
f 107//107 109//109 108//108
f 65//65 110//110 111//111
f 111//111 112//112 113//113
f 113//113 114//114 115//115
f 116//116 117//117 97//97
f 115//115 118//118 119//119
f 119//119 120//120 116//116
f 23//23 25//25 29//29
f 24//24 27//27 25//25
f 26//26 31//31 27//27
f 30//30 33//33 31//31
f 53//53 28//28 29//29
f 32//32 35//35 33//33
f 34//34 86//86 35//35
f 121//121 122//122 123//123
f 124//124 121//121 123//123
f 124//124 123//123 125//125
f 126//126 125//125 127//127
f 128//128 127//127 129//129
f 128//128 129//129 130//130
f 128//128 130//130 131//131
f 127//127 132//132 133//133
f 127//127 133//133 129//129
f 132//132 134//134 133//133
f 132//132 135//135 134//134
f 135//135 136//136 134//134
f 131//131 137//137 138//138
f 131//131 138//138 139//139
f 138//138 137//137 140//140
f 138//138 140//140 141//141
f 141//141 140//140 142//142
f 141//141 142//142 143//143
f 52//52 53//53 55//55
f 54//54 55//55 56//56
f 57//57 56//56 58//58
f 59//59 58//58 60//60
f 61//61 60//60 62//62
f 63//63 62//62 64//64
f 126//126 124//124 125//125
f 126//126 127//127 128//128
f 128//128 131//131 139//139
f 128//128 139//139 144//144
f 128//128 144//144 145//145
f 128//128 145//145 146//146
f 146//146 147//147 148//148
f 146//146 148//148 149//149
f 146//146 149//149 150//150
f 146//146 145//145 151//151
f 151//151 152//152 147//147
f 152//152 151//151 153//153
f 152//152 153//153 154//154
f 154//154 153//153 155//155
f 154//154 155//155 156//156
f 146//146 151//151 147//147
f 150//150 149//149 157//157
f 150//150 158//158 159//159
f 150//150 157//157 158//158
f 159//159 158//158 160//160
f 86//86 85//85 88//88
f 87//87 90//90 88//88
f 89//89 92//92 90//90
f 91//91 94//94 92//92
f 93//93 96//96 94//94
f 95//95 98//98 96//96
f 135//135 161//161 136//136
f 162//162 163//163 136//136
f 161//161 162//162 136//136
f 162//162 164//164 163//163
f 165//165 166//166 167//167
f 143//143 142//142 168//168
f 143//143 168//168 166//166
f 166//166 168//168 167//167
f 165//165 169//169 166//166
f 162//162 165//165 164//164
f 165//165 170//170 164//164
f 165//165 167//167 170//170
f 165//165 171//171 169//169
f 171//171 172//172 169//169
f 171//171 173//173 172//172
f 171//171 174//174 173//173
f 175//175 171//171 176//176
f 177//177 176//176 178//178
f 65//65 64//64 110//110
f 111//111 110//110 112//112
f 97//97 117//117 98//98
f 113//113 112//112 114//114
f 115//115 114//114 118//118
f 119//119 118//118 120//120
f 116//116 120//120 117//117
f 156//156 155//155 179//179
f 156//156 179//179 180//180
f 173//173 180//180 179//179
f 174//174 180//180 173//173
f 160//160 158//158 181//181
f 160//160 181//181 182//182
f 182//182 181//181 183//183
f 175//175 183//183 184//184
f 182//182 183//183 175//175
f 171//171 185//185 174//174
f 171//171 184//184 185//185
f 175//175 184//184 171//171
f 175//175 176//176 177//177
f 177//177 178//178 186//186
f 186//186 178//178 187//187
f 186//186 187//187 188//188
f 189//189 190//190 191//191
f 192//192 193//193 194//194
f 193//193 189//189 195//195
f 190//190 196//196 197//197
f 196//196 198//198 199//199
f 200//200 192//192 201//201
f 198//198 202//202 203//203
f 204//204 200//200 205//205
f 202//202 206//206 207//207
f 208//208 204//204 209//209
f 206//206 210//210 211//211
f 212//212 208//208 213//213
f 210//210 214//214 215//215
f 214//214 212//212 216//216
f 189//189 191//191 195//195
f 194//194 201//201 192//192
f 193//193 195//195 194//194
f 190//190 197//197 191//191
f 197//197 196//196 199//199
f 201//201 205//205 200//200
f 203//203 199//199 198//198
f 205//205 209//209 204//204
f 207//207 203//203 202//202
f 208//208 209//209 213//213
f 211//211 207//207 206//206
f 213//213 216//216 212//212
f 210//210 215//215 211//211
f 214//214 216//216 215//215
f 217//217 218//218 219//219
f 220//220 217//217 221//221
f 222//222 220//220 223//223
f 218//218 224//224 225//225
f 224//224 226//226 227//227
f 226//226 228//228 229//229
f 228//228 230//230 231//231
f 232//232 222//222 233//233
f 234//234 232//232 235//235
f 236//236 234//234 237//237
f 238//238 236//236 239//239
f 230//230 240//240 241//241
f 240//240 242//242 243//243
f 242//242 238//238 244//244
f 218//218 225//225 219//219
f 219//219 221//221 217//217
f 221//221 223//223 220//220
f 223//223 233//233 222//222
f 227//227 225//225 224//224
f 229//229 227//227 226//226
f 231//231 229//229 228//228
f 233//233 235//235 232//232
f 235//235 237//237 234//234
f 237//237 239//239 236//236
f 241//241 231//231 230//230
f 243//243 241//241 240//240
f 244//244 243//243 242//242
f 238//238 239//239 244//244
f 245//245 246//246 247//247
f 248//248 245//245 249//249
f 246//246 250//250 251//251
f 252//252 248//248 253//253
f 250//250 254//254 255//255
f 256//256 252//252 257//257
f 254//254 258//258 259//259
f 260//260 256//256 261//261
f 258//258 262//262 263//263
f 264//264 260//260 265//265
f 266//266 264//264 267//267
f 268//268 269//269 270//270
f 262//262 268//268 271//271
f 269//269 266//266 272//272
f 245//245 247//247 249//249
f 248//248 249//249 253//253
f 251//251 247//247 246//246
f 253//253 257//257 252//252
f 250//250 255//255 251//251
f 257//257 261//261 256//256
f 259//259 255//255 254//254
f 261//261 265//265 260//260
f 263//263 259//259 258//258
f 267//267 264//264 265//265
f 266//266 267//267 272//272
f 268//268 270//270 271//271
f 271//271 263//263 262//262
f 269//269 272//272 270//270
