v -0.12100 -0.11250 -1.01250
v -0.12100 -0.09743 -1.06875
v -0.12100 -0.10867 -1.04162
v -0.12100 -0.11250 1.01250
v -0.12100 -0.07955 -1.09205
v -0.12100 -0.10867 1.04162
v -0.12100 -0.05625 -1.10993
v -0.12100 -0.05850 -1.01335
v -0.12100 -0.09743 1.06875
v -0.12100 -0.05850 -0.98665
v -0.12100 -0.05850 -0.76335
v -0.12100 -0.05850 -0.73665
v -0.12100 -0.05850 -0.51335
v -0.12100 -0.04691 -1.03741
v -0.12100 -0.02603 -1.05406
v -0.12100 -0.04691 -0.78741
v -0.12100 -0.04691 -0.96259
v -0.12100 -0.02912 -1.12117
v -0.12100 -0.02603 -0.80406
v -0.12100 -0.02603 -0.94594
v -0.12100 -0.04691 -0.53741
v -0.12100 -0.04691 -0.71259
v -0.12100 -0.02603 -0.55406
v -0.12100 -0.02603 -0.69594
v -0.12100 0.00000 -1.06000
v -0.12100 0.00000 -0.81000
v -0.12100 -0.00000 -1.12500
v -0.12100 0.00000 -0.94000
v -0.12100 0.00000 -0.56000
v -0.12100 0.00000 -0.69000
v -0.12100 -0.04691 -0.28741
v -0.12100 -0.04691 -0.46259
v -0.12100 -0.05850 -0.48665
v -0.12100 -0.05850 -0.26335
v -0.12100 -0.02603 -0.30406
v -0.12100 -0.02603 -0.44594
v -0.12100 -0.05850 -0.23665
v -0.12100 -0.04691 -0.03741
v -0.12100 -0.04691 -0.21259
v -0.12100 -0.05850 -0.01335
v -0.12100 -0.02603 -0.05406
v -0.12100 -0.02603 -0.19594
v -0.12100 0.00000 -0.31000
v -0.12100 0.00000 -0.44000
v -0.12100 0.00000 -0.06000
v -0.12100 0.00000 -0.19000
v -0.12100 -0.11250 -1.01250
v -0.12100 -0.10867 -1.04162
v 0.12100 -0.11250 -1.01250
v -0.12100 -0.09743 -1.06875
v 0.12100 -0.10867 -1.04162
v -0.12100 -0.07955 -1.09205
v 0.12100 -0.09743 -1.06875
v -0.12100 -0.05625 -1.10993
v 0.12100 -0.07955 -1.09205
v -0.12100 -0.02912 -1.12117
v 0.12100 -0.05625 -1.10993
v -0.12100 -0.00000 -1.12500
v 0.12100 -0.02912 -1.12117
v -0.12100 -0.05850 0.01335
v -0.12100 -0.07955 1.09205
v -0.12100 -0.05850 0.23665
v -0.12100 -0.05850 0.26335
v -0.12100 -0.05850 0.48665
v -0.12100 -0.05850 0.51335
v -0.12100 -0.05850 0.73665
v -0.12100 -0.05850 0.76335
v -0.12100 -0.05850 0.98665
v -0.12100 -0.05850 1.01335
v -0.12100 -0.05625 1.10993
v -0.12100 -0.04691 0.21259
v -0.12100 -0.04691 0.03741
v -0.12100 -0.02603 0.19594
v -0.12100 -0.02603 0.05406
v -0.12100 -0.04691 0.46259
v -0.12100 -0.04691 0.28741
v -0.12100 -0.02603 0.44594
v -0.12100 -0.02603 0.30406
v -0.12100 0.00000 0.19000
v -0.12100 0.00000 0.06000
v -0.12100 0.00000 0.44000
v -0.12100 0.00000 0.31000
v -0.12100 -0.04691 0.71259
v -0.12100 -0.04691 0.53741
v -0.12100 -0.04691 0.96259
v -0.12100 -0.04691 0.78741
v -0.12100 -0.02603 0.69594
v -0.12100 -0.02603 0.55406
v -0.12100 -0.04691 1.03741
v -0.12100 -0.02912 1.12117
v -0.12100 -0.02603 0.94594
v -0.12100 -0.02603 0.80406
v -0.12100 -0.02603 1.05406
v -0.12100 0.00000 0.69000
v -0.12100 0.00000 0.56000
v -0.12100 0.00000 0.94000
v -0.12100 0.00000 1.06000
v -0.12100 0.00000 0.81000
v -0.12100 -0.00000 1.12500
v -0.12100 -0.11250 1.01250
v 0.12100 -0.11250 1.01250
v -0.12100 -0.10867 1.04162
v 0.12100 -0.10867 1.04162
v 0.12100 -0.09743 1.06875
v -0.12100 -0.09743 1.06875
v 0.12100 -0.07955 1.09205
v -0.12100 -0.07955 1.09205
v 0.12100 -0.05625 1.10993
v -0.12100 -0.05625 1.10993
v 0.12100 -0.02912 1.12117
v -0.12100 -0.02912 1.12117
v 0.12100 -0.00000 1.12500
v -0.12100 -0.00000 1.12500
v -0.12100 0.02912 -1.12117
v -0.12100 0.02603 -0.80406
v -0.12100 0.02603 -1.05406
v -0.12100 0.02603 -0.94594
v -0.12100 0.02603 -0.55406
v -0.12100 0.02603 -0.69594
v -0.12100 0.04691 -1.03741
v -0.12100 0.04691 -0.78741
v -0.12100 0.04691 -0.96259
v -0.12100 0.05625 -1.10993
v -0.12100 0.05850 -1.01335
v -0.12100 0.05850 -0.76335
v -0.12100 0.05850 -0.98665
v -0.12100 0.04691 -0.53741
v -0.12100 0.04691 -0.71259
v -0.12100 0.05850 -0.51335
v -0.12100 0.05850 -0.73665
v -0.12100 0.02603 -0.30406
v -0.12100 0.02603 -0.44594
v -0.12100 0.02603 -0.05406
v -0.12100 0.02603 -0.19594
v -0.12100 0.04691 -0.28741
v -0.12100 0.04691 -0.46259
v -0.12100 0.05850 -0.26335
v -0.12100 0.05850 -0.48665
v -0.12100 0.04691 -0.03741
v -0.12100 0.04691 -0.21259
v -0.12100 0.05850 -0.01335
v -0.12100 0.05850 -0.23665
v -0.12100 0.07955 -1.09205
v -0.12100 0.09743 -1.06875
v -0.12100 0.05850 0.01335
v -0.12100 0.05850 0.23665
v -0.12100 0.05850 0.26335
v -0.12100 0.05850 0.48665
v -0.12100 0.05850 0.51335
v -0.12100 0.05850 1.01335
v -0.12100 0.10867 -1.04162
v -0.12100 0.07955 1.09205
v -0.12100 0.11250 -1.01250
v -0.12100 0.02912 -1.12117
v 0.12100 -0.00000 -1.12500
v -0.12100 0.05625 -1.10993
v 0.12100 0.02912 -1.12117
v -0.12100 0.07955 -1.09205
v 0.12100 0.05625 -1.10993
v -0.12100 0.09743 -1.06875
v 0.12100 0.07955 -1.09205
v -0.12100 0.10867 -1.04162
v 0.12100 0.09743 -1.06875
v -0.12100 0.11250 -1.01250
v 0.12100 0.10867 -1.04162
v -0.12100 0.11250 1.01250
v 0.12100 0.11250 -1.01250
v -0.12100 0.02603 0.19594
v -0.12100 0.02603 0.05406
v -0.12100 0.02603 0.44594
v -0.12100 0.02603 0.30406
v -0.12100 0.04691 0.21259
v -0.12100 0.04691 0.03741
v -0.12100 0.04691 0.46259
v -0.12100 0.04691 0.28741
v -0.12100 0.02603 0.69594
v -0.12100 0.02603 0.55406
v -0.12100 0.02603 0.94594
v -0.12100 0.02912 1.12117
v -0.12100 0.02603 0.80406
v -0.12100 0.02603 1.05406
v -0.12100 0.04691 0.71259
v -0.12100 0.04691 0.53741
v -0.12100 0.05850 0.73665
v -0.12100 0.04691 0.96259
v -0.12100 0.04691 0.78741
v -0.12100 0.05625 1.10993
v -0.12100 0.05850 0.98665
v -0.12100 0.05850 0.76335
v -0.12100 0.04691 1.03741
v -0.12100 0.09743 1.06875
v -0.12100 0.11250 1.01250
v -0.12100 0.10867 1.04162
v 0.12100 0.02912 1.12117
v -0.12100 0.02912 1.12117
v 0.12100 0.05625 1.10993
v -0.12100 0.05625 1.10993
v 0.12100 0.07955 1.09205
v -0.12100 0.07955 1.09205
v 0.12100 0.09743 1.06875
v -0.12100 0.09743 1.06875
v 0.12100 0.10867 1.04162
v -0.12100 0.10867 1.04162
v 0.12100 0.11250 1.01250
v 0.12100 -0.11250 -1.01250
v 0.12100 -0.10867 -1.04162
v 0.12100 -0.09743 -1.06875
v 0.12100 -0.11250 1.01250
v 0.12100 -0.07955 -1.09205
v 0.12100 -0.10867 1.04162
v 0.12100 -0.05625 -1.10993
v 0.12100 -0.05850 -1.01335
v 0.12100 -0.05850 -0.98665
v 0.12100 -0.09743 1.06875
v 0.12100 -0.05850 -0.76335
v 0.12100 -0.05850 -0.73665
v 0.12100 -0.05850 -0.51335
v 0.12100 -0.04691 -1.03741
v 0.12100 -0.02912 -1.12117
v 0.12100 -0.04691 -0.96259
v 0.12100 -0.02603 -1.05406
v 0.12100 -0.02603 -0.94594
v 0.12100 -0.04691 -0.78741
v 0.12100 -0.02603 -0.80406
v 0.12100 -0.04691 -0.71259
v 0.12100 -0.02603 -0.69594
v 0.12100 -0.04691 -0.53741
v 0.12100 -0.02603 -0.55406
v 0.12100 -0.00000 -1.12500
v 0.12100 0.00000 -0.94000
v 0.12100 0.00000 -1.06000
v 0.12100 0.00000 -0.81000
v 0.12100 0.00000 -0.69000
v 0.12100 0.00000 -0.56000
v 0.12100 -0.04691 -0.46259
v 0.12100 -0.05850 -0.26335
v 0.12100 -0.05850 -0.48665
v 0.12100 -0.02603 -0.44594
v 0.12100 -0.04691 -0.28741
v 0.12100 -0.05850 -0.23665
v 0.12100 -0.04691 -0.21259
v 0.12100 -0.05850 -0.01335
v 0.12100 -0.04691 -0.03741
v 0.12100 -0.02603 -0.19594
v 0.12100 0.00000 -0.44000
v 0.12100 -0.02603 -0.30406
v 0.12100 0.02603 -0.44594
v 0.12100 0.00000 -0.31000
v 0.12100 0.00000 -0.19000
v 0.12100 -0.02603 -0.05406
v 0.12100 0.00000 -0.06000
v 0.12100 -0.05850 0.01335
v 0.12100 -0.07955 1.09205
v 0.12100 -0.05850 0.23665
v 0.12100 -0.05850 0.26335
v 0.12100 -0.05850 0.48665
v 0.12100 -0.05850 0.51335
v 0.12100 -0.05850 0.73665
v 0.12100 -0.05850 0.76335
v 0.12100 -0.05850 0.98665
v 0.12100 -0.05850 1.01335
v 0.12100 -0.04691 1.03741
v 0.12100 -0.05625 1.10993
v 0.12100 -0.04691 0.03741
v 0.12100 -0.02603 0.05406
v 0.12100 -0.04691 0.21259
v 0.12100 -0.02603 0.19594
v 0.12100 -0.04691 0.28741
v 0.12100 -0.04691 0.46259
v 0.12100 -0.02603 0.30406
v 0.12100 0.00000 0.06000
v 0.12100 0.00000 0.19000
v 0.12100 0.00000 0.31000
v 0.12100 -0.02603 0.44594
v 0.12100 0.02603 0.30406
v 0.12100 0.00000 0.44000
v 0.12100 -0.04691 0.53741
v 0.12100 -0.04691 0.71259
v 0.12100 -0.02603 0.55406
v 0.12100 -0.02603 0.69594
v 0.12100 -0.04691 0.78741
v 0.12100 -0.02603 0.80406
v 0.12100 -0.04691 0.96259
v 0.12100 -0.02603 1.05406
v 0.12100 -0.02603 0.94594
v 0.12100 -0.02912 1.12117
v 0.12100 0.00000 0.56000
v 0.12100 0.00000 0.69000
v 0.12100 0.00000 0.81000
v 0.12100 0.00000 1.06000
v 0.12100 0.00000 0.94000
v 0.12100 -0.00000 1.12500
v 0.12100 0.02912 -1.12117
v 0.12100 0.02603 -0.94594
v 0.12100 0.02603 -1.05406
v 0.12100 0.02603 -0.80406
v 0.12100 0.02603 -0.69594
v 0.12100 0.02603 -0.55406
v 0.12100 0.05625 -1.10993
v 0.12100 0.04691 -0.96259
v 0.12100 0.04691 -1.03741
v 0.12100 0.05850 -0.98665
v 0.12100 0.04691 -0.78741
v 0.12100 0.05850 -0.76335
v 0.12100 0.04691 -0.71259
v 0.12100 0.04691 -0.53741
v 0.12100 0.05850 -0.73665
v 0.12100 0.05850 -0.51335
v 0.12100 0.04691 -0.46259
v 0.12100 0.02603 -0.30406
v 0.12100 0.02603 -0.19594
v 0.12100 0.02603 -0.05406
v 0.12100 0.04691 -0.28741
v 0.12100 0.05850 -0.48665
v 0.12100 0.05850 -0.26335
v 0.12100 0.04691 -0.21259
v 0.12100 0.05850 -0.23665
v 0.12100 0.04691 -0.03741
v 0.12100 0.05850 -0.01335
v 0.12100 0.07955 -1.09205
v 0.12100 0.05850 -1.01335
v 0.12100 0.09743 -1.06875
v 0.12100 0.05850 0.01335
v 0.12100 0.05850 0.23665
v 0.12100 0.05850 0.26335
v 0.12100 0.05850 0.48665
v 0.12100 0.05850 0.51335
v 0.12100 0.10867 -1.04162
v 0.12100 0.05850 0.98665
v 0.12100 0.07955 1.09205
v 0.12100 0.11250 -1.01250
v 0.12100 0.02603 0.05406
v 0.12100 0.04691 0.03741
v 0.12100 0.02603 0.19594
v 0.12100 0.04691 0.28741
v 0.12100 0.02603 0.44594
v 0.12100 0.04691 0.21259
v 0.12100 0.04691 0.46259
v 0.12100 0.02603 0.55406
v 0.12100 0.02603 0.69594
v 0.12100 0.02603 0.80406
v 0.12100 0.02603 1.05406
v 0.12100 0.02603 0.94594
v 0.12100 0.02912 1.12117
v 0.12100 0.04691 0.53741
v 0.12100 0.04691 0.71259
v 0.12100 0.05850 0.73665
v 0.12100 0.05850 0.76335
v 0.12100 0.04691 0.96259
v 0.12100 0.04691 0.78741
v 0.12100 0.04691 1.03741
v 0.12100 0.05625 1.10993
v 0.12100 0.05850 1.01335
v 0.12100 0.09743 1.06875
v 0.12100 0.11250 1.01250
v 0.12100 0.10867 1.04162
v -0.12100 -0.05850 -1.01335
v -0.12100 -0.05850 -0.98665
v 0.12100 -0.05850 -0.98665
v -0.12100 -0.04691 -1.03741
v 0.12100 -0.05850 -1.01335
v -0.12100 -0.04691 -0.96259
v 0.12100 -0.04691 -0.96259
v -0.12100 -0.02603 -1.05406
v 0.12100 -0.04691 -1.03741
v -0.12100 -0.02603 -0.94594
v 0.12100 -0.02603 -0.94594
v -0.12100 0.00000 -1.06000
v 0.12100 -0.02603 -1.05406
v -0.12100 0.00000 -0.94000
v 0.12100 0.00000 -0.94000
v -0.12100 0.02603 -1.05406
v 0.12100 0.00000 -1.06000
v -0.12100 0.02603 -0.94594
v 0.12100 0.02603 -0.94594
v -0.12100 0.04691 -1.03741
v 0.12100 0.02603 -1.05406
v -0.12100 0.04691 -0.96259
v 0.12100 0.04691 -0.96259
v -0.12100 0.05850 -1.01335
v 0.12100 0.04691 -1.03741
v -0.12100 0.05850 -0.98665
v 0.12100 0.05850 -0.98665
v 0.12100 0.05850 -1.01335
v -0.12100 -0.05850 -0.76335
v -0.12100 -0.05850 -0.73665
v 0.12100 -0.05850 -0.73665
v -0.12100 -0.04691 -0.78741
v 0.12100 -0.05850 -0.76335
v -0.12100 -0.04691 -0.71259
v 0.12100 -0.04691 -0.71259
v -0.12100 -0.02603 -0.80406
v 0.12100 -0.04691 -0.78741
v -0.12100 -0.02603 -0.69594
v 0.12100 -0.02603 -0.69594
v -0.12100 0.00000 -0.81000
v 0.12100 -0.02603 -0.80406
v -0.12100 0.00000 -0.69000
v 0.12100 0.00000 -0.69000
v -0.12100 0.02603 -0.80406
v 0.12100 0.00000 -0.81000
v -0.12100 0.02603 -0.69594
v 0.12100 0.02603 -0.69594
v -0.12100 0.04691 -0.78741
v 0.12100 0.02603 -0.80406
v -0.12100 0.04691 -0.71259
v 0.12100 0.04691 -0.71259
v -0.12100 0.05850 -0.76335
v 0.12100 0.04691 -0.78741
v -0.12100 0.05850 -0.73665
v 0.12100 0.05850 -0.73665
v 0.12100 0.05850 -0.76335
v -0.12100 -0.05850 -0.51335
v -0.12100 -0.05850 -0.48665
v 0.12100 -0.05850 -0.48665
v -0.12100 -0.04691 -0.53741
v 0.12100 -0.05850 -0.51335
v -0.12100 -0.04691 -0.46259
v 0.12100 -0.04691 -0.46259
v -0.12100 -0.02603 -0.55406
v 0.12100 -0.04691 -0.53741
v -0.12100 -0.02603 -0.44594
v 0.12100 -0.02603 -0.44594
v -0.12100 0.00000 -0.56000
v 0.12100 -0.02603 -0.55406
v -0.12100 0.00000 -0.44000
v 0.12100 0.00000 -0.44000
v -0.12100 0.02603 -0.55406
v 0.12100 0.00000 -0.56000
v -0.12100 0.02603 -0.44594
v 0.12100 0.02603 -0.44594
v -0.12100 0.04691 -0.53741
v 0.12100 0.02603 -0.55406
v -0.12100 0.04691 -0.46259
v 0.12100 0.04691 -0.46259
v -0.12100 0.05850 -0.51335
v 0.12100 0.04691 -0.53741
v -0.12100 0.05850 -0.48665
v 0.12100 0.05850 -0.48665
v 0.12100 0.05850 -0.51335
v -0.12100 -0.05850 -0.26335
v -0.12100 -0.05850 -0.23665
v 0.12100 -0.05850 -0.23665
v -0.12100 -0.02603 -0.30406
v -0.12100 -0.04691 -0.28741
v 0.12100 -0.04691 -0.28741
v 0.12100 -0.05850 -0.26335
v -0.12100 -0.04691 -0.21259
v 0.12100 -0.04691 -0.21259
v -0.12100 -0.02603 -0.19594
v 0.12100 -0.02603 -0.19594
v -0.12100 0.00000 -0.31000
v 0.12100 -0.02603 -0.30406
v -0.12100 0.00000 -0.19000
v 0.12100 0.00000 -0.19000
v -0.12100 0.02603 -0.30406
v 0.12100 0.00000 -0.31000
v -0.12100 0.02603 -0.19594
v 0.12100 0.02603 -0.19594
v -0.12100 0.04691 -0.28741
v 0.12100 0.02603 -0.30406
v -0.12100 0.04691 -0.21259
v 0.12100 0.04691 -0.21259
v -0.12100 0.05850 -0.26335
v 0.12100 0.04691 -0.28741
v -0.12100 0.05850 -0.23665
v 0.12100 0.05850 -0.23665
v 0.12100 0.05850 -0.26335
v -0.12100 -0.04691 -0.03741
v -0.12100 -0.05850 -0.01335
v 0.12100 -0.05850 -0.01335
v -0.12100 -0.02603 -0.05406
v 0.12100 -0.04691 -0.03741
v -0.12100 0.00000 -0.06000
v 0.12100 -0.02603 -0.05406
v -0.12100 -0.05850 0.01335
v 0.12100 -0.05850 0.01335
v -0.12100 -0.04691 0.03741
v 0.12100 -0.04691 0.03741
v -0.12100 -0.02603 0.05406
v 0.12100 -0.02603 0.05406
v -0.12100 0.00000 0.06000
v 0.12100 0.00000 0.06000
v -0.12100 0.02603 -0.05406
v 0.12100 0.00000 -0.06000
v -0.12100 0.04691 -0.03741
v 0.12100 0.02603 -0.05406
v -0.12100 0.05850 -0.01335
v 0.12100 0.04691 -0.03741
v -0.12100 0.05850 0.01335
v 0.12100 0.05850 -0.01335
v -0.12100 0.02603 0.05406
v 0.12100 0.02603 0.05406
v -0.12100 0.04691 0.03741
v 0.12100 0.04691 0.03741
v 0.12100 0.05850 0.01335
v -0.12100 -0.05850 0.23665
v -0.12100 -0.05850 0.26335
v 0.12100 -0.05850 0.26335
v -0.12100 -0.04691 0.21259
v 0.12100 -0.05850 0.23665
v -0.12100 -0.04691 0.28741
v 0.12100 -0.04691 0.28741
v -0.12100 -0.02603 0.19594
v 0.12100 -0.04691 0.21259
v -0.12100 -0.02603 0.30406
v 0.12100 -0.02603 0.30406
v -0.12100 0.00000 0.19000
v 0.12100 -0.02603 0.19594
v -0.12100 0.00000 0.31000
v 0.12100 0.00000 0.31000
v -0.12100 0.02603 0.19594
v 0.12100 0.00000 0.19000
v -0.12100 0.02603 0.30406
v 0.12100 0.02603 0.30406
v -0.12100 0.04691 0.21259
v 0.12100 0.02603 0.19594
v -0.12100 0.05850 0.23665
v 0.12100 0.04691 0.21259
v -0.12100 0.04691 0.28741
v -0.12100 0.05850 0.26335
v 0.12100 0.05850 0.26335
v 0.12100 0.04691 0.28741
v 0.12100 0.05850 0.23665
v -0.12100 -0.05850 0.48665
v -0.12100 -0.05850 0.51335
v 0.12100 -0.05850 0.51335
v -0.12100 -0.04691 0.46259
v 0.12100 -0.05850 0.48665
v -0.12100 -0.04691 0.53741
v 0.12100 -0.04691 0.53741
v -0.12100 -0.02603 0.44594
v 0.12100 -0.04691 0.46259
v -0.12100 -0.02603 0.55406
v 0.12100 -0.02603 0.55406
v -0.12100 0.00000 0.44000
v 0.12100 -0.02603 0.44594
v -0.12100 0.00000 0.56000
v 0.12100 0.00000 0.56000
v -0.12100 0.02603 0.44594
v 0.12100 0.00000 0.44000
v -0.12100 0.02603 0.55406
v 0.12100 0.02603 0.55406
v -0.12100 0.04691 0.46259
v 0.12100 0.02603 0.44594
v -0.12100 0.04691 0.53741
v 0.12100 0.04691 0.53741
v -0.12100 0.05850 0.48665
v 0.12100 0.04691 0.46259
v -0.12100 0.05850 0.51335
v 0.12100 0.05850 0.51335
v 0.12100 0.05850 0.48665
v -0.12100 -0.05850 0.73665
v -0.12100 -0.05850 0.76335
v 0.12100 -0.05850 0.76335
v -0.12100 -0.04691 0.71259
v 0.12100 -0.05850 0.73665
v -0.12100 -0.04691 0.78741
v 0.12100 -0.04691 0.78741
v -0.12100 -0.02603 0.69594
v 0.12100 -0.04691 0.71259
v -0.12100 -0.02603 0.80406
v 0.12100 -0.02603 0.80406
v -0.12100 0.00000 0.69000
v 0.12100 -0.02603 0.69594
v -0.12100 0.00000 0.81000
v 0.12100 0.00000 0.81000
v -0.12100 0.02603 0.69594
v 0.12100 0.00000 0.69000
v -0.12100 0.02603 0.80406
v 0.12100 0.02603 0.80406
v -0.12100 0.04691 0.71259
v 0.12100 0.02603 0.69594
v -0.12100 0.04691 0.78741
v 0.12100 0.04691 0.78741
v -0.12100 0.05850 0.73665
v 0.12100 0.04691 0.71259
v -0.12100 0.05850 0.76335
v 0.12100 0.05850 0.76335
v 0.12100 0.05850 0.73665
v -0.12100 -0.05850 0.98665
v -0.12100 -0.05850 1.01335
v 0.12100 -0.05850 1.01335
v -0.12100 -0.04691 0.96259
v 0.12100 -0.05850 0.98665
v -0.12100 -0.04691 1.03741
v 0.12100 -0.04691 1.03741
v -0.12100 -0.02603 0.94594
v 0.12100 -0.04691 0.96259
v -0.12100 -0.02603 1.05406
v 0.12100 -0.02603 1.05406
v -0.12100 0.00000 0.94000
v 0.12100 -0.02603 0.94594
v -0.12100 0.00000 1.06000
v 0.12100 0.00000 1.06000
v -0.12100 0.02603 0.94594
v 0.12100 0.00000 0.94000
v -0.12100 0.02603 1.05406
v 0.12100 0.02603 1.05406
v -0.12100 0.04691 0.96259
v 0.12100 0.02603 0.94594
v -0.12100 0.04691 1.03741
v 0.12100 0.04691 1.03741
v -0.12100 0.05850 0.98665
v 0.12100 0.04691 0.96259
v -0.12100 0.05850 1.01335
v 0.12100 0.05850 1.01335
v 0.12100 0.05850 0.98665
vn -1.0000 0.0000 0.0000
vn -1.0000 0.0000 0.0000
vn -1.0000 0.0000 0.0000
vn -1.0000 0.0000 0.0000
vn -1.0000 0.0000 0.0000
vn -1.0000 0.0000 0.0000
vn -1.0000 0.0000 0.0000
vn -1.0000 0.0000 0.0000
vn -1.0000 0.0000 0.0000
vn -1.0000 0.0000 0.0000
vn -1.0000 0.0000 0.0000
vn -1.0000 0.0000 0.0000
vn -1.0000 0.0000 0.0000
vn -1.0000 0.0000 0.0000
vn -1.0000 0.0000 0.0000
vn -1.0000 0.0000 0.0000
vn -1.0000 0.0000 0.0000
vn -1.0000 0.0000 0.0000
vn -1.0000 0.0000 0.0000
vn -1.0000 0.0000 0.0000
vn -1.0000 0.0000 0.0000
vn -1.0000 0.0000 0.0000
vn -1.0000 0.0000 0.0000
vn -1.0000 0.0000 0.0000
vn -1.0000 0.0000 0.0000
vn -1.0000 0.0000 0.0000
vn -1.0000 0.0000 0.0000
vn -1.0000 0.0000 0.0000
vn -1.0000 0.0000 0.0000
vn -1.0000 0.0000 0.0000
vn -1.0000 0.0000 0.0000
vn -1.0000 0.0000 0.0000
vn -1.0000 0.0000 0.0000
vn -1.0000 0.0000 0.0000
vn -1.0000 0.0000 0.0000
vn -1.0000 0.0000 0.0000
vn -1.0000 0.0000 0.0000
vn -1.0000 0.0000 0.0000
vn -1.0000 0.0000 0.0000
vn -1.0000 0.0000 0.0000
vn -1.0000 0.0000 0.0000
vn -1.0000 0.0000 0.0000
vn -1.0000 0.0000 0.0000
vn -1.0000 0.0000 0.0000
vn -1.0000 0.0000 0.0000
vn -1.0000 0.0000 0.0000
vn 0.0000 -0.9979 -0.0654
vn 0.0000 -0.9659 -0.2588
vn 0.0000 -0.9979 -0.0654
vn -0.0000 -0.8660 -0.5000
vn -0.0000 -0.9659 -0.2588
vn 0.0000 -0.7071 -0.7071
vn 0.0000 -0.8660 -0.5000
vn 0.0000 -0.5000 -0.8660
vn 0.0000 -0.7071 -0.7071
vn 0.0000 -0.2588 -0.9659
vn 0.0000 -0.5000 -0.8660
vn 0.0000 -0.0000 -1.0000
vn 0.0000 -0.2588 -0.9659
vn -1.0000 0.0000 0.0000
vn -1.0000 0.0000 0.0000
vn -1.0000 0.0000 0.0000
vn -1.0000 0.0000 0.0000
vn -1.0000 0.0000 0.0000
vn -1.0000 0.0000 0.0000
vn -1.0000 0.0000 0.0000
vn -1.0000 0.0000 0.0000
vn -1.0000 0.0000 0.0000
vn -1.0000 0.0000 0.0000
vn -1.0000 0.0000 0.0000
vn -1.0000 0.0000 0.0000
vn -1.0000 0.0000 0.0000
vn -1.0000 0.0000 0.0000
vn -1.0000 0.0000 0.0000
vn -1.0000 0.0000 0.0000
vn -1.0000 0.0000 0.0000
vn -1.0000 0.0000 0.0000
vn -1.0000 0.0000 0.0000
vn -1.0000 0.0000 0.0000
vn -1.0000 0.0000 0.0000
vn -1.0000 0.0000 0.0000
vn -1.0000 0.0000 0.0000
vn -1.0000 0.0000 0.0000
vn -1.0000 0.0000 0.0000
vn -1.0000 0.0000 0.0000
vn -1.0000 0.0000 0.0000
vn -1.0000 0.0000 0.0000
vn -1.0000 0.0000 0.0000
vn -1.0000 0.0000 0.0000
vn -1.0000 0.0000 0.0000
vn -1.0000 0.0000 0.0000
vn -1.0000 0.0000 0.0000
vn -1.0000 0.0000 0.0000
vn -1.0000 0.0000 0.0000
vn -1.0000 0.0000 0.0000
vn -1.0000 0.0000 0.0000
vn -1.0000 0.0000 0.0000
vn -1.0000 0.0000 0.0000
vn -1.0000 0.0000 0.0000
vn 0.0000 -0.9979 0.0654
vn 0.0000 -0.9979 0.0654
vn 0.0000 -0.9659 0.2588
vn 0.0000 -0.9659 0.2588
vn 0.0000 -0.8660 0.5000
vn 0.0000 -0.8660 0.5000
vn 0.0000 -0.7071 0.7071
vn 0.0000 -0.7071 0.7071
vn 0.0000 -0.5000 0.8660
vn -0.0000 -0.5000 0.8660
vn -0.0000 -0.2588 0.9659
vn 0.0000 -0.2588 0.9659
vn 0.0000 -0.0000 1.0000
vn -0.0000 -0.0000 1.0000
vn -1.0000 0.0000 0.0000
vn -1.0000 0.0000 0.0000
vn -1.0000 0.0000 0.0000
vn -1.0000 0.0000 0.0000
vn -1.0000 0.0000 0.0000
vn -1.0000 0.0000 0.0000
vn -1.0000 0.0000 0.0000
vn -1.0000 0.0000 0.0000
vn -1.0000 0.0000 0.0000
vn -1.0000 0.0000 0.0000
vn -1.0000 0.0000 0.0000
vn -1.0000 0.0000 0.0000
vn -1.0000 0.0000 0.0000
vn -1.0000 0.0000 0.0000
vn -1.0000 0.0000 0.0000
vn -1.0000 0.0000 0.0000
vn -1.0000 0.0000 0.0000
vn -1.0000 0.0000 0.0000
vn -1.0000 0.0000 0.0000
vn -1.0000 0.0000 0.0000
vn -1.0000 0.0000 0.0000
vn -1.0000 0.0000 0.0000
vn -1.0000 0.0000 0.0000
vn -1.0000 0.0000 0.0000
vn -1.0000 0.0000 0.0000
vn -1.0000 0.0000 0.0000
vn -1.0000 0.0000 0.0000
vn -1.0000 0.0000 0.0000
vn -1.0000 0.0000 0.0000
vn -1.0000 0.0000 0.0000
vn -1.0000 0.0000 0.0000
vn -1.0000 0.0000 0.0000
vn -1.0000 0.0000 0.0000
vn -1.0000 0.0000 0.0000
vn -1.0000 0.0000 0.0000
vn -1.0000 0.0000 0.0000
vn -1.0000 0.0000 0.0000
vn -1.0000 0.0000 0.0000
vn -1.0000 0.0000 0.0000
vn -1.0000 0.0000 0.0000
vn 0.0000 0.2588 -0.9659
vn 0.0000 -0.0000 -1.0000
vn -0.0000 0.5000 -0.8660
vn -0.0000 0.2588 -0.9659
vn 0.0000 0.7071 -0.7071
vn 0.0000 0.5000 -0.8660
vn 0.0000 0.8660 -0.5000
vn 0.0000 0.7071 -0.7071
vn 0.0000 0.9659 -0.2588
vn 0.0000 0.8660 -0.5000
vn 0.0000 0.9979 -0.0654
vn 0.0000 0.9659 -0.2588
vn 0.0000 0.9979 0.0654
vn 0.0000 0.9979 -0.0654
vn -1.0000 0.0000 0.0000
vn -1.0000 0.0000 0.0000
vn -1.0000 0.0000 0.0000
vn -1.0000 0.0000 0.0000
vn -1.0000 0.0000 0.0000
vn -1.0000 0.0000 0.0000
vn -1.0000 0.0000 0.0000
vn -1.0000 0.0000 0.0000
vn -1.0000 0.0000 0.0000
vn -1.0000 0.0000 0.0000
vn -1.0000 0.0000 0.0000
vn -1.0000 0.0000 0.0000
vn -1.0000 0.0000 0.0000
vn -1.0000 0.0000 0.0000
vn -1.0000 0.0000 0.0000
vn -1.0000 0.0000 0.0000
vn -1.0000 0.0000 0.0000
vn -1.0000 0.0000 0.0000
vn -1.0000 0.0000 0.0000
vn -1.0000 0.0000 0.0000
vn -1.0000 0.0000 0.0000
vn -1.0000 0.0000 0.0000
vn -1.0000 0.0000 0.0000
vn -1.0000 0.0000 0.0000
vn -1.0000 0.0000 0.0000
vn -1.0000 0.0000 0.0000
vn -0.0000 0.2588 0.9659
vn 0.0000 0.2588 0.9659
vn 0.0000 0.5000 0.8660
vn 0.0000 0.5000 0.8660
vn 0.0000 0.7071 0.7071
vn 0.0000 0.7071 0.7071
vn 0.0000 0.8660 0.5000
vn -0.0000 0.8660 0.5000
vn -0.0000 0.9659 0.2588
vn 0.0000 0.9659 0.2588
vn 0.0000 0.9979 0.0654
vn 1.0000 0.0000 0.0000
vn 1.0000 0.0000 0.0000
vn 1.0000 0.0000 0.0000
vn 1.0000 0.0000 0.0000
vn 1.0000 0.0000 0.0000
vn 1.0000 0.0000 0.0000
vn 1.0000 0.0000 0.0000
vn 1.0000 0.0000 0.0000
vn 1.0000 0.0000 0.0000
vn 1.0000 0.0000 0.0000
vn 1.0000 0.0000 0.0000
vn 1.0000 0.0000 0.0000
vn 1.0000 0.0000 0.0000
vn 1.0000 0.0000 0.0000
vn 1.0000 0.0000 0.0000
vn 1.0000 0.0000 0.0000
vn 1.0000 0.0000 0.0000
vn 1.0000 0.0000 0.0000
vn 1.0000 0.0000 0.0000
vn 1.0000 0.0000 0.0000
vn 1.0000 0.0000 0.0000
vn 1.0000 0.0000 0.0000
vn 1.0000 0.0000 0.0000
vn 1.0000 0.0000 0.0000
vn 1.0000 0.0000 0.0000
vn 1.0000 0.0000 0.0000
vn 1.0000 0.0000 0.0000
vn 1.0000 0.0000 0.0000
vn 1.0000 0.0000 0.0000
vn 1.0000 0.0000 0.0000
vn 1.0000 0.0000 0.0000
vn 1.0000 0.0000 0.0000
vn 1.0000 0.0000 0.0000
vn 1.0000 0.0000 0.0000
vn 1.0000 0.0000 0.0000
vn 1.0000 0.0000 0.0000
vn 1.0000 0.0000 0.0000
vn 1.0000 0.0000 0.0000
vn 1.0000 0.0000 0.0000
vn 1.0000 0.0000 0.0000
vn 1.0000 0.0000 0.0000
vn 1.0000 0.0000 0.0000
vn 1.0000 0.0000 0.0000
vn 1.0000 0.0000 0.0000
vn 1.0000 0.0000 0.0000
vn 1.0000 0.0000 0.0000
vn 1.0000 0.0000 0.0000
vn 1.0000 0.0000 0.0000
vn 1.0000 0.0000 0.0000
vn 1.0000 0.0000 0.0000
vn 1.0000 0.0000 0.0000
vn 1.0000 0.0000 0.0000
vn 1.0000 0.0000 0.0000
vn 1.0000 0.0000 0.0000
vn 1.0000 0.0000 0.0000
vn 1.0000 0.0000 0.0000
vn 1.0000 0.0000 0.0000
vn 1.0000 0.0000 0.0000
vn 1.0000 0.0000 0.0000
vn 1.0000 0.0000 0.0000
vn 1.0000 0.0000 0.0000
vn 1.0000 0.0000 0.0000
vn 1.0000 0.0000 0.0000
vn 1.0000 0.0000 0.0000
vn 1.0000 0.0000 0.0000
vn 1.0000 0.0000 0.0000
vn 1.0000 0.0000 0.0000
vn 1.0000 0.0000 0.0000
vn 1.0000 0.0000 0.0000
vn 1.0000 0.0000 0.0000
vn 1.0000 0.0000 0.0000
vn 1.0000 0.0000 0.0000
vn 1.0000 0.0000 0.0000
vn 1.0000 0.0000 0.0000
vn 1.0000 0.0000 0.0000
vn 1.0000 0.0000 0.0000
vn 1.0000 0.0000 0.0000
vn 1.0000 0.0000 0.0000
vn 1.0000 0.0000 0.0000
vn 1.0000 0.0000 0.0000
vn 1.0000 0.0000 0.0000
vn 1.0000 0.0000 0.0000
vn 1.0000 0.0000 0.0000
vn 1.0000 0.0000 0.0000
vn 1.0000 0.0000 0.0000
vn 1.0000 0.0000 0.0000
vn 1.0000 0.0000 0.0000
vn 1.0000 0.0000 0.0000
vn 1.0000 0.0000 0.0000
vn 1.0000 0.0000 0.0000
vn 1.0000 0.0000 0.0000
vn 1.0000 0.0000 0.0000
vn 1.0000 0.0000 0.0000
vn 1.0000 0.0000 0.0000
vn 1.0000 0.0000 0.0000
vn 1.0000 0.0000 0.0000
vn 1.0000 0.0000 0.0000
vn 1.0000 0.0000 0.0000
vn 1.0000 0.0000 0.0000
vn 1.0000 0.0000 0.0000
vn 1.0000 0.0000 0.0000
vn 1.0000 0.0000 0.0000
vn 1.0000 0.0000 0.0000
vn 1.0000 0.0000 0.0000
vn 1.0000 0.0000 0.0000
vn 1.0000 0.0000 0.0000
vn 1.0000 0.0000 0.0000
vn 1.0000 0.0000 0.0000
vn 1.0000 0.0000 0.0000
vn 1.0000 0.0000 0.0000
vn 1.0000 0.0000 0.0000
vn 1.0000 0.0000 0.0000
vn 1.0000 0.0000 0.0000
vn 1.0000 0.0000 0.0000
vn 1.0000 0.0000 0.0000
vn 1.0000 0.0000 0.0000
vn 1.0000 0.0000 0.0000
vn 1.0000 0.0000 0.0000
vn 1.0000 0.0000 0.0000
vn 1.0000 0.0000 0.0000
vn 1.0000 0.0000 0.0000
vn 1.0000 0.0000 0.0000
vn 1.0000 0.0000 0.0000
vn 1.0000 0.0000 0.0000
vn 1.0000 0.0000 0.0000
vn 1.0000 0.0000 0.0000
vn 1.0000 0.0000 0.0000
vn 1.0000 0.0000 0.0000
vn 1.0000 0.0000 0.0000
vn 1.0000 0.0000 0.0000
vn 1.0000 0.0000 0.0000
vn 1.0000 0.0000 0.0000
vn 1.0000 0.0000 0.0000
vn 1.0000 0.0000 0.0000
vn 1.0000 0.0000 0.0000
vn 1.0000 0.0000 0.0000
vn 1.0000 0.0000 0.0000
vn 1.0000 0.0000 0.0000
vn 1.0000 0.0000 0.0000
vn 1.0000 0.0000 0.0000
vn 1.0000 0.0000 0.0000
vn 1.0000 0.0000 0.0000
vn 1.0000 0.0000 0.0000
vn 1.0000 0.0000 0.0000
vn 1.0000 0.0000 0.0000
vn 1.0000 0.0000 0.0000
vn 1.0000 0.0000 0.0000
vn 1.0000 0.0000 0.0000
vn 1.0000 0.0000 0.0000
vn 1.0000 0.0000 0.0000
vn 1.0000 0.0000 0.0000
vn 1.0000 0.0000 0.0000
vn 0.0000 0.9749 0.2225
vn -0.0000 0.9749 -0.2225
vn 0.0000 0.9749 -0.2225
vn 0.0000 0.7818 0.6235
vn 0.0000 0.9749 0.2225
vn 0.0000 0.7818 -0.6235
vn -0.0000 0.7818 -0.6235
vn 0.0000 0.4339 0.9010
vn 0.0000 0.7818 0.6235
vn 0.0000 0.4339 -0.9010
vn 0.0000 0.4339 -0.9010
vn 0.0000 0.0000 1.0000
vn 0.0000 0.4339 0.9010
vn 0.0000 -0.0000 -1.0000
vn 0.0000 0.0000 -1.0000
vn 0.0000 -0.4339 0.9010
vn 0.0000 -0.0000 1.0000
vn 0.0000 -0.4339 -0.9010
vn 0.0000 -0.4339 -0.9010
vn -0.0000 -0.7818 0.6235
vn -0.0000 -0.4339 0.9010
vn 0.0000 -0.7818 -0.6235
vn 0.0000 -0.7818 -0.6235
vn 0.0000 -0.9749 0.2225
vn 0.0000 -0.7818 0.6235
vn 0.0000 -0.9749 -0.2225
vn 0.0000 -0.9749 -0.2225
vn 0.0000 -0.9749 0.2225
vn 0.0000 0.9749 0.2225
vn -0.0000 0.9749 -0.2225
vn 0.0000 0.9749 -0.2225
vn 0.0000 0.7818 0.6235
vn 0.0000 0.9749 0.2225
vn 0.0000 0.7818 -0.6235
vn -0.0000 0.7818 -0.6235
vn 0.0000 0.4339 0.9010
vn 0.0000 0.7818 0.6235
vn 0.0000 0.4339 -0.9010
vn 0.0000 0.4339 -0.9010
vn 0.0000 0.0000 1.0000
vn 0.0000 0.4339 0.9010
vn 0.0000 -0.0000 -1.0000
vn 0.0000 0.0000 -1.0000
vn 0.0000 -0.4339 0.9010
vn 0.0000 -0.0000 1.0000
vn 0.0000 -0.4339 -0.9010
vn 0.0000 -0.4339 -0.9010
vn -0.0000 -0.7818 0.6235
vn -0.0000 -0.4339 0.9010
vn 0.0000 -0.7818 -0.6235
vn 0.0000 -0.7818 -0.6235
vn 0.0000 -0.9749 0.2225
vn 0.0000 -0.7818 0.6235
vn 0.0000 -0.9749 -0.2225
vn 0.0000 -0.9749 -0.2225
vn 0.0000 -0.9749 0.2225
vn 0.0000 0.9749 0.2225
vn -0.0000 0.9749 -0.2225
vn 0.0000 0.9749 -0.2225
vn 0.0000 0.7818 0.6235
vn 0.0000 0.9749 0.2225
vn 0.0000 0.7818 -0.6235
vn -0.0000 0.7818 -0.6235
vn 0.0000 0.4339 0.9010
vn 0.0000 0.7818 0.6235
vn 0.0000 0.4339 -0.9010
vn 0.0000 0.4339 -0.9010
vn 0.0000 0.0000 1.0000
vn 0.0000 0.4339 0.9010
vn 0.0000 -0.0000 -1.0000
vn 0.0000 0.0000 -1.0000
vn 0.0000 -0.4339 0.9010
vn 0.0000 -0.0000 1.0000
vn 0.0000 -0.4339 -0.9010
vn 0.0000 -0.4339 -0.9010
vn -0.0000 -0.7818 0.6235
vn -0.0000 -0.4339 0.9010
vn 0.0000 -0.7818 -0.6235
vn 0.0000 -0.7818 -0.6235
vn 0.0000 -0.9749 0.2225
vn 0.0000 -0.7818 0.6235
vn 0.0000 -0.9749 -0.2225
vn 0.0000 -0.9749 -0.2225
vn 0.0000 -0.9749 0.2225
vn 0.0000 0.9749 0.2225
vn -0.0000 0.9749 -0.2225
vn 0.0000 0.9749 -0.2225
vn 0.0000 0.4339 0.9010
vn 0.0000 0.7818 0.6235
vn 0.0000 0.7818 0.6235
vn 0.0000 0.9749 0.2225
vn 0.0000 0.7818 -0.6235
vn -0.0000 0.7818 -0.6235
vn 0.0000 0.4339 -0.9010
vn 0.0000 0.4339 -0.9010
vn 0.0000 0.0000 1.0000
vn 0.0000 0.4339 0.9010
vn 0.0000 -0.0000 -1.0000
vn 0.0000 0.0000 -1.0000
vn 0.0000 -0.4339 0.9010
vn 0.0000 -0.0000 1.0000
vn 0.0000 -0.4339 -0.9010
vn 0.0000 -0.4339 -0.9010
vn -0.0000 -0.7818 0.6235
vn -0.0000 -0.4339 0.9010
vn 0.0000 -0.7818 -0.6235
vn 0.0000 -0.7818 -0.6235
vn 0.0000 -0.9749 0.2225
vn 0.0000 -0.7818 0.6235
vn 0.0000 -0.9749 -0.2225
vn 0.0000 -0.9749 -0.2225
vn 0.0000 -0.9749 0.2225
vn 0.0000 0.7818 0.6235
vn 0.0000 0.9749 0.2225
vn 0.0000 0.9749 0.2225
vn 0.0000 0.4339 0.9010
vn 0.0000 0.7818 0.6235
vn 0.0000 0.0000 1.0000
vn 0.0000 0.4339 0.9010
vn 0.0000 0.9749 -0.2225
vn 0.0000 0.9749 -0.2225
vn 0.0000 0.7818 -0.6235
vn 0.0000 0.7818 -0.6235
vn 0.0000 0.4339 -0.9010
vn 0.0000 0.4339 -0.9010
vn 0.0000 -0.0000 -1.0000
vn 0.0000 0.0000 -1.0000
vn 0.0000 -0.4339 0.9010
vn 0.0000 -0.0000 1.0000
vn -0.0000 -0.7818 0.6235
vn -0.0000 -0.4339 0.9010
vn 0.0000 -0.9749 0.2225
vn 0.0000 -0.7818 0.6235
vn 0.0000 -0.9749 -0.2225
vn 0.0000 -0.9749 0.2225
vn 0.0000 -0.4339 -0.9010
vn 0.0000 -0.4339 -0.9010
vn 0.0000 -0.7818 -0.6235
vn 0.0000 -0.7818 -0.6235
vn 0.0000 -0.9749 -0.2225
vn 0.0000 0.9749 0.2225
vn 0.0000 0.9749 -0.2225
vn 0.0000 0.9749 -0.2225
vn 0.0000 0.7818 0.6235
vn 0.0000 0.9749 0.2225
vn 0.0000 0.7818 -0.6235
vn 0.0000 0.7818 -0.6235
vn 0.0000 0.4339 0.9010
vn 0.0000 0.7818 0.6235
vn 0.0000 0.4339 -0.9010
vn 0.0000 0.4339 -0.9010
vn 0.0000 0.0000 1.0000
vn 0.0000 0.4339 0.9010
vn 0.0000 -0.0000 -1.0000
vn 0.0000 0.0000 -1.0000
vn 0.0000 -0.4339 0.9010
vn 0.0000 -0.0000 1.0000
vn 0.0000 -0.4339 -0.9010
vn 0.0000 -0.4339 -0.9010
vn -0.0000 -0.7818 0.6235
vn -0.0000 -0.4339 0.9010
vn 0.0000 -0.9749 0.2225
vn 0.0000 -0.7818 0.6235
vn 0.0000 -0.7818 -0.6235
vn 0.0000 -0.9749 -0.2225
vn 0.0000 -0.9749 -0.2225
vn 0.0000 -0.7818 -0.6235
vn 0.0000 -0.9749 0.2225
vn 0.0000 0.9749 0.2225
vn 0.0000 0.9749 -0.2225
vn 0.0000 0.9749 -0.2225
vn 0.0000 0.7818 0.6235
vn 0.0000 0.9749 0.2225
vn 0.0000 0.7818 -0.6235
vn 0.0000 0.7818 -0.6235
vn 0.0000 0.4339 0.9010
vn 0.0000 0.7818 0.6235
vn 0.0000 0.4339 -0.9010
vn 0.0000 0.4339 -0.9010
vn 0.0000 0.0000 1.0000
vn 0.0000 0.4339 0.9010
vn 0.0000 -0.0000 -1.0000
vn 0.0000 0.0000 -1.0000
vn 0.0000 -0.4339 0.9010
vn 0.0000 -0.0000 1.0000
vn 0.0000 -0.4339 -0.9010
vn 0.0000 -0.4339 -0.9010
vn -0.0000 -0.7818 0.6235
vn -0.0000 -0.4339 0.9010
vn 0.0000 -0.7818 -0.6235
vn 0.0000 -0.7818 -0.6235
vn 0.0000 -0.9749 0.2225
vn 0.0000 -0.7818 0.6235
vn 0.0000 -0.9749 -0.2225
vn 0.0000 -0.9749 -0.2225
vn 0.0000 -0.9749 0.2225
vn 0.0000 0.9749 0.2225
vn 0.0000 0.9749 -0.2225
vn 0.0000 0.9749 -0.2225
vn 0.0000 0.7818 0.6235
vn 0.0000 0.9749 0.2225
vn 0.0000 0.7818 -0.6235
vn 0.0000 0.7818 -0.6235
vn 0.0000 0.4339 0.9010
vn 0.0000 0.7818 0.6235
vn 0.0000 0.4339 -0.9010
vn 0.0000 0.4339 -0.9010
vn 0.0000 0.0000 1.0000
vn 0.0000 0.4339 0.9010
vn 0.0000 -0.0000 -1.0000
vn 0.0000 0.0000 -1.0000
vn 0.0000 -0.4339 0.9010
vn 0.0000 -0.0000 1.0000
vn 0.0000 -0.4339 -0.9010
vn 0.0000 -0.4339 -0.9010
vn -0.0000 -0.7818 0.6235
vn -0.0000 -0.4339 0.9010
vn 0.0000 -0.7818 -0.6235
vn 0.0000 -0.7818 -0.6235
vn 0.0000 -0.9749 0.2225
vn 0.0000 -0.7818 0.6235
vn 0.0000 -0.9749 -0.2225
vn 0.0000 -0.9749 -0.2225
vn 0.0000 -0.9749 0.2225
vn 0.0000 0.9749 0.2225
vn 0.0000 0.9749 -0.2225
vn 0.0000 0.9749 -0.2225
vn 0.0000 0.7818 0.6235
vn 0.0000 0.9749 0.2225
vn 0.0000 0.7818 -0.6235
vn 0.0000 0.7818 -0.6235
vn -0.0000 0.4339 0.9010
vn -0.0000 0.7818 0.6235
vn 0.0000 0.4339 -0.9010
vn 0.0000 0.4339 -0.9010
vn 0.0000 0.0000 1.0000
vn 0.0000 0.4339 0.9010
vn 0.0000 0.0000 -1.0000
vn 0.0000 0.0000 -1.0000
vn 0.0000 -0.4339 0.9010
vn 0.0000 0.0000 1.0000
vn 0.0000 -0.4339 -0.9010
vn 0.0000 -0.4339 -0.9010
vn 0.0000 -0.7818 0.6235
vn 0.0000 -0.4339 0.9010
vn 0.0000 -0.7818 -0.6235
vn 0.0000 -0.7818 -0.6235
vn 0.0000 -0.9749 0.2225
vn 0.0000 -0.7818 0.6235
vn 0.0000 -0.9749 -0.2225
vn 0.0000 -0.9749 -0.2225
vn 0.0000 -0.9749 0.2225
f 1//1 2//2 3//3
f 4//4 2//2 1//1
f 4//4 5//5 2//2
f 6//6 7//7 5//5
f 6//6 8//8 7//7
f 9//9 10//10 8//8
f 9//9 11//11 10//10
f 9//9 12//12 11//11
f 9//9 13//13 12//12
f 7//7 8//8 14//14
f 7//7 14//14 15//15
f 10//10 11//11 16//16
f 10//10 16//16 17//17
f 7//7 15//15 18//18
f 19//19 17//17 16//16
f 17//17 19//19 20//20
f 21//21 22//22 12//12
f 12//12 13//13 21//21
f 23//23 22//22 21//21
f 22//22 23//23 24//24
f 18//18 15//15 25//25
f 26//26 20//20 19//19
f 18//18 25//25 27//27
f 20//20 26//26 28//28
f 29//29 24//24 23//23
f 24//24 29//29 30//30
f 31//31 32//32 33//33
f 31//31 33//33 34//34
f 32//32 31//31 35//35
f 32//32 35//35 36//36
f 37//37 38//38 39//39
f 38//38 37//37 40//40
f 39//39 41//41 42//42
f 41//41 39//39 38//38
f 43//43 36//36 35//35
f 36//36 43//43 44//44
f 42//42 41//41 45//45
f 42//42 45//45 46//46
f 47//47 48//48 49//49
f 48//48 50//50 51//51
f 50//50 52//52 53//53
f 52//52 54//54 55//55
f 54//54 56//56 57//57
f 56//56 58//58 59//59
f 6//6 5//5 4//4
f 6//6 9//9 8//8
f 9//9 33//33 13//13
f 9//9 34//34 33//33
f 9//9 37//37 34//34
f 9//9 40//40 37//37
f 9//9 60//60 40//40
f 61//61 62//62 60//60
f 61//61 63//63 62//62
f 9//9 61//61 60//60
f 61//61 64//64 63//63
f 61//61 65//65 64//64
f 61//61 66//66 65//65
f 61//61 67//67 66//66
f 61//61 68//68 67//67
f 61//61 69//69 68//68
f 61//61 70//70 69//69
f 60//60 71//71 72//72
f 60//60 62//62 71//71
f 72//72 73//73 74//74
f 73//73 72//72 71//71
f 63//63 75//75 76//76
f 75//75 63//63 64//64
f 77//77 76//76 75//75
f 77//77 78//78 76//76
f 79//79 74//74 73//73
f 74//74 79//79 80//80
f 81//81 78//78 77//77
f 78//78 81//81 82//82
f 65//65 83//83 84//84
f 65//65 66//66 83//83
f 67//67 85//85 86//86
f 87//87 84//84 83//83
f 84//84 87//87 88//88
f 85//85 67//67 68//68
f 70//70 89//89 69//69
f 70//70 90//90 89//89
f 86//86 85//85 91//91
f 86//86 91//91 92//92
f 90//90 93//93 89//89
f 94//94 88//88 87//87
f 88//88 94//94 95//95
f 96//96 92//92 91//91
f 90//90 97//97 93//93
f 92//92 96//96 98//98
f 90//90 99//99 97//97
f 100//100 47//47 101//101
f 102//102 100//100 103//103
f 102//102 104//104 105//105
f 105//105 106//106 107//107
f 107//107 108//108 109//109
f 109//109 110//110 111//111
f 111//111 112//112 113//113
f 27//27 25//25 114//114
f 115//115 28//28 26//26
f 114//114 25//25 116//116
f 28//28 115//115 117//117
f 118//118 30//30 29//29
f 118//118 119//119 30//30
f 114//114 116//116 120//120
f 121//121 117//117 115//115
f 121//121 122//122 117//117
f 114//114 120//120 123//123
f 123//123 120//120 124//124
f 122//122 125//125 126//126
f 127//127 119//119 118//118
f 119//119 127//127 128//128
f 122//122 121//121 125//125
f 128//128 129//129 130//130
f 129//129 128//128 127//127
f 131//131 44//44 43//43
f 44//44 131//131 132//132
f 133//133 46//46 45//45
f 133//133 134//134 46//46
f 135//135 132//132 131//131
f 135//135 136//136 132//132
f 136//136 137//137 138//138
f 137//137 136//136 135//135
f 134//134 139//139 140//140
f 139//139 134//134 133//133
f 141//141 142//142 140//140
f 141//141 140//140 139//139
f 123//123 124//124 143//143
f 143//143 124//124 126//126
f 143//143 126//126 125//125
f 143//143 125//125 130//130
f 143//143 130//130 129//129
f 143//143 129//129 138//138
f 143//143 138//138 137//137
f 143//143 141//141 144//144
f 143//143 137//137 142//142
f 143//143 142//142 141//141
f 144//144 141//141 145//145
f 144//144 145//145 146//146
f 144//144 146//146 147//147
f 144//144 147//147 148//148
f 144//144 148//148 149//149
f 144//144 150//150 151//151
f 152//152 153//153 151//151
f 58//58 154//154 155//155
f 154//154 156//156 157//157
f 156//156 158//158 159//159
f 158//158 160//160 161//161
f 160//160 162//162 163//163
f 164//164 165//165 162//162
f 166//166 167//167 164//164
f 168//168 80//80 79//79
f 168//168 169//169 80//80
f 170//170 82//82 81//81
f 170//170 171//171 82//82
f 172//172 173//173 169//169
f 172//172 169//169 168//168
f 173//173 146//146 145//145
f 146//146 173//173 172//172
f 174//174 171//171 170//170
f 174//174 175//175 171//171
f 175//175 148//148 147//147
f 175//175 174//174 148//148
f 176//176 95//95 94//94
f 95//95 176//176 177//177
f 178//178 98//98 96//96
f 99//99 179//179 97//97
f 98//98 178//178 180//180
f 179//179 181//181 97//97
f 182//182 177//177 176//176
f 177//177 182//182 183//183
f 183//183 184//184 149//149
f 183//183 182//182 184//184
f 185//185 180//180 178//178
f 180//180 185//185 186//186
f 179//179 187//187 181//181
f 186//186 185//185 188//188
f 186//186 188//188 189//189
f 187//187 190//190 181//181
f 187//187 150//150 190//190
f 144//144 149//149 184//184
f 144//144 184//184 189//189
f 144//144 189//189 188//188
f 144//144 188//188 150//150
f 187//187 151//151 150//150
f 187//187 152//152 151//151
f 152//152 191//191 153//153
f 191//191 192//192 153//153
f 191//191 193//193 192//192
f 113//113 194//194 195//195
f 195//195 196//196 197//197
f 197//197 198//198 199//199
f 199//199 200//200 201//201
f 201//201 202//202 203//203
f 203//203 204//204 166//166
f 48//48 51//51 49//49
f 50//50 53//53 51//51
f 52//52 55//55 53//53
f 54//54 57//57 55//55
f 101//101 47//47 49//49
f 56//56 59//59 57//57
f 58//58 155//155 59//59
f 205//205 206//206 207//207
f 208//208 205//205 207//207
f 208//208 207//207 209//209
f 210//210 209//209 211//211
f 210//210 211//211 212//212
f 210//210 212//212 213//213
f 214//214 213//213 215//215
f 214//214 215//215 216//216
f 214//214 216//216 217//217
f 211//211 218//218 212//212
f 211//211 219//219 218//218
f 220//220 215//215 213//213
f 219//219 221//221 218//218
f 222//222 223//223 220//220
f 222//222 224//224 223//223
f 215//215 220//220 223//223
f 225//225 217//217 216//216
f 226//226 217//217 225//225
f 226//226 227//227 217//217
f 226//226 228//228 227//227
f 219//219 229//229 221//221
f 230//230 224//224 222//222
f 229//229 231//231 221//221
f 230//230 232//232 224//224
f 233//233 228//228 226//226
f 233//233 234//234 228//228
f 235//235 236//236 237//237
f 236//236 235//235 238//238
f 236//236 238//238 239//239
f 240//240 241//241 242//242
f 241//241 243//243 242//242
f 244//244 243//243 241//241
f 239//239 238//238 245//245
f 239//239 245//245 246//246
f 246//246 245//245 247//247
f 246//246 247//247 248//248
f 243//243 244//244 249//249
f 243//243 249//249 250//250
f 249//249 251//251 250//250
f 100//100 101//101 103//103
f 102//102 103//103 104//104
f 105//105 104//104 106//106
f 107//107 106//106 108//108
f 109//109 108//108 110//110
f 111//111 110//110 112//112
f 210//210 208//208 209//209
f 210//210 213//213 214//214
f 214//214 217//217 237//237
f 214//214 237//237 236//236
f 214//214 236//236 240//240
f 214//214 240//240 242//242
f 214//214 242//242 252//252
f 253//253 252//252 254//254
f 253//253 254//254 255//255
f 214//214 252//252 253//253
f 253//253 255//255 256//256
f 253//253 256//256 257//257
f 253//253 257//257 258//258
f 253//253 258//258 259//259
f 253//253 259//259 260//260
f 253//253 260//260 261//261
f 253//253 261//261 262//262
f 253//253 262//262 263//263
f 254//254 252//252 264//264
f 254//254 264//264 265//265
f 254//254 265//265 266//266
f 265//265 267//267 266//266
f 268//268 256//256 255//255
f 268//268 269//269 256//256
f 270//270 269//269 268//268
f 271//271 267//267 265//265
f 271//271 272//272 267//267
f 269//269 270//270 273//273
f 269//269 273//273 274//274
f 274//274 273//273 275//275
f 274//274 275//275 276//276
f 277//277 258//258 257//257
f 258//258 277//277 278//278
f 278//278 277//277 279//279
f 279//279 280//280 278//278
f 281//281 260//260 259//259
f 260//260 281//281 282//282
f 260//260 282//282 283//283
f 263//263 262//262 284//284
f 282//282 285//285 283//283
f 263//263 284//284 286//286
f 287//287 280//280 279//279
f 287//287 288//288 280//280
f 289//289 285//285 282//282
f 286//286 284//284 290//290
f 289//289 291//291 285//285
f 286//286 290//290 292//292
f 155//155 154//154 157//157
f 156//156 159//159 157//157
f 158//158 161//161 159//159
f 160//160 163//163 161//161
f 162//162 165//165 163//163
f 164//164 167//167 165//165
f 229//229 293//293 231//231
f 294//294 232//232 230//230
f 293//293 295//295 231//231
f 294//294 296//296 232//232
f 297//297 234//234 233//233
f 297//297 298//298 234//234
f 293//293 299//299 295//295
f 296//296 294//294 300//300
f 299//299 301//301 295//295
f 296//296 300//300 302//302
f 296//296 302//302 303//303
f 302//302 304//304 303//303
f 305//305 298//298 297//297
f 305//305 306//306 298//298
f 307//307 306//306 305//305
f 307//307 308//308 306//306
f 248//248 247//247 309//309
f 248//248 309//309 310//310
f 311//311 251//251 249//249
f 251//251 311//311 312//312
f 310//310 309//309 313//313
f 314//314 313//313 309//309
f 314//314 315//315 313//313
f 316//316 312//312 311//311
f 312//312 316//316 317//317
f 312//312 317//317 318//318
f 317//317 319//319 318//318
f 299//299 320//320 301//301
f 320//320 321//321 301//301
f 320//320 302//302 321//321
f 320//320 304//304 302//302
f 320//320 307//307 304//304
f 320//320 308//308 307//307
f 320//320 314//314 308//308
f 320//320 315//315 314//314
f 320//320 322//322 319//319
f 320//320 317//317 315//315
f 320//320 319//319 317//317
f 322//322 323//323 319//319
f 322//322 324//324 323//323
f 322//322 325//325 324//324
f 322//322 326//326 325//325
f 322//322 327//327 326//326
f 322//322 328//328 329//329
f 330//330 328//328 331//331
f 113//113 112//112 194//194
f 195//195 194//194 196//196
f 166//166 204//204 167//167
f 197//197 196//196 198//198
f 199//199 198//198 200//200
f 201//201 200//200 202//202
f 203//203 202//202 204//204
f 332//332 272//272 271//271
f 272//272 332//332 333//333
f 272//272 333//333 334//334
f 276//276 275//275 335//335
f 276//276 335//335 336//336
f 334//334 333//333 337//337
f 323//323 337//337 333//333
f 324//324 337//337 323//323
f 336//336 335//335 325//325
f 336//336 325//325 338//338
f 325//325 326//326 338//338
f 339//339 288//288 287//287
f 339//339 340//340 288//288
f 341//341 291//291 289//289
f 292//292 290//290 342//342
f 291//291 341//341 343//343
f 292//292 342//342 344//344
f 345//345 340//340 339//339
f 327//327 340//340 345//345
f 327//327 346//346 340//340
f 327//327 347//347 346//346
f 348//348 349//349 350//350
f 350//350 343//343 341//341
f 350//350 349//349 343//343
f 344//344 342//342 351//351
f 348//348 329//329 349//349
f 344//344 351//351 352//352
f 352//352 351//351 353//353
f 322//322 347//347 327//327
f 322//322 348//348 347//347
f 322//322 329//329 348//348
f 328//328 353//353 329//329
f 352//352 353//353 328//328
f 352//352 328//328 330//330
f 330//330 331//331 354//354
f 354//354 331//331 355//355
f 354//354 355//355 356//356
f 357//357 358//358 359//359
f 360//360 357//357 361//361
f 358//358 362//362 363//363
f 364//364 360//360 365//365
f 362//362 366//366 367//367
f 368//368 364//364 369//369
f 366//366 370//370 371//371
f 372//372 368//368 373//373
f 370//370 374//374 375//375
f 376//376 372//372 377//377
f 374//374 378//378 379//379
f 380//380 376//376 381//381
f 378//378 382//382 383//383
f 382//382 380//380 384//384
f 359//359 361//361 357//357
f 360//360 361//361 365//365
f 358//358 363//363 359//359
f 365//365 369//369 364//364
f 367//367 363//363 362//362
f 371//371 367//367 366//366
f 369//369 373//373 368//368
f 375//375 371//371 370//370
f 372//372 373//373 377//377
f 377//377 381//381 376//376
f 374//374 379//379 375//375
f 381//381 384//384 380//380
f 383//383 379//379 378//378
f 382//382 384//384 383//383
f 385//385 386//386 387//387
f 388//388 385//385 389//389
f 386//386 390//390 391//391
f 392//392 388//388 393//393
f 390//390 394//394 395//395
f 396//396 392//392 397//397
f 394//394 398//398 399//399
f 400//400 396//396 401//401
f 398//398 402//402 403//403
f 404//404 400//400 405//405
f 402//402 406//406 407//407
f 408//408 404//404 409//409
f 406//406 410//410 411//411
f 410//410 408//408 412//412
f 385//385 387//387 389//389
f 388//388 389//389 393//393
f 386//386 391//391 387//387
f 395//395 391//391 390//390
f 393//393 397//397 392//392
f 399//399 395//395 394//394
f 397//397 401//401 396//396
f 403//403 399//399 398//398
f 401//401 405//405 400//400
f 405//405 409//409 404//404
f 407//407 403//403 402//402
f 406//406 411//411 407//407
f 409//409 412//412 408//408
f 410//410 412//412 411//411
f 413//413 414//414 415//415
f 416//416 413//413 417//417
f 414//414 418//418 419//419
f 420//420 416//416 421//421
f 418//418 422//422 423//423
f 424//424 420//420 425//425
f 422//422 426//426 427//427
f 428//428 424//424 429//429
f 426//426 430//430 431//431
f 432//432 428//428 433//433
f 430//430 434//434 435//435
f 436//436 432//432 437//437
f 434//434 438//438 439//439
f 438//438 436//436 440//440
f 413//413 415//415 417//417
f 417//417 421//421 416//416
f 419//419 415//415 414//414
f 423//423 419//419 418//418
f 421//421 425//425 420//420
f 427//427 423//423 422//422
f 425//425 429//429 424//424
f 431//431 427//427 426//426
f 429//429 433//433 428//428
f 435//435 431//431 430//430
f 433//433 437//437 432//432
f 436//436 437//437 440//440
f 439//439 435//435 434//434
f 440//440 439//439 438//438
f 441//441 442//442 443//443
f 444//444 445//445 446//446
f 445//445 441//441 447//447
f 442//442 448//448 449//449
f 448//448 450//450 451//451
f 452//452 444//444 453//453
f 450//450 454//454 455//455
f 456//456 452//452 457//457
f 454//454 458//458 459//459
f 460//460 456//456 461//461
f 458//458 462//462 463//463
f 464//464 460//460 465//465
f 462//462 466//466 467//467
f 466//466 464//464 468//468
f 441//441 443//443 447//447
f 446//446 453//453 444//444
f 443//443 442//442 449//449
f 447//447 446//446 445//445
f 451//451 449//449 448//448
f 453//453 457//457 452//452
f 455//455 451//451 450//450
f 457//457 461//461 456//456
f 459//459 455//455 454//454
f 461//461 465//465 460//460
f 463//463 459//459 458//458
f 467//467 463//463 462//462
f 465//465 468//468 464//464
f 466//466 468//468 467//467
f 469//469 470//470 471//471
f 472//472 469//469 473//473
f 474//474 472//472 475//475
f 470//470 476//476 477//477
f 476//476 478//478 479//479
f 478//478 480//480 481//481
f 480//480 482//482 483//483
f 484//484 474//474 485//485
f 486//486 484//484 487//487
f 488//488 486//486 489//489
f 490//490 488//488 491//491
f 482//482 492//492 493//493
f 492//492 494//494 495//495
f 494//494 490//490 496//496
f 470//470 477//477 471//471
f 471//471 473//473 469//469
f 473//473 475//475 472//472
f 475//475 485//485 474//474
f 477//477 476//476 479//479
f 481//481 479//479 478//478
f 483//483 481//481 480//480
f 485//485 487//487 484//484
f 487//487 489//489 486//486
f 491//491 488//488 489//489
f 493//493 483//483 482//482
f 495//495 493//493 492//492
f 496//496 495//495 494//494
f 490//490 491//491 496//496
f 497//497 498//498 499//499
f 500//500 497//497 501//501
f 498//498 502//502 503//503
f 504//504 500//500 505//505
f 502//502 506//506 507//507
f 508//508 504//504 509//509
f 506//506 510//510 511//511
f 512//512 508//508 513//513
f 510//510 514//514 515//515
f 516//516 512//512 517//517
f 518//518 516//516 519//519
f 520//520 521//521 522//522
f 514//514 520//520 523//523
f 521//521 518//518 524//524
f 497//497 499//499 501//501
f 503//503 499//499 498//498
f 501//501 505//505 500//500
f 505//505 509//509 504//504
f 507//507 503//503 502//502
f 509//509 513//513 508//508
f 511//511 507//507 506//506
f 513//513 517//517 512//512
f 515//515 511//511 510//510
f 517//517 519//519 516//516
f 522//522 523//523 520//520
f 524//524 518//518 519//519
f 523//523 515//515 514//514
f 521//521 524//524 522//522
f 525//525 526//526 527//527
f 528//528 525//525 529//529
f 526//526 530//530 531//531
f 532//532 528//528 533//533
f 530//530 534//534 535//535
f 536//536 532//532 537//537
f 534//534 538//538 539//539
f 540//540 536//536 541//541
f 538//538 542//542 543//543
f 544//544 540//540 545//545
f 542//542 546//546 547//547
f 548//548 544//544 549//549
f 546//546 550//550 551//551
f 550//550 548//548 552//552
f 527//527 529//529 525//525
f 529//529 533//533 528//528
f 526//526 531//531 527//527
f 535//535 531//531 530//530
f 533//533 537//537 532//532
f 539//539 535//535 534//534
f 537//537 541//541 536//536
f 543//543 539//539 538//538
f 541//541 545//545 540//540
f 547//547 543//543 542//542
f 545//545 549//549 544//544
f 549//549 552//552 548//548
f 551//551 547//547 546//546
f 550//550 552//552 551//551
f 553//553 554//554 555//555
f 556//556 553//553 557//557
f 554//554 558//558 559//559
f 560//560 556//556 561//561
f 558//558 562//562 563//563
f 564//564 560//560 565//565
f 562//562 566//566 567//567
f 568//568 564//564 569//569
f 566//566 570//570 571//571
f 572//572 568//568 573//573
f 570//570 574//574 575//575
f 576//576 572//572 577//577
f 574//574 578//578 579//579
f 578//578 576//576 580//580
f 553//553 555//555 557//557
f 559//559 555//555 554//554
f 556//556 557//557 561//561
f 561//561 565//565 560//560
f 563//563 559//559 558//558
f 567//567 563//563 562//562
f 565//565 569//569 564//564
f 571//571 567//567 566//566
f 569//569 573//573 568//568
f 575//575 571//571 570//570
f 573//573 577//577 572//572
f 576//576 577//577 580//580
f 574//574 579//579 575//575
f 578//578 580//580 579//579
f 581//581 582//582 583//583
f 584//584 581//581 585//585
f 582//582 586//586 587//587
f 588//588 584//584 589//589
f 586//586 590//590 591//591
f 592//592 588//588 593//593
f 590//590 594//594 595//595
f 596//596 592//592 597//597
f 594//594 598//598 599//599
f 600//600 596//596 601//601
f 598//598 602//602 603//603
f 604//604 600//600 605//605
f 602//602 606//606 607//607
f 606//606 604//604 608//608
f 581//581 583//583 585//585
f 585//585 589//589 584//584
f 587//587 583//583 582//582
f 588//588 589//589 593//593
f 591//591 587//587 586//586
f 590//590 595//595 591//591
f 593//593 597//597 592//592
f 599//599 595//595 594//594
f 597//597 601//601 596//596
f 601//601 605//605 600//600
f 603//603 599//599 598//598
f 604//604 605//605 608//608
f 602//602 607//607 603//603
f 608//608 607//607 606//606
