v -0.12100 -0.11250 -0.76250
v -0.12100 -0.09743 -0.81875
v -0.12100 -0.10867 -0.79162
v -0.12100 -0.11250 0.76250
v -0.12100 -0.07955 -0.84205
v -0.12100 -0.10867 0.79162
v -0.12100 -0.05625 -0.85993
v -0.12100 -0.09743 0.81875
v -0.12100 -0.05850 -0.76335
v -0.12100 -0.05850 -0.73665
v -0.12100 -0.05850 -0.51335
v -0.12100 -0.05850 -0.48665
v -0.12100 -0.04691 -0.78741
v -0.12100 -0.02603 -0.80406
v -0.12100 -0.04691 -0.53741
v -0.12100 -0.04691 -0.71259
v -0.12100 -0.02912 -0.87117
v -0.12100 -0.02603 -0.55406
v -0.12100 -0.02603 -0.69594
v -0.12100 0.00000 -0.81000
v -0.12100 -0.00000 -0.87500
v -0.12100 0.00000 -0.56000
v -0.12100 0.00000 -0.69000
v -0.12100 -0.04691 -0.28741
v -0.12100 -0.04691 -0.46259
v -0.12100 -0.05850 -0.26335
v -0.12100 -0.02603 -0.30406
v -0.12100 -0.02603 -0.44594
v -0.12100 -0.05850 -0.23665
v -0.12100 -0.04691 -0.03741
v -0.12100 -0.04691 -0.21259
v -0.12100 -0.05850 -0.01335
v -0.12100 -0.02603 -0.05406
v -0.12100 -0.02603 -0.19594
v -0.12100 0.00000 -0.31000
v -0.12100 0.00000 -0.44000
v -0.12100 0.00000 -0.06000
v -0.12100 0.00000 -0.19000
v -0.12100 -0.11250 -0.76250
v -0.12100 -0.10867 -0.79162
v 0.12100 -0.11250 -0.76250
v -0.12100 -0.09743 -0.81875
v 0.12100 -0.10867 -0.79162
v -0.12100 -0.07955 -0.84205
v 0.12100 -0.09743 -0.81875
v -0.12100 -0.05625 -0.85993
v 0.12100 -0.07955 -0.84205
v -0.12100 -0.02912 -0.87117
v 0.12100 -0.05625 -0.85993
v -0.12100 -0.00000 -0.87500
v 0.12100 -0.02912 -0.87117
v -0.12100 -0.05850 0.01335
v -0.12100 -0.07955 0.84205
v -0.12100 -0.05850 0.23665
v -0.12100 -0.05850 0.26335
v -0.12100 -0.05850 0.48665
v -0.12100 -0.05850 0.51335
v -0.12100 -0.05850 0.73665
v -0.12100 -0.05850 0.76335
v -0.12100 -0.05625 0.85993
v -0.12100 -0.04691 0.21259
v -0.12100 -0.04691 0.03741
v -0.12100 -0.02603 0.19594
v -0.12100 -0.02603 0.05406
v -0.12100 -0.04691 0.46259
v -0.12100 -0.04691 0.28741
v -0.12100 -0.02603 0.44594
v -0.12100 -0.02603 0.30406
v -0.12100 0.00000 0.19000
v -0.12100 0.00000 0.06000
v -0.12100 0.00000 0.44000
v -0.12100 0.00000 0.31000
v -0.12100 -0.04691 0.71259
v -0.12100 -0.04691 0.53741
v -0.12100 -0.02603 0.69594
v -0.12100 -0.02603 0.55406
v -0.12100 -0.04691 0.78741
v -0.12100 -0.02912 0.87117
v -0.12100 -0.02603 0.80406
v -0.12100 0.00000 0.69000
v -0.12100 0.00000 0.56000
v -0.12100 0.00000 0.81000
v -0.12100 -0.00000 0.87500
v -0.12100 -0.11250 0.76250
v 0.12100 -0.11250 0.76250
v -0.12100 -0.10867 0.79162
v 0.12100 -0.10867 0.79162
v 0.12100 -0.09743 0.81875
v -0.12100 -0.09743 0.81875
v 0.12100 -0.07955 0.84205
v -0.12100 -0.07955 0.84205
v 0.12100 -0.05625 0.85993
v -0.12100 -0.05625 0.85993
v 0.12100 -0.02912 0.87117
v -0.12100 -0.02912 0.87117
v 0.12100 -0.00000 0.87500
v -0.12100 -0.00000 0.87500
v -0.12100 0.02912 -0.87117
v -0.12100 0.02603 -0.80406
v -0.12100 0.02603 -0.55406
v -0.12100 0.02603 -0.69594
v -0.12100 0.04691 -0.78741
v -0.12100 0.05625 -0.85993
v -0.12100 0.05850 -0.76335
v -0.12100 0.04691 -0.53741
v -0.12100 0.04691 -0.71259
v -0.12100 0.05850 -0.51335
v -0.12100 0.05850 -0.73665
v -0.12100 0.02603 -0.30406
v -0.12100 0.02603 -0.44594
v -0.12100 0.02603 -0.05406
v -0.12100 0.02603 -0.19594
v -0.12100 0.04691 -0.28741
v -0.12100 0.04691 -0.46259
v -0.12100 0.05850 -0.26335
v -0.12100 0.05850 -0.48665
v -0.12100 0.04691 -0.03741
v -0.12100 0.04691 -0.21259
v -0.12100 0.05850 -0.01335
v -0.12100 0.05850 -0.23665
v -0.12100 0.07955 -0.84205
v -0.12100 0.09743 -0.81875
v -0.12100 0.05850 0.01335
v -0.12100 0.05850 0.23665
v -0.12100 0.05850 0.26335
v -0.12100 0.05850 0.48665
v -0.12100 0.05625 0.85993
v -0.12100 0.10867 -0.79162
v -0.12100 0.07955 0.84205
v -0.12100 0.11250 -0.76250
v -0.12100 0.02912 -0.87117
v 0.12100 -0.00000 -0.87500
v -0.12100 0.05625 -0.85993
v 0.12100 0.02912 -0.87117
v -0.12100 0.07955 -0.84205
v 0.12100 0.05625 -0.85993
v -0.12100 0.09743 -0.81875
v 0.12100 0.07955 -0.84205
v -0.12100 0.10867 -0.79162
v 0.12100 0.09743 -0.81875
v -0.12100 0.11250 -0.76250
v 0.12100 0.10867 -0.79162
v -0.12100 0.11250 0.76250
v 0.12100 0.11250 -0.76250
v -0.12100 0.02603 0.19594
v -0.12100 0.02603 0.05406
v -0.12100 0.02603 0.44594
v -0.12100 0.02603 0.30406
v -0.12100 0.04691 0.21259
v -0.12100 0.04691 0.03741
v -0.12100 0.04691 0.46259
v -0.12100 0.04691 0.28741
v -0.12100 0.02603 0.69594
v -0.12100 0.02603 0.55406
v -0.12100 0.02912 0.87117
v -0.12100 0.02603 0.80406
v -0.12100 0.04691 0.71259
v -0.12100 0.04691 0.53741
v -0.12100 0.05850 0.73665
v -0.12100 0.05850 0.51335
v -0.12100 0.04691 0.78741
v -0.12100 0.05850 0.76335
v -0.12100 0.09743 0.81875
v -0.12100 0.11250 0.76250
v -0.12100 0.10867 0.79162
v 0.12100 0.02912 0.87117
v -0.12100 0.02912 0.87117
v 0.12100 0.05625 0.85993
v -0.12100 0.05625 0.85993
v 0.12100 0.07955 0.84205
v -0.12100 0.07955 0.84205
v 0.12100 0.09743 0.81875
v -0.12100 0.09743 0.81875
v 0.12100 0.10867 0.79162
v -0.12100 0.10867 0.79162
v 0.12100 0.11250 0.76250
v 0.12100 -0.11250 -0.76250
v 0.12100 -0.10867 -0.79162
v 0.12100 -0.09743 -0.81875
v 0.12100 -0.11250 0.76250
v 0.12100 -0.07955 -0.84205
v 0.12100 -0.10867 0.79162
v 0.12100 -0.05625 -0.85993
v 0.12100 -0.09743 0.81875
v 0.12100 -0.05850 -0.76335
v 0.12100 -0.05850 -0.73665
v 0.12100 -0.05850 -0.51335
v 0.12100 -0.05850 -0.48665
v 0.12100 -0.04691 -0.78741
v 0.12100 -0.02912 -0.87117
v 0.12100 -0.02603 -0.80406
v 0.12100 -0.04691 -0.71259
v 0.12100 -0.04691 -0.53741
v 0.12100 -0.02603 -0.69594
v 0.12100 -0.02603 -0.55406
v 0.12100 -0.00000 -0.87500
v 0.12100 0.00000 -0.81000
v 0.12100 0.00000 -0.69000
v 0.12100 0.00000 -0.56000
v 0.12100 -0.05850 -0.26335
v 0.12100 -0.04691 -0.46259
v 0.12100 -0.02603 -0.44594
v 0.12100 -0.04691 -0.28741
v 0.12100 -0.05850 -0.23665
v 0.12100 -0.04691 -0.21259
v 0.12100 -0.05850 -0.01335
v 0.12100 -0.04691 -0.03741
v 0.12100 -0.02603 -0.19594
v 0.12100 0.00000 -0.44000
v 0.12100 -0.02603 -0.30406
v 0.12100 0.00000 -0.31000
v 0.12100 0.00000 -0.19000
v 0.12100 -0.02603 -0.05406
v 0.12100 0.00000 -0.06000
v 0.12100 -0.05850 0.01335
v 0.12100 -0.07955 0.84205
v 0.12100 -0.05850 0.23665
v 0.12100 -0.05850 0.26335
v 0.12100 -0.04691 0.28741
v 0.12100 -0.05850 0.48665
v 0.12100 -0.05850 0.51335
v 0.12100 -0.05850 0.73665
v 0.12100 -0.05850 0.76335
v 0.12100 -0.04691 0.78741
v 0.12100 -0.05625 0.85993
v 0.12100 -0.04691 0.03741
v 0.12100 -0.02603 0.05406
v 0.12100 -0.04691 0.21259
v 0.12100 -0.02603 0.19594
v 0.12100 -0.04691 0.46259
v 0.12100 -0.02603 0.30406
v 0.12100 -0.02603 0.44594
v 0.12100 0.00000 0.06000
v 0.12100 0.00000 0.19000
v 0.12100 0.00000 0.31000
v 0.12100 0.00000 0.44000
v 0.12100 -0.04691 0.53741
v 0.12100 -0.02603 0.55406
v 0.12100 -0.02603 0.69594
v 0.12100 -0.04691 0.71259
v 0.12100 -0.02603 0.80406
v 0.12100 -0.02912 0.87117
v 0.12100 0.00000 0.56000
v 0.12100 0.00000 0.69000
v 0.12100 0.00000 0.81000
v 0.12100 -0.00000 0.87500
v 0.12100 0.02912 -0.87117
v 0.12100 0.02603 -0.80406
v 0.12100 0.02603 -0.69594
v 0.12100 0.02603 -0.55406
v 0.12100 0.05625 -0.85993
v 0.12100 0.04691 -0.78741
v 0.12100 0.04691 -0.71259
v 0.12100 0.05850 -0.73665
v 0.12100 0.04691 -0.53741
v 0.12100 0.05850 -0.51335
v 0.12100 0.02603 -0.44594
v 0.12100 0.02603 -0.30406
v 0.12100 0.02603 -0.19594
v 0.12100 0.02603 -0.05406
v 0.12100 0.04691 -0.46259
v 0.12100 0.04691 -0.28741
v 0.12100 0.05850 -0.48665
v 0.12100 0.04691 -0.21259
v 0.12100 0.05850 -0.23665
v 0.12100 0.04691 -0.03741
v 0.12100 0.05850 -0.01335
v 0.12100 0.07955 -0.84205
v 0.12100 0.05850 -0.76335
v 0.12100 0.05850 -0.26335
v 0.12100 0.09743 -0.81875
v 0.12100 0.05850 0.01335
v 0.12100 0.05850 0.23665
v 0.12100 0.05850 0.26335
v 0.12100 0.05850 0.48665
v 0.12100 0.05625 0.85993
v 0.12100 0.10867 -0.79162
v 0.12100 0.07955 0.84205
v 0.12100 0.11250 -0.76250
v 0.12100 0.02603 0.05406
v 0.12100 0.04691 0.03741
v 0.12100 0.02603 0.19594
v 0.12100 0.02603 0.30406
v 0.12100 0.04691 0.28741
v 0.12100 0.02603 0.44594
v 0.12100 0.04691 0.21259
v 0.12100 0.04691 0.46259
v 0.12100 0.02603 0.55406
v 0.12100 0.02603 0.69594
v 0.12100 0.02603 0.80406
v 0.12100 0.02912 0.87117
v 0.12100 0.04691 0.53741
v 0.12100 0.04691 0.71259
v 0.12100 0.05850 0.51335
v 0.12100 0.05850 0.73665
v 0.12100 0.04691 0.78741
v 0.12100 0.05850 0.76335
v 0.12100 0.09743 0.81875
v 0.12100 0.11250 0.76250
v 0.12100 0.10867 0.79162
v -0.12100 -0.05850 -0.76335
v -0.12100 -0.05850 -0.73665
v 0.12100 -0.05850 -0.73665
v -0.12100 -0.04691 -0.78741
v 0.12100 -0.05850 -0.76335
v -0.12100 -0.04691 -0.71259
v 0.12100 -0.04691 -0.71259
v -0.12100 -0.02603 -0.80406
v 0.12100 -0.04691 -0.78741
v -0.12100 -0.02603 -0.69594
v 0.12100 -0.02603 -0.69594
v -0.12100 0.00000 -0.81000
v 0.12100 -0.02603 -0.80406
v -0.12100 0.00000 -0.69000
v 0.12100 0.00000 -0.69000
v -0.12100 0.02603 -0.80406
v 0.12100 0.00000 -0.81000
v -0.12100 0.02603 -0.69594
v 0.12100 0.02603 -0.69594
v -0.12100 0.04691 -0.78741
v 0.12100 0.02603 -0.80406
v -0.12100 0.04691 -0.71259
v 0.12100 0.04691 -0.71259
v -0.12100 0.05850 -0.76335
v 0.12100 0.04691 -0.78741
v -0.12100 0.05850 -0.73665
v 0.12100 0.05850 -0.73665
v 0.12100 0.05850 -0.76335
v -0.12100 -0.05850 -0.51335
v -0.12100 -0.05850 -0.48665
v 0.12100 -0.05850 -0.48665
v -0.12100 -0.04691 -0.53741
v 0.12100 -0.05850 -0.51335
v -0.12100 -0.04691 -0.46259
v 0.12100 -0.04691 -0.46259
v -0.12100 -0.02603 -0.55406
v 0.12100 -0.04691 -0.53741
v -0.12100 -0.02603 -0.44594
v 0.12100 -0.02603 -0.44594
v -0.12100 0.00000 -0.56000
v 0.12100 -0.02603 -0.55406
v -0.12100 0.00000 -0.44000
v 0.12100 0.00000 -0.44000
v -0.12100 0.02603 -0.55406
v 0.12100 0.00000 -0.56000
v -0.12100 0.02603 -0.44594
v 0.12100 0.02603 -0.44594
v -0.12100 0.04691 -0.53741
v 0.12100 0.02603 -0.55406
v -0.12100 0.04691 -0.46259
v 0.12100 0.04691 -0.46259
v -0.12100 0.05850 -0.51335
v 0.12100 0.04691 -0.53741
v -0.12100 0.05850 -0.48665
v 0.12100 0.05850 -0.48665
v 0.12100 0.05850 -0.51335
v -0.12100 -0.05850 -0.26335
v -0.12100 -0.05850 -0.23665
v 0.12100 -0.05850 -0.23665
v -0.12100 -0.04691 -0.28741
v 0.12100 -0.05850 -0.26335
v -0.12100 -0.04691 -0.21259
v 0.12100 -0.04691 -0.21259
v -0.12100 -0.02603 -0.30406
v 0.12100 -0.04691 -0.28741
v -0.12100 -0.02603 -0.19594
v 0.12100 -0.02603 -0.19594
v -0.12100 0.00000 -0.31000
v 0.12100 -0.02603 -0.30406
v -0.12100 0.00000 -0.19000
v 0.12100 0.00000 -0.19000
v -0.12100 0.02603 -0.30406
v 0.12100 0.00000 -0.31000
v -0.12100 0.02603 -0.19594
v 0.12100 0.02603 -0.19594
v -0.12100 0.04691 -0.28741
v 0.12100 0.02603 -0.30406
v -0.12100 0.05850 -0.26335
v 0.12100 0.04691 -0.28741
v -0.12100 0.04691 -0.21259
v -0.12100 0.05850 -0.23665
v 0.12100 0.05850 -0.23665
v 0.12100 0.04691 -0.21259
v 0.12100 0.05850 -0.26335
v -0.12100 -0.04691 -0.03741
v -0.12100 -0.05850 -0.01335
v 0.12100 -0.05850 -0.01335
v -0.12100 -0.02603 -0.05406
v 0.12100 -0.04691 -0.03741
v -0.12100 0.00000 -0.06000
v 0.12100 -0.02603 -0.05406
v -0.12100 -0.05850 0.01335
v 0.12100 -0.05850 0.01335
v -0.12100 -0.04691 0.03741
v 0.12100 -0.04691 0.03741
v -0.12100 -0.02603 0.05406
v 0.12100 -0.02603 0.05406
v -0.12100 0.00000 0.06000
v 0.12100 0.00000 0.06000
v -0.12100 0.02603 -0.05406
v 0.12100 0.00000 -0.06000
v -0.12100 0.04691 -0.03741
v 0.12100 0.02603 -0.05406
v -0.12100 0.05850 -0.01335
v 0.12100 0.04691 -0.03741
v -0.12100 0.05850 0.01335
v 0.12100 0.05850 -0.01335
v -0.12100 0.02603 0.05406
v 0.12100 0.02603 0.05406
v -0.12100 0.04691 0.03741
v 0.12100 0.04691 0.03741
v 0.12100 0.05850 0.01335
v -0.12100 -0.05850 0.23665
v -0.12100 -0.05850 0.26335
v 0.12100 -0.05850 0.26335
v -0.12100 -0.02603 0.19594
v -0.12100 -0.04691 0.21259
v 0.12100 -0.04691 0.21259
v 0.12100 -0.05850 0.23665
v -0.12100 -0.04691 0.28741
v 0.12100 -0.04691 0.28741
v -0.12100 -0.02603 0.30406
v 0.12100 -0.02603 0.30406
v -0.12100 0.00000 0.19000
v 0.12100 -0.02603 0.19594
v -0.12100 0.00000 0.31000
v 0.12100 0.00000 0.31000
v -0.12100 0.02603 0.19594
v 0.12100 0.00000 0.19000
v -0.12100 0.02603 0.30406
v 0.12100 0.02603 0.30406
v -0.12100 0.04691 0.21259
v 0.12100 0.02603 0.19594
v -0.12100 0.04691 0.28741
v 0.12100 0.04691 0.28741
v -0.12100 0.05850 0.23665
v 0.12100 0.04691 0.21259
v -0.12100 0.05850 0.26335
v 0.12100 0.05850 0.26335
v 0.12100 0.05850 0.23665
v -0.12100 -0.05850 0.48665
v -0.12100 -0.05850 0.51335
v 0.12100 -0.05850 0.51335
v -0.12100 -0.04691 0.46259
v 0.12100 -0.05850 0.48665
v -0.12100 -0.04691 0.53741
v 0.12100 -0.04691 0.53741
v -0.12100 -0.02603 0.44594
v 0.12100 -0.04691 0.46259
v -0.12100 -0.02603 0.55406
v 0.12100 -0.02603 0.55406
v -0.12100 0.00000 0.44000
v 0.12100 -0.02603 0.44594
v -0.12100 0.00000 0.56000
v 0.12100 0.00000 0.56000
v -0.12100 0.02603 0.44594
v 0.12100 0.00000 0.44000
v -0.12100 0.02603 0.55406
v 0.12100 0.02603 0.55406
v -0.12100 0.04691 0.46259
v 0.12100 0.02603 0.44594
v -0.12100 0.04691 0.53741
v 0.12100 0.04691 0.53741
v -0.12100 0.05850 0.48665
v 0.12100 0.04691 0.46259
v -0.12100 0.05850 0.51335
v 0.12100 0.05850 0.51335
v 0.12100 0.05850 0.48665
v -0.12100 -0.05850 0.73665
v -0.12100 -0.05850 0.76335
v 0.12100 -0.05850 0.76335
v -0.12100 -0.04691 0.71259
v 0.12100 -0.05850 0.73665
v -0.12100 -0.04691 0.78741
v 0.12100 -0.04691 0.78741
v -0.12100 -0.02603 0.69594
v 0.12100 -0.04691 0.71259
v -0.12100 -0.02603 0.80406
v 0.12100 -0.02603 0.80406
v -0.12100 0.00000 0.69000
v 0.12100 -0.02603 0.69594
v -0.12100 0.00000 0.81000
v 0.12100 0.00000 0.81000
v -0.12100 0.02603 0.69594
v 0.12100 0.00000 0.69000
v -0.12100 0.02603 0.80406
v 0.12100 0.02603 0.80406
v -0.12100 0.04691 0.71259
v 0.12100 0.02603 0.69594
v -0.12100 0.04691 0.78741
v 0.12100 0.04691 0.78741
v -0.12100 0.05850 0.73665
v 0.12100 0.04691 0.71259
v -0.12100 0.05850 0.76335
v 0.12100 0.05850 0.76335
v 0.12100 0.05850 0.73665
vn -1.0000 0.0000 0.0000
vn -1.0000 0.0000 0.0000
vn -1.0000 0.0000 0.0000
vn -1.0000 0.0000 0.0000
vn -1.0000 0.0000 0.0000
vn -1.0000 0.0000 0.0000
vn -1.0000 0.0000 0.0000
vn -1.0000 0.0000 0.0000
vn -1.0000 0.0000 0.0000
vn -1.0000 0.0000 0.0000
vn -1.0000 0.0000 0.0000
vn -1.0000 0.0000 0.0000
vn -1.0000 0.0000 0.0000
vn -1.0000 0.0000 0.0000
vn -1.0000 0.0000 0.0000
vn -1.0000 0.0000 0.0000
vn -1.0000 0.0000 0.0000
vn -1.0000 0.0000 0.0000
vn -1.0000 0.0000 0.0000
vn -1.0000 0.0000 0.0000
vn -1.0000 0.0000 0.0000
vn -1.0000 0.0000 0.0000
vn -1.0000 0.0000 0.0000
vn -1.0000 0.0000 0.0000
vn -1.0000 0.0000 0.0000
vn -1.0000 0.0000 0.0000
vn -1.0000 0.0000 0.0000
vn -1.0000 0.0000 0.0000
vn -1.0000 0.0000 0.0000
vn -1.0000 0.0000 0.0000
vn -1.0000 0.0000 0.0000
vn -1.0000 0.0000 0.0000
vn -1.0000 0.0000 0.0000
vn -1.0000 0.0000 0.0000
vn -1.0000 0.0000 0.0000
vn -1.0000 0.0000 0.0000
vn -1.0000 0.0000 0.0000
vn -1.0000 0.0000 0.0000
vn 0.0000 -0.9979 -0.0654
vn 0.0000 -0.9659 -0.2588
vn 0.0000 -0.9979 -0.0654
vn -0.0000 -0.8660 -0.5000
vn -0.0000 -0.9659 -0.2588
vn 0.0000 -0.7071 -0.7071
vn 0.0000 -0.8660 -0.5000
vn 0.0000 -0.5000 -0.8660
vn 0.0000 -0.7071 -0.7071
vn 0.0000 -0.2588 -0.9659
vn 0.0000 -0.5000 -0.8660
vn 0.0000 -0.0000 -1.0000
vn 0.0000 -0.2588 -0.9659
vn -1.0000 0.0000 0.0000
vn -1.0000 0.0000 0.0000
vn -1.0000 0.0000 0.0000
vn -1.0000 0.0000 0.0000
vn -1.0000 0.0000 0.0000
vn -1.0000 0.0000 0.0000
vn -1.0000 0.0000 0.0000
vn -1.0000 0.0000 0.0000
vn -1.0000 0.0000 0.0000
vn -1.0000 0.0000 0.0000
vn -1.0000 0.0000 0.0000
vn -1.0000 0.0000 0.0000
vn -1.0000 0.0000 0.0000
vn -1.0000 0.0000 0.0000
vn -1.0000 0.0000 0.0000
vn -1.0000 0.0000 0.0000
vn -1.0000 0.0000 0.0000
vn -1.0000 0.0000 0.0000
vn -1.0000 0.0000 0.0000
vn -1.0000 0.0000 0.0000
vn -1.0000 0.0000 0.0000
vn -1.0000 0.0000 0.0000
vn -1.0000 0.0000 0.0000
vn -1.0000 0.0000 0.0000
vn -1.0000 0.0000 0.0000
vn -1.0000 0.0000 0.0000
vn -1.0000 0.0000 0.0000
vn -1.0000 0.0000 0.0000
vn -1.0000 0.0000 0.0000
vn -1.0000 0.0000 0.0000
vn -1.0000 0.0000 0.0000
vn -1.0000 0.0000 0.0000
vn 0.0000 -0.9979 0.0654
vn 0.0000 -0.9979 0.0654
vn 0.0000 -0.9659 0.2588
vn 0.0000 -0.9659 0.2588
vn 0.0000 -0.8660 0.5000
vn 0.0000 -0.8660 0.5000
vn 0.0000 -0.7071 0.7071
vn 0.0000 -0.7071 0.7071
vn 0.0000 -0.5000 0.8660
vn -0.0000 -0.5000 0.8660
vn -0.0000 -0.2588 0.9659
vn 0.0000 -0.2588 0.9659
vn 0.0000 -0.0000 1.0000
vn -0.0000 -0.0000 1.0000
vn -1.0000 0.0000 0.0000
vn -1.0000 0.0000 0.0000
vn -1.0000 0.0000 0.0000
vn -1.0000 0.0000 0.0000
vn -1.0000 0.0000 0.0000
vn -1.0000 0.0000 0.0000
vn -1.0000 0.0000 0.0000
vn -1.0000 0.0000 0.0000
vn -1.0000 0.0000 0.0000
vn -1.0000 0.0000 0.0000
vn -1.0000 0.0000 0.0000
vn -1.0000 0.0000 0.0000
vn -1.0000 0.0000 0.0000
vn -1.0000 0.0000 0.0000
vn -1.0000 0.0000 0.0000
vn -1.0000 0.0000 0.0000
vn -1.0000 0.0000 0.0000
vn -1.0000 0.0000 0.0000
vn -1.0000 0.0000 0.0000
vn -1.0000 0.0000 0.0000
vn -1.0000 0.0000 0.0000
vn -1.0000 0.0000 0.0000
vn -1.0000 0.0000 0.0000
vn -1.0000 0.0000 0.0000
vn -1.0000 0.0000 0.0000
vn -1.0000 0.0000 0.0000
vn -1.0000 0.0000 0.0000
vn -1.0000 0.0000 0.0000
vn -1.0000 0.0000 0.0000
vn -1.0000 0.0000 0.0000
vn -1.0000 0.0000 0.0000
vn -1.0000 0.0000 0.0000
vn -1.0000 0.0000 0.0000
vn 0.0000 0.2588 -0.9659
vn 0.0000 -0.0000 -1.0000
vn -0.0000 0.5000 -0.8660
vn -0.0000 0.2588 -0.9659
vn 0.0000 0.7071 -0.7071
vn 0.0000 0.5000 -0.8660
vn 0.0000 0.8660 -0.5000
vn 0.0000 0.7071 -0.7071
vn 0.0000 0.9659 -0.2588
vn 0.0000 0.8660 -0.5000
vn 0.0000 0.9979 -0.0654
vn 0.0000 0.9659 -0.2588
vn 0.0000 0.9979 0.0654
vn 0.0000 0.9979 -0.0654
vn -1.0000 0.0000 0.0000
vn -1.0000 0.0000 0.0000
vn -1.0000 0.0000 0.0000
vn -1.0000 0.0000 0.0000
vn -1.0000 0.0000 0.0000
vn -1.0000 0.0000 0.0000
vn -1.0000 0.0000 0.0000
vn -1.0000 0.0000 0.0000
vn -1.0000 0.0000 0.0000
vn -1.0000 0.0000 0.0000
vn -1.0000 0.0000 0.0000
vn -1.0000 0.0000 0.0000
vn -1.0000 0.0000 0.0000
vn -1.0000 0.0000 0.0000
vn -1.0000 0.0000 0.0000
vn -1.0000 0.0000 0.0000
vn -1.0000 0.0000 0.0000
vn -1.0000 0.0000 0.0000
vn -1.0000 0.0000 0.0000
vn -1.0000 0.0000 0.0000
vn -1.0000 0.0000 0.0000
vn -0.0000 0.2588 0.9659
vn 0.0000 0.2588 0.9659
vn 0.0000 0.5000 0.8660
vn 0.0000 0.5000 0.8660
vn 0.0000 0.7071 0.7071
vn 0.0000 0.7071 0.7071
vn 0.0000 0.8660 0.5000
vn -0.0000 0.8660 0.5000
vn -0.0000 0.9659 0.2588
vn 0.0000 0.9659 0.2588
vn 0.0000 0.9979 0.0654
vn 1.0000 0.0000 0.0000
vn 1.0000 0.0000 0.0000
vn 1.0000 0.0000 0.0000
vn 1.0000 0.0000 0.0000
vn 1.0000 0.0000 0.0000
vn 1.0000 0.0000 0.0000
vn 1.0000 0.0000 0.0000
vn 1.0000 0.0000 0.0000
vn 1.0000 0.0000 0.0000
vn 1.0000 0.0000 0.0000
vn 1.0000 0.0000 0.0000
vn 1.0000 0.0000 0.0000
vn 1.0000 0.0000 0.0000
vn 1.0000 0.0000 0.0000
vn 1.0000 0.0000 0.0000
vn 1.0000 0.0000 0.0000
vn 1.0000 0.0000 0.0000
vn 1.0000 0.0000 0.0000
vn 1.0000 0.0000 0.0000
vn 1.0000 0.0000 0.0000
vn 1.0000 0.0000 0.0000
vn 1.0000 0.0000 0.0000
vn 1.0000 0.0000 0.0000
vn 1.0000 0.0000 0.0000
vn 1.0000 0.0000 0.0000
vn 1.0000 0.0000 0.0000
vn 1.0000 0.0000 0.0000
vn 1.0000 0.0000 0.0000
vn 1.0000 0.0000 0.0000
vn 1.0000 0.0000 0.0000
vn 1.0000 0.0000 0.0000
vn 1.0000 0.0000 0.0000
vn 1.0000 0.0000 0.0000
vn 1.0000 0.0000 0.0000
vn 1.0000 0.0000 0.0000
vn 1.0000 0.0000 0.0000
vn 1.0000 0.0000 0.0000
vn 1.0000 0.0000 0.0000
vn 1.0000 0.0000 0.0000
vn 1.0000 0.0000 0.0000
vn 1.0000 0.0000 0.0000
vn 1.0000 0.0000 0.0000
vn 1.0000 0.0000 0.0000
vn 1.0000 0.0000 0.0000
vn 1.0000 0.0000 0.0000
vn 1.0000 0.0000 0.0000
vn 1.0000 0.0000 0.0000
vn 1.0000 0.0000 0.0000
vn 1.0000 0.0000 0.0000
vn 1.0000 0.0000 0.0000
vn 1.0000 0.0000 0.0000
vn 1.0000 0.0000 0.0000
vn 1.0000 0.0000 0.0000
vn 1.0000 0.0000 0.0000
vn 1.0000 0.0000 0.0000
vn 1.0000 0.0000 0.0000
vn 1.0000 0.0000 0.0000
vn 1.0000 0.0000 0.0000
vn 1.0000 0.0000 0.0000
vn 1.0000 0.0000 0.0000
vn 1.0000 0.0000 0.0000
vn 1.0000 0.0000 0.0000
vn 1.0000 0.0000 0.0000
vn 1.0000 0.0000 0.0000
vn 1.0000 0.0000 0.0000
vn 1.0000 0.0000 0.0000
vn 1.0000 0.0000 0.0000
vn 1.0000 0.0000 0.0000
vn 1.0000 0.0000 0.0000
vn 1.0000 0.0000 0.0000
vn 1.0000 0.0000 0.0000
vn 1.0000 0.0000 0.0000
vn 1.0000 0.0000 0.0000
vn 1.0000 0.0000 0.0000
vn 1.0000 0.0000 0.0000
vn 1.0000 0.0000 0.0000
vn 1.0000 0.0000 0.0000
vn 1.0000 0.0000 0.0000
vn 1.0000 0.0000 0.0000
vn 1.0000 0.0000 0.0000
vn 1.0000 0.0000 0.0000
vn 1.0000 0.0000 0.0000
vn 1.0000 0.0000 0.0000
vn 1.0000 0.0000 0.0000
vn 1.0000 0.0000 0.0000
vn 1.0000 0.0000 0.0000
vn 1.0000 0.0000 0.0000
vn 1.0000 0.0000 0.0000
vn 1.0000 0.0000 0.0000
vn 1.0000 0.0000 0.0000
vn 1.0000 0.0000 0.0000
vn 1.0000 0.0000 0.0000
vn 1.0000 0.0000 0.0000
vn 1.0000 0.0000 0.0000
vn 1.0000 0.0000 0.0000
vn 1.0000 0.0000 0.0000
vn 1.0000 0.0000 0.0000
vn 1.0000 0.0000 0.0000
vn 1.0000 0.0000 0.0000
vn 1.0000 0.0000 0.0000
vn 1.0000 0.0000 0.0000
vn 1.0000 0.0000 0.0000
vn 1.0000 0.0000 0.0000
vn 1.0000 0.0000 0.0000
vn 1.0000 0.0000 0.0000
vn 1.0000 0.0000 0.0000
vn 1.0000 0.0000 0.0000
vn 1.0000 0.0000 0.0000
vn 1.0000 0.0000 0.0000
vn 1.0000 0.0000 0.0000
vn 1.0000 0.0000 0.0000
vn 1.0000 0.0000 0.0000
vn 1.0000 0.0000 0.0000
vn 1.0000 0.0000 0.0000
vn 1.0000 0.0000 0.0000
vn 1.0000 0.0000 0.0000
vn 1.0000 0.0000 0.0000
vn 1.0000 0.0000 0.0000
vn 1.0000 0.0000 0.0000
vn 1.0000 0.0000 0.0000
vn 1.0000 0.0000 0.0000
vn 1.0000 0.0000 0.0000
vn 1.0000 0.0000 0.0000
vn 1.0000 0.0000 0.0000
vn 0.0000 0.9749 0.2225
vn -0.0000 0.9749 -0.2225
vn 0.0000 0.9749 -0.2225
vn 0.0000 0.7818 0.6235
vn 0.0000 0.9749 0.2225
vn 0.0000 0.7818 -0.6235
vn -0.0000 0.7818 -0.6235
vn 0.0000 0.4339 0.9010
vn 0.0000 0.7818 0.6235
vn 0.0000 0.4339 -0.9010
vn 0.0000 0.4339 -0.9010
vn 0.0000 0.0000 1.0000
vn 0.0000 0.4339 0.9010
vn 0.0000 -0.0000 -1.0000
vn 0.0000 0.0000 -1.0000
vn 0.0000 -0.4339 0.9010
vn 0.0000 -0.0000 1.0000
vn 0.0000 -0.4339 -0.9010
vn 0.0000 -0.4339 -0.9010
vn -0.0000 -0.7818 0.6235
vn -0.0000 -0.4339 0.9010
vn 0.0000 -0.7818 -0.6235
vn 0.0000 -0.7818 -0.6235
vn 0.0000 -0.9749 0.2225
vn 0.0000 -0.7818 0.6235
vn 0.0000 -0.9749 -0.2225
vn 0.0000 -0.9749 -0.2225
vn 0.0000 -0.9749 0.2225
vn 0.0000 0.9749 0.2225
vn 0.0000 0.9749 -0.2225
vn 0.0000 0.9749 -0.2225
vn 0.0000 0.7818 0.6235
vn 0.0000 0.9749 0.2225
vn -0.0000 0.7818 -0.6235
vn 0.0000 0.7818 -0.6235
vn 0.0000 0.4339 0.9010
vn 0.0000 0.7818 0.6235
vn 0.0000 0.4339 -0.9010
vn -0.0000 0.4339 -0.9010
vn 0.0000 0.0000 1.0000
vn 0.0000 0.4339 0.9010
vn 0.0000 -0.0000 -1.0000
vn 0.0000 0.0000 -1.0000
vn 0.0000 -0.4339 0.9010
vn 0.0000 -0.0000 1.0000
vn 0.0000 -0.4339 -0.9010
vn 0.0000 -0.4339 -0.9010
vn -0.0000 -0.7818 0.6235
vn -0.0000 -0.4339 0.9010
vn -0.0000 -0.7818 -0.6235
vn 0.0000 -0.7818 -0.6235
vn 0.0000 -0.9749 0.2225
vn 0.0000 -0.7818 0.6235
vn 0.0000 -0.9749 -0.2225
vn -0.0000 -0.9749 -0.2225
vn 0.0000 -0.9749 0.2225
vn 0.0000 0.9749 0.2225
vn -0.0000 0.9749 -0.2225
vn 0.0000 0.9749 -0.2225
vn 0.0000 0.7818 0.6235
vn 0.0000 0.9749 0.2225
vn 0.0000 0.7818 -0.6235
vn -0.0000 0.7818 -0.6235
vn 0.0000 0.4339 0.9010
vn 0.0000 0.7818 0.6235
vn 0.0000 0.4339 -0.9010
vn 0.0000 0.4339 -0.9010
vn 0.0000 0.0000 1.0000
vn 0.0000 0.4339 0.9010
vn 0.0000 -0.0000 -1.0000
vn 0.0000 0.0000 -1.0000
vn 0.0000 -0.4339 0.9010
vn 0.0000 -0.0000 1.0000
vn 0.0000 -0.4339 -0.9010
vn 0.0000 -0.4339 -0.9010
vn -0.0000 -0.7818 0.6235
vn -0.0000 -0.4339 0.9010
vn 0.0000 -0.9749 0.2225
vn 0.0000 -0.7818 0.6235
vn 0.0000 -0.7818 -0.6235
vn 0.0000 -0.9749 -0.2225
vn 0.0000 -0.9749 -0.2225
vn 0.0000 -0.7818 -0.6235
vn 0.0000 -0.9749 0.2225
vn 0.0000 0.7818 0.6235
vn 0.0000 0.9749 0.2225
vn 0.0000 0.9749 0.2225
vn 0.0000 0.4339 0.9010
vn 0.0000 0.7818 0.6235
vn 0.0000 0.0000 1.0000
vn 0.0000 0.4339 0.9010
vn -0.0000 0.9749 -0.2225
vn 0.0000 0.9749 -0.2225
vn 0.0000 0.7818 -0.6235
vn -0.0000 0.7818 -0.6235
vn 0.0000 0.4339 -0.9010
vn 0.0000 0.4339 -0.9010
vn 0.0000 -0.0000 -1.0000
vn 0.0000 0.0000 -1.0000
vn 0.0000 -0.4339 0.9010
vn 0.0000 -0.0000 1.0000
vn -0.0000 -0.7818 0.6235
vn -0.0000 -0.4339 0.9010
vn 0.0000 -0.9749 0.2225
vn 0.0000 -0.7818 0.6235
vn 0.0000 -0.9749 -0.2225
vn 0.0000 -0.9749 0.2225
vn 0.0000 -0.4339 -0.9010
vn 0.0000 -0.4339 -0.9010
vn 0.0000 -0.7818 -0.6235
vn 0.0000 -0.7818 -0.6235
vn 0.0000 -0.9749 -0.2225
vn 0.0000 0.9749 0.2225
vn 0.0000 0.9749 -0.2225
vn 0.0000 0.9749 -0.2225
vn 0.0000 0.4339 0.9010
vn 0.0000 0.7818 0.6235
vn 0.0000 0.7818 0.6235
vn 0.0000 0.9749 0.2225
vn 0.0000 0.7818 -0.6235
vn 0.0000 0.7818 -0.6235
vn 0.0000 0.4339 -0.9010
vn 0.0000 0.4339 -0.9010
vn 0.0000 0.0000 1.0000
vn 0.0000 0.4339 0.9010
vn 0.0000 -0.0000 -1.0000
vn 0.0000 0.0000 -1.0000
vn 0.0000 -0.4339 0.9010
vn 0.0000 -0.0000 1.0000
vn 0.0000 -0.4339 -0.9010
vn 0.0000 -0.4339 -0.9010
vn -0.0000 -0.7818 0.6235
vn -0.0000 -0.4339 0.9010
vn 0.0000 -0.7818 -0.6235
vn 0.0000 -0.7818 -0.6235
vn 0.0000 -0.9749 0.2225
vn 0.0000 -0.7818 0.6235
vn 0.0000 -0.9749 -0.2225
vn 0.0000 -0.9749 -0.2225
vn 0.0000 -0.9749 0.2225
vn 0.0000 0.9749 0.2225
vn 0.0000 0.9749 -0.2225
vn 0.0000 0.9749 -0.2225
vn 0.0000 0.7818 0.6235
vn 0.0000 0.9749 0.2225
vn 0.0000 0.7818 -0.6235
vn 0.0000 0.7818 -0.6235
vn 0.0000 0.4339 0.9010
vn 0.0000 0.7818 0.6235
vn 0.0000 0.4339 -0.9010
vn 0.0000 0.4339 -0.9010
vn 0.0000 0.0000 1.0000
vn 0.0000 0.4339 0.9010
vn 0.0000 -0.0000 -1.0000
vn 0.0000 0.0000 -1.0000
vn 0.0000 -0.4339 0.9010
vn 0.0000 -0.0000 1.0000
vn 0.0000 -0.4339 -0.9010
vn 0.0000 -0.4339 -0.9010
vn -0.0000 -0.7818 0.6235
vn -0.0000 -0.4339 0.9010
vn 0.0000 -0.7818 -0.6235
vn 0.0000 -0.7818 -0.6235
vn 0.0000 -0.9749 0.2225
vn 0.0000 -0.7818 0.6235
vn 0.0000 -0.9749 -0.2225
vn 0.0000 -0.9749 -0.2225
vn 0.0000 -0.9749 0.2225
vn 0.0000 0.9749 0.2225
vn 0.0000 0.9749 -0.2225
vn 0.0000 0.9749 -0.2225
vn 0.0000 0.7818 0.6235
vn 0.0000 0.9749 0.2225
vn 0.0000 0.7818 -0.6235
vn 0.0000 0.7818 -0.6235
vn 0.0000 0.4339 0.9010
vn 0.0000 0.7818 0.6235
vn 0.0000 0.4339 -0.9010
vn 0.0000 0.4339 -0.9010
vn 0.0000 0.0000 1.0000
vn 0.0000 0.4339 0.9010
vn 0.0000 -0.0000 -1.0000
vn 0.0000 0.0000 -1.0000
vn 0.0000 -0.4339 0.9010
vn 0.0000 -0.0000 1.0000
vn 0.0000 -0.4339 -0.9010
vn 0.0000 -0.4339 -0.9010
vn -0.0000 -0.7818 0.6235
vn -0.0000 -0.4339 0.9010
vn 0.0000 -0.7818 -0.6235
vn 0.0000 -0.7818 -0.6235
vn 0.0000 -0.9749 0.2225
vn 0.0000 -0.7818 0.6235
vn 0.0000 -0.9749 -0.2225
vn 0.0000 -0.9749 -0.2225
vn 0.0000 -0.9749 0.2225
f 1//1 2//2 3//3
f 4//4 2//2 1//1
f 4//4 5//5 2//2
f 6//6 7//7 5//5
f 8//8 9//9 7//7
f 8//8 10//10 9//9
f 8//8 11//11 10//10
f 8//8 12//12 11//11
f 7//7 9//9 13//13
f 7//7 13//13 14//14
f 10//10 15//15 16//16
f 7//7 14//14 17//17
f 10//10 11//11 15//15
f 18//18 16//16 15//15
f 16//16 18//18 19//19
f 17//17 14//14 20//20
f 17//17 20//20 21//21
f 22//22 19//19 18//18
f 19//19 22//22 23//23
f 24//24 25//25 12//12
f 24//24 12//12 26//26
f 25//25 24//24 27//27
f 25//25 27//27 28//28
f 29//29 30//30 31//31
f 30//30 29//29 32//32
f 31//31 33//33 34//34
f 33//33 31//31 30//30
f 35//35 28//28 27//27
f 28//28 35//35 36//36
f 34//34 33//33 37//37
f 34//34 37//37 38//38
f 39//39 40//40 41//41
f 40//40 42//42 43//43
f 42//42 44//44 45//45
f 44//44 46//46 47//47
f 46//46 48//48 49//49
f 48//48 50//50 51//51
f 6//6 5//5 4//4
f 6//6 8//8 7//7
f 8//8 26//26 12//12
f 8//8 29//29 26//26
f 8//8 32//32 29//29
f 8//8 52//52 32//32
f 53//53 54//54 52//52
f 8//8 53//53 52//52
f 53//53 55//55 54//54
f 53//53 56//56 55//55
f 53//53 57//57 56//56
f 53//53 58//58 57//57
f 53//53 59//59 58//58
f 53//53 60//60 59//59
f 52//52 61//61 62//62
f 52//52 54//54 61//61
f 62//62 63//63 64//64
f 63//63 62//62 61//61
f 55//55 65//65 66//66
f 55//55 56//56 65//65
f 67//67 66//66 65//65
f 66//66 67//67 68//68
f 69//69 64//64 63//63
f 64//64 69//69 70//70
f 71//71 68//68 67//67
f 68//68 71//71 72//72
f 73//73 74//74 57//57
f 73//73 57//57 58//58
f 74//74 73//73 75//75
f 74//74 75//75 76//76
f 60//60 77//77 59//59
f 60//60 78//78 77//77
f 78//78 79//79 77//77
f 80//80 76//76 75//75
f 76//76 80//80 81//81
f 78//78 82//82 79//79
f 78//78 83//83 82//82
f 84//84 39//39 85//85
f 86//86 84//84 87//87
f 86//86 88//88 89//89
f 89//89 90//90 91//91
f 91//91 92//92 93//93
f 93//93 94//94 95//95
f 95//95 96//96 97//97
f 21//21 20//20 98//98
f 98//98 20//20 99//99
f 100//100 23//23 22//22
f 23//23 100//100 101//101
f 98//98 99//99 102//102
f 98//98 102//102 103//103
f 103//103 102//102 104//104
f 105//105 101//101 100//100
f 105//105 106//106 101//101
f 106//106 107//107 108//108
f 106//106 105//105 107//107
f 109//109 36//36 35//35
f 36//36 109//109 110//110
f 111//111 38//38 37//37
f 111//111 112//112 38//38
f 113//113 110//110 109//109
f 110//110 113//113 114//114
f 115//115 116//116 114//114
f 115//115 114//114 113//113
f 112//112 117//117 118//118
f 117//117 112//112 111//111
f 119//119 120//120 118//118
f 119//119 118//118 117//117
f 103//103 104//104 121//121
f 121//121 104//104 108//108
f 121//121 108//108 107//107
f 121//121 107//107 116//116
f 121//121 116//116 115//115
f 121//121 115//115 120//120
f 121//121 119//119 122//122
f 121//121 120//120 119//119
f 122//122 119//119 123//123
f 122//122 123//123 124//124
f 122//122 124//124 125//125
f 122//122 125//125 126//126
f 127//127 128//128 122//122
f 129//129 130//130 128//128
f 50//50 131//131 132//132
f 131//131 133//133 134//134
f 133//133 135//135 136//136
f 135//135 137//137 138//138
f 137//137 139//139 140//140
f 141//141 142//142 139//139
f 143//143 144//144 141//141
f 145//145 70//70 69//69
f 145//145 146//146 70//70
f 147//147 72//72 71//71
f 72//72 147//147 148//148
f 149//149 150//150 146//146
f 149//149 146//146 145//145
f 150//150 124//124 123//123
f 124//124 150//150 149//149
f 151//151 148//148 147//147
f 148//148 151//151 152//152
f 152//152 126//126 125//125
f 152//152 151//151 126//126
f 153//153 81//81 80//80
f 81//81 153//153 154//154
f 83//83 155//155 82//82
f 155//155 156//156 82//82
f 157//157 154//154 153//153
f 154//154 157//157 158//158
f 158//158 159//159 160//160
f 155//155 127//127 156//156
f 158//158 157//157 159//159
f 127//127 161//161 156//156
f 127//127 162//162 161//161
f 122//122 126//126 160//160
f 122//122 160//160 159//159
f 122//122 159//159 162//162
f 127//127 122//122 162//162
f 127//127 129//129 128//128
f 129//129 163//163 130//130
f 163//163 164//164 130//130
f 163//163 165//165 164//164
f 97//97 166//166 167//167
f 167//167 168//168 169//169
f 169//169 170//170 171//171
f 171//171 172//172 173//173
f 173//173 174//174 175//175
f 175//175 176//176 143//143
f 40//40 43//43 41//41
f 42//42 45//45 43//43
f 44//44 47//47 45//45
f 46//46 49//49 47//47
f 85//85 39//39 41//41
f 48//48 51//51 49//49
f 50//50 132//132 51//51
f 177//177 178//178 179//179
f 180//180 177//177 179//179
f 180//180 179//179 181//181
f 182//182 181//181 183//183
f 184//184 183//183 185//185
f 184//184 185//185 186//186
f 184//184 186//186 187//187
f 184//184 187//187 188//188
f 183//183 189//189 185//185
f 183//183 190//190 189//189
f 190//190 191//191 189//189
f 192//192 187//187 186//186
f 187//187 192//192 193//193
f 194//194 193//193 192//192
f 194//194 195//195 193//193
f 190//190 196//196 191//191
f 196//196 197//197 191//191
f 198//198 195//195 194//194
f 198//198 199//199 195//195
f 200//200 188//188 201//201
f 202//202 200//200 201//201
f 202//202 203//203 200//200
f 204//204 205//205 206//206
f 205//205 207//207 206//206
f 208//208 207//207 205//205
f 203//203 202//202 209//209
f 203//203 209//209 210//210
f 209//209 211//211 210//210
f 207//207 208//208 212//212
f 207//207 212//212 213//213
f 212//212 214//214 213//213
f 84//84 85//85 87//87
f 86//86 87//87 88//88
f 89//89 88//88 90//90
f 91//91 90//90 92//92
f 93//93 92//92 94//94
f 95//95 94//94 96//96
f 182//182 180//180 181//181
f 182//182 183//183 184//184
f 184//184 188//188 200//200
f 184//184 200//200 204//204
f 184//184 204//204 206//206
f 184//184 206//206 215//215
f 216//216 215//215 217//217
f 184//184 215//215 216//216
f 216//216 217//217 218//218
f 216//216 218//218 219//219
f 216//216 219//219 220//220
f 216//216 220//220 221//221
f 216//216 221//221 222//222
f 216//216 222//222 223//223
f 216//216 223//223 224//224
f 216//216 224//224 225//225
f 217//217 215//215 226//226
f 217//217 226//226 227//227
f 217//217 227//227 228//228
f 227//227 229//229 228//228
f 220//220 219//219 230//230
f 231//231 230//230 219//219
f 231//231 232//232 230//230
f 233//233 229//229 227//227
f 233//233 234//234 229//229
f 235//235 232//232 231//231
f 235//235 236//236 232//232
f 222//222 221//221 237//237
f 222//222 237//237 238//238
f 238//238 239//239 240//240
f 222//222 238//238 240//240
f 225//225 224//224 241//241
f 225//225 241//241 242//242
f 243//243 239//239 238//238
f 243//243 244//244 239//239
f 242//242 241//241 245//245
f 242//242 245//245 246//246
f 132//132 131//131 134//134
f 133//133 136//136 134//134
f 135//135 138//138 136//136
f 137//137 140//140 138//138
f 139//139 142//142 140//140
f 141//141 144//144 142//142
f 196//196 247//247 197//197
f 247//247 248//248 197//197
f 249//249 199//199 198//198
f 249//249 250//250 199//199
f 247//247 251//251 248//248
f 251//251 252//252 248//248
f 250//250 253//253 254//254
f 250//250 249//249 253//253
f 250//250 254//254 255//255
f 254//254 256//256 255//255
f 257//257 211//211 209//209
f 211//211 257//257 258//258
f 259//259 214//214 212//212
f 214//214 259//259 260//260
f 261//261 258//258 257//257
f 261//261 262//262 258//258
f 263//263 262//262 261//261
f 264//264 260//260 259//259
f 260//260 264//264 265//265
f 260//260 265//265 266//266
f 265//265 267//267 266//266
f 251//251 268//268 252//252
f 268//268 269//269 252//252
f 268//268 254//254 269//269
f 268//268 256//256 254//254
f 268//268 263//263 256//256
f 268//268 262//262 263//263
f 268//268 270//270 262//262
f 268//268 265//265 270//270
f 268//268 271//271 267//267
f 268//268 267//267 265//265
f 271//271 272//272 267//267
f 271//271 273//273 272//272
f 271//271 274//274 273//273
f 271//271 275//275 274//274
f 276//276 271//271 277//277
f 278//278 277//277 279//279
f 97//97 96//96 166//166
f 167//167 166//166 168//168
f 143//143 176//176 144//144
f 169//169 168//168 170//170
f 171//171 170//170 172//172
f 173//173 172//172 174//174
f 175//175 174//174 176//176
f 280//280 234//234 233//233
f 234//234 280//280 281//281
f 234//234 281//281 282//282
f 283//283 236//236 235//235
f 236//236 283//283 284//284
f 236//236 284//284 285//285
f 282//282 281//281 286//286
f 272//272 286//286 281//281
f 273//273 286//286 272//272
f 274//274 285//285 284//284
f 274//274 287//287 285//285
f 274//274 275//275 287//287
f 288//288 244//244 243//243
f 288//288 289//289 244//244
f 246//246 245//245 290//290
f 246//246 290//290 291//291
f 292//292 289//289 288//288
f 292//292 293//293 289//289
f 294//294 293//293 292//292
f 294//294 295//295 293//293
f 291//291 290//290 296//296
f 291//291 296//296 276//276
f 276//276 296//296 297//297
f 271//271 294//294 275//275
f 271//271 295//295 294//294
f 271//271 297//297 295//295
f 276//276 297//297 271//271
f 276//276 277//277 278//278
f 278//278 279//279 298//298
f 298//298 279//279 299//299
f 298//298 299//299 300//300
f 301//301 302//302 303//303
f 304//304 301//301 305//305
f 302//302 306//306 307//307
f 308//308 304//304 309//309
f 306//306 310//310 311//311
f 312//312 308//308 313//313
f 310//310 314//314 315//315
f 316//316 312//312 317//317
f 314//314 318//318 319//319
f 320//320 316//316 321//321
f 318//318 322//322 323//323
f 324//324 320//320 325//325
f 322//322 326//326 327//327
f 326//326 324//324 328//328
f 301//301 303//303 305//305
f 304//304 305//305 309//309
f 302//302 307//307 303//303
f 309//309 313//313 308//308
f 311//311 307//307 306//306
f 315//315 311//311 310//310
f 313//313 317//317 312//312
f 319//319 315//315 314//314
f 317//317 321//321 316//316
f 320//320 321//321 325//325
f 318//318 323//323 319//319
f 325//325 328//328 324//324
f 327//327 323//323 322//322
f 326//326 328//328 327//327
f 329//329 330//330 331//331
f 332//332 329//329 333//333
f 330//330 334//334 335//335
f 336//336 332//332 337//337
f 334//334 338//338 339//339
f 340//340 336//336 341//341
f 338//338 342//342 343//343
f 344//344 340//340 345//345
f 342//342 346//346 347//347
f 348//348 344//344 349//349
f 346//346 350//350 351//351
f 352//352 348//348 353//353
f 350//350 354//354 355//355
f 354//354 352//352 356//356
f 329//329 331//331 333//333
f 332//332 333//333 337//337
f 330//330 335//335 331//331
f 337//337 341//341 336//336
f 339//339 335//335 334//334
f 343//343 339//339 338//338
f 341//341 345//345 340//340
f 347//347 343//343 342//342
f 345//345 349//349 344//344
f 351//351 347//347 346//346
f 349//349 353//353 348//348
f 352//352 353//353 356//356
f 350//350 355//355 351//351
f 354//354 356//356 355//355
f 357//357 358//358 359//359
f 360//360 357//357 361//361
f 358//358 362//362 363//363
f 364//364 360//360 365//365
f 362//362 366//366 367//367
f 368//368 364//364 369//369
f 366//366 370//370 371//371
f 372//372 368//368 373//373
f 370//370 374//374 375//375
f 376//376 372//372 377//377
f 378//378 376//376 379//379
f 380//380 381//381 382//382
f 374//374 380//380 383//383
f 381//381 378//378 384//384
f 357//357 359//359 361//361
f 361//361 365//365 360//360
f 359//359 358//358 363//363
f 365//365 369//369 364//364
f 367//367 363//363 362//362
f 369//369 373//373 368//368
f 371//371 367//367 366//366
f 373//373 377//377 372//372
f 375//375 371//371 370//370
f 377//377 379//379 376//376
f 382//382 383//383 380//380
f 379//379 384//384 378//378
f 383//383 375//375 374//374
f 381//381 384//384 382//382
f 385//385 386//386 387//387
f 388//388 385//385 389//389
f 390//390 388//388 391//391
f 386//386 392//392 393//393
f 392//392 394//394 395//395
f 394//394 396//396 397//397
f 396//396 398//398 399//399
f 400//400 390//390 401//401
f 402//402 400//400 403//403
f 404//404 402//402 405//405
f 406//406 404//404 407//407
f 398//398 408//408 409//409
f 408//408 410//410 411//411
f 410//410 406//406 412//412
f 386//386 393//393 387//387
f 387//387 389//389 385//385
f 389//389 391//391 388//388
f 391//391 401//401 390//390
f 393//393 392//392 395//395
f 397//397 395//395 394//394
f 399//399 397//397 396//396
f 401//401 403//403 400//400
f 403//403 405//405 402//402
f 407//407 404//404 405//405
f 409//409 399//399 398//398
f 411//411 409//409 408//408
f 412//412 411//411 410//410
f 406//406 407//407 412//412
f 413//413 414//414 415//415
f 416//416 417//417 418//418
f 417//417 413//413 419//419
f 414//414 420//420 421//421
f 420//420 422//422 423//423
f 424//424 416//416 425//425
f 422//422 426//426 427//427
f 428//428 424//424 429//429
f 426//426 430//430 431//431
f 432//432 428//428 433//433
f 430//430 434//434 435//435
f 436//436 432//432 437//437
f 434//434 438//438 439//439
f 438//438 436//436 440//440
f 413//413 415//415 419//419
f 418//418 425//425 416//416
f 421//421 415//415 414//414
f 419//419 418//418 417//417
f 423//423 421//421 420//420
f 425//425 429//429 424//424
f 427//427 423//423 422//422
f 429//429 433//433 428//428
f 431//431 427//427 426//426
f 433//433 437//437 432//432
f 435//435 431//431 430//430
f 440//440 436//436 437//437
f 439//439 435//435 434//434
f 438//438 440//440 439//439
f 441//441 442//442 443//443
f 444//444 441//441 445//445
f 442//442 446//446 447//447
f 448//448 444//444 449//449
f 446//446 450//450 451//451
f 452//452 448//448 453//453
f 450//450 454//454 455//455
f 456//456 452//452 457//457
f 454//454 458//458 459//459
f 460//460 456//456 461//461
f 458//458 462//462 463//463
f 464//464 460//460 465//465
f 462//462 466//466 467//467
f 466//466 464//464 468//468
f 441//441 443//443 445//445
f 444//444 445//445 449//449
f 442//442 447//447 443//443
f 451//451 447//447 446//446
f 449//449 453//453 448//448
f 455//455 451//451 450//450
f 453//453 457//457 452//452
f 459//459 455//455 454//454
f 457//457 461//461 456//456
f 461//461 465//465 460//460
f 463//463 459//459 458//458
f 464//464 465//465 468//468
f 462//462 467//467 463//463
f 466//466 468//468 467//467
f 469//469 470//470 471//471
f 472//472 469//469 473//473
f 470//470 474//474 475//475
f 476//476 472//472 477//477
f 474//474 478//478 479//479
f 480//480 476//476 481//481
f 478//478 482//482 483//483
f 484//484 480//480 485//485
f 482//482 486//486 487//487
f 488//488 484//484 489//489
f 486//486 490//490 491//491
f 492//492 488//488 493//493
f 490//490 494//494 495//495
f 494//494 492//492 496//496
f 469//469 471//471 473//473
f 473//473 477//477 472//472
f 475//475 471//471 470//470
f 476//476 477//477 481//481
f 474//474 479//479 475//475
f 483//483 479//479 478//478
f 481//481 485//485 480//480
f 487//487 483//483 482//482
f 485//485 489//489 484//484
f 489//489 493//493 488//488
f 491//491 487//487 486//486
f 492//492 493//493 496//496
f 490//490 495//495 491//491
f 494//494 496//496 495//495
