v 0.12300 -0.07000 0.50000
v -0.12300 -0.07000 0.50000
v -0.12300 -0.10000 0.50000
v 0.12300 -0.04781 0.45833
v -0.12300 -0.04781 0.45833
v -0.12300 -0.07000 0.50000
v 0.12300 -0.02600 0.41667
v -0.12300 -0.02600 0.41667
v 0.12300 -0.00494 0.37500
v -0.12300 -0.00494 0.37500
v -0.12300 -0.02600 -0.41667
v -0.12300 -0.10000 0.50000
v -0.12300 -0.07000 0.50000
v 0.12300 -0.10000 0.50000
v -0.12300 -0.10000 0.50000
v -0.12300 -0.10000 -0.50000
v -0.12300 -0.00494 -0.37500
v -0.12300 -0.04781 0.45833
v -0.12300 0.01500 -0.33333
v -0.12300 -0.02600 0.41667
v 0.12300 -0.10000 0.50000
v 0.12300 -0.07000 0.50000
v 0.12300 -0.02600 -0.41667
v 0.12300 -0.07000 0.50000
v 0.12300 -0.10000 0.50000
v 0.12300 -0.00494 -0.37500
v 0.12300 -0.04781 0.45833
v 0.12300 0.01500 -0.33333
v 0.12300 -0.02600 0.41667
v 0.12300 0.01500 0.33333
v -0.12300 0.01500 0.33333
v 0.12300 0.03349 0.29167
v -0.12300 0.03349 0.29167
v 0.12300 0.05021 0.25000
v -0.12300 0.05021 0.25000
v -0.12300 0.03349 -0.29167
v -0.12300 -0.00494 0.37500
v -0.12300 0.05021 -0.25000
v -0.12300 0.01500 0.33333
v -0.12300 0.06487 -0.20833
v -0.12300 0.03349 0.29167
v -0.12300 0.07722 -0.16667
v -0.12300 0.05021 0.25000
v -0.12300 0.08706 -0.12500
v -0.12300 0.06487 0.20833
v -0.12300 0.09421 -0.08333
v -0.12300 0.07722 0.16667
v -0.12300 0.09855 -0.04167
v -0.12300 0.08706 0.12500
v -0.12300 0.10000 0.00000
v -0.12300 0.09421 0.08333
v -0.12300 0.09855 0.04167
v 0.12300 0.06487 0.20833
v -0.12300 0.06487 0.20833
v 0.12300 0.07722 0.16667
v -0.12300 0.07722 0.16667
v 0.12300 0.08706 0.12500
v -0.12300 0.08706 0.12500
v 0.12300 0.09421 0.08333
v -0.12300 0.09421 0.08333
v 0.12300 0.09855 0.04167
v -0.12300 0.09855 0.04167
v 0.12300 0.10000 0.00000
v -0.12300 0.10000 0.00000
v 0.12300 0.03349 -0.29167
v 0.12300 -0.00494 0.37500
v 0.12300 0.05021 -0.25000
v 0.12300 0.01500 0.33333
v 0.12300 0.06487 -0.20833
v 0.12300 0.03349 0.29167
v 0.12300 0.07722 -0.16667
v 0.12300 0.05021 0.25000
v 0.12300 0.08706 -0.12500
v 0.12300 0.06487 0.20833
v 0.12300 0.09421 -0.08333
v 0.12300 0.07722 0.16667
v 0.12300 0.09855 -0.04167
v 0.12300 0.08706 0.12500
v 0.12300 0.10000 0.00000
v 0.12300 0.09421 0.08333
v 0.12300 0.09855 0.04167
v -0.12300 -0.04781 -0.45833
v -0.12300 -0.10000 -0.50000
v -0.12300 -0.07000 -0.50000
v 0.12300 -0.10000 -0.50000
v -0.12300 -0.10000 -0.50000
v -0.12300 -0.07000 -0.50000
v 0.12300 -0.07000 -0.50000
v -0.12300 -0.07000 -0.50000
v -0.12300 -0.04781 -0.45833
v 0.12300 -0.04781 -0.45833
v -0.12300 -0.02600 -0.41667
v 0.12300 -0.02600 -0.41667
v -0.12300 -0.00494 -0.37500
v 0.12300 -0.10000 -0.50000
v 0.12300 -0.04781 -0.45833
v 0.12300 -0.10000 -0.50000
v 0.12300 -0.07000 -0.50000
v 0.12300 -0.07000 -0.50000
v 0.12300 -0.00494 -0.37500
v 0.12300 0.09855 -0.04167
v -0.12300 0.09855 -0.04167
v 0.12300 0.09421 -0.08333
v -0.12300 0.09421 -0.08333
v 0.12300 0.08706 -0.12500
v -0.12300 0.08706 -0.12500
v 0.12300 0.05021 -0.25000
v -0.12300 0.05021 -0.25000
v -0.12300 0.06487 -0.20833
v 0.12300 0.06487 -0.20833
v -0.12300 0.07722 -0.16667
v 0.12300 0.07722 -0.16667
v -0.12300 0.01500 -0.33333
v 0.12300 0.01500 -0.33333
v -0.12300 0.03349 -0.29167
v 0.12300 0.03349 -0.29167
vn 0.0000 0.0000 1.0000
vn 0.0000 0.0000 1.0000
vn 0.0000 0.0000 1.0000
vn 0.0000 0.8843 0.4669
vn 0.0000 0.8843 0.4669
vn 0.0000 0.8826 0.4700
vn 0.0000 0.8893 0.4574
vn 0.0000 0.8893 0.4574
vn 0.0000 0.8973 0.4414
vn 0.0000 0.8973 0.4414
vn -1.0000 0.0000 0.0000
vn -1.0000 0.0000 0.0000
vn -1.0000 0.0000 0.0000
vn 0.0000 -1.0000 0.0000
vn 0.0000 -1.0000 0.0000
vn 0.0000 -1.0000 0.0000
vn -1.0000 0.0000 0.0000
vn -1.0000 0.0000 0.0000
vn -1.0000 0.0000 0.0000
vn -1.0000 0.0000 0.0000
vn 0.0000 0.0000 1.0000
vn 0.0000 0.8826 0.4700
vn 1.0000 0.0000 0.0000
vn 1.0000 0.0000 0.0000
vn 1.0000 0.0000 0.0000
vn 1.0000 0.0000 0.0000
vn 1.0000 0.0000 0.0000
vn 1.0000 0.0000 0.0000
vn 1.0000 0.0000 0.0000
vn 0.0000 0.9081 0.4187
vn 0.0000 0.9081 0.4187
vn 0.0000 0.9212 0.3891
vn -0.0000 0.9212 0.3891
vn -0.0000 0.9359 0.3522
vn 0.0000 0.9359 0.3522
vn -1.0000 0.0000 0.0000
vn -1.0000 0.0000 0.0000
vn -1.0000 0.0000 0.0000
vn -1.0000 0.0000 0.0000
vn -1.0000 0.0000 0.0000
vn -1.0000 0.0000 0.0000
vn -1.0000 0.0000 0.0000
vn -1.0000 0.0000 0.0000
vn -1.0000 0.0000 0.0000
vn -1.0000 0.0000 0.0000
vn -1.0000 0.0000 0.0000
vn -1.0000 0.0000 0.0000
vn -1.0000 0.0000 0.0000
vn -1.0000 0.0000 0.0000
vn -1.0000 0.0000 0.0000
vn -1.0000 0.0000 0.0000
vn -1.0000 0.0000 0.0000
vn 0.0000 0.9513 0.3082
vn 0.0000 0.9513 0.3082
vn 0.0000 0.9664 0.2571
vn -0.0000 0.9664 0.2571
vn -0.0000 0.9799 0.1995
vn -0.0000 0.9799 0.1995
vn -0.0000 0.9907 0.1364
vn 0.0000 0.9907 0.1364
vn 0.0000 0.9976 0.0693
vn 0.0000 0.9976 0.0693
vn 0.0000 1.0000 0.0000
vn 0.0000 1.0000 0.0000
vn 1.0000 0.0000 0.0000
vn 1.0000 0.0000 0.0000
vn 1.0000 0.0000 0.0000
vn 1.0000 0.0000 0.0000
vn 1.0000 0.0000 0.0000
vn 1.0000 0.0000 0.0000
vn 1.0000 0.0000 0.0000
vn 1.0000 0.0000 0.0000
vn 1.0000 0.0000 0.0000
vn 1.0000 0.0000 0.0000
vn 1.0000 0.0000 0.0000
vn 1.0000 0.0000 0.0000
vn 1.0000 0.0000 0.0000
vn 1.0000 0.0000 0.0000
vn 1.0000 0.0000 0.0000
vn 1.0000 0.0000 0.0000
vn 1.0000 0.0000 0.0000
vn -1.0000 0.0000 0.0000
vn -1.0000 0.0000 0.0000
vn -1.0000 0.0000 0.0000
vn 0.0000 0.0000 -1.0000
vn 0.0000 0.0000 -1.0000
vn 0.0000 0.0000 -1.0000
vn 0.0000 0.8826 -0.4700
vn 0.0000 0.8826 -0.4700
vn 0.0000 0.8843 -0.4669
vn -0.0000 0.8843 -0.4669
vn -0.0000 0.8893 -0.4574
vn -0.0000 0.8893 -0.4574
vn -0.0000 0.8973 -0.4414
vn 0.0000 -1.0000 0.0000
vn 1.0000 0.0000 0.0000
vn 1.0000 0.0000 0.0000
vn 0.0000 0.0000 -1.0000
vn 1.0000 0.0000 0.0000
vn 0.0000 0.8973 -0.4414
vn 0.0000 0.9976 -0.0693
vn 0.0000 0.9976 -0.0693
vn 0.0000 0.9907 -0.1364
vn 0.0000 0.9907 -0.1364
vn 0.0000 0.9799 -0.1995
vn 0.0000 0.9799 -0.1995
vn -0.0000 0.9359 -0.3522
vn 0.0000 0.9359 -0.3522
vn -0.0000 0.9513 -0.3082
vn -0.0000 0.9513 -0.3082
vn -0.0000 0.9664 -0.2571
vn 0.0000 0.9664 -0.2571
vn 0.0000 0.9081 -0.4187
vn 0.0000 0.9081 -0.4187
vn 0.0000 0.9212 -0.3891
vn 0.0000 0.9212 -0.3891
f 1//1 2//2 3//3
f 4//4 5//5 6//6
f 7//7 8//8 5//5
f 9//9 10//10 8//8
f 11//11 12//12 13//13
f 14//14 15//15 16//16
f 17//17 13//13 18//18
f 19//19 18//18 20//20
f 21//21 1//1 3//3
f 22//22 4//4 6//6
f 4//4 7//7 5//5
f 7//7 9//9 8//8
f 23//23 24//24 25//25
f 26//26 27//27 24//24
f 28//28 29//29 27//27
f 30//30 31//31 10//10
f 32//32 33//33 31//31
f 34//34 35//35 33//33
f 36//36 20//20 37//37
f 38//38 37//37 39//39
f 40//40 39//39 41//41
f 42//42 41//41 43//43
f 44//44 43//43 45//45
f 46//46 45//45 47//47
f 48//48 47//47 49//49
f 50//50 49//49 51//51
f 50//50 51//51 52//52
f 46//46 47//47 48//48
f 48//48 49//49 50//50
f 53//53 54//54 35//35
f 55//55 56//56 54//54
f 57//57 58//58 56//56
f 59//59 60//60 58//58
f 61//61 62//62 60//60
f 63//63 64//64 62//62
f 9//9 30//30 10//10
f 30//30 32//32 31//31
f 32//32 34//34 33//33
f 65//65 66//66 29//29
f 67//67 68//68 66//66
f 69//69 70//70 68//68
f 34//34 53//53 35//35
f 53//53 55//55 54//54
f 55//55 57//57 56//56
f 57//57 59//59 58//58
f 59//59 61//61 60//60
f 61//61 63//63 62//62
f 71//71 72//72 70//70
f 73//73 74//74 72//72
f 75//75 76//76 74//74
f 77//77 78//78 76//76
f 79//79 80//80 78//78
f 79//79 81//81 80//80
f 75//75 77//77 76//76
f 77//77 79//79 78//78
f 82//82 83//83 12//12
f 82//82 12//12 11//11
f 11//11 13//13 17//17
f 17//17 18//18 19//19
f 84//84 83//83 82//82
f 85//85 86//86 87//87
f 88//88 89//89 90//90
f 91//91 90//90 92//92
f 93//93 92//92 94//94
f 95//95 14//14 16//16
f 96//96 25//25 97//97
f 96//96 23//23 25//25
f 23//23 26//26 24//24
f 26//26 28//28 27//27
f 98//98 85//85 87//87
f 91//91 88//88 90//90
f 99//99 96//96 97//97
f 93//93 91//91 92//92
f 100//100 93//93 94//94
f 19//19 20//20 36//36
f 36//36 37//37 38//38
f 38//38 39//39 40//40
f 40//40 41//41 42//42
f 42//42 43//43 44//44
f 44//44 45//45 46//46
f 101//101 102//102 64//64
f 103//103 104//104 102//102
f 105//105 106//106 104//104
f 107//107 108//108 109//109
f 110//110 109//109 111//111
f 112//112 111//111 106//106
f 100//100 94//94 113//113
f 114//114 113//113 115//115
f 116//116 115//115 108//108
f 28//28 65//65 29//29
f 65//65 67//67 66//66
f 67//67 69//69 68//68
f 63//63 101//101 64//64
f 101//101 103//103 102//102
f 103//103 105//105 104//104
f 112//112 110//110 111//111
f 110//110 107//107 109//109
f 105//105 112//112 106//106
f 69//69 71//71 70//70
f 71//71 73//73 72//72
f 73//73 75//75 74//74
f 114//114 100//100 113//113
f 116//116 114//114 115//115
f 107//107 116//116 108//108
