v -0.24566 -0.14666 -0.24000
v -0.24000 -0.14666 -0.24566
v -0.24000 -0.14900 -0.24000
v -0.24566 -0.14100 -0.24566
v -0.24800 -0.14100 -0.24000
v -0.24000 -0.14100 -0.24800
v -0.24000 -0.14900 0.24000
v -0.24800 -0.14100 0.24000
v -0.24566 0.14100 -0.24566
v -0.24000 0.14100 -0.24800
v 0.24000 -0.14900 -0.24000
v 0.24000 -0.14100 -0.24800
v -0.24566 -0.14666 0.24000
v -0.24000 -0.14666 0.24566
v -0.24566 -0.14100 0.24566
v -0.24000 -0.14100 0.24800
v -0.24800 0.14100 0.24000
v -0.24000 0.14100 0.24800
v 0.24000 -0.14666 0.24566
v 0.24000 -0.14100 0.24800
v -0.24800 0.14100 -0.24000
v -0.24566 0.14666 -0.24000
v -0.24000 0.14666 -0.24566
v -0.24000 0.14900 -0.24000
v -0.18995 0.14900 -0.16250
v -0.16250 0.14900 -0.18995
v -0.20000 0.14900 -0.12500
v -0.18995 0.14900 -0.08750
v -0.12500 0.14900 -0.20000
v -0.24000 0.14900 0.24000
v -0.20000 0.14900 0.12500
v -0.18995 0.14900 0.08750
v -0.16250 0.14900 -0.06005
v -0.12500 0.14900 0.05000
v -0.12500 0.14900 -0.05000
v 0.24000 0.14666 -0.24566
v 0.12500 0.14900 -0.20000
v -0.08750 0.14900 -0.18995
v 0.08750 0.14900 -0.18995
v -0.06005 0.14900 -0.16250
v -0.05000 0.14900 -0.12500
v 0.05000 0.14900 -0.12500
v -0.08750 0.14900 -0.06005
v -0.06005 0.14900 -0.08750
v 0.06005 0.14900 -0.08750
v -0.08750 0.14900 0.06005
v -0.24566 0.14100 0.24566
v -0.24566 0.14666 0.24000
v -0.16250 0.14900 0.06005
v -0.18995 0.14900 0.16250
v -0.24000 0.14666 0.24566
v -0.16250 0.14900 0.18995
v -0.12500 0.14900 0.20000
v -0.06005 0.14900 0.08750
v 0.12500 0.14900 0.20000
v 0.24000 0.14666 0.24566
v -0.08750 0.14900 0.18995
v 0.08750 0.14900 0.18995
v -0.06005 0.14900 0.16250
v 0.24000 -0.14666 -0.24566
v 0.24566 -0.14666 -0.24000
v 0.24566 -0.14100 -0.24566
v 0.24800 -0.14100 -0.24000
v 0.24566 -0.14666 0.24000
v 0.24566 0.14100 -0.24566
v 0.24800 0.14100 -0.24000
v 0.24800 -0.14100 0.24000
v 0.24000 -0.14900 0.24000
v 0.24566 -0.14100 0.24566
v 0.24566 0.14100 0.24566
v 0.24800 0.14100 0.24000
v 0.24000 0.14100 -0.24800
v 0.24000 0.14900 -0.24000
v 0.06005 0.14900 -0.16250
v 0.08750 0.14900 -0.06005
v 0.12500 0.14900 -0.05000
v 0.16250 0.14900 -0.18995
v 0.18995 0.14900 -0.16250
v 0.24566 0.14666 -0.24000
v 0.20000 0.14900 -0.12500
v 0.16250 0.14900 -0.06005
v 0.18995 0.14900 0.08750
v 0.18995 0.14900 -0.08750
v 0.20000 0.14900 0.12500
v 0.24000 0.14900 0.24000
v 0.24000 0.14100 0.24800
v -0.05000 0.14900 0.12500
v 0.06005 0.14900 0.08750
v 0.08750 0.14900 0.06005
v 0.05000 0.14900 0.12500
v 0.06005 0.14900 0.16250
v 0.12500 0.14900 0.05000
v 0.16250 0.14900 0.06005
v 0.24566 0.14666 0.24000
v 0.16250 0.14900 0.18995
v 0.18995 0.14900 0.16250
v -0.18995 0.19900 -0.16250
v -0.18995 0.14900 -0.16250
v -0.20000 0.14900 -0.12500
v -0.20000 0.19900 -0.12500
v -0.18995 0.19900 -0.16250
v -0.20000 0.19900 -0.12500
v -0.18995 0.19900 -0.08750
v -0.12500 0.19900 -0.20000
v -0.12500 0.14900 -0.20000
v -0.16250 0.14900 -0.18995
v -0.16250 0.19900 -0.18995
v -0.16250 0.19900 -0.18995
v -0.16250 0.19900 -0.06005
v -0.12500 0.19900 -0.20000
v -0.18995 0.14900 -0.08750
v -0.18995 0.19900 -0.08750
v -0.16250 0.14900 -0.06005
v -0.16250 0.19900 -0.06005
v -0.12500 0.19900 -0.05000
v -0.12500 0.14900 -0.05000
v -0.12500 0.19900 -0.05000
v -0.08750 0.19900 -0.18995
v -0.08750 0.14900 -0.18995
v -0.08750 0.19900 -0.18995
v -0.06005 0.19900 -0.16250
v -0.06005 0.14900 -0.16250
v -0.08750 0.19900 -0.06005
v -0.06005 0.19900 -0.16250
v -0.05000 0.19900 -0.12500
v -0.05000 0.14900 -0.12500
v -0.06005 0.19900 -0.08750
v -0.05000 0.19900 -0.12500
v -0.08750 0.19900 -0.06005
v -0.08750 0.14900 -0.06005
v -0.06005 0.14900 -0.08750
v -0.06005 0.19900 -0.08750
v -0.18995 0.19900 0.08750
v -0.18995 0.14900 0.08750
v -0.20000 0.14900 0.12500
v -0.20000 0.19900 0.12500
v -0.12500 0.19900 0.05000
v -0.12500 0.14900 0.05000
v -0.16250 0.14900 0.06005
v -0.16250 0.19900 0.06005
v -0.18995 0.19900 0.08750
v -0.18995 0.19900 0.16250
v -0.16250 0.19900 0.06005
v -0.16250 0.19900 0.18995
v -0.12500 0.19900 0.05000
v -0.18995 0.14900 0.16250
v -0.18995 0.19900 0.16250
v -0.20000 0.19900 0.12500
v -0.16250 0.14900 0.18995
v -0.16250 0.19900 0.18995
v -0.12500 0.19900 0.20000
v -0.12500 0.14900 0.20000
v -0.12500 0.19900 0.20000
v -0.08750 0.19900 0.06005
v -0.08750 0.14900 0.06005
v -0.08750 0.19900 0.06005
v -0.06005 0.19900 0.08750
v -0.06005 0.14900 0.08750
v -0.08750 0.19900 0.18995
v -0.06005 0.19900 0.08750
v -0.05000 0.19900 0.12500
v -0.05000 0.14900 0.12500
v -0.08750 0.19900 0.18995
v -0.08750 0.14900 0.18995
v -0.06005 0.14900 0.16250
v -0.06005 0.19900 0.16250
v -0.06005 0.19900 0.16250
v -0.05000 0.19900 0.12500
v 0.06005 0.19900 -0.16250
v 0.06005 0.14900 -0.16250
v 0.05000 0.14900 -0.12500
v 0.05000 0.19900 -0.12500
v 0.06005 0.19900 -0.16250
v 0.05000 0.19900 -0.12500
v 0.06005 0.19900 -0.08750
v 0.12500 0.19900 -0.20000
v 0.12500 0.14900 -0.20000
v 0.08750 0.14900 -0.18995
v 0.08750 0.19900 -0.18995
v 0.08750 0.19900 -0.18995
v 0.08750 0.19900 -0.06005
v 0.12500 0.19900 -0.20000
v 0.06005 0.14900 -0.08750
v 0.06005 0.19900 -0.08750
v 0.08750 0.14900 -0.06005
v 0.08750 0.19900 -0.06005
v 0.12500 0.19900 -0.05000
v 0.12500 0.14900 -0.05000
v 0.12500 0.19900 -0.05000
v 0.16250 0.19900 -0.18995
v 0.16250 0.14900 -0.18995
v 0.16250 0.19900 -0.18995
v 0.18995 0.19900 -0.16250
v 0.18995 0.14900 -0.16250
v 0.16250 0.19900 -0.06005
v 0.18995 0.19900 -0.16250
v 0.20000 0.19900 -0.12500
v 0.20000 0.14900 -0.12500
v 0.18995 0.19900 -0.08750
v 0.20000 0.19900 -0.12500
v 0.16250 0.19900 -0.06005
v 0.16250 0.14900 -0.06005
v 0.18995 0.14900 -0.08750
v 0.18995 0.19900 -0.08750
v 0.06005 0.19900 0.08750
v 0.06005 0.14900 0.08750
v 0.05000 0.14900 0.12500
v 0.05000 0.19900 0.12500
v 0.12500 0.19900 0.05000
v 0.12500 0.14900 0.05000
v 0.08750 0.14900 0.06005
v 0.08750 0.19900 0.06005
v 0.06005 0.19900 0.08750
v 0.06005 0.19900 0.16250
v 0.08750 0.19900 0.06005
v 0.08750 0.19900 0.18995
v 0.12500 0.19900 0.05000
v 0.06005 0.14900 0.16250
v 0.06005 0.19900 0.16250
v 0.05000 0.19900 0.12500
v 0.08750 0.14900 0.18995
v 0.08750 0.19900 0.18995
v 0.12500 0.19900 0.20000
v 0.12500 0.14900 0.20000
v 0.12500 0.19900 0.20000
v 0.16250 0.19900 0.06005
v 0.16250 0.14900 0.06005
v 0.16250 0.19900 0.06005
v 0.18995 0.19900 0.08750
v 0.18995 0.14900 0.08750
v 0.16250 0.19900 0.18995
v 0.18995 0.19900 0.08750
v 0.20000 0.19900 0.12500
v 0.20000 0.14900 0.12500
v 0.16250 0.19900 0.18995
v 0.16250 0.14900 0.18995
v 0.18995 0.14900 0.16250
v 0.18995 0.19900 0.16250
v 0.18995 0.19900 0.16250
v 0.20000 0.19900 0.12500
vn -0.6887 -0.6887 -0.2265
vn -0.2265 -0.6887 -0.6887
vn -0.1877 -0.9641 -0.1877
vn -0.6887 -0.2265 -0.6887
vn -0.9641 -0.1877 -0.1877
vn -0.1877 -0.1877 -0.9641
vn -0.1877 -0.9641 0.1877
vn -0.9641 -0.1877 0.1877
vn -0.6887 0.2265 -0.6887
vn -0.1877 0.1877 -0.9641
vn 0.1877 -0.9641 -0.1877
vn 0.1877 -0.1877 -0.9641
vn -0.6887 -0.6887 0.2265
vn -0.2265 -0.6887 0.6887
vn -0.6887 -0.2265 0.6887
vn -0.1877 -0.1877 0.9641
vn -0.9641 0.1877 0.1877
vn -0.1877 0.1877 0.9641
vn 0.2265 -0.6887 0.6887
vn 0.1877 -0.1877 0.9641
vn -0.9641 0.1877 -0.1877
vn -0.6887 0.6887 -0.2265
vn -0.2265 0.6887 -0.6887
vn -0.1877 0.9641 -0.1877
vn 0.0000 1.0000 0.0000
vn 0.0000 1.0000 0.0000
vn 0.0000 1.0000 0.0000
vn 0.0000 1.0000 0.0000
vn 0.0000 1.0000 0.0000
vn -0.1877 0.9641 0.1877
vn 0.0000 1.0000 0.0000
vn 0.0000 1.0000 0.0000
vn 0.0000 1.0000 0.0000
vn 0.0000 1.0000 0.0000
vn 0.0000 1.0000 0.0000
vn 0.2265 0.6887 -0.6887
vn 0.0000 1.0000 0.0000
vn 0.0000 1.0000 0.0000
vn 0.0000 1.0000 0.0000
vn 0.0000 1.0000 0.0000
vn 0.0000 1.0000 0.0000
vn 0.0000 1.0000 0.0000
vn 0.0000 1.0000 0.0000
vn 0.0000 1.0000 0.0000
vn 0.0000 1.0000 0.0000
vn 0.0000 1.0000 0.0000
vn -0.6887 0.2265 0.6887
vn -0.6887 0.6887 0.2265
vn 0.0000 1.0000 0.0000
vn 0.0000 1.0000 0.0000
vn -0.2265 0.6887 0.6887
vn 0.0000 1.0000 0.0000
vn 0.0000 1.0000 0.0000
vn 0.0000 1.0000 0.0000
vn 0.0000 1.0000 0.0000
vn 0.2265 0.6887 0.6887
vn 0.0000 1.0000 0.0000
vn 0.0000 1.0000 0.0000
vn 0.0000 1.0000 0.0000
vn 0.2265 -0.6887 -0.6887
vn 0.6887 -0.6887 -0.2265
vn 0.6887 -0.2265 -0.6887
vn 0.9641 -0.1877 -0.1877
vn 0.6887 -0.6887 0.2265
vn 0.6887 0.2265 -0.6887
vn 0.9641 0.1877 -0.1877
vn 0.9641 -0.1877 0.1877
vn 0.1877 -0.9641 0.1877
vn 0.6887 -0.2265 0.6887
vn 0.6887 0.2265 0.6887
vn 0.9641 0.1877 0.1877
vn 0.1877 0.1877 -0.9641
vn 0.1877 0.9641 -0.1877
vn 0.0000 1.0000 0.0000
vn 0.0000 1.0000 0.0000
vn 0.0000 1.0000 0.0000
vn 0.0000 1.0000 0.0000
vn 0.0000 1.0000 0.0000
vn 0.6887 0.6887 -0.2265
vn 0.0000 1.0000 0.0000
vn 0.0000 1.0000 0.0000
vn 0.0000 1.0000 0.0000
vn 0.0000 1.0000 0.0000
vn 0.0000 1.0000 0.0000
vn 0.1877 0.9641 0.1877
vn 0.1877 0.1877 0.9641
vn 0.0000 1.0000 0.0000
vn 0.0000 1.0000 0.0000
vn 0.0000 1.0000 0.0000
vn 0.0000 1.0000 0.0000
vn 0.0000 1.0000 0.0000
vn 0.0000 1.0000 0.0000
vn 0.0000 1.0000 0.0000
vn 0.6887 0.6887 0.2265
vn 0.0000 1.0000 0.0000
vn 0.0000 1.0000 0.0000
vn -0.8660 0.0000 -0.5000
vn -0.8660 0.0000 -0.5000
vn -1.0000 0.0000 0.0000
vn -1.0000 0.0000 0.0000
vn 0.0000 1.0000 0.0000
vn 0.0000 1.0000 0.0000
vn 0.0000 1.0000 0.0000
vn 0.0000 0.0000 -1.0000
vn 0.0000 0.0000 -1.0000
vn -0.5000 0.0000 -0.8660
vn -0.5000 0.0000 -0.8660
vn 0.0000 1.0000 0.0000
vn 0.0000 1.0000 0.0000
vn 0.0000 1.0000 0.0000
vn -0.8660 0.0000 0.5000
vn -0.8660 0.0000 0.5000
vn -0.5000 0.0000 0.8660
vn -0.5000 0.0000 0.8660
vn 0.0000 1.0000 0.0000
vn 0.0000 0.0000 1.0000
vn 0.0000 0.0000 1.0000
vn 0.5000 0.0000 -0.8660
vn 0.5000 0.0000 -0.8660
vn 0.0000 1.0000 0.0000
vn 0.8660 0.0000 -0.5000
vn 0.8660 0.0000 -0.5000
vn 0.0000 1.0000 0.0000
vn 0.0000 1.0000 0.0000
vn 1.0000 0.0000 0.0000
vn 1.0000 0.0000 0.0000
vn 0.0000 1.0000 0.0000
vn 0.0000 1.0000 0.0000
vn 0.5000 0.0000 0.8660
vn 0.5000 0.0000 0.8660
vn 0.8660 0.0000 0.5000
vn 0.8660 0.0000 0.5000
vn -0.8660 0.0000 -0.5000
vn -0.8660 0.0000 -0.5000
vn -1.0000 0.0000 0.0000
vn -1.0000 0.0000 0.0000
vn 0.0000 -0.0000 -1.0000
vn 0.0000 0.0000 -1.0000
vn -0.5000 -0.0000 -0.8660
vn -0.5000 0.0000 -0.8660
vn 0.0000 1.0000 0.0000
vn 0.0000 1.0000 0.0000
vn 0.0000 1.0000 0.0000
vn 0.0000 1.0000 0.0000
vn 0.0000 1.0000 0.0000
vn -0.8660 0.0000 0.5000
vn -0.8660 -0.0000 0.5000
vn 0.0000 1.0000 0.0000
vn -0.5000 -0.0000 0.8660
vn -0.5000 0.0000 0.8660
vn 0.0000 1.0000 0.0000
vn 0.0000 0.0000 1.0000
vn 0.0000 -0.0000 1.0000
vn 0.5000 0.0000 -0.8660
vn 0.5000 -0.0000 -0.8660
vn 0.0000 1.0000 0.0000
vn 0.8660 -0.0000 -0.5000
vn 0.8660 0.0000 -0.5000
vn 0.0000 1.0000 0.0000
vn 0.0000 1.0000 0.0000
vn 1.0000 0.0000 0.0000
vn 1.0000 0.0000 0.0000
vn 0.5000 0.0000 0.8660
vn 0.5000 -0.0000 0.8660
vn 0.8660 0.0000 0.5000
vn 0.0000 1.0000 0.0000
vn 0.8660 0.0000 0.5000
vn 0.0000 1.0000 0.0000
vn -0.8660 0.0000 -0.5000
vn -0.8660 -0.0000 -0.5000
vn -1.0000 0.0000 0.0000
vn -1.0000 -0.0000 -0.0000
vn 0.0000 1.0000 0.0000
vn 0.0000 1.0000 0.0000
vn 0.0000 1.0000 0.0000
vn 0.0000 0.0000 -1.0000
vn 0.0000 0.0000 -1.0000
vn -0.5000 0.0000 -0.8660
vn -0.5000 -0.0000 -0.8660
vn 0.0000 1.0000 0.0000
vn 0.0000 1.0000 0.0000
vn 0.0000 1.0000 0.0000
vn -0.8660 -0.0000 0.5000
vn -0.8660 0.0000 0.5000
vn -0.5000 0.0000 0.8660
vn -0.5000 0.0000 0.8660
vn 0.0000 1.0000 0.0000
vn 0.0000 0.0000 1.0000
vn 0.0000 0.0000 1.0000
vn 0.5000 0.0000 -0.8660
vn 0.5000 0.0000 -0.8660
vn 0.0000 1.0000 0.0000
vn 0.8660 0.0000 -0.5000
vn 0.8660 -0.0000 -0.5000
vn 0.0000 1.0000 0.0000
vn 0.0000 1.0000 0.0000
vn 1.0000 -0.0000 0.0000
vn 1.0000 0.0000 -0.0000
vn 0.0000 1.0000 0.0000
vn 0.0000 1.0000 0.0000
vn 0.5000 -0.0000 0.8660
vn 0.5000 0.0000 0.8660
vn 0.8660 -0.0000 0.5000
vn 0.8660 0.0000 0.5000
vn -0.8660 0.0000 -0.5000
vn -0.8660 0.0000 -0.5000
vn -1.0000 0.0000 0.0000
vn -1.0000 -0.0000 -0.0000
vn 0.0000 -0.0000 -1.0000
vn 0.0000 0.0000 -1.0000
vn -0.5000 -0.0000 -0.8660
vn -0.5000 0.0000 -0.8660
vn 0.0000 1.0000 0.0000
vn 0.0000 1.0000 0.0000
vn 0.0000 1.0000 0.0000
vn 0.0000 1.0000 0.0000
vn 0.0000 1.0000 0.0000
vn -0.8660 -0.0000 0.5000
vn -0.8660 0.0000 0.5000
vn 0.0000 1.0000 0.0000
vn -0.5000 0.0000 0.8660
vn -0.5000 0.0000 0.8660
vn 0.0000 1.0000 0.0000
vn 0.0000 0.0000 1.0000
vn 0.0000 -0.0000 1.0000
vn 0.5000 0.0000 -0.8660
vn 0.5000 0.0000 -0.8660
vn 0.0000 1.0000 0.0000
vn 0.8660 0.0000 -0.5000
vn 0.8660 -0.0000 -0.5000
vn 0.0000 1.0000 0.0000
vn 0.0000 1.0000 0.0000
vn 1.0000 -0.0000 0.0000
vn 1.0000 0.0000 -0.0000
vn 0.5000 0.0000 0.8660
vn 0.5000 -0.0000 0.8660
vn 0.8660 0.0000 0.5000
vn 0.0000 1.0000 0.0000
vn 0.8660 0.0000 0.5000
vn 0.0000 1.0000 0.0000
f 1//1 2//2 3//3
f 1//1 4//4 2//2
f 1//1 5//5 4//4
f 4//4 6//6 2//2
f 1//1 3//3 7//7
f 1//1 8//8 5//5
f 4//4 5//5 9//9
f 4//4 10//10 6//6
f 2//2 11//11 3//3
f 2//2 6//6 12//12
f 3//3 11//11 7//7
f 6//6 10//10 12//12
f 1//1 13//13 8//8
f 1//1 7//7 13//13
f 13//13 7//7 14//14
f 13//13 14//14 15//15
f 13//13 15//15 8//8
f 15//15 14//14 16//16
f 5//5 8//8 17//17
f 8//8 15//15 17//17
f 15//15 16//16 18//18
f 7//7 19//19 14//14
f 14//14 19//19 16//16
f 16//16 20//20 18//18
f 5//5 21//21 9//9
f 4//4 9//9 10//10
f 5//5 17//17 21//21
f 9//9 21//21 22//22
f 9//9 23//23 10//10
f 9//9 22//22 23//23
f 22//22 24//24 23//23
f 24//24 25//25 26//26
f 24//24 27//27 25//25
f 24//24 28//28 27//27
f 24//24 26//26 29//29
f 21//21 17//17 22//22
f 22//22 30//30 24//24
f 24//24 31//31 28//28
f 28//28 32//32 33//33
f 33//33 34//34 35//35
f 10//10 23//23 36//36
f 23//23 24//24 36//36
f 24//24 29//29 37//37
f 29//29 38//38 39//39
f 38//38 40//40 39//39
f 40//40 41//41 42//42
f 35//35 34//34 43//43
f 41//41 44//44 42//42
f 43//43 45//45 44//44
f 43//43 46//46 45//45
f 15//15 47//47 17//17
f 15//15 18//18 47//47
f 24//24 30//30 31//31
f 28//28 31//31 32//32
f 22//22 17//17 48//48
f 22//22 48//48 30//30
f 33//33 32//32 49//49
f 33//33 49//49 34//34
f 30//30 50//50 31//31
f 17//17 47//47 48//48
f 47//47 18//18 51//51
f 47//47 51//51 48//48
f 48//48 51//51 30//30
f 30//30 52//52 50//50
f 30//30 53//53 52//52
f 43//43 34//34 46//46
f 54//54 45//45 46//46
f 30//30 55//55 53//53
f 18//18 56//56 51//51
f 30//30 51//51 56//56
f 57//57 58//58 59//59
f 53//53 55//55 57//57
f 2//2 60//60 11//11
f 2//2 12//12 60//60
f 60//60 61//61 11//11
f 60//60 62//62 61//61
f 60//60 12//12 62//62
f 61//61 62//62 63//63
f 11//11 61//61 64//64
f 61//61 63//63 64//64
f 12//12 65//65 62//62
f 62//62 66//66 63//63
f 63//63 66//66 67//67
f 7//7 11//11 68//68
f 7//7 68//68 19//19
f 16//16 19//19 20//20
f 11//11 64//64 68//68
f 63//63 67//67 64//64
f 68//68 64//64 19//19
f 19//19 64//64 69//69
f 19//19 69//69 20//20
f 64//64 67//67 69//69
f 20//20 69//69 70//70
f 67//67 71//71 69//69
f 10//10 72//72 12//12
f 29//29 39//39 37//37
f 24//24 37//37 73//73
f 40//40 74//74 39//39
f 40//40 42//42 74//74
f 10//10 36//36 72//72
f 24//24 73//73 36//36
f 44//44 45//45 42//42
f 54//54 75//75 45//45
f 54//54 76//76 75//75
f 12//12 72//72 65//65
f 62//62 65//65 66//66
f 73//73 37//37 77//77
f 73//73 77//77 78//78
f 72//72 36//36 65//65
f 65//65 79//79 66//66
f 36//36 79//79 65//65
f 36//36 73//73 79//79
f 73//73 78//78 80//80
f 81//81 82//82 83//83
f 73//73 80//80 84//84
f 66//66 79//79 71//71
f 73//73 85//85 79//79
f 80//80 83//83 82//82
f 18//18 20//20 86//86
f 54//54 87//87 76//76
f 87//87 59//59 81//81
f 59//59 88//88 81//81
f 87//87 81//81 76//76
f 81//81 88//88 89//89
f 59//59 90//90 88//88
f 59//59 91//91 90//90
f 59//59 58//58 91//91
f 57//57 55//55 58//58
f 30//30 85//85 55//55
f 18//18 86//86 56//56
f 30//30 56//56 85//85
f 67//67 66//66 71//71
f 20//20 70//70 86//86
f 69//69 71//71 70//70
f 81//81 89//89 92//92
f 81//81 92//92 93//93
f 81//81 93//93 82//82
f 80//80 82//82 84//84
f 73//73 84//84 85//85
f 79//79 85//85 94//94
f 79//79 94//94 71//71
f 85//85 95//95 55//55
f 85//85 84//84 96//96
f 85//85 96//96 95//95
f 86//86 70//70 56//56
f 71//71 94//94 70//70
f 56//56 70//70 94//94
f 85//85 56//56 94//94
f 97//97 98//98 99//99
f 97//97 99//99 100//100
f 101//101 102//102 103//103
f 104//104 105//105 106//106
f 107//107 104//104 106//106
f 107//107 106//106 98//98
f 97//97 107//107 98//98
f 101//101 103//103 108//108
f 108//108 109//109 110//110
f 100//100 99//99 111//111
f 100//100 111//111 112//112
f 112//112 111//111 113//113
f 108//108 103//103 109//109
f 112//112 113//113 114//114
f 110//110 109//109 115//115
f 114//114 113//113 116//116
f 114//114 116//116 117//117
f 118//118 119//119 105//105
f 104//104 118//118 105//105
f 110//110 115//115 120//120
f 121//121 122//122 119//119
f 118//118 121//121 119//119
f 120//120 123//123 124//124
f 125//125 126//126 122//122
f 121//121 125//125 122//122
f 124//124 127//127 128//128
f 115//115 123//123 120//120
f 129//129 130//130 131//131
f 124//124 123//123 127//127
f 129//129 131//131 132//132
f 117//117 116//116 130//130
f 117//117 130//130 129//129
f 132//132 131//131 126//126
f 125//125 132//132 126//126
f 133//133 134//134 135//135
f 133//133 135//135 136//136
f 137//137 138//138 139//139
f 140//140 137//137 139//139
f 140//140 139//139 134//134
f 133//133 140//140 134//134
f 141//141 142//142 143//143
f 143//143 144//144 145//145
f 136//136 135//135 146//146
f 136//136 146//146 147//147
f 141//141 148//148 142//142
f 147//147 146//146 149//149
f 143//143 142//142 144//144
f 147//147 149//149 150//150
f 145//145 144//144 151//151
f 150//150 149//149 152//152
f 150//150 152//152 153//153
f 154//154 155//155 138//138
f 137//137 154//154 138//138
f 145//145 151//151 156//156
f 157//157 158//158 155//155
f 154//154 157//157 155//155
f 156//156 159//159 160//160
f 161//161 162//162 158//158
f 157//157 161//161 158//158
f 151//151 159//159 156//156
f 163//163 164//164 165//165
f 160//160 159//159 166//166
f 163//163 165//165 167//167
f 153//153 152//152 164//164
f 153//153 164//164 163//163
f 167//167 165//165 162//162
f 167//167 162//162 161//161
f 160//160 166//166 168//168
f 169//169 170//170 171//171
f 169//169 171//171 172//172
f 173//173 174//174 175//175
f 176//176 177//177 178//178
f 179//179 176//176 178//178
f 179//179 178//178 170//170
f 169//169 179//179 170//170
f 173//173 175//175 180//180
f 180//180 181//181 182//182
f 172//172 171//171 183//183
f 172//172 183//183 184//184
f 184//184 183//183 185//185
f 180//180 175//175 181//181
f 184//184 185//185 186//186
f 181//181 187//187 182//182
f 186//186 185//185 188//188
f 186//186 188//188 189//189
f 190//190 191//191 177//177
f 176//176 190//190 177//177
f 182//182 187//187 192//192
f 193//193 194//194 191//191
f 190//190 193//193 191//191
f 192//192 195//195 196//196
f 197//197 198//198 194//194
f 193//193 197//197 194//194
f 196//196 199//199 200//200
f 192//192 187//187 195//195
f 201//201 202//202 203//203
f 196//196 195//195 199//199
f 201//201 203//203 204//204
f 189//189 188//188 202//202
f 189//189 202//202 201//201
f 204//204 203//203 198//198
f 197//197 204//204 198//198
f 205//205 206//206 207//207
f 205//205 207//207 208//208
f 209//209 210//210 211//211
f 212//212 209//209 211//211
f 212//212 211//211 206//206
f 205//205 212//212 206//206
f 213//213 214//214 215//215
f 215//215 216//216 217//217
f 208//208 207//207 218//218
f 208//208 218//218 219//219
f 213//213 220//220 214//214
f 219//219 218//218 221//221
f 215//215 214//214 216//216
f 219//219 221//221 222//222
f 216//216 223//223 217//217
f 222//222 221//221 224//224
f 222//222 224//224 225//225
f 226//226 227//227 210//210
f 209//209 226//226 210//210
f 217//217 223//223 228//228
f 229//229 230//230 227//227
f 226//226 229//229 227//227
f 228//228 231//231 232//232
f 233//233 234//234 230//230
f 229//229 233//233 230//230
f 228//228 223//223 231//231
f 235//235 236//236 237//237
f 232//232 231//231 238//238
f 235//235 237//237 239//239
f 225//225 224//224 236//236
f 225//225 236//236 235//235
f 239//239 237//237 234//234
f 233//233 239//239 234//234
f 232//232 238//238 240//240
