v -0.12066 -0.14100 -0.12066
v -0.12066 -0.14666 -0.11500
v -0.12300 -0.14100 -0.11500
v -0.11500 -0.14666 -0.12066
v -0.11500 -0.14900 -0.11500
v -0.11500 -0.14100 -0.12300
v -0.12300 -0.14100 0.11500
v -0.11500 -0.14900 0.11500
v -0.12066 0.14100 -0.12066
v -0.12300 0.14100 -0.11500
v 0.11500 -0.14900 -0.11500
v 0.11500 -0.14100 -0.12300
v -0.11500 0.14100 -0.12300
v -0.12066 -0.14666 0.11500
v -0.12066 -0.14100 0.12066
v -0.11500 -0.14666 0.12066
v -0.11500 -0.14100 0.12300
v -0.12066 0.14100 0.12066
v 0.11500 -0.14900 0.11500
v 0.11500 -0.14666 0.12066
v 0.11500 -0.14100 0.12300
v -0.11500 0.14100 0.12300
v -0.12066 0.14666 -0.11500
v -0.11500 0.14666 -0.12066
v -0.11500 0.14900 -0.11500
v -0.06495 0.14900 -0.03750
v -0.03750 0.14900 -0.06495
v -0.12300 0.14100 0.11500
v -0.11500 0.14900 0.11500
v -0.07500 0.14900 0.00000
v 0.11500 0.14666 -0.12066
v 0.00000 0.14900 -0.07500
v -0.12066 0.14666 0.11500
v -0.06495 0.14900 0.03750
v -0.11500 0.14666 0.12066
v -0.03750 0.14900 0.06495
v 0.00000 0.14900 0.07500
v 0.11500 0.14100 0.12300
v 0.11500 0.14900 0.11500
v 0.11500 -0.14666 -0.12066
v 0.12066 -0.14666 -0.11500
v 0.12066 -0.14100 -0.12066
v 0.12300 -0.14100 -0.11500
v 0.12300 -0.14100 0.11500
v 0.12066 0.14100 -0.12066
v 0.12066 -0.14666 0.11500
v 0.12066 -0.14100 0.12066
v 0.12300 0.14100 0.11500
v 0.12066 0.14100 0.12066
v 0.11500 0.14100 -0.12300
v 0.11500 0.14900 -0.11500
v 0.03750 0.14900 -0.06495
v 0.12300 0.14100 -0.11500
v 0.06495 0.14900 -0.03750
v 0.12066 0.14666 -0.11500
v 0.07500 0.14900 0.00000
v 0.03750 0.14900 0.06495
v 0.11500 0.14666 0.12066
v 0.06495 0.14900 0.03750
v 0.12066 0.14666 0.11500
v -0.06495 0.19900 -0.03750
v -0.06495 0.14900 -0.03750
v -0.07500 0.14900 0.00000
v -0.07500 0.19900 0.00000
v -0.03750 0.19900 -0.06495
v 0.00000 0.19900 -0.07500
v -0.03750 0.14900 -0.06495
v 0.00000 0.14900 -0.07500
v -0.06495 0.19900 0.03750
v -0.03750 0.19900 -0.06495
v -0.06495 0.19900 -0.03750
v -0.03750 0.19900 0.06495
v 0.00000 0.19900 -0.07500
v -0.06495 0.14900 0.03750
v -0.07500 0.19900 0.00000
v -0.06495 0.19900 0.03750
v -0.03750 0.14900 0.06495
v -0.03750 0.19900 0.06495
v 0.00000 0.19900 0.07500
v 0.00000 0.14900 0.07500
v 0.00000 0.19900 0.07500
v 0.03750 0.19900 -0.06495
v 0.03750 0.14900 -0.06495
v 0.03750 0.19900 -0.06495
v 0.06495 0.19900 -0.03750
v 0.06495 0.14900 -0.03750
v 0.03750 0.19900 0.06495
v 0.06495 0.19900 -0.03750
v 0.07500 0.19900 0.00000
v 0.07500 0.14900 0.00000
v 0.06495 0.19900 0.03750
v 0.03750 0.19900 0.06495
v 0.03750 0.14900 0.06495
v 0.06495 0.14900 0.03750
v 0.06495 0.19900 0.03750
v 0.07500 0.19900 0.00000
vn -0.6887 -0.2265 -0.6887
vn -0.6887 -0.6887 -0.2265
vn -0.9641 -0.1877 -0.1877
vn -0.2265 -0.6887 -0.6887
vn -0.1877 -0.9641 -0.1877
vn -0.1877 -0.1877 -0.9641
vn -0.9641 -0.1877 0.1877
vn -0.1877 -0.9641 0.1877
vn -0.6887 0.2265 -0.6887
vn -0.9641 0.1877 -0.1877
vn 0.1877 -0.9641 -0.1877
vn 0.1877 -0.1877 -0.9641
vn -0.1877 0.1877 -0.9641
vn -0.6887 -0.6887 0.2265
vn -0.6887 -0.2265 0.6887
vn -0.2265 -0.6887 0.6887
vn -0.1877 -0.1877 0.9641
vn -0.6887 0.2265 0.6887
vn 0.1877 -0.9641 0.1877
vn 0.2265 -0.6887 0.6887
vn 0.1877 -0.1877 0.9641
vn -0.1877 0.1877 0.9641
vn -0.6887 0.6887 -0.2265
vn -0.2265 0.6887 -0.6887
vn -0.1877 0.9641 -0.1877
vn 0.0000 1.0000 0.0000
vn 0.0000 1.0000 0.0000
vn -0.9641 0.1877 0.1877
vn -0.1877 0.9641 0.1877
vn 0.0000 1.0000 0.0000
vn 0.2265 0.6887 -0.6887
vn 0.0000 1.0000 0.0000
vn -0.6887 0.6887 0.2265
vn 0.0000 1.0000 0.0000
vn -0.2265 0.6887 0.6887
vn 0.0000 1.0000 0.0000
vn 0.0000 1.0000 0.0000
vn 0.1877 0.1877 0.9641
vn 0.1877 0.9641 0.1877
vn 0.2265 -0.6887 -0.6887
vn 0.6887 -0.6887 -0.2265
vn 0.6887 -0.2265 -0.6887
vn 0.9641 -0.1877 -0.1877
vn 0.9641 -0.1877 0.1877
vn 0.6887 0.2265 -0.6887
vn 0.6887 -0.6887 0.2265
vn 0.6887 -0.2265 0.6887
vn 0.9641 0.1877 0.1877
vn 0.6887 0.2265 0.6887
vn 0.1877 0.1877 -0.9641
vn 0.1877 0.9641 -0.1877
vn 0.0000 1.0000 0.0000
vn 0.9641 0.1877 -0.1877
vn 0.0000 1.0000 0.0000
vn 0.6887 0.6887 -0.2265
vn 0.0000 1.0000 0.0000
vn 0.0000 1.0000 0.0000
vn 0.2265 0.6887 0.6887
vn 0.0000 1.0000 0.0000
vn 0.6887 0.6887 0.2265
vn -0.8660 0.0000 -0.5000
vn -0.8660 0.0000 -0.5000
vn -1.0000 0.0000 0.0000
vn -1.0000 0.0000 0.0000
vn -0.5000 0.0000 -0.8660
vn 0.0000 0.0000 -1.0000
vn -0.5000 0.0000 -0.8660
vn 0.0000 0.0000 -1.0000
vn 0.0000 1.0000 0.0000
vn 0.0000 1.0000 0.0000
vn 0.0000 1.0000 0.0000
vn 0.0000 1.0000 0.0000
vn 0.0000 1.0000 0.0000
vn -0.8660 0.0000 0.5000
vn 0.0000 1.0000 0.0000
vn -0.8660 0.0000 0.5000
vn -0.5000 0.0000 0.8660
vn -0.5000 0.0000 0.8660
vn 0.0000 1.0000 0.0000
vn 0.0000 0.0000 1.0000
vn 0.0000 0.0000 1.0000
vn 0.5000 0.0000 -0.8660
vn 0.5000 -0.0000 -0.8660
vn 0.0000 1.0000 0.0000
vn 0.8660 -0.0000 -0.5000
vn 0.8660 0.0000 -0.5000
vn 0.0000 1.0000 0.0000
vn 0.0000 1.0000 0.0000
vn 1.0000 0.0000 0.0000
vn 1.0000 0.0000 0.0000
vn 0.0000 1.0000 0.0000
vn 0.5000 0.0000 0.8660
vn 0.5000 0.0000 0.8660
vn 0.8660 0.0000 0.5000
vn 0.8660 0.0000 0.5000
vn 0.0000 1.0000 0.0000
f 1//1 2//2 3//3
f 1//1 4//4 2//2
f 2//2 4//4 5//5
f 1//1 6//6 4//4
f 2//2 7//7 3//3
f 2//2 5//5 8//8
f 1//1 3//3 9//9
f 1//1 9//9 6//6
f 3//3 7//7 10//10
f 4//4 11//11 5//5
f 4//4 6//6 12//12
f 6//6 13//13 12//12
f 2//2 14//14 7//7
f 2//2 8//8 14//14
f 14//14 15//15 7//7
f 14//14 16//16 15//15
f 14//14 8//8 16//16
f 15//15 16//16 17//17
f 7//7 15//15 18//18
f 15//15 17//17 18//18
f 5//5 19//19 8//8
f 8//8 20//20 16//16
f 16//16 20//20 17//17
f 17//17 21//21 22//22
f 3//3 10//10 9//9
f 6//6 9//9 13//13
f 9//9 10//10 23//23
f 9//9 24//24 13//13
f 9//9 23//23 24//24
f 23//23 25//25 24//24
f 25//25 26//26 27//27
f 10//10 28//28 23//23
f 23//23 29//29 25//25
f 25//25 30//30 26//26
f 13//13 24//24 31//31
f 24//24 25//25 31//31
f 25//25 27//27 32//32
f 7//7 28//28 10//10
f 7//7 18//18 28//28
f 17//17 22//22 18//18
f 25//25 29//29 30//30
f 23//23 28//28 33//33
f 23//23 33//33 29//29
f 29//29 34//34 30//30
f 28//28 18//18 33//33
f 18//18 22//22 35//35
f 33//33 18//18 35//35
f 33//33 35//35 29//29
f 29//29 36//36 34//34
f 29//29 37//37 36//36
f 22//22 38//38 35//35
f 29//29 35//35 39//39
f 4//4 12//12 40//40
f 4//4 40//40 11//11
f 5//5 11//11 19//19
f 40//40 41//41 11//11
f 40//40 42//42 41//41
f 40//40 12//12 42//42
f 42//42 43//43 41//41
f 11//11 41//41 19//19
f 41//41 43//43 44//44
f 12//12 45//45 42//42
f 42//42 45//45 43//43
f 8//8 19//19 20//20
f 17//17 20//20 21//21
f 41//41 46//46 19//19
f 41//41 44//44 46//46
f 19//19 46//46 20//20
f 20//20 46//46 47//47
f 20//20 47//47 21//21
f 46//46 44//44 47//47
f 43//43 48//48 44//44
f 21//21 47//47 49//49
f 44//44 48//48 47//47
f 13//13 50//50 12//12
f 25//25 32//32 51//51
f 13//13 31//31 50//50
f 25//25 51//51 31//31
f 51//51 32//32 52//52
f 12//12 50//50 45//45
f 43//43 45//45 53//53
f 43//43 53//53 48//48
f 51//51 52//52 54//54
f 50//50 31//31 45//45
f 45//45 55//55 53//53
f 31//31 51//51 55//55
f 31//31 55//55 45//45
f 51//51 54//54 56//56
f 53//53 55//55 48//48
f 51//51 39//39 55//55
f 22//22 21//21 38//38
f 29//29 39//39 37//37
f 39//39 57//57 37//37
f 35//35 58//58 39//39
f 35//35 38//38 58//58
f 21//21 49//49 38//38
f 47//47 48//48 49//49
f 39//39 56//56 59//59
f 51//51 56//56 39//39
f 55//55 39//39 60//60
f 55//55 60//60 48//48
f 39//39 59//59 57//57
f 38//38 49//49 58//58
f 48//48 60//60 49//49
f 39//39 58//58 60//60
f 58//58 49//49 60//60
f 61//61 62//62 63//63
f 64//64 61//61 63//63
f 65//65 66//66 67//67
f 66//66 68//68 67//67
f 65//65 67//67 62//62
f 61//61 65//65 62//62
f 69//69 70//70 71//71
f 72//72 73//73 70//70
f 64//64 63//63 74//74
f 69//69 71//71 75//75
f 76//76 64//64 74//74
f 69//69 72//72 70//70
f 76//76 74//74 77//77
f 76//76 77//77 78//78
f 72//72 79//79 73//73
f 78//78 77//77 80//80
f 78//78 80//80 81//81
f 66//66 82//82 68//68
f 82//82 83//83 68//68
f 79//79 84//84 73//73
f 85//85 86//86 83//83
f 82//82 85//85 83//83
f 87//87 88//88 84//84
f 89//89 90//90 86//86
f 89//89 86//86 85//85
f 79//79 87//87 84//84
f 87//87 91//91 88//88
f 92//92 93//93 94//94
f 92//92 94//94 95//95
f 81//81 80//80 93//93
f 81//81 93//93 92//92
f 95//95 94//94 90//90
f 91//91 96//96 88//88
f 95//95 90//90 89//89
