v -0.24566 -0.14666 -0.49000
v -0.24000 -0.14666 -0.49566
v -0.24000 -0.14900 -0.49000
v -0.24566 -0.14100 -0.49566
v -0.24800 -0.14100 -0.49000
v -0.24000 -0.14100 -0.49800
v -0.24566 -0.14666 0.49000
v -0.24000 -0.14900 0.49000
v -0.24566 0.14100 -0.49566
v -0.24000 0.14100 -0.49800
v 0.24000 -0.14666 -0.49566
v 0.24000 -0.14900 -0.49000
v 0.24000 -0.14100 -0.49800
v -0.24800 -0.14100 0.49000
v -0.24000 -0.14666 0.49566
v -0.24566 -0.14100 0.49566
v -0.24000 -0.14100 0.49800
v -0.24800 0.14100 0.49000
v -0.24566 0.14100 0.49566
v 0.24000 -0.14900 0.49000
v 0.24000 -0.14100 0.49800
v -0.24000 0.14100 0.49800
v -0.24800 0.14100 -0.49000
v -0.24566 0.14666 -0.49000
v -0.24000 0.14666 -0.49566
v -0.24000 0.14900 -0.49000
v -0.18995 0.14900 -0.41250
v -0.16250 0.14900 -0.43995
v -0.20000 0.14900 -0.37500
v -0.20000 0.14900 -0.12500
v -0.18995 0.14900 -0.33750
v -0.12500 0.14900 -0.45000
v -0.18995 0.14900 -0.16250
v -0.16250 0.14900 -0.31005
v -0.12500 0.14900 -0.20000
v -0.12500 0.14900 -0.30000
v -0.24000 0.14900 0.49000
v -0.20000 0.14900 0.12500
v -0.18995 0.14900 -0.08750
v -0.16250 0.14900 -0.18995
v -0.18995 0.14900 0.08750
v -0.16250 0.14900 -0.06005
v -0.16250 0.14900 0.06005
v -0.12500 0.14900 -0.05000
v 0.24000 0.14666 -0.49566
v 0.24000 0.14900 -0.49000
v 0.12500 0.14900 -0.45000
v -0.08750 0.14900 -0.31005
v -0.08750 0.14900 -0.43995
v 0.08750 0.14900 -0.43995
v -0.06005 0.14900 -0.41250
v -0.05000 0.14900 -0.37500
v 0.05000 0.14900 -0.37500
v -0.06005 0.14900 -0.33750
v 0.06005 0.14900 -0.16250
v -0.08750 0.14900 -0.18995
v -0.06005 0.14900 -0.16250
v -0.08750 0.14900 0.06005
v -0.08750 0.14900 -0.06005
v -0.05000 0.14900 -0.12500
v 0.05000 0.14900 -0.12500
v -0.06005 0.14900 -0.08750
v -0.24566 0.14666 0.49000
v -0.20000 0.14900 0.37500
v -0.18995 0.14900 0.16250
v -0.12500 0.14900 0.05000
v -0.18995 0.14900 0.33750
v -0.16250 0.14900 0.18995
v -0.12500 0.14900 0.30000
v -0.12500 0.14900 0.20000
v -0.24000 0.14666 0.49566
v -0.18995 0.14900 0.41250
v -0.16250 0.14900 0.43995
v -0.16250 0.14900 0.31005
v -0.12500 0.14900 0.45000
v -0.08750 0.14900 0.31005
v -0.08750 0.14900 0.18995
v -0.06005 0.14900 0.16250
v -0.06005 0.14900 0.08750
v -0.05000 0.14900 0.12500
v -0.06005 0.14900 0.33750
v 0.24000 0.14100 0.49800
v 0.12500 0.14900 0.45000
v 0.24000 0.14666 0.49566
v 0.06005 0.14900 0.33750
v -0.05000 0.14900 0.37500
v 0.05000 0.14900 0.37500
v -0.06005 0.14900 0.41250
v -0.08750 0.14900 0.43995
v 0.08750 0.14900 0.43995
v 0.24566 -0.14666 -0.49000
v 0.24566 -0.14100 -0.49566
v 0.24800 -0.14100 -0.49000
v 0.24566 -0.14666 0.49000
v 0.24000 0.14100 -0.49800
v 0.24800 0.14100 -0.49000
v 0.24800 -0.14100 0.49000
v 0.24000 -0.14666 0.49566
v 0.24566 -0.14100 0.49566
v 0.24800 0.14100 0.49000
v 0.06005 0.14900 -0.41250
v 0.06005 0.14900 -0.33750
v 0.08750 0.14900 -0.31005
v 0.08750 0.14900 -0.18995
v 0.12500 0.14900 -0.20000
v 0.12500 0.14900 -0.30000
v 0.06005 0.14900 -0.08750
v 0.08750 0.14900 -0.06005
v 0.24566 0.14100 -0.49566
v 0.16250 0.14900 -0.43995
v 0.16250 0.14900 -0.18995
v 0.16250 0.14900 -0.31005
v 0.18995 0.14900 -0.16250
v 0.18995 0.14900 -0.33750
v 0.18995 0.14900 -0.41250
v 0.20000 0.14900 -0.37500
v 0.24566 0.14666 -0.49000
v 0.20000 0.14900 -0.12500
v 0.16250 0.14900 -0.06005
v 0.16250 0.14900 0.06005
v 0.18995 0.14900 -0.08750
v 0.20000 0.14900 0.12500
v 0.24566 0.14666 0.49000
v 0.18995 0.14900 0.08750
v 0.12500 0.14900 -0.05000
v 0.06005 0.14900 0.08750
v 0.05000 0.14900 0.12500
v 0.06005 0.14900 0.16250
v 0.08750 0.14900 0.06005
v 0.08750 0.14900 0.18995
v 0.08750 0.14900 0.31005
v 0.12500 0.14900 0.20000
v 0.06005 0.14900 0.41250
v 0.24000 0.14900 0.49000
v 0.12500 0.14900 0.30000
v 0.24566 0.14100 0.49566
v 0.12500 0.14900 0.05000
v 0.16250 0.14900 0.18995
v 0.16250 0.14900 0.31005
v 0.18995 0.14900 0.16250
v 0.18995 0.14900 0.33750
v 0.16250 0.14900 0.43995
v 0.20000 0.14900 0.37500
v 0.18995 0.14900 0.41250
v -0.18995 0.19900 -0.41250
v -0.18995 0.14900 -0.41250
v -0.20000 0.14900 -0.37500
v -0.20000 0.19900 -0.37500
v -0.18995 0.19900 -0.41250
v -0.20000 0.19900 -0.37500
v -0.18995 0.19900 -0.33750
v -0.18995 0.14900 -0.33750
v -0.18995 0.19900 -0.33750
v -0.16250 0.19900 -0.43995
v -0.16250 0.14900 -0.43995
v -0.16250 0.19900 -0.43995
v -0.12500 0.19900 -0.45000
v -0.12500 0.14900 -0.45000
v -0.16250 0.19900 -0.31005
v -0.12500 0.19900 -0.45000
v -0.16250 0.14900 -0.31005
v -0.16250 0.19900 -0.31005
v -0.12500 0.14900 -0.30000
v -0.12500 0.19900 -0.30000
v -0.12500 0.19900 -0.30000
v -0.08750 0.19900 -0.43995
v -0.08750 0.14900 -0.43995
v -0.08750 0.19900 -0.43995
v -0.06005 0.19900 -0.41250
v -0.06005 0.14900 -0.41250
v -0.08750 0.19900 -0.31005
v -0.06005 0.19900 -0.41250
v -0.08750 0.14900 -0.31005
v -0.08750 0.19900 -0.31005
v -0.06005 0.14900 -0.33750
v -0.06005 0.19900 -0.33750
v -0.06005 0.19900 -0.33750
v -0.05000 0.19900 -0.37500
v -0.05000 0.14900 -0.37500
v -0.05000 0.19900 -0.37500
v -0.18995 0.19900 -0.16250
v -0.18995 0.14900 -0.16250
v -0.20000 0.14900 -0.12500
v -0.20000 0.19900 -0.12500
v -0.18995 0.19900 -0.16250
v -0.20000 0.19900 -0.12500
v -0.18995 0.19900 -0.08750
v -0.18995 0.14900 -0.08750
v -0.18995 0.19900 -0.08750
v -0.16250 0.19900 -0.18995
v -0.16250 0.14900 -0.18995
v -0.16250 0.19900 -0.18995
v -0.12500 0.19900 -0.20000
v -0.12500 0.14900 -0.20000
v -0.16250 0.19900 -0.06005
v -0.12500 0.19900 -0.20000
v -0.16250 0.14900 -0.06005
v -0.16250 0.19900 -0.06005
v -0.12500 0.14900 -0.05000
v -0.12500 0.19900 -0.05000
v -0.12500 0.19900 -0.05000
v -0.08750 0.19900 -0.18995
v -0.08750 0.14900 -0.18995
v -0.08750 0.19900 -0.18995
v -0.06005 0.19900 -0.16250
v -0.06005 0.14900 -0.16250
v -0.08750 0.19900 -0.06005
v -0.06005 0.19900 -0.16250
v -0.08750 0.14900 -0.06005
v -0.08750 0.19900 -0.06005
v -0.06005 0.14900 -0.08750
v -0.06005 0.19900 -0.08750
v -0.06005 0.19900 -0.08750
v -0.05000 0.19900 -0.12500
v -0.05000 0.14900 -0.12500
v -0.05000 0.19900 -0.12500
v -0.18995 0.19900 0.08750
v -0.18995 0.14900 0.08750
v -0.20000 0.14900 0.12500
v -0.20000 0.19900 0.12500
v -0.18995 0.14900 0.16250
v -0.18995 0.19900 0.16250
v -0.18995 0.19900 0.08750
v -0.20000 0.19900 0.12500
v -0.18995 0.19900 0.16250
v -0.16250 0.19900 0.06005
v -0.16250 0.14900 0.06005
v -0.16250 0.19900 0.06005
v -0.12500 0.19900 0.05000
v -0.12500 0.14900 0.05000
v -0.16250 0.19900 0.18995
v -0.12500 0.19900 0.05000
v -0.16250 0.14900 0.18995
v -0.16250 0.19900 0.18995
v -0.12500 0.14900 0.20000
v -0.12500 0.19900 0.20000
v -0.12500 0.19900 0.20000
v -0.08750 0.19900 0.06005
v -0.08750 0.14900 0.06005
v -0.08750 0.19900 0.06005
v -0.06005 0.19900 0.08750
v -0.06005 0.14900 0.08750
v -0.08750 0.19900 0.18995
v -0.06005 0.19900 0.08750
v -0.08750 0.14900 0.18995
v -0.08750 0.19900 0.18995
v -0.06005 0.14900 0.16250
v -0.06005 0.19900 0.16250
v -0.06005 0.19900 0.16250
v -0.05000 0.19900 0.12500
v -0.05000 0.14900 0.12500
v -0.05000 0.19900 0.12500
v -0.18995 0.19900 0.33750
v -0.18995 0.14900 0.33750
v -0.20000 0.14900 0.37500
v -0.20000 0.19900 0.37500
v -0.18995 0.14900 0.41250
v -0.18995 0.19900 0.41250
v -0.18995 0.19900 0.33750
v -0.20000 0.19900 0.37500
v -0.18995 0.19900 0.41250
v -0.16250 0.19900 0.31005
v -0.16250 0.14900 0.31005
v -0.16250 0.19900 0.31005
v -0.12500 0.19900 0.30000
v -0.12500 0.14900 0.30000
v -0.16250 0.19900 0.43995
v -0.12500 0.19900 0.30000
v -0.16250 0.14900 0.43995
v -0.16250 0.19900 0.43995
v -0.12500 0.14900 0.45000
v -0.12500 0.19900 0.45000
v -0.12500 0.19900 0.45000
v -0.08750 0.19900 0.31005
v -0.08750 0.14900 0.31005
v -0.08750 0.19900 0.31005
v -0.06005 0.19900 0.33750
v -0.06005 0.14900 0.33750
v -0.08750 0.19900 0.43995
v -0.06005 0.19900 0.33750
v -0.08750 0.14900 0.43995
v -0.08750 0.19900 0.43995
v -0.06005 0.14900 0.41250
v -0.06005 0.19900 0.41250
v -0.06005 0.19900 0.41250
v -0.05000 0.19900 0.37500
v -0.05000 0.14900 0.37500
v -0.05000 0.19900 0.37500
v 0.06005 0.19900 -0.41250
v 0.06005 0.14900 -0.41250
v 0.05000 0.14900 -0.37500
v 0.05000 0.19900 -0.37500
v 0.06005 0.19900 -0.41250
v 0.05000 0.19900 -0.37500
v 0.06005 0.19900 -0.33750
v 0.06005 0.14900 -0.33750
v 0.06005 0.19900 -0.33750
v 0.08750 0.19900 -0.43995
v 0.08750 0.14900 -0.43995
v 0.08750 0.19900 -0.43995
v 0.12500 0.19900 -0.45000
v 0.12500 0.14900 -0.45000
v 0.08750 0.19900 -0.31005
v 0.12500 0.19900 -0.45000
v 0.08750 0.14900 -0.31005
v 0.08750 0.19900 -0.31005
v 0.12500 0.14900 -0.30000
v 0.12500 0.19900 -0.30000
v 0.12500 0.19900 -0.30000
v 0.16250 0.19900 -0.43995
v 0.16250 0.14900 -0.43995
v 0.16250 0.19900 -0.43995
v 0.18995 0.19900 -0.41250
v 0.18995 0.14900 -0.41250
v 0.16250 0.19900 -0.31005
v 0.18995 0.19900 -0.41250
v 0.16250 0.14900 -0.31005
v 0.16250 0.19900 -0.31005
v 0.18995 0.14900 -0.33750
v 0.18995 0.19900 -0.33750
v 0.18995 0.19900 -0.33750
v 0.20000 0.19900 -0.37500
v 0.20000 0.14900 -0.37500
v 0.20000 0.19900 -0.37500
v 0.06005 0.19900 -0.16250
v 0.06005 0.14900 -0.16250
v 0.05000 0.14900 -0.12500
v 0.05000 0.19900 -0.12500
v 0.06005 0.19900 -0.16250
v 0.05000 0.19900 -0.12500
v 0.06005 0.19900 -0.08750
v 0.06005 0.14900 -0.08750
v 0.06005 0.19900 -0.08750
v 0.08750 0.19900 -0.18995
v 0.08750 0.14900 -0.18995
v 0.08750 0.19900 -0.18995
v 0.12500 0.19900 -0.20000
v 0.12500 0.14900 -0.20000
v 0.08750 0.19900 -0.06005
v 0.12500 0.19900 -0.20000
v 0.08750 0.14900 -0.06005
v 0.08750 0.19900 -0.06005
v 0.12500 0.14900 -0.05000
v 0.12500 0.19900 -0.05000
v 0.12500 0.19900 -0.05000
v 0.16250 0.19900 -0.18995
v 0.16250 0.14900 -0.18995
v 0.16250 0.19900 -0.18995
v 0.18995 0.19900 -0.16250
v 0.18995 0.14900 -0.16250
v 0.16250 0.19900 -0.06005
v 0.18995 0.19900 -0.16250
v 0.16250 0.14900 -0.06005
v 0.16250 0.19900 -0.06005
v 0.18995 0.14900 -0.08750
v 0.18995 0.19900 -0.08750
v 0.18995 0.19900 -0.08750
v 0.20000 0.19900 -0.12500
v 0.20000 0.14900 -0.12500
v 0.20000 0.19900 -0.12500
v 0.06005 0.19900 0.08750
v 0.06005 0.14900 0.08750
v 0.05000 0.14900 0.12500
v 0.05000 0.19900 0.12500
v 0.06005 0.14900 0.16250
v 0.06005 0.19900 0.16250
v 0.06005 0.19900 0.08750
v 0.05000 0.19900 0.12500
v 0.06005 0.19900 0.16250
v 0.08750 0.19900 0.06005
v 0.08750 0.14900 0.06005
v 0.08750 0.19900 0.06005
v 0.12500 0.19900 0.05000
v 0.12500 0.14900 0.05000
v 0.08750 0.19900 0.18995
v 0.12500 0.19900 0.05000
v 0.08750 0.14900 0.18995
v 0.08750 0.19900 0.18995
v 0.12500 0.14900 0.20000
v 0.12500 0.19900 0.20000
v 0.12500 0.19900 0.20000
v 0.16250 0.19900 0.06005
v 0.16250 0.14900 0.06005
v 0.16250 0.19900 0.06005
v 0.18995 0.19900 0.08750
v 0.18995 0.14900 0.08750
v 0.16250 0.19900 0.18995
v 0.18995 0.19900 0.08750
v 0.16250 0.14900 0.18995
v 0.16250 0.19900 0.18995
v 0.18995 0.14900 0.16250
v 0.18995 0.19900 0.16250
v 0.18995 0.19900 0.16250
v 0.20000 0.19900 0.12500
v 0.20000 0.14900 0.12500
v 0.20000 0.19900 0.12500
v 0.06005 0.19900 0.33750
v 0.06005 0.14900 0.33750
v 0.05000 0.14900 0.37500
v 0.05000 0.19900 0.37500
v 0.06005 0.14900 0.41250
v 0.06005 0.19900 0.41250
v 0.06005 0.19900 0.33750
v 0.05000 0.19900 0.37500
v 0.06005 0.19900 0.41250
v 0.08750 0.19900 0.31005
v 0.08750 0.14900 0.31005
v 0.08750 0.19900 0.31005
v 0.12500 0.19900 0.30000
v 0.12500 0.14900 0.30000
v 0.08750 0.19900 0.43995
v 0.12500 0.19900 0.30000
v 0.08750 0.14900 0.43995
v 0.08750 0.19900 0.43995
v 0.12500 0.14900 0.45000
v 0.12500 0.19900 0.45000
v 0.12500 0.19900 0.45000
v 0.16250 0.19900 0.31005
v 0.16250 0.14900 0.31005
v 0.16250 0.19900 0.31005
v 0.18995 0.19900 0.33750
v 0.18995 0.14900 0.33750
v 0.16250 0.19900 0.43995
v 0.18995 0.19900 0.33750
v 0.16250 0.14900 0.43995
v 0.16250 0.19900 0.43995
v 0.18995 0.14900 0.41250
v 0.18995 0.19900 0.41250
v 0.18995 0.19900 0.41250
v 0.20000 0.19900 0.37500
v 0.20000 0.14900 0.37500
v 0.20000 0.19900 0.37500
vn -0.6887 -0.6887 -0.2265
vn -0.2265 -0.6887 -0.6887
vn -0.1877 -0.9641 -0.1877
vn -0.6887 -0.2265 -0.6887
vn -0.9641 -0.1877 -0.1877
vn -0.1877 -0.1877 -0.9641
vn -0.6887 -0.6887 0.2265
vn -0.1877 -0.9641 0.1877
vn -0.6887 0.2265 -0.6887
vn -0.1877 0.1877 -0.9641
vn 0.2265 -0.6887 -0.6887
vn 0.1877 -0.9641 -0.1877
vn 0.1877 -0.1877 -0.9641
vn -0.9641 -0.1877 0.1877
vn -0.2265 -0.6887 0.6887
vn -0.6887 -0.2265 0.6887
vn -0.1877 -0.1877 0.9641
vn -0.9641 0.1877 0.1877
vn -0.6887 0.2265 0.6887
vn 0.1877 -0.9641 0.1877
vn 0.1877 -0.1877 0.9641
vn -0.1877 0.1877 0.9641
vn -0.9641 0.1877 -0.1877
vn -0.6887 0.6887 -0.2265
vn -0.2265 0.6887 -0.6887
vn -0.1877 0.9641 -0.1877
vn 0.0000 1.0000 0.0000
vn 0.0000 1.0000 0.0000
vn 0.0000 1.0000 0.0000
vn 0.0000 1.0000 0.0000
vn 0.0000 1.0000 0.0000
vn 0.0000 1.0000 0.0000
vn 0.0000 1.0000 0.0000
vn 0.0000 1.0000 0.0000
vn 0.0000 1.0000 0.0000
vn 0.0000 1.0000 0.0000
vn -0.1877 0.9641 0.1877
vn 0.0000 1.0000 0.0000
vn 0.0000 1.0000 0.0000
vn 0.0000 1.0000 0.0000
vn 0.0000 1.0000 0.0000
vn 0.0000 1.0000 0.0000
vn 0.0000 1.0000 0.0000
vn 0.0000 1.0000 0.0000
vn 0.2265 0.6887 -0.6887
vn 0.1877 0.9641 -0.1877
vn 0.0000 1.0000 0.0000
vn 0.0000 1.0000 0.0000
vn 0.0000 1.0000 0.0000
vn 0.0000 1.0000 0.0000
vn 0.0000 1.0000 0.0000
vn 0.0000 1.0000 0.0000
vn 0.0000 1.0000 0.0000
vn 0.0000 1.0000 0.0000
vn 0.0000 1.0000 0.0000
vn 0.0000 1.0000 0.0000
vn 0.0000 1.0000 0.0000
vn 0.0000 1.0000 0.0000
vn 0.0000 1.0000 0.0000
vn 0.0000 1.0000 0.0000
vn 0.0000 1.0000 0.0000
vn 0.0000 1.0000 0.0000
vn -0.6887 0.6887 0.2265
vn 0.0000 1.0000 0.0000
vn 0.0000 1.0000 0.0000
vn 0.0000 1.0000 0.0000
vn 0.0000 1.0000 0.0000
vn 0.0000 1.0000 0.0000
vn 0.0000 1.0000 0.0000
vn 0.0000 1.0000 0.0000
vn -0.2265 0.6887 0.6887
vn 0.0000 1.0000 0.0000
vn 0.0000 1.0000 0.0000
vn 0.0000 1.0000 0.0000
vn 0.0000 1.0000 0.0000
vn 0.0000 1.0000 0.0000
vn 0.0000 1.0000 0.0000
vn 0.0000 1.0000 0.0000
vn 0.0000 1.0000 0.0000
vn 0.0000 1.0000 0.0000
vn 0.0000 1.0000 0.0000
vn 0.1877 0.1877 0.9641
vn 0.0000 1.0000 0.0000
vn 0.2265 0.6887 0.6887
vn 0.0000 1.0000 0.0000
vn 0.0000 1.0000 0.0000
vn 0.0000 1.0000 0.0000
vn 0.0000 1.0000 0.0000
vn 0.0000 1.0000 0.0000
vn 0.0000 1.0000 0.0000
vn 0.6887 -0.6887 -0.2265
vn 0.6887 -0.2265 -0.6887
vn 0.9641 -0.1877 -0.1877
vn 0.6887 -0.6887 0.2265
vn 0.1877 0.1877 -0.9641
vn 0.9641 0.1877 -0.1877
vn 0.9641 -0.1877 0.1877
vn 0.2265 -0.6887 0.6887
vn 0.6887 -0.2265 0.6887
vn 0.9641 0.1877 0.1877
vn 0.0000 1.0000 0.0000
vn 0.0000 1.0000 0.0000
vn 0.0000 1.0000 0.0000
vn 0.0000 1.0000 0.0000
vn 0.0000 1.0000 0.0000
vn 0.0000 1.0000 0.0000
vn 0.0000 1.0000 0.0000
vn 0.0000 1.0000 0.0000
vn 0.6887 0.2265 -0.6887
vn 0.0000 1.0000 0.0000
vn 0.0000 1.0000 0.0000
vn 0.0000 1.0000 0.0000
vn 0.0000 1.0000 0.0000
vn 0.0000 1.0000 0.0000
vn 0.0000 1.0000 0.0000
vn 0.0000 1.0000 0.0000
vn 0.6887 0.6887 -0.2265
vn 0.0000 1.0000 0.0000
vn 0.0000 1.0000 0.0000
vn 0.0000 1.0000 0.0000
vn 0.0000 1.0000 0.0000
vn 0.0000 1.0000 0.0000
vn 0.6887 0.6887 0.2265
vn 0.0000 1.0000 0.0000
vn 0.0000 1.0000 0.0000
vn 0.0000 1.0000 0.0000
vn 0.0000 1.0000 0.0000
vn 0.0000 1.0000 0.0000
vn 0.0000 1.0000 0.0000
vn 0.0000 1.0000 0.0000
vn 0.0000 1.0000 0.0000
vn 0.0000 1.0000 0.0000
vn 0.0000 1.0000 0.0000
vn 0.1877 0.9641 0.1877
vn 0.0000 1.0000 0.0000
vn 0.6887 0.2265 0.6887
vn 0.0000 1.0000 0.0000
vn 0.0000 1.0000 0.0000
vn 0.0000 1.0000 0.0000
vn 0.0000 1.0000 0.0000
vn 0.0000 1.0000 0.0000
vn 0.0000 1.0000 0.0000
vn 0.0000 1.0000 0.0000
vn 0.0000 1.0000 0.0000
vn -0.8660 0.0000 -0.5000
vn -0.8660 0.0000 -0.5000
vn -1.0000 0.0000 0.0000
vn -1.0000 0.0000 0.0000
vn 0.0000 1.0000 0.0000
vn 0.0000 1.0000 0.0000
vn 0.0000 1.0000 0.0000
vn -0.8660 0.0000 0.5000
vn -0.8660 -0.0000 0.5000
vn -0.5000 0.0000 -0.8660
vn -0.5000 -0.0000 -0.8660
vn 0.0000 1.0000 0.0000
vn 0.0000 -0.0000 -1.0000
vn 0.0000 0.0000 -1.0000
vn 0.0000 1.0000 0.0000
vn 0.0000 1.0000 0.0000
vn -0.5000 -0.0000 0.8660
vn -0.5000 0.0000 0.8660
vn 0.0000 0.0000 1.0000
vn 0.0000 1.0000 0.0000
vn 0.0000 -0.0000 1.0000
vn 0.5000 0.0000 -0.8660
vn 0.5000 -0.0000 -0.8660
vn 0.0000 1.0000 0.0000
vn 0.8660 -0.0000 -0.5000
vn 0.8660 0.0000 -0.5000
vn 0.0000 1.0000 0.0000
vn 0.0000 1.0000 0.0000
vn 0.5000 -0.0000 0.8660
vn 0.5000 0.0000 0.8660
vn 0.8660 0.0000 0.5000
vn 0.8660 0.0000 0.5000
vn 0.0000 1.0000 0.0000
vn 1.0000 0.0000 0.0000
vn 1.0000 0.0000 0.0000
vn 0.0000 1.0000 0.0000
vn -0.8660 0.0000 -0.5000
vn -0.8660 0.0000 -0.5000
vn -1.0000 0.0000 0.0000
vn -1.0000 0.0000 0.0000
vn 0.0000 1.0000 0.0000
vn 0.0000 1.0000 0.0000
vn 0.0000 1.0000 0.0000
vn -0.8660 0.0000 0.5000
vn -0.8660 -0.0000 0.5000
vn -0.5000 0.0000 -0.8660
vn -0.5000 -0.0000 -0.8660
vn 0.0000 1.0000 0.0000
vn 0.0000 -0.0000 -1.0000
vn 0.0000 0.0000 -1.0000
vn 0.0000 1.0000 0.0000
vn 0.0000 1.0000 0.0000
vn -0.5000 -0.0000 0.8660
vn -0.5000 0.0000 0.8660
vn 0.0000 0.0000 1.0000
vn 0.0000 1.0000 0.0000
vn 0.0000 -0.0000 1.0000
vn 0.5000 0.0000 -0.8660
vn 0.5000 -0.0000 -0.8660
vn 0.0000 1.0000 0.0000
vn 0.8660 -0.0000 -0.5000
vn 0.8660 0.0000 -0.5000
vn 0.0000 1.0000 0.0000
vn 0.0000 1.0000 0.0000
vn 0.5000 -0.0000 0.8660
vn 0.5000 0.0000 0.8660
vn 0.8660 0.0000 0.5000
vn 0.8660 0.0000 0.5000
vn 0.0000 1.0000 0.0000
vn 1.0000 0.0000 0.0000
vn 1.0000 0.0000 0.0000
vn 0.0000 1.0000 0.0000
vn -0.8660 0.0000 -0.5000
vn -0.8660 0.0000 -0.5000
vn -1.0000 0.0000 0.0000
vn -1.0000 0.0000 0.0000
vn -0.8660 0.0000 0.5000
vn -0.8660 -0.0000 0.5000
vn 0.0000 1.0000 0.0000
vn 0.0000 1.0000 0.0000
vn 0.0000 1.0000 0.0000
vn -0.5000 0.0000 -0.8660
vn -0.5000 0.0000 -0.8660
vn 0.0000 1.0000 0.0000
vn -0.0000 0.0000 -1.0000
vn 0.0000 0.0000 -1.0000
vn 0.0000 1.0000 0.0000
vn 0.0000 1.0000 0.0000
vn -0.5000 -0.0000 0.8660
vn -0.5000 0.0000 0.8660
vn -0.0000 0.0000 1.0000
vn 0.0000 1.0000 0.0000
vn 0.0000 0.0000 1.0000
vn 0.5000 0.0000 -0.8660
vn 0.5000 -0.0000 -0.8660
vn 0.0000 1.0000 0.0000
vn 0.8660 -0.0000 -0.5000
vn 0.8660 0.0000 -0.5000
vn 0.0000 1.0000 0.0000
vn 0.0000 1.0000 0.0000
vn 0.5000 0.0000 0.8660
vn 0.5000 0.0000 0.8660
vn 0.8660 0.0000 0.5000
vn 0.8660 0.0000 0.5000
vn 0.0000 1.0000 0.0000
vn 1.0000 0.0000 0.0000
vn 1.0000 0.0000 0.0000
vn 0.0000 1.0000 0.0000
vn -0.8660 0.0000 -0.5000
vn -0.8660 0.0000 -0.5000
vn -1.0000 0.0000 0.0000
vn -1.0000 0.0000 0.0000
vn -0.8660 0.0000 0.5000
vn -0.8660 -0.0000 0.5000
vn 0.0000 1.0000 0.0000
vn 0.0000 1.0000 0.0000
vn 0.0000 1.0000 0.0000
vn -0.5000 0.0000 -0.8660
vn -0.5000 0.0000 -0.8660
vn 0.0000 1.0000 0.0000
vn -0.0000 0.0000 -1.0000
vn 0.0000 0.0000 -1.0000
vn 0.0000 1.0000 0.0000
vn 0.0000 1.0000 0.0000
vn -0.5000 -0.0000 0.8660
vn -0.5000 0.0000 0.8660
vn -0.0000 0.0000 1.0000
vn 0.0000 1.0000 0.0000
vn 0.0000 0.0000 1.0000
vn 0.5000 0.0000 -0.8660
vn 0.5000 -0.0000 -0.8660
vn 0.0000 1.0000 0.0000
vn 0.8660 -0.0000 -0.5000
vn 0.8660 0.0000 -0.5000
vn 0.0000 1.0000 0.0000
vn 0.0000 1.0000 0.0000
vn 0.5000 0.0000 0.8660
vn 0.5000 0.0000 0.8660
vn 0.8660 0.0000 0.5000
vn 0.8660 0.0000 0.5000
vn 0.0000 1.0000 0.0000
vn 1.0000 0.0000 0.0000
vn 1.0000 0.0000 0.0000
vn 0.0000 1.0000 0.0000
vn -0.8660 0.0000 -0.5000
vn -0.8660 0.0000 -0.5000
vn -1.0000 0.0000 0.0000
vn -1.0000 -0.0000 -0.0000
vn 0.0000 1.0000 0.0000
vn 0.0000 1.0000 0.0000
vn 0.0000 1.0000 0.0000
vn -0.8660 -0.0000 0.5000
vn -0.8660 0.0000 0.5000
vn -0.5000 0.0000 -0.8660
vn -0.5000 -0.0000 -0.8660
vn 0.0000 1.0000 0.0000
vn 0.0000 -0.0000 -1.0000
vn 0.0000 0.0000 -1.0000
vn 0.0000 1.0000 0.0000
vn 0.0000 1.0000 0.0000
vn -0.5000 0.0000 0.8660
vn -0.5000 0.0000 0.8660
vn 0.0000 0.0000 1.0000
vn 0.0000 1.0000 0.0000
vn 0.0000 -0.0000 1.0000
vn 0.5000 0.0000 -0.8660
vn 0.5000 0.0000 -0.8660
vn 0.0000 1.0000 0.0000
vn 0.8660 0.0000 -0.5000
vn 0.8660 -0.0000 -0.5000
vn 0.0000 1.0000 0.0000
vn 0.0000 1.0000 0.0000
vn 0.5000 -0.0000 0.8660
vn 0.5000 0.0000 0.8660
vn 0.8660 0.0000 0.5000
vn 0.8660 0.0000 0.5000
vn 0.0000 1.0000 0.0000
vn 1.0000 -0.0000 0.0000
vn 1.0000 0.0000 -0.0000
vn 0.0000 1.0000 0.0000
vn -0.8660 0.0000 -0.5000
vn -0.8660 0.0000 -0.5000
vn -1.0000 0.0000 0.0000
vn -1.0000 -0.0000 -0.0000
vn 0.0000 1.0000 0.0000
vn 0.0000 1.0000 0.0000
vn 0.0000 1.0000 0.0000
vn -0.8660 -0.0000 0.5000
vn -0.8660 0.0000 0.5000
vn -0.5000 0.0000 -0.8660
vn -0.5000 -0.0000 -0.8660
vn 0.0000 1.0000 0.0000
vn 0.0000 -0.0000 -1.0000
vn 0.0000 0.0000 -1.0000
vn 0.0000 1.0000 0.0000
vn 0.0000 1.0000 0.0000
vn -0.5000 0.0000 0.8660
vn -0.5000 0.0000 0.8660
vn 0.0000 0.0000 1.0000
vn 0.0000 1.0000 0.0000
vn 0.0000 -0.0000 1.0000
vn 0.5000 0.0000 -0.8660
vn 0.5000 0.0000 -0.8660
vn 0.0000 1.0000 0.0000
vn 0.8660 0.0000 -0.5000
vn 0.8660 -0.0000 -0.5000
vn 0.0000 1.0000 0.0000
vn 0.0000 1.0000 0.0000
vn 0.5000 -0.0000 0.8660
vn 0.5000 0.0000 0.8660
vn 0.8660 0.0000 0.5000
vn 0.8660 0.0000 0.5000
vn 0.0000 1.0000 0.0000
vn 1.0000 -0.0000 0.0000
vn 1.0000 0.0000 -0.0000
vn 0.0000 1.0000 0.0000
vn -0.8660 0.0000 -0.5000
vn -0.8660 0.0000 -0.5000
vn -1.0000 0.0000 0.0000
vn -1.0000 -0.0000 -0.0000
vn -0.8660 -0.0000 0.5000
vn -0.8660 0.0000 0.5000
vn 0.0000 1.0000 0.0000
vn 0.0000 1.0000 0.0000
vn 0.0000 1.0000 0.0000
vn -0.5000 0.0000 -0.8660
vn -0.5000 0.0000 -0.8660
vn 0.0000 1.0000 0.0000
vn -0.0000 0.0000 -1.0000
vn 0.0000 0.0000 -1.0000
vn 0.0000 1.0000 0.0000
vn 0.0000 1.0000 0.0000
vn -0.5000 0.0000 0.8660
vn -0.5000 0.0000 0.8660
vn -0.0000 0.0000 1.0000
vn 0.0000 1.0000 0.0000
vn 0.0000 0.0000 1.0000
vn 0.5000 0.0000 -0.8660
vn 0.5000 0.0000 -0.8660
vn 0.0000 1.0000 0.0000
vn 0.8660 0.0000 -0.5000
vn 0.8660 -0.0000 -0.5000
vn 0.0000 1.0000 0.0000
vn 0.0000 1.0000 0.0000
vn 0.5000 0.0000 0.8660
vn 0.5000 0.0000 0.8660
vn 0.8660 0.0000 0.5000
vn 0.8660 0.0000 0.5000
vn 0.0000 1.0000 0.0000
vn 1.0000 -0.0000 0.0000
vn 1.0000 0.0000 -0.0000
vn 0.0000 1.0000 0.0000
vn -0.8660 0.0000 -0.5000
vn -0.8660 0.0000 -0.5000
vn -1.0000 0.0000 0.0000
vn -1.0000 -0.0000 -0.0000
vn -0.8660 -0.0000 0.5000
vn -0.8660 0.0000 0.5000
vn 0.0000 1.0000 0.0000
vn 0.0000 1.0000 0.0000
vn 0.0000 1.0000 0.0000
vn -0.5000 0.0000 -0.8660
vn -0.5000 0.0000 -0.8660
vn 0.0000 1.0000 0.0000
vn -0.0000 0.0000 -1.0000
vn 0.0000 0.0000 -1.0000
vn 0.0000 1.0000 0.0000
vn 0.0000 1.0000 0.0000
vn -0.5000 0.0000 0.8660
vn -0.5000 0.0000 0.8660
vn -0.0000 0.0000 1.0000
vn 0.0000 1.0000 0.0000
vn 0.0000 0.0000 1.0000
vn 0.5000 0.0000 -0.8660
vn 0.5000 0.0000 -0.8660
vn 0.0000 1.0000 0.0000
vn 0.8660 0.0000 -0.5000
vn 0.8660 -0.0000 -0.5000
vn 0.0000 1.0000 0.0000
vn 0.0000 1.0000 0.0000
vn 0.5000 0.0000 0.8660
vn 0.5000 0.0000 0.8660
vn 0.8660 0.0000 0.5000
vn 0.8660 0.0000 0.5000
vn 0.0000 1.0000 0.0000
vn 1.0000 -0.0000 0.0000
vn 1.0000 0.0000 -0.0000
vn 0.0000 1.0000 0.0000
f 1//1 2//2 3//3
f 1//1 4//4 2//2
f 1//1 5//5 4//4
f 4//4 6//6 2//2
f 1//1 7//7 5//5
f 1//1 3//3 8//8
f 4//4 5//5 9//9
f 4//4 10//10 6//6
f 3//3 2//2 11//11
f 2//2 6//6 11//11
f 3//3 12//12 8//8
f 6//6 10//10 13//13
f 1//1 8//8 7//7
f 5//5 7//7 14//14
f 7//7 8//8 15//15
f 7//7 15//15 16//16
f 7//7 16//16 14//14
f 16//16 15//15 17//17
f 5//5 14//14 18//18
f 14//14 16//16 18//18
f 16//16 17//17 19//19
f 8//8 20//20 15//15
f 15//15 21//21 17//17
f 17//17 21//21 22//22
f 5//5 23//23 9//9
f 4//4 9//9 10//10
f 5//5 18//18 23//23
f 9//9 23//23 24//24
f 9//9 25//25 10//10
f 9//9 24//24 25//25
f 24//24 26//26 25//25
f 26//26 27//27 28//28
f 26//26 29//29 27//27
f 26//26 30//30 29//29
f 29//29 30//30 31//31
f 26//26 28//28 32//32
f 31//31 33//33 34//34
f 34//34 35//35 36//36
f 23//23 18//18 24//24
f 24//24 37//37 26//26
f 31//31 30//30 33//33
f 26//26 37//37 30//30
f 30//30 38//38 39//39
f 34//34 33//33 40//40
f 34//34 40//40 35//35
f 39//39 41//41 42//42
f 42//42 43//43 44//44
f 10//10 25//25 45//45
f 25//25 26//26 46//46
f 26//26 32//32 47//47
f 36//36 35//35 48//48
f 32//32 49//49 50//50
f 49//49 51//51 50//50
f 51//51 52//52 53//53
f 52//52 54//54 53//53
f 48//48 55//55 54//54
f 48//48 35//35 56//56
f 48//48 56//56 57//57
f 44//44 58//58 59//59
f 48//48 57//57 55//55
f 57//57 60//60 61//61
f 59//59 61//61 62//62
f 59//59 58//58 61//61
f 62//62 61//61 60//60
f 16//16 19//19 18//18
f 17//17 22//22 19//19
f 39//39 38//38 41//41
f 24//24 18//18 63//63
f 24//24 63//63 37//37
f 37//37 38//38 30//30
f 38//38 64//64 65//65
f 42//42 41//41 43//43
f 44//44 43//43 66//66
f 65//65 67//67 68//68
f 69//69 70//70 68//68
f 65//65 64//64 67//67
f 37//37 64//64 38//38
f 18//18 19//19 63//63
f 19//19 22//22 71//71
f 19//19 71//71 63//63
f 63//63 71//71 37//37
f 37//37 72//72 64//64
f 37//37 73//73 72//72
f 68//68 67//67 74//74
f 69//69 68//68 74//74
f 37//37 75//75 73//73
f 44//44 66//66 58//58
f 70//70 76//76 77//77
f 77//77 76//76 78//78
f 61//61 58//58 79//79
f 80//80 61//61 79//79
f 70//70 69//69 76//76
f 78//78 76//76 81//81
f 22//22 82//82 71//71
f 37//37 83//83 75//75
f 71//71 84//84 37//37
f 78//78 81//81 85//85
f 81//81 86//86 87//87
f 88//88 87//87 86//86
f 89//89 90//90 88//88
f 75//75 83//83 89//89
f 3//3 11//11 12//12
f 6//6 13//13 11//11
f 12//12 11//11 91//91
f 11//11 92//92 91//91
f 11//11 13//13 92//92
f 91//91 92//92 93//93
f 12//12 91//91 94//94
f 91//91 93//93 94//94
f 13//13 95//95 92//92
f 92//92 96//96 93//93
f 93//93 96//96 97//97
f 8//8 12//12 20//20
f 15//15 20//20 98//98
f 15//15 98//98 21//21
f 12//12 94//94 20//20
f 93//93 97//97 94//94
f 20//20 94//94 98//98
f 98//98 94//94 99//99
f 98//98 99//99 21//21
f 94//94 97//97 99//99
f 21//21 99//99 82//82
f 97//97 100//100 99//99
f 10//10 95//95 13//13
f 32//32 50//50 47//47
f 51//51 101//101 50//50
f 51//51 53//53 101//101
f 26//26 47//47 46//46
f 54//54 102//102 53//53
f 54//54 103//103 102//102
f 54//54 104//104 103//103
f 10//10 45//45 95//95
f 25//25 46//46 45//45
f 105//105 106//106 103//103
f 54//54 55//55 104//104
f 57//57 61//61 55//55
f 80//80 107//107 61//61
f 80//80 108//108 107//107
f 105//105 103//103 104//104
f 92//92 95//95 109//109
f 92//92 109//109 96//96
f 46//46 47//47 110//110
f 106//106 111//111 112//112
f 112//112 113//113 114//114
f 46//46 110//110 115//115
f 46//46 115//115 116//116
f 95//95 45//45 109//109
f 109//109 117//117 96//96
f 45//45 117//117 109//109
f 45//45 46//46 117//117
f 46//46 116//116 118//118
f 116//116 114//114 113//113
f 106//106 105//105 111//111
f 112//112 111//111 113//113
f 119//119 120//120 121//121
f 116//116 113//113 118//118
f 46//46 118//118 122//122
f 46//46 123//123 117//117
f 96//96 117//117 123//123
f 121//121 124//124 118//118
f 22//22 21//21 82//82
f 78//78 125//125 80//80
f 80//80 125//125 108//108
f 78//78 126//126 119//119
f 78//78 127//127 126//126
f 78//78 128//128 127//127
f 78//78 85//85 128//128
f 78//78 119//119 125//125
f 119//119 126//126 129//129
f 128//128 85//85 130//130
f 130//130 131//131 132//132
f 81//81 87//87 85//85
f 88//88 133//133 87//87
f 88//88 90//90 133//133
f 89//89 83//83 90//90
f 37//37 134//134 83//83
f 130//130 85//85 131//131
f 132//132 131//131 135//135
f 71//71 82//82 84//84
f 37//37 84//84 134//134
f 97//97 96//96 100//100
f 99//99 136//136 82//82
f 99//99 100//100 136//136
f 119//119 129//129 137//137
f 119//119 137//137 120//120
f 121//121 120//120 124//124
f 132//132 135//135 138//138
f 138//138 139//139 140//140
f 118//118 124//124 122//122
f 46//46 122//122 134//134
f 140//140 141//141 122//122
f 96//96 123//123 100//100
f 46//46 134//134 123//123
f 138//138 135//135 139//139
f 140//140 139//139 141//141
f 134//134 142//142 83//83
f 122//122 141//141 143//143
f 134//134 122//122 143//143
f 134//134 143//143 144//144
f 134//134 144//144 142//142
f 82//82 136//136 84//84
f 100//100 123//123 136//136
f 84//84 136//136 123//123
f 84//84 123//123 134//134
f 145//145 146//146 147//147
f 145//145 147//147 148//148
f 149//149 150//150 151//151
f 148//148 147//147 152//152
f 148//148 152//152 153//153
f 154//154 155//155 146//146
f 145//145 154//154 146//146
f 149//149 151//151 156//156
f 157//157 158//158 155//155
f 154//154 157//157 155//155
f 156//156 159//159 160//160
f 153//153 152//152 161//161
f 153//153 161//161 162//162
f 151//151 159//159 156//156
f 162//162 161//161 163//163
f 159//159 164//164 160//160
f 162//162 163//163 165//165
f 166//166 167//167 158//158
f 157//157 166//166 158//158
f 160//160 164//164 168//168
f 169//169 170//170 167//167
f 166//166 169//169 167//167
f 168//168 171//171 172//172
f 165//165 163//163 173//173
f 164//164 171//171 168//168
f 165//165 173//173 174//174
f 174//174 173//173 175//175
f 176//176 174//174 175//175
f 172//172 171//171 177//177
f 178//178 179//179 170//170
f 169//169 178//178 170//170
f 172//172 177//177 180//180
f 176//176 175//175 179//179
f 176//176 179//179 178//178
f 181//181 182//182 183//183
f 181//181 183//183 184//184
f 185//185 186//186 187//187
f 184//184 183//183 188//188
f 184//184 188//188 189//189
f 190//190 191//191 182//182
f 181//181 190//190 182//182
f 185//185 187//187 192//192
f 193//193 194//194 191//191
f 190//190 193//193 191//191
f 192//192 195//195 196//196
f 189//189 188//188 197//197
f 189//189 197//197 198//198
f 192//192 187//187 195//195
f 198//198 197//197 199//199
f 195//195 200//200 196//196
f 198//198 199//199 201//201
f 202//202 203//203 194//194
f 193//193 202//202 194//194
f 196//196 200//200 204//204
f 205//205 206//206 203//203
f 202//202 205//205 203//203
f 204//204 207//207 208//208
f 201//201 199//199 209//209
f 200//200 207//207 204//204
f 201//201 209//209 210//210
f 210//210 209//209 211//211
f 210//210 211//211 212//212
f 208//208 207//207 213//213
f 214//214 215//215 206//206
f 205//205 214//214 206//206
f 208//208 213//213 216//216
f 212//212 211//211 215//215
f 212//212 215//215 214//214
f 217//217 218//218 219//219
f 217//217 219//219 220//220
f 220//220 219//219 221//221
f 220//220 221//221 222//222
f 223//223 224//224 225//225
f 226//226 227//227 218//218
f 217//217 226//226 218//218
f 223//223 225//225 228//228
f 229//229 230//230 227//227
f 226//226 229//229 227//227
f 228//228 231//231 232//232
f 222//222 221//221 233//233
f 222//222 233//233 234//234
f 228//228 225//225 231//231
f 234//234 233//233 235//235
f 231//231 236//236 232//232
f 234//234 235//235 237//237
f 238//238 239//239 230//230
f 229//229 238//238 230//230
f 232//232 236//236 240//240
f 241//241 242//242 239//239
f 238//238 241//241 239//239
f 240//240 243//243 244//244
f 237//237 235//235 245//245
f 236//236 243//243 240//240
f 237//237 245//245 246//246
f 246//246 245//245 247//247
f 246//246 247//247 248//248
f 244//244 243//243 249//249
f 250//250 251//251 242//242
f 241//241 250//250 242//242
f 248//248 247//247 251//251
f 248//248 251//251 250//250
f 244//244 249//249 252//252
f 253//253 254//254 255//255
f 253//253 255//255 256//256
f 256//256 255//255 257//257
f 256//256 257//257 258//258
f 259//259 260//260 261//261
f 262//262 263//263 254//254
f 262//262 254//254 253//253
f 264//264 259//259 261//261
f 265//265 266//266 263//263
f 262//262 265//265 263//263
f 264//264 267//267 268//268
f 258//258 257//257 269//269
f 258//258 269//269 270//270
f 264//264 261//261 267//267
f 270//270 269//269 271//271
f 267//267 272//272 268//268
f 270//270 271//271 273//273
f 274//274 275//275 266//266
f 265//265 274//274 266//266
f 268//268 272//272 276//276
f 277//277 278//278 275//275
f 274//274 277//277 275//275
f 276//276 279//279 280//280
f 273//273 271//271 281//281
f 272//272 279//279 276//276
f 273//273 281//281 282//282
f 282//282 281//281 283//283
f 282//282 283//283 284//284
f 279//279 285//285 280//280
f 286//286 287//287 278//278
f 277//277 286//286 278//278
f 284//284 283//283 287//287
f 284//284 287//287 286//286
f 280//280 285//285 288//288
f 289//289 290//290 291//291
f 289//289 291//291 292//292
f 293//293 294//294 295//295
f 292//292 291//291 296//296
f 292//292 296//296 297//297
f 298//298 299//299 290//290
f 289//289 298//298 290//290
f 293//293 295//295 300//300
f 301//301 302//302 299//299
f 298//298 301//301 299//299
f 300//300 303//303 304//304
f 297//297 296//296 305//305
f 297//297 305//305 306//306
f 295//295 303//303 300//300
f 306//306 305//305 307//307
f 303//303 308//308 304//304
f 306//306 307//307 309//309
f 310//310 311//311 302//302
f 301//301 310//310 302//302
f 304//304 308//308 312//312
f 313//313 314//314 311//311
f 310//310 313//313 311//311
f 312//312 315//315 316//316
f 309//309 307//307 317//317
f 308//308 315//315 312//312
f 309//309 317//317 318//318
f 318//318 317//317 319//319
f 320//320 318//318 319//319
f 316//316 315//315 321//321
f 322//322 323//323 314//314
f 313//313 322//322 314//314
f 316//316 321//321 324//324
f 320//320 319//319 323//323
f 322//322 320//320 323//323
f 325//325 326//326 327//327
f 325//325 327//327 328//328
f 329//329 330//330 331//331
f 328//328 327//327 332//332
f 328//328 332//332 333//333
f 334//334 335//335 326//326
f 325//325 334//334 326//326
f 329//329 331//331 336//336
f 337//337 338//338 335//335
f 334//334 337//337 335//335
f 336//336 339//339 340//340
f 333//333 332//332 341//341
f 333//333 341//341 342//342
f 336//336 331//331 339//339
f 342//342 341//341 343//343
f 339//339 344//344 340//340
f 342//342 343//343 345//345
f 346//346 347//347 338//338
f 337//337 346//346 338//338
f 340//340 344//344 348//348
f 349//349 350//350 347//347
f 346//346 349//349 347//347
f 348//348 351//351 352//352
f 345//345 343//343 353//353
f 344//344 351//351 348//348
f 345//345 353//353 354//354
f 354//354 353//353 355//355
f 354//354 355//355 356//356
f 352//352 351//351 357//357
f 358//358 359//359 350//350
f 349//349 358//358 350//350
f 352//352 357//357 360//360
f 356//356 355//355 359//359
f 358//358 356//356 359//359
f 361//361 362//362 363//363
f 361//361 363//363 364//364
f 364//364 363//363 365//365
f 364//364 365//365 366//366
f 367//367 368//368 369//369
f 370//370 371//371 362//362
f 361//361 370//370 362//362
f 367//367 369//369 372//372
f 373//373 374//374 371//371
f 370//370 373//373 371//371
f 372//372 375//375 376//376
f 366//366 365//365 377//377
f 366//366 377//377 378//378
f 372//372 369//369 375//375
f 378//378 377//377 379//379
f 375//375 380//380 376//376
f 378//378 379//379 381//381
f 382//382 383//383 374//374
f 373//373 382//382 374//374
f 376//376 380//380 384//384
f 385//385 386//386 383//383
f 382//382 385//385 383//383
f 384//384 387//387 388//388
f 381//381 379//379 389//389
f 380//380 387//387 384//384
f 381//381 389//389 390//390
f 390//390 389//389 391//391
f 390//390 391//391 392//392
f 388//388 387//387 393//393
f 394//394 395//395 386//386
f 385//385 394//394 386//386
f 392//392 391//391 395//395
f 394//394 392//392 395//395
f 388//388 393//393 396//396
f 397//397 398//398 399//399
f 397//397 399//399 400//400
f 400//400 399//399 401//401
f 400//400 401//401 402//402
f 403//403 404//404 405//405
f 406//406 407//407 398//398
f 406//406 398//398 397//397
f 408//408 403//403 405//405
f 409//409 410//410 407//407
f 406//406 409//409 407//407
f 408//408 411//411 412//412
f 402//402 401//401 413//413
f 402//402 413//413 414//414
f 408//408 405//405 411//411
f 414//414 413//413 415//415
f 411//411 416//416 412//412
f 414//414 415//415 417//417
f 418//418 419//419 410//410
f 409//409 418//418 410//410
f 412//412 416//416 420//420
f 421//421 422//422 419//419
f 418//418 421//421 419//419
f 420//420 423//423 424//424
f 417//417 415//415 425//425
f 416//416 423//423 420//420
f 417//417 425//425 426//426
f 426//426 425//425 427//427
f 426//426 427//427 428//428
f 423//423 429//429 424//424
f 430//430 431//431 422//422
f 421//421 430//430 422//422
f 428//428 427//427 431//431
f 430//430 428//428 431//431
f 424//424 429//429 432//432
