v -0.12066 -0.14666 -0.24000
v -0.12300 -0.14100 -0.24000
v -0.12066 -0.14100 -0.24566
v -0.11500 -0.14666 -0.24566
v -0.11500 -0.14900 -0.24000
v -0.11500 -0.14100 -0.24800
v -0.12300 -0.14100 0.24000
v -0.12066 -0.14666 0.24000
v -0.12300 0.14100 -0.24000
v -0.11500 0.14100 -0.24800
v 0.11500 -0.14900 -0.24000
v 0.11500 -0.14666 -0.24566
v -0.11500 -0.14900 0.24000
v -0.12066 -0.14100 0.24566
v -0.11500 -0.14666 0.24566
v -0.11500 -0.14100 0.24800
v -0.12066 0.14100 0.24566
v 0.11500 -0.14666 0.24566
v 0.11500 -0.14100 0.24800
v -0.11500 0.14100 0.24800
v -0.12066 0.14100 -0.24566
v -0.12066 0.14666 -0.24000
v -0.11500 0.14666 -0.24566
v -0.11500 0.14900 -0.24000
v -0.06495 0.14900 -0.16250
v -0.03750 0.14900 -0.18995
v -0.07500 0.14900 -0.12500
v -0.12300 0.14100 0.24000
v -0.12066 0.14666 0.24000
v -0.11500 0.14900 0.24000
v -0.07500 0.14900 0.12500
v -0.06495 0.14900 -0.08750
v 0.11500 0.14100 -0.24800
v 0.00000 0.14900 -0.20000
v 0.11500 0.14666 -0.24566
v -0.06495 0.14900 0.08750
v -0.03750 0.14900 -0.06005
v 0.00000 0.14900 0.05000
v 0.00000 0.14900 -0.05000
v -0.11500 0.14666 0.24566
v -0.06495 0.14900 0.16250
v -0.03750 0.14900 0.18995
v -0.03750 0.14900 0.06005
v 0.00000 0.14900 0.20000
v 0.11500 0.14100 0.24800
v 0.11500 0.14900 0.24000
v 0.11500 -0.14100 -0.24800
v 0.12066 -0.14666 -0.24000
v 0.12066 -0.14100 -0.24566
v 0.12300 -0.14100 -0.24000
v 0.12066 -0.14666 0.24000
v 0.12300 0.14100 -0.24000
v 0.12300 -0.14100 0.24000
v 0.11500 -0.14900 0.24000
v 0.12066 -0.14100 0.24566
v 0.12300 0.14100 0.24000
v 0.11500 0.14900 -0.24000
v 0.03750 0.14900 -0.18995
v 0.03750 0.14900 0.06005
v 0.03750 0.14900 -0.06005
v 0.06495 0.14900 -0.08750
v 0.06495 0.14900 0.08750
v 0.12066 0.14100 -0.24566
v 0.06495 0.14900 -0.16250
v 0.07500 0.14900 -0.12500
v 0.12066 0.14666 -0.24000
v 0.07500 0.14900 0.12500
v 0.12066 0.14666 0.24000
v 0.11500 0.14666 0.24566
v 0.03750 0.14900 0.18995
v 0.12066 0.14100 0.24566
v 0.06495 0.14900 0.16250
v -0.06495 0.19900 -0.16250
v -0.06495 0.14900 -0.16250
v -0.07500 0.14900 -0.12500
v -0.07500 0.19900 -0.12500
v -0.06495 0.19900 -0.16250
v -0.07500 0.19900 -0.12500
v -0.06495 0.19900 -0.08750
v -0.06495 0.14900 -0.08750
v -0.06495 0.19900 -0.08750
v -0.03750 0.19900 -0.18995
v -0.03750 0.14900 -0.18995
v -0.03750 0.19900 -0.18995
v 0.00000 0.19900 -0.20000
v 0.00000 0.14900 -0.20000
v -0.03750 0.19900 -0.06005
v 0.00000 0.19900 -0.20000
v -0.03750 0.14900 -0.06005
v -0.03750 0.19900 -0.06005
v 0.00000 0.19900 -0.05000
v 0.00000 0.14900 -0.05000
v 0.00000 0.19900 -0.05000
v 0.03750 0.19900 -0.18995
v 0.03750 0.14900 -0.18995
v 0.03750 0.19900 -0.18995
v 0.06495 0.19900 -0.16250
v 0.06495 0.14900 -0.16250
v 0.03750 0.19900 -0.06005
v 0.06495 0.19900 -0.16250
v 0.03750 0.14900 -0.06005
v 0.03750 0.19900 -0.06005
v 0.06495 0.14900 -0.08750
v 0.06495 0.19900 -0.08750
v 0.06495 0.19900 -0.08750
v 0.07500 0.19900 -0.12500
v 0.07500 0.14900 -0.12500
v 0.07500 0.19900 -0.12500
v -0.06495 0.19900 0.08750
v -0.06495 0.14900 0.08750
v -0.07500 0.14900 0.12500
v -0.07500 0.19900 0.12500
v -0.06495 0.14900 0.16250
v -0.06495 0.19900 0.16250
v -0.06495 0.19900 0.08750
v -0.07500 0.19900 0.12500
v -0.06495 0.19900 0.16250
v -0.03750 0.19900 0.06005
v -0.03750 0.14900 0.06005
v -0.03750 0.19900 0.06005
v 0.00000 0.19900 0.05000
v 0.00000 0.14900 0.05000
v -0.03750 0.19900 0.18995
v 0.00000 0.19900 0.05000
v -0.03750 0.14900 0.18995
v -0.03750 0.19900 0.18995
v 0.00000 0.19900 0.20000
v 0.00000 0.14900 0.20000
v 0.00000 0.19900 0.20000
v 0.03750 0.19900 0.06005
v 0.03750 0.14900 0.06005
v 0.03750 0.19900 0.06005
v 0.06495 0.19900 0.08750
v 0.06495 0.14900 0.08750
v 0.03750 0.19900 0.18995
v 0.06495 0.19900 0.08750
v 0.03750 0.14900 0.18995
v 0.03750 0.19900 0.18995
v 0.06495 0.14900 0.16250
v 0.06495 0.19900 0.16250
v 0.06495 0.19900 0.16250
v 0.07500 0.19900 0.12500
v 0.07500 0.14900 0.12500
v 0.07500 0.19900 0.12500
vn -0.6887 -0.6887 -0.2265
vn -0.9641 -0.1877 -0.1877
vn -0.6887 -0.2265 -0.6887
vn -0.2265 -0.6887 -0.6887
vn -0.1877 -0.9641 -0.1877
vn -0.1877 -0.1877 -0.9641
vn -0.9641 -0.1877 0.1877
vn -0.6887 -0.6887 0.2265
vn -0.9641 0.1877 -0.1877
vn -0.1877 0.1877 -0.9641
vn 0.1877 -0.9641 -0.1877
vn 0.2265 -0.6887 -0.6887
vn -0.1877 -0.9641 0.1877
vn -0.6887 -0.2265 0.6887
vn -0.2265 -0.6887 0.6887
vn -0.1877 -0.1877 0.9641
vn -0.6887 0.2265 0.6887
vn 0.2265 -0.6887 0.6887
vn 0.1877 -0.1877 0.9641
vn -0.1877 0.1877 0.9641
vn -0.6887 0.2265 -0.6887
vn -0.6887 0.6887 -0.2265
vn -0.2265 0.6887 -0.6887
vn -0.1877 0.9641 -0.1877
vn 0.0000 1.0000 0.0000
vn 0.0000 1.0000 0.0000
vn 0.0000 1.0000 0.0000
vn -0.9641 0.1877 0.1877
vn -0.6887 0.6887 0.2265
vn -0.1877 0.9641 0.1877
vn 0.0000 1.0000 0.0000
vn 0.0000 1.0000 0.0000
vn 0.1877 0.1877 -0.9641
vn 0.0000 1.0000 0.0000
vn 0.2265 0.6887 -0.6887
vn 0.0000 1.0000 0.0000
vn 0.0000 1.0000 0.0000
vn 0.0000 1.0000 0.0000
vn 0.0000 1.0000 0.0000
vn -0.2265 0.6887 0.6887
vn 0.0000 1.0000 0.0000
vn 0.0000 1.0000 0.0000
vn 0.0000 1.0000 0.0000
vn 0.0000 1.0000 0.0000
vn 0.1877 0.1877 0.9641
vn 0.1877 0.9641 0.1877
vn 0.1877 -0.1877 -0.9641
vn 0.6887 -0.6887 -0.2265
vn 0.6887 -0.2265 -0.6887
vn 0.9641 -0.1877 -0.1877
vn 0.6887 -0.6887 0.2265
vn 0.9641 0.1877 -0.1877
vn 0.9641 -0.1877 0.1877
vn 0.1877 -0.9641 0.1877
vn 0.6887 -0.2265 0.6887
vn 0.9641 0.1877 0.1877
vn 0.1877 0.9641 -0.1877
vn 0.0000 1.0000 0.0000
vn 0.0000 1.0000 0.0000
vn 0.0000 1.0000 0.0000
vn 0.0000 1.0000 0.0000
vn 0.0000 1.0000 0.0000
vn 0.6887 0.2265 -0.6887
vn 0.0000 1.0000 0.0000
vn 0.0000 1.0000 0.0000
vn 0.6887 0.6887 -0.2265
vn 0.0000 1.0000 0.0000
vn 0.6887 0.6887 0.2265
vn 0.2265 0.6887 0.6887
vn 0.0000 1.0000 0.0000
vn 0.6887 0.2265 0.6887
vn 0.0000 1.0000 0.0000
vn -0.8660 0.0000 -0.5000
vn -0.8660 -0.0000 -0.5000
vn -1.0000 0.0000 -0.0000
vn -1.0000 0.0000 0.0000
vn 0.0000 1.0000 0.0000
vn 0.0000 1.0000 0.0000
vn 0.0000 1.0000 0.0000
vn -0.8660 0.0000 0.5000
vn -0.8660 0.0000 0.5000
vn -0.5000 -0.0000 -0.8660
vn -0.5000 0.0000 -0.8660
vn 0.0000 1.0000 0.0000
vn 0.0000 0.0000 -1.0000
vn 0.0000 0.0000 -1.0000
vn 0.0000 1.0000 0.0000
vn 0.0000 1.0000 0.0000
vn -0.5000 0.0000 0.8660
vn -0.5000 0.0000 0.8660
vn 0.0000 1.0000 0.0000
vn 0.0000 0.0000 1.0000
vn 0.0000 0.0000 1.0000
vn 0.5000 0.0000 -0.8660
vn 0.5000 0.0000 -0.8660
vn 0.0000 1.0000 0.0000
vn 0.8660 0.0000 -0.5000
vn 0.8660 0.0000 -0.5000
vn 0.0000 1.0000 0.0000
vn 0.0000 1.0000 0.0000
vn 0.5000 0.0000 0.8660
vn 0.5000 0.0000 0.8660
vn 0.8660 0.0000 0.5000
vn 0.0000 1.0000 0.0000
vn 0.8660 0.0000 0.5000
vn 1.0000 0.0000 0.0000
vn 1.0000 0.0000 0.0000
vn 0.0000 1.0000 0.0000
vn -0.8660 0.0000 -0.5000
vn -0.8660 0.0000 -0.5000
vn -1.0000 0.0000 -0.0000
vn -1.0000 0.0000 0.0000
vn -0.8660 0.0000 0.5000
vn -0.8660 -0.0000 0.5000
vn 0.0000 1.0000 0.0000
vn 0.0000 1.0000 0.0000
vn 0.0000 1.0000 0.0000
vn -0.5000 0.0000 -0.8660
vn -0.5000 -0.0000 -0.8660
vn 0.0000 1.0000 0.0000
vn 0.0000 -0.0000 -1.0000
vn 0.0000 0.0000 -1.0000
vn 0.0000 1.0000 0.0000
vn 0.0000 1.0000 0.0000
vn -0.5000 -0.0000 0.8660
vn -0.5000 0.0000 0.8660
vn 0.0000 1.0000 0.0000
vn 0.0000 0.0000 1.0000
vn 0.0000 -0.0000 1.0000
vn 0.5000 0.0000 -0.8660
vn 0.5000 -0.0000 -0.8660
vn 0.0000 1.0000 0.0000
vn 0.8660 -0.0000 -0.5000
vn 0.8660 0.0000 -0.5000
vn 0.0000 1.0000 0.0000
vn 0.0000 1.0000 0.0000
vn 0.5000 -0.0000 0.8660
vn 0.5000 0.0000 0.8660
vn 0.8660 0.0000 0.5000
vn 0.0000 1.0000 0.0000
vn 0.8660 0.0000 0.5000
vn 1.0000 0.0000 0.0000
vn 1.0000 0.0000 0.0000
vn 0.0000 1.0000 0.0000
f 1//1 2//2 3//3
f 1//1 3//3 4//4
f 1//1 4//4 5//5
f 3//3 6//6 4//4
f 1//1 7//7 2//2
f 1//1 5//5 8//8
f 3//3 2//2 9//9
f 3//3 10//10 6//6
f 2//2 7//7 9//9
f 4//4 11//11 5//5
f 4//4 6//6 12//12
f 5//5 11//11 13//13
f 1//1 8//8 7//7
f 5//5 13//13 8//8
f 8//8 14//14 7//7
f 8//8 15//15 14//14
f 8//8 13//13 15//15
f 14//14 15//15 16//16
f 7//7 14//14 17//17
f 14//14 16//16 17//17
f 13//13 18//18 15//15
f 15//15 19//19 16//16
f 16//16 19//19 20//20
f 3//3 9//9 21//21
f 3//3 21//21 10//10
f 21//21 9//9 22//22
f 21//21 23//23 10//10
f 21//21 22//22 23//23
f 22//22 24//24 23//23
f 24//24 25//25 26//26
f 24//24 27//27 25//25
f 9//9 28//28 22//22
f 22//22 29//29 24//24
f 24//24 30//30 27//27
f 27//27 31//31 32//32
f 6//6 10//10 33//33
f 24//24 26//26 34//34
f 10//10 23//23 35//35
f 23//23 24//24 35//35
f 32//32 36//36 37//37
f 38//38 39//39 37//37
f 7//7 28//28 9//9
f 7//7 17//17 28//28
f 16//16 20//20 17//17
f 22//22 28//28 29//29
f 24//24 29//29 30//30
f 32//32 31//31 36//36
f 30//30 31//31 27//27
f 28//28 17//17 29//29
f 17//17 20//20 40//40
f 17//17 40//40 29//29
f 29//29 40//40 30//30
f 30//30 41//41 31//31
f 30//30 42//42 41//41
f 37//37 36//36 43//43
f 38//38 37//37 43//43
f 30//30 44//44 42//42
f 20//20 45//45 40//40
f 30//30 40//40 46//46
f 4//4 12//12 11//11
f 6//6 47//47 12//12
f 6//6 33//33 47//47
f 12//12 48//48 11//11
f 12//12 49//49 48//48
f 12//12 47//47 49//49
f 48//48 49//49 50//50
f 11//11 48//48 51//51
f 48//48 50//50 51//51
f 47//47 33//33 49//49
f 49//49 52//52 50//50
f 50//50 52//52 53//53
f 13//13 11//11 54//54
f 13//13 54//54 18//18
f 15//15 18//18 19//19
f 11//11 51//51 54//54
f 50//50 53//53 51//51
f 54//54 51//51 18//18
f 18//18 51//51 55//55
f 18//18 55//55 19//19
f 51//51 53//53 55//55
f 19//19 55//55 45//45
f 53//53 56//56 55//55
f 24//24 34//34 57//57
f 10//10 35//35 33//33
f 24//24 57//57 35//35
f 57//57 34//34 58//58
f 39//39 59//59 60//60
f 61//61 60//60 62//62
f 49//49 33//33 63//63
f 49//49 63//63 52//52
f 57//57 58//58 64//64
f 57//57 64//64 65//65
f 33//33 35//35 63//63
f 63//63 66//66 52//52
f 35//35 57//57 66//66
f 35//35 66//66 63//63
f 57//57 65//65 67//67
f 65//65 61//61 62//62
f 57//57 68//68 66//66
f 52//52 66//66 68//68
f 20//20 19//19 45//45
f 39//39 38//38 59//59
f 59//59 62//62 60//60
f 30//30 46//46 44//44
f 40//40 45//45 69//69
f 40//40 69//69 46//46
f 46//46 70//70 44//44
f 53//53 52//52 56//56
f 55//55 71//71 45//45
f 55//55 56//56 71//71
f 65//65 62//62 67//67
f 57//57 67//67 46//46
f 52//52 68//68 56//56
f 57//57 46//46 68//68
f 46//46 67//67 72//72
f 46//46 72//72 70//70
f 45//45 71//71 69//69
f 56//56 68//68 71//71
f 46//46 69//69 68//68
f 69//69 71//71 68//68
f 73//73 74//74 75//75
f 73//73 75//75 76//76
f 77//77 78//78 79//79
f 76//76 75//75 80//80
f 76//76 80//80 81//81
f 82//82 83//83 74//74
f 73//73 82//82 74//74
f 77//77 79//79 84//84
f 82//82 85//85 83//83
f 85//85 86//86 83//83
f 84//84 87//87 88//88
f 81//81 80//80 89//89
f 79//79 87//87 84//84
f 81//81 89//89 90//90
f 88//88 87//87 91//91
f 90//90 89//89 92//92
f 90//90 92//92 93//93
f 85//85 94//94 86//86
f 94//94 95//95 86//86
f 88//88 91//91 96//96
f 97//97 98//98 95//95
f 94//94 97//97 95//95
f 96//96 99//99 100//100
f 91//91 99//99 96//96
f 93//93 92//92 101//101
f 93//93 101//101 102//102
f 102//102 101//101 103//103
f 99//99 104//104 100//100
f 102//102 103//103 105//105
f 106//106 107//107 98//98
f 97//97 106//106 98//98
f 100//100 104//104 108//108
f 105//105 103//103 107//107
f 106//106 105//105 107//107
f 109//109 110//110 111//111
f 109//109 111//111 112//112
f 112//112 111//111 113//113
f 112//112 113//113 114//114
f 115//115 116//116 117//117
f 118//118 119//119 110//110
f 109//109 118//118 110//110
f 115//115 117//117 120//120
f 118//118 121//121 119//119
f 121//121 122//122 119//119
f 120//120 123//123 124//124
f 114//114 113//113 125//125
f 117//117 123//123 120//120
f 114//114 125//125 126//126
f 124//124 123//123 127//127
f 126//126 125//125 128//128
f 126//126 128//128 129//129
f 121//121 130//130 122//122
f 130//130 131//131 122//122
f 124//124 127//127 132//132
f 133//133 134//134 131//131
f 130//130 133//133 131//131
f 132//132 135//135 136//136
f 127//127 135//135 132//132
f 129//129 128//128 137//137
f 129//129 137//137 138//138
f 138//138 137//137 139//139
f 135//135 140//140 136//136
f 138//138 139//139 141//141
f 142//142 143//143 134//134
f 133//133 142//142 134//134
f 141//141 139//139 143//143
f 136//136 140//140 144//144
f 142//142 141//141 143//143
