v -0.24566 -0.24100 -0.07066
v -0.24000 -0.24100 -0.07300
v -0.24000 -0.24666 -0.07066
v -0.24566 -0.24666 -0.06500
v -0.24800 -0.24100 -0.06500
v -0.24000 -0.24900 -0.06500
v -0.24566 -0.15900 -0.07066
v -0.24000 -0.15900 -0.07300
v -0.24800 -0.15900 -0.06500
v -0.24000 -0.15334 -0.07066
v -0.24566 -0.15334 -0.06500
v -0.24000 -0.15100 -0.06500
v -0.16250 -0.15100 -0.01495
v -0.12500 -0.15100 -0.02500
v 0.24000 -0.24100 -0.07300
v 0.24000 -0.24900 -0.06500
v 0.24000 -0.15900 -0.07300
v 0.24000 -0.15334 -0.07066
v 0.24000 -0.15100 -0.06500
v -0.24566 -0.24666 0.16500
v -0.24800 -0.15900 0.16500
v -0.24000 -0.15100 0.16500
v -0.20000 -0.15100 0.05000
v -0.18995 -0.15100 0.01250
v -0.24800 -0.24100 0.16500
v -0.24000 -0.24900 0.16500
v -0.24566 -0.24100 0.17066
v -0.24000 -0.24666 0.17066
v -0.24000 -0.24100 0.17300
v -0.24566 -0.15900 0.17066
v -0.24566 -0.15334 0.16500
v -0.18995 -0.15100 0.08750
v -0.16250 -0.15100 0.11495
v -0.24000 -0.15900 0.17300
v -0.24000 -0.15334 0.17066
v -0.12500 -0.15100 0.12500
v -0.08750 -0.15100 -0.01495
v 0.08750 -0.15100 -0.01495
v -0.06005 -0.15100 0.01250
v 0.06005 -0.15100 0.01250
v -0.05000 -0.15100 0.05000
v -0.06005 -0.15100 0.08750
v 0.24000 -0.24900 0.16500
v 0.24000 -0.24100 0.17300
v 0.24000 -0.15900 0.17300
v 0.12500 -0.15100 0.12500
v 0.24000 -0.15100 0.16500
v -0.08750 -0.15100 0.11495
v 0.08750 -0.15100 0.11495
v 0.24000 -0.24666 -0.07066
v 0.12500 -0.15100 -0.02500
v 0.16250 -0.15100 -0.01495
v 0.24566 -0.24100 -0.07066
v 0.24566 -0.24666 -0.06500
v 0.24800 -0.24100 -0.06500
v 0.24800 -0.15900 -0.06500
v 0.24566 -0.15900 -0.07066
v 0.24566 -0.15334 -0.06500
v 0.05000 -0.15100 0.05000
v 0.06005 -0.15100 0.08750
v 0.24000 -0.24666 0.17066
v 0.24000 -0.15334 0.17066
v 0.24566 -0.24666 0.16500
v 0.24800 -0.24100 0.16500
v 0.18995 -0.15100 0.01250
v 0.20000 -0.15100 0.05000
v 0.24800 -0.15900 0.16500
v 0.16250 -0.15100 0.11495
v 0.24566 -0.24100 0.17066
v 0.18995 -0.15100 0.08750
v 0.24566 -0.15334 0.16500
v 0.24566 -0.15900 0.17066
v -0.24566 -0.24100 -0.17066
v -0.24000 -0.24100 -0.17300
v -0.24000 -0.24666 -0.17066
v -0.24566 -0.24666 -0.16500
v -0.24800 -0.24100 -0.16500
v -0.24000 -0.24900 -0.16500
v -0.24566 -0.24666 -0.08500
v -0.24800 -0.24100 -0.08500
v -0.24000 -0.24900 -0.08500
v -0.24566 -0.24100 -0.07934
v -0.24000 -0.24666 -0.07934
v -0.24000 -0.24100 -0.07700
v -0.24000 0.24100 -0.17300
v -0.24800 0.24100 -0.16500
v -0.24800 0.24100 -0.08500
v -0.24566 0.24100 -0.07934
v 0.24000 -0.24666 -0.17066
v 0.24000 -0.24900 -0.08500
v 0.24000 -0.24100 -0.07700
v -0.24000 0.24100 -0.07700
v -0.24566 0.24100 -0.17066
v -0.24000 0.24666 -0.17066
v -0.24566 0.24666 -0.16500
v -0.24000 0.24900 -0.16500
v -0.24000 0.24900 -0.08500
v -0.24566 0.24666 -0.08500
v -0.24000 0.24666 -0.07934
v 0.24000 0.24100 -0.17300
v 0.24000 0.24666 -0.17066
v 0.24000 0.24900 -0.16500
v 0.24000 0.24900 -0.08500
v 0.24000 0.24100 -0.07700
v 0.24000 -0.24100 -0.17300
v 0.24000 -0.24900 -0.16500
v 0.24000 -0.24666 -0.07934
v 0.24566 -0.24100 -0.17066
v 0.24566 -0.24666 -0.16500
v 0.24800 -0.24100 -0.16500
v 0.24566 -0.24666 -0.08500
v 0.24800 -0.24100 -0.08500
v 0.24566 -0.24100 -0.07934
v 0.24800 0.24100 -0.16500
v 0.24800 0.24100 -0.08500
v 0.24000 0.24666 -0.07934
v 0.24566 0.24100 -0.17066
v 0.24566 0.24100 -0.07934
v 0.24566 0.24666 -0.16500
v 0.24566 0.24666 -0.08500
v -0.18995 0.08750 -0.22400
v -0.20000 0.12500 -0.17400
v -0.20000 0.12500 -0.22400
v -0.18995 0.08750 -0.17400
v -0.16250 0.06005 -0.22400
v -0.12500 0.05000 -0.22400
v -0.16250 0.06005 -0.17400
v -0.12500 0.05000 -0.17400
v -0.18995 0.08750 -0.22400
v -0.18995 0.16250 -0.22400
v -0.16250 0.06005 -0.22400
v -0.16250 0.18995 -0.22400
v -0.12500 0.05000 -0.22400
v -0.18995 0.08750 -0.17400
v -0.16250 0.06005 -0.17400
v -0.18995 0.16250 -0.17400
v -0.12500 0.05000 -0.17400
v -0.16250 0.18995 -0.17400
v -0.20000 0.12500 -0.22400
v -0.18995 0.16250 -0.17400
v -0.18995 0.16250 -0.22400
v -0.20000 0.12500 -0.17400
v -0.16250 0.18995 -0.17400
v -0.16250 0.18995 -0.22400
v -0.12500 0.20000 -0.22400
v -0.12500 0.20000 -0.17400
v -0.12500 0.20000 -0.17400
v -0.12500 0.20000 -0.22400
v -0.08750 0.06005 -0.22400
v -0.08750 0.06005 -0.17400
v -0.08750 0.06005 -0.22400
v -0.06005 0.08750 -0.22400
v -0.06005 0.08750 -0.17400
v -0.08750 0.18995 -0.22400
v -0.06005 0.08750 -0.22400
v -0.08750 0.06005 -0.17400
v -0.06005 0.08750 -0.17400
v -0.08750 0.18995 -0.17400
v -0.05000 0.12500 -0.22400
v -0.05000 0.12500 -0.17400
v -0.06005 0.16250 -0.22400
v -0.08750 0.18995 -0.22400
v -0.06005 0.16250 -0.17400
v -0.06005 0.16250 -0.22400
v -0.08750 0.18995 -0.17400
v -0.06005 0.16250 -0.17400
v -0.05000 0.12500 -0.22400
v -0.05000 0.12500 -0.17400
v 0.06005 0.08750 -0.22400
v 0.05000 0.12500 -0.17400
v 0.05000 0.12500 -0.22400
v 0.06005 0.08750 -0.17400
v 0.08750 0.06005 -0.22400
v 0.12500 0.05000 -0.22400
v 0.08750 0.06005 -0.17400
v 0.12500 0.05000 -0.17400
v 0.06005 0.08750 -0.22400
v 0.06005 0.16250 -0.22400
v 0.08750 0.06005 -0.22400
v 0.08750 0.18995 -0.22400
v 0.12500 0.05000 -0.22400
v 0.06005 0.08750 -0.17400
v 0.08750 0.06005 -0.17400
v 0.06005 0.16250 -0.17400
v 0.12500 0.05000 -0.17400
v 0.08750 0.18995 -0.17400
v 0.05000 0.12500 -0.22400
v 0.06005 0.16250 -0.17400
v 0.06005 0.16250 -0.22400
v 0.05000 0.12500 -0.17400
v 0.08750 0.18995 -0.17400
v 0.08750 0.18995 -0.22400
v 0.12500 0.20000 -0.22400
v 0.12500 0.20000 -0.17400
v 0.12500 0.20000 -0.17400
v 0.12500 0.20000 -0.22400
v 0.16250 0.06005 -0.22400
v 0.16250 0.06005 -0.17400
v 0.16250 0.06005 -0.22400
v 0.18995 0.08750 -0.22400
v 0.18995 0.08750 -0.17400
v 0.16250 0.18995 -0.22400
v 0.18995 0.08750 -0.22400
v 0.16250 0.06005 -0.17400
v 0.18995 0.08750 -0.17400
v 0.16250 0.18995 -0.17400
v 0.20000 0.12500 -0.22400
v 0.20000 0.12500 -0.17400
v 0.18995 0.16250 -0.22400
v 0.16250 0.18995 -0.22400
v 0.18995 0.16250 -0.17400
v 0.18995 0.16250 -0.22400
v 0.16250 0.18995 -0.17400
v 0.18995 0.16250 -0.17400
v 0.20000 0.12500 -0.22400
v 0.20000 0.12500 -0.17400
v -0.18995 -0.10100 0.01250
v -0.18995 -0.15100 0.01250
v -0.20000 -0.15100 0.05000
v -0.20000 -0.10100 0.05000
v -0.18995 -0.15100 0.08750
v -0.16250 -0.10100 -0.01495
v -0.16250 -0.15100 -0.01495
v -0.12500 -0.10100 -0.02500
v -0.12500 -0.15100 -0.02500
v -0.18995 -0.10100 0.08750
v -0.16250 -0.15100 0.11495
v -0.16250 -0.10100 0.11495
v -0.12500 -0.15100 0.12500
v -0.18995 -0.10100 0.01250
v -0.20000 -0.10100 0.05000
v -0.18995 -0.10100 0.08750
v -0.16250 -0.10100 -0.01495
v -0.16250 -0.10100 0.11495
v -0.12500 -0.10100 -0.02500
v -0.12500 -0.10100 0.12500
v -0.12500 -0.10100 0.12500
v -0.08750 -0.10100 -0.01495
v -0.08750 -0.15100 -0.01495
v -0.06005 -0.10100 0.01250
v -0.06005 -0.15100 0.01250
v -0.05000 -0.10100 0.05000
v -0.05000 -0.15100 0.05000
v -0.08750 -0.15100 0.11495
v -0.08750 -0.10100 0.11495
v -0.06005 -0.15100 0.08750
v -0.06005 -0.10100 0.08750
v -0.08750 -0.10100 -0.01495
v -0.08750 -0.10100 0.11495
v -0.06005 -0.10100 0.01250
v -0.06005 -0.10100 0.08750
v -0.05000 -0.10100 0.05000
v 0.06005 -0.10100 0.01250
v 0.06005 -0.15100 0.01250
v 0.05000 -0.15100 0.05000
v 0.05000 -0.10100 0.05000
v 0.06005 -0.15100 0.08750
v 0.08750 -0.10100 -0.01495
v 0.08750 -0.15100 -0.01495
v 0.12500 -0.10100 -0.02500
v 0.12500 -0.15100 -0.02500
v 0.06005 -0.10100 0.08750
v 0.08750 -0.15100 0.11495
v 0.08750 -0.10100 0.11495
v 0.12500 -0.15100 0.12500
v 0.06005 -0.10100 0.01250
v 0.05000 -0.10100 0.05000
v 0.06005 -0.10100 0.08750
v 0.08750 -0.10100 -0.01495
v 0.08750 -0.10100 0.11495
v 0.12500 -0.10100 -0.02500
v 0.12500 -0.10100 0.12500
v 0.12500 -0.10100 0.12500
v 0.16250 -0.10100 -0.01495
v 0.16250 -0.15100 -0.01495
v 0.18995 -0.10100 0.01250
v 0.18995 -0.15100 0.01250
v 0.20000 -0.10100 0.05000
v 0.20000 -0.15100 0.05000
v 0.16250 -0.15100 0.11495
v 0.16250 -0.10100 0.11495
v 0.18995 -0.15100 0.08750
v 0.18995 -0.10100 0.08750
v 0.16250 -0.10100 -0.01495
v 0.16250 -0.10100 0.11495
v 0.18995 -0.10100 0.01250
v 0.18995 -0.10100 0.08750
v 0.20000 -0.10100 0.05000
vn -0.6887 -0.2265 -0.6887
vn -0.1877 -0.1877 -0.9641
vn -0.2265 -0.6887 -0.6887
vn -0.6887 -0.6887 -0.2265
vn -0.9641 -0.1877 -0.1877
vn -0.1877 -0.9641 -0.1877
vn -0.6887 0.2265 -0.6887
vn -0.1877 0.1877 -0.9641
vn -0.9641 0.1877 -0.1877
vn -0.2265 0.6887 -0.6887
vn -0.6887 0.6887 -0.2265
vn -0.1877 0.9641 -0.1877
vn 0.0000 1.0000 0.0000
vn 0.0000 1.0000 0.0000
vn 0.1877 -0.1877 -0.9641
vn 0.1877 -0.9641 -0.1877
vn 0.1877 0.1877 -0.9641
vn 0.2265 0.6887 -0.6887
vn 0.1877 0.9641 -0.1877
vn -0.6887 -0.6887 0.2265
vn -0.9641 0.1877 0.1877
vn -0.1877 0.9641 0.1877
vn 0.0000 1.0000 0.0000
vn 0.0000 1.0000 0.0000
vn -0.9641 -0.1877 0.1877
vn -0.1877 -0.9641 0.1877
vn -0.6887 -0.2265 0.6887
vn -0.2265 -0.6887 0.6887
vn -0.1877 -0.1877 0.9641
vn -0.6887 0.2265 0.6887
vn -0.6887 0.6887 0.2265
vn 0.0000 1.0000 0.0000
vn 0.0000 1.0000 0.0000
vn -0.1877 0.1877 0.9641
vn -0.2265 0.6887 0.6887
vn 0.0000 1.0000 0.0000
vn 0.0000 1.0000 0.0000
vn 0.0000 1.0000 0.0000
vn 0.0000 1.0000 0.0000
vn 0.0000 1.0000 0.0000
vn 0.0000 1.0000 0.0000
vn 0.0000 1.0000 0.0000
vn 0.1877 -0.9641 0.1877
vn 0.1877 -0.1877 0.9641
vn 0.1877 0.1877 0.9641
vn 0.0000 1.0000 0.0000
vn 0.1877 0.9641 0.1877
vn 0.0000 1.0000 0.0000
vn 0.0000 1.0000 0.0000
vn 0.2265 -0.6887 -0.6887
vn 0.0000 1.0000 0.0000
vn 0.0000 1.0000 0.0000
vn 0.6887 -0.2265 -0.6887
vn 0.6887 -0.6887 -0.2265
vn 0.9641 -0.1877 -0.1877
vn 0.9641 0.1877 -0.1877
vn 0.6887 0.2265 -0.6887
vn 0.6887 0.6887 -0.2265
vn 0.0000 1.0000 0.0000
vn 0.0000 1.0000 0.0000
vn 0.2265 -0.6887 0.6887
vn 0.2265 0.6887 0.6887
vn 0.6887 -0.6887 0.2265
vn 0.9641 -0.1877 0.1877
vn 0.0000 1.0000 0.0000
vn 0.0000 1.0000 0.0000
vn 0.9641 0.1877 0.1877
vn 0.0000 1.0000 0.0000
vn 0.6887 -0.2265 0.6887
vn 0.0000 1.0000 0.0000
vn 0.6887 0.6887 0.2265
vn 0.6887 0.2265 0.6887
vn -0.6887 -0.2265 -0.6887
vn -0.1877 -0.1877 -0.9641
vn -0.2265 -0.6887 -0.6887
vn -0.6887 -0.6887 -0.2265
vn -0.9641 -0.1877 -0.1877
vn -0.1877 -0.9641 -0.1877
vn -0.6887 -0.6887 0.2265
vn -0.9641 -0.1877 0.1877
vn -0.1877 -0.9641 0.1877
vn -0.6887 -0.2265 0.6887
vn -0.2265 -0.6887 0.6887
vn -0.1877 -0.1877 0.9641
vn -0.1877 0.1877 -0.9641
vn -0.9641 0.1877 -0.1877
vn -0.9641 0.1877 0.1877
vn -0.6887 0.2265 0.6887
vn 0.2265 -0.6887 -0.6887
vn 0.1877 -0.9641 0.1877
vn 0.1877 -0.1877 0.9641
vn -0.1877 0.1877 0.9641
vn -0.6887 0.2265 -0.6887
vn -0.2265 0.6887 -0.6887
vn -0.6887 0.6887 -0.2265
vn -0.1877 0.9641 -0.1877
vn -0.1877 0.9641 0.1877
vn -0.6887 0.6887 0.2265
vn -0.2265 0.6887 0.6887
vn 0.1877 0.1877 -0.9641
vn 0.2265 0.6887 -0.6887
vn 0.1877 0.9641 -0.1877
vn 0.1877 0.9641 0.1877
vn 0.1877 0.1877 0.9641
vn 0.1877 -0.1877 -0.9641
vn 0.1877 -0.9641 -0.1877
vn 0.2265 -0.6887 0.6887
vn 0.6887 -0.2265 -0.6887
vn 0.6887 -0.6887 -0.2265
vn 0.9641 -0.1877 -0.1877
vn 0.6887 -0.6887 0.2265
vn 0.9641 -0.1877 0.1877
vn 0.6887 -0.2265 0.6887
vn 0.9641 0.1877 -0.1877
vn 0.9641 0.1877 0.1877
vn 0.2265 0.6887 0.6887
vn 0.6887 0.2265 -0.6887
vn 0.6887 0.2265 0.6887
vn 0.6887 0.6887 -0.2265
vn 0.6887 0.6887 0.2265
vn -0.8660 -0.5000 0.0000
vn -1.0000 0.0000 0.0000
vn -1.0000 0.0000 0.0000
vn -0.8660 -0.5000 0.0000
vn -0.5000 -0.8660 0.0000
vn 0.0000 -1.0000 0.0000
vn -0.5000 -0.8660 0.0000
vn -0.0000 -1.0000 0.0000
vn 0.0000 0.0000 -1.0000
vn 0.0000 0.0000 -1.0000
vn 0.0000 0.0000 -1.0000
vn 0.0000 0.0000 -1.0000
vn 0.0000 0.0000 -1.0000
vn 0.0000 0.0000 1.0000
vn 0.0000 0.0000 1.0000
vn 0.0000 0.0000 1.0000
vn 0.0000 0.0000 1.0000
vn 0.0000 0.0000 1.0000
vn 0.0000 0.0000 -1.0000
vn -0.8660 0.5000 0.0000
vn -0.8660 0.5000 0.0000
vn 0.0000 0.0000 1.0000
vn -0.5000 0.8660 0.0000
vn -0.5000 0.8660 0.0000
vn 0.0000 0.0000 -1.0000
vn 0.0000 0.0000 1.0000
vn 0.0000 1.0000 0.0000
vn -0.0000 1.0000 0.0000
vn 0.5000 -0.8660 0.0000
vn 0.5000 -0.8660 0.0000
vn 0.0000 0.0000 -1.0000
vn 0.8660 -0.5000 0.0000
vn 0.8660 -0.5000 0.0000
vn 0.0000 0.0000 -1.0000
vn 0.0000 0.0000 -1.0000
vn 0.0000 0.0000 1.0000
vn 0.0000 0.0000 1.0000
vn 0.0000 0.0000 1.0000
vn 1.0000 0.0000 0.0000
vn 1.0000 0.0000 0.0000
vn 0.0000 0.0000 -1.0000
vn 0.5000 0.8660 0.0000
vn 0.8660 0.5000 0.0000
vn 0.8660 0.5000 0.0000
vn 0.5000 0.8660 0.0000
vn 0.0000 0.0000 1.0000
vn 0.0000 0.0000 -1.0000
vn 0.0000 0.0000 1.0000
vn -0.8660 -0.5000 0.0000
vn -1.0000 0.0000 0.0000
vn -1.0000 -0.0000 0.0000
vn -0.8660 -0.5000 0.0000
vn -0.5000 -0.8660 0.0000
vn 0.0000 -1.0000 0.0000
vn -0.5000 -0.8660 0.0000
vn -0.0000 -1.0000 0.0000
vn 0.0000 0.0000 -1.0000
vn 0.0000 0.0000 -1.0000
vn 0.0000 0.0000 -1.0000
vn 0.0000 0.0000 -1.0000
vn 0.0000 0.0000 -1.0000
vn 0.0000 0.0000 1.0000
vn 0.0000 0.0000 1.0000
vn 0.0000 0.0000 1.0000
vn 0.0000 0.0000 1.0000
vn 0.0000 0.0000 1.0000
vn 0.0000 0.0000 -1.0000
vn -0.8660 0.5000 0.0000
vn -0.8660 0.5000 0.0000
vn 0.0000 0.0000 1.0000
vn -0.5000 0.8660 0.0000
vn -0.5000 0.8660 0.0000
vn 0.0000 0.0000 -1.0000
vn 0.0000 0.0000 1.0000
vn 0.0000 1.0000 0.0000
vn -0.0000 1.0000 0.0000
vn 0.5000 -0.8660 0.0000
vn 0.5000 -0.8660 0.0000
vn 0.0000 0.0000 -1.0000
vn 0.8660 -0.5000 0.0000
vn 0.8660 -0.5000 0.0000
vn 0.0000 0.0000 -1.0000
vn 0.0000 0.0000 -1.0000
vn 0.0000 0.0000 1.0000
vn 0.0000 0.0000 1.0000
vn 0.0000 0.0000 1.0000
vn 1.0000 0.0000 0.0000
vn 1.0000 -0.0000 0.0000
vn 0.0000 0.0000 -1.0000
vn 0.5000 0.8660 0.0000
vn 0.8660 0.5000 0.0000
vn 0.8660 0.5000 0.0000
vn 0.5000 0.8660 0.0000
vn 0.0000 0.0000 1.0000
vn 0.0000 0.0000 -1.0000
vn 0.0000 0.0000 1.0000
vn -0.8660 0.0000 -0.5000
vn -0.8660 0.0000 -0.5000
vn -1.0000 0.0000 0.0000
vn -1.0000 0.0000 0.0000
vn -0.8660 0.0000 0.5000
vn -0.5000 0.0000 -0.8660
vn -0.5000 0.0000 -0.8660
vn -0.0000 0.0000 -1.0000
vn 0.0000 0.0000 -1.0000
vn -0.8660 0.0000 0.5000
vn -0.5000 0.0000 0.8660
vn -0.5000 0.0000 0.8660
vn 0.0000 0.0000 1.0000
vn 0.0000 1.0000 0.0000
vn 0.0000 1.0000 0.0000
vn 0.0000 1.0000 0.0000
vn 0.0000 1.0000 0.0000
vn 0.0000 1.0000 0.0000
vn 0.0000 1.0000 0.0000
vn 0.0000 1.0000 0.0000
vn 0.0000 0.0000 1.0000
vn 0.5000 0.0000 -0.8660
vn 0.5000 0.0000 -0.8660
vn 0.8660 0.0000 -0.5000
vn 0.8660 0.0000 -0.5000
vn 1.0000 0.0000 0.0000
vn 1.0000 0.0000 0.0000
vn 0.5000 0.0000 0.8660
vn 0.5000 0.0000 0.8660
vn 0.8660 0.0000 0.5000
vn 0.8660 0.0000 0.5000
vn 0.0000 1.0000 0.0000
vn 0.0000 1.0000 0.0000
vn 0.0000 1.0000 0.0000
vn 0.0000 1.0000 0.0000
vn 0.0000 1.0000 0.0000
vn -0.8660 0.0000 -0.5000
vn -0.8660 0.0000 -0.5000
vn -1.0000 0.0000 0.0000
vn -1.0000 0.0000 0.0000
vn -0.8660 0.0000 0.5000
vn -0.5000 0.0000 -0.8660
vn -0.5000 0.0000 -0.8660
vn -0.0000 0.0000 -1.0000
vn 0.0000 0.0000 -1.0000
vn -0.8660 0.0000 0.5000
vn -0.5000 0.0000 0.8660
vn -0.5000 0.0000 0.8660
vn 0.0000 0.0000 1.0000
vn 0.0000 1.0000 0.0000
vn 0.0000 1.0000 0.0000
vn 0.0000 1.0000 0.0000
vn 0.0000 1.0000 0.0000
vn 0.0000 1.0000 0.0000
vn 0.0000 1.0000 0.0000
vn 0.0000 1.0000 0.0000
vn 0.0000 0.0000 1.0000
vn 0.5000 0.0000 -0.8660
vn 0.5000 0.0000 -0.8660
vn 0.8660 0.0000 -0.5000
vn 0.8660 0.0000 -0.5000
vn 1.0000 0.0000 0.0000
vn 1.0000 0.0000 0.0000
vn 0.5000 0.0000 0.8660
vn 0.5000 0.0000 0.8660
vn 0.8660 0.0000 0.5000
vn 0.8660 0.0000 0.5000
vn 0.0000 1.0000 0.0000
vn 0.0000 1.0000 0.0000
vn 0.0000 1.0000 0.0000
vn 0.0000 1.0000 0.0000
vn 0.0000 1.0000 0.0000
f 1//1 2//2 3//3
f 4//4 5//5 1//1
f 4//4 3//3 6//6
f 4//4 1//1 3//3
f 1//1 7//7 2//2
f 1//1 5//5 7//7
f 2//2 7//7 8//8
f 5//5 9//9 7//7
f 7//7 10//10 8//8
f 7//7 9//9 11//11
f 7//7 11//11 10//10
f 11//11 12//12 10//10
f 12//12 13//13 14//14
f 3//3 2//2 15//15
f 3//3 16//16 6//6
f 2//2 8//8 17//17
f 8//8 10//10 18//18
f 10//10 12//12 18//18
f 12//12 14//14 19//19
f 4//4 20//20 5//5
f 4//4 6//6 20//20
f 5//5 21//21 9//9
f 9//9 21//21 11//11
f 11//11 22//22 12//12
f 12//12 23//23 24//24
f 12//12 24//24 13//13
f 12//12 22//22 23//23
f 5//5 20//20 25//25
f 6//6 26//26 20//20
f 5//5 25//25 21//21
f 20//20 27//27 25//25
f 20//20 26//26 28//28
f 20//20 28//28 27//27
f 27//27 28//28 29//29
f 25//25 27//27 30//30
f 27//27 29//29 30//30
f 11//11 21//21 31//31
f 11//11 31//31 22//22
f 22//22 32//32 23//23
f 22//22 33//33 32//32
f 25//25 30//30 21//21
f 29//29 34//34 30//30
f 21//21 30//30 31//31
f 30//30 34//34 35//35
f 30//30 35//35 31//31
f 31//31 35//35 22//22
f 22//22 36//36 33//33
f 14//14 37//37 38//38
f 37//37 39//39 38//38
f 40//40 39//39 41//41
f 42//42 40//40 41//41
f 6//6 43//43 26//26
f 26//26 43//43 28//28
f 28//28 44//44 29//29
f 29//29 44//44 34//34
f 34//34 45//45 35//35
f 22//22 46//46 36//36
f 22//22 35//35 47//47
f 48//48 49//49 42//42
f 36//36 46//46 48//48
f 3//3 15//15 50//50
f 3//3 50//50 16//16
f 2//2 17//17 15//15
f 8//8 18//18 17//17
f 12//12 19//19 18//18
f 19//19 14//14 51//51
f 19//19 51//51 52//52
f 50//50 15//15 53//53
f 50//50 54//54 16//16
f 50//50 53//53 54//54
f 54//54 53//53 55//55
f 15//15 17//17 53//53
f 53//53 56//56 55//55
f 53//53 17//17 57//57
f 53//53 57//57 56//56
f 17//17 18//18 57//57
f 57//57 58//58 56//56
f 18//18 19//19 58//58
f 57//57 18//18 58//58
f 14//14 38//38 51//51
f 39//39 40//40 38//38
f 42//42 59//59 40//40
f 6//6 16//16 43//43
f 42//42 60//60 59//59
f 42//42 49//49 60//60
f 48//48 46//46 49//49
f 22//22 47//47 46//46
f 28//28 43//43 61//61
f 28//28 61//61 44//44
f 34//34 44//44 45//45
f 35//35 62//62 47//47
f 35//35 45//45 62//62
f 16//16 54//54 63//63
f 54//54 55//55 63//63
f 55//55 56//56 64//64
f 19//19 52//52 65//65
f 19//19 65//65 66//66
f 56//56 58//58 67//67
f 19//19 47//47 58//58
f 19//19 66//66 47//47
f 47//47 68//68 46//46
f 16//16 63//63 43//43
f 55//55 64//64 63//63
f 43//43 63//63 61//61
f 61//61 63//63 69//69
f 61//61 69//69 44//44
f 63//63 64//64 69//69
f 44//44 69//69 45//45
f 64//64 67//67 69//69
f 47//47 70//70 68//68
f 47//47 66//66 70//70
f 56//56 67//67 64//64
f 58//58 47//47 71//71
f 58//58 71//71 67//67
f 69//69 72//72 45//45
f 69//69 67//67 72//72
f 45//45 72//72 62//62
f 67//67 71//71 72//72
f 47//47 62//62 71//71
f 72//72 71//71 62//62
f 73//73 74//74 75//75
f 76//76 73//73 75//75
f 76//76 77//77 73//73
f 76//76 75//75 78//78
f 76//76 79//79 77//77
f 76//76 78//78 79//79
f 77//77 79//79 80//80
f 78//78 81//81 79//79
f 79//79 82//82 80//80
f 79//79 81//81 83//83
f 79//79 83//83 82//82
f 82//82 83//83 84//84
f 73//73 85//85 74//74
f 73//73 77//77 86//86
f 77//77 80//80 87//87
f 80//80 82//82 87//87
f 82//82 84//84 88//88
f 75//75 89//89 78//78
f 75//75 74//74 89//89
f 78//78 90//90 81//81
f 81//81 90//90 83//83
f 83//83 91//91 84//84
f 84//84 91//91 92//92
f 73//73 86//86 93//93
f 73//73 93//93 85//85
f 77//77 87//87 86//86
f 82//82 88//88 87//87
f 84//84 92//92 88//88
f 93//93 94//94 85//85
f 93//93 95//95 94//94
f 93//93 86//86 95//95
f 95//95 96//96 94//94
f 86//86 87//87 95//95
f 95//95 97//97 96//96
f 95//95 87//87 98//98
f 95//95 98//98 97//97
f 87//87 88//88 98//98
f 98//98 99//99 97//97
f 88//88 99//99 98//98
f 88//88 92//92 99//99
f 74//74 85//85 100//100
f 85//85 94//94 101//101
f 94//94 96//96 101//101
f 96//96 97//97 102//102
f 97//97 99//99 103//103
f 92//92 104//104 99//99
f 74//74 105//105 89//89
f 78//78 89//89 106//106
f 78//78 106//106 90//90
f 83//83 90//90 107//107
f 83//83 107//107 91//91
f 74//74 100//100 105//105
f 89//89 105//105 108//108
f 89//89 108//108 109//109
f 89//89 109//109 106//106
f 109//109 108//108 110//110
f 106//106 109//109 111//111
f 109//109 110//110 111//111
f 106//106 111//111 90//90
f 110//110 112//112 111//111
f 90//90 111//111 107//107
f 111//111 112//112 113//113
f 107//107 113//113 91//91
f 107//107 111//111 113//113
f 105//105 100//100 108//108
f 108//108 114//114 110//110
f 110//110 114//114 112//112
f 112//112 115//115 113//113
f 91//91 113//113 104//104
f 92//92 91//91 104//104
f 85//85 101//101 100//100
f 96//96 102//102 101//101
f 97//97 103//103 102//102
f 99//99 104//104 116//116
f 99//99 116//116 103//103
f 108//108 100//100 117//117
f 108//108 117//117 114//114
f 112//112 114//114 115//115
f 113//113 118//118 104//104
f 113//113 115//115 118//118
f 100//100 101//101 117//117
f 101//101 119//119 117//117
f 101//101 102//102 119//119
f 117//117 119//119 114//114
f 102//102 103//103 119//119
f 114//114 119//119 115//115
f 119//119 103//103 120//120
f 119//119 120//120 115//115
f 103//103 116//116 120//120
f 115//115 120//120 118//118
f 104//104 118//118 116//116
f 116//116 118//118 120//120
f 121//121 122//122 123//123
f 121//121 124//124 122//122
f 125//125 126//126 127//127
f 126//126 128//128 127//127
f 121//121 125//125 124//124
f 124//124 125//125 127//127
f 129//129 130//130 131//131
f 131//131 132//132 133//133
f 134//134 135//135 136//136
f 135//135 137//137 138//138
f 129//129 139//139 130//130
f 123//123 140//140 141//141
f 123//123 122//122 140//140
f 134//134 136//136 142//142
f 131//131 130//130 132//132
f 141//141 143//143 144//144
f 141//141 140//140 143//143
f 133//133 132//132 145//145
f 135//135 138//138 136//136
f 137//137 146//146 138//138
f 144//144 147//147 148//148
f 144//144 143//143 147//147
f 126//126 149//149 128//128
f 128//128 149//149 150//150
f 133//133 145//145 151//151
f 149//149 152//152 150//150
f 150//150 152//152 153//153
f 151//151 154//154 155//155
f 137//137 156//156 146//146
f 156//156 157//157 158//158
f 152//152 159//159 153//153
f 153//153 159//159 160//160
f 145//145 154//154 151//151
f 155//155 154//154 161//161
f 162//162 163//163 164//164
f 162//162 165//165 163//163
f 146//146 156//156 158//158
f 157//157 166//166 158//158
f 148//148 165//165 162//162
f 148//148 147//147 165//165
f 155//155 161//161 167//167
f 159//159 164//164 160//160
f 164//164 163//163 160//160
f 157//157 168//168 166//166
f 169//169 170//170 171//171
f 169//169 172//172 170//170
f 173//173 174//174 175//175
f 175//175 174//174 176//176
f 169//169 173//173 172//172
f 172//172 173//173 175//175
f 177//177 178//178 179//179
f 179//179 180//180 181//181
f 182//182 183//183 184//184
f 183//183 185//185 186//186
f 177//177 187//187 178//178
f 171//171 188//188 189//189
f 171//171 170//170 188//188
f 182//182 184//184 190//190
f 179//179 178//178 180//180
f 189//189 191//191 192//192
f 189//189 188//188 191//191
f 180//180 193//193 181//181
f 183//183 186//186 184//184
f 186//186 185//185 194//194
f 192//192 195//195 196//196
f 192//192 191//191 195//195
f 174//174 197//197 176//176
f 197//197 198//198 176//176
f 181//181 193//193 199//199
f 197//197 200//200 198//198
f 198//198 200//200 201//201
f 199//199 202//202 203//203
f 185//185 204//204 194//194
f 204//204 205//205 206//206
f 200//200 207//207 201//201
f 201//201 207//207 208//208
f 199//199 193//193 202//202
f 203//203 202//202 209//209
f 210//210 211//211 212//212
f 210//210 213//213 211//211
f 204//204 206//206 194//194
f 205//205 214//214 206//206
f 196//196 213//213 210//210
f 196//196 195//195 213//213
f 203//203 209//209 215//215
f 207//207 212//212 208//208
f 212//212 211//211 208//208
f 205//205 216//216 214//214
f 217//217 218//218 219//219
f 220//220 219//219 221//221
f 222//222 223//223 218//218
f 224//224 225//225 223//223
f 226//226 221//221 227//227
f 228//228 227//227 229//229
f 217//217 219//219 220//220
f 230//230 231//231 232//232
f 222//222 218//218 217//217
f 222//222 224//224 223//223
f 233//233 230//230 232//232
f 233//233 232//232 234//234
f 233//233 234//234 235//235
f 235//235 234//234 236//236
f 220//220 221//221 226//226
f 226//226 227//227 228//228
f 228//228 229//229 237//237
f 238//238 239//239 225//225
f 240//240 241//241 239//239
f 242//242 243//243 241//241
f 237//237 229//229 244//244
f 245//245 244//244 246//246
f 247//247 246//246 243//243
f 224//224 238//238 225//225
f 238//238 240//240 239//239
f 235//235 236//236 248//248
f 248//248 249//249 250//250
f 250//250 249//249 251//251
f 240//240 242//242 241//241
f 242//242 247//247 243//243
f 250//250 251//251 252//252
f 248//248 236//236 249//249
f 237//237 244//244 245//245
f 247//247 245//245 246//246
f 253//253 254//254 255//255
f 256//256 255//255 257//257
f 258//258 259//259 254//254
f 260//260 261//261 259//259
f 262//262 257//257 263//263
f 264//264 263//263 265//265
f 253//253 255//255 256//256
f 266//266 267//267 268//268
f 258//258 254//254 253//253
f 258//258 260//260 259//259
f 269//269 266//266 268//268
f 269//269 268//268 270//270
f 269//269 270//270 271//271
f 271//271 270//270 272//272
f 256//256 257//257 262//262
f 262//262 263//263 264//264
f 264//264 265//265 273//273
f 274//274 275//275 261//261
f 276//276 277//277 275//275
f 278//278 279//279 277//277
f 273//273 265//265 280//280
f 281//281 280//280 282//282
f 283//283 282//282 279//279
f 260//260 274//274 261//261
f 274//274 276//276 275//275
f 271//271 272//272 284//284
f 284//284 285//285 286//286
f 286//286 285//285 287//287
f 276//276 278//278 277//277
f 278//278 283//283 279//279
f 286//286 287//287 288//288
f 284//284 272//272 285//285
f 273//273 280//280 281//281
f 283//283 281//281 282//282
