v -0.12066 -0.14666 -0.74000
v -0.12300 -0.14100 -0.74000
v -0.12066 -0.14100 -0.74566
v -0.11500 -0.14666 -0.74566
v -0.11500 -0.14900 -0.74000
v -0.11500 -0.14100 -0.74800
v -0.12300 -0.14100 0.74000
v -0.11500 -0.14900 0.74000
v -0.12300 0.14100 -0.74000
v -0.11500 0.14100 -0.74800
v 0.11500 -0.14900 -0.74000
v 0.11500 -0.14666 -0.74566
v -0.12066 -0.14666 0.74000
v -0.12066 -0.14100 0.74566
v -0.11500 -0.14666 0.74566
v -0.11500 -0.14100 0.74800
v -0.12066 0.14100 0.74566
v 0.11500 -0.14666 0.74566
v 0.11500 -0.14100 0.74800
v -0.11500 0.14100 0.74800
v -0.12066 0.14100 -0.74566
v -0.12066 0.14666 -0.74000
v -0.11500 0.14666 -0.74566
v -0.11500 0.14900 -0.74000
v -0.07500 0.14900 -0.62500
v -0.06495 0.14900 -0.66250
v -0.07500 0.14900 -0.37500
v -0.03750 0.14900 -0.68995
v -0.06495 0.14900 -0.58750
v -0.06495 0.14900 -0.41250
v -0.12066 0.14666 0.74000
v -0.11500 0.14900 0.74000
v -0.06495 0.14900 -0.33750
v -0.07500 0.14900 -0.12500
v -0.06495 0.14900 -0.16250
v -0.06495 0.14900 -0.08750
v -0.07500 0.14900 0.12500
v 0.11500 0.14100 -0.74800
v 0.00000 0.14900 -0.70000
v 0.11500 0.14666 -0.74566
v -0.03750 0.14900 -0.56005
v -0.03750 0.14900 -0.43995
v 0.00000 0.14900 -0.45000
v 0.00000 0.14900 -0.55000
v -0.03750 0.14900 -0.31005
v -0.03750 0.14900 -0.18995
v -0.06495 0.14900 0.08750
v -0.03750 0.14900 -0.06005
v 0.00000 0.14900 -0.30000
v 0.00000 0.14900 -0.20000
v 0.00000 0.14900 0.05000
v 0.00000 0.14900 -0.05000
v -0.12300 0.14100 0.74000
v -0.07500 0.14900 0.37500
v -0.06495 0.14900 0.33750
v -0.06495 0.14900 0.16250
v -0.11500 0.14666 0.74566
v -0.06495 0.14900 0.41250
v -0.07500 0.14900 0.62500
v -0.06495 0.14900 0.58750
v -0.06495 0.14900 0.66250
v -0.03750 0.14900 0.68995
v -0.03750 0.14900 0.06005
v -0.03750 0.14900 0.31005
v -0.03750 0.14900 0.18995
v 0.00000 0.14900 0.30000
v 0.00000 0.14900 0.20000
v -0.03750 0.14900 0.56005
v -0.03750 0.14900 0.43995
v 0.00000 0.14900 0.70000
v 0.11500 0.14100 0.74800
v 0.11500 0.14900 0.74000
v 0.00000 0.14900 0.45000
v 0.00000 0.14900 0.55000
v 0.11500 -0.14100 -0.74800
v 0.12066 -0.14666 -0.74000
v 0.12066 -0.14100 -0.74566
v 0.12300 -0.14100 -0.74000
v 0.12066 -0.14666 0.74000
v 0.12300 0.14100 -0.74000
v 0.12300 -0.14100 0.74000
v 0.11500 -0.14900 0.74000
v 0.12066 -0.14100 0.74566
v 0.12300 0.14100 0.74000
v 0.11500 0.14900 -0.74000
v 0.03750 0.14900 -0.56005
v 0.03750 0.14900 -0.43995
v 0.03750 0.14900 -0.68995
v 0.06495 0.14900 -0.41250
v 0.06495 0.14900 -0.58750
v 0.03750 0.14900 -0.18995
v 0.03750 0.14900 -0.31005
v 0.03750 0.14900 0.06005
v 0.03750 0.14900 -0.06005
v 0.06495 0.14900 -0.16250
v 0.06495 0.14900 -0.33750
v 0.06495 0.14900 -0.08750
v 0.12066 0.14100 -0.74566
v 0.06495 0.14900 -0.66250
v 0.07500 0.14900 -0.62500
v 0.07500 0.14900 -0.37500
v 0.07500 0.14900 -0.12500
v 0.12066 0.14666 -0.74000
v 0.07500 0.14900 0.12500
v 0.06495 0.14900 0.08750
v 0.07500 0.14900 0.37500
v 0.12066 0.14666 0.74000
v 0.03750 0.14900 0.31005
v 0.03750 0.14900 0.18995
v 0.06495 0.14900 0.16250
v 0.06495 0.14900 0.33750
v 0.03750 0.14900 0.43995
v 0.03750 0.14900 0.56005
v 0.06495 0.14900 0.41250
v 0.06495 0.14900 0.58750
v 0.11500 0.14666 0.74566
v 0.03750 0.14900 0.68995
v 0.12066 0.14100 0.74566
v 0.07500 0.14900 0.62500
v 0.06495 0.14900 0.66250
v -0.07500 0.19900 -0.62500
v -0.07500 0.14900 -0.62500
v -0.06495 0.14900 -0.58750
v -0.06495 0.19900 -0.66250
v -0.06495 0.14900 -0.66250
v -0.06495 0.19900 -0.58750
v -0.07500 0.19900 -0.62500
v -0.06495 0.19900 -0.58750
v -0.06495 0.19900 -0.66250
v -0.03750 0.19900 -0.68995
v -0.03750 0.14900 -0.68995
v -0.03750 0.14900 -0.56005
v -0.03750 0.19900 -0.68995
v -0.03750 0.19900 -0.56005
v -0.03750 0.19900 -0.56005
v 0.00000 0.19900 -0.70000
v 0.00000 0.19900 -0.70000
v 0.00000 0.14900 -0.70000
v 0.00000 0.19900 -0.55000
v 0.00000 0.14900 -0.55000
v 0.00000 0.19900 -0.55000
v 0.03750 0.19900 -0.68995
v 0.03750 0.19900 -0.68995
v 0.03750 0.14900 -0.68995
v 0.03750 0.19900 -0.56005
v 0.03750 0.14900 -0.56005
v 0.03750 0.19900 -0.56005
v 0.06495 0.19900 -0.66250
v 0.06495 0.14900 -0.66250
v 0.06495 0.14900 -0.58750
v 0.06495 0.19900 -0.66250
v 0.06495 0.19900 -0.58750
v 0.06495 0.19900 -0.58750
v 0.07500 0.14900 -0.62500
v 0.07500 0.19900 -0.62500
v 0.07500 0.19900 -0.62500
v -0.06495 0.19900 -0.41250
v -0.06495 0.14900 -0.41250
v -0.07500 0.14900 -0.37500
v -0.07500 0.19900 -0.37500
v -0.07500 0.19900 -0.37500
v -0.06495 0.19900 -0.33750
v -0.06495 0.19900 -0.41250
v -0.06495 0.14900 -0.33750
v -0.06495 0.19900 -0.33750
v -0.03750 0.19900 -0.43995
v -0.03750 0.14900 -0.43995
v -0.03750 0.19900 -0.43995
v 0.00000 0.19900 -0.45000
v -0.03750 0.19900 -0.31005
v 0.00000 0.19900 -0.45000
v 0.00000 0.14900 -0.45000
v -0.03750 0.14900 -0.31005
v -0.03750 0.19900 -0.31005
v 0.00000 0.14900 -0.30000
v 0.00000 0.19900 -0.30000
v 0.00000 0.19900 -0.30000
v 0.03750 0.19900 -0.43995
v 0.03750 0.19900 -0.43995
v 0.03750 0.14900 -0.43995
v 0.06495 0.19900 -0.41250
v 0.06495 0.14900 -0.41250
v 0.03750 0.19900 -0.31005
v 0.06495 0.19900 -0.41250
v 0.03750 0.14900 -0.31005
v 0.03750 0.19900 -0.31005
v 0.06495 0.14900 -0.33750
v 0.06495 0.19900 -0.33750
v 0.06495 0.19900 -0.33750
v 0.07500 0.19900 -0.37500
v 0.07500 0.14900 -0.37500
v 0.07500 0.19900 -0.37500
v -0.07500 0.19900 -0.12500
v -0.07500 0.14900 -0.12500
v -0.06495 0.14900 -0.08750
v -0.06495 0.19900 -0.16250
v -0.06495 0.14900 -0.16250
v -0.06495 0.19900 -0.08750
v -0.07500 0.19900 -0.12500
v -0.06495 0.19900 -0.08750
v -0.06495 0.19900 -0.16250
v -0.03750 0.19900 -0.18995
v -0.03750 0.14900 -0.18995
v -0.03750 0.14900 -0.06005
v -0.03750 0.19900 -0.18995
v -0.03750 0.19900 -0.06005
v -0.03750 0.19900 -0.06005
v 0.00000 0.19900 -0.20000
v 0.00000 0.14900 -0.20000
v 0.00000 0.14900 -0.05000
v 0.00000 0.19900 -0.20000
v 0.00000 0.19900 -0.05000
v 0.00000 0.19900 -0.05000
v 0.03750 0.19900 -0.18995
v 0.03750 0.14900 -0.18995
v 0.03750 0.14900 -0.06005
v 0.03750 0.19900 -0.18995
v 0.03750 0.19900 -0.06005
v 0.03750 0.19900 -0.06005
v 0.06495 0.19900 -0.16250
v 0.06495 0.14900 -0.16250
v 0.06495 0.14900 -0.08750
v 0.06495 0.19900 -0.16250
v 0.06495 0.19900 -0.08750
v 0.06495 0.19900 -0.08750
v 0.07500 0.14900 -0.12500
v 0.07500 0.19900 -0.12500
v 0.07500 0.19900 -0.12500
v -0.07500 0.19900 0.12500
v -0.07500 0.14900 0.12500
v -0.06495 0.14900 0.16250
v -0.06495 0.19900 0.08750
v -0.06495 0.14900 0.08750
v -0.06495 0.19900 0.16250
v -0.07500 0.19900 0.12500
v -0.06495 0.19900 0.16250
v -0.06495 0.19900 0.08750
v -0.03750 0.19900 0.06005
v -0.03750 0.14900 0.06005
v -0.03750 0.14900 0.18995
v -0.03750 0.19900 0.06005
v -0.03750 0.19900 0.18995
v -0.03750 0.19900 0.18995
v 0.00000 0.19900 0.05000
v 0.00000 0.19900 0.05000
v 0.00000 0.14900 0.05000
v 0.00000 0.19900 0.20000
v 0.00000 0.14900 0.20000
v 0.00000 0.19900 0.20000
v 0.03750 0.19900 0.06005
v 0.03750 0.19900 0.06005
v 0.03750 0.14900 0.06005
v 0.03750 0.19900 0.18995
v 0.03750 0.14900 0.18995
v 0.03750 0.19900 0.18995
v 0.06495 0.19900 0.08750
v 0.06495 0.14900 0.08750
v 0.06495 0.14900 0.16250
v 0.06495 0.19900 0.08750
v 0.06495 0.19900 0.16250
v 0.06495 0.19900 0.16250
v 0.07500 0.14900 0.12500
v 0.07500 0.19900 0.12500
v 0.07500 0.19900 0.12500
v -0.06495 0.19900 0.33750
v -0.06495 0.14900 0.33750
v -0.07500 0.14900 0.37500
v -0.07500 0.19900 0.37500
v -0.06495 0.14900 0.41250
v -0.06495 0.19900 0.41250
v -0.06495 0.19900 0.33750
v -0.07500 0.19900 0.37500
v -0.06495 0.19900 0.41250
v -0.03750 0.19900 0.31005
v -0.03750 0.14900 0.31005
v -0.03750 0.19900 0.31005
v 0.00000 0.19900 0.30000
v -0.03750 0.19900 0.43995
v 0.00000 0.19900 0.30000
v 0.00000 0.14900 0.30000
v -0.03750 0.14900 0.43995
v -0.03750 0.19900 0.43995
v 0.00000 0.14900 0.45000
v 0.00000 0.19900 0.45000
v 0.00000 0.19900 0.45000
v 0.03750 0.19900 0.31005
v 0.03750 0.19900 0.31005
v 0.03750 0.14900 0.31005
v 0.06495 0.19900 0.33750
v 0.06495 0.14900 0.33750
v 0.03750 0.19900 0.43995
v 0.06495 0.19900 0.33750
v 0.03750 0.14900 0.43995
v 0.03750 0.19900 0.43995
v 0.06495 0.14900 0.41250
v 0.06495 0.19900 0.41250
v 0.06495 0.19900 0.41250
v 0.07500 0.19900 0.37500
v 0.07500 0.14900 0.37500
v 0.07500 0.19900 0.37500
v -0.07500 0.19900 0.62500
v -0.07500 0.14900 0.62500
v -0.06495 0.14900 0.66250
v -0.06495 0.19900 0.58750
v -0.06495 0.14900 0.58750
v -0.06495 0.19900 0.66250
v -0.07500 0.19900 0.62500
v -0.06495 0.19900 0.66250
v -0.06495 0.19900 0.58750
v -0.03750 0.19900 0.56005
v -0.03750 0.14900 0.56005
v -0.03750 0.14900 0.68995
v -0.03750 0.19900 0.56005
v -0.03750 0.19900 0.68995
v -0.03750 0.19900 0.68995
v 0.00000 0.19900 0.55000
v 0.00000 0.14900 0.55000
v 0.00000 0.14900 0.70000
v 0.00000 0.19900 0.55000
v 0.00000 0.19900 0.70000
v 0.00000 0.19900 0.70000
v 0.03750 0.19900 0.56005
v 0.03750 0.14900 0.56005
v 0.03750 0.14900 0.68995
v 0.03750 0.19900 0.56005
v 0.03750 0.19900 0.68995
v 0.03750 0.19900 0.68995
v 0.06495 0.19900 0.58750
v 0.06495 0.14900 0.58750
v 0.06495 0.14900 0.66250
v 0.06495 0.19900 0.58750
v 0.06495 0.19900 0.66250
v 0.06495 0.19900 0.66250
v 0.07500 0.14900 0.62500
v 0.07500 0.19900 0.62500
v 0.07500 0.19900 0.62500
vn -0.6887 -0.6887 -0.2265
vn -0.9641 -0.1877 -0.1877
vn -0.6887 -0.2265 -0.6887
vn -0.2265 -0.6887 -0.6887
vn -0.1877 -0.9641 -0.1877
vn -0.1877 -0.1877 -0.9641
vn -0.9641 -0.1877 0.1877
vn -0.1877 -0.9641 0.1877
vn -0.9641 0.1877 -0.1877
vn -0.1877 0.1877 -0.9641
vn 0.1877 -0.9641 -0.1877
vn 0.2265 -0.6887 -0.6887
vn -0.6887 -0.6887 0.2265
vn -0.6887 -0.2265 0.6887
vn -0.2265 -0.6887 0.6887
vn -0.1877 -0.1877 0.9641
vn -0.6887 0.2265 0.6887
vn 0.2265 -0.6887 0.6887
vn 0.1877 -0.1877 0.9641
vn -0.1877 0.1877 0.9641
vn -0.6887 0.2265 -0.6887
vn -0.6887 0.6887 -0.2265
vn -0.2265 0.6887 -0.6887
vn -0.1877 0.9641 -0.1877
vn 0.0000 1.0000 0.0000
vn 0.0000 1.0000 0.0000
vn 0.0000 1.0000 0.0000
vn 0.0000 1.0000 0.0000
vn 0.0000 1.0000 0.0000
vn 0.0000 1.0000 0.0000
vn -0.6887 0.6887 0.2265
vn -0.1877 0.9641 0.1877
vn 0.0000 1.0000 0.0000
vn 0.0000 1.0000 0.0000
vn 0.0000 1.0000 0.0000
vn 0.0000 1.0000 0.0000
vn 0.0000 1.0000 0.0000
vn 0.1877 0.1877 -0.9641
vn 0.0000 1.0000 0.0000
vn 0.2265 0.6887 -0.6887
vn 0.0000 1.0000 0.0000
vn 0.0000 1.0000 0.0000
vn 0.0000 1.0000 0.0000
vn 0.0000 1.0000 0.0000
vn 0.0000 1.0000 0.0000
vn 0.0000 1.0000 0.0000
vn 0.0000 1.0000 0.0000
vn 0.0000 1.0000 0.0000
vn 0.0000 1.0000 0.0000
vn 0.0000 1.0000 0.0000
vn 0.0000 1.0000 0.0000
vn 0.0000 1.0000 0.0000
vn -0.9641 0.1877 0.1877
vn 0.0000 1.0000 0.0000
vn 0.0000 1.0000 0.0000
vn 0.0000 1.0000 0.0000
vn -0.2265 0.6887 0.6887
vn 0.0000 1.0000 0.0000
vn 0.0000 1.0000 0.0000
vn 0.0000 1.0000 0.0000
vn 0.0000 1.0000 0.0000
vn 0.0000 1.0000 0.0000
vn 0.0000 1.0000 0.0000
vn 0.0000 1.0000 0.0000
vn 0.0000 1.0000 0.0000
vn 0.0000 1.0000 0.0000
vn 0.0000 1.0000 0.0000
vn 0.0000 1.0000 0.0000
vn 0.0000 1.0000 0.0000
vn 0.0000 1.0000 0.0000
vn 0.1877 0.1877 0.9641
vn 0.1877 0.9641 0.1877
vn 0.0000 1.0000 0.0000
vn 0.0000 1.0000 0.0000
vn 0.1877 -0.1877 -0.9641
vn 0.6887 -0.6887 -0.2265
vn 0.6887 -0.2265 -0.6887
vn 0.9641 -0.1877 -0.1877
vn 0.6887 -0.6887 0.2265
vn 0.9641 0.1877 -0.1877
vn 0.9641 -0.1877 0.1877
vn 0.1877 -0.9641 0.1877
vn 0.6887 -0.2265 0.6887
vn 0.9641 0.1877 0.1877
vn 0.1877 0.9641 -0.1877
vn 0.0000 1.0000 0.0000
vn 0.0000 1.0000 0.0000
vn 0.0000 1.0000 0.0000
vn 0.0000 1.0000 0.0000
vn 0.0000 1.0000 0.0000
vn 0.0000 1.0000 0.0000
vn 0.0000 1.0000 0.0000
vn 0.0000 1.0000 0.0000
vn 0.0000 1.0000 0.0000
vn 0.0000 1.0000 0.0000
vn 0.0000 1.0000 0.0000
vn 0.0000 1.0000 0.0000
vn 0.6887 0.2265 -0.6887
vn 0.0000 1.0000 0.0000
vn 0.0000 1.0000 0.0000
vn 0.0000 1.0000 0.0000
vn 0.0000 1.0000 0.0000
vn 0.6887 0.6887 -0.2265
vn 0.0000 1.0000 0.0000
vn 0.0000 1.0000 0.0000
vn 0.0000 1.0000 0.0000
vn 0.6887 0.6887 0.2265
vn 0.0000 1.0000 0.0000
vn 0.0000 1.0000 0.0000
vn 0.0000 1.0000 0.0000
vn 0.0000 1.0000 0.0000
vn 0.0000 1.0000 0.0000
vn 0.0000 1.0000 0.0000
vn 0.0000 1.0000 0.0000
vn 0.0000 1.0000 0.0000
vn 0.2265 0.6887 0.6887
vn 0.0000 1.0000 0.0000
vn 0.6887 0.2265 0.6887
vn 0.0000 1.0000 0.0000
vn 0.0000 1.0000 0.0000
vn -1.0000 0.0000 0.0000
vn -1.0000 0.0000 -0.0000
vn -0.8660 0.0000 0.5000
vn -0.8660 0.0000 -0.5000
vn -0.8660 0.0000 -0.5000
vn -0.8660 -0.0000 0.5000
vn 0.0000 1.0000 0.0000
vn 0.0000 1.0000 0.0000
vn 0.0000 1.0000 0.0000
vn -0.5000 0.0000 -0.8660
vn -0.5000 -0.0000 -0.8660
vn -0.5000 -0.0000 0.8660
vn 0.0000 1.0000 0.0000
vn -0.5000 0.0000 0.8660
vn 0.0000 1.0000 0.0000
vn 0.0000 -0.0000 -1.0000
vn 0.0000 1.0000 0.0000
vn 0.0000 0.0000 -1.0000
vn 0.0000 1.0000 0.0000
vn 0.0000 0.0000 1.0000
vn 0.0000 0.0000 1.0000
vn 0.5000 0.0000 -0.8660
vn 0.0000 1.0000 0.0000
vn 0.5000 -0.0000 -0.8660
vn 0.0000 1.0000 0.0000
vn 0.5000 0.0000 0.8660
vn 0.5000 0.0000 0.8660
vn 0.8660 -0.0000 -0.5000
vn 0.8660 0.0000 -0.5000
vn 0.8660 0.0000 0.5000
vn 0.0000 1.0000 0.0000
vn 0.8660 0.0000 0.5000
vn 0.0000 1.0000 0.0000
vn 1.0000 0.0000 0.0000
vn 1.0000 0.0000 0.0000
vn 0.0000 1.0000 0.0000
vn -0.8660 0.0000 -0.5000
vn -0.8660 0.0000 -0.5000
vn -1.0000 0.0000 -0.0000
vn -1.0000 0.0000 0.0000
vn 0.0000 1.0000 0.0000
vn 0.0000 1.0000 0.0000
vn 0.0000 1.0000 0.0000
vn -0.8660 0.0000 0.5000
vn -0.8660 -0.0000 0.5000
vn -0.5000 0.0000 -0.8660
vn -0.5000 -0.0000 -0.8660
vn 0.0000 1.0000 0.0000
vn 0.0000 -0.0000 -1.0000
vn 0.0000 1.0000 0.0000
vn 0.0000 1.0000 0.0000
vn 0.0000 0.0000 -1.0000
vn -0.5000 -0.0000 0.8660
vn -0.5000 0.0000 0.8660
vn 0.0000 0.0000 1.0000
vn 0.0000 -0.0000 1.0000
vn 0.0000 1.0000 0.0000
vn 0.5000 0.0000 -0.8660
vn 0.0000 1.0000 0.0000
vn 0.5000 -0.0000 -0.8660
vn 0.8660 -0.0000 -0.5000
vn 0.8660 0.0000 -0.5000
vn 0.0000 1.0000 0.0000
vn 0.0000 1.0000 0.0000
vn 0.5000 -0.0000 0.8660
vn 0.5000 0.0000 0.8660
vn 0.8660 0.0000 0.5000
vn 0.8660 0.0000 0.5000
vn 0.0000 1.0000 0.0000
vn 1.0000 0.0000 0.0000
vn 1.0000 0.0000 0.0000
vn 0.0000 1.0000 0.0000
vn -1.0000 0.0000 0.0000
vn -1.0000 0.0000 -0.0000
vn -0.8660 0.0000 0.5000
vn -0.8660 0.0000 -0.5000
vn -0.8660 0.0000 -0.5000
vn -0.8660 -0.0000 0.5000
vn 0.0000 1.0000 0.0000
vn 0.0000 1.0000 0.0000
vn 0.0000 1.0000 0.0000
vn -0.5000 0.0000 -0.8660
vn -0.5000 -0.0000 -0.8660
vn -0.5000 -0.0000 0.8660
vn 0.0000 1.0000 0.0000
vn 0.0000 1.0000 0.0000
vn -0.5000 0.0000 0.8660
vn 0.0000 -0.0000 -1.0000
vn 0.0000 0.0000 -1.0000
vn 0.0000 0.0000 1.0000
vn 0.0000 1.0000 0.0000
vn 0.0000 1.0000 0.0000
vn 0.0000 0.0000 1.0000
vn 0.5000 0.0000 -0.8660
vn 0.5000 -0.0000 -0.8660
vn 0.5000 0.0000 0.8660
vn 0.0000 1.0000 0.0000
vn 0.0000 1.0000 0.0000
vn 0.5000 0.0000 0.8660
vn 0.8660 -0.0000 -0.5000
vn 0.8660 0.0000 -0.5000
vn 0.8660 0.0000 0.5000
vn 0.0000 1.0000 0.0000
vn 0.0000 1.0000 0.0000
vn 0.8660 0.0000 0.5000
vn 1.0000 0.0000 0.0000
vn 1.0000 0.0000 0.0000
vn 0.0000 1.0000 0.0000
vn -1.0000 0.0000 0.0000
vn -1.0000 0.0000 -0.0000
vn -0.8660 0.0000 0.5000
vn -0.8660 0.0000 -0.5000
vn -0.8660 0.0000 -0.5000
vn -0.8660 -0.0000 0.5000
vn 0.0000 1.0000 0.0000
vn 0.0000 1.0000 0.0000
vn 0.0000 1.0000 0.0000
vn -0.5000 0.0000 -0.8660
vn -0.5000 -0.0000 -0.8660
vn -0.5000 -0.0000 0.8660
vn 0.0000 1.0000 0.0000
vn -0.5000 0.0000 0.8660
vn 0.0000 1.0000 0.0000
vn 0.0000 -0.0000 -1.0000
vn 0.0000 1.0000 0.0000
vn 0.0000 0.0000 -1.0000
vn 0.0000 1.0000 0.0000
vn 0.0000 0.0000 1.0000
vn 0.0000 0.0000 1.0000
vn 0.5000 0.0000 -0.8660
vn 0.0000 1.0000 0.0000
vn 0.5000 -0.0000 -0.8660
vn 0.0000 1.0000 0.0000
vn 0.5000 0.0000 0.8660
vn 0.5000 0.0000 0.8660
vn 0.8660 -0.0000 -0.5000
vn 0.8660 0.0000 -0.5000
vn 0.8660 0.0000 0.5000
vn 0.0000 1.0000 0.0000
vn 0.8660 0.0000 0.5000
vn 0.0000 1.0000 0.0000
vn 1.0000 0.0000 0.0000
vn 1.0000 0.0000 0.0000
vn 0.0000 1.0000 0.0000
vn -0.8660 0.0000 -0.5000
vn -0.8660 0.0000 -0.5000
vn -1.0000 0.0000 -0.0000
vn -1.0000 0.0000 0.0000
vn -0.8660 0.0000 0.5000
vn -0.8660 -0.0000 0.5000
vn 0.0000 1.0000 0.0000
vn 0.0000 1.0000 0.0000
vn 0.0000 1.0000 0.0000
vn -0.5000 0.0000 -0.8660
vn -0.5000 0.0000 -0.8660
vn 0.0000 1.0000 0.0000
vn 0.0000 0.0000 -1.0000
vn 0.0000 1.0000 0.0000
vn 0.0000 1.0000 0.0000
vn 0.0000 -0.0000 -1.0000
vn -0.5000 -0.0000 0.8660
vn -0.5000 -0.0000 0.8660
vn 0.0000 -0.0000 1.0000
vn 0.0000 0.0000 1.0000
vn 0.0000 1.0000 0.0000
vn 0.5000 -0.0000 -0.8660
vn 0.0000 1.0000 0.0000
vn 0.5000 -0.0000 -0.8660
vn 0.8660 -0.0000 -0.5000
vn 0.8660 0.0000 -0.5000
vn 0.0000 1.0000 0.0000
vn 0.0000 1.0000 0.0000
vn 0.5000 0.0000 0.8660
vn 0.5000 0.0000 0.8660
vn 0.8660 0.0000 0.5000
vn 0.8660 0.0000 0.5000
vn 0.0000 1.0000 0.0000
vn 1.0000 0.0000 -0.0000
vn 1.0000 0.0000 0.0000
vn 0.0000 1.0000 0.0000
vn -1.0000 0.0000 0.0000
vn -1.0000 0.0000 -0.0000
vn -0.8660 0.0000 0.5000
vn -0.8660 0.0000 -0.5000
vn -0.8660 0.0000 -0.5000
vn -0.8660 -0.0000 0.5000
vn 0.0000 1.0000 0.0000
vn 0.0000 1.0000 0.0000
vn 0.0000 1.0000 0.0000
vn -0.5000 0.0000 -0.8660
vn -0.5000 0.0000 -0.8660
vn -0.5000 -0.0000 0.8660
vn 0.0000 1.0000 0.0000
vn 0.0000 1.0000 0.0000
vn -0.5000 -0.0000 0.8660
vn 0.0000 0.0000 -1.0000
vn 0.0000 -0.0000 -1.0000
vn 0.0000 -0.0000 1.0000
vn 0.0000 1.0000 0.0000
vn 0.0000 1.0000 0.0000
vn 0.0000 0.0000 1.0000
vn 0.5000 -0.0000 -0.8660
vn 0.5000 -0.0000 -0.8660
vn 0.5000 0.0000 0.8660
vn 0.0000 1.0000 0.0000
vn 0.0000 1.0000 0.0000
vn 0.5000 0.0000 0.8660
vn 0.8660 -0.0000 -0.5000
vn 0.8660 0.0000 -0.5000
vn 0.8660 0.0000 0.5000
vn 0.0000 1.0000 0.0000
vn 0.0000 1.0000 0.0000
vn 0.8660 0.0000 0.5000
vn 1.0000 0.0000 0.0000
vn 1.0000 0.0000 -0.0000
vn 0.0000 1.0000 0.0000
f 1//1 2//2 3//3
f 1//1 3//3 4//4
f 1//1 4//4 5//5
f 3//3 6//6 4//4
f 1//1 7//7 2//2
f 1//1 5//5 8//8
f 2//2 9//9 3//3
f 3//3 10//10 6//6
f 2//2 7//7 9//9
f 5//5 4//4 11//11
f 4//4 6//6 12//12
f 5//5 11//11 8//8
f 1//1 13//13 7//7
f 1//1 8//8 13//13
f 13//13 14//14 7//7
f 13//13 15//15 14//14
f 13//13 8//8 15//15
f 14//14 15//15 16//16
f 7//7 14//14 17//17
f 14//14 16//16 17//17
f 8//8 18//18 15//15
f 15//15 19//19 16//16
f 16//16 19//19 20//20
f 3//3 9//9 21//21
f 3//3 21//21 10//10
f 9//9 22//22 21//21
f 21//21 23//23 10//10
f 21//21 22//22 23//23
f 22//22 24//24 23//23
f 24//24 25//25 26//26
f 24//24 27//27 25//25
f 24//24 26//26 28//28
f 29//29 25//25 27//27
f 29//29 27//27 30//30
f 9//9 31//31 22//22
f 22//22 31//31 24//24
f 24//24 32//32 27//27
f 33//33 27//27 34//34
f 33//33 34//34 35//35
f 36//36 34//34 37//37
f 6//6 10//10 38//38
f 24//24 28//28 39//39
f 10//10 23//23 40//40
f 23//23 24//24 40//40
f 29//29 30//30 41//41
f 41//41 30//30 42//42
f 41//41 42//42 43//43
f 41//41 43//43 44//44
f 33//33 35//35 45//45
f 45//45 35//35 46//46
f 36//36 47//47 48//48
f 45//45 46//46 49//49
f 49//49 46//46 50//50
f 51//51 52//52 48//48
f 7//7 53//53 9//9
f 7//7 17//17 53//53
f 16//16 20//20 17//17
f 9//9 53//53 31//31
f 24//24 31//31 32//32
f 32//32 34//34 27//27
f 36//36 37//37 47//47
f 32//32 37//37 34//34
f 37//37 54//54 55//55
f 56//56 37//37 55//55
f 53//53 17//17 31//31
f 17//17 20//20 57//57
f 17//17 57//57 31//31
f 31//31 57//57 32//32
f 32//32 54//54 37//37
f 32//32 58//58 54//54
f 58//58 59//59 60//60
f 32//32 59//59 58//58
f 32//32 61//61 59//59
f 32//32 62//62 61//61
f 48//48 47//47 63//63
f 64//64 56//56 55//55
f 64//64 65//65 56//56
f 51//51 48//48 63//63
f 65//65 64//64 66//66
f 65//65 66//66 67//67
f 58//58 60//60 68//68
f 58//58 68//68 69//69
f 32//32 70//70 62//62
f 20//20 71//71 57//57
f 57//57 72//72 32//32
f 69//69 68//68 73//73
f 73//73 68//68 74//74
f 4//4 12//12 11//11
f 6//6 75//75 12//12
f 6//6 38//38 75//75
f 11//11 12//12 76//76
f 12//12 77//77 76//76
f 12//12 75//75 77//77
f 76//76 77//77 78//78
f 11//11 76//76 79//79
f 76//76 78//78 79//79
f 75//75 38//38 77//77
f 77//77 80//80 78//78
f 78//78 80//80 81//81
f 8//8 11//11 82//82
f 8//8 82//82 18//18
f 15//15 18//18 19//19
f 11//11 79//79 82//82
f 78//78 81//81 79//79
f 82//82 79//79 18//18
f 18//18 79//79 83//83
f 18//18 83//83 19//19
f 79//79 81//81 83//83
f 19//19 83//83 71//71
f 83//83 81//81 84//84
f 24//24 39//39 85//85
f 44//44 43//43 86//86
f 43//43 87//87 86//86
f 10//10 40//40 38//38
f 24//24 85//85 40//40
f 85//85 39//39 88//88
f 89//89 86//86 87//87
f 89//89 90//90 86//86
f 91//91 49//49 50//50
f 91//91 92//92 49//49
f 52//52 93//93 94//94
f 92//92 91//91 95//95
f 92//92 95//95 96//96
f 97//97 94//94 93//93
f 77//77 38//38 98//98
f 77//77 98//98 80//80
f 85//85 88//88 99//99
f 85//85 99//99 100//100
f 85//85 90//90 89//89
f 85//85 100//100 90//90
f 85//85 89//89 101//101
f 85//85 101//101 102//102
f 38//38 40//40 98//98
f 98//98 103//103 80//80
f 40//40 85//85 103//103
f 40//40 103//103 98//98
f 96//96 95//95 101//101
f 101//101 95//95 102//102
f 85//85 102//102 104//104
f 97//97 105//105 102//102
f 85//85 104//104 106//106
f 85//85 107//107 103//103
f 80//80 103//103 107//107
f 20//20 19//19 71//71
f 52//52 51//51 93//93
f 67//67 66//66 108//108
f 67//67 108//108 109//109
f 97//97 93//93 105//105
f 110//110 109//109 108//108
f 110//110 108//108 111//111
f 73//73 74//74 112//112
f 74//74 113//113 112//112
f 32//32 72//72 70//70
f 114//114 112//112 113//113
f 114//114 113//113 115//115
f 57//57 71//71 116//116
f 57//57 116//116 72//72
f 72//72 117//117 70//70
f 81//81 80//80 84//84
f 83//83 118//118 71//71
f 83//83 84//84 118//118
f 102//102 105//105 104//104
f 110//110 111//111 104//104
f 104//104 111//111 106//106
f 85//85 106//106 72//72
f 80//80 107//107 84//84
f 85//85 72//72 107//107
f 114//114 115//115 106//106
f 106//106 115//115 119//119
f 72//72 120//120 117//117
f 72//72 106//106 119//119
f 72//72 119//119 120//120
f 71//71 118//118 116//116
f 118//118 84//84 107//107
f 116//116 107//107 72//72
f 116//116 118//118 107//107
f 121//121 122//122 123//123
f 124//124 125//125 122//122
f 121//121 124//124 122//122
f 121//121 123//123 126//126
f 127//127 128//128 129//129
f 130//130 131//131 125//125
f 126//126 123//123 132//132
f 124//124 130//130 125//125
f 129//129 128//128 133//133
f 126//126 132//132 134//134
f 128//128 135//135 133//133
f 130//130 136//136 131//131
f 133//133 135//135 137//137
f 136//136 138//138 131//131
f 135//135 139//139 137//137
f 134//134 132//132 140//140
f 134//134 140//140 141//141
f 136//136 142//142 138//138
f 137//137 139//139 143//143
f 142//142 144//144 138//138
f 139//139 145//145 143//143
f 141//141 140//140 146//146
f 141//141 146//146 147//147
f 148//148 149//149 144//144
f 147//147 146//146 150//150
f 142//142 148//148 144//144
f 143//143 145//145 151//151
f 147//147 150//150 152//152
f 145//145 153//153 151//151
f 152//152 150//150 154//154
f 155//155 154//154 149//149
f 148//148 155//155 149//149
f 151//151 153//153 156//156
f 152//152 154//154 155//155
f 157//157 158//158 159//159
f 160//160 157//157 159//159
f 161//161 162//162 163//163
f 160//160 159//159 164//164
f 160//160 164//164 165//165
f 166//166 167//167 158//158
f 157//157 166//166 158//158
f 163//163 162//162 168//168
f 166//166 169//169 167//167
f 168//168 170//170 171//171
f 169//169 172//172 167//167
f 165//165 164//164 173//173
f 165//165 173//173 174//174
f 162//162 170//170 168//168
f 174//174 173//173 175//175
f 174//174 175//175 176//176
f 171//171 170//170 177//177
f 169//169 178//178 172//172
f 171//171 177//177 179//179
f 178//178 180//180 172//172
f 181//181 182//182 180//180
f 178//178 181//181 180//180
f 179//179 183//183 184//184
f 176//176 175//175 185//185
f 176//176 185//185 186//186
f 177//177 183//183 179//179
f 186//186 185//185 187//187
f 186//186 187//187 188//188
f 183//183 189//189 184//184
f 190//190 191//191 182//182
f 181//181 190//190 182//182
f 184//184 189//189 192//192
f 188//188 187//187 191//191
f 190//190 188//188 191//191
f 193//193 194//194 195//195
f 196//196 197//197 194//194
f 193//193 196//196 194//194
f 193//193 195//195 198//198
f 199//199 200//200 201//201
f 202//202 203//203 197//197
f 198//198 195//195 204//204
f 196//196 202//202 197//197
f 201//201 200//200 205//205
f 200//200 206//206 205//205
f 198//198 204//204 207//207
f 202//202 208//208 203//203
f 208//208 209//209 203//203
f 207//207 204//204 210//210
f 205//205 206//206 211//211
f 206//206 212//212 211//211
f 207//207 210//210 213//213
f 208//208 214//214 209//209
f 214//214 215//215 209//209
f 213//213 210//210 216//216
f 211//211 212//212 217//217
f 212//212 218//218 217//217
f 213//213 216//216 219//219
f 220//220 221//221 215//215
f 219//219 216//216 222//222
f 214//214 220//220 215//215
f 217//217 218//218 223//223
f 218//218 224//224 223//223
f 219//219 222//222 225//225
f 225//225 222//222 226//226
f 227//227 226//226 221//221
f 220//220 227//227 221//221
f 223//223 224//224 228//228
f 225//225 226//226 227//227
f 229//229 230//230 231//231
f 232//232 233//233 230//230
f 229//229 232//232 230//230
f 229//229 231//231 234//234
f 235//235 236//236 237//237
f 238//238 239//239 233//233
f 234//234 231//231 240//240
f 232//232 238//238 233//233
f 237//237 236//236 241//241
f 234//234 240//240 242//242
f 236//236 243//243 241//241
f 238//238 244//244 239//239
f 241//241 243//243 245//245
f 244//244 246//246 239//239
f 243//243 247//247 245//245
f 242//242 240//240 248//248
f 242//242 248//248 249//249
f 244//244 250//250 246//246
f 245//245 247//247 251//251
f 250//250 252//252 246//246
f 247//247 253//253 251//251
f 249//249 248//248 254//254
f 249//249 254//254 255//255
f 256//256 257//257 252//252
f 255//255 254//254 258//258
f 250//250 256//256 252//252
f 251//251 253//253 259//259
f 255//255 258//258 260//260
f 253//253 261//261 259//259
f 260//260 258//258 262//262
f 263//263 262//262 257//257
f 256//256 263//263 257//257
f 259//259 261//261 264//264
f 260//260 262//262 263//263
f 265//265 266//266 267//267
f 265//265 267//267 268//268
f 268//268 267//267 269//269
f 268//268 269//269 270//270
f 271//271 272//272 273//273
f 274//274 275//275 266//266
f 265//265 274//274 266//266
f 271//271 273//273 276//276
f 274//274 277//277 275//275
f 276//276 278//278 279//279
f 277//277 280//280 275//275
f 270//270 269//269 281//281
f 270//270 281//281 282//282
f 273//273 278//278 276//276
f 282//282 281//281 283//283
f 282//282 283//283 284//284
f 279//279 278//278 285//285
f 277//277 286//286 280//280
f 279//279 285//285 287//287
f 286//286 288//288 280//280
f 289//289 290//290 288//288
f 286//286 289//289 288//288
f 287//287 291//291 292//292
f 284//284 283//283 293//293
f 284//284 293//293 294//294
f 285//285 291//291 287//287
f 294//294 293//293 295//295
f 294//294 295//295 296//296
f 291//291 297//297 292//292
f 298//298 299//299 290//290
f 289//289 298//298 290//290
f 296//296 295//295 299//299
f 292//292 297//297 300//300
f 296//296 299//299 298//298
f 301//301 302//302 303//303
f 304//304 305//305 302//302
f 301//301 304//304 302//302
f 301//301 303//303 306//306
f 307//307 308//308 309//309
f 310//310 311//311 305//305
f 306//306 303//303 312//312
f 304//304 310//310 305//305
f 309//309 308//308 313//313
f 308//308 314//314 313//313
f 306//306 312//312 315//315
f 310//310 316//316 311//311
f 316//316 317//317 311//311
f 315//315 312//312 318//318
f 313//313 314//314 319//319
f 314//314 320//320 319//319
f 315//315 318//318 321//321
f 316//316 322//322 317//317
f 322//322 323//323 317//317
f 321//321 318//318 324//324
f 319//319 320//320 325//325
f 320//320 326//326 325//325
f 321//321 324//324 327//327
f 328//328 329//329 323//323
f 327//327 324//324 330//330
f 322//322 328//328 323//323
f 325//325 326//326 331//331
f 326//326 332//332 331//331
f 327//327 330//330 333//333
f 333//333 330//330 334//334
f 335//335 334//334 329//329
f 328//328 335//335 329//329
f 331//331 332//332 336//336
f 333//333 334//334 335//335
