v -0.12066 -0.14666 -0.49000
v -0.12300 -0.14100 -0.49000
v -0.12066 -0.14100 -0.49566
v -0.11500 -0.14666 -0.49566
v -0.11500 -0.14900 -0.49000
v -0.11500 -0.14100 -0.49800
v -0.12300 -0.14100 0.49000
v -0.11500 -0.14900 0.49000
v -0.12300 0.14100 -0.49000
v -0.11500 0.14100 -0.49800
v 0.11500 -0.14900 -0.49000
v 0.11500 -0.14666 -0.49566
v -0.12066 -0.14666 0.49000
v -0.12066 -0.14100 0.49566
v -0.11500 -0.14666 0.49566
v -0.11500 -0.14100 0.49800
v -0.12066 0.14100 0.49566
v 0.11500 -0.14666 0.49566
v 0.11500 -0.14100 0.49800
v -0.11500 0.14100 0.49800
v -0.12066 0.14100 -0.49566
v -0.12066 0.14666 -0.49000
v -0.11500 0.14666 -0.49566
v -0.11500 0.14900 -0.49000
v -0.07500 0.14900 -0.37500
v -0.06495 0.14900 -0.41250
v -0.03750 0.14900 -0.43995
v -0.07500 0.14900 -0.12500
v -0.06495 0.14900 -0.33750
v -0.12300 0.14100 0.49000
v -0.12066 0.14666 0.49000
v -0.11500 0.14900 0.49000
v -0.06495 0.14900 -0.16250
v -0.07500 0.14900 0.12500
v -0.06495 0.14900 -0.08750
v 0.11500 0.14100 -0.49800
v 0.00000 0.14900 -0.45000
v 0.11500 0.14666 -0.49566
v -0.03750 0.14900 -0.31005
v 0.00000 0.14900 -0.20000
v 0.00000 0.14900 -0.30000
v -0.03750 0.14900 -0.18995
v -0.06495 0.14900 0.08750
v -0.03750 0.14900 -0.06005
v 0.00000 0.14900 0.05000
v 0.00000 0.14900 -0.05000
v -0.11500 0.14666 0.49566
v -0.06495 0.14900 0.16250
v -0.07500 0.14900 0.37500
v -0.06495 0.14900 0.33750
v -0.06495 0.14900 0.41250
v -0.03750 0.14900 0.43995
v -0.03750 0.14900 0.06005
v -0.03750 0.14900 0.31005
v -0.03750 0.14900 0.18995
v 0.00000 0.14900 0.20000
v 0.00000 0.14900 0.45000
v 0.11500 0.14100 0.49800
v 0.11500 0.14666 0.49566
v 0.00000 0.14900 0.30000
v 0.11500 -0.14100 -0.49800
v 0.12066 -0.14666 -0.49000
v 0.12066 -0.14100 -0.49566
v 0.12300 -0.14100 -0.49000
v 0.12066 -0.14666 0.49000
v 0.12300 0.14100 -0.49000
v 0.12300 -0.14100 0.49000
v 0.11500 -0.14900 0.49000
v 0.12066 -0.14100 0.49566
v 0.12300 0.14100 0.49000
v 0.11500 0.14900 -0.49000
v 0.03750 0.14900 -0.31005
v 0.03750 0.14900 -0.43995
v 0.06495 0.14900 -0.16250
v 0.06495 0.14900 -0.33750
v 0.03750 0.14900 -0.18995
v 0.03750 0.14900 0.06005
v 0.03750 0.14900 -0.06005
v 0.06495 0.14900 -0.08750
v 0.12066 0.14100 -0.49566
v 0.06495 0.14900 -0.41250
v 0.07500 0.14900 -0.37500
v 0.07500 0.14900 -0.12500
v 0.12066 0.14666 -0.49000
v 0.07500 0.14900 0.12500
v 0.06495 0.14900 0.08750
v 0.12066 0.14666 0.49000
v 0.03750 0.14900 0.18995
v 0.06495 0.14900 0.16250
v 0.03750 0.14900 0.31005
v 0.11500 0.14900 0.49000
v 0.06495 0.14900 0.33750
v 0.03750 0.14900 0.43995
v 0.12066 0.14100 0.49566
v 0.07500 0.14900 0.37500
v 0.06495 0.14900 0.41250
v -0.06495 0.19900 -0.41250
v -0.06495 0.14900 -0.41250
v -0.07500 0.14900 -0.37500
v -0.07500 0.19900 -0.37500
v -0.07500 0.19900 -0.37500
v -0.06495 0.19900 -0.33750
v -0.06495 0.19900 -0.41250
v -0.06495 0.14900 -0.33750
v -0.06495 0.19900 -0.33750
v -0.03750 0.19900 -0.43995
v -0.03750 0.14900 -0.43995
v -0.03750 0.19900 -0.43995
v -0.03750 0.14900 -0.31005
v -0.03750 0.19900 -0.31005
v -0.03750 0.19900 -0.31005
v 0.00000 0.19900 -0.45000
v 0.00000 0.19900 -0.45000
v 0.00000 0.14900 -0.45000
v 0.00000 0.14900 -0.30000
v 0.00000 0.19900 -0.30000
v 0.00000 0.19900 -0.30000
v 0.03750 0.19900 -0.43995
v 0.03750 0.19900 -0.43995
v 0.03750 0.14900 -0.43995
v 0.03750 0.14900 -0.31005
v 0.03750 0.19900 -0.31005
v 0.03750 0.19900 -0.31005
v 0.06495 0.19900 -0.41250
v 0.06495 0.14900 -0.41250
v 0.06495 0.19900 -0.41250
v 0.06495 0.14900 -0.33750
v 0.06495 0.19900 -0.33750
v 0.06495 0.19900 -0.33750
v 0.07500 0.19900 -0.37500
v 0.07500 0.14900 -0.37500
v 0.07500 0.19900 -0.37500
v -0.06495 0.19900 -0.16250
v -0.06495 0.14900 -0.16250
v -0.07500 0.14900 -0.12500
v -0.07500 0.19900 -0.12500
v -0.07500 0.19900 -0.12500
v -0.06495 0.19900 -0.08750
v -0.06495 0.19900 -0.16250
v -0.06495 0.14900 -0.08750
v -0.06495 0.19900 -0.08750
v -0.03750 0.19900 -0.18995
v -0.03750 0.14900 -0.18995
v -0.03750 0.19900 -0.18995
v -0.03750 0.14900 -0.06005
v -0.03750 0.19900 -0.06005
v -0.03750 0.19900 -0.06005
v 0.00000 0.19900 -0.20000
v 0.00000 0.19900 -0.20000
v 0.00000 0.14900 -0.20000
v 0.00000 0.14900 -0.05000
v 0.00000 0.19900 -0.05000
v 0.00000 0.19900 -0.05000
v 0.03750 0.19900 -0.18995
v 0.03750 0.19900 -0.18995
v 0.03750 0.14900 -0.18995
v 0.03750 0.14900 -0.06005
v 0.03750 0.19900 -0.06005
v 0.03750 0.19900 -0.06005
v 0.06495 0.19900 -0.16250
v 0.06495 0.14900 -0.16250
v 0.06495 0.19900 -0.16250
v 0.06495 0.14900 -0.08750
v 0.06495 0.19900 -0.08750
v 0.06495 0.19900 -0.08750
v 0.07500 0.19900 -0.12500
v 0.07500 0.14900 -0.12500
v 0.07500 0.19900 -0.12500
v -0.06495 0.19900 0.08750
v -0.06495 0.14900 0.08750
v -0.07500 0.14900 0.12500
v -0.07500 0.19900 0.12500
v -0.06495 0.14900 0.16250
v -0.06495 0.19900 0.16250
v -0.06495 0.19900 0.08750
v -0.07500 0.19900 0.12500
v -0.06495 0.19900 0.16250
v -0.03750 0.19900 0.06005
v -0.03750 0.14900 0.06005
v -0.03750 0.19900 0.06005
v -0.03750 0.14900 0.18995
v -0.03750 0.19900 0.18995
v -0.03750 0.19900 0.18995
v 0.00000 0.19900 0.05000
v 0.00000 0.19900 0.05000
v 0.00000 0.14900 0.05000
v 0.00000 0.14900 0.20000
v 0.00000 0.19900 0.20000
v 0.00000 0.19900 0.20000
v 0.03750 0.19900 0.06005
v 0.03750 0.19900 0.06005
v 0.03750 0.14900 0.06005
v 0.03750 0.14900 0.18995
v 0.03750 0.19900 0.18995
v 0.03750 0.19900 0.18995
v 0.06495 0.19900 0.08750
v 0.06495 0.14900 0.08750
v 0.06495 0.19900 0.08750
v 0.06495 0.14900 0.16250
v 0.06495 0.19900 0.16250
v 0.06495 0.19900 0.16250
v 0.07500 0.19900 0.12500
v 0.07500 0.14900 0.12500
v 0.07500 0.19900 0.12500
v -0.06495 0.19900 0.33750
v -0.06495 0.14900 0.33750
v -0.07500 0.14900 0.37500
v -0.07500 0.19900 0.37500
v -0.06495 0.14900 0.41250
v -0.06495 0.19900 0.41250
v -0.07500 0.19900 0.37500
v -0.06495 0.19900 0.41250
v -0.06495 0.19900 0.33750
v -0.03750 0.19900 0.31005
v -0.03750 0.14900 0.31005
v -0.03750 0.19900 0.31005
v -0.03750 0.14900 0.43995
v -0.03750 0.19900 0.43995
v -0.03750 0.19900 0.43995
v 0.00000 0.19900 0.30000
v 0.00000 0.19900 0.30000
v 0.00000 0.14900 0.30000
v 0.00000 0.14900 0.45000
v 0.00000 0.19900 0.45000
v 0.00000 0.19900 0.45000
v 0.03750 0.19900 0.31005
v 0.03750 0.19900 0.31005
v 0.03750 0.14900 0.31005
v 0.03750 0.14900 0.43995
v 0.03750 0.19900 0.43995
v 0.03750 0.19900 0.43995
v 0.06495 0.19900 0.33750
v 0.06495 0.14900 0.33750
v 0.06495 0.19900 0.33750
v 0.06495 0.14900 0.41250
v 0.06495 0.19900 0.41250
v 0.06495 0.19900 0.41250
v 0.07500 0.19900 0.37500
v 0.07500 0.14900 0.37500
v 0.07500 0.19900 0.37500
vn -0.6887 -0.6887 -0.2265
vn -0.9641 -0.1877 -0.1877
vn -0.6887 -0.2265 -0.6887
vn -0.2265 -0.6887 -0.6887
vn -0.1877 -0.9641 -0.1877
vn -0.1877 -0.1877 -0.9641
vn -0.9641 -0.1877 0.1877
vn -0.1877 -0.9641 0.1877
vn -0.9641 0.1877 -0.1877
vn -0.1877 0.1877 -0.9641
vn 0.1877 -0.9641 -0.1877
vn 0.2265 -0.6887 -0.6887
vn -0.6887 -0.6887 0.2265
vn -0.6887 -0.2265 0.6887
vn -0.2265 -0.6887 0.6887
vn -0.1877 -0.1877 0.9641
vn -0.6887 0.2265 0.6887
vn 0.2265 -0.6887 0.6887
vn 0.1877 -0.1877 0.9641
vn -0.1877 0.1877 0.9641
vn -0.6887 0.2265 -0.6887
vn -0.6887 0.6887 -0.2265
vn -0.2265 0.6887 -0.6887
vn -0.1877 0.9641 -0.1877
vn 0.0000 1.0000 0.0000
vn 0.0000 1.0000 0.0000
vn 0.0000 1.0000 0.0000
vn 0.0000 1.0000 0.0000
vn 0.0000 1.0000 0.0000
vn -0.9641 0.1877 0.1877
vn -0.6887 0.6887 0.2265
vn -0.1877 0.9641 0.1877
vn 0.0000 1.0000 0.0000
vn 0.0000 1.0000 0.0000
vn 0.0000 1.0000 0.0000
vn 0.1877 0.1877 -0.9641
vn 0.0000 1.0000 0.0000
vn 0.2265 0.6887 -0.6887
vn 0.0000 1.0000 0.0000
vn 0.0000 1.0000 0.0000
vn 0.0000 1.0000 0.0000
vn 0.0000 1.0000 0.0000
vn 0.0000 1.0000 0.0000
vn 0.0000 1.0000 0.0000
vn 0.0000 1.0000 0.0000
vn 0.0000 1.0000 0.0000
vn -0.2265 0.6887 0.6887
vn 0.0000 1.0000 0.0000
vn 0.0000 1.0000 0.0000
vn 0.0000 1.0000 0.0000
vn 0.0000 1.0000 0.0000
vn 0.0000 1.0000 0.0000
vn 0.0000 1.0000 0.0000
vn 0.0000 1.0000 0.0000
vn 0.0000 1.0000 0.0000
vn 0.0000 1.0000 0.0000
vn 0.0000 1.0000 0.0000
vn 0.1877 0.1877 0.9641
vn 0.2265 0.6887 0.6887
vn 0.0000 1.0000 0.0000
vn 0.1877 -0.1877 -0.9641
vn 0.6887 -0.6887 -0.2265
vn 0.6887 -0.2265 -0.6887
vn 0.9641 -0.1877 -0.1877
vn 0.6887 -0.6887 0.2265
vn 0.9641 0.1877 -0.1877
vn 0.9641 -0.1877 0.1877
vn 0.1877 -0.9641 0.1877
vn 0.6887 -0.2265 0.6887
vn 0.9641 0.1877 0.1877
vn 0.1877 0.9641 -0.1877
vn 0.0000 1.0000 0.0000
vn 0.0000 1.0000 0.0000
vn 0.0000 1.0000 0.0000
vn 0.0000 1.0000 0.0000
vn 0.0000 1.0000 0.0000
vn 0.0000 1.0000 0.0000
vn 0.0000 1.0000 0.0000
vn 0.0000 1.0000 0.0000
vn 0.6887 0.2265 -0.6887
vn 0.0000 1.0000 0.0000
vn 0.0000 1.0000 0.0000
vn 0.0000 1.0000 0.0000
vn 0.6887 0.6887 -0.2265
vn 0.0000 1.0000 0.0000
vn 0.0000 1.0000 0.0000
vn 0.6887 0.6887 0.2265
vn 0.0000 1.0000 0.0000
vn 0.0000 1.0000 0.0000
vn 0.0000 1.0000 0.0000
vn 0.1877 0.9641 0.1877
vn 0.0000 1.0000 0.0000
vn 0.0000 1.0000 0.0000
vn 0.6887 0.2265 0.6887
vn 0.0000 1.0000 0.0000
vn 0.0000 1.0000 0.0000
vn -0.8660 0.0000 -0.5000
vn -0.8660 0.0000 -0.5000
vn -1.0000 0.0000 -0.0000
vn -1.0000 0.0000 0.0000
vn 0.0000 1.0000 0.0000
vn 0.0000 1.0000 0.0000
vn 0.0000 1.0000 0.0000
vn -0.8660 0.0000 0.5000
vn -0.8660 -0.0000 0.5000
vn -0.5000 0.0000 -0.8660
vn -0.5000 -0.0000 -0.8660
vn 0.0000 1.0000 0.0000
vn -0.5000 -0.0000 0.8660
vn -0.5000 0.0000 0.8660
vn 0.0000 1.0000 0.0000
vn 0.0000 -0.0000 -1.0000
vn 0.0000 1.0000 0.0000
vn 0.0000 0.0000 -1.0000
vn 0.0000 0.0000 1.0000
vn 0.0000 1.0000 0.0000
vn 0.0000 -0.0000 1.0000
vn 0.5000 0.0000 -0.8660
vn 0.0000 1.0000 0.0000
vn 0.5000 -0.0000 -0.8660
vn 0.5000 -0.0000 0.8660
vn 0.0000 1.0000 0.0000
vn 0.5000 0.0000 0.8660
vn 0.8660 -0.0000 -0.5000
vn 0.8660 0.0000 -0.5000
vn 0.0000 1.0000 0.0000
vn 0.8660 0.0000 0.5000
vn 0.8660 0.0000 0.5000
vn 0.0000 1.0000 0.0000
vn 1.0000 0.0000 0.0000
vn 1.0000 0.0000 0.0000
vn 0.0000 1.0000 0.0000
vn -0.8660 0.0000 -0.5000
vn -0.8660 0.0000 -0.5000
vn -1.0000 0.0000 -0.0000
vn -1.0000 0.0000 0.0000
vn 0.0000 1.0000 0.0000
vn 0.0000 1.0000 0.0000
vn 0.0000 1.0000 0.0000
vn -0.8660 0.0000 0.5000
vn -0.8660 -0.0000 0.5000
vn -0.5000 0.0000 -0.8660
vn -0.5000 -0.0000 -0.8660
vn 0.0000 1.0000 0.0000
vn -0.5000 -0.0000 0.8660
vn -0.5000 0.0000 0.8660
vn 0.0000 1.0000 0.0000
vn 0.0000 -0.0000 -1.0000
vn 0.0000 1.0000 0.0000
vn 0.0000 0.0000 -1.0000
vn 0.0000 0.0000 1.0000
vn 0.0000 1.0000 0.0000
vn 0.0000 -0.0000 1.0000
vn 0.5000 0.0000 -0.8660
vn 0.0000 1.0000 0.0000
vn 0.5000 -0.0000 -0.8660
vn 0.5000 -0.0000 0.8660
vn 0.0000 1.0000 0.0000
vn 0.5000 0.0000 0.8660
vn 0.8660 -0.0000 -0.5000
vn 0.8660 0.0000 -0.5000
vn 0.0000 1.0000 0.0000
vn 0.8660 0.0000 0.5000
vn 0.8660 0.0000 0.5000
vn 0.0000 1.0000 0.0000
vn 1.0000 0.0000 0.0000
vn 1.0000 0.0000 0.0000
vn 0.0000 1.0000 0.0000
vn -0.8660 0.0000 -0.5000
vn -0.8660 0.0000 -0.5000
vn -1.0000 0.0000 -0.0000
vn -1.0000 0.0000 0.0000
vn -0.8660 0.0000 0.5000
vn -0.8660 -0.0000 0.5000
vn 0.0000 1.0000 0.0000
vn 0.0000 1.0000 0.0000
vn 0.0000 1.0000 0.0000
vn -0.5000 0.0000 -0.8660
vn -0.5000 -0.0000 -0.8660
vn 0.0000 1.0000 0.0000
vn -0.5000 -0.0000 0.8660
vn -0.5000 0.0000 0.8660
vn 0.0000 1.0000 0.0000
vn 0.0000 -0.0000 -1.0000
vn 0.0000 1.0000 0.0000
vn 0.0000 0.0000 -1.0000
vn 0.0000 0.0000 1.0000
vn 0.0000 1.0000 0.0000
vn 0.0000 0.0000 1.0000
vn 0.5000 0.0000 -0.8660
vn 0.0000 1.0000 0.0000
vn 0.5000 -0.0000 -0.8660
vn 0.5000 0.0000 0.8660
vn 0.0000 1.0000 0.0000
vn 0.5000 0.0000 0.8660
vn 0.8660 -0.0000 -0.5000
vn 0.8660 0.0000 -0.5000
vn 0.0000 1.0000 0.0000
vn 0.8660 0.0000 0.5000
vn 0.8660 0.0000 0.5000
vn 0.0000 1.0000 0.0000
vn 1.0000 0.0000 0.0000
vn 1.0000 0.0000 0.0000
vn 0.0000 1.0000 0.0000
vn -0.8660 0.0000 -0.5000
vn -0.8660 0.0000 -0.5000
vn -1.0000 0.0000 -0.0000
vn -1.0000 0.0000 0.0000
vn -0.8660 0.0000 0.5000
vn -0.8660 -0.0000 0.5000
vn 0.0000 1.0000 0.0000
vn 0.0000 1.0000 0.0000
vn 0.0000 1.0000 0.0000
vn -0.5000 0.0000 -0.8660
vn -0.5000 -0.0000 -0.8660
vn 0.0000 1.0000 0.0000
vn -0.5000 -0.0000 0.8660
vn -0.5000 0.0000 0.8660
vn 0.0000 1.0000 0.0000
vn 0.0000 -0.0000 -1.0000
vn 0.0000 1.0000 0.0000
vn 0.0000 0.0000 -1.0000
vn 0.0000 0.0000 1.0000
vn 0.0000 1.0000 0.0000
vn 0.0000 0.0000 1.0000
vn 0.5000 0.0000 -0.8660
vn 0.0000 1.0000 0.0000
vn 0.5000 -0.0000 -0.8660
vn 0.5000 0.0000 0.8660
vn 0.0000 1.0000 0.0000
vn 0.5000 0.0000 0.8660
vn 0.8660 -0.0000 -0.5000
vn 0.8660 0.0000 -0.5000
vn 0.0000 1.0000 0.0000
vn 0.8660 0.0000 0.5000
vn 0.8660 0.0000 0.5000
vn 0.0000 1.0000 0.0000
vn 1.0000 0.0000 0.0000
vn 1.0000 0.0000 0.0000
vn 0.0000 1.0000 0.0000
f 1//1 2//2 3//3
f 1//1 3//3 4//4
f 1//1 4//4 5//5
f 3//3 6//6 4//4
f 1//1 7//7 2//2
f 1//1 5//5 8//8
f 2//2 9//9 3//3
f 3//3 10//10 6//6
f 2//2 7//7 9//9
f 5//5 4//4 11//11
f 4//4 6//6 12//12
f 5//5 11//11 8//8
f 1//1 13//13 7//7
f 1//1 8//8 13//13
f 13//13 14//14 7//7
f 13//13 15//15 14//14
f 13//13 8//8 15//15
f 14//14 15//15 16//16
f 7//7 14//14 17//17
f 14//14 16//16 17//17
f 8//8 18//18 15//15
f 15//15 19//19 16//16
f 16//16 19//19 20//20
f 3//3 9//9 21//21
f 3//3 21//21 10//10
f 9//9 22//22 21//21
f 21//21 23//23 10//10
f 21//21 22//22 23//23
f 22//22 24//24 23//23
f 24//24 25//25 26//26
f 24//24 26//26 27//27
f 24//24 28//28 25//25
f 25//25 28//28 29//29
f 9//9 30//30 22//22
f 22//22 31//31 24//24
f 24//24 32//32 28//28
f 29//29 28//28 33//33
f 28//28 34//34 35//35
f 6//6 10//10 36//36
f 24//24 27//27 37//37
f 10//10 23//23 38//38
f 23//23 24//24 38//38
f 29//29 33//33 39//39
f 39//39 40//40 41//41
f 39//39 33//33 42//42
f 35//35 43//43 44//44
f 39//39 42//42 40//40
f 45//45 46//46 44//44
f 7//7 30//30 9//9
f 7//7 17//17 30//30
f 16//16 20//20 17//17
f 22//22 30//30 31//31
f 24//24 31//31 32//32
f 35//35 34//34 43//43
f 32//32 34//34 28//28
f 30//30 17//17 31//31
f 17//17 20//20 47//47
f 17//17 47//47 31//31
f 31//31 47//47 32//32
f 32//32 48//48 34//34
f 32//32 49//49 48//48
f 48//48 49//49 50//50
f 32//32 51//51 49//49
f 32//32 52//52 51//51
f 44//44 43//43 53//53
f 48//48 54//54 55//55
f 45//45 44//44 53//53
f 55//55 54//54 56//56
f 48//48 50//50 54//54
f 32//32 57//57 52//52
f 20//20 58//58 47//47
f 47//47 59//59 32//32
f 56//56 54//54 60//60
f 4//4 12//12 11//11
f 6//6 61//61 12//12
f 6//6 36//36 61//61
f 11//11 12//12 62//62
f 12//12 63//63 62//62
f 12//12 61//61 63//63
f 62//62 63//63 64//64
f 11//11 62//62 65//65
f 62//62 64//64 65//65
f 61//61 36//36 63//63
f 63//63 66//66 64//64
f 64//64 66//66 67//67
f 8//8 11//11 68//68
f 8//8 68//68 18//18
f 15//15 18//18 19//19
f 11//11 65//65 68//68
f 64//64 67//67 65//65
f 68//68 65//65 18//18
f 18//18 65//65 69//69
f 18//18 69//69 19//19
f 65//65 67//67 69//69
f 19//19 69//69 58//58
f 69//69 67//67 70//70
f 24//24 37//37 71//71
f 41//41 40//40 72//72
f 10//10 38//38 36//36
f 24//24 71//71 38//38
f 71//71 37//37 73//73
f 74//74 75//75 72//72
f 40//40 76//76 72//72
f 46//46 77//77 78//78
f 74//74 72//72 76//76
f 79//79 78//78 77//77
f 63//63 36//36 80//80
f 63//63 80//80 66//66
f 71//71 73//73 81//81
f 71//71 81//81 82//82
f 71//71 82//82 75//75
f 71//71 75//75 74//74
f 71//71 74//74 83//83
f 36//36 38//38 80//80
f 80//80 84//84 66//66
f 38//38 71//71 84//84
f 38//38 84//84 80//80
f 71//71 83//83 85//85
f 79//79 86//86 83//83
f 71//71 87//87 84//84
f 66//66 84//84 87//87
f 20//20 19//19 58//58
f 46//46 45//45 77//77
f 56//56 60//60 88//88
f 79//79 77//77 86//86
f 89//89 88//88 90//90
f 60//60 90//90 88//88
f 32//32 91//91 57//57
f 89//89 90//90 92//92
f 47//47 58//58 59//59
f 32//32 59//59 91//91
f 91//91 93//93 57//57
f 67//67 66//66 70//70
f 69//69 94//94 58//58
f 69//69 70//70 94//94
f 83//83 86//86 85//85
f 89//89 92//92 85//85
f 71//71 85//85 91//91
f 66//66 87//87 70//70
f 71//71 91//91 87//87
f 85//85 92//92 95//95
f 91//91 85//85 95//95
f 91//91 96//96 93//93
f 91//91 95//95 96//96
f 58//58 94//94 59//59
f 94//94 70//70 87//87
f 59//59 87//87 91//91
f 59//59 94//94 87//87
f 97//97 98//98 99//99
f 100//100 97//97 99//99
f 101//101 102//102 103//103
f 100//100 99//99 104//104
f 100//100 104//104 105//105
f 106//106 107//107 98//98
f 97//97 106//106 98//98
f 103//103 102//102 108//108
f 105//105 104//104 109//109
f 105//105 109//109 110//110
f 102//102 111//111 108//108
f 106//106 112//112 107//107
f 108//108 111//111 113//113
f 112//112 114//114 107//107
f 110//110 109//109 115//115
f 111//111 116//116 113//113
f 110//110 115//115 117//117
f 112//112 118//118 114//114
f 113//113 116//116 119//119
f 118//118 120//120 114//114
f 117//117 115//115 121//121
f 116//116 122//122 119//119
f 117//117 121//121 123//123
f 124//124 125//125 120//120
f 118//118 124//124 120//120
f 119//119 122//122 126//126
f 123//123 121//121 127//127
f 123//123 127//127 128//128
f 122//122 129//129 126//126
f 130//130 131//131 125//125
f 124//124 130//130 125//125
f 126//126 129//129 132//132
f 128//128 127//127 131//131
f 128//128 131//131 130//130
f 133//133 134//134 135//135
f 136//136 133//133 135//135
f 137//137 138//138 139//139
f 136//136 135//135 140//140
f 136//136 140//140 141//141
f 142//142 143//143 134//134
f 133//133 142//142 134//134
f 139//139 138//138 144//144
f 141//141 140//140 145//145
f 141//141 145//145 146//146
f 138//138 147//147 144//144
f 142//142 148//148 143//143
f 144//144 147//147 149//149
f 148//148 150//150 143//143
f 146//146 145//145 151//151
f 147//147 152//152 149//149
f 146//146 151//151 153//153
f 148//148 154//154 150//150
f 149//149 152//152 155//155
f 154//154 156//156 150//150
f 153//153 151//151 157//157
f 152//152 158//158 155//155
f 153//153 157//157 159//159
f 160//160 161//161 156//156
f 154//154 160//160 156//156
f 155//155 158//158 162//162
f 159//159 157//157 163//163
f 159//159 163//163 164//164
f 158//158 165//165 162//162
f 166//166 167//167 161//161
f 160//160 166//166 161//161
f 162//162 165//165 168//168
f 164//164 163//163 167//167
f 166//166 164//164 167//167
f 169//169 170//170 171//171
f 169//169 171//171 172//172
f 172//172 171//171 173//173
f 172//172 173//173 174//174
f 175//175 176//176 177//177
f 178//178 179//179 170//170
f 169//169 178//178 170//170
f 175//175 177//177 180//180
f 174//174 173//173 181//181
f 174//174 181//181 182//182
f 177//177 183//183 180//180
f 178//178 184//184 179//179
f 180//180 183//183 185//185
f 184//184 186//186 179//179
f 182//182 181//181 187//187
f 183//183 188//188 185//185
f 182//182 187//187 189//189
f 184//184 190//190 186//186
f 185//185 188//188 191//191
f 190//190 192//192 186//186
f 189//189 187//187 193//193
f 188//188 194//194 191//191
f 189//189 193//193 195//195
f 196//196 197//197 192//192
f 190//190 196//196 192//192
f 191//191 194//194 198//198
f 195//195 193//193 199//199
f 195//195 199//199 200//200
f 194//194 201//201 198//198
f 202//202 203//203 197//197
f 196//196 202//202 197//197
f 200//200 199//199 203//203
f 198//198 201//201 204//204
f 200//200 203//203 202//202
f 205//205 206//206 207//207
f 208//208 205//205 207//207
f 208//208 207//207 209//209
f 208//208 209//209 210//210
f 211//211 212//212 213//213
f 214//214 215//215 206//206
f 205//205 214//214 206//206
f 213//213 212//212 216//216
f 210//210 209//209 217//217
f 210//210 217//217 218//218
f 212//212 219//219 216//216
f 214//214 220//220 215//215
f 216//216 219//219 221//221
f 220//220 222//222 215//215
f 218//218 217//217 223//223
f 219//219 224//224 221//221
f 218//218 223//223 225//225
f 220//220 226//226 222//222
f 221//221 224//224 227//227
f 226//226 228//228 222//222
f 225//225 223//223 229//229
f 224//224 230//230 227//227
f 225//225 229//229 231//231
f 232//232 233//233 228//228
f 226//226 232//232 228//228
f 227//227 230//230 234//234
f 231//231 229//229 235//235
f 231//231 235//235 236//236
f 230//230 237//237 234//234
f 238//238 239//239 233//233
f 232//232 238//238 233//233
f 236//236 235//235 239//239
f 234//234 237//237 240//240
f 236//236 239//239 238//238
