v 0.12300 -0.10000 0.12500
v -0.12300 -0.10000 0.12500
v -0.12300 -0.10000 -0.12500
v -0.12300 0.10000 0.12500
v -0.12300 -0.10000 -0.12500
v -0.12300 -0.10000 0.12500
v 0.12300 -0.10000 0.12500
v 0.12300 0.10000 0.12500
v -0.12300 -0.10000 0.12500
v 0.12300 0.10000 0.12500
v 0.12300 -0.10000 0.12500
v 0.12300 -0.10000 -0.12500
v -0.12300 0.10000 0.12500
v 0.12300 0.10000 0.12500
v 0.12300 -0.06000 -0.12500
v -0.12300 0.10000 0.12500
v -0.12300 -0.06000 -0.12500
v -0.12300 -0.06000 -0.12500
v 0.12300 -0.10000 -0.12500
v -0.12300 -0.10000 -0.12500
v -0.12300 -0.06000 -0.12500
v 0.12300 -0.10000 -0.12500
v 0.12300 -0.06000 -0.12500
v 0.12300 -0.06000 -0.12500
vn 0.0000 -1.0000 0.0000
vn 0.0000 -1.0000 0.0000
vn 0.0000 -1.0000 0.0000
vn -1.0000 0.0000 0.0000
vn -1.0000 0.0000 0.0000
vn -1.0000 0.0000 0.0000
vn 0.0000 0.0000 1.0000
vn 0.0000 0.0000 1.0000
vn 0.0000 0.0000 1.0000
vn 1.0000 0.0000 0.0000
vn 1.0000 0.0000 0.0000
vn 1.0000 0.0000 0.0000
vn 0.0000 0.0000 1.0000
vn 0.0000 0.8423 -0.5391
vn 0.0000 0.8423 -0.5391
vn 0.0000 0.8423 -0.5391
vn -1.0000 0.0000 0.0000
vn 0.0000 0.8423 -0.5391
vn 0.0000 0.0000 -1.0000
vn 0.0000 0.0000 -1.0000
vn 0.0000 0.0000 -1.0000
vn 0.0000 -1.0000 0.0000
vn 1.0000 0.0000 0.0000
vn 0.0000 0.0000 -1.0000
f 1//1 2//2 3//3
f 4//4 5//5 6//6
f 7//7 8//8 9//9
f 10//10 11//11 12//12
f 8//8 13//13 9//9
f 14//14 15//15 16//16
f 17//17 5//5 4//4
f 15//15 18//18 16//16
f 19//19 20//20 21//21
f 22//22 1//1 3//3
f 23//23 10//10 12//12
f 24//24 19//19 21//21
