v -0.24800 -0.15000 -0.75000
v -0.25000 -0.04500 0.69261
v -0.25000 -0.04500 -0.75000
v -0.24520 -0.00696 0.61398
v -0.24520 -0.00696 -0.75000
v -0.24800 -0.15000 -0.75000
v 0.24800 -0.15000 -0.75000
v -0.24800 -0.15000 0.75000
v -0.24800 -0.15000 -0.75000
v -0.25000 -0.04500 -0.75000
v 0.23097 0.02962 -0.75000
v -0.24800 -0.15000 0.75000
v -0.24943 -0.07500 0.75000
v -0.24925 -0.03906 0.68125
v -0.24800 -0.15000 0.75000
v 0.24800 -0.15000 0.75000
v -0.24943 -0.07500 0.75000
v -0.23097 0.02962 0.52774
v -0.23097 0.02962 -0.75000
v -0.20787 0.06334 0.43588
v -0.20787 0.06334 -0.75000
v -0.17678 0.09289 0.34042
v -0.17678 0.09289 -0.75000
v -0.13889 0.11714 0.23844
v -0.13889 0.11714 -0.75000
v -0.19724 0.07344 0.40625
v -0.17543 0.09375 0.33750
v -0.14858 0.11094 0.26875
v -0.12003 0.12500 0.20000
v -0.24520 -0.00696 -0.75000
v 0.20787 0.06334 -0.75000
v -0.23097 0.02962 -0.75000
v 0.17678 0.09289 -0.75000
v -0.20787 0.06334 -0.75000
v 0.13889 0.11714 -0.75000
v -0.17678 0.09289 -0.75000
v 0.09567 0.13516 -0.75000
v -0.13889 0.11714 -0.75000
v 0.04877 0.14625 -0.75000
v -0.09567 0.13516 -0.75000
v 0.00000 0.15000 -0.75000
v -0.09567 0.13516 0.13616
v -0.09567 0.13516 -0.75000
v -0.04877 0.14625 0.02579
v -0.04877 0.14625 -0.75000
v -0.04877 0.14625 -0.75000
v 0.00000 0.15000 -0.07500
v 0.00000 0.15000 -0.75000
v -0.05935 0.14375 0.06250
v -0.09237 0.13594 0.13125
v -0.02034 0.14844 -0.00625
v -0.21701 0.05000 0.47500
v -0.23338 0.02344 0.54375
v -0.24492 -0.00625 0.61250
v 0.24520 -0.00696 -0.75000
v 0.24800 -0.15000 -0.75000
v 0.24800 -0.15000 -0.75000
v 0.25000 -0.04500 -0.75000
v 0.24800 -0.15000 0.75000
v 0.25000 -0.04500 -0.75000
v 0.24520 -0.00696 -0.75000
v 0.25000 -0.04500 0.69261
v 0.24800 -0.15000 0.75000
v 0.24943 -0.07500 0.75000
v 0.24943 -0.07500 0.75000
v 0.24520 -0.00696 0.61398
v 0.24492 -0.00625 0.61250
v 0.24925 -0.03906 0.68125
v 0.04877 0.14625 0.02579
v 0.04877 0.14625 -0.75000
v 0.09237 0.13594 0.13125
v 0.09567 0.13516 -0.75000
v 0.13889 0.11714 0.23844
v 0.13889 0.11714 -0.75000
v 0.02034 0.14844 -0.00625
v 0.05935 0.14375 0.06250
v 0.12003 0.12500 0.20000
v 0.09567 0.13516 0.13616
v 0.23097 0.02962 -0.75000
v 0.20787 0.06334 -0.75000
v 0.17678 0.09289 -0.75000
v 0.20787 0.06334 0.43588
v 0.23097 0.02962 0.52774
v 0.17543 0.09375 0.33750
v 0.14858 0.11094 0.26875
v 0.17678 0.09289 0.34042
v 0.19724 0.07344 0.40625
v 0.23338 0.02344 0.54375
v 0.21701 0.05000 0.47500
v -0.24943 -0.07500 0.75000
v 0.25000 -0.04500 0.69261
v -0.25000 -0.04500 0.69261
v 0.24925 -0.03906 0.68125
v -0.24925 -0.03906 0.68125
v -0.24520 -0.00696 0.61398
v 0.24520 -0.00696 0.61398
v -0.24492 -0.00625 0.61250
v -0.23097 0.02962 0.52774
v -0.23338 0.02344 0.54375
v 0.23097 0.02962 0.52774
v -0.21701 0.05000 0.47500
v 0.24492 -0.00625 0.61250
v 0.20787 0.06334 0.43588
v -0.20787 0.06334 0.43588
v -0.19724 0.07344 0.40625
v 0.19724 0.07344 0.40625
v 0.24943 -0.07500 0.75000
v 0.23338 0.02344 0.54375
v 0.21701 0.05000 0.47500
vn -0.9998 -0.0190 -0.0000
vn -1.0000 0.0032 -0.0000
vn -0.9986 0.0533 0.0000
vn -0.9869 0.1613 0.0000
vn -0.9693 0.2457 0.0000
vn 0.0000 -1.0000 0.0000
vn 0.0000 -1.0000 0.0000
vn 0.0000 -1.0000 0.0000
vn 0.0000 0.0000 -1.0000
vn 0.0000 0.0000 -1.0000
vn 0.0000 0.0000 -1.0000
vn -0.9998 -0.0190 0.0000
vn -0.9998 -0.0190 -0.0000
vn -0.9921 0.1253 0.0000
vn 0.0000 0.0000 1.0000
vn 0.0000 0.0000 1.0000
vn 0.0000 0.0000 1.0000
vn -0.9202 0.3916 0.0000
vn -0.8843 0.4670 0.0000
vn -0.8076 0.5897 0.0000
vn -0.7611 0.6486 0.0000
vn -0.3728 0.9161 0.1477
vn -0.6168 0.7871 0.0000
vn -0.2810 0.9545 0.1001
vn -0.4637 0.8860 -0.0000
vn -0.6889 0.7248 0.0000
vn -0.2778 0.9499 0.1435
vn -0.2767 0.9533 0.1208
vn -0.1913 0.9767 0.0971
vn 0.0000 0.0000 -1.0000
vn 0.0000 0.0000 -1.0000
vn 0.0000 0.0000 -1.0000
vn 0.0000 0.0000 -1.0000
vn 0.0000 0.0000 -1.0000
vn 0.0000 0.0000 -1.0000
vn 0.0000 0.0000 -1.0000
vn 0.0000 0.0000 -1.0000
vn 0.0000 0.0000 -1.0000
vn 0.0000 0.0000 -1.0000
vn 0.0000 0.0000 -1.0000
vn 0.0000 0.0000 -1.0000
vn -0.1950 0.9780 0.0746
vn -0.3086 0.9512 0.0000
vn -0.1143 0.9930 0.0294
vn -0.1539 0.9881 -0.0000
vn 0.0000 0.0000 -1.0000
vn -0.0000 1.0000 0.0021
vn -0.0000 1.0000 -0.0000
vn -0.1098 0.9927 0.0506
vn -0.1109 0.9910 0.0749
vn -0.0330 0.9990 0.0295
vn -0.8249 0.5653 0.0000
vn -0.9320 0.3625 0.0000
vn -0.9320 0.3625 0.0000
vn 0.0000 0.0000 -1.0000
vn 0.0000 0.0000 -1.0000
vn 0.9998 -0.0190 0.0000
vn 0.9986 0.0533 0.0000
vn 0.9998 -0.0190 -0.0000
vn 0.0000 0.0000 -1.0000
vn 0.9693 0.2457 -0.0000
vn 1.0000 0.0032 -0.0000
vn 0.0000 -1.0000 0.0000
vn 0.0000 0.0000 1.0000
vn 0.9998 -0.0190 -0.0000
vn 0.9869 0.1613 -0.0000
vn 0.9320 0.3625 0.0000
vn 0.9921 0.1253 -0.0000
vn 0.1143 0.9930 0.0294
vn 0.1539 0.9881 -0.0000
vn 0.1109 0.9910 0.0749
vn 0.3086 0.9512 -0.0000
vn 0.2810 0.9545 0.1001
vn 0.4637 0.8860 0.0000
vn 0.0330 0.9990 0.0295
vn 0.1098 0.9927 0.0506
vn 0.1913 0.9767 0.0971
vn 0.1950 0.9780 0.0746
vn 0.8843 0.4670 -0.0000
vn 0.7611 0.6486 -0.0000
vn 0.6168 0.7871 0.0000
vn 0.8076 0.5897 0.0000
vn 0.9202 0.3916 -0.0000
vn 0.2778 0.9499 0.1435
vn 0.2767 0.9533 0.1208
vn 0.3728 0.9161 0.1477
vn 0.6889 0.7248 0.0000
vn 0.9320 0.3625 0.0000
vn 0.8249 0.5653 -0.0000
vn -0.0000 0.8862 0.4633
vn -0.0000 0.8862 0.4633
vn 0.0000 0.8862 0.4633
vn -0.0000 0.8942 0.4476
vn 0.0000 0.8942 0.4476
vn -0.0000 0.9025 0.4307
vn -0.0000 0.9025 0.4307
vn -0.0000 0.9096 0.4154
vn -0.0000 0.9328 0.3604
vn -0.0000 0.9249 0.3802
vn -0.0000 0.9328 0.3604
vn -0.0000 0.9388 0.3443
vn -0.0000 0.9096 0.4154
vn -0.0000 0.9465 0.3227
vn 0.0000 0.9465 0.3227
vn -0.0000 0.9517 0.3069
vn 0.0000 0.9517 0.3069
vn 0.0000 0.8862 0.4633
vn 0.0000 0.9249 0.3802
vn 0.0000 0.9388 0.3443
f 1//1 2//2 3//3
f 3//3 4//4 5//5
f 6//6 7//7 8//8
f 9//9 10//10 11//11
f 1//1 12//12 13//13
f 1//1 13//13 2//2
f 3//3 2//2 14//14
f 3//3 14//14 4//4
f 15//15 16//16 17//17
f 5//5 18//18 19//19
f 19//19 20//20 21//21
f 21//21 22//22 23//23
f 23//23 24//24 25//25
f 21//21 26//26 22//22
f 23//23 22//22 27//27
f 23//23 27//27 28//28
f 23//23 28//28 24//24
f 25//25 24//24 29//29
f 10//10 30//30 31//31
f 30//30 32//32 33//33
f 32//32 34//34 35//35
f 34//34 36//36 37//37
f 36//36 38//38 39//39
f 38//38 40//40 41//41
f 25//25 42//42 43//43
f 43//43 44//44 45//45
f 40//40 46//46 41//41
f 36//36 39//39 37//37
f 38//38 41//41 39//39
f 45//45 47//47 48//48
f 43//43 49//49 44//44
f 25//25 29//29 42//42
f 43//43 42//42 50//50
f 43//43 50//50 49//49
f 45//45 44//44 51//51
f 45//45 51//51 47//47
f 5//5 4//4 18//18
f 19//19 18//18 52//52
f 19//19 52//52 20//20
f 21//21 20//20 26//26
f 4//4 53//53 18//18
f 4//4 54//54 53//53
f 9//9 55//55 56//56
f 9//9 11//11 55//55
f 57//57 58//58 59//59
f 56//56 55//55 60//60
f 58//58 61//61 62//62
f 8//8 7//7 63//63
f 16//16 64//64 17//17
f 58//58 62//62 59//59
f 59//59 62//62 65//65
f 61//61 66//66 62//62
f 61//61 67//67 66//66
f 66//66 68//68 62//62
f 30//30 33//33 31//31
f 10//10 31//31 11//11
f 32//32 35//35 33//33
f 34//34 37//37 35//35
f 48//48 69//69 70//70
f 70//70 71//71 72//72
f 72//72 73//73 74//74
f 48//48 47//47 75//75
f 48//48 75//75 69//69
f 70//70 69//69 76//76
f 70//70 76//76 71//71
f 72//72 77//77 73//73
f 72//72 71//71 78//78
f 72//72 78//78 77//77
f 61//61 79//79 67//67
f 80//80 81//81 82//82
f 79//79 80//80 83//83
f 81//81 74//74 84//84
f 74//74 85//85 84//84
f 81//81 84//84 86//86
f 81//81 86//86 87//87
f 74//74 73//73 85//85
f 79//79 88//88 67//67
f 79//79 83//83 88//88
f 80//80 89//89 83//83
f 80//80 82//82 89//89
f 81//81 87//87 82//82
f 90//90 91//91 92//92
f 92//92 93//93 94//94
f 95//95 94//94 93//93
f 95//95 96//96 97//97
f 98//98 99//99 100//100
f 98//98 100//100 101//101
f 99//99 97//97 102//102
f 103//103 104//104 101//101
f 104//104 103//103 105//105
f 22//22 86//86 27//27
f 28//28 27//27 84//84
f 42//42 29//29 77//77
f 44//44 49//49 76//76
f 51//51 44//44 69//69
f 42//42 78//78 50//50
f 71//71 49//49 50//50
f 24//24 28//28 73//73
f 24//24 73//73 29//29
f 22//22 105//105 106//106
f 90//90 107//107 91//91
f 92//92 91//91 93//93
f 96//96 95//95 93//93
f 96//96 102//102 97//97
f 47//47 51//51 75//75
f 100//100 99//99 108//108
f 102//102 108//108 99//99
f 103//103 101//101 109//109
f 100//100 109//109 101//101
f 103//103 106//106 105//105
f 86//86 84//84 27//27
f 28//28 84//84 85//85
f 51//51 69//69 75//75
f 69//69 44//44 76//76
f 49//49 71//71 76//76
f 78//78 71//71 50//50
f 42//42 77//77 78//78
f 73//73 28//28 85//85
f 73//73 77//77 29//29
f 22//22 106//106 86//86
