v -0.24800 -0.15000 -1.00000
v -0.24800 -0.09354 -0.90625
v -0.24800 -0.12000 -1.00000
v -0.24800 -0.15000 1.00000
v -0.24800 -0.06733 -0.81250
v -0.24800 0.15000 1.00000
v -0.24800 -0.04162 -0.71875
v -0.24800 -0.15000 -1.00000
v -0.24800 -0.12000 -1.00000
v 0.24800 -0.15000 -1.00000
v -0.24800 -0.12000 -1.00000
v -0.24800 -0.09354 -0.90625
v 0.24800 -0.12000 -1.00000
v -0.24800 -0.06733 -0.81250
v 0.24800 -0.09354 -0.90625
v -0.24800 -0.04162 -0.71875
v 0.24800 -0.06733 -0.81250
v -0.24800 -0.01668 -0.62500
v 0.24800 -0.04162 -0.71875
v -0.24800 0.00728 -0.53125
v 0.24800 -0.01668 -0.62500
v -0.24800 0.03000 -0.43750
v 0.24800 0.00728 -0.53125
v -0.24800 -0.15000 1.00000
v -0.24800 -0.15000 -1.00000
v 0.24800 -0.15000 1.00000
v -0.24800 0.15000 0.50000
v -0.24800 -0.01668 -0.62500
v -0.24800 0.14870 0.40625
v -0.24800 0.00728 -0.53125
v -0.24800 0.14481 0.31250
v -0.24800 0.03000 -0.43750
v -0.24800 0.13837 0.21875
v -0.24800 0.05129 -0.34375
v -0.24800 0.12945 0.12500
v -0.24800 0.07092 -0.25000
v -0.24800 0.11812 0.03125
v -0.24800 0.08871 -0.15625
v -0.24800 0.10450 -0.06250
v -0.24800 0.05129 -0.34375
v 0.24800 0.03000 -0.43750
v -0.24800 0.07092 -0.25000
v 0.24800 0.05129 -0.34375
v -0.24800 0.08871 -0.15625
v 0.24800 0.07092 -0.25000
v -0.24800 0.10450 -0.06250
v 0.24800 0.08871 -0.15625
v -0.24800 0.11812 0.03125
v 0.24800 0.10450 -0.06250
v -0.24800 0.15000 0.50000
v -0.20000 0.15000 0.62500
v -0.18995 0.15000 0.58750
v -0.16250 0.15000 0.56005
v -0.18995 0.15000 0.83750
v -0.20000 0.15000 0.87500
v -0.18995 0.15000 0.66250
v -0.24800 0.15000 1.00000
v -0.18995 0.15000 0.91250
v -0.16250 0.15000 0.93995
v -0.12500 0.15000 0.55000
v -0.16250 0.15000 0.81005
v -0.16250 0.15000 0.68995
v -0.12500 0.15000 0.80000
v -0.12500 0.15000 0.70000
v -0.12500 0.15000 0.95000
v -0.24800 -0.15000 1.00000
v 0.24800 0.15000 1.00000
v -0.24800 0.15000 1.00000
v -0.24800 0.12945 0.12500
v 0.24800 0.11812 0.03125
v -0.24800 0.13837 0.21875
v 0.24800 0.12945 0.12500
v -0.24800 0.14481 0.31250
v 0.24800 0.13837 0.21875
v -0.24800 0.14870 0.40625
v 0.24800 0.14481 0.31250
v 0.24800 0.14870 0.40625
v -0.08750 0.15000 0.81005
v -0.08750 0.15000 0.68995
v 0.12500 0.15000 0.55000
v 0.12500 0.15000 0.95000
v 0.05000 0.15000 0.62500
v -0.06005 0.15000 0.66250
v -0.08750 0.15000 0.56005
v -0.06005 0.15000 0.58750
v 0.08750 0.15000 0.56005
v -0.05000 0.15000 0.62500
v 0.06005 0.15000 0.58750
v 0.08750 0.15000 0.93995
v -0.08750 0.15000 0.93995
v 0.06005 0.15000 0.66250
v -0.06005 0.15000 0.83750
v -0.05000 0.15000 0.87500
v 0.08750 0.15000 0.68995
v 0.06005 0.15000 0.91250
v -0.06005 0.15000 0.91250
v 0.24800 -0.12000 -1.00000
v 0.24800 -0.15000 -1.00000
v 0.24800 -0.15000 -1.00000
v 0.24800 -0.12000 -1.00000
v 0.24800 -0.09354 -0.90625
v 0.24800 -0.15000 1.00000
v 0.24800 -0.06733 -0.81250
v 0.24800 0.15000 1.00000
v 0.24800 -0.04162 -0.71875
v 0.24800 -0.15000 1.00000
v 0.24800 0.15000 0.50000
v 0.24800 -0.01668 -0.62500
v 0.24800 0.14870 0.40625
v 0.24800 0.00728 -0.53125
v 0.24800 0.14481 0.31250
v 0.24800 0.03000 -0.43750
v 0.24800 0.13837 0.21875
v 0.24800 0.05129 -0.34375
v 0.24800 0.12945 0.12500
v 0.24800 0.07092 -0.25000
v 0.24800 0.11812 0.03125
v 0.24800 0.08871 -0.15625
v 0.24800 0.10450 -0.06250
v 0.24800 0.15000 0.50000
v 0.12500 0.15000 0.70000
v 0.05000 0.15000 0.87500
v 0.06005 0.15000 0.83750
v 0.16250 0.15000 0.68995
v 0.24800 0.15000 1.00000
v 0.08750 0.15000 0.81005
v 0.16250 0.15000 0.56005
v 0.18995 0.15000 0.83750
v 0.18995 0.15000 0.66250
v 0.12500 0.15000 0.80000
v 0.16250 0.15000 0.81005
v 0.16250 0.15000 0.93995
v 0.18995 0.15000 0.58750
v 0.20000 0.15000 0.62500
v 0.20000 0.15000 0.87500
v 0.18995 0.15000 0.91250
v -0.20000 0.19900 0.62500
v -0.18995 0.15000 0.58750
v -0.20000 0.15000 0.62500
v -0.18995 0.19900 0.66250
v -0.18995 0.15000 0.66250
v -0.18995 0.19900 0.58750
v -0.18995 0.19900 0.58750
v -0.20000 0.19900 0.62500
v -0.18995 0.19900 0.66250
v -0.16250 0.15000 0.56005
v -0.16250 0.19900 0.68995
v -0.16250 0.15000 0.68995
v -0.16250 0.19900 0.56005
v -0.16250 0.19900 0.56005
v -0.16250 0.19900 0.68995
v -0.12500 0.15000 0.55000
v -0.12500 0.19900 0.70000
v -0.12500 0.15000 0.70000
v -0.12500 0.19900 0.55000
v -0.12500 0.19900 0.55000
v -0.12500 0.19900 0.70000
v -0.08750 0.15000 0.56005
v -0.08750 0.19900 0.68995
v -0.08750 0.15000 0.68995
v -0.08750 0.19900 0.56005
v -0.08750 0.19900 0.56005
v -0.08750 0.19900 0.68995
v -0.06005 0.15000 0.58750
v -0.06005 0.19900 0.66250
v -0.06005 0.15000 0.66250
v -0.06005 0.19900 0.58750
v -0.06005 0.19900 0.58750
v -0.06005 0.19900 0.66250
v -0.05000 0.15000 0.62500
v -0.05000 0.19900 0.62500
v -0.05000 0.19900 0.62500
v -0.20000 0.19900 0.87500
v -0.18995 0.15000 0.83750
v -0.20000 0.15000 0.87500
v -0.18995 0.19900 0.91250
v -0.18995 0.15000 0.91250
v -0.18995 0.19900 0.83750
v -0.18995 0.19900 0.83750
v -0.20000 0.19900 0.87500
v -0.18995 0.19900 0.91250
v -0.16250 0.15000 0.81005
v -0.16250 0.19900 0.93995
v -0.16250 0.15000 0.93995
v -0.16250 0.19900 0.81005
v -0.16250 0.19900 0.81005
v -0.16250 0.19900 0.93995
v -0.12500 0.15000 0.80000
v -0.12500 0.19900 0.95000
v -0.12500 0.15000 0.95000
v -0.12500 0.19900 0.80000
v -0.12500 0.19900 0.80000
v -0.12500 0.19900 0.95000
v -0.08750 0.15000 0.81005
v -0.08750 0.19900 0.93995
v -0.08750 0.15000 0.93995
v -0.08750 0.19900 0.81005
v -0.08750 0.19900 0.81005
v -0.08750 0.19900 0.93995
v -0.06005 0.15000 0.83750
v -0.06005 0.19900 0.91250
v -0.06005 0.15000 0.91250
v -0.06005 0.19900 0.83750
v -0.06005 0.19900 0.83750
v -0.06005 0.19900 0.91250
v -0.05000 0.15000 0.87500
v -0.05000 0.19900 0.87500
v -0.05000 0.19900 0.87500
v 0.05000 0.19900 0.62500
v 0.06005 0.15000 0.58750
v 0.05000 0.15000 0.62500
v 0.06005 0.19900 0.66250
v 0.06005 0.15000 0.66250
v 0.06005 0.19900 0.58750
v 0.06005 0.19900 0.58750
v 0.05000 0.19900 0.62500
v 0.06005 0.19900 0.66250
v 0.08750 0.15000 0.56005
v 0.08750 0.19900 0.68995
v 0.08750 0.15000 0.68995
v 0.08750 0.19900 0.56005
v 0.08750 0.19900 0.56005
v 0.08750 0.19900 0.68995
v 0.12500 0.15000 0.55000
v 0.12500 0.19900 0.70000
v 0.12500 0.15000 0.70000
v 0.12500 0.19900 0.55000
v 0.12500 0.19900 0.55000
v 0.12500 0.19900 0.70000
v 0.16250 0.15000 0.56005
v 0.16250 0.19900 0.68995
v 0.16250 0.15000 0.68995
v 0.16250 0.19900 0.56005
v 0.16250 0.19900 0.56005
v 0.16250 0.19900 0.68995
v 0.18995 0.15000 0.58750
v 0.18995 0.19900 0.66250
v 0.18995 0.15000 0.66250
v 0.18995 0.19900 0.58750
v 0.18995 0.19900 0.58750
v 0.18995 0.19900 0.66250
v 0.20000 0.15000 0.62500
v 0.20000 0.19900 0.62500
v 0.20000 0.19900 0.62500
v 0.05000 0.19900 0.87500
v 0.06005 0.15000 0.83750
v 0.05000 0.15000 0.87500
v 0.06005 0.19900 0.91250
v 0.06005 0.15000 0.91250
v 0.06005 0.19900 0.83750
v 0.06005 0.19900 0.83750
v 0.05000 0.19900 0.87500
v 0.06005 0.19900 0.91250
v 0.08750 0.15000 0.81005
v 0.08750 0.19900 0.93995
v 0.08750 0.15000 0.93995
v 0.08750 0.19900 0.81005
v 0.08750 0.19900 0.81005
v 0.08750 0.19900 0.93995
v 0.12500 0.15000 0.80000
v 0.12500 0.19900 0.95000
v 0.12500 0.15000 0.95000
v 0.12500 0.19900 0.80000
v 0.12500 0.19900 0.80000
v 0.12500 0.19900 0.95000
v 0.16250 0.15000 0.81005
v 0.16250 0.19900 0.93995
v 0.16250 0.15000 0.93995
v 0.16250 0.19900 0.81005
v 0.16250 0.19900 0.81005
v 0.16250 0.19900 0.93995
v 0.18995 0.15000 0.83750
v 0.18995 0.19900 0.91250
v 0.18995 0.15000 0.91250
v 0.18995 0.19900 0.83750
v 0.18995 0.19900 0.83750
v 0.18995 0.19900 0.91250
v 0.20000 0.15000 0.87500
v 0.20000 0.19900 0.87500
v 0.20000 0.19900 0.87500
vn -1.0000 0.0000 0.0000
vn -1.0000 0.0000 0.0000
vn -1.0000 0.0000 0.0000
vn -1.0000 0.0000 0.0000
vn -1.0000 0.0000 0.0000
vn -1.0000 0.0000 0.0000
vn -1.0000 0.0000 0.0000
vn 0.0000 0.0000 -1.0000
vn 0.0000 0.0000 -1.0000
vn 0.0000 0.0000 -1.0000
vn 0.0000 0.9624 -0.2717
vn 0.0000 0.9627 -0.2705
vn 0.0000 0.9624 -0.2717
vn 0.0000 0.9637 -0.2668
vn 0.0000 0.9627 -0.2705
vn 0.0000 0.9654 -0.2608
vn 0.0000 0.9637 -0.2668
vn 0.0000 0.9676 -0.2524
vn 0.0000 0.9654 -0.2608
vn 0.0000 0.9704 -0.2416
vn 0.0000 0.9676 -0.2524
vn -0.0000 0.9735 -0.2285
vn -0.0000 0.9704 -0.2416
vn 0.0000 -1.0000 0.0000
vn 0.0000 -1.0000 0.0000
vn 0.0000 -1.0000 0.0000
vn -1.0000 0.0000 0.0000
vn -1.0000 0.0000 0.0000
vn -1.0000 0.0000 0.0000
vn -1.0000 0.0000 0.0000
vn -1.0000 0.0000 0.0000
vn -1.0000 0.0000 0.0000
vn -1.0000 0.0000 0.0000
vn -1.0000 0.0000 0.0000
vn -1.0000 0.0000 0.0000
vn -1.0000 0.0000 0.0000
vn -1.0000 0.0000 0.0000
vn -1.0000 0.0000 0.0000
vn -1.0000 0.0000 0.0000
vn -0.0000 0.9770 -0.2132
vn -0.0000 0.9735 -0.2285
vn 0.0000 0.9807 -0.1957
vn 0.0000 0.9770 -0.2132
vn 0.0000 0.9843 -0.1763
vn 0.0000 0.9807 -0.1957
vn 0.0000 0.9879 -0.1549
vn 0.0000 0.9843 -0.1763
vn 0.0000 0.9913 -0.1319
vn 0.0000 0.9879 -0.1549
vn 0.0000 1.0000 -0.0069
vn 0.0000 1.0000 0.0000
vn 0.0000 1.0000 0.0000
vn 0.0000 1.0000 0.0000
vn 0.0000 1.0000 0.0000
vn 0.0000 1.0000 0.0000
vn 0.0000 1.0000 0.0000
vn 0.0000 1.0000 0.0000
vn 0.0000 1.0000 0.0000
vn 0.0000 1.0000 0.0000
vn 0.0000 1.0000 0.0000
vn 0.0000 1.0000 0.0000
vn 0.0000 1.0000 0.0000
vn 0.0000 1.0000 0.0000
vn 0.0000 1.0000 0.0000
vn 0.0000 1.0000 0.0000
vn 0.0000 0.0000 1.0000
vn 0.0000 0.0000 1.0000
vn 0.0000 0.0000 1.0000
vn 0.0000 0.9942 -0.1074
vn 0.0000 0.9913 -0.1319
vn 0.0000 0.9967 -0.0817
vn 0.0000 0.9942 -0.1074
vn 0.0000 0.9985 -0.0550
vn 0.0000 0.9967 -0.0817
vn 0.0000 0.9996 -0.0277
vn 0.0000 0.9985 -0.0550
vn 0.0000 0.9996 -0.0277
vn 0.0000 1.0000 0.0000
vn 0.0000 1.0000 0.0000
vn 0.0000 1.0000 0.0000
vn 0.0000 1.0000 0.0000
vn 0.0000 1.0000 0.0000
vn 0.0000 1.0000 0.0000
vn 0.0000 1.0000 0.0000
vn 0.0000 1.0000 0.0000
vn 0.0000 1.0000 0.0000
vn 0.0000 1.0000 0.0000
vn 0.0000 1.0000 0.0000
vn 0.0000 1.0000 0.0000
vn 0.0000 1.0000 0.0000
vn 0.0000 1.0000 0.0000
vn 0.0000 1.0000 0.0000
vn 0.0000 1.0000 0.0000
vn 0.0000 1.0000 0.0000
vn 0.0000 1.0000 0.0000
vn 0.0000 1.0000 0.0000
vn 0.0000 0.0000 -1.0000
vn 0.0000 -1.0000 0.0000
vn 1.0000 0.0000 0.0000
vn 1.0000 0.0000 0.0000
vn 1.0000 0.0000 0.0000
vn 1.0000 0.0000 0.0000
vn 1.0000 0.0000 0.0000
vn 1.0000 0.0000 0.0000
vn 1.0000 0.0000 0.0000
vn 0.0000 0.0000 1.0000
vn 1.0000 0.0000 0.0000
vn 1.0000 0.0000 0.0000
vn 1.0000 0.0000 0.0000
vn 1.0000 0.0000 0.0000
vn 1.0000 0.0000 0.0000
vn 1.0000 0.0000 0.0000
vn 1.0000 0.0000 0.0000
vn 1.0000 0.0000 0.0000
vn 1.0000 0.0000 0.0000
vn 1.0000 0.0000 0.0000
vn 1.0000 0.0000 0.0000
vn 1.0000 0.0000 0.0000
vn 1.0000 0.0000 0.0000
vn 0.0000 1.0000 -0.0069
vn 0.0000 1.0000 0.0000
vn 0.0000 1.0000 0.0000
vn 0.0000 1.0000 0.0000
vn 0.0000 1.0000 0.0000
vn 0.0000 1.0000 0.0000
vn 0.0000 1.0000 0.0000
vn 0.0000 1.0000 0.0000
vn 0.0000 1.0000 0.0000
vn 0.0000 1.0000 0.0000
vn 0.0000 1.0000 0.0000
vn 0.0000 1.0000 0.0000
vn 0.0000 1.0000 0.0000
vn 0.0000 1.0000 0.0000
vn 0.0000 1.0000 0.0000
vn 0.0000 1.0000 0.0000
vn 0.0000 1.0000 0.0000
vn -1.0000 -0.0000 -0.0000
vn -0.8660 -0.0000 -0.5000
vn -1.0000 0.0000 0.0000
vn -0.8660 0.0000 0.5000
vn -0.8660 0.0000 0.5000
vn -0.8660 0.0000 -0.5000
vn 0.0000 1.0000 0.0000
vn 0.0000 1.0000 0.0000
vn 0.0000 1.0000 0.0000
vn -0.5000 0.0000 -0.8660
vn -0.5000 0.0000 0.8660
vn -0.5000 0.0000 0.8660
vn -0.5000 0.0000 -0.8660
vn 0.0000 1.0000 0.0000
vn 0.0000 1.0000 0.0000
vn 0.0000 0.0000 -1.0000
vn 0.0000 0.0000 1.0000
vn -0.0000 0.0000 1.0000
vn 0.0000 1.0000 0.0000
vn -0.0000 0.0000 -1.0000
vn 0.0000 1.0000 0.0000
vn 0.5000 0.0000 -0.8660
vn 0.5000 0.0000 0.8660
vn 0.5000 0.0000 0.8660
vn 0.0000 1.0000 0.0000
vn 0.5000 0.0000 -0.8660
vn 0.0000 1.0000 0.0000
vn 0.8660 0.0000 -0.5000
vn 0.8660 0.0000 0.5000
vn 0.8660 -0.0000 0.5000
vn 0.0000 1.0000 0.0000
vn 0.8660 0.0000 -0.5000
vn 0.0000 1.0000 0.0000
vn 1.0000 0.0000 -0.0000
vn 1.0000 -0.0000 0.0000
vn 0.0000 1.0000 0.0000
vn -1.0000 -0.0000 -0.0000
vn -0.8660 -0.0000 -0.5000
vn -1.0000 0.0000 0.0000
vn -0.8660 0.0000 0.5000
vn -0.8660 0.0000 0.5000
vn -0.8660 0.0000 -0.5000
vn 0.0000 1.0000 0.0000
vn 0.0000 1.0000 0.0000
vn 0.0000 1.0000 0.0000
vn -0.5000 0.0000 -0.8660
vn -0.5000 0.0000 0.8660
vn -0.5000 0.0000 0.8660
vn -0.5000 0.0000 -0.8660
vn 0.0000 1.0000 0.0000
vn 0.0000 1.0000 0.0000
vn 0.0000 0.0000 -1.0000
vn 0.0000 0.0000 1.0000
vn -0.0000 0.0000 1.0000
vn 0.0000 1.0000 0.0000
vn -0.0000 0.0000 -1.0000
vn 0.0000 1.0000 0.0000
vn 0.5000 0.0000 -0.8660
vn 0.5000 0.0000 0.8660
vn 0.5000 0.0000 0.8660
vn 0.0000 1.0000 0.0000
vn 0.5000 0.0000 -0.8660
vn 0.0000 1.0000 0.0000
vn 0.8660 0.0000 -0.5000
vn 0.8660 0.0000 0.5000
vn 0.8660 -0.0000 0.5000
vn 0.0000 1.0000 0.0000
vn 0.8660 0.0000 -0.5000
vn 0.0000 1.0000 0.0000
vn 1.0000 0.0000 -0.0000
vn 1.0000 -0.0000 0.0000
vn 0.0000 1.0000 0.0000
vn -1.0000 0.0000 -0.0000
vn -0.8660 0.0000 -0.5000
vn -1.0000 0.0000 0.0000
vn -0.8660 0.0000 0.5000
vn -0.8660 0.0000 0.5000
vn -0.8660 0.0000 -0.5000
vn 0.0000 1.0000 0.0000
vn 0.0000 1.0000 0.0000
vn 0.0000 1.0000 0.0000
vn -0.5000 0.0000 -0.8660
vn -0.5000 0.0000 0.8660
vn -0.5000 0.0000 0.8660
vn 0.0000 1.0000 0.0000
vn -0.5000 0.0000 -0.8660
vn 0.0000 1.0000 0.0000
vn 0.0000 0.0000 -1.0000
vn 0.0000 0.0000 1.0000
vn -0.0000 0.0000 1.0000
vn 0.0000 1.0000 0.0000
vn -0.0000 0.0000 -1.0000
vn 0.0000 1.0000 0.0000
vn 0.5000 0.0000 -0.8660
vn 0.5000 0.0000 0.8660
vn 0.5000 0.0000 0.8660
vn 0.0000 1.0000 0.0000
vn 0.5000 0.0000 -0.8660
vn 0.0000 1.0000 0.0000
vn 0.8660 0.0000 -0.5000
vn 0.8660 0.0000 0.5000
vn 0.8660 0.0000 0.5000
vn 0.8660 0.0000 -0.5000
vn 0.0000 1.0000 0.0000
vn 0.0000 1.0000 0.0000
vn 1.0000 0.0000 -0.0000
vn 1.0000 0.0000 0.0000
vn 0.0000 1.0000 0.0000
vn -1.0000 0.0000 -0.0000
vn -0.8660 0.0000 -0.5000
vn -1.0000 0.0000 0.0000
vn -0.8660 0.0000 0.5000
vn -0.8660 0.0000 0.5000
vn -0.8660 0.0000 -0.5000
vn 0.0000 1.0000 0.0000
vn 0.0000 1.0000 0.0000
vn 0.0000 1.0000 0.0000
vn -0.5000 0.0000 -0.8660
vn -0.5000 0.0000 0.8660
vn -0.5000 0.0000 0.8660
vn 0.0000 1.0000 0.0000
vn -0.5000 0.0000 -0.8660
vn 0.0000 1.0000 0.0000
vn 0.0000 0.0000 -1.0000
vn 0.0000 0.0000 1.0000
vn -0.0000 0.0000 1.0000
vn 0.0000 1.0000 0.0000
vn -0.0000 0.0000 -1.0000
vn 0.0000 1.0000 0.0000
vn 0.5000 0.0000 -0.8660
vn 0.5000 0.0000 0.8660
vn 0.5000 0.0000 0.8660
vn 0.0000 1.0000 0.0000
vn 0.5000 0.0000 -0.8660
vn 0.0000 1.0000 0.0000
vn 0.8660 0.0000 -0.5000
vn 0.8660 0.0000 0.5000
vn 0.8660 0.0000 0.5000
vn 0.8660 0.0000 -0.5000
vn 0.0000 1.0000 0.0000
vn 0.0000 1.0000 0.0000
vn 1.0000 0.0000 -0.0000
vn 1.0000 0.0000 0.0000
vn 0.0000 1.0000 0.0000
f 1//1 2//2 3//3
f 4//4 2//2 1//1
f 4//4 5//5 2//2
f 6//6 7//7 5//5
f 8//8 9//9 10//10
f 11//11 12//12 13//13
f 12//12 14//14 15//15
f 16//16 17//17 14//14
f 16//16 18//18 19//19
f 18//18 20//20 21//21
f 22//22 23//23 20//20
f 4//4 6//6 5//5
f 24//24 25//25 26//26
f 27//27 28//28 7//7
f 29//29 30//30 28//28
f 31//31 32//32 30//30
f 33//33 34//34 32//32
f 35//35 36//36 34//34
f 37//37 38//38 36//36
f 37//37 39//39 38//38
f 35//35 37//37 36//36
f 22//22 40//40 41//41
f 40//40 42//42 43//43
f 42//42 44//44 45//45
f 46//46 47//47 44//44
f 48//48 49//49 46//46
f 27//27 29//29 28//28
f 29//29 31//31 30//30
f 31//31 33//33 32//32
f 33//33 35//35 34//34
f 6//6 27//27 7//7
f 50//50 51//51 52//52
f 50//50 52//52 53//53
f 50//50 54//54 51//51
f 50//50 55//55 54//54
f 51//51 54//54 56//56
f 57//57 55//55 50//50
f 57//57 58//58 55//55
f 57//57 59//59 58//58
f 50//50 53//53 60//60
f 56//56 61//61 62//62
f 62//62 63//63 64//64
f 61//61 56//56 54//54
f 57//57 65//65 59//59
f 63//63 62//62 61//61
f 66//66 67//67 68//68
f 69//69 70//70 48//48
f 71//71 72//72 69//69
f 73//73 74//74 71//71
f 75//75 76//76 73//73
f 50//50 77//77 75//75
f 64//64 78//78 79//79
f 50//50 60//60 80//80
f 78//78 64//64 63//63
f 57//57 81//81 65//65
f 79//79 82//82 83//83
f 79//79 78//78 82//82
f 84//84 80//80 60//60
f 85//85 86//86 84//84
f 87//87 88//88 85//85
f 83//83 82//82 87//87
f 65//65 89//89 90//90
f 91//91 78//78 92//92
f 93//93 94//94 92//92
f 90//90 95//95 96//96
f 9//9 97//97 10//10
f 12//12 15//15 13//13
f 14//14 17//17 15//15
f 26//26 25//25 98//98
f 16//16 19//19 17//17
f 18//18 21//21 19//19
f 21//21 20//20 23//23
f 22//22 41//41 23//23
f 99//99 100//100 101//101
f 102//102 99//99 101//101
f 102//102 101//101 103//103
f 104//104 103//103 105//105
f 66//66 106//106 67//67
f 102//102 103//103 104//104
f 40//40 43//43 41//41
f 42//42 45//45 43//43
f 44//44 47//47 45//45
f 46//46 49//49 47//47
f 107//107 105//105 108//108
f 109//109 108//108 110//110
f 111//111 110//110 112//112
f 113//113 112//112 114//114
f 115//115 114//114 116//116
f 117//117 116//116 118//118
f 117//117 118//118 119//119
f 115//115 116//116 117//117
f 48//48 70//70 49//49
f 69//69 72//72 70//70
f 71//71 74//74 72//72
f 73//73 76//76 74//74
f 75//75 77//77 76//76
f 50//50 120//120 77//77
f 87//87 82//82 88//88
f 85//85 88//88 86//86
f 78//78 91//91 82//82
f 92//92 94//94 91//91
f 50//50 80//80 120//120
f 84//84 86//86 80//80
f 96//96 121//121 93//93
f 96//96 122//122 123//123
f 96//96 95//95 122//122
f 90//90 89//89 95//95
f 65//65 81//81 89//89
f 93//93 121//121 94//94
f 96//96 123//123 124//124
f 57//57 125//125 81//81
f 96//96 124//124 121//121
f 126//126 124//124 123//123
f 107//107 108//108 109//109
f 109//109 110//110 111//111
f 111//111 112//112 113//113
f 113//113 114//114 115//115
f 104//104 105//105 107//107
f 120//120 80//80 127//127
f 124//124 128//128 129//129
f 130//130 124//124 126//126
f 131//131 124//124 130//130
f 124//124 131//131 128//128
f 125//125 132//132 81//81
f 120//120 127//127 133//133
f 120//120 133//133 134//134
f 129//129 135//135 134//134
f 125//125 120//120 134//134
f 135//135 129//129 128//128
f 125//125 134//134 135//135
f 125//125 136//136 132//132
f 125//125 135//135 136//136
f 137//137 138//138 139//139
f 140//140 139//139 141//141
f 142//142 138//138 137//137
f 137//137 139//139 140//140
f 143//143 144//144 145//145
f 142//142 146//146 138//138
f 147//147 141//141 148//148
f 142//142 149//149 146//146
f 143//143 145//145 150//150
f 140//140 141//141 147//147
f 150//150 145//145 151//151
f 149//149 152//152 146//146
f 153//153 148//148 154//154
f 150//150 151//151 155//155
f 149//149 156//156 152//152
f 147//147 148//148 153//153
f 155//155 151//151 157//157
f 156//156 158//158 152//152
f 159//159 154//154 160//160
f 155//155 157//157 161//161
f 156//156 162//162 158//158
f 153//153 154//154 159//159
f 157//157 163//163 161//161
f 162//162 164//164 158//158
f 165//165 160//160 166//166
f 161//161 163//163 167//167
f 162//162 168//168 164//164
f 159//159 160//160 165//165
f 167//167 163//163 169//169
f 168//168 170//170 164//164
f 171//171 166//166 170//170
f 168//168 171//171 170//170
f 171//171 165//165 166//166
f 167//167 169//169 172//172
f 173//173 174//174 175//175
f 176//176 175//175 177//177
f 178//178 174//174 173//173
f 173//173 175//175 176//176
f 179//179 180//180 181//181
f 178//178 182//182 174//174
f 183//183 177//177 184//184
f 178//178 185//185 182//182
f 179//179 181//181 186//186
f 176//176 177//177 183//183
f 186//186 181//181 187//187
f 185//185 188//188 182//182
f 189//189 184//184 190//190
f 186//186 187//187 191//191
f 185//185 192//192 188//188
f 183//183 184//184 189//189
f 191//191 187//187 193//193
f 192//192 194//194 188//188
f 195//195 190//190 196//196
f 191//191 193//193 197//197
f 192//192 198//198 194//194
f 189//189 190//190 195//195
f 193//193 199//199 197//197
f 198//198 200//200 194//194
f 201//201 196//196 202//202
f 197//197 199//199 203//203
f 198//198 204//204 200//200
f 195//195 196//196 201//201
f 203//203 199//199 205//205
f 204//204 206//206 200//200
f 207//207 202//202 206//206
f 204//204 207//207 206//206
f 201//201 202//202 207//207
f 203//203 205//205 208//208
f 209//209 210//210 211//211
f 212//212 211//211 213//213
f 214//214 210//210 209//209
f 209//209 211//211 212//212
f 215//215 216//216 217//217
f 214//214 218//218 210//210
f 219//219 213//213 220//220
f 215//215 217//217 221//221
f 214//214 222//222 218//218
f 212//212 213//213 219//219
f 221//221 217//217 223//223
f 222//222 224//224 218//218
f 225//225 220//220 226//226
f 221//221 223//223 227//227
f 222//222 228//228 224//224
f 219//219 220//220 225//225
f 223//223 229//229 227//227
f 228//228 230//230 224//224
f 231//231 226//226 232//232
f 227//227 229//229 233//233
f 228//228 234//234 230//230
f 225//225 226//226 231//231
f 233//233 229//229 235//235
f 234//234 236//236 230//230
f 237//237 232//232 238//238
f 234//234 239//239 236//236
f 233//233 235//235 240//240
f 231//231 232//232 237//237
f 240//240 235//235 241//241
f 239//239 242//242 236//236
f 243//243 238//238 242//242
f 239//239 243//243 242//242
f 243//243 237//237 238//238
f 240//240 241//241 244//244
f 245//245 246//246 247//247
f 248//248 247//247 249//249
f 250//250 246//246 245//245
f 245//245 247//247 248//248
f 251//251 252//252 253//253
f 250//250 254//254 246//246
f 255//255 249//249 256//256
f 251//251 253//253 257//257
f 250//250 258//258 254//254
f 248//248 249//249 255//255
f 257//257 253//253 259//259
f 258//258 260//260 254//254
f 261//261 256//256 262//262
f 257//257 259//259 263//263
f 258//258 264//264 260//260
f 255//255 256//256 261//261
f 259//259 265//265 263//263
f 264//264 266//266 260//260
f 267//267 262//262 268//268
f 263//263 265//265 269//269
f 264//264 270//270 266//266
f 261//261 262//262 267//267
f 269//269 265//265 271//271
f 270//270 272//272 266//266
f 273//273 268//268 274//274
f 270//270 275//275 272//272
f 269//269 271//271 276//276
f 267//267 268//268 273//273
f 276//276 271//271 277//277
f 275//275 278//278 272//272
f 279//279 274//274 278//278
f 275//275 279//279 278//278
f 279//279 273//273 274//274
f 276//276 277//277 280//280
