v -0.24800 -0.15000 -0.75000
v -0.24800 -0.09354 -0.67188
v -0.24800 -0.12000 -0.75000
v -0.24800 -0.15000 0.75000
v -0.24800 -0.06733 -0.59375
v -0.24800 0.15000 0.75000
v -0.24800 -0.04162 -0.51562
v -0.24800 -0.15000 -0.75000
v -0.24800 -0.12000 -0.75000
v 0.24800 -0.15000 -0.75000
v -0.24800 -0.12000 -0.75000
v -0.24800 -0.09354 -0.67188
v 0.24800 -0.12000 -0.75000
v -0.24800 -0.06733 -0.59375
v 0.24800 -0.09354 -0.67188
v -0.24800 -0.04162 -0.51562
v 0.24800 -0.06733 -0.59375
v -0.24800 -0.01668 -0.43750
v 0.24800 -0.04162 -0.51562
v -0.24800 0.00728 -0.35938
v 0.24800 -0.01668 -0.43750
v -0.24800 0.03000 -0.28125
v 0.24800 0.00728 -0.35938
v -0.24800 -0.15000 0.75000
v -0.24800 -0.15000 -0.75000
v 0.24800 -0.15000 0.75000
v -0.24800 0.15000 0.50000
v -0.24800 -0.01668 -0.43750
v -0.24800 0.14870 0.42188
v -0.24800 0.00728 -0.35938
v -0.24800 0.14481 0.34375
v -0.24800 0.03000 -0.28125
v -0.24800 0.13837 0.26562
v -0.24800 0.05129 -0.20312
v -0.24800 0.12945 0.18750
v -0.24800 0.07092 -0.12500
v -0.24800 0.11812 0.10938
v -0.24800 0.08871 -0.04688
v -0.24800 0.05129 -0.20312
v 0.24800 0.03000 -0.28125
v -0.24800 0.07092 -0.12500
v 0.24800 0.05129 -0.20312
v -0.24800 0.08871 -0.04688
v 0.24800 0.07092 -0.12500
v -0.24800 0.10450 0.03125
v 0.24800 0.08871 -0.04688
v -0.24800 0.10450 0.03125
v -0.24800 0.15000 0.50000
v -0.18995 0.15000 0.58750
v -0.16250 0.15000 0.56005
v -0.24800 0.15000 0.75000
v -0.20000 0.15000 0.62500
v -0.18995 0.15000 0.66250
v -0.16250 0.15000 0.68995
v -0.12500 0.15000 0.55000
v -0.12500 0.15000 0.70000
v -0.24800 0.11812 0.10938
v 0.24800 0.10450 0.03125
v -0.24800 -0.15000 0.75000
v 0.24800 0.15000 0.75000
v -0.24800 0.15000 0.75000
v -0.24800 0.12945 0.18750
v 0.24800 0.11812 0.10938
v -0.24800 0.13837 0.26562
v 0.24800 0.12945 0.18750
v -0.24800 0.14481 0.34375
v 0.24800 0.13837 0.26562
v -0.24800 0.14870 0.42188
v 0.24800 0.14481 0.34375
v 0.24800 0.14870 0.42188
v 0.12500 0.15000 0.70000
v 0.24800 0.15000 0.50000
v -0.08750 0.15000 0.56005
v 0.12500 0.15000 0.55000
v 0.08750 0.15000 0.68995
v -0.08750 0.15000 0.68995
v -0.06005 0.15000 0.58750
v 0.08750 0.15000 0.56005
v -0.05000 0.15000 0.62500
v 0.06005 0.15000 0.58750
v -0.06005 0.15000 0.66250
v 0.06005 0.15000 0.66250
v 0.24800 -0.12000 -0.75000
v 0.24800 -0.15000 -0.75000
v 0.24800 -0.15000 -0.75000
v 0.24800 -0.12000 -0.75000
v 0.24800 -0.09354 -0.67188
v 0.24800 -0.15000 0.75000
v 0.24800 -0.06733 -0.59375
v 0.24800 0.15000 0.75000
v 0.24800 -0.04162 -0.51562
v 0.24800 -0.15000 0.75000
v 0.24800 0.15000 0.50000
v 0.24800 -0.01668 -0.43750
v 0.24800 0.14870 0.42188
v 0.24800 0.00728 -0.35938
v 0.24800 0.14481 0.34375
v 0.24800 0.03000 -0.28125
v 0.24800 0.13837 0.26562
v 0.24800 0.05129 -0.20312
v 0.24800 0.12945 0.18750
v 0.24800 0.07092 -0.12500
v 0.24800 0.11812 0.10938
v 0.24800 0.08871 -0.04688
v 0.05000 0.15000 0.62500
v 0.24800 0.15000 0.75000
v 0.24800 0.10450 0.03125
v 0.16250 0.15000 0.56005
v 0.16250 0.15000 0.68995
v 0.18995 0.15000 0.58750
v 0.20000 0.15000 0.62500
v 0.18995 0.15000 0.66250
v -0.20000 0.19900 0.62500
v -0.18995 0.15000 0.58750
v -0.20000 0.15000 0.62500
v -0.18995 0.19900 0.66250
v -0.18995 0.15000 0.66250
v -0.18995 0.19900 0.58750
v -0.18995 0.19900 0.58750
v -0.20000 0.19900 0.62500
v -0.18995 0.19900 0.66250
v -0.16250 0.19900 0.56005
v -0.12500 0.15000 0.55000
v -0.16250 0.15000 0.56005
v -0.12500 0.19900 0.55000
v -0.16250 0.19900 0.68995
v -0.16250 0.15000 0.68995
v -0.16250 0.19900 0.56005
v -0.16250 0.19900 0.68995
v -0.12500 0.19900 0.70000
v -0.12500 0.15000 0.70000
v -0.12500 0.19900 0.55000
v -0.12500 0.19900 0.70000
v -0.08750 0.15000 0.56005
v -0.08750 0.19900 0.56005
v -0.08750 0.19900 0.68995
v -0.08750 0.15000 0.68995
v -0.08750 0.19900 0.56005
v -0.08750 0.19900 0.68995
v -0.06005 0.15000 0.58750
v -0.06005 0.19900 0.66250
v -0.06005 0.15000 0.66250
v -0.06005 0.19900 0.58750
v -0.06005 0.19900 0.58750
v -0.06005 0.19900 0.66250
v -0.05000 0.15000 0.62500
v -0.05000 0.19900 0.62500
v -0.05000 0.19900 0.62500
v 0.05000 0.19900 0.62500
v 0.06005 0.15000 0.58750
v 0.05000 0.15000 0.62500
v 0.06005 0.19900 0.66250
v 0.06005 0.15000 0.66250
v 0.06005 0.19900 0.58750
v 0.06005 0.19900 0.58750
v 0.05000 0.19900 0.62500
v 0.06005 0.19900 0.66250
v 0.08750 0.19900 0.56005
v 0.12500 0.15000 0.55000
v 0.08750 0.15000 0.56005
v 0.12500 0.19900 0.55000
v 0.08750 0.19900 0.68995
v 0.08750 0.15000 0.68995
v 0.08750 0.19900 0.56005
v 0.08750 0.19900 0.68995
v 0.12500 0.19900 0.70000
v 0.12500 0.15000 0.70000
v 0.12500 0.19900 0.55000
v 0.12500 0.19900 0.70000
v 0.16250 0.15000 0.56005
v 0.16250 0.19900 0.56005
v 0.16250 0.19900 0.68995
v 0.16250 0.15000 0.68995
v 0.16250 0.19900 0.56005
v 0.16250 0.19900 0.68995
v 0.18995 0.15000 0.58750
v 0.18995 0.19900 0.66250
v 0.18995 0.15000 0.66250
v 0.18995 0.19900 0.58750
v 0.18995 0.19900 0.58750
v 0.18995 0.19900 0.66250
v 0.20000 0.15000 0.62500
v 0.20000 0.19900 0.62500
v 0.20000 0.19900 0.62500
vn -1.0000 0.0000 0.0000
vn -1.0000 0.0000 0.0000
vn -1.0000 0.0000 0.0000
vn -1.0000 0.0000 0.0000
vn -1.0000 0.0000 0.0000
vn -1.0000 0.0000 0.0000
vn -1.0000 0.0000 0.0000
vn 0.0000 0.0000 -1.0000
vn 0.0000 0.0000 -1.0000
vn 0.0000 0.0000 -1.0000
vn 0.0000 0.9471 -0.3208
vn 0.0000 0.9476 -0.3195
vn 0.0000 0.9471 -0.3208
vn 0.0000 0.9490 -0.3153
vn 0.0000 0.9476 -0.3195
vn 0.0000 0.9513 -0.3084
vn 0.0000 0.9490 -0.3153
vn 0.0000 0.9544 -0.2987
vn 0.0000 0.9513 -0.3084
vn 0.0000 0.9582 -0.2862
vn 0.0000 0.9544 -0.2987
vn 0.0000 0.9626 -0.2711
vn 0.0000 0.9582 -0.2862
vn 0.0000 -1.0000 0.0000
vn 0.0000 -1.0000 0.0000
vn 0.0000 -1.0000 0.0000
vn -1.0000 0.0000 0.0000
vn -1.0000 0.0000 0.0000
vn -1.0000 0.0000 0.0000
vn -1.0000 0.0000 0.0000
vn -1.0000 0.0000 0.0000
vn -1.0000 0.0000 0.0000
vn -1.0000 0.0000 0.0000
vn -1.0000 0.0000 0.0000
vn -1.0000 0.0000 0.0000
vn -1.0000 0.0000 0.0000
vn -1.0000 0.0000 0.0000
vn -1.0000 0.0000 0.0000
vn 0.0000 0.9674 -0.2533
vn 0.0000 0.9626 -0.2711
vn 0.0000 0.9725 -0.2329
vn 0.0000 0.9674 -0.2533
vn 0.0000 0.9777 -0.2101
vn 0.0000 0.9725 -0.2329
vn 0.0000 0.9828 -0.1849
vn 0.0000 0.9777 -0.2101
vn -1.0000 0.0000 0.0000
vn 0.0000 1.0000 -0.0083
vn 0.0000 1.0000 0.0000
vn 0.0000 1.0000 0.0000
vn 0.0000 1.0000 0.0000
vn 0.0000 1.0000 0.0000
vn 0.0000 1.0000 0.0000
vn 0.0000 1.0000 0.0000
vn 0.0000 1.0000 0.0000
vn 0.0000 1.0000 0.0000
vn 0.0000 0.9875 -0.1577
vn 0.0000 0.9828 -0.1849
vn 0.0000 0.0000 1.0000
vn 0.0000 0.0000 1.0000
vn 0.0000 0.0000 1.0000
vn 0.0000 0.9917 -0.1285
vn 0.0000 0.9875 -0.1577
vn 0.0000 0.9952 -0.0978
vn 0.0000 0.9917 -0.1285
vn 0.0000 0.9978 -0.0659
vn 0.0000 0.9952 -0.0978
vn -0.0000 0.9994 -0.0332
vn -0.0000 0.9978 -0.0659
vn 0.0000 0.9994 -0.0332
vn 0.0000 1.0000 0.0000
vn 0.0000 1.0000 -0.0083
vn 0.0000 1.0000 0.0000
vn 0.0000 1.0000 0.0000
vn 0.0000 1.0000 0.0000
vn 0.0000 1.0000 0.0000
vn 0.0000 1.0000 0.0000
vn 0.0000 1.0000 0.0000
vn 0.0000 1.0000 0.0000
vn 0.0000 1.0000 0.0000
vn 0.0000 1.0000 0.0000
vn 0.0000 1.0000 0.0000
vn 0.0000 0.0000 -1.0000
vn 0.0000 -1.0000 0.0000
vn 1.0000 0.0000 0.0000
vn 1.0000 0.0000 0.0000
vn 1.0000 0.0000 0.0000
vn 1.0000 0.0000 0.0000
vn 1.0000 0.0000 0.0000
vn 1.0000 0.0000 0.0000
vn 1.0000 0.0000 0.0000
vn 0.0000 0.0000 1.0000
vn 1.0000 0.0000 0.0000
vn 1.0000 0.0000 0.0000
vn 1.0000 0.0000 0.0000
vn 1.0000 0.0000 0.0000
vn 1.0000 0.0000 0.0000
vn 1.0000 0.0000 0.0000
vn 1.0000 0.0000 0.0000
vn 1.0000 0.0000 0.0000
vn 1.0000 0.0000 0.0000
vn 1.0000 0.0000 0.0000
vn 1.0000 0.0000 0.0000
vn 1.0000 0.0000 0.0000
vn 0.0000 1.0000 0.0000
vn 0.0000 1.0000 0.0000
vn 1.0000 0.0000 0.0000
vn 0.0000 1.0000 0.0000
vn 0.0000 1.0000 0.0000
vn 0.0000 1.0000 0.0000
vn 0.0000 1.0000 0.0000
vn 0.0000 1.0000 0.0000
vn -1.0000 -0.0000 -0.0000
vn -0.8660 -0.0000 -0.5000
vn -1.0000 0.0000 0.0000
vn -0.8660 0.0000 0.5000
vn -0.8660 0.0000 0.5000
vn -0.8660 0.0000 -0.5000
vn 0.0000 1.0000 0.0000
vn 0.0000 1.0000 0.0000
vn 0.0000 1.0000 0.0000
vn -0.5000 0.0000 -0.8660
vn 0.0000 0.0000 -1.0000
vn -0.5000 0.0000 -0.8660
vn -0.0000 0.0000 -1.0000
vn -0.5000 0.0000 0.8660
vn -0.5000 0.0000 0.8660
vn 0.0000 1.0000 0.0000
vn 0.0000 1.0000 0.0000
vn 0.0000 0.0000 1.0000
vn -0.0000 0.0000 1.0000
vn 0.0000 1.0000 0.0000
vn 0.0000 1.0000 0.0000
vn 0.5000 0.0000 -0.8660
vn 0.5000 0.0000 -0.8660
vn 0.5000 0.0000 0.8660
vn 0.5000 0.0000 0.8660
vn 0.0000 1.0000 0.0000
vn 0.0000 1.0000 0.0000
vn 0.8660 0.0000 -0.5000
vn 0.8660 0.0000 0.5000
vn 0.8660 -0.0000 0.5000
vn 0.0000 1.0000 0.0000
vn 0.8660 0.0000 -0.5000
vn 0.0000 1.0000 0.0000
vn 1.0000 0.0000 -0.0000
vn 1.0000 -0.0000 0.0000
vn 0.0000 1.0000 0.0000
vn -1.0000 0.0000 -0.0000
vn -0.8660 0.0000 -0.5000
vn -1.0000 0.0000 0.0000
vn -0.8660 0.0000 0.5000
vn -0.8660 0.0000 0.5000
vn -0.8660 0.0000 -0.5000
vn 0.0000 1.0000 0.0000
vn 0.0000 1.0000 0.0000
vn 0.0000 1.0000 0.0000
vn -0.5000 0.0000 -0.8660
vn 0.0000 0.0000 -1.0000
vn -0.5000 0.0000 -0.8660
vn -0.0000 0.0000 -1.0000
vn -0.5000 0.0000 0.8660
vn -0.5000 0.0000 0.8660
vn 0.0000 1.0000 0.0000
vn 0.0000 1.0000 0.0000
vn 0.0000 0.0000 1.0000
vn -0.0000 0.0000 1.0000
vn 0.0000 1.0000 0.0000
vn 0.0000 1.0000 0.0000
vn 0.5000 0.0000 -0.8660
vn 0.5000 0.0000 -0.8660
vn 0.5000 0.0000 0.8660
vn 0.5000 0.0000 0.8660
vn 0.0000 1.0000 0.0000
vn 0.0000 1.0000 0.0000
vn 0.8660 0.0000 -0.5000
vn 0.8660 0.0000 0.5000
vn 0.8660 0.0000 0.5000
vn 0.8660 0.0000 -0.5000
vn 0.0000 1.0000 0.0000
vn 0.0000 1.0000 0.0000
vn 1.0000 0.0000 -0.0000
vn 1.0000 0.0000 0.0000
vn 0.0000 1.0000 0.0000
f 1//1 2//2 3//3
f 4//4 2//2 1//1
f 4//4 5//5 2//2
f 6//6 7//7 5//5
f 8//8 9//9 10//10
f 11//11 12//12 13//13
f 12//12 14//14 15//15
f 16//16 17//17 14//14
f 16//16 18//18 19//19
f 18//18 20//20 21//21
f 20//20 22//22 23//23
f 4//4 6//6 5//5
f 24//24 25//25 26//26
f 27//27 28//28 7//7
f 29//29 30//30 28//28
f 31//31 32//32 30//30
f 33//33 34//34 32//32
f 35//35 36//36 34//34
f 37//37 38//38 36//36
f 22//22 39//39 40//40
f 41//41 42//42 39//39
f 41//41 43//43 44//44
f 45//45 46//46 43//43
f 47//47 38//38 37//37
f 35//35 37//37 36//36
f 33//33 35//35 34//34
f 29//29 31//31 30//30
f 27//27 29//29 28//28
f 31//31 33//33 32//32
f 6//6 27//27 7//7
f 48//48 49//49 50//50
f 51//51 52//52 48//48
f 48//48 52//52 49//49
f 51//51 53//53 52//52
f 51//51 54//54 53//53
f 48//48 50//50 55//55
f 51//51 56//56 54//54
f 45//45 57//57 58//58
f 59//59 60//60 61//61
f 62//62 63//63 57//57
f 64//64 65//65 62//62
f 66//66 67//67 64//64
f 68//68 69//69 66//66
f 48//48 70//70 68//68
f 51//51 71//71 56//56
f 48//48 55//55 72//72
f 73//73 74//74 55//55
f 56//56 75//75 76//76
f 77//77 78//78 73//73
f 79//79 80//80 77//77
f 80//80 79//79 81//81
f 76//76 82//82 81//81
f 9//9 83//83 10//10
f 12//12 15//15 13//13
f 14//14 17//17 15//15
f 26//26 25//25 84//84
f 16//16 19//19 17//17
f 18//18 21//21 19//19
f 21//21 20//20 23//23
f 22//22 40//40 23//23
f 85//85 86//86 87//87
f 88//88 85//85 87//87
f 88//88 87//87 89//89
f 90//90 89//89 91//91
f 59//59 92//92 60//60
f 88//88 89//89 90//90
f 39//39 42//42 40//40
f 41//41 44//44 42//42
f 43//43 46//46 44//44
f 93//93 91//91 94//94
f 95//95 94//94 96//96
f 97//97 96//96 98//98
f 99//99 98//98 100//100
f 101//101 100//100 102//102
f 103//103 102//102 104//104
f 45//45 58//58 46//46
f 57//57 63//63 58//58
f 62//62 65//65 63//63
f 64//64 67//67 65//65
f 66//66 69//69 67//67
f 73//73 78//78 74//74
f 77//77 80//80 78//78
f 81//81 105//105 80//80
f 81//81 82//82 105//105
f 76//76 75//75 82//82
f 56//56 71//71 75//75
f 51//51 106//106 71//71
f 68//68 70//70 69//69
f 48//48 72//72 70//70
f 72//72 55//55 74//74
f 107//107 103//103 104//104
f 101//101 102//102 103//103
f 99//99 100//100 101//101
f 95//95 96//96 97//97
f 93//93 94//94 95//95
f 97//97 98//98 99//99
f 90//90 91//91 93//93
f 72//72 74//74 108//108
f 106//106 109//109 71//71
f 72//72 108//108 110//110
f 72//72 110//110 111//111
f 106//106 112//112 109//109
f 106//106 111//111 112//112
f 106//106 72//72 111//111
f 113//113 114//114 115//115
f 116//116 115//115 117//117
f 118//118 114//114 113//113
f 113//113 115//115 116//116
f 119//119 120//120 121//121
f 122//122 123//123 124//124
f 122//122 125//125 123//123
f 118//118 124//124 114//114
f 126//126 117//117 127//127
f 122//122 124//124 118//118
f 128//128 119//119 121//121
f 128//128 121//121 129//129
f 116//116 117//117 126//126
f 130//130 127//127 131//131
f 128//128 129//129 132//132
f 132//132 129//129 133//133
f 126//126 127//127 130//130
f 125//125 134//134 123//123
f 125//125 135//135 134//134
f 136//136 131//131 137//137
f 132//132 133//133 138//138
f 138//138 133//133 139//139
f 130//130 131//131 136//136
f 135//135 140//140 134//134
f 141//141 137//137 142//142
f 138//138 139//139 143//143
f 135//135 144//144 140//140
f 143//143 139//139 145//145
f 141//141 136//136 137//137
f 144//144 146//146 140//140
f 147//147 142//142 146//146
f 147//147 141//141 142//142
f 144//144 147//147 146//146
f 143//143 145//145 148//148
f 149//149 150//150 151//151
f 152//152 151//151 153//153
f 154//154 150//150 149//149
f 149//149 151//151 152//152
f 155//155 156//156 157//157
f 158//158 159//159 160//160
f 158//158 161//161 159//159
f 154//154 160//160 150//150
f 162//162 153//153 163//163
f 164//164 155//155 157//157
f 158//158 160//160 154//154
f 164//164 157//157 165//165
f 152//152 153//153 162//162
f 166//166 163//163 167//167
f 164//164 165//165 168//168
f 168//168 165//165 169//169
f 162//162 163//163 166//166
f 161//161 170//170 159//159
f 161//161 171//171 170//170
f 172//172 167//167 173//173
f 168//168 169//169 174//174
f 174//174 169//169 175//175
f 166//166 167//167 172//172
f 171//171 176//176 170//170
f 177//177 173//173 178//178
f 171//171 179//179 176//176
f 174//174 175//175 180//180
f 180//180 175//175 181//181
f 177//177 172//172 173//173
f 179//179 182//182 176//176
f 183//183 178//178 182//182
f 183//183 177//177 178//178
f 179//179 183//183 182//182
f 180//180 181//181 184//184
