v -0.49800 -0.15000 -0.50000
v -0.49800 -0.09354 -0.45312
v -0.49800 -0.12000 -0.50000
v -0.49800 -0.15000 0.50000
v -0.49800 -0.06733 -0.40625
v -0.49800 0.15000 0.50000
v -0.49800 -0.04162 -0.35938
v -0.49800 -0.15000 -0.50000
v -0.49800 -0.12000 -0.50000
v 0.49800 -0.15000 -0.50000
v -0.49800 -0.12000 -0.50000
v -0.49800 -0.09354 -0.45312
v 0.49800 -0.12000 -0.50000
v -0.49800 -0.06733 -0.40625
v 0.49800 -0.09354 -0.45312
v -0.49800 -0.04162 -0.35938
v 0.49800 -0.06733 -0.40625
v -0.49800 -0.01668 -0.31250
v 0.49800 -0.04162 -0.35938
v -0.49800 0.00728 -0.26562
v 0.49800 -0.01668 -0.31250
v -0.49800 0.03000 -0.21875
v 0.49800 0.00728 -0.26562
v -0.49800 -0.15000 0.50000
v -0.49800 -0.15000 -0.50000
v 0.49800 -0.15000 0.50000
v -0.49800 0.15000 0.25000
v -0.49800 -0.01668 -0.31250
v -0.49800 0.14870 0.20312
v -0.49800 0.00728 -0.26562
v -0.49800 0.14481 0.15625
v -0.49800 0.03000 -0.21875
v -0.49800 0.13837 0.10938
v -0.49800 0.05129 -0.17188
v -0.49800 0.12945 0.06250
v -0.49800 0.07092 -0.12500
v -0.49800 0.11812 0.01562
v -0.49800 0.08871 -0.07812
v -0.49800 0.10450 -0.03125
v -0.49800 0.05129 -0.17188
v 0.49800 0.03000 -0.21875
v -0.49800 0.07092 -0.12500
v 0.49800 0.05129 -0.17188
v -0.49800 0.08871 -0.07812
v 0.49800 0.07092 -0.12500
v -0.49800 0.10450 -0.03125
v 0.49800 0.08871 -0.07812
v -0.49800 0.11812 0.01562
v 0.49800 0.10450 -0.03125
v -0.49800 0.15000 0.25000
v -0.43995 0.15000 0.33750
v -0.41250 0.15000 0.31005
v -0.45000 0.15000 0.37500
v -0.37500 0.15000 0.30000
v -0.49800 0.15000 0.50000
v -0.43995 0.15000 0.41250
v -0.41250 0.15000 0.43995
v -0.37500 0.15000 0.45000
v -0.12500 0.15000 0.30000
v -0.33750 0.15000 0.31005
v -0.31005 0.15000 0.33750
v -0.16250 0.15000 0.31005
v -0.30000 0.15000 0.37500
v -0.18995 0.15000 0.33750
v -0.18995 0.15000 0.41250
v -0.33750 0.15000 0.43995
v -0.31005 0.15000 0.41250
v -0.20000 0.15000 0.37500
v -0.16250 0.15000 0.43995
v -0.12500 0.15000 0.45000
v -0.49800 -0.15000 0.50000
v 0.49800 0.15000 0.50000
v -0.49800 0.15000 0.50000
v -0.49800 0.12945 0.06250
v 0.49800 0.11812 0.01562
v -0.49800 0.13837 0.10938
v 0.49800 0.12945 0.06250
v -0.49800 0.14481 0.15625
v 0.49800 0.13837 0.10938
v -0.49800 0.14870 0.20312
v 0.49800 0.14481 0.15625
v 0.49800 0.14870 0.20312
v 0.12500 0.15000 0.45000
v 0.49800 0.15000 0.25000
v -0.08750 0.15000 0.31005
v 0.12500 0.15000 0.30000
v -0.06005 0.15000 0.33750
v 0.08750 0.15000 0.31005
v -0.05000 0.15000 0.37500
v 0.06005 0.15000 0.33750
v -0.06005 0.15000 0.41250
v -0.08750 0.15000 0.43995
v 0.06005 0.15000 0.41250
v 0.08750 0.15000 0.43995
v 0.49800 -0.12000 -0.50000
v 0.49800 -0.15000 -0.50000
v 0.49800 -0.15000 -0.50000
v 0.49800 -0.12000 -0.50000
v 0.49800 -0.09354 -0.45312
v 0.49800 -0.15000 0.50000
v 0.49800 -0.06733 -0.40625
v 0.49800 0.15000 0.50000
v 0.49800 -0.04162 -0.35938
v 0.49800 -0.15000 0.50000
v 0.49800 0.15000 0.25000
v 0.49800 -0.01668 -0.31250
v 0.49800 0.14870 0.20312
v 0.49800 0.00728 -0.26562
v 0.49800 0.14481 0.15625
v 0.49800 0.03000 -0.21875
v 0.49800 0.13837 0.10938
v 0.49800 0.05129 -0.17188
v 0.49800 0.12945 0.06250
v 0.49800 0.07092 -0.12500
v 0.49800 0.11812 0.01562
v 0.49800 0.08871 -0.07812
v 0.49800 0.10450 -0.03125
v 0.05000 0.15000 0.37500
v 0.49800 0.15000 0.50000
v 0.20000 0.15000 0.37500
v 0.31005 0.15000 0.33750
v 0.18995 0.15000 0.33750
v 0.18995 0.15000 0.41250
v 0.30000 0.15000 0.37500
v 0.16250 0.15000 0.43995
v 0.31005 0.15000 0.41250
v 0.33750 0.15000 0.43995
v 0.16250 0.15000 0.31005
v 0.33750 0.15000 0.31005
v 0.37500 0.15000 0.30000
v 0.37500 0.15000 0.45000
v 0.41250 0.15000 0.31005
v 0.43995 0.15000 0.33750
v 0.45000 0.15000 0.37500
v 0.43995 0.15000 0.41250
v 0.41250 0.15000 0.43995
v -0.45000 0.19900 0.37500
v -0.43995 0.15000 0.33750
v -0.45000 0.15000 0.37500
v -0.43995 0.19900 0.33750
v -0.41250 0.19900 0.31005
v -0.37500 0.15000 0.30000
v -0.41250 0.15000 0.31005
v -0.37500 0.19900 0.30000
v -0.41250 0.19900 0.31005
v -0.43995 0.19900 0.33750
v -0.43995 0.19900 0.41250
v -0.41250 0.19900 0.43995
v -0.37500 0.19900 0.30000
v -0.43995 0.19900 0.41250
v -0.43995 0.15000 0.41250
v -0.45000 0.19900 0.37500
v -0.41250 0.19900 0.43995
v -0.41250 0.15000 0.43995
v -0.37500 0.19900 0.45000
v -0.37500 0.15000 0.45000
v -0.37500 0.19900 0.45000
v -0.33750 0.15000 0.31005
v -0.33750 0.19900 0.31005
v -0.31005 0.15000 0.33750
v -0.33750 0.19900 0.31005
v -0.31005 0.19900 0.33750
v -0.33750 0.19900 0.43995
v -0.31005 0.19900 0.33750
v -0.30000 0.15000 0.37500
v -0.30000 0.19900 0.37500
v -0.31005 0.19900 0.41250
v -0.33750 0.15000 0.43995
v -0.31005 0.15000 0.41250
v -0.33750 0.19900 0.43995
v -0.31005 0.19900 0.41250
v -0.30000 0.19900 0.37500
v -0.20000 0.19900 0.37500
v -0.18995 0.15000 0.33750
v -0.20000 0.15000 0.37500
v -0.18995 0.19900 0.33750
v -0.16250 0.19900 0.31005
v -0.12500 0.15000 0.30000
v -0.16250 0.15000 0.31005
v -0.12500 0.19900 0.30000
v -0.16250 0.19900 0.31005
v -0.18995 0.19900 0.33750
v -0.18995 0.19900 0.41250
v -0.12500 0.19900 0.30000
v -0.16250 0.19900 0.43995
v -0.18995 0.19900 0.41250
v -0.18995 0.15000 0.41250
v -0.20000 0.19900 0.37500
v -0.16250 0.19900 0.43995
v -0.16250 0.15000 0.43995
v -0.12500 0.19900 0.45000
v -0.12500 0.15000 0.45000
v -0.12500 0.19900 0.45000
v -0.08750 0.15000 0.31005
v -0.08750 0.19900 0.31005
v -0.06005 0.15000 0.33750
v -0.08750 0.19900 0.31005
v -0.06005 0.19900 0.33750
v -0.08750 0.19900 0.43995
v -0.06005 0.19900 0.33750
v -0.05000 0.15000 0.37500
v -0.05000 0.19900 0.37500
v -0.06005 0.19900 0.41250
v -0.08750 0.15000 0.43995
v -0.06005 0.15000 0.41250
v -0.08750 0.19900 0.43995
v -0.06005 0.19900 0.41250
v -0.05000 0.19900 0.37500
v 0.05000 0.19900 0.37500
v 0.06005 0.15000 0.33750
v 0.05000 0.15000 0.37500
v 0.06005 0.19900 0.33750
v 0.08750 0.19900 0.31005
v 0.12500 0.15000 0.30000
v 0.08750 0.15000 0.31005
v 0.12500 0.19900 0.30000
v 0.08750 0.19900 0.31005
v 0.06005 0.19900 0.33750
v 0.06005 0.19900 0.41250
v 0.08750 0.19900 0.43995
v 0.12500 0.19900 0.30000
v 0.06005 0.19900 0.41250
v 0.06005 0.15000 0.41250
v 0.05000 0.19900 0.37500
v 0.08750 0.19900 0.43995
v 0.08750 0.15000 0.43995
v 0.12500 0.19900 0.45000
v 0.12500 0.15000 0.45000
v 0.12500 0.19900 0.45000
v 0.16250 0.15000 0.31005
v 0.16250 0.19900 0.31005
v 0.18995 0.15000 0.33750
v 0.16250 0.19900 0.31005
v 0.18995 0.19900 0.33750
v 0.16250 0.19900 0.43995
v 0.18995 0.19900 0.33750
v 0.20000 0.15000 0.37500
v 0.20000 0.19900 0.37500
v 0.18995 0.19900 0.41250
v 0.16250 0.15000 0.43995
v 0.18995 0.15000 0.41250
v 0.16250 0.19900 0.43995
v 0.18995 0.19900 0.41250
v 0.20000 0.19900 0.37500
v 0.30000 0.19900 0.37500
v 0.31005 0.15000 0.33750
v 0.30000 0.15000 0.37500
v 0.31005 0.19900 0.33750
v 0.33750 0.19900 0.31005
v 0.37500 0.15000 0.30000
v 0.33750 0.15000 0.31005
v 0.37500 0.19900 0.30000
v 0.33750 0.19900 0.31005
v 0.31005 0.19900 0.33750
v 0.31005 0.19900 0.41250
v 0.37500 0.19900 0.30000
v 0.33750 0.19900 0.43995
v 0.31005 0.19900 0.41250
v 0.31005 0.15000 0.41250
v 0.30000 0.19900 0.37500
v 0.33750 0.19900 0.43995
v 0.33750 0.15000 0.43995
v 0.37500 0.19900 0.45000
v 0.37500 0.15000 0.45000
v 0.37500 0.19900 0.45000
v 0.41250 0.15000 0.31005
v 0.41250 0.19900 0.31005
v 0.43995 0.15000 0.33750
v 0.41250 0.19900 0.31005
v 0.43995 0.19900 0.33750
v 0.41250 0.19900 0.43995
v 0.43995 0.19900 0.33750
v 0.45000 0.15000 0.37500
v 0.45000 0.19900 0.37500
v 0.43995 0.19900 0.41250
v 0.41250 0.15000 0.43995
v 0.43995 0.15000 0.41250
v 0.41250 0.19900 0.43995
v 0.43995 0.19900 0.41250
v 0.45000 0.19900 0.37500
vn -1.0000 0.0000 0.0000
vn -1.0000 0.0000 0.0000
vn -1.0000 0.0000 0.0000
vn -1.0000 0.0000 0.0000
vn -1.0000 0.0000 0.0000
vn -1.0000 0.0000 0.0000
vn -1.0000 0.0000 0.0000
vn 0.0000 0.0000 -1.0000
vn 0.0000 0.0000 -1.0000
vn 0.0000 0.0000 -1.0000
vn 0.0000 0.8708 -0.4916
vn 0.0000 0.8718 -0.4898
vn 0.0000 0.8708 -0.4916
vn -0.0000 0.8748 -0.4844
vn -0.0000 0.8718 -0.4898
vn 0.0000 0.8798 -0.4753
vn 0.0000 0.8748 -0.4844
vn 0.0000 0.8867 -0.4624
vn 0.0000 0.8798 -0.4753
vn 0.0000 0.8952 -0.4457
vn 0.0000 0.8867 -0.4624
vn 0.0000 0.9053 -0.4249
vn 0.0000 0.8952 -0.4457
vn 0.0000 -1.0000 0.0000
vn 0.0000 -1.0000 0.0000
vn 0.0000 -1.0000 0.0000
vn -1.0000 0.0000 0.0000
vn -1.0000 0.0000 0.0000
vn -1.0000 0.0000 0.0000
vn -1.0000 0.0000 0.0000
vn -1.0000 0.0000 0.0000
vn -1.0000 0.0000 0.0000
vn -1.0000 0.0000 0.0000
vn -1.0000 0.0000 0.0000
vn -1.0000 0.0000 0.0000
vn -1.0000 0.0000 0.0000
vn -1.0000 0.0000 0.0000
vn -1.0000 0.0000 0.0000
vn -1.0000 0.0000 0.0000
vn 0.0000 0.9166 -0.3999
vn 0.0000 0.9053 -0.4249
vn 0.0000 0.9288 -0.3707
vn 0.0000 0.9166 -0.3999
vn 0.0000 0.9415 -0.3371
vn 0.0000 0.9288 -0.3707
vn 0.0000 0.9542 -0.2992
vn 0.0000 0.9415 -0.3371
vn 0.0000 0.9664 -0.2571
vn 0.0000 0.9542 -0.2992
vn -0.0000 0.9999 -0.0139
vn 0.0000 1.0000 0.0000
vn 0.0000 1.0000 0.0000
vn 0.0000 1.0000 0.0000
vn 0.0000 1.0000 0.0000
vn 0.0000 1.0000 0.0000
vn 0.0000 1.0000 0.0000
vn 0.0000 1.0000 0.0000
vn 0.0000 1.0000 0.0000
vn 0.0000 1.0000 0.0000
vn 0.0000 1.0000 0.0000
vn 0.0000 1.0000 0.0000
vn 0.0000 1.0000 0.0000
vn 0.0000 1.0000 0.0000
vn 0.0000 1.0000 0.0000
vn 0.0000 1.0000 0.0000
vn 0.0000 1.0000 0.0000
vn 0.0000 1.0000 0.0000
vn 0.0000 1.0000 0.0000
vn 0.0000 1.0000 0.0000
vn 0.0000 1.0000 0.0000
vn 0.0000 0.0000 1.0000
vn 0.0000 0.0000 1.0000
vn 0.0000 0.0000 1.0000
vn -0.0000 0.9775 -0.2111
vn -0.0000 0.9664 -0.2571
vn 0.0000 0.9869 -0.1616
vn 0.0000 0.9775 -0.2111
vn -0.0000 0.9940 -0.1094
vn -0.0000 0.9869 -0.1616
vn 0.0000 0.9985 -0.0552
vn 0.0000 0.9940 -0.1094
vn -0.0000 0.9985 -0.0552
vn 0.0000 1.0000 0.0000
vn 0.0000 0.9999 -0.0139
vn 0.0000 1.0000 0.0000
vn 0.0000 1.0000 0.0000
vn 0.0000 1.0000 0.0000
vn 0.0000 1.0000 0.0000
vn 0.0000 1.0000 0.0000
vn 0.0000 1.0000 0.0000
vn 0.0000 1.0000 0.0000
vn 0.0000 1.0000 0.0000
vn 0.0000 1.0000 0.0000
vn 0.0000 1.0000 0.0000
vn 0.0000 0.0000 -1.0000
vn 0.0000 -1.0000 0.0000
vn 1.0000 0.0000 0.0000
vn 1.0000 0.0000 0.0000
vn 1.0000 0.0000 0.0000
vn 1.0000 0.0000 0.0000
vn 1.0000 0.0000 0.0000
vn 1.0000 0.0000 0.0000
vn 1.0000 0.0000 0.0000
vn 0.0000 0.0000 1.0000
vn 1.0000 0.0000 0.0000
vn 1.0000 0.0000 0.0000
vn 1.0000 0.0000 0.0000
vn 1.0000 0.0000 0.0000
vn 1.0000 0.0000 0.0000
vn 1.0000 0.0000 0.0000
vn 1.0000 0.0000 0.0000
vn 1.0000 0.0000 0.0000
vn 1.0000 0.0000 0.0000
vn 1.0000 0.0000 0.0000
vn 1.0000 0.0000 0.0000
vn 1.0000 0.0000 0.0000
vn 1.0000 0.0000 0.0000
vn 0.0000 1.0000 0.0000
vn 0.0000 1.0000 0.0000
vn 0.0000 1.0000 0.0000
vn 0.0000 1.0000 0.0000
vn 0.0000 1.0000 0.0000
vn 0.0000 1.0000 0.0000
vn 0.0000 1.0000 0.0000
vn 0.0000 1.0000 0.0000
vn 0.0000 1.0000 0.0000
vn 0.0000 1.0000 0.0000
vn 0.0000 1.0000 0.0000
vn 0.0000 1.0000 0.0000
vn 0.0000 1.0000 0.0000
vn 0.0000 1.0000 0.0000
vn 0.0000 1.0000 0.0000
vn 0.0000 1.0000 0.0000
vn 0.0000 1.0000 0.0000
vn 0.0000 1.0000 0.0000
vn 0.0000 1.0000 0.0000
vn -1.0000 0.0000 0.0000
vn -0.8660 0.0000 -0.5000
vn -1.0000 0.0000 -0.0000
vn -0.8660 0.0000 -0.5000
vn -0.5000 0.0000 -0.8660
vn -0.0000 0.0000 -1.0000
vn -0.5000 0.0000 -0.8660
vn 0.0000 0.0000 -1.0000
vn 0.0000 1.0000 0.0000
vn 0.0000 1.0000 0.0000
vn 0.0000 1.0000 0.0000
vn 0.0000 1.0000 0.0000
vn 0.0000 1.0000 0.0000
vn -0.8660 0.0000 0.5000
vn -0.8660 0.0000 0.5000
vn 0.0000 1.0000 0.0000
vn -0.5000 0.0000 0.8660
vn -0.5000 0.0000 0.8660
vn -0.0000 0.0000 1.0000
vn 0.0000 0.0000 1.0000
vn 0.0000 1.0000 0.0000
vn 0.5000 0.0000 -0.8660
vn 0.5000 0.0000 -0.8660
vn 0.8660 0.0000 -0.5000
vn 0.0000 1.0000 0.0000
vn 0.8660 0.0000 -0.5000
vn 0.0000 1.0000 0.0000
vn 0.0000 1.0000 0.0000
vn 1.0000 0.0000 0.0000
vn 1.0000 0.0000 -0.0000
vn 0.8660 0.0000 0.5000
vn 0.5000 0.0000 0.8660
vn 0.8660 0.0000 0.5000
vn 0.5000 0.0000 0.8660
vn 0.0000 1.0000 0.0000
vn 0.0000 1.0000 0.0000
vn -1.0000 0.0000 0.0000
vn -0.8660 0.0000 -0.5000
vn -1.0000 0.0000 -0.0000
vn -0.8660 0.0000 -0.5000
vn -0.5000 0.0000 -0.8660
vn -0.0000 0.0000 -1.0000
vn -0.5000 0.0000 -0.8660
vn 0.0000 0.0000 -1.0000
vn 0.0000 1.0000 0.0000
vn 0.0000 1.0000 0.0000
vn 0.0000 1.0000 0.0000
vn 0.0000 1.0000 0.0000
vn 0.0000 1.0000 0.0000
vn -0.8660 0.0000 0.5000
vn -0.8660 0.0000 0.5000
vn 0.0000 1.0000 0.0000
vn -0.5000 0.0000 0.8660
vn -0.5000 0.0000 0.8660
vn -0.0000 0.0000 1.0000
vn 0.0000 0.0000 1.0000
vn 0.0000 1.0000 0.0000
vn 0.5000 0.0000 -0.8660
vn 0.5000 0.0000 -0.8660
vn 0.8660 0.0000 -0.5000
vn 0.0000 1.0000 0.0000
vn 0.8660 0.0000 -0.5000
vn 0.0000 1.0000 0.0000
vn 0.0000 1.0000 0.0000
vn 1.0000 0.0000 0.0000
vn 1.0000 0.0000 -0.0000
vn 0.8660 0.0000 0.5000
vn 0.5000 0.0000 0.8660
vn 0.8660 0.0000 0.5000
vn 0.5000 0.0000 0.8660
vn 0.0000 1.0000 0.0000
vn 0.0000 1.0000 0.0000
vn -1.0000 0.0000 -0.0000
vn -0.8660 0.0000 -0.5000
vn -1.0000 0.0000 0.0000
vn -0.8660 0.0000 -0.5000
vn -0.5000 0.0000 -0.8660
vn -0.0000 0.0000 -1.0000
vn -0.5000 0.0000 -0.8660
vn 0.0000 0.0000 -1.0000
vn 0.0000 1.0000 0.0000
vn 0.0000 1.0000 0.0000
vn 0.0000 1.0000 0.0000
vn 0.0000 1.0000 0.0000
vn 0.0000 1.0000 0.0000
vn -0.8660 0.0000 0.5000
vn -0.8660 0.0000 0.5000
vn 0.0000 1.0000 0.0000
vn -0.5000 0.0000 0.8660
vn -0.5000 0.0000 0.8660
vn -0.0000 0.0000 1.0000
vn 0.0000 0.0000 1.0000
vn 0.0000 1.0000 0.0000
vn 0.5000 0.0000 -0.8660
vn 0.5000 0.0000 -0.8660
vn 0.8660 0.0000 -0.5000
vn 0.0000 1.0000 0.0000
vn 0.8660 0.0000 -0.5000
vn 0.0000 1.0000 0.0000
vn 0.0000 1.0000 0.0000
vn 1.0000 0.0000 -0.0000
vn 1.0000 0.0000 0.0000
vn 0.8660 0.0000 0.5000
vn 0.5000 0.0000 0.8660
vn 0.8660 0.0000 0.5000
vn 0.5000 0.0000 0.8660
vn 0.0000 1.0000 0.0000
vn 0.0000 1.0000 0.0000
vn -1.0000 0.0000 -0.0000
vn -0.8660 0.0000 -0.5000
vn -1.0000 0.0000 0.0000
vn -0.8660 0.0000 -0.5000
vn -0.5000 0.0000 -0.8660
vn -0.0000 0.0000 -1.0000
vn -0.5000 0.0000 -0.8660
vn 0.0000 0.0000 -1.0000
vn 0.0000 1.0000 0.0000
vn 0.0000 1.0000 0.0000
vn 0.0000 1.0000 0.0000
vn 0.0000 1.0000 0.0000
vn 0.0000 1.0000 0.0000
vn -0.8660 0.0000 0.5000
vn -0.8660 0.0000 0.5000
vn 0.0000 1.0000 0.0000
vn -0.5000 0.0000 0.8660
vn -0.5000 0.0000 0.8660
vn -0.0000 0.0000 1.0000
vn 0.0000 0.0000 1.0000
vn 0.0000 1.0000 0.0000
vn 0.5000 0.0000 -0.8660
vn 0.5000 0.0000 -0.8660
vn 0.8660 0.0000 -0.5000
vn 0.0000 1.0000 0.0000
vn 0.8660 0.0000 -0.5000
vn 0.0000 1.0000 0.0000
vn 0.0000 1.0000 0.0000
vn 1.0000 0.0000 -0.0000
vn 1.0000 0.0000 0.0000
vn 0.8660 0.0000 0.5000
vn 0.5000 0.0000 0.8660
vn 0.8660 0.0000 0.5000
vn 0.5000 0.0000 0.8660
vn 0.0000 1.0000 0.0000
vn 0.0000 1.0000 0.0000
f 1//1 2//2 3//3
f 4//4 2//2 1//1
f 4//4 5//5 2//2
f 6//6 7//7 5//5
f 8//8 9//9 10//10
f 11//11 12//12 13//13
f 12//12 14//14 15//15
f 16//16 17//17 14//14
f 16//16 18//18 19//19
f 18//18 20//20 21//21
f 22//22 23//23 20//20
f 4//4 6//6 5//5
f 24//24 25//25 26//26
f 27//27 28//28 7//7
f 29//29 30//30 28//28
f 31//31 32//32 30//30
f 33//33 34//34 32//32
f 35//35 36//36 34//34
f 37//37 38//38 36//36
f 37//37 39//39 38//38
f 35//35 37//37 36//36
f 22//22 40//40 41//41
f 40//40 42//42 43//43
f 42//42 44//44 45//45
f 46//46 47//47 44//44
f 48//48 49//49 46//46
f 27//27 29//29 28//28
f 29//29 31//31 30//30
f 31//31 33//33 32//32
f 33//33 35//35 34//34
f 6//6 27//27 7//7
f 50//50 51//51 52//52
f 50//50 53//53 51//51
f 50//50 52//52 54//54
f 55//55 53//53 50//50
f 55//55 56//56 53//53
f 55//55 57//57 56//56
f 55//55 58//58 57//57
f 50//50 54//54 59//59
f 60//60 59//59 54//54
f 61//61 62//62 60//60
f 63//63 64//64 61//61
f 55//55 65//65 58//58
f 65//65 66//66 58//58
f 67//67 68//68 63//63
f 66//66 65//65 67//67
f 55//55 69//69 65//65
f 55//55 70//70 69//69
f 71//71 72//72 73//73
f 74//74 75//75 48//48
f 76//76 77//77 74//74
f 78//78 79//79 76//76
f 80//80 81//81 78//78
f 50//50 82//82 80//80
f 59//59 60//60 62//62
f 62//62 61//61 64//64
f 64//64 63//63 68//68
f 68//68 67//67 65//65
f 55//55 83//83 70//70
f 50//50 59//59 84//84
f 85//85 86//86 59//59
f 87//87 88//88 85//85
f 89//89 90//90 87//87
f 90//90 89//89 91//91
f 92//92 93//93 91//91
f 70//70 94//94 92//92
f 9//9 95//95 10//10
f 12//12 15//15 13//13
f 14//14 17//17 15//15
f 26//26 25//25 96//96
f 16//16 19//19 17//17
f 18//18 21//21 19//19
f 21//21 20//20 23//23
f 22//22 41//41 23//23
f 97//97 98//98 99//99
f 100//100 97//97 99//99
f 100//100 99//99 101//101
f 102//102 101//101 103//103
f 71//71 104//104 72//72
f 100//100 101//101 102//102
f 40//40 43//43 41//41
f 42//42 45//45 43//43
f 44//44 47//47 45//45
f 46//46 49//49 47//47
f 105//105 103//103 106//106
f 107//107 106//106 108//108
f 109//109 108//108 110//110
f 111//111 110//110 112//112
f 113//113 112//112 114//114
f 115//115 114//114 116//116
f 115//115 116//116 117//117
f 113//113 114//114 115//115
f 48//48 75//75 49//49
f 74//74 77//77 75//75
f 76//76 79//79 77//77
f 78//78 81//81 79//79
f 80//80 82//82 81//81
f 50//50 84//84 82//82
f 85//85 88//88 86//86
f 87//87 90//90 88//88
f 91//91 118//118 90//90
f 91//91 93//93 118//118
f 92//92 94//94 93//93
f 70//70 83//83 94//94
f 55//55 119//119 83//83
f 84//84 59//59 86//86
f 120//120 121//121 122//122
f 123//123 124//124 120//120
f 125//125 126//126 123//123
f 83//83 127//127 125//125
f 105//105 106//106 107//107
f 107//107 108//108 109//109
f 109//109 110//110 111//111
f 111//111 112//112 113//113
f 102//102 103//103 105//105
f 84//84 86//86 128//128
f 84//84 128//128 122//122
f 129//129 122//122 121//121
f 121//121 120//120 124//124
f 122//122 129//129 130//130
f 84//84 122//122 130//130
f 124//124 123//123 126//126
f 126//126 125//125 127//127
f 127//127 83//83 131//131
f 119//119 131//131 83//83
f 84//84 130//130 132//132
f 84//84 132//132 133//133
f 84//84 133//133 134//134
f 84//84 134//134 135//135
f 119//119 136//136 131//131
f 119//119 84//84 135//135
f 119//119 135//135 136//136
f 137//137 138//138 139//139
f 140//140 138//138 137//137
f 141//141 142//142 143//143
f 140//140 143//143 138//138
f 141//141 144//144 142//142
f 141//141 143//143 140//140
f 145//145 146//146 147//147
f 145//145 148//148 149//149
f 150//150 139//139 151//151
f 137//137 139//139 150//150
f 146//146 152//152 147//147
f 153//153 151//151 154//154
f 155//155 154//154 156//156
f 150//150 151//151 153//153
f 145//145 147//147 148//148
f 149//149 148//148 157//157
f 153//153 154//154 155//155
f 144//144 158//158 142//142
f 159//159 160//160 158//158
f 144//144 159//159 158//158
f 149//149 157//157 161//161
f 159//159 162//162 160//160
f 161//161 163//163 164//164
f 162//162 165//165 160//160
f 162//162 166//166 165//165
f 167//167 168//168 169//169
f 170//170 156//156 168//168
f 161//161 157//157 163//163
f 170//170 168//168 167//167
f 164//164 163//163 171//171
f 170//170 155//155 156//156
f 166//166 169//169 165//165
f 166//166 167//167 169//169
f 164//164 171//171 172//172
f 173//173 174//174 175//175
f 176//176 174//174 173//173
f 177//177 178//178 179//179
f 176//176 179//179 174//174
f 180//180 178//178 177//177
f 177//177 179//179 176//176
f 181//181 182//182 183//183
f 184//184 181//181 185//185
f 186//186 175//175 187//187
f 173//173 175//175 186//186
f 182//182 188//188 183//183
f 189//189 187//187 190//190
f 191//191 190//190 192//192
f 186//186 187//187 189//189
f 181//181 183//183 185//185
f 184//184 185//185 193//193
f 189//189 190//190 191//191
f 180//180 194//194 178//178
f 195//195 196//196 194//194
f 180//180 195//195 194//194
f 184//184 193//193 197//197
f 195//195 198//198 196//196
f 197//197 199//199 200//200
f 198//198 201//201 196//196
f 198//198 202//202 201//201
f 203//203 204//204 205//205
f 206//206 192//192 204//204
f 197//197 193//193 199//199
f 203//203 206//206 204//204
f 200//200 199//199 207//207
f 191//191 192//192 206//206
f 202//202 205//205 201//201
f 202//202 203//203 205//205
f 200//200 207//207 208//208
f 209//209 210//210 211//211
f 212//212 210//210 209//209
f 213//213 214//214 215//215
f 212//212 215//215 210//210
f 213//213 216//216 214//214
f 213//213 215//215 212//212
f 217//217 218//218 219//219
f 217//217 220//220 221//221
f 222//222 211//211 223//223
f 209//209 211//211 222//222
f 218//218 224//224 219//219
f 225//225 223//223 226//226
f 227//227 226//226 228//228
f 222//222 223//223 225//225
f 217//217 219//219 220//220
f 221//221 220//220 229//229
f 225//225 226//226 227//227
f 216//216 230//230 214//214
f 231//231 232//232 230//230
f 216//216 231//231 230//230
f 221//221 229//229 233//233
f 231//231 234//234 232//232
f 233//233 235//235 236//236
f 234//234 237//237 232//232
f 234//234 238//238 237//237
f 239//239 240//240 241//241
f 242//242 228//228 240//240
f 233//233 229//229 235//235
f 239//239 242//242 240//240
f 236//236 235//235 243//243
f 242//242 227//227 228//228
f 238//238 241//241 237//237
f 238//238 239//239 241//241
f 236//236 243//243 244//244
f 245//245 246//246 247//247
f 248//248 246//246 245//245
f 249//249 250//250 251//251
f 248//248 251//251 246//246
f 252//252 250//250 249//249
f 249//249 251//251 248//248
f 253//253 254//254 255//255
f 256//256 253//253 257//257
f 258//258 247//247 259//259
f 245//245 247//247 258//258
f 254//254 260//260 255//255
f 261//261 259//259 262//262
f 263//263 262//262 264//264
f 258//258 259//259 261//261
f 253//253 255//255 257//257
f 256//256 257//257 265//265
f 261//261 262//262 263//263
f 252//252 266//266 250//250
f 267//267 268//268 266//266
f 252//252 267//267 266//266
f 256//256 265//265 269//269
f 267//267 270//270 268//268
f 269//269 271//271 272//272
f 270//270 273//273 268//268
f 270//270 274//274 273//273
f 275//275 276//276 277//277
f 278//278 264//264 276//276
f 269//269 265//265 271//271
f 275//275 278//278 276//276
f 272//272 271//271 279//279
f 263//263 264//264 278//278
f 274//274 277//277 273//273
f 274//274 275//275 277//277
f 272//272 279//279 280//280
