v 0.12300 -0.10000 0.37500
v -0.12300 -0.10000 0.37500
v -0.12300 -0.10000 -0.37500
v -0.12300 -0.03683 -0.28125
v -0.12300 -0.10000 0.37500
v -0.12300 0.10000 0.37500
v 0.12300 -0.10000 0.37500
v 0.12300 0.10000 0.37500
v -0.12300 -0.10000 0.37500
v 0.12300 -0.03683 -0.28125
v 0.12300 0.10000 0.37500
v 0.12300 -0.10000 0.37500
v -0.12300 0.10000 0.37500
v 0.12300 0.09918 0.32812
v -0.12300 0.09918 0.32812
v -0.12300 0.10000 0.37500
v 0.12300 0.09673 0.28125
v -0.12300 0.09673 0.28125
v 0.12300 0.09268 0.23438
v -0.12300 0.09268 0.23438
v 0.12300 0.08706 0.18750
v -0.12300 0.08706 0.18750
v -0.12300 0.02445 -0.09375
v -0.12300 0.08706 0.18750
v -0.12300 0.03785 -0.04688
v -0.12300 -0.02065 -0.23438
v -0.12300 0.09918 0.32812
v -0.12300 -0.00494 -0.18750
v -0.12300 0.09673 0.28125
v -0.12300 0.01014 -0.14062
v -0.12300 0.09268 0.23438
v -0.12300 0.07993 0.14062
v -0.12300 0.05021 0.00000
v -0.12300 0.07135 0.09375
v -0.12300 0.06141 0.04688
v 0.12300 0.07135 0.09375
v -0.12300 0.07135 0.09375
v -0.12300 0.07993 0.14062
v 0.12300 0.07993 0.14062
v 0.12300 0.06141 0.04688
v -0.12300 0.06141 0.04688
v 0.12300 0.05021 0.00000
v -0.12300 0.05021 0.00000
v 0.12300 0.10000 0.37500
v 0.12300 0.02445 -0.09375
v 0.12300 0.03785 -0.04688
v 0.12300 0.08706 0.18750
v 0.12300 -0.02065 -0.23438
v 0.12300 0.09918 0.32812
v 0.12300 -0.00494 -0.18750
v 0.12300 0.09673 0.28125
v 0.12300 0.01014 -0.14062
v 0.12300 0.09268 0.23438
v 0.12300 0.07993 0.14062
v 0.12300 0.05021 0.00000
v 0.12300 0.07135 0.09375
v 0.12300 0.06141 0.04688
v -0.12300 -0.05334 -0.32812
v -0.12300 -0.10000 -0.37500
v -0.12300 -0.07000 -0.37500
v 0.12300 -0.10000 -0.37500
v -0.12300 -0.10000 -0.37500
v -0.12300 -0.07000 -0.37500
v 0.12300 -0.07000 -0.37500
v -0.12300 -0.07000 -0.37500
v -0.12300 -0.05334 -0.32812
v 0.12300 -0.03683 -0.28125
v -0.12300 -0.03683 -0.28125
v -0.12300 -0.02065 -0.23438
v 0.12300 -0.02065 -0.23438
v -0.12300 -0.00494 -0.18750
v 0.12300 -0.05334 -0.32812
v 0.12300 -0.10000 -0.37500
v 0.12300 -0.05334 -0.32812
v 0.12300 -0.10000 -0.37500
v 0.12300 -0.07000 -0.37500
v 0.12300 -0.07000 -0.37500
v 0.12300 -0.00494 -0.18750
v 0.12300 0.03785 -0.04688
v -0.12300 0.03785 -0.04688
v 0.12300 0.02445 -0.09375
v -0.12300 0.02445 -0.09375
v 0.12300 0.01014 -0.14062
v -0.12300 0.01014 -0.14062
vn 0.0000 -1.0000 0.0000
vn 0.0000 -1.0000 0.0000
vn 0.0000 -1.0000 0.0000
vn -1.0000 0.0000 0.0000
vn -1.0000 0.0000 0.0000
vn -1.0000 0.0000 0.0000
vn 0.0000 0.0000 1.0000
vn 0.0000 0.0000 1.0000
vn 0.0000 0.0000 1.0000
vn 1.0000 0.0000 0.0000
vn 1.0000 0.0000 0.0000
vn 1.0000 0.0000 0.0000
vn 0.0000 0.0000 1.0000
vn -0.0000 0.9994 -0.0348
vn -0.0000 0.9994 -0.0348
vn -0.0000 0.9998 -0.0175
vn -0.0000 0.9976 -0.0692
vn 0.0000 0.9976 -0.0692
vn 0.0000 0.9947 -0.1026
vn 0.0000 0.9947 -0.1026
vn 0.0000 0.9909 -0.1348
vn 0.0000 0.9909 -0.1348
vn -1.0000 0.0000 0.0000
vn -1.0000 0.0000 0.0000
vn -1.0000 0.0000 0.0000
vn -1.0000 0.0000 0.0000
vn -1.0000 0.0000 0.0000
vn -1.0000 0.0000 0.0000
vn -1.0000 0.0000 0.0000
vn -1.0000 0.0000 0.0000
vn -1.0000 0.0000 0.0000
vn -1.0000 0.0000 0.0000
vn -1.0000 0.0000 0.0000
vn -1.0000 0.0000 0.0000
vn -1.0000 0.0000 0.0000
vn -0.0000 0.9811 -0.1937
vn 0.0000 0.9811 -0.1937
vn -0.0000 0.9863 -0.1652
vn 0.0000 0.9863 -0.1652
vn 0.0000 0.9755 -0.2200
vn 0.0000 0.9755 -0.2200
vn 0.0000 0.9698 -0.2437
vn -0.0000 0.9698 -0.2437
vn 0.0000 0.9998 -0.0175
vn 1.0000 0.0000 0.0000
vn 1.0000 0.0000 0.0000
vn 1.0000 0.0000 0.0000
vn 1.0000 0.0000 0.0000
vn 1.0000 0.0000 0.0000
vn 1.0000 0.0000 0.0000
vn 1.0000 0.0000 0.0000
vn 1.0000 0.0000 0.0000
vn 1.0000 0.0000 0.0000
vn 1.0000 0.0000 0.0000
vn 1.0000 0.0000 0.0000
vn 1.0000 0.0000 0.0000
vn 1.0000 0.0000 0.0000
vn -1.0000 0.0000 0.0000
vn -1.0000 0.0000 0.0000
vn -1.0000 0.0000 0.0000
vn 0.0000 0.0000 -1.0000
vn 0.0000 0.0000 -1.0000
vn 0.0000 0.0000 -1.0000
vn 0.0000 0.9422 -0.3349
vn 0.0000 0.9422 -0.3349
vn 0.0000 0.9427 -0.3335
vn 0.0000 0.9443 -0.3292
vn 0.0000 0.9443 -0.3292
vn 0.0000 0.9467 -0.3220
vn 0.0000 0.9467 -0.3220
vn 0.0000 0.9501 -0.3120
vn 0.0000 0.9427 -0.3335
vn 0.0000 -1.0000 0.0000
vn 1.0000 0.0000 0.0000
vn 1.0000 0.0000 0.0000
vn 0.0000 0.0000 -1.0000
vn 1.0000 0.0000 0.0000
vn 0.0000 0.9501 -0.3120
vn -0.0000 0.9643 -0.2649
vn 0.0000 0.9643 -0.2649
vn 0.0000 0.9590 -0.2834
vn 0.0000 0.9590 -0.2834
vn 0.0000 0.9542 -0.2991
vn 0.0000 0.9542 -0.2991
f 1//1 2//2 3//3
f 4//4 5//5 6//6
f 7//7 8//8 9//9
f 10//10 11//11 12//12
f 8//8 13//13 9//9
f 14//14 15//15 16//16
f 17//17 18//18 15//15
f 19//19 20//20 18//18
f 21//21 22//22 20//20
f 23//23 24//24 25//25
f 26//26 6//6 27//27
f 28//28 27//27 29//29
f 30//30 29//29 31//31
f 23//23 31//31 24//24
f 25//25 24//24 32//32
f 33//33 32//32 34//34
f 25//25 32//32 33//33
f 33//33 34//34 35//35
f 36//36 37//37 38//38
f 39//39 38//38 22//22
f 40//40 41//41 37//37
f 42//42 43//43 41//41
f 44//44 14//14 16//16
f 14//14 17//17 15//15
f 17//17 19//19 18//18
f 19//19 21//21 20//20
f 45//45 46//46 47//47
f 21//21 39//39 22//22
f 39//39 36//36 38//38
f 36//36 40//40 37//37
f 40//40 42//42 41//41
f 48//48 49//49 11//11
f 50//50 51//51 49//49
f 52//52 53//53 51//51
f 45//45 47//47 53//53
f 46//46 54//54 47//47
f 55//55 56//56 54//54
f 46//46 55//55 54//54
f 55//55 57//57 56//56
f 58//58 5//5 4//4
f 58//58 59//59 5//5
f 60//60 59//59 58//58
f 61//61 62//62 63//63
f 64//64 65//65 66//66
f 67//67 68//68 69//69
f 70//70 69//69 71//71
f 72//72 66//66 68//68
f 73//73 1//1 3//3
f 74//74 10//10 12//12
f 74//74 12//12 75//75
f 76//76 61//61 63//63
f 72//72 64//64 66//66
f 77//77 74//74 75//75
f 70//70 67//67 69//69
f 78//78 70//70 71//71
f 67//67 72//72 68//68
f 26//26 27//27 28//28
f 4//4 6//6 26//26
f 28//28 29//29 30//30
f 30//30 31//31 23//23
f 79//79 80//80 43//43
f 81//81 82//82 80//80
f 83//83 84//84 82//82
f 78//78 71//71 84//84
f 42//42 79//79 43//43
f 79//79 81//81 80//80
f 81//81 83//83 82//82
f 83//83 78//78 84//84
f 48//48 50//50 49//49
f 10//10 48//48 11//11
f 50//50 52//52 51//51
f 52//52 45//45 53//53
