v -0.24800 -0.15000 -0.50000
v -0.24800 -0.09354 -0.45312
v -0.24800 -0.12000 -0.50000
v -0.24800 -0.15000 0.50000
v -0.24800 -0.06733 -0.40625
v -0.24800 0.15000 0.50000
v -0.24800 -0.04162 -0.35938
v -0.24800 -0.15000 -0.50000
v -0.24800 -0.12000 -0.50000
v 0.24800 -0.15000 -0.50000
v -0.24800 -0.12000 -0.50000
v -0.24800 -0.09354 -0.45312
v 0.24800 -0.12000 -0.50000
v -0.24800 -0.06733 -0.40625
v 0.24800 -0.09354 -0.45312
v -0.24800 -0.04162 -0.35938
v 0.24800 -0.06733 -0.40625
v -0.24800 -0.01668 -0.31250
v 0.24800 -0.04162 -0.35938
v -0.24800 0.00728 -0.26562
v 0.24800 -0.01668 -0.31250
v -0.24800 0.03000 -0.21875
v 0.24800 0.00728 -0.26562
v -0.24800 -0.15000 0.50000
v -0.24800 -0.15000 -0.50000
v 0.24800 -0.15000 0.50000
v -0.24800 0.15000 0.25000
v -0.24800 -0.01668 -0.31250
v -0.24800 0.14870 0.20312
v -0.24800 0.00728 -0.26562
v -0.24800 0.14481 0.15625
v -0.24800 0.03000 -0.21875
v -0.24800 0.13837 0.10938
v -0.24800 0.05129 -0.17188
v -0.24800 0.12945 0.06250
v -0.24800 0.07092 -0.12500
v -0.24800 0.11812 0.01562
v -0.24800 0.08871 -0.07812
v -0.24800 0.10450 -0.03125
v -0.24800 0.05129 -0.17188
v 0.24800 0.03000 -0.21875
v -0.24800 0.07092 -0.12500
v 0.24800 0.05129 -0.17188
v -0.24800 0.08871 -0.07812
v 0.24800 0.07092 -0.12500
v -0.24800 0.10450 -0.03125
v 0.24800 0.08871 -0.07812
v -0.24800 0.11812 0.01562
v 0.24800 0.10450 -0.03125
v -0.24800 0.15000 0.25000
v -0.18995 0.15000 0.33750
v -0.16250 0.15000 0.31005
v -0.20000 0.15000 0.37500
v -0.24800 0.15000 0.50000
v -0.18995 0.15000 0.41250
v -0.16250 0.15000 0.43995
v -0.12500 0.15000 0.30000
v -0.12500 0.15000 0.45000
v -0.24800 -0.15000 0.50000
v 0.24800 0.15000 0.50000
v -0.24800 0.15000 0.50000
v -0.24800 0.12945 0.06250
v 0.24800 0.11812 0.01562
v -0.24800 0.13837 0.10938
v 0.24800 0.12945 0.06250
v -0.24800 0.14481 0.15625
v 0.24800 0.13837 0.10938
v -0.24800 0.14870 0.20312
v 0.24800 0.14481 0.15625
v 0.24800 0.14870 0.20312
v 0.12500 0.15000 0.45000
v 0.24800 0.15000 0.25000
v -0.08750 0.15000 0.31005
v 0.12500 0.15000 0.30000
v -0.06005 0.15000 0.33750
v 0.08750 0.15000 0.31005
v -0.05000 0.15000 0.37500
v 0.06005 0.15000 0.33750
v 0.08750 0.15000 0.43995
v -0.08750 0.15000 0.43995
v -0.06005 0.15000 0.41250
v 0.06005 0.15000 0.41250
v 0.24800 -0.12000 -0.50000
v 0.24800 -0.15000 -0.50000
v 0.24800 -0.15000 -0.50000
v 0.24800 -0.12000 -0.50000
v 0.24800 -0.09354 -0.45312
v 0.24800 -0.15000 0.50000
v 0.24800 -0.06733 -0.40625
v 0.24800 0.15000 0.50000
v 0.24800 -0.04162 -0.35938
v 0.24800 -0.15000 0.50000
v 0.24800 0.15000 0.25000
v 0.24800 -0.01668 -0.31250
v 0.24800 0.14870 0.20312
v 0.24800 0.00728 -0.26562
v 0.24800 0.14481 0.15625
v 0.24800 0.03000 -0.21875
v 0.24800 0.13837 0.10938
v 0.24800 0.05129 -0.17188
v 0.24800 0.12945 0.06250
v 0.24800 0.07092 -0.12500
v 0.24800 0.11812 0.01562
v 0.24800 0.08871 -0.07812
v 0.24800 0.10450 -0.03125
v 0.05000 0.15000 0.37500
v 0.24800 0.15000 0.50000
v 0.16250 0.15000 0.31005
v 0.16250 0.15000 0.43995
v 0.18995 0.15000 0.33750
v 0.20000 0.15000 0.37500
v 0.18995 0.15000 0.41250
v -0.20000 0.19900 0.37500
v -0.18995 0.15000 0.33750
v -0.20000 0.15000 0.37500
v -0.18995 0.19900 0.33750
v -0.18995 0.19900 0.41250
v -0.18995 0.15000 0.41250
v -0.18995 0.19900 0.33750
v -0.20000 0.19900 0.37500
v -0.18995 0.19900 0.41250
v -0.16250 0.15000 0.31005
v -0.16250 0.19900 0.31005
v -0.16250 0.19900 0.31005
v -0.12500 0.15000 0.30000
v -0.12500 0.19900 0.30000
v -0.16250 0.19900 0.43995
v -0.12500 0.19900 0.30000
v -0.16250 0.19900 0.43995
v -0.16250 0.15000 0.43995
v -0.12500 0.19900 0.45000
v -0.12500 0.15000 0.45000
v -0.12500 0.19900 0.45000
v -0.08750 0.15000 0.31005
v -0.08750 0.19900 0.31005
v -0.08750 0.19900 0.31005
v -0.06005 0.15000 0.33750
v -0.08750 0.19900 0.43995
v -0.06005 0.19900 0.33750
v -0.06005 0.19900 0.33750
v -0.08750 0.19900 0.43995
v -0.08750 0.15000 0.43995
v -0.06005 0.19900 0.41250
v -0.06005 0.15000 0.41250
v -0.06005 0.19900 0.41250
v -0.05000 0.15000 0.37500
v -0.05000 0.19900 0.37500
v -0.05000 0.19900 0.37500
v 0.05000 0.19900 0.37500
v 0.06005 0.15000 0.33750
v 0.05000 0.15000 0.37500
v 0.06005 0.19900 0.33750
v 0.06005 0.19900 0.41250
v 0.06005 0.15000 0.41250
v 0.06005 0.19900 0.33750
v 0.05000 0.19900 0.37500
v 0.06005 0.19900 0.41250
v 0.08750 0.15000 0.31005
v 0.08750 0.19900 0.31005
v 0.08750 0.19900 0.31005
v 0.12500 0.15000 0.30000
v 0.12500 0.19900 0.30000
v 0.08750 0.19900 0.43995
v 0.12500 0.19900 0.30000
v 0.08750 0.19900 0.43995
v 0.08750 0.15000 0.43995
v 0.12500 0.19900 0.45000
v 0.12500 0.15000 0.45000
v 0.12500 0.19900 0.45000
v 0.16250 0.15000 0.31005
v 0.16250 0.19900 0.31005
v 0.16250 0.19900 0.31005
v 0.18995 0.15000 0.33750
v 0.18995 0.19900 0.33750
v 0.16250 0.19900 0.43995
v 0.18995 0.19900 0.33750
v 0.16250 0.19900 0.43995
v 0.16250 0.15000 0.43995
v 0.18995 0.19900 0.41250
v 0.18995 0.15000 0.41250
v 0.18995 0.19900 0.41250
v 0.20000 0.15000 0.37500
v 0.20000 0.19900 0.37500
v 0.20000 0.19900 0.37500
vn -1.0000 0.0000 0.0000
vn -1.0000 0.0000 0.0000
vn -1.0000 0.0000 0.0000
vn -1.0000 0.0000 0.0000
vn -1.0000 0.0000 0.0000
vn -1.0000 0.0000 0.0000
vn -1.0000 0.0000 0.0000
vn 0.0000 0.0000 -1.0000
vn 0.0000 0.0000 -1.0000
vn 0.0000 0.0000 -1.0000
vn 0.0000 0.8708 -0.4916
vn 0.0000 0.8718 -0.4898
vn 0.0000 0.8708 -0.4916
vn 0.0000 0.8748 -0.4844
vn 0.0000 0.8718 -0.4898
vn 0.0000 0.8798 -0.4753
vn 0.0000 0.8748 -0.4844
vn 0.0000 0.8867 -0.4624
vn 0.0000 0.8798 -0.4753
vn 0.0000 0.8952 -0.4457
vn 0.0000 0.8867 -0.4624
vn 0.0000 0.9053 -0.4249
vn 0.0000 0.8952 -0.4457
vn 0.0000 -1.0000 0.0000
vn 0.0000 -1.0000 0.0000
vn 0.0000 -1.0000 0.0000
vn -1.0000 0.0000 0.0000
vn -1.0000 0.0000 0.0000
vn -1.0000 0.0000 0.0000
vn -1.0000 0.0000 0.0000
vn -1.0000 0.0000 0.0000
vn -1.0000 0.0000 0.0000
vn -1.0000 0.0000 0.0000
vn -1.0000 0.0000 0.0000
vn -1.0000 0.0000 0.0000
vn -1.0000 0.0000 0.0000
vn -1.0000 0.0000 0.0000
vn -1.0000 0.0000 0.0000
vn -1.0000 0.0000 0.0000
vn -0.0000 0.9166 -0.3999
vn -0.0000 0.9053 -0.4249
vn 0.0000 0.9288 -0.3707
vn 0.0000 0.9166 -0.3999
vn 0.0000 0.9415 -0.3371
vn 0.0000 0.9288 -0.3707
vn 0.0000 0.9542 -0.2992
vn 0.0000 0.9415 -0.3371
vn 0.0000 0.9664 -0.2571
vn 0.0000 0.9542 -0.2992
vn 0.0000 0.9999 -0.0139
vn 0.0000 1.0000 0.0000
vn 0.0000 1.0000 0.0000
vn 0.0000 1.0000 0.0000
vn 0.0000 1.0000 0.0000
vn 0.0000 1.0000 0.0000
vn 0.0000 1.0000 0.0000
vn 0.0000 1.0000 0.0000
vn 0.0000 1.0000 0.0000
vn 0.0000 0.0000 1.0000
vn 0.0000 0.0000 1.0000
vn 0.0000 0.0000 1.0000
vn 0.0000 0.9775 -0.2111
vn 0.0000 0.9664 -0.2571
vn 0.0000 0.9869 -0.1616
vn 0.0000 0.9775 -0.2111
vn -0.0000 0.9940 -0.1094
vn -0.0000 0.9869 -0.1616
vn 0.0000 0.9985 -0.0552
vn 0.0000 0.9940 -0.1094
vn 0.0000 0.9985 -0.0552
vn 0.0000 1.0000 0.0000
vn 0.0000 0.9999 -0.0139
vn 0.0000 1.0000 0.0000
vn 0.0000 1.0000 0.0000
vn 0.0000 1.0000 0.0000
vn 0.0000 1.0000 0.0000
vn 0.0000 1.0000 0.0000
vn 0.0000 1.0000 0.0000
vn 0.0000 1.0000 0.0000
vn 0.0000 1.0000 0.0000
vn 0.0000 1.0000 0.0000
vn 0.0000 1.0000 0.0000
vn 0.0000 0.0000 -1.0000
vn 0.0000 -1.0000 0.0000
vn 1.0000 0.0000 0.0000
vn 1.0000 0.0000 0.0000
vn 1.0000 0.0000 0.0000
vn 1.0000 0.0000 0.0000
vn 1.0000 0.0000 0.0000
vn 1.0000 0.0000 0.0000
vn 1.0000 0.0000 0.0000
vn 0.0000 0.0000 1.0000
vn 1.0000 0.0000 0.0000
vn 1.0000 0.0000 0.0000
vn 1.0000 0.0000 0.0000
vn 1.0000 0.0000 0.0000
vn 1.0000 0.0000 0.0000
vn 1.0000 0.0000 0.0000
vn 1.0000 0.0000 0.0000
vn 1.0000 0.0000 0.0000
vn 1.0000 0.0000 0.0000
vn 1.0000 0.0000 0.0000
vn 1.0000 0.0000 0.0000
vn 1.0000 0.0000 0.0000
vn 1.0000 0.0000 0.0000
vn 0.0000 1.0000 0.0000
vn 0.0000 1.0000 0.0000
vn 0.0000 1.0000 0.0000
vn 0.0000 1.0000 0.0000
vn 0.0000 1.0000 0.0000
vn 0.0000 1.0000 0.0000
vn 0.0000 1.0000 0.0000
vn -1.0000 0.0000 0.0000
vn -0.8660 0.0000 -0.5000
vn -1.0000 0.0000 0.0000
vn -0.8660 0.0000 -0.5000
vn -0.8660 0.0000 0.5000
vn -0.8660 0.0000 0.5000
vn 0.0000 1.0000 0.0000
vn 0.0000 1.0000 0.0000
vn 0.0000 1.0000 0.0000
vn -0.5000 0.0000 -0.8660
vn -0.5000 0.0000 -0.8660
vn 0.0000 1.0000 0.0000
vn -0.0000 0.0000 -1.0000
vn 0.0000 0.0000 -1.0000
vn 0.0000 1.0000 0.0000
vn 0.0000 1.0000 0.0000
vn -0.5000 0.0000 0.8660
vn -0.5000 0.0000 0.8660
vn -0.0000 0.0000 1.0000
vn 0.0000 0.0000 1.0000
vn 0.0000 1.0000 0.0000
vn 0.5000 0.0000 -0.8660
vn 0.5000 0.0000 -0.8660
vn 0.0000 1.0000 0.0000
vn 0.8660 0.0000 -0.5000
vn 0.0000 1.0000 0.0000
vn 0.0000 1.0000 0.0000
vn 0.8660 0.0000 -0.5000
vn 0.5000 0.0000 0.8660
vn 0.5000 0.0000 0.8660
vn 0.8660 0.0000 0.5000
vn 0.8660 0.0000 0.5000
vn 0.0000 1.0000 0.0000
vn 1.0000 0.0000 0.0000
vn 1.0000 0.0000 0.0000
vn 0.0000 1.0000 0.0000
vn -1.0000 0.0000 0.0000
vn -0.8660 0.0000 -0.5000
vn -1.0000 0.0000 -0.0000
vn -0.8660 0.0000 -0.5000
vn -0.8660 0.0000 0.5000
vn -0.8660 0.0000 0.5000
vn 0.0000 1.0000 0.0000
vn 0.0000 1.0000 0.0000
vn 0.0000 1.0000 0.0000
vn -0.5000 0.0000 -0.8660
vn 0.0000 1.0000 0.0000
vn -0.5000 0.0000 -0.8660
vn -0.0000 0.0000 -1.0000
vn 0.0000 0.0000 -1.0000
vn 0.0000 1.0000 0.0000
vn 0.0000 1.0000 0.0000
vn -0.5000 0.0000 0.8660
vn -0.5000 0.0000 0.8660
vn -0.0000 0.0000 1.0000
vn 0.0000 0.0000 1.0000
vn 0.0000 1.0000 0.0000
vn 0.5000 0.0000 -0.8660
vn 0.5000 0.0000 -0.8660
vn 0.0000 1.0000 0.0000
vn 0.8660 0.0000 -0.5000
vn 0.8660 0.0000 -0.5000
vn 0.0000 1.0000 0.0000
vn 0.0000 1.0000 0.0000
vn 0.5000 0.0000 0.8660
vn 0.5000 0.0000 0.8660
vn 0.8660 0.0000 0.5000
vn 0.8660 0.0000 0.5000
vn 0.0000 1.0000 0.0000
vn 1.0000 0.0000 0.0000
vn 1.0000 0.0000 -0.0000
vn 0.0000 1.0000 0.0000
f 1//1 2//2 3//3
f 4//4 2//2 1//1
f 4//4 5//5 2//2
f 6//6 7//7 5//5
f 8//8 9//9 10//10
f 11//11 12//12 13//13
f 12//12 14//14 15//15
f 16//16 17//17 14//14
f 16//16 18//18 19//19
f 18//18 20//20 21//21
f 22//22 23//23 20//20
f 4//4 6//6 5//5
f 24//24 25//25 26//26
f 27//27 28//28 7//7
f 29//29 30//30 28//28
f 31//31 32//32 30//30
f 33//33 34//34 32//32
f 35//35 36//36 34//34
f 37//37 38//38 36//36
f 37//37 39//39 38//38
f 35//35 37//37 36//36
f 22//22 40//40 41//41
f 40//40 42//42 43//43
f 42//42 44//44 45//45
f 46//46 47//47 44//44
f 48//48 49//49 46//46
f 27//27 29//29 28//28
f 29//29 31//31 30//30
f 31//31 33//33 32//32
f 33//33 35//35 34//34
f 6//6 27//27 7//7
f 50//50 51//51 52//52
f 50//50 53//53 51//51
f 54//54 53//53 50//50
f 54//54 55//55 53//53
f 54//54 56//56 55//55
f 50//50 52//52 57//57
f 54//54 58//58 56//56
f 59//59 60//60 61//61
f 62//62 63//63 48//48
f 64//64 65//65 62//62
f 66//66 67//67 64//64
f 68//68 69//69 66//66
f 50//50 70//70 68//68
f 54//54 71//71 58//58
f 50//50 57//57 72//72
f 73//73 74//74 57//57
f 75//75 76//76 73//73
f 77//77 78//78 75//75
f 58//58 79//79 80//80
f 78//78 77//77 81//81
f 80//80 82//82 81//81
f 9//9 83//83 10//10
f 12//12 15//15 13//13
f 14//14 17//17 15//15
f 26//26 25//25 84//84
f 16//16 19//19 17//17
f 18//18 21//21 19//19
f 21//21 20//20 23//23
f 22//22 41//41 23//23
f 85//85 86//86 87//87
f 88//88 85//85 87//87
f 88//88 87//87 89//89
f 90//90 89//89 91//91
f 59//59 92//92 60//60
f 88//88 89//89 90//90
f 40//40 43//43 41//41
f 42//42 45//45 43//43
f 44//44 47//47 45//45
f 46//46 49//49 47//47
f 93//93 91//91 94//94
f 95//95 94//94 96//96
f 97//97 96//96 98//98
f 99//99 98//98 100//100
f 101//101 100//100 102//102
f 103//103 102//102 104//104
f 103//103 104//104 105//105
f 101//101 102//102 103//103
f 48//48 63//63 49//49
f 62//62 65//65 63//63
f 64//64 67//67 65//65
f 66//66 69//69 67//67
f 68//68 70//70 69//69
f 50//50 72//72 70//70
f 75//75 78//78 76//76
f 73//73 76//76 74//74
f 81//81 106//106 78//78
f 81//81 82//82 106//106
f 80//80 79//79 82//82
f 58//58 71//71 79//79
f 54//54 107//107 71//71
f 72//72 57//57 74//74
f 93//93 94//94 95//95
f 95//95 96//96 97//97
f 97//97 98//98 99//99
f 99//99 100//100 101//101
f 90//90 91//91 93//93
f 72//72 74//74 108//108
f 107//107 109//109 71//71
f 72//72 108//108 110//110
f 72//72 110//110 111//111
f 107//107 111//111 112//112
f 107//107 112//112 109//109
f 107//107 72//72 111//111
f 113//113 114//114 115//115
f 116//116 114//114 113//113
f 117//117 115//115 118//118
f 113//113 115//115 117//117
f 119//119 120//120 121//121
f 116//116 122//122 114//114
f 123//123 122//122 116//116
f 124//124 119//119 121//121
f 123//123 125//125 122//122
f 123//123 126//126 125//125
f 124//124 127//127 128//128
f 129//129 118//118 130//130
f 117//117 118//118 129//129
f 124//124 121//121 127//127
f 131//131 130//130 132//132
f 128//128 127//127 133//133
f 129//129 130//130 131//131
f 126//126 134//134 125//125
f 126//126 135//135 134//134
f 128//128 133//133 136//136
f 135//135 137//137 134//134
f 136//136 138//138 139//139
f 135//135 140//140 137//137
f 141//141 132//132 142//142
f 136//136 133//133 138//138
f 131//131 132//132 141//141
f 143//143 142//142 144//144
f 143//143 141//141 142//142
f 139//139 138//138 145//145
f 140//140 146//146 137//137
f 140//140 147//147 146//146
f 147//147 144//144 146//146
f 147//147 143//143 144//144
f 139//139 145//145 148//148
f 149//149 150//150 151//151
f 152//152 150//150 149//149
f 153//153 151//151 154//154
f 149//149 151//151 153//153
f 155//155 156//156 157//157
f 152//152 158//158 150//150
f 159//159 155//155 157//157
f 160//160 158//158 152//152
f 160//160 161//161 158//158
f 160//160 162//162 161//161
f 159//159 163//163 164//164
f 165//165 154//154 166//166
f 153//153 154//154 165//165
f 159//159 157//157 163//163
f 167//167 166//166 168//168
f 164//164 163//163 169//169
f 165//165 166//166 167//167
f 162//162 170//170 161//161
f 162//162 171//171 170//170
f 164//164 169//169 172//172
f 171//171 173//173 170//170
f 171//171 174//174 173//173
f 172//172 175//175 176//176
f 177//177 168//168 178//178
f 172//172 169//169 175//175
f 167//167 168//168 177//177
f 179//179 178//178 180//180
f 179//179 177//177 178//178
f 176//176 175//175 181//181
f 174//174 182//182 173//173
f 174//174 183//183 182//182
f 183//183 180//180 182//182
f 183//183 179//179 180//180
f 176//176 181//181 184//184
