v -0.12066 -0.04666 -0.24000
v -0.11500 -0.04666 -0.24566
v -0.11500 -0.04900 -0.24000
v -0.12066 -0.04100 -0.24566
v -0.11500 -0.04100 -0.24800
v -0.12300 -0.04100 -0.24000
v -0.12066 0.04100 -0.24566
v -0.12066 -0.04666 0.24000
v 0.11500 -0.04900 -0.24000
v 0.11500 -0.04100 -0.24800
v -0.11500 -0.04900 0.24000
v -0.12300 -0.04100 0.24000
v -0.12300 0.04100 0.24000
v -0.11500 -0.04666 0.24566
v -0.12066 -0.04100 0.24566
v -0.11500 -0.04100 0.24800
v -0.12066 0.04100 0.24566
v 0.11500 -0.04900 0.24000
v 0.11500 -0.04666 0.24566
v 0.11500 -0.04100 0.24800
v -0.11500 0.04100 0.24800
v -0.11500 0.04100 -0.24800
v -0.12300 0.04100 -0.24000
v -0.11500 0.04666 -0.24566
v -0.12066 0.04666 -0.24000
v -0.11500 0.04900 -0.24000
v -0.11500 0.04900 0.24000
v 0.11500 0.04100 -0.24800
v 0.11500 0.04900 -0.24000
v -0.12066 0.04666 0.24000
v -0.07500 0.04900 0.12500
v -0.06495 0.04900 0.08750
v -0.03750 0.04900 0.06005
v -0.11500 0.04666 0.24566
v -0.06495 0.04900 0.16250
v -0.03750 0.04900 0.18995
v 0.00000 0.04900 0.05000
v 0.00000 0.04900 0.20000
v 0.11500 0.04100 0.24800
v 0.11500 0.04900 0.24000
v 0.11500 -0.04666 -0.24566
v 0.12066 -0.04666 -0.24000
v 0.12066 -0.04100 -0.24566
v 0.12300 -0.04100 -0.24000
v 0.12066 0.04100 -0.24566
v 0.12066 -0.04666 0.24000
v 0.12300 0.04100 -0.24000
v 0.12300 -0.04100 0.24000
v 0.12066 -0.04100 0.24566
v 0.12300 0.04100 0.24000
v 0.11500 0.04666 -0.24566
v 0.12066 0.04666 -0.24000
v 0.03750 0.04900 0.06005
v 0.11500 0.04666 0.24566
v 0.03750 0.04900 0.18995
v 0.06495 0.04900 0.08750
v 0.07500 0.04900 0.12500
v 0.12066 0.04666 0.24000
v 0.06495 0.04900 0.16250
v 0.12066 0.04100 0.24566
v -0.06495 0.09900 0.08750
v -0.06495 0.04900 0.08750
v -0.07500 0.04900 0.12500
v -0.07500 0.09900 0.12500
v -0.06495 0.04900 0.16250
v -0.06495 0.09900 0.16250
v -0.06495 0.09900 0.16250
v -0.06495 0.09900 0.08750
v -0.07500 0.09900 0.12500
v -0.03750 0.09900 0.06005
v -0.03750 0.04900 0.06005
v 0.00000 0.09900 0.05000
v 0.00000 0.04900 0.05000
v -0.03750 0.04900 0.18995
v -0.03750 0.09900 0.06005
v -0.03750 0.09900 0.18995
v -0.03750 0.09900 0.18995
v 0.00000 0.04900 0.20000
v 0.00000 0.09900 0.05000
v 0.00000 0.09900 0.20000
v 0.00000 0.09900 0.20000
v 0.03750 0.09900 0.06005
v 0.03750 0.04900 0.06005
v 0.06495 0.09900 0.08750
v 0.06495 0.04900 0.08750
v 0.03750 0.04900 0.18995
v 0.03750 0.09900 0.06005
v 0.03750 0.09900 0.18995
v 0.03750 0.09900 0.18995
v 0.06495 0.04900 0.16250
v 0.06495 0.09900 0.08750
v 0.06495 0.09900 0.16250
v 0.06495 0.09900 0.16250
v 0.07500 0.09900 0.12500
v 0.07500 0.04900 0.12500
v 0.07500 0.09900 0.12500
v -0.07719 -0.05006 -0.38200
v -0.07071 -0.07071 -0.35000
v -0.09239 -0.03827 -0.35000
v -0.07941 -0.04298 -0.30702
v -0.05006 -0.07719 -0.38200
v -0.04298 -0.07941 -0.30702
v -0.10000 0.00000 -0.35000
v -0.09239 -0.00627 -0.38200
v -0.09239 0.00000 -0.31173
v -0.09363 0.00000 -0.38200
v -0.08273 -0.04177 -0.38200
v -0.04298 -0.04298 -0.27059
v -0.07071 0.00000 -0.27929
v -0.03827 -0.09239 -0.35000
v -0.04177 -0.08273 -0.38200
v -0.00627 -0.09239 -0.38200
v 0.00000 -0.09239 -0.31173
v 0.00000 -0.10000 -0.35000
v 0.00000 -0.09363 -0.38200
v 0.00000 -0.07071 -0.27929
v 0.00000 -0.03827 -0.25761
v -0.03827 0.00000 -0.25761
v 0.00000 0.00000 -0.25000
v -0.09239 0.00627 -0.38200
v -0.09239 0.03827 -0.35000
v -0.07941 0.04298 -0.30702
v -0.08273 0.04177 -0.38200
v -0.07719 0.05006 -0.38200
v -0.04298 0.04298 -0.27059
v -0.07071 0.07071 -0.35000
v -0.05006 0.07719 -0.38200
v -0.04298 0.07941 -0.30702
v 0.00000 0.03827 -0.25761
v -0.03827 0.09239 -0.35000
v -0.04177 0.08273 -0.38200
v 0.00000 0.07071 -0.27929
v -0.00627 0.09239 -0.38200
v 0.00000 0.09239 -0.31173
v 0.00000 0.10000 -0.35000
v 0.00000 0.09363 -0.38200
v 0.00627 -0.09239 -0.38200
v 0.03827 -0.09239 -0.35000
v 0.04177 -0.08273 -0.38200
v 0.04298 -0.07941 -0.30702
v 0.04298 -0.04298 -0.27059
v 0.05006 -0.07719 -0.38200
v 0.07071 -0.07071 -0.35000
v 0.07941 -0.04298 -0.30702
v 0.03827 0.00000 -0.25761
v 0.07071 0.00000 -0.27929
v 0.07719 -0.05006 -0.38200
v 0.09239 -0.03827 -0.35000
v 0.08273 -0.04177 -0.38200
v 0.09239 -0.00627 -0.38200
v 0.09239 0.00000 -0.31173
v 0.10000 0.00000 -0.35000
v 0.09363 0.00000 -0.38200
v 0.04298 0.04298 -0.27059
v 0.04298 0.07941 -0.30702
v 0.00627 0.09239 -0.38200
v 0.03827 0.09239 -0.35000
v 0.04177 0.08273 -0.38200
v 0.07941 0.04298 -0.30702
v 0.05006 0.07719 -0.38200
v 0.07071 0.07071 -0.35000
v 0.08273 0.04177 -0.38200
v 0.09239 0.03827 -0.35000
v 0.09239 0.00627 -0.38200
v 0.07719 0.05006 -0.38200
v -0.07021 -0.02908 -0.35000
v -0.06022 -0.03309 -0.38200
v -0.06055 -0.03259 -0.38200
v -0.06218 -0.02662 -0.38200
v -0.07021 0.00000 -0.37908
v -0.07021 0.00000 -0.32092
v -0.06035 -0.03266 -0.31734
v -0.07600 0.00000 -0.35000
v -0.06827 0.00000 -0.38200
v -0.03309 -0.06022 -0.38200
v -0.02908 -0.07021 -0.35000
v -0.03259 -0.06055 -0.38200
v -0.05374 -0.05374 -0.35000
v -0.03266 -0.06035 -0.31734
v -0.02662 -0.06218 -0.38200
v 0.00000 -0.07021 -0.37908
v 0.00000 -0.07021 -0.32092
v 0.00000 -0.07600 -0.35000
v 0.00000 -0.06827 -0.38200
v 0.00000 -0.05374 -0.29626
v -0.03266 -0.03266 -0.28965
v -0.05374 0.00000 -0.29626
v -0.02908 0.00000 -0.27979
v 0.00000 -0.02908 -0.27979
v 0.00000 0.00000 -0.27400
v -0.07021 0.02908 -0.35000
v -0.06218 0.02662 -0.38200
v -0.06035 0.03266 -0.31734
v -0.06055 0.03259 -0.38200
v -0.06022 0.03309 -0.38200
v -0.03266 0.03266 -0.28965
v -0.05374 0.05374 -0.35000
v -0.03309 0.06022 -0.38200
v -0.03266 0.06035 -0.31734
v 0.00000 0.02908 -0.27979
v 0.00000 0.05374 -0.29626
v -0.02908 0.07021 -0.35000
v -0.03259 0.06055 -0.38200
v -0.02662 0.06218 -0.38200
v 0.00000 0.07021 -0.37908
v 0.00000 0.07021 -0.32092
v 0.00000 0.06827 -0.38200
v 0.00000 0.07600 -0.35000
v 0.02908 -0.07021 -0.35000
v 0.02662 -0.06218 -0.38200
v 0.03266 -0.06035 -0.31734
v 0.03259 -0.06055 -0.38200
v 0.03309 -0.06022 -0.38200
v 0.05374 -0.05374 -0.35000
v 0.03266 -0.03266 -0.28965
v 0.02908 0.00000 -0.27979
v 0.06035 -0.03266 -0.31734
v 0.06022 -0.03309 -0.38200
v 0.07021 -0.02908 -0.35000
v 0.05374 0.00000 -0.29626
v 0.07021 0.00000 -0.32092
v 0.06055 -0.03259 -0.38200
v 0.06218 -0.02662 -0.38200
v 0.07021 0.00000 -0.37908
v 0.06827 0.00000 -0.38200
v 0.07600 0.00000 -0.35000
v 0.03266 0.03266 -0.28965
v 0.03266 0.06035 -0.31734
v 0.06035 0.03266 -0.31734
v 0.06022 0.03309 -0.38200
v 0.05374 0.05374 -0.35000
v 0.03309 0.06022 -0.38200
v 0.07021 0.02908 -0.35000
v 0.02662 0.06218 -0.38200
v 0.02908 0.07021 -0.35000
v 0.03259 0.06055 -0.38200
v 0.06218 0.02662 -0.38200
v 0.06055 0.03259 -0.38200
v -0.07719 -0.05006 -0.38200
v -0.06218 -0.02662 -0.38200
v -0.05006 -0.07719 -0.38200
v -0.08273 -0.04177 -0.38200
v -0.09239 -0.00627 -0.38200
v -0.06827 0.00000 -0.38200
v -0.09363 0.00000 -0.38200
v -0.06022 -0.03309 -0.38200
v -0.03309 -0.06022 -0.38200
v -0.04177 -0.08273 -0.38200
v -0.03259 -0.06055 -0.38200
v -0.02662 -0.06218 -0.38200
v -0.00627 -0.09239 -0.38200
v 0.00000 -0.06827 -0.38200
v 0.00000 -0.09363 -0.38200
v -0.06055 -0.03259 -0.38200
v -0.09239 0.00627 -0.38200
v -0.08273 0.04177 -0.38200
v -0.06218 0.02662 -0.38200
v -0.07719 0.05006 -0.38200
v -0.06055 0.03259 -0.38200
v -0.06022 0.03309 -0.38200
v -0.03309 0.06022 -0.38200
v -0.05006 0.07719 -0.38200
v -0.03259 0.06055 -0.38200
v -0.04177 0.08273 -0.38200
v -0.02662 0.06218 -0.38200
v 0.00000 0.06827 -0.38200
v -0.00627 0.09239 -0.38200
v 0.00000 0.09363 -0.38200
v 0.00627 -0.09239 -0.38200
v 0.04177 -0.08273 -0.38200
v 0.02662 -0.06218 -0.38200
v 0.03259 -0.06055 -0.38200
v 0.05006 -0.07719 -0.38200
v 0.03309 -0.06022 -0.38200
v 0.07719 -0.05006 -0.38200
v 0.06022 -0.03309 -0.38200
v 0.06055 -0.03259 -0.38200
v 0.06218 -0.02662 -0.38200
v 0.08273 -0.04177 -0.38200
v 0.06827 0.00000 -0.38200
v 0.09239 -0.00627 -0.38200
v 0.09363 0.00000 -0.38200
v 0.06055 0.03259 -0.38200
v 0.05006 0.07719 -0.38200
v 0.06218 0.02662 -0.38200
v 0.06022 0.03309 -0.38200
v 0.00627 0.09239 -0.38200
v 0.02662 0.06218 -0.38200
v 0.03259 0.06055 -0.38200
v 0.04177 0.08273 -0.38200
v 0.03309 0.06022 -0.38200
v 0.09239 0.00627 -0.38200
v 0.08273 0.04177 -0.38200
v 0.07719 0.05006 -0.38200
vn -0.6887 -0.6887 -0.2265
vn -0.2265 -0.6887 -0.6887
vn -0.1877 -0.9641 -0.1877
vn -0.6887 -0.2265 -0.6887
vn -0.1877 -0.1877 -0.9641
vn -0.9641 -0.1877 -0.1877
vn -0.6887 0.2265 -0.6887
vn -0.6887 -0.6887 0.2265
vn 0.1877 -0.9641 -0.1877
vn 0.1877 -0.1877 -0.9641
vn -0.1877 -0.9641 0.1877
vn -0.9641 -0.1877 0.1877
vn -0.9641 0.1877 0.1877
vn -0.2265 -0.6887 0.6887
vn -0.6887 -0.2265 0.6887
vn -0.1877 -0.1877 0.9641
vn -0.6887 0.2265 0.6887
vn 0.1877 -0.9641 0.1877
vn 0.2265 -0.6887 0.6887
vn 0.1877 -0.1877 0.9641
vn -0.1877 0.1877 0.9641
vn -0.1877 0.1877 -0.9641
vn -0.9641 0.1877 -0.1877
vn -0.2265 0.6887 -0.6887
vn -0.6887 0.6887 -0.2265
vn -0.1877 0.9641 -0.1877
vn -0.1877 0.9641 0.1877
vn 0.1877 0.1877 -0.9641
vn 0.1877 0.9641 -0.1877
vn -0.6887 0.6887 0.2265
vn 0.0000 1.0000 0.0000
vn 0.0000 1.0000 0.0000
vn 0.0000 1.0000 0.0000
vn -0.2265 0.6887 0.6887
vn 0.0000 1.0000 0.0000
vn 0.0000 1.0000 0.0000
vn 0.0000 1.0000 0.0000
vn 0.0000 1.0000 0.0000
vn 0.1877 0.1877 0.9641
vn 0.1877 0.9641 0.1877
vn 0.2265 -0.6887 -0.6887
vn 0.6887 -0.6887 -0.2265
vn 0.6887 -0.2265 -0.6887
vn 0.9641 -0.1877 -0.1877
vn 0.6887 0.2265 -0.6887
vn 0.6887 -0.6887 0.2265
vn 0.9641 0.1877 -0.1877
vn 0.9641 -0.1877 0.1877
vn 0.6887 -0.2265 0.6887
vn 0.9641 0.1877 0.1877
vn 0.2265 0.6887 -0.6887
vn 0.6887 0.6887 -0.2265
vn 0.0000 1.0000 0.0000
vn 0.2265 0.6887 0.6887
vn 0.0000 1.0000 0.0000
vn 0.0000 1.0000 0.0000
vn 0.0000 1.0000 0.0000
vn 0.6887 0.6887 0.2265
vn 0.0000 1.0000 0.0000
vn 0.6887 0.2265 0.6887
vn -0.8660 0.0000 -0.5000
vn -0.8660 0.0000 -0.5000
vn -1.0000 0.0000 -0.0000
vn -1.0000 0.0000 0.0000
vn -0.8660 0.0000 0.5000
vn -0.8660 0.0000 0.5000
vn 0.0000 1.0000 0.0000
vn 0.0000 1.0000 0.0000
vn 0.0000 1.0000 0.0000
vn -0.5000 0.0000 -0.8660
vn -0.5000 0.0000 -0.8660
vn 0.0000 0.0000 -1.0000
vn 0.0000 0.0000 -1.0000
vn -0.5000 0.0000 0.8660
vn 0.0000 1.0000 0.0000
vn 0.0000 1.0000 0.0000
vn -0.5000 0.0000 0.8660
vn 0.0000 0.0000 1.0000
vn 0.0000 1.0000 0.0000
vn 0.0000 1.0000 0.0000
vn 0.0000 0.0000 1.0000
vn 0.5000 0.0000 -0.8660
vn 0.5000 0.0000 -0.8660
vn 0.8660 0.0000 -0.5000
vn 0.8660 0.0000 -0.5000
vn 0.5000 0.0000 0.8660
vn 0.0000 1.0000 0.0000
vn 0.0000 1.0000 0.0000
vn 0.5000 0.0000 0.8660
vn 0.8660 0.0000 0.5000
vn 0.0000 1.0000 0.0000
vn 0.0000 1.0000 0.0000
vn 0.8660 0.0000 0.5000
vn 1.0000 0.0000 0.0000
vn 1.0000 0.0000 0.0000
vn 0.0000 1.0000 0.0000
vn -0.7742 -0.5915 -0.2250
vn -0.7071 -0.7071 0.0000
vn -0.9257 -0.3782 0.0000
vn -0.7838 -0.4391 0.4391
vn -0.5915 -0.7742 -0.2250
vn -0.4391 -0.7838 0.4391
vn -1.0000 0.0000 0.0000
vn -0.9558 -0.2079 -0.2079
vn -0.9257 0.0000 0.3782
vn -0.9808 0.0000 -0.1951
vn -0.8785 -0.4246 -0.2188
vn -0.4391 -0.4391 0.7838
vn -0.7071 -0.0000 0.7071
vn -0.3782 -0.9257 0.0000
vn -0.4246 -0.8785 -0.2188
vn -0.2079 -0.9558 -0.2079
vn -0.0000 -0.9257 0.3782
vn 0.0000 -1.0000 0.0000
vn 0.0000 -0.9808 -0.1951
vn -0.0000 -0.7071 0.7071
vn -0.0000 -0.3782 0.9257
vn -0.3782 0.0000 0.9257
vn 0.0000 0.0000 1.0000
vn -0.9558 0.2079 -0.2079
vn -0.9257 0.3782 0.0000
vn -0.7838 0.4391 0.4391
vn -0.8785 0.4246 -0.2188
vn -0.7742 0.5915 -0.2250
vn -0.4391 0.4391 0.7838
vn -0.7071 0.7071 0.0000
vn -0.5915 0.7742 -0.2250
vn -0.4391 0.7838 0.4391
vn 0.0000 0.3782 0.9257
vn -0.3782 0.9257 0.0000
vn -0.4246 0.8785 -0.2188
vn -0.0000 0.7071 0.7071
vn -0.2079 0.9558 -0.2079
vn -0.0000 0.9257 0.3782
vn 0.0000 1.0000 0.0000
vn 0.0000 0.9808 -0.1951
vn 0.2079 -0.9558 -0.2079
vn 0.3782 -0.9257 0.0000
vn 0.4246 -0.8785 -0.2188
vn 0.4391 -0.7838 0.4391
vn 0.4391 -0.4391 0.7838
vn 0.5915 -0.7742 -0.2250
vn 0.7071 -0.7071 0.0000
vn 0.7838 -0.4391 0.4391
vn 0.3782 0.0000 0.9257
vn 0.7071 0.0000 0.7071
vn 0.7742 -0.5915 -0.2250
vn 0.9257 -0.3782 0.0000
vn 0.8785 -0.4246 -0.2188
vn 0.9558 -0.2079 -0.2079
vn 0.9257 -0.0000 0.3782
vn 1.0000 0.0000 0.0000
vn 0.9808 0.0000 -0.1951
vn 0.4391 0.4391 0.7838
vn 0.4391 0.7838 0.4391
vn 0.2079 0.9558 -0.2079
vn 0.3782 0.9257 0.0000
vn 0.4246 0.8785 -0.2188
vn 0.7838 0.4391 0.4391
vn 0.5915 0.7742 -0.2250
vn 0.7071 0.7071 -0.0000
vn 0.8785 0.4246 -0.2188
vn 0.9257 0.3782 0.0000
vn 0.9558 0.2079 -0.2079
vn 0.7742 0.5915 -0.2250
vn 0.9257 0.3782 -0.0000
vn 0.7742 0.5915 0.2250
vn 0.8785 0.4246 0.2188
vn 0.9305 0.2518 0.2660
vn 0.9257 0.0000 0.3782
vn 0.9257 0.0000 -0.3782
vn 0.7838 0.4391 -0.4391
vn 1.0000 0.0000 0.0000
vn 0.8315 0.0000 0.5556
vn 0.5915 0.7742 0.2250
vn 0.3782 0.9257 -0.0000
vn 0.4246 0.8785 0.2188
vn 0.7071 0.7071 -0.0000
vn 0.4391 0.7838 -0.4391
vn 0.2518 0.9305 0.2660
vn -0.0000 0.9257 0.3782
vn -0.0000 0.9257 -0.3782
vn 0.0000 1.0000 0.0000
vn 0.0000 0.8315 0.5556
vn -0.0000 0.7071 -0.7071
vn 0.4391 0.4391 -0.7838
vn 0.7071 0.0000 -0.7071
vn 0.3782 0.0000 -0.9257
vn -0.0000 0.3782 -0.9257
vn 0.0000 0.0000 -1.0000
vn 0.9257 -0.3782 -0.0000
vn 0.9305 -0.2518 0.2660
vn 0.7838 -0.4391 -0.4391
vn 0.8785 -0.4246 0.2188
vn 0.7742 -0.5915 0.2250
vn 0.4391 -0.4391 -0.7838
vn 0.7071 -0.7071 -0.0000
vn 0.5915 -0.7742 0.2250
vn 0.4391 -0.7838 -0.4391
vn -0.0000 -0.3782 -0.9257
vn 0.0000 -0.7071 -0.7071
vn 0.3782 -0.9257 0.0000
vn 0.4246 -0.8785 0.2188
vn 0.2518 -0.9305 0.2660
vn 0.0000 -0.9257 0.3782
vn -0.0000 -0.9257 -0.3782
vn -0.0000 -0.8315 0.5556
vn 0.0000 -1.0000 0.0000
vn -0.3782 0.9257 -0.0000
vn -0.2518 0.9305 0.2660
vn -0.4391 0.7838 -0.4391
vn -0.4246 0.8785 0.2188
vn -0.5915 0.7742 0.2250
vn -0.7071 0.7071 0.0000
vn -0.4391 0.4391 -0.7838
vn -0.3782 -0.0000 -0.9257
vn -0.7838 0.4391 -0.4391
vn -0.7742 0.5915 0.2250
vn -0.9257 0.3782 -0.0000
vn -0.7071 -0.0000 -0.7071
vn -0.9257 0.0000 -0.3782
vn -0.8785 0.4246 0.2188
vn -0.9305 0.2518 0.2660
vn -0.9257 -0.0000 0.3782
vn -0.8315 -0.0000 0.5556
vn -1.0000 0.0000 0.0000
vn -0.4391 -0.4391 -0.7838
vn -0.4391 -0.7838 -0.4391
vn -0.7838 -0.4391 -0.4391
vn -0.7742 -0.5915 0.2250
vn -0.7071 -0.7071 -0.0000
vn -0.5915 -0.7742 0.2250
vn -0.9257 -0.3782 -0.0000
vn -0.2518 -0.9305 0.2660
vn -0.3782 -0.9257 0.0000
vn -0.4246 -0.8785 0.2188
vn -0.9305 -0.2518 0.2660
vn -0.8785 -0.4246 0.2188
vn 0.0000 0.0000 -1.0000
vn 0.0000 0.0000 -1.0000
vn 0.0000 0.0000 -1.0000
vn 0.0000 0.0000 -1.0000
vn 0.0000 0.0000 -1.0000
vn 0.0000 0.0000 -1.0000
vn 0.0000 0.0000 -1.0000
vn 0.0000 0.0000 -1.0000
vn 0.0000 0.0000 -1.0000
vn 0.0000 0.0000 -1.0000
vn 0.0000 0.0000 -1.0000
vn 0.0000 0.0000 -1.0000
vn 0.0000 0.0000 -1.0000
vn 0.0000 0.0000 -1.0000
vn 0.0000 0.0000 -1.0000
vn 0.0000 0.0000 -1.0000
vn 0.0000 0.0000 -1.0000
vn 0.0000 0.0000 -1.0000
vn 0.0000 0.0000 -1.0000
vn 0.0000 0.0000 -1.0000
vn 0.0000 0.0000 -1.0000
vn 0.0000 0.0000 -1.0000
vn 0.0000 0.0000 -1.0000
vn 0.0000 0.0000 -1.0000
vn 0.0000 0.0000 -1.0000
vn 0.0000 0.0000 -1.0000
vn 0.0000 0.0000 -1.0000
vn 0.0000 0.0000 -1.0000
vn 0.0000 0.0000 -1.0000
vn 0.0000 0.0000 -1.0000
vn 0.0000 0.0000 -1.0000
vn 0.0000 0.0000 -1.0000
vn 0.0000 0.0000 -1.0000
vn 0.0000 0.0000 -1.0000
vn 0.0000 0.0000 -1.0000
vn 0.0000 0.0000 -1.0000
vn 0.0000 0.0000 -1.0000
vn 0.0000 0.0000 -1.0000
vn 0.0000 0.0000 -1.0000
vn 0.0000 0.0000 -1.0000
vn 0.0000 0.0000 -1.0000
vn 0.0000 0.0000 -1.0000
vn 0.0000 0.0000 -1.0000
vn 0.0000 0.0000 -1.0000
vn 0.0000 0.0000 -1.0000
vn 0.0000 0.0000 -1.0000
vn 0.0000 0.0000 -1.0000
vn 0.0000 0.0000 -1.0000
vn 0.0000 0.0000 -1.0000
vn 0.0000 0.0000 -1.0000
vn 0.0000 0.0000 -1.0000
vn 0.0000 0.0000 -1.0000
vn 0.0000 0.0000 -1.0000
vn 0.0000 0.0000 -1.0000
vn 0.0000 0.0000 -1.0000
vn 0.0000 0.0000 -1.0000
f 1//1 2//2 3//3
f 1//1 4//4 2//2
f 4//4 5//5 2//2
f 1//1 6//6 4//4
f 4//4 7//7 5//5
f 4//4 6//6 7//7
f 1//1 8//8 6//6
f 1//1 3//3 8//8
f 2//2 9//9 3//3
f 2//2 5//5 10//10
f 3//3 11//11 8//8
f 6//6 8//8 12//12
f 6//6 12//12 13//13
f 8//8 11//11 14//14
f 8//8 14//14 15//15
f 8//8 15//15 12//12
f 15//15 14//14 16//16
f 12//12 15//15 17//17
f 15//15 16//16 17//17
f 3//3 18//18 11//11
f 11//11 19//19 14//14
f 14//14 19//19 16//16
f 16//16 20//20 21//21
f 5//5 7//7 22//22
f 6//6 23//23 7//7
f 7//7 24//24 22//22
f 7//7 23//23 25//25
f 7//7 25//25 24//24
f 25//25 26//26 24//24
f 6//6 13//13 23//23
f 23//23 13//13 25//25
f 25//25 27//27 26//26
f 5//5 22//22 28//28
f 22//22 24//24 28//28
f 24//24 26//26 29//29
f 25//25 13//13 30//30
f 25//25 30//30 27//27
f 26//26 27//27 31//31
f 26//26 31//31 32//32
f 26//26 32//32 33//33
f 12//12 17//17 13//13
f 16//16 21//21 17//17
f 13//13 17//17 30//30
f 17//17 21//21 34//34
f 17//17 34//34 30//30
f 30//30 34//34 27//27
f 27//27 35//35 31//31
f 27//27 36//36 35//35
f 26//26 33//33 37//37
f 27//27 38//38 36//36
f 21//21 39//39 34//34
f 34//34 40//40 27//27
f 2//2 10//10 41//41
f 2//2 41//41 9//9
f 5//5 28//28 10//10
f 3//3 9//9 18//18
f 41//41 42//42 9//9
f 41//41 43//43 42//42
f 41//41 10//10 43//43
f 42//42 43//43 44//44
f 10//10 45//45 43//43
f 43//43 45//45 44//44
f 9//9 42//42 46//46
f 42//42 44//44 46//46
f 44//44 47//47 48//48
f 11//11 18//18 19//19
f 16//16 19//19 20//20
f 9//9 46//46 18//18
f 44//44 48//48 46//46
f 18//18 46//46 19//19
f 19//19 46//46 49//49
f 19//19 49//49 20//20
f 46//46 48//48 49//49
f 20//20 49//49 39//39
f 49//49 48//48 50//50
f 24//24 51//51 28//28
f 24//24 29//29 51//51
f 26//26 37//37 29//29
f 10//10 28//28 45//45
f 44//44 45//45 47//47
f 28//28 51//51 45//45
f 45//45 52//52 47//47
f 51//51 52//52 45//45
f 51//51 29//29 52//52
f 47//47 52//52 50//50
f 29//29 40//40 52//52
f 29//29 37//37 53//53
f 27//27 40//40 38//38
f 21//21 20//20 39//39
f 34//34 39//39 54//54
f 34//34 54//54 40//40
f 40//40 55//55 38//38
f 29//29 53//53 56//56
f 29//29 56//56 57//57
f 48//48 47//47 50//50
f 29//29 57//57 40//40
f 52//52 40//40 58//58
f 52//52 58//58 50//50
f 40//40 59//59 55//55
f 40//40 57//57 59//59
f 49//49 60//60 39//39
f 49//49 50//50 60//60
f 39//39 60//60 54//54
f 60//60 50//50 58//58
f 54//54 60//60 58//58
f 54//54 58//58 40//40
f 61//61 62//62 63//63
f 64//64 63//63 65//65
f 64//64 61//61 63//63
f 66//66 64//64 65//65
f 67//67 68//68 69//69
f 70//70 71//71 62//62
f 61//61 70//70 62//62
f 72//72 73//73 71//71
f 70//70 72//72 71//71
f 66//66 65//65 74//74
f 67//67 75//75 68//68
f 67//67 76//76 75//75
f 66//66 74//74 77//77
f 77//77 74//74 78//78
f 76//76 79//79 75//75
f 76//76 80//80 79//79
f 77//77 78//78 81//81
f 82//82 83//83 73//73
f 72//72 82//82 73//73
f 84//84 85//85 83//83
f 82//82 84//84 83//83
f 81//81 78//78 86//86
f 80//80 87//87 79//79
f 80//80 88//88 87//87
f 81//81 86//86 89//89
f 89//89 86//86 90//90
f 88//88 91//91 87//87
f 88//88 92//92 91//91
f 89//89 90//90 93//93
f 94//94 95//95 85//85
f 93//93 90//90 95//95
f 94//94 85//85 84//84
f 93//93 95//95 94//94
f 92//92 96//96 91//91
f 97//97 98//98 99//99
f 98//98 100//100 99//99
f 97//97 101//101 98//98
f 98//98 102//102 100//100
f 99//99 103//103 104//104
f 99//99 105//105 103//103
f 104//104 103//103 106//106
f 97//97 99//99 107//107
f 99//99 104//104 107//107
f 99//99 100//100 105//105
f 100//100 108//108 109//109
f 100//100 109//109 105//105
f 98//98 101//101 110//110
f 98//98 110//110 102//102
f 101//101 111//111 110//110
f 100//100 102//102 108//108
f 110//110 111//111 112//112
f 110//110 113//113 102//102
f 110//110 112//112 114//114
f 112//112 115//115 114//114
f 110//110 114//114 113//113
f 102//102 113//113 116//116
f 102//102 116//116 108//108
f 108//108 116//116 117//117
f 108//108 118//118 109//109
f 108//108 117//117 118//118
f 118//118 117//117 119//119
f 103//103 120//120 106//106
f 103//103 121//121 120//120
f 103//103 105//105 121//121
f 105//105 109//109 122//122
f 120//120 121//121 123//123
f 105//105 122//122 121//121
f 121//121 124//124 123//123
f 109//109 125//125 122//122
f 121//121 126//126 124//124
f 121//121 122//122 126//126
f 124//124 126//126 127//127
f 122//122 128//128 126//126
f 109//109 118//118 125//125
f 118//118 119//119 129//129
f 118//118 129//129 125//125
f 122//122 125//125 128//128
f 126//126 130//130 127//127
f 126//126 128//128 130//130
f 127//127 130//130 131//131
f 125//125 132//132 128//128
f 125//125 129//129 132//132
f 131//131 130//130 133//133
f 128//128 134//134 130//130
f 130//130 135//135 133//133
f 133//133 135//135 136//136
f 130//130 134//134 135//135
f 128//128 132//132 134//134
f 114//114 115//115 137//137
f 114//114 137//137 138//138
f 114//114 138//138 113//113
f 137//137 139//139 138//138
f 113//113 138//138 140//140
f 113//113 140//140 116//116
f 116//116 141//141 117//117
f 116//116 140//140 141//141
f 138//138 139//139 142//142
f 138//138 142//142 143//143
f 138//138 143//143 140//140
f 140//140 144//144 141//141
f 117//117 141//141 145//145
f 117//117 145//145 119//119
f 141//141 146//146 145//145
f 142//142 147//147 143//143
f 140//140 143//143 144//144
f 143//143 147//147 148//148
f 143//143 148//148 144//144
f 147//147 149//149 148//148
f 149//149 150//150 148//148
f 144//144 148//148 151//151
f 141//141 144//144 146//146
f 144//144 151//151 146//146
f 148//148 150//150 152//152
f 148//148 152//152 151//151
f 150//150 153//153 152//152
f 119//119 145//145 129//129
f 129//129 145//145 154//154
f 145//145 146//146 154//154
f 129//129 154//154 132//132
f 154//154 155//155 132//132
f 136//136 135//135 156//156
f 156//156 135//135 157//157
f 135//135 134//134 157//157
f 156//156 157//157 158//158
f 134//134 155//155 157//157
f 132//132 155//155 134//134
f 154//154 159//159 155//155
f 158//158 157//157 160//160
f 157//157 161//161 160//160
f 155//155 161//161 157//157
f 146//146 151//151 159//159
f 162//162 163//163 164//164
f 159//159 151//151 163//163
f 162//162 165//165 163//163
f 154//154 146//146 159//159
f 153//153 164//164 152//152
f 164//164 163//163 152//152
f 152//152 163//163 151//151
f 160//160 161//161 165//165
f 155//155 159//159 161//161
f 163//163 165//165 161//161
f 159//159 163//163 161//161
f 166//166 167//167 168//168
f 166//166 168//168 169//169
f 166//166 169//169 170//170
f 166//166 171//171 172//172
f 166//166 170//170 173//173
f 169//169 174//174 170//170
f 166//166 173//173 171//171
f 175//175 176//176 177//177
f 178//178 176//176 175//175
f 178//178 179//179 176//176
f 177//177 176//176 180//180
f 176//176 181//181 180//180
f 179//179 182//182 176//176
f 176//176 183//183 181//181
f 180//180 181//181 184//184
f 176//176 182//182 183//183
f 179//179 185//185 182//182
f 166//166 178//178 167//167
f 178//178 175//175 167//167
f 166//166 172//172 178//178
f 178//178 172//172 179//179
f 179//179 172//172 186//186
f 172//172 171//171 187//187
f 172//172 187//187 186//186
f 186//186 187//187 188//188
f 179//179 186//186 185//185
f 186//186 189//189 185//185
f 186//186 188//188 189//189
f 188//188 190//190 189//189
f 170//170 191//191 173//173
f 170//170 174//174 192//192
f 173//173 191//191 171//171
f 170//170 192//192 191//191
f 171//171 191//191 193//193
f 191//191 192//192 194//194
f 191//191 194//194 195//195
f 171//171 193//193 187//187
f 187//187 193//193 196//196
f 187//187 196//196 188//188
f 191//191 195//195 197//197
f 195//195 198//198 197//197
f 191//191 197//197 193//193
f 193//193 197//197 199//199
f 193//193 199//199 196//196
f 196//196 200//200 188//188
f 188//188 200//200 190//190
f 196//196 199//199 201//201
f 196//196 201//201 200//200
f 197//197 198//198 202//202
f 197//197 202//202 199//199
f 198//198 203//203 202//202
f 203//203 204//204 202//202
f 204//204 205//205 202//202
f 199//199 202//202 206//206
f 199//199 206//206 201//201
f 204//204 207//207 205//205
f 202//202 205//205 208//208
f 202//202 208//208 206//206
f 183//183 209//209 181//181
f 181//181 210//210 184//184
f 183//183 182//182 209//209
f 182//182 185//185 211//211
f 181//181 209//209 210//210
f 209//209 212//212 210//210
f 182//182 211//211 209//209
f 209//209 213//213 212//212
f 209//209 214//214 213//213
f 209//209 211//211 214//214
f 185//185 189//189 215//215
f 185//185 215//215 211//211
f 189//189 190//190 216//216
f 189//189 216//216 215//215
f 211//211 215//215 217//217
f 213//213 214//214 218//218
f 214//214 219//219 218//218
f 211//211 217//217 214//214
f 214//214 217//217 219//219
f 217//217 220//220 221//221
f 215//215 216//216 220//220
f 217//217 215//215 220//220
f 218//218 219//219 222//222
f 222//222 219//219 223//223
f 223//223 219//219 224//224
f 217//217 221//221 219//219
f 223//223 224//224 225//225
f 219//219 226//226 224//224
f 219//219 221//221 226//226
f 190//190 200//200 216//216
f 216//216 200//200 227//227
f 200//200 201//201 227//227
f 227//227 201//201 228//228
f 220//220 229//229 221//221
f 216//216 227//227 220//220
f 220//220 227//227 229//229
f 229//229 227//227 228//228
f 230//230 231//231 232//232
f 230//230 233//233 231//231
f 229//229 228//228 231//231
f 229//229 231//231 233//233
f 206//206 228//228 201//201
f 207//207 234//234 205//205
f 205//205 235//235 208//208
f 206//206 208//208 235//235
f 205//205 234//234 235//235
f 234//234 236//236 235//235
f 206//206 235//235 228//228
f 235//235 232//232 231//231
f 235//235 231//231 228//228
f 235//235 236//236 232//232
f 225//225 224//224 237//237
f 224//224 226//226 233//233
f 226//226 221//221 233//233
f 224//224 233//233 237//237
f 229//229 233//233 221//221
f 238//238 237//237 233//233
f 238//238 233//233 230//230
f 239//239 240//240 241//241
f 239//239 242//242 240//240
f 243//243 244//244 242//242
f 243//243 245//245 244//244
f 242//242 244//244 240//240
f 241//241 246//246 247//247
f 241//241 247//247 248//248
f 248//248 247//247 249//249
f 248//248 249//249 250//250
f 248//248 250//250 251//251
f 251//251 252//252 253//253
f 251//251 250//250 252//252
f 241//241 254//254 246//246
f 240//240 254//254 241//241
f 245//245 255//255 244//244
f 255//255 256//256 244//244
f 244//244 256//256 257//257
f 257//257 258//258 259//259
f 256//256 258//258 257//257
f 258//258 260//260 259//259
f 258//258 261//261 260//260
f 258//258 262//262 261//261
f 261//261 262//262 263//263
f 263//263 262//262 264//264
f 263//263 264//264 265//265
f 264//264 266//266 265//265
f 264//264 267//267 266//266
f 267//267 268//268 266//266
f 253//253 252//252 269//269
f 269//269 252//252 270//270
f 252//252 271//271 270//270
f 271//271 272//272 273//273
f 271//271 273//273 270//270
f 273//273 272//272 274//274
f 273//273 274//274 275//275
f 274//274 276//276 275//275
f 276//276 277//277 275//275
f 275//275 278//278 279//279
f 277//277 278//278 275//275
f 278//278 280//280 281//281
f 278//278 281//281 279//279
f 281//281 280//280 282//282
f 283//283 284//284 285//285
f 283//283 286//286 284//284
f 266//266 287//287 288//288
f 288//288 287//287 289//289
f 266//266 268//268 287//287
f 287//287 290//290 289//289
f 289//289 290//290 291//291
f 291//291 290//290 284//284
f 286//286 291//291 284//284
f 280//280 292//292 282//282
f 280//280 293//293 292//292
f 280//280 285//285 294//294
f 280//280 294//294 293//293
f 284//284 294//294 285//285
