v -0.12066 -0.04666 -0.24000
v -0.11500 -0.04666 -0.24566
v -0.11500 -0.04900 -0.24000
v -0.12300 -0.04100 -0.24000
v -0.12066 -0.04100 -0.24566
v -0.11500 -0.04100 -0.24800
v -0.12066 -0.04666 0.24000
v -0.12066 0.04100 -0.24566
v 0.11500 -0.04900 -0.24000
v 0.11500 -0.04100 -0.24800
v -0.11500 -0.04900 0.24000
v -0.12300 -0.04100 0.24000
v -0.11500 -0.04666 0.24566
v -0.12066 -0.04100 0.24566
v -0.11500 -0.04100 0.24800
v -0.12300 0.04100 0.24000
v -0.12066 0.04100 0.24566
v 0.11500 -0.04900 0.24000
v 0.11500 -0.04666 0.24566
v 0.11500 -0.04100 0.24800
v -0.11500 0.04100 0.24800
v -0.12300 0.04100 -0.24000
v -0.11500 0.04100 -0.24800
v -0.12066 0.04666 -0.24000
v -0.11500 0.04666 -0.24566
v -0.11500 0.04900 -0.24000
v -0.08300 0.04900 -0.16200
v -0.08300 0.04900 -0.18800
v -0.08300 0.04900 -0.10800
v -0.08300 0.04900 -0.08200
v -0.11500 0.04900 0.24000
v -0.08300 0.04900 -0.02800
v 0.11500 0.04100 -0.24800
v 0.11500 0.04900 -0.24000
v 0.08300 0.04900 -0.18800
v 0.08300 0.04900 -0.10800
v 0.08300 0.04900 -0.02800
v -0.12066 0.04666 0.24000
v -0.08300 0.04900 -0.00200
v -0.08300 0.04900 0.05200
v -0.08300 0.04900 0.07800
v -0.08300 0.04900 0.13200
v -0.08300 0.04900 0.15800
v -0.11500 0.04666 0.24566
v 0.08300 0.04900 0.05200
v 0.08300 0.04900 0.13200
v 0.11500 0.04100 0.24800
v 0.11500 0.04900 0.24000
v 0.11500 -0.04666 -0.24566
v 0.12066 -0.04666 -0.24000
v 0.12066 -0.04100 -0.24566
v 0.12300 -0.04100 -0.24000
v 0.12066 -0.04666 0.24000
v 0.12066 0.04100 -0.24566
v 0.12300 0.04100 -0.24000
v 0.12300 -0.04100 0.24000
v 0.12066 -0.04100 0.24566
v 0.12300 0.04100 0.24000
v 0.08300 0.04900 -0.16200
v 0.11500 0.04666 -0.24566
v 0.08300 0.04900 -0.08200
v 0.12066 0.04666 -0.24000
v 0.08300 0.04900 -0.00200
v 0.08300 0.04900 0.07800
v 0.08300 0.04900 0.15800
v 0.11500 0.04666 0.24566
v 0.12066 0.04100 0.24566
v 0.12066 0.04666 0.24000
v -0.08300 0.01100 -0.18800
v -0.08300 0.04900 -0.18800
v -0.08300 0.01100 -0.16200
v -0.08300 0.04900 -0.16200
v -0.08300 0.01100 -0.18800
v -0.08300 0.01100 -0.16200
v 0.08300 0.01100 -0.18800
v -0.08300 0.01100 -0.16200
v -0.08300 0.04900 -0.16200
v 0.08300 0.01100 -0.16200
v -0.08300 0.01100 -0.18800
v 0.08300 0.04900 -0.18800
v -0.08300 0.04900 -0.18800
v 0.08300 0.01100 -0.16200
v 0.08300 0.01100 -0.18800
v 0.08300 0.04900 -0.16200
v 0.08300 0.01100 -0.18800
v 0.08300 0.01100 -0.16200
v 0.08300 0.04900 -0.16200
v 0.08300 0.04900 -0.18800
v -0.08300 0.01100 -0.10800
v -0.08300 0.04900 -0.10800
v -0.08300 0.01100 -0.08200
v -0.08300 0.04900 -0.08200
v -0.08300 0.01100 -0.10800
v -0.08300 0.01100 -0.08200
v 0.08300 0.01100 -0.10800
v -0.08300 0.01100 -0.08200
v -0.08300 0.04900 -0.08200
v 0.08300 0.01100 -0.08200
v -0.08300 0.01100 -0.10800
v 0.08300 0.04900 -0.10800
v -0.08300 0.04900 -0.10800
v 0.08300 0.01100 -0.08200
v 0.08300 0.01100 -0.10800
v 0.08300 0.04900 -0.08200
v 0.08300 0.01100 -0.10800
v 0.08300 0.01100 -0.08200
v 0.08300 0.04900 -0.08200
v 0.08300 0.04900 -0.10800
v -0.08300 0.01100 -0.02800
v -0.08300 0.04900 -0.02800
v -0.08300 0.01100 -0.00200
v -0.08300 0.04900 -0.00200
v -0.08300 0.01100 -0.02800
v -0.08300 0.01100 -0.00200
v 0.08300 0.01100 -0.02800
v -0.08300 0.01100 -0.00200
v -0.08300 0.04900 -0.00200
v 0.08300 0.01100 -0.00200
v -0.08300 0.01100 -0.02800
v 0.08300 0.04900 -0.02800
v -0.08300 0.04900 -0.02800
v 0.08300 0.01100 -0.00200
v 0.08300 0.01100 -0.02800
v 0.08300 0.04900 -0.00200
v 0.08300 0.01100 -0.02800
v 0.08300 0.01100 -0.00200
v 0.08300 0.04900 -0.00200
v 0.08300 0.04900 -0.02800
v -0.08300 0.01100 0.05200
v -0.08300 0.04900 0.05200
v -0.08300 0.01100 0.07800
v -0.08300 0.04900 0.07800
v -0.08300 0.01100 0.05200
v -0.08300 0.01100 0.07800
v 0.08300 0.01100 0.05200
v -0.08300 0.01100 0.07800
v -0.08300 0.04900 0.07800
v 0.08300 0.01100 0.07800
v -0.08300 0.01100 0.05200
v 0.08300 0.04900 0.05200
v -0.08300 0.04900 0.05200
v 0.08300 0.01100 0.07800
v 0.08300 0.01100 0.05200
v 0.08300 0.04900 0.07800
v 0.08300 0.01100 0.05200
v 0.08300 0.01100 0.07800
v 0.08300 0.04900 0.07800
v 0.08300 0.04900 0.05200
v -0.08300 0.01100 0.13200
v -0.08300 0.04900 0.13200
v -0.08300 0.01100 0.15800
v -0.08300 0.04900 0.15800
v -0.08300 0.01100 0.13200
v -0.08300 0.01100 0.15800
v 0.08300 0.01100 0.13200
v -0.08300 0.01100 0.15800
v -0.08300 0.04900 0.15800
v 0.08300 0.01100 0.15800
v -0.08300 0.01100 0.13200
v 0.08300 0.04900 0.13200
v -0.08300 0.04900 0.13200
v 0.08300 0.01100 0.15800
v 0.08300 0.01100 0.13200
v 0.08300 0.04900 0.15800
v 0.08300 0.01100 0.13200
v 0.08300 0.01100 0.15800
v 0.08300 0.04900 0.15800
v 0.08300 0.04900 0.13200
vn -0.6887 -0.6887 -0.2265
vn -0.2265 -0.6887 -0.6887
vn -0.1877 -0.9641 -0.1877
vn -0.9641 -0.1877 -0.1877
vn -0.6887 -0.2265 -0.6887
vn -0.1877 -0.1877 -0.9641
vn -0.6887 -0.6887 0.2265
vn -0.6887 0.2265 -0.6887
vn 0.1877 -0.9641 -0.1877
vn 0.1877 -0.1877 -0.9641
vn -0.1877 -0.9641 0.1877
vn -0.9641 -0.1877 0.1877
vn -0.2265 -0.6887 0.6887
vn -0.6887 -0.2265 0.6887
vn -0.1877 -0.1877 0.9641
vn -0.9641 0.1877 0.1877
vn -0.6887 0.2265 0.6887
vn 0.1877 -0.9641 0.1877
vn 0.2265 -0.6887 0.6887
vn 0.1877 -0.1877 0.9641
vn -0.1877 0.1877 0.9641
vn -0.9641 0.1877 -0.1877
vn -0.1877 0.1877 -0.9641
vn -0.6887 0.6887 -0.2265
vn -0.2265 0.6887 -0.6887
vn -0.1877 0.9641 -0.1877
vn 0.0000 1.0000 0.0000
vn 0.0000 1.0000 0.0000
vn 0.0000 1.0000 0.0000
vn 0.0000 1.0000 0.0000
vn -0.1877 0.9641 0.1877
vn 0.0000 1.0000 0.0000
vn 0.1877 0.1877 -0.9641
vn 0.1877 0.9641 -0.1877
vn 0.0000 1.0000 0.0000
vn 0.0000 1.0000 0.0000
vn 0.0000 1.0000 0.0000
vn -0.6887 0.6887 0.2265
vn 0.0000 1.0000 0.0000
vn 0.0000 1.0000 0.0000
vn 0.0000 1.0000 0.0000
vn 0.0000 1.0000 0.0000
vn 0.0000 1.0000 0.0000
vn -0.2265 0.6887 0.6887
vn 0.0000 1.0000 0.0000
vn 0.0000 1.0000 0.0000
vn 0.1877 0.1877 0.9641
vn 0.1877 0.9641 0.1877
vn 0.2265 -0.6887 -0.6887
vn 0.6887 -0.6887 -0.2265
vn 0.6887 -0.2265 -0.6887
vn 0.9641 -0.1877 -0.1877
vn 0.6887 -0.6887 0.2265
vn 0.6887 0.2265 -0.6887
vn 0.9641 0.1877 -0.1877
vn 0.9641 -0.1877 0.1877
vn 0.6887 -0.2265 0.6887
vn 0.9641 0.1877 0.1877
vn 0.0000 1.0000 0.0000
vn 0.2265 0.6887 -0.6887
vn 0.0000 1.0000 0.0000
vn 0.6887 0.6887 -0.2265
vn 0.0000 1.0000 0.0000
vn 0.0000 1.0000 0.0000
vn 0.0000 1.0000 0.0000
vn 0.2265 0.6887 0.6887
vn 0.6887 0.2265 0.6887
vn 0.6887 0.6887 0.2265
vn 1.0000 0.0000 0.0000
vn 1.0000 0.0000 0.0000
vn 1.0000 0.0000 0.0000
vn 1.0000 0.0000 0.0000
vn 0.0000 1.0000 0.0000
vn 0.0000 1.0000 0.0000
vn 0.0000 1.0000 0.0000
vn 0.0000 0.0000 -1.0000
vn 0.0000 0.0000 -1.0000
vn 0.0000 0.0000 -1.0000
vn 0.0000 0.0000 1.0000
vn 0.0000 0.0000 1.0000
vn 0.0000 0.0000 1.0000
vn 0.0000 1.0000 0.0000
vn 0.0000 0.0000 1.0000
vn 0.0000 0.0000 -1.0000
vn -1.0000 0.0000 0.0000
vn -1.0000 0.0000 0.0000
vn -1.0000 0.0000 0.0000
vn -1.0000 0.0000 0.0000
vn 1.0000 0.0000 0.0000
vn 1.0000 0.0000 0.0000
vn 1.0000 0.0000 0.0000
vn 1.0000 0.0000 0.0000
vn 0.0000 1.0000 0.0000
vn 0.0000 1.0000 0.0000
vn 0.0000 1.0000 0.0000
vn 0.0000 0.0000 -1.0000
vn 0.0000 0.0000 -1.0000
vn 0.0000 0.0000 -1.0000
vn 0.0000 0.0000 1.0000
vn 0.0000 0.0000 1.0000
vn 0.0000 0.0000 1.0000
vn 0.0000 1.0000 0.0000
vn 0.0000 0.0000 1.0000
vn 0.0000 0.0000 -1.0000
vn -1.0000 0.0000 0.0000
vn -1.0000 0.0000 0.0000
vn -1.0000 0.0000 0.0000
vn -1.0000 0.0000 0.0000
vn 1.0000 0.0000 0.0000
vn 1.0000 0.0000 0.0000
vn 1.0000 0.0000 0.0000
vn 1.0000 0.0000 0.0000
vn 0.0000 1.0000 0.0000
vn 0.0000 1.0000 0.0000
vn 0.0000 1.0000 0.0000
vn 0.0000 0.0000 -1.0000
vn 0.0000 0.0000 -1.0000
vn 0.0000 0.0000 -1.0000
vn 0.0000 0.0000 1.0000
vn 0.0000 0.0000 1.0000
vn 0.0000 0.0000 1.0000
vn 0.0000 1.0000 0.0000
vn 0.0000 0.0000 1.0000
vn 0.0000 0.0000 -1.0000
vn -1.0000 0.0000 0.0000
vn -1.0000 0.0000 0.0000
vn -1.0000 0.0000 0.0000
vn -1.0000 0.0000 0.0000
vn 1.0000 0.0000 0.0000
vn 1.0000 0.0000 0.0000
vn 1.0000 0.0000 0.0000
vn 1.0000 0.0000 0.0000
vn 0.0000 1.0000 0.0000
vn 0.0000 1.0000 0.0000
vn 0.0000 1.0000 0.0000
vn 0.0000 0.0000 -1.0000
vn 0.0000 0.0000 -1.0000
vn 0.0000 0.0000 -1.0000
vn 0.0000 0.0000 1.0000
vn 0.0000 0.0000 1.0000
vn 0.0000 0.0000 1.0000
vn 0.0000 1.0000 0.0000
vn 0.0000 0.0000 1.0000
vn 0.0000 0.0000 -1.0000
vn -1.0000 0.0000 0.0000
vn -1.0000 0.0000 0.0000
vn -1.0000 0.0000 0.0000
vn -1.0000 0.0000 0.0000
vn 1.0000 0.0000 0.0000
vn 1.0000 0.0000 0.0000
vn 1.0000 0.0000 0.0000
vn 1.0000 0.0000 0.0000
vn 0.0000 1.0000 0.0000
vn 0.0000 1.0000 0.0000
vn 0.0000 1.0000 0.0000
vn 0.0000 0.0000 -1.0000
vn 0.0000 0.0000 -1.0000
vn 0.0000 0.0000 -1.0000
vn 0.0000 0.0000 1.0000
vn 0.0000 0.0000 1.0000
vn 0.0000 0.0000 1.0000
vn 0.0000 1.0000 0.0000
vn 0.0000 0.0000 1.0000
vn 0.0000 0.0000 -1.0000
vn -1.0000 0.0000 0.0000
vn -1.0000 0.0000 0.0000
vn -1.0000 0.0000 0.0000
vn -1.0000 0.0000 0.0000
f 1//1 2//2 3//3
f 1//1 4//4 5//5
f 1//1 5//5 2//2
f 2//2 5//5 6//6
f 1//1 3//3 7//7
f 1//1 7//7 4//4
f 5//5 4//4 8//8
f 5//5 8//8 6//6
f 3//3 2//2 9//9
f 2//2 6//6 10//10
f 3//3 11//11 7//7
f 4//4 7//7 12//12
f 7//7 11//11 13//13
f 7//7 14//14 12//12
f 7//7 13//13 14//14
f 13//13 15//15 14//14
f 4//4 12//12 16//16
f 12//12 14//14 17//17
f 14//14 15//15 17//17
f 3//3 18//18 11//11
f 11//11 19//19 13//13
f 13//13 19//19 15//15
f 15//15 20//20 21//21
f 4//4 22//22 8//8
f 6//6 8//8 23//23
f 4//4 16//16 22//22
f 8//8 22//22 24//24
f 8//8 25//25 23//23
f 8//8 24//24 25//25
f 24//24 26//26 25//25
f 26//26 27//27 28//28
f 26//26 29//29 27//27
f 26//26 30//30 29//29
f 22//22 16//16 24//24
f 24//24 31//31 26//26
f 26//26 32//32 30//30
f 26//26 31//31 32//32
f 6//6 23//23 33//33
f 23//23 25//25 33//33
f 25//25 26//26 34//34
f 26//26 28//28 35//35
f 36//36 27//27 29//29
f 37//37 30//30 32//32
f 12//12 17//17 16//16
f 15//15 21//21 17//17
f 24//24 16//16 38//38
f 24//24 38//38 31//31
f 31//31 39//39 32//32
f 31//31 40//40 39//39
f 31//31 41//41 40//40
f 31//31 42//42 41//41
f 31//31 43//43 42//42
f 16//16 17//17 38//38
f 17//17 21//21 44//44
f 17//17 44//44 38//38
f 38//38 44//44 31//31
f 45//45 39//39 40//40
f 46//46 41//41 42//42
f 21//21 47//47 44//44
f 44//44 48//48 31//31
f 31//31 48//48 43//43
f 2//2 49//49 9//9
f 2//2 10//10 49//49
f 3//3 9//9 18//18
f 6//6 33//33 10//10
f 9//9 49//49 50//50
f 49//49 51//51 50//50
f 49//49 10//10 51//51
f 50//50 51//51 52//52
f 9//9 50//50 53//53
f 50//50 52//52 53//53
f 10//10 54//54 51//51
f 51//51 54//54 52//52
f 52//52 55//55 56//56
f 11//11 18//18 19//19
f 15//15 19//19 20//20
f 9//9 53//53 18//18
f 52//52 56//56 53//53
f 18//18 53//53 19//19
f 19//19 53//53 57//57
f 19//19 57//57 20//20
f 53//53 56//56 57//57
f 20//20 57//57 47//47
f 56//56 58//58 57//57
f 26//26 35//35 34//34
f 27//27 36//36 59//59
f 25//25 60//60 33//33
f 25//25 34//34 60//60
f 30//30 37//37 61//61
f 10//10 33//33 54//54
f 52//52 54//54 55//55
f 34//34 35//35 59//59
f 33//33 60//60 54//54
f 54//54 60//60 62//62
f 54//54 62//62 55//55
f 60//60 34//34 62//62
f 34//34 59//59 36//36
f 34//34 36//36 61//61
f 34//34 61//61 37//37
f 55//55 62//62 58//58
f 34//34 48//48 62//62
f 34//34 37//37 48//48
f 21//21 20//20 47//47
f 39//39 45//45 63//63
f 46//46 64//64 41//41
f 48//48 65//65 43//43
f 44//44 47//47 66//66
f 44//44 66//66 48//48
f 56//56 55//55 58//58
f 57//57 67//67 47//47
f 57//57 58//58 67//67
f 48//48 37//37 63//63
f 48//48 63//63 45//45
f 48//48 45//45 64//64
f 62//62 68//68 58//58
f 62//62 48//48 68//68
f 48//48 64//64 46//46
f 48//48 46//46 65//65
f 47//47 67//67 66//66
f 67//67 68//68 66//66
f 58//58 68//68 67//67
f 66//66 68//68 48//48
f 69//69 70//70 71//71
f 71//71 70//70 72//72
f 73//73 74//74 75//75
f 76//76 77//77 78//78
f 79//79 80//80 81//81
f 74//74 82//82 75//75
f 79//79 83//83 80//80
f 78//78 77//77 84//84
f 85//85 86//86 87//87
f 85//85 87//87 88//88
f 89//89 90//90 91//91
f 91//91 90//90 92//92
f 93//93 94//94 95//95
f 96//96 97//97 98//98
f 99//99 100//100 101//101
f 94//94 102//102 95//95
f 99//99 103//103 100//100
f 98//98 97//97 104//104
f 105//105 106//106 107//107
f 105//105 107//107 108//108
f 109//109 110//110 111//111
f 111//111 110//110 112//112
f 113//113 114//114 115//115
f 116//116 117//117 118//118
f 119//119 120//120 121//121
f 114//114 122//122 115//115
f 119//119 123//123 120//120
f 118//118 117//117 124//124
f 125//125 126//126 127//127
f 125//125 127//127 128//128
f 129//129 130//130 131//131
f 131//131 130//130 132//132
f 133//133 134//134 135//135
f 136//136 137//137 138//138
f 139//139 140//140 141//141
f 134//134 142//142 135//135
f 139//139 143//143 140//140
f 138//138 137//137 144//144
f 145//145 146//146 147//147
f 145//145 147//147 148//148
f 149//149 150//150 151//151
f 151//151 150//150 152//152
f 153//153 154//154 155//155
f 156//156 157//157 158//158
f 159//159 160//160 161//161
f 154//154 162//162 155//155
f 159//159 163//163 160//160
f 158//158 157//157 164//164
f 165//165 166//166 167//167
f 165//165 167//167 168//168
