v -0.12066 -0.14100 -0.12066
v -0.11500 -0.14100 -0.12300
v -0.11500 -0.14666 -0.12066
v -0.12066 -0.14666 -0.11500
v -0.12300 -0.14100 -0.11500
v -0.11500 -0.14900 -0.11500
v -0.12300 -0.14100 0.11500
v -0.11500 -0.14900 0.11500
v -0.11500 0.14100 -0.12300
v -0.09300 -0.08900 -0.12300
v -0.12300 0.14100 -0.11500
v 0.11500 -0.14100 -0.12300
v 0.09300 -0.08900 -0.12300
v 0.11500 -0.14900 -0.11500
v -0.12066 -0.14666 0.11500
v -0.12066 -0.14100 0.12066
v -0.11500 -0.14666 0.12066
v -0.11500 -0.14100 0.12300
v -0.12066 0.14100 0.12066
v 0.11500 -0.14900 0.11500
v 0.11500 -0.14666 0.12066
v 0.11500 -0.14100 0.12300
v -0.11500 0.14100 0.12300
v -0.12066 0.14100 -0.12066
v -0.09300 0.10900 -0.12300
v -0.11500 0.14666 -0.12066
v -0.12066 0.14666 -0.11500
v -0.11500 0.14900 -0.11500
v -0.12066 0.14666 0.11500
v -0.11500 0.14900 0.11500
v -0.07500 0.14900 0.00000
v -0.06495 0.14900 -0.03750
v -0.03750 0.14900 -0.06495
v 0.11500 0.14100 -0.12300
v 0.11500 0.14666 -0.12066
v 0.00000 0.14900 -0.07500
v -0.12300 0.14100 0.11500
v -0.06495 0.14900 0.03750
v -0.11500 0.14666 0.12066
v -0.03750 0.14900 0.06495
v 0.00000 0.14900 0.07500
v 0.11500 0.14100 0.12300
v 0.11500 0.14900 0.11500
v 0.11500 -0.14666 -0.12066
v 0.12066 -0.14100 -0.12066
v 0.12066 -0.14666 -0.11500
v 0.12300 -0.14100 -0.11500
v 0.12300 -0.14100 0.11500
v 0.09300 0.10900 -0.12300
v 0.12066 0.14100 -0.12066
v 0.12066 -0.14666 0.11500
v 0.12066 -0.14100 0.12066
v 0.12300 0.14100 0.11500
v 0.12066 0.14100 0.12066
v 0.11500 0.14900 -0.11500
v 0.03750 0.14900 -0.06495
v 0.12300 0.14100 -0.11500
v 0.12066 0.14666 -0.11500
v 0.06495 0.14900 -0.03750
v 0.07500 0.14900 0.00000
v 0.03750 0.14900 0.06495
v 0.11500 0.14666 0.12066
v 0.06495 0.14900 0.03750
v 0.12066 0.14666 0.11500
v -0.06495 0.14900 -0.03750
v -0.07500 0.14900 0.00000
v -0.06495 0.19900 -0.03750
v -0.03750 0.19900 -0.06495
v -0.03750 0.14900 -0.06495
v -0.06495 0.19900 -0.03750
v -0.06495 0.19900 0.03750
v -0.03750 0.19900 -0.06495
v 0.00000 0.19900 -0.07500
v 0.00000 0.14900 -0.07500
v -0.03750 0.19900 0.06495
v 0.00000 0.19900 -0.07500
v -0.06495 0.14900 0.03750
v -0.07500 0.19900 0.00000
v -0.07500 0.19900 0.00000
v -0.06495 0.19900 0.03750
v -0.03750 0.14900 0.06495
v 0.00000 0.19900 0.07500
v -0.03750 0.19900 0.06495
v 0.00000 0.14900 0.07500
v 0.00000 0.19900 0.07500
v 0.03750 0.19900 -0.06495
v 0.03750 0.14900 -0.06495
v 0.03750 0.19900 -0.06495
v 0.06495 0.19900 -0.03750
v 0.06495 0.14900 -0.03750
v 0.07500 0.19900 0.00000
v 0.03750 0.19900 0.06495
v 0.06495 0.19900 -0.03750
v 0.06495 0.19900 0.03750
v 0.03750 0.19900 0.06495
v 0.06495 0.14900 0.03750
v 0.06495 0.19900 0.03750
v 0.03750 0.14900 0.06495
v 0.07500 0.14900 0.00000
v 0.07500 0.19900 0.00000
v -0.09300 -0.08900 -0.07700
v -0.06495 -0.03750 -0.07700
v -0.03750 -0.06495 -0.07700
v -0.09300 -0.08900 -0.12300
v -0.09300 0.10900 -0.07700
v -0.09300 -0.08900 -0.07700
v -0.07500 0.00000 -0.07700
v -0.09300 0.10900 -0.07700
v -0.09300 -0.08900 -0.12300
v -0.09300 -0.08900 -0.07700
v 0.09300 -0.08900 -0.12300
v 0.00000 -0.07500 -0.07700
v -0.09300 0.10900 -0.12300
v -0.06495 0.03750 -0.07700
v -0.03750 0.06495 -0.07700
v -0.09300 0.10900 -0.12300
v 0.09300 0.10900 -0.07700
v -0.09300 0.10900 -0.07700
v 0.00000 0.07500 -0.07700
v 0.09300 -0.08900 -0.07700
v 0.09300 -0.08900 -0.07700
v 0.03750 -0.06495 -0.07700
v 0.06495 -0.03750 -0.07700
v 0.09300 -0.08900 -0.12300
v 0.09300 -0.08900 -0.07700
v 0.09300 0.10900 -0.12300
v 0.07500 0.00000 -0.07700
v 0.09300 0.10900 -0.07700
v 0.09300 0.10900 -0.12300
v 0.03750 0.06495 -0.07700
v 0.09300 0.10900 -0.07700
v 0.06495 0.03750 -0.07700
v -0.06495 -0.03750 -0.15500
v -0.06495 -0.03750 -0.07700
v -0.07500 0.00000 -0.07700
v -0.06495 0.03750 -0.15500
v -0.06495 -0.03750 -0.15500
v -0.07500 0.00000 -0.15500
v -0.07500 0.00000 -0.15500
v -0.06495 0.03750 -0.07700
v -0.03750 -0.06495 -0.15500
v 0.00000 -0.07500 -0.15500
v -0.03750 -0.06495 -0.07700
v 0.00000 -0.07500 -0.07700
v -0.03750 -0.06495 -0.15500
v -0.03750 0.06495 -0.15500
v 0.00000 -0.07500 -0.15500
v 0.00000 0.07500 -0.15500
v -0.06495 0.03750 -0.15500
v -0.03750 0.06495 -0.07700
v -0.03750 0.06495 -0.15500
v 0.00000 0.07500 -0.07700
v 0.00000 0.07500 -0.15500
v 0.03750 -0.06495 -0.15500
v 0.03750 -0.06495 -0.07700
v 0.03750 -0.06495 -0.15500
v 0.03750 0.06495 -0.15500
v 0.06495 -0.03750 -0.15500
v 0.06495 -0.03750 -0.07700
v 0.06495 -0.03750 -0.15500
v 0.06495 0.03750 -0.15500
v 0.07500 0.00000 -0.15500
v 0.07500 0.00000 -0.15500
v 0.06495 0.03750 -0.15500
v 0.07500 0.00000 -0.07700
v 0.03750 0.06495 -0.07700
v 0.03750 0.06495 -0.15500
v 0.06495 0.03750 -0.07700
vn -0.6887 -0.2265 -0.6887
vn -0.1877 -0.1877 -0.9641
vn -0.2265 -0.6887 -0.6887
vn -0.6887 -0.6887 -0.2265
vn -0.9641 -0.1877 -0.1877
vn -0.1877 -0.9641 -0.1877
vn -0.9641 -0.1877 0.1877
vn -0.1877 -0.9641 0.1877
vn -0.1877 0.1877 -0.9641
vn 0.0000 0.0000 -1.0000
vn -0.9641 0.1877 -0.1877
vn 0.1877 -0.1877 -0.9641
vn 0.0000 0.0000 -1.0000
vn 0.1877 -0.9641 -0.1877
vn -0.6887 -0.6887 0.2265
vn -0.6887 -0.2265 0.6887
vn -0.2265 -0.6887 0.6887
vn -0.1877 -0.1877 0.9641
vn -0.6887 0.2265 0.6887
vn 0.1877 -0.9641 0.1877
vn 0.2265 -0.6887 0.6887
vn 0.1877 -0.1877 0.9641
vn -0.1877 0.1877 0.9641
vn -0.6887 0.2265 -0.6887
vn 0.0000 0.0000 -1.0000
vn -0.2265 0.6887 -0.6887
vn -0.6887 0.6887 -0.2265
vn -0.1877 0.9641 -0.1877
vn -0.6887 0.6887 0.2265
vn -0.1877 0.9641 0.1877
vn 0.0000 1.0000 0.0000
vn 0.0000 1.0000 0.0000
vn 0.0000 1.0000 0.0000
vn 0.1877 0.1877 -0.9641
vn 0.2265 0.6887 -0.6887
vn 0.0000 1.0000 0.0000
vn -0.9641 0.1877 0.1877
vn 0.0000 1.0000 0.0000
vn -0.2265 0.6887 0.6887
vn 0.0000 1.0000 0.0000
vn 0.0000 1.0000 0.0000
vn 0.1877 0.1877 0.9641
vn 0.1877 0.9641 0.1877
vn 0.2265 -0.6887 -0.6887
vn 0.6887 -0.2265 -0.6887
vn 0.6887 -0.6887 -0.2265
vn 0.9641 -0.1877 -0.1877
vn 0.9641 -0.1877 0.1877
vn 0.0000 0.0000 -1.0000
vn 0.6887 0.2265 -0.6887
vn 0.6887 -0.6887 0.2265
vn 0.6887 -0.2265 0.6887
vn 0.9641 0.1877 0.1877
vn 0.6887 0.2265 0.6887
vn 0.1877 0.9641 -0.1877
vn 0.0000 1.0000 0.0000
vn 0.9641 0.1877 -0.1877
vn 0.6887 0.6887 -0.2265
vn 0.0000 1.0000 0.0000
vn 0.0000 1.0000 0.0000
vn 0.0000 1.0000 0.0000
vn 0.2265 0.6887 0.6887
vn 0.0000 1.0000 0.0000
vn 0.6887 0.6887 0.2265
vn -0.8660 0.0000 -0.5000
vn -1.0000 0.0000 0.0000
vn -0.8660 0.0000 -0.5000
vn -0.5000 0.0000 -0.8660
vn -0.5000 0.0000 -0.8660
vn 0.0000 1.0000 0.0000
vn 0.0000 1.0000 0.0000
vn 0.0000 1.0000 0.0000
vn 0.0000 0.0000 -1.0000
vn 0.0000 0.0000 -1.0000
vn 0.0000 1.0000 0.0000
vn 0.0000 1.0000 0.0000
vn -0.8660 0.0000 0.5000
vn -1.0000 0.0000 0.0000
vn 0.0000 1.0000 0.0000
vn -0.8660 0.0000 0.5000
vn -0.5000 0.0000 0.8660
vn 0.0000 1.0000 0.0000
vn -0.5000 0.0000 0.8660
vn 0.0000 0.0000 1.0000
vn 0.0000 0.0000 1.0000
vn 0.5000 0.0000 -0.8660
vn 0.5000 -0.0000 -0.8660
vn 0.0000 1.0000 0.0000
vn 0.8660 -0.0000 -0.5000
vn 0.8660 0.0000 -0.5000
vn 1.0000 0.0000 0.0000
vn 0.0000 1.0000 0.0000
vn 0.0000 1.0000 0.0000
vn 0.0000 1.0000 0.0000
vn 0.5000 0.0000 0.8660
vn 0.8660 0.0000 0.5000
vn 0.8660 0.0000 0.5000
vn 0.5000 0.0000 0.8660
vn 1.0000 0.0000 0.0000
vn 0.0000 1.0000 0.0000
vn 0.0000 0.0000 -1.0000
vn 0.0000 0.0000 -1.0000
vn 0.0000 0.0000 -1.0000
vn 1.0000 0.0000 0.0000
vn 1.0000 0.0000 0.0000
vn 1.0000 0.0000 0.0000
vn 0.0000 0.0000 -1.0000
vn 0.0000 0.0000 -1.0000
vn 0.0000 1.0000 0.0000
vn 0.0000 1.0000 0.0000
vn 0.0000 1.0000 0.0000
vn 0.0000 0.0000 -1.0000
vn 1.0000 0.0000 0.0000
vn 0.0000 0.0000 -1.0000
vn 0.0000 0.0000 -1.0000
vn 0.0000 -1.0000 0.0000
vn 0.0000 -1.0000 0.0000
vn 0.0000 -1.0000 0.0000
vn 0.0000 0.0000 -1.0000
vn 0.0000 1.0000 0.0000
vn 0.0000 0.0000 -1.0000
vn 0.0000 0.0000 -1.0000
vn 0.0000 0.0000 -1.0000
vn -1.0000 0.0000 0.0000
vn -1.0000 0.0000 0.0000
vn -1.0000 0.0000 0.0000
vn 0.0000 0.0000 -1.0000
vn 0.0000 0.0000 -1.0000
vn 0.0000 -1.0000 0.0000
vn 0.0000 0.0000 -1.0000
vn -1.0000 0.0000 0.0000
vn 0.0000 0.0000 -1.0000
vn -0.8660 -0.5000 -0.0000
vn -0.8660 -0.5000 0.0000
vn -1.0000 -0.0000 -0.0000
vn 0.0000 0.0000 -1.0000
vn 0.0000 0.0000 -1.0000
vn 0.0000 0.0000 -1.0000
vn -1.0000 -0.0000 0.0000
vn -0.8660 0.5000 0.0000
vn -0.5000 -0.8660 0.0000
vn 0.0000 -1.0000 0.0000
vn -0.5000 -0.8660 0.0000
vn 0.0000 -1.0000 0.0000
vn 0.0000 0.0000 -1.0000
vn 0.0000 0.0000 -1.0000
vn 0.0000 0.0000 -1.0000
vn 0.0000 0.0000 -1.0000
vn -0.8660 0.5000 -0.0000
vn -0.5000 0.8660 -0.0000
vn -0.5000 0.8660 -0.0000
vn 0.0000 1.0000 -0.0000
vn 0.0000 1.0000 0.0000
vn 0.5000 -0.8660 0.0000
vn 0.5000 -0.8660 0.0000
vn 0.0000 0.0000 -1.0000
vn 0.0000 0.0000 -1.0000
vn 0.8660 -0.5000 0.0000
vn 0.8660 -0.5000 0.0000
vn 0.0000 0.0000 -1.0000
vn 0.0000 0.0000 -1.0000
vn 1.0000 -0.0000 0.0000
vn 0.0000 0.0000 -1.0000
vn 0.8660 0.5000 0.0000
vn 1.0000 -0.0000 0.0000
vn 0.5000 0.8660 0.0000
vn 0.5000 0.8660 0.0000
vn 0.8660 0.5000 0.0000
f 1//1 2//2 3//3
f 1//1 4//4 5//5
f 1//1 3//3 4//4
f 4//4 3//3 6//6
f 4//4 7//7 5//5
f 4//4 6//6 8//8
f 1//1 9//9 2//2
f 2//2 9//9 10//10
f 1//1 5//5 11//11
f 5//5 7//7 11//11
f 3//3 2//2 12//12
f 2//2 10//10 13//13
f 3//3 14//14 6//6
f 4//4 15//15 7//7
f 4//4 8//8 15//15
f 15//15 16//16 7//7
f 15//15 8//8 17//17
f 15//15 17//17 16//16
f 16//16 17//17 18//18
f 7//7 16//16 19//19
f 16//16 18//18 19//19
f 6//6 20//20 8//8
f 8//8 21//21 17//17
f 17//17 21//21 18//18
f 18//18 22//22 23//23
f 1//1 24//24 9//9
f 10//10 9//9 25//25
f 1//1 11//11 24//24
f 24//24 26//26 9//9
f 24//24 11//11 27//27
f 24//24 27//27 26//26
f 27//27 28//28 26//26
f 11//11 29//29 27//27
f 27//27 30//30 28//28
f 28//28 31//31 32//32
f 28//28 32//32 33//33
f 25//25 9//9 34//34
f 9//9 26//26 35//35
f 26//26 28//28 35//35
f 28//28 33//33 36//36
f 7//7 37//37 11//11
f 7//7 19//19 37//37
f 18//18 23//23 19//19
f 28//28 30//30 31//31
f 11//11 37//37 29//29
f 27//27 29//29 30//30
f 31//31 30//30 38//38
f 37//37 19//19 29//29
f 19//19 23//23 39//39
f 29//29 39//39 30//30
f 19//19 39//39 29//29
f 38//38 30//30 40//40
f 30//30 41//41 40//40
f 23//23 42//42 39//39
f 30//30 39//39 43//43
f 3//3 12//12 44//44
f 2//2 13//13 12//12
f 3//3 44//44 14//14
f 6//6 14//14 20//20
f 44//44 12//12 45//45
f 44//44 46//46 14//14
f 44//44 45//45 46//46
f 45//45 47//47 46//46
f 14//14 46//46 20//20
f 46//46 47//47 48//48
f 12//12 13//13 49//49
f 12//12 50//50 45//45
f 45//45 50//50 47//47
f 8//8 20//20 21//21
f 18//18 21//21 22//22
f 46//46 51//51 20//20
f 46//46 48//48 51//51
f 20//20 51//51 21//21
f 21//21 51//51 52//52
f 21//21 52//52 22//22
f 51//51 48//48 52//52
f 47//47 53//53 48//48
f 22//22 52//52 54//54
f 48//48 53//53 52//52
f 28//28 36//36 55//55
f 25//25 34//34 49//49
f 9//9 35//35 34//34
f 28//28 55//55 35//35
f 36//36 56//56 55//55
f 12//12 49//49 34//34
f 12//12 34//34 50//50
f 47//47 50//50 57//57
f 47//47 57//57 53//53
f 34//34 35//35 50//50
f 50//50 58//58 57//57
f 35//35 55//55 58//58
f 35//35 58//58 50//50
f 56//56 59//59 55//55
f 55//55 59//59 60//60
f 57//57 58//58 53//53
f 55//55 43//43 58//58
f 23//23 22//22 42//42
f 30//30 43//43 41//41
f 41//41 43//43 61//61
f 39//39 42//42 62//62
f 39//39 62//62 43//43
f 22//22 54//54 42//42
f 52//52 53//53 54//54
f 60//60 63//63 43//43
f 55//55 60//60 43//43
f 58//58 43//43 64//64
f 58//58 64//64 53//53
f 61//61 43//43 63//63
f 42//42 54//54 62//62
f 53//53 64//64 54//54
f 43//43 62//62 64//64
f 62//62 54//54 64//64
f 65//65 66//66 67//67
f 65//65 68//68 69//69
f 65//65 67//67 68//68
f 70//70 71//71 72//72
f 69//69 68//68 73//73
f 69//69 73//73 74//74
f 72//72 75//75 76//76
f 66//66 77//77 78//78
f 67//67 66//66 78//78
f 70//70 79//79 71//71
f 77//77 80//80 78//78
f 72//72 71//71 75//75
f 77//77 81//81 80//80
f 75//75 82//82 76//76
f 80//80 81//81 83//83
f 81//81 84//84 83//83
f 83//83 84//84 85//85
f 74//74 73//73 86//86
f 74//74 86//86 87//87
f 76//76 82//82 88//88
f 87//87 86//86 89//89
f 87//87 89//89 90//90
f 90//90 89//89 91//91
f 88//88 82//82 92//92
f 88//88 92//92 93//93
f 93//93 92//92 94//94
f 95//95 96//96 97//97
f 84//84 98//98 85//85
f 85//85 98//98 95//95
f 98//98 96//96 95//95
f 90//90 91//91 99//99
f 93//93 94//94 100//100
f 99//99 91//91 97//97
f 99//99 97//97 96//96
f 101//101 102//102 103//103
f 104//104 105//105 106//106
f 101//101 107//107 102//102
f 101//101 108//108 107//107
f 109//109 110//110 111//111
f 101//101 103//103 112//112
f 104//104 113//113 105//105
f 108//108 114//114 107//107
f 108//108 115//115 114//114
f 116//116 117//117 118//118
f 108//108 119//119 115//115
f 110//110 120//120 111//111
f 101//101 112//112 121//121
f 121//121 112//112 122//122
f 121//121 122//122 123//123
f 124//124 125//125 126//126
f 121//121 123//123 127//127
f 121//121 127//127 128//128
f 116//116 129//129 117//117
f 108//108 128//128 119//119
f 128//128 130//130 119//119
f 125//125 131//131 126//126
f 128//128 127//127 132//132
f 128//128 132//132 130//130
f 133//133 134//134 135//135
f 136//136 137//137 138//138
f 139//139 133//133 135//135
f 139//139 135//135 140//140
f 141//141 142//142 143//143
f 142//142 144//144 143//143
f 133//133 141//141 134//134
f 136//136 145//145 137//137
f 141//141 143//143 134//134
f 136//136 146//146 145//145
f 146//146 147//147 145//145
f 146//146 148//148 147//147
f 149//149 139//139 140//140
f 149//149 150//150 151//151
f 149//149 140//140 150//150
f 151//151 150//150 152//152
f 151//151 152//152 153//153
f 142//142 154//154 144//144
f 154//154 155//155 144//144
f 148//148 156//156 147//147
f 148//148 157//157 156//156
f 154//154 158//158 155//155
f 158//158 159//159 155//155
f 157//157 160//160 156//156
f 157//157 161//161 160//160
f 162//162 159//159 158//158
f 161//161 163//163 160//160
f 164//164 165//165 162//162
f 162//162 165//165 159//159
f 153//153 166//166 167//167
f 153//153 152//152 166//166
f 167//167 168//168 164//164
f 167//167 166//166 168//168
f 164//164 168//168 165//165
