v -0.11500 -0.04900 -0.24000
v -0.11561 -0.04875 -0.24000
v -0.11500 -0.04875 -0.24061
v -0.11561 -0.04875 -0.23887
v -0.05500 -0.04875 -0.24061
v -0.12066 -0.04666 0.24000
v -0.12066 -0.04666 -0.23453
v -0.12300 -0.04100 -0.22279
v -0.12066 -0.04666 -0.23453
v -0.12300 -0.04100 0.24000
v -0.12300 -0.03909 -0.21883
v -0.12300 -0.02169 -0.20495
v -0.12300 0.04100 0.24000
v -0.12300 0.00000 -0.20000
v -0.12300 0.02169 -0.20495
v 0.05500 -0.04875 -0.24061
v -0.05500 -0.04666 -0.24566
v 0.05500 -0.04666 -0.24566
v -0.05500 -0.04100 -0.24800
v 0.05500 -0.04100 -0.24800
v -0.05500 -0.04666 -0.24566
v -0.05500 0.04100 -0.24800
v 0.05500 0.04100 -0.24800
v -0.11500 -0.04900 0.24000
v -0.11500 -0.04666 0.24566
v -0.12066 -0.04100 0.24566
v -0.11500 -0.04100 0.24800
v -0.12066 0.04100 0.24566
v -0.11500 0.04100 0.24800
v 0.11500 -0.04900 0.24000
v 0.11500 -0.04666 0.24566
v 0.11500 -0.04100 0.24800
v -0.11500 0.04900 -0.24000
v -0.11500 0.04875 -0.24061
v -0.11561 0.04875 -0.24000
v -0.11561 0.04875 -0.23887
v -0.05500 0.04875 -0.24061
v -0.12300 0.03909 -0.21883
v -0.12300 0.04100 -0.22279
v -0.12066 0.04666 -0.23453
v -0.11500 0.04900 0.24000
v -0.12066 0.04666 -0.23453
v -0.06495 0.04900 0.08750
v -0.03750 0.04900 0.06005
v 0.05500 0.04875 -0.24061
v -0.05500 0.04666 -0.24566
v 0.05500 0.04666 -0.24566
v -0.05500 0.04666 -0.24566
v 0.11500 0.04900 -0.24000
v -0.07500 0.04900 0.12500
v -0.12066 0.04666 0.24000
v -0.11500 0.04666 0.24566
v -0.06495 0.04900 0.16250
v -0.03750 0.04900 0.18995
v 0.11500 0.04100 0.24800
v 0.00000 0.04900 0.20000
v 0.11500 0.04900 0.24000
v 0.11500 -0.04900 -0.24000
v 0.05500 -0.04666 -0.24566
v 0.11500 -0.04875 -0.24061
v 0.11561 -0.04875 -0.24000
v 0.11561 -0.04875 -0.23887
v 0.12066 -0.04666 0.24000
v 0.12066 -0.04666 -0.23453
v 0.12066 -0.04666 -0.23453
v 0.12300 -0.04100 -0.22279
v 0.12300 -0.04100 0.24000
v 0.12300 -0.03909 -0.21883
v 0.12300 -0.02169 -0.20495
v 0.12300 0.00000 -0.20000
v 0.12300 0.02169 -0.20495
v 0.12066 -0.04100 0.24566
v 0.12300 0.04100 0.24000
v 0.12066 0.04100 0.24566
v 0.05500 0.04666 -0.24566
v 0.11500 0.04875 -0.24061
v 0.00000 0.04900 0.05000
v 0.03750 0.04900 0.06005
v 0.11561 0.04875 -0.24000
v 0.11561 0.04875 -0.23887
v 0.06495 0.04900 0.08750
v 0.12300 0.03909 -0.21883
v 0.12300 0.04100 -0.22279
v 0.12066 0.04666 -0.23453
v 0.12066 0.04666 0.24000
v 0.12066 0.04666 -0.23453
v 0.11500 0.04666 0.24566
v 0.03750 0.04900 0.18995
v 0.07500 0.04900 0.12500
v 0.06495 0.04900 0.16250
v -0.06495 0.09900 0.08750
v -0.06495 0.04900 0.08750
v -0.07500 0.04900 0.12500
v -0.07500 0.09900 0.12500
v -0.06495 0.04900 0.16250
v -0.06495 0.09900 0.16250
v -0.06495 0.09900 0.08750
v -0.07500 0.09900 0.12500
v -0.06495 0.09900 0.16250
v -0.03750 0.09900 0.06005
v -0.03750 0.04900 0.06005
v -0.03750 0.09900 0.06005
v 0.00000 0.09900 0.05000
v 0.00000 0.04900 0.05000
v -0.03750 0.09900 0.18995
v 0.00000 0.09900 0.05000
v -0.03750 0.04900 0.18995
v -0.03750 0.09900 0.18995
v 0.00000 0.04900 0.20000
v 0.00000 0.09900 0.20000
v 0.00000 0.09900 0.20000
v 0.03750 0.09900 0.06005
v 0.03750 0.04900 0.06005
v 0.03750 0.09900 0.06005
v 0.06495 0.09900 0.08750
v 0.06495 0.04900 0.08750
v 0.03750 0.04900 0.18995
v 0.03750 0.09900 0.18995
v 0.03750 0.09900 0.18995
v 0.06495 0.04900 0.16250
v 0.06495 0.09900 0.08750
v 0.06495 0.09900 0.16250
v 0.06495 0.09900 0.16250
v 0.07500 0.09900 0.12500
v 0.07500 0.04900 0.12500
v 0.07500 0.09900 0.12500
v -0.12500 -0.04875 -0.26113
v -0.12500 -0.04875 -0.23887
v -0.12300 -0.04100 -0.22279
v -0.12500 -0.03909 -0.28117
v -0.05500 -0.04875 -0.26113
v -0.12500 -0.02169 -0.29505
v -0.05500 -0.03909 -0.28117
v -0.12500 -0.03909 -0.21883
v -0.12300 -0.03909 -0.21883
v -0.12300 -0.02169 -0.20495
v -0.12500 -0.03909 -0.28117
v -0.12500 0.02169 -0.29505
v -0.12500 -0.02169 -0.29505
v -0.12500 -0.04875 -0.26113
v -0.12500 0.03909 -0.28117
v -0.12500 -0.04875 -0.23887
v -0.12500 0.04875 -0.26113
v -0.12500 -0.03909 -0.21883
v -0.12500 0.04875 -0.23887
v -0.12500 0.00000 -0.30000
v -0.05500 -0.02169 -0.29505
v -0.12500 -0.02169 -0.20495
v -0.12300 0.00000 -0.20000
v -0.12500 0.00000 -0.30000
v -0.12500 -0.02169 -0.20495
v -0.12500 0.03909 -0.21883
v -0.12500 0.00000 -0.20000
v -0.12500 0.00000 -0.20000
v -0.12500 0.02169 -0.20495
v -0.12500 0.02169 -0.29505
v -0.05500 0.00000 -0.30000
v -0.12300 0.02169 -0.20495
v -0.12500 0.02169 -0.20495
v -0.05500 0.02169 -0.29505
v -0.05500 -0.04875 -0.26113
v -0.05500 -0.04666 -0.24566
v -0.05500 -0.04875 -0.24061
v -0.05500 -0.04100 -0.24800
v -0.05500 -0.03909 -0.28117
v -0.05500 -0.02169 -0.29505
v -0.05500 0.02169 -0.29505
v -0.05500 0.03909 -0.28117
v -0.05500 0.04875 -0.26113
v -0.05500 0.00000 -0.30000
v -0.05500 0.04100 -0.24800
v -0.12500 0.03909 -0.28117
v -0.12500 0.04875 -0.26113
v -0.05500 0.03909 -0.28117
v -0.12300 0.03909 -0.21883
v -0.12500 0.03909 -0.21883
v -0.12300 0.04100 -0.22279
v -0.12500 0.04875 -0.23887
v -0.05500 0.04875 -0.26113
v -0.05500 0.04666 -0.24566
v -0.05500 0.04875 -0.24061
v 0.05500 -0.04875 -0.26113
v 0.05500 -0.04875 -0.24061
v 0.05500 -0.04666 -0.24566
v 0.05500 -0.04100 -0.24800
v 0.05500 -0.03909 -0.28117
v 0.05500 0.02169 -0.29505
v 0.05500 -0.02169 -0.29505
v 0.05500 0.03909 -0.28117
v 0.05500 0.04100 -0.24800
v 0.05500 0.00000 -0.30000
v 0.05500 0.04875 -0.26113
v 0.05500 -0.04875 -0.26113
v 0.05500 -0.03909 -0.28117
v 0.12500 -0.04875 -0.26113
v 0.05500 -0.02169 -0.29505
v 0.12500 -0.03909 -0.28117
v 0.05500 0.00000 -0.30000
v 0.12500 -0.02169 -0.29505
v 0.12500 -0.04875 -0.23887
v 0.12500 -0.03909 -0.21883
v 0.12300 -0.04100 -0.22279
v 0.12300 -0.03909 -0.21883
v 0.12500 -0.02169 -0.20495
v 0.12500 -0.03909 -0.28117
v 0.12500 -0.02169 -0.29505
v 0.12500 0.02169 -0.29505
v 0.12500 -0.04875 -0.26113
v 0.12500 0.03909 -0.28117
v 0.12500 0.04875 -0.26113
v 0.12500 -0.04875 -0.23887
v 0.12500 0.04875 -0.23887
v 0.12500 -0.03909 -0.21883
v 0.12300 -0.02169 -0.20495
v 0.12500 0.00000 -0.20000
v 0.05500 0.02169 -0.29505
v 0.12500 0.00000 -0.30000
v 0.12500 0.00000 -0.30000
v 0.12500 0.03909 -0.21883
v 0.12500 -0.02169 -0.20495
v 0.12300 0.00000 -0.20000
v 0.12500 0.02169 -0.20495
v 0.12500 0.00000 -0.20000
v 0.12500 0.02169 -0.29505
v 0.12500 0.02169 -0.20495
v 0.12300 0.02169 -0.20495
v 0.05500 0.04666 -0.24566
v 0.05500 0.04875 -0.24061
v 0.05500 0.03909 -0.28117
v 0.05500 0.04875 -0.26113
v 0.12500 0.03909 -0.28117
v 0.12500 0.03909 -0.21883
v 0.12300 0.03909 -0.21883
v 0.12300 0.04100 -0.22279
v 0.12500 0.04875 -0.23887
v 0.12500 0.04875 -0.26113
vn -0.1877 -0.9641 -0.1877
vn -0.1466 -0.9880 -0.0496
vn -0.0496 -0.9880 -0.1466
vn -0.2496 -0.9669 0.0534
vn 0.0000 -0.9567 -0.2912
vn -0.6887 -0.6887 0.2265
vn -0.1486 -0.9474 0.2835
vn -0.9438 -0.3306 0.0000
vn -0.9239 -0.3827 0.0000
vn -0.9641 -0.1877 0.1877
vn -1.0000 0.0000 0.0000
vn -1.0000 0.0000 0.0000
vn -0.9641 0.1877 0.1877
vn -1.0000 0.0000 0.0000
vn -1.0000 0.0000 0.0000
vn -0.0000 -0.9567 -0.2912
vn 0.0000 -0.9239 -0.3827
vn 0.0000 -0.9239 -0.3827
vn 0.0000 -0.1951 -0.9808
vn 0.0000 -0.1951 -0.9808
vn 0.0000 -0.3827 -0.9239
vn 0.0000 0.1951 -0.9808
vn 0.0000 0.1951 -0.9808
vn -0.1877 -0.9641 0.1877
vn -0.2265 -0.6887 0.6887
vn -0.6887 -0.2265 0.6887
vn -0.1877 -0.1877 0.9641
vn -0.6887 0.2265 0.6887
vn -0.1877 0.1877 0.9641
vn 0.1877 -0.9641 0.1877
vn 0.2265 -0.6887 0.6887
vn 0.1877 -0.1877 0.9641
vn -0.1877 0.9641 -0.1877
vn -0.0496 0.9880 -0.1466
vn -0.1466 0.9880 -0.0496
vn -0.2496 0.9669 0.0534
vn 0.0000 0.9567 -0.2912
vn -1.0000 0.0000 0.0000
vn -0.9438 0.3306 0.0000
vn -0.9239 0.3827 -0.0000
vn -0.1877 0.9641 0.1877
vn -0.1486 0.9474 0.2835
vn 0.0000 1.0000 0.0000
vn 0.0000 1.0000 0.0000
vn -0.0000 0.9567 -0.2912
vn 0.0000 0.3827 -0.9239
vn 0.0000 0.3827 -0.9239
vn -0.0000 0.9239 -0.3827
vn 0.1877 0.9641 -0.1877
vn 0.0000 1.0000 0.0000
vn -0.6887 0.6887 0.2265
vn -0.2265 0.6887 0.6887
vn 0.0000 1.0000 0.0000
vn 0.0000 1.0000 0.0000
vn 0.1877 0.1877 0.9641
vn 0.0000 1.0000 0.0000
vn 0.1877 0.9641 0.1877
vn 0.1877 -0.9641 -0.1877
vn 0.0000 -0.3827 -0.9239
vn 0.0496 -0.9880 -0.1466
vn 0.1466 -0.9880 -0.0496
vn 0.2496 -0.9669 0.0534
vn 0.6887 -0.6887 0.2265
vn 0.1486 -0.9474 0.2835
vn 0.9239 -0.3827 0.0000
vn 0.9438 -0.3306 0.0000
vn 0.9641 -0.1877 0.1877
vn 1.0000 0.0000 0.0000
vn 1.0000 0.0000 0.0000
vn 1.0000 0.0000 0.0000
vn 1.0000 0.0000 0.0000
vn 0.6887 -0.2265 0.6887
vn 0.9641 0.1877 0.1877
vn 0.6887 0.2265 0.6887
vn 0.0000 0.9239 -0.3827
vn 0.0496 0.9880 -0.1466
vn 0.0000 1.0000 0.0000
vn 0.0000 1.0000 0.0000
vn 0.1466 0.9880 -0.0496
vn 0.2496 0.9669 0.0534
vn 0.0000 1.0000 0.0000
vn 1.0000 0.0000 0.0000
vn 0.9438 0.3306 0.0000
vn 0.1486 0.9474 0.2835
vn 0.6887 0.6887 0.2265
vn 0.9239 0.3827 0.0000
vn 0.2265 0.6887 0.6887
vn 0.0000 1.0000 0.0000
vn 0.0000 1.0000 0.0000
vn 0.0000 1.0000 0.0000
vn -0.8660 0.0000 -0.5000
vn -0.8660 0.0000 -0.5000
vn -1.0000 0.0000 -0.0000
vn -1.0000 0.0000 0.0000
vn -0.8660 0.0000 0.5000
vn -0.8660 0.0000 0.5000
vn 0.0000 1.0000 0.0000
vn 0.0000 1.0000 0.0000
vn 0.0000 1.0000 0.0000
vn -0.5000 0.0000 -0.8660
vn -0.5000 0.0000 -0.8660
vn 0.0000 1.0000 0.0000
vn 0.0000 0.0000 -1.0000
vn 0.0000 0.0000 -1.0000
vn 0.0000 1.0000 0.0000
vn 0.0000 1.0000 0.0000
vn -0.5000 0.0000 0.8660
vn -0.5000 0.0000 0.8660
vn 0.0000 0.0000 1.0000
vn 0.0000 1.0000 0.0000
vn 0.0000 0.0000 1.0000
vn 0.5000 0.0000 -0.8660
vn 0.5000 0.0000 -0.8660
vn 0.0000 1.0000 0.0000
vn 0.8660 0.0000 -0.5000
vn 0.8660 0.0000 -0.5000
vn 0.5000 0.0000 0.8660
vn 0.0000 1.0000 0.0000
vn 0.5000 0.0000 0.8660
vn 0.8660 0.0000 0.5000
vn 0.0000 1.0000 0.0000
vn 0.8660 0.0000 0.5000
vn 0.0000 1.0000 0.0000
vn 1.0000 0.0000 0.0000
vn 1.0000 0.0000 0.0000
vn 0.0000 1.0000 0.0000
vn -0.0000 -0.9749 -0.2225
vn -0.0000 -0.9749 0.2225
vn -0.0000 -0.9010 0.4339
vn -0.0000 -0.7818 -0.6235
vn -0.0000 -0.9749 -0.2225
vn 0.0000 -0.4339 -0.9010
vn 0.0000 -0.7818 -0.6235
vn -0.0000 -0.7818 0.6235
vn 0.0000 -0.7818 0.6235
vn 0.0000 -0.4339 0.9010
vn -1.0000 0.0000 0.0000
vn -1.0000 0.0000 0.0000
vn -1.0000 0.0000 0.0000
vn -1.0000 0.0000 0.0000
vn -1.0000 0.0000 0.0000
vn -1.0000 0.0000 0.0000
vn -1.0000 0.0000 0.0000
vn -1.0000 0.0000 0.0000
vn -1.0000 0.0000 0.0000
vn 0.0000 0.0000 -1.0000
vn 0.0000 -0.4339 -0.9010
vn -0.0000 -0.4339 0.9010
vn -0.0000 -0.0000 1.0000
vn -1.0000 0.0000 0.0000
vn -1.0000 0.0000 0.0000
vn -1.0000 0.0000 0.0000
vn 0.0000 0.0000 1.0000
vn -1.0000 0.0000 0.0000
vn -1.0000 0.0000 0.0000
vn -0.0000 0.4339 -0.9010
vn -0.0000 -0.0000 -1.0000
vn 0.0000 0.4339 0.9010
vn 0.0000 0.4339 0.9010
vn 0.0000 0.4339 -0.9010
vn 1.0000 0.0000 0.0000
vn 1.0000 0.0000 0.0000
vn 1.0000 0.0000 0.0000
vn 1.0000 0.0000 0.0000
vn 1.0000 0.0000 0.0000
vn 1.0000 0.0000 0.0000
vn 1.0000 0.0000 0.0000
vn 1.0000 0.0000 0.0000
vn 1.0000 0.0000 0.0000
vn 1.0000 0.0000 0.0000
vn 1.0000 0.0000 0.0000
vn 0.0000 0.7818 -0.6235
vn 0.0000 0.9749 -0.2225
vn 0.0000 0.7818 -0.6235
vn 0.0000 0.7818 0.6235
vn 0.0000 0.7818 0.6235
vn 0.0000 0.9010 0.4339
vn 0.0000 0.9749 0.2225
vn 0.0000 0.9749 -0.2225
vn 1.0000 0.0000 0.0000
vn 1.0000 0.0000 0.0000
vn -1.0000 0.0000 0.0000
vn -1.0000 0.0000 0.0000
vn -1.0000 0.0000 0.0000
vn -1.0000 0.0000 0.0000
vn -1.0000 0.0000 0.0000
vn -1.0000 0.0000 0.0000
vn -1.0000 0.0000 0.0000
vn -1.0000 0.0000 0.0000
vn -1.0000 0.0000 0.0000
vn -1.0000 0.0000 0.0000
vn -1.0000 0.0000 0.0000
vn 0.0000 -0.9749 -0.2225
vn -0.0000 -0.7818 -0.6235
vn -0.0000 -0.9749 -0.2225
vn 0.0000 -0.4339 -0.9010
vn 0.0000 -0.7818 -0.6235
vn 0.0000 0.0000 -1.0000
vn 0.0000 -0.4339 -0.9010
vn 0.0000 -0.9749 0.2225
vn 0.0000 -0.7818 0.6235
vn 0.0000 -0.9010 0.4339
vn 0.0000 -0.7818 0.6235
vn 0.0000 -0.4339 0.9010
vn 1.0000 0.0000 0.0000
vn 1.0000 0.0000 0.0000
vn 1.0000 0.0000 0.0000
vn 1.0000 0.0000 0.0000
vn 1.0000 0.0000 0.0000
vn 1.0000 0.0000 0.0000
vn 1.0000 0.0000 0.0000
vn 1.0000 0.0000 0.0000
vn 1.0000 0.0000 0.0000
vn -0.0000 -0.4339 0.9010
vn -0.0000 -0.0000 1.0000
vn -0.0000 0.4339 -0.9010
vn -0.0000 -0.0000 -1.0000
vn 1.0000 0.0000 0.0000
vn 1.0000 0.0000 0.0000
vn 1.0000 0.0000 0.0000
vn 0.0000 0.0000 1.0000
vn 1.0000 0.0000 0.0000
vn 1.0000 0.0000 0.0000
vn 0.0000 0.4339 -0.9010
vn 0.0000 0.4339 0.9010
vn 0.0000 0.4339 0.9010
vn -1.0000 0.0000 0.0000
vn -1.0000 0.0000 0.0000
vn 0.0000 0.7818 -0.6235
vn 0.0000 0.9749 -0.2225
vn 0.0000 0.7818 -0.6235
vn -0.0000 0.7818 0.6235
vn 0.0000 0.7818 0.6235
vn -0.0000 0.9010 0.4339
vn -0.0000 0.9749 0.2225
vn 0.0000 0.9749 -0.2225
f 1//1 2//2 3//3
f 1//1 4//4 2//2
f 1//1 3//3 5//5
f 6//6 7//7 4//4
f 6//6 8//8 9//9
f 10//10 11//11 8//8
f 1//1 6//6 4//4
f 10//10 12//12 11//11
f 13//13 14//14 12//12
f 13//13 15//15 14//14
f 1//1 5//5 16//16
f 5//5 17//17 18//18
f 19//19 20//20 21//21
f 19//19 22//22 23//23
f 6//6 10//10 8//8
f 1//1 24//24 6//6
f 6//6 25//25 26//26
f 6//6 26//26 10//10
f 6//6 24//24 25//25
f 25//25 27//27 26//26
f 10//10 26//26 28//28
f 26//26 27//27 28//28
f 10//10 13//13 12//12
f 10//10 28//28 13//13
f 27//27 29//29 28//28
f 1//1 30//30 24//24
f 24//24 31//31 25//25
f 25//25 31//31 27//27
f 27//27 32//32 29//29
f 33//33 34//34 35//35
f 33//33 35//35 36//36
f 33//33 37//37 34//34
f 13//13 38//38 15//15
f 13//13 39//39 38//38
f 13//13 40//40 39//39
f 41//41 36//36 42//42
f 33//33 36//36 41//41
f 33//33 43//43 44//44
f 33//33 45//45 37//37
f 22//22 46//46 47//47
f 37//37 45//45 48//48
f 33//33 44//44 49//49
f 33//33 41//41 50//50
f 13//13 51//51 40//40
f 51//51 41//41 42//42
f 33//33 50//50 43//43
f 13//13 28//28 51//51
f 28//28 29//29 52//52
f 28//28 52//52 51//51
f 51//51 52//52 41//41
f 41//41 53//53 50//50
f 41//41 54//54 53//53
f 29//29 55//55 52//52
f 41//41 56//56 54//54
f 52//52 57//57 41//41
f 1//1 16//16 58//58
f 5//5 18//18 16//16
f 59//59 21//21 20//20
f 23//23 20//20 19//19
f 1//1 58//58 30//30
f 58//58 16//16 60//60
f 58//58 60//60 61//61
f 58//58 61//61 62//62
f 58//58 62//62 63//63
f 63//63 62//62 64//64
f 63//63 65//65 66//66
f 67//67 66//66 68//68
f 67//67 68//68 69//69
f 67//67 69//69 70//70
f 67//67 70//70 71//71
f 24//24 30//30 31//31
f 27//27 31//31 32//32
f 29//29 32//32 55//55
f 58//58 63//63 30//30
f 63//63 66//66 67//67
f 30//30 63//63 31//31
f 31//31 72//72 32//32
f 31//31 63//63 72//72
f 63//63 67//67 72//72
f 32//32 72//72 55//55
f 67//67 73//73 72//72
f 67//67 71//71 73//73
f 72//72 74//74 55//55
f 72//72 73//73 74//74
f 22//22 47//47 23//23
f 75//75 48//48 45//45
f 33//33 76//76 45//45
f 33//33 49//49 76//76
f 49//49 44//44 77//77
f 49//49 77//77 78//78
f 49//49 79//79 76//76
f 49//49 80//80 79//79
f 49//49 78//78 81//81
f 73//73 71//71 82//82
f 73//73 82//82 83//83
f 49//49 57//57 80//80
f 57//57 84//84 80//80
f 85//85 83//83 86//86
f 41//41 57//57 56//56
f 52//52 55//55 87//87
f 52//52 87//87 57//57
f 57//57 88//88 56//56
f 49//49 81//81 89//89
f 73//73 83//83 85//85
f 49//49 89//89 57//57
f 57//57 85//85 84//84
f 57//57 89//89 90//90
f 57//57 90//90 88//88
f 55//55 74//74 87//87
f 73//73 85//85 74//74
f 87//87 85//85 57//57
f 74//74 85//85 87//87
f 91//91 92//92 93//93
f 94//94 93//93 95//95
f 91//91 93//93 94//94
f 94//94 95//95 96//96
f 97//97 98//98 99//99
f 100//100 101//101 92//92
f 91//91 100//100 92//92
f 97//97 99//99 102//102
f 103//103 104//104 101//101
f 100//100 103//103 101//101
f 102//102 105//105 106//106
f 96//96 95//95 107//107
f 99//99 105//105 102//102
f 96//96 107//107 108//108
f 108//108 107//107 109//109
f 105//105 110//110 106//106
f 108//108 109//109 111//111
f 112//112 113//113 104//104
f 103//103 112//112 104//104
f 106//106 110//110 114//114
f 115//115 116//116 113//113
f 112//112 115//115 113//113
f 111//111 109//109 117//117
f 114//114 110//110 118//118
f 111//111 117//117 119//119
f 119//119 117//117 120//120
f 114//114 118//118 121//121
f 119//119 120//120 122//122
f 118//118 123//123 121//121
f 115//115 124//124 116//116
f 124//124 125//125 116//116
f 122//122 120//120 125//125
f 124//124 122//122 125//125
f 121//121 123//123 126//126
f 127//127 2//2 128//128
f 128//128 7//7 129//129
f 127//127 3//3 2//2
f 128//128 4//4 7//7
f 128//128 2//2 4//4
f 127//127 130//130 131//131
f 127//127 131//131 3//3
f 130//130 132//132 133//133
f 128//128 129//129 134//134
f 134//134 129//129 135//135
f 134//134 135//135 136//136
f 137//137 138//138 139//139
f 140//140 141//141 137//137
f 140//140 142//142 143//143
f 142//142 144//144 145//145
f 132//132 146//146 147//147
f 134//134 136//136 148//148
f 148//148 136//136 149//149
f 130//130 133//133 131//131
f 131//131 5//5 3//3
f 132//132 147//147 133//133
f 139//139 138//138 150//150
f 144//144 151//151 152//152
f 148//148 149//149 153//153
f 151//151 154//154 155//155
f 137//137 141//141 138//138
f 140//140 143//143 141//141
f 142//142 145//145 143//143
f 146//146 156//156 157//157
f 153//153 149//149 158//158
f 151//151 155//155 152//152
f 153//153 158//158 159//159
f 144//144 152//152 145//145
f 146//146 157//157 147//147
f 156//156 160//160 157//157
f 161//161 162//162 163//163
f 161//161 164//164 162//162
f 165//165 166//166 167//167
f 161//161 165//165 168//168
f 161//161 169//169 164//164
f 166//166 170//170 167//167
f 165//165 167//167 168//168
f 161//161 168//168 169//169
f 169//169 171//171 164//164
f 156//156 172//172 160//160
f 172//172 173//173 174//174
f 159//159 158//158 175//175
f 159//159 175//175 176//176
f 176//176 175//175 177//177
f 176//176 177//177 178//178
f 178//178 177//177 42//42
f 178//178 42//42 36//36
f 178//178 36//36 35//35
f 178//178 35//35 34//34
f 173//173 178//178 179//179
f 178//178 34//34 179//179
f 160//160 172//172 174//174
f 173//173 179//179 174//174
f 179//179 34//34 37//37
f 169//169 180//180 171//171
f 169//169 181//181 180//180
f 182//182 183//183 184//184
f 182//182 184//184 185//185
f 186//186 187//187 188//188
f 182//182 189//189 186//186
f 182//182 185//185 190//190
f 188//188 187//187 191//191
f 186//186 189//189 187//187
f 182//182 192//192 189//189
f 182//182 190//190 192//192
f 193//193 60//60 16//16
f 193//193 194//194 195//195
f 194//194 196//196 197//197
f 196//196 198//198 199//199
f 194//194 197//197 195//195
f 193//193 200//200 60//60
f 193//193 195//195 200//200
f 200//200 61//61 60//60
f 200//200 62//62 61//61
f 200//200 64//64 62//62
f 200//200 201//201 64//64
f 201//201 202//202 64//64
f 201//201 203//203 202//202
f 201//201 204//204 203//203
f 196//196 199//199 197//197
f 205//205 206//206 207//207
f 208//208 205//205 209//209
f 208//208 210//210 211//211
f 211//211 212//212 213//213
f 204//204 214//214 203//203
f 204//204 215//215 214//214
f 198//198 216//216 217//217
f 198//198 217//217 199//199
f 206//206 218//218 207//207
f 213//213 219//219 220//220
f 215//215 221//221 214//214
f 220//220 222//222 223//223
f 216//216 224//224 217//217
f 205//205 207//207 209//209
f 208//208 209//209 210//210
f 211//211 210//210 212//212
f 215//215 225//225 221//221
f 220//220 219//219 222//222
f 225//225 226//226 221//221
f 213//213 212//212 219//219
f 192//192 190//190 227//227
f 192//192 227//227 228//228
f 216//216 229//229 224//224
f 229//229 230//230 231//231
f 230//230 45//45 76//76
f 224//224 229//229 231//231
f 225//225 232//232 226//226
f 232//232 233//233 226//226
f 232//232 234//234 233//233
f 232//232 235//235 234//234
f 230//230 236//236 231//231
f 230//230 76//76 236//236
f 235//235 80//80 84//84
f 235//235 84//84 234//234
f 236//236 76//76 79//79
f 235//235 79//79 80//80
f 236//236 79//79 235//235
