v -0.12066 -0.04666 -0.24000
v -0.11500 -0.04666 -0.24566
v -0.11500 -0.04900 -0.24000
v -0.12066 -0.04100 -0.24566
v -0.12300 -0.04100 -0.24000
v -0.11500 -0.04100 -0.24800
v -0.12066 0.04100 -0.24566
v -0.12066 -0.04666 0.24000
v -0.12300 0.04100 -0.24000
v -0.11500 0.04100 -0.24800
v -0.12300 0.04100 0.24000
v 0.11500 -0.04900 -0.24000
v 0.11500 -0.04100 -0.24800
v 0.11500 0.04100 -0.24800
v -0.11500 -0.04900 0.24000
v -0.12300 -0.04100 0.24000
v -0.11500 -0.04666 0.24566
v -0.12066 -0.04100 0.24566
v -0.11500 -0.04100 0.24800
v -0.05000 -0.04875 0.24061
v -0.05000 -0.04666 0.24566
v -0.12066 0.04100 0.24566
v -0.05000 -0.04100 0.24800
v -0.11500 0.04100 0.24800
v -0.05000 -0.04666 0.24566
v -0.05000 0.04100 0.24800
v 0.11500 -0.04900 0.24000
v -0.12066 0.04666 -0.24000
v -0.11500 0.04666 -0.24566
v -0.11500 0.04900 -0.24000
v -0.06495 0.04900 -0.16250
v -0.03750 0.04900 -0.18995
v -0.07500 0.04900 -0.12500
v -0.11500 0.04900 0.24000
v -0.07500 0.04900 0.12500
v -0.06495 0.04900 -0.08750
v 0.00000 0.04900 -0.20000
v 0.11500 0.04900 -0.24000
v -0.06495 0.04900 0.08750
v -0.03750 0.04900 -0.06005
v -0.03750 0.04900 0.06005
v 0.00000 0.04900 -0.05000
v -0.12066 0.04666 0.24000
v -0.11500 0.04666 0.24566
v -0.05000 0.04666 0.24566
v -0.06495 0.04900 0.16250
v -0.03750 0.04900 0.18995
v -0.05000 0.04666 0.24566
v -0.05000 0.04875 0.24061
v 0.00000 0.04900 0.20000
v 0.05000 0.04875 0.24061
v 0.11500 -0.04666 -0.24566
v 0.12066 -0.04666 -0.24000
v 0.12066 -0.04100 -0.24566
v 0.12300 -0.04100 -0.24000
v 0.12066 0.04100 -0.24566
v 0.12066 -0.04666 0.24000
v 0.12300 0.04100 -0.24000
v 0.12300 -0.04100 0.24000
v 0.05000 -0.04875 0.24061
v 0.05000 -0.04666 0.24566
v 0.11500 -0.04666 0.24566
v 0.05000 -0.04100 0.24800
v 0.05000 -0.04666 0.24566
v 0.11500 -0.04100 0.24800
v 0.05000 0.04100 0.24800
v 0.12066 -0.04100 0.24566
v 0.11500 0.04100 0.24800
v 0.12300 0.04100 0.24000
v 0.12066 0.04100 0.24566
v 0.11500 0.04666 -0.24566
v 0.03750 0.04900 -0.18995
v 0.03750 0.04900 -0.06005
v 0.00000 0.04900 0.05000
v 0.03750 0.04900 0.06005
v 0.06495 0.04900 0.08750
v 0.06495 0.04900 -0.08750
v 0.06495 0.04900 -0.16250
v 0.07500 0.04900 -0.12500
v 0.12066 0.04666 -0.24000
v 0.07500 0.04900 0.12500
v 0.11500 0.04900 0.24000
v 0.03750 0.04900 0.18995
v 0.12066 0.04666 0.24000
v 0.05000 0.04666 0.24566
v 0.06495 0.04900 0.16250
v 0.11500 0.04666 0.24566
v 0.05000 0.04666 0.24566
v -0.06495 0.09900 -0.16250
v -0.06495 0.04900 -0.16250
v -0.07500 0.04900 -0.12500
v -0.07500 0.09900 -0.12500
v -0.06495 0.04900 -0.08750
v -0.06495 0.09900 -0.16250
v -0.07500 0.09900 -0.12500
v -0.06495 0.09900 -0.08750
v -0.06495 0.09900 -0.08750
v -0.03750 0.09900 -0.18995
v -0.03750 0.04900 -0.18995
v -0.03750 0.09900 -0.18995
v -0.03750 0.09900 -0.06005
v 0.00000 0.09900 -0.20000
v 0.00000 0.04900 -0.20000
v 0.00000 0.09900 -0.20000
v -0.03750 0.04900 -0.06005
v -0.03750 0.09900 -0.06005
v 0.00000 0.04900 -0.05000
v 0.00000 0.09900 -0.05000
v 0.00000 0.09900 -0.05000
v 0.03750 0.09900 -0.18995
v 0.03750 0.04900 -0.18995
v 0.03750 0.09900 -0.18995
v 0.06495 0.09900 -0.16250
v 0.06495 0.04900 -0.16250
v 0.03750 0.09900 -0.06005
v 0.06495 0.09900 -0.16250
v 0.03750 0.04900 -0.06005
v 0.03750 0.09900 -0.06005
v 0.06495 0.04900 -0.08750
v 0.06495 0.09900 -0.08750
v 0.06495 0.09900 -0.08750
v 0.07500 0.09900 -0.12500
v 0.07500 0.04900 -0.12500
v 0.07500 0.09900 -0.12500
v -0.06495 0.09900 0.08750
v -0.06495 0.04900 0.08750
v -0.07500 0.04900 0.12500
v -0.07500 0.09900 0.12500
v -0.06495 0.04900 0.16250
v -0.06495 0.09900 0.16250
v -0.06495 0.09900 0.08750
v -0.07500 0.09900 0.12500
v -0.06495 0.09900 0.16250
v -0.03750 0.09900 0.06005
v -0.03750 0.04900 0.06005
v -0.03750 0.09900 0.06005
v -0.03750 0.09900 0.18995
v 0.00000 0.09900 0.05000
v 0.00000 0.04900 0.05000
v 0.00000 0.09900 0.05000
v 0.00000 0.09900 0.20000
v -0.03750 0.04900 0.18995
v -0.03750 0.09900 0.18995
v 0.00000 0.04900 0.20000
v 0.00000 0.09900 0.20000
v 0.03750 0.09900 0.06005
v 0.03750 0.04900 0.06005
v 0.03750 0.09900 0.06005
v 0.03750 0.09900 0.18995
v 0.06495 0.09900 0.08750
v 0.06495 0.04900 0.08750
v 0.06495 0.09900 0.08750
v 0.06495 0.09900 0.16250
v 0.03750 0.04900 0.18995
v 0.03750 0.09900 0.18995
v 0.06495 0.04900 0.16250
v 0.06495 0.09900 0.16250
v 0.07500 0.09900 0.12500
v 0.07500 0.04900 0.12500
v 0.07500 0.09900 0.12500
v -0.05000 -0.04875 0.26113
v -0.05000 -0.04666 0.24566
v -0.05000 -0.04875 0.24061
v -0.05000 -0.04100 0.24800
v -0.05000 0.04875 0.26113
v -0.05000 -0.03909 0.28117
v -0.05000 -0.04875 0.26113
v 0.05000 -0.03909 0.28117
v -0.05000 -0.03909 0.28117
v 0.05000 -0.02169 0.29505
v -0.05000 -0.02169 0.29505
v -0.05000 -0.02169 0.29505
v -0.05000 0.03909 0.28117
v -0.05000 0.00000 0.30000
v -0.05000 0.02169 0.29505
v -0.05000 0.04100 0.24800
v 0.05000 0.00000 0.30000
v -0.05000 0.00000 0.30000
v 0.05000 0.02169 0.29505
v -0.05000 0.02169 0.29505
v -0.05000 0.04666 0.24566
v -0.05000 0.04875 0.24061
v 0.05000 0.03909 0.28117
v -0.05000 0.03909 0.28117
v -0.05000 0.04875 0.26113
v 0.05000 0.04875 0.26113
v 0.05000 -0.04875 0.26113
v 0.05000 -0.04875 0.26113
v 0.05000 -0.04875 0.24061
v 0.05000 -0.04666 0.24566
v 0.05000 -0.04100 0.24800
v 0.05000 0.04100 0.24800
v 0.05000 0.04875 0.26113
v 0.05000 -0.03909 0.28117
v 0.05000 0.03909 0.28117
v 0.05000 -0.02169 0.29505
v 0.05000 0.02169 0.29505
v 0.05000 0.00000 0.30000
v 0.05000 0.04666 0.24566
v 0.05000 0.04875 0.24061
vn -0.6887 -0.6887 -0.2265
vn -0.2265 -0.6887 -0.6887
vn -0.1877 -0.9641 -0.1877
vn -0.6887 -0.2265 -0.6887
vn -0.9641 -0.1877 -0.1877
vn -0.1877 -0.1877 -0.9641
vn -0.6887 0.2265 -0.6887
vn -0.6887 -0.6887 0.2265
vn -0.9641 0.1877 -0.1877
vn -0.1877 0.1877 -0.9641
vn -0.9641 0.1877 0.1877
vn 0.1877 -0.9641 -0.1877
vn 0.1877 -0.1877 -0.9641
vn 0.1877 0.1877 -0.9641
vn -0.1877 -0.9641 0.1877
vn -0.9641 -0.1877 0.1877
vn -0.2265 -0.6887 0.6887
vn -0.6887 -0.2265 0.6887
vn -0.1877 -0.1877 0.9641
vn -0.0000 -0.9567 0.2912
vn 0.0000 -0.3827 0.9239
vn -0.6887 0.2265 0.6887
vn 0.0000 -0.1951 0.9808
vn -0.1877 0.1877 0.9641
vn 0.0000 -0.9239 0.3827
vn -0.0000 0.1951 0.9808
vn 0.1877 -0.9641 0.1877
vn -0.6887 0.6887 -0.2265
vn -0.2265 0.6887 -0.6887
vn -0.1877 0.9641 -0.1877
vn 0.0000 1.0000 0.0000
vn 0.0000 1.0000 0.0000
vn 0.0000 1.0000 0.0000
vn -0.1877 0.9641 0.1877
vn 0.0000 1.0000 0.0000
vn 0.0000 1.0000 0.0000
vn 0.0000 1.0000 0.0000
vn 0.1877 0.9641 -0.1877
vn 0.0000 1.0000 0.0000
vn 0.0000 1.0000 0.0000
vn 0.0000 1.0000 0.0000
vn 0.0000 1.0000 0.0000
vn -0.6887 0.6887 0.2265
vn -0.2265 0.6887 0.6887
vn -0.0000 0.9239 0.3827
vn 0.0000 1.0000 0.0000
vn 0.0000 1.0000 0.0000
vn 0.0000 0.3827 0.9239
vn -0.0000 0.9567 0.2912
vn 0.0000 1.0000 0.0000
vn 0.0000 0.9567 0.2912
vn 0.2265 -0.6887 -0.6887
vn 0.6887 -0.6887 -0.2265
vn 0.6887 -0.2265 -0.6887
vn 0.9641 -0.1877 -0.1877
vn 0.6887 0.2265 -0.6887
vn 0.6887 -0.6887 0.2265
vn 0.9641 0.1877 -0.1877
vn 0.9641 -0.1877 0.1877
vn 0.0000 -0.9567 0.2912
vn 0.0000 -0.9239 0.3827
vn 0.2265 -0.6887 0.6887
vn 0.0000 -0.1951 0.9808
vn 0.0000 -0.3827 0.9239
vn 0.1877 -0.1877 0.9641
vn 0.0000 0.1951 0.9808
vn 0.6887 -0.2265 0.6887
vn 0.1877 0.1877 0.9641
vn 0.9641 0.1877 0.1877
vn 0.6887 0.2265 0.6887
vn 0.2265 0.6887 -0.6887
vn 0.0000 1.0000 0.0000
vn 0.0000 1.0000 0.0000
vn 0.0000 1.0000 0.0000
vn 0.0000 1.0000 0.0000
vn 0.0000 1.0000 0.0000
vn 0.0000 1.0000 0.0000
vn 0.0000 1.0000 0.0000
vn 0.0000 1.0000 0.0000
vn 0.6887 0.6887 -0.2265
vn 0.0000 1.0000 0.0000
vn 0.1877 0.9641 0.1877
vn 0.0000 1.0000 0.0000
vn 0.6887 0.6887 0.2265
vn -0.0000 0.3827 0.9239
vn 0.0000 1.0000 0.0000
vn 0.2265 0.6887 0.6887
vn 0.0000 0.9239 0.3827
vn -0.8660 0.0000 -0.5000
vn -0.8660 0.0000 -0.5000
vn -1.0000 0.0000 -0.0000
vn -1.0000 0.0000 0.0000
vn -0.8660 0.0000 0.5000
vn 0.0000 1.0000 0.0000
vn 0.0000 1.0000 0.0000
vn 0.0000 1.0000 0.0000
vn -0.8660 0.0000 0.5000
vn -0.5000 0.0000 -0.8660
vn -0.5000 0.0000 -0.8660
vn 0.0000 1.0000 0.0000
vn 0.0000 1.0000 0.0000
vn 0.0000 0.0000 -1.0000
vn 0.0000 0.0000 -1.0000
vn 0.0000 1.0000 0.0000
vn -0.5000 0.0000 0.8660
vn -0.5000 0.0000 0.8660
vn 0.0000 0.0000 1.0000
vn 0.0000 0.0000 1.0000
vn 0.0000 1.0000 0.0000
vn 0.5000 0.0000 -0.8660
vn 0.5000 0.0000 -0.8660
vn 0.0000 1.0000 0.0000
vn 0.8660 0.0000 -0.5000
vn 0.8660 0.0000 -0.5000
vn 0.0000 1.0000 0.0000
vn 0.0000 1.0000 0.0000
vn 0.5000 0.0000 0.8660
vn 0.5000 0.0000 0.8660
vn 0.8660 0.0000 0.5000
vn 0.8660 0.0000 0.5000
vn 0.0000 1.0000 0.0000
vn 1.0000 0.0000 0.0000
vn 1.0000 0.0000 0.0000
vn 0.0000 1.0000 0.0000
vn -0.8660 0.0000 -0.5000
vn -0.8660 0.0000 -0.5000
vn -1.0000 0.0000 -0.0000
vn -1.0000 0.0000 0.0000
vn -0.8660 0.0000 0.5000
vn -0.8660 0.0000 0.5000
vn 0.0000 1.0000 0.0000
vn 0.0000 1.0000 0.0000
vn 0.0000 1.0000 0.0000
vn -0.5000 0.0000 -0.8660
vn -0.5000 0.0000 -0.8660
vn 0.0000 1.0000 0.0000
vn 0.0000 1.0000 0.0000
vn 0.0000 0.0000 -1.0000
vn 0.0000 0.0000 -1.0000
vn 0.0000 1.0000 0.0000
vn 0.0000 1.0000 0.0000
vn -0.5000 0.0000 0.8660
vn -0.5000 0.0000 0.8660
vn 0.0000 0.0000 1.0000
vn 0.0000 0.0000 1.0000
vn 0.5000 0.0000 -0.8660
vn 0.5000 0.0000 -0.8660
vn 0.0000 1.0000 0.0000
vn 0.0000 1.0000 0.0000
vn 0.8660 0.0000 -0.5000
vn 0.8660 0.0000 -0.5000
vn 0.0000 1.0000 0.0000
vn 0.0000 1.0000 0.0000
vn 0.5000 0.0000 0.8660
vn 0.5000 0.0000 0.8660
vn 0.8660 0.0000 0.5000
vn 0.8660 0.0000 0.5000
vn 1.0000 0.0000 0.0000
vn 1.0000 0.0000 0.0000
vn 0.0000 1.0000 0.0000
vn -1.0000 0.0000 0.0000
vn -1.0000 0.0000 0.0000
vn -1.0000 0.0000 0.0000
vn -1.0000 0.0000 0.0000
vn -1.0000 0.0000 0.0000
vn -1.0000 0.0000 0.0000
vn 0.0000 -0.9749 0.2225
vn 0.0000 -0.7818 0.6235
vn -0.0000 -0.7818 0.6235
vn -0.0000 -0.4339 0.9010
vn 0.0000 -0.4339 0.9010
vn -1.0000 0.0000 0.0000
vn -1.0000 0.0000 0.0000
vn -1.0000 0.0000 0.0000
vn -1.0000 0.0000 0.0000
vn -1.0000 0.0000 0.0000
vn 0.0000 0.0000 1.0000
vn 0.0000 0.0000 1.0000
vn 0.0000 0.4339 0.9010
vn 0.0000 0.4339 0.9010
vn -1.0000 0.0000 0.0000
vn -1.0000 0.0000 0.0000
vn 0.0000 0.7818 0.6235
vn 0.0000 0.7818 0.6235
vn 0.0000 0.9749 0.2225
vn 0.0000 0.9749 0.2225
vn 0.0000 -0.9749 0.2225
vn 1.0000 0.0000 0.0000
vn 1.0000 0.0000 0.0000
vn 1.0000 0.0000 0.0000
vn 1.0000 0.0000 0.0000
vn 1.0000 0.0000 0.0000
vn 1.0000 0.0000 0.0000
vn 1.0000 0.0000 0.0000
vn 1.0000 0.0000 0.0000
vn 1.0000 0.0000 0.0000
vn 1.0000 0.0000 0.0000
vn 1.0000 0.0000 0.0000
vn 1.0000 0.0000 0.0000
vn 1.0000 0.0000 0.0000
f 1//1 2//2 3//3
f 1//1 4//4 2//2
f 1//1 5//5 4//4
f 2//2 4//4 6//6
f 4//4 5//5 7//7
f 4//4 7//7 6//6
f 1//1 8//8 5//5
f 1//1 3//3 8//8
f 5//5 9//9 7//7
f 6//6 7//7 10//10
f 5//5 11//11 9//9
f 3//3 2//2 12//12
f 2//2 6//6 13//13
f 6//6 10//10 14//14
f 3//3 15//15 8//8
f 5//5 8//8 16//16
f 5//5 16//16 11//11
f 8//8 15//15 17//17
f 8//8 17//17 18//18
f 8//8 18//18 16//16
f 17//17 19//19 18//18
f 15//15 20//20 17//17
f 17//17 21//21 19//19
f 16//16 18//18 22//22
f 18//18 19//19 22//22
f 19//19 23//23 24//24
f 17//17 20//20 25//25
f 19//19 21//21 23//23
f 16//16 22//22 11//11
f 19//19 24//24 22//22
f 24//24 23//23 26//26
f 3//3 27//27 15//15
f 15//15 27//27 20//20
f 7//7 9//9 28//28
f 7//7 29//29 10//10
f 7//7 28//28 29//29
f 28//28 30//30 29//29
f 30//30 31//31 32//32
f 30//30 33//33 31//31
f 9//9 11//11 28//28
f 28//28 34//34 30//30
f 30//30 34//34 33//33
f 33//33 35//35 36//36
f 10//10 29//29 14//14
f 30//30 32//32 37//37
f 29//29 30//30 38//38
f 36//36 39//39 40//40
f 40//40 41//41 42//42
f 28//28 11//11 43//43
f 28//28 43//43 34//34
f 34//34 35//35 33//33
f 36//36 35//35 39//39
f 11//11 22//22 43//43
f 22//22 24//24 44//44
f 24//24 26//26 44//44
f 22//22 44//44 43//43
f 43//43 44//44 34//34
f 44//44 45//45 34//34
f 34//34 46//46 35//35
f 34//34 47//47 46//46
f 44//44 26//26 48//48
f 34//34 45//45 49//49
f 40//40 39//39 41//41
f 34//34 50//50 47//47
f 34//34 49//49 51//51
f 2//2 52//52 12//12
f 2//2 13//13 52//52
f 6//6 14//14 13//13
f 3//3 12//12 27//27
f 12//12 52//52 53//53
f 52//52 54//54 53//53
f 52//52 13//13 54//54
f 53//53 54//54 55//55
f 13//13 56//56 54//54
f 54//54 56//56 55//55
f 12//12 53//53 57//57
f 53//53 55//55 57//57
f 55//55 58//58 59//59
f 13//13 14//14 56//56
f 55//55 56//56 58//58
f 27//27 60//60 20//20
f 12//12 57//57 27//27
f 55//55 59//59 57//57
f 27//27 61//61 60//60
f 62//62 63//63 64//64
f 65//65 66//66 63//63
f 27//27 62//62 61//61
f 62//62 65//65 63//63
f 27//27 57//57 62//62
f 62//62 57//57 67//67
f 62//62 67//67 65//65
f 57//57 59//59 67//67
f 65//65 67//67 68//68
f 59//59 69//69 67//67
f 59//59 58//58 69//69
f 65//65 68//68 66//66
f 67//67 70//70 68//68
f 67//67 69//69 70//70
f 30//30 37//37 38//38
f 29//29 71//71 14//14
f 29//29 38//38 71//71
f 38//38 37//37 72//72
f 42//42 41//41 73//73
f 74//74 73//73 41//41
f 74//74 75//75 73//73
f 73//73 76//76 77//77
f 38//38 72//72 78//78
f 38//38 78//78 79//79
f 14//14 71//71 56//56
f 56//56 80//80 58//58
f 56//56 71//71 80//80
f 71//71 38//38 80//80
f 38//38 79//79 81//81
f 77//77 76//76 79//79
f 58//58 80//80 69//69
f 38//38 82//82 80//80
f 73//73 75//75 76//76
f 34//34 82//82 50//50
f 34//34 51//51 82//82
f 82//82 83//83 50//50
f 79//79 76//76 81//81
f 38//38 81//81 82//82
f 80//80 82//82 84//84
f 80//80 84//84 69//69
f 68//68 85//85 66//66
f 82//82 86//86 83//83
f 82//82 81//81 86//86
f 87//87 51//51 88//88
f 68//68 70//70 87//87
f 69//69 84//84 70//70
f 68//68 87//87 85//85
f 87//87 82//82 51//51
f 70//70 84//84 87//87
f 87//87 84//84 82//82
f 89//89 90//90 91//91
f 92//92 91//91 93//93
f 89//89 91//91 92//92
f 94//94 95//95 96//96
f 92//92 93//93 97//97
f 98//98 99//99 90//90
f 89//89 98//98 90//90
f 94//94 96//96 100//100
f 96//96 101//101 100//100
f 102//102 103//103 99//99
f 98//98 102//102 99//99
f 100//100 101//101 104//104
f 97//97 93//93 105//105
f 97//97 105//105 106//106
f 106//106 105//105 107//107
f 106//106 107//107 108//108
f 104//104 101//101 109//109
f 110//110 111//111 103//103
f 102//102 110//110 103//103
f 104//104 109//109 112//112
f 113//113 114//114 111//111
f 110//110 113//113 111//111
f 112//112 115//115 116//116
f 108//108 107//107 117//117
f 108//108 117//117 118//118
f 109//109 115//115 112//112
f 118//118 117//117 119//119
f 118//118 119//119 120//120
f 115//115 121//121 116//116
f 122//122 123//123 114//114
f 113//113 122//122 114//114
f 120//120 123//123 122//122
f 116//116 121//121 124//124
f 120//120 119//119 123//123
f 125//125 126//126 127//127
f 128//128 127//127 129//129
f 125//125 127//127 128//128
f 128//128 129//129 130//130
f 131//131 132//132 133//133
f 134//134 135//135 126//126
f 125//125 134//134 126//126
f 131//131 133//133 136//136
f 133//133 137//137 136//136
f 138//138 139//139 135//135
f 134//134 138//138 135//135
f 136//136 137//137 140//140
f 140//140 137//137 141//141
f 130//130 129//129 142//142
f 130//130 142//142 143//143
f 143//143 142//142 144//144
f 143//143 144//144 145//145
f 146//146 147//147 139//139
f 138//138 146//146 139//139
f 140//140 141//141 148//148
f 141//141 149//149 148//148
f 150//150 151//151 147//147
f 146//146 150//150 147//147
f 148//148 149//149 152//152
f 149//149 153//153 152//152
f 145//145 144//144 154//154
f 145//145 154//154 155//155
f 155//155 154//154 156//156
f 155//155 156//156 157//157
f 158//158 159//159 151//151
f 157//157 156//156 159//159
f 150//150 158//158 151//151
f 157//157 159//159 158//158
f 152//152 153//153 160//160
f 161//161 162//162 163//163
f 161//161 164//164 162//162
f 161//161 165//165 164//164
f 161//161 166//166 165//165
f 167//167 20//20 60//60
f 167//167 168//168 169//169
f 169//169 170//170 171//171
f 166//166 172//172 173//173
f 172//172 174//174 175//175
f 172//172 175//175 173//173
f 165//165 176//176 164//164
f 166//166 173//173 165//165
f 171//171 177//177 178//178
f 178//178 179//179 180//180
f 165//165 181//181 176//176
f 165//165 182//182 181//181
f 180//180 183//183 184//184
f 185//185 186//186 49//49
f 184//184 186//186 185//185
f 167//167 60//60 187//187
f 167//167 187//187 168//168
f 169//169 168//168 170//170
f 171//171 170//170 177//177
f 188//188 189//189 190//190
f 188//188 190//190 191//191
f 188//188 191//191 192//192
f 188//188 193//193 194//194
f 178//178 177//177 179//179
f 194//194 195//195 196//196
f 196//196 197//197 198//198
f 188//188 192//192 193//193
f 196//196 195//195 197//197
f 194//194 193//193 195//195
f 180//180 179//179 183//183
f 184//184 183//183 186//186
f 186//186 51//51 49//49
f 193//193 192//192 199//199
f 193//193 199//199 200//200
