v -0.12300 -0.03785 -0.03125
v -0.12300 0.00494 -0.12500
v -0.12300 -0.01014 -0.09375
v -0.12300 -0.05021 0.00000
v -0.12300 0.02065 -0.15625
v -0.12300 -0.06141 0.03125
v -0.12300 -0.02445 -0.06250
v -0.12300 -0.07135 0.06250
v -0.12300 0.03683 -0.18750
v -0.12300 -0.07993 0.09375
v -0.12300 0.05334 -0.21875
v -0.12300 -0.08706 0.12500
v -0.12300 0.07000 -0.25000
v -0.12300 -0.05021 0.00000
v -0.12300 -0.03785 -0.03125
v 0.12300 -0.05021 0.00000
v -0.12300 0.00494 -0.12500
v -0.12300 0.02065 -0.15625
v 0.12300 0.00494 -0.12500
v -0.12300 -0.02445 -0.06250
v -0.12300 -0.01014 -0.09375
v 0.12300 -0.02445 -0.06250
v 0.12300 -0.03785 -0.03125
v 0.12300 -0.01014 -0.09375
v -0.12300 -0.10000 0.25000
v -0.12300 -0.09673 0.18750
v -0.12300 -0.09918 0.21875
v -0.12300 -0.09268 0.15625
v -0.12300 0.10000 -0.25000
v -0.12300 0.10000 0.25000
v -0.12300 -0.08706 0.12500
v -0.12300 -0.07993 0.09375
v 0.12300 -0.08706 0.12500
v -0.12300 -0.07135 0.06250
v 0.12300 -0.07993 0.09375
v -0.12300 -0.06141 0.03125
v 0.12300 -0.06141 0.03125
v 0.12300 -0.07135 0.06250
v -0.12300 -0.09268 0.15625
v 0.12300 -0.09268 0.15625
v -0.12300 -0.09673 0.18750
v 0.12300 -0.09673 0.18750
v -0.12300 -0.09918 0.21875
v 0.12300 -0.09918 0.21875
v -0.12300 -0.10000 0.25000
v 0.12300 -0.10000 0.25000
v -0.12300 0.10000 -0.25000
v -0.06495 0.10000 -0.16250
v -0.03750 0.10000 -0.18995
v -0.07500 0.10000 -0.12500
v -0.07500 0.10000 0.12500
v -0.06495 0.10000 0.08750
v -0.06495 0.10000 -0.08750
v -0.12300 0.03683 -0.18750
v -0.12300 0.05334 -0.21875
v 0.12300 0.03683 -0.18750
v 0.12300 0.02065 -0.15625
v -0.12300 0.07000 -0.25000
v 0.12300 0.05334 -0.21875
v -0.12300 0.07000 -0.25000
v -0.12300 0.10000 -0.25000
v 0.12300 0.07000 -0.25000
v 0.00000 0.10000 -0.20000
v 0.03750 0.10000 -0.18995
v -0.03750 0.10000 0.06005
v -0.03750 0.10000 -0.06005
v 0.00000 0.10000 0.05000
v 0.00000 0.10000 -0.05000
v -0.12300 0.10000 0.25000
v -0.06495 0.10000 0.16250
v -0.03750 0.10000 0.18995
v -0.12300 -0.10000 0.25000
v 0.12300 0.10000 0.25000
v -0.12300 0.10000 0.25000
v 0.12300 0.10000 0.25000
v 0.12300 -0.03785 -0.03125
v 0.12300 -0.01014 -0.09375
v 0.12300 0.00494 -0.12500
v 0.12300 -0.05021 0.00000
v 0.12300 0.02065 -0.15625
v 0.12300 -0.06141 0.03125
v 0.12300 -0.02445 -0.06250
v 0.12300 -0.07135 0.06250
v 0.12300 0.03683 -0.18750
v 0.12300 -0.07993 0.09375
v 0.12300 0.05334 -0.21875
v 0.12300 -0.08706 0.12500
v 0.12300 0.07000 -0.25000
v 0.12300 -0.10000 0.25000
v 0.12300 -0.10000 0.25000
v 0.12300 -0.09918 0.21875
v 0.12300 -0.09673 0.18750
v 0.12300 -0.09268 0.15625
v 0.12300 0.10000 -0.25000
v 0.12300 0.10000 0.25000
v 0.12300 0.07000 -0.25000
v 0.12300 0.10000 -0.25000
v 0.12300 0.10000 -0.25000
v 0.03750 0.10000 0.06005
v 0.03750 0.10000 -0.06005
v 0.06495 0.10000 0.08750
v 0.06495 0.10000 -0.08750
v 0.06495 0.10000 -0.16250
v 0.07500 0.10000 -0.12500
v 0.07500 0.10000 0.12500
v 0.00000 0.10000 0.20000
v 0.03750 0.10000 0.18995
v 0.06495 0.10000 0.16250
v -0.07500 0.14900 -0.12500
v -0.06495 0.10000 -0.16250
v -0.07500 0.10000 -0.12500
v -0.06495 0.14900 -0.16250
v -0.06495 0.14900 -0.08750
v -0.06495 0.10000 -0.08750
v -0.06495 0.14900 -0.16250
v -0.07500 0.14900 -0.12500
v -0.06495 0.14900 -0.08750
v -0.03750 0.10000 -0.18995
v -0.03750 0.14900 -0.18995
v -0.03750 0.14900 -0.18995
v 0.00000 0.10000 -0.20000
v 0.00000 0.14900 -0.20000
v -0.03750 0.14900 -0.06005
v 0.00000 0.14900 -0.20000
v -0.03750 0.14900 -0.06005
v -0.03750 0.10000 -0.06005
v 0.00000 0.14900 -0.05000
v 0.00000 0.10000 -0.05000
v 0.00000 0.14900 -0.05000
v 0.03750 0.10000 -0.18995
v 0.03750 0.14900 -0.18995
v 0.03750 0.14900 -0.18995
v 0.06495 0.10000 -0.16250
v 0.06495 0.14900 -0.16250
v 0.03750 0.14900 -0.06005
v 0.06495 0.14900 -0.16250
v 0.03750 0.14900 -0.06005
v 0.03750 0.10000 -0.06005
v 0.06495 0.14900 -0.08750
v 0.06495 0.10000 -0.08750
v 0.06495 0.14900 -0.08750
v 0.07500 0.10000 -0.12500
v 0.07500 0.14900 -0.12500
v 0.07500 0.14900 -0.12500
v -0.07500 0.14900 0.12500
v -0.06495 0.10000 0.08750
v -0.07500 0.10000 0.12500
v -0.06495 0.14900 0.08750
v -0.06495 0.14900 0.16250
v -0.06495 0.10000 0.16250
v -0.06495 0.14900 0.08750
v -0.07500 0.14900 0.12500
v -0.06495 0.14900 0.16250
v -0.03750 0.10000 0.06005
v -0.03750 0.14900 0.06005
v -0.03750 0.14900 0.06005
v 0.00000 0.10000 0.05000
v 0.00000 0.14900 0.05000
v -0.03750 0.14900 0.18995
v 0.00000 0.14900 0.05000
v -0.03750 0.14900 0.18995
v -0.03750 0.10000 0.18995
v 0.00000 0.14900 0.20000
v 0.00000 0.10000 0.20000
v 0.00000 0.14900 0.20000
v 0.03750 0.10000 0.06005
v 0.03750 0.14900 0.06005
v 0.03750 0.14900 0.06005
v 0.06495 0.10000 0.08750
v 0.06495 0.14900 0.08750
v 0.03750 0.14900 0.18995
v 0.06495 0.14900 0.08750
v 0.03750 0.14900 0.18995
v 0.03750 0.10000 0.18995
v 0.06495 0.14900 0.16250
v 0.06495 0.10000 0.16250
v 0.06495 0.14900 0.16250
v 0.07500 0.10000 0.12500
v 0.07500 0.14900 0.12500
v 0.07500 0.14900 0.12500
vn -1.0000 0.0000 0.0000
vn -1.0000 0.0000 0.0000
vn -1.0000 0.0000 0.0000
vn -1.0000 0.0000 0.0000
vn -1.0000 0.0000 0.0000
vn -1.0000 0.0000 0.0000
vn -1.0000 0.0000 0.0000
vn -1.0000 0.0000 0.0000
vn -1.0000 0.0000 0.0000
vn -1.0000 0.0000 0.0000
vn -1.0000 0.0000 0.0000
vn -1.0000 0.0000 0.0000
vn -1.0000 0.0000 0.0000
vn -0.0000 -0.9357 -0.3527
vn 0.0000 -0.9246 -0.3810
vn 0.0000 -0.9357 -0.3527
vn 0.0000 -0.8971 -0.4419
vn 0.0000 -0.8908 -0.4545
vn 0.0000 -0.8971 -0.4419
vn 0.0000 -0.9142 -0.4052
vn -0.0000 -0.9050 -0.4255
vn -0.0000 -0.9142 -0.4052
vn 0.0000 -0.9246 -0.3810
vn 0.0000 -0.9050 -0.4255
vn -1.0000 0.0000 0.0000
vn -1.0000 0.0000 0.0000
vn -1.0000 0.0000 0.0000
vn -1.0000 0.0000 0.0000
vn -1.0000 0.0000 0.0000
vn -1.0000 0.0000 0.0000
vn 0.0000 -0.9798 -0.1998
vn -0.0000 -0.9699 -0.2437
vn -0.0000 -0.9798 -0.1998
vn 0.0000 -0.9588 -0.2839
vn 0.0000 -0.9699 -0.2437
vn 0.0000 -0.9473 -0.3203
vn -0.0000 -0.9473 -0.3203
vn 0.0000 -0.9588 -0.2839
vn 0.0000 -0.9882 -0.1529
vn 0.0000 -0.9882 -0.1529
vn -0.0000 -0.9946 -0.1034
vn 0.0000 -0.9946 -0.1034
vn 0.0000 -0.9986 -0.0522
vn -0.0000 -0.9986 -0.0522
vn 0.0000 -0.9997 -0.0262
vn 0.0000 -0.9997 -0.0262
vn 0.0000 1.0000 0.0000
vn 0.0000 1.0000 0.0000
vn 0.0000 1.0000 0.0000
vn 0.0000 1.0000 0.0000
vn 0.0000 1.0000 0.0000
vn 0.0000 1.0000 0.0000
vn 0.0000 1.0000 0.0000
vn 0.0000 -0.8861 -0.4634
vn 0.0000 -0.8833 -0.4687
vn 0.0000 -0.8861 -0.4634
vn 0.0000 -0.8908 -0.4545
vn -0.0000 -0.8824 -0.4705
vn -0.0000 -0.8833 -0.4687
vn 0.0000 0.0000 -1.0000
vn 0.0000 0.0000 -1.0000
vn 0.0000 0.0000 -1.0000
vn 0.0000 1.0000 0.0000
vn 0.0000 1.0000 0.0000
vn 0.0000 1.0000 0.0000
vn 0.0000 1.0000 0.0000
vn 0.0000 1.0000 0.0000
vn 0.0000 1.0000 0.0000
vn 0.0000 1.0000 0.0000
vn 0.0000 1.0000 0.0000
vn 0.0000 1.0000 0.0000
vn 0.0000 0.0000 1.0000
vn 0.0000 0.0000 1.0000
vn 0.0000 0.0000 1.0000
vn 0.0000 1.0000 0.0000
vn 1.0000 0.0000 0.0000
vn 1.0000 0.0000 0.0000
vn 1.0000 0.0000 0.0000
vn 1.0000 0.0000 0.0000
vn 1.0000 0.0000 0.0000
vn 1.0000 0.0000 0.0000
vn 1.0000 0.0000 0.0000
vn 1.0000 0.0000 0.0000
vn 1.0000 0.0000 0.0000
vn 1.0000 0.0000 0.0000
vn 1.0000 0.0000 0.0000
vn 1.0000 0.0000 0.0000
vn 1.0000 0.0000 0.0000
vn 0.0000 0.0000 1.0000
vn 1.0000 0.0000 0.0000
vn 1.0000 0.0000 0.0000
vn 1.0000 0.0000 0.0000
vn 1.0000 0.0000 0.0000
vn 1.0000 0.0000 0.0000
vn 1.0000 0.0000 0.0000
vn 0.0000 -0.8824 -0.4705
vn 0.0000 1.0000 0.0000
vn 0.0000 0.0000 -1.0000
vn 0.0000 1.0000 0.0000
vn 0.0000 1.0000 0.0000
vn 0.0000 1.0000 0.0000
vn 0.0000 1.0000 0.0000
vn 0.0000 1.0000 0.0000
vn 0.0000 1.0000 0.0000
vn 0.0000 1.0000 0.0000
vn 0.0000 1.0000 0.0000
vn 0.0000 1.0000 0.0000
vn 0.0000 1.0000 0.0000
vn -1.0000 0.0000 0.0000
vn -0.8660 0.0000 -0.5000
vn -1.0000 0.0000 -0.0000
vn -0.8660 0.0000 -0.5000
vn -0.8660 0.0000 0.5000
vn -0.8660 0.0000 0.5000
vn 0.0000 1.0000 0.0000
vn 0.0000 1.0000 0.0000
vn 0.0000 1.0000 0.0000
vn -0.5000 0.0000 -0.8660
vn -0.5000 0.0000 -0.8660
vn 0.0000 1.0000 0.0000
vn 0.0000 0.0000 -1.0000
vn 0.0000 0.0000 -1.0000
vn 0.0000 1.0000 0.0000
vn 0.0000 1.0000 0.0000
vn -0.5000 0.0000 0.8660
vn -0.5000 -0.0000 0.8660
vn 0.0000 -0.0000 1.0000
vn 0.0000 0.0000 1.0000
vn 0.0000 1.0000 0.0000
vn 0.5000 0.0000 -0.8660
vn 0.5000 0.0000 -0.8660
vn 0.0000 1.0000 0.0000
vn 0.8660 0.0000 -0.5000
vn 0.8660 0.0000 -0.5000
vn 0.0000 1.0000 0.0000
vn 0.0000 1.0000 0.0000
vn 0.5000 0.0000 0.8660
vn 0.5000 0.0000 0.8660
vn 0.8660 0.0000 0.5000
vn 0.8660 0.0000 0.5000
vn 0.0000 1.0000 0.0000
vn 1.0000 0.0000 0.0000
vn 1.0000 0.0000 -0.0000
vn 0.0000 1.0000 0.0000
vn -1.0000 0.0000 0.0000
vn -0.8660 0.0000 -0.5000
vn -1.0000 0.0000 -0.0000
vn -0.8660 0.0000 -0.5000
vn -0.8660 0.0000 0.5000
vn -0.8660 0.0000 0.5000
vn 0.0000 1.0000 0.0000
vn 0.0000 1.0000 0.0000
vn 0.0000 1.0000 0.0000
vn -0.5000 0.0000 -0.8660
vn -0.5000 0.0000 -0.8660
vn 0.0000 1.0000 0.0000
vn 0.0000 0.0000 -1.0000
vn 0.0000 0.0000 -1.0000
vn 0.0000 1.0000 0.0000
vn 0.0000 1.0000 0.0000
vn -0.5000 0.0000 0.8660
vn -0.5000 0.0000 0.8660
vn 0.0000 0.0000 1.0000
vn 0.0000 0.0000 1.0000
vn 0.0000 1.0000 0.0000
vn 0.5000 0.0000 -0.8660
vn 0.5000 0.0000 -0.8660
vn 0.0000 1.0000 0.0000
vn 0.8660 0.0000 -0.5000
vn 0.8660 0.0000 -0.5000
vn 0.0000 1.0000 0.0000
vn 0.0000 1.0000 0.0000
vn 0.5000 0.0000 0.8660
vn 0.5000 0.0000 0.8660
vn 0.8660 0.0000 0.5000
vn 0.8660 0.0000 0.5000
vn 0.0000 1.0000 0.0000
vn 1.0000 0.0000 0.0000
vn 1.0000 0.0000 -0.0000
vn 0.0000 1.0000 0.0000
f 1//1 2//2 3//3
f 4//4 5//5 2//2
f 6//6 5//5 4//4
f 4//4 2//2 1//1
f 1//1 3//3 7//7
f 8//8 9//9 6//6
f 10//10 11//11 8//8
f 12//12 13//13 10//10
f 6//6 9//9 5//5
f 8//8 11//11 9//9
f 10//10 13//13 11//11
f 14//14 15//15 16//16
f 17//17 18//18 19//19
f 20//20 21//21 22//22
f 15//15 20//20 23//23
f 21//21 17//17 24//24
f 25//25 26//26 27//27
f 28//28 29//29 12//12
f 26//26 30//30 28//28
f 25//25 30//30 26//26
f 31//31 32//32 33//33
f 32//32 34//34 35//35
f 36//36 14//14 37//37
f 34//34 36//36 38//38
f 39//39 31//31 40//40
f 41//41 39//39 42//42
f 43//43 41//41 44//44
f 45//45 43//43 46//46
f 12//12 29//29 13//13
f 47//47 48//48 49//49
f 47//47 50//50 48//48
f 47//47 51//51 50//50
f 50//50 52//52 53//53
f 54//54 55//55 56//56
f 18//18 54//54 57//57
f 55//55 58//58 59//59
f 60//60 61//61 62//62
f 47//47 49//49 63//63
f 47//47 63//63 64//64
f 53//53 65//65 66//66
f 67//67 68//68 66//66
f 28//28 30//30 29//29
f 69//69 51//51 47//47
f 52//52 50//50 51//51
f 69//69 70//70 51//51
f 69//69 71//71 70//70
f 72//72 73//73 74//74
f 65//65 53//53 52//52
f 67//67 66//66 65//65
f 69//69 75//75 71//71
f 15//15 23//23 16//16
f 18//18 57//57 19//19
f 21//21 24//24 22//22
f 20//20 22//22 23//23
f 24//24 17//17 19//19
f 76//76 77//77 78//78
f 79//79 78//78 80//80
f 81//81 79//79 80//80
f 79//79 76//76 78//78
f 76//76 82//82 77//77
f 83//83 81//81 84//84
f 85//85 83//83 86//86
f 87//87 85//85 88//88
f 81//81 80//80 84//84
f 83//83 84//84 86//86
f 85//85 86//86 88//88
f 34//34 38//38 35//35
f 32//32 35//35 33//33
f 37//37 14//14 16//16
f 36//36 37//37 38//38
f 31//31 33//33 40//40
f 39//39 40//40 42//42
f 41//41 42//42 44//44
f 43//43 44//44 46//46
f 72//72 89//89 73//73
f 90//90 91//91 92//92
f 93//93 87//87 94//94
f 92//92 93//93 95//95
f 90//90 92//92 95//95
f 55//55 59//59 56//56
f 54//54 56//56 57//57
f 58//58 96//96 59//59
f 47//47 64//64 97//97
f 61//61 98//98 62//62
f 68//68 99//99 100//100
f 100//100 101//101 102//102
f 87//87 88//88 94//94
f 97//97 64//64 103//103
f 97//97 103//103 104//104
f 102//102 105//105 104//104
f 75//75 97//97 104//104
f 68//68 67//67 99//99
f 100//100 99//99 101//101
f 75//75 106//106 71//71
f 75//75 107//107 106//106
f 93//93 94//94 95//95
f 105//105 102//102 101//101
f 75//75 104//104 105//105
f 75//75 105//105 108//108
f 75//75 108//108 107//107
f 109//109 110//110 111//111
f 112//112 110//110 109//109
f 113//113 111//111 114//114
f 109//109 111//111 113//113
f 115//115 116//116 117//117
f 112//112 118//118 110//110
f 112//112 119//119 118//118
f 115//115 117//117 120//120
f 119//119 121//121 118//118
f 119//119 122//122 121//121
f 120//120 123//123 124//124
f 125//125 114//114 126//126
f 113//113 114//114 125//125
f 117//117 123//123 120//120
f 127//127 126//126 128//128
f 124//124 123//123 129//129
f 125//125 126//126 127//127
f 122//122 130//130 121//121
f 122//122 131//131 130//130
f 124//124 129//129 132//132
f 131//131 133//133 130//130
f 131//131 134//134 133//133
f 132//132 135//135 136//136
f 137//137 128//128 138//138
f 129//129 135//135 132//132
f 127//127 128//128 137//137
f 139//139 138//138 140//140
f 137//137 138//138 139//139
f 135//135 141//141 136//136
f 134//134 142//142 133//133
f 134//134 143//143 142//142
f 143//143 140//140 142//142
f 143//143 139//139 140//140
f 136//136 141//141 144//144
f 145//145 146//146 147//147
f 148//148 146//146 145//145
f 149//149 147//147 150//150
f 145//145 147//147 149//149
f 151//151 152//152 153//153
f 148//148 154//154 146//146
f 148//148 155//155 154//154
f 151//151 153//153 156//156
f 155//155 157//157 154//154
f 155//155 158//158 157//157
f 156//156 159//159 160//160
f 161//161 150//150 162//162
f 149//149 150//150 161//161
f 153//153 159//159 156//156
f 163//163 162//162 164//164
f 160//160 159//159 165//165
f 161//161 162//162 163//163
f 158//158 166//166 157//157
f 158//158 167//167 166//166
f 160//160 165//165 168//168
f 167//167 169//169 166//166
f 167//167 170//170 169//169
f 168//168 171//171 172//172
f 173//173 164//164 174//174
f 165//165 171//171 168//168
f 163//163 164//164 173//173
f 175//175 174//174 176//176
f 173//173 174//174 175//175
f 171//171 177//177 172//172
f 170//170 178//178 169//169
f 170//170 179//179 178//178
f 179//179 176//176 178//178
f 179//179 175//175 176//176
f 172//172 177//177 180//180
