v -0.74000 -0.04900 -0.24000
v -0.74566 -0.04666 -0.24000
v -0.74000 -0.04666 -0.24566
v -0.74566 -0.04100 -0.24566
v -0.74000 -0.04100 -0.24800
v -0.74800 -0.04100 -0.24000
v -0.74000 -0.04900 0.24000
v -0.74800 -0.04100 0.24000
v -0.74566 0.04100 -0.24566
v -0.74000 0.04100 -0.24800
v -0.74800 0.04100 -0.24000
v -0.74800 0.04100 0.24000
v 0.74000 -0.04900 -0.24000
v 0.74000 -0.04100 -0.24800
v -0.74566 -0.04666 0.24000
v -0.74000 -0.04666 0.24566
v -0.74566 -0.04100 0.24566
v -0.74000 -0.04100 0.24800
v -0.74566 0.04100 0.24566
v -0.74000 0.04100 0.24800
v 0.74000 -0.04900 0.24000
v 0.74000 -0.04100 0.24800
v -0.74000 0.04666 -0.24566
v -0.74566 0.04666 -0.24000
v -0.74000 0.04900 -0.24000
v -0.68995 0.04900 -0.16250
v -0.66250 0.04900 -0.18995
v -0.62500 0.04900 -0.20000
v -0.37500 0.04900 -0.20000
v -0.58750 0.04900 -0.18995
v -0.41250 0.04900 -0.18995
v -0.70000 0.04900 -0.12500
v -0.68995 0.04900 -0.08750
v -0.56005 0.04900 -0.16250
v -0.43995 0.04900 -0.16250
v -0.55000 0.04900 -0.12500
v -0.74000 0.04900 0.24000
v -0.70000 0.04900 0.12500
v -0.68995 0.04900 0.08750
v -0.66250 0.04900 -0.06005
v -0.62500 0.04900 0.05000
v -0.62500 0.04900 -0.05000
v -0.56005 0.04900 -0.08750
v -0.56005 0.04900 0.08750
v -0.58750 0.04900 -0.06005
v -0.12500 0.04900 -0.20000
v -0.33750 0.04900 -0.18995
v -0.16250 0.04900 -0.18995
v -0.45000 0.04900 -0.12500
v -0.31005 0.04900 -0.16250
v -0.18995 0.04900 -0.16250
v -0.30000 0.04900 -0.12500
v -0.20000 0.04900 -0.12500
v 0.74000 0.04666 -0.24566
v 0.12500 0.04900 -0.20000
v 0.37500 0.04900 -0.20000
v -0.08750 0.04900 -0.18995
v 0.08750 0.04900 -0.18995
v -0.06005 0.04900 -0.16250
v 0.06005 0.04900 -0.16250
v -0.05000 0.04900 -0.12500
v -0.31005 0.04900 -0.08750
v -0.18995 0.04900 -0.08750
v -0.33750 0.04900 -0.06005
v -0.45000 0.04900 0.12500
v -0.43995 0.04900 -0.08750
v -0.43995 0.04900 0.08750
v -0.41250 0.04900 -0.06005
v -0.37500 0.04900 0.05000
v -0.37500 0.04900 -0.05000
v -0.33750 0.04900 0.06005
v -0.06005 0.04900 -0.08750
v 0.06005 0.04900 -0.08750
v -0.08750 0.04900 -0.06005
v -0.16250 0.04900 -0.06005
v -0.31005 0.04900 0.08750
v -0.12500 0.04900 -0.05000
v 0.08750 0.04900 -0.06005
v 0.12500 0.04900 -0.05000
v 0.16250 0.04900 -0.06005
v -0.66250 0.04900 0.06005
v -0.58750 0.04900 0.06005
v -0.55000 0.04900 0.12500
v -0.74566 0.04666 0.24000
v -0.68995 0.04900 0.16250
v -0.43995 0.04900 0.16250
v -0.56005 0.04900 0.16250
v -0.58750 0.04900 0.18995
v -0.66250 0.04900 0.18995
v -0.62500 0.04900 0.20000
v -0.74000 0.04666 0.24566
v -0.41250 0.04900 0.18995
v -0.37500 0.04900 0.20000
v -0.41250 0.04900 0.06005
v -0.30000 0.04900 0.12500
v -0.18995 0.04900 0.08750
v -0.16250 0.04900 0.06005
v 0.31005 0.04900 -0.08750
v -0.20000 0.04900 0.12500
v -0.06005 0.04900 0.08750
v -0.05000 0.04900 0.12500
v 0.06005 0.04900 0.08750
v -0.31005 0.04900 0.16250
v -0.18995 0.04900 0.16250
v -0.33750 0.04900 0.18995
v -0.16250 0.04900 0.18995
v -0.12500 0.04900 0.20000
v -0.06005 0.04900 0.16250
v 0.06005 0.04900 0.16250
v -0.08750 0.04900 0.18995
v 0.12500 0.04900 0.20000
v 0.74000 0.04100 0.24800
v 0.74000 0.04900 0.24000
v 0.08750 0.04900 0.18995
v 0.74000 -0.04666 -0.24566
v 0.74000 0.04100 -0.24800
v 0.74566 -0.04666 -0.24000
v 0.74566 -0.04100 -0.24566
v 0.74800 -0.04100 -0.24000
v 0.74566 -0.04666 0.24000
v 0.74566 0.04100 -0.24566
v 0.74800 0.04100 -0.24000
v 0.74800 -0.04100 0.24000
v 0.74000 -0.04666 0.24566
v 0.74566 -0.04100 0.24566
v 0.74800 0.04100 0.24000
v 0.74566 0.04100 0.24566
v 0.74000 0.04900 -0.24000
v 0.16250 0.04900 -0.18995
v 0.33750 0.04900 -0.18995
v 0.05000 0.04900 -0.12500
v 0.18995 0.04900 -0.16250
v 0.31005 0.04900 -0.16250
v 0.20000 0.04900 -0.12500
v 0.30000 0.04900 -0.12500
v 0.43995 0.04900 -0.16250
v 0.45000 0.04900 -0.12500
v 0.56005 0.04900 -0.16250
v 0.43995 0.04900 -0.08750
v 0.18995 0.04900 -0.08750
v 0.33750 0.04900 -0.06005
v 0.37500 0.04900 -0.05000
v 0.41250 0.04900 -0.06005
v 0.33750 0.04900 0.06005
v 0.55000 0.04900 -0.12500
v 0.37500 0.04900 0.05000
v 0.41250 0.04900 0.06005
v 0.41250 0.04900 -0.18995
v 0.58750 0.04900 -0.18995
v 0.74566 0.04666 -0.24000
v 0.62500 0.04900 -0.20000
v 0.66250 0.04900 -0.18995
v 0.68995 0.04900 -0.16250
v 0.70000 0.04900 -0.12500
v 0.70000 0.04900 0.12500
v 0.56005 0.04900 -0.08750
v 0.56005 0.04900 0.08750
v 0.58750 0.04900 -0.06005
v 0.62500 0.04900 0.05000
v 0.62500 0.04900 -0.05000
v 0.68995 0.04900 -0.08750
v 0.68995 0.04900 0.08750
v 0.66250 0.04900 -0.06005
v -0.12500 0.04900 0.05000
v -0.08750 0.04900 0.06005
v 0.08750 0.04900 0.06005
v 0.12500 0.04900 0.05000
v 0.16250 0.04900 0.06005
v 0.05000 0.04900 0.12500
v 0.18995 0.04900 0.08750
v 0.31005 0.04900 0.08750
v 0.20000 0.04900 0.12500
v 0.30000 0.04900 0.12500
v 0.43995 0.04900 0.08750
v 0.45000 0.04900 0.12500
v 0.55000 0.04900 0.12500
v 0.18995 0.04900 0.16250
v 0.31005 0.04900 0.16250
v 0.16250 0.04900 0.18995
v 0.33750 0.04900 0.18995
v 0.37500 0.04900 0.20000
v 0.74000 0.04666 0.24566
v 0.43995 0.04900 0.16250
v 0.56005 0.04900 0.16250
v 0.41250 0.04900 0.18995
v 0.58750 0.04900 0.18995
v 0.62500 0.04900 0.20000
v 0.58750 0.04900 0.06005
v 0.66250 0.04900 0.06005
v 0.74566 0.04666 0.24000
v 0.68995 0.04900 0.16250
v 0.66250 0.04900 0.18995
v -0.62500 0.09900 -0.20000
v -0.62500 0.04900 -0.20000
v -0.66250 0.04900 -0.18995
v -0.58750 0.09900 -0.18995
v -0.58750 0.04900 -0.18995
v -0.66250 0.09900 -0.18995
v -0.68995 0.04900 -0.16250
v -0.68995 0.09900 -0.16250
v -0.70000 0.04900 -0.12500
v -0.56005 0.09900 -0.16250
v -0.56005 0.04900 -0.16250
v -0.55000 0.09900 -0.12500
v -0.55000 0.04900 -0.12500
v -0.70000 0.09900 -0.12500
v -0.68995 0.09900 -0.16250
v -0.70000 0.09900 -0.12500
v -0.68995 0.09900 -0.08750
v -0.66250 0.09900 -0.18995
v -0.66250 0.09900 -0.06005
v -0.62500 0.09900 -0.20000
v -0.62500 0.09900 -0.05000
v -0.58750 0.09900 -0.18995
v -0.58750 0.09900 -0.06005
v -0.56005 0.09900 -0.16250
v -0.56005 0.09900 -0.08750
v -0.55000 0.09900 -0.12500
v -0.68995 0.04900 -0.08750
v -0.68995 0.09900 -0.08750
v -0.66250 0.04900 -0.06005
v -0.56005 0.09900 -0.08750
v -0.56005 0.04900 -0.08750
v -0.58750 0.09900 -0.06005
v -0.58750 0.04900 -0.06005
v -0.66250 0.09900 -0.06005
v -0.62500 0.04900 -0.05000
v -0.62500 0.09900 -0.05000
v -0.62500 0.09900 0.05000
v -0.62500 0.04900 0.05000
v -0.66250 0.04900 0.06005
v -0.58750 0.09900 0.06005
v -0.58750 0.04900 0.06005
v -0.66250 0.09900 0.06005
v -0.68995 0.04900 0.08750
v -0.68995 0.09900 0.08750
v -0.70000 0.04900 0.12500
v -0.56005 0.09900 0.08750
v -0.56005 0.04900 0.08750
v -0.55000 0.09900 0.12500
v -0.55000 0.04900 0.12500
v -0.70000 0.09900 0.12500
v -0.66250 0.09900 0.06005
v -0.68995 0.09900 0.08750
v -0.68995 0.09900 0.16250
v -0.66250 0.09900 0.18995
v -0.62500 0.09900 0.05000
v -0.62500 0.09900 0.20000
v -0.58750 0.09900 0.06005
v -0.58750 0.09900 0.18995
v -0.56005 0.09900 0.08750
v -0.68995 0.04900 0.16250
v -0.68995 0.09900 0.16250
v -0.66250 0.04900 0.18995
v -0.56005 0.09900 0.16250
v -0.56005 0.04900 0.16250
v -0.58750 0.09900 0.18995
v -0.58750 0.04900 0.18995
v -0.66250 0.09900 0.18995
v -0.62500 0.04900 0.20000
v -0.62500 0.09900 0.20000
v -0.70000 0.09900 0.12500
v -0.56005 0.09900 0.16250
v -0.55000 0.09900 0.12500
v -0.37500 0.09900 -0.20000
v -0.37500 0.04900 -0.20000
v -0.41250 0.04900 -0.18995
v -0.33750 0.09900 -0.18995
v -0.33750 0.04900 -0.18995
v -0.41250 0.09900 -0.18995
v -0.43995 0.04900 -0.16250
v -0.43995 0.09900 -0.16250
v -0.45000 0.04900 -0.12500
v -0.31005 0.09900 -0.16250
v -0.31005 0.04900 -0.16250
v -0.30000 0.09900 -0.12500
v -0.30000 0.04900 -0.12500
v -0.45000 0.09900 -0.12500
v -0.43995 0.09900 -0.16250
v -0.45000 0.09900 -0.12500
v -0.43995 0.09900 -0.08750
v -0.41250 0.09900 -0.18995
v -0.41250 0.09900 -0.06005
v -0.37500 0.09900 -0.20000
v -0.37500 0.09900 -0.05000
v -0.33750 0.09900 -0.18995
v -0.33750 0.09900 -0.06005
v -0.31005 0.09900 -0.16250
v -0.31005 0.09900 -0.08750
v -0.30000 0.09900 -0.12500
v -0.43995 0.04900 -0.08750
v -0.43995 0.09900 -0.08750
v -0.41250 0.04900 -0.06005
v -0.31005 0.09900 -0.08750
v -0.31005 0.04900 -0.08750
v -0.33750 0.09900 -0.06005
v -0.33750 0.04900 -0.06005
v -0.41250 0.09900 -0.06005
v -0.37500 0.04900 -0.05000
v -0.37500 0.09900 -0.05000
v -0.37500 0.09900 0.05000
v -0.37500 0.04900 0.05000
v -0.41250 0.04900 0.06005
v -0.33750 0.09900 0.06005
v -0.33750 0.04900 0.06005
v -0.41250 0.09900 0.06005
v -0.43995 0.04900 0.08750
v -0.43995 0.09900 0.08750
v -0.45000 0.04900 0.12500
v -0.31005 0.09900 0.08750
v -0.31005 0.04900 0.08750
v -0.30000 0.09900 0.12500
v -0.30000 0.04900 0.12500
v -0.45000 0.09900 0.12500
v -0.43995 0.09900 0.08750
v -0.43995 0.09900 0.16250
v -0.41250 0.09900 0.06005
v -0.41250 0.09900 0.18995
v -0.37500 0.09900 0.05000
v -0.37500 0.09900 0.20000
v -0.33750 0.09900 0.06005
v -0.33750 0.09900 0.18995
v -0.31005 0.09900 0.08750
v -0.43995 0.04900 0.16250
v -0.43995 0.09900 0.16250
v -0.41250 0.04900 0.18995
v -0.31005 0.09900 0.16250
v -0.31005 0.04900 0.16250
v -0.33750 0.09900 0.18995
v -0.33750 0.04900 0.18995
v -0.41250 0.09900 0.18995
v -0.37500 0.04900 0.20000
v -0.37500 0.09900 0.20000
v -0.45000 0.09900 0.12500
v -0.31005 0.09900 0.16250
v -0.30000 0.09900 0.12500
v -0.12500 0.09900 -0.20000
v -0.12500 0.04900 -0.20000
v -0.16250 0.04900 -0.18995
v -0.08750 0.09900 -0.18995
v -0.08750 0.04900 -0.18995
v -0.16250 0.09900 -0.18995
v -0.18995 0.04900 -0.16250
v -0.18995 0.09900 -0.16250
v -0.20000 0.04900 -0.12500
v -0.06005 0.09900 -0.16250
v -0.06005 0.04900 -0.16250
v -0.05000 0.09900 -0.12500
v -0.05000 0.04900 -0.12500
v -0.20000 0.09900 -0.12500
v -0.18995 0.09900 -0.16250
v -0.20000 0.09900 -0.12500
v -0.18995 0.09900 -0.08750
v -0.16250 0.09900 -0.18995
v -0.16250 0.09900 -0.06005
v -0.12500 0.09900 -0.20000
v -0.12500 0.09900 -0.05000
v -0.08750 0.09900 -0.18995
v -0.08750 0.09900 -0.06005
v -0.06005 0.09900 -0.16250
v -0.06005 0.09900 -0.08750
v -0.05000 0.09900 -0.12500
v -0.18995 0.04900 -0.08750
v -0.18995 0.09900 -0.08750
v -0.16250 0.04900 -0.06005
v -0.06005 0.09900 -0.08750
v -0.06005 0.04900 -0.08750
v -0.08750 0.09900 -0.06005
v -0.08750 0.04900 -0.06005
v -0.16250 0.09900 -0.06005
v -0.12500 0.04900 -0.05000
v -0.12500 0.09900 -0.05000
v -0.12500 0.09900 0.05000
v -0.12500 0.04900 0.05000
v -0.16250 0.04900 0.06005
v -0.08750 0.09900 0.06005
v -0.08750 0.04900 0.06005
v -0.16250 0.09900 0.06005
v -0.18995 0.04900 0.08750
v -0.18995 0.09900 0.08750
v -0.20000 0.04900 0.12500
v -0.06005 0.09900 0.08750
v -0.06005 0.04900 0.08750
v -0.05000 0.09900 0.12500
v -0.05000 0.04900 0.12500
v -0.20000 0.09900 0.12500
v -0.18995 0.09900 0.08750
v -0.18995 0.09900 0.16250
v -0.16250 0.09900 0.06005
v -0.16250 0.09900 0.18995
v -0.12500 0.09900 0.05000
v -0.12500 0.09900 0.20000
v -0.08750 0.09900 0.06005
v -0.08750 0.09900 0.18995
v -0.06005 0.09900 0.08750
v -0.18995 0.04900 0.16250
v -0.18995 0.09900 0.16250
v -0.16250 0.04900 0.18995
v -0.06005 0.09900 0.16250
v -0.06005 0.04900 0.16250
v -0.08750 0.09900 0.18995
v -0.08750 0.04900 0.18995
v -0.16250 0.09900 0.18995
v -0.12500 0.04900 0.20000
v -0.12500 0.09900 0.20000
v -0.20000 0.09900 0.12500
v -0.06005 0.09900 0.16250
v -0.05000 0.09900 0.12500
v 0.12500 0.09900 -0.20000
v 0.12500 0.04900 -0.20000
v 0.08750 0.04900 -0.18995
v 0.16250 0.09900 -0.18995
v 0.16250 0.04900 -0.18995
v 0.08750 0.09900 -0.18995
v 0.06005 0.04900 -0.16250
v 0.06005 0.09900 -0.16250
v 0.05000 0.04900 -0.12500
v 0.18995 0.09900 -0.16250
v 0.18995 0.04900 -0.16250
v 0.20000 0.09900 -0.12500
v 0.20000 0.04900 -0.12500
v 0.05000 0.09900 -0.12500
v 0.06005 0.09900 -0.16250
v 0.05000 0.09900 -0.12500
v 0.06005 0.09900 -0.08750
v 0.08750 0.09900 -0.18995
v 0.08750 0.09900 -0.06005
v 0.12500 0.09900 -0.20000
v 0.12500 0.09900 -0.05000
v 0.16250 0.09900 -0.18995
v 0.16250 0.09900 -0.06005
v 0.18995 0.09900 -0.16250
v 0.18995 0.09900 -0.08750
v 0.20000 0.09900 -0.12500
v 0.06005 0.04900 -0.08750
v 0.06005 0.09900 -0.08750
v 0.08750 0.04900 -0.06005
v 0.18995 0.09900 -0.08750
v 0.18995 0.04900 -0.08750
v 0.16250 0.09900 -0.06005
v 0.16250 0.04900 -0.06005
v 0.08750 0.09900 -0.06005
v 0.12500 0.04900 -0.05000
v 0.12500 0.09900 -0.05000
v 0.12500 0.09900 0.05000
v 0.12500 0.04900 0.05000
v 0.08750 0.04900 0.06005
v 0.16250 0.09900 0.06005
v 0.16250 0.04900 0.06005
v 0.08750 0.09900 0.06005
v 0.06005 0.04900 0.08750
v 0.06005 0.09900 0.08750
v 0.05000 0.04900 0.12500
v 0.18995 0.09900 0.08750
v 0.18995 0.04900 0.08750
v 0.20000 0.09900 0.12500
v 0.20000 0.04900 0.12500
v 0.05000 0.09900 0.12500
v 0.08750 0.09900 0.06005
v 0.06005 0.09900 0.08750
v 0.06005 0.09900 0.16250
v 0.08750 0.09900 0.18995
v 0.12500 0.09900 0.05000
v 0.12500 0.09900 0.20000
v 0.16250 0.09900 0.06005
v 0.16250 0.09900 0.18995
v 0.18995 0.09900 0.08750
v 0.06005 0.04900 0.16250
v 0.06005 0.09900 0.16250
v 0.08750 0.04900 0.18995
v 0.18995 0.09900 0.16250
v 0.18995 0.04900 0.16250
v 0.16250 0.09900 0.18995
v 0.16250 0.04900 0.18995
v 0.08750 0.09900 0.18995
v 0.12500 0.04900 0.20000
v 0.12500 0.09900 0.20000
v 0.05000 0.09900 0.12500
v 0.18995 0.09900 0.16250
v 0.20000 0.09900 0.12500
v 0.37500 0.09900 -0.20000
v 0.37500 0.04900 -0.20000
v 0.33750 0.04900 -0.18995
v 0.41250 0.09900 -0.18995
v 0.41250 0.04900 -0.18995
v 0.33750 0.09900 -0.18995
v 0.31005 0.04900 -0.16250
v 0.31005 0.09900 -0.16250
v 0.30000 0.04900 -0.12500
v 0.43995 0.09900 -0.16250
v 0.43995 0.04900 -0.16250
v 0.45000 0.09900 -0.12500
v 0.45000 0.04900 -0.12500
v 0.30000 0.09900 -0.12500
v 0.31005 0.09900 -0.16250
v 0.30000 0.09900 -0.12500
v 0.31005 0.09900 -0.08750
v 0.33750 0.09900 -0.18995
v 0.33750 0.09900 -0.06005
v 0.37500 0.09900 -0.20000
v 0.37500 0.09900 -0.05000
v 0.41250 0.09900 -0.18995
v 0.41250 0.09900 -0.06005
v 0.43995 0.09900 -0.16250
v 0.43995 0.09900 -0.08750
v 0.45000 0.09900 -0.12500
v 0.31005 0.04900 -0.08750
v 0.31005 0.09900 -0.08750
v 0.33750 0.04900 -0.06005
v 0.43995 0.09900 -0.08750
v 0.43995 0.04900 -0.08750
v 0.41250 0.09900 -0.06005
v 0.41250 0.04900 -0.06005
v 0.33750 0.09900 -0.06005
v 0.37500 0.04900 -0.05000
v 0.37500 0.09900 -0.05000
v 0.37500 0.09900 0.05000
v 0.37500 0.04900 0.05000
v 0.33750 0.04900 0.06005
v 0.41250 0.09900 0.06005
v 0.41250 0.04900 0.06005
v 0.33750 0.09900 0.06005
v 0.31005 0.04900 0.08750
v 0.31005 0.09900 0.08750
v 0.30000 0.04900 0.12500
v 0.43995 0.09900 0.08750
v 0.43995 0.04900 0.08750
v 0.45000 0.09900 0.12500
v 0.45000 0.04900 0.12500
v 0.30000 0.09900 0.12500
v 0.33750 0.09900 0.06005
v 0.31005 0.09900 0.08750
v 0.31005 0.09900 0.16250
v 0.33750 0.09900 0.18995
v 0.37500 0.09900 0.05000
v 0.37500 0.09900 0.20000
v 0.41250 0.09900 0.06005
v 0.41250 0.09900 0.18995
v 0.43995 0.09900 0.08750
v 0.31005 0.04900 0.16250
v 0.31005 0.09900 0.16250
v 0.33750 0.04900 0.18995
v 0.43995 0.09900 0.16250
v 0.43995 0.04900 0.16250
v 0.41250 0.09900 0.18995
v 0.41250 0.04900 0.18995
v 0.33750 0.09900 0.18995
v 0.37500 0.04900 0.20000
v 0.37500 0.09900 0.20000
v 0.30000 0.09900 0.12500
v 0.43995 0.09900 0.16250
v 0.45000 0.09900 0.12500
v 0.62500 0.09900 -0.20000
v 0.62500 0.04900 -0.20000
v 0.58750 0.04900 -0.18995
v 0.66250 0.09900 -0.18995
v 0.66250 0.04900 -0.18995
v 0.58750 0.09900 -0.18995
v 0.56005 0.04900 -0.16250
v 0.56005 0.09900 -0.16250
v 0.55000 0.04900 -0.12500
v 0.68995 0.09900 -0.16250
v 0.68995 0.04900 -0.16250
v 0.70000 0.09900 -0.12500
v 0.70000 0.04900 -0.12500
v 0.55000 0.09900 -0.12500
v 0.56005 0.09900 -0.16250
v 0.55000 0.09900 -0.12500
v 0.56005 0.09900 -0.08750
v 0.58750 0.09900 -0.18995
v 0.58750 0.09900 -0.06005
v 0.62500 0.09900 -0.20000
v 0.62500 0.09900 -0.05000
v 0.66250 0.09900 -0.18995
v 0.66250 0.09900 -0.06005
v 0.68995 0.09900 -0.16250
v 0.68995 0.09900 -0.08750
v 0.70000 0.09900 -0.12500
v 0.56005 0.04900 -0.08750
v 0.56005 0.09900 -0.08750
v 0.58750 0.04900 -0.06005
v 0.68995 0.09900 -0.08750
v 0.68995 0.04900 -0.08750
v 0.66250 0.09900 -0.06005
v 0.66250 0.04900 -0.06005
v 0.58750 0.09900 -0.06005
v 0.62500 0.04900 -0.05000
v 0.62500 0.09900 -0.05000
v 0.62500 0.09900 0.05000
v 0.62500 0.04900 0.05000
v 0.58750 0.04900 0.06005
v 0.66250 0.09900 0.06005
v 0.66250 0.04900 0.06005
v 0.58750 0.09900 0.06005
v 0.56005 0.04900 0.08750
v 0.56005 0.09900 0.08750
v 0.55000 0.04900 0.12500
v 0.68995 0.09900 0.08750
v 0.68995 0.04900 0.08750
v 0.70000 0.09900 0.12500
v 0.70000 0.04900 0.12500
v 0.55000 0.09900 0.12500
v 0.58750 0.09900 0.06005
v 0.56005 0.09900 0.08750
v 0.56005 0.09900 0.16250
v 0.58750 0.09900 0.18995
v 0.62500 0.09900 0.05000
v 0.62500 0.09900 0.20000
v 0.66250 0.09900 0.06005
v 0.66250 0.09900 0.18995
v 0.68995 0.09900 0.08750
v 0.56005 0.04900 0.16250
v 0.56005 0.09900 0.16250
v 0.58750 0.04900 0.18995
v 0.68995 0.09900 0.16250
v 0.68995 0.04900 0.16250
v 0.66250 0.09900 0.18995
v 0.66250 0.04900 0.18995
v 0.58750 0.09900 0.18995
v 0.62500 0.04900 0.20000
v 0.62500 0.09900 0.20000
v 0.55000 0.09900 0.12500
v 0.68995 0.09900 0.16250
v 0.70000 0.09900 0.12500
v -1.00000 -0.05265 -0.01202
v -1.00000 -0.04222 -0.03367
v -0.75000 -0.05265 -0.01202
v -1.00000 -0.02343 -0.04865
v -0.75000 -0.04222 -0.03367
v -0.75000 -0.05265 0.01202
v -1.00000 0.00000 -0.05400
v -0.75000 -0.02343 -0.04865
v -1.00000 -0.05265 -0.01202
v -1.00000 0.04222 -0.03367
v -1.00000 -0.04222 -0.03367
v -1.00000 -0.05265 0.01202
v -1.00000 0.05265 -0.01202
v -0.75000 -0.05265 -0.01202
v -0.75000 -0.04222 -0.03367
v -0.75000 0.04222 -0.03367
v -0.75000 0.05265 -0.01202
v -0.75000 -0.05265 0.01202
v -1.00000 0.02343 -0.04865
v -1.00000 -0.02343 -0.04865
v -1.00000 0.00000 -0.05400
v -0.75000 0.00000 -0.05400
v -1.00000 0.02343 -0.04865
v -0.75000 0.02343 -0.04865
v -0.75000 -0.02343 -0.04865
v -0.75000 0.02343 -0.04865
v -0.75000 0.00000 -0.05400
v -1.00000 -0.05265 0.01202
v -0.75000 -0.04222 0.03367
v -1.00000 -0.04222 0.03367
v -0.75000 -0.02343 0.04865
v -1.00000 -0.02343 0.04865
v -0.75000 0.00000 0.05400
v -1.00000 -0.04222 0.03367
v -1.00000 0.05265 0.01202
v -1.00000 -0.02343 0.04865
v -1.00000 0.04222 0.03367
v -1.00000 0.00000 0.05400
v -1.00000 0.00000 0.05400
v -1.00000 0.02343 0.04865
v -0.75000 0.02343 0.04865
v -1.00000 0.02343 0.04865
v -0.75000 0.05265 0.01202
v -0.75000 -0.04222 0.03367
v -0.75000 0.04222 0.03367
v -0.75000 -0.02343 0.04865
v -0.75000 0.02343 0.04865
v -0.75000 0.00000 0.05400
v -1.00000 0.04222 -0.03367
v -0.75000 0.04222 -0.03367
v -1.00000 0.05265 -0.01202
v -1.00000 0.05265 0.01202
v -0.75000 0.05265 -0.01202
v -0.75000 0.04222 0.03367
v -1.00000 0.04222 0.03367
v -0.75000 0.05265 0.01202
v 0.75000 -0.05265 -0.01202
v 0.75000 -0.04222 -0.03367
v 1.00000 -0.05265 -0.01202
v 0.75000 -0.02343 -0.04865
v 1.00000 -0.04222 -0.03367
v 1.00000 -0.05265 0.01202
v 0.75000 0.00000 -0.05400
v 1.00000 -0.02343 -0.04865
v 0.75000 -0.05265 -0.01202
v 0.75000 0.04222 -0.03367
v 0.75000 -0.04222 -0.03367
v 0.75000 -0.05265 0.01202
v 0.75000 0.05265 -0.01202
v 1.00000 -0.05265 -0.01202
v 1.00000 -0.04222 -0.03367
v 1.00000 0.04222 -0.03367
v 1.00000 0.05265 -0.01202
v 1.00000 -0.05265 0.01202
v 0.75000 0.02343 -0.04865
v 0.75000 -0.02343 -0.04865
v 0.75000 0.00000 -0.05400
v 1.00000 0.00000 -0.05400
v 1.00000 -0.02343 -0.04865
v 1.00000 0.02343 -0.04865
v 1.00000 0.00000 -0.05400
v 0.75000 0.02343 -0.04865
v 1.00000 0.02343 -0.04865
v 0.75000 -0.05265 0.01202
v 1.00000 -0.04222 0.03367
v 0.75000 -0.04222 0.03367
v 1.00000 -0.02343 0.04865
v 0.75000 -0.02343 0.04865
v 1.00000 0.00000 0.05400
v 0.75000 -0.04222 0.03367
v 0.75000 0.05265 0.01202
v 0.75000 -0.02343 0.04865
v 0.75000 0.04222 0.03367
v 0.75000 0.00000 0.05400
v 0.75000 0.00000 0.05400
v 0.75000 0.02343 0.04865
v 1.00000 0.05265 0.01202
v 1.00000 -0.04222 0.03367
v 1.00000 0.04222 0.03367
v 1.00000 -0.02343 0.04865
v 1.00000 0.02343 0.04865
v 1.00000 0.00000 0.05400
v 1.00000 0.02343 0.04865
v 0.75000 0.02343 0.04865
v 0.75000 0.04222 -0.03367
v 1.00000 0.04222 -0.03367
v 0.75000 0.05265 -0.01202
v 0.75000 0.05265 0.01202
v 1.00000 0.05265 -0.01202
v 1.00000 0.04222 0.03367
v 0.75000 0.04222 0.03367
v 1.00000 0.05265 0.01202
vn -0.1877 -0.9641 -0.1877
vn -0.6887 -0.6887 -0.2265
vn -0.2265 -0.6887 -0.6887
vn -0.6887 -0.2265 -0.6887
vn -0.1877 -0.1877 -0.9641
vn -0.9641 -0.1877 -0.1877
vn -0.1877 -0.9641 0.1877
vn -0.9641 -0.1877 0.1877
vn -0.6887 0.2265 -0.6887
vn -0.1877 0.1877 -0.9641
vn -0.9641 0.1877 -0.1877
vn -0.9641 0.1877 0.1877
vn 0.1877 -0.9641 -0.1877
vn 0.1877 -0.1877 -0.9641
vn -0.6887 -0.6887 0.2265
vn -0.2265 -0.6887 0.6887
vn -0.6887 -0.2265 0.6887
vn -0.1877 -0.1877 0.9641
vn -0.6887 0.2265 0.6887
vn -0.1877 0.1877 0.9641
vn 0.1877 -0.9641 0.1877
vn 0.1877 -0.1877 0.9641
vn -0.2265 0.6887 -0.6887
vn -0.6887 0.6887 -0.2265
vn -0.1877 0.9641 -0.1877
vn 0.0000 1.0000 0.0000
vn 0.0000 1.0000 0.0000
vn 0.0000 1.0000 0.0000
vn 0.0000 1.0000 0.0000
vn 0.0000 1.0000 0.0000
vn 0.0000 1.0000 0.0000
vn 0.0000 1.0000 0.0000
vn 0.0000 1.0000 0.0000
vn 0.0000 1.0000 0.0000
vn 0.0000 1.0000 0.0000
vn 0.0000 1.0000 0.0000
vn -0.1877 0.9641 0.1877
vn 0.0000 1.0000 0.0000
vn 0.0000 1.0000 0.0000
vn 0.0000 1.0000 0.0000
vn 0.0000 1.0000 0.0000
vn 0.0000 1.0000 0.0000
vn 0.0000 1.0000 0.0000
vn 0.0000 1.0000 0.0000
vn 0.0000 1.0000 0.0000
vn 0.0000 1.0000 0.0000
vn 0.0000 1.0000 0.0000
vn 0.0000 1.0000 0.0000
vn 0.0000 1.0000 0.0000
vn 0.0000 1.0000 0.0000
vn 0.0000 1.0000 0.0000
vn 0.0000 1.0000 0.0000
vn 0.0000 1.0000 0.0000
vn 0.2265 0.6887 -0.6887
vn 0.0000 1.0000 0.0000
vn 0.0000 1.0000 0.0000
vn 0.0000 1.0000 0.0000
vn 0.0000 1.0000 0.0000
vn 0.0000 1.0000 0.0000
vn 0.0000 1.0000 0.0000
vn 0.0000 1.0000 0.0000
vn 0.0000 1.0000 0.0000
vn 0.0000 1.0000 0.0000
vn 0.0000 1.0000 0.0000
vn 0.0000 1.0000 0.0000
vn 0.0000 1.0000 0.0000
vn 0.0000 1.0000 0.0000
vn 0.0000 1.0000 0.0000
vn 0.0000 1.0000 0.0000
vn 0.0000 1.0000 0.0000
vn 0.0000 1.0000 0.0000
vn 0.0000 1.0000 0.0000
vn 0.0000 1.0000 0.0000
vn 0.0000 1.0000 0.0000
vn 0.0000 1.0000 0.0000
vn 0.0000 1.0000 0.0000
vn 0.0000 1.0000 0.0000
vn 0.0000 1.0000 0.0000
vn 0.0000 1.0000 0.0000
vn 0.0000 1.0000 0.0000
vn 0.0000 1.0000 0.0000
vn 0.0000 1.0000 0.0000
vn 0.0000 1.0000 0.0000
vn -0.6887 0.6887 0.2265
vn 0.0000 1.0000 0.0000
vn 0.0000 1.0000 0.0000
vn 0.0000 1.0000 0.0000
vn 0.0000 1.0000 0.0000
vn 0.0000 1.0000 0.0000
vn 0.0000 1.0000 0.0000
vn -0.2265 0.6887 0.6887
vn 0.0000 1.0000 0.0000
vn 0.0000 1.0000 0.0000
vn 0.0000 1.0000 0.0000
vn 0.0000 1.0000 0.0000
vn 0.0000 1.0000 0.0000
vn 0.0000 1.0000 0.0000
vn 0.0000 1.0000 0.0000
vn 0.0000 1.0000 0.0000
vn 0.0000 1.0000 0.0000
vn 0.0000 1.0000 0.0000
vn 0.0000 1.0000 0.0000
vn 0.0000 1.0000 0.0000
vn 0.0000 1.0000 0.0000
vn 0.0000 1.0000 0.0000
vn 0.0000 1.0000 0.0000
vn 0.0000 1.0000 0.0000
vn 0.0000 1.0000 0.0000
vn 0.0000 1.0000 0.0000
vn 0.0000 1.0000 0.0000
vn 0.0000 1.0000 0.0000
vn 0.1877 0.1877 0.9641
vn 0.1877 0.9641 0.1877
vn 0.0000 1.0000 0.0000
vn 0.2265 -0.6887 -0.6887
vn 0.1877 0.1877 -0.9641
vn 0.6887 -0.6887 -0.2265
vn 0.6887 -0.2265 -0.6887
vn 0.9641 -0.1877 -0.1877
vn 0.6887 -0.6887 0.2265
vn 0.6887 0.2265 -0.6887
vn 0.9641 0.1877 -0.1877
vn 0.9641 -0.1877 0.1877
vn 0.2265 -0.6887 0.6887
vn 0.6887 -0.2265 0.6887
vn 0.9641 0.1877 0.1877
vn 0.6887 0.2265 0.6887
vn 0.1877 0.9641 -0.1877
vn 0.0000 1.0000 0.0000
vn 0.0000 1.0000 0.0000
vn 0.0000 1.0000 0.0000
vn 0.0000 1.0000 0.0000
vn 0.0000 1.0000 0.0000
vn 0.0000 1.0000 0.0000
vn 0.0000 1.0000 0.0000
vn 0.0000 1.0000 0.0000
vn 0.0000 1.0000 0.0000
vn 0.0000 1.0000 0.0000
vn 0.0000 1.0000 0.0000
vn 0.0000 1.0000 0.0000
vn 0.0000 1.0000 0.0000
vn 0.0000 1.0000 0.0000
vn 0.0000 1.0000 0.0000
vn 0.0000 1.0000 0.0000
vn 0.0000 1.0000 0.0000
vn 0.0000 1.0000 0.0000
vn 0.0000 1.0000 0.0000
vn 0.0000 1.0000 0.0000
vn 0.0000 1.0000 0.0000
vn 0.6887 0.6887 -0.2265
vn 0.0000 1.0000 0.0000
vn 0.0000 1.0000 0.0000
vn 0.0000 1.0000 0.0000
vn 0.0000 1.0000 0.0000
vn 0.0000 1.0000 0.0000
vn 0.0000 1.0000 0.0000
vn 0.0000 1.0000 0.0000
vn 0.0000 1.0000 0.0000
vn 0.0000 1.0000 0.0000
vn 0.0000 1.0000 0.0000
vn 0.0000 1.0000 0.0000
vn 0.0000 1.0000 0.0000
vn 0.0000 1.0000 0.0000
vn 0.0000 1.0000 0.0000
vn 0.0000 1.0000 0.0000
vn 0.0000 1.0000 0.0000
vn 0.0000 1.0000 0.0000
vn 0.0000 1.0000 0.0000
vn 0.0000 1.0000 0.0000
vn 0.0000 1.0000 0.0000
vn 0.0000 1.0000 0.0000
vn 0.0000 1.0000 0.0000
vn 0.0000 1.0000 0.0000
vn 0.0000 1.0000 0.0000
vn 0.0000 1.0000 0.0000
vn 0.0000 1.0000 0.0000
vn 0.0000 1.0000 0.0000
vn 0.0000 1.0000 0.0000
vn 0.0000 1.0000 0.0000
vn 0.0000 1.0000 0.0000
vn 0.0000 1.0000 0.0000
vn 0.2265 0.6887 0.6887
vn 0.0000 1.0000 0.0000
vn 0.0000 1.0000 0.0000
vn 0.0000 1.0000 0.0000
vn 0.0000 1.0000 0.0000
vn 0.0000 1.0000 0.0000
vn 0.0000 1.0000 0.0000
vn 0.0000 1.0000 0.0000
vn 0.6887 0.6887 0.2265
vn 0.0000 1.0000 0.0000
vn 0.0000 1.0000 0.0000
vn 0.0000 0.0000 -1.0000
vn 0.0000 0.0000 -1.0000
vn -0.5000 0.0000 -0.8660
vn 0.5000 0.0000 -0.8660
vn 0.5000 0.0000 -0.8660
vn -0.5000 0.0000 -0.8660
vn -0.8660 0.0000 -0.5000
vn -0.8660 0.0000 -0.5000
vn -1.0000 0.0000 0.0000
vn 0.8660 0.0000 -0.5000
vn 0.8660 -0.0000 -0.5000
vn 1.0000 -0.0000 0.0000
vn 1.0000 0.0000 0.0000
vn -1.0000 -0.0000 0.0000
vn 0.0000 1.0000 0.0000
vn 0.0000 1.0000 0.0000
vn 0.0000 1.0000 0.0000
vn 0.0000 1.0000 0.0000
vn 0.0000 1.0000 0.0000
vn 0.0000 1.0000 0.0000
vn 0.0000 1.0000 0.0000
vn 0.0000 1.0000 0.0000
vn 0.0000 1.0000 0.0000
vn 0.0000 1.0000 0.0000
vn 0.0000 1.0000 0.0000
vn 0.0000 1.0000 0.0000
vn -0.8660 -0.0000 0.5000
vn -0.8660 0.0000 0.5000
vn -0.5000 0.0000 0.8660
vn 0.8660 0.0000 0.5000
vn 0.8660 0.0000 0.5000
vn 0.5000 0.0000 0.8660
vn 0.5000 0.0000 0.8660
vn -0.5000 0.0000 0.8660
vn 0.0000 0.0000 1.0000
vn 0.0000 0.0000 1.0000
vn 0.0000 0.0000 -1.0000
vn -0.0000 0.0000 -1.0000
vn -0.5000 0.0000 -0.8660
vn 0.5000 0.0000 -0.8660
vn 0.5000 0.0000 -0.8660
vn -0.5000 0.0000 -0.8660
vn -0.8660 0.0000 -0.5000
vn -0.8660 0.0000 -0.5000
vn -1.0000 0.0000 0.0000
vn 0.8660 0.0000 -0.5000
vn 0.8660 -0.0000 -0.5000
vn 1.0000 -0.0000 0.0000
vn 1.0000 0.0000 0.0000
vn -1.0000 -0.0000 0.0000
vn 0.0000 1.0000 0.0000
vn 0.0000 1.0000 0.0000
vn 0.0000 1.0000 0.0000
vn 0.0000 1.0000 0.0000
vn 0.0000 1.0000 0.0000
vn 0.0000 1.0000 0.0000
vn 0.0000 1.0000 0.0000
vn 0.0000 1.0000 0.0000
vn 0.0000 1.0000 0.0000
vn -0.8660 -0.0000 0.5000
vn -0.8660 0.0000 0.5000
vn -0.5000 0.0000 0.8660
vn 0.8660 0.0000 0.5000
vn 0.8660 0.0000 0.5000
vn 0.5000 0.0000 0.8660
vn 0.5000 0.0000 0.8660
vn -0.5000 0.0000 0.8660
vn 0.0000 0.0000 1.0000
vn -0.0000 0.0000 1.0000
vn 0.0000 1.0000 0.0000
vn 0.0000 1.0000 0.0000
vn 0.0000 1.0000 0.0000
vn 0.0000 0.0000 -1.0000
vn 0.0000 0.0000 -1.0000
vn -0.5000 0.0000 -0.8660
vn 0.5000 0.0000 -0.8660
vn 0.5000 0.0000 -0.8660
vn -0.5000 0.0000 -0.8660
vn -0.8660 0.0000 -0.5000
vn -0.8660 0.0000 -0.5000
vn -1.0000 0.0000 0.0000
vn 0.8660 0.0000 -0.5000
vn 0.8660 -0.0000 -0.5000
vn 1.0000 -0.0000 0.0000
vn 1.0000 0.0000 0.0000
vn -1.0000 -0.0000 0.0000
vn 0.0000 1.0000 0.0000
vn 0.0000 1.0000 0.0000
vn 0.0000 1.0000 0.0000
vn 0.0000 1.0000 0.0000
vn 0.0000 1.0000 0.0000
vn 0.0000 1.0000 0.0000
vn 0.0000 1.0000 0.0000
vn 0.0000 1.0000 0.0000
vn 0.0000 1.0000 0.0000
vn 0.0000 1.0000 0.0000
vn 0.0000 1.0000 0.0000
vn 0.0000 1.0000 0.0000
vn -0.8660 -0.0000 0.5000
vn -0.8660 0.0000 0.5000
vn -0.5000 0.0000 0.8660
vn 0.8660 0.0000 0.5000
vn 0.8660 0.0000 0.5000
vn 0.5000 0.0000 0.8660
vn 0.5000 0.0000 0.8660
vn -0.5000 0.0000 0.8660
vn 0.0000 0.0000 1.0000
vn 0.0000 0.0000 1.0000
vn 0.0000 0.0000 -1.0000
vn -0.0000 0.0000 -1.0000
vn -0.5000 0.0000 -0.8660
vn 0.5000 0.0000 -0.8660
vn 0.5000 0.0000 -0.8660
vn -0.5000 0.0000 -0.8660
vn -0.8660 0.0000 -0.5000
vn -0.8660 0.0000 -0.5000
vn -1.0000 0.0000 0.0000
vn 0.8660 0.0000 -0.5000
vn 0.8660 -0.0000 -0.5000
vn 1.0000 -0.0000 0.0000
vn 1.0000 0.0000 0.0000
vn -1.0000 -0.0000 0.0000
vn 0.0000 1.0000 0.0000
vn 0.0000 1.0000 0.0000
vn 0.0000 1.0000 0.0000
vn 0.0000 1.0000 0.0000
vn 0.0000 1.0000 0.0000
vn 0.0000 1.0000 0.0000
vn 0.0000 1.0000 0.0000
vn 0.0000 1.0000 0.0000
vn 0.0000 1.0000 0.0000
vn -0.8660 -0.0000 0.5000
vn -0.8660 0.0000 0.5000
vn -0.5000 0.0000 0.8660
vn 0.8660 0.0000 0.5000
vn 0.8660 0.0000 0.5000
vn 0.5000 0.0000 0.8660
vn 0.5000 0.0000 0.8660
vn -0.5000 0.0000 0.8660
vn 0.0000 0.0000 1.0000
vn -0.0000 0.0000 1.0000
vn 0.0000 1.0000 0.0000
vn 0.0000 1.0000 0.0000
vn 0.0000 1.0000 0.0000
vn 0.0000 0.0000 -1.0000
vn 0.0000 0.0000 -1.0000
vn -0.5000 0.0000 -0.8660
vn 0.5000 0.0000 -0.8660
vn 0.5000 0.0000 -0.8660
vn -0.5000 0.0000 -0.8660
vn -0.8660 0.0000 -0.5000
vn -0.8660 0.0000 -0.5000
vn -1.0000 0.0000 0.0000
vn 0.8660 0.0000 -0.5000
vn 0.8660 -0.0000 -0.5000
vn 1.0000 -0.0000 0.0000
vn 1.0000 0.0000 0.0000
vn -1.0000 -0.0000 0.0000
vn 0.0000 1.0000 0.0000
vn 0.0000 1.0000 0.0000
vn 0.0000 1.0000 0.0000
vn 0.0000 1.0000 0.0000
vn 0.0000 1.0000 0.0000
vn 0.0000 1.0000 0.0000
vn 0.0000 1.0000 0.0000
vn 0.0000 1.0000 0.0000
vn 0.0000 1.0000 0.0000
vn 0.0000 1.0000 0.0000
vn 0.0000 1.0000 0.0000
vn 0.0000 1.0000 0.0000
vn -0.8660 -0.0000 0.5000
vn -0.8660 0.0000 0.5000
vn -0.5000 0.0000 0.8660
vn 0.8660 0.0000 0.5000
vn 0.8660 0.0000 0.5000
vn 0.5000 0.0000 0.8660
vn 0.5000 0.0000 0.8660
vn -0.5000 0.0000 0.8660
vn 0.0000 0.0000 1.0000
vn 0.0000 0.0000 1.0000
vn 0.0000 0.0000 -1.0000
vn -0.0000 0.0000 -1.0000
vn -0.5000 0.0000 -0.8660
vn 0.5000 0.0000 -0.8660
vn 0.5000 0.0000 -0.8660
vn -0.5000 0.0000 -0.8660
vn -0.8660 0.0000 -0.5000
vn -0.8660 0.0000 -0.5000
vn -1.0000 0.0000 0.0000
vn 0.8660 0.0000 -0.5000
vn 0.8660 -0.0000 -0.5000
vn 1.0000 -0.0000 0.0000
vn 1.0000 0.0000 0.0000
vn -1.0000 -0.0000 0.0000
vn 0.0000 1.0000 0.0000
vn 0.0000 1.0000 0.0000
vn 0.0000 1.0000 0.0000
vn 0.0000 1.0000 0.0000
vn 0.0000 1.0000 0.0000
vn 0.0000 1.0000 0.0000
vn 0.0000 1.0000 0.0000
vn 0.0000 1.0000 0.0000
vn 0.0000 1.0000 0.0000
vn -0.8660 -0.0000 0.5000
vn -0.8660 0.0000 0.5000
vn -0.5000 0.0000 0.8660
vn 0.8660 0.0000 0.5000
vn 0.8660 0.0000 0.5000
vn 0.5000 0.0000 0.8660
vn 0.5000 0.0000 0.8660
vn -0.5000 0.0000 0.8660
vn 0.0000 0.0000 1.0000
vn -0.0000 0.0000 1.0000
vn 0.0000 1.0000 0.0000
vn 0.0000 1.0000 0.0000
vn 0.0000 1.0000 0.0000
vn -0.0000 0.0000 -1.0000
vn 0.0000 -0.0000 -1.0000
vn -0.5000 0.0000 -0.8660
vn 0.5000 -0.0000 -0.8660
vn 0.5000 0.0000 -0.8660
vn -0.5000 0.0000 -0.8660
vn -0.8660 0.0000 -0.5000
vn -0.8660 0.0000 -0.5000
vn -1.0000 0.0000 0.0000
vn 0.8660 0.0000 -0.5000
vn 0.8660 0.0000 -0.5000
vn 1.0000 0.0000 0.0000
vn 1.0000 0.0000 -0.0000
vn -1.0000 0.0000 -0.0000
vn 0.0000 1.0000 0.0000
vn 0.0000 1.0000 0.0000
vn 0.0000 1.0000 0.0000
vn 0.0000 1.0000 0.0000
vn 0.0000 1.0000 0.0000
vn 0.0000 1.0000 0.0000
vn 0.0000 1.0000 0.0000
vn 0.0000 1.0000 0.0000
vn 0.0000 1.0000 0.0000
vn 0.0000 1.0000 0.0000
vn 0.0000 1.0000 0.0000
vn 0.0000 1.0000 0.0000
vn -0.8660 0.0000 0.5000
vn -0.8660 0.0000 0.5000
vn -0.5000 0.0000 0.8660
vn 0.8660 0.0000 0.5000
vn 0.8660 0.0000 0.5000
vn 0.5000 0.0000 0.8660
vn 0.5000 0.0000 0.8660
vn -0.5000 -0.0000 0.8660
vn -0.0000 -0.0000 1.0000
vn 0.0000 0.0000 1.0000
vn -0.0000 0.0000 -1.0000
vn 0.0000 -0.0000 -1.0000
vn -0.5000 0.0000 -0.8660
vn 0.5000 -0.0000 -0.8660
vn 0.5000 0.0000 -0.8660
vn -0.5000 0.0000 -0.8660
vn -0.8660 0.0000 -0.5000
vn -0.8660 0.0000 -0.5000
vn -1.0000 0.0000 0.0000
vn 0.8660 0.0000 -0.5000
vn 0.8660 0.0000 -0.5000
vn 1.0000 0.0000 0.0000
vn 1.0000 0.0000 -0.0000
vn -1.0000 0.0000 -0.0000
vn 0.0000 1.0000 0.0000
vn 0.0000 1.0000 0.0000
vn 0.0000 1.0000 0.0000
vn 0.0000 1.0000 0.0000
vn 0.0000 1.0000 0.0000
vn 0.0000 1.0000 0.0000
vn 0.0000 1.0000 0.0000
vn 0.0000 1.0000 0.0000
vn 0.0000 1.0000 0.0000
vn -0.8660 0.0000 0.5000
vn -0.8660 0.0000 0.5000
vn -0.5000 0.0000 0.8660
vn 0.8660 0.0000 0.5000
vn 0.8660 0.0000 0.5000
vn 0.5000 0.0000 0.8660
vn 0.5000 0.0000 0.8660
vn -0.5000 -0.0000 0.8660
vn -0.0000 -0.0000 1.0000
vn 0.0000 0.0000 1.0000
vn 0.0000 1.0000 0.0000
vn 0.0000 1.0000 0.0000
vn 0.0000 1.0000 0.0000
vn -0.0000 0.0000 -1.0000
vn 0.0000 -0.0000 -1.0000
vn -0.5000 0.0000 -0.8660
vn 0.5000 -0.0000 -0.8660
vn 0.5000 0.0000 -0.8660
vn -0.5000 0.0000 -0.8660
vn -0.8660 0.0000 -0.5000
vn -0.8660 0.0000 -0.5000
vn -1.0000 0.0000 0.0000
vn 0.8660 0.0000 -0.5000
vn 0.8660 0.0000 -0.5000
vn 1.0000 0.0000 0.0000
vn 1.0000 0.0000 -0.0000
vn -1.0000 0.0000 -0.0000
vn 0.0000 1.0000 0.0000
vn 0.0000 1.0000 0.0000
vn 0.0000 1.0000 0.0000
vn 0.0000 1.0000 0.0000
vn 0.0000 1.0000 0.0000
vn 0.0000 1.0000 0.0000
vn 0.0000 1.0000 0.0000
vn 0.0000 1.0000 0.0000
vn 0.0000 1.0000 0.0000
vn 0.0000 1.0000 0.0000
vn 0.0000 1.0000 0.0000
vn 0.0000 1.0000 0.0000
vn -0.8660 0.0000 0.5000
vn -0.8660 0.0000 0.5000
vn -0.5000 0.0000 0.8660
vn 0.8660 0.0000 0.5000
vn 0.8660 0.0000 0.5000
vn 0.5000 0.0000 0.8660
vn 0.5000 0.0000 0.8660
vn -0.5000 -0.0000 0.8660
vn -0.0000 -0.0000 1.0000
vn 0.0000 0.0000 1.0000
vn -0.0000 0.0000 -1.0000
vn 0.0000 -0.0000 -1.0000
vn -0.5000 0.0000 -0.8660
vn 0.5000 -0.0000 -0.8660
vn 0.5000 0.0000 -0.8660
vn -0.5000 0.0000 -0.8660
vn -0.8660 0.0000 -0.5000
vn -0.8660 0.0000 -0.5000
vn -1.0000 0.0000 0.0000
vn 0.8660 0.0000 -0.5000
vn 0.8660 0.0000 -0.5000
vn 1.0000 0.0000 0.0000
vn 1.0000 0.0000 -0.0000
vn -1.0000 0.0000 -0.0000
vn 0.0000 1.0000 0.0000
vn 0.0000 1.0000 0.0000
vn 0.0000 1.0000 0.0000
vn 0.0000 1.0000 0.0000
vn 0.0000 1.0000 0.0000
vn 0.0000 1.0000 0.0000
vn 0.0000 1.0000 0.0000
vn 0.0000 1.0000 0.0000
vn 0.0000 1.0000 0.0000
vn -0.8660 0.0000 0.5000
vn -0.8660 0.0000 0.5000
vn -0.5000 0.0000 0.8660
vn 0.8660 0.0000 0.5000
vn 0.8660 0.0000 0.5000
vn 0.5000 0.0000 0.8660
vn 0.5000 0.0000 0.8660
vn -0.5000 -0.0000 0.8660
vn -0.0000 -0.0000 1.0000
vn 0.0000 0.0000 1.0000
vn 0.0000 1.0000 0.0000
vn 0.0000 1.0000 0.0000
vn 0.0000 1.0000 0.0000
vn -0.0000 0.0000 -1.0000
vn 0.0000 -0.0000 -1.0000
vn -0.5000 0.0000 -0.8660
vn 0.5000 -0.0000 -0.8660
vn 0.5000 0.0000 -0.8660
vn -0.5000 0.0000 -0.8660
vn -0.8660 0.0000 -0.5000
vn -0.8660 0.0000 -0.5000
vn -1.0000 0.0000 0.0000
vn 0.8660 0.0000 -0.5000
vn 0.8660 0.0000 -0.5000
vn 1.0000 0.0000 0.0000
vn 1.0000 0.0000 -0.0000
vn -1.0000 0.0000 -0.0000
vn 0.0000 1.0000 0.0000
vn 0.0000 1.0000 0.0000
vn 0.0000 1.0000 0.0000
vn 0.0000 1.0000 0.0000
vn 0.0000 1.0000 0.0000
vn 0.0000 1.0000 0.0000
vn 0.0000 1.0000 0.0000
vn 0.0000 1.0000 0.0000
vn 0.0000 1.0000 0.0000
vn 0.0000 1.0000 0.0000
vn 0.0000 1.0000 0.0000
vn 0.0000 1.0000 0.0000
vn -0.8660 0.0000 0.5000
vn -0.8660 0.0000 0.5000
vn -0.5000 0.0000 0.8660
vn 0.8660 0.0000 0.5000
vn 0.8660 0.0000 0.5000
vn 0.5000 0.0000 0.8660
vn 0.5000 0.0000 0.8660
vn -0.5000 -0.0000 0.8660
vn -0.0000 -0.0000 1.0000
vn 0.0000 0.0000 1.0000
vn -0.0000 0.0000 -1.0000
vn 0.0000 -0.0000 -1.0000
vn -0.5000 0.0000 -0.8660
vn 0.5000 -0.0000 -0.8660
vn 0.5000 0.0000 -0.8660
vn -0.5000 0.0000 -0.8660
vn -0.8660 0.0000 -0.5000
vn -0.8660 0.0000 -0.5000
vn -1.0000 0.0000 0.0000
vn 0.8660 0.0000 -0.5000
vn 0.8660 0.0000 -0.5000
vn 1.0000 0.0000 0.0000
vn 1.0000 0.0000 -0.0000
vn -1.0000 0.0000 -0.0000
vn 0.0000 1.0000 0.0000
vn 0.0000 1.0000 0.0000
vn 0.0000 1.0000 0.0000
vn 0.0000 1.0000 0.0000
vn 0.0000 1.0000 0.0000
vn 0.0000 1.0000 0.0000
vn 0.0000 1.0000 0.0000
vn 0.0000 1.0000 0.0000
vn 0.0000 1.0000 0.0000
vn -0.8660 0.0000 0.5000
vn -0.8660 0.0000 0.5000
vn -0.5000 0.0000 0.8660
vn 0.8660 0.0000 0.5000
vn 0.8660 0.0000 0.5000
vn 0.5000 0.0000 0.8660
vn 0.5000 0.0000 0.8660
vn -0.5000 -0.0000 0.8660
vn -0.0000 -0.0000 1.0000
vn 0.0000 0.0000 1.0000
vn 0.0000 1.0000 0.0000
vn 0.0000 1.0000 0.0000
vn 0.0000 1.0000 0.0000
vn 0.0000 -0.9749 -0.2225
vn 0.0000 -0.7818 -0.6235
vn 0.0000 -0.9749 -0.2225
vn 0.0000 -0.4339 -0.9010
vn 0.0000 -0.7818 -0.6235
vn 0.0000 -0.9749 0.2225
vn -0.0000 -0.0000 -1.0000
vn -0.0000 -0.4339 -0.9010
vn -1.0000 0.0000 0.0000
vn -1.0000 0.0000 0.0000
vn -1.0000 0.0000 0.0000
vn -1.0000 0.0000 0.0000
vn -1.0000 0.0000 0.0000
vn 1.0000 0.0000 0.0000
vn 1.0000 0.0000 0.0000
vn 1.0000 0.0000 0.0000
vn 1.0000 0.0000 0.0000
vn 1.0000 0.0000 0.0000
vn -1.0000 0.0000 0.0000
vn -1.0000 0.0000 0.0000
vn -1.0000 0.0000 0.0000
vn 0.0000 0.0000 -1.0000
vn 0.0000 0.4339 -0.9010
vn -0.0000 0.4339 -0.9010
vn 1.0000 0.0000 0.0000
vn 1.0000 0.0000 0.0000
vn 1.0000 0.0000 0.0000
vn 0.0000 -0.9749 0.2225
vn 0.0000 -0.7818 0.6235
vn 0.0000 -0.7818 0.6235
vn 0.0000 -0.4339 0.9010
vn 0.0000 -0.4339 0.9010
vn 0.0000 -0.0000 1.0000
vn -1.0000 0.0000 0.0000
vn -1.0000 0.0000 0.0000
vn -1.0000 0.0000 0.0000
vn -1.0000 0.0000 0.0000
vn 0.0000 0.0000 1.0000
vn -1.0000 0.0000 0.0000
vn -1.0000 0.0000 0.0000
vn 0.0000 0.4339 0.9010
vn 0.0000 0.4339 0.9010
vn 1.0000 0.0000 0.0000
vn 1.0000 0.0000 0.0000
vn 1.0000 0.0000 0.0000
vn 1.0000 0.0000 0.0000
vn 1.0000 0.0000 0.0000
vn 1.0000 0.0000 0.0000
vn -0.0000 0.7818 -0.6235
vn 0.0000 0.7818 -0.6235
vn 0.0000 0.9749 -0.2225
vn 0.0000 0.9749 0.2225
vn 0.0000 0.9749 -0.2225
vn 0.0000 0.7818 0.6235
vn 0.0000 0.7818 0.6235
vn 0.0000 0.9749 0.2225
vn 0.0000 -0.9749 -0.2225
vn 0.0000 -0.7818 -0.6235
vn 0.0000 -0.9749 -0.2225
vn 0.0000 -0.4339 -0.9010
vn 0.0000 -0.7818 -0.6235
vn 0.0000 -0.9749 0.2225
vn -0.0000 -0.0000 -1.0000
vn -0.0000 -0.4339 -0.9010
vn -1.0000 0.0000 0.0000
vn -1.0000 0.0000 0.0000
vn -1.0000 0.0000 0.0000
vn -1.0000 0.0000 0.0000
vn -1.0000 0.0000 0.0000
vn 1.0000 0.0000 0.0000
vn 1.0000 0.0000 0.0000
vn 1.0000 0.0000 0.0000
vn 1.0000 0.0000 0.0000
vn 1.0000 0.0000 0.0000
vn -1.0000 0.0000 0.0000
vn -1.0000 0.0000 0.0000
vn -1.0000 0.0000 0.0000
vn 0.0000 0.0000 -1.0000
vn 1.0000 0.0000 0.0000
vn 1.0000 0.0000 0.0000
vn 1.0000 0.0000 0.0000
vn 0.0000 0.4339 -0.9010
vn -0.0000 0.4339 -0.9010
vn 0.0000 -0.9749 0.2225
vn 0.0000 -0.7818 0.6235
vn 0.0000 -0.7818 0.6235
vn 0.0000 -0.4339 0.9010
vn 0.0000 -0.4339 0.9010
vn 0.0000 -0.0000 1.0000
vn -1.0000 0.0000 0.0000
vn -1.0000 0.0000 0.0000
vn -1.0000 0.0000 0.0000
vn -1.0000 0.0000 0.0000
vn 0.0000 0.0000 1.0000
vn -1.0000 0.0000 0.0000
vn -1.0000 0.0000 0.0000
vn 1.0000 0.0000 0.0000
vn 1.0000 0.0000 0.0000
vn 1.0000 0.0000 0.0000
vn 1.0000 0.0000 0.0000
vn 1.0000 0.0000 0.0000
vn 1.0000 0.0000 0.0000
vn 0.0000 0.4339 0.9010
vn 0.0000 0.4339 0.9010
vn -0.0000 0.7818 -0.6235
vn 0.0000 0.7818 -0.6235
vn 0.0000 0.9749 -0.2225
vn 0.0000 0.9749 0.2225
vn 0.0000 0.9749 -0.2225
vn 0.0000 0.7818 0.6235
vn 0.0000 0.7818 0.6235
vn 0.0000 0.9749 0.2225
f 1//1 2//2 3//3
f 3//3 2//2 4//4
f 3//3 4//4 5//5
f 2//2 6//6 4//4
f 1//1 7//7 2//2
f 2//2 8//8 6//6
f 4//4 9//9 5//5
f 4//4 6//6 9//9
f 5//5 9//9 10//10
f 6//6 11//11 9//9
f 6//6 12//12 11//11
f 1//1 3//3 13//13
f 3//3 5//5 14//14
f 5//5 10//10 14//14
f 2//2 7//7 15//15
f 2//2 15//15 8//8
f 7//7 16//16 15//15
f 15//15 16//16 17//17
f 15//15 17//17 8//8
f 16//16 18//18 17//17
f 6//6 8//8 12//12
f 8//8 17//17 19//19
f 17//17 18//18 19//19
f 8//8 19//19 12//12
f 18//18 20//20 19//19
f 1//1 21//21 7//7
f 7//7 21//21 16//16
f 16//16 22//22 18//18
f 18//18 22//22 20//20
f 9//9 23//23 10//10
f 9//9 11//11 24//24
f 9//9 24//24 23//23
f 23//23 24//24 25//25
f 25//25 26//26 27//27
f 25//25 27//27 28//28
f 25//25 28//28 29//29
f 28//28 30//30 31//31
f 25//25 32//32 26//26
f 25//25 33//33 32//32
f 30//30 34//34 35//35
f 34//34 36//36 35//35
f 11//11 12//12 24//24
f 24//24 37//37 25//25
f 25//25 38//38 33//33
f 33//33 39//39 40//40
f 40//40 41//41 42//42
f 36//36 43//43 44//44
f 42//42 41//41 45//45
f 43//43 45//45 44//44
f 28//28 31//31 29//29
f 25//25 29//29 46//46
f 29//29 47//47 48//48
f 30//30 35//35 31//31
f 36//36 49//49 35//35
f 47//47 50//50 51//51
f 50//50 52//52 53//53
f 10//10 23//23 54//54
f 23//23 25//25 54//54
f 25//25 46//46 55//55
f 29//29 48//48 46//46
f 25//25 55//55 56//56
f 46//46 57//57 58//58
f 47//47 51//51 48//48
f 50//50 53//53 51//51
f 57//57 59//59 60//60
f 59//59 61//61 60//60
f 52//52 62//62 63//63
f 64//64 63//63 62//62
f 36//36 65//65 49//49
f 49//49 65//65 66//66
f 66//66 67//67 68//68
f 68//68 69//69 70//70
f 70//70 69//69 64//64
f 64//64 71//71 63//63
f 52//52 63//63 53//53
f 61//61 72//72 73//73
f 74//74 73//73 72//72
f 63//63 71//71 75//75
f 76//76 77//77 75//75
f 77//77 78//78 74//74
f 76//76 79//79 77//77
f 76//76 80//80 79//79
f 40//40 39//39 81//81
f 40//40 81//81 41//41
f 25//25 37//37 38//38
f 33//33 38//38 39//39
f 45//45 41//41 82//82
f 45//45 82//82 44//44
f 36//36 44//44 83//83
f 36//36 83//83 65//65
f 24//24 12//12 84//84
f 24//24 84//84 37//37
f 37//37 85//85 38//38
f 86//86 83//83 87//87
f 86//86 87//87 88//88
f 37//37 89//89 85//85
f 37//37 90//90 89//89
f 37//37 88//88 90//90
f 12//12 19//19 84//84
f 19//19 20//20 91//91
f 19//19 91//91 84//84
f 84//84 91//91 37//37
f 37//37 86//86 88//88
f 37//37 92//92 86//86
f 37//37 93//93 92//92
f 68//68 67//67 94//94
f 68//68 94//94 69//69
f 66//66 65//65 67//67
f 64//64 69//69 71//71
f 75//75 71//71 76//76
f 76//76 95//95 96//96
f 76//76 97//97 98//98
f 76//76 96//96 97//97
f 96//96 95//95 99//99
f 100//100 101//101 102//102
f 86//86 65//65 83//83
f 95//95 103//103 104//104
f 105//105 106//106 103//103
f 37//37 107//107 93//93
f 93//93 107//107 105//105
f 95//95 104//104 99//99
f 104//104 103//103 106//106
f 101//101 108//108 109//109
f 110//110 109//109 108//108
f 105//105 107//107 106//106
f 37//37 111//111 107//107
f 20//20 112//112 91//91
f 91//91 113//113 37//37
f 107//107 114//114 110//110
f 3//3 115//115 13//13
f 3//3 14//14 115//115
f 1//1 13//13 21//21
f 10//10 116//116 14//14
f 13//13 115//115 117//117
f 115//115 118//118 117//117
f 115//115 14//14 118//118
f 117//117 118//118 119//119
f 13//13 117//117 120//120
f 117//117 119//119 120//120
f 14//14 121//121 118//118
f 118//118 121//121 119//119
f 14//14 116//116 121//121
f 119//119 121//121 122//122
f 119//119 122//122 123//123
f 16//16 21//21 124//124
f 16//16 124//124 22//22
f 20//20 22//22 112//112
f 13//13 120//120 21//21
f 119//119 123//123 120//120
f 21//21 120//120 124//124
f 120//120 125//125 124//124
f 120//120 123//123 125//125
f 124//124 125//125 22//22
f 123//123 122//122 126//126
f 123//123 126//126 125//125
f 22//22 125//125 112//112
f 125//125 126//126 127//127
f 125//125 127//127 112//112
f 46//46 58//58 55//55
f 25//25 56//56 128//128
f 10//10 54//54 116//116
f 25//25 128//128 54//54
f 55//55 129//129 130//130
f 57//57 60//60 58//58
f 61//61 131//131 60//60
f 129//129 132//132 133//133
f 132//132 134//134 135//135
f 55//55 130//130 56//56
f 129//129 133//133 130//130
f 133//133 132//132 135//135
f 136//136 137//137 138//138
f 137//137 139//139 138//138
f 61//61 73//73 131//131
f 74//74 78//78 73//73
f 98//98 134//134 140//140
f 98//98 140//140 80//80
f 77//77 79//79 78//78
f 76//76 98//98 80//80
f 100//100 141//141 98//98
f 100//100 142//142 141//141
f 98//98 135//135 134//134
f 138//138 139//139 143//143
f 138//138 144//144 145//145
f 138//138 143//143 144//144
f 142//142 144//144 143//143
f 145//145 144//144 146//146
f 145//145 146//146 147//147
f 128//128 56//56 148//148
f 128//128 148//148 136//136
f 128//128 136//136 149//149
f 116//116 54//54 121//121
f 121//121 150//150 122//122
f 121//121 54//54 150//150
f 54//54 128//128 150//150
f 128//128 149//149 151//151
f 128//128 151//151 152//152
f 128//128 152//152 153//153
f 136//136 138//138 149//149
f 128//128 153//153 154//154
f 122//122 150//150 126//126
f 128//128 154//154 155//155
f 150//150 128//128 113//113
f 145//145 147//147 156//156
f 156//156 157//157 158//158
f 158//158 159//159 160//160
f 154//154 161//161 162//162
f 160//160 159//159 163//163
f 163//163 162//162 161//161
f 97//97 164//164 98//98
f 164//164 165//165 98//98
f 165//165 100//100 98//98
f 142//142 166//166 167//167
f 100//100 166//166 142//142
f 167//167 168//168 144//144
f 100//100 102//102 166//166
f 101//101 169//169 102//102
f 168//168 170//170 171//171
f 170//170 172//172 173//173
f 142//142 167//167 144//144
f 156//156 147//147 174//174
f 168//168 171//171 144//144
f 171//171 170//170 173//173
f 174//174 175//175 176//176
f 101//101 109//109 169//169
f 110//110 114//114 109//109
f 177//177 178//178 172//172
f 177//177 179//179 180//180
f 107//107 111//111 114//114
f 37//37 113//113 111//111
f 111//111 181//181 179//179
f 91//91 112//112 182//182
f 91//91 182//182 113//113
f 172//172 178//178 173//173
f 177//177 180//180 178//178
f 175//175 183//183 184//184
f 185//185 186//186 183//183
f 179//179 181//181 180//180
f 113//113 181//181 111//111
f 181//181 187//187 185//185
f 156//156 174//174 157//157
f 158//158 157//157 188//188
f 158//158 188//188 159//159
f 163//163 159//159 189//189
f 163//163 189//189 162//162
f 154//154 162//162 155//155
f 128//128 155//155 113//113
f 157//157 174//174 176//176
f 150//150 190//190 126//126
f 150//150 113//113 190//190
f 175//175 184//184 176//176
f 183//183 186//186 184//184
f 113//113 155//155 191//191
f 185//185 187//187 186//186
f 113//113 187//187 181//181
f 113//113 192//192 187//187
f 113//113 191//191 192//192
f 126//126 190//190 127//127
f 112//112 127//127 182//182
f 127//127 190//190 182//182
f 190//190 113//113 182//182
f 193//193 194//194 195//195
f 196//196 197//197 194//194
f 198//198 195//195 199//199
f 200//200 199//199 201//201
f 202//202 203//203 197//197
f 204//204 205//205 203//203
f 198//198 193//193 195//195
f 193//193 196//196 194//194
f 198//198 199//199 200//200
f 200//200 201//201 206//206
f 207//207 208//208 209//209
f 210//210 207//207 209//209
f 210//210 211//211 212//212
f 196//196 202//202 197//197
f 202//202 204//204 203//203
f 212//212 213//213 214//214
f 214//214 215//215 216//216
f 216//216 217//217 218//218
f 206//206 201//201 219//219
f 220//220 219//219 221//221
f 222//222 223//223 205//205
f 224//224 225//225 223//223
f 226//226 221//221 227//227
f 228//228 227//227 225//225
f 206//206 219//219 220//220
f 220//220 221//221 226//226
f 210//210 209//209 211//211
f 212//212 211//211 213//213
f 204//204 222//222 205//205
f 222//222 224//224 223//223
f 214//214 213//213 215//215
f 216//216 215//215 217//217
f 226//226 227//227 228//228
f 224//224 228//228 225//225
f 229//229 230//230 231//231
f 232//232 233//233 230//230
f 234//234 231//231 235//235
f 236//236 235//235 237//237
f 238//238 239//239 233//233
f 240//240 241//241 239//239
f 234//234 229//229 231//231
f 229//229 232//232 230//230
f 234//234 235//235 236//236
f 236//236 237//237 242//242
f 243//243 244//244 245//245
f 243//243 246//246 247//247
f 232//232 238//238 233//233
f 238//238 240//240 239//239
f 247//247 248//248 249//249
f 249//249 250//250 251//251
f 242//242 237//237 252//252
f 253//253 252//252 254//254
f 255//255 256//256 241//241
f 257//257 258//258 256//256
f 259//259 254//254 260//260
f 261//261 260//260 258//258
f 242//242 252//252 253//253
f 253//253 254//254 259//259
f 244//244 262//262 245//245
f 243//243 245//245 246//246
f 247//247 246//246 248//248
f 240//240 255//255 241//241
f 255//255 257//257 256//256
f 249//249 248//248 250//250
f 251//251 250//250 263//263
f 251//251 263//263 264//264
f 259//259 260//260 261//261
f 261//261 258//258 257//257
f 265//265 266//266 267//267
f 268//268 269//269 266//266
f 270//270 267//267 271//271
f 272//272 271//271 273//273
f 274//274 275//275 269//269
f 276//276 277//277 275//275
f 270//270 265//265 267//267
f 265//265 268//268 266//266
f 272//272 270//270 271//271
f 272//272 273//273 278//278
f 279//279 280//280 281//281
f 279//279 281//281 282//282
f 282//282 283//283 284//284
f 268//268 274//274 269//269
f 274//274 276//276 275//275
f 284//284 285//285 286//286
f 286//286 287//287 288//288
f 288//288 289//289 290//290
f 278//278 273//273 291//291
f 292//292 291//291 293//293
f 294//294 295//295 277//277
f 296//296 297//297 295//295
f 298//298 293//293 299//299
f 300//300 299//299 297//297
f 278//278 291//291 292//292
f 292//292 293//293 298//298
f 282//282 281//281 283//283
f 284//284 283//283 285//285
f 276//276 294//294 277//277
f 294//294 296//296 295//295
f 285//285 287//287 286//286
f 288//288 287//287 289//289
f 298//298 299//299 300//300
f 300//300 297//297 296//296
f 301//301 302//302 303//303
f 304//304 305//305 302//302
f 306//306 303//303 307//307
f 308//308 307//307 309//309
f 310//310 311//311 305//305
f 312//312 313//313 311//311
f 306//306 301//301 303//303
f 301//301 304//304 302//302
f 308//308 306//306 307//307
f 308//308 309//309 314//314
f 315//315 316//316 317//317
f 317//317 318//318 319//319
f 304//304 310//310 305//305
f 310//310 312//312 311//311
f 319//319 320//320 321//321
f 321//321 322//322 323//323
f 314//314 309//309 324//324
f 325//325 324//324 326//326
f 327//327 328//328 313//313
f 329//329 330//330 328//328
f 331//331 326//326 332//332
f 333//333 332//332 330//330
f 314//314 324//324 325//325
f 325//325 326//326 331//331
f 315//315 334//334 316//316
f 317//317 316//316 318//318
f 319//319 318//318 320//320
f 312//312 327//327 313//313
f 327//327 329//329 328//328
f 320//320 322//322 321//321
f 323//323 322//322 335//335
f 323//323 335//335 336//336
f 331//331 332//332 333//333
f 333//333 330//330 329//329
f 337//337 338//338 339//339
f 340//340 341//341 338//338
f 342//342 339//339 343//343
f 344//344 343//343 345//345
f 346//346 347//347 341//341
f 348//348 349//349 347//347
f 342//342 337//337 339//339
f 337//337 340//340 338//338
f 344//344 342//342 343//343
f 344//344 345//345 350//350
f 351//351 352//352 353//353
f 351//351 353//353 354//354
f 354//354 355//355 356//356
f 340//340 346//346 341//341
f 346//346 348//348 347//347
f 356//356 357//357 358//358
f 358//358 359//359 360//360
f 360//360 361//361 362//362
f 350//350 345//345 363//363
f 364//364 363//363 365//365
f 366//366 367//367 349//349
f 368//368 369//369 367//367
f 370//370 365//365 371//371
f 372//372 371//371 369//369
f 350//350 363//363 364//364
f 364//364 365//365 370//370
f 354//354 353//353 355//355
f 356//356 355//355 357//357
f 348//348 366//366 349//349
f 366//366 368//368 367//367
f 358//358 357//357 359//359
f 360//360 359//359 361//361
f 370//370 371//371 372//372
f 368//368 372//372 369//369
f 373//373 374//374 375//375
f 376//376 377//377 374//374
f 378//378 375//375 379//379
f 380//380 379//379 381//381
f 382//382 383//383 377//377
f 384//384 385//385 383//383
f 378//378 373//373 375//375
f 373//373 376//376 374//374
f 380//380 378//378 379//379
f 380//380 381//381 386//386
f 387//387 388//388 389//389
f 389//389 390//390 391//391
f 376//376 382//382 377//377
f 382//382 384//384 383//383
f 391//391 392//392 393//393
f 393//393 394//394 395//395
f 386//386 381//381 396//396
f 397//397 396//396 398//398
f 399//399 400//400 385//385
f 401//401 402//402 400//400
f 403//403 398//398 404//404
f 405//405 404//404 402//402
f 386//386 396//396 397//397
f 397//397 398//398 403//403
f 387//387 406//406 388//388
f 389//389 388//388 390//390
f 391//391 390//390 392//392
f 384//384 399//399 385//385
f 399//399 401//401 400//400
f 393//393 392//392 394//394
f 395//395 394//394 407//407
f 395//395 407//407 408//408
f 403//403 404//404 405//405
f 405//405 402//402 401//401
f 409//409 410//410 411//411
f 412//412 413//413 410//410
f 414//414 411//411 415//415
f 416//416 415//415 417//417
f 418//418 419//419 413//413
f 420//420 421//421 419//419
f 414//414 409//409 411//411
f 409//409 412//412 410//410
f 414//414 415//415 416//416
f 416//416 417//417 422//422
f 423//423 424//424 425//425
f 426//426 423//423 425//425
f 426//426 427//427 428//428
f 412//412 418//418 413//413
f 418//418 420//420 419//419
f 428//428 429//429 430//430
f 430//430 431//431 432//432
f 432//432 433//433 434//434
f 422//422 417//417 435//435
f 436//436 435//435 437//437
f 438//438 439//439 421//421
f 440//440 441//441 439//439
f 442//442 437//437 443//443
f 444//444 443//443 441//441
f 422//422 435//435 436//436
f 436//436 437//437 442//442
f 426//426 425//425 427//427
f 428//428 427//427 429//429
f 420//420 438//438 421//421
f 440//440 439//439 438//438
f 430//430 429//429 431//431
f 432//432 431//431 433//433
f 442//442 443//443 444//444
f 440//440 444//444 441//441
f 445//445 446//446 447//447
f 448//448 449//449 446//446
f 450//450 447//447 451//451
f 452//452 451//451 453//453
f 454//454 455//455 449//449
f 456//456 457//457 455//455
f 450//450 445//445 447//447
f 445//445 448//448 446//446
f 450//450 451//451 452//452
f 452//452 453//453 458//458
f 459//459 460//460 461//461
f 459//459 462//462 463//463
f 448//448 454//454 449//449
f 454//454 456//456 455//455
f 463//463 464//464 465//465
f 465//465 466//466 467//467
f 458//458 453//453 468//468
f 469//469 468//468 470//470
f 471//471 472//472 457//457
f 473//473 474//474 472//472
f 475//475 470//470 476//476
f 477//477 476//476 474//474
f 458//458 468//468 469//469
f 469//469 470//470 475//475
f 460//460 478//478 461//461
f 459//459 461//461 462//462
f 463//463 462//462 464//464
f 456//456 471//471 457//457
f 473//473 472//472 471//471
f 465//465 464//464 466//466
f 467//467 466//466 479//479
f 467//467 479//479 480//480
f 475//475 476//476 477//477
f 477//477 474//474 473//473
f 481//481 482//482 483//483
f 484//484 485//485 482//482
f 486//486 483//483 487//487
f 488//488 487//487 489//489
f 490//490 491//491 485//485
f 492//492 493//493 491//491
f 486//486 481//481 483//483
f 481//481 484//484 482//482
f 486//486 487//487 488//488
f 488//488 489//489 494//494
f 495//495 496//496 497//497
f 498//498 495//495 497//497
f 498//498 499//499 500//500
f 484//484 490//490 485//485
f 490//490 492//492 491//491
f 500//500 501//501 502//502
f 502//502 503//503 504//504
f 504//504 505//505 506//506
f 494//494 489//489 507//507
f 508//508 507//507 509//509
f 510//510 511//511 493//493
f 512//512 513//513 511//511
f 514//514 509//509 515//515
f 516//516 515//515 513//513
f 494//494 507//507 508//508
f 508//508 509//509 514//514
f 498//498 497//497 499//499
f 499//499 501//501 500//500
f 492//492 510//510 493//493
f 512//512 511//511 510//510
f 502//502 501//501 503//503
f 504//504 503//503 505//505
f 514//514 515//515 516//516
f 512//512 516//516 513//513
f 517//517 518//518 519//519
f 520//520 521//521 518//518
f 522//522 519//519 523//523
f 524//524 523//523 525//525
f 526//526 527//527 521//521
f 528//528 529//529 527//527
f 522//522 517//517 519//519
f 517//517 520//520 518//518
f 522//522 523//523 524//524
f 524//524 525//525 530//530
f 531//531 532//532 533//533
f 531//531 534//534 535//535
f 520//520 526//526 521//521
f 526//526 528//528 527//527
f 535//535 536//536 537//537
f 537//537 538//538 539//539
f 530//530 525//525 540//540
f 541//541 540//540 542//542
f 543//543 544//544 529//529
f 545//545 546//546 544//544
f 547//547 542//542 548//548
f 549//549 548//548 546//546
f 530//530 540//540 541//541
f 541//541 542//542 547//547
f 532//532 550//550 533//533
f 531//531 533//533 534//534
f 534//534 536//536 535//535
f 528//528 543//543 529//529
f 545//545 544//544 543//543
f 537//537 536//536 538//538
f 539//539 538//538 551//551
f 539//539 551//551 552//552
f 547//547 548//548 549//549
f 549//549 546//546 545//545
f 553//553 554//554 555//555
f 556//556 557//557 554//554
f 558//558 555//555 559//559
f 560//560 559//559 561//561
f 562//562 563//563 557//557
f 564//564 565//565 563//563
f 558//558 553//553 555//555
f 553//553 556//556 554//554
f 558//558 559//559 560//560
f 560//560 561//561 566//566
f 567//567 568//568 569//569
f 570//570 567//567 569//569
f 570//570 571//571 572//572
f 556//556 562//562 557//557
f 562//562 564//564 563//563
f 572//572 573//573 574//574
f 574//574 575//575 576//576
f 576//576 577//577 578//578
f 566//566 561//561 579//579
f 580//580 579//579 581//581
f 582//582 583//583 565//565
f 584//584 585//585 583//583
f 586//586 581//581 587//587
f 588//588 587//587 585//585
f 566//566 579//579 580//580
f 580//580 581//581 586//586
f 570//570 569//569 571//571
f 572//572 571//571 573//573
f 564//564 582//582 565//565
f 582//582 584//584 583//583
f 574//574 573//573 575//575
f 576//576 575//575 577//577
f 586//586 587//587 588//588
f 584//584 588//588 585//585
f 589//589 590//590 591//591
f 592//592 593//593 590//590
f 594//594 591//591 595//595
f 596//596 595//595 597//597
f 598//598 599//599 593//593
f 600//600 601//601 599//599
f 594//594 589//589 591//591
f 589//589 592//592 590//590
f 594//594 595//595 596//596
f 596//596 597//597 602//602
f 603//603 604//604 605//605
f 603//603 606//606 607//607
f 592//592 598//598 593//593
f 598//598 600//600 599//599
f 607//607 608//608 609//609
f 609//609 610//610 611//611
f 602//602 597//597 612//612
f 613//613 612//612 614//614
f 615//615 616//616 601//601
f 617//617 618//618 616//616
f 619//619 614//614 620//620
f 621//621 620//620 618//618
f 602//602 612//612 613//613
f 613//613 614//614 619//619
f 604//604 622//622 605//605
f 603//603 605//605 606//606
f 607//607 606//606 608//608
f 600//600 615//615 601//601
f 615//615 617//617 616//616
f 609//609 608//608 610//610
f 611//611 610//610 623//623
f 611//611 623//623 624//624
f 619//619 620//620 621//621
f 621//621 618//618 617//617
f 625//625 626//626 627//627
f 626//626 628//628 629//629
f 625//625 627//627 630//630
f 626//626 629//629 627//627
f 628//628 631//631 632//632
f 633//633 634//634 635//635
f 633//633 636//636 637//637
f 629//629 628//628 632//632
f 638//638 639//639 640//640
f 638//638 641//641 642//642
f 635//635 643//643 644//644
f 644//644 643//643 645//645
f 632//632 631//631 646//646
f 635//635 634//634 643//643
f 631//631 647//647 646//646
f 633//633 637//637 634//634
f 647//647 648//648 646//646
f 639//639 649//649 650//650
f 649//649 651//651 650//650
f 639//639 650//650 640//640
f 638//638 640//640 641//641
f 625//625 630//630 652//652
f 652//652 653//653 654//654
f 652//652 630//630 653//653
f 654//654 653//653 655//655
f 654//654 655//655 656//656
f 656//656 655//655 657//657
f 636//636 658//658 659//659
f 658//658 660//660 661//661
f 656//656 657//657 662//662
f 660//660 663//663 664//664
f 636//636 659//659 637//637
f 658//658 661//661 659//659
f 660//660 664//664 661//661
f 662//662 665//665 666//666
f 662//662 657//657 665//665
f 642//642 667//667 668//668
f 668//668 669//669 670//670
f 670//670 671//671 672//672
f 642//642 641//641 667//667
f 668//668 667//667 669//669
f 670//670 669//669 671//671
f 647//647 673//673 648//648
f 648//648 673//673 674//674
f 673//673 675//675 674//674
f 675//675 676//676 677//677
f 675//675 677//677 674//674
f 666//666 678//678 679//679
f 666//666 665//665 678//678
f 679//679 680//680 676//676
f 679//679 678//678 680//680
f 677//677 676//676 680//680
f 681//681 682//682 683//683
f 682//682 684//684 685//685
f 681//681 683//683 686//686
f 682//682 685//685 683//683
f 684//684 687//687 688//688
f 689//689 690//690 691//691
f 689//689 692//692 693//693
f 685//685 684//684 688//688
f 694//694 695//695 696//696
f 694//694 697//697 698//698
f 691//691 699//699 700//700
f 700//700 699//699 701//701
f 688//688 687//687 702//702
f 695//695 703//703 704//704
f 703//703 705//705 704//704
f 691//691 690//690 699//699
f 687//687 706//706 702//702
f 689//689 693//693 690//690
f 695//695 704//704 696//696
f 702//702 706//706 707//707
f 694//694 696//696 697//697
f 681//681 686//686 708//708
f 708//708 709//709 710//710
f 708//708 686//686 709//709
f 710//710 709//709 711//711
f 710//710 711//711 712//712
f 712//712 711//711 713//713
f 692//692 714//714 715//715
f 714//714 716//716 717//717
f 712//712 713//713 718//718
f 716//716 719//719 720//720
f 698//698 721//721 722//722
f 722//722 723//723 724//724
f 724//724 725//725 726//726
f 692//692 715//715 693//693
f 714//714 717//717 715//715
f 716//716 720//720 717//717
f 718//718 727//727 728//728
f 718//718 713//713 727//727
f 698//698 697//697 721//721
f 722//722 721//721 723//723
f 724//724 723//723 725//725
f 706//706 729//729 707//707
f 707//707 729//729 730//730
f 729//729 731//731 730//730
f 731//731 732//732 733//733
f 731//731 733//733 730//730
f 728//728 734//734 735//735
f 728//728 727//727 734//734
f 735//735 736//736 732//732
f 735//735 734//734 736//736
f 733//733 732//732 736//736
