v -0.24800 -0.11084 0.49572
v -0.24800 -0.15000 0.45000
v -0.24800 -0.15000 0.50000
v -0.24800 -0.11737 0.44615
v -0.24800 -0.07235 0.48296
v -0.24800 -0.08530 0.43467
v 0.24800 -0.15000 0.50000
v -0.24800 -0.15000 0.50000
v -0.24800 -0.15000 0.45000
v 0.24800 -0.15000 0.45000
v -0.24800 -0.15000 0.45000
v -0.24800 -0.11737 0.44615
v 0.24800 -0.11084 0.49572
v -0.24800 -0.11084 0.49572
v -0.24800 -0.15000 0.50000
v 0.24800 -0.11737 0.44615
v -0.24800 -0.08530 0.43467
v 0.24800 -0.07235 0.48296
v -0.24800 -0.07235 0.48296
v -0.24800 -0.03519 0.46194
v -0.24800 -0.05433 0.41575
v -0.24800 -0.00000 0.43301
v -0.24800 -0.02500 0.38971
v 0.24800 -0.03519 0.46194
v -0.24800 -0.03519 0.46194
v 0.24800 -0.08530 0.43467
v -0.24800 -0.05433 0.41575
v 0.24800 -0.05433 0.41575
v -0.24800 -0.02500 0.38971
v 0.24800 -0.00000 0.43301
v -0.24800 -0.00000 0.43301
v 0.24800 -0.02500 0.38971
v -0.24800 0.00219 0.35701
v 0.24800 -0.15000 0.50000
v 0.24800 -0.15000 0.45000
v 0.24800 -0.11084 0.49572
v 0.24800 -0.15000 0.50000
v 0.24800 -0.15000 0.45000
v 0.24800 -0.11737 0.44615
v 0.24800 -0.07235 0.48296
v 0.24800 -0.08530 0.43467
v 0.24800 0.00219 0.35701
v 0.24800 -0.03519 0.46194
v 0.24800 -0.05433 0.41575
v 0.24800 -0.00000 0.43301
v 0.24800 -0.02500 0.38971
v -0.24800 0.03263 0.39668
v -0.24800 0.00219 0.35701
v -0.24800 0.06213 0.35355
v -0.24800 0.02678 0.31820
v -0.24800 0.08801 0.30438
v -0.24800 0.04834 0.27394
v 0.24800 0.03263 0.39668
v -0.24800 0.03263 0.39668
v -0.24800 0.02678 0.31820
v 0.24800 0.02678 0.31820
v -0.24800 0.04834 0.27394
v 0.24800 0.06213 0.35355
v -0.24800 0.06213 0.35355
v 0.24800 0.04834 0.27394
v -0.24800 0.06651 0.22500
v -0.24800 0.10981 0.25000
v 0.24800 0.08801 0.30438
v -0.24800 0.08801 0.30438
v 0.24800 0.10981 0.25000
v -0.24800 0.10981 0.25000
v -0.24800 0.06651 0.22500
v 0.24800 0.06651 0.22500
v -0.24800 0.08097 0.17221
v -0.24800 0.12716 0.19134
v -0.24800 0.08097 0.17221
v -0.24800 0.13978 0.12941
v -0.24800 0.09148 0.11647
v -0.24800 0.14743 0.06526
v -0.24800 0.09786 0.05874
v -0.24800 0.15000 0.00000
v -0.24800 0.10000 0.00000
v 0.24800 0.08097 0.17221
v -0.24800 0.09148 0.11647
v 0.24800 0.12716 0.19134
v -0.24800 0.12716 0.19134
v 0.24800 0.13978 0.12941
v -0.24800 0.13978 0.12941
v 0.24800 0.09148 0.11647
v -0.24800 0.09786 0.05874
v 0.24800 0.09786 0.05874
v -0.24800 0.10000 0.00000
v 0.24800 0.14743 0.06526
v -0.24800 0.14743 0.06526
v 0.24800 0.15000 0.00000
v -0.24800 0.15000 0.00000
v 0.24800 0.03263 0.39668
v 0.24800 0.00219 0.35701
v 0.24800 0.06213 0.35355
v 0.24800 0.02678 0.31820
v 0.24800 0.08801 0.30438
v 0.24800 0.04834 0.27394
v 0.24800 0.10981 0.25000
v 0.24800 0.06651 0.22500
v 0.24800 0.10000 0.00000
v 0.24800 0.12716 0.19134
v 0.24800 0.08097 0.17221
v 0.24800 0.13978 0.12941
v 0.24800 0.09148 0.11647
v 0.24800 0.14743 0.06526
v 0.24800 0.09786 0.05874
v 0.24800 0.10000 0.00000
v 0.24800 0.15000 0.00000
v -0.24800 -0.15000 -0.45000
v -0.24800 -0.11084 -0.49572
v -0.24800 -0.15000 -0.50000
v -0.24800 -0.11737 -0.44615
v -0.24800 -0.07235 -0.48296
v -0.24800 -0.08530 -0.43467
v 0.24800 -0.15000 -0.45000
v -0.24800 -0.15000 -0.45000
v -0.24800 -0.15000 -0.50000
v 0.24800 -0.15000 -0.50000
v -0.24800 -0.15000 -0.50000
v -0.24800 -0.11084 -0.49572
v 0.24800 -0.11737 -0.44615
v -0.24800 -0.11737 -0.44615
v -0.24800 -0.15000 -0.45000
v 0.24800 -0.08530 -0.43467
v -0.24800 -0.08530 -0.43467
v 0.24800 -0.11084 -0.49572
v -0.24800 -0.07235 -0.48296
v -0.24800 -0.05433 -0.41575
v -0.24800 -0.03519 -0.46194
v -0.24800 -0.00000 -0.43301
v -0.24800 -0.02500 -0.38971
v 0.24800 0.00219 -0.35701
v -0.24800 0.00219 -0.35701
v -0.24800 -0.02500 -0.38971
v 0.24800 -0.05433 -0.41575
v -0.24800 -0.05433 -0.41575
v 0.24800 -0.07235 -0.48296
v -0.24800 -0.03519 -0.46194
v 0.24800 -0.02500 -0.38971
v 0.24800 -0.03519 -0.46194
v -0.24800 -0.00000 -0.43301
v 0.24800 -0.15000 -0.45000
v 0.24800 -0.15000 -0.50000
v 0.24800 -0.15000 -0.45000
v 0.24800 -0.15000 -0.50000
v 0.24800 -0.11084 -0.49572
v 0.24800 -0.11737 -0.44615
v 0.24800 -0.07235 -0.48296
v 0.24800 -0.08530 -0.43467
v 0.24800 -0.00000 -0.43301
v 0.24800 -0.05433 -0.41575
v 0.24800 -0.03519 -0.46194
v 0.24800 -0.00000 -0.43301
v 0.24800 -0.02500 -0.38971
v -0.24800 0.06651 -0.22500
v -0.24800 0.10981 -0.25000
v -0.24800 0.04834 -0.27394
v 0.24800 0.06651 -0.22500
v -0.24800 0.06651 -0.22500
v -0.24800 0.04834 -0.27394
v -0.24800 0.09786 -0.05874
v -0.24800 0.14743 -0.06526
v -0.24800 0.09148 -0.11647
v -0.24800 0.13978 -0.12941
v -0.24800 0.08097 -0.17221
v -0.24800 0.12716 -0.19134
v -0.24800 0.09786 -0.05874
v 0.24800 0.09786 -0.05874
v -0.24800 0.09148 -0.11647
v 0.24800 0.14743 -0.06526
v -0.24800 0.14743 -0.06526
v 0.24800 0.13978 -0.12941
v -0.24800 0.13978 -0.12941
v 0.24800 0.09148 -0.11647
v -0.24800 0.08097 -0.17221
v 0.24800 0.08097 -0.17221
v 0.24800 0.12716 -0.19134
v -0.24800 0.12716 -0.19134
v 0.24800 0.10981 -0.25000
v -0.24800 0.10981 -0.25000
v -0.24800 0.02678 -0.31820
v -0.24800 0.06213 -0.35355
v -0.24800 0.00219 -0.35701
v -0.24800 0.03263 -0.39668
v -0.24800 0.08801 -0.30438
v 0.24800 0.02678 -0.31820
v -0.24800 0.02678 -0.31820
v 0.24800 0.04834 -0.27394
v 0.24800 0.06213 -0.35355
v -0.24800 0.06213 -0.35355
v -0.24800 0.08801 -0.30438
v -0.24800 0.03263 -0.39668
v 0.24800 0.03263 -0.39668
v 0.24800 0.08801 -0.30438
v 0.24800 0.06651 -0.22500
v 0.24800 0.04834 -0.27394
v 0.24800 0.10981 -0.25000
v 0.24800 0.09786 -0.05874
v 0.24800 0.09148 -0.11647
v 0.24800 0.14743 -0.06526
v 0.24800 0.13978 -0.12941
v 0.24800 0.08097 -0.17221
v 0.24800 0.12716 -0.19134
v 0.24800 0.02678 -0.31820
v 0.24800 0.00219 -0.35701
v 0.24800 0.06213 -0.35355
v 0.24800 0.03263 -0.39668
v 0.24800 0.08801 -0.30438
vn -1.0000 0.0000 0.0000
vn -1.0000 0.0000 0.0000
vn -1.0000 0.0000 0.0000
vn -1.0000 0.0000 0.0000
vn -1.0000 0.0000 0.0000
vn -1.0000 0.0000 0.0000
vn 0.0000 -1.0000 0.0000
vn 0.0000 -1.0000 0.0000
vn 0.0000 -1.0000 0.0000
vn -0.0000 -0.1172 -0.9931
vn 0.0000 -0.1172 -0.9931
vn -0.0000 -0.2286 -0.9735
vn 0.0000 0.2128 0.9771
vn 0.0000 0.2128 0.9771
vn 0.0000 0.1086 0.9941
vn 0.0000 -0.2286 -0.9735
vn 0.0000 -0.4315 -0.9021
vn 0.0000 0.4055 0.9141
vn 0.0000 0.4055 0.9141
vn -1.0000 0.0000 0.0000
vn -1.0000 0.0000 0.0000
vn -1.0000 0.0000 0.0000
vn -1.0000 0.0000 0.0000
vn 0.0000 0.5658 0.8245
vn 0.0000 0.5658 0.8245
vn 0.0000 -0.4315 -0.9021
vn 0.0000 -0.5950 -0.8038
vn 0.0000 -0.5950 -0.8038
vn 0.0000 -0.7184 -0.6956
vn 0.0000 0.6915 0.7224
vn -0.0000 0.6915 0.7224
vn 0.0000 -0.7184 -0.6956
vn 0.0000 -0.8085 -0.5885
vn 0.0000 0.1086 0.9941
vn 0.0000 -1.0000 0.0000
vn 1.0000 0.0000 0.0000
vn 1.0000 0.0000 0.0000
vn 1.0000 0.0000 0.0000
vn 1.0000 0.0000 0.0000
vn 1.0000 0.0000 0.0000
vn 1.0000 0.0000 0.0000
vn -0.0000 -0.8085 -0.5885
vn 1.0000 0.0000 0.0000
vn 1.0000 0.0000 0.0000
vn 1.0000 0.0000 0.0000
vn 1.0000 0.0000 0.0000
vn -1.0000 0.0000 0.0000
vn -1.0000 0.0000 0.0000
vn -1.0000 0.0000 0.0000
vn -1.0000 0.0000 0.0000
vn -1.0000 0.0000 0.0000
vn -1.0000 0.0000 0.0000
vn -0.0000 0.7864 0.6177
vn 0.0000 0.7864 0.6177
vn -0.0000 -0.8732 -0.4873
vn 0.0000 -0.8732 -0.4873
vn 0.0000 -0.9193 -0.3935
vn 0.0000 0.8566 0.5160
vn 0.0000 0.8566 0.5160
vn 0.0000 -0.9193 -0.3935
vn 0.0000 -0.9519 -0.3064
vn -1.0000 0.0000 0.0000
vn 0.0000 0.9078 0.4194
vn 0.0000 0.9078 0.4194
vn 0.0000 0.9446 0.3283
vn 0.0000 0.9446 0.3283
vn -1.0000 0.0000 0.0000
vn 0.0000 -0.9519 -0.3064
vn 0.0000 -0.9744 -0.2250
vn -1.0000 0.0000 0.0000
vn -1.0000 0.0000 0.0000
vn -1.0000 0.0000 0.0000
vn -1.0000 0.0000 0.0000
vn -1.0000 0.0000 0.0000
vn -1.0000 0.0000 0.0000
vn -1.0000 0.0000 0.0000
vn -1.0000 0.0000 0.0000
vn 0.0000 -0.9744 -0.2250
vn 0.0000 -0.9890 -0.1477
vn 0.0000 0.9703 0.2419
vn 0.0000 0.9703 0.2419
vn 0.0000 0.9873 0.1592
vn 0.0000 0.9873 0.1592
vn 0.0000 -0.9890 -0.1477
vn 0.0000 -0.9973 -0.0732
vn 0.0000 -0.9973 -0.0732
vn 0.0000 -1.0000 0.0000
vn 0.0000 0.9969 0.0790
vn 0.0000 0.9969 0.0790
vn 0.0000 1.0000 0.0000
vn 0.0000 1.0000 -0.0000
vn 1.0000 0.0000 0.0000
vn 1.0000 0.0000 0.0000
vn 1.0000 0.0000 0.0000
vn 1.0000 0.0000 0.0000
vn 1.0000 0.0000 0.0000
vn 1.0000 0.0000 0.0000
vn 1.0000 0.0000 0.0000
vn 1.0000 0.0000 0.0000
vn 0.0000 -1.0000 -0.0000
vn 1.0000 0.0000 0.0000
vn 1.0000 0.0000 0.0000
vn 1.0000 0.0000 0.0000
vn 1.0000 0.0000 0.0000
vn 1.0000 0.0000 0.0000
vn 1.0000 0.0000 0.0000
vn 1.0000 0.0000 0.0000
vn 1.0000 0.0000 0.0000
vn -1.0000 0.0000 0.0000
vn -1.0000 0.0000 0.0000
vn -1.0000 0.0000 0.0000
vn -1.0000 0.0000 0.0000
vn -1.0000 0.0000 0.0000
vn -1.0000 0.0000 0.0000
vn 0.0000 -1.0000 0.0000
vn 0.0000 -1.0000 0.0000
vn 0.0000 -1.0000 0.0000
vn 0.0000 0.1086 -0.9941
vn 0.0000 0.1086 -0.9941
vn 0.0000 0.2128 -0.9771
vn 0.0000 -0.2286 0.9735
vn 0.0000 -0.2286 0.9735
vn 0.0000 -0.1172 0.9931
vn 0.0000 -0.4315 0.9021
vn -0.0000 -0.4315 0.9021
vn 0.0000 0.2128 -0.9771
vn 0.0000 0.4055 -0.9141
vn -1.0000 0.0000 0.0000
vn -1.0000 0.0000 0.0000
vn -1.0000 0.0000 0.0000
vn -1.0000 0.0000 0.0000
vn 0.0000 -0.8085 0.5885
vn 0.0000 -0.8085 0.5885
vn 0.0000 -0.7184 0.6956
vn -0.0000 -0.5950 0.8038
vn 0.0000 -0.5950 0.8038
vn 0.0000 0.4055 -0.9141
vn 0.0000 0.5658 -0.8245
vn 0.0000 -0.7184 0.6956
vn -0.0000 0.5658 -0.8245
vn -0.0000 0.6915 -0.7224
vn 0.0000 -0.1172 0.9931
vn 0.0000 -1.0000 0.0000
vn 1.0000 0.0000 0.0000
vn 1.0000 0.0000 0.0000
vn 1.0000 0.0000 0.0000
vn 1.0000 0.0000 0.0000
vn 1.0000 0.0000 0.0000
vn 1.0000 0.0000 0.0000
vn 0.0000 0.6915 -0.7224
vn 1.0000 0.0000 0.0000
vn 1.0000 0.0000 0.0000
vn 1.0000 0.0000 0.0000
vn 1.0000 0.0000 0.0000
vn -1.0000 0.0000 0.0000
vn -1.0000 0.0000 0.0000
vn -1.0000 0.0000 0.0000
vn -0.0000 -0.9519 0.3064
vn 0.0000 -0.9519 0.3064
vn -0.0000 -0.9193 0.3935
vn -1.0000 0.0000 0.0000
vn -1.0000 0.0000 0.0000
vn -1.0000 0.0000 0.0000
vn -1.0000 0.0000 0.0000
vn -1.0000 0.0000 0.0000
vn -1.0000 0.0000 0.0000
vn 0.0000 -0.9973 0.0732
vn -0.0000 -0.9973 0.0732
vn -0.0000 -0.9890 0.1477
vn 0.0000 0.9969 -0.0790
vn 0.0000 0.9969 -0.0790
vn 0.0000 0.9873 -0.1592
vn 0.0000 0.9873 -0.1592
vn 0.0000 -0.9890 0.1477
vn 0.0000 -0.9744 0.2250
vn 0.0000 -0.9744 0.2250
vn 0.0000 0.9703 -0.2419
vn 0.0000 0.9703 -0.2419
vn 0.0000 0.9446 -0.3283
vn 0.0000 0.9446 -0.3283
vn -1.0000 0.0000 0.0000
vn -1.0000 0.0000 0.0000
vn -1.0000 0.0000 0.0000
vn -1.0000 0.0000 0.0000
vn -1.0000 0.0000 0.0000
vn 0.0000 -0.8732 0.4873
vn 0.0000 -0.8732 0.4873
vn 0.0000 -0.9193 0.3935
vn 0.0000 0.8566 -0.5160
vn 0.0000 0.8566 -0.5160
vn 0.0000 0.9078 -0.4194
vn 0.0000 0.7864 -0.6177
vn 0.0000 0.7864 -0.6177
vn 0.0000 0.9078 -0.4194
vn 1.0000 0.0000 0.0000
vn 1.0000 0.0000 0.0000
vn 1.0000 0.0000 0.0000
vn 1.0000 0.0000 0.0000
vn 1.0000 0.0000 0.0000
vn 1.0000 0.0000 0.0000
vn 1.0000 0.0000 0.0000
vn 1.0000 0.0000 0.0000
vn 1.0000 0.0000 0.0000
vn 1.0000 0.0000 0.0000
vn 1.0000 0.0000 0.0000
vn 1.0000 0.0000 0.0000
vn 1.0000 0.0000 0.0000
vn 1.0000 0.0000 0.0000
f 1//1 2//2 3//3
f 1//1 4//4 2//2
f 5//5 4//4 1//1
f 5//5 6//6 4//4
f 7//7 8//8 9//9
f 10//10 11//11 12//12
f 13//13 14//14 15//15
f 16//16 12//12 17//17
f 18//18 19//19 14//14
f 20//20 6//6 5//5
f 20//20 21//21 6//6
f 22//22 21//21 20//20
f 22//22 23//23 21//21
f 24//24 25//25 19//19
f 26//26 17//17 27//27
f 28//28 27//27 29//29
f 30//30 31//31 25//25
f 32//32 29//29 33//33
f 34//34 13//13 15//15
f 35//35 7//7 9//9
f 16//16 10//10 12//12
f 13//13 18//18 14//14
f 26//26 16//16 17//17
f 36//36 37//37 38//38
f 36//36 38//38 39//39
f 40//40 36//36 39//39
f 40//40 39//39 41//41
f 18//18 24//24 19//19
f 28//28 26//26 27//27
f 24//24 30//30 25//25
f 32//32 28//28 29//29
f 42//42 32//32 33//33
f 43//43 40//40 41//41
f 43//43 41//41 44//44
f 45//45 43//43 44//44
f 45//45 44//44 46//46
f 47//47 23//23 22//22
f 47//47 48//48 23//23
f 49//49 48//48 47//47
f 49//49 50//50 48//48
f 51//51 50//50 49//49
f 51//51 52//52 50//50
f 53//53 54//54 31//31
f 42//42 33//33 55//55
f 56//56 55//55 57//57
f 58//58 59//59 54//54
f 60//60 57//57 61//61
f 62//62 52//52 51//51
f 63//63 64//64 59//59
f 65//65 66//66 64//64
f 62//62 67//67 52//52
f 68//68 61//61 69//69
f 70//70 71//71 67//67
f 70//70 67//67 62//62
f 72//72 73//73 71//71
f 72//72 71//71 70//70
f 74//74 75//75 73//73
f 74//74 73//73 72//72
f 75//75 76//76 77//77
f 75//75 74//74 76//76
f 78//78 69//69 79//79
f 80//80 81//81 66//66
f 82//82 83//83 81//81
f 84//84 79//79 85//85
f 86//86 85//85 87//87
f 88//88 89//89 83//83
f 90//90 91//91 89//89
f 30//30 53//53 31//31
f 53//53 58//58 54//54
f 56//56 42//42 55//55
f 58//58 63//63 59//59
f 60//60 56//56 57//57
f 92//92 45//45 46//46
f 92//92 46//46 93//93
f 94//94 92//92 93//93
f 94//94 93//93 95//95
f 96//96 94//94 95//95
f 96//96 95//95 97//97
f 63//63 65//65 64//64
f 98//98 96//96 97//97
f 68//68 60//60 61//61
f 98//98 97//97 99//99
f 78//78 68//68 69//69
f 84//84 78//78 79//79
f 65//65 80//80 66//66
f 80//80 82//82 81//81
f 86//86 84//84 85//85
f 100//100 86//86 87//87
f 82//82 88//88 83//83
f 88//88 90//90 89//89
f 101//101 99//99 102//102
f 101//101 98//98 99//99
f 103//103 102//102 104//104
f 103//103 101//101 102//102
f 105//105 104//104 106//106
f 105//105 103//103 104//104
f 106//106 107//107 108//108
f 106//106 108//108 105//105
f 109//109 110//110 111//111
f 112//112 110//110 109//109
f 112//112 113//113 110//110
f 114//114 113//113 112//112
f 115//115 116//116 117//117
f 118//118 119//119 120//120
f 121//121 122//122 123//123
f 124//124 125//125 122//122
f 126//126 120//120 127//127
f 128//128 129//129 114//114
f 114//114 129//129 113//113
f 128//128 130//130 129//129
f 131//131 130//130 128//128
f 132//132 133//133 134//134
f 135//135 136//136 125//125
f 137//137 127//127 138//138
f 139//139 134//134 136//136
f 140//140 138//138 141//141
f 142//142 121//121 123//123
f 143//143 115//115 117//117
f 126//126 118//118 120//120
f 121//121 124//124 122//122
f 137//137 126//126 127//127
f 144//144 145//145 146//146
f 147//147 144//144 146//146
f 147//147 146//146 148//148
f 149//149 147//147 148//148
f 124//124 135//135 125//125
f 135//135 139//139 136//136
f 140//140 137//137 138//138
f 139//139 132//132 134//134
f 150//150 140//140 141//141
f 151//151 149//149 152//152
f 149//149 148//148 152//152
f 151//151 152//152 153//153
f 154//154 151//151 153//153
f 155//155 156//156 157//157
f 158//158 159//159 160//160
f 161//161 162//162 163//163
f 77//77 76//76 161//161
f 161//161 76//76 162//162
f 163//163 162//162 164//164
f 163//163 164//164 165//165
f 165//165 166//166 155//155
f 155//155 166//166 156//156
f 165//165 164//164 166//166
f 100//100 87//87 167//167
f 168//168 167//167 169//169
f 170//170 171//171 91//91
f 172//172 173//173 171//171
f 174//174 169//169 175//175
f 176//176 175//175 159//159
f 177//177 178//178 173//173
f 179//179 180//180 178//178
f 181//181 182//182 183//183
f 183//183 182//182 184//184
f 157//157 185//185 181//181
f 181//181 185//185 182//182
f 183//183 184//184 131//131
f 131//131 184//184 130//130
f 186//186 187//187 133//133
f 188//188 160//160 187//187
f 189//189 190//190 191//191
f 150//150 141//141 192//192
f 193//193 192//192 190//190
f 157//157 156//156 185//185
f 194//194 191//191 180//180
f 158//158 176//176 159//159
f 195//195 196//196 197//197
f 168//168 100//100 167//167
f 174//174 168//168 169//169
f 90//90 170//170 91//91
f 170//170 172//172 171//171
f 176//176 174//174 175//175
f 172//172 177//177 173//173
f 177//177 179//179 178//178
f 198//198 199//199 200//200
f 107//107 198//198 108//108
f 198//198 200//200 108//108
f 199//199 201//201 200//200
f 199//199 202//202 201//201
f 202//202 195//195 203//203
f 195//195 197//197 203//203
f 202//202 203//203 201//201
f 186//186 188//188 187//187
f 132//132 186//186 133//133
f 188//188 158//158 160//160
f 189//189 193//193 190//190
f 193//193 150//150 192//192
f 204//204 205//205 206//206
f 205//205 207//207 206//206
f 196//196 204//204 208//208
f 204//204 206//206 208//208
f 205//205 154//154 207//207
f 154//154 153//153 207//207
f 179//179 194//194 180//180
f 194//194 189//189 191//191
f 196//196 208//208 197//197
