v -0.25000 -0.15000 -0.75000
v -0.49800 -0.15000 -0.13000
v -0.40000 0.01256 -0.37500
v -0.25000 -0.11000 -0.75000
v -0.28000 -0.08452 -0.67500
v -0.31000 -0.05928 -0.60000
v -0.34000 -0.03453 -0.52500
v -0.37000 -0.01050 -0.45000
v -0.43000 0.03445 -0.30000
v -0.46000 0.05494 -0.22500
v -0.49000 0.07385 -0.15000
v -0.49800 0.07842 -0.13000
v 0.25000 -0.15000 -0.75000
v 0.25000 -0.11000 -0.75000
v 0.28000 -0.08452 -0.67500
v 0.31000 -0.05928 -0.60000
v 0.34000 -0.03453 -0.52500
v 0.49800 -0.15000 -0.13000
v 0.37000 -0.01050 -0.45000
v 0.40000 0.01256 -0.37500
v 0.49800 0.07842 -0.13000
v 0.43000 0.03445 -0.30000
v 0.46000 0.05494 -0.22500
v 0.49000 0.07385 -0.15000
v -0.49800 -0.15000 0.75000
v -0.49800 -0.15000 -0.13000
v -0.25000 -0.15000 -0.75000
v -0.25000 -0.11000 -0.75000
v 0.25000 -0.15000 -0.75000
v -0.25000 -0.15000 -0.75000
v -0.28000 -0.08452 -0.67500
v 0.25000 -0.11000 -0.75000
v -0.25000 -0.11000 -0.75000
v -0.31000 -0.05928 -0.60000
v 0.28000 -0.08452 -0.67500
v -0.37000 -0.01050 -0.45000
v -0.40000 0.01256 -0.37500
v 0.37000 -0.01050 -0.45000
v -0.34000 -0.03453 -0.52500
v 0.31000 -0.05928 -0.60000
v 0.34000 -0.03453 -0.52500
v -0.49800 -0.15000 0.75000
v -0.49800 0.15000 0.75000
v 0.49800 -0.15000 0.75000
v -0.49800 0.09098 -0.07500
v -0.49800 0.11930 0.07500
v -0.43000 0.03445 -0.30000
v 0.40000 0.01256 -0.37500
v -0.46000 0.05494 -0.22500
v 0.43000 0.03445 -0.30000
v -0.49000 0.07385 -0.15000
v 0.46000 0.05494 -0.22500
v -0.49800 0.07842 -0.13000
v 0.49000 0.07385 -0.15000
v -0.49800 0.09098 -0.07500
v -0.49800 0.10618 0.00000
v 0.49800 0.09098 -0.07500
v -0.49800 0.13021 0.15000
v -0.49800 0.13880 0.22500
v -0.49800 0.14500 0.30000
v -0.49800 0.14875 0.37500
v -0.49800 0.15000 0.45000
v -0.49800 0.10618 0.00000
v -0.49800 -0.15000 0.75000
v 0.49800 0.15000 0.75000
v -0.49800 0.15000 0.75000
v -0.49800 0.11930 0.07500
v 0.49800 0.10618 0.00000
v -0.49800 0.13021 0.15000
v 0.49800 0.11930 0.07500
v -0.49800 0.13880 0.22500
v 0.49800 0.13021 0.15000
v -0.49800 0.14500 0.30000
v 0.49800 0.13880 0.22500
v -0.49800 0.14875 0.37500
v 0.49800 0.14500 0.30000
v -0.49800 0.15000 0.45000
v 0.49800 0.14875 0.37500
v -0.49800 0.15000 0.75000
v 0.49800 0.15000 0.45000
v 0.25000 -0.11000 -0.75000
v 0.25000 -0.15000 -0.75000
v 0.49800 -0.15000 -0.13000
v 0.49800 -0.15000 0.75000
v 0.49800 -0.15000 0.75000
v 0.49800 0.07842 -0.13000
v 0.49800 0.11930 0.07500
v 0.49800 0.09098 -0.07500
v 0.49800 0.15000 0.75000
v 0.49800 0.15000 0.75000
v 0.49800 0.10618 0.00000
v 0.49800 0.13021 0.15000
v 0.49800 0.13880 0.22500
v 0.49800 0.14500 0.30000
v 0.49800 0.14875 0.37500
v 0.49800 0.15000 0.45000
vn -0.9285 -0.0000 -0.3714
vn -0.9820 0.0000 -0.1891
vn -0.9285 -0.0000 -0.3714
vn -0.9285 0.0000 -0.3714
vn -0.9285 0.0000 -0.3714
vn -0.9285 -0.0000 -0.3714
vn -0.9285 0.0000 -0.3714
vn -0.9285 -0.0000 -0.3714
vn -0.9285 0.0000 -0.3714
vn -0.9285 0.0000 -0.3714
vn -0.9285 0.0000 -0.3714
vn -0.9866 0.0000 -0.1631
vn 0.9285 0.0000 -0.3714
vn 0.9285 0.0000 -0.3714
vn 0.9285 0.0000 -0.3714
vn 0.9285 -0.0000 -0.3714
vn 0.9285 -0.0000 -0.3714
vn 0.9820 0.0000 -0.1891
vn 0.9285 0.0000 -0.3714
vn 0.9285 0.0000 -0.3714
vn 0.9866 0.0000 -0.1631
vn 0.9285 0.0000 -0.3714
vn 0.9285 -0.0000 -0.3714
vn 0.9285 0.0000 -0.3714
vn 0.0000 -1.0000 0.0000
vn 0.0000 -1.0000 0.0000
vn 0.0000 -1.0000 0.0000
vn 0.0000 0.0000 -1.0000
vn 0.0000 0.0000 -1.0000
vn 0.0000 0.0000 -1.0000
vn 0.0000 0.9474 -0.3200
vn 0.0000 0.9468 -0.3217
vn 0.0000 0.9468 -0.3217
vn 0.0000 0.9489 -0.3155
vn 0.0000 0.9474 -0.3200
vn -0.0000 0.9545 -0.2982
vn -0.0000 0.9584 -0.2854
vn -0.0000 0.9545 -0.2982
vn -0.0000 0.9513 -0.3083
vn -0.0000 0.9489 -0.3155
vn 0.0000 0.9513 -0.3083
vn -1.0000 0.0000 0.0000
vn -1.0000 0.0000 0.0000
vn 0.0000 -1.0000 0.0000
vn -1.0000 0.0000 0.0000
vn -1.0000 0.0000 0.0000
vn 0.0000 0.9629 -0.2699
vn 0.0000 0.9584 -0.2854
vn 0.0000 0.9678 -0.2518
vn 0.0000 0.9629 -0.2699
vn -0.0000 0.9729 -0.2310
vn -0.0000 0.9678 -0.2518
vn 0.0000 0.9749 -0.2227
vn -0.0000 0.9729 -0.2310
vn 0.0000 0.9776 -0.2107
vn 0.0000 0.9827 -0.1855
vn -0.0000 0.9776 -0.2107
vn -1.0000 0.0000 0.0000
vn -1.0000 0.0000 0.0000
vn -1.0000 0.0000 0.0000
vn -1.0000 0.0000 0.0000
vn -1.0000 0.0000 0.0000
vn -1.0000 0.0000 0.0000
vn 0.0000 0.0000 1.0000
vn 0.0000 0.0000 1.0000
vn 0.0000 0.0000 1.0000
vn -0.0000 0.9874 -0.1581
vn -0.0000 0.9827 -0.1855
vn 0.0000 0.9917 -0.1289
vn 0.0000 0.9874 -0.1581
vn 0.0000 0.9952 -0.0981
vn 0.0000 0.9917 -0.1289
vn 0.0000 0.9978 -0.0661
vn 0.0000 0.9952 -0.0981
vn 0.0000 0.9994 -0.0333
vn 0.0000 0.9978 -0.0661
vn 0.0000 1.0000 -0.0083
vn 0.0000 0.9994 -0.0333
vn 0.0000 1.0000 0.0000
vn 0.0000 1.0000 -0.0083
vn 0.0000 0.0000 -1.0000
vn 0.0000 -1.0000 0.0000
vn 0.0000 -1.0000 0.0000
vn 0.0000 0.0000 1.0000
vn 1.0000 0.0000 0.0000
vn -0.0000 0.9749 -0.2227
vn 1.0000 0.0000 0.0000
vn 1.0000 0.0000 0.0000
vn 0.0000 1.0000 0.0000
vn 1.0000 0.0000 0.0000
vn 1.0000 0.0000 0.0000
vn 1.0000 0.0000 0.0000
vn 1.0000 0.0000 0.0000
vn 1.0000 0.0000 0.0000
vn 1.0000 0.0000 0.0000
vn 1.0000 0.0000 0.0000
f 1//1 2//2 3//3
f 4//4 1//1 5//5
f 6//6 5//5 1//1
f 7//7 6//6 1//1
f 8//8 7//7 1//1
f 1//1 3//3 8//8
f 9//9 3//3 2//2
f 2//2 10//10 9//9
f 2//2 11//11 10//10
f 2//2 12//12 11//11
f 13//13 14//14 15//15
f 15//15 16//16 13//13
f 16//16 17//17 13//13
f 18//18 13//13 19//19
f 19//19 13//13 17//17
f 18//18 19//19 20//20
f 21//21 18//18 20//20
f 21//21 20//20 22//22
f 21//21 22//22 23//23
f 21//21 23//23 24//24
f 25//25 26//26 27//27
f 28//28 29//29 30//30
f 31//31 32//32 33//33
f 34//34 35//35 31//31
f 36//36 37//37 38//38
f 39//39 40//40 34//34
f 36//36 41//41 39//39
f 42//42 43//43 2//2
f 25//25 27//27 44//44
f 45//45 12//12 2//2
f 46//46 45//45 2//2
f 47//47 48//48 37//37
f 49//49 50//50 47//47
f 51//51 52//52 49//49
f 53//53 54//54 51//51
f 55//55 54//54 53//53
f 55//55 56//56 57//57
f 58//58 46//46 2//2
f 59//59 58//58 2//2
f 60//60 59//59 2//2
f 61//61 60//60 2//2
f 62//62 61//61 2//2
f 43//43 62//62 2//2
f 46//46 63//63 45//45
f 64//64 65//65 66//66
f 67//67 68//68 56//56
f 69//69 70//70 67//67
f 71//71 72//72 69//69
f 73//73 74//74 71//71
f 75//75 76//76 73//73
f 77//77 78//78 75//75
f 79//79 80//80 77//77
f 28//28 81//81 29//29
f 32//32 31//31 35//35
f 27//27 82//82 83//83
f 44//44 27//27 83//83
f 35//35 34//34 40//40
f 40//40 39//39 41//41
f 36//36 38//38 41//41
f 64//64 84//84 65//65
f 85//85 18//18 21//21
f 38//38 37//37 48//48
f 48//48 47//47 50//50
f 50//50 49//49 52//52
f 52//52 51//51 54//54
f 55//55 57//57 54//54
f 56//56 68//68 57//57
f 57//57 86//86 54//54
f 87//87 21//21 88//88
f 67//67 70//70 68//68
f 69//69 72//72 70//70
f 71//71 74//74 72//72
f 73//73 76//76 74//74
f 75//75 78//78 76//76
f 77//77 80//80 78//78
f 79//79 89//89 80//80
f 85//85 21//21 90//90
f 87//87 88//88 91//91
f 92//92 21//21 87//87
f 93//93 21//21 92//92
f 94//94 21//21 93//93
f 95//95 21//21 94//94
f 96//96 21//21 95//95
f 90//90 21//21 96//96
