v -0.28250 -0.07897 -0.57000
v -0.26781 -0.08432 -0.57000
v -0.28250 -0.07897 -0.35000
v -0.25219 -0.08432 -0.57000
v -0.26781 -0.08432 -0.35000
v -0.23750 -0.07897 -0.57000
v -0.25219 -0.08432 -0.35000
v -0.22553 -0.06893 -0.57000
v -0.23750 -0.07897 -0.35000
v -0.29447 -0.06893 -0.57000
v -0.29447 -0.06893 -0.35000
v -0.21771 -0.05539 -0.57000
v -0.22553 -0.06893 -0.35000
v -0.28250 -0.07897 -0.57000
v -0.29447 -0.06893 -0.57000
v -0.29447 -0.01107 -0.57000
v -0.26781 -0.08432 -0.57000
v -0.28250 -0.00103 -0.57000
v -0.25219 -0.08432 -0.57000
v -0.26781 0.00432 -0.57000
v -0.23750 -0.07897 -0.57000
v -0.25219 0.00432 -0.57000
v -0.30229 -0.05539 -0.57000
v -0.30229 -0.02461 -0.57000
v -0.30500 -0.04000 -0.57000
v -0.22553 -0.06893 -0.57000
v -0.23750 -0.00103 -0.57000
v -0.21771 -0.05539 -0.57000
v -0.22553 -0.01107 -0.57000
v -0.21500 -0.04000 -0.57000
v -0.21771 -0.02461 -0.57000
v -0.30229 -0.05539 -0.57000
v -0.30229 -0.05539 -0.35000
v -0.30500 -0.04000 -0.57000
v -0.30500 -0.04000 -0.35000
v -0.21500 -0.04000 -0.57000
v -0.21771 -0.05539 -0.35000
v -0.21500 -0.04000 -0.35000
v -0.28250 -0.07897 -0.35000
v -0.29447 -0.01107 -0.35000
v -0.29447 -0.06893 -0.35000
v -0.26781 -0.08432 -0.35000
v -0.28250 -0.00103 -0.35000
v -0.25219 -0.08432 -0.35000
v -0.26781 0.00432 -0.35000
v -0.23750 -0.07897 -0.35000
v -0.25219 0.00432 -0.35000
v -0.30229 -0.02461 -0.35000
v -0.30229 -0.05539 -0.35000
v -0.22553 -0.06893 -0.35000
v -0.23750 -0.00103 -0.35000
v -0.21771 -0.05539 -0.35000
v -0.22553 -0.01107 -0.35000
v -0.30229 -0.02461 -0.57000
v -0.30229 -0.02461 -0.35000
v -0.21771 -0.02461 -0.57000
v -0.22553 -0.01107 -0.57000
v -0.21771 -0.02461 -0.35000
v -0.29447 -0.01107 -0.57000
v -0.29447 -0.01107 -0.35000
v -0.23750 -0.00103 -0.57000
v -0.22553 -0.01107 -0.35000
v -0.28250 -0.00103 -0.57000
v -0.28250 -0.00103 -0.35000
v -0.26781 0.00432 -0.57000
v -0.26781 0.00432 -0.35000
v -0.25219 0.00432 -0.57000
v -0.25219 0.00432 -0.35000
v -0.23750 -0.00103 -0.35000
v -0.30500 -0.04000 -0.35000
v -0.21500 -0.04000 -0.35000
v -0.21771 -0.02461 -0.35000
v 0.23750 -0.07897 -0.57000
v 0.25219 -0.08432 -0.57000
v 0.23750 -0.07897 -0.35000
v 0.26781 -0.08432 -0.57000
v 0.25219 -0.08432 -0.35000
v 0.28250 -0.07897 -0.57000
v 0.26781 -0.08432 -0.35000
v 0.29447 -0.06893 -0.57000
v 0.28250 -0.07897 -0.35000
v 0.22553 -0.06893 -0.57000
v 0.22553 -0.06893 -0.35000
v 0.30229 -0.05539 -0.57000
v 0.29447 -0.06893 -0.35000
v 0.22553 -0.06893 -0.57000
v 0.21771 -0.05539 -0.57000
v 0.21771 -0.02461 -0.57000
v 0.21500 -0.04000 -0.57000
v 0.25219 -0.08432 -0.57000
v 0.23750 -0.07897 -0.57000
v 0.23750 -0.00103 -0.57000
v 0.22553 -0.01107 -0.57000
v 0.26781 -0.08432 -0.57000
v 0.25219 0.00432 -0.57000
v 0.28250 -0.07897 -0.57000
v 0.26781 0.00432 -0.57000
v 0.29447 -0.06893 -0.57000
v 0.28250 -0.00103 -0.57000
v 0.30229 -0.05539 -0.57000
v 0.29447 -0.01107 -0.57000
v 0.30500 -0.04000 -0.57000
v 0.30229 -0.02461 -0.57000
v 0.21771 -0.05539 -0.57000
v 0.21771 -0.05539 -0.35000
v 0.21500 -0.04000 -0.57000
v 0.21500 -0.04000 -0.35000
v 0.30500 -0.04000 -0.57000
v 0.30229 -0.05539 -0.35000
v 0.30500 -0.04000 -0.35000
v 0.22553 -0.06893 -0.35000
v 0.21771 -0.02461 -0.35000
v 0.21771 -0.05539 -0.35000
v 0.25219 -0.08432 -0.35000
v 0.23750 -0.00103 -0.35000
v 0.23750 -0.07897 -0.35000
v 0.22553 -0.01107 -0.35000
v 0.26781 -0.08432 -0.35000
v 0.25219 0.00432 -0.35000
v 0.28250 -0.07897 -0.35000
v 0.26781 0.00432 -0.35000
v 0.29447 -0.06893 -0.35000
v 0.28250 -0.00103 -0.35000
v 0.30229 -0.05539 -0.35000
v 0.29447 -0.01107 -0.35000
v 0.21771 -0.02461 -0.57000
v 0.21771 -0.02461 -0.35000
v 0.30229 -0.02461 -0.57000
v 0.29447 -0.01107 -0.57000
v 0.30229 -0.02461 -0.35000
v 0.22553 -0.01107 -0.57000
v 0.22553 -0.01107 -0.35000
v 0.28250 -0.00103 -0.57000
v 0.29447 -0.01107 -0.35000
v 0.23750 -0.00103 -0.57000
v 0.23750 -0.00103 -0.35000
v 0.25219 0.00432 -0.57000
v 0.25219 0.00432 -0.35000
v 0.26781 0.00432 -0.57000
v 0.26781 0.00432 -0.35000
v 0.28250 -0.00103 -0.35000
v 0.21500 -0.04000 -0.35000
v 0.30500 -0.04000 -0.35000
v 0.30229 -0.02461 -0.35000
vn -0.5000 -0.8660 -0.0000
vn -0.1736 -0.9848 0.0000
vn -0.5000 -0.8660 0.0000
vn 0.1736 -0.9848 0.0000
vn -0.1736 -0.9848 0.0000
vn 0.5000 -0.8660 0.0000
vn 0.1736 -0.9848 0.0000
vn 0.7660 -0.6428 0.0000
vn 0.5000 -0.8660 0.0000
vn -0.7660 -0.6428 0.0000
vn -0.7660 -0.6428 -0.0000
vn 0.9397 -0.3420 -0.0000
vn 0.7660 -0.6428 -0.0000
vn 0.0000 0.0000 -1.0000
vn 0.0000 0.0000 -1.0000
vn 0.0000 0.0000 -1.0000
vn 0.0000 0.0000 -1.0000
vn 0.0000 0.0000 -1.0000
vn 0.0000 0.0000 -1.0000
vn 0.0000 0.0000 -1.0000
vn 0.0000 0.0000 -1.0000
vn 0.0000 0.0000 -1.0000
vn 0.0000 0.0000 -1.0000
vn 0.0000 0.0000 -1.0000
vn 0.0000 0.0000 -1.0000
vn 0.0000 0.0000 -1.0000
vn 0.0000 0.0000 -1.0000
vn 0.0000 0.0000 -1.0000
vn 0.0000 0.0000 -1.0000
vn 0.0000 0.0000 -1.0000
vn 0.0000 0.0000 -1.0000
vn -0.9397 -0.3420 0.0000
vn -0.9397 -0.3420 0.0000
vn -1.0000 0.0000 0.0000
vn -1.0000 -0.0000 0.0000
vn 1.0000 -0.0000 0.0000
vn 0.9397 -0.3420 0.0000
vn 1.0000 0.0000 0.0000
vn 0.0000 0.0000 1.0000
vn 0.0000 0.0000 1.0000
vn 0.0000 0.0000 1.0000
vn 0.0000 0.0000 1.0000
vn 0.0000 0.0000 1.0000
vn 0.0000 0.0000 1.0000
vn 0.0000 0.0000 1.0000
vn 0.0000 0.0000 1.0000
vn 0.0000 0.0000 1.0000
vn 0.0000 0.0000 1.0000
vn 0.0000 0.0000 1.0000
vn 0.0000 0.0000 1.0000
vn 0.0000 0.0000 1.0000
vn 0.0000 0.0000 1.0000
vn 0.0000 0.0000 1.0000
vn -0.9397 0.3420 0.0000
vn -0.9397 0.3420 0.0000
vn 0.9397 0.3420 0.0000
vn 0.7660 0.6428 0.0000
vn 0.9397 0.3420 0.0000
vn -0.7660 0.6428 0.0000
vn -0.7660 0.6428 0.0000
vn 0.5000 0.8660 0.0000
vn 0.7660 0.6428 0.0000
vn -0.5000 0.8660 0.0000
vn -0.5000 0.8660 0.0000
vn -0.1736 0.9848 0.0000
vn -0.1736 0.9848 0.0000
vn 0.1736 0.9848 0.0000
vn 0.1736 0.9848 0.0000
vn 0.5000 0.8660 0.0000
vn 0.0000 0.0000 1.0000
vn 0.0000 0.0000 1.0000
vn 0.0000 0.0000 1.0000
vn -0.5000 -0.8660 -0.0000
vn -0.1736 -0.9848 0.0000
vn -0.5000 -0.8660 0.0000
vn 0.1736 -0.9848 0.0000
vn -0.1736 -0.9848 0.0000
vn 0.5000 -0.8660 -0.0000
vn 0.1736 -0.9848 -0.0000
vn 0.7660 -0.6428 0.0000
vn 0.5000 -0.8660 0.0000
vn -0.7660 -0.6428 0.0000
vn -0.7660 -0.6428 -0.0000
vn 0.9397 -0.3420 -0.0000
vn 0.7660 -0.6428 -0.0000
vn 0.0000 0.0000 -1.0000
vn 0.0000 0.0000 -1.0000
vn 0.0000 0.0000 -1.0000
vn 0.0000 0.0000 -1.0000
vn 0.0000 0.0000 -1.0000
vn 0.0000 0.0000 -1.0000
vn 0.0000 0.0000 -1.0000
vn 0.0000 0.0000 -1.0000
vn 0.0000 0.0000 -1.0000
vn 0.0000 0.0000 -1.0000
vn 0.0000 0.0000 -1.0000
vn 0.0000 0.0000 -1.0000
vn 0.0000 0.0000 -1.0000
vn 0.0000 0.0000 -1.0000
vn 0.0000 0.0000 -1.0000
vn 0.0000 0.0000 -1.0000
vn 0.0000 0.0000 -1.0000
vn 0.0000 0.0000 -1.0000
vn -0.9397 -0.3420 -0.0000
vn -0.9397 -0.3420 0.0000
vn -1.0000 0.0000 0.0000
vn -1.0000 -0.0000 -0.0000
vn 1.0000 -0.0000 0.0000
vn 0.9397 -0.3420 0.0000
vn 1.0000 0.0000 -0.0000
vn 0.0000 0.0000 1.0000
vn 0.0000 0.0000 1.0000
vn 0.0000 0.0000 1.0000
vn 0.0000 0.0000 1.0000
vn 0.0000 0.0000 1.0000
vn 0.0000 0.0000 1.0000
vn 0.0000 0.0000 1.0000
vn 0.0000 0.0000 1.0000
vn 0.0000 0.0000 1.0000
vn 0.0000 0.0000 1.0000
vn 0.0000 0.0000 1.0000
vn 0.0000 0.0000 1.0000
vn 0.0000 0.0000 1.0000
vn 0.0000 0.0000 1.0000
vn 0.0000 0.0000 1.0000
vn -0.9397 0.3420 0.0000
vn -0.9397 0.3420 0.0000
vn 0.9397 0.3420 -0.0000
vn 0.7660 0.6428 0.0000
vn 0.9397 0.3420 0.0000
vn -0.7660 0.6428 0.0000
vn -0.7660 0.6428 0.0000
vn 0.5000 0.8660 0.0000
vn 0.7660 0.6428 0.0000
vn -0.5000 0.8660 0.0000
vn -0.5000 0.8660 0.0000
vn -0.1736 0.9848 0.0000
vn -0.1736 0.9848 0.0000
vn 0.1736 0.9848 0.0000
vn 0.1736 0.9848 0.0000
vn 0.5000 0.8660 0.0000
vn 0.0000 0.0000 1.0000
vn 0.0000 0.0000 1.0000
vn 0.0000 0.0000 1.0000
f 1//1 2//2 3//3
f 2//2 4//4 5//5
f 4//4 6//6 7//7
f 6//6 8//8 9//9
f 10//10 1//1 11//11
f 8//8 12//12 13//13
f 14//14 15//15 16//16
f 17//17 14//14 18//18
f 19//19 17//17 20//20
f 21//21 19//19 22//22
f 15//15 23//23 24//24
f 23//23 25//25 24//24
f 26//26 21//21 27//27
f 28//28 26//26 29//29
f 30//30 28//28 31//31
f 32//32 10//10 33//33
f 34//34 32//32 35//35
f 12//12 36//36 37//37
f 2//2 5//5 3//3
f 1//1 3//3 11//11
f 4//4 7//7 5//5
f 6//6 9//9 7//7
f 10//10 11//11 33//33
f 8//8 13//13 9//9
f 32//32 33//33 35//35
f 12//12 37//37 13//13
f 36//36 38//38 37//37
f 39//39 40//40 41//41
f 42//42 43//43 39//39
f 44//44 45//45 42//42
f 46//46 47//47 44//44
f 41//41 48//48 49//49
f 50//50 51//51 46//46
f 52//52 53//53 50//50
f 15//15 24//24 16//16
f 14//14 16//16 18//18
f 17//17 18//18 20//20
f 19//19 20//20 22//22
f 26//26 27//27 29//29
f 21//21 22//22 27//27
f 28//28 29//29 31//31
f 54//54 34//34 55//55
f 36//36 56//56 38//38
f 56//56 57//57 58//58
f 59//59 54//54 60//60
f 57//57 61//61 62//62
f 63//63 59//59 64//64
f 65//65 63//63 66//66
f 67//67 65//65 68//68
f 61//61 67//67 69//69
f 34//34 35//35 55//55
f 54//54 55//55 60//60
f 56//56 58//58 38//38
f 49//49 48//48 70//70
f 41//41 40//40 48//48
f 39//39 43//43 40//40
f 42//42 45//45 43//43
f 44//44 47//47 45//45
f 50//50 53//53 51//51
f 46//46 51//51 47//47
f 71//71 72//72 52//52
f 52//52 72//72 53//53
f 59//59 60//60 64//64
f 63//63 64//64 66//66
f 61//61 69//69 62//62
f 65//65 66//66 68//68
f 67//67 68//68 69//69
f 57//57 62//62 58//58
f 73//73 74//74 75//75
f 74//74 76//76 77//77
f 76//76 78//78 79//79
f 78//78 80//80 81//81
f 82//82 73//73 83//83
f 80//80 84//84 85//85
f 86//86 87//87 88//88
f 87//87 89//89 88//88
f 90//90 91//91 92//92
f 91//91 86//86 93//93
f 94//94 90//90 95//95
f 96//96 94//94 97//97
f 98//98 96//96 99//99
f 100//100 98//98 101//101
f 102//102 100//100 103//103
f 104//104 82//82 105//105
f 106//106 104//104 107//107
f 84//84 108//108 109//109
f 82//82 83//83 105//105
f 74//74 77//77 75//75
f 76//76 79//79 77//77
f 73//73 75//75 83//83
f 78//78 81//81 79//79
f 80//80 85//85 81//81
f 104//104 105//105 107//107
f 84//84 109//109 85//85
f 108//108 110//110 109//109
f 111//111 112//112 113//113
f 114//114 115//115 116//116
f 116//116 117//117 111//111
f 118//118 119//119 114//114
f 120//120 121//121 118//118
f 122//122 123//123 120//120
f 124//124 125//125 122//122
f 86//86 88//88 93//93
f 91//91 93//93 92//92
f 100//100 101//101 103//103
f 90//90 92//92 95//95
f 94//94 95//95 97//97
f 96//96 97//97 99//99
f 98//98 99//99 101//101
f 126//126 106//106 127//127
f 108//108 128//128 110//110
f 128//128 129//129 130//130
f 131//131 126//126 132//132
f 129//129 133//133 134//134
f 135//135 131//131 136//136
f 137//137 135//135 138//138
f 139//139 137//137 140//140
f 133//133 139//139 141//141
f 106//106 107//107 127//127
f 126//126 127//127 132//132
f 128//128 130//130 110//110
f 113//113 112//112 142//142
f 111//111 117//117 112//112
f 116//116 115//115 117//117
f 143//143 144//144 124//124
f 124//124 144//144 125//125
f 114//114 119//119 115//115
f 118//118 121//121 119//119
f 120//120 123//123 121//121
f 122//122 125//125 123//123
f 131//131 132//132 136//136
f 129//129 134//134 130//130
f 135//135 136//136 138//138
f 137//137 138//138 140//140
f 133//133 141//141 134//134
f 139//139 140//140 141//141
