v -0.24500 -0.04222 -0.03367
v -0.24500 -0.02343 -0.04865
v -0.01000 -0.04222 -0.03367
v -0.24500 -0.05265 -0.01202
v -0.01000 -0.05265 -0.01202
v -0.24500 -0.04222 -0.03367
v -0.24500 0.02343 -0.04865
v -0.24500 -0.02343 -0.04865
v -0.24500 0.00000 -0.05400
v -0.24500 0.00000 -0.05400
v -0.01000 -0.02343 -0.04865
v -0.24500 -0.05265 -0.01202
v -0.24500 0.04222 -0.03367
v -0.24500 -0.05265 0.01202
v -0.24500 0.05265 -0.01202
v -0.01000 -0.05265 0.01202
v -0.01000 0.00000 -0.05400
v -0.24500 -0.05265 0.01202
v -0.24500 -0.04222 0.03367
v -0.01000 -0.04222 0.03367
v -0.24500 -0.04222 0.03367
v -0.24500 0.05265 0.01202
v -0.24500 -0.02343 0.04865
v -0.24500 0.04222 0.03367
v -0.24500 0.00000 0.05400
v -0.24500 0.02343 0.04865
v -0.01000 -0.02343 0.04865
v -0.24500 -0.02343 0.04865
v -0.01000 0.00000 0.05400
v -0.24500 0.00000 0.05400
v -0.24500 0.02343 -0.04865
v -0.24500 0.04222 -0.03367
v -0.01000 0.02343 -0.04865
v -0.24500 0.05265 -0.01202
v -0.01000 0.04222 -0.03367
v -0.24500 0.05265 0.01202
v -0.01000 0.05265 -0.01202
v -0.01000 0.02343 0.04865
v -0.24500 0.02343 0.04865
v -0.24500 0.04222 0.03367
v -0.01000 0.05265 0.01202
v -0.01000 0.04222 0.03367
v 0.24500 -0.04222 -0.03367
v 0.01000 -0.04222 -0.03367
v 0.01000 -0.02343 -0.04865
v 0.24500 -0.05265 -0.01202
v 0.01000 -0.05265 -0.01202
v 0.24500 -0.02343 -0.04865
v 0.01000 0.00000 -0.05400
v 0.24500 -0.05265 0.01202
v 0.24500 0.00000 -0.05400
v 0.24500 -0.04222 -0.03367
v 0.24500 -0.02343 -0.04865
v 0.24500 0.02343 -0.04865
v 0.24500 0.00000 -0.05400
v 0.24500 -0.05265 -0.01202
v 0.24500 0.04222 -0.03367
v 0.24500 -0.05265 0.01202
v 0.24500 0.05265 -0.01202
v 0.01000 -0.05265 0.01202
v 0.24500 -0.04222 0.03367
v 0.01000 -0.04222 0.03367
v 0.24500 -0.02343 0.04865
v 0.01000 -0.02343 0.04865
v 0.24500 0.00000 0.05400
v 0.01000 0.00000 0.05400
v 0.24500 -0.04222 0.03367
v 0.24500 0.05265 0.01202
v 0.24500 0.04222 0.03367
v 0.24500 -0.02343 0.04865
v 0.24500 0.02343 0.04865
v 0.24500 0.00000 0.05400
v 0.01000 0.02343 -0.04865
v 0.24500 0.02343 -0.04865
v 0.01000 0.04222 -0.03367
v 0.24500 0.04222 -0.03367
v 0.01000 0.05265 -0.01202
v 0.24500 0.05265 -0.01202
v 0.01000 0.05265 0.01202
v 0.24500 0.02343 0.04865
v 0.01000 0.02343 0.04865
v 0.24500 0.05265 0.01202
v 0.01000 0.04222 0.03367
v 0.24500 0.04222 0.03367
v -0.01000 -0.05473 -0.04364
v -0.01000 -0.03037 -0.06307
v 0.01000 -0.05473 -0.04364
v -0.01000 -0.05473 -0.04364
v -0.01000 -0.04222 -0.03367
v -0.01000 -0.02343 -0.04865
v -0.01000 -0.06824 -0.01558
v 0.01000 -0.06824 -0.01558
v -0.01000 -0.06824 -0.01558
v -0.01000 -0.05265 -0.01202
v -0.01000 -0.05265 0.01202
v -0.01000 0.00000 -0.07000
v 0.01000 -0.03037 -0.06307
v -0.01000 0.03037 -0.06307
v -0.01000 -0.03037 -0.06307
v -0.01000 0.00000 -0.07000
v -0.01000 -0.06824 0.01558
v 0.01000 -0.06824 0.01558
v -0.01000 -0.06824 0.01558
v -0.01000 -0.04222 0.03367
v -0.01000 -0.05473 0.04364
v 0.01000 -0.05473 0.04364
v -0.01000 -0.05473 0.04364
v -0.01000 -0.02343 0.04865
v -0.01000 -0.03037 0.06307
v 0.01000 -0.03037 0.06307
v -0.01000 -0.03037 0.06307
v -0.01000 0.00000 0.05400
v 0.01000 0.00000 0.07000
v -0.01000 0.00000 0.07000
v -0.01000 0.02343 0.04865
v -0.01000 0.00000 0.07000
v -0.01000 0.03037 0.06307
v -0.01000 0.00000 -0.05400
v -0.01000 0.03037 -0.06307
v 0.01000 0.00000 -0.07000
v -0.01000 0.02343 -0.04865
v -0.01000 0.05473 -0.04364
v 0.01000 0.03037 -0.06307
v -0.01000 0.05473 -0.04364
v -0.01000 0.04222 -0.03367
v -0.01000 0.06824 -0.01558
v -0.01000 0.06824 -0.01558
v 0.01000 0.05473 -0.04364
v -0.01000 0.05265 -0.01202
v -0.01000 0.06824 0.01558
v -0.01000 0.06824 0.01558
v 0.01000 0.06824 -0.01558
v -0.01000 0.05473 0.04364
v 0.01000 0.03037 0.06307
v -0.01000 0.03037 0.06307
v -0.01000 0.05265 0.01202
v -0.01000 0.04222 0.03367
v -0.01000 0.05473 0.04364
v 0.01000 0.06824 0.01558
v 0.01000 0.05473 0.04364
v 0.01000 -0.05473 -0.04364
v 0.01000 -0.02343 -0.04865
v 0.01000 -0.04222 -0.03367
v 0.01000 -0.06824 -0.01558
v 0.01000 -0.05265 -0.01202
v 0.01000 -0.06824 0.01558
v 0.01000 -0.03037 -0.06307
v 0.01000 0.03037 -0.06307
v 0.01000 0.00000 -0.07000
v 0.01000 -0.05265 0.01202
v 0.01000 -0.05473 0.04364
v 0.01000 -0.04222 0.03367
v 0.01000 -0.03037 0.06307
v 0.01000 -0.02343 0.04865
v 0.01000 0.00000 0.05400
v 0.01000 0.02343 0.04865
v 0.01000 0.03037 0.06307
v 0.01000 0.00000 0.07000
v 0.01000 0.00000 -0.05400
v 0.01000 0.02343 -0.04865
v 0.01000 0.04222 -0.03367
v 0.01000 0.05473 -0.04364
v 0.01000 0.05265 -0.01202
v 0.01000 0.06824 -0.01558
v 0.01000 0.05265 0.01202
v 0.01000 0.05473 0.04364
v 0.01000 0.06824 0.01558
v 0.01000 0.04222 0.03367
vn 0.0000 -0.7818 -0.6235
vn -0.0000 -0.4339 -0.9010
vn -0.0000 -0.7818 -0.6235
vn 0.0000 -0.9749 -0.2225
vn 0.0000 -0.9749 -0.2225
vn -1.0000 0.0000 0.0000
vn -1.0000 0.0000 0.0000
vn -1.0000 0.0000 0.0000
vn -1.0000 0.0000 0.0000
vn -0.0000 0.0000 -1.0000
vn -0.0000 -0.4339 -0.9010
vn -1.0000 0.0000 0.0000
vn -1.0000 0.0000 0.0000
vn -1.0000 0.0000 0.0000
vn -1.0000 0.0000 0.0000
vn 0.0000 -0.9749 0.2225
vn 0.0000 0.0000 -1.0000
vn 0.0000 -0.9749 0.2225
vn 0.0000 -0.7818 0.6235
vn 0.0000 -0.7818 0.6235
vn -1.0000 0.0000 0.0000
vn -1.0000 0.0000 0.0000
vn -1.0000 0.0000 0.0000
vn -1.0000 0.0000 0.0000
vn -1.0000 0.0000 0.0000
vn -1.0000 0.0000 0.0000
vn 0.0000 -0.4339 0.9010
vn 0.0000 -0.4339 0.9010
vn 0.0000 0.0000 1.0000
vn 0.0000 0.0000 1.0000
vn 0.0000 0.4339 -0.9010
vn 0.0000 0.7818 -0.6235
vn 0.0000 0.4339 -0.9010
vn 0.0000 0.9749 -0.2225
vn 0.0000 0.7818 -0.6235
vn 0.0000 0.9749 0.2225
vn 0.0000 0.9749 -0.2225
vn 0.0000 0.4339 0.9010
vn 0.0000 0.4339 0.9010
vn 0.0000 0.7818 0.6235
vn 0.0000 0.9749 0.2225
vn 0.0000 0.7818 0.6235
vn -0.0000 -0.7818 -0.6235
vn 0.0000 -0.7818 -0.6235
vn -0.0000 -0.4339 -0.9010
vn 0.0000 -0.9749 -0.2225
vn 0.0000 -0.9749 -0.2225
vn -0.0000 -0.4339 -0.9010
vn -0.0000 0.0000 -1.0000
vn 0.0000 -0.9749 0.2225
vn 0.0000 0.0000 -1.0000
vn 1.0000 0.0000 0.0000
vn 1.0000 0.0000 0.0000
vn 1.0000 0.0000 0.0000
vn 1.0000 0.0000 0.0000
vn 1.0000 0.0000 0.0000
vn 1.0000 0.0000 0.0000
vn 1.0000 0.0000 0.0000
vn 1.0000 0.0000 0.0000
vn 0.0000 -0.9749 0.2225
vn 0.0000 -0.7818 0.6235
vn 0.0000 -0.7818 0.6235
vn 0.0000 -0.4339 0.9010
vn 0.0000 -0.4339 0.9010
vn 0.0000 0.0000 1.0000
vn 0.0000 0.0000 1.0000
vn 1.0000 0.0000 0.0000
vn 1.0000 0.0000 0.0000
vn 1.0000 0.0000 0.0000
vn 1.0000 0.0000 0.0000
vn 1.0000 0.0000 0.0000
vn 1.0000 0.0000 0.0000
vn 0.0000 0.4339 -0.9010
vn 0.0000 0.4339 -0.9010
vn 0.0000 0.7818 -0.6235
vn 0.0000 0.7818 -0.6235
vn 0.0000 0.9749 -0.2225
vn 0.0000 0.9749 -0.2225
vn 0.0000 0.9749 0.2225
vn 0.0000 0.4339 0.9010
vn 0.0000 0.4339 0.9010
vn 0.0000 0.9749 0.2225
vn 0.0000 0.7818 0.6235
vn 0.0000 0.7818 0.6235
vn 0.0000 -0.7818 -0.6235
vn -0.0000 -0.4339 -0.9010
vn -0.0000 -0.7818 -0.6235
vn -1.0000 0.0000 0.0000
vn -1.0000 0.0000 0.0000
vn -1.0000 0.0000 0.0000
vn 0.0000 -0.9749 -0.2225
vn 0.0000 -0.9749 -0.2225
vn -1.0000 0.0000 0.0000
vn -1.0000 0.0000 0.0000
vn -1.0000 0.0000 0.0000
vn 0.0000 0.0000 -1.0000
vn 0.0000 -0.4339 -0.9010
vn -1.0000 0.0000 0.0000
vn -1.0000 0.0000 0.0000
vn -1.0000 0.0000 0.0000
vn -0.0000 -0.9749 0.2225
vn 0.0000 -0.9749 0.2225
vn -1.0000 0.0000 0.0000
vn -1.0000 0.0000 0.0000
vn 0.0000 -0.7818 0.6235
vn -0.0000 -0.7818 0.6235
vn -1.0000 0.0000 0.0000
vn -1.0000 0.0000 0.0000
vn -1.0000 0.0000 0.0000
vn 0.0000 -0.4339 0.9010
vn 0.0000 -0.4339 0.9010
vn -1.0000 0.0000 0.0000
vn 0.0000 0.0000 1.0000
vn 0.0000 -0.0000 1.0000
vn -1.0000 0.0000 0.0000
vn -1.0000 0.0000 0.0000
vn -1.0000 0.0000 0.0000
vn -1.0000 0.0000 0.0000
vn 0.0000 0.4339 -0.9010
vn 0.0000 0.0000 -1.0000
vn -1.0000 0.0000 0.0000
vn 0.0000 0.7818 -0.6235
vn 0.0000 0.4339 -0.9010
vn -1.0000 0.0000 0.0000
vn -1.0000 0.0000 0.0000
vn -1.0000 0.0000 0.0000
vn 0.0000 0.9749 -0.2225
vn 0.0000 0.7818 -0.6235
vn -1.0000 0.0000 0.0000
vn -1.0000 0.0000 0.0000
vn 0.0000 0.9749 0.2225
vn 0.0000 0.9749 -0.2225
vn -1.0000 0.0000 0.0000
vn 0.0000 0.4339 0.9010
vn 0.0000 0.4339 0.9010
vn -1.0000 0.0000 0.0000
vn -1.0000 0.0000 0.0000
vn 0.0000 0.7818 0.6235
vn 0.0000 0.9749 0.2225
vn 0.0000 0.7818 0.6235
vn 1.0000 0.0000 0.0000
vn 1.0000 0.0000 0.0000
vn 1.0000 0.0000 0.0000
vn 1.0000 0.0000 0.0000
vn 1.0000 0.0000 0.0000
vn 1.0000 0.0000 0.0000
vn 1.0000 0.0000 0.0000
vn 1.0000 0.0000 0.0000
vn 1.0000 0.0000 0.0000
vn 1.0000 0.0000 0.0000
vn 1.0000 0.0000 0.0000
vn 1.0000 0.0000 0.0000
vn 1.0000 0.0000 0.0000
vn 1.0000 0.0000 0.0000
vn 1.0000 0.0000 0.0000
vn 1.0000 0.0000 0.0000
vn 1.0000 0.0000 0.0000
vn 1.0000 0.0000 0.0000
vn 1.0000 0.0000 0.0000
vn 1.0000 0.0000 0.0000
vn 1.0000 0.0000 0.0000
vn 1.0000 0.0000 0.0000
vn 1.0000 0.0000 0.0000
vn 1.0000 0.0000 0.0000
vn 1.0000 0.0000 0.0000
vn 1.0000 0.0000 0.0000
vn 1.0000 0.0000 0.0000
vn 1.0000 0.0000 0.0000
f 1//1 2//2 3//3
f 4//4 1//1 5//5
f 6//6 7//7 8//8
f 8//8 7//7 9//9
f 2//2 10//10 11//11
f 12//12 13//13 6//6
f 14//14 15//15 12//12
f 4//4 5//5 16//16
f 1//1 3//3 5//5
f 2//2 11//11 3//3
f 10//10 17//17 11//11
f 18//18 4//4 16//16
f 19//19 18//18 20//20
f 21//21 22//22 14//14
f 21//21 23//23 24//24
f 23//23 25//25 26//26
f 19//19 27//27 28//28
f 28//28 29//29 30//30
f 18//18 16//16 20//20
f 19//19 20//20 27//27
f 28//28 27//27 29//29
f 6//6 13//13 7//7
f 10//10 31//31 17//17
f 31//31 32//32 33//33
f 12//12 15//15 13//13
f 34//34 35//35 32//32
f 36//36 37//37 34//34
f 31//31 33//33 17//17
f 32//32 35//35 33//33
f 34//34 37//37 35//35
f 14//14 22//22 15//15
f 21//21 24//24 22//22
f 23//23 26//26 24//24
f 30//30 38//38 39//39
f 40//40 41//41 36//36
f 39//39 42//42 40//40
f 30//30 29//29 38//38
f 39//39 38//38 42//42
f 40//40 42//42 41//41
f 36//36 41//41 37//37
f 43//43 44//44 45//45
f 46//46 47//47 44//44
f 48//48 45//45 49//49
f 50//50 47//47 46//46
f 46//46 44//44 43//43
f 43//43 45//45 48//48
f 48//48 49//49 51//51
f 52//52 53//53 54//54
f 53//53 55//55 54//54
f 56//56 52//52 57//57
f 58//58 56//56 59//59
f 50//50 60//60 47//47
f 61//61 62//62 60//60
f 63//63 64//64 62//62
f 65//65 66//66 64//64
f 61//61 60//60 50//50
f 61//61 63//63 62//62
f 67//67 58//58 68//68
f 63//63 65//65 64//64
f 67//67 69//69 70//70
f 70//70 71//71 72//72
f 51//51 49//49 73//73
f 74//74 73//73 75//75
f 76//76 75//75 77//77
f 78//78 77//77 79//79
f 51//51 73//73 74//74
f 52//52 54//54 57//57
f 56//56 57//57 59//59
f 74//74 75//75 76//76
f 78//78 76//76 77//77
f 80//80 81//81 66//66
f 82//82 79//79 83//83
f 84//84 83//83 81//81
f 58//58 59//59 68//68
f 67//67 68//68 69//69
f 65//65 80//80 66//66
f 80//80 84//84 81//81
f 70//70 69//69 71//71
f 84//84 82//82 83//83
f 82//82 78//78 79//79
f 85//85 86//86 87//87
f 88//88 89//89 90//90
f 91//91 85//85 92//92
f 93//93 94//94 88//88
f 93//93 95//95 94//94
f 88//88 94//94 89//89
f 86//86 96//96 97//97
f 88//88 98//98 99//99
f 99//99 98//98 100//100
f 88//88 90//90 98//98
f 101//101 91//91 102//102
f 103//103 95//95 93//93
f 103//103 104//104 95//95
f 105//105 101//101 106//106
f 107//107 104//104 103//103
f 107//107 108//108 104//104
f 107//107 109//109 108//108
f 105//105 110//110 111//111
f 109//109 112//112 108//108
f 111//111 113//113 114//114
f 109//109 115//115 112//112
f 109//109 116//116 117//117
f 98//98 90//90 118//118
f 96//96 119//119 120//120
f 98//98 118//118 121//121
f 119//119 122//122 123//123
f 98//98 121//121 124//124
f 124//124 121//121 125//125
f 126//126 124//124 125//125
f 127//127 128//128 122//122
f 126//126 125//125 129//129
f 130//130 126//126 129//129
f 131//131 132//132 127//127
f 109//109 133//133 115//115
f 109//109 117//117 133//133
f 114//114 134//134 135//135
f 133//133 136//136 137//137
f 130//130 129//129 136//136
f 133//133 130//130 136//136
f 138//138 139//139 131//131
f 133//133 137//137 115//115
f 135//135 140//140 138//138
f 86//86 97//97 87//87
f 141//141 142//142 143//143
f 85//85 87//87 92//92
f 144//144 141//141 143//143
f 144//144 143//143 145//145
f 102//102 91//91 92//92
f 146//146 144//144 145//145
f 141//141 147//147 148//148
f 97//97 96//96 120//120
f 147//147 149//149 148//148
f 141//141 148//148 142//142
f 146//146 145//145 150//150
f 101//101 102//102 106//106
f 151//151 146//146 150//150
f 151//151 150//150 152//152
f 105//105 106//106 110//110
f 151//151 152//152 153//153
f 153//153 152//152 154//154
f 153//153 154//154 155//155
f 111//111 110//110 113//113
f 153//153 155//155 156//156
f 153//153 157//157 158//158
f 148//148 159//159 142//142
f 119//119 123//123 120//120
f 148//148 160//160 159//159
f 148//148 161//161 160//160
f 148//148 162//162 161//161
f 122//122 128//128 123//123
f 162//162 163//163 161//161
f 164//164 163//163 162//162
f 127//127 132//132 128//128
f 164//164 165//165 163//163
f 153//153 156//156 166//166
f 114//114 113//113 134//134
f 153//153 166//166 157//157
f 167//167 165//165 164//164
f 131//131 139//139 132//132
f 167//167 168//168 165//165
f 166//166 168//168 167//167
f 138//138 140//140 139//139
f 166//166 156//156 168//168
f 135//135 134//134 140//140
