v -0.12066 -0.04666 -0.99000
v -0.11500 -0.04666 -0.99566
v -0.11500 -0.04900 -0.99000
v -0.12066 -0.04100 -0.99566
v -0.12300 -0.04100 -0.99000
v -0.11500 -0.04100 -0.99800
v -0.12300 0.04100 -0.99000
v -0.11500 0.04100 -0.99800
v -0.11500 -0.04900 0.99000
v -0.12300 -0.04100 0.99000
v -0.12066 0.04100 -0.99566
v 0.11500 -0.04900 -0.99000
v 0.11500 -0.04100 -0.99800
v -0.12066 -0.04666 0.99000
v -0.11500 -0.04666 0.99566
v -0.12066 -0.04100 0.99566
v -0.11500 -0.04100 0.99800
v -0.12066 0.04100 0.99566
v -0.12300 0.04100 0.99000
v -0.11500 0.04100 0.99800
v 0.11500 -0.04900 0.99000
v 0.11500 -0.04666 0.99566
v 0.11500 -0.04100 0.99800
v -0.12066 0.04666 -0.99000
v -0.11500 0.04666 -0.99566
v -0.11500 0.04900 -0.99000
v -0.07500 0.04900 -0.87500
v -0.06495 0.04900 -0.91250
v -0.07500 0.04900 -0.62500
v -0.03750 0.04900 -0.93995
v -0.06495 0.04900 -0.83750
v -0.07500 0.04900 -0.37500
v -0.06495 0.04900 -0.66250
v -0.06495 0.04900 -0.58750
v -0.12066 0.04666 0.99000
v -0.07500 0.04900 -0.12500
v -0.07500 0.04900 0.12500
v -0.06495 0.04900 -0.41250
v -0.06495 0.04900 -0.33750
v -0.07500 0.04900 0.37500
v -0.06495 0.04900 -0.16250
v -0.06495 0.04900 0.08750
v -0.06495 0.04900 -0.08750
v 0.11500 0.04100 -0.99800
v 0.00000 0.04900 -0.95000
v -0.03750 0.04900 -0.81005
v 0.11500 0.04900 -0.99000
v -0.03750 0.04900 -0.68995
v -0.03750 0.04900 -0.56005
v 0.00000 0.04900 -0.70000
v 0.00000 0.04900 -0.80000
v -0.03750 0.04900 -0.43995
v 0.00000 0.04900 -0.55000
v -0.03750 0.04900 -0.31005
v -0.03750 0.04900 -0.18995
v -0.03750 0.04900 -0.06005
v 0.00000 0.04900 -0.30000
v 0.00000 0.04900 -0.45000
v 0.00000 0.04900 -0.20000
v 0.00000 0.04900 0.05000
v 0.00000 0.04900 -0.05000
v -0.11500 0.04900 0.99000
v -0.06495 0.04900 0.16250
v -0.06495 0.04900 0.33750
v -0.06495 0.04900 0.58750
v -0.06495 0.04900 0.41250
v -0.11500 0.04666 0.99566
v -0.07500 0.04900 0.62500
v -0.06495 0.04900 0.83750
v -0.06495 0.04900 0.66250
v -0.07500 0.04900 0.87500
v -0.06495 0.04900 0.91250
v -0.03750 0.04900 0.93995
v -0.03750 0.04900 0.06005
v -0.03750 0.04900 0.18995
v -0.03750 0.04900 0.31005
v -0.03750 0.04900 0.56005
v -0.03750 0.04900 0.43995
v 0.00000 0.04900 0.30000
v 0.00000 0.04900 0.20000
v 0.00000 0.04900 0.45000
v 0.11500 0.04100 0.99800
v -0.03750 0.04900 0.68995
v -0.03750 0.04900 0.81005
v 0.00000 0.04900 0.95000
v 0.11500 0.04900 0.99000
v 0.00000 0.04900 0.70000
v 0.00000 0.04900 0.55000
v 0.00000 0.04900 0.80000
v 0.11500 -0.04666 -0.99566
v 0.12066 -0.04666 -0.99000
v 0.12066 -0.04100 -0.99566
v 0.12300 -0.04100 -0.99000
v 0.12066 0.04100 -0.99566
v 0.12066 -0.04666 0.99000
v 0.12300 0.04100 -0.99000
v 0.12300 -0.04100 0.99000
v 0.12066 -0.04100 0.99566
v 0.12300 0.04100 0.99000
v 0.12066 0.04100 0.99566
v 0.03750 0.04900 -0.81005
v 0.03750 0.04900 -0.68995
v 0.03750 0.04900 -0.43995
v 0.03750 0.04900 -0.56005
v 0.11500 0.04666 -0.99566
v 0.03750 0.04900 -0.93995
v 0.06495 0.04900 -0.83750
v 0.06495 0.04900 -0.66250
v 0.06495 0.04900 -0.41250
v 0.06495 0.04900 -0.58750
v 0.03750 0.04900 -0.18995
v 0.03750 0.04900 -0.31005
v 0.03750 0.04900 0.06005
v 0.03750 0.04900 -0.06005
v 0.06495 0.04900 -0.33750
v 0.06495 0.04900 -0.16250
v 0.06495 0.04900 -0.08750
v 0.06495 0.04900 -0.91250
v 0.07500 0.04900 -0.87500
v 0.07500 0.04900 -0.62500
v 0.07500 0.04900 -0.37500
v 0.12066 0.04666 -0.99000
v 0.07500 0.04900 -0.12500
v 0.06495 0.04900 0.08750
v 0.03750 0.04900 0.18995
v 0.03750 0.04900 0.43995
v 0.03750 0.04900 0.31005
v 0.06495 0.04900 0.16250
v 0.06495 0.04900 0.33750
v 0.06495 0.04900 0.41250
v 0.03750 0.04900 0.56005
v 0.03750 0.04900 0.68995
v 0.03750 0.04900 0.81005
v 0.06495 0.04900 0.58750
v 0.06495 0.04900 0.66250
v 0.11500 0.04666 0.99566
v 0.06495 0.04900 0.83750
v 0.03750 0.04900 0.93995
v 0.07500 0.04900 0.12500
v 0.07500 0.04900 0.37500
v 0.12066 0.04666 0.99000
v 0.07500 0.04900 0.62500
v 0.07500 0.04900 0.87500
v 0.06495 0.04900 0.91250
v -0.06495 0.09900 -0.91250
v -0.06495 0.04900 -0.91250
v -0.07500 0.04900 -0.87500
v -0.07500 0.09900 -0.87500
v -0.06495 0.04900 -0.83750
v -0.06495 0.09900 -0.83750
v -0.07500 0.09900 -0.87500
v -0.06495 0.09900 -0.83750
v -0.06495 0.09900 -0.91250
v -0.03750 0.09900 -0.93995
v -0.03750 0.04900 -0.93995
v -0.03750 0.04900 -0.81005
v -0.03750 0.09900 -0.81005
v -0.03750 0.09900 -0.93995
v -0.03750 0.09900 -0.81005
v 0.00000 0.04900 -0.80000
v 0.00000 0.09900 -0.95000
v 0.00000 0.04900 -0.95000
v 0.00000 0.09900 -0.95000
v 0.00000 0.09900 -0.80000
v 0.00000 0.09900 -0.80000
v 0.03750 0.04900 -0.81005
v 0.03750 0.09900 -0.93995
v 0.03750 0.04900 -0.93995
v 0.03750 0.09900 -0.93995
v 0.03750 0.09900 -0.81005
v 0.03750 0.09900 -0.81005
v 0.06495 0.09900 -0.91250
v 0.06495 0.04900 -0.91250
v 0.06495 0.04900 -0.83750
v 0.06495 0.09900 -0.83750
v 0.06495 0.09900 -0.91250
v 0.06495 0.09900 -0.83750
v 0.07500 0.09900 -0.87500
v 0.07500 0.04900 -0.87500
v 0.07500 0.09900 -0.87500
v -0.06495 0.09900 -0.66250
v -0.06495 0.04900 -0.66250
v -0.07500 0.04900 -0.62500
v -0.07500 0.09900 -0.62500
v -0.06495 0.04900 -0.58750
v -0.06495 0.09900 -0.58750
v -0.07500 0.09900 -0.62500
v -0.06495 0.09900 -0.58750
v -0.06495 0.09900 -0.66250
v -0.03750 0.09900 -0.68995
v -0.03750 0.04900 -0.68995
v -0.03750 0.04900 -0.56005
v -0.03750 0.09900 -0.56005
v -0.03750 0.09900 -0.68995
v -0.03750 0.09900 -0.56005
v 0.00000 0.04900 -0.55000
v 0.00000 0.09900 -0.70000
v 0.00000 0.04900 -0.70000
v 0.00000 0.09900 -0.70000
v 0.00000 0.09900 -0.55000
v 0.00000 0.09900 -0.55000
v 0.03750 0.04900 -0.56005
v 0.03750 0.09900 -0.68995
v 0.03750 0.04900 -0.68995
v 0.03750 0.09900 -0.68995
v 0.03750 0.09900 -0.56005
v 0.03750 0.09900 -0.56005
v 0.06495 0.09900 -0.66250
v 0.06495 0.04900 -0.66250
v 0.06495 0.04900 -0.58750
v 0.06495 0.09900 -0.58750
v 0.06495 0.09900 -0.66250
v 0.06495 0.09900 -0.58750
v 0.07500 0.09900 -0.62500
v 0.07500 0.04900 -0.62500
v 0.07500 0.09900 -0.62500
v -0.06495 0.09900 -0.41250
v -0.06495 0.04900 -0.41250
v -0.07500 0.04900 -0.37500
v -0.07500 0.09900 -0.37500
v -0.06495 0.04900 -0.33750
v -0.06495 0.09900 -0.33750
v -0.07500 0.09900 -0.37500
v -0.06495 0.09900 -0.33750
v -0.06495 0.09900 -0.41250
v -0.03750 0.09900 -0.43995
v -0.03750 0.04900 -0.43995
v -0.03750 0.04900 -0.31005
v -0.03750 0.09900 -0.31005
v -0.03750 0.09900 -0.43995
v -0.03750 0.09900 -0.31005
v 0.00000 0.04900 -0.30000
v 0.00000 0.09900 -0.45000
v 0.00000 0.04900 -0.45000
v 0.00000 0.09900 -0.45000
v 0.00000 0.09900 -0.30000
v 0.00000 0.09900 -0.30000
v 0.03750 0.04900 -0.31005
v 0.03750 0.09900 -0.43995
v 0.03750 0.04900 -0.43995
v 0.03750 0.09900 -0.43995
v 0.03750 0.09900 -0.31005
v 0.03750 0.09900 -0.31005
v 0.06495 0.09900 -0.41250
v 0.06495 0.04900 -0.41250
v 0.06495 0.04900 -0.33750
v 0.06495 0.09900 -0.33750
v 0.06495 0.09900 -0.41250
v 0.06495 0.09900 -0.33750
v 0.07500 0.09900 -0.37500
v 0.07500 0.04900 -0.37500
v 0.07500 0.09900 -0.37500
v -0.06495 0.09900 -0.16250
v -0.06495 0.04900 -0.16250
v -0.07500 0.04900 -0.12500
v -0.07500 0.09900 -0.12500
v -0.06495 0.04900 -0.08750
v -0.06495 0.09900 -0.08750
v -0.07500 0.09900 -0.12500
v -0.06495 0.09900 -0.08750
v -0.06495 0.09900 -0.16250
v -0.03750 0.09900 -0.18995
v -0.03750 0.04900 -0.18995
v -0.03750 0.04900 -0.06005
v -0.03750 0.09900 -0.06005
v -0.03750 0.09900 -0.18995
v -0.03750 0.09900 -0.06005
v 0.00000 0.04900 -0.05000
v 0.00000 0.09900 -0.20000
v 0.00000 0.04900 -0.20000
v 0.00000 0.09900 -0.20000
v 0.00000 0.09900 -0.05000
v 0.00000 0.09900 -0.05000
v 0.03750 0.04900 -0.06005
v 0.03750 0.09900 -0.18995
v 0.03750 0.04900 -0.18995
v 0.03750 0.09900 -0.18995
v 0.03750 0.09900 -0.06005
v 0.03750 0.09900 -0.06005
v 0.06495 0.09900 -0.16250
v 0.06495 0.04900 -0.16250
v 0.06495 0.04900 -0.08750
v 0.06495 0.09900 -0.08750
v 0.06495 0.09900 -0.16250
v 0.06495 0.09900 -0.08750
v 0.07500 0.09900 -0.12500
v 0.07500 0.04900 -0.12500
v 0.07500 0.09900 -0.12500
v -0.06495 0.09900 0.08750
v -0.06495 0.04900 0.08750
v -0.07500 0.04900 0.12500
v -0.07500 0.09900 0.12500
v -0.06495 0.04900 0.16250
v -0.06495 0.09900 0.16250
v -0.07500 0.09900 0.12500
v -0.06495 0.09900 0.16250
v -0.06495 0.09900 0.08750
v -0.03750 0.09900 0.06005
v -0.03750 0.04900 0.06005
v -0.03750 0.04900 0.18995
v -0.03750 0.09900 0.18995
v -0.03750 0.09900 0.06005
v -0.03750 0.09900 0.18995
v 0.00000 0.04900 0.20000
v 0.00000 0.09900 0.05000
v 0.00000 0.04900 0.05000
v 0.00000 0.09900 0.05000
v 0.00000 0.09900 0.20000
v 0.00000 0.09900 0.20000
v 0.03750 0.04900 0.18995
v 0.03750 0.09900 0.06005
v 0.03750 0.04900 0.06005
v 0.03750 0.09900 0.06005
v 0.03750 0.09900 0.18995
v 0.03750 0.09900 0.18995
v 0.06495 0.09900 0.08750
v 0.06495 0.04900 0.08750
v 0.06495 0.04900 0.16250
v 0.06495 0.09900 0.16250
v 0.06495 0.09900 0.08750
v 0.06495 0.09900 0.16250
v 0.07500 0.09900 0.12500
v 0.07500 0.04900 0.12500
v 0.07500 0.09900 0.12500
v -0.06495 0.09900 0.33750
v -0.06495 0.04900 0.33750
v -0.07500 0.04900 0.37500
v -0.07500 0.09900 0.37500
v -0.06495 0.04900 0.41250
v -0.06495 0.09900 0.41250
v -0.07500 0.09900 0.37500
v -0.06495 0.09900 0.41250
v -0.06495 0.09900 0.33750
v -0.03750 0.09900 0.31005
v -0.03750 0.04900 0.31005
v -0.03750 0.04900 0.43995
v -0.03750 0.09900 0.43995
v -0.03750 0.09900 0.31005
v -0.03750 0.09900 0.43995
v 0.00000 0.04900 0.45000
v 0.00000 0.09900 0.30000
v 0.00000 0.04900 0.30000
v 0.00000 0.09900 0.30000
v 0.00000 0.09900 0.45000
v 0.00000 0.09900 0.45000
v 0.03750 0.04900 0.43995
v 0.03750 0.09900 0.31005
v 0.03750 0.04900 0.31005
v 0.03750 0.09900 0.31005
v 0.03750 0.09900 0.43995
v 0.03750 0.09900 0.43995
v 0.06495 0.09900 0.33750
v 0.06495 0.04900 0.33750
v 0.06495 0.04900 0.41250
v 0.06495 0.09900 0.41250
v 0.06495 0.09900 0.33750
v 0.06495 0.09900 0.41250
v 0.07500 0.09900 0.37500
v 0.07500 0.04900 0.37500
v 0.07500 0.09900 0.37500
v -0.06495 0.09900 0.58750
v -0.06495 0.04900 0.58750
v -0.07500 0.04900 0.62500
v -0.07500 0.09900 0.62500
v -0.06495 0.04900 0.66250
v -0.06495 0.09900 0.66250
v -0.07500 0.09900 0.62500
v -0.06495 0.09900 0.66250
v -0.06495 0.09900 0.58750
v -0.03750 0.09900 0.56005
v -0.03750 0.04900 0.56005
v -0.03750 0.04900 0.68995
v -0.03750 0.09900 0.68995
v -0.03750 0.09900 0.56005
v -0.03750 0.09900 0.68995
v 0.00000 0.04900 0.70000
v 0.00000 0.09900 0.55000
v 0.00000 0.04900 0.55000
v 0.00000 0.09900 0.55000
v 0.00000 0.09900 0.70000
v 0.00000 0.09900 0.70000
v 0.03750 0.04900 0.68995
v 0.03750 0.09900 0.56005
v 0.03750 0.04900 0.56005
v 0.03750 0.09900 0.56005
v 0.03750 0.09900 0.68995
v 0.03750 0.09900 0.68995
v 0.06495 0.09900 0.58750
v 0.06495 0.04900 0.58750
v 0.06495 0.04900 0.66250
v 0.06495 0.09900 0.66250
v 0.06495 0.09900 0.58750
v 0.06495 0.09900 0.66250
v 0.07500 0.09900 0.62500
v 0.07500 0.04900 0.62500
v 0.07500 0.09900 0.62500
v -0.06495 0.09900 0.83750
v -0.06495 0.04900 0.83750
v -0.07500 0.04900 0.87500
v -0.07500 0.09900 0.87500
v -0.06495 0.04900 0.91250
v -0.06495 0.09900 0.91250
v -0.07500 0.09900 0.87500
v -0.06495 0.09900 0.91250
v -0.06495 0.09900 0.83750
v -0.03750 0.09900 0.81005
v -0.03750 0.04900 0.81005
v -0.03750 0.04900 0.93995
v -0.03750 0.09900 0.93995
v -0.03750 0.09900 0.81005
v -0.03750 0.09900 0.93995
v 0.00000 0.04900 0.95000
v 0.00000 0.09900 0.80000
v 0.00000 0.04900 0.80000
v 0.00000 0.09900 0.80000
v 0.00000 0.09900 0.95000
v 0.00000 0.09900 0.95000
v 0.03750 0.04900 0.93995
v 0.03750 0.09900 0.81005
v 0.03750 0.04900 0.81005
v 0.03750 0.09900 0.81005
v 0.03750 0.09900 0.93995
v 0.03750 0.09900 0.93995
v 0.06495 0.09900 0.83750
v 0.06495 0.04900 0.83750
v 0.06495 0.04900 0.91250
v 0.06495 0.09900 0.91250
v 0.06495 0.09900 0.83750
v 0.06495 0.09900 0.91250
v 0.07500 0.09900 0.87500
v 0.07500 0.04900 0.87500
v 0.07500 0.09900 0.87500
vn -0.6887 -0.6887 -0.2265
vn -0.2265 -0.6887 -0.6887
vn -0.1877 -0.9641 -0.1877
vn -0.6887 -0.2265 -0.6887
vn -0.9641 -0.1877 -0.1877
vn -0.1877 -0.1877 -0.9641
vn -0.9641 0.1877 -0.1877
vn -0.1877 0.1877 -0.9641
vn -0.1877 -0.9641 0.1877
vn -0.9641 -0.1877 0.1877
vn -0.6887 0.2265 -0.6887
vn 0.1877 -0.9641 -0.1877
vn 0.1877 -0.1877 -0.9641
vn -0.6887 -0.6887 0.2265
vn -0.2265 -0.6887 0.6887
vn -0.6887 -0.2265 0.6887
vn -0.1877 -0.1877 0.9641
vn -0.6887 0.2265 0.6887
vn -0.9641 0.1877 0.1877
vn -0.1877 0.1877 0.9641
vn 0.1877 -0.9641 0.1877
vn 0.2265 -0.6887 0.6887
vn 0.1877 -0.1877 0.9641
vn -0.6887 0.6887 -0.2265
vn -0.2265 0.6887 -0.6887
vn -0.1877 0.9641 -0.1877
vn 0.0000 1.0000 0.0000
vn 0.0000 1.0000 0.0000
vn 0.0000 1.0000 0.0000
vn 0.0000 1.0000 0.0000
vn 0.0000 1.0000 0.0000
vn 0.0000 1.0000 0.0000
vn 0.0000 1.0000 0.0000
vn 0.0000 1.0000 0.0000
vn -0.6887 0.6887 0.2265
vn 0.0000 1.0000 0.0000
vn 0.0000 1.0000 0.0000
vn 0.0000 1.0000 0.0000
vn 0.0000 1.0000 0.0000
vn 0.0000 1.0000 0.0000
vn 0.0000 1.0000 0.0000
vn 0.0000 1.0000 0.0000
vn 0.0000 1.0000 0.0000
vn 0.1877 0.1877 -0.9641
vn 0.0000 1.0000 0.0000
vn 0.0000 1.0000 0.0000
vn 0.1877 0.9641 -0.1877
vn 0.0000 1.0000 0.0000
vn 0.0000 1.0000 0.0000
vn 0.0000 1.0000 0.0000
vn 0.0000 1.0000 0.0000
vn 0.0000 1.0000 0.0000
vn 0.0000 1.0000 0.0000
vn 0.0000 1.0000 0.0000
vn 0.0000 1.0000 0.0000
vn 0.0000 1.0000 0.0000
vn 0.0000 1.0000 0.0000
vn 0.0000 1.0000 0.0000
vn 0.0000 1.0000 0.0000
vn 0.0000 1.0000 0.0000
vn 0.0000 1.0000 0.0000
vn -0.1877 0.9641 0.1877
vn 0.0000 1.0000 0.0000
vn 0.0000 1.0000 0.0000
vn 0.0000 1.0000 0.0000
vn 0.0000 1.0000 0.0000
vn -0.2265 0.6887 0.6887
vn 0.0000 1.0000 0.0000
vn 0.0000 1.0000 0.0000
vn 0.0000 1.0000 0.0000
vn 0.0000 1.0000 0.0000
vn 0.0000 1.0000 0.0000
vn 0.0000 1.0000 0.0000
vn 0.0000 1.0000 0.0000
vn 0.0000 1.0000 0.0000
vn 0.0000 1.0000 0.0000
vn 0.0000 1.0000 0.0000
vn 0.0000 1.0000 0.0000
vn 0.0000 1.0000 0.0000
vn 0.0000 1.0000 0.0000
vn 0.0000 1.0000 0.0000
vn 0.1877 0.1877 0.9641
vn 0.0000 1.0000 0.0000
vn 0.0000 1.0000 0.0000
vn 0.0000 1.0000 0.0000
vn 0.1877 0.9641 0.1877
vn 0.0000 1.0000 0.0000
vn 0.0000 1.0000 0.0000
vn 0.0000 1.0000 0.0000
vn 0.2265 -0.6887 -0.6887
vn 0.6887 -0.6887 -0.2265
vn 0.6887 -0.2265 -0.6887
vn 0.9641 -0.1877 -0.1877
vn 0.6887 0.2265 -0.6887
vn 0.6887 -0.6887 0.2265
vn 0.9641 0.1877 -0.1877
vn 0.9641 -0.1877 0.1877
vn 0.6887 -0.2265 0.6887
vn 0.9641 0.1877 0.1877
vn 0.6887 0.2265 0.6887
vn 0.0000 1.0000 0.0000
vn 0.0000 1.0000 0.0000
vn 0.0000 1.0000 0.0000
vn 0.0000 1.0000 0.0000
vn 0.2265 0.6887 -0.6887
vn 0.0000 1.0000 0.0000
vn 0.0000 1.0000 0.0000
vn 0.0000 1.0000 0.0000
vn 0.0000 1.0000 0.0000
vn 0.0000 1.0000 0.0000
vn 0.0000 1.0000 0.0000
vn 0.0000 1.0000 0.0000
vn 0.0000 1.0000 0.0000
vn 0.0000 1.0000 0.0000
vn 0.0000 1.0000 0.0000
vn 0.0000 1.0000 0.0000
vn 0.0000 1.0000 0.0000
vn 0.0000 1.0000 0.0000
vn 0.0000 1.0000 0.0000
vn 0.0000 1.0000 0.0000
vn 0.0000 1.0000 0.0000
vn 0.6887 0.6887 -0.2265
vn 0.0000 1.0000 0.0000
vn 0.0000 1.0000 0.0000
vn 0.0000 1.0000 0.0000
vn 0.0000 1.0000 0.0000
vn 0.0000 1.0000 0.0000
vn 0.0000 1.0000 0.0000
vn 0.0000 1.0000 0.0000
vn 0.0000 1.0000 0.0000
vn 0.0000 1.0000 0.0000
vn 0.0000 1.0000 0.0000
vn 0.0000 1.0000 0.0000
vn 0.0000 1.0000 0.0000
vn 0.0000 1.0000 0.0000
vn 0.2265 0.6887 0.6887
vn 0.0000 1.0000 0.0000
vn 0.0000 1.0000 0.0000
vn 0.0000 1.0000 0.0000
vn 0.0000 1.0000 0.0000
vn 0.6887 0.6887 0.2265
vn 0.0000 1.0000 0.0000
vn 0.0000 1.0000 0.0000
vn 0.0000 1.0000 0.0000
vn -0.8660 0.0000 -0.5000
vn -0.8660 0.0000 -0.5000
vn -1.0000 0.0000 -0.0000
vn -1.0000 0.0000 0.0000
vn -0.8660 0.0000 0.5000
vn -0.8660 0.0000 0.5000
vn 0.0000 1.0000 0.0000
vn 0.0000 1.0000 0.0000
vn 0.0000 1.0000 0.0000
vn -0.5000 0.0000 -0.8660
vn -0.5000 -0.0000 -0.8660
vn -0.5000 0.0000 0.8660
vn -0.5000 0.0000 0.8660
vn 0.0000 1.0000 0.0000
vn 0.0000 1.0000 0.0000
vn 0.0000 0.0000 1.0000
vn 0.0000 -0.0000 -1.0000
vn 0.0000 0.0000 -1.0000
vn 0.0000 1.0000 0.0000
vn 0.0000 0.0000 1.0000
vn 0.0000 1.0000 0.0000
vn 0.5000 0.0000 0.8660
vn 0.5000 0.0000 -0.8660
vn 0.5000 0.0000 -0.8660
vn 0.0000 1.0000 0.0000
vn 0.5000 0.0000 0.8660
vn 0.0000 1.0000 0.0000
vn 0.8660 0.0000 -0.5000
vn 0.8660 0.0000 -0.5000
vn 0.8660 0.0000 0.5000
vn 0.8660 0.0000 0.5000
vn 0.0000 1.0000 0.0000
vn 0.0000 1.0000 0.0000
vn 1.0000 0.0000 0.0000
vn 1.0000 0.0000 0.0000
vn 0.0000 1.0000 0.0000
vn -0.8660 0.0000 -0.5000
vn -0.8660 0.0000 -0.5000
vn -1.0000 0.0000 -0.0000
vn -1.0000 0.0000 0.0000
vn -0.8660 0.0000 0.5000
vn -0.8660 0.0000 0.5000
vn 0.0000 1.0000 0.0000
vn 0.0000 1.0000 0.0000
vn 0.0000 1.0000 0.0000
vn -0.5000 0.0000 -0.8660
vn -0.5000 -0.0000 -0.8660
vn -0.5000 0.0000 0.8660
vn -0.5000 0.0000 0.8660
vn 0.0000 1.0000 0.0000
vn 0.0000 1.0000 0.0000
vn 0.0000 0.0000 1.0000
vn 0.0000 -0.0000 -1.0000
vn 0.0000 0.0000 -1.0000
vn 0.0000 1.0000 0.0000
vn 0.0000 0.0000 1.0000
vn 0.0000 1.0000 0.0000
vn 0.5000 0.0000 0.8660
vn 0.5000 0.0000 -0.8660
vn 0.5000 0.0000 -0.8660
vn 0.0000 1.0000 0.0000
vn 0.5000 0.0000 0.8660
vn 0.0000 1.0000 0.0000
vn 0.8660 0.0000 -0.5000
vn 0.8660 0.0000 -0.5000
vn 0.8660 0.0000 0.5000
vn 0.8660 0.0000 0.5000
vn 0.0000 1.0000 0.0000
vn 0.0000 1.0000 0.0000
vn 1.0000 0.0000 0.0000
vn 1.0000 0.0000 0.0000
vn 0.0000 1.0000 0.0000
vn -0.8660 0.0000 -0.5000
vn -0.8660 0.0000 -0.5000
vn -1.0000 0.0000 -0.0000
vn -1.0000 0.0000 0.0000
vn -0.8660 0.0000 0.5000
vn -0.8660 0.0000 0.5000
vn 0.0000 1.0000 0.0000
vn 0.0000 1.0000 0.0000
vn 0.0000 1.0000 0.0000
vn -0.5000 0.0000 -0.8660
vn -0.5000 -0.0000 -0.8660
vn -0.5000 0.0000 0.8660
vn -0.5000 0.0000 0.8660
vn 0.0000 1.0000 0.0000
vn 0.0000 1.0000 0.0000
vn 0.0000 0.0000 1.0000
vn 0.0000 -0.0000 -1.0000
vn 0.0000 0.0000 -1.0000
vn 0.0000 1.0000 0.0000
vn 0.0000 0.0000 1.0000
vn 0.0000 1.0000 0.0000
vn 0.5000 0.0000 0.8660
vn 0.5000 0.0000 -0.8660
vn 0.5000 0.0000 -0.8660
vn 0.0000 1.0000 0.0000
vn 0.5000 0.0000 0.8660
vn 0.0000 1.0000 0.0000
vn 0.8660 0.0000 -0.5000
vn 0.8660 0.0000 -0.5000
vn 0.8660 0.0000 0.5000
vn 0.8660 0.0000 0.5000
vn 0.0000 1.0000 0.0000
vn 0.0000 1.0000 0.0000
vn 1.0000 0.0000 0.0000
vn 1.0000 0.0000 0.0000
vn 0.0000 1.0000 0.0000
vn -0.8660 0.0000 -0.5000
vn -0.8660 0.0000 -0.5000
vn -1.0000 0.0000 -0.0000
vn -1.0000 0.0000 0.0000
vn -0.8660 0.0000 0.5000
vn -0.8660 0.0000 0.5000
vn 0.0000 1.0000 0.0000
vn 0.0000 1.0000 0.0000
vn 0.0000 1.0000 0.0000
vn -0.5000 0.0000 -0.8660
vn -0.5000 -0.0000 -0.8660
vn -0.5000 0.0000 0.8660
vn -0.5000 0.0000 0.8660
vn 0.0000 1.0000 0.0000
vn 0.0000 1.0000 0.0000
vn 0.0000 0.0000 1.0000
vn 0.0000 -0.0000 -1.0000
vn 0.0000 0.0000 -1.0000
vn 0.0000 1.0000 0.0000
vn 0.0000 0.0000 1.0000
vn 0.0000 1.0000 0.0000
vn 0.5000 0.0000 0.8660
vn 0.5000 0.0000 -0.8660
vn 0.5000 0.0000 -0.8660
vn 0.0000 1.0000 0.0000
vn 0.5000 0.0000 0.8660
vn 0.0000 1.0000 0.0000
vn 0.8660 0.0000 -0.5000
vn 0.8660 0.0000 -0.5000
vn 0.8660 0.0000 0.5000
vn 0.8660 0.0000 0.5000
vn 0.0000 1.0000 0.0000
vn 0.0000 1.0000 0.0000
vn 1.0000 0.0000 0.0000
vn 1.0000 0.0000 0.0000
vn 0.0000 1.0000 0.0000
vn -0.8660 0.0000 -0.5000
vn -0.8660 0.0000 -0.5000
vn -1.0000 0.0000 -0.0000
vn -1.0000 0.0000 0.0000
vn -0.8660 0.0000 0.5000
vn -0.8660 0.0000 0.5000
vn 0.0000 1.0000 0.0000
vn 0.0000 1.0000 0.0000
vn 0.0000 1.0000 0.0000
vn -0.5000 0.0000 -0.8660
vn -0.5000 0.0000 -0.8660
vn -0.5000 0.0000 0.8660
vn -0.5000 0.0000 0.8660
vn 0.0000 1.0000 0.0000
vn 0.0000 1.0000 0.0000
vn 0.0000 0.0000 1.0000
vn 0.0000 0.0000 -1.0000
vn 0.0000 0.0000 -1.0000
vn 0.0000 1.0000 0.0000
vn 0.0000 0.0000 1.0000
vn 0.0000 1.0000 0.0000
vn 0.5000 0.0000 0.8660
vn 0.5000 0.0000 -0.8660
vn 0.5000 0.0000 -0.8660
vn 0.0000 1.0000 0.0000
vn 0.5000 0.0000 0.8660
vn 0.0000 1.0000 0.0000
vn 0.8660 0.0000 -0.5000
vn 0.8660 0.0000 -0.5000
vn 0.8660 0.0000 0.5000
vn 0.8660 -0.0000 0.5000
vn 0.0000 1.0000 0.0000
vn 0.0000 1.0000 0.0000
vn 1.0000 0.0000 -0.0000
vn 1.0000 -0.0000 0.0000
vn 0.0000 1.0000 0.0000
vn -0.8660 0.0000 -0.5000
vn -0.8660 0.0000 -0.5000
vn -1.0000 0.0000 -0.0000
vn -1.0000 0.0000 0.0000
vn -0.8660 0.0000 0.5000
vn -0.8660 0.0000 0.5000
vn 0.0000 1.0000 0.0000
vn 0.0000 1.0000 0.0000
vn 0.0000 1.0000 0.0000
vn -0.5000 0.0000 -0.8660
vn -0.5000 0.0000 -0.8660
vn -0.5000 0.0000 0.8660
vn -0.5000 0.0000 0.8660
vn 0.0000 1.0000 0.0000
vn 0.0000 1.0000 0.0000
vn 0.0000 0.0000 1.0000
vn 0.0000 0.0000 -1.0000
vn 0.0000 0.0000 -1.0000
vn 0.0000 1.0000 0.0000
vn 0.0000 0.0000 1.0000
vn 0.0000 1.0000 0.0000
vn 0.5000 0.0000 0.8660
vn 0.5000 0.0000 -0.8660
vn 0.5000 0.0000 -0.8660
vn 0.0000 1.0000 0.0000
vn 0.5000 0.0000 0.8660
vn 0.0000 1.0000 0.0000
vn 0.8660 0.0000 -0.5000
vn 0.8660 0.0000 -0.5000
vn 0.8660 0.0000 0.5000
vn 0.8660 -0.0000 0.5000
vn 0.0000 1.0000 0.0000
vn 0.0000 1.0000 0.0000
vn 1.0000 0.0000 -0.0000
vn 1.0000 -0.0000 0.0000
vn 0.0000 1.0000 0.0000
vn -0.8660 0.0000 -0.5000
vn -0.8660 0.0000 -0.5000
vn -1.0000 0.0000 -0.0000
vn -1.0000 0.0000 0.0000
vn -0.8660 0.0000 0.5000
vn -0.8660 0.0000 0.5000
vn 0.0000 1.0000 0.0000
vn 0.0000 1.0000 0.0000
vn 0.0000 1.0000 0.0000
vn -0.5000 0.0000 -0.8660
vn -0.5000 0.0000 -0.8660
vn -0.5000 0.0000 0.8660
vn -0.5000 0.0000 0.8660
vn 0.0000 1.0000 0.0000
vn 0.0000 1.0000 0.0000
vn 0.0000 0.0000 1.0000
vn 0.0000 0.0000 -1.0000
vn 0.0000 0.0000 -1.0000
vn 0.0000 1.0000 0.0000
vn 0.0000 0.0000 1.0000
vn 0.0000 1.0000 0.0000
vn 0.5000 0.0000 0.8660
vn 0.5000 0.0000 -0.8660
vn 0.5000 0.0000 -0.8660
vn 0.0000 1.0000 0.0000
vn 0.5000 0.0000 0.8660
vn 0.0000 1.0000 0.0000
vn 0.8660 0.0000 -0.5000
vn 0.8660 0.0000 -0.5000
vn 0.8660 0.0000 0.5000
vn 0.8660 -0.0000 0.5000
vn 0.0000 1.0000 0.0000
vn 0.0000 1.0000 0.0000
vn 1.0000 0.0000 -0.0000
vn 1.0000 -0.0000 0.0000
vn 0.0000 1.0000 0.0000
vn -0.8660 0.0000 -0.5000
vn -0.8660 0.0000 -0.5000
vn -1.0000 0.0000 -0.0000
vn -1.0000 0.0000 0.0000
vn -0.8660 0.0000 0.5000
vn -0.8660 0.0000 0.5000
vn 0.0000 1.0000 0.0000
vn 0.0000 1.0000 0.0000
vn 0.0000 1.0000 0.0000
vn -0.5000 0.0000 -0.8660
vn -0.5000 0.0000 -0.8660
vn -0.5000 0.0000 0.8660
vn -0.5000 0.0000 0.8660
vn 0.0000 1.0000 0.0000
vn 0.0000 1.0000 0.0000
vn 0.0000 0.0000 1.0000
vn 0.0000 0.0000 -1.0000
vn 0.0000 0.0000 -1.0000
vn 0.0000 1.0000 0.0000
vn 0.0000 0.0000 1.0000
vn 0.0000 1.0000 0.0000
vn 0.5000 0.0000 0.8660
vn 0.5000 0.0000 -0.8660
vn 0.5000 0.0000 -0.8660
vn 0.0000 1.0000 0.0000
vn 0.5000 0.0000 0.8660
vn 0.0000 1.0000 0.0000
vn 0.8660 0.0000 -0.5000
vn 0.8660 0.0000 -0.5000
vn 0.8660 0.0000 0.5000
vn 0.8660 -0.0000 0.5000
vn 0.0000 1.0000 0.0000
vn 0.0000 1.0000 0.0000
vn 1.0000 0.0000 -0.0000
vn 1.0000 -0.0000 0.0000
vn 0.0000 1.0000 0.0000
f 1//1 2//2 3//3
f 1//1 4//4 2//2
f 1//1 5//5 4//4
f 2//2 4//4 6//6
f 5//5 7//7 4//4
f 4//4 8//8 6//6
f 1//1 3//3 9//9
f 1//1 10//10 5//5
f 5//5 10//10 7//7
f 4//4 7//7 11//11
f 4//4 11//11 8//8
f 3//3 2//2 12//12
f 2//2 6//6 13//13
f 6//6 8//8 13//13
f 1//1 14//14 10//10
f 1//1 9//9 14//14
f 14//14 9//9 15//15
f 14//14 15//15 16//16
f 14//14 16//16 10//10
f 15//15 17//17 16//16
f 10//10 16//16 18//18
f 16//16 17//17 18//18
f 10//10 19//19 7//7
f 10//10 18//18 19//19
f 17//17 20//20 18//18
f 3//3 21//21 9//9
f 9//9 22//22 15//15
f 15//15 22//22 17//17
f 17//17 23//23 20//20
f 7//7 24//24 11//11
f 11//11 25//25 8//8
f 11//11 24//24 25//25
f 24//24 26//26 25//25
f 26//26 27//27 28//28
f 26//26 29//29 27//27
f 26//26 28//28 30//30
f 31//31 27//27 29//29
f 26//26 32//32 29//29
f 31//31 29//29 33//33
f 34//34 29//29 32//32
f 7//7 35//35 24//24
f 24//24 35//35 26//26
f 26//26 36//36 32//32
f 26//26 37//37 36//36
f 34//34 32//32 38//38
f 39//39 32//32 36//36
f 26//26 40//40 37//37
f 39//39 36//36 41//41
f 36//36 42//42 43//43
f 8//8 25//25 44//44
f 26//26 30//30 45//45
f 31//31 33//33 46//46
f 25//25 26//26 47//47
f 46//46 33//33 48//48
f 34//34 38//38 49//49
f 46//46 50//50 51//51
f 46//46 48//48 50//50
f 49//49 52//52 53//53
f 49//49 38//38 52//52
f 39//39 41//41 54//54
f 54//54 41//41 55//55
f 43//43 42//42 56//56
f 54//54 55//55 57//57
f 53//53 52//52 58//58
f 57//57 55//55 59//59
f 60//60 61//61 56//56
f 7//7 19//19 35//35
f 26//26 62//62 40//40
f 26//26 35//35 62//62
f 36//36 37//37 42//42
f 37//37 40//40 63//63
f 63//63 40//40 64//64
f 65//65 66//66 40//40
f 19//19 18//18 35//35
f 18//18 20//20 67//67
f 18//18 67//67 35//35
f 35//35 67//67 62//62
f 62//62 68//68 40//40
f 65//65 40//40 68//68
f 68//68 69//69 70//70
f 62//62 71//71 68//68
f 62//62 72//72 71//71
f 68//68 71//71 69//69
f 62//62 73//73 72//72
f 56//56 42//42 74//74
f 63//63 64//64 75//75
f 75//75 64//64 76//76
f 66//66 77//77 78//78
f 60//60 56//56 74//74
f 75//75 79//79 80//80
f 79//79 75//75 76//76
f 78//78 77//77 81//81
f 20//20 82//82 67//67
f 66//66 65//65 77//77
f 70//70 69//69 83//83
f 83//83 69//69 84//84
f 62//62 85//85 73//73
f 67//67 86//86 62//62
f 83//83 84//84 87//87
f 81//81 77//77 88//88
f 87//87 84//84 89//89
f 2//2 90//90 12//12
f 2//2 13//13 90//90
f 3//3 12//12 21//21
f 8//8 44//44 13//13
f 12//12 90//90 91//91
f 90//90 92//92 91//91
f 90//90 13//13 92//92
f 91//91 92//92 93//93
f 13//13 94//94 92//92
f 92//92 94//94 93//93
f 12//12 91//91 95//95
f 91//91 93//93 95//95
f 93//93 96//96 97//97
f 13//13 44//44 94//94
f 93//93 94//94 96//96
f 9//9 21//21 22//22
f 17//17 22//22 23//23
f 20//20 23//23 82//82
f 12//12 95//95 21//21
f 93//93 97//97 95//95
f 21//21 95//95 22//22
f 22//22 95//95 98//98
f 22//22 98//98 23//23
f 95//95 97//97 98//98
f 23//23 98//98 82//82
f 98//98 97//97 99//99
f 97//97 96//96 99//99
f 98//98 100//100 82//82
f 98//98 99//99 100//100
f 26//26 45//45 47//47
f 51//51 50//50 101//101
f 50//50 102//102 101//101
f 53//53 103//103 104//104
f 25//25 105//105 44//44
f 25//25 47//47 105//105
f 47//47 45//45 106//106
f 107//107 101//101 108//108
f 102//102 108//108 101//101
f 109//109 110//110 104//104
f 53//53 58//58 103//103
f 57//57 111//111 112//112
f 111//111 57//57 59//59
f 61//61 113//113 114//114
f 109//109 104//104 103//103
f 115//115 112//112 111//111
f 115//115 111//111 116//116
f 117//117 114//114 113//113
f 47//47 106//106 118//118
f 107//107 108//108 119//119
f 47//47 118//118 119//119
f 47//47 119//119 120//120
f 120//120 119//119 108//108
f 110//110 121//121 120//120
f 47//47 120//120 121//121
f 44//44 105//105 94//94
f 94//94 122//122 96//96
f 94//94 105//105 122//122
f 105//105 47//47 122//122
f 110//110 109//109 121//121
f 115//115 116//116 121//121
f 121//121 116//116 123//123
f 117//117 124//124 123//123
f 96//96 122//122 99//99
f 47//47 86//86 122//122
f 47//47 121//121 86//86
f 61//61 60//60 113//113
f 80//80 79//79 125//125
f 81//81 88//88 126//126
f 79//79 127//127 125//125
f 117//117 113//113 124//124
f 128//128 125//125 127//127
f 128//128 127//127 129//129
f 130//130 126//126 131//131
f 87//87 89//89 132//132
f 88//88 131//131 126//126
f 62//62 86//86 85//85
f 89//89 133//133 132//132
f 130//130 131//131 134//134
f 135//135 132//132 133//133
f 67//67 82//82 136//136
f 67//67 136//136 86//86
f 135//135 133//133 137//137
f 86//86 138//138 85//85
f 123//123 124//124 139//139
f 128//128 129//129 139//139
f 86//86 121//121 123//123
f 139//139 129//129 140//140
f 130//130 134//134 140//140
f 86//86 123//123 139//139
f 86//86 139//139 140//140
f 122//122 86//86 141//141
f 122//122 141//141 99//99
f 140//140 134//134 142//142
f 135//135 137//137 142//142
f 86//86 140//140 142//142
f 142//142 137//137 143//143
f 86//86 144//144 138//138
f 86//86 142//142 143//143
f 86//86 143//143 144//144
f 82//82 100//100 136//136
f 100//100 99//99 141//141
f 100//100 141//141 136//136
f 136//136 141//141 86//86
f 145//145 146//146 147//147
f 148//148 147//147 149//149
f 148//148 145//145 147//147
f 148//148 149//149 150//150
f 151//151 152//152 153//153
f 154//154 155//155 146//146
f 150//150 149//149 156//156
f 145//145 154//154 146//146
f 150//150 156//156 157//157
f 153//153 152//152 158//158
f 152//152 159//159 158//158
f 157//157 156//156 160//160
f 161//161 162//162 155//155
f 154//154 161//161 155//155
f 158//158 159//159 163//163
f 157//157 160//160 164//164
f 159//159 165//165 163//163
f 164//164 160//160 166//166
f 167//167 168//168 162//162
f 161//161 167//167 162//162
f 163//163 165//165 169//169
f 164//164 166//166 170//170
f 165//165 171//171 169//169
f 172//172 173//173 168//168
f 170//170 166//166 174//174
f 167//167 172//172 168//168
f 170//170 174//174 175//175
f 169//169 171//171 176//176
f 171//171 177//177 176//176
f 178//178 179//179 173//173
f 175//175 174//174 179//179
f 172//172 178//178 173//173
f 175//175 179//179 178//178
f 176//176 177//177 180//180
f 181//181 182//182 183//183
f 184//184 183//183 185//185
f 184//184 181//181 183//183
f 184//184 185//185 186//186
f 187//187 188//188 189//189
f 190//190 191//191 182//182
f 186//186 185//185 192//192
f 181//181 190//190 182//182
f 186//186 192//192 193//193
f 189//189 188//188 194//194
f 188//188 195//195 194//194
f 193//193 192//192 196//196
f 197//197 198//198 191//191
f 190//190 197//197 191//191
f 194//194 195//195 199//199
f 193//193 196//196 200//200
f 195//195 201//201 199//199
f 200//200 196//196 202//202
f 203//203 204//204 198//198
f 197//197 203//203 198//198
f 199//199 201//201 205//205
f 200//200 202//202 206//206
f 201//201 207//207 205//205
f 208//208 209//209 204//204
f 206//206 202//202 210//210
f 203//203 208//208 204//204
f 206//206 210//210 211//211
f 205//205 207//207 212//212
f 207//207 213//213 212//212
f 214//214 215//215 209//209
f 211//211 210//210 215//215
f 208//208 214//214 209//209
f 211//211 215//215 214//214
f 212//212 213//213 216//216
f 217//217 218//218 219//219
f 220//220 219//219 221//221
f 220//220 217//217 219//219
f 220//220 221//221 222//222
f 223//223 224//224 225//225
f 226//226 227//227 218//218
f 222//222 221//221 228//228
f 217//217 226//226 218//218
f 222//222 228//228 229//229
f 225//225 224//224 230//230
f 224//224 231//231 230//230
f 229//229 228//228 232//232
f 233//233 234//234 227//227
f 226//226 233//233 227//227
f 230//230 231//231 235//235
f 229//229 232//232 236//236
f 231//231 237//237 235//235
f 236//236 232//232 238//238
f 239//239 240//240 234//234
f 233//233 239//239 234//234
f 235//235 237//237 241//241
f 236//236 238//238 242//242
f 237//237 243//243 241//241
f 244//244 245//245 240//240
f 242//242 238//238 246//246
f 239//239 244//244 240//240
f 242//242 246//246 247//247
f 241//241 243//243 248//248
f 243//243 249//249 248//248
f 250//250 251//251 245//245
f 247//247 246//246 251//251
f 244//244 250//250 245//245
f 247//247 251//251 250//250
f 248//248 249//249 252//252
f 253//253 254//254 255//255
f 256//256 255//255 257//257
f 256//256 253//253 255//255
f 256//256 257//257 258//258
f 259//259 260//260 261//261
f 262//262 263//263 254//254
f 258//258 257//257 264//264
f 253//253 262//262 254//254
f 258//258 264//264 265//265
f 261//261 260//260 266//266
f 260//260 267//267 266//266
f 265//265 264//264 268//268
f 269//269 270//270 263//263
f 262//262 269//269 263//263
f 266//266 267//267 271//271
f 265//265 268//268 272//272
f 267//267 273//273 271//271
f 272//272 268//268 274//274
f 275//275 276//276 270//270
f 269//269 275//275 270//270
f 271//271 273//273 277//277
f 272//272 274//274 278//278
f 273//273 279//279 277//277
f 280//280 281//281 276//276
f 278//278 274//274 282//282
f 275//275 280//280 276//276
f 278//278 282//282 283//283
f 277//277 279//279 284//284
f 279//279 285//285 284//284
f 286//286 287//287 281//281
f 283//283 282//282 287//287
f 280//280 286//286 281//281
f 283//283 287//287 286//286
f 284//284 285//285 288//288
f 289//289 290//290 291//291
f 292//292 291//291 293//293
f 292//292 289//289 291//291
f 292//292 293//293 294//294
f 295//295 296//296 297//297
f 298//298 299//299 290//290
f 294//294 293//293 300//300
f 289//289 298//298 290//290
f 294//294 300//300 301//301
f 297//297 296//296 302//302
f 296//296 303//303 302//302
f 301//301 300//300 304//304
f 305//305 306//306 299//299
f 298//298 305//305 299//299
f 302//302 303//303 307//307
f 301//301 304//304 308//308
f 303//303 309//309 307//307
f 308//308 304//304 310//310
f 311//311 312//312 306//306
f 305//305 311//311 306//306
f 307//307 309//309 313//313
f 308//308 310//310 314//314
f 309//309 315//315 313//313
f 316//316 317//317 312//312
f 314//314 310//310 318//318
f 311//311 316//316 312//312
f 314//314 318//318 319//319
f 313//313 315//315 320//320
f 315//315 321//321 320//320
f 322//322 323//323 317//317
f 319//319 318//318 323//323
f 316//316 322//322 317//317
f 319//319 323//323 322//322
f 320//320 321//321 324//324
f 325//325 326//326 327//327
f 328//328 327//327 329//329
f 328//328 325//325 327//327
f 328//328 329//329 330//330
f 331//331 332//332 333//333
f 334//334 335//335 326//326
f 330//330 329//329 336//336
f 325//325 334//334 326//326
f 330//330 336//336 337//337
f 333//333 332//332 338//338
f 332//332 339//339 338//338
f 337//337 336//336 340//340
f 341//341 342//342 335//335
f 334//334 341//341 335//335
f 338//338 339//339 343//343
f 337//337 340//340 344//344
f 339//339 345//345 343//343
f 344//344 340//340 346//346
f 347//347 348//348 342//342
f 341//341 347//347 342//342
f 343//343 345//345 349//349
f 344//344 346//346 350//350
f 345//345 351//351 349//349
f 352//352 353//353 348//348
f 350//350 346//346 354//354
f 347//347 352//352 348//348
f 350//350 354//354 355//355
f 349//349 351//351 356//356
f 351//351 357//357 356//356
f 358//358 359//359 353//353
f 355//355 354//354 359//359
f 352//352 358//358 353//353
f 355//355 359//359 358//358
f 356//356 357//357 360//360
f 361//361 362//362 363//363
f 364//364 363//363 365//365
f 364//364 361//361 363//363
f 364//364 365//365 366//366
f 367//367 368//368 369//369
f 370//370 371//371 362//362
f 366//366 365//365 372//372
f 361//361 370//370 362//362
f 366//366 372//372 373//373
f 369//369 368//368 374//374
f 368//368 375//375 374//374
f 373//373 372//372 376//376
f 377//377 378//378 371//371
f 370//370 377//377 371//371
f 374//374 375//375 379//379
f 373//373 376//376 380//380
f 375//375 381//381 379//379
f 380//380 376//376 382//382
f 383//383 384//384 378//378
f 377//377 383//383 378//378
f 379//379 381//381 385//385
f 380//380 382//382 386//386
f 381//381 387//387 385//385
f 388//388 389//389 384//384
f 386//386 382//382 390//390
f 383//383 388//388 384//384
f 386//386 390//390 391//391
f 385//385 387//387 392//392
f 387//387 393//393 392//392
f 394//394 395//395 389//389
f 391//391 390//390 395//395
f 388//388 394//394 389//389
f 391//391 395//395 394//394
f 392//392 393//393 396//396
f 397//397 398//398 399//399
f 400//400 399//399 401//401
f 400//400 397//397 399//399
f 400//400 401//401 402//402
f 403//403 404//404 405//405
f 406//406 407//407 398//398
f 402//402 401//401 408//408
f 397//397 406//406 398//398
f 402//402 408//408 409//409
f 405//405 404//404 410//410
f 404//404 411//411 410//410
f 409//409 408//408 412//412
f 413//413 414//414 407//407
f 406//406 413//413 407//407
f 410//410 411//411 415//415
f 409//409 412//412 416//416
f 411//411 417//417 415//415
f 416//416 412//412 418//418
f 419//419 420//420 414//414
f 413//413 419//419 414//414
f 415//415 417//417 421//421
f 416//416 418//418 422//422
f 417//417 423//423 421//421
f 424//424 425//425 420//420
f 422//422 418//418 426//426
f 419//419 424//424 420//420
f 422//422 426//426 427//427
f 421//421 423//423 428//428
f 423//423 429//429 428//428
f 430//430 431//431 425//425
f 427//427 426//426 431//431
f 424//424 430//430 425//425
f 427//427 431//431 430//430
f 428//428 429//429 432//432
