v -0.49000 -0.04900 -0.49000
v -0.49566 -0.04666 -0.49000
v -0.49000 -0.04666 -0.49566
v -0.49566 -0.04100 -0.49566
v -0.49800 -0.04100 -0.49000
v -0.49000 -0.04100 -0.49800
v -0.49566 0.04100 -0.49566
v -0.49566 -0.04666 0.49000
v -0.49800 0.04100 -0.49000
v -0.49000 0.04100 -0.49800
v -0.49800 0.04100 0.49000
v 0.49000 -0.04900 -0.49000
v 0.49000 -0.04100 -0.49800
v 0.49000 0.04100 -0.49800
v -0.49000 -0.04900 0.49000
v -0.49800 -0.04100 0.49000
v -0.49000 -0.04666 0.49566
v -0.49566 -0.04100 0.49566
v -0.49000 -0.04100 0.49800
v -0.49566 0.04100 0.49566
v -0.49000 0.04100 0.49800
v 0.49000 -0.04900 0.49000
v 0.49000 -0.04666 0.49566
v 0.49000 -0.04100 0.49800
v -0.49566 0.04666 -0.49000
v -0.49000 0.04666 -0.49566
v -0.49000 0.04900 -0.49000
v -0.43995 0.04900 -0.41250
v -0.41250 0.04900 -0.43995
v -0.45000 0.04900 -0.37500
v -0.37500 0.04900 -0.45000
v -0.45000 0.04900 -0.12500
v -0.43995 0.04900 -0.33750
v -0.43995 0.04900 -0.16250
v -0.41250 0.04900 -0.31005
v -0.37500 0.04900 -0.20000
v -0.37500 0.04900 -0.30000
v -0.12500 0.04900 -0.45000
v -0.33750 0.04900 -0.43995
v -0.16250 0.04900 -0.43995
v -0.31005 0.04900 -0.41250
v -0.30000 0.04900 -0.37500
v -0.20000 0.04900 -0.37500
v -0.33750 0.04900 -0.31005
v -0.31005 0.04900 -0.33750
v -0.18995 0.04900 -0.16250
v -0.49000 0.04900 0.49000
v -0.45000 0.04900 0.12500
v -0.41250 0.04900 -0.18995
v -0.43995 0.04900 -0.08750
v -0.43995 0.04900 0.08750
v -0.41250 0.04900 -0.06005
v -0.41250 0.04900 0.06005
v -0.37500 0.04900 -0.05000
v -0.33750 0.04900 -0.18995
v -0.31005 0.04900 -0.16250
v -0.30000 0.04900 -0.12500
v -0.20000 0.04900 -0.12500
v -0.33750 0.04900 0.06005
v -0.33750 0.04900 -0.06005
v -0.31005 0.04900 -0.08750
v -0.18995 0.04900 -0.41250
v 0.49000 0.04900 -0.49000
v -0.18995 0.04900 -0.33750
v -0.16250 0.04900 -0.31005
v -0.16250 0.04900 -0.18995
v -0.12500 0.04900 -0.20000
v -0.12500 0.04900 -0.30000
v -0.08750 0.04900 -0.43995
v 0.08750 0.04900 -0.43995
v -0.06005 0.04900 -0.41250
v 0.06005 0.04900 -0.41250
v -0.05000 0.04900 -0.37500
v -0.08750 0.04900 -0.31005
v -0.06005 0.04900 -0.33750
v 0.06005 0.04900 -0.33750
v 0.08750 0.04900 -0.18995
v -0.18995 0.04900 -0.08750
v -0.16250 0.04900 -0.06005
v -0.16250 0.04900 0.06005
v -0.12500 0.04900 -0.05000
v -0.08750 0.04900 -0.18995
v -0.06005 0.04900 -0.16250
v 0.06005 0.04900 -0.16250
v -0.05000 0.04900 -0.12500
v -0.08750 0.04900 0.06005
v -0.08750 0.04900 -0.06005
v -0.06005 0.04900 -0.08750
v 0.06005 0.04900 -0.08750
v -0.37500 0.04900 0.05000
v -0.49566 0.04666 0.49000
v -0.45000 0.04900 0.37500
v -0.43995 0.04900 0.16250
v -0.43995 0.04900 0.33750
v -0.41250 0.04900 0.18995
v -0.41250 0.04900 0.31005
v -0.37500 0.04900 0.20000
v -0.31005 0.04900 0.08750
v -0.18995 0.04900 0.08750
v -0.30000 0.04900 0.12500
v -0.20000 0.04900 0.12500
v -0.37500 0.04900 0.30000
v -0.33750 0.04900 0.18995
v -0.31005 0.04900 0.16250
v -0.18995 0.04900 0.16250
v -0.33750 0.04900 0.31005
v -0.49000 0.04666 0.49566
v -0.43995 0.04900 0.41250
v -0.41250 0.04900 0.43995
v -0.37500 0.04900 0.45000
v -0.31005 0.04900 0.33750
v -0.30000 0.04900 0.37500
v -0.20000 0.04900 0.37500
v -0.12500 0.04900 0.45000
v -0.31005 0.04900 0.41250
v -0.33750 0.04900 0.43995
v -0.16250 0.04900 0.43995
v -0.12500 0.04900 0.05000
v -0.16250 0.04900 0.18995
v -0.12500 0.04900 0.20000
v -0.06005 0.04900 0.08750
v -0.12500 0.04900 0.30000
v -0.08750 0.04900 0.18995
v -0.08750 0.04900 0.31005
v -0.06005 0.04900 0.16250
v 0.49000 0.04100 0.49800
v -0.18995 0.04900 0.33750
v -0.16250 0.04900 0.31005
v -0.18995 0.04900 0.41250
v 0.49000 0.04900 0.49000
v -0.06005 0.04900 0.33750
v -0.05000 0.04900 0.37500
v 0.05000 0.04900 0.37500
v -0.06005 0.04900 0.41250
v 0.06005 0.04900 0.41250
v -0.08750 0.04900 0.43995
v 0.08750 0.04900 0.43995
v 0.49000 -0.04666 -0.49566
v 0.49566 -0.04666 -0.49000
v 0.49566 -0.04100 -0.49566
v 0.49800 -0.04100 -0.49000
v 0.49566 0.04100 -0.49566
v 0.49566 -0.04666 0.49000
v 0.49800 0.04100 -0.49000
v 0.49800 -0.04100 0.49000
v 0.49566 -0.04100 0.49566
v 0.49800 0.04100 0.49000
v 0.49566 0.04100 0.49566
v 0.12500 0.04900 -0.45000
v 0.05000 0.04900 -0.37500
v 0.08750 0.04900 -0.31005
v 0.12500 0.04900 -0.20000
v 0.12500 0.04900 -0.30000
v 0.49000 0.04666 -0.49566
v 0.16250 0.04900 -0.43995
v 0.33750 0.04900 -0.43995
v 0.18995 0.04900 -0.41250
v 0.31005 0.04900 -0.41250
v 0.20000 0.04900 -0.37500
v 0.30000 0.04900 -0.37500
v 0.16250 0.04900 -0.31005
v 0.18995 0.04900 -0.33750
v 0.31005 0.04900 -0.33750
v 0.16250 0.04900 -0.18995
v 0.05000 0.04900 -0.12500
v 0.08750 0.04900 -0.06005
v 0.12500 0.04900 -0.05000
v 0.18995 0.04900 -0.16250
v 0.20000 0.04900 -0.12500
v 0.33750 0.04900 -0.31005
v 0.16250 0.04900 -0.06005
v 0.08750 0.04900 0.06005
v 0.31005 0.04900 -0.16250
v 0.30000 0.04900 -0.12500
v 0.12500 0.04900 0.05000
v 0.18995 0.04900 -0.08750
v 0.16250 0.04900 0.06005
v 0.37500 0.04900 -0.45000
v 0.49566 0.04666 -0.49000
v 0.41250 0.04900 -0.43995
v 0.43995 0.04900 -0.41250
v 0.45000 0.04900 -0.37500
v 0.41250 0.04900 -0.31005
v 0.43995 0.04900 -0.16250
v 0.43995 0.04900 -0.33750
v 0.45000 0.04900 -0.12500
v 0.37500 0.04900 -0.30000
v 0.33750 0.04900 -0.18995
v 0.31005 0.04900 -0.08750
v 0.31005 0.04900 0.08750
v 0.33750 0.04900 -0.06005
v 0.33750 0.04900 0.06005
v 0.37500 0.04900 -0.05000
v 0.37500 0.04900 -0.20000
v 0.41250 0.04900 -0.18995
v 0.41250 0.04900 0.06005
v 0.41250 0.04900 -0.06005
v 0.43995 0.04900 -0.08750
v 0.43995 0.04900 0.08750
v -0.05000 0.04900 0.12500
v 0.06005 0.04900 0.08750
v 0.05000 0.04900 0.12500
v 0.06005 0.04900 0.16250
v 0.06005 0.04900 0.33750
v 0.08750 0.04900 0.18995
v 0.08750 0.04900 0.31005
v 0.12500 0.04900 0.20000
v 0.18995 0.04900 0.08750
v 0.20000 0.04900 0.12500
v 0.30000 0.04900 0.12500
v 0.12500 0.04900 0.30000
v 0.16250 0.04900 0.18995
v 0.16250 0.04900 0.31005
v 0.18995 0.04900 0.16250
v 0.31005 0.04900 0.16250
v 0.12500 0.04900 0.45000
v 0.18995 0.04900 0.33750
v 0.31005 0.04900 0.33750
v 0.20000 0.04900 0.37500
v 0.30000 0.04900 0.37500
v 0.49000 0.04666 0.49566
v 0.18995 0.04900 0.41250
v 0.31005 0.04900 0.41250
v 0.16250 0.04900 0.43995
v 0.33750 0.04900 0.43995
v 0.37500 0.04900 0.45000
v 0.37500 0.04900 0.05000
v 0.33750 0.04900 0.18995
v 0.33750 0.04900 0.31005
v 0.37500 0.04900 0.20000
v 0.45000 0.04900 0.12500
v 0.37500 0.04900 0.30000
v 0.41250 0.04900 0.18995
v 0.41250 0.04900 0.31005
v 0.43995 0.04900 0.16250
v 0.49566 0.04666 0.49000
v 0.43995 0.04900 0.33750
v 0.45000 0.04900 0.37500
v 0.41250 0.04900 0.43995
v 0.43995 0.04900 0.41250
v -0.43995 0.09900 -0.41250
v -0.43995 0.04900 -0.41250
v -0.45000 0.04900 -0.37500
v -0.37500 0.09900 -0.45000
v -0.37500 0.04900 -0.45000
v -0.41250 0.04900 -0.43995
v -0.41250 0.09900 -0.43995
v -0.45000 0.09900 -0.37500
v -0.43995 0.04900 -0.33750
v -0.43995 0.09900 -0.33750
v -0.41250 0.04900 -0.31005
v -0.41250 0.09900 -0.31005
v -0.37500 0.04900 -0.30000
v -0.43995 0.09900 -0.41250
v -0.45000 0.09900 -0.37500
v -0.43995 0.09900 -0.33750
v -0.41250 0.09900 -0.43995
v -0.41250 0.09900 -0.31005
v -0.37500 0.09900 -0.45000
v -0.37500 0.09900 -0.30000
v -0.37500 0.09900 -0.30000
v -0.33750 0.09900 -0.43995
v -0.33750 0.04900 -0.43995
v -0.31005 0.09900 -0.41250
v -0.31005 0.04900 -0.41250
v -0.30000 0.09900 -0.37500
v -0.30000 0.04900 -0.37500
v -0.33750 0.09900 -0.31005
v -0.33750 0.04900 -0.31005
v -0.31005 0.04900 -0.33750
v -0.31005 0.09900 -0.33750
v -0.33750 0.09900 -0.43995
v -0.33750 0.09900 -0.31005
v -0.31005 0.09900 -0.41250
v -0.31005 0.09900 -0.33750
v -0.30000 0.09900 -0.37500
v -0.43995 0.09900 -0.16250
v -0.43995 0.04900 -0.16250
v -0.45000 0.04900 -0.12500
v -0.37500 0.09900 -0.20000
v -0.37500 0.04900 -0.20000
v -0.41250 0.04900 -0.18995
v -0.41250 0.09900 -0.18995
v -0.45000 0.09900 -0.12500
v -0.43995 0.04900 -0.08750
v -0.43995 0.09900 -0.08750
v -0.41250 0.04900 -0.06005
v -0.41250 0.09900 -0.06005
v -0.37500 0.04900 -0.05000
v -0.43995 0.09900 -0.16250
v -0.45000 0.09900 -0.12500
v -0.43995 0.09900 -0.08750
v -0.41250 0.09900 -0.18995
v -0.41250 0.09900 -0.06005
v -0.37500 0.09900 -0.20000
v -0.37500 0.09900 -0.05000
v -0.37500 0.09900 -0.05000
v -0.33750 0.09900 -0.18995
v -0.33750 0.04900 -0.18995
v -0.31005 0.09900 -0.16250
v -0.31005 0.04900 -0.16250
v -0.30000 0.09900 -0.12500
v -0.30000 0.04900 -0.12500
v -0.33750 0.09900 -0.06005
v -0.33750 0.04900 -0.06005
v -0.31005 0.04900 -0.08750
v -0.31005 0.09900 -0.08750
v -0.33750 0.09900 -0.18995
v -0.33750 0.09900 -0.06005
v -0.31005 0.09900 -0.16250
v -0.31005 0.09900 -0.08750
v -0.30000 0.09900 -0.12500
v -0.43995 0.09900 0.08750
v -0.43995 0.04900 0.08750
v -0.45000 0.04900 0.12500
v -0.37500 0.09900 0.05000
v -0.37500 0.04900 0.05000
v -0.41250 0.04900 0.06005
v -0.41250 0.09900 0.06005
v -0.45000 0.09900 0.12500
v -0.43995 0.04900 0.16250
v -0.43995 0.09900 0.16250
v -0.41250 0.04900 0.18995
v -0.41250 0.09900 0.18995
v -0.37500 0.04900 0.20000
v -0.43995 0.09900 0.08750
v -0.43995 0.09900 0.16250
v -0.41250 0.09900 0.06005
v -0.41250 0.09900 0.18995
v -0.37500 0.09900 0.05000
v -0.45000 0.09900 0.12500
v -0.37500 0.09900 0.20000
v -0.37500 0.09900 0.20000
v -0.33750 0.09900 0.06005
v -0.33750 0.04900 0.06005
v -0.31005 0.09900 0.08750
v -0.31005 0.04900 0.08750
v -0.30000 0.09900 0.12500
v -0.30000 0.04900 0.12500
v -0.33750 0.09900 0.18995
v -0.33750 0.04900 0.18995
v -0.31005 0.04900 0.16250
v -0.31005 0.09900 0.16250
v -0.33750 0.09900 0.06005
v -0.33750 0.09900 0.18995
v -0.31005 0.09900 0.08750
v -0.31005 0.09900 0.16250
v -0.30000 0.09900 0.12500
v -0.43995 0.09900 0.33750
v -0.43995 0.04900 0.33750
v -0.45000 0.04900 0.37500
v -0.37500 0.09900 0.30000
v -0.37500 0.04900 0.30000
v -0.41250 0.04900 0.31005
v -0.41250 0.09900 0.31005
v -0.45000 0.09900 0.37500
v -0.43995 0.04900 0.41250
v -0.43995 0.09900 0.41250
v -0.41250 0.04900 0.43995
v -0.41250 0.09900 0.43995
v -0.37500 0.04900 0.45000
v -0.41250 0.09900 0.31005
v -0.43995 0.09900 0.33750
v -0.43995 0.09900 0.41250
v -0.41250 0.09900 0.43995
v -0.37500 0.09900 0.30000
v -0.45000 0.09900 0.37500
v -0.37500 0.09900 0.45000
v -0.37500 0.09900 0.45000
v -0.33750 0.09900 0.31005
v -0.33750 0.04900 0.31005
v -0.31005 0.09900 0.33750
v -0.31005 0.04900 0.33750
v -0.30000 0.09900 0.37500
v -0.30000 0.04900 0.37500
v -0.33750 0.09900 0.43995
v -0.33750 0.04900 0.43995
v -0.31005 0.04900 0.41250
v -0.31005 0.09900 0.41250
v -0.33750 0.09900 0.31005
v -0.33750 0.09900 0.43995
v -0.31005 0.09900 0.33750
v -0.31005 0.09900 0.41250
v -0.30000 0.09900 0.37500
v -0.18995 0.09900 -0.41250
v -0.18995 0.04900 -0.41250
v -0.20000 0.04900 -0.37500
v -0.12500 0.09900 -0.45000
v -0.12500 0.04900 -0.45000
v -0.16250 0.04900 -0.43995
v -0.16250 0.09900 -0.43995
v -0.20000 0.09900 -0.37500
v -0.18995 0.04900 -0.33750
v -0.18995 0.09900 -0.33750
v -0.16250 0.04900 -0.31005
v -0.16250 0.09900 -0.31005
v -0.12500 0.04900 -0.30000
v -0.18995 0.09900 -0.41250
v -0.20000 0.09900 -0.37500
v -0.18995 0.09900 -0.33750
v -0.16250 0.09900 -0.43995
v -0.16250 0.09900 -0.31005
v -0.12500 0.09900 -0.45000
v -0.12500 0.09900 -0.30000
v -0.12500 0.09900 -0.30000
v -0.08750 0.09900 -0.43995
v -0.08750 0.04900 -0.43995
v -0.06005 0.09900 -0.41250
v -0.06005 0.04900 -0.41250
v -0.05000 0.09900 -0.37500
v -0.05000 0.04900 -0.37500
v -0.08750 0.09900 -0.31005
v -0.08750 0.04900 -0.31005
v -0.06005 0.04900 -0.33750
v -0.06005 0.09900 -0.33750
v -0.08750 0.09900 -0.43995
v -0.08750 0.09900 -0.31005
v -0.06005 0.09900 -0.41250
v -0.06005 0.09900 -0.33750
v -0.05000 0.09900 -0.37500
v -0.18995 0.09900 -0.16250
v -0.18995 0.04900 -0.16250
v -0.20000 0.04900 -0.12500
v -0.12500 0.09900 -0.20000
v -0.12500 0.04900 -0.20000
v -0.16250 0.04900 -0.18995
v -0.16250 0.09900 -0.18995
v -0.20000 0.09900 -0.12500
v -0.18995 0.04900 -0.08750
v -0.18995 0.09900 -0.08750
v -0.16250 0.04900 -0.06005
v -0.16250 0.09900 -0.06005
v -0.12500 0.04900 -0.05000
v -0.20000 0.09900 -0.12500
v -0.18995 0.09900 -0.08750
v -0.18995 0.09900 -0.16250
v -0.16250 0.09900 -0.18995
v -0.16250 0.09900 -0.06005
v -0.12500 0.09900 -0.20000
v -0.12500 0.09900 -0.05000
v -0.12500 0.09900 -0.05000
v -0.08750 0.09900 -0.18995
v -0.08750 0.04900 -0.18995
v -0.06005 0.09900 -0.16250
v -0.06005 0.04900 -0.16250
v -0.05000 0.09900 -0.12500
v -0.05000 0.04900 -0.12500
v -0.08750 0.09900 -0.06005
v -0.08750 0.04900 -0.06005
v -0.06005 0.04900 -0.08750
v -0.06005 0.09900 -0.08750
v -0.08750 0.09900 -0.18995
v -0.08750 0.09900 -0.06005
v -0.06005 0.09900 -0.16250
v -0.06005 0.09900 -0.08750
v -0.05000 0.09900 -0.12500
v -0.18995 0.09900 0.08750
v -0.18995 0.04900 0.08750
v -0.20000 0.04900 0.12500
v -0.12500 0.09900 0.05000
v -0.12500 0.04900 0.05000
v -0.16250 0.04900 0.06005
v -0.16250 0.09900 0.06005
v -0.20000 0.09900 0.12500
v -0.18995 0.04900 0.16250
v -0.18995 0.09900 0.16250
v -0.16250 0.04900 0.18995
v -0.16250 0.09900 0.18995
v -0.12500 0.04900 0.20000
v -0.18995 0.09900 0.08750
v -0.18995 0.09900 0.16250
v -0.16250 0.09900 0.06005
v -0.12500 0.09900 0.05000
v -0.16250 0.09900 0.18995
v -0.20000 0.09900 0.12500
v -0.12500 0.09900 0.20000
v -0.12500 0.09900 0.20000
v -0.08750 0.09900 0.06005
v -0.08750 0.04900 0.06005
v -0.06005 0.09900 0.08750
v -0.06005 0.04900 0.08750
v -0.05000 0.09900 0.12500
v -0.05000 0.04900 0.12500
v -0.08750 0.09900 0.18995
v -0.08750 0.04900 0.18995
v -0.06005 0.04900 0.16250
v -0.06005 0.09900 0.16250
v -0.08750 0.09900 0.06005
v -0.08750 0.09900 0.18995
v -0.06005 0.09900 0.08750
v -0.06005 0.09900 0.16250
v -0.05000 0.09900 0.12500
v -0.18995 0.09900 0.33750
v -0.18995 0.04900 0.33750
v -0.20000 0.04900 0.37500
v -0.12500 0.09900 0.30000
v -0.12500 0.04900 0.30000
v -0.16250 0.04900 0.31005
v -0.16250 0.09900 0.31005
v -0.20000 0.09900 0.37500
v -0.18995 0.04900 0.41250
v -0.18995 0.09900 0.41250
v -0.16250 0.04900 0.43995
v -0.16250 0.09900 0.43995
v -0.12500 0.04900 0.45000
v -0.16250 0.09900 0.31005
v -0.18995 0.09900 0.33750
v -0.18995 0.09900 0.41250
v -0.16250 0.09900 0.43995
v -0.12500 0.09900 0.30000
v -0.20000 0.09900 0.37500
v -0.12500 0.09900 0.45000
v -0.12500 0.09900 0.45000
v -0.08750 0.09900 0.31005
v -0.08750 0.04900 0.31005
v -0.06005 0.09900 0.33750
v -0.06005 0.04900 0.33750
v -0.05000 0.09900 0.37500
v -0.05000 0.04900 0.37500
v -0.08750 0.09900 0.43995
v -0.08750 0.04900 0.43995
v -0.06005 0.04900 0.41250
v -0.06005 0.09900 0.41250
v -0.08750 0.09900 0.31005
v -0.08750 0.09900 0.43995
v -0.06005 0.09900 0.33750
v -0.06005 0.09900 0.41250
v -0.05000 0.09900 0.37500
v 0.06005 0.09900 -0.41250
v 0.06005 0.04900 -0.41250
v 0.05000 0.04900 -0.37500
v 0.12500 0.09900 -0.45000
v 0.12500 0.04900 -0.45000
v 0.08750 0.04900 -0.43995
v 0.08750 0.09900 -0.43995
v 0.05000 0.09900 -0.37500
v 0.06005 0.04900 -0.33750
v 0.06005 0.09900 -0.33750
v 0.08750 0.04900 -0.31005
v 0.08750 0.09900 -0.31005
v 0.12500 0.04900 -0.30000
v 0.05000 0.09900 -0.37500
v 0.06005 0.09900 -0.33750
v 0.06005 0.09900 -0.41250
v 0.08750 0.09900 -0.43995
v 0.08750 0.09900 -0.31005
v 0.12500 0.09900 -0.45000
v 0.12500 0.09900 -0.30000
v 0.12500 0.09900 -0.30000
v 0.16250 0.09900 -0.43995
v 0.16250 0.04900 -0.43995
v 0.18995 0.09900 -0.41250
v 0.18995 0.04900 -0.41250
v 0.20000 0.09900 -0.37500
v 0.20000 0.04900 -0.37500
v 0.16250 0.09900 -0.31005
v 0.16250 0.04900 -0.31005
v 0.18995 0.04900 -0.33750
v 0.18995 0.09900 -0.33750
v 0.16250 0.09900 -0.43995
v 0.16250 0.09900 -0.31005
v 0.18995 0.09900 -0.41250
v 0.18995 0.09900 -0.33750
v 0.20000 0.09900 -0.37500
v 0.06005 0.09900 -0.16250
v 0.06005 0.04900 -0.16250
v 0.05000 0.04900 -0.12500
v 0.12500 0.09900 -0.20000
v 0.12500 0.04900 -0.20000
v 0.08750 0.04900 -0.18995
v 0.08750 0.09900 -0.18995
v 0.05000 0.09900 -0.12500
v 0.06005 0.04900 -0.08750
v 0.06005 0.09900 -0.08750
v 0.08750 0.04900 -0.06005
v 0.08750 0.09900 -0.06005
v 0.12500 0.04900 -0.05000
v 0.05000 0.09900 -0.12500
v 0.06005 0.09900 -0.08750
v 0.06005 0.09900 -0.16250
v 0.08750 0.09900 -0.18995
v 0.08750 0.09900 -0.06005
v 0.12500 0.09900 -0.20000
v 0.12500 0.09900 -0.05000
v 0.12500 0.09900 -0.05000
v 0.16250 0.09900 -0.18995
v 0.16250 0.04900 -0.18995
v 0.18995 0.09900 -0.16250
v 0.18995 0.04900 -0.16250
v 0.20000 0.09900 -0.12500
v 0.20000 0.04900 -0.12500
v 0.16250 0.09900 -0.06005
v 0.16250 0.04900 -0.06005
v 0.18995 0.04900 -0.08750
v 0.18995 0.09900 -0.08750
v 0.16250 0.09900 -0.18995
v 0.16250 0.09900 -0.06005
v 0.18995 0.09900 -0.16250
v 0.18995 0.09900 -0.08750
v 0.20000 0.09900 -0.12500
v 0.06005 0.09900 0.08750
v 0.06005 0.04900 0.08750
v 0.05000 0.04900 0.12500
v 0.12500 0.09900 0.05000
v 0.12500 0.04900 0.05000
v 0.08750 0.04900 0.06005
v 0.08750 0.09900 0.06005
v 0.05000 0.09900 0.12500
v 0.06005 0.04900 0.16250
v 0.06005 0.09900 0.16250
v 0.08750 0.04900 0.18995
v 0.08750 0.09900 0.18995
v 0.12500 0.04900 0.20000
v 0.06005 0.09900 0.08750
v 0.06005 0.09900 0.16250
v 0.08750 0.09900 0.06005
v 0.08750 0.09900 0.18995
v 0.12500 0.09900 0.05000
v 0.05000 0.09900 0.12500
v 0.12500 0.09900 0.20000
v 0.12500 0.09900 0.20000
v 0.16250 0.09900 0.06005
v 0.16250 0.04900 0.06005
v 0.18995 0.09900 0.08750
v 0.18995 0.04900 0.08750
v 0.20000 0.09900 0.12500
v 0.20000 0.04900 0.12500
v 0.16250 0.09900 0.18995
v 0.16250 0.04900 0.18995
v 0.18995 0.04900 0.16250
v 0.18995 0.09900 0.16250
v 0.16250 0.09900 0.06005
v 0.16250 0.09900 0.18995
v 0.18995 0.09900 0.08750
v 0.18995 0.09900 0.16250
v 0.20000 0.09900 0.12500
v 0.06005 0.09900 0.33750
v 0.06005 0.04900 0.33750
v 0.05000 0.04900 0.37500
v 0.12500 0.09900 0.30000
v 0.12500 0.04900 0.30000
v 0.08750 0.04900 0.31005
v 0.08750 0.09900 0.31005
v 0.05000 0.09900 0.37500
v 0.06005 0.04900 0.41250
v 0.06005 0.09900 0.41250
v 0.08750 0.04900 0.43995
v 0.08750 0.09900 0.43995
v 0.12500 0.04900 0.45000
v 0.08750 0.09900 0.31005
v 0.06005 0.09900 0.33750
v 0.06005 0.09900 0.41250
v 0.08750 0.09900 0.43995
v 0.12500 0.09900 0.30000
v 0.05000 0.09900 0.37500
v 0.12500 0.09900 0.45000
v 0.12500 0.09900 0.45000
v 0.16250 0.09900 0.31005
v 0.16250 0.04900 0.31005
v 0.18995 0.09900 0.33750
v 0.18995 0.04900 0.33750
v 0.20000 0.09900 0.37500
v 0.20000 0.04900 0.37500
v 0.16250 0.09900 0.43995
v 0.16250 0.04900 0.43995
v 0.18995 0.04900 0.41250
v 0.18995 0.09900 0.41250
v 0.16250 0.09900 0.31005
v 0.16250 0.09900 0.43995
v 0.18995 0.09900 0.33750
v 0.18995 0.09900 0.41250
v 0.20000 0.09900 0.37500
v 0.31005 0.09900 -0.41250
v 0.31005 0.04900 -0.41250
v 0.30000 0.04900 -0.37500
v 0.37500 0.09900 -0.45000
v 0.37500 0.04900 -0.45000
v 0.33750 0.04900 -0.43995
v 0.33750 0.09900 -0.43995
v 0.30000 0.09900 -0.37500
v 0.31005 0.04900 -0.33750
v 0.31005 0.09900 -0.33750
v 0.33750 0.04900 -0.31005
v 0.33750 0.09900 -0.31005
v 0.37500 0.04900 -0.30000
v 0.31005 0.09900 -0.41250
v 0.30000 0.09900 -0.37500
v 0.31005 0.09900 -0.33750
v 0.33750 0.09900 -0.43995
v 0.33750 0.09900 -0.31005
v 0.37500 0.09900 -0.45000
v 0.37500 0.09900 -0.30000
v 0.37500 0.09900 -0.30000
v 0.41250 0.09900 -0.43995
v 0.41250 0.04900 -0.43995
v 0.43995 0.09900 -0.41250
v 0.43995 0.04900 -0.41250
v 0.45000 0.09900 -0.37500
v 0.45000 0.04900 -0.37500
v 0.41250 0.09900 -0.31005
v 0.41250 0.04900 -0.31005
v 0.43995 0.04900 -0.33750
v 0.43995 0.09900 -0.33750
v 0.41250 0.09900 -0.43995
v 0.41250 0.09900 -0.31005
v 0.43995 0.09900 -0.41250
v 0.43995 0.09900 -0.33750
v 0.45000 0.09900 -0.37500
v 0.31005 0.09900 -0.16250
v 0.31005 0.04900 -0.16250
v 0.30000 0.04900 -0.12500
v 0.37500 0.09900 -0.20000
v 0.37500 0.04900 -0.20000
v 0.33750 0.04900 -0.18995
v 0.33750 0.09900 -0.18995
v 0.30000 0.09900 -0.12500
v 0.31005 0.04900 -0.08750
v 0.31005 0.09900 -0.08750
v 0.33750 0.04900 -0.06005
v 0.33750 0.09900 -0.06005
v 0.37500 0.04900 -0.05000
v 0.30000 0.09900 -0.12500
v 0.31005 0.09900 -0.08750
v 0.31005 0.09900 -0.16250
v 0.33750 0.09900 -0.18995
v 0.33750 0.09900 -0.06005
v 0.37500 0.09900 -0.20000
v 0.37500 0.09900 -0.05000
v 0.37500 0.09900 -0.05000
v 0.41250 0.09900 -0.18995
v 0.41250 0.04900 -0.18995
v 0.43995 0.09900 -0.16250
v 0.43995 0.04900 -0.16250
v 0.45000 0.09900 -0.12500
v 0.45000 0.04900 -0.12500
v 0.41250 0.09900 -0.06005
v 0.41250 0.04900 -0.06005
v 0.43995 0.04900 -0.08750
v 0.43995 0.09900 -0.08750
v 0.41250 0.09900 -0.18995
v 0.41250 0.09900 -0.06005
v 0.43995 0.09900 -0.16250
v 0.43995 0.09900 -0.08750
v 0.45000 0.09900 -0.12500
v 0.31005 0.09900 0.08750
v 0.31005 0.04900 0.08750
v 0.30000 0.04900 0.12500
v 0.37500 0.09900 0.05000
v 0.37500 0.04900 0.05000
v 0.33750 0.04900 0.06005
v 0.33750 0.09900 0.06005
v 0.30000 0.09900 0.12500
v 0.31005 0.04900 0.16250
v 0.31005 0.09900 0.16250
v 0.33750 0.04900 0.18995
v 0.33750 0.09900 0.18995
v 0.37500 0.04900 0.20000
v 0.31005 0.09900 0.08750
v 0.31005 0.09900 0.16250
v 0.33750 0.09900 0.06005
v 0.37500 0.09900 0.05000
v 0.33750 0.09900 0.18995
v 0.30000 0.09900 0.12500
v 0.37500 0.09900 0.20000
v 0.37500 0.09900 0.20000
v 0.41250 0.09900 0.06005
v 0.41250 0.04900 0.06005
v 0.43995 0.09900 0.08750
v 0.43995 0.04900 0.08750
v 0.45000 0.09900 0.12500
v 0.45000 0.04900 0.12500
v 0.41250 0.09900 0.18995
v 0.41250 0.04900 0.18995
v 0.43995 0.04900 0.16250
v 0.43995 0.09900 0.16250
v 0.41250 0.09900 0.06005
v 0.41250 0.09900 0.18995
v 0.43995 0.09900 0.08750
v 0.43995 0.09900 0.16250
v 0.45000 0.09900 0.12500
v 0.31005 0.09900 0.33750
v 0.31005 0.04900 0.33750
v 0.30000 0.04900 0.37500
v 0.37500 0.09900 0.30000
v 0.37500 0.04900 0.30000
v 0.33750 0.04900 0.31005
v 0.33750 0.09900 0.31005
v 0.30000 0.09900 0.37500
v 0.31005 0.04900 0.41250
v 0.31005 0.09900 0.41250
v 0.33750 0.04900 0.43995
v 0.33750 0.09900 0.43995
v 0.37500 0.04900 0.45000
v 0.31005 0.09900 0.33750
v 0.31005 0.09900 0.41250
v 0.33750 0.09900 0.31005
v 0.33750 0.09900 0.43995
v 0.37500 0.09900 0.30000
v 0.30000 0.09900 0.37500
v 0.37500 0.09900 0.45000
v 0.37500 0.09900 0.45000
v 0.41250 0.09900 0.31005
v 0.41250 0.04900 0.31005
v 0.43995 0.09900 0.33750
v 0.43995 0.04900 0.33750
v 0.45000 0.09900 0.37500
v 0.45000 0.04900 0.37500
v 0.41250 0.09900 0.43995
v 0.41250 0.04900 0.43995
v 0.43995 0.04900 0.41250
v 0.43995 0.09900 0.41250
v 0.41250 0.09900 0.31005
v 0.41250 0.09900 0.43995
v 0.43995 0.09900 0.33750
v 0.43995 0.09900 0.41250
v 0.45000 0.09900 0.37500
vn -0.1877 -0.9641 -0.1877
vn -0.6887 -0.6887 -0.2265
vn -0.2265 -0.6887 -0.6887
vn -0.6887 -0.2265 -0.6887
vn -0.9641 -0.1877 -0.1877
vn -0.1877 -0.1877 -0.9641
vn -0.6887 0.2265 -0.6887
vn -0.6887 -0.6887 0.2265
vn -0.9641 0.1877 -0.1877
vn -0.1877 0.1877 -0.9641
vn -0.9641 0.1877 0.1877
vn 0.1877 -0.9641 -0.1877
vn 0.1877 -0.1877 -0.9641
vn 0.1877 0.1877 -0.9641
vn -0.1877 -0.9641 0.1877
vn -0.9641 -0.1877 0.1877
vn -0.2265 -0.6887 0.6887
vn -0.6887 -0.2265 0.6887
vn -0.1877 -0.1877 0.9641
vn -0.6887 0.2265 0.6887
vn -0.1877 0.1877 0.9641
vn 0.1877 -0.9641 0.1877
vn 0.2265 -0.6887 0.6887
vn 0.1877 -0.1877 0.9641
vn -0.6887 0.6887 -0.2265
vn -0.2265 0.6887 -0.6887
vn -0.1877 0.9641 -0.1877
vn 0.0000 1.0000 0.0000
vn 0.0000 1.0000 0.0000
vn 0.0000 1.0000 0.0000
vn 0.0000 1.0000 0.0000
vn 0.0000 1.0000 0.0000
vn 0.0000 1.0000 0.0000
vn 0.0000 1.0000 0.0000
vn 0.0000 1.0000 0.0000
vn 0.0000 1.0000 0.0000
vn 0.0000 1.0000 0.0000
vn 0.0000 1.0000 0.0000
vn 0.0000 1.0000 0.0000
vn 0.0000 1.0000 0.0000
vn 0.0000 1.0000 0.0000
vn 0.0000 1.0000 0.0000
vn 0.0000 1.0000 0.0000
vn 0.0000 1.0000 0.0000
vn 0.0000 1.0000 0.0000
vn 0.0000 1.0000 0.0000
vn -0.1877 0.9641 0.1877
vn 0.0000 1.0000 0.0000
vn 0.0000 1.0000 0.0000
vn 0.0000 1.0000 0.0000
vn 0.0000 1.0000 0.0000
vn 0.0000 1.0000 0.0000
vn 0.0000 1.0000 0.0000
vn 0.0000 1.0000 0.0000
vn 0.0000 1.0000 0.0000
vn 0.0000 1.0000 0.0000
vn 0.0000 1.0000 0.0000
vn 0.0000 1.0000 0.0000
vn 0.0000 1.0000 0.0000
vn 0.0000 1.0000 0.0000
vn 0.0000 1.0000 0.0000
vn 0.0000 1.0000 0.0000
vn 0.1877 0.9641 -0.1877
vn 0.0000 1.0000 0.0000
vn 0.0000 1.0000 0.0000
vn 0.0000 1.0000 0.0000
vn 0.0000 1.0000 0.0000
vn 0.0000 1.0000 0.0000
vn 0.0000 1.0000 0.0000
vn 0.0000 1.0000 0.0000
vn 0.0000 1.0000 0.0000
vn 0.0000 1.0000 0.0000
vn 0.0000 1.0000 0.0000
vn 0.0000 1.0000 0.0000
vn 0.0000 1.0000 0.0000
vn 0.0000 1.0000 0.0000
vn 0.0000 1.0000 0.0000
vn 0.0000 1.0000 0.0000
vn 0.0000 1.0000 0.0000
vn 0.0000 1.0000 0.0000
vn 0.0000 1.0000 0.0000
vn 0.0000 1.0000 0.0000
vn 0.0000 1.0000 0.0000
vn 0.0000 1.0000 0.0000
vn 0.0000 1.0000 0.0000
vn 0.0000 1.0000 0.0000
vn 0.0000 1.0000 0.0000
vn 0.0000 1.0000 0.0000
vn 0.0000 1.0000 0.0000
vn 0.0000 1.0000 0.0000
vn -0.6887 0.6887 0.2265
vn 0.0000 1.0000 0.0000
vn 0.0000 1.0000 0.0000
vn 0.0000 1.0000 0.0000
vn 0.0000 1.0000 0.0000
vn 0.0000 1.0000 0.0000
vn 0.0000 1.0000 0.0000
vn 0.0000 1.0000 0.0000
vn 0.0000 1.0000 0.0000
vn 0.0000 1.0000 0.0000
vn 0.0000 1.0000 0.0000
vn 0.0000 1.0000 0.0000
vn 0.0000 1.0000 0.0000
vn 0.0000 1.0000 0.0000
vn 0.0000 1.0000 0.0000
vn 0.0000 1.0000 0.0000
vn -0.2265 0.6887 0.6887
vn 0.0000 1.0000 0.0000
vn 0.0000 1.0000 0.0000
vn 0.0000 1.0000 0.0000
vn 0.0000 1.0000 0.0000
vn 0.0000 1.0000 0.0000
vn 0.0000 1.0000 0.0000
vn 0.0000 1.0000 0.0000
vn 0.0000 1.0000 0.0000
vn 0.0000 1.0000 0.0000
vn 0.0000 1.0000 0.0000
vn 0.0000 1.0000 0.0000
vn 0.0000 1.0000 0.0000
vn 0.0000 1.0000 0.0000
vn 0.0000 1.0000 0.0000
vn 0.0000 1.0000 0.0000
vn 0.0000 1.0000 0.0000
vn 0.0000 1.0000 0.0000
vn 0.0000 1.0000 0.0000
vn 0.1877 0.1877 0.9641
vn 0.0000 1.0000 0.0000
vn 0.0000 1.0000 0.0000
vn 0.0000 1.0000 0.0000
vn 0.1877 0.9641 0.1877
vn 0.0000 1.0000 0.0000
vn 0.0000 1.0000 0.0000
vn 0.0000 1.0000 0.0000
vn 0.0000 1.0000 0.0000
vn 0.0000 1.0000 0.0000
vn 0.0000 1.0000 0.0000
vn 0.0000 1.0000 0.0000
vn 0.2265 -0.6887 -0.6887
vn 0.6887 -0.6887 -0.2265
vn 0.6887 -0.2265 -0.6887
vn 0.9641 -0.1877 -0.1877
vn 0.6887 0.2265 -0.6887
vn 0.6887 -0.6887 0.2265
vn 0.9641 0.1877 -0.1877
vn 0.9641 -0.1877 0.1877
vn 0.6887 -0.2265 0.6887
vn 0.9641 0.1877 0.1877
vn 0.6887 0.2265 0.6887
vn 0.0000 1.0000 0.0000
vn 0.0000 1.0000 0.0000
vn 0.0000 1.0000 0.0000
vn 0.0000 1.0000 0.0000
vn 0.0000 1.0000 0.0000
vn 0.2265 0.6887 -0.6887
vn 0.0000 1.0000 0.0000
vn 0.0000 1.0000 0.0000
vn 0.0000 1.0000 0.0000
vn 0.0000 1.0000 0.0000
vn 0.0000 1.0000 0.0000
vn 0.0000 1.0000 0.0000
vn 0.0000 1.0000 0.0000
vn 0.0000 1.0000 0.0000
vn 0.0000 1.0000 0.0000
vn 0.0000 1.0000 0.0000
vn 0.0000 1.0000 0.0000
vn 0.0000 1.0000 0.0000
vn 0.0000 1.0000 0.0000
vn 0.0000 1.0000 0.0000
vn 0.0000 1.0000 0.0000
vn 0.0000 1.0000 0.0000
vn 0.0000 1.0000 0.0000
vn 0.0000 1.0000 0.0000
vn 0.0000 1.0000 0.0000
vn 0.0000 1.0000 0.0000
vn 0.0000 1.0000 0.0000
vn 0.0000 1.0000 0.0000
vn 0.0000 1.0000 0.0000
vn 0.0000 1.0000 0.0000
vn 0.6887 0.6887 -0.2265
vn 0.0000 1.0000 0.0000
vn 0.0000 1.0000 0.0000
vn 0.0000 1.0000 0.0000
vn 0.0000 1.0000 0.0000
vn 0.0000 1.0000 0.0000
vn 0.0000 1.0000 0.0000
vn 0.0000 1.0000 0.0000
vn 0.0000 1.0000 0.0000
vn 0.0000 1.0000 0.0000
vn 0.0000 1.0000 0.0000
vn 0.0000 1.0000 0.0000
vn 0.0000 1.0000 0.0000
vn 0.0000 1.0000 0.0000
vn 0.0000 1.0000 0.0000
vn 0.0000 1.0000 0.0000
vn 0.0000 1.0000 0.0000
vn 0.0000 1.0000 0.0000
vn 0.0000 1.0000 0.0000
vn 0.0000 1.0000 0.0000
vn 0.0000 1.0000 0.0000
vn 0.0000 1.0000 0.0000
vn 0.0000 1.0000 0.0000
vn 0.0000 1.0000 0.0000
vn 0.0000 1.0000 0.0000
vn 0.0000 1.0000 0.0000
vn 0.0000 1.0000 0.0000
vn 0.0000 1.0000 0.0000
vn 0.0000 1.0000 0.0000
vn 0.0000 1.0000 0.0000
vn 0.0000 1.0000 0.0000
vn 0.0000 1.0000 0.0000
vn 0.0000 1.0000 0.0000
vn 0.0000 1.0000 0.0000
vn 0.0000 1.0000 0.0000
vn 0.0000 1.0000 0.0000
vn 0.0000 1.0000 0.0000
vn 0.0000 1.0000 0.0000
vn 0.0000 1.0000 0.0000
vn 0.0000 1.0000 0.0000
vn 0.0000 1.0000 0.0000
vn 0.0000 1.0000 0.0000
vn 0.2265 0.6887 0.6887
vn 0.0000 1.0000 0.0000
vn 0.0000 1.0000 0.0000
vn 0.0000 1.0000 0.0000
vn 0.0000 1.0000 0.0000
vn 0.0000 1.0000 0.0000
vn 0.0000 1.0000 0.0000
vn 0.0000 1.0000 0.0000
vn 0.0000 1.0000 0.0000
vn 0.0000 1.0000 0.0000
vn 0.0000 1.0000 0.0000
vn 0.0000 1.0000 0.0000
vn 0.0000 1.0000 0.0000
vn 0.0000 1.0000 0.0000
vn 0.0000 1.0000 0.0000
vn 0.6887 0.6887 0.2265
vn 0.0000 1.0000 0.0000
vn 0.0000 1.0000 0.0000
vn 0.0000 1.0000 0.0000
vn 0.0000 1.0000 0.0000
vn -0.8660 0.0000 -0.5000
vn -0.8660 0.0000 -0.5000
vn -1.0000 0.0000 0.0000
vn 0.0000 0.0000 -1.0000
vn -0.0000 0.0000 -1.0000
vn -0.5000 0.0000 -0.8660
vn -0.5000 0.0000 -0.8660
vn -1.0000 0.0000 -0.0000
vn -0.8660 0.0000 0.5000
vn -0.8660 0.0000 0.5000
vn -0.5000 0.0000 0.8660
vn -0.5000 0.0000 0.8660
vn 0.0000 0.0000 1.0000
vn 0.0000 1.0000 0.0000
vn 0.0000 1.0000 0.0000
vn 0.0000 1.0000 0.0000
vn 0.0000 1.0000 0.0000
vn 0.0000 1.0000 0.0000
vn 0.0000 1.0000 0.0000
vn -0.0000 0.0000 1.0000
vn 0.0000 1.0000 0.0000
vn 0.5000 0.0000 -0.8660
vn 0.5000 0.0000 -0.8660
vn 0.8660 0.0000 -0.5000
vn 0.8660 0.0000 -0.5000
vn 1.0000 0.0000 0.0000
vn 1.0000 0.0000 -0.0000
vn 0.5000 0.0000 0.8660
vn 0.5000 0.0000 0.8660
vn 0.8660 0.0000 0.5000
vn 0.8660 0.0000 0.5000
vn 0.0000 1.0000 0.0000
vn 0.0000 1.0000 0.0000
vn 0.0000 1.0000 0.0000
vn 0.0000 1.0000 0.0000
vn 0.0000 1.0000 0.0000
vn -0.8660 0.0000 -0.5000
vn -0.8660 0.0000 -0.5000
vn -1.0000 0.0000 0.0000
vn 0.0000 0.0000 -1.0000
vn -0.0000 0.0000 -1.0000
vn -0.5000 0.0000 -0.8660
vn -0.5000 0.0000 -0.8660
vn -1.0000 0.0000 -0.0000
vn -0.8660 0.0000 0.5000
vn -0.8660 0.0000 0.5000
vn -0.5000 0.0000 0.8660
vn -0.5000 0.0000 0.8660
vn 0.0000 0.0000 1.0000
vn 0.0000 1.0000 0.0000
vn 0.0000 1.0000 0.0000
vn 0.0000 1.0000 0.0000
vn 0.0000 1.0000 0.0000
vn 0.0000 1.0000 0.0000
vn 0.0000 1.0000 0.0000
vn -0.0000 0.0000 1.0000
vn 0.0000 1.0000 0.0000
vn 0.5000 0.0000 -0.8660
vn 0.5000 0.0000 -0.8660
vn 0.8660 0.0000 -0.5000
vn 0.8660 0.0000 -0.5000
vn 1.0000 0.0000 0.0000
vn 1.0000 0.0000 -0.0000
vn 0.5000 0.0000 0.8660
vn 0.5000 0.0000 0.8660
vn 0.8660 0.0000 0.5000
vn 0.8660 0.0000 0.5000
vn 0.0000 1.0000 0.0000
vn 0.0000 1.0000 0.0000
vn 0.0000 1.0000 0.0000
vn 0.0000 1.0000 0.0000
vn 0.0000 1.0000 0.0000
vn -0.8660 0.0000 -0.5000
vn -0.8660 0.0000 -0.5000
vn -1.0000 0.0000 0.0000
vn 0.0000 0.0000 -1.0000
vn -0.0000 0.0000 -1.0000
vn -0.5000 0.0000 -0.8660
vn -0.5000 0.0000 -0.8660
vn -1.0000 0.0000 -0.0000
vn -0.8660 0.0000 0.5000
vn -0.8660 0.0000 0.5000
vn -0.5000 0.0000 0.8660
vn -0.5000 0.0000 0.8660
vn 0.0000 0.0000 1.0000
vn 0.0000 1.0000 0.0000
vn 0.0000 1.0000 0.0000
vn 0.0000 1.0000 0.0000
vn 0.0000 1.0000 0.0000
vn 0.0000 1.0000 0.0000
vn 0.0000 1.0000 0.0000
vn -0.0000 0.0000 1.0000
vn 0.0000 1.0000 0.0000
vn 0.5000 0.0000 -0.8660
vn 0.5000 0.0000 -0.8660
vn 0.8660 0.0000 -0.5000
vn 0.8660 0.0000 -0.5000
vn 1.0000 0.0000 0.0000
vn 1.0000 0.0000 -0.0000
vn 0.5000 0.0000 0.8660
vn 0.5000 0.0000 0.8660
vn 0.8660 0.0000 0.5000
vn 0.8660 0.0000 0.5000
vn 0.0000 1.0000 0.0000
vn 0.0000 1.0000 0.0000
vn 0.0000 1.0000 0.0000
vn 0.0000 1.0000 0.0000
vn 0.0000 1.0000 0.0000
vn -0.8660 0.0000 -0.5000
vn -0.8660 0.0000 -0.5000
vn -1.0000 0.0000 0.0000
vn 0.0000 0.0000 -1.0000
vn -0.0000 0.0000 -1.0000
vn -0.5000 0.0000 -0.8660
vn -0.5000 0.0000 -0.8660
vn -1.0000 0.0000 -0.0000
vn -0.8660 0.0000 0.5000
vn -0.8660 0.0000 0.5000
vn -0.5000 0.0000 0.8660
vn -0.5000 0.0000 0.8660
vn 0.0000 0.0000 1.0000
vn 0.0000 1.0000 0.0000
vn 0.0000 1.0000 0.0000
vn 0.0000 1.0000 0.0000
vn 0.0000 1.0000 0.0000
vn 0.0000 1.0000 0.0000
vn 0.0000 1.0000 0.0000
vn -0.0000 0.0000 1.0000
vn 0.0000 1.0000 0.0000
vn 0.5000 0.0000 -0.8660
vn 0.5000 0.0000 -0.8660
vn 0.8660 0.0000 -0.5000
vn 0.8660 0.0000 -0.5000
vn 1.0000 0.0000 0.0000
vn 1.0000 0.0000 -0.0000
vn 0.5000 0.0000 0.8660
vn 0.5000 0.0000 0.8660
vn 0.8660 0.0000 0.5000
vn 0.8660 0.0000 0.5000
vn 0.0000 1.0000 0.0000
vn 0.0000 1.0000 0.0000
vn 0.0000 1.0000 0.0000
vn 0.0000 1.0000 0.0000
vn 0.0000 1.0000 0.0000
vn -0.8660 0.0000 -0.5000
vn -0.8660 0.0000 -0.5000
vn -1.0000 0.0000 0.0000
vn 0.0000 0.0000 -1.0000
vn -0.0000 0.0000 -1.0000
vn -0.5000 0.0000 -0.8660
vn -0.5000 0.0000 -0.8660
vn -1.0000 0.0000 -0.0000
vn -0.8660 0.0000 0.5000
vn -0.8660 0.0000 0.5000
vn -0.5000 0.0000 0.8660
vn -0.5000 0.0000 0.8660
vn 0.0000 0.0000 1.0000
vn 0.0000 1.0000 0.0000
vn 0.0000 1.0000 0.0000
vn 0.0000 1.0000 0.0000
vn 0.0000 1.0000 0.0000
vn 0.0000 1.0000 0.0000
vn 0.0000 1.0000 0.0000
vn -0.0000 0.0000 1.0000
vn 0.0000 1.0000 0.0000
vn 0.5000 0.0000 -0.8660
vn 0.5000 0.0000 -0.8660
vn 0.8660 0.0000 -0.5000
vn 0.8660 0.0000 -0.5000
vn 1.0000 0.0000 0.0000
vn 1.0000 0.0000 -0.0000
vn 0.5000 0.0000 0.8660
vn 0.5000 0.0000 0.8660
vn 0.8660 0.0000 0.5000
vn 0.8660 0.0000 0.5000
vn 0.0000 1.0000 0.0000
vn 0.0000 1.0000 0.0000
vn 0.0000 1.0000 0.0000
vn 0.0000 1.0000 0.0000
vn 0.0000 1.0000 0.0000
vn -0.8660 0.0000 -0.5000
vn -0.8660 0.0000 -0.5000
vn -1.0000 0.0000 0.0000
vn 0.0000 0.0000 -1.0000
vn -0.0000 0.0000 -1.0000
vn -0.5000 0.0000 -0.8660
vn -0.5000 0.0000 -0.8660
vn -1.0000 0.0000 -0.0000
vn -0.8660 0.0000 0.5000
vn -0.8660 0.0000 0.5000
vn -0.5000 0.0000 0.8660
vn -0.5000 0.0000 0.8660
vn 0.0000 0.0000 1.0000
vn 0.0000 1.0000 0.0000
vn 0.0000 1.0000 0.0000
vn 0.0000 1.0000 0.0000
vn 0.0000 1.0000 0.0000
vn 0.0000 1.0000 0.0000
vn 0.0000 1.0000 0.0000
vn -0.0000 0.0000 1.0000
vn 0.0000 1.0000 0.0000
vn 0.5000 0.0000 -0.8660
vn 0.5000 0.0000 -0.8660
vn 0.8660 0.0000 -0.5000
vn 0.8660 0.0000 -0.5000
vn 1.0000 0.0000 0.0000
vn 1.0000 0.0000 -0.0000
vn 0.5000 0.0000 0.8660
vn 0.5000 0.0000 0.8660
vn 0.8660 0.0000 0.5000
vn 0.8660 0.0000 0.5000
vn 0.0000 1.0000 0.0000
vn 0.0000 1.0000 0.0000
vn 0.0000 1.0000 0.0000
vn 0.0000 1.0000 0.0000
vn 0.0000 1.0000 0.0000
vn -0.8660 0.0000 -0.5000
vn -0.8660 0.0000 -0.5000
vn -1.0000 0.0000 0.0000
vn 0.0000 0.0000 -1.0000
vn -0.0000 0.0000 -1.0000
vn -0.5000 0.0000 -0.8660
vn -0.5000 0.0000 -0.8660
vn -1.0000 0.0000 -0.0000
vn -0.8660 0.0000 0.5000
vn -0.8660 0.0000 0.5000
vn -0.5000 0.0000 0.8660
vn -0.5000 0.0000 0.8660
vn 0.0000 0.0000 1.0000
vn 0.0000 1.0000 0.0000
vn 0.0000 1.0000 0.0000
vn 0.0000 1.0000 0.0000
vn 0.0000 1.0000 0.0000
vn 0.0000 1.0000 0.0000
vn 0.0000 1.0000 0.0000
vn -0.0000 0.0000 1.0000
vn 0.0000 1.0000 0.0000
vn 0.5000 0.0000 -0.8660
vn 0.5000 0.0000 -0.8660
vn 0.8660 0.0000 -0.5000
vn 0.8660 0.0000 -0.5000
vn 1.0000 0.0000 0.0000
vn 1.0000 0.0000 -0.0000
vn 0.5000 0.0000 0.8660
vn 0.5000 0.0000 0.8660
vn 0.8660 0.0000 0.5000
vn 0.8660 0.0000 0.5000
vn 0.0000 1.0000 0.0000
vn 0.0000 1.0000 0.0000
vn 0.0000 1.0000 0.0000
vn 0.0000 1.0000 0.0000
vn 0.0000 1.0000 0.0000
vn -0.8660 0.0000 -0.5000
vn -0.8660 0.0000 -0.5000
vn -1.0000 0.0000 0.0000
vn 0.0000 0.0000 -1.0000
vn -0.0000 0.0000 -1.0000
vn -0.5000 0.0000 -0.8660
vn -0.5000 0.0000 -0.8660
vn -1.0000 0.0000 -0.0000
vn -0.8660 0.0000 0.5000
vn -0.8660 0.0000 0.5000
vn -0.5000 0.0000 0.8660
vn -0.5000 0.0000 0.8660
vn 0.0000 0.0000 1.0000
vn 0.0000 1.0000 0.0000
vn 0.0000 1.0000 0.0000
vn 0.0000 1.0000 0.0000
vn 0.0000 1.0000 0.0000
vn 0.0000 1.0000 0.0000
vn 0.0000 1.0000 0.0000
vn -0.0000 0.0000 1.0000
vn 0.0000 1.0000 0.0000
vn 0.5000 0.0000 -0.8660
vn 0.5000 0.0000 -0.8660
vn 0.8660 0.0000 -0.5000
vn 0.8660 0.0000 -0.5000
vn 1.0000 0.0000 0.0000
vn 1.0000 0.0000 -0.0000
vn 0.5000 0.0000 0.8660
vn 0.5000 0.0000 0.8660
vn 0.8660 0.0000 0.5000
vn 0.8660 0.0000 0.5000
vn 0.0000 1.0000 0.0000
vn 0.0000 1.0000 0.0000
vn 0.0000 1.0000 0.0000
vn 0.0000 1.0000 0.0000
vn 0.0000 1.0000 0.0000
vn -0.8660 0.0000 -0.5000
vn -0.8660 0.0000 -0.5000
vn -1.0000 0.0000 0.0000
vn 0.0000 0.0000 -1.0000
vn -0.0000 0.0000 -1.0000
vn -0.5000 0.0000 -0.8660
vn -0.5000 0.0000 -0.8660
vn -1.0000 -0.0000 0.0000
vn -0.8660 -0.0000 0.5000
vn -0.8660 0.0000 0.5000
vn -0.5000 0.0000 0.8660
vn -0.5000 0.0000 0.8660
vn 0.0000 0.0000 1.0000
vn 0.0000 1.0000 0.0000
vn 0.0000 1.0000 0.0000
vn 0.0000 1.0000 0.0000
vn 0.0000 1.0000 0.0000
vn 0.0000 1.0000 0.0000
vn 0.0000 1.0000 0.0000
vn -0.0000 0.0000 1.0000
vn 0.0000 1.0000 0.0000
vn 0.5000 0.0000 -0.8660
vn 0.5000 0.0000 -0.8660
vn 0.8660 0.0000 -0.5000
vn 0.8660 -0.0000 -0.5000
vn 1.0000 -0.0000 0.0000
vn 1.0000 0.0000 0.0000
vn 0.5000 0.0000 0.8660
vn 0.5000 0.0000 0.8660
vn 0.8660 0.0000 0.5000
vn 0.8660 0.0000 0.5000
vn 0.0000 1.0000 0.0000
vn 0.0000 1.0000 0.0000
vn 0.0000 1.0000 0.0000
vn 0.0000 1.0000 0.0000
vn 0.0000 1.0000 0.0000
vn -0.8660 0.0000 -0.5000
vn -0.8660 0.0000 -0.5000
vn -1.0000 0.0000 0.0000
vn 0.0000 0.0000 -1.0000
vn -0.0000 0.0000 -1.0000
vn -0.5000 0.0000 -0.8660
vn -0.5000 0.0000 -0.8660
vn -1.0000 -0.0000 0.0000
vn -0.8660 -0.0000 0.5000
vn -0.8660 0.0000 0.5000
vn -0.5000 0.0000 0.8660
vn -0.5000 0.0000 0.8660
vn 0.0000 0.0000 1.0000
vn 0.0000 1.0000 0.0000
vn 0.0000 1.0000 0.0000
vn 0.0000 1.0000 0.0000
vn 0.0000 1.0000 0.0000
vn 0.0000 1.0000 0.0000
vn 0.0000 1.0000 0.0000
vn -0.0000 0.0000 1.0000
vn 0.0000 1.0000 0.0000
vn 0.5000 0.0000 -0.8660
vn 0.5000 0.0000 -0.8660
vn 0.8660 0.0000 -0.5000
vn 0.8660 -0.0000 -0.5000
vn 1.0000 -0.0000 0.0000
vn 1.0000 0.0000 0.0000
vn 0.5000 0.0000 0.8660
vn 0.5000 0.0000 0.8660
vn 0.8660 0.0000 0.5000
vn 0.8660 0.0000 0.5000
vn 0.0000 1.0000 0.0000
vn 0.0000 1.0000 0.0000
vn 0.0000 1.0000 0.0000
vn 0.0000 1.0000 0.0000
vn 0.0000 1.0000 0.0000
vn -0.8660 0.0000 -0.5000
vn -0.8660 0.0000 -0.5000
vn -1.0000 0.0000 0.0000
vn 0.0000 0.0000 -1.0000
vn -0.0000 0.0000 -1.0000
vn -0.5000 0.0000 -0.8660
vn -0.5000 0.0000 -0.8660
vn -1.0000 -0.0000 0.0000
vn -0.8660 -0.0000 0.5000
vn -0.8660 0.0000 0.5000
vn -0.5000 0.0000 0.8660
vn -0.5000 0.0000 0.8660
vn 0.0000 0.0000 1.0000
vn 0.0000 1.0000 0.0000
vn 0.0000 1.0000 0.0000
vn 0.0000 1.0000 0.0000
vn 0.0000 1.0000 0.0000
vn 0.0000 1.0000 0.0000
vn 0.0000 1.0000 0.0000
vn -0.0000 0.0000 1.0000
vn 0.0000 1.0000 0.0000
vn 0.5000 0.0000 -0.8660
vn 0.5000 0.0000 -0.8660
vn 0.8660 0.0000 -0.5000
vn 0.8660 -0.0000 -0.5000
vn 1.0000 -0.0000 0.0000
vn 1.0000 0.0000 0.0000
vn 0.5000 0.0000 0.8660
vn 0.5000 0.0000 0.8660
vn 0.8660 0.0000 0.5000
vn 0.8660 0.0000 0.5000
vn 0.0000 1.0000 0.0000
vn 0.0000 1.0000 0.0000
vn 0.0000 1.0000 0.0000
vn 0.0000 1.0000 0.0000
vn 0.0000 1.0000 0.0000
vn -0.8660 0.0000 -0.5000
vn -0.8660 0.0000 -0.5000
vn -1.0000 0.0000 0.0000
vn 0.0000 0.0000 -1.0000
vn -0.0000 0.0000 -1.0000
vn -0.5000 0.0000 -0.8660
vn -0.5000 0.0000 -0.8660
vn -1.0000 -0.0000 0.0000
vn -0.8660 -0.0000 0.5000
vn -0.8660 0.0000 0.5000
vn -0.5000 0.0000 0.8660
vn -0.5000 0.0000 0.8660
vn 0.0000 0.0000 1.0000
vn 0.0000 1.0000 0.0000
vn 0.0000 1.0000 0.0000
vn 0.0000 1.0000 0.0000
vn 0.0000 1.0000 0.0000
vn 0.0000 1.0000 0.0000
vn 0.0000 1.0000 0.0000
vn -0.0000 0.0000 1.0000
vn 0.0000 1.0000 0.0000
vn 0.5000 0.0000 -0.8660
vn 0.5000 0.0000 -0.8660
vn 0.8660 0.0000 -0.5000
vn 0.8660 -0.0000 -0.5000
vn 1.0000 -0.0000 0.0000
vn 1.0000 0.0000 0.0000
vn 0.5000 0.0000 0.8660
vn 0.5000 0.0000 0.8660
vn 0.8660 0.0000 0.5000
vn 0.8660 0.0000 0.5000
vn 0.0000 1.0000 0.0000
vn 0.0000 1.0000 0.0000
vn 0.0000 1.0000 0.0000
vn 0.0000 1.0000 0.0000
vn 0.0000 1.0000 0.0000
vn -0.8660 0.0000 -0.5000
vn -0.8660 0.0000 -0.5000
vn -1.0000 0.0000 0.0000
vn 0.0000 0.0000 -1.0000
vn -0.0000 0.0000 -1.0000
vn -0.5000 0.0000 -0.8660
vn -0.5000 0.0000 -0.8660
vn -1.0000 -0.0000 0.0000
vn -0.8660 -0.0000 0.5000
vn -0.8660 0.0000 0.5000
vn -0.5000 0.0000 0.8660
vn -0.5000 0.0000 0.8660
vn 0.0000 0.0000 1.0000
vn 0.0000 1.0000 0.0000
vn 0.0000 1.0000 0.0000
vn 0.0000 1.0000 0.0000
vn 0.0000 1.0000 0.0000
vn 0.0000 1.0000 0.0000
vn 0.0000 1.0000 0.0000
vn -0.0000 0.0000 1.0000
vn 0.0000 1.0000 0.0000
vn 0.5000 0.0000 -0.8660
vn 0.5000 0.0000 -0.8660
vn 0.8660 0.0000 -0.5000
vn 0.8660 -0.0000 -0.5000
vn 1.0000 -0.0000 0.0000
vn 1.0000 0.0000 0.0000
vn 0.5000 0.0000 0.8660
vn 0.5000 0.0000 0.8660
vn 0.8660 0.0000 0.5000
vn 0.8660 0.0000 0.5000
vn 0.0000 1.0000 0.0000
vn 0.0000 1.0000 0.0000
vn 0.0000 1.0000 0.0000
vn 0.0000 1.0000 0.0000
vn 0.0000 1.0000 0.0000
vn -0.8660 0.0000 -0.5000
vn -0.8660 0.0000 -0.5000
vn -1.0000 0.0000 0.0000
vn 0.0000 0.0000 -1.0000
vn -0.0000 0.0000 -1.0000
vn -0.5000 0.0000 -0.8660
vn -0.5000 0.0000 -0.8660
vn -1.0000 -0.0000 0.0000
vn -0.8660 -0.0000 0.5000
vn -0.8660 0.0000 0.5000
vn -0.5000 0.0000 0.8660
vn -0.5000 0.0000 0.8660
vn 0.0000 0.0000 1.0000
vn 0.0000 1.0000 0.0000
vn 0.0000 1.0000 0.0000
vn 0.0000 1.0000 0.0000
vn 0.0000 1.0000 0.0000
vn 0.0000 1.0000 0.0000
vn 0.0000 1.0000 0.0000
vn -0.0000 0.0000 1.0000
vn 0.0000 1.0000 0.0000
vn 0.5000 0.0000 -0.8660
vn 0.5000 0.0000 -0.8660
vn 0.8660 0.0000 -0.5000
vn 0.8660 -0.0000 -0.5000
vn 1.0000 -0.0000 0.0000
vn 1.0000 0.0000 0.0000
vn 0.5000 0.0000 0.8660
vn 0.5000 0.0000 0.8660
vn 0.8660 0.0000 0.5000
vn 0.8660 0.0000 0.5000
vn 0.0000 1.0000 0.0000
vn 0.0000 1.0000 0.0000
vn 0.0000 1.0000 0.0000
vn 0.0000 1.0000 0.0000
vn 0.0000 1.0000 0.0000
vn -0.8660 0.0000 -0.5000
vn -0.8660 0.0000 -0.5000
vn -1.0000 0.0000 0.0000
vn 0.0000 0.0000 -1.0000
vn -0.0000 0.0000 -1.0000
vn -0.5000 0.0000 -0.8660
vn -0.5000 0.0000 -0.8660
vn -1.0000 -0.0000 0.0000
vn -0.8660 -0.0000 0.5000
vn -0.8660 0.0000 0.5000
vn -0.5000 0.0000 0.8660
vn -0.5000 0.0000 0.8660
vn 0.0000 0.0000 1.0000
vn 0.0000 1.0000 0.0000
vn 0.0000 1.0000 0.0000
vn 0.0000 1.0000 0.0000
vn 0.0000 1.0000 0.0000
vn 0.0000 1.0000 0.0000
vn 0.0000 1.0000 0.0000
vn -0.0000 0.0000 1.0000
vn 0.0000 1.0000 0.0000
vn 0.5000 0.0000 -0.8660
vn 0.5000 0.0000 -0.8660
vn 0.8660 0.0000 -0.5000
vn 0.8660 -0.0000 -0.5000
vn 1.0000 -0.0000 0.0000
vn 1.0000 0.0000 0.0000
vn 0.5000 0.0000 0.8660
vn 0.5000 0.0000 0.8660
vn 0.8660 0.0000 0.5000
vn 0.8660 0.0000 0.5000
vn 0.0000 1.0000 0.0000
vn 0.0000 1.0000 0.0000
vn 0.0000 1.0000 0.0000
vn 0.0000 1.0000 0.0000
vn 0.0000 1.0000 0.0000
vn -0.8660 0.0000 -0.5000
vn -0.8660 0.0000 -0.5000
vn -1.0000 0.0000 0.0000
vn 0.0000 0.0000 -1.0000
vn -0.0000 0.0000 -1.0000
vn -0.5000 0.0000 -0.8660
vn -0.5000 0.0000 -0.8660
vn -1.0000 -0.0000 0.0000
vn -0.8660 -0.0000 0.5000
vn -0.8660 0.0000 0.5000
vn -0.5000 0.0000 0.8660
vn -0.5000 0.0000 0.8660
vn 0.0000 0.0000 1.0000
vn 0.0000 1.0000 0.0000
vn 0.0000 1.0000 0.0000
vn 0.0000 1.0000 0.0000
vn 0.0000 1.0000 0.0000
vn 0.0000 1.0000 0.0000
vn 0.0000 1.0000 0.0000
vn -0.0000 0.0000 1.0000
vn 0.0000 1.0000 0.0000
vn 0.5000 0.0000 -0.8660
vn 0.5000 0.0000 -0.8660
vn 0.8660 0.0000 -0.5000
vn 0.8660 -0.0000 -0.5000
vn 1.0000 -0.0000 0.0000
vn 1.0000 0.0000 0.0000
vn 0.5000 0.0000 0.8660
vn 0.5000 0.0000 0.8660
vn 0.8660 0.0000 0.5000
vn 0.8660 0.0000 0.5000
vn 0.0000 1.0000 0.0000
vn 0.0000 1.0000 0.0000
vn 0.0000 1.0000 0.0000
vn 0.0000 1.0000 0.0000
vn 0.0000 1.0000 0.0000
f 1//1 2//2 3//3
f 2//2 4//4 3//3
f 2//2 5//5 4//4
f 3//3 4//4 6//6
f 4//4 5//5 7//7
f 4//4 7//7 6//6
f 1//1 8//8 2//2
f 2//2 8//8 5//5
f 5//5 9//9 7//7
f 6//6 7//7 10//10
f 5//5 11//11 9//9
f 1//1 3//3 12//12
f 3//3 6//6 13//13
f 6//6 10//10 14//14
f 1//1 15//15 8//8
f 5//5 8//8 16//16
f 5//5 16//16 11//11
f 15//15 17//17 8//8
f 8//8 17//17 18//18
f 8//8 18//18 16//16
f 17//17 19//19 18//18
f 16//16 18//18 20//20
f 18//18 19//19 20//20
f 16//16 20//20 11//11
f 19//19 21//21 20//20
f 1//1 22//22 15//15
f 15//15 23//23 17//17
f 17//17 23//23 19//19
f 19//19 24//24 21//21
f 7//7 9//9 25//25
f 7//7 26//26 10//10
f 7//7 25//25 26//26
f 25//25 27//27 26//26
f 27//27 28//28 29//29
f 27//27 30//30 28//28
f 27//27 29//29 31//31
f 27//27 32//32 30//30
f 30//30 32//32 33//33
f 33//33 34//34 35//35
f 35//35 36//36 37//37
f 27//27 31//31 38//38
f 31//31 39//39 40//40
f 39//39 41//41 40//40
f 41//41 42//42 43//43
f 37//37 36//36 44//44
f 42//42 45//45 43//43
f 44//44 46//46 45//45
f 9//9 11//11 25//25
f 33//33 32//32 34//34
f 25//25 47//47 27//27
f 27//27 48//48 32//32
f 35//35 34//34 49//49
f 35//35 49//49 36//36
f 32//32 48//48 50//50
f 50//50 51//51 52//52
f 52//52 53//53 54//54
f 44//44 36//36 55//55
f 44//44 55//55 56//56
f 44//44 56//56 46//46
f 56//56 57//57 58//58
f 54//54 59//59 60//60
f 60//60 59//59 61//61
f 61//61 58//58 57//57
f 10//10 26//26 14//14
f 31//31 40//40 38//38
f 41//41 62//62 40//40
f 41//41 43//43 62//62
f 26//26 27//27 63//63
f 45//45 64//64 43//43
f 45//45 65//65 64//64
f 45//45 66//66 65//65
f 65//65 67//67 68//68
f 27//27 38//38 63//63
f 38//38 69//69 70//70
f 69//69 71//71 72//72
f 73//73 72//72 71//71
f 68//68 67//67 74//74
f 73//73 75//75 76//76
f 74//74 77//77 75//75
f 45//45 46//46 66//66
f 56//56 58//58 46//46
f 65//65 66//66 67//67
f 61//61 78//78 58//58
f 61//61 79//79 78//78
f 61//61 80//80 79//79
f 79//79 80//80 81//81
f 74//74 67//67 82//82
f 74//74 82//82 83//83
f 74//74 83//83 84//84
f 83//83 85//85 84//84
f 81//81 86//86 87//87
f 85//85 88//88 89//89
f 88//88 87//87 89//89
f 87//87 86//86 89//89
f 27//27 47//47 48//48
f 50//50 48//48 51//51
f 52//52 51//51 53//53
f 54//54 53//53 90//90
f 25//25 11//11 91//91
f 25//25 91//91 47//47
f 48//48 92//92 93//93
f 93//93 94//94 95//95
f 95//95 96//96 97//97
f 54//54 90//90 59//59
f 61//61 59//59 98//98
f 61//61 98//98 99//99
f 98//98 100//100 101//101
f 97//97 102//102 103//103
f 100//100 104//104 101//101
f 103//103 105//105 104//104
f 103//103 106//106 105//105
f 11//11 20//20 91//91
f 20//20 21//21 107//107
f 93//93 92//92 94//94
f 47//47 92//92 48//48
f 95//95 94//94 96//96
f 97//97 96//96 102//102
f 47//47 108//108 92//92
f 20//20 107//107 91//91
f 91//91 107//107 47//47
f 47//47 109//109 108//108
f 47//47 110//110 109//109
f 103//103 102//102 106//106
f 111//111 105//105 106//106
f 111//111 112//112 113//113
f 47//47 114//114 110//110
f 115//115 113//113 112//112
f 116//116 117//117 115//115
f 110//110 114//114 116//116
f 61//61 99//99 80//80
f 98//98 101//101 99//99
f 81//81 80//80 118//118
f 104//104 105//105 101//101
f 105//105 111//111 119//119
f 111//111 120//120 119//119
f 81//81 118//118 86//86
f 121//121 89//89 86//86
f 120//120 122//122 123//123
f 123//123 124//124 125//125
f 21//21 126//126 107//107
f 111//111 127//127 120//120
f 111//111 113//113 127//127
f 120//120 127//127 128//128
f 120//120 128//128 122//122
f 115//115 129//129 113//113
f 115//115 117//117 129//129
f 116//116 114//114 117//117
f 107//107 130//130 47//47
f 123//123 122//122 124//124
f 125//125 124//124 131//131
f 125//125 131//131 132//132
f 125//125 132//132 133//133
f 132//132 134//134 135//135
f 136//136 137//137 134//134
f 114//114 137//137 136//136
f 47//47 130//130 114//114
f 3//3 138//138 12//12
f 3//3 13//13 138//138
f 6//6 14//14 13//13
f 1//1 12//12 22//22
f 12//12 138//138 139//139
f 138//138 140//140 139//139
f 138//138 13//13 140//140
f 139//139 140//140 141//141
f 13//13 142//142 140//140
f 140//140 142//142 141//141
f 12//12 139//139 143//143
f 139//139 141//141 143//143
f 141//141 144//144 145//145
f 13//13 14//14 142//142
f 141//141 142//142 144//144
f 15//15 22//22 23//23
f 19//19 23//23 24//24
f 21//21 24//24 126//126
f 12//12 143//143 22//22
f 141//141 145//145 143//143
f 22//22 143//143 23//23
f 23//23 143//143 146//146
f 23//23 146//146 24//24
f 143//143 145//145 146//146
f 24//24 146//146 126//126
f 145//145 147//147 146//146
f 145//145 144//144 147//147
f 146//146 148//148 126//126
f 146//146 147//147 148//148
f 38//38 70//70 149//149
f 69//69 72//72 70//70
f 73//73 150//150 72//72
f 73//73 76//76 150//150
f 75//75 151//151 76//76
f 75//75 77//77 151//151
f 151//151 152//152 153//153
f 26//26 154//154 14//14
f 26//26 63//63 154//154
f 63//63 38//38 149//149
f 149//149 155//155 156//156
f 155//155 157//157 158//158
f 157//157 159//159 160//160
f 153//153 152//152 161//161
f 159//159 162//162 163//163
f 161//161 163//163 162//162
f 161//161 164//164 163//163
f 74//74 84//84 77//77
f 85//85 165//165 84//84
f 151//151 77//77 152//152
f 85//85 89//89 165//165
f 121//121 166//166 89//89
f 121//121 167//167 166//166
f 161//161 152//152 164//164
f 168//168 163//163 164//164
f 168//168 169//169 170//170
f 171//171 172//172 173//173
f 174//174 172//172 175//175
f 171//171 173//173 176//176
f 173//173 172//172 174//174
f 174//174 175//175 177//177
f 149//149 156//156 178//178
f 155//155 158//158 156//156
f 157//157 160//160 158//158
f 63//63 149//149 178//178
f 159//159 163//163 160//160
f 168//168 170//170 163//163
f 14//14 154//154 142//142
f 142//142 179//179 144//144
f 63//63 178//178 180//180
f 63//63 180//180 181//181
f 142//142 154//154 179//179
f 154//154 63//63 179//179
f 63//63 181//181 182//182
f 183//183 184//184 185//185
f 63//63 182//182 186//186
f 182//182 185//185 184//184
f 169//169 187//187 170//170
f 169//169 176//176 183//183
f 176//176 173//173 183//183
f 169//169 183//183 187//187
f 183//183 173//173 188//188
f 174//174 177//177 189//189
f 189//189 190//190 191//191
f 191//191 192//192 193//193
f 144//144 179//179 147//147
f 183//183 188//188 194//194
f 183//183 194//194 195//195
f 183//183 195//195 184//184
f 182//182 184//184 186//186
f 179//179 63//63 130//130
f 193//193 196//196 197//197
f 197//197 196//196 198//198
f 198//198 199//199 186//186
f 63//63 186//186 130//130
f 121//121 200//200 167//167
f 200//200 125//125 171//171
f 125//125 201//201 171//171
f 200//200 171//171 167//167
f 171//171 201//201 172//172
f 125//125 202//202 201//201
f 125//125 133//133 202//202
f 202//202 133//133 203//203
f 203//203 204//204 205//205
f 205//205 206//206 207//207
f 189//189 177//177 208//208
f 208//208 209//209 210//210
f 207//207 211//211 212//212
f 212//212 213//213 214//214
f 209//209 214//214 215//215
f 203//203 133//133 204//204
f 205//205 204//204 206//206
f 207//207 206//206 211//211
f 132//132 135//135 133//133
f 134//134 137//137 135//135
f 114//114 216//216 137//137
f 212//212 211//211 213//213
f 214//214 213//213 217//217
f 214//214 217//217 218//218
f 217//217 219//219 220//220
f 107//107 126//126 221//221
f 107//107 221//221 130//130
f 130//130 216//216 114//114
f 219//219 222//222 223//223
f 224//224 225//225 222//222
f 216//216 226//226 224//224
f 189//189 208//208 190//190
f 208//208 210//210 190//190
f 191//191 190//190 192//192
f 193//193 192//192 227//227
f 209//209 215//215 210//210
f 214//214 218//218 215//215
f 215//215 218//218 228//228
f 228//228 229//229 230//230
f 193//193 227//227 196//196
f 198//198 196//196 199//199
f 186//186 199//199 231//231
f 230//230 232//232 233//233
f 233//233 234//234 235//235
f 130//130 186//186 231//231
f 179//179 236//236 147//147
f 179//179 130//130 236//236
f 231//231 235//235 237//237
f 217//217 220//220 218//218
f 228//228 218//218 229//229
f 230//230 229//229 232//232
f 219//219 223//223 220//220
f 222//222 225//225 223//223
f 224//224 226//226 225//225
f 130//130 226//226 216//216
f 126//126 148//148 221//221
f 147//147 236//236 148//148
f 233//233 232//232 234//234
f 235//235 234//234 237//237
f 231//231 237//237 238//238
f 130//130 231//231 238//238
f 130//130 239//239 226//226
f 130//130 238//238 240//240
f 130//130 240//240 239//239
f 148//148 236//236 221//221
f 221//221 236//236 130//130
f 241//241 242//242 243//243
f 244//244 245//245 246//246
f 247//247 246//246 242//242
f 248//248 243//243 249//249
f 250//250 249//249 251//251
f 252//252 251//251 253//253
f 241//241 243//243 248//248
f 254//254 255//255 256//256
f 247//247 244//244 246//246
f 241//241 247//247 242//242
f 254//254 256//256 257//257
f 257//257 258//258 259//259
f 248//248 249//249 250//250
f 250//250 251//251 252//252
f 252//252 253//253 260//260
f 257//257 256//256 258//258
f 259//259 258//258 261//261
f 262//262 263//263 245//245
f 264//264 265//265 263//263
f 266//266 267//267 265//265
f 268//268 269//269 270//270
f 260//260 253//253 269//269
f 271//271 270//270 267//267
f 244//244 262//262 245//245
f 262//262 264//264 263//263
f 259//259 261//261 272//272
f 272//272 273//273 274//274
f 264//264 266//266 265//265
f 274//274 275//275 276//276
f 268//268 270//270 271//271
f 260//260 269//269 268//268
f 272//272 261//261 273//273
f 273//273 275//275 274//274
f 271//271 267//267 266//266
f 277//277 278//278 279//279
f 280//280 281//281 282//282
f 283//283 282//282 278//278
f 284//284 279//279 285//285
f 286//286 285//285 287//287
f 288//288 287//287 289//289
f 277//277 279//279 284//284
f 290//290 291//291 292//292
f 283//283 280//280 282//282
f 283//283 278//278 277//277
f 293//293 290//290 292//292
f 293//293 294//294 295//295
f 284//284 285//285 286//286
f 286//286 287//287 288//288
f 288//288 289//289 296//296
f 293//293 292//292 294//294
f 295//295 294//294 297//297
f 298//298 299//299 281//281
f 300//300 301//301 299//299
f 302//302 303//303 301//301
f 304//304 305//305 306//306
f 296//296 289//289 305//305
f 307//307 306//306 303//303
f 280//280 298//298 281//281
f 298//298 300//300 299//299
f 295//295 297//297 308//308
f 308//308 309//309 310//310
f 300//300 302//302 301//301
f 310//310 311//311 312//312
f 304//304 306//306 307//307
f 304//304 296//296 305//305
f 308//308 297//297 309//309
f 309//309 311//311 310//310
f 302//302 307//307 303//303
f 313//313 314//314 315//315
f 316//316 317//317 318//318
f 319//319 318//318 314//314
f 320//320 315//315 321//321
f 322//322 321//321 323//323
f 324//324 323//323 325//325
f 313//313 315//315 320//320
f 319//319 316//316 318//318
f 313//313 319//319 314//314
f 326//326 327//327 328//328
f 328//328 329//329 330//330
f 320//320 321//321 322//322
f 326//326 331//331 327//327
f 322//322 323//323 324//324
f 324//324 325//325 332//332
f 328//328 327//327 329//329
f 330//330 329//329 333//333
f 334//334 335//335 317//317
f 336//336 337//337 335//335
f 338//338 339//339 337//337
f 340//340 341//341 342//342
f 332//332 325//325 341//341
f 343//343 342//342 339//339
f 316//316 334//334 317//317
f 334//334 336//336 335//335
f 330//330 333//333 344//344
f 344//344 345//345 346//346
f 336//336 338//338 337//337
f 340//340 342//342 343//343
f 332//332 341//341 340//340
f 344//344 333//333 345//345
f 345//345 347//347 346//346
f 343//343 339//339 338//338
f 346//346 347//347 348//348
f 349//349 350//350 351//351
f 352//352 353//353 354//354
f 355//355 354//354 350//350
f 356//356 351//351 357//357
f 358//358 357//357 359//359
f 360//360 359//359 361//361
f 349//349 351//351 356//356
f 355//355 352//352 354//354
f 355//355 350//350 349//349
f 362//362 363//363 364//364
f 362//362 365//365 366//366
f 356//356 357//357 358//358
f 363//363 367//367 364//364
f 358//358 359//359 360//360
f 360//360 361//361 368//368
f 362//362 364//364 365//365
f 366//366 365//365 369//369
f 370//370 371//371 353//353
f 372//372 373//373 371//371
f 374//374 375//375 373//373
f 376//376 377//377 378//378
f 368//368 361//361 377//377
f 379//379 378//378 375//375
f 352//352 370//370 353//353
f 370//370 372//372 371//371
f 366//366 369//369 380//380
f 380//380 381//381 382//382
f 372//372 374//374 373//373
f 376//376 378//378 379//379
f 368//368 377//377 376//376
f 380//380 369//369 381//381
f 381//381 383//383 382//382
f 374//374 379//379 375//375
f 382//382 383//383 384//384
f 385//385 386//386 387//387
f 388//388 389//389 390//390
f 391//391 390//390 386//386
f 392//392 387//387 393//393
f 394//394 393//393 395//395
f 396//396 395//395 397//397
f 385//385 387//387 392//392
f 398//398 399//399 400//400
f 391//391 388//388 390//390
f 385//385 391//391 386//386
f 398//398 400//400 401//401
f 401//401 402//402 403//403
f 392//392 393//393 394//394
f 394//394 395//395 396//396
f 396//396 397//397 404//404
f 400//400 402//402 401//401
f 403//403 402//402 405//405
f 406//406 407//407 389//389
f 408//408 409//409 407//407
f 410//410 411//411 409//409
f 412//412 413//413 414//414
f 404//404 397//397 413//413
f 415//415 414//414 411//411
f 388//388 406//406 389//389
f 406//406 408//408 407//407
f 403//403 405//405 416//416
f 416//416 417//417 418//418
f 408//408 410//410 409//409
f 418//418 419//419 420//420
f 415//415 412//412 414//414
f 404//404 413//413 412//412
f 405//405 417//417 416//416
f 418//418 417//417 419//419
f 415//415 411//411 410//410
f 421//421 422//422 423//423
f 424//424 425//425 426//426
f 427//427 426//426 422//422
f 428//428 423//423 429//429
f 430//430 429//429 431//431
f 432//432 431//431 433//433
f 428//428 421//421 423//423
f 434//434 435//435 436//436
f 427//427 424//424 426//426
f 421//421 427//427 422//422
f 436//436 435//435 437//437
f 437//437 438//438 439//439
f 428//428 429//429 430//430
f 430//430 431//431 432//432
f 432//432 433//433 440//440
f 437//437 435//435 438//438
f 439//439 438//438 441//441
f 442//442 443//443 425//425
f 444//444 445//445 443//443
f 446//446 447//447 445//445
f 448//448 449//449 450//450
f 440//440 433//433 449//449
f 451//451 450//450 447//447
f 424//424 442//442 425//425
f 442//442 444//444 443//443
f 439//439 441//441 452//452
f 452//452 453//453 454//454
f 444//444 446//446 445//445
f 454//454 455//455 456//456
f 448//448 450//450 451//451
f 440//440 449//449 448//448
f 441//441 453//453 452//452
f 454//454 453//453 455//455
f 446//446 451//451 447//447
f 457//457 458//458 459//459
f 460//460 461//461 462//462
f 463//463 462//462 458//458
f 464//464 459//459 465//465
f 466//466 465//465 467//467
f 468//468 467//467 469//469
f 457//457 459//459 464//464
f 460//460 462//462 463//463
f 457//457 463//463 458//458
f 470//470 471//471 472//472
f 473//473 472//472 474//474
f 464//464 465//465 466//466
f 470//470 475//475 471//471
f 466//466 467//467 468//468
f 468//468 469//469 476//476
f 472//472 471//471 474//474
f 473//473 474//474 477//477
f 478//478 479//479 461//461
f 480//480 481//481 479//479
f 482//482 483//483 481//481
f 484//484 485//485 486//486
f 476//476 469//469 485//485
f 487//487 486//486 483//483
f 460//460 478//478 461//461
f 478//478 480//480 479//479
f 473//473 477//477 488//488
f 488//488 489//489 490//490
f 480//480 482//482 481//481
f 487//487 484//484 486//486
f 476//476 485//485 484//484
f 477//477 489//489 488//488
f 490//490 489//489 491//491
f 487//487 483//483 482//482
f 490//490 491//491 492//492
f 493//493 494//494 495//495
f 496//496 497//497 498//498
f 499//499 498//498 494//494
f 500//500 495//495 501//501
f 502//502 501//501 503//503
f 504//504 503//503 505//505
f 500//500 493//493 495//495
f 499//499 496//496 498//498
f 499//499 494//494 493//493
f 506//506 507//507 508//508
f 506//506 509//509 510//510
f 500//500 501//501 502//502
f 511//511 508//508 507//507
f 502//502 503//503 504//504
f 504//504 505//505 512//512
f 506//506 508//508 509//509
f 510//510 509//509 513//513
f 514//514 515//515 497//497
f 516//516 517//517 515//515
f 518//518 519//519 517//517
f 520//520 521//521 522//522
f 512//512 505//505 521//521
f 523//523 522//522 519//519
f 496//496 514//514 497//497
f 514//514 516//516 515//515
f 510//510 513//513 524//524
f 524//524 525//525 526//526
f 516//516 518//518 517//517
f 520//520 522//522 523//523
f 512//512 521//521 520//520
f 513//513 525//525 524//524
f 526//526 525//525 527//527
f 523//523 519//519 518//518
f 526//526 527//527 528//528
f 529//529 530//530 531//531
f 532//532 533//533 534//534
f 535//535 534//534 530//530
f 536//536 531//531 537//537
f 538//538 537//537 539//539
f 540//540 539//539 541//541
f 536//536 529//529 531//531
f 542//542 543//543 544//544
f 535//535 532//532 534//534
f 529//529 535//535 530//530
f 544//544 543//543 545//545
f 545//545 546//546 547//547
f 536//536 537//537 538//538
f 538//538 539//539 540//540
f 540//540 541//541 548//548
f 545//545 543//543 546//546
f 546//546 549//549 547//547
f 550//550 551//551 533//533
f 552//552 553//553 551//551
f 554//554 555//555 553//553
f 556//556 557//557 558//558
f 548//548 541//541 557//557
f 559//559 558//558 555//555
f 532//532 550//550 533//533
f 550//550 552//552 551//551
f 547//547 549//549 560//560
f 560//560 561//561 562//562
f 552//552 554//554 553//553
f 562//562 563//563 564//564
f 559//559 556//556 558//558
f 548//548 557//557 556//556
f 560//560 549//549 561//561
f 562//562 561//561 563//563
f 559//559 555//555 554//554
f 565//565 566//566 567//567
f 568//568 569//569 570//570
f 571//571 570//570 566//566
f 572//572 567//567 573//573
f 574//574 573//573 575//575
f 576//576 575//575 577//577
f 572//572 565//565 567//567
f 578//578 579//579 580//580
f 571//571 568//568 570//570
f 571//571 566//566 565//565
f 581//581 580//580 579//579
f 581//581 582//582 583//583
f 572//572 573//573 574//574
f 574//574 575//575 576//576
f 576//576 577//577 584//584
f 581//581 579//579 582//582
f 582//582 585//585 583//583
f 586//586 587//587 569//569
f 588//588 589//589 587//587
f 590//590 591//591 589//589
f 592//592 593//593 594//594
f 584//584 577//577 593//593
f 595//595 594//594 591//591
f 568//568 586//586 569//569
f 586//586 588//588 587//587
f 583//583 585//585 596//596
f 596//596 597//597 598//598
f 588//588 590//590 589//589
f 598//598 599//599 600//600
f 592//592 594//594 595//595
f 592//592 584//584 593//593
f 596//596 585//585 597//597
f 598//598 597//597 599//599
f 590//590 595//595 591//591
f 601//601 602//602 603//603
f 604//604 605//605 606//606
f 607//607 606//606 602//602
f 608//608 603//603 609//609
f 610//610 609//609 611//611
f 612//612 611//611 613//613
f 601//601 603//603 608//608
f 607//607 604//604 606//606
f 601//601 607//607 602//602
f 614//614 615//615 616//616
f 616//616 617//617 618//618
f 608//608 609//609 610//610
f 614//614 619//619 615//615
f 610//610 611//611 612//612
f 612//612 613//613 620//620
f 616//616 615//615 617//617
f 617//617 621//621 618//618
f 622//622 623//623 605//605
f 624//624 625//625 623//623
f 626//626 627//627 625//625
f 628//628 629//629 630//630
f 620//620 613//613 629//629
f 631//631 630//630 627//627
f 604//604 622//622 605//605
f 622//622 624//624 623//623
f 618//618 621//621 632//632
f 632//632 633//633 634//634
f 624//624 626//626 625//625
f 628//628 630//630 631//631
f 620//620 629//629 628//628
f 632//632 621//621 633//633
f 634//634 633//633 635//635
f 631//631 627//627 626//626
f 634//634 635//635 636//636
f 637//637 638//638 639//639
f 640//640 641//641 642//642
f 643//643 642//642 638//638
f 644//644 639//639 645//645
f 646//646 645//645 647//647
f 648//648 647//647 649//649
f 644//644 637//637 639//639
f 643//643 640//640 642//642
f 643//643 638//638 637//637
f 650//650 651//651 652//652
f 650//650 653//653 654//654
f 644//644 645//645 646//646
f 655//655 652//652 651//651
f 646//646 647//647 648//648
f 648//648 649//649 656//656
f 650//650 652//652 653//653
f 653//653 657//657 654//654
f 658//658 659//659 641//641
f 660//660 661//661 659//659
f 662//662 663//663 661//661
f 664//664 665//665 666//666
f 656//656 649//649 665//665
f 667//667 666//666 663//663
f 640//640 658//658 641//641
f 658//658 660//660 659//659
f 654//654 657//657 668//668
f 668//668 669//669 670//670
f 660//660 662//662 661//661
f 664//664 666//666 667//667
f 656//656 665//665 664//664
f 668//668 657//657 669//669
f 669//669 671//671 670//670
f 662//662 667//667 663//663
f 670//670 671//671 672//672
f 673//673 674//674 675//675
f 676//676 677//677 678//678
f 679//679 678//678 674//674
f 680//680 675//675 681//681
f 682//682 681//681 683//683
f 684//684 683//683 685//685
f 673//673 675//675 680//680
f 686//686 687//687 688//688
f 679//679 676//676 678//678
f 673//673 679//679 674//674
f 686//686 688//688 689//689
f 689//689 690//690 691//691
f 680//680 681//681 682//682
f 682//682 683//683 684//684
f 684//684 685//685 692//692
f 688//688 690//690 689//689
f 691//691 690//690 693//693
f 694//694 695//695 677//677
f 696//696 697//697 695//695
f 698//698 699//699 697//697
f 700//700 701//701 702//702
f 692//692 685//685 701//701
f 703//703 702//702 699//699
f 676//676 694//694 677//677
f 694//694 696//696 695//695
f 691//691 693//693 704//704
f 704//704 705//705 706//706
f 696//696 698//698 697//697
f 706//706 707//707 708//708
f 703//703 700//700 702//702
f 692//692 701//701 700//700
f 704//704 693//693 705//705
f 706//706 705//705 707//707
f 698//698 703//703 699//699
f 709//709 710//710 711//711
f 712//712 713//713 714//714
f 715//715 714//714 710//710
f 716//716 711//711 717//717
f 718//718 717//717 719//719
f 720//720 719//719 721//721
f 716//716 709//709 711//711
f 722//722 723//723 724//724
f 715//715 712//712 714//714
f 709//709 715//715 710//710
f 724//724 723//723 725//725
f 725//725 726//726 727//727
f 716//716 717//717 718//718
f 718//718 719//719 720//720
f 720//720 721//721 728//728
f 723//723 726//726 725//725
f 727//727 726//726 729//729
f 730//730 731//731 713//713
f 732//732 733//733 731//731
f 734//734 735//735 733//733
f 736//736 737//737 738//738
f 728//728 721//721 737//737
f 739//739 738//738 735//735
f 712//712 730//730 713//713
f 730//730 732//732 731//731
f 727//727 729//729 740//740
f 740//740 741//741 742//742
f 732//732 734//734 733//733
f 742//742 743//743 744//744
f 736//736 738//738 739//739
f 728//728 737//737 736//736
f 740//740 729//729 741//741
f 742//742 741//741 743//743
f 734//734 739//739 735//735
f 745//745 746//746 747//747
f 748//748 749//749 750//750
f 751//751 750//750 746//746
f 752//752 747//747 753//753
f 754//754 753//753 755//755
f 756//756 755//755 757//757
f 745//745 747//747 752//752
f 748//748 750//750 751//751
f 745//745 751//751 746//746
f 758//758 759//759 760//760
f 761//761 760//760 762//762
f 752//752 753//753 754//754
f 758//758 763//763 759//759
f 754//754 755//755 756//756
f 756//756 757//757 764//764
f 759//759 762//762 760//760
f 761//761 762//762 765//765
f 766//766 767//767 749//749
f 768//768 769//769 767//767
f 770//770 771//771 769//769
f 772//772 773//773 774//774
f 764//764 757//757 773//773
f 775//775 774//774 771//771
f 748//748 766//766 749//749
f 766//766 768//768 767//767
f 761//761 765//765 776//776
f 776//776 777//777 778//778
f 768//768 770//770 769//769
f 775//775 772//772 774//774
f 764//764 773//773 772//772
f 776//776 765//765 777//777
f 778//778 777//777 779//779
f 770//770 775//775 771//771
f 778//778 779//779 780//780
f 781//781 782//782 783//783
f 784//784 785//785 786//786
f 787//787 786//786 782//782
f 788//788 783//783 789//789
f 790//790 789//789 791//791
f 792//792 791//791 793//793
f 788//788 781//781 783//783
f 787//787 784//784 786//786
f 781//781 787//787 782//782
f 794//794 795//795 796//796
f 796//796 797//797 798//798
f 788//788 789//789 790//790
f 799//799 795//795 794//794
f 790//790 791//791 792//792
f 792//792 793//793 800//800
f 795//795 797//797 796//796
f 798//798 797//797 801//801
f 802//802 803//803 785//785
f 804//804 805//805 803//803
f 806//806 807//807 805//805
f 808//808 809//809 810//810
f 800//800 793//793 809//809
f 811//811 810//810 807//807
f 784//784 802//802 785//785
f 802//802 804//804 803//803
f 798//798 801//801 812//812
f 812//812 813//813 814//814
f 804//804 806//806 805//805
f 808//808 810//810 811//811
f 800//800 809//809 808//808
f 812//812 801//801 813//813
f 814//814 813//813 815//815
f 806//806 811//811 807//807
f 814//814 815//815 816//816
