v -0.12066 -0.04666 -0.36500
v -0.11500 -0.04666 -0.37066
v -0.11500 -0.04900 -0.36500
v -0.12066 -0.04100 -0.37066
v -0.12300 -0.04100 -0.36500
v -0.11500 -0.04100 -0.37300
v -0.12300 0.04100 -0.36500
v -0.11500 0.04100 -0.37300
v -0.12066 -0.04666 0.36500
v -0.11500 -0.04900 0.36500
v -0.12300 -0.04100 0.36500
v -0.12066 0.04100 -0.37066
v 0.11500 -0.04900 -0.36500
v 0.11500 -0.04100 -0.37300
v -0.11500 -0.04666 0.37066
v -0.12066 -0.04100 0.37066
v -0.11500 -0.04100 0.37300
v -0.12066 0.04100 0.37066
v -0.12300 0.04100 0.36500
v -0.11500 0.04100 0.37300
v 0.11500 -0.04900 0.36500
v 0.11500 -0.04666 0.37066
v 0.11500 -0.04100 0.37300
v -0.12066 0.04666 -0.36500
v -0.11500 0.04666 -0.37066
v -0.11500 0.04900 -0.36500
v -0.07500 0.04900 -0.25000
v -0.06495 0.04900 -0.28750
v -0.03750 0.04900 -0.31495
v -0.07500 0.04900 0.00000
v -0.12066 0.04666 0.36500
v -0.06495 0.04900 -0.21250
v -0.06495 0.04900 -0.03750
v 0.11500 0.04100 -0.37300
v 0.00000 0.04900 -0.32500
v 0.11500 0.04900 -0.36500
v -0.03750 0.04900 -0.18505
v -0.03750 0.04900 -0.06495
v 0.00000 0.04900 -0.07500
v 0.00000 0.04900 -0.17500
v -0.11500 0.04900 0.36500
v -0.06495 0.04900 0.03750
v -0.03750 0.04900 0.06495
v -0.11500 0.04666 0.37066
v -0.07500 0.04900 0.25000
v -0.06495 0.04900 0.21250
v -0.06495 0.04900 0.28750
v -0.03750 0.04900 0.31495
v -0.03750 0.04900 0.18505
v 0.00000 0.04900 0.07500
v 0.00000 0.04900 0.17500
v 0.11500 0.04100 0.37300
v 0.00000 0.04900 0.32500
v 0.11500 0.04900 0.36500
v 0.11500 -0.04666 -0.37066
v 0.12066 -0.04666 -0.36500
v 0.12066 -0.04100 -0.37066
v 0.12300 -0.04100 -0.36500
v 0.12066 0.04100 -0.37066
v 0.12066 -0.04666 0.36500
v 0.12300 0.04100 -0.36500
v 0.12300 -0.04100 0.36500
v 0.12066 -0.04100 0.37066
v 0.12300 0.04100 0.36500
v 0.12066 0.04100 0.37066
v 0.11500 0.04666 -0.37066
v 0.03750 0.04900 -0.31495
v 0.03750 0.04900 -0.18505
v 0.03750 0.04900 -0.06495
v 0.06495 0.04900 -0.21250
v 0.06495 0.04900 -0.28750
v 0.07500 0.04900 -0.25000
v 0.12066 0.04666 -0.36500
v 0.06495 0.04900 -0.03750
v 0.07500 0.04900 0.00000
v 0.03750 0.04900 0.18505
v 0.03750 0.04900 0.06495
v 0.06495 0.04900 0.03750
v 0.06495 0.04900 0.21250
v 0.11500 0.04666 0.37066
v 0.03750 0.04900 0.31495
v 0.07500 0.04900 0.25000
v 0.12066 0.04666 0.36500
v 0.06495 0.04900 0.28750
v -0.07500 0.09900 -0.25000
v -0.07500 0.04900 -0.25000
v -0.06495 0.04900 -0.21250
v -0.06495 0.09900 -0.28750
v -0.06495 0.04900 -0.28750
v -0.06495 0.09900 -0.21250
v -0.07500 0.09900 -0.25000
v -0.06495 0.09900 -0.21250
v -0.06495 0.09900 -0.28750
v -0.03750 0.09900 -0.31495
v -0.03750 0.04900 -0.31495
v -0.03750 0.04900 -0.18505
v -0.03750 0.09900 -0.18505
v -0.03750 0.09900 -0.31495
v -0.03750 0.09900 -0.18505
v 0.00000 0.09900 -0.32500
v 0.00000 0.04900 -0.32500
v 0.00000 0.09900 -0.32500
v 0.00000 0.09900 -0.17500
v 0.00000 0.04900 -0.17500
v 0.00000 0.09900 -0.17500
v 0.03750 0.09900 -0.31495
v 0.03750 0.04900 -0.31495
v 0.03750 0.09900 -0.31495
v 0.03750 0.09900 -0.18505
v 0.06495 0.09900 -0.28750
v 0.06495 0.04900 -0.28750
v 0.03750 0.09900 -0.18505
v 0.03750 0.04900 -0.18505
v 0.06495 0.04900 -0.21250
v 0.06495 0.09900 -0.21250
v 0.06495 0.09900 -0.28750
v 0.06495 0.09900 -0.21250
v 0.07500 0.09900 -0.25000
v 0.07500 0.04900 -0.25000
v 0.07500 0.09900 -0.25000
v -0.06495 0.09900 -0.03750
v -0.06495 0.04900 -0.03750
v -0.07500 0.04900 0.00000
v -0.07500 0.09900 0.00000
v -0.03750 0.09900 -0.06495
v -0.03750 0.04900 -0.06495
v -0.06495 0.09900 -0.03750
v -0.06495 0.09900 0.03750
v -0.03750 0.09900 -0.06495
v 0.00000 0.09900 -0.07500
v 0.00000 0.04900 -0.07500
v -0.03750 0.09900 0.06495
v 0.00000 0.09900 -0.07500
v -0.06495 0.04900 0.03750
v -0.06495 0.09900 0.03750
v -0.07500 0.09900 0.00000
v -0.03750 0.04900 0.06495
v -0.03750 0.09900 0.06495
v 0.00000 0.04900 0.07500
v 0.00000 0.09900 0.07500
v 0.00000 0.09900 0.07500
v 0.03750 0.09900 -0.06495
v 0.03750 0.04900 -0.06495
v 0.03750 0.09900 -0.06495
v 0.06495 0.09900 -0.03750
v 0.06495 0.04900 -0.03750
v 0.03750 0.09900 0.06495
v 0.06495 0.09900 -0.03750
v 0.07500 0.09900 0.00000
v 0.07500 0.04900 0.00000
v 0.03750 0.04900 0.06495
v 0.03750 0.09900 0.06495
v 0.06495 0.04900 0.03750
v 0.06495 0.09900 0.03750
v 0.06495 0.09900 0.03750
v 0.07500 0.09900 0.00000
v -0.06495 0.09900 0.21250
v -0.06495 0.04900 0.21250
v -0.07500 0.04900 0.25000
v -0.07500 0.09900 0.25000
v -0.06495 0.04900 0.28750
v -0.06495 0.09900 0.28750
v -0.06495 0.09900 0.21250
v -0.07500 0.09900 0.25000
v -0.06495 0.09900 0.28750
v 0.00000 0.09900 0.17500
v 0.00000 0.04900 0.17500
v -0.03750 0.04900 0.18505
v -0.03750 0.09900 0.18505
v -0.03750 0.04900 0.31495
v -0.03750 0.09900 0.18505
v -0.03750 0.09900 0.31495
v -0.03750 0.09900 0.31495
v 0.00000 0.04900 0.32500
v 0.00000 0.09900 0.17500
v 0.00000 0.09900 0.32500
v 0.00000 0.09900 0.32500
v 0.03750 0.09900 0.18505
v 0.03750 0.04900 0.18505
v 0.03750 0.04900 0.31495
v 0.03750 0.09900 0.18505
v 0.03750 0.09900 0.31495
v 0.03750 0.09900 0.31495
v 0.06495 0.09900 0.21250
v 0.06495 0.04900 0.21250
v 0.06495 0.04900 0.28750
v 0.06495 0.09900 0.21250
v 0.06495 0.09900 0.28750
v 0.06495 0.09900 0.28750
v 0.07500 0.04900 0.25000
v 0.07500 0.09900 0.25000
v 0.07500 0.09900 0.25000
vn -0.6887 -0.6887 -0.2265
vn -0.2265 -0.6887 -0.6887
vn -0.1877 -0.9641 -0.1877
vn -0.6887 -0.2265 -0.6887
vn -0.9641 -0.1877 -0.1877
vn -0.1877 -0.1877 -0.9641
vn -0.9641 0.1877 -0.1877
vn -0.1877 0.1877 -0.9641
vn -0.6887 -0.6887 0.2265
vn -0.1877 -0.9641 0.1877
vn -0.9641 -0.1877 0.1877
vn -0.6887 0.2265 -0.6887
vn 0.1877 -0.9641 -0.1877
vn 0.1877 -0.1877 -0.9641
vn -0.2265 -0.6887 0.6887
vn -0.6887 -0.2265 0.6887
vn -0.1877 -0.1877 0.9641
vn -0.6887 0.2265 0.6887
vn -0.9641 0.1877 0.1877
vn -0.1877 0.1877 0.9641
vn 0.1877 -0.9641 0.1877
vn 0.2265 -0.6887 0.6887
vn 0.1877 -0.1877 0.9641
vn -0.6887 0.6887 -0.2265
vn -0.2265 0.6887 -0.6887
vn -0.1877 0.9641 -0.1877
vn 0.0000 1.0000 0.0000
vn 0.0000 1.0000 0.0000
vn 0.0000 1.0000 0.0000
vn 0.0000 1.0000 0.0000
vn -0.6887 0.6887 0.2265
vn 0.0000 1.0000 0.0000
vn 0.0000 1.0000 0.0000
vn 0.1877 0.1877 -0.9641
vn 0.0000 1.0000 0.0000
vn 0.1877 0.9641 -0.1877
vn 0.0000 1.0000 0.0000
vn 0.0000 1.0000 0.0000
vn 0.0000 1.0000 0.0000
vn 0.0000 1.0000 0.0000
vn -0.1877 0.9641 0.1877
vn 0.0000 1.0000 0.0000
vn 0.0000 1.0000 0.0000
vn -0.2265 0.6887 0.6887
vn 0.0000 1.0000 0.0000
vn 0.0000 1.0000 0.0000
vn 0.0000 1.0000 0.0000
vn 0.0000 1.0000 0.0000
vn 0.0000 1.0000 0.0000
vn 0.0000 1.0000 0.0000
vn 0.0000 1.0000 0.0000
vn 0.1877 0.1877 0.9641
vn 0.0000 1.0000 0.0000
vn 0.1877 0.9641 0.1877
vn 0.2265 -0.6887 -0.6887
vn 0.6887 -0.6887 -0.2265
vn 0.6887 -0.2265 -0.6887
vn 0.9641 -0.1877 -0.1877
vn 0.6887 0.2265 -0.6887
vn 0.6887 -0.6887 0.2265
vn 0.9641 0.1877 -0.1877
vn 0.9641 -0.1877 0.1877
vn 0.6887 -0.2265 0.6887
vn 0.9641 0.1877 0.1877
vn 0.6887 0.2265 0.6887
vn 0.2265 0.6887 -0.6887
vn 0.0000 1.0000 0.0000
vn 0.0000 1.0000 0.0000
vn 0.0000 1.0000 0.0000
vn 0.0000 1.0000 0.0000
vn 0.0000 1.0000 0.0000
vn 0.0000 1.0000 0.0000
vn 0.6887 0.6887 -0.2265
vn 0.0000 1.0000 0.0000
vn 0.0000 1.0000 0.0000
vn 0.0000 1.0000 0.0000
vn 0.0000 1.0000 0.0000
vn 0.0000 1.0000 0.0000
vn 0.0000 1.0000 0.0000
vn 0.2265 0.6887 0.6887
vn 0.0000 1.0000 0.0000
vn 0.0000 1.0000 0.0000
vn 0.6887 0.6887 0.2265
vn 0.0000 1.0000 0.0000
vn -1.0000 0.0000 0.0000
vn -1.0000 0.0000 -0.0000
vn -0.8660 0.0000 0.5000
vn -0.8660 0.0000 -0.5000
vn -0.8660 0.0000 -0.5000
vn -0.8660 0.0000 0.5000
vn 0.0000 1.0000 0.0000
vn 0.0000 1.0000 0.0000
vn 0.0000 1.0000 0.0000
vn -0.5000 0.0000 -0.8660
vn -0.5000 0.0000 -0.8660
vn -0.5000 0.0000 0.8660
vn -0.5000 0.0000 0.8660
vn 0.0000 1.0000 0.0000
vn 0.0000 1.0000 0.0000
vn 0.0000 0.0000 -1.0000
vn 0.0000 0.0000 -1.0000
vn 0.0000 1.0000 0.0000
vn 0.0000 1.0000 0.0000
vn 0.0000 0.0000 1.0000
vn 0.0000 0.0000 1.0000
vn 0.5000 0.0000 -0.8660
vn 0.5000 0.0000 -0.8660
vn 0.0000 1.0000 0.0000
vn 0.0000 1.0000 0.0000
vn 0.8660 0.0000 -0.5000
vn 0.8660 0.0000 -0.5000
vn 0.5000 0.0000 0.8660
vn 0.5000 0.0000 0.8660
vn 0.8660 0.0000 0.5000
vn 0.8660 0.0000 0.5000
vn 0.0000 1.0000 0.0000
vn 0.0000 1.0000 0.0000
vn 1.0000 0.0000 0.0000
vn 1.0000 0.0000 0.0000
vn 0.0000 1.0000 0.0000
vn -0.8660 0.0000 -0.5000
vn -0.8660 0.0000 -0.5000
vn -1.0000 0.0000 -0.0000
vn -1.0000 0.0000 0.0000
vn -0.5000 0.0000 -0.8660
vn -0.5000 0.0000 -0.8660
vn 0.0000 1.0000 0.0000
vn 0.0000 1.0000 0.0000
vn 0.0000 1.0000 0.0000
vn 0.0000 0.0000 -1.0000
vn 0.0000 0.0000 -1.0000
vn 0.0000 1.0000 0.0000
vn 0.0000 1.0000 0.0000
vn -0.8660 0.0000 0.5000
vn -0.8660 0.0000 0.5000
vn 0.0000 1.0000 0.0000
vn -0.5000 0.0000 0.8660
vn -0.5000 0.0000 0.8660
vn 0.0000 0.0000 1.0000
vn 0.0000 0.0000 1.0000
vn 0.0000 1.0000 0.0000
vn 0.5000 0.0000 -0.8660
vn 0.5000 0.0000 -0.8660
vn 0.0000 1.0000 0.0000
vn 0.8660 0.0000 -0.5000
vn 0.8660 0.0000 -0.5000
vn 0.0000 1.0000 0.0000
vn 0.0000 1.0000 0.0000
vn 1.0000 0.0000 0.0000
vn 1.0000 0.0000 0.0000
vn 0.5000 0.0000 0.8660
vn 0.5000 0.0000 0.8660
vn 0.8660 0.0000 0.5000
vn 0.8660 0.0000 0.5000
vn 0.0000 1.0000 0.0000
vn 0.0000 1.0000 0.0000
vn -0.8660 0.0000 -0.5000
vn -0.8660 0.0000 -0.5000
vn -1.0000 0.0000 -0.0000
vn -1.0000 0.0000 0.0000
vn -0.8660 0.0000 0.5000
vn -0.8660 0.0000 0.5000
vn 0.0000 1.0000 0.0000
vn 0.0000 1.0000 0.0000
vn 0.0000 1.0000 0.0000
vn 0.0000 -0.0000 -1.0000
vn 0.0000 0.0000 -1.0000
vn -0.5000 -0.0000 -0.8660
vn -0.5000 0.0000 -0.8660
vn -0.5000 0.0000 0.8660
vn 0.0000 1.0000 0.0000
vn 0.0000 1.0000 0.0000
vn -0.5000 0.0000 0.8660
vn 0.0000 0.0000 1.0000
vn 0.0000 1.0000 0.0000
vn 0.0000 1.0000 0.0000
vn 0.0000 0.0000 1.0000
vn 0.5000 0.0000 -0.8660
vn 0.5000 0.0000 -0.8660
vn 0.5000 0.0000 0.8660
vn 0.0000 1.0000 0.0000
vn 0.0000 1.0000 0.0000
vn 0.5000 0.0000 0.8660
vn 0.8660 0.0000 -0.5000
vn 0.8660 0.0000 -0.5000
vn 0.8660 0.0000 0.5000
vn 0.0000 1.0000 0.0000
vn 0.0000 1.0000 0.0000
vn 0.8660 0.0000 0.5000
vn 1.0000 0.0000 0.0000
vn 1.0000 0.0000 0.0000
vn 0.0000 1.0000 0.0000
f 1//1 2//2 3//3
f 1//1 4//4 2//2
f 1//1 5//5 4//4
f 2//2 4//4 6//6
f 5//5 7//7 4//4
f 4//4 8//8 6//6
f 1//1 9//9 5//5
f 1//1 3//3 10//10
f 5//5 11//11 7//7
f 4//4 7//7 12//12
f 4//4 12//12 8//8
f 3//3 2//2 13//13
f 2//2 6//6 14//14
f 6//6 8//8 14//14
f 1//1 10//10 9//9
f 5//5 9//9 11//11
f 9//9 10//10 15//15
f 9//9 15//15 16//16
f 9//9 16//16 11//11
f 15//15 17//17 16//16
f 11//11 16//16 18//18
f 16//16 17//17 18//18
f 11//11 19//19 7//7
f 11//11 18//18 19//19
f 17//17 20//20 18//18
f 3//3 21//21 10//10
f 10//10 22//22 15//15
f 15//15 22//22 17//17
f 17//17 23//23 20//20
f 7//7 24//24 12//12
f 12//12 25//25 8//8
f 12//12 24//24 25//25
f 24//24 26//26 25//25
f 26//26 27//27 28//28
f 26//26 28//28 29//29
f 26//26 30//30 27//27
f 7//7 31//31 24//24
f 24//24 31//31 26//26
f 27//27 30//30 32//32
f 32//32 30//30 33//33
f 8//8 25//25 34//34
f 26//26 29//29 35//35
f 25//25 26//26 36//36
f 32//32 33//33 37//37
f 37//37 33//33 38//38
f 37//37 38//38 39//39
f 37//37 39//39 40//40
f 7//7 19//19 31//31
f 26//26 41//41 30//30
f 26//26 31//31 41//41
f 41//41 42//42 30//30
f 41//41 43//43 42//42
f 19//19 18//18 31//31
f 18//18 20//20 44//44
f 18//18 44//44 31//31
f 31//31 44//44 41//41
f 41//41 45//45 46//46
f 41//41 46//46 43//43
f 41//41 47//47 45//45
f 41//41 48//48 47//47
f 43//43 46//46 49//49
f 43//43 49//49 50//50
f 50//50 49//49 51//51
f 20//20 52//52 44//44
f 41//41 53//53 48//48
f 44//44 54//54 41//41
f 2//2 55//55 13//13
f 2//2 14//14 55//55
f 3//3 13//13 21//21
f 8//8 34//34 14//14
f 13//13 55//55 56//56
f 55//55 57//57 56//56
f 55//55 14//14 57//57
f 56//56 57//57 58//58
f 14//14 59//59 57//57
f 57//57 59//59 58//58
f 13//13 56//56 60//60
f 56//56 58//58 60//60
f 58//58 61//61 62//62
f 14//14 34//34 59//59
f 58//58 59//59 61//61
f 10//10 21//21 22//22
f 17//17 22//22 23//23
f 20//20 23//23 52//52
f 13//13 60//60 21//21
f 58//58 62//62 60//60
f 21//21 60//60 22//22
f 22//22 60//60 63//63
f 22//22 63//63 23//23
f 60//60 62//62 63//63
f 23//23 63//63 52//52
f 63//63 62//62 64//64
f 62//62 61//61 64//64
f 63//63 65//65 52//52
f 63//63 64//64 65//65
f 26//26 35//35 36//36
f 25//25 66//66 34//34
f 25//25 36//36 66//66
f 36//36 35//35 67//67
f 40//40 39//39 68//68
f 69//69 68//68 39//39
f 69//69 70//70 68//68
f 36//36 67//67 71//71
f 36//36 71//71 72//72
f 36//36 70//70 69//69
f 36//36 72//72 70//70
f 34//34 66//66 59//59
f 59//59 73//73 61//61
f 59//59 66//66 73//73
f 66//66 36//36 73//73
f 36//36 69//69 74//74
f 36//36 74//74 75//75
f 61//61 73//73 64//64
f 36//36 54//54 73//73
f 50//50 51//51 76//76
f 50//50 76//76 77//77
f 78//78 77//77 76//76
f 78//78 76//76 79//79
f 41//41 54//54 53//53
f 44//44 52//52 80//80
f 44//44 80//80 54//54
f 54//54 81//81 53//53
f 78//78 79//79 75//75
f 75//75 79//79 82//82
f 36//36 75//75 54//54
f 73//73 54//54 83//83
f 73//73 83//83 64//64
f 54//54 75//75 82//82
f 54//54 84//84 81//81
f 54//54 82//82 84//84
f 52//52 65//65 80//80
f 65//65 64//64 83//83
f 65//65 83//83 80//80
f 80//80 83//83 54//54
f 85//85 86//86 87//87
f 88//88 89//89 86//86
f 85//85 88//88 86//86
f 85//85 87//87 90//90
f 91//91 92//92 93//93
f 94//94 95//95 89//89
f 90//90 87//87 96//96
f 88//88 94//94 89//89
f 90//90 96//96 97//97
f 93//93 92//92 98//98
f 92//92 99//99 98//98
f 100//100 101//101 95//95
f 94//94 100//100 95//95
f 98//98 99//99 102//102
f 99//99 103//103 102//102
f 97//97 96//96 104//104
f 97//97 104//104 105//105
f 106//106 107//107 101//101
f 100//100 106//106 101//101
f 102//102 103//103 108//108
f 103//103 109//109 108//108
f 110//110 111//111 107//107
f 112//112 113//113 114//114
f 106//106 110//110 107//107
f 112//112 114//114 115//115
f 108//108 109//109 116//116
f 109//109 117//117 116//116
f 105//105 104//104 113//113
f 105//105 113//113 112//112
f 118//118 119//119 111//111
f 115//115 114//114 119//119
f 110//110 118//118 111//111
f 118//118 115//115 119//119
f 116//116 117//117 120//120
f 121//121 122//122 123//123
f 121//121 123//123 124//124
f 125//125 126//126 122//122
f 121//121 125//125 122//122
f 127//127 128//128 129//129
f 130//130 131//131 126//126
f 125//125 130//130 126//126
f 129//129 132//132 133//133
f 124//124 123//123 134//134
f 124//124 134//134 135//135
f 127//127 136//136 128//128
f 135//135 134//134 137//137
f 135//135 137//137 138//138
f 129//129 128//128 132//132
f 138//138 137//137 139//139
f 138//138 139//139 140//140
f 133//133 132//132 141//141
f 142//142 143//143 131//131
f 130//130 142//142 131//131
f 133//133 141//141 144//144
f 145//145 146//146 143//143
f 142//142 145//145 143//143
f 144//144 147//147 148//148
f 149//149 150//150 146//146
f 145//145 149//149 146//146
f 140//140 139//139 151//151
f 140//140 151//151 152//152
f 141//141 147//147 144//144
f 152//152 151//151 153//153
f 152//152 153//153 154//154
f 148//148 147//147 155//155
f 154//154 153//153 150//150
f 154//154 150//150 149//149
f 148//148 155//155 156//156
f 157//157 158//158 159//159
f 160//160 159//159 161//161
f 157//157 159//159 160//160
f 160//160 161//161 162//162
f 163//163 164//164 165//165
f 166//166 167//167 168//168
f 169//169 166//166 168//168
f 169//169 168//168 158//158
f 162//162 161//161 170//170
f 157//157 169//169 158//158
f 163//163 165//165 171//171
f 165//165 172//172 171//171
f 162//162 170//170 173//173
f 173//173 170//170 174//174
f 171//171 172//172 175//175
f 172//172 176//176 175//175
f 173//173 174//174 177//177
f 178//178 179//179 167//167
f 166//166 178//178 167//167
f 177//177 174//174 180//180
f 175//175 176//176 181//181
f 176//176 182//182 181//181
f 177//177 180//180 183//183
f 184//184 185//185 179//179
f 183//183 180//180 186//186
f 178//178 184//184 179//179
f 181//181 182//182 187//187
f 182//182 188//188 187//187
f 183//183 186//186 189//189
f 189//189 186//186 190//190
f 191//191 190//190 185//185
f 184//184 191//191 185//185
f 189//189 190//190 191//191
f 187//187 188//188 192//192
