v -0.24566 -0.04666 -0.24000
v -0.24000 -0.04666 -0.24566
v -0.24000 -0.04900 -0.24000
v -0.24566 -0.04100 -0.24566
v -0.24800 -0.04100 -0.24000
v -0.24000 -0.04100 -0.24800
v -0.24566 0.04100 -0.24566
v -0.24566 -0.04666 0.24000
v -0.24800 0.04100 -0.24000
v -0.24000 0.04100 -0.24800
v -0.24800 0.04100 0.24000
v 0.24000 -0.04900 -0.24000
v 0.24000 -0.04100 -0.24800
v 0.24000 0.04100 -0.24800
v -0.24000 -0.04900 0.24000
v -0.24800 -0.04100 0.24000
v -0.24000 -0.04666 0.24566
v -0.24566 -0.04100 0.24566
v -0.24000 -0.04100 0.24800
v -0.24566 0.04100 0.24566
v -0.24000 0.04100 0.24800
v 0.24000 -0.04900 0.24000
v 0.24000 -0.04100 0.24800
v -0.24566 0.04666 -0.24000
v -0.24000 0.04666 -0.24566
v -0.24000 0.04900 -0.24000
v -0.18995 0.04900 -0.16250
v -0.16250 0.04900 -0.18995
v -0.20000 0.04900 -0.12500
v -0.18995 0.04900 -0.08750
v -0.12500 0.04900 -0.20000
v -0.24000 0.04900 0.24000
v -0.20000 0.04900 0.12500
v -0.18995 0.04900 0.08750
v -0.16250 0.04900 -0.06005
v -0.12500 0.04900 0.05000
v -0.12500 0.04900 -0.05000
v 0.24000 0.04666 -0.24566
v 0.12500 0.04900 -0.20000
v -0.08750 0.04900 -0.18995
v 0.08750 0.04900 -0.18995
v -0.06005 0.04900 -0.16250
v -0.05000 0.04900 -0.12500
v 0.05000 0.04900 -0.12500
v -0.08750 0.04900 -0.06005
v -0.06005 0.04900 -0.08750
v 0.06005 0.04900 -0.08750
v -0.08750 0.04900 0.06005
v -0.24566 0.04666 0.24000
v -0.16250 0.04900 0.06005
v -0.24000 0.04666 0.24566
v -0.18995 0.04900 0.16250
v -0.16250 0.04900 0.18995
v -0.12500 0.04900 0.20000
v -0.06005 0.04900 0.08750
v 0.24000 0.04100 0.24800
v 0.12500 0.04900 0.20000
v 0.24000 0.04900 0.24000
v -0.08750 0.04900 0.18995
v 0.08750 0.04900 0.18995
v -0.06005 0.04900 0.16250
v 0.24000 -0.04666 -0.24566
v 0.24566 -0.04666 -0.24000
v 0.24566 -0.04100 -0.24566
v 0.24800 -0.04100 -0.24000
v 0.24800 0.04100 -0.24000
v 0.24566 -0.04666 0.24000
v 0.24800 -0.04100 0.24000
v 0.24566 0.04100 -0.24566
v 0.24000 -0.04666 0.24566
v 0.24566 -0.04100 0.24566
v 0.24800 0.04100 0.24000
v 0.24566 0.04100 0.24566
v 0.24000 0.04900 -0.24000
v 0.06005 0.04900 -0.16250
v 0.08750 0.04900 -0.06005
v 0.12500 0.04900 -0.05000
v 0.16250 0.04900 -0.18995
v 0.24566 0.04666 -0.24000
v 0.18995 0.04900 -0.16250
v 0.20000 0.04900 -0.12500
v 0.16250 0.04900 -0.06005
v 0.18995 0.04900 0.08750
v 0.18995 0.04900 -0.08750
v 0.20000 0.04900 0.12500
v -0.05000 0.04900 0.12500
v 0.06005 0.04900 0.08750
v 0.08750 0.04900 0.06005
v 0.05000 0.04900 0.12500
v 0.06005 0.04900 0.16250
v 0.24000 0.04666 0.24566
v 0.12500 0.04900 0.05000
v 0.16250 0.04900 0.06005
v 0.24566 0.04666 0.24000
v 0.16250 0.04900 0.18995
v 0.18995 0.04900 0.16250
v -0.18995 0.09900 -0.16250
v -0.18995 0.04900 -0.16250
v -0.20000 0.04900 -0.12500
v -0.20000 0.09900 -0.12500
v -0.18995 0.09900 -0.16250
v -0.20000 0.09900 -0.12500
v -0.18995 0.09900 -0.08750
v -0.12500 0.09900 -0.20000
v -0.12500 0.04900 -0.20000
v -0.16250 0.04900 -0.18995
v -0.16250 0.09900 -0.18995
v -0.16250 0.09900 -0.18995
v -0.16250 0.09900 -0.06005
v -0.12500 0.09900 -0.20000
v -0.18995 0.04900 -0.08750
v -0.18995 0.09900 -0.08750
v -0.16250 0.04900 -0.06005
v -0.16250 0.09900 -0.06005
v -0.12500 0.04900 -0.05000
v -0.12500 0.09900 -0.05000
v -0.12500 0.09900 -0.05000
v -0.08750 0.09900 -0.18995
v -0.08750 0.04900 -0.18995
v -0.06005 0.09900 -0.16250
v -0.06005 0.04900 -0.16250
v -0.08750 0.09900 -0.18995
v -0.08750 0.09900 -0.06005
v -0.06005 0.09900 -0.16250
v -0.05000 0.09900 -0.12500
v -0.05000 0.04900 -0.12500
v -0.06005 0.09900 -0.08750
v -0.05000 0.09900 -0.12500
v -0.08750 0.09900 -0.06005
v -0.08750 0.04900 -0.06005
v -0.06005 0.04900 -0.08750
v -0.06005 0.09900 -0.08750
v -0.18995 0.09900 0.08750
v -0.18995 0.04900 0.08750
v -0.20000 0.04900 0.12500
v -0.20000 0.09900 0.12500
v -0.12500 0.09900 0.05000
v -0.12500 0.04900 0.05000
v -0.16250 0.04900 0.06005
v -0.16250 0.09900 0.06005
v -0.18995 0.09900 0.08750
v -0.18995 0.09900 0.16250
v -0.16250 0.09900 0.06005
v -0.16250 0.09900 0.18995
v -0.12500 0.09900 0.05000
v -0.18995 0.04900 0.16250
v -0.18995 0.09900 0.16250
v -0.20000 0.09900 0.12500
v -0.16250 0.04900 0.18995
v -0.16250 0.09900 0.18995
v -0.12500 0.04900 0.20000
v -0.12500 0.09900 0.20000
v -0.12500 0.09900 0.20000
v -0.08750 0.09900 0.06005
v -0.08750 0.04900 0.06005
v -0.06005 0.09900 0.08750
v -0.06005 0.04900 0.08750
v -0.08750 0.09900 0.06005
v -0.08750 0.09900 0.18995
v -0.06005 0.09900 0.08750
v -0.05000 0.09900 0.12500
v -0.05000 0.04900 0.12500
v -0.08750 0.09900 0.18995
v -0.08750 0.04900 0.18995
v -0.06005 0.04900 0.16250
v -0.06005 0.09900 0.16250
v -0.06005 0.09900 0.16250
v -0.05000 0.09900 0.12500
v 0.06005 0.09900 -0.16250
v 0.06005 0.04900 -0.16250
v 0.05000 0.04900 -0.12500
v 0.05000 0.09900 -0.12500
v 0.06005 0.09900 -0.16250
v 0.05000 0.09900 -0.12500
v 0.06005 0.09900 -0.08750
v 0.12500 0.09900 -0.20000
v 0.12500 0.04900 -0.20000
v 0.08750 0.04900 -0.18995
v 0.08750 0.09900 -0.18995
v 0.08750 0.09900 -0.18995
v 0.08750 0.09900 -0.06005
v 0.12500 0.09900 -0.20000
v 0.06005 0.04900 -0.08750
v 0.06005 0.09900 -0.08750
v 0.08750 0.04900 -0.06005
v 0.08750 0.09900 -0.06005
v 0.12500 0.04900 -0.05000
v 0.12500 0.09900 -0.05000
v 0.12500 0.09900 -0.05000
v 0.16250 0.09900 -0.18995
v 0.16250 0.04900 -0.18995
v 0.18995 0.09900 -0.16250
v 0.18995 0.04900 -0.16250
v 0.16250 0.09900 -0.18995
v 0.16250 0.09900 -0.06005
v 0.18995 0.09900 -0.16250
v 0.20000 0.09900 -0.12500
v 0.20000 0.04900 -0.12500
v 0.18995 0.09900 -0.08750
v 0.20000 0.09900 -0.12500
v 0.16250 0.09900 -0.06005
v 0.16250 0.04900 -0.06005
v 0.18995 0.04900 -0.08750
v 0.18995 0.09900 -0.08750
v 0.06005 0.09900 0.08750
v 0.06005 0.04900 0.08750
v 0.05000 0.04900 0.12500
v 0.05000 0.09900 0.12500
v 0.12500 0.09900 0.05000
v 0.12500 0.04900 0.05000
v 0.08750 0.04900 0.06005
v 0.08750 0.09900 0.06005
v 0.06005 0.09900 0.08750
v 0.06005 0.09900 0.16250
v 0.08750 0.09900 0.06005
v 0.08750 0.09900 0.18995
v 0.12500 0.09900 0.05000
v 0.06005 0.04900 0.16250
v 0.06005 0.09900 0.16250
v 0.05000 0.09900 0.12500
v 0.08750 0.04900 0.18995
v 0.08750 0.09900 0.18995
v 0.12500 0.04900 0.20000
v 0.12500 0.09900 0.20000
v 0.12500 0.09900 0.20000
v 0.16250 0.09900 0.06005
v 0.16250 0.04900 0.06005
v 0.18995 0.09900 0.08750
v 0.18995 0.04900 0.08750
v 0.16250 0.09900 0.06005
v 0.16250 0.09900 0.18995
v 0.18995 0.09900 0.08750
v 0.20000 0.09900 0.12500
v 0.20000 0.04900 0.12500
v 0.16250 0.09900 0.18995
v 0.16250 0.04900 0.18995
v 0.18995 0.04900 0.16250
v 0.18995 0.09900 0.16250
v 0.18995 0.09900 0.16250
v 0.20000 0.09900 0.12500
vn -0.6887 -0.6887 -0.2265
vn -0.2265 -0.6887 -0.6887
vn -0.1877 -0.9641 -0.1877
vn -0.6887 -0.2265 -0.6887
vn -0.9641 -0.1877 -0.1877
vn -0.1877 -0.1877 -0.9641
vn -0.6887 0.2265 -0.6887
vn -0.6887 -0.6887 0.2265
vn -0.9641 0.1877 -0.1877
vn -0.1877 0.1877 -0.9641
vn -0.9641 0.1877 0.1877
vn 0.1877 -0.9641 -0.1877
vn 0.1877 -0.1877 -0.9641
vn 0.1877 0.1877 -0.9641
vn -0.1877 -0.9641 0.1877
vn -0.9641 -0.1877 0.1877
vn -0.2265 -0.6887 0.6887
vn -0.6887 -0.2265 0.6887
vn -0.1877 -0.1877 0.9641
vn -0.6887 0.2265 0.6887
vn -0.1877 0.1877 0.9641
vn 0.1877 -0.9641 0.1877
vn 0.1877 -0.1877 0.9641
vn -0.6887 0.6887 -0.2265
vn -0.2265 0.6887 -0.6887
vn -0.1877 0.9641 -0.1877
vn 0.0000 1.0000 0.0000
vn 0.0000 1.0000 0.0000
vn 0.0000 1.0000 0.0000
vn 0.0000 1.0000 0.0000
vn 0.0000 1.0000 0.0000
vn -0.1877 0.9641 0.1877
vn 0.0000 1.0000 0.0000
vn 0.0000 1.0000 0.0000
vn 0.0000 1.0000 0.0000
vn 0.0000 1.0000 0.0000
vn 0.0000 1.0000 0.0000
vn 0.2265 0.6887 -0.6887
vn 0.0000 1.0000 0.0000
vn 0.0000 1.0000 0.0000
vn 0.0000 1.0000 0.0000
vn 0.0000 1.0000 0.0000
vn 0.0000 1.0000 0.0000
vn 0.0000 1.0000 0.0000
vn 0.0000 1.0000 0.0000
vn 0.0000 1.0000 0.0000
vn 0.0000 1.0000 0.0000
vn 0.0000 1.0000 0.0000
vn -0.6887 0.6887 0.2265
vn 0.0000 1.0000 0.0000
vn -0.2265 0.6887 0.6887
vn 0.0000 1.0000 0.0000
vn 0.0000 1.0000 0.0000
vn 0.0000 1.0000 0.0000
vn 0.0000 1.0000 0.0000
vn 0.1877 0.1877 0.9641
vn 0.0000 1.0000 0.0000
vn 0.1877 0.9641 0.1877
vn 0.0000 1.0000 0.0000
vn 0.0000 1.0000 0.0000
vn 0.0000 1.0000 0.0000
vn 0.2265 -0.6887 -0.6887
vn 0.6887 -0.6887 -0.2265
vn 0.6887 -0.2265 -0.6887
vn 0.9641 -0.1877 -0.1877
vn 0.9641 0.1877 -0.1877
vn 0.6887 -0.6887 0.2265
vn 0.9641 -0.1877 0.1877
vn 0.6887 0.2265 -0.6887
vn 0.2265 -0.6887 0.6887
vn 0.6887 -0.2265 0.6887
vn 0.9641 0.1877 0.1877
vn 0.6887 0.2265 0.6887
vn 0.1877 0.9641 -0.1877
vn 0.0000 1.0000 0.0000
vn 0.0000 1.0000 0.0000
vn 0.0000 1.0000 0.0000
vn 0.0000 1.0000 0.0000
vn 0.6887 0.6887 -0.2265
vn 0.0000 1.0000 0.0000
vn 0.0000 1.0000 0.0000
vn 0.0000 1.0000 0.0000
vn 0.0000 1.0000 0.0000
vn 0.0000 1.0000 0.0000
vn 0.0000 1.0000 0.0000
vn 0.0000 1.0000 0.0000
vn 0.0000 1.0000 0.0000
vn 0.0000 1.0000 0.0000
vn 0.0000 1.0000 0.0000
vn 0.0000 1.0000 0.0000
vn 0.2265 0.6887 0.6887
vn 0.0000 1.0000 0.0000
vn 0.0000 1.0000 0.0000
vn 0.6887 0.6887 0.2265
vn 0.0000 1.0000 0.0000
vn 0.0000 1.0000 0.0000
vn -0.8660 0.0000 -0.5000
vn -0.8660 0.0000 -0.5000
vn -1.0000 0.0000 0.0000
vn -1.0000 0.0000 0.0000
vn 0.0000 1.0000 0.0000
vn 0.0000 1.0000 0.0000
vn 0.0000 1.0000 0.0000
vn 0.0000 0.0000 -1.0000
vn 0.0000 0.0000 -1.0000
vn -0.5000 0.0000 -0.8660
vn -0.5000 0.0000 -0.8660
vn 0.0000 1.0000 0.0000
vn 0.0000 1.0000 0.0000
vn 0.0000 1.0000 0.0000
vn -0.8660 0.0000 0.5000
vn -0.8660 0.0000 0.5000
vn -0.5000 0.0000 0.8660
vn -0.5000 0.0000 0.8660
vn 0.0000 0.0000 1.0000
vn 0.0000 1.0000 0.0000
vn 0.0000 0.0000 1.0000
vn 0.5000 0.0000 -0.8660
vn 0.5000 0.0000 -0.8660
vn 0.8660 0.0000 -0.5000
vn 0.8660 0.0000 -0.5000
vn 0.0000 1.0000 0.0000
vn 0.0000 1.0000 0.0000
vn 0.0000 1.0000 0.0000
vn 1.0000 0.0000 0.0000
vn 1.0000 0.0000 0.0000
vn 0.0000 1.0000 0.0000
vn 0.0000 1.0000 0.0000
vn 0.5000 0.0000 0.8660
vn 0.5000 0.0000 0.8660
vn 0.8660 0.0000 0.5000
vn 0.8660 0.0000 0.5000
vn -0.8660 0.0000 -0.5000
vn -0.8660 0.0000 -0.5000
vn -1.0000 0.0000 0.0000
vn -1.0000 0.0000 0.0000
vn 0.0000 0.0000 -1.0000
vn -0.0000 0.0000 -1.0000
vn -0.5000 0.0000 -0.8660
vn -0.5000 0.0000 -0.8660
vn 0.0000 1.0000 0.0000
vn 0.0000 1.0000 0.0000
vn 0.0000 1.0000 0.0000
vn 0.0000 1.0000 0.0000
vn 0.0000 1.0000 0.0000
vn -0.8660 0.0000 0.5000
vn -0.8660 0.0000 0.5000
vn 0.0000 1.0000 0.0000
vn -0.5000 0.0000 0.8660
vn -0.5000 0.0000 0.8660
vn 0.0000 0.0000 1.0000
vn 0.0000 1.0000 0.0000
vn -0.0000 0.0000 1.0000
vn 0.5000 0.0000 -0.8660
vn 0.5000 0.0000 -0.8660
vn 0.8660 0.0000 -0.5000
vn 0.8660 0.0000 -0.5000
vn 0.0000 1.0000 0.0000
vn 0.0000 1.0000 0.0000
vn 0.0000 1.0000 0.0000
vn 1.0000 0.0000 0.0000
vn 1.0000 0.0000 0.0000
vn 0.5000 0.0000 0.8660
vn 0.5000 0.0000 0.8660
vn 0.8660 0.0000 0.5000
vn 0.8660 0.0000 0.5000
vn 0.0000 1.0000 0.0000
vn 0.0000 1.0000 0.0000
vn -0.8660 0.0000 -0.5000
vn -0.8660 0.0000 -0.5000
vn -1.0000 0.0000 0.0000
vn -1.0000 0.0000 -0.0000
vn 0.0000 1.0000 0.0000
vn 0.0000 1.0000 0.0000
vn 0.0000 1.0000 0.0000
vn 0.0000 0.0000 -1.0000
vn 0.0000 0.0000 -1.0000
vn -0.5000 0.0000 -0.8660
vn -0.5000 0.0000 -0.8660
vn 0.0000 1.0000 0.0000
vn 0.0000 1.0000 0.0000
vn 0.0000 1.0000 0.0000
vn -0.8660 0.0000 0.5000
vn -0.8660 0.0000 0.5000
vn -0.5000 0.0000 0.8660
vn -0.5000 0.0000 0.8660
vn 0.0000 0.0000 1.0000
vn 0.0000 1.0000 0.0000
vn 0.0000 0.0000 1.0000
vn 0.5000 0.0000 -0.8660
vn 0.5000 0.0000 -0.8660
vn 0.8660 0.0000 -0.5000
vn 0.8660 0.0000 -0.5000
vn 0.0000 1.0000 0.0000
vn 0.0000 1.0000 0.0000
vn 0.0000 1.0000 0.0000
vn 1.0000 0.0000 0.0000
vn 1.0000 0.0000 -0.0000
vn 0.0000 1.0000 0.0000
vn 0.0000 1.0000 0.0000
vn 0.5000 0.0000 0.8660
vn 0.5000 0.0000 0.8660
vn 0.8660 0.0000 0.5000
vn 0.8660 0.0000 0.5000
vn -0.8660 0.0000 -0.5000
vn -0.8660 0.0000 -0.5000
vn -1.0000 0.0000 0.0000
vn -1.0000 0.0000 -0.0000
vn 0.0000 0.0000 -1.0000
vn -0.0000 0.0000 -1.0000
vn -0.5000 0.0000 -0.8660
vn -0.5000 0.0000 -0.8660
vn 0.0000 1.0000 0.0000
vn 0.0000 1.0000 0.0000
vn 0.0000 1.0000 0.0000
vn 0.0000 1.0000 0.0000
vn 0.0000 1.0000 0.0000
vn -0.8660 0.0000 0.5000
vn -0.8660 0.0000 0.5000
vn 0.0000 1.0000 0.0000
vn -0.5000 0.0000 0.8660
vn -0.5000 0.0000 0.8660
vn 0.0000 0.0000 1.0000
vn 0.0000 1.0000 0.0000
vn -0.0000 0.0000 1.0000
vn 0.5000 0.0000 -0.8660
vn 0.5000 0.0000 -0.8660
vn 0.8660 0.0000 -0.5000
vn 0.8660 0.0000 -0.5000
vn 0.0000 1.0000 0.0000
vn 0.0000 1.0000 0.0000
vn 0.0000 1.0000 0.0000
vn 1.0000 0.0000 0.0000
vn 1.0000 0.0000 -0.0000
vn 0.5000 0.0000 0.8660
vn 0.5000 0.0000 0.8660
vn 0.8660 0.0000 0.5000
vn 0.8660 0.0000 0.5000
vn 0.0000 1.0000 0.0000
vn 0.0000 1.0000 0.0000
f 1//1 2//2 3//3
f 1//1 4//4 2//2
f 1//1 5//5 4//4
f 2//2 4//4 6//6
f 4//4 5//5 7//7
f 4//4 7//7 6//6
f 1//1 3//3 8//8
f 1//1 8//8 5//5
f 5//5 9//9 7//7
f 6//6 7//7 10//10
f 5//5 11//11 9//9
f 3//3 2//2 12//12
f 2//2 6//6 13//13
f 6//6 10//10 14//14
f 3//3 15//15 8//8
f 5//5 8//8 16//16
f 5//5 16//16 11//11
f 8//8 15//15 17//17
f 8//8 17//17 18//18
f 8//8 18//18 16//16
f 17//17 19//19 18//18
f 16//16 18//18 20//20
f 18//18 19//19 20//20
f 16//16 20//20 11//11
f 19//19 21//21 20//20
f 3//3 22//22 15//15
f 15//15 22//22 17//17
f 17//17 23//23 19//19
f 19//19 23//23 21//21
f 7//7 9//9 24//24
f 7//7 25//25 10//10
f 7//7 24//24 25//25
f 24//24 26//26 25//25
f 26//26 27//27 28//28
f 26//26 29//29 27//27
f 26//26 30//30 29//29
f 26//26 28//28 31//31
f 9//9 11//11 24//24
f 24//24 32//32 26//26
f 26//26 33//33 30//30
f 30//30 34//34 35//35
f 35//35 36//36 37//37
f 10//10 25//25 38//38
f 25//25 26//26 38//38
f 26//26 31//31 39//39
f 31//31 40//40 41//41
f 40//40 42//42 41//41
f 42//42 43//43 44//44
f 37//37 36//36 45//45
f 43//43 46//46 44//44
f 45//45 47//47 46//46
f 45//45 48//48 47//47
f 26//26 32//32 33//33
f 30//30 33//33 34//34
f 24//24 11//11 49//49
f 24//24 49//49 32//32
f 35//35 34//34 50//50
f 35//35 50//50 36//36
f 11//11 20//20 49//49
f 20//20 21//21 51//51
f 32//32 52//52 33//33
f 20//20 51//51 49//49
f 49//49 51//51 32//32
f 32//32 53//53 52//52
f 32//32 54//54 53//53
f 45//45 36//36 48//48
f 55//55 47//47 48//48
f 21//21 56//56 51//51
f 32//32 57//57 54//54
f 51//51 58//58 32//32
f 59//59 60//60 61//61
f 54//54 57//57 59//59
f 2//2 62//62 12//12
f 2//2 13//13 62//62
f 6//6 14//14 13//13
f 3//3 12//12 22//22
f 12//12 62//62 63//63
f 62//62 64//64 63//63
f 62//62 13//13 64//64
f 63//63 64//64 65//65
f 13//13 14//14 64//64
f 64//64 66//66 65//65
f 12//12 63//63 67//67
f 63//63 65//65 67//67
f 65//65 66//66 68//68
f 64//64 14//14 69//69
f 64//64 69//69 66//66
f 17//17 22//22 70//70
f 17//17 70//70 23//23
f 21//21 23//23 56//56
f 12//12 67//67 22//22
f 65//65 68//68 67//67
f 22//22 67//67 70//70
f 70//70 67//67 71//71
f 70//70 71//71 23//23
f 67//67 68//68 71//71
f 23//23 71//71 56//56
f 68//68 72//72 71//71
f 68//68 66//66 72//72
f 71//71 73//73 56//56
f 71//71 72//72 73//73
f 31//31 41//41 39//39
f 26//26 39//39 74//74
f 42//42 75//75 41//41
f 42//42 44//44 75//75
f 10//10 38//38 14//14
f 26//26 74//74 38//38
f 46//46 47//47 44//44
f 55//55 76//76 47//47
f 55//55 77//77 76//76
f 74//74 39//39 78//78
f 14//14 38//38 69//69
f 69//69 79//79 66//66
f 74//74 78//78 80//80
f 69//69 38//38 79//79
f 38//38 74//74 79//79
f 74//74 80//80 81//81
f 82//82 83//83 84//84
f 66//66 79//79 72//72
f 74//74 81//81 85//85
f 74//74 58//58 79//79
f 81//81 84//84 83//83
f 55//55 86//86 77//77
f 86//86 61//61 82//82
f 61//61 87//87 82//82
f 86//86 82//82 77//77
f 82//82 87//87 88//88
f 61//61 89//89 87//87
f 61//61 90//90 89//89
f 61//61 60//60 90//90
f 59//59 57//57 60//60
f 32//32 58//58 57//57
f 51//51 56//56 91//91
f 51//51 91//91 58//58
f 82//82 88//88 92//92
f 82//82 92//92 93//93
f 82//82 93//93 83//83
f 81//81 83//83 85//85
f 74//74 85//85 58//58
f 79//79 94//94 72//72
f 79//79 58//58 94//94
f 58//58 95//95 57//57
f 56//56 73//73 91//91
f 72//72 94//94 73//73
f 58//58 85//85 96//96
f 58//58 96//96 95//95
f 73//73 94//94 91//91
f 91//91 94//94 58//58
f 97//97 98//98 99//99
f 97//97 99//99 100//100
f 101//101 102//102 103//103
f 104//104 105//105 106//106
f 107//107 106//106 98//98
f 107//107 104//104 106//106
f 97//97 107//107 98//98
f 101//101 103//103 108//108
f 108//108 109//109 110//110
f 100//100 99//99 111//111
f 100//100 111//111 112//112
f 112//112 111//111 113//113
f 114//114 113//113 115//115
f 112//112 113//113 114//114
f 108//108 103//103 109//109
f 110//110 109//109 116//116
f 114//114 115//115 117//117
f 118//118 119//119 105//105
f 120//120 121//121 119//119
f 104//104 118//118 105//105
f 110//110 116//116 122//122
f 118//118 120//120 119//119
f 122//122 123//123 124//124
f 125//125 126//126 121//121
f 120//120 125//125 121//121
f 124//124 127//127 128//128
f 129//129 130//130 131//131
f 117//117 115//115 130//130
f 116//116 123//123 122//122
f 129//129 131//131 132//132
f 124//124 123//123 127//127
f 117//117 130//130 129//129
f 132//132 131//131 126//126
f 125//125 132//132 126//126
f 133//133 134//134 135//135
f 133//133 135//135 136//136
f 137//137 138//138 139//139
f 140//140 139//139 134//134
f 140//140 137//137 139//139
f 133//133 140//140 134//134
f 141//141 142//142 143//143
f 143//143 144//144 145//145
f 136//136 135//135 146//146
f 136//136 146//146 147//147
f 141//141 148//148 142//142
f 147//147 146//146 149//149
f 150//150 149//149 151//151
f 147//147 149//149 150//150
f 143//143 142//142 144//144
f 145//145 144//144 152//152
f 150//150 151//151 153//153
f 154//154 155//155 138//138
f 156//156 157//157 155//155
f 137//137 154//154 138//138
f 145//145 152//152 158//158
f 154//154 156//156 155//155
f 158//158 159//159 160//160
f 161//161 162//162 157//157
f 156//156 161//161 157//157
f 163//163 164//164 165//165
f 153//153 151//151 164//164
f 152//152 159//159 158//158
f 163//163 165//165 166//166
f 160//160 159//159 167//167
f 153//153 164//164 163//163
f 166//166 165//165 162//162
f 166//166 162//162 161//161
f 160//160 167//167 168//168
f 169//169 170//170 171//171
f 169//169 171//171 172//172
f 173//173 174//174 175//175
f 176//176 177//177 178//178
f 179//179 178//178 170//170
f 179//179 176//176 178//178
f 169//169 179//179 170//170
f 173//173 175//175 180//180
f 180//180 181//181 182//182
f 172//172 171//171 183//183
f 172//172 183//183 184//184
f 184//184 183//183 185//185
f 186//186 185//185 187//187
f 184//184 185//185 186//186
f 180//180 175//175 181//181
f 181//181 188//188 182//182
f 186//186 187//187 189//189
f 190//190 191//191 177//177
f 192//192 193//193 191//191
f 176//176 190//190 177//177
f 182//182 188//188 194//194
f 190//190 192//192 191//191
f 194//194 195//195 196//196
f 197//197 198//198 193//193
f 192//192 197//197 193//193
f 196//196 199//199 200//200
f 201//201 202//202 203//203
f 189//189 187//187 202//202
f 194//194 188//188 195//195
f 201//201 203//203 204//204
f 196//196 195//195 199//199
f 189//189 202//202 201//201
f 204//204 203//203 198//198
f 197//197 204//204 198//198
f 205//205 206//206 207//207
f 205//205 207//207 208//208
f 209//209 210//210 211//211
f 212//212 211//211 206//206
f 212//212 209//209 211//211
f 205//205 212//212 206//206
f 213//213 214//214 215//215
f 215//215 216//216 217//217
f 208//208 207//207 218//218
f 208//208 218//218 219//219
f 213//213 220//220 214//214
f 219//219 218//218 221//221
f 222//222 221//221 223//223
f 219//219 221//221 222//222
f 215//215 214//214 216//216
f 216//216 224//224 217//217
f 222//222 223//223 225//225
f 226//226 227//227 210//210
f 228//228 229//229 227//227
f 209//209 226//226 210//210
f 217//217 224//224 230//230
f 226//226 228//228 227//227
f 230//230 231//231 232//232
f 233//233 234//234 229//229
f 228//228 233//233 229//229
f 235//235 236//236 237//237
f 225//225 223//223 236//236
f 230//230 224//224 231//231
f 235//235 237//237 238//238
f 232//232 231//231 239//239
f 225//225 236//236 235//235
f 238//238 237//237 234//234
f 233//233 238//238 234//234
f 232//232 239//239 240//240
