v -0.12066 -0.04666 -0.74000
v -0.11500 -0.04666 -0.74566
v -0.11500 -0.04900 -0.74000
v -0.12066 -0.04100 -0.74566
v -0.12300 -0.04100 -0.74000
v -0.11500 -0.04100 -0.74800
v -0.12300 0.04100 -0.74000
v -0.11500 0.04100 -0.74800
v -0.11500 -0.04900 0.74000
v -0.12300 -0.04100 0.74000
v -0.12066 0.04100 -0.74566
v 0.11500 -0.04900 -0.74000
v 0.11500 -0.04100 -0.74800
v -0.12066 -0.04666 0.74000
v -0.11500 -0.04666 0.74566
v -0.12066 -0.04100 0.74566
v -0.11500 -0.04100 0.74800
v -0.12066 0.04100 0.74566
v -0.12300 0.04100 0.74000
v -0.11500 0.04100 0.74800
v 0.11500 -0.04900 0.74000
v 0.11500 -0.04666 0.74566
v 0.11500 -0.04100 0.74800
v -0.12066 0.04666 -0.74000
v -0.11500 0.04666 -0.74566
v -0.11500 0.04900 -0.74000
v -0.07500 0.04900 -0.62500
v -0.06495 0.04900 -0.66250
v -0.07500 0.04900 -0.37500
v -0.03750 0.04900 -0.68995
v -0.06495 0.04900 -0.58750
v -0.06495 0.04900 -0.41250
v -0.12066 0.04666 0.74000
v -0.11500 0.04900 0.74000
v -0.06495 0.04900 -0.33750
v -0.07500 0.04900 -0.12500
v -0.06495 0.04900 -0.16250
v -0.06495 0.04900 -0.08750
v -0.07500 0.04900 0.12500
v 0.11500 0.04100 -0.74800
v 0.00000 0.04900 -0.70000
v 0.11500 0.04900 -0.74000
v -0.03750 0.04900 -0.56005
v -0.03750 0.04900 -0.43995
v 0.00000 0.04900 -0.45000
v 0.00000 0.04900 -0.55000
v -0.03750 0.04900 -0.31005
v -0.03750 0.04900 -0.18995
v -0.06495 0.04900 0.08750
v -0.03750 0.04900 -0.06005
v 0.00000 0.04900 -0.30000
v 0.00000 0.04900 -0.20000
v 0.00000 0.04900 0.05000
v 0.00000 0.04900 -0.05000
v -0.07500 0.04900 0.37500
v -0.06495 0.04900 0.33750
v -0.06495 0.04900 0.16250
v -0.11500 0.04666 0.74566
v -0.06495 0.04900 0.41250
v -0.07500 0.04900 0.62500
v -0.06495 0.04900 0.58750
v -0.06495 0.04900 0.66250
v -0.03750 0.04900 0.68995
v -0.03750 0.04900 0.06005
v -0.03750 0.04900 0.31005
v -0.03750 0.04900 0.18995
v 0.00000 0.04900 0.30000
v 0.00000 0.04900 0.20000
v -0.03750 0.04900 0.56005
v -0.03750 0.04900 0.43995
v 0.00000 0.04900 0.70000
v 0.11500 0.04666 0.74566
v 0.11500 0.04900 0.74000
v 0.00000 0.04900 0.45000
v 0.00000 0.04900 0.55000
v 0.11500 -0.04666 -0.74566
v 0.12066 -0.04666 -0.74000
v 0.12066 -0.04100 -0.74566
v 0.12300 -0.04100 -0.74000
v 0.12066 0.04100 -0.74566
v 0.12066 -0.04666 0.74000
v 0.12300 0.04100 -0.74000
v 0.12300 -0.04100 0.74000
v 0.11500 0.04100 0.74800
v 0.12066 -0.04100 0.74566
v 0.12300 0.04100 0.74000
v 0.12066 0.04100 0.74566
v 0.03750 0.04900 -0.56005
v 0.03750 0.04900 -0.43995
v 0.11500 0.04666 -0.74566
v 0.03750 0.04900 -0.68995
v 0.06495 0.04900 -0.41250
v 0.06495 0.04900 -0.58750
v 0.03750 0.04900 -0.18995
v 0.03750 0.04900 -0.31005
v 0.03750 0.04900 0.06005
v 0.03750 0.04900 -0.06005
v 0.06495 0.04900 -0.16250
v 0.06495 0.04900 -0.33750
v 0.06495 0.04900 -0.08750
v 0.06495 0.04900 -0.66250
v 0.07500 0.04900 -0.62500
v 0.07500 0.04900 -0.37500
v 0.07500 0.04900 -0.12500
v 0.12066 0.04666 -0.74000
v 0.07500 0.04900 0.12500
v 0.06495 0.04900 0.08750
v 0.07500 0.04900 0.37500
v 0.03750 0.04900 0.31005
v 0.03750 0.04900 0.18995
v 0.06495 0.04900 0.16250
v 0.06495 0.04900 0.33750
v 0.03750 0.04900 0.43995
v 0.03750 0.04900 0.56005
v 0.06495 0.04900 0.41250
v 0.06495 0.04900 0.58750
v 0.03750 0.04900 0.68995
v 0.12066 0.04666 0.74000
v 0.07500 0.04900 0.62500
v 0.06495 0.04900 0.66250
v -0.07500 0.09900 -0.62500
v -0.07500 0.04900 -0.62500
v -0.06495 0.04900 -0.58750
v -0.06495 0.09900 -0.66250
v -0.06495 0.04900 -0.66250
v -0.06495 0.09900 -0.58750
v -0.07500 0.09900 -0.62500
v -0.06495 0.09900 -0.58750
v -0.06495 0.09900 -0.66250
v -0.03750 0.09900 -0.68995
v -0.03750 0.04900 -0.68995
v -0.03750 0.04900 -0.56005
v -0.03750 0.09900 -0.56005
v -0.03750 0.09900 -0.68995
v -0.03750 0.09900 -0.56005
v 0.00000 0.09900 -0.70000
v 0.00000 0.04900 -0.70000
v 0.00000 0.04900 -0.55000
v 0.00000 0.09900 -0.70000
v 0.00000 0.09900 -0.55000
v 0.00000 0.09900 -0.55000
v 0.03750 0.09900 -0.68995
v 0.03750 0.04900 -0.68995
v 0.03750 0.04900 -0.56005
v 0.03750 0.09900 -0.68995
v 0.03750 0.09900 -0.56005
v 0.03750 0.09900 -0.56005
v 0.06495 0.09900 -0.66250
v 0.06495 0.04900 -0.66250
v 0.06495 0.04900 -0.58750
v 0.06495 0.09900 -0.58750
v 0.06495 0.09900 -0.66250
v 0.06495 0.09900 -0.58750
v 0.07500 0.04900 -0.62500
v 0.07500 0.09900 -0.62500
v 0.07500 0.09900 -0.62500
v -0.06495 0.09900 -0.41250
v -0.06495 0.04900 -0.41250
v -0.07500 0.04900 -0.37500
v -0.07500 0.09900 -0.37500
v -0.07500 0.09900 -0.37500
v -0.06495 0.09900 -0.33750
v -0.06495 0.09900 -0.41250
v -0.06495 0.04900 -0.33750
v -0.06495 0.09900 -0.33750
v -0.03750 0.09900 -0.43995
v -0.03750 0.04900 -0.43995
v -0.03750 0.09900 -0.43995
v 0.00000 0.09900 -0.45000
v 0.00000 0.04900 -0.45000
v -0.03750 0.09900 -0.31005
v 0.00000 0.09900 -0.45000
v -0.03750 0.04900 -0.31005
v -0.03750 0.09900 -0.31005
v 0.00000 0.04900 -0.30000
v 0.00000 0.09900 -0.30000
v 0.00000 0.09900 -0.30000
v 0.03750 0.09900 -0.43995
v 0.03750 0.04900 -0.43995
v 0.03750 0.09900 -0.43995
v 0.06495 0.09900 -0.41250
v 0.06495 0.04900 -0.41250
v 0.03750 0.09900 -0.31005
v 0.06495 0.09900 -0.41250
v 0.03750 0.04900 -0.31005
v 0.03750 0.09900 -0.31005
v 0.06495 0.04900 -0.33750
v 0.06495 0.09900 -0.33750
v 0.06495 0.09900 -0.33750
v 0.07500 0.09900 -0.37500
v 0.07500 0.04900 -0.37500
v 0.07500 0.09900 -0.37500
v -0.07500 0.09900 -0.12500
v -0.07500 0.04900 -0.12500
v -0.06495 0.04900 -0.08750
v -0.06495 0.09900 -0.16250
v -0.06495 0.04900 -0.16250
v -0.06495 0.09900 -0.08750
v -0.07500 0.09900 -0.12500
v -0.06495 0.09900 -0.08750
v -0.06495 0.09900 -0.16250
v -0.03750 0.09900 -0.18995
v -0.03750 0.04900 -0.18995
v -0.03750 0.04900 -0.06005
v -0.03750 0.09900 -0.06005
v -0.03750 0.09900 -0.18995
v -0.03750 0.09900 -0.06005
v 0.00000 0.09900 -0.20000
v 0.00000 0.04900 -0.20000
v 0.00000 0.04900 -0.05000
v 0.00000 0.09900 -0.20000
v 0.00000 0.09900 -0.05000
v 0.00000 0.09900 -0.05000
v 0.03750 0.09900 -0.18995
v 0.03750 0.04900 -0.18995
v 0.03750 0.04900 -0.06005
v 0.03750 0.09900 -0.18995
v 0.03750 0.09900 -0.06005
v 0.03750 0.09900 -0.06005
v 0.06495 0.09900 -0.16250
v 0.06495 0.04900 -0.16250
v 0.06495 0.04900 -0.08750
v 0.06495 0.09900 -0.08750
v 0.06495 0.09900 -0.16250
v 0.06495 0.09900 -0.08750
v 0.07500 0.04900 -0.12500
v 0.07500 0.09900 -0.12500
v 0.07500 0.09900 -0.12500
v -0.07500 0.09900 0.12500
v -0.07500 0.04900 0.12500
v -0.06495 0.04900 0.16250
v -0.06495 0.09900 0.08750
v -0.06495 0.04900 0.08750
v -0.06495 0.09900 0.16250
v -0.07500 0.09900 0.12500
v -0.06495 0.09900 0.16250
v -0.06495 0.09900 0.08750
v -0.03750 0.09900 0.06005
v -0.03750 0.04900 0.06005
v -0.03750 0.04900 0.18995
v -0.03750 0.09900 0.18995
v -0.03750 0.09900 0.06005
v -0.03750 0.09900 0.18995
v 0.00000 0.09900 0.05000
v 0.00000 0.04900 0.05000
v 0.00000 0.04900 0.20000
v 0.00000 0.09900 0.05000
v 0.00000 0.09900 0.20000
v 0.00000 0.09900 0.20000
v 0.03750 0.09900 0.06005
v 0.03750 0.04900 0.06005
v 0.03750 0.04900 0.18995
v 0.03750 0.09900 0.06005
v 0.03750 0.09900 0.18995
v 0.03750 0.09900 0.18995
v 0.06495 0.09900 0.08750
v 0.06495 0.04900 0.08750
v 0.06495 0.04900 0.16250
v 0.06495 0.09900 0.16250
v 0.06495 0.09900 0.08750
v 0.06495 0.09900 0.16250
v 0.07500 0.04900 0.12500
v 0.07500 0.09900 0.12500
v 0.07500 0.09900 0.12500
v -0.06495 0.09900 0.33750
v -0.06495 0.04900 0.33750
v -0.07500 0.04900 0.37500
v -0.07500 0.09900 0.37500
v -0.06495 0.04900 0.41250
v -0.06495 0.09900 0.41250
v -0.06495 0.09900 0.33750
v -0.07500 0.09900 0.37500
v -0.06495 0.09900 0.41250
v -0.03750 0.09900 0.31005
v -0.03750 0.04900 0.31005
v -0.03750 0.09900 0.31005
v 0.00000 0.09900 0.30000
v 0.00000 0.04900 0.30000
v -0.03750 0.09900 0.43995
v 0.00000 0.09900 0.30000
v -0.03750 0.04900 0.43995
v -0.03750 0.09900 0.43995
v 0.00000 0.04900 0.45000
v 0.00000 0.09900 0.45000
v 0.00000 0.09900 0.45000
v 0.03750 0.09900 0.31005
v 0.03750 0.04900 0.31005
v 0.03750 0.09900 0.31005
v 0.06495 0.09900 0.33750
v 0.06495 0.04900 0.33750
v 0.03750 0.09900 0.43995
v 0.06495 0.09900 0.33750
v 0.03750 0.04900 0.43995
v 0.03750 0.09900 0.43995
v 0.06495 0.04900 0.41250
v 0.06495 0.09900 0.41250
v 0.06495 0.09900 0.41250
v 0.07500 0.09900 0.37500
v 0.07500 0.04900 0.37500
v 0.07500 0.09900 0.37500
v -0.07500 0.09900 0.62500
v -0.07500 0.04900 0.62500
v -0.06495 0.04900 0.66250
v -0.06495 0.09900 0.58750
v -0.06495 0.04900 0.58750
v -0.06495 0.09900 0.66250
v -0.07500 0.09900 0.62500
v -0.06495 0.09900 0.66250
v -0.06495 0.09900 0.58750
v -0.03750 0.09900 0.56005
v -0.03750 0.04900 0.56005
v -0.03750 0.04900 0.68995
v -0.03750 0.09900 0.68995
v -0.03750 0.09900 0.56005
v -0.03750 0.09900 0.68995
v 0.00000 0.09900 0.55000
v 0.00000 0.04900 0.55000
v 0.00000 0.04900 0.70000
v 0.00000 0.09900 0.55000
v 0.00000 0.09900 0.70000
v 0.00000 0.09900 0.70000
v 0.03750 0.09900 0.56005
v 0.03750 0.04900 0.56005
v 0.03750 0.04900 0.68995
v 0.03750 0.09900 0.56005
v 0.03750 0.09900 0.68995
v 0.03750 0.09900 0.68995
v 0.06495 0.09900 0.58750
v 0.06495 0.04900 0.58750
v 0.06495 0.04900 0.66250
v 0.06495 0.09900 0.66250
v 0.06495 0.09900 0.58750
v 0.06495 0.09900 0.66250
v 0.07500 0.04900 0.62500
v 0.07500 0.09900 0.62500
v 0.07500 0.09900 0.62500
vn -0.6887 -0.6887 -0.2265
vn -0.2265 -0.6887 -0.6887
vn -0.1877 -0.9641 -0.1877
vn -0.6887 -0.2265 -0.6887
vn -0.9641 -0.1877 -0.1877
vn -0.1877 -0.1877 -0.9641
vn -0.9641 0.1877 -0.1877
vn -0.1877 0.1877 -0.9641
vn -0.1877 -0.9641 0.1877
vn -0.9641 -0.1877 0.1877
vn -0.6887 0.2265 -0.6887
vn 0.1877 -0.9641 -0.1877
vn 0.1877 -0.1877 -0.9641
vn -0.6887 -0.6887 0.2265
vn -0.2265 -0.6887 0.6887
vn -0.6887 -0.2265 0.6887
vn -0.1877 -0.1877 0.9641
vn -0.6887 0.2265 0.6887
vn -0.9641 0.1877 0.1877
vn -0.1877 0.1877 0.9641
vn 0.1877 -0.9641 0.1877
vn 0.2265 -0.6887 0.6887
vn 0.1877 -0.1877 0.9641
vn -0.6887 0.6887 -0.2265
vn -0.2265 0.6887 -0.6887
vn -0.1877 0.9641 -0.1877
vn 0.0000 1.0000 0.0000
vn 0.0000 1.0000 0.0000
vn 0.0000 1.0000 0.0000
vn 0.0000 1.0000 0.0000
vn 0.0000 1.0000 0.0000
vn 0.0000 1.0000 0.0000
vn -0.6887 0.6887 0.2265
vn -0.1877 0.9641 0.1877
vn 0.0000 1.0000 0.0000
vn 0.0000 1.0000 0.0000
vn 0.0000 1.0000 0.0000
vn 0.0000 1.0000 0.0000
vn 0.0000 1.0000 0.0000
vn 0.1877 0.1877 -0.9641
vn 0.0000 1.0000 0.0000
vn 0.1877 0.9641 -0.1877
vn 0.0000 1.0000 0.0000
vn 0.0000 1.0000 0.0000
vn 0.0000 1.0000 0.0000
vn 0.0000 1.0000 0.0000
vn 0.0000 1.0000 0.0000
vn 0.0000 1.0000 0.0000
vn 0.0000 1.0000 0.0000
vn 0.0000 1.0000 0.0000
vn 0.0000 1.0000 0.0000
vn 0.0000 1.0000 0.0000
vn 0.0000 1.0000 0.0000
vn 0.0000 1.0000 0.0000
vn 0.0000 1.0000 0.0000
vn 0.0000 1.0000 0.0000
vn 0.0000 1.0000 0.0000
vn -0.2265 0.6887 0.6887
vn 0.0000 1.0000 0.0000
vn 0.0000 1.0000 0.0000
vn 0.0000 1.0000 0.0000
vn 0.0000 1.0000 0.0000
vn 0.0000 1.0000 0.0000
vn 0.0000 1.0000 0.0000
vn 0.0000 1.0000 0.0000
vn 0.0000 1.0000 0.0000
vn 0.0000 1.0000 0.0000
vn 0.0000 1.0000 0.0000
vn 0.0000 1.0000 0.0000
vn 0.0000 1.0000 0.0000
vn 0.0000 1.0000 0.0000
vn 0.2265 0.6887 0.6887
vn 0.1877 0.9641 0.1877
vn 0.0000 1.0000 0.0000
vn 0.0000 1.0000 0.0000
vn 0.2265 -0.6887 -0.6887
vn 0.6887 -0.6887 -0.2265
vn 0.6887 -0.2265 -0.6887
vn 0.9641 -0.1877 -0.1877
vn 0.6887 0.2265 -0.6887
vn 0.6887 -0.6887 0.2265
vn 0.9641 0.1877 -0.1877
vn 0.9641 -0.1877 0.1877
vn 0.1877 0.1877 0.9641
vn 0.6887 -0.2265 0.6887
vn 0.9641 0.1877 0.1877
vn 0.6887 0.2265 0.6887
vn 0.0000 1.0000 0.0000
vn 0.0000 1.0000 0.0000
vn 0.2265 0.6887 -0.6887
vn 0.0000 1.0000 0.0000
vn 0.0000 1.0000 0.0000
vn 0.0000 1.0000 0.0000
vn 0.0000 1.0000 0.0000
vn 0.0000 1.0000 0.0000
vn 0.0000 1.0000 0.0000
vn 0.0000 1.0000 0.0000
vn 0.0000 1.0000 0.0000
vn 0.0000 1.0000 0.0000
vn 0.0000 1.0000 0.0000
vn 0.0000 1.0000 0.0000
vn 0.0000 1.0000 0.0000
vn 0.0000 1.0000 0.0000
vn 0.0000 1.0000 0.0000
vn 0.6887 0.6887 -0.2265
vn 0.0000 1.0000 0.0000
vn 0.0000 1.0000 0.0000
vn 0.0000 1.0000 0.0000
vn 0.0000 1.0000 0.0000
vn 0.0000 1.0000 0.0000
vn 0.0000 1.0000 0.0000
vn 0.0000 1.0000 0.0000
vn 0.0000 1.0000 0.0000
vn 0.0000 1.0000 0.0000
vn 0.0000 1.0000 0.0000
vn 0.0000 1.0000 0.0000
vn 0.0000 1.0000 0.0000
vn 0.6887 0.6887 0.2265
vn 0.0000 1.0000 0.0000
vn 0.0000 1.0000 0.0000
vn -1.0000 0.0000 0.0000
vn -1.0000 0.0000 -0.0000
vn -0.8660 0.0000 0.5000
vn -0.8660 0.0000 -0.5000
vn -0.8660 0.0000 -0.5000
vn -0.8660 0.0000 0.5000
vn 0.0000 1.0000 0.0000
vn 0.0000 1.0000 0.0000
vn 0.0000 1.0000 0.0000
vn -0.5000 0.0000 -0.8660
vn -0.5000 -0.0000 -0.8660
vn -0.5000 0.0000 0.8660
vn -0.5000 0.0000 0.8660
vn 0.0000 1.0000 0.0000
vn 0.0000 1.0000 0.0000
vn 0.0000 -0.0000 -1.0000
vn 0.0000 0.0000 -1.0000
vn 0.0000 0.0000 1.0000
vn 0.0000 1.0000 0.0000
vn 0.0000 1.0000 0.0000
vn 0.0000 0.0000 1.0000
vn 0.5000 0.0000 -0.8660
vn 0.5000 0.0000 -0.8660
vn 0.5000 0.0000 0.8660
vn 0.0000 1.0000 0.0000
vn 0.0000 1.0000 0.0000
vn 0.5000 0.0000 0.8660
vn 0.8660 0.0000 -0.5000
vn 0.8660 0.0000 -0.5000
vn 0.8660 0.0000 0.5000
vn 0.8660 0.0000 0.5000
vn 0.0000 1.0000 0.0000
vn 0.0000 1.0000 0.0000
vn 1.0000 0.0000 0.0000
vn 1.0000 0.0000 0.0000
vn 0.0000 1.0000 0.0000
vn -0.8660 0.0000 -0.5000
vn -0.8660 0.0000 -0.5000
vn -1.0000 0.0000 -0.0000
vn -1.0000 0.0000 0.0000
vn 0.0000 1.0000 0.0000
vn 0.0000 1.0000 0.0000
vn 0.0000 1.0000 0.0000
vn -0.8660 0.0000 0.5000
vn -0.8660 0.0000 0.5000
vn -0.5000 0.0000 -0.8660
vn -0.5000 0.0000 -0.8660
vn 0.0000 1.0000 0.0000
vn 0.0000 0.0000 -1.0000
vn 0.0000 0.0000 -1.0000
vn 0.0000 1.0000 0.0000
vn 0.0000 1.0000 0.0000
vn -0.5000 0.0000 0.8660
vn -0.5000 0.0000 0.8660
vn 0.0000 0.0000 1.0000
vn 0.0000 0.0000 1.0000
vn 0.0000 1.0000 0.0000
vn 0.5000 0.0000 -0.8660
vn 0.5000 0.0000 -0.8660
vn 0.0000 1.0000 0.0000
vn 0.8660 0.0000 -0.5000
vn 0.8660 0.0000 -0.5000
vn 0.0000 1.0000 0.0000
vn 0.0000 1.0000 0.0000
vn 0.5000 0.0000 0.8660
vn 0.5000 0.0000 0.8660
vn 0.8660 0.0000 0.5000
vn 0.8660 0.0000 0.5000
vn 0.0000 1.0000 0.0000
vn 1.0000 0.0000 0.0000
vn 1.0000 0.0000 0.0000
vn 0.0000 1.0000 0.0000
vn -1.0000 0.0000 0.0000
vn -1.0000 0.0000 -0.0000
vn -0.8660 0.0000 0.5000
vn -0.8660 0.0000 -0.5000
vn -0.8660 0.0000 -0.5000
vn -0.8660 0.0000 0.5000
vn 0.0000 1.0000 0.0000
vn 0.0000 1.0000 0.0000
vn 0.0000 1.0000 0.0000
vn -0.5000 0.0000 -0.8660
vn -0.5000 -0.0000 -0.8660
vn -0.5000 0.0000 0.8660
vn -0.5000 0.0000 0.8660
vn 0.0000 1.0000 0.0000
vn 0.0000 1.0000 0.0000
vn 0.0000 -0.0000 -1.0000
vn 0.0000 0.0000 -1.0000
vn 0.0000 0.0000 1.0000
vn 0.0000 1.0000 0.0000
vn 0.0000 0.0000 1.0000
vn 0.0000 1.0000 0.0000
vn 0.5000 0.0000 -0.8660
vn 0.5000 0.0000 -0.8660
vn 0.5000 0.0000 0.8660
vn 0.0000 1.0000 0.0000
vn 0.5000 0.0000 0.8660
vn 0.0000 1.0000 0.0000
vn 0.8660 0.0000 -0.5000
vn 0.8660 0.0000 -0.5000
vn 0.8660 0.0000 0.5000
vn 0.8660 0.0000 0.5000
vn 0.0000 1.0000 0.0000
vn 0.0000 1.0000 0.0000
vn 1.0000 0.0000 0.0000
vn 1.0000 0.0000 0.0000
vn 0.0000 1.0000 0.0000
vn -1.0000 0.0000 0.0000
vn -1.0000 0.0000 -0.0000
vn -0.8660 0.0000 0.5000
vn -0.8660 0.0000 -0.5000
vn -0.8660 0.0000 -0.5000
vn -0.8660 0.0000 0.5000
vn 0.0000 1.0000 0.0000
vn 0.0000 1.0000 0.0000
vn 0.0000 1.0000 0.0000
vn -0.5000 0.0000 -0.8660
vn -0.5000 -0.0000 -0.8660
vn -0.5000 0.0000 0.8660
vn -0.5000 0.0000 0.8660
vn 0.0000 1.0000 0.0000
vn 0.0000 1.0000 0.0000
vn 0.0000 -0.0000 -1.0000
vn 0.0000 0.0000 -1.0000
vn 0.0000 0.0000 1.0000
vn 0.0000 1.0000 0.0000
vn 0.0000 1.0000 0.0000
vn 0.0000 0.0000 1.0000
vn 0.5000 0.0000 -0.8660
vn 0.5000 0.0000 -0.8660
vn 0.5000 0.0000 0.8660
vn 0.0000 1.0000 0.0000
vn 0.0000 1.0000 0.0000
vn 0.5000 0.0000 0.8660
vn 0.8660 0.0000 -0.5000
vn 0.8660 0.0000 -0.5000
vn 0.8660 0.0000 0.5000
vn 0.8660 0.0000 0.5000
vn 0.0000 1.0000 0.0000
vn 0.0000 1.0000 0.0000
vn 1.0000 0.0000 0.0000
vn 1.0000 0.0000 0.0000
vn 0.0000 1.0000 0.0000
vn -0.8660 0.0000 -0.5000
vn -0.8660 0.0000 -0.5000
vn -1.0000 0.0000 -0.0000
vn -1.0000 0.0000 0.0000
vn -0.8660 0.0000 0.5000
vn -0.8660 0.0000 0.5000
vn 0.0000 1.0000 0.0000
vn 0.0000 1.0000 0.0000
vn 0.0000 1.0000 0.0000
vn -0.5000 0.0000 -0.8660
vn -0.5000 0.0000 -0.8660
vn 0.0000 1.0000 0.0000
vn 0.0000 0.0000 -1.0000
vn 0.0000 0.0000 -1.0000
vn 0.0000 1.0000 0.0000
vn 0.0000 1.0000 0.0000
vn -0.5000 0.0000 0.8660
vn -0.5000 0.0000 0.8660
vn 0.0000 0.0000 1.0000
vn 0.0000 0.0000 1.0000
vn 0.0000 1.0000 0.0000
vn 0.5000 0.0000 -0.8660
vn 0.5000 0.0000 -0.8660
vn 0.0000 1.0000 0.0000
vn 0.8660 0.0000 -0.5000
vn 0.8660 0.0000 -0.5000
vn 0.0000 1.0000 0.0000
vn 0.0000 1.0000 0.0000
vn 0.5000 0.0000 0.8660
vn 0.5000 0.0000 0.8660
vn 0.8660 0.0000 0.5000
vn 0.8660 -0.0000 0.5000
vn 0.0000 1.0000 0.0000
vn 1.0000 0.0000 -0.0000
vn 1.0000 -0.0000 0.0000
vn 0.0000 1.0000 0.0000
vn -1.0000 0.0000 0.0000
vn -1.0000 0.0000 -0.0000
vn -0.8660 0.0000 0.5000
vn -0.8660 0.0000 -0.5000
vn -0.8660 0.0000 -0.5000
vn -0.8660 0.0000 0.5000
vn 0.0000 1.0000 0.0000
vn 0.0000 1.0000 0.0000
vn 0.0000 1.0000 0.0000
vn -0.5000 0.0000 -0.8660
vn -0.5000 0.0000 -0.8660
vn -0.5000 0.0000 0.8660
vn -0.5000 0.0000 0.8660
vn 0.0000 1.0000 0.0000
vn 0.0000 1.0000 0.0000
vn 0.0000 0.0000 -1.0000
vn 0.0000 0.0000 -1.0000
vn 0.0000 0.0000 1.0000
vn 0.0000 1.0000 0.0000
vn 0.0000 0.0000 1.0000
vn 0.0000 1.0000 0.0000
vn 0.5000 0.0000 -0.8660
vn 0.5000 0.0000 -0.8660
vn 0.5000 0.0000 0.8660
vn 0.0000 1.0000 0.0000
vn 0.5000 0.0000 0.8660
vn 0.0000 1.0000 0.0000
vn 0.8660 0.0000 -0.5000
vn 0.8660 0.0000 -0.5000
vn 0.8660 0.0000 0.5000
vn 0.8660 -0.0000 0.5000
vn 0.0000 1.0000 0.0000
vn 0.0000 1.0000 0.0000
vn 1.0000 -0.0000 0.0000
vn 1.0000 0.0000 -0.0000
vn 0.0000 1.0000 0.0000
f 1//1 2//2 3//3
f 1//1 4//4 2//2
f 1//1 5//5 4//4
f 2//2 4//4 6//6
f 5//5 7//7 4//4
f 4//4 8//8 6//6
f 1//1 3//3 9//9
f 1//1 10//10 5//5
f 5//5 10//10 7//7
f 4//4 7//7 11//11
f 4//4 11//11 8//8
f 3//3 2//2 12//12
f 2//2 6//6 13//13
f 6//6 8//8 13//13
f 1//1 14//14 10//10
f 1//1 9//9 14//14
f 14//14 9//9 15//15
f 14//14 15//15 16//16
f 14//14 16//16 10//10
f 15//15 17//17 16//16
f 10//10 16//16 18//18
f 16//16 17//17 18//18
f 10//10 19//19 7//7
f 10//10 18//18 19//19
f 17//17 20//20 18//18
f 3//3 21//21 9//9
f 9//9 22//22 15//15
f 15//15 22//22 17//17
f 17//17 23//23 20//20
f 7//7 24//24 11//11
f 11//11 25//25 8//8
f 11//11 24//24 25//25
f 24//24 26//26 25//25
f 26//26 27//27 28//28
f 26//26 29//29 27//27
f 26//26 28//28 30//30
f 31//31 27//27 29//29
f 31//31 29//29 32//32
f 7//7 33//33 24//24
f 24//24 33//33 26//26
f 26//26 34//34 29//29
f 35//35 29//29 36//36
f 35//35 36//36 37//37
f 38//38 36//36 39//39
f 8//8 25//25 40//40
f 26//26 30//30 41//41
f 25//25 26//26 42//42
f 31//31 32//32 43//43
f 43//43 32//32 44//44
f 43//43 44//44 45//45
f 43//43 45//45 46//46
f 35//35 37//37 47//47
f 47//47 37//37 48//48
f 38//38 49//49 50//50
f 47//47 48//48 51//51
f 51//51 48//48 52//52
f 53//53 54//54 50//50
f 7//7 19//19 33//33
f 26//26 33//33 34//34
f 34//34 36//36 29//29
f 38//38 39//39 49//49
f 34//34 39//39 36//36
f 39//39 55//55 56//56
f 57//57 39//39 56//56
f 19//19 18//18 33//33
f 18//18 20//20 58//58
f 18//18 58//58 33//33
f 33//33 58//58 34//34
f 34//34 55//55 39//39
f 34//34 59//59 55//55
f 59//59 60//60 61//61
f 34//34 60//60 59//59
f 34//34 62//62 60//60
f 34//34 63//63 62//62
f 50//50 49//49 64//64
f 65//65 57//57 56//56
f 65//65 66//66 57//57
f 53//53 50//50 64//64
f 66//66 65//65 67//67
f 66//66 67//67 68//68
f 59//59 61//61 69//69
f 59//59 69//69 70//70
f 34//34 71//71 63//63
f 20//20 72//72 58//58
f 58//58 73//73 34//34
f 70//70 69//69 74//74
f 74//74 69//69 75//75
f 2//2 76//76 12//12
f 2//2 13//13 76//76
f 3//3 12//12 21//21
f 8//8 40//40 13//13
f 12//12 76//76 77//77
f 76//76 78//78 77//77
f 76//76 13//13 78//78
f 77//77 78//78 79//79
f 13//13 80//80 78//78
f 78//78 80//80 79//79
f 12//12 77//77 81//81
f 77//77 79//79 81//81
f 79//79 82//82 83//83
f 13//13 40//40 80//80
f 79//79 80//80 82//82
f 9//9 21//21 22//22
f 17//17 22//22 23//23
f 20//20 23//23 84//84
f 12//12 81//81 21//21
f 79//79 83//83 81//81
f 21//21 81//81 22//22
f 22//22 81//81 85//85
f 22//22 85//85 23//23
f 81//81 83//83 85//85
f 23//23 85//85 84//84
f 85//85 83//83 86//86
f 83//83 82//82 86//86
f 85//85 87//87 84//84
f 85//85 86//86 87//87
f 26//26 41//41 42//42
f 46//46 45//45 88//88
f 45//45 89//89 88//88
f 25//25 90//90 40//40
f 25//25 42//42 90//90
f 42//42 41//41 91//91
f 92//92 88//88 89//89
f 92//92 93//93 88//88
f 94//94 51//51 52//52
f 94//94 95//95 51//51
f 54//54 96//96 97//97
f 95//95 94//94 98//98
f 95//95 98//98 99//99
f 100//100 97//97 96//96
f 42//42 91//91 101//101
f 42//42 101//101 102//102
f 42//42 93//93 92//92
f 42//42 102//102 93//93
f 42//42 92//92 103//103
f 42//42 103//103 104//104
f 40//40 90//90 80//80
f 80//80 105//105 82//82
f 80//80 90//90 105//105
f 90//90 42//42 105//105
f 99//99 98//98 103//103
f 103//103 98//98 104//104
f 42//42 104//104 106//106
f 100//100 107//107 104//104
f 42//42 106//106 108//108
f 82//82 105//105 86//86
f 42//42 73//73 105//105
f 54//54 53//53 96//96
f 68//68 67//67 109//109
f 68//68 109//109 110//110
f 100//100 96//96 107//107
f 111//111 110//110 109//109
f 111//111 109//109 112//112
f 74//74 75//75 113//113
f 75//75 114//114 113//113
f 34//34 73//73 71//71
f 20//20 84//84 72//72
f 115//115 113//113 114//114
f 115//115 114//114 116//116
f 58//58 72//72 73//73
f 73//73 117//117 71//71
f 104//104 107//107 106//106
f 111//111 112//112 106//106
f 106//106 112//112 108//108
f 42//42 108//108 73//73
f 105//105 73//73 118//118
f 105//105 118//118 86//86
f 115//115 116//116 108//108
f 108//108 116//116 119//119
f 73//73 120//120 117//117
f 73//73 108//108 119//119
f 73//73 119//119 120//120
f 84//84 87//87 72//72
f 87//87 86//86 118//118
f 87//87 118//118 72//72
f 72//72 118//118 73//73
f 121//121 122//122 123//123
f 124//124 125//125 122//122
f 121//121 124//124 122//122
f 121//121 123//123 126//126
f 127//127 128//128 129//129
f 130//130 131//131 125//125
f 126//126 123//123 132//132
f 124//124 130//130 125//125
f 126//126 132//132 133//133
f 129//129 128//128 134//134
f 128//128 135//135 134//134
f 136//136 137//137 131//131
f 133//133 132//132 138//138
f 130//130 136//136 131//131
f 134//134 135//135 139//139
f 135//135 140//140 139//139
f 133//133 138//138 141//141
f 142//142 143//143 137//137
f 141//141 138//138 144//144
f 136//136 142//142 137//137
f 139//139 140//140 145//145
f 140//140 146//146 145//145
f 141//141 144//144 147//147
f 148//148 149//149 143//143
f 147//147 144//144 150//150
f 142//142 148//148 143//143
f 147//147 150//150 151//151
f 145//145 146//146 152//152
f 146//146 153//153 152//152
f 151//151 150//150 154//154
f 155//155 154//154 149//149
f 148//148 155//155 149//149
f 151//151 154//154 155//155
f 152//152 153//153 156//156
f 157//157 158//158 159//159
f 160//160 157//157 159//159
f 161//161 162//162 163//163
f 160//160 159//159 164//164
f 160//160 164//164 165//165
f 166//166 167//167 158//158
f 157//157 166//166 158//158
f 163//163 162//162 168//168
f 169//169 170//170 167//167
f 166//166 169//169 167//167
f 168//168 171//171 172//172
f 165//165 164//164 173//173
f 165//165 173//173 174//174
f 162//162 171//171 168//168
f 174//174 173//173 175//175
f 174//174 175//175 176//176
f 172//172 171//171 177//177
f 178//178 179//179 170//170
f 169//169 178//178 170//170
f 172//172 177//177 180//180
f 181//181 182//182 179//179
f 178//178 181//181 179//179
f 180//180 183//183 184//184
f 176//176 175//175 185//185
f 176//176 185//185 186//186
f 177//177 183//183 180//180
f 186//186 185//185 187//187
f 186//186 187//187 188//188
f 183//183 189//189 184//184
f 190//190 191//191 182//182
f 181//181 190//190 182//182
f 184//184 189//189 192//192
f 188//188 187//187 191//191
f 190//190 188//188 191//191
f 193//193 194//194 195//195
f 196//196 197//197 194//194
f 193//193 196//196 194//194
f 193//193 195//195 198//198
f 199//199 200//200 201//201
f 202//202 203//203 197//197
f 198//198 195//195 204//204
f 196//196 202//202 197//197
f 198//198 204//204 205//205
f 201//201 200//200 206//206
f 200//200 207//207 206//206
f 208//208 209//209 203//203
f 205//205 204//204 210//210
f 202//202 208//208 203//203
f 206//206 207//207 211//211
f 205//205 210//210 212//212
f 207//207 213//213 211//211
f 214//214 215//215 209//209
f 212//212 210//210 216//216
f 208//208 214//214 209//209
f 211//211 213//213 217//217
f 212//212 216//216 218//218
f 213//213 219//219 217//217
f 220//220 221//221 215//215
f 218//218 216//216 222//222
f 214//214 220//220 215//215
f 218//218 222//222 223//223
f 217//217 219//219 224//224
f 219//219 225//225 224//224
f 223//223 222//222 226//226
f 227//227 226//226 221//221
f 220//220 227//227 221//221
f 223//223 226//226 227//227
f 224//224 225//225 228//228
f 229//229 230//230 231//231
f 232//232 233//233 230//230
f 229//229 232//232 230//230
f 229//229 231//231 234//234
f 235//235 236//236 237//237
f 238//238 239//239 233//233
f 234//234 231//231 240//240
f 232//232 238//238 233//233
f 234//234 240//240 241//241
f 237//237 236//236 242//242
f 236//236 243//243 242//242
f 244//244 245//245 239//239
f 241//241 240//240 246//246
f 238//238 244//244 239//239
f 242//242 243//243 247//247
f 243//243 248//248 247//247
f 241//241 246//246 249//249
f 250//250 251//251 245//245
f 249//249 246//246 252//252
f 244//244 250//250 245//245
f 247//247 248//248 253//253
f 248//248 254//254 253//253
f 249//249 252//252 255//255
f 256//256 257//257 251//251
f 255//255 252//252 258//258
f 250//250 256//256 251//251
f 255//255 258//258 259//259
f 253//253 254//254 260//260
f 254//254 261//261 260//260
f 259//259 258//258 262//262
f 263//263 262//262 257//257
f 256//256 263//263 257//257
f 259//259 262//262 263//263
f 260//260 261//261 264//264
f 265//265 266//266 267//267
f 265//265 267//267 268//268
f 268//268 267//267 269//269
f 268//268 269//269 270//270
f 271//271 272//272 273//273
f 274//274 275//275 266//266
f 265//265 274//274 266//266
f 271//271 273//273 276//276
f 277//277 278//278 275//275
f 274//274 277//277 275//275
f 276//276 279//279 280//280
f 270//270 269//269 281//281
f 270//270 281//281 282//282
f 273//273 279//279 276//276
f 282//282 281//281 283//283
f 282//282 283//283 284//284
f 280//280 279//279 285//285
f 286//286 287//287 278//278
f 277//277 286//286 278//278
f 280//280 285//285 288//288
f 289//289 290//290 287//287
f 286//286 289//289 287//287
f 288//288 291//291 292//292
f 284//284 283//283 293//293
f 284//284 293//293 294//294
f 285//285 291//291 288//288
f 294//294 293//293 295//295
f 294//294 295//295 296//296
f 291//291 297//297 292//292
f 298//298 299//299 290//290
f 289//289 298//298 290//290
f 296//296 295//295 299//299
f 296//296 299//299 298//298
f 292//292 297//297 300//300
f 301//301 302//302 303//303
f 304//304 305//305 302//302
f 301//301 304//304 302//302
f 301//301 303//303 306//306
f 307//307 308//308 309//309
f 310//310 311//311 305//305
f 306//306 303//303 312//312
f 304//304 310//310 305//305
f 306//306 312//312 313//313
f 309//309 308//308 314//314
f 308//308 315//315 314//314
f 316//316 317//317 311//311
f 313//313 312//312 318//318
f 310//310 316//316 311//311
f 314//314 315//315 319//319
f 313//313 318//318 320//320
f 315//315 321//321 319//319
f 322//322 323//323 317//317
f 320//320 318//318 324//324
f 316//316 322//322 317//317
f 319//319 321//321 325//325
f 320//320 324//324 326//326
f 321//321 327//327 325//325
f 328//328 329//329 323//323
f 326//326 324//324 330//330
f 322//322 328//328 323//323
f 326//326 330//330 331//331
f 325//325 327//327 332//332
f 327//327 333//333 332//332
f 331//331 330//330 334//334
f 335//335 334//334 329//329
f 328//328 335//335 329//329
f 331//331 334//334 335//335
f 332//332 333//333 336//336
