v -0.12066 -0.04666 -0.11500
v -0.11500 -0.04666 -0.12066
v -0.11500 -0.04900 -0.11500
v -0.12300 -0.04100 -0.11500
v -0.12066 -0.04100 -0.12066
v -0.11500 -0.04100 -0.12300
v -0.05683 -0.04690 -0.12007
v -0.05800 -0.04500 -0.12134
v -0.05766 -0.04583 -0.12100
v -0.05800 -0.04100 -0.12300
v -0.06000 -0.03953 -0.12300
v -0.05414 -0.04769 -0.11817
v -0.05717 -0.04666 -0.12066
v -0.05717 -0.04666 -0.12066
v -0.05400 -0.04771 -0.11812
v -0.12066 0.04100 -0.12066
v -0.06000 0.03953 -0.12300
v -0.05800 -0.03953 -0.12300
v 0.11500 -0.04900 -0.11500
v -0.12066 -0.04666 0.11500
v -0.11500 -0.04900 0.11500
v -0.12300 -0.04100 0.11500
v -0.11500 -0.04666 0.12066
v -0.12066 -0.04100 0.12066
v -0.11500 -0.04100 0.12300
v -0.12300 0.04100 0.11500
v -0.12066 0.04100 0.12066
v 0.11500 -0.04900 0.11500
v 0.11500 -0.04100 0.12300
v -0.11500 0.04100 0.12300
v -0.12300 0.04100 -0.11500
v -0.11500 0.04100 -0.12300
v -0.12066 0.04666 -0.11500
v -0.11500 0.04666 -0.12066
v -0.11500 0.04900 -0.11500
v -0.05800 0.04500 -0.12134
v -0.05414 0.04769 -0.11817
v -0.05800 0.03953 -0.12300
v -0.05800 0.04100 -0.12300
v -0.05766 0.04583 -0.12100
v -0.05717 0.04666 -0.12066
v -0.05683 0.04690 -0.12007
v -0.05717 0.04666 -0.12066
v -0.05400 0.04771 -0.11812
v -0.06495 0.04900 -0.03750
v -0.03750 0.04900 -0.06495
v 0.00000 0.04900 -0.07500
v 0.11500 0.04900 -0.11500
v -0.11500 0.04900 0.11500
v -0.07500 0.04900 0.00000
v -0.12066 0.04666 0.11500
v -0.11500 0.04666 0.12066
v -0.06495 0.04900 0.03750
v -0.03750 0.04900 0.06495
v 0.00000 0.04900 0.07500
v 0.11500 0.04100 0.12300
v 0.11500 0.04900 0.11500
v 0.05400 -0.04771 -0.11812
v 0.05414 -0.04769 -0.11817
v 0.05683 -0.04690 -0.12007
v 0.11500 -0.04666 -0.12066
v 0.05717 -0.04666 -0.12066
v 0.05766 -0.04583 -0.12100
v 0.05717 -0.04666 -0.12066
v 0.05800 -0.04500 -0.12134
v 0.11500 -0.04100 -0.12300
v 0.05800 -0.04100 -0.12300
v 0.05800 -0.03953 -0.12300
v 0.06000 -0.03953 -0.12300
v 0.12066 -0.04666 -0.11500
v 0.12066 -0.04100 -0.12066
v 0.12300 -0.04100 -0.11500
v 0.11500 0.04100 -0.12300
v 0.12066 0.04100 -0.12066
v 0.11500 -0.04666 0.12066
v 0.12066 -0.04666 0.11500
v 0.12300 -0.04100 0.11500
v 0.12066 -0.04100 0.12066
v 0.12300 0.04100 -0.11500
v 0.12300 0.04100 0.11500
v 0.05400 0.04771 -0.11812
v 0.06000 0.03953 -0.12300
v 0.05800 0.03953 -0.12300
v 0.05800 0.04100 -0.12300
v 0.03750 0.04900 -0.06495
v 0.11500 0.04666 -0.12066
v 0.05766 0.04583 -0.12100
v 0.05717 0.04666 -0.12066
v 0.05683 0.04690 -0.12007
v 0.05414 0.04769 -0.11817
v 0.05717 0.04666 -0.12066
v 0.05800 0.04500 -0.12134
v 0.06495 0.04900 -0.03750
v 0.12066 0.04666 -0.11500
v 0.11500 0.04666 0.12066
v 0.03750 0.04900 0.06495
v 0.07500 0.04900 0.00000
v 0.06495 0.04900 0.03750
v 0.12066 0.04100 0.12066
v 0.12066 0.04666 0.11500
v 0.00000 0.09900 -0.07500
v 0.00000 0.04900 -0.07500
v -0.03750 0.04900 -0.06495
v -0.06495 0.09900 -0.03750
v -0.06495 0.04900 -0.03750
v -0.07500 0.04900 0.00000
v -0.07500 0.09900 0.00000
v -0.06495 0.04900 0.03750
v -0.06495 0.09900 0.03750
v -0.06495 0.09900 -0.03750
v -0.07500 0.09900 0.00000
v -0.06495 0.09900 0.03750
v -0.03750 0.09900 -0.06495
v -0.03750 0.09900 -0.06495
v -0.03750 0.09900 0.06495
v 0.00000 0.09900 -0.07500
v 0.00000 0.09900 0.07500
v -0.03750 0.04900 0.06495
v -0.03750 0.09900 0.06495
v 0.00000 0.04900 0.07500
v 0.00000 0.09900 0.07500
v 0.03750 0.09900 -0.06495
v 0.03750 0.04900 -0.06495
v 0.03750 0.09900 -0.06495
v 0.03750 0.09900 0.06495
v 0.06495 0.09900 -0.03750
v 0.06495 0.04900 -0.03750
v 0.06495 0.09900 -0.03750
v 0.06495 0.09900 0.03750
v 0.03750 0.04900 0.06495
v 0.03750 0.09900 0.06495
v 0.06495 0.04900 0.03750
v 0.06495 0.09900 0.03750
v 0.07500 0.09900 0.00000
v 0.07500 0.04900 0.00000
v 0.07500 0.09900 0.00000
v -0.06000 -0.05864 -0.23176
v -0.06000 -0.07312 -0.20169
v -0.06000 -0.03909 -0.21617
v -0.06000 -0.07312 -0.16831
v -0.06000 -0.04875 -0.19613
v -0.06000 -0.04875 -0.17387
v -0.06000 -0.02169 -0.23005
v -0.06000 -0.05864 -0.23176
v 0.06000 -0.07312 -0.20169
v -0.06000 -0.07312 -0.20169
v 0.06000 -0.07312 -0.16831
v -0.06000 -0.07312 -0.16831
v -0.06000 -0.03254 -0.25257
v 0.06000 -0.05864 -0.23176
v -0.06000 -0.05864 -0.13824
v -0.06000 -0.05864 -0.13824
v -0.05400 -0.04900 -0.13055
v -0.05683 -0.04783 -0.12962
v -0.06000 -0.03909 -0.15383
v -0.05800 -0.04500 -0.12736
v -0.06000 -0.03953 -0.12300
v -0.05800 -0.03953 -0.12300
v -0.06000 -0.02169 -0.13995
v -0.06000 -0.03953 -0.12300
v 0.06000 -0.05864 -0.13824
v 0.05400 -0.04900 -0.13055
v -0.06000 0.03254 -0.25257
v -0.06000 -0.03254 -0.25257
v -0.06000 0.00000 -0.23500
v -0.06000 0.00000 -0.26000
v -0.06000 0.00000 -0.26000
v 0.06000 -0.03254 -0.25257
v -0.06000 0.03254 -0.25257
v 0.06000 0.00000 -0.26000
v -0.06000 0.03953 -0.12300
v -0.06000 0.00000 -0.13500
v -0.06000 0.02169 -0.23005
v -0.06000 0.05864 -0.23176
v -0.06000 0.03909 -0.21617
v -0.06000 0.04875 -0.19613
v -0.06000 0.03909 -0.15383
v -0.06000 0.07312 -0.16831
v -0.06000 0.04875 -0.17387
v -0.06000 0.05864 -0.23176
v 0.06000 0.03254 -0.25257
v -0.06000 0.05864 -0.13824
v -0.06000 0.02169 -0.13995
v -0.05800 0.04500 -0.12736
v -0.06000 0.05864 -0.13824
v -0.05800 0.03953 -0.12300
v -0.05683 0.04783 -0.12962
v -0.06000 0.03953 -0.12300
v -0.05400 0.04900 -0.13055
v 0.06000 0.05864 -0.13824
v -0.06000 0.07312 -0.20169
v -0.06000 0.07312 -0.20169
v 0.06000 0.05864 -0.23176
v -0.06000 0.07312 -0.16831
v 0.06000 0.07312 -0.20169
v 0.06000 0.07312 -0.16831
v 0.06000 -0.07312 -0.20169
v 0.06000 -0.04875 -0.17387
v 0.06000 -0.07312 -0.16831
v 0.06000 -0.05864 -0.23176
v 0.06000 -0.04875 -0.19613
v 0.06000 -0.03909 -0.15383
v 0.06000 -0.03909 -0.21617
v 0.06000 -0.02169 -0.23005
v 0.06000 -0.05864 -0.13824
v 0.05683 -0.04783 -0.12962
v 0.05800 -0.04500 -0.12736
v 0.06000 -0.03953 -0.12300
v 0.05800 -0.03953 -0.12300
v 0.06000 -0.02169 -0.13995
v 0.06000 0.00000 -0.13500
v 0.06000 -0.03953 -0.12300
v 0.06000 -0.03254 -0.25257
v 0.06000 0.03254 -0.25257
v 0.06000 0.00000 -0.23500
v 0.06000 0.00000 -0.26000
v 0.06000 0.05864 -0.13824
v 0.06000 0.05864 -0.23176
v 0.06000 0.02169 -0.23005
v 0.06000 0.03909 -0.21617
v 0.06000 0.07312 -0.20169
v 0.06000 0.04875 -0.19613
v 0.05400 0.04900 -0.13055
v 0.06000 0.03953 -0.12300
v 0.06000 0.02169 -0.13995
v 0.06000 0.03909 -0.15383
v 0.05800 0.04500 -0.12736
v 0.05800 0.03953 -0.12300
v 0.06000 0.03953 -0.12300
v 0.06000 0.04875 -0.17387
v 0.05683 0.04783 -0.12962
v 0.06000 0.07312 -0.16831
v -0.06000 -0.04875 -0.17387
v -0.05800 -0.04158 -0.15900
v -0.05683 -0.04295 -0.16183
v -0.05400 -0.04351 -0.16300
v -0.06000 -0.03909 -0.21617
v 0.06000 -0.03909 -0.21617
v -0.06000 -0.02169 -0.23005
v -0.06000 -0.04875 -0.19613
v 0.06000 -0.04875 -0.19613
v 0.06000 -0.04875 -0.17387
v -0.05800 -0.03909 -0.15383
v -0.06000 -0.03909 -0.15383
v -0.05800 -0.02169 -0.13995
v 0.06000 -0.02169 -0.23005
v -0.06000 0.00000 -0.23500
v 0.06000 0.00000 -0.23500
v -0.06000 0.02169 -0.23005
v -0.06000 -0.02169 -0.13995
v -0.05800 0.00000 -0.13500
v -0.06000 0.00000 -0.13500
v -0.05800 0.02169 -0.13995
v -0.05800 0.04158 -0.15900
v -0.06000 0.04875 -0.17387
v -0.05683 0.04295 -0.16183
v -0.05400 0.04351 -0.16300
v 0.06000 0.02169 -0.23005
v -0.06000 0.03909 -0.21617
v 0.06000 0.03909 -0.21617
v -0.06000 0.04875 -0.19613
v 0.06000 0.04875 -0.19613
v 0.05400 0.04351 -0.16300
v -0.06000 0.02169 -0.13995
v -0.05800 0.03909 -0.15383
v -0.06000 0.03909 -0.15383
v 0.05400 -0.04351 -0.16300
v 0.05683 -0.04295 -0.16183
v 0.05800 -0.04158 -0.15900
v 0.06000 -0.03909 -0.15383
v 0.05800 -0.03909 -0.15383
v 0.06000 -0.02169 -0.13995
v 0.05800 -0.02169 -0.13995
v 0.06000 0.00000 -0.13500
v 0.05800 0.00000 -0.13500
v 0.06000 0.02169 -0.13995
v 0.06000 0.04875 -0.17387
v 0.05683 0.04295 -0.16183
v 0.05800 0.04158 -0.15900
v 0.05800 0.02169 -0.13995
v 0.06000 0.03909 -0.15383
v 0.05800 0.03909 -0.15383
v -0.05683 -0.04783 -0.12962
v -0.05400 -0.04900 -0.13055
v -0.05683 -0.04783 -0.12100
v -0.05683 -0.04783 -0.12962
v -0.05800 -0.04500 -0.12736
v -0.05400 -0.04900 -0.12100
v -0.05683 -0.04690 -0.12007
v -0.05717 -0.04666 -0.12066
v -0.05766 -0.04583 -0.12100
v -0.05400 -0.04783 -0.11817
v -0.05400 -0.04771 -0.11812
v -0.05414 -0.04769 -0.11817
v -0.05800 -0.04500 -0.12134
v -0.05800 -0.04100 -0.12300
v -0.05800 -0.03953 -0.12300
v 0.05400 -0.04900 -0.13055
v 0.05400 -0.04783 -0.11817
v -0.05683 -0.04295 -0.16183
v -0.05400 0.04351 -0.16300
v -0.05400 -0.04351 -0.16300
v -0.05800 -0.04158 -0.15900
v -0.05800 -0.03909 -0.15383
v -0.05800 0.04158 -0.15900
v -0.05683 -0.04295 -0.16183
v -0.05683 0.04295 -0.16183
v -0.05800 -0.02169 -0.13995
v -0.05800 0.02169 -0.13995
v -0.05800 0.00000 -0.13500
v -0.05800 0.03909 -0.15383
v -0.05683 0.04295 -0.16183
v -0.05800 0.04500 -0.12736
v -0.05800 0.03953 -0.12300
v -0.05800 0.04100 -0.12300
v -0.05800 0.04500 -0.12134
v -0.05766 0.04583 -0.12100
v -0.05683 0.04783 -0.12100
v -0.05683 0.04783 -0.12962
v -0.05717 0.04666 -0.12066
v -0.05683 0.04690 -0.12007
v -0.05414 0.04769 -0.11817
v -0.05400 0.04783 -0.11817
v -0.05400 0.04771 -0.11812
v -0.05683 0.04783 -0.12962
v -0.05400 0.04900 -0.12100
v -0.05400 0.04900 -0.13055
v 0.05400 0.04351 -0.16300
v 0.05400 0.04771 -0.11812
v 0.05400 0.04900 -0.12100
v 0.05400 -0.04900 -0.12100
v 0.05400 -0.04771 -0.11812
v 0.05683 -0.04783 -0.12962
v 0.05683 -0.04783 -0.12100
v 0.05683 -0.04783 -0.12962
v 0.05800 -0.04500 -0.12736
v 0.05414 -0.04769 -0.11817
v 0.05683 -0.04690 -0.12007
v 0.05717 -0.04666 -0.12066
v 0.05766 -0.04583 -0.12100
v 0.05800 -0.04500 -0.12134
v 0.05800 -0.04100 -0.12300
v 0.05800 -0.03953 -0.12300
v 0.05400 -0.04351 -0.16300
v 0.05800 -0.04158 -0.15900
v 0.05800 0.00000 -0.13500
v 0.05800 -0.03909 -0.15383
v 0.05800 -0.02169 -0.13995
v 0.05683 0.04295 -0.16183
v 0.05683 -0.04295 -0.16183
v 0.05683 -0.04295 -0.16183
v 0.05800 0.04158 -0.15900
v 0.05800 0.02169 -0.13995
v 0.05800 0.03909 -0.15383
v 0.05400 0.04783 -0.11817
v 0.05400 0.04900 -0.13055
v 0.05683 0.04295 -0.16183
v 0.05800 0.04500 -0.12736
v 0.05800 0.04100 -0.12300
v 0.05800 0.03953 -0.12300
v 0.05800 0.04500 -0.12134
v 0.05683 0.04783 -0.12962
v 0.05683 0.04783 -0.12100
v 0.05414 0.04769 -0.11817
v 0.05683 0.04690 -0.12007
v 0.05766 0.04583 -0.12100
v 0.05717 0.04666 -0.12066
v 0.05683 0.04783 -0.12962
vn -0.6887 -0.6887 -0.2265
vn -0.2265 -0.6887 -0.6887
vn -0.1877 -0.9641 -0.1877
vn -0.9641 -0.1877 -0.1877
vn -0.6887 -0.2265 -0.6887
vn -0.1877 -0.1877 -0.9641
vn 0.0000 -0.9239 -0.3827
vn 0.0000 -0.3827 -0.9239
vn 0.0000 -0.3827 -0.9239
vn 0.0000 -0.1951 -0.9808
vn 0.0000 0.0000 -1.0000
vn 0.0000 -0.9239 -0.3827
vn 0.0000 -0.3827 -0.9239
vn 0.0000 -0.9239 -0.3827
vn 0.0000 -0.9239 -0.3827
vn -0.6887 0.2265 -0.6887
vn 0.0000 0.0000 -1.0000
vn 0.0000 0.0000 -1.0000
vn 0.1877 -0.9641 -0.1877
vn -0.6887 -0.6887 0.2265
vn -0.1877 -0.9641 0.1877
vn -0.9641 -0.1877 0.1877
vn -0.2265 -0.6887 0.6887
vn -0.6887 -0.2265 0.6887
vn -0.1877 -0.1877 0.9641
vn -0.9641 0.1877 0.1877
vn -0.6887 0.2265 0.6887
vn 0.1877 -0.9641 0.1877
vn 0.1877 -0.1877 0.9641
vn -0.1877 0.1877 0.9641
vn -0.9641 0.1877 -0.1877
vn -0.1877 0.1877 -0.9641
vn -0.6887 0.6887 -0.2265
vn -0.2265 0.6887 -0.6887
vn -0.1877 0.9641 -0.1877
vn 0.0000 0.3827 -0.9239
vn 0.0000 0.9239 -0.3827
vn 0.0000 0.0000 -1.0000
vn 0.0000 0.1951 -0.9808
vn 0.0000 0.3827 -0.9239
vn 0.0000 0.3827 -0.9239
vn 0.0000 0.9239 -0.3827
vn 0.0000 0.9239 -0.3827
vn 0.0000 0.9239 -0.3827
vn 0.0000 1.0000 0.0000
vn 0.0000 1.0000 0.0000
vn 0.0000 1.0000 0.0000
vn 0.1877 0.9641 -0.1877
vn -0.1877 0.9641 0.1877
vn 0.0000 1.0000 0.0000
vn -0.6887 0.6887 0.2265
vn -0.2265 0.6887 0.6887
vn 0.0000 1.0000 0.0000
vn 0.0000 1.0000 0.0000
vn 0.0000 1.0000 0.0000
vn 0.1877 0.1877 0.9641
vn 0.1877 0.9641 0.1877
vn -0.0000 -0.9239 -0.3827
vn -0.0000 -0.9239 -0.3827
vn 0.0000 -0.9239 -0.3827
vn 0.2265 -0.6887 -0.6887
vn 0.0000 -0.3827 -0.9239
vn -0.0000 -0.3827 -0.9239
vn 0.0000 -0.9239 -0.3827
vn -0.0000 -0.3827 -0.9239
vn 0.1877 -0.1877 -0.9641
vn 0.0000 -0.1951 -0.9808
vn 0.0000 0.0000 -1.0000
vn 0.0000 0.0000 -1.0000
vn 0.6887 -0.6887 -0.2265
vn 0.6887 -0.2265 -0.6887
vn 0.9641 -0.1877 -0.1877
vn 0.1877 0.1877 -0.9641
vn 0.6887 0.2265 -0.6887
vn 0.2265 -0.6887 0.6887
vn 0.6887 -0.6887 0.2265
vn 0.9641 -0.1877 0.1877
vn 0.6887 -0.2265 0.6887
vn 0.9641 0.1877 -0.1877
vn 0.9641 0.1877 0.1877
vn -0.0000 0.9239 -0.3827
vn 0.0000 0.0000 -1.0000
vn 0.0000 0.0000 -1.0000
vn -0.0000 0.1951 -0.9808
vn 0.0000 1.0000 0.0000
vn 0.2265 0.6887 -0.6887
vn 0.0000 0.3827 -0.9239
vn 0.0000 0.3827 -0.9239
vn -0.0000 0.9239 -0.3827
vn -0.0000 0.9239 -0.3827
vn -0.0000 0.9239 -0.3827
vn -0.0000 0.3827 -0.9239
vn 0.0000 1.0000 0.0000
vn 0.6887 0.6887 -0.2265
vn 0.2265 0.6887 0.6887
vn 0.0000 1.0000 0.0000
vn 0.0000 1.0000 0.0000
vn 0.0000 1.0000 0.0000
vn 0.6887 0.2265 0.6887
vn 0.6887 0.6887 0.2265
vn 0.0000 -0.0000 -1.0000
vn 0.0000 0.0000 -1.0000
vn -0.5000 -0.0000 -0.8660
vn -0.8660 0.0000 -0.5000
vn -0.8660 0.0000 -0.5000
vn -1.0000 0.0000 0.0000
vn -1.0000 0.0000 0.0000
vn -0.8660 0.0000 0.5000
vn -0.8660 0.0000 0.5000
vn 0.0000 1.0000 0.0000
vn 0.0000 1.0000 0.0000
vn 0.0000 1.0000 0.0000
vn -0.5000 0.0000 -0.8660
vn 0.0000 1.0000 0.0000
vn 0.0000 1.0000 0.0000
vn 0.0000 1.0000 0.0000
vn 0.0000 1.0000 0.0000
vn -0.5000 0.0000 0.8660
vn -0.5000 0.0000 0.8660
vn 0.0000 0.0000 1.0000
vn 0.0000 0.0000 1.0000
vn 0.5000 0.0000 -0.8660
vn 0.5000 0.0000 -0.8660
vn 0.0000 1.0000 0.0000
vn 0.0000 1.0000 0.0000
vn 0.8660 0.0000 -0.5000
vn 0.8660 0.0000 -0.5000
vn 0.0000 1.0000 0.0000
vn 0.0000 1.0000 0.0000
vn 0.5000 0.0000 0.8660
vn 0.5000 0.0000 0.8660
vn 0.8660 0.0000 0.5000
vn 0.8660 0.0000 0.5000
vn 1.0000 0.0000 0.0000
vn 1.0000 0.0000 0.0000
vn 0.0000 1.0000 0.0000
vn -1.0000 0.0000 0.0000
vn -1.0000 0.0000 0.0000
vn -1.0000 0.0000 0.0000
vn -1.0000 0.0000 0.0000
vn -1.0000 0.0000 0.0000
vn -1.0000 0.0000 0.0000
vn -1.0000 0.0000 0.0000
vn 0.0000 -0.7818 -0.6235
vn 0.0000 -0.9749 -0.2225
vn 0.0000 -0.9749 -0.2225
vn 0.0000 -0.9749 0.2225
vn 0.0000 -0.9749 0.2225
vn 0.0000 -0.4339 -0.9010
vn 0.0000 -0.7818 -0.6235
vn -1.0000 0.0000 0.0000
vn 0.0000 -0.7818 0.6235
vn -0.0000 -0.6235 0.7818
vn 0.0000 -0.6235 0.7818
vn -1.0000 0.0000 0.0000
vn 0.0000 -0.6235 0.7818
vn -0.0000 -0.6235 0.7818
vn 0.0000 -0.6235 0.7818
vn -1.0000 0.0000 0.0000
vn -1.0000 0.0000 0.0000
vn -0.0000 -0.7818 0.6235
vn 0.0000 -0.6235 0.7818
vn -1.0000 0.0000 0.0000
vn -1.0000 0.0000 0.0000
vn -1.0000 0.0000 0.0000
vn -1.0000 0.0000 0.0000
vn 0.0000 0.0000 -1.0000
vn 0.0000 -0.4339 -0.9010
vn 0.0000 0.4339 -0.9010
vn 0.0000 0.0000 -1.0000
vn -1.0000 0.0000 0.0000
vn -1.0000 0.0000 0.0000
vn -1.0000 0.0000 0.0000
vn -1.0000 0.0000 0.0000
vn -1.0000 0.0000 0.0000
vn -1.0000 0.0000 0.0000
vn -1.0000 0.0000 0.0000
vn -1.0000 0.0000 0.0000
vn -1.0000 0.0000 0.0000
vn -0.0000 0.7818 -0.6235
vn -0.0000 0.4339 -0.9010
vn -1.0000 0.0000 0.0000
vn -1.0000 0.0000 0.0000
vn 0.0000 0.6235 0.7818
vn 0.0000 0.7818 0.6235
vn 0.0000 0.6235 0.7818
vn -0.0000 0.6235 0.7818
vn 0.0000 0.6235 0.7818
vn 0.0000 0.6235 0.7818
vn -0.0000 0.7818 0.6235
vn -1.0000 0.0000 0.0000
vn 0.0000 0.9749 -0.2225
vn 0.0000 0.7818 -0.6235
vn 0.0000 0.9749 0.2225
vn 0.0000 0.9749 -0.2225
vn 0.0000 0.9749 0.2225
vn 1.0000 0.0000 0.0000
vn 1.0000 0.0000 0.0000
vn 1.0000 0.0000 0.0000
vn 1.0000 0.0000 0.0000
vn 1.0000 0.0000 0.0000
vn 1.0000 0.0000 0.0000
vn 1.0000 0.0000 0.0000
vn 1.0000 0.0000 0.0000
vn 1.0000 0.0000 0.0000
vn -0.0000 -0.6235 0.7818
vn -0.0000 -0.6235 0.7818
vn 0.0000 -0.6235 0.7818
vn 0.0000 -0.6235 0.7818
vn 1.0000 0.0000 0.0000
vn 1.0000 0.0000 0.0000
vn 1.0000 0.0000 0.0000
vn 1.0000 0.0000 0.0000
vn 1.0000 0.0000 0.0000
vn 1.0000 0.0000 0.0000
vn 1.0000 0.0000 0.0000
vn 1.0000 0.0000 0.0000
vn 1.0000 0.0000 0.0000
vn 1.0000 0.0000 0.0000
vn 1.0000 0.0000 0.0000
vn 1.0000 0.0000 0.0000
vn 1.0000 0.0000 0.0000
vn -0.0000 0.6235 0.7818
vn 1.0000 0.0000 0.0000
vn 1.0000 0.0000 0.0000
vn 1.0000 0.0000 0.0000
vn 0.0000 0.6235 0.7818
vn 0.0000 0.6235 0.7818
vn -0.0000 0.6235 0.7818
vn 1.0000 0.0000 0.0000
vn 0.0000 0.6235 0.7818
vn 1.0000 0.0000 0.0000
vn -0.0000 0.9749 -0.2225
vn 0.0000 0.9010 -0.4339
vn -0.0000 0.9010 -0.4339
vn 0.0000 0.9010 -0.4339
vn 0.0000 0.7818 0.6235
vn -0.0000 0.7818 0.6235
vn -0.0000 0.4339 0.9010
vn 0.0000 0.9749 0.2225
vn 0.0000 0.9749 0.2225
vn -0.0000 0.9749 -0.2225
vn 0.0000 0.7818 -0.6235
vn 0.0000 0.7818 -0.6235
vn 0.0000 0.4339 -0.9010
vn 0.0000 0.4339 0.9010
vn 0.0000 -0.0000 1.0000
vn 0.0000 -0.0000 1.0000
vn 0.0000 -0.4339 0.9010
vn 0.0000 0.4339 -0.9010
vn 0.0000 0.0000 -1.0000
vn -0.0000 -0.0000 -1.0000
vn -0.0000 -0.4339 -0.9010
vn -0.0000 -0.9010 -0.4339
vn -0.0000 -0.9749 -0.2225
vn -0.0000 -0.9010 -0.4339
vn -0.0000 -0.9010 -0.4339
vn 0.0000 -0.4339 0.9010
vn 0.0000 -0.7818 0.6235
vn 0.0000 -0.7818 0.6235
vn 0.0000 -0.9749 0.2225
vn 0.0000 -0.9749 0.2225
vn 0.0000 -0.9010 -0.4339
vn 0.0000 -0.4339 -0.9010
vn 0.0000 -0.7818 -0.6235
vn -0.0000 -0.7818 -0.6235
vn -0.0000 0.9010 -0.4339
vn -0.0000 0.9010 -0.4339
vn -0.0000 0.9010 -0.4339
vn -0.0000 0.7818 -0.6235
vn 0.0000 0.7818 -0.6235
vn 0.0000 0.4339 -0.9010
vn 0.0000 0.4339 -0.9010
vn 0.0000 0.0000 -1.0000
vn -0.0000 -0.0000 -1.0000
vn -0.0000 -0.4339 -0.9010
vn 0.0000 -0.9749 -0.2225
vn -0.0000 -0.9010 -0.4339
vn 0.0000 -0.9010 -0.4339
vn 0.0000 -0.4339 -0.9010
vn 0.0000 -0.7818 -0.6235
vn 0.0000 -0.7818 -0.6235
vn -0.3827 -0.9239 0.0000
vn -0.1747 -0.9846 -0.0000
vn -0.6887 -0.6887 0.2265
vn -0.9239 -0.3827 0.0000
vn -0.9611 -0.2764 -0.0000
vn -0.1877 -0.9641 0.1877
vn -0.7083 -0.4992 0.4992
vn -0.8629 -0.3574 0.3574
vn -0.9231 -0.3823 0.0422
vn -0.2265 -0.6887 0.6887
vn -0.1817 -0.3763 0.9085
vn -0.5353 -0.5353 0.6534
vn -0.9702 -0.2423 0.0000
vn -1.0000 0.0000 0.0000
vn -1.0000 0.0000 0.0000
vn 0.1747 -0.9846 0.0000
vn 0.2265 -0.6887 0.6887
vn -0.3827 -0.0000 -0.9239
vn -0.1831 0.0000 -0.9831
vn -0.1831 0.0000 -0.9831
vn -0.9685 -0.0000 -0.2491
vn -1.0000 0.0000 0.0000
vn -0.9685 0.0000 -0.2491
vn -0.9239 0.0000 -0.3827
vn -0.9239 0.0000 -0.3827
vn -1.0000 0.0000 0.0000
vn -1.0000 0.0000 0.0000
vn -1.0000 0.0000 0.0000
vn -1.0000 0.0000 0.0000
vn -0.3827 0.0000 -0.9239
vn -0.9611 0.2764 -0.0000
vn -1.0000 0.0000 0.0000
vn -1.0000 0.0000 0.0000
vn -0.9702 0.2423 0.0000
vn -0.9231 0.3823 0.0422
vn -0.6887 0.6887 0.2265
vn -0.9239 0.3827 0.0000
vn -0.8629 0.3574 0.3574
vn -0.7083 0.4992 0.4992
vn -0.5353 0.5353 0.6534
vn -0.2265 0.6887 0.6887
vn -0.1817 0.3763 0.9085
vn -0.3827 0.9239 0.0000
vn -0.1877 0.9641 0.1877
vn -0.1747 0.9846 0.0000
vn 0.1831 0.0000 -0.9831
vn 0.1817 0.3763 0.9085
vn 0.1877 0.9641 0.1877
vn 0.1877 -0.9641 0.1877
vn 0.1817 -0.3763 0.9085
vn 0.3827 -0.9239 -0.0000
vn 0.6887 -0.6887 0.2265
vn 0.9239 -0.3827 0.0000
vn 0.9611 -0.2764 0.0000
vn 0.5353 -0.5353 0.6534
vn 0.7083 -0.4992 0.4992
vn 0.8629 -0.3574 0.3574
vn 0.9231 -0.3823 0.0422
vn 0.9702 -0.2423 -0.0000
vn 1.0000 0.0000 0.0000
vn 1.0000 0.0000 0.0000
vn 0.1831 0.0000 -0.9831
vn 0.9685 0.0000 -0.2491
vn 1.0000 0.0000 0.0000
vn 1.0000 0.0000 0.0000
vn 1.0000 0.0000 0.0000
vn 0.3827 0.0000 -0.9239
vn 0.3827 0.0000 -0.9239
vn 0.9239 0.0000 -0.3827
vn 0.9685 0.0000 -0.2491
vn 1.0000 0.0000 0.0000
vn 1.0000 0.0000 0.0000
vn 0.2265 0.6887 0.6887
vn 0.1747 0.9846 0.0000
vn 0.9239 0.0000 -0.3827
vn 0.9611 0.2764 0.0000
vn 1.0000 0.0000 0.0000
vn 1.0000 0.0000 0.0000
vn 0.9702 0.2423 -0.0000
vn 0.9239 0.3827 0.0000
vn 0.6887 0.6887 0.2265
vn 0.5353 0.5353 0.6534
vn 0.7083 0.4992 0.4992
vn 0.9231 0.3823 0.0422
vn 0.8629 0.3574 0.3574
vn 0.3827 0.9239 0.0000
f 1//1 2//2 3//3
f 1//1 4//4 5//5
f 1//1 5//5 2//2
f 2//2 5//5 6//6
f 2//2 7//7 3//3
f 2//2 6//6 8//8
f 2//2 8//8 9//9
f 6//6 10//10 8//8
f 6//6 11//11 10//10
f 3//3 7//7 12//12
f 2//2 9//9 13//13
f 2//2 14//14 7//7
f 3//3 12//12 15//15
f 5//5 4//4 16//16
f 5//5 16//16 6//6
f 6//6 17//17 11//11
f 11//11 18//18 10//10
f 3//3 15//15 19//19
f 1//1 3//3 20//20
f 1//1 20//20 4//4
f 3//3 21//21 20//20
f 4//4 20//20 22//22
f 20//20 21//21 23//23
f 20//20 24//24 22//22
f 20//20 23//23 24//24
f 23//23 25//25 24//24
f 4//4 22//22 26//26
f 22//22 24//24 27//27
f 24//24 25//25 27//27
f 3//3 28//28 21//21
f 21//21 28//28 23//23
f 23//23 29//29 25//25
f 25//25 29//29 30//30
f 4//4 31//31 16//16
f 6//6 16//16 32//32
f 6//6 32//32 17//17
f 16//16 31//31 33//33
f 16//16 33//33 34//34
f 16//16 34//34 32//32
f 33//33 35//35 34//34
f 32//32 34//34 36//36
f 34//34 35//35 37//37
f 32//32 38//38 17//17
f 32//32 39//39 38//38
f 32//32 36//36 39//39
f 34//34 40//40 36//36
f 34//34 41//41 40//40
f 34//34 42//42 43//43
f 34//34 37//37 42//42
f 35//35 44//44 37//37
f 35//35 45//45 46//46
f 35//35 46//46 47//47
f 35//35 48//48 44//44
f 4//4 26//26 31//31
f 31//31 26//26 33//33
f 33//33 49//49 35//35
f 35//35 49//49 50//50
f 35//35 50//50 45//45
f 22//22 27//27 26//26
f 25//25 30//30 27//27
f 33//33 26//26 51//51
f 33//33 51//51 49//49
f 26//26 27//27 51//51
f 27//27 52//52 51//51
f 27//27 30//30 52//52
f 51//51 52//52 49//49
f 49//49 53//53 50//50
f 49//49 54//54 53//53
f 49//49 55//55 54//54
f 30//30 56//56 52//52
f 49//49 52//52 57//57
f 19//19 15//15 58//58
f 19//19 58//58 59//59
f 19//19 59//59 60//60
f 61//61 62//62 63//63
f 19//19 60//60 64//64
f 61//61 63//63 65//65
f 66//66 65//65 67//67
f 66//66 67//67 68//68
f 66//66 68//68 69//69
f 61//61 19//19 64//64
f 61//61 65//65 66//66
f 61//61 70//70 19//19
f 61//61 71//71 70//70
f 61//61 66//66 71//71
f 70//70 71//71 72//72
f 66//66 69//69 73//73
f 66//66 74//74 71//71
f 71//71 74//74 72//72
f 3//3 19//19 28//28
f 23//23 28//28 75//75
f 23//23 75//75 29//29
f 19//19 70//70 76//76
f 70//70 72//72 76//76
f 19//19 76//76 28//28
f 72//72 77//77 76//76
f 28//28 76//76 75//75
f 75//75 76//76 78//78
f 75//75 78//78 29//29
f 76//76 77//77 78//78
f 72//72 79//79 77//77
f 29//29 78//78 56//56
f 77//77 80//80 78//78
f 35//35 47//47 48//48
f 48//48 81//81 44//44
f 82//82 83//83 84//84
f 48//48 47//47 85//85
f 73//73 69//69 82//82
f 86//86 87//87 88//88
f 48//48 89//89 90//90
f 48//48 91//91 89//89
f 48//48 90//90 81//81
f 73//73 82//82 84//84
f 86//86 84//84 92//92
f 86//86 92//92 87//87
f 48//48 85//85 93//93
f 66//66 73//73 74//74
f 72//72 74//74 79//79
f 73//73 84//84 86//86
f 86//86 91//91 48//48
f 73//73 86//86 74//74
f 74//74 86//86 94//94
f 74//74 94//94 79//79
f 86//86 48//48 94//94
f 49//49 57//57 55//55
f 30//30 29//29 56//56
f 52//52 56//56 95//95
f 52//52 95//95 57//57
f 57//57 96//96 55//55
f 48//48 93//93 97//97
f 79//79 94//94 80//80
f 48//48 57//57 94//94
f 48//48 97//97 57//57
f 57//57 98//98 96//96
f 57//57 97//97 98//98
f 77//77 79//79 80//80
f 78//78 99//99 56//56
f 78//78 80//80 99//99
f 94//94 100//100 80//80
f 94//94 57//57 100//100
f 56//56 99//99 95//95
f 99//99 100//100 95//95
f 80//80 100//100 99//99
f 57//57 95//95 100//100
f 101//101 102//102 103//103
f 104//104 105//105 106//106
f 107//107 106//106 108//108
f 104//104 106//106 107//107
f 107//107 108//108 109//109
f 110//110 111//111 112//112
f 113//113 103//103 105//105
f 104//104 113//113 105//105
f 110//110 112//112 114//114
f 112//112 115//115 114//114
f 113//113 101//101 103//103
f 114//114 115//115 116//116
f 116//116 115//115 117//117
f 109//109 108//108 118//118
f 109//109 118//118 119//119
f 119//119 118//118 120//120
f 119//119 120//120 121//121
f 101//101 122//122 102//102
f 122//122 123//123 102//102
f 116//116 117//117 124//124
f 117//117 125//125 124//124
f 126//126 127//127 123//123
f 122//122 126//126 123//123
f 124//124 125//125 128//128
f 125//125 129//129 128//128
f 121//121 120//120 130//130
f 121//121 130//130 131//131
f 131//131 130//130 132//132
f 131//131 132//132 133//133
f 134//134 135//135 127//127
f 133//133 132//132 135//135
f 126//126 134//134 127//127
f 134//134 133//133 135//135
f 128//128 129//129 136//136
f 137//137 138//138 139//139
f 138//138 140//140 141//141
f 138//138 141//141 139//139
f 141//141 140//140 142//142
f 137//137 139//139 143//143
f 144//144 145//145 146//146
f 146//146 147//147 148//148
f 144//144 149//149 150//150
f 140//140 151//151 142//142
f 152//152 153//153 154//154
f 151//151 155//155 142//142
f 152//152 154//154 156//156
f 152//152 156//156 157//157
f 156//156 158//158 157//157
f 151//151 159//159 155//155
f 151//151 160//160 159//159
f 148//148 161//161 152//152
f 152//152 162//162 153//153
f 137//137 163//163 164//164
f 137//137 143//143 165//165
f 137//137 165//165 163//163
f 164//164 163//163 166//166
f 149//149 167//167 168//168
f 167//167 169//169 170//170
f 159//159 160//160 171//171
f 159//159 171//171 172//172
f 165//165 173//173 163//163
f 173//173 174//174 163//163
f 173//173 175//175 174//174
f 175//175 176//176 174//174
f 177//177 178//178 179//179
f 169//169 180//180 181//181
f 172//172 182//182 183//183
f 172//172 171//171 182//182
f 183//183 182//182 177//177
f 184//184 185//185 186//186
f 184//184 187//187 185//185
f 185//185 188//188 186//186
f 187//187 189//189 185//185
f 189//189 190//190 185//185
f 176//176 191//191 174//174
f 176//176 179//179 191//191
f 179//179 178//178 191//191
f 180//180 192//192 193//193
f 192//192 194//194 195//195
f 177//177 182//182 178//178
f 185//185 196//196 194//194
f 144//144 150//150 145//145
f 146//146 145//145 147//147
f 149//149 168//168 150//150
f 197//197 198//198 199//199
f 200//200 201//201 197//197
f 197//197 201//201 198//198
f 199//199 198//198 202//202
f 200//200 203//203 201//201
f 200//200 204//204 203//203
f 148//148 147//147 161//161
f 152//152 161//161 162//162
f 199//199 202//202 205//205
f 162//162 161//161 206//206
f 161//161 207//207 206//206
f 161//161 208//208 207//207
f 207//207 208//208 209//209
f 205//205 202//202 210//210
f 205//205 211//211 212//212
f 167//167 170//170 168//168
f 200//200 213//213 214//214
f 200//200 215//215 204//204
f 200//200 214//214 215//215
f 213//213 216//216 214//214
f 205//205 210//210 211//211
f 211//211 217//217 212//212
f 169//169 181//181 170//170
f 180//180 193//193 181//181
f 215//215 214//214 218//218
f 215//215 218//218 219//219
f 219//219 218//218 220//220
f 220//220 221//221 222//222
f 189//189 223//223 190//190
f 217//217 224//224 212//212
f 211//211 225//225 217//217
f 225//225 226//226 217//217
f 227//227 228//228 229//229
f 226//226 230//230 217//217
f 227//227 229//229 190//190
f 227//227 190//190 231//231
f 223//223 231//231 190//190
f 192//192 195//195 193//193
f 194//194 196//196 195//195
f 220//220 218//218 221//221
f 222//222 221//221 232//232
f 222//222 232//232 230//230
f 185//185 190//190 196//196
f 230//230 232//232 217//217
f 233//233 234//234 235//235
f 233//233 235//235 236//236
f 237//237 238//238 239//239
f 240//240 241//241 237//237
f 240//240 233//233 242//242
f 233//233 236//236 242//242
f 233//233 243//243 234//234
f 233//233 244//244 243//243
f 244//244 245//245 243//243
f 239//239 246//246 247//247
f 247//247 248//248 249//249
f 244//244 250//250 245//245
f 250//250 251//251 245//245
f 250//250 252//252 251//251
f 252//252 253//253 251//251
f 254//254 255//255 256//256
f 256//256 255//255 257//257
f 249//249 258//258 259//259
f 259//259 260//260 261//261
f 261//261 262//262 255//255
f 255//255 263//263 257//257
f 252//252 264//264 253//253
f 264//264 265//265 253//253
f 264//264 266//266 265//265
f 254//254 265//265 266//266
f 254//254 266//266 255//255
f 240//240 242//242 241//241
f 237//237 241//241 238//238
f 236//236 267//267 242//242
f 267//267 268//268 242//242
f 242//242 268//268 269//269
f 242//242 269//269 270//270
f 269//269 271//271 270//270
f 271//271 272//272 270//270
f 239//239 238//238 246//246
f 247//247 246//246 248//248
f 271//271 273//273 272//272
f 273//273 274//274 272//272
f 273//273 275//275 274//274
f 275//275 276//276 274//274
f 249//249 248//248 258//258
f 259//259 258//258 260//260
f 261//261 260//260 262//262
f 255//255 262//262 277//277
f 255//255 277//277 263//263
f 263//263 277//277 278//278
f 279//279 278//278 277//277
f 275//275 280//280 276//276
f 280//280 281//281 276//276
f 280//280 282//282 281//281
f 279//279 281//281 282//282
f 279//279 277//277 281//281
f 283//283 284//284 285//285
f 286//286 285//285 287//287
f 285//285 284//284 288//288
f 285//285 289//289 290//290
f 285//285 290//290 291//291
f 285//285 292//292 289//289
f 285//285 288//288 292//292
f 292//292 293//293 294//294
f 292//292 294//294 289//289
f 287//287 291//291 295//295
f 287//287 295//295 296//296
f 287//287 296//296 297//297
f 285//285 291//291 287//287
f 284//284 298//298 288//288
f 288//288 299//299 292//292
f 292//292 299//299 293//293
f 300//300 301//301 302//302
f 303//303 304//304 305//305
f 306//306 303//303 307//307
f 304//304 308//308 309//309
f 308//308 310//310 309//309
f 304//304 309//309 311//311
f 304//304 311//311 305//305
f 300//300 312//312 301//301
f 303//303 305//305 307//307
f 313//313 314//314 315//315
f 313//313 315//315 316//316
f 313//313 316//316 317//317
f 313//313 317//317 318//318
f 313//313 318//318 319//319
f 318//318 317//317 320//320
f 318//318 320//320 321//321
f 318//318 321//321 322//322
f 318//318 322//322 323//323
f 323//323 322//322 324//324
f 325//325 318//318 326//326
f 325//325 326//326 327//327
f 318//318 323//323 326//326
f 302//302 301//301 328//328
f 323//323 324//324 329//329
f 327//327 326//326 330//330
f 323//323 330//330 326//326
f 288//288 298//298 331//331
f 288//288 331//331 299//299
f 299//299 332//332 293//293
f 298//298 333//333 331//331
f 331//331 333//333 334//334
f 335//335 336//336 334//334
f 331//331 334//334 299//299
f 299//299 337//337 332//332
f 299//299 338//338 337//337
f 299//299 334//334 338//338
f 334//334 339//339 338//338
f 334//334 340//340 339//339
f 334//334 336//336 341//341
f 334//334 341//341 340//340
f 336//336 342//342 341//341
f 336//336 343//343 342//342
f 302//302 328//328 344//344
f 345//345 346//346 347//347
f 347//347 346//346 348//348
f 344//344 349//349 350//350
f 351//351 352//352 345//345
f 345//345 353//353 346//346
f 345//345 354//354 353//353
f 323//323 329//329 355//355
f 327//327 330//330 356//356
f 323//323 355//355 330//330
f 344//344 328//328 349//349
f 351//351 357//357 352//352
f 345//345 352//352 354//354
f 358//358 359//359 360//360
f 358//358 361//361 359//359
f 358//358 362//362 361//361
f 362//362 363//363 361//361
f 355//355 329//329 364//364
f 355//355 364//364 365//365
f 363//363 366//366 361//361
f 355//355 365//365 363//363
f 363//363 367//367 366//366
f 363//363 365//365 367//367
f 356//356 330//330 368//368
f 330//330 363//363 368//368
f 355//355 363//363 330//330
