v -0.49000 -0.04900 -0.74000
v -0.49566 -0.04666 -0.74000
v -0.49000 -0.04666 -0.74566
v -0.49566 -0.04100 -0.74566
v -0.49800 -0.04100 -0.74000
v -0.49000 -0.04100 -0.74800
v -0.49566 0.04100 -0.74566
v -0.49566 -0.04666 0.74000
v -0.49800 0.04100 -0.74000
v -0.49000 0.04100 -0.74800
v -0.49800 0.04100 0.74000
v 0.49000 -0.04900 -0.74000
v 0.49000 -0.04100 -0.74800
v 0.49000 0.04100 -0.74800
v -0.49000 -0.04900 0.74000
v -0.49800 -0.04100 0.74000
v -0.49000 -0.04666 0.74566
v -0.49566 -0.04100 0.74566
v -0.49000 -0.04100 0.74800
v -0.49566 0.04100 0.74566
v -0.49000 0.04100 0.74800
v 0.49000 -0.04900 0.74000
v 0.49000 -0.04666 0.74566
v 0.49000 -0.04100 0.74800
v -0.49566 0.04666 -0.74000
v -0.49000 0.04666 -0.74566
v -0.49000 0.04900 -0.74000
v -0.45000 0.04900 -0.62500
v -0.43995 0.04900 -0.66250
v -0.41250 0.04900 -0.68995
v -0.45000 0.04900 -0.37500
v -0.37500 0.04900 -0.70000
v -0.43995 0.04900 -0.58750
v -0.43995 0.04900 -0.41250
v -0.41250 0.04900 -0.56005
v -0.41250 0.04900 -0.43995
v -0.37500 0.04900 -0.45000
v -0.37500 0.04900 -0.55000
v -0.12500 0.04900 -0.70000
v -0.33750 0.04900 -0.68995
v -0.16250 0.04900 -0.68995
v -0.31005 0.04900 -0.66250
v -0.30000 0.04900 -0.62500
v -0.20000 0.04900 -0.62500
v -0.31005 0.04900 -0.58750
v -0.33750 0.04900 -0.56005
v -0.33750 0.04900 -0.43995
v -0.31005 0.04900 -0.41250
v -0.18995 0.04900 -0.41250
v -0.30000 0.04900 -0.37500
v -0.20000 0.04900 -0.37500
v -0.49000 0.04900 0.74000
v -0.45000 0.04900 -0.12500
v -0.43995 0.04900 -0.33750
v -0.43995 0.04900 -0.16250
v -0.41250 0.04900 -0.31005
v -0.41250 0.04900 -0.18995
v -0.37500 0.04900 -0.30000
v -0.37500 0.04900 -0.20000
v -0.45000 0.04900 0.12500
v -0.43995 0.04900 -0.08750
v -0.43995 0.04900 0.08750
v -0.41250 0.04900 -0.06005
v -0.41250 0.04900 0.06005
v -0.37500 0.04900 -0.05000
v -0.33750 0.04900 -0.18995
v -0.33750 0.04900 -0.31005
v -0.31005 0.04900 -0.33750
v -0.31005 0.04900 -0.16250
v -0.18995 0.04900 -0.16250
v -0.37500 0.04900 0.05000
v -0.33750 0.04900 -0.06005
v -0.33750 0.04900 0.06005
v -0.31005 0.04900 -0.08750
v -0.30000 0.04900 -0.12500
v -0.20000 0.04900 -0.12500
v -0.18995 0.04900 -0.66250
v -0.18995 0.04900 -0.58750
v 0.49000 0.04900 -0.74000
v 0.12500 0.04900 -0.70000
v -0.16250 0.04900 -0.56005
v -0.16250 0.04900 -0.43995
v -0.12500 0.04900 -0.45000
v -0.12500 0.04900 -0.55000
v -0.08750 0.04900 -0.68995
v 0.08750 0.04900 -0.68995
v -0.06005 0.04900 -0.66250
v 0.06005 0.04900 -0.66250
v -0.05000 0.04900 -0.62500
v -0.06005 0.04900 -0.58750
v 0.06005 0.04900 -0.58750
v -0.08750 0.04900 -0.56005
v -0.08750 0.04900 -0.43995
v -0.06005 0.04900 -0.41250
v 0.08750 0.04900 -0.43995
v 0.06005 0.04900 -0.41250
v -0.05000 0.04900 -0.37500
v -0.18995 0.04900 -0.33750
v -0.16250 0.04900 -0.31005
v -0.16250 0.04900 -0.18995
v -0.12500 0.04900 -0.30000
v -0.12500 0.04900 -0.20000
v -0.18995 0.04900 -0.08750
v -0.18995 0.04900 0.08750
v -0.16250 0.04900 -0.06005
v -0.16250 0.04900 0.06005
v -0.12500 0.04900 -0.05000
v -0.08750 0.04900 -0.18995
v -0.08750 0.04900 -0.31005
v -0.06005 0.04900 -0.33750
v -0.06005 0.04900 -0.16250
v 0.06005 0.04900 -0.33750
v 0.06005 0.04900 -0.16250
v -0.12500 0.04900 0.05000
v -0.08750 0.04900 -0.06005
v -0.05000 0.04900 -0.12500
v 0.05000 0.04900 -0.12500
v -0.06005 0.04900 -0.08750
v -0.08750 0.04900 0.06005
v -0.49566 0.04666 0.74000
v -0.43995 0.04900 0.33750
v -0.43995 0.04900 0.16250
v -0.45000 0.04900 0.37500
v -0.41250 0.04900 0.18995
v -0.41250 0.04900 0.31005
v -0.37500 0.04900 0.20000
v -0.37500 0.04900 0.30000
v -0.31005 0.04900 0.08750
v -0.30000 0.04900 0.12500
v -0.20000 0.04900 0.12500
v -0.31005 0.04900 0.16250
v -0.33750 0.04900 0.31005
v -0.33750 0.04900 0.18995
v -0.31005 0.04900 0.33750
v -0.18995 0.04900 0.16250
v -0.16250 0.04900 0.18995
v -0.30000 0.04900 0.37500
v -0.31005 0.04900 0.41250
v -0.49000 0.04666 0.74566
v -0.45000 0.04900 0.62500
v -0.43995 0.04900 0.41250
v -0.43995 0.04900 0.58750
v -0.41250 0.04900 0.43995
v -0.41250 0.04900 0.56005
v -0.37500 0.04900 0.45000
v -0.37500 0.04900 0.55000
v -0.43995 0.04900 0.66250
v -0.41250 0.04900 0.68995
v -0.37500 0.04900 0.70000
v -0.33750 0.04900 0.56005
v -0.33750 0.04900 0.43995
v -0.31005 0.04900 0.58750
v -0.18995 0.04900 0.41250
v -0.12500 0.04900 0.70000
v -0.30000 0.04900 0.62500
v -0.20000 0.04900 0.62500
v -0.31005 0.04900 0.66250
v -0.33750 0.04900 0.68995
v -0.16250 0.04900 0.68995
v -0.18995 0.04900 0.33750
v -0.16250 0.04900 0.31005
v -0.12500 0.04900 0.30000
v -0.12500 0.04900 0.20000
v -0.06005 0.04900 0.08750
v -0.05000 0.04900 0.12500
v -0.08750 0.04900 0.31005
v -0.08750 0.04900 0.18995
v -0.06005 0.04900 0.16250
v -0.06005 0.04900 0.33750
v -0.05000 0.04900 0.37500
v 0.05000 0.04900 0.37500
v 0.49000 0.04100 0.74800
v -0.20000 0.04900 0.37500
v -0.18995 0.04900 0.58750
v -0.16250 0.04900 0.43995
v -0.16250 0.04900 0.56005
v -0.12500 0.04900 0.45000
v -0.12500 0.04900 0.55000
v -0.18995 0.04900 0.66250
v 0.49000 0.04900 0.74000
v -0.08750 0.04900 0.43995
v -0.08750 0.04900 0.56005
v -0.06005 0.04900 0.41250
v -0.06005 0.04900 0.58750
v -0.05000 0.04900 0.62500
v 0.05000 0.04900 0.62500
v -0.06005 0.04900 0.66250
v 0.06005 0.04900 0.66250
v 0.08750 0.04900 0.68995
v -0.08750 0.04900 0.68995
v 0.49000 -0.04666 -0.74566
v 0.49566 -0.04666 -0.74000
v 0.49566 -0.04100 -0.74566
v 0.49800 -0.04100 -0.74000
v 0.49566 0.04100 -0.74566
v 0.49566 -0.04666 0.74000
v 0.49800 0.04100 -0.74000
v 0.49800 -0.04100 0.74000
v 0.49566 -0.04100 0.74566
v 0.49800 0.04100 0.74000
v 0.49566 0.04100 0.74566
v 0.05000 0.04900 -0.62500
v 0.08750 0.04900 -0.56005
v 0.05000 0.04900 -0.37500
v 0.12500 0.04900 -0.45000
v 0.12500 0.04900 -0.55000
v 0.49000 0.04666 -0.74566
v 0.16250 0.04900 -0.68995
v 0.33750 0.04900 -0.68995
v 0.18995 0.04900 -0.66250
v 0.31005 0.04900 -0.66250
v 0.20000 0.04900 -0.62500
v 0.30000 0.04900 -0.62500
v 0.18995 0.04900 -0.58750
v 0.31005 0.04900 -0.58750
v 0.16250 0.04900 -0.56005
v 0.16250 0.04900 -0.43995
v 0.18995 0.04900 -0.41250
v 0.33750 0.04900 -0.56005
v 0.20000 0.04900 -0.37500
v 0.18995 0.04900 -0.33750
v 0.08750 0.04900 -0.31005
v 0.08750 0.04900 -0.18995
v 0.12500 0.04900 -0.30000
v 0.12500 0.04900 -0.20000
v 0.06005 0.04900 -0.08750
v 0.08750 0.04900 -0.06005
v 0.16250 0.04900 -0.18995
v 0.16250 0.04900 -0.31005
v 0.18995 0.04900 -0.16250
v 0.37500 0.04900 -0.55000
v 0.16250 0.04900 -0.06005
v 0.08750 0.04900 0.06005
v 0.31005 0.04900 -0.16250
v 0.30000 0.04900 -0.12500
v 0.12500 0.04900 0.05000
v 0.20000 0.04900 -0.12500
v 0.18995 0.04900 -0.08750
v 0.31005 0.04900 -0.08750
v 0.37500 0.04900 -0.70000
v 0.31005 0.04900 -0.41250
v 0.33750 0.04900 -0.43995
v 0.37500 0.04900 -0.45000
v 0.49566 0.04666 -0.74000
v 0.41250 0.04900 -0.68995
v 0.43995 0.04900 -0.66250
v 0.45000 0.04900 -0.62500
v 0.45000 0.04900 -0.37500
v 0.41250 0.04900 -0.56005
v 0.41250 0.04900 -0.43995
v 0.43995 0.04900 -0.41250
v 0.43995 0.04900 -0.58750
v 0.45000 0.04900 -0.12500
v 0.30000 0.04900 -0.37500
v 0.31005 0.04900 -0.33750
v 0.33750 0.04900 -0.31005
v 0.33750 0.04900 -0.18995
v 0.37500 0.04900 -0.30000
v 0.37500 0.04900 -0.20000
v 0.31005 0.04900 0.08750
v 0.33750 0.04900 -0.06005
v 0.33750 0.04900 0.06005
v 0.37500 0.04900 -0.05000
v 0.41250 0.04900 -0.18995
v 0.41250 0.04900 -0.31005
v 0.43995 0.04900 -0.33750
v 0.43995 0.04900 -0.16250
v 0.45000 0.04900 0.12500
v 0.37500 0.04900 0.05000
v 0.41250 0.04900 -0.06005
v 0.41250 0.04900 0.06005
v 0.43995 0.04900 -0.08750
v 0.45000 0.04900 0.37500
v 0.43995 0.04900 0.08750
v 0.12500 0.04900 -0.05000
v 0.06005 0.04900 0.08750
v 0.05000 0.04900 0.12500
v 0.06005 0.04900 0.16250
v 0.06005 0.04900 0.33750
v 0.08750 0.04900 0.18995
v 0.08750 0.04900 0.31005
v 0.12500 0.04900 0.20000
v 0.12500 0.04900 0.30000
v 0.16250 0.04900 0.06005
v 0.18995 0.04900 0.08750
v 0.20000 0.04900 0.12500
v 0.30000 0.04900 0.12500
v 0.18995 0.04900 0.16250
v 0.31005 0.04900 0.16250
v 0.16250 0.04900 0.31005
v 0.16250 0.04900 0.18995
v 0.18995 0.04900 0.33750
v 0.31005 0.04900 0.33750
v 0.20000 0.04900 0.37500
v 0.30000 0.04900 0.37500
v 0.06005 0.04900 0.41250
v 0.06005 0.04900 0.58750
v 0.08750 0.04900 0.43995
v 0.08750 0.04900 0.56005
v 0.12500 0.04900 0.45000
v 0.12500 0.04900 0.55000
v 0.12500 0.04900 0.70000
v 0.16250 0.04900 0.43995
v 0.16250 0.04900 0.56005
v 0.18995 0.04900 0.41250
v 0.18995 0.04900 0.58750
v 0.31005 0.04900 0.41250
v 0.31005 0.04900 0.58750
v 0.49000 0.04666 0.74566
v 0.20000 0.04900 0.62500
v 0.30000 0.04900 0.62500
v 0.18995 0.04900 0.66250
v 0.31005 0.04900 0.66250
v 0.37500 0.04900 0.70000
v 0.16250 0.04900 0.68995
v 0.33750 0.04900 0.68995
v 0.33750 0.04900 0.18995
v 0.33750 0.04900 0.31005
v 0.37500 0.04900 0.20000
v 0.37500 0.04900 0.30000
v 0.41250 0.04900 0.31005
v 0.41250 0.04900 0.18995
v 0.43995 0.04900 0.16250
v 0.43995 0.04900 0.33750
v 0.49566 0.04666 0.74000
v 0.33750 0.04900 0.43995
v 0.33750 0.04900 0.56005
v 0.37500 0.04900 0.45000
v 0.37500 0.04900 0.55000
v 0.41250 0.04900 0.43995
v 0.41250 0.04900 0.56005
v 0.43995 0.04900 0.41250
v 0.43995 0.04900 0.58750
v 0.45000 0.04900 0.62500
v 0.41250 0.04900 0.68995
v 0.43995 0.04900 0.66250
v -0.43995 0.09900 -0.66250
v -0.43995 0.04900 -0.66250
v -0.45000 0.04900 -0.62500
v -0.45000 0.09900 -0.62500
v -0.43995 0.04900 -0.58750
v -0.41250 0.09900 -0.68995
v -0.41250 0.04900 -0.68995
v -0.37500 0.09900 -0.70000
v -0.37500 0.04900 -0.70000
v -0.43995 0.09900 -0.58750
v -0.41250 0.04900 -0.56005
v -0.41250 0.09900 -0.56005
v -0.37500 0.04900 -0.55000
v -0.43995 0.09900 -0.66250
v -0.45000 0.09900 -0.62500
v -0.43995 0.09900 -0.58750
v -0.41250 0.09900 -0.68995
v -0.41250 0.09900 -0.56005
v -0.37500 0.09900 -0.70000
v -0.37500 0.09900 -0.55000
v -0.37500 0.09900 -0.55000
v -0.33750 0.09900 -0.68995
v -0.33750 0.04900 -0.68995
v -0.31005 0.09900 -0.66250
v -0.31005 0.04900 -0.66250
v -0.33750 0.09900 -0.56005
v -0.33750 0.04900 -0.56005
v -0.31005 0.04900 -0.58750
v -0.30000 0.09900 -0.62500
v -0.30000 0.04900 -0.62500
v -0.31005 0.09900 -0.58750
v -0.33750 0.09900 -0.68995
v -0.33750 0.09900 -0.56005
v -0.31005 0.09900 -0.66250
v -0.31005 0.09900 -0.58750
v -0.30000 0.09900 -0.62500
v -0.43995 0.09900 -0.41250
v -0.43995 0.04900 -0.41250
v -0.45000 0.04900 -0.37500
v -0.41250 0.09900 -0.43995
v -0.41250 0.04900 -0.43995
v -0.37500 0.09900 -0.45000
v -0.37500 0.04900 -0.45000
v -0.45000 0.09900 -0.37500
v -0.43995 0.09900 -0.41250
v -0.45000 0.09900 -0.37500
v -0.43995 0.09900 -0.33750
v -0.41250 0.09900 -0.43995
v -0.41250 0.09900 -0.31005
v -0.37500 0.09900 -0.45000
v -0.33750 0.09900 -0.43995
v -0.33750 0.04900 -0.43995
v -0.31005 0.09900 -0.41250
v -0.31005 0.04900 -0.41250
v -0.30000 0.09900 -0.37500
v -0.30000 0.04900 -0.37500
v -0.37500 0.09900 -0.30000
v -0.33750 0.09900 -0.43995
v -0.33750 0.09900 -0.31005
v -0.31005 0.09900 -0.41250
v -0.31005 0.09900 -0.33750
v -0.30000 0.09900 -0.37500
v -0.43995 0.04900 -0.33750
v -0.43995 0.09900 -0.33750
v -0.41250 0.04900 -0.31005
v -0.41250 0.09900 -0.31005
v -0.37500 0.04900 -0.30000
v -0.37500 0.09900 -0.30000
v -0.33750 0.04900 -0.31005
v -0.33750 0.09900 -0.31005
v -0.31005 0.04900 -0.33750
v -0.31005 0.09900 -0.33750
v -0.37500 0.09900 -0.20000
v -0.37500 0.04900 -0.20000
v -0.41250 0.04900 -0.18995
v -0.43995 0.09900 -0.16250
v -0.43995 0.04900 -0.16250
v -0.45000 0.04900 -0.12500
v -0.45000 0.09900 -0.12500
v -0.43995 0.04900 -0.08750
v -0.41250 0.09900 -0.18995
v -0.43995 0.09900 -0.08750
v -0.41250 0.04900 -0.06005
v -0.41250 0.09900 -0.06005
v -0.37500 0.04900 -0.05000
v -0.43995 0.09900 -0.16250
v -0.45000 0.09900 -0.12500
v -0.43995 0.09900 -0.08750
v -0.37500 0.09900 -0.05000
v -0.41250 0.09900 -0.18995
v -0.41250 0.09900 -0.06005
v -0.37500 0.09900 -0.20000
v -0.37500 0.09900 -0.05000
v -0.33750 0.09900 -0.18995
v -0.33750 0.04900 -0.18995
v -0.31005 0.09900 -0.16250
v -0.31005 0.04900 -0.16250
v -0.33750 0.04900 -0.06005
v -0.33750 0.09900 -0.06005
v -0.31005 0.04900 -0.08750
v -0.30000 0.09900 -0.12500
v -0.30000 0.04900 -0.12500
v -0.31005 0.09900 -0.08750
v -0.33750 0.09900 -0.18995
v -0.33750 0.09900 -0.06005
v -0.31005 0.09900 -0.16250
v -0.31005 0.09900 -0.08750
v -0.30000 0.09900 -0.12500
v -0.43995 0.09900 0.08750
v -0.43995 0.04900 0.08750
v -0.45000 0.04900 0.12500
v -0.45000 0.09900 0.12500
v -0.43995 0.04900 0.16250
v -0.41250 0.09900 0.06005
v -0.41250 0.04900 0.06005
v -0.37500 0.09900 0.05000
v -0.37500 0.04900 0.05000
v -0.43995 0.09900 0.16250
v -0.41250 0.04900 0.18995
v -0.41250 0.09900 0.18995
v -0.37500 0.04900 0.20000
v -0.43995 0.09900 0.08750
v -0.45000 0.09900 0.12500
v -0.43995 0.09900 0.16250
v -0.41250 0.09900 0.06005
v -0.41250 0.09900 0.18995
v -0.37500 0.09900 0.05000
v -0.37500 0.09900 0.20000
v -0.37500 0.09900 0.20000
v -0.33750 0.09900 0.06005
v -0.33750 0.04900 0.06005
v -0.31005 0.09900 0.08750
v -0.31005 0.04900 0.08750
v -0.33750 0.09900 0.18995
v -0.33750 0.04900 0.18995
v -0.31005 0.04900 0.16250
v -0.30000 0.09900 0.12500
v -0.30000 0.04900 0.12500
v -0.31005 0.09900 0.16250
v -0.33750 0.09900 0.06005
v -0.33750 0.09900 0.18995
v -0.31005 0.09900 0.08750
v -0.31005 0.09900 0.16250
v -0.30000 0.09900 0.12500
v -0.43995 0.09900 0.33750
v -0.43995 0.04900 0.33750
v -0.45000 0.04900 0.37500
v -0.41250 0.09900 0.31005
v -0.41250 0.04900 0.31005
v -0.37500 0.09900 0.30000
v -0.37500 0.04900 0.30000
v -0.45000 0.09900 0.37500
v -0.43995 0.09900 0.33750
v -0.43995 0.09900 0.41250
v -0.41250 0.09900 0.31005
v -0.41250 0.09900 0.43995
v -0.37500 0.09900 0.30000
v -0.33750 0.09900 0.31005
v -0.33750 0.04900 0.31005
v -0.31005 0.09900 0.33750
v -0.31005 0.04900 0.33750
v -0.30000 0.09900 0.37500
v -0.30000 0.04900 0.37500
v -0.37500 0.09900 0.45000
v -0.33750 0.09900 0.31005
v -0.33750 0.09900 0.43995
v -0.31005 0.09900 0.33750
v -0.43995 0.04900 0.41250
v -0.43995 0.09900 0.41250
v -0.41250 0.04900 0.43995
v -0.41250 0.09900 0.43995
v -0.37500 0.04900 0.45000
v -0.45000 0.09900 0.37500
v -0.37500 0.09900 0.45000
v -0.33750 0.04900 0.43995
v -0.33750 0.09900 0.43995
v -0.31005 0.04900 0.41250
v -0.31005 0.09900 0.41250
v -0.31005 0.09900 0.41250
v -0.30000 0.09900 0.37500
v -0.37500 0.09900 0.55000
v -0.37500 0.04900 0.55000
v -0.41250 0.04900 0.56005
v -0.43995 0.09900 0.58750
v -0.43995 0.04900 0.58750
v -0.45000 0.04900 0.62500
v -0.45000 0.09900 0.62500
v -0.43995 0.04900 0.66250
v -0.41250 0.09900 0.56005
v -0.43995 0.09900 0.66250
v -0.41250 0.04900 0.68995
v -0.41250 0.09900 0.68995
v -0.37500 0.04900 0.70000
v -0.43995 0.09900 0.58750
v -0.45000 0.09900 0.62500
v -0.43995 0.09900 0.66250
v -0.37500 0.09900 0.70000
v -0.41250 0.09900 0.56005
v -0.41250 0.09900 0.68995
v -0.37500 0.09900 0.55000
v -0.37500 0.09900 0.70000
v -0.33750 0.09900 0.56005
v -0.33750 0.04900 0.56005
v -0.31005 0.09900 0.58750
v -0.31005 0.04900 0.58750
v -0.33750 0.04900 0.68995
v -0.33750 0.09900 0.68995
v -0.31005 0.04900 0.66250
v -0.30000 0.09900 0.62500
v -0.30000 0.04900 0.62500
v -0.31005 0.09900 0.66250
v -0.33750 0.09900 0.56005
v -0.33750 0.09900 0.68995
v -0.31005 0.09900 0.58750
v -0.31005 0.09900 0.66250
v -0.30000 0.09900 0.62500
v -0.18995 0.09900 -0.66250
v -0.18995 0.04900 -0.66250
v -0.20000 0.04900 -0.62500
v -0.20000 0.09900 -0.62500
v -0.18995 0.04900 -0.58750
v -0.16250 0.09900 -0.68995
v -0.16250 0.04900 -0.68995
v -0.12500 0.09900 -0.70000
v -0.12500 0.04900 -0.70000
v -0.18995 0.09900 -0.58750
v -0.16250 0.04900 -0.56005
v -0.16250 0.09900 -0.56005
v -0.12500 0.04900 -0.55000
v -0.20000 0.09900 -0.62500
v -0.18995 0.09900 -0.58750
v -0.18995 0.09900 -0.66250
v -0.16250 0.09900 -0.68995
v -0.16250 0.09900 -0.56005
v -0.12500 0.09900 -0.70000
v -0.12500 0.09900 -0.55000
v -0.12500 0.09900 -0.55000
v -0.08750 0.09900 -0.68995
v -0.08750 0.04900 -0.68995
v -0.06005 0.09900 -0.66250
v -0.06005 0.04900 -0.66250
v -0.08750 0.09900 -0.56005
v -0.08750 0.04900 -0.56005
v -0.06005 0.04900 -0.58750
v -0.05000 0.09900 -0.62500
v -0.05000 0.04900 -0.62500
v -0.06005 0.09900 -0.58750
v -0.08750 0.09900 -0.68995
v -0.08750 0.09900 -0.56005
v -0.06005 0.09900 -0.66250
v -0.06005 0.09900 -0.58750
v -0.05000 0.09900 -0.62500
v -0.18995 0.09900 -0.41250
v -0.18995 0.04900 -0.41250
v -0.20000 0.04900 -0.37500
v -0.16250 0.09900 -0.43995
v -0.16250 0.04900 -0.43995
v -0.12500 0.09900 -0.45000
v -0.12500 0.04900 -0.45000
v -0.20000 0.09900 -0.37500
v -0.20000 0.09900 -0.37500
v -0.18995 0.09900 -0.33750
v -0.18995 0.09900 -0.41250
v -0.16250 0.09900 -0.43995
v -0.16250 0.09900 -0.31005
v -0.12500 0.09900 -0.45000
v -0.08750 0.09900 -0.43995
v -0.08750 0.04900 -0.43995
v -0.06005 0.09900 -0.41250
v -0.06005 0.04900 -0.41250
v -0.05000 0.09900 -0.37500
v -0.05000 0.04900 -0.37500
v -0.12500 0.09900 -0.30000
v -0.08750 0.09900 -0.43995
v -0.08750 0.09900 -0.31005
v -0.06005 0.09900 -0.41250
v -0.06005 0.09900 -0.33750
v -0.05000 0.09900 -0.37500
v -0.18995 0.04900 -0.33750
v -0.18995 0.09900 -0.33750
v -0.16250 0.04900 -0.31005
v -0.16250 0.09900 -0.31005
v -0.12500 0.04900 -0.30000
v -0.12500 0.09900 -0.30000
v -0.08750 0.04900 -0.31005
v -0.08750 0.09900 -0.31005
v -0.06005 0.04900 -0.33750
v -0.06005 0.09900 -0.33750
v -0.12500 0.09900 -0.20000
v -0.12500 0.04900 -0.20000
v -0.16250 0.04900 -0.18995
v -0.18995 0.09900 -0.16250
v -0.18995 0.04900 -0.16250
v -0.20000 0.04900 -0.12500
v -0.20000 0.09900 -0.12500
v -0.18995 0.04900 -0.08750
v -0.16250 0.09900 -0.18995
v -0.18995 0.09900 -0.08750
v -0.16250 0.04900 -0.06005
v -0.16250 0.09900 -0.06005
v -0.12500 0.04900 -0.05000
v -0.20000 0.09900 -0.12500
v -0.18995 0.09900 -0.08750
v -0.18995 0.09900 -0.16250
v -0.12500 0.09900 -0.05000
v -0.16250 0.09900 -0.18995
v -0.16250 0.09900 -0.06005
v -0.12500 0.09900 -0.20000
v -0.12500 0.09900 -0.05000
v -0.08750 0.09900 -0.18995
v -0.08750 0.04900 -0.18995
v -0.06005 0.09900 -0.16250
v -0.06005 0.04900 -0.16250
v -0.08750 0.04900 -0.06005
v -0.08750 0.09900 -0.06005
v -0.06005 0.04900 -0.08750
v -0.05000 0.09900 -0.12500
v -0.05000 0.04900 -0.12500
v -0.06005 0.09900 -0.08750
v -0.08750 0.09900 -0.18995
v -0.08750 0.09900 -0.06005
v -0.06005 0.09900 -0.16250
v -0.06005 0.09900 -0.08750
v -0.05000 0.09900 -0.12500
v -0.18995 0.09900 0.08750
v -0.18995 0.04900 0.08750
v -0.20000 0.04900 0.12500
v -0.20000 0.09900 0.12500
v -0.18995 0.04900 0.16250
v -0.16250 0.09900 0.06005
v -0.16250 0.04900 0.06005
v -0.12500 0.09900 0.05000
v -0.12500 0.04900 0.05000
v -0.18995 0.09900 0.16250
v -0.16250 0.04900 0.18995
v -0.16250 0.09900 0.18995
v -0.12500 0.04900 0.20000
v -0.20000 0.09900 0.12500
v -0.18995 0.09900 0.16250
v -0.18995 0.09900 0.08750
v -0.16250 0.09900 0.06005
v -0.16250 0.09900 0.18995
v -0.12500 0.09900 0.05000
v -0.12500 0.09900 0.20000
v -0.12500 0.09900 0.20000
v -0.08750 0.09900 0.06005
v -0.08750 0.04900 0.06005
v -0.06005 0.09900 0.08750
v -0.06005 0.04900 0.08750
v -0.08750 0.09900 0.18995
v -0.08750 0.04900 0.18995
v -0.06005 0.04900 0.16250
v -0.05000 0.09900 0.12500
v -0.05000 0.04900 0.12500
v -0.06005 0.09900 0.16250
v -0.08750 0.09900 0.06005
v -0.08750 0.09900 0.18995
v -0.06005 0.09900 0.08750
v -0.06005 0.09900 0.16250
v -0.05000 0.09900 0.12500
v -0.18995 0.09900 0.33750
v -0.18995 0.04900 0.33750
v -0.20000 0.04900 0.37500
v -0.16250 0.09900 0.31005
v -0.16250 0.04900 0.31005
v -0.12500 0.09900 0.30000
v -0.12500 0.04900 0.30000
v -0.20000 0.09900 0.37500
v -0.18995 0.09900 0.33750
v -0.18995 0.09900 0.41250
v -0.16250 0.09900 0.31005
v -0.16250 0.09900 0.43995
v -0.12500 0.09900 0.30000
v -0.08750 0.09900 0.31005
v -0.08750 0.04900 0.31005
v -0.06005 0.09900 0.33750
v -0.06005 0.04900 0.33750
v -0.05000 0.09900 0.37500
v -0.05000 0.04900 0.37500
v -0.12500 0.09900 0.45000
v -0.08750 0.09900 0.31005
v -0.08750 0.09900 0.43995
v -0.06005 0.09900 0.33750
v -0.18995 0.04900 0.41250
v -0.18995 0.09900 0.41250
v -0.16250 0.04900 0.43995
v -0.16250 0.09900 0.43995
v -0.12500 0.04900 0.45000
v -0.20000 0.09900 0.37500
v -0.12500 0.09900 0.45000
v -0.08750 0.04900 0.43995
v -0.08750 0.09900 0.43995
v -0.06005 0.04900 0.41250
v -0.06005 0.09900 0.41250
v -0.06005 0.09900 0.41250
v -0.05000 0.09900 0.37500
v -0.12500 0.09900 0.55000
v -0.12500 0.04900 0.55000
v -0.16250 0.04900 0.56005
v -0.18995 0.09900 0.58750
v -0.18995 0.04900 0.58750
v -0.20000 0.04900 0.62500
v -0.20000 0.09900 0.62500
v -0.18995 0.04900 0.66250
v -0.16250 0.09900 0.56005
v -0.18995 0.09900 0.66250
v -0.16250 0.04900 0.68995
v -0.16250 0.09900 0.68995
v -0.12500 0.04900 0.70000
v -0.18995 0.09900 0.58750
v -0.20000 0.09900 0.62500
v -0.18995 0.09900 0.66250
v -0.12500 0.09900 0.70000
v -0.16250 0.09900 0.56005
v -0.16250 0.09900 0.68995
v -0.12500 0.09900 0.55000
v -0.12500 0.09900 0.70000
v -0.08750 0.09900 0.56005
v -0.08750 0.04900 0.56005
v -0.06005 0.09900 0.58750
v -0.06005 0.04900 0.58750
v -0.08750 0.04900 0.68995
v -0.08750 0.09900 0.68995
v -0.06005 0.04900 0.66250
v -0.05000 0.09900 0.62500
v -0.05000 0.04900 0.62500
v -0.06005 0.09900 0.66250
v -0.08750 0.09900 0.56005
v -0.08750 0.09900 0.68995
v -0.06005 0.09900 0.58750
v -0.06005 0.09900 0.66250
v -0.05000 0.09900 0.62500
v 0.06005 0.09900 -0.66250
v 0.06005 0.04900 -0.66250
v 0.05000 0.04900 -0.62500
v 0.05000 0.09900 -0.62500
v 0.06005 0.04900 -0.58750
v 0.08750 0.09900 -0.68995
v 0.08750 0.04900 -0.68995
v 0.12500 0.09900 -0.70000
v 0.12500 0.04900 -0.70000
v 0.06005 0.09900 -0.58750
v 0.08750 0.04900 -0.56005
v 0.08750 0.09900 -0.56005
v 0.12500 0.04900 -0.55000
v 0.05000 0.09900 -0.62500
v 0.06005 0.09900 -0.58750
v 0.06005 0.09900 -0.66250
v 0.08750 0.09900 -0.68995
v 0.08750 0.09900 -0.56005
v 0.12500 0.09900 -0.70000
v 0.12500 0.09900 -0.55000
v 0.12500 0.09900 -0.55000
v 0.16250 0.09900 -0.68995
v 0.16250 0.04900 -0.68995
v 0.18995 0.09900 -0.66250
v 0.18995 0.04900 -0.66250
v 0.16250 0.09900 -0.56005
v 0.16250 0.04900 -0.56005
v 0.18995 0.04900 -0.58750
v 0.20000 0.09900 -0.62500
v 0.20000 0.04900 -0.62500
v 0.18995 0.09900 -0.58750
v 0.16250 0.09900 -0.68995
v 0.16250 0.09900 -0.56005
v 0.18995 0.09900 -0.66250
v 0.18995 0.09900 -0.58750
v 0.20000 0.09900 -0.62500
v 0.06005 0.09900 -0.41250
v 0.06005 0.04900 -0.41250
v 0.05000 0.04900 -0.37500
v 0.08750 0.09900 -0.43995
v 0.08750 0.04900 -0.43995
v 0.12500 0.09900 -0.45000
v 0.12500 0.04900 -0.45000
v 0.05000 0.09900 -0.37500
v 0.05000 0.09900 -0.37500
v 0.06005 0.09900 -0.33750
v 0.06005 0.09900 -0.41250
v 0.08750 0.09900 -0.43995
v 0.08750 0.09900 -0.31005
v 0.12500 0.09900 -0.45000
v 0.16250 0.09900 -0.43995
v 0.16250 0.04900 -0.43995
v 0.18995 0.09900 -0.41250
v 0.18995 0.04900 -0.41250
v 0.20000 0.09900 -0.37500
v 0.20000 0.04900 -0.37500
v 0.12500 0.09900 -0.30000
v 0.16250 0.09900 -0.43995
v 0.16250 0.09900 -0.31005
v 0.18995 0.09900 -0.41250
v 0.18995 0.09900 -0.33750
v 0.20000 0.09900 -0.37500
v 0.06005 0.04900 -0.33750
v 0.06005 0.09900 -0.33750
v 0.08750 0.04900 -0.31005
v 0.08750 0.09900 -0.31005
v 0.12500 0.04900 -0.30000
v 0.12500 0.09900 -0.30000
v 0.16250 0.04900 -0.31005
v 0.16250 0.09900 -0.31005
v 0.18995 0.04900 -0.33750
v 0.18995 0.09900 -0.33750
v 0.12500 0.09900 -0.20000
v 0.12500 0.04900 -0.20000
v 0.08750 0.04900 -0.18995
v 0.06005 0.09900 -0.16250
v 0.06005 0.04900 -0.16250
v 0.05000 0.04900 -0.12500
v 0.05000 0.09900 -0.12500
v 0.06005 0.04900 -0.08750
v 0.08750 0.09900 -0.18995
v 0.06005 0.09900 -0.08750
v 0.08750 0.04900 -0.06005
v 0.08750 0.09900 -0.06005
v 0.12500 0.04900 -0.05000
v 0.05000 0.09900 -0.12500
v 0.06005 0.09900 -0.08750
v 0.06005 0.09900 -0.16250
v 0.12500 0.09900 -0.05000
v 0.08750 0.09900 -0.18995
v 0.08750 0.09900 -0.06005
v 0.12500 0.09900 -0.20000
v 0.12500 0.09900 -0.05000
v 0.16250 0.09900 -0.18995
v 0.16250 0.04900 -0.18995
v 0.18995 0.09900 -0.16250
v 0.18995 0.04900 -0.16250
v 0.16250 0.04900 -0.06005
v 0.16250 0.09900 -0.06005
v 0.18995 0.04900 -0.08750
v 0.20000 0.09900 -0.12500
v 0.20000 0.04900 -0.12500
v 0.18995 0.09900 -0.08750
v 0.16250 0.09900 -0.18995
v 0.16250 0.09900 -0.06005
v 0.18995 0.09900 -0.16250
v 0.18995 0.09900 -0.08750
v 0.20000 0.09900 -0.12500
v 0.06005 0.09900 0.08750
v 0.06005 0.04900 0.08750
v 0.05000 0.04900 0.12500
v 0.05000 0.09900 0.12500
v 0.06005 0.04900 0.16250
v 0.08750 0.09900 0.06005
v 0.08750 0.04900 0.06005
v 0.12500 0.09900 0.05000
v 0.12500 0.04900 0.05000
v 0.06005 0.09900 0.16250
v 0.08750 0.04900 0.18995
v 0.08750 0.09900 0.18995
v 0.12500 0.04900 0.20000
v 0.05000 0.09900 0.12500
v 0.06005 0.09900 0.16250
v 0.06005 0.09900 0.08750
v 0.08750 0.09900 0.06005
v 0.08750 0.09900 0.18995
v 0.12500 0.09900 0.05000
v 0.12500 0.09900 0.20000
v 0.12500 0.09900 0.20000
v 0.16250 0.09900 0.06005
v 0.16250 0.04900 0.06005
v 0.18995 0.09900 0.08750
v 0.18995 0.04900 0.08750
v 0.16250 0.09900 0.18995
v 0.16250 0.04900 0.18995
v 0.18995 0.04900 0.16250
v 0.20000 0.09900 0.12500
v 0.20000 0.04900 0.12500
v 0.18995 0.09900 0.16250
v 0.16250 0.09900 0.06005
v 0.16250 0.09900 0.18995
v 0.18995 0.09900 0.08750
v 0.18995 0.09900 0.16250
v 0.20000 0.09900 0.12500
v 0.06005 0.09900 0.33750
v 0.06005 0.04900 0.33750
v 0.05000 0.04900 0.37500
v 0.08750 0.09900 0.31005
v 0.08750 0.04900 0.31005
v 0.12500 0.09900 0.30000
v 0.12500 0.04900 0.30000
v 0.05000 0.09900 0.37500
v 0.06005 0.09900 0.33750
v 0.06005 0.09900 0.41250
v 0.08750 0.09900 0.31005
v 0.08750 0.09900 0.43995
v 0.12500 0.09900 0.30000
v 0.16250 0.09900 0.31005
v 0.16250 0.04900 0.31005
v 0.18995 0.09900 0.33750
v 0.18995 0.04900 0.33750
v 0.20000 0.09900 0.37500
v 0.20000 0.04900 0.37500
v 0.12500 0.09900 0.45000
v 0.16250 0.09900 0.31005
v 0.16250 0.09900 0.43995
v 0.18995 0.09900 0.33750
v 0.06005 0.04900 0.41250
v 0.06005 0.09900 0.41250
v 0.08750 0.04900 0.43995
v 0.08750 0.09900 0.43995
v 0.12500 0.04900 0.45000
v 0.05000 0.09900 0.37500
v 0.12500 0.09900 0.45000
v 0.16250 0.04900 0.43995
v 0.16250 0.09900 0.43995
v 0.18995 0.04900 0.41250
v 0.18995 0.09900 0.41250
v 0.18995 0.09900 0.41250
v 0.20000 0.09900 0.37500
v 0.12500 0.09900 0.55000
v 0.12500 0.04900 0.55000
v 0.08750 0.04900 0.56005
v 0.06005 0.09900 0.58750
v 0.06005 0.04900 0.58750
v 0.05000 0.04900 0.62500
v 0.05000 0.09900 0.62500
v 0.06005 0.04900 0.66250
v 0.08750 0.09900 0.56005
v 0.06005 0.09900 0.66250
v 0.08750 0.04900 0.68995
v 0.08750 0.09900 0.68995
v 0.12500 0.04900 0.70000
v 0.05000 0.09900 0.62500
v 0.06005 0.09900 0.66250
v 0.06005 0.09900 0.58750
v 0.12500 0.09900 0.70000
v 0.08750 0.09900 0.56005
v 0.08750 0.09900 0.68995
v 0.12500 0.09900 0.55000
v 0.12500 0.09900 0.70000
v 0.16250 0.09900 0.56005
v 0.16250 0.04900 0.56005
v 0.18995 0.09900 0.58750
v 0.18995 0.04900 0.58750
v 0.16250 0.04900 0.68995
v 0.16250 0.09900 0.68995
v 0.18995 0.04900 0.66250
v 0.20000 0.09900 0.62500
v 0.20000 0.04900 0.62500
v 0.18995 0.09900 0.66250
v 0.16250 0.09900 0.56005
v 0.16250 0.09900 0.68995
v 0.18995 0.09900 0.58750
v 0.18995 0.09900 0.66250
v 0.20000 0.09900 0.62500
v 0.31005 0.09900 -0.66250
v 0.31005 0.04900 -0.66250
v 0.30000 0.04900 -0.62500
v 0.30000 0.09900 -0.62500
v 0.31005 0.04900 -0.58750
v 0.33750 0.09900 -0.68995
v 0.33750 0.04900 -0.68995
v 0.37500 0.09900 -0.70000
v 0.37500 0.04900 -0.70000
v 0.31005 0.09900 -0.58750
v 0.33750 0.04900 -0.56005
v 0.33750 0.09900 -0.56005
v 0.37500 0.04900 -0.55000
v 0.30000 0.09900 -0.62500
v 0.31005 0.09900 -0.58750
v 0.31005 0.09900 -0.66250
v 0.33750 0.09900 -0.68995
v 0.33750 0.09900 -0.56005
v 0.37500 0.09900 -0.70000
v 0.37500 0.09900 -0.55000
v 0.37500 0.09900 -0.55000
v 0.41250 0.09900 -0.68995
v 0.41250 0.04900 -0.68995
v 0.43995 0.09900 -0.66250
v 0.43995 0.04900 -0.66250
v 0.41250 0.09900 -0.56005
v 0.41250 0.04900 -0.56005
v 0.43995 0.04900 -0.58750
v 0.45000 0.09900 -0.62500
v 0.45000 0.04900 -0.62500
v 0.43995 0.09900 -0.58750
v 0.41250 0.09900 -0.68995
v 0.41250 0.09900 -0.56005
v 0.43995 0.09900 -0.66250
v 0.43995 0.09900 -0.58750
v 0.45000 0.09900 -0.62500
v 0.31005 0.09900 -0.41250
v 0.31005 0.04900 -0.41250
v 0.30000 0.04900 -0.37500
v 0.33750 0.09900 -0.43995
v 0.33750 0.04900 -0.43995
v 0.37500 0.09900 -0.45000
v 0.37500 0.04900 -0.45000
v 0.30000 0.09900 -0.37500
v 0.30000 0.09900 -0.37500
v 0.31005 0.09900 -0.33750
v 0.31005 0.09900 -0.41250
v 0.33750 0.09900 -0.43995
v 0.33750 0.09900 -0.31005
v 0.37500 0.09900 -0.45000
v 0.41250 0.09900 -0.43995
v 0.41250 0.04900 -0.43995
v 0.43995 0.09900 -0.41250
v 0.43995 0.04900 -0.41250
v 0.45000 0.09900 -0.37500
v 0.45000 0.04900 -0.37500
v 0.37500 0.09900 -0.30000
v 0.41250 0.09900 -0.43995
v 0.41250 0.09900 -0.31005
v 0.43995 0.09900 -0.41250
v 0.43995 0.09900 -0.33750
v 0.45000 0.09900 -0.37500
v 0.31005 0.04900 -0.33750
v 0.31005 0.09900 -0.33750
v 0.33750 0.04900 -0.31005
v 0.33750 0.09900 -0.31005
v 0.37500 0.04900 -0.30000
v 0.37500 0.09900 -0.30000
v 0.41250 0.04900 -0.31005
v 0.41250 0.09900 -0.31005
v 0.43995 0.04900 -0.33750
v 0.43995 0.09900 -0.33750
v 0.37500 0.09900 -0.20000
v 0.37500 0.04900 -0.20000
v 0.33750 0.04900 -0.18995
v 0.31005 0.09900 -0.16250
v 0.31005 0.04900 -0.16250
v 0.30000 0.04900 -0.12500
v 0.30000 0.09900 -0.12500
v 0.31005 0.04900 -0.08750
v 0.33750 0.09900 -0.18995
v 0.31005 0.09900 -0.08750
v 0.33750 0.04900 -0.06005
v 0.33750 0.09900 -0.06005
v 0.37500 0.04900 -0.05000
v 0.30000 0.09900 -0.12500
v 0.31005 0.09900 -0.08750
v 0.31005 0.09900 -0.16250
v 0.37500 0.09900 -0.05000
v 0.33750 0.09900 -0.18995
v 0.33750 0.09900 -0.06005
v 0.37500 0.09900 -0.20000
v 0.37500 0.09900 -0.05000
v 0.41250 0.09900 -0.18995
v 0.41250 0.04900 -0.18995
v 0.43995 0.09900 -0.16250
v 0.43995 0.04900 -0.16250
v 0.41250 0.04900 -0.06005
v 0.41250 0.09900 -0.06005
v 0.43995 0.04900 -0.08750
v 0.45000 0.09900 -0.12500
v 0.45000 0.04900 -0.12500
v 0.43995 0.09900 -0.08750
v 0.41250 0.09900 -0.18995
v 0.41250 0.09900 -0.06005
v 0.43995 0.09900 -0.16250
v 0.43995 0.09900 -0.08750
v 0.45000 0.09900 -0.12500
v 0.31005 0.09900 0.08750
v 0.31005 0.04900 0.08750
v 0.30000 0.04900 0.12500
v 0.30000 0.09900 0.12500
v 0.31005 0.04900 0.16250
v 0.33750 0.09900 0.06005
v 0.33750 0.04900 0.06005
v 0.37500 0.09900 0.05000
v 0.37500 0.04900 0.05000
v 0.31005 0.09900 0.16250
v 0.33750 0.04900 0.18995
v 0.33750 0.09900 0.18995
v 0.37500 0.04900 0.20000
v 0.30000 0.09900 0.12500
v 0.31005 0.09900 0.16250
v 0.31005 0.09900 0.08750
v 0.33750 0.09900 0.06005
v 0.33750 0.09900 0.18995
v 0.37500 0.09900 0.05000
v 0.37500 0.09900 0.20000
v 0.37500 0.09900 0.20000
v 0.41250 0.09900 0.06005
v 0.41250 0.04900 0.06005
v 0.43995 0.09900 0.08750
v 0.43995 0.04900 0.08750
v 0.41250 0.09900 0.18995
v 0.41250 0.04900 0.18995
v 0.43995 0.04900 0.16250
v 0.45000 0.09900 0.12500
v 0.45000 0.04900 0.12500
v 0.43995 0.09900 0.16250
v 0.41250 0.09900 0.06005
v 0.41250 0.09900 0.18995
v 0.43995 0.09900 0.08750
v 0.43995 0.09900 0.16250
v 0.45000 0.09900 0.12500
v 0.31005 0.09900 0.33750
v 0.31005 0.04900 0.33750
v 0.30000 0.04900 0.37500
v 0.33750 0.09900 0.31005
v 0.33750 0.04900 0.31005
v 0.37500 0.09900 0.30000
v 0.37500 0.04900 0.30000
v 0.30000 0.09900 0.37500
v 0.31005 0.09900 0.33750
v 0.31005 0.09900 0.41250
v 0.33750 0.09900 0.31005
v 0.33750 0.09900 0.43995
v 0.37500 0.09900 0.30000
v 0.41250 0.09900 0.31005
v 0.41250 0.04900 0.31005
v 0.43995 0.09900 0.33750
v 0.43995 0.04900 0.33750
v 0.45000 0.09900 0.37500
v 0.45000 0.04900 0.37500
v 0.37500 0.09900 0.45000
v 0.41250 0.09900 0.31005
v 0.41250 0.09900 0.43995
v 0.43995 0.09900 0.33750
v 0.31005 0.04900 0.41250
v 0.31005 0.09900 0.41250
v 0.33750 0.04900 0.43995
v 0.33750 0.09900 0.43995
v 0.37500 0.04900 0.45000
v 0.30000 0.09900 0.37500
v 0.37500 0.09900 0.45000
v 0.41250 0.04900 0.43995
v 0.41250 0.09900 0.43995
v 0.43995 0.04900 0.41250
v 0.43995 0.09900 0.41250
v 0.43995 0.09900 0.41250
v 0.45000 0.09900 0.37500
v 0.37500 0.09900 0.55000
v 0.37500 0.04900 0.55000
v 0.33750 0.04900 0.56005
v 0.31005 0.09900 0.58750
v 0.31005 0.04900 0.58750
v 0.30000 0.04900 0.62500
v 0.30000 0.09900 0.62500
v 0.31005 0.04900 0.66250
v 0.33750 0.09900 0.56005
v 0.31005 0.09900 0.66250
v 0.33750 0.04900 0.68995
v 0.33750 0.09900 0.68995
v 0.37500 0.04900 0.70000
v 0.31005 0.09900 0.58750
v 0.30000 0.09900 0.62500
v 0.31005 0.09900 0.66250
v 0.37500 0.09900 0.70000
v 0.33750 0.09900 0.56005
v 0.33750 0.09900 0.68995
v 0.37500 0.09900 0.55000
v 0.37500 0.09900 0.70000
v 0.41250 0.09900 0.56005
v 0.41250 0.04900 0.56005
v 0.43995 0.09900 0.58750
v 0.43995 0.04900 0.58750
v 0.41250 0.04900 0.68995
v 0.41250 0.09900 0.68995
v 0.43995 0.04900 0.66250
v 0.45000 0.09900 0.62500
v 0.45000 0.04900 0.62500
v 0.43995 0.09900 0.66250
v 0.41250 0.09900 0.56005
v 0.41250 0.09900 0.68995
v 0.43995 0.09900 0.58750
v 0.43995 0.09900 0.66250
v 0.45000 0.09900 0.62500
vn -0.1877 -0.9641 -0.1877
vn -0.6887 -0.6887 -0.2265
vn -0.2265 -0.6887 -0.6887
vn -0.6887 -0.2265 -0.6887
vn -0.9641 -0.1877 -0.1877
vn -0.1877 -0.1877 -0.9641
vn -0.6887 0.2265 -0.6887
vn -0.6887 -0.6887 0.2265
vn -0.9641 0.1877 -0.1877
vn -0.1877 0.1877 -0.9641
vn -0.9641 0.1877 0.1877
vn 0.1877 -0.9641 -0.1877
vn 0.1877 -0.1877 -0.9641
vn 0.1877 0.1877 -0.9641
vn -0.1877 -0.9641 0.1877
vn -0.9641 -0.1877 0.1877
vn -0.2265 -0.6887 0.6887
vn -0.6887 -0.2265 0.6887
vn -0.1877 -0.1877 0.9641
vn -0.6887 0.2265 0.6887
vn -0.1877 0.1877 0.9641
vn 0.1877 -0.9641 0.1877
vn 0.2265 -0.6887 0.6887
vn 0.1877 -0.1877 0.9641
vn -0.6887 0.6887 -0.2265
vn -0.2265 0.6887 -0.6887
vn -0.1877 0.9641 -0.1877
vn 0.0000 1.0000 0.0000
vn 0.0000 1.0000 0.0000
vn 0.0000 1.0000 0.0000
vn 0.0000 1.0000 0.0000
vn 0.0000 1.0000 0.0000
vn 0.0000 1.0000 0.0000
vn 0.0000 1.0000 0.0000
vn 0.0000 1.0000 0.0000
vn 0.0000 1.0000 0.0000
vn 0.0000 1.0000 0.0000
vn 0.0000 1.0000 0.0000
vn 0.0000 1.0000 0.0000
vn 0.0000 1.0000 0.0000
vn 0.0000 1.0000 0.0000
vn 0.0000 1.0000 0.0000
vn 0.0000 1.0000 0.0000
vn 0.0000 1.0000 0.0000
vn 0.0000 1.0000 0.0000
vn 0.0000 1.0000 0.0000
vn 0.0000 1.0000 0.0000
vn 0.0000 1.0000 0.0000
vn 0.0000 1.0000 0.0000
vn 0.0000 1.0000 0.0000
vn 0.0000 1.0000 0.0000
vn -0.1877 0.9641 0.1877
vn 0.0000 1.0000 0.0000
vn 0.0000 1.0000 0.0000
vn 0.0000 1.0000 0.0000
vn 0.0000 1.0000 0.0000
vn 0.0000 1.0000 0.0000
vn 0.0000 1.0000 0.0000
vn 0.0000 1.0000 0.0000
vn 0.0000 1.0000 0.0000
vn 0.0000 1.0000 0.0000
vn 0.0000 1.0000 0.0000
vn 0.0000 1.0000 0.0000
vn 0.0000 1.0000 0.0000
vn 0.0000 1.0000 0.0000
vn 0.0000 1.0000 0.0000
vn 0.0000 1.0000 0.0000
vn 0.0000 1.0000 0.0000
vn 0.0000 1.0000 0.0000
vn 0.0000 1.0000 0.0000
vn 0.0000 1.0000 0.0000
vn 0.0000 1.0000 0.0000
vn 0.0000 1.0000 0.0000
vn 0.0000 1.0000 0.0000
vn 0.0000 1.0000 0.0000
vn 0.0000 1.0000 0.0000
vn 0.0000 1.0000 0.0000
vn 0.0000 1.0000 0.0000
vn 0.1877 0.9641 -0.1877
vn 0.0000 1.0000 0.0000
vn 0.0000 1.0000 0.0000
vn 0.0000 1.0000 0.0000
vn 0.0000 1.0000 0.0000
vn 0.0000 1.0000 0.0000
vn 0.0000 1.0000 0.0000
vn 0.0000 1.0000 0.0000
vn 0.0000 1.0000 0.0000
vn 0.0000 1.0000 0.0000
vn 0.0000 1.0000 0.0000
vn 0.0000 1.0000 0.0000
vn 0.0000 1.0000 0.0000
vn 0.0000 1.0000 0.0000
vn 0.0000 1.0000 0.0000
vn 0.0000 1.0000 0.0000
vn 0.0000 1.0000 0.0000
vn 0.0000 1.0000 0.0000
vn 0.0000 1.0000 0.0000
vn 0.0000 1.0000 0.0000
vn 0.0000 1.0000 0.0000
vn 0.0000 1.0000 0.0000
vn 0.0000 1.0000 0.0000
vn 0.0000 1.0000 0.0000
vn 0.0000 1.0000 0.0000
vn 0.0000 1.0000 0.0000
vn 0.0000 1.0000 0.0000
vn 0.0000 1.0000 0.0000
vn 0.0000 1.0000 0.0000
vn 0.0000 1.0000 0.0000
vn 0.0000 1.0000 0.0000
vn 0.0000 1.0000 0.0000
vn 0.0000 1.0000 0.0000
vn 0.0000 1.0000 0.0000
vn 0.0000 1.0000 0.0000
vn 0.0000 1.0000 0.0000
vn 0.0000 1.0000 0.0000
vn 0.0000 1.0000 0.0000
vn 0.0000 1.0000 0.0000
vn 0.0000 1.0000 0.0000
vn 0.0000 1.0000 0.0000
vn -0.6887 0.6887 0.2265
vn 0.0000 1.0000 0.0000
vn 0.0000 1.0000 0.0000
vn 0.0000 1.0000 0.0000
vn 0.0000 1.0000 0.0000
vn 0.0000 1.0000 0.0000
vn 0.0000 1.0000 0.0000
vn 0.0000 1.0000 0.0000
vn 0.0000 1.0000 0.0000
vn 0.0000 1.0000 0.0000
vn 0.0000 1.0000 0.0000
vn 0.0000 1.0000 0.0000
vn 0.0000 1.0000 0.0000
vn 0.0000 1.0000 0.0000
vn 0.0000 1.0000 0.0000
vn 0.0000 1.0000 0.0000
vn 0.0000 1.0000 0.0000
vn 0.0000 1.0000 0.0000
vn 0.0000 1.0000 0.0000
vn -0.2265 0.6887 0.6887
vn 0.0000 1.0000 0.0000
vn 0.0000 1.0000 0.0000
vn 0.0000 1.0000 0.0000
vn 0.0000 1.0000 0.0000
vn 0.0000 1.0000 0.0000
vn 0.0000 1.0000 0.0000
vn 0.0000 1.0000 0.0000
vn 0.0000 1.0000 0.0000
vn 0.0000 1.0000 0.0000
vn 0.0000 1.0000 0.0000
vn 0.0000 1.0000 0.0000
vn 0.0000 1.0000 0.0000
vn 0.0000 1.0000 0.0000
vn 0.0000 1.0000 0.0000
vn 0.0000 1.0000 0.0000
vn 0.0000 1.0000 0.0000
vn 0.0000 1.0000 0.0000
vn 0.0000 1.0000 0.0000
vn 0.0000 1.0000 0.0000
vn 0.0000 1.0000 0.0000
vn 0.0000 1.0000 0.0000
vn 0.0000 1.0000 0.0000
vn 0.0000 1.0000 0.0000
vn 0.0000 1.0000 0.0000
vn 0.0000 1.0000 0.0000
vn 0.0000 1.0000 0.0000
vn 0.0000 1.0000 0.0000
vn 0.0000 1.0000 0.0000
vn 0.0000 1.0000 0.0000
vn 0.0000 1.0000 0.0000
vn 0.0000 1.0000 0.0000
vn 0.0000 1.0000 0.0000
vn 0.1877 0.1877 0.9641
vn 0.0000 1.0000 0.0000
vn 0.0000 1.0000 0.0000
vn 0.0000 1.0000 0.0000
vn 0.0000 1.0000 0.0000
vn 0.0000 1.0000 0.0000
vn 0.0000 1.0000 0.0000
vn 0.0000 1.0000 0.0000
vn 0.1877 0.9641 0.1877
vn 0.0000 1.0000 0.0000
vn 0.0000 1.0000 0.0000
vn 0.0000 1.0000 0.0000
vn 0.0000 1.0000 0.0000
vn 0.0000 1.0000 0.0000
vn 0.0000 1.0000 0.0000
vn 0.0000 1.0000 0.0000
vn 0.0000 1.0000 0.0000
vn 0.0000 1.0000 0.0000
vn 0.0000 1.0000 0.0000
vn 0.2265 -0.6887 -0.6887
vn 0.6887 -0.6887 -0.2265
vn 0.6887 -0.2265 -0.6887
vn 0.9641 -0.1877 -0.1877
vn 0.6887 0.2265 -0.6887
vn 0.6887 -0.6887 0.2265
vn 0.9641 0.1877 -0.1877
vn 0.9641 -0.1877 0.1877
vn 0.6887 -0.2265 0.6887
vn 0.9641 0.1877 0.1877
vn 0.6887 0.2265 0.6887
vn 0.0000 1.0000 0.0000
vn 0.0000 1.0000 0.0000
vn 0.0000 1.0000 0.0000
vn 0.0000 1.0000 0.0000
vn 0.0000 1.0000 0.0000
vn 0.2265 0.6887 -0.6887
vn 0.0000 1.0000 0.0000
vn 0.0000 1.0000 0.0000
vn 0.0000 1.0000 0.0000
vn 0.0000 1.0000 0.0000
vn 0.0000 1.0000 0.0000
vn 0.0000 1.0000 0.0000
vn 0.0000 1.0000 0.0000
vn 0.0000 1.0000 0.0000
vn 0.0000 1.0000 0.0000
vn 0.0000 1.0000 0.0000
vn 0.0000 1.0000 0.0000
vn 0.0000 1.0000 0.0000
vn 0.0000 1.0000 0.0000
vn 0.0000 1.0000 0.0000
vn 0.0000 1.0000 0.0000
vn 0.0000 1.0000 0.0000
vn 0.0000 1.0000 0.0000
vn 0.0000 1.0000 0.0000
vn 0.0000 1.0000 0.0000
vn 0.0000 1.0000 0.0000
vn 0.0000 1.0000 0.0000
vn 0.0000 1.0000 0.0000
vn 0.0000 1.0000 0.0000
vn 0.0000 1.0000 0.0000
vn 0.0000 1.0000 0.0000
vn 0.0000 1.0000 0.0000
vn 0.0000 1.0000 0.0000
vn 0.0000 1.0000 0.0000
vn 0.0000 1.0000 0.0000
vn 0.0000 1.0000 0.0000
vn 0.0000 1.0000 0.0000
vn 0.0000 1.0000 0.0000
vn 0.0000 1.0000 0.0000
vn 0.0000 1.0000 0.0000
vn 0.0000 1.0000 0.0000
vn 0.0000 1.0000 0.0000
vn 0.6887 0.6887 -0.2265
vn 0.0000 1.0000 0.0000
vn 0.0000 1.0000 0.0000
vn 0.0000 1.0000 0.0000
vn 0.0000 1.0000 0.0000
vn 0.0000 1.0000 0.0000
vn 0.0000 1.0000 0.0000
vn 0.0000 1.0000 0.0000
vn 0.0000 1.0000 0.0000
vn 0.0000 1.0000 0.0000
vn 0.0000 1.0000 0.0000
vn 0.0000 1.0000 0.0000
vn 0.0000 1.0000 0.0000
vn 0.0000 1.0000 0.0000
vn 0.0000 1.0000 0.0000
vn 0.0000 1.0000 0.0000
vn 0.0000 1.0000 0.0000
vn 0.0000 1.0000 0.0000
vn 0.0000 1.0000 0.0000
vn 0.0000 1.0000 0.0000
vn 0.0000 1.0000 0.0000
vn 0.0000 1.0000 0.0000
vn 0.0000 1.0000 0.0000
vn 0.0000 1.0000 0.0000
vn 0.0000 1.0000 0.0000
vn 0.0000 1.0000 0.0000
vn 0.0000 1.0000 0.0000
vn 0.0000 1.0000 0.0000
vn 0.0000 1.0000 0.0000
vn 0.0000 1.0000 0.0000
vn 0.0000 1.0000 0.0000
vn 0.0000 1.0000 0.0000
vn 0.0000 1.0000 0.0000
vn 0.0000 1.0000 0.0000
vn 0.0000 1.0000 0.0000
vn 0.0000 1.0000 0.0000
vn 0.0000 1.0000 0.0000
vn 0.0000 1.0000 0.0000
vn 0.0000 1.0000 0.0000
vn 0.0000 1.0000 0.0000
vn 0.0000 1.0000 0.0000
vn 0.0000 1.0000 0.0000
vn 0.0000 1.0000 0.0000
vn 0.0000 1.0000 0.0000
vn 0.0000 1.0000 0.0000
vn 0.0000 1.0000 0.0000
vn 0.0000 1.0000 0.0000
vn 0.0000 1.0000 0.0000
vn 0.0000 1.0000 0.0000
vn 0.0000 1.0000 0.0000
vn 0.0000 1.0000 0.0000
vn 0.0000 1.0000 0.0000
vn 0.0000 1.0000 0.0000
vn 0.0000 1.0000 0.0000
vn 0.0000 1.0000 0.0000
vn 0.0000 1.0000 0.0000
vn 0.0000 1.0000 0.0000
vn 0.0000 1.0000 0.0000
vn 0.0000 1.0000 0.0000
vn 0.0000 1.0000 0.0000
vn 0.0000 1.0000 0.0000
vn 0.0000 1.0000 0.0000
vn 0.0000 1.0000 0.0000
vn 0.0000 1.0000 0.0000
vn 0.0000 1.0000 0.0000
vn 0.2265 0.6887 0.6887
vn 0.0000 1.0000 0.0000
vn 0.0000 1.0000 0.0000
vn 0.0000 1.0000 0.0000
vn 0.0000 1.0000 0.0000
vn 0.0000 1.0000 0.0000
vn 0.0000 1.0000 0.0000
vn 0.0000 1.0000 0.0000
vn 0.0000 1.0000 0.0000
vn 0.0000 1.0000 0.0000
vn 0.0000 1.0000 0.0000
vn 0.0000 1.0000 0.0000
vn 0.0000 1.0000 0.0000
vn 0.0000 1.0000 0.0000
vn 0.0000 1.0000 0.0000
vn 0.0000 1.0000 0.0000
vn 0.6887 0.6887 0.2265
vn 0.0000 1.0000 0.0000
vn 0.0000 1.0000 0.0000
vn 0.0000 1.0000 0.0000
vn 0.0000 1.0000 0.0000
vn 0.0000 1.0000 0.0000
vn 0.0000 1.0000 0.0000
vn 0.0000 1.0000 0.0000
vn 0.0000 1.0000 0.0000
vn 0.0000 1.0000 0.0000
vn 0.0000 1.0000 0.0000
vn 0.0000 1.0000 0.0000
vn -0.8660 0.0000 -0.5000
vn -0.8660 0.0000 -0.5000
vn -1.0000 0.0000 0.0000
vn -1.0000 0.0000 -0.0000
vn -0.8660 0.0000 0.5000
vn -0.5000 0.0000 -0.8660
vn -0.5000 0.0000 -0.8660
vn 0.0000 0.0000 -1.0000
vn -0.0000 0.0000 -1.0000
vn -0.8660 0.0000 0.5000
vn -0.5000 0.0000 0.8660
vn -0.5000 0.0000 0.8660
vn 0.0000 0.0000 1.0000
vn 0.0000 1.0000 0.0000
vn 0.0000 1.0000 0.0000
vn 0.0000 1.0000 0.0000
vn 0.0000 1.0000 0.0000
vn 0.0000 1.0000 0.0000
vn 0.0000 1.0000 0.0000
vn 0.0000 1.0000 0.0000
vn -0.0000 0.0000 1.0000
vn 0.5000 0.0000 -0.8660
vn 0.5000 0.0000 -0.8660
vn 0.8660 0.0000 -0.5000
vn 0.8660 0.0000 -0.5000
vn 0.5000 0.0000 0.8660
vn 0.5000 0.0000 0.8660
vn 0.8660 0.0000 0.5000
vn 1.0000 0.0000 0.0000
vn 1.0000 0.0000 -0.0000
vn 0.8660 0.0000 0.5000
vn 0.0000 1.0000 0.0000
vn 0.0000 1.0000 0.0000
vn 0.0000 1.0000 0.0000
vn 0.0000 1.0000 0.0000
vn 0.0000 1.0000 0.0000
vn -0.8660 0.0000 -0.5000
vn -0.8660 0.0000 -0.5000
vn -1.0000 0.0000 0.0000
vn -0.5000 0.0000 -0.8660
vn -0.5000 0.0000 -0.8660
vn 0.0000 0.0000 -1.0000
vn -0.0000 0.0000 -1.0000
vn -1.0000 0.0000 -0.0000
vn 0.0000 1.0000 0.0000
vn 0.0000 1.0000 0.0000
vn 0.0000 1.0000 0.0000
vn 0.0000 1.0000 0.0000
vn 0.0000 1.0000 0.0000
vn 0.0000 1.0000 0.0000
vn 0.5000 0.0000 -0.8660
vn 0.5000 0.0000 -0.8660
vn 0.8660 0.0000 -0.5000
vn 0.8660 0.0000 -0.5000
vn 1.0000 0.0000 0.0000
vn 1.0000 0.0000 -0.0000
vn 0.0000 1.0000 0.0000
vn 0.0000 1.0000 0.0000
vn 0.0000 1.0000 0.0000
vn 0.0000 1.0000 0.0000
vn 0.0000 1.0000 0.0000
vn 0.0000 1.0000 0.0000
vn -0.8660 0.0000 0.5000
vn -0.8660 0.0000 0.5000
vn -0.5000 0.0000 0.8660
vn -0.5000 0.0000 0.8660
vn 0.0000 0.0000 1.0000
vn -0.0000 0.0000 1.0000
vn 0.5000 0.0000 0.8660
vn 0.5000 0.0000 0.8660
vn 0.8660 0.0000 0.5000
vn 0.8660 0.0000 0.5000
vn 0.0000 0.0000 -1.0000
vn -0.0000 0.0000 -1.0000
vn -0.5000 0.0000 -0.8660
vn -0.8660 0.0000 -0.5000
vn -0.8660 0.0000 -0.5000
vn -1.0000 0.0000 0.0000
vn -1.0000 0.0000 -0.0000
vn -0.8660 0.0000 0.5000
vn -0.5000 0.0000 -0.8660
vn -0.8660 0.0000 0.5000
vn -0.5000 0.0000 0.8660
vn -0.5000 0.0000 0.8660
vn 0.0000 0.0000 1.0000
vn 0.0000 1.0000 0.0000
vn 0.0000 1.0000 0.0000
vn 0.0000 1.0000 0.0000
vn -0.0000 0.0000 1.0000
vn 0.0000 1.0000 0.0000
vn 0.0000 1.0000 0.0000
vn 0.0000 1.0000 0.0000
vn 0.0000 1.0000 0.0000
vn 0.5000 0.0000 -0.8660
vn 0.5000 0.0000 -0.8660
vn 0.8660 0.0000 -0.5000
vn 0.8660 0.0000 -0.5000
vn 0.5000 0.0000 0.8660
vn 0.5000 0.0000 0.8660
vn 0.8660 0.0000 0.5000
vn 1.0000 0.0000 0.0000
vn 1.0000 0.0000 -0.0000
vn 0.8660 0.0000 0.5000
vn 0.0000 1.0000 0.0000
vn 0.0000 1.0000 0.0000
vn 0.0000 1.0000 0.0000
vn 0.0000 1.0000 0.0000
vn 0.0000 1.0000 0.0000
vn -0.8660 0.0000 -0.5000
vn -0.8660 0.0000 -0.5000
vn -1.0000 0.0000 0.0000
vn -1.0000 0.0000 -0.0000
vn -0.8660 0.0000 0.5000
vn -0.5000 0.0000 -0.8660
vn -0.5000 0.0000 -0.8660
vn 0.0000 0.0000 -1.0000
vn -0.0000 0.0000 -1.0000
vn -0.8660 0.0000 0.5000
vn -0.5000 0.0000 0.8660
vn -0.5000 0.0000 0.8660
vn 0.0000 0.0000 1.0000
vn 0.0000 1.0000 0.0000
vn 0.0000 1.0000 0.0000
vn 0.0000 1.0000 0.0000
vn 0.0000 1.0000 0.0000
vn 0.0000 1.0000 0.0000
vn 0.0000 1.0000 0.0000
vn 0.0000 1.0000 0.0000
vn -0.0000 0.0000 1.0000
vn 0.5000 0.0000 -0.8660
vn 0.5000 0.0000 -0.8660
vn 0.8660 0.0000 -0.5000
vn 0.8660 0.0000 -0.5000
vn 0.5000 0.0000 0.8660
vn 0.5000 0.0000 0.8660
vn 0.8660 0.0000 0.5000
vn 1.0000 0.0000 0.0000
vn 1.0000 0.0000 -0.0000
vn 0.8660 0.0000 0.5000
vn 0.0000 1.0000 0.0000
vn 0.0000 1.0000 0.0000
vn 0.0000 1.0000 0.0000
vn 0.0000 1.0000 0.0000
vn 0.0000 1.0000 0.0000
vn -0.8660 -0.0000 -0.5000
vn -0.8660 0.0000 -0.5000
vn -1.0000 -0.0000 -0.0000
vn -0.5000 0.0000 -0.8660
vn -0.5000 0.0000 -0.8660
vn 0.0000 0.0000 -1.0000
vn -0.0000 0.0000 -1.0000
vn -1.0000 0.0000 0.0000
vn 0.0000 1.0000 0.0000
vn 0.0000 1.0000 0.0000
vn 0.0000 1.0000 0.0000
vn 0.0000 1.0000 0.0000
vn 0.0000 1.0000 0.0000
vn 0.5000 0.0000 -0.8660
vn 0.5000 0.0000 -0.8660
vn 0.8660 0.0000 -0.5000
vn 0.8660 0.0000 -0.5000
vn 1.0000 0.0000 -0.0000
vn 1.0000 -0.0000 0.0000
vn 0.0000 1.0000 0.0000
vn 0.0000 1.0000 0.0000
vn 0.0000 1.0000 0.0000
vn 0.0000 1.0000 0.0000
vn -0.8660 0.0000 0.5000
vn -0.8660 0.0000 0.5000
vn -0.5000 0.0000 0.8660
vn -0.5000 0.0000 0.8660
vn 0.0000 0.0000 1.0000
vn 0.0000 1.0000 0.0000
vn -0.0000 0.0000 1.0000
vn 0.5000 0.0000 0.8660
vn 0.5000 0.0000 0.8660
vn 0.8660 0.0000 0.5000
vn 0.8660 -0.0000 0.5000
vn 0.0000 1.0000 0.0000
vn 0.0000 1.0000 0.0000
vn 0.0000 0.0000 -1.0000
vn -0.0000 0.0000 -1.0000
vn -0.5000 0.0000 -0.8660
vn -0.8660 -0.0000 -0.5000
vn -0.8660 0.0000 -0.5000
vn -1.0000 -0.0000 -0.0000
vn -1.0000 0.0000 0.0000
vn -0.8660 0.0000 0.5000
vn -0.5000 0.0000 -0.8660
vn -0.8660 0.0000 0.5000
vn -0.5000 0.0000 0.8660
vn -0.5000 0.0000 0.8660
vn 0.0000 0.0000 1.0000
vn 0.0000 1.0000 0.0000
vn 0.0000 1.0000 0.0000
vn 0.0000 1.0000 0.0000
vn -0.0000 0.0000 1.0000
vn 0.0000 1.0000 0.0000
vn 0.0000 1.0000 0.0000
vn 0.0000 1.0000 0.0000
vn 0.0000 1.0000 0.0000
vn 0.5000 0.0000 -0.8660
vn 0.5000 0.0000 -0.8660
vn 0.8660 0.0000 -0.5000
vn 0.8660 0.0000 -0.5000
vn 0.5000 0.0000 0.8660
vn 0.5000 0.0000 0.8660
vn 0.8660 0.0000 0.5000
vn 1.0000 0.0000 -0.0000
vn 1.0000 -0.0000 0.0000
vn 0.8660 -0.0000 0.5000
vn 0.0000 1.0000 0.0000
vn 0.0000 1.0000 0.0000
vn 0.0000 1.0000 0.0000
vn 0.0000 1.0000 0.0000
vn 0.0000 1.0000 0.0000
vn -0.8660 0.0000 -0.5000
vn -0.8660 0.0000 -0.5000
vn -1.0000 0.0000 0.0000
vn -1.0000 0.0000 -0.0000
vn -0.8660 0.0000 0.5000
vn -0.5000 0.0000 -0.8660
vn -0.5000 0.0000 -0.8660
vn 0.0000 0.0000 -1.0000
vn -0.0000 0.0000 -1.0000
vn -0.8660 0.0000 0.5000
vn -0.5000 0.0000 0.8660
vn -0.5000 0.0000 0.8660
vn 0.0000 0.0000 1.0000
vn 0.0000 1.0000 0.0000
vn 0.0000 1.0000 0.0000
vn 0.0000 1.0000 0.0000
vn 0.0000 1.0000 0.0000
vn 0.0000 1.0000 0.0000
vn 0.0000 1.0000 0.0000
vn 0.0000 1.0000 0.0000
vn -0.0000 0.0000 1.0000
vn 0.5000 0.0000 -0.8660
vn 0.5000 0.0000 -0.8660
vn 0.8660 0.0000 -0.5000
vn 0.8660 0.0000 -0.5000
vn 0.5000 0.0000 0.8660
vn 0.5000 0.0000 0.8660
vn 0.8660 0.0000 0.5000
vn 1.0000 0.0000 0.0000
vn 1.0000 0.0000 -0.0000
vn 0.8660 0.0000 0.5000
vn 0.0000 1.0000 0.0000
vn 0.0000 1.0000 0.0000
vn 0.0000 1.0000 0.0000
vn 0.0000 1.0000 0.0000
vn 0.0000 1.0000 0.0000
vn -0.8660 0.0000 -0.5000
vn -0.8660 0.0000 -0.5000
vn -1.0000 0.0000 0.0000
vn -0.5000 0.0000 -0.8660
vn -0.5000 0.0000 -0.8660
vn 0.0000 0.0000 -1.0000
vn -0.0000 0.0000 -1.0000
vn -1.0000 0.0000 -0.0000
vn 0.0000 1.0000 0.0000
vn 0.0000 1.0000 0.0000
vn 0.0000 1.0000 0.0000
vn 0.0000 1.0000 0.0000
vn 0.0000 1.0000 0.0000
vn 0.0000 1.0000 0.0000
vn 0.5000 0.0000 -0.8660
vn 0.5000 0.0000 -0.8660
vn 0.8660 0.0000 -0.5000
vn 0.8660 0.0000 -0.5000
vn 1.0000 0.0000 0.0000
vn 1.0000 0.0000 -0.0000
vn 0.0000 1.0000 0.0000
vn 0.0000 1.0000 0.0000
vn 0.0000 1.0000 0.0000
vn 0.0000 1.0000 0.0000
vn 0.0000 1.0000 0.0000
vn 0.0000 1.0000 0.0000
vn -0.8660 0.0000 0.5000
vn -0.8660 0.0000 0.5000
vn -0.5000 0.0000 0.8660
vn -0.5000 0.0000 0.8660
vn 0.0000 0.0000 1.0000
vn -0.0000 0.0000 1.0000
vn 0.5000 0.0000 0.8660
vn 0.5000 0.0000 0.8660
vn 0.8660 0.0000 0.5000
vn 0.8660 0.0000 0.5000
vn 0.0000 0.0000 -1.0000
vn -0.0000 0.0000 -1.0000
vn -0.5000 0.0000 -0.8660
vn -0.8660 0.0000 -0.5000
vn -0.8660 0.0000 -0.5000
vn -1.0000 0.0000 0.0000
vn -1.0000 0.0000 -0.0000
vn -0.8660 0.0000 0.5000
vn -0.5000 0.0000 -0.8660
vn -0.8660 0.0000 0.5000
vn -0.5000 0.0000 0.8660
vn -0.5000 0.0000 0.8660
vn 0.0000 0.0000 1.0000
vn 0.0000 1.0000 0.0000
vn 0.0000 1.0000 0.0000
vn 0.0000 1.0000 0.0000
vn -0.0000 0.0000 1.0000
vn 0.0000 1.0000 0.0000
vn 0.0000 1.0000 0.0000
vn 0.0000 1.0000 0.0000
vn 0.0000 1.0000 0.0000
vn 0.5000 0.0000 -0.8660
vn 0.5000 0.0000 -0.8660
vn 0.8660 0.0000 -0.5000
vn 0.8660 0.0000 -0.5000
vn 0.5000 0.0000 0.8660
vn 0.5000 0.0000 0.8660
vn 0.8660 0.0000 0.5000
vn 1.0000 0.0000 0.0000
vn 1.0000 0.0000 -0.0000
vn 0.8660 0.0000 0.5000
vn 0.0000 1.0000 0.0000
vn 0.0000 1.0000 0.0000
vn 0.0000 1.0000 0.0000
vn 0.0000 1.0000 0.0000
vn 0.0000 1.0000 0.0000
vn -0.8660 0.0000 -0.5000
vn -0.8660 0.0000 -0.5000
vn -1.0000 0.0000 0.0000
vn -1.0000 0.0000 -0.0000
vn -0.8660 0.0000 0.5000
vn -0.5000 0.0000 -0.8660
vn -0.5000 0.0000 -0.8660
vn 0.0000 0.0000 -1.0000
vn -0.0000 0.0000 -1.0000
vn -0.8660 0.0000 0.5000
vn -0.5000 0.0000 0.8660
vn -0.5000 0.0000 0.8660
vn 0.0000 0.0000 1.0000
vn 0.0000 1.0000 0.0000
vn 0.0000 1.0000 0.0000
vn 0.0000 1.0000 0.0000
vn 0.0000 1.0000 0.0000
vn 0.0000 1.0000 0.0000
vn 0.0000 1.0000 0.0000
vn 0.0000 1.0000 0.0000
vn -0.0000 0.0000 1.0000
vn 0.5000 0.0000 -0.8660
vn 0.5000 0.0000 -0.8660
vn 0.8660 0.0000 -0.5000
vn 0.8660 0.0000 -0.5000
vn 0.5000 0.0000 0.8660
vn 0.5000 0.0000 0.8660
vn 0.8660 0.0000 0.5000
vn 1.0000 0.0000 0.0000
vn 1.0000 0.0000 -0.0000
vn 0.8660 0.0000 0.5000
vn 0.0000 1.0000 0.0000
vn 0.0000 1.0000 0.0000
vn 0.0000 1.0000 0.0000
vn 0.0000 1.0000 0.0000
vn 0.0000 1.0000 0.0000
vn -0.8660 -0.0000 -0.5000
vn -0.8660 0.0000 -0.5000
vn -1.0000 -0.0000 -0.0000
vn -0.5000 0.0000 -0.8660
vn -0.5000 0.0000 -0.8660
vn 0.0000 0.0000 -1.0000
vn -0.0000 0.0000 -1.0000
vn -1.0000 0.0000 0.0000
vn 0.0000 1.0000 0.0000
vn 0.0000 1.0000 0.0000
vn 0.0000 1.0000 0.0000
vn 0.0000 1.0000 0.0000
vn 0.0000 1.0000 0.0000
vn 0.5000 0.0000 -0.8660
vn 0.5000 0.0000 -0.8660
vn 0.8660 0.0000 -0.5000
vn 0.8660 0.0000 -0.5000
vn 1.0000 0.0000 -0.0000
vn 1.0000 -0.0000 0.0000
vn 0.0000 1.0000 0.0000
vn 0.0000 1.0000 0.0000
vn 0.0000 1.0000 0.0000
vn 0.0000 1.0000 0.0000
vn -0.8660 0.0000 0.5000
vn -0.8660 0.0000 0.5000
vn -0.5000 0.0000 0.8660
vn -0.5000 0.0000 0.8660
vn 0.0000 0.0000 1.0000
vn 0.0000 1.0000 0.0000
vn -0.0000 0.0000 1.0000
vn 0.5000 0.0000 0.8660
vn 0.5000 0.0000 0.8660
vn 0.8660 0.0000 0.5000
vn 0.8660 -0.0000 0.5000
vn 0.0000 1.0000 0.0000
vn 0.0000 1.0000 0.0000
vn 0.0000 0.0000 -1.0000
vn -0.0000 0.0000 -1.0000
vn -0.5000 0.0000 -0.8660
vn -0.8660 -0.0000 -0.5000
vn -0.8660 0.0000 -0.5000
vn -1.0000 -0.0000 -0.0000
vn -1.0000 0.0000 0.0000
vn -0.8660 0.0000 0.5000
vn -0.5000 0.0000 -0.8660
vn -0.8660 0.0000 0.5000
vn -0.5000 0.0000 0.8660
vn -0.5000 0.0000 0.8660
vn 0.0000 0.0000 1.0000
vn 0.0000 1.0000 0.0000
vn 0.0000 1.0000 0.0000
vn 0.0000 1.0000 0.0000
vn -0.0000 0.0000 1.0000
vn 0.0000 1.0000 0.0000
vn 0.0000 1.0000 0.0000
vn 0.0000 1.0000 0.0000
vn 0.0000 1.0000 0.0000
vn 0.5000 0.0000 -0.8660
vn 0.5000 0.0000 -0.8660
vn 0.8660 0.0000 -0.5000
vn 0.8660 0.0000 -0.5000
vn 0.5000 0.0000 0.8660
vn 0.5000 0.0000 0.8660
vn 0.8660 0.0000 0.5000
vn 1.0000 0.0000 -0.0000
vn 1.0000 -0.0000 0.0000
vn 0.8660 -0.0000 0.5000
vn 0.0000 1.0000 0.0000
vn 0.0000 1.0000 0.0000
vn 0.0000 1.0000 0.0000
vn 0.0000 1.0000 0.0000
vn 0.0000 1.0000 0.0000
vn -0.8660 0.0000 -0.5000
vn -0.8660 0.0000 -0.5000
vn -1.0000 0.0000 0.0000
vn -1.0000 -0.0000 0.0000
vn -0.8660 -0.0000 0.5000
vn -0.5000 0.0000 -0.8660
vn -0.5000 0.0000 -0.8660
vn 0.0000 0.0000 -1.0000
vn -0.0000 0.0000 -1.0000
vn -0.8660 0.0000 0.5000
vn -0.5000 0.0000 0.8660
vn -0.5000 0.0000 0.8660
vn 0.0000 0.0000 1.0000
vn 0.0000 1.0000 0.0000
vn 0.0000 1.0000 0.0000
vn 0.0000 1.0000 0.0000
vn 0.0000 1.0000 0.0000
vn 0.0000 1.0000 0.0000
vn 0.0000 1.0000 0.0000
vn 0.0000 1.0000 0.0000
vn -0.0000 0.0000 1.0000
vn 0.5000 0.0000 -0.8660
vn 0.5000 0.0000 -0.8660
vn 0.8660 0.0000 -0.5000
vn 0.8660 -0.0000 -0.5000
vn 0.5000 0.0000 0.8660
vn 0.5000 0.0000 0.8660
vn 0.8660 0.0000 0.5000
vn 1.0000 -0.0000 0.0000
vn 1.0000 0.0000 0.0000
vn 0.8660 0.0000 0.5000
vn 0.0000 1.0000 0.0000
vn 0.0000 1.0000 0.0000
vn 0.0000 1.0000 0.0000
vn 0.0000 1.0000 0.0000
vn 0.0000 1.0000 0.0000
vn -0.8660 0.0000 -0.5000
vn -0.8660 0.0000 -0.5000
vn -1.0000 0.0000 0.0000
vn -0.5000 0.0000 -0.8660
vn -0.5000 0.0000 -0.8660
vn 0.0000 0.0000 -1.0000
vn -0.0000 0.0000 -1.0000
vn -1.0000 -0.0000 0.0000
vn 0.0000 1.0000 0.0000
vn 0.0000 1.0000 0.0000
vn 0.0000 1.0000 0.0000
vn 0.0000 1.0000 0.0000
vn 0.0000 1.0000 0.0000
vn 0.0000 1.0000 0.0000
vn 0.5000 0.0000 -0.8660
vn 0.5000 0.0000 -0.8660
vn 0.8660 0.0000 -0.5000
vn 0.8660 -0.0000 -0.5000
vn 1.0000 -0.0000 0.0000
vn 1.0000 0.0000 0.0000
vn 0.0000 1.0000 0.0000
vn 0.0000 1.0000 0.0000
vn 0.0000 1.0000 0.0000
vn 0.0000 1.0000 0.0000
vn 0.0000 1.0000 0.0000
vn 0.0000 1.0000 0.0000
vn -0.8660 -0.0000 0.5000
vn -0.8660 0.0000 0.5000
vn -0.5000 0.0000 0.8660
vn -0.5000 0.0000 0.8660
vn 0.0000 0.0000 1.0000
vn -0.0000 0.0000 1.0000
vn 0.5000 0.0000 0.8660
vn 0.5000 0.0000 0.8660
vn 0.8660 0.0000 0.5000
vn 0.8660 0.0000 0.5000
vn 0.0000 0.0000 -1.0000
vn -0.0000 0.0000 -1.0000
vn -0.5000 0.0000 -0.8660
vn -0.8660 0.0000 -0.5000
vn -0.8660 0.0000 -0.5000
vn -1.0000 0.0000 0.0000
vn -1.0000 -0.0000 0.0000
vn -0.8660 -0.0000 0.5000
vn -0.5000 0.0000 -0.8660
vn -0.8660 0.0000 0.5000
vn -0.5000 0.0000 0.8660
vn -0.5000 0.0000 0.8660
vn 0.0000 0.0000 1.0000
vn 0.0000 1.0000 0.0000
vn 0.0000 1.0000 0.0000
vn 0.0000 1.0000 0.0000
vn -0.0000 0.0000 1.0000
vn 0.0000 1.0000 0.0000
vn 0.0000 1.0000 0.0000
vn 0.0000 1.0000 0.0000
vn 0.0000 1.0000 0.0000
vn 0.5000 0.0000 -0.8660
vn 0.5000 0.0000 -0.8660
vn 0.8660 0.0000 -0.5000
vn 0.8660 -0.0000 -0.5000
vn 0.5000 0.0000 0.8660
vn 0.5000 0.0000 0.8660
vn 0.8660 0.0000 0.5000
vn 1.0000 -0.0000 0.0000
vn 1.0000 0.0000 0.0000
vn 0.8660 0.0000 0.5000
vn 0.0000 1.0000 0.0000
vn 0.0000 1.0000 0.0000
vn 0.0000 1.0000 0.0000
vn 0.0000 1.0000 0.0000
vn 0.0000 1.0000 0.0000
vn -0.8660 0.0000 -0.5000
vn -0.8660 0.0000 -0.5000
vn -1.0000 0.0000 0.0000
vn -1.0000 -0.0000 0.0000
vn -0.8660 -0.0000 0.5000
vn -0.5000 0.0000 -0.8660
vn -0.5000 0.0000 -0.8660
vn 0.0000 0.0000 -1.0000
vn -0.0000 0.0000 -1.0000
vn -0.8660 0.0000 0.5000
vn -0.5000 0.0000 0.8660
vn -0.5000 0.0000 0.8660
vn 0.0000 0.0000 1.0000
vn 0.0000 1.0000 0.0000
vn 0.0000 1.0000 0.0000
vn 0.0000 1.0000 0.0000
vn 0.0000 1.0000 0.0000
vn 0.0000 1.0000 0.0000
vn 0.0000 1.0000 0.0000
vn 0.0000 1.0000 0.0000
vn -0.0000 0.0000 1.0000
vn 0.5000 0.0000 -0.8660
vn 0.5000 0.0000 -0.8660
vn 0.8660 0.0000 -0.5000
vn 0.8660 -0.0000 -0.5000
vn 0.5000 0.0000 0.8660
vn 0.5000 0.0000 0.8660
vn 0.8660 0.0000 0.5000
vn 1.0000 -0.0000 0.0000
vn 1.0000 0.0000 0.0000
vn 0.8660 0.0000 0.5000
vn 0.0000 1.0000 0.0000
vn 0.0000 1.0000 0.0000
vn 0.0000 1.0000 0.0000
vn 0.0000 1.0000 0.0000
vn 0.0000 1.0000 0.0000
vn -0.8660 -0.0000 -0.5000
vn -0.8660 0.0000 -0.5000
vn -1.0000 -0.0000 0.0000
vn -0.5000 0.0000 -0.8660
vn -0.5000 0.0000 -0.8660
vn 0.0000 0.0000 -1.0000
vn -0.0000 0.0000 -1.0000
vn -1.0000 0.0000 0.0000
vn 0.0000 1.0000 0.0000
vn 0.0000 1.0000 0.0000
vn 0.0000 1.0000 0.0000
vn 0.0000 1.0000 0.0000
vn 0.0000 1.0000 0.0000
vn 0.5000 0.0000 -0.8660
vn 0.5000 0.0000 -0.8660
vn 0.8660 0.0000 -0.5000
vn 0.8660 0.0000 -0.5000
vn 1.0000 0.0000 0.0000
vn 1.0000 -0.0000 0.0000
vn 0.0000 1.0000 0.0000
vn 0.0000 1.0000 0.0000
vn 0.0000 1.0000 0.0000
vn 0.0000 1.0000 0.0000
vn -0.8660 0.0000 0.5000
vn -0.8660 0.0000 0.5000
vn -0.5000 0.0000 0.8660
vn -0.5000 0.0000 0.8660
vn 0.0000 0.0000 1.0000
vn 0.0000 1.0000 0.0000
vn -0.0000 0.0000 1.0000
vn 0.5000 0.0000 0.8660
vn 0.5000 0.0000 0.8660
vn 0.8660 0.0000 0.5000
vn 0.8660 -0.0000 0.5000
vn 0.0000 1.0000 0.0000
vn 0.0000 1.0000 0.0000
vn 0.0000 0.0000 -1.0000
vn -0.0000 0.0000 -1.0000
vn -0.5000 0.0000 -0.8660
vn -0.8660 -0.0000 -0.5000
vn -0.8660 0.0000 -0.5000
vn -1.0000 -0.0000 0.0000
vn -1.0000 0.0000 0.0000
vn -0.8660 0.0000 0.5000
vn -0.5000 0.0000 -0.8660
vn -0.8660 0.0000 0.5000
vn -0.5000 0.0000 0.8660
vn -0.5000 0.0000 0.8660
vn 0.0000 0.0000 1.0000
vn 0.0000 1.0000 0.0000
vn 0.0000 1.0000 0.0000
vn 0.0000 1.0000 0.0000
vn -0.0000 0.0000 1.0000
vn 0.0000 1.0000 0.0000
vn 0.0000 1.0000 0.0000
vn 0.0000 1.0000 0.0000
vn 0.0000 1.0000 0.0000
vn 0.5000 0.0000 -0.8660
vn 0.5000 0.0000 -0.8660
vn 0.8660 0.0000 -0.5000
vn 0.8660 0.0000 -0.5000
vn 0.5000 0.0000 0.8660
vn 0.5000 0.0000 0.8660
vn 0.8660 0.0000 0.5000
vn 1.0000 0.0000 0.0000
vn 1.0000 -0.0000 0.0000
vn 0.8660 -0.0000 0.5000
vn 0.0000 1.0000 0.0000
vn 0.0000 1.0000 0.0000
vn 0.0000 1.0000 0.0000
vn 0.0000 1.0000 0.0000
vn 0.0000 1.0000 0.0000
vn -0.8660 0.0000 -0.5000
vn -0.8660 0.0000 -0.5000
vn -1.0000 0.0000 0.0000
vn -1.0000 -0.0000 0.0000
vn -0.8660 -0.0000 0.5000
vn -0.5000 0.0000 -0.8660
vn -0.5000 0.0000 -0.8660
vn 0.0000 0.0000 -1.0000
vn -0.0000 0.0000 -1.0000
vn -0.8660 0.0000 0.5000
vn -0.5000 0.0000 0.8660
vn -0.5000 0.0000 0.8660
vn 0.0000 0.0000 1.0000
vn 0.0000 1.0000 0.0000
vn 0.0000 1.0000 0.0000
vn 0.0000 1.0000 0.0000
vn 0.0000 1.0000 0.0000
vn 0.0000 1.0000 0.0000
vn 0.0000 1.0000 0.0000
vn 0.0000 1.0000 0.0000
vn -0.0000 0.0000 1.0000
vn 0.5000 0.0000 -0.8660
vn 0.5000 0.0000 -0.8660
vn 0.8660 0.0000 -0.5000
vn 0.8660 -0.0000 -0.5000
vn 0.5000 0.0000 0.8660
vn 0.5000 0.0000 0.8660
vn 0.8660 0.0000 0.5000
vn 1.0000 -0.0000 0.0000
vn 1.0000 0.0000 0.0000
vn 0.8660 0.0000 0.5000
vn 0.0000 1.0000 0.0000
vn 0.0000 1.0000 0.0000
vn 0.0000 1.0000 0.0000
vn 0.0000 1.0000 0.0000
vn 0.0000 1.0000 0.0000
vn -0.8660 0.0000 -0.5000
vn -0.8660 0.0000 -0.5000
vn -1.0000 0.0000 0.0000
vn -0.5000 0.0000 -0.8660
vn -0.5000 0.0000 -0.8660
vn 0.0000 0.0000 -1.0000
vn -0.0000 0.0000 -1.0000
vn -1.0000 -0.0000 0.0000
vn 0.0000 1.0000 0.0000
vn 0.0000 1.0000 0.0000
vn 0.0000 1.0000 0.0000
vn 0.0000 1.0000 0.0000
vn 0.0000 1.0000 0.0000
vn 0.0000 1.0000 0.0000
vn 0.5000 0.0000 -0.8660
vn 0.5000 0.0000 -0.8660
vn 0.8660 0.0000 -0.5000
vn 0.8660 -0.0000 -0.5000
vn 1.0000 -0.0000 0.0000
vn 1.0000 0.0000 0.0000
vn 0.0000 1.0000 0.0000
vn 0.0000 1.0000 0.0000
vn 0.0000 1.0000 0.0000
vn 0.0000 1.0000 0.0000
vn 0.0000 1.0000 0.0000
vn 0.0000 1.0000 0.0000
vn -0.8660 -0.0000 0.5000
vn -0.8660 0.0000 0.5000
vn -0.5000 0.0000 0.8660
vn -0.5000 0.0000 0.8660
vn 0.0000 0.0000 1.0000
vn -0.0000 0.0000 1.0000
vn 0.5000 0.0000 0.8660
vn 0.5000 0.0000 0.8660
vn 0.8660 0.0000 0.5000
vn 0.8660 0.0000 0.5000
vn 0.0000 0.0000 -1.0000
vn -0.0000 0.0000 -1.0000
vn -0.5000 0.0000 -0.8660
vn -0.8660 0.0000 -0.5000
vn -0.8660 0.0000 -0.5000
vn -1.0000 0.0000 0.0000
vn -1.0000 -0.0000 0.0000
vn -0.8660 -0.0000 0.5000
vn -0.5000 0.0000 -0.8660
vn -0.8660 0.0000 0.5000
vn -0.5000 0.0000 0.8660
vn -0.5000 0.0000 0.8660
vn 0.0000 0.0000 1.0000
vn 0.0000 1.0000 0.0000
vn 0.0000 1.0000 0.0000
vn 0.0000 1.0000 0.0000
vn -0.0000 0.0000 1.0000
vn 0.0000 1.0000 0.0000
vn 0.0000 1.0000 0.0000
vn 0.0000 1.0000 0.0000
vn 0.0000 1.0000 0.0000
vn 0.5000 0.0000 -0.8660
vn 0.5000 0.0000 -0.8660
vn 0.8660 0.0000 -0.5000
vn 0.8660 -0.0000 -0.5000
vn 0.5000 0.0000 0.8660
vn 0.5000 0.0000 0.8660
vn 0.8660 0.0000 0.5000
vn 1.0000 -0.0000 0.0000
vn 1.0000 0.0000 0.0000
vn 0.8660 0.0000 0.5000
vn 0.0000 1.0000 0.0000
vn 0.0000 1.0000 0.0000
vn 0.0000 1.0000 0.0000
vn 0.0000 1.0000 0.0000
vn 0.0000 1.0000 0.0000
vn -0.8660 0.0000 -0.5000
vn -0.8660 0.0000 -0.5000
vn -1.0000 0.0000 0.0000
vn -1.0000 -0.0000 0.0000
vn -0.8660 -0.0000 0.5000
vn -0.5000 0.0000 -0.8660
vn -0.5000 0.0000 -0.8660
vn 0.0000 0.0000 -1.0000
vn -0.0000 0.0000 -1.0000
vn -0.8660 0.0000 0.5000
vn -0.5000 0.0000 0.8660
vn -0.5000 0.0000 0.8660
vn 0.0000 0.0000 1.0000
vn 0.0000 1.0000 0.0000
vn 0.0000 1.0000 0.0000
vn 0.0000 1.0000 0.0000
vn 0.0000 1.0000 0.0000
vn 0.0000 1.0000 0.0000
vn 0.0000 1.0000 0.0000
vn 0.0000 1.0000 0.0000
vn -0.0000 0.0000 1.0000
vn 0.5000 0.0000 -0.8660
vn 0.5000 0.0000 -0.8660
vn 0.8660 0.0000 -0.5000
vn 0.8660 -0.0000 -0.5000
vn 0.5000 0.0000 0.8660
vn 0.5000 0.0000 0.8660
vn 0.8660 0.0000 0.5000
vn 1.0000 -0.0000 0.0000
vn 1.0000 0.0000 0.0000
vn 0.8660 0.0000 0.5000
vn 0.0000 1.0000 0.0000
vn 0.0000 1.0000 0.0000
vn 0.0000 1.0000 0.0000
vn 0.0000 1.0000 0.0000
vn 0.0000 1.0000 0.0000
vn -0.8660 -0.0000 -0.5000
vn -0.8660 0.0000 -0.5000
vn -1.0000 -0.0000 0.0000
vn -0.5000 0.0000 -0.8660
vn -0.5000 0.0000 -0.8660
vn 0.0000 0.0000 -1.0000
vn -0.0000 0.0000 -1.0000
vn -1.0000 0.0000 0.0000
vn 0.0000 1.0000 0.0000
vn 0.0000 1.0000 0.0000
vn 0.0000 1.0000 0.0000
vn 0.0000 1.0000 0.0000
vn 0.0000 1.0000 0.0000
vn 0.5000 0.0000 -0.8660
vn 0.5000 0.0000 -0.8660
vn 0.8660 0.0000 -0.5000
vn 0.8660 0.0000 -0.5000
vn 1.0000 0.0000 0.0000
vn 1.0000 -0.0000 0.0000
vn 0.0000 1.0000 0.0000
vn 0.0000 1.0000 0.0000
vn 0.0000 1.0000 0.0000
vn 0.0000 1.0000 0.0000
vn -0.8660 0.0000 0.5000
vn -0.8660 0.0000 0.5000
vn -0.5000 0.0000 0.8660
vn -0.5000 0.0000 0.8660
vn 0.0000 0.0000 1.0000
vn 0.0000 1.0000 0.0000
vn -0.0000 0.0000 1.0000
vn 0.5000 0.0000 0.8660
vn 0.5000 0.0000 0.8660
vn 0.8660 0.0000 0.5000
vn 0.8660 -0.0000 0.5000
vn 0.0000 1.0000 0.0000
vn 0.0000 1.0000 0.0000
vn 0.0000 0.0000 -1.0000
vn -0.0000 0.0000 -1.0000
vn -0.5000 0.0000 -0.8660
vn -0.8660 -0.0000 -0.5000
vn -0.8660 0.0000 -0.5000
vn -1.0000 -0.0000 0.0000
vn -1.0000 0.0000 0.0000
vn -0.8660 0.0000 0.5000
vn -0.5000 0.0000 -0.8660
vn -0.8660 0.0000 0.5000
vn -0.5000 0.0000 0.8660
vn -0.5000 0.0000 0.8660
vn 0.0000 0.0000 1.0000
vn 0.0000 1.0000 0.0000
vn 0.0000 1.0000 0.0000
vn 0.0000 1.0000 0.0000
vn -0.0000 0.0000 1.0000
vn 0.0000 1.0000 0.0000
vn 0.0000 1.0000 0.0000
vn 0.0000 1.0000 0.0000
vn 0.0000 1.0000 0.0000
vn 0.5000 0.0000 -0.8660
vn 0.5000 0.0000 -0.8660
vn 0.8660 0.0000 -0.5000
vn 0.8660 0.0000 -0.5000
vn 0.5000 0.0000 0.8660
vn 0.5000 0.0000 0.8660
vn 0.8660 0.0000 0.5000
vn 1.0000 0.0000 0.0000
vn 1.0000 -0.0000 0.0000
vn 0.8660 -0.0000 0.5000
vn 0.0000 1.0000 0.0000
vn 0.0000 1.0000 0.0000
vn 0.0000 1.0000 0.0000
vn 0.0000 1.0000 0.0000
vn 0.0000 1.0000 0.0000
f 1//1 2//2 3//3
f 2//2 4//4 3//3
f 2//2 5//5 4//4
f 3//3 4//4 6//6
f 4//4 5//5 7//7
f 4//4 7//7 6//6
f 1//1 8//8 2//2
f 2//2 8//8 5//5
f 5//5 9//9 7//7
f 6//6 7//7 10//10
f 5//5 11//11 9//9
f 1//1 3//3 12//12
f 3//3 6//6 13//13
f 6//6 10//10 14//14
f 1//1 15//15 8//8
f 5//5 8//8 16//16
f 5//5 16//16 11//11
f 15//15 17//17 8//8
f 8//8 17//17 18//18
f 8//8 18//18 16//16
f 17//17 19//19 18//18
f 16//16 18//18 20//20
f 18//18 19//19 20//20
f 16//16 20//20 11//11
f 19//19 21//21 20//20
f 1//1 22//22 15//15
f 15//15 23//23 17//17
f 17//17 23//23 19//19
f 19//19 24//24 21//21
f 7//7 9//9 25//25
f 7//7 26//26 10//10
f 7//7 25//25 26//26
f 25//25 27//27 26//26
f 27//27 28//28 29//29
f 27//27 29//29 30//30
f 27//27 31//31 28//28
f 27//27 30//30 32//32
f 28//28 31//31 33//33
f 33//33 31//31 34//34
f 33//33 34//34 35//35
f 35//35 34//34 36//36
f 35//35 37//37 38//38
f 35//35 36//36 37//37
f 27//27 32//32 39//39
f 32//32 40//40 41//41
f 40//40 42//42 41//41
f 42//42 43//43 44//44
f 45//45 44//44 43//43
f 38//38 37//37 46//46
f 46//46 37//37 47//47
f 46//46 48//48 45//45
f 46//46 47//47 48//48
f 45//45 48//48 49//49
f 48//48 50//50 51//51
f 9//9 11//11 25//25
f 25//25 52//52 27//27
f 31//31 53//53 54//54
f 54//54 53//53 55//55
f 54//54 55//55 56//56
f 56//56 55//55 57//57
f 56//56 57//57 58//58
f 58//58 57//57 59//59
f 27//27 52//52 31//31
f 53//53 60//60 61//61
f 61//61 62//62 63//63
f 63//63 64//64 65//65
f 58//58 66//66 67//67
f 58//58 59//59 66//66
f 67//67 66//66 68//68
f 68//68 66//66 69//69
f 68//68 51//51 50//50
f 68//68 69//69 70//70
f 65//65 71//71 72//72
f 72//72 73//73 74//74
f 69//69 75//75 76//76
f 75//75 74//74 76//76
f 10//10 26//26 14//14
f 32//32 41//41 39//39
f 42//42 77//77 41//41
f 42//42 44//44 77//77
f 45//45 78//78 44//44
f 26//26 27//27 79//79
f 27//27 39//39 80//80
f 45//45 49//49 78//78
f 48//48 51//51 49//49
f 78//78 49//49 81//81
f 81//81 49//49 82//82
f 81//81 83//83 84//84
f 81//81 82//82 83//83
f 39//39 85//85 86//86
f 85//85 87//87 88//88
f 89//89 88//88 87//87
f 90//90 91//91 89//89
f 84//84 83//83 92//92
f 92//92 83//83 93//93
f 92//92 93//93 94//94
f 92//92 95//95 90//90
f 92//92 94//94 96//96
f 94//94 97//97 96//96
f 68//68 98//98 51//51
f 68//68 70//70 98//98
f 98//98 70//70 99//99
f 99//99 70//70 100//100
f 99//99 100//100 101//101
f 101//101 100//100 102//102
f 69//69 76//76 70//70
f 74//74 103//103 76//76
f 74//74 104//104 103//103
f 103//103 104//104 105//105
f 105//105 106//106 107//107
f 101//101 108//108 109//109
f 101//101 102//102 108//108
f 109//109 108//108 110//110
f 110//110 108//108 111//111
f 110//110 112//112 97//97
f 110//110 111//111 113//113
f 107//107 114//114 115//115
f 116//116 113//113 111//111
f 117//117 116//116 118//118
f 117//117 118//118 115//115
f 117//117 115//115 119//119
f 61//61 60//60 62//62
f 52//52 53//53 31//31
f 63//63 62//62 64//64
f 65//65 64//64 71//71
f 25//25 11//11 120//120
f 25//25 120//120 52//52
f 60//60 121//121 122//122
f 52//52 60//60 53//53
f 60//60 123//123 121//121
f 122//122 121//121 124//124
f 124//124 121//121 125//125
f 124//124 125//125 126//126
f 126//126 125//125 127//127
f 72//72 71//71 73//73
f 74//74 73//73 128//128
f 74//74 128//128 104//104
f 128//128 129//129 130//130
f 129//129 131//131 130//130
f 126//126 132//132 133//133
f 126//126 127//127 132//132
f 133//133 132//132 131//131
f 131//131 132//132 134//134
f 131//131 134//134 135//135
f 136//136 134//134 137//137
f 136//136 137//137 138//138
f 11//11 20//20 120//120
f 20//20 21//21 139//139
f 52//52 123//123 60//60
f 123//123 140//140 141//141
f 141//141 140//140 142//142
f 141//141 142//142 143//143
f 143//143 142//142 144//144
f 143//143 144//144 145//145
f 145//145 144//144 146//146
f 52//52 140//140 123//123
f 20//20 139//139 120//120
f 120//120 139//139 52//52
f 52//52 147//147 140//140
f 52//52 148//148 147//147
f 52//52 149//149 148//148
f 150//150 151//151 145//145
f 150//150 145//145 146//146
f 150//150 138//138 151//151
f 150//150 136//136 138//138
f 150//150 152//152 153//153
f 52//52 154//154 149//149
f 152//152 155//155 156//156
f 157//157 156//156 155//155
f 149//149 154//154 158//158
f 158//158 159//159 157//157
f 128//128 130//130 104//104
f 131//131 135//135 130//130
f 105//105 104//104 106//106
f 107//107 106//106 114//114
f 134//134 136//136 135//135
f 150//150 160//160 136//136
f 136//136 160//160 161//161
f 136//136 162//162 163//163
f 136//136 161//161 162//162
f 115//115 114//114 119//119
f 117//117 119//119 164//164
f 165//165 117//117 164//164
f 163//163 166//166 167//167
f 163//163 162//162 166//166
f 167//167 166//166 168//168
f 168//168 166//166 169//169
f 168//168 169//169 170//170
f 168//168 170//170 171//171
f 21//21 172//172 139//139
f 150//150 173//173 160//160
f 150//150 153//153 173//173
f 152//152 174//174 153//153
f 153//153 174//174 175//175
f 175//175 174//174 176//176
f 175//175 176//176 177//177
f 177//177 176//176 178//178
f 152//152 156//156 174//174
f 157//157 179//179 156//156
f 157//157 159//159 179//179
f 158//158 154//154 159//159
f 139//139 180//180 52//52
f 177//177 178//178 181//181
f 181//181 178//178 182//182
f 183//183 181//181 182//182
f 183//183 182//182 184//184
f 183//183 184//184 170//170
f 170//170 184//184 185//185
f 170//170 185//185 186//186
f 185//185 187//187 188//188
f 154//154 189//189 190//190
f 52//52 180//180 154//154
f 190//190 189//189 187//187
f 3//3 191//191 12//12
f 3//3 13//13 191//191
f 6//6 14//14 13//13
f 1//1 12//12 22//22
f 12//12 191//191 192//192
f 191//191 193//193 192//192
f 191//191 13//13 193//193
f 192//192 193//193 194//194
f 13//13 195//195 193//193
f 193//193 195//195 194//194
f 12//12 192//192 196//196
f 192//192 194//194 196//196
f 194//194 197//197 198//198
f 13//13 14//14 195//195
f 194//194 195//195 197//197
f 15//15 22//22 23//23
f 19//19 23//23 24//24
f 21//21 24//24 172//172
f 12//12 196//196 22//22
f 194//194 198//198 196//196
f 22//22 196//196 23//23
f 23//23 196//196 199//199
f 23//23 199//199 24//24
f 196//196 198//198 199//199
f 24//24 199//199 172//172
f 198//198 200//200 199//199
f 198//198 197//197 200//200
f 199//199 201//201 172//172
f 199//199 200//200 201//201
f 85//85 88//88 86//86
f 39//39 86//86 80//80
f 27//27 80//80 79//79
f 89//89 202//202 88//88
f 89//89 91//91 202//202
f 90//90 203//203 91//91
f 92//92 96//96 95//95
f 90//90 95//95 203//203
f 97//97 204//204 96//96
f 203//203 205//205 206//206
f 203//203 95//95 205//205
f 26//26 207//207 14//14
f 26//26 79//79 207//207
f 80//80 208//208 209//209
f 208//208 210//210 211//211
f 210//210 212//212 213//213
f 214//214 215//215 212//212
f 206//206 205//205 216//216
f 216//216 205//205 217//217
f 216//216 218//218 214//214
f 216//216 217//217 218//218
f 214//214 218//218 215//215
f 219//219 218//218 220//220
f 219//219 220//220 221//221
f 97//97 112//112 204//204
f 110//110 222//222 112//112
f 110//110 113//113 223//223
f 110//110 223//223 222//222
f 222//222 223//223 224//224
f 224//224 223//223 225//225
f 116//116 117//117 113//113
f 165//165 226//226 117//117
f 165//165 227//227 226//226
f 228//228 229//229 224//224
f 228//228 224//224 225//225
f 228//228 221//221 229//229
f 228//228 219//219 221//221
f 228//228 230//230 231//231
f 232//232 233//233 234//234
f 235//235 233//233 236//236
f 230//230 237//237 234//234
f 237//237 238//238 234//234
f 232//232 234//234 238//238
f 234//234 233//233 235//235
f 235//235 236//236 239//239
f 208//208 211//211 209//209
f 80//80 209//209 240//240
f 210//210 213//213 211//211
f 212//212 215//215 213//213
f 79//79 80//80 240//240
f 218//218 219//219 215//215
f 228//228 231//231 219//219
f 230//230 241//241 231//231
f 231//231 242//242 243//243
f 241//241 242//242 231//231
f 14//14 207//207 195//195
f 195//195 244//244 197//197
f 79//79 240//240 245//245
f 79//79 245//245 246//246
f 79//79 246//246 247//247
f 195//195 207//207 244//244
f 207//207 79//79 244//244
f 79//79 247//247 248//248
f 231//231 243//243 249//249
f 249//249 243//243 250//250
f 249//249 251//251 252//252
f 249//249 250//250 251//251
f 252//252 251//251 247//247
f 247//247 251//251 248//248
f 79//79 248//248 253//253
f 230//230 254//254 241//241
f 254//254 234//234 255//255
f 230//230 234//234 254//254
f 255//255 234//234 256//256
f 256//256 234//234 257//257
f 256//256 257//257 258//258
f 258//258 257//257 259//259
f 239//239 260//260 261//261
f 261//261 262//262 263//263
f 197//197 244//244 200//200
f 258//258 264//264 265//265
f 258//258 259//259 264//264
f 265//265 264//264 266//266
f 266//266 264//264 267//267
f 266//266 267//267 248//248
f 79//79 253//253 268//268
f 248//248 267//267 253//253
f 244//244 79//79 180//180
f 263//263 269//269 270//270
f 270//270 271//271 272//272
f 79//79 268//268 273//273
f 253//253 272//272 274//274
f 165//165 168//168 275//275
f 165//165 275//275 227//227
f 168//168 276//276 232//232
f 168//168 277//277 276//276
f 168//168 232//232 275//275
f 232//232 276//276 233//233
f 168//168 171//171 277//277
f 278//278 277//277 279//279
f 277//277 171//171 279//279
f 278//278 279//279 280//280
f 280//280 279//279 281//281
f 280//280 281//281 282//282
f 282//282 281//281 283//283
f 239//239 236//236 284//284
f 239//239 284//284 285//285
f 285//285 286//286 287//287
f 286//286 288//288 289//289
f 282//282 290//290 291//291
f 282//282 283//283 290//290
f 291//291 290//290 288//288
f 288//288 290//290 292//292
f 288//288 292//292 293//293
f 292//292 294//294 295//295
f 170//170 186//186 171//171
f 171//171 186//186 296//296
f 296//296 186//186 297//297
f 296//296 297//297 298//298
f 298//298 297//297 299//299
f 298//298 299//299 300//300
f 300//300 299//299 301//301
f 185//185 188//188 186//186
f 187//187 189//189 188//188
f 154//154 302//302 189//189
f 300//300 301//301 303//303
f 303//303 301//301 304//304
f 303//303 304//304 305//305
f 305//305 304//304 306//306
f 305//305 307//307 294//294
f 305//305 306//306 308//308
f 139//139 172//172 309//309
f 139//139 309//309 180//180
f 180//180 302//302 154//154
f 306//306 310//310 311//311
f 310//310 312//312 313//313
f 302//302 314//314 315//315
f 315//315 316//316 312//312
f 239//239 285//285 260//260
f 285//285 287//287 260//260
f 286//286 289//289 287//287
f 261//261 260//260 262//262
f 263//263 262//262 269//269
f 288//288 293//293 289//289
f 292//292 295//295 293//293
f 289//289 293//293 317//317
f 317//317 293//293 318//318
f 317//317 318//318 319//319
f 319//319 318//318 320//320
f 270//270 269//269 271//271
f 272//272 271//271 274//274
f 253//253 274//274 268//268
f 79//79 273//273 180//180
f 319//319 321//321 322//322
f 319//319 320//320 321//321
f 322//322 321//321 323//323
f 323//323 321//321 324//324
f 268//268 323//323 324//324
f 268//268 324//324 273//273
f 244//244 325//325 200//200
f 244//244 180//180 325//325
f 294//294 307//307 295//295
f 305//305 308//308 307//307
f 307//307 308//308 326//326
f 326//326 308//308 327//327
f 326//326 327//327 328//328
f 328//328 327//327 329//329
f 306//306 311//311 308//308
f 310//310 313//313 311//311
f 312//312 316//316 313//313
f 315//315 314//314 316//316
f 180//180 314//314 302//302
f 172//172 201//201 309//309
f 200//200 325//325 201//201
f 328//328 329//329 330//330
f 330//330 329//329 331//331
f 330//330 331//331 332//332
f 332//332 331//331 333//333
f 332//332 333//333 273//273
f 273//273 333//333 334//334
f 180//180 335//335 314//314
f 180//180 273//273 334//334
f 180//180 336//336 335//335
f 180//180 334//334 336//336
f 201//201 325//325 309//309
f 309//309 325//325 180//180
f 337//337 338//338 339//339
f 340//340 339//339 341//341
f 342//342 343//343 338//338
f 344//344 345//345 343//343
f 346//346 341//341 347//347
f 348//348 347//347 349//349
f 337//337 339//339 340//340
f 340//340 341//341 346//346
f 350//350 351//351 352//352
f 337//337 342//342 338//338
f 342//342 344//344 343//343
f 346//346 347//347 348//348
f 350//350 352//352 353//353
f 353//353 352//352 354//354
f 353//353 354//354 355//355
f 354//354 356//356 355//355
f 348//348 349//349 357//357
f 358//358 359//359 345//345
f 360//360 361//361 359//359
f 362//362 363//363 364//364
f 365//365 366//366 361//361
f 367//367 364//364 366//366
f 357//357 349//349 363//363
f 344//344 358//358 345//345
f 358//358 360//360 359//359
f 362//362 364//364 367//367
f 355//355 356//356 368//368
f 368//368 356//356 369//369
f 368//368 369//369 370//370
f 369//369 371//371 370//370
f 360//360 365//365 361//361
f 365//365 367//367 366//366
f 370//370 371//371 372//372
f 357//357 363//363 362//362
f 373//373 374//374 375//375
f 376//376 377//377 374//374
f 378//378 379//379 377//377
f 373//373 375//375 380//380
f 381//381 382//382 383//383
f 376//376 374//374 373//373
f 376//376 378//378 377//377
f 384//384 381//381 383//383
f 384//384 385//385 386//386
f 387//387 388//388 379//379
f 389//389 390//390 388//388
f 391//391 392//392 390//390
f 378//378 387//387 379//379
f 387//387 389//389 388//388
f 386//386 393//393 394//394
f 394//394 395//395 396//396
f 389//389 391//391 390//390
f 396//396 397//397 398//398
f 380//380 375//375 399//399
f 400//400 399//399 401//401
f 402//402 401//401 403//403
f 380//380 399//399 400//400
f 400//400 401//401 402//402
f 402//402 403//403 404//404
f 384//384 383//383 385//385
f 386//386 385//385 393//393
f 404//404 403//403 405//405
f 406//406 405//405 407//407
f 408//408 407//407 392//392
f 404//404 405//405 406//406
f 406//406 407//407 408//408
f 394//394 393//393 395//395
f 396//396 395//395 397//397
f 391//391 408//408 392//392
f 409//409 410//410 411//411
f 412//412 413//413 414//414
f 415//415 414//414 416//416
f 417//417 411//411 413//413
f 418//418 416//416 419//419
f 420//420 419//419 421//421
f 417//417 409//409 411//411
f 412//412 414//414 415//415
f 415//415 416//416 418//418
f 422//422 423//423 424//424
f 417//417 413//413 412//412
f 418//418 419//419 420//420
f 420//420 421//421 425//425
f 426//426 422//422 424//424
f 426//426 424//424 427//427
f 426//426 427//427 428//428
f 428//428 427//427 429//429
f 430//430 431//431 410//410
f 432//432 433//433 431//431
f 425//425 421//421 434//434
f 435//435 434//434 436//436
f 437//437 438//438 433//433
f 439//439 436//436 438//438
f 409//409 430//430 410//410
f 430//430 432//432 431//431
f 425//425 434//434 435//435
f 435//435 436//436 439//439
f 428//428 429//429 440//440
f 440//440 429//429 441//441
f 440//440 441//441 442//442
f 441//441 443//443 442//442
f 432//432 437//437 433//433
f 437//437 439//439 438//438
f 442//442 443//443 444//444
f 445//445 446//446 447//447
f 448//448 447//447 449//449
f 450//450 451//451 446//446
f 452//452 453//453 451//451
f 454//454 449//449 455//455
f 456//456 455//455 457//457
f 445//445 447//447 448//448
f 448//448 449//449 454//454
f 458//458 459//459 460//460
f 450//450 446//446 445//445
f 450//450 452//452 451//451
f 454//454 455//455 456//456
f 461//461 458//458 460//460
f 461//461 460//460 462//462
f 461//461 462//462 463//463
f 463//463 462//462 464//464
f 456//456 457//457 465//465
f 466//466 467//467 453//453
f 468//468 469//469 467//467
f 470//470 471//471 472//472
f 473//473 474//474 469//469
f 475//475 472//472 474//474
f 465//465 457//457 471//471
f 452//452 466//466 453//453
f 466//466 468//468 467//467
f 470//470 472//472 475//475
f 463//463 464//464 476//476
f 476//476 464//464 477//477
f 476//476 477//477 478//478
f 477//477 479//479 478//478
f 468//468 473//473 469//469
f 475//475 474//474 473//473
f 478//478 479//479 480//480
f 465//465 471//471 470//470
f 481//481 482//482 483//483
f 484//484 485//485 482//482
f 486//486 487//487 485//485
f 481//481 483//483 488//488
f 481//481 484//484 482//482
f 484//484 486//486 485//485
f 489//489 490//490 491//491
f 491//491 492//492 493//493
f 494//494 495//495 487//487
f 496//496 497//497 495//495
f 498//498 499//499 497//497
f 486//486 494//494 487//487
f 494//494 496//496 495//495
f 493//493 500//500 501//501
f 501//501 502//502 503//503
f 496//496 498//498 497//497
f 488//488 483//483 504//504
f 505//505 504//504 506//506
f 507//507 506//506 508//508
f 488//488 504//504 505//505
f 489//489 509//509 490//490
f 505//505 506//506 507//507
f 507//507 508//508 510//510
f 491//491 490//490 492//492
f 493//493 492//492 500//500
f 510//510 508//508 511//511
f 512//512 511//511 513//513
f 514//514 513//513 499//499
f 510//510 511//511 512//512
f 512//512 513//513 514//514
f 501//501 500//500 502//502
f 503//503 502//502 515//515
f 514//514 499//499 498//498
f 503//503 515//515 516//516
f 517//517 518//518 519//519
f 520//520 521//521 522//522
f 523//523 522//522 524//524
f 525//525 519//519 521//521
f 526//526 524//524 527//527
f 528//528 527//527 529//529
f 525//525 517//517 519//519
f 520//520 522//522 523//523
f 523//523 524//524 526//526
f 530//530 531//531 532//532
f 520//520 525//525 521//521
f 526//526 527//527 528//528
f 528//528 529//529 533//533
f 530//530 532//532 534//534
f 534//534 532//532 535//535
f 534//534 535//535 536//536
f 535//535 537//537 536//536
f 538//538 539//539 518//518
f 540//540 541//541 539//539
f 533//533 529//529 542//542
f 543//543 542//542 544//544
f 545//545 546//546 541//541
f 547//547 544//544 546//546
f 517//517 538//538 518//518
f 538//538 540//540 539//539
f 533//533 542//542 543//543
f 543//543 544//544 547//547
f 536//536 537//537 548//548
f 548//548 537//537 549//549
f 548//548 549//549 550//550
f 549//549 551//551 550//550
f 540//540 545//545 541//541
f 547//547 546//546 545//545
f 550//550 551//551 552//552
f 553//553 554//554 555//555
f 556//556 555//555 557//557
f 558//558 559//559 554//554
f 560//560 561//561 559//559
f 562//562 557//557 563//563
f 564//564 563//563 565//565
f 556//556 553//553 555//555
f 556//556 557//557 562//562
f 566//566 567//567 568//568
f 553//553 558//558 554//554
f 558//558 560//560 559//559
f 562//562 563//563 564//564
f 568//568 567//567 569//569
f 567//567 570//570 569//569
f 569//569 570//570 571//571
f 571//571 570//570 572//572
f 564//564 565//565 573//573
f 574//574 575//575 561//561
f 576//576 577//577 575//575
f 578//578 579//579 580//580
f 581//581 582//582 577//577
f 583//583 580//580 582//582
f 573//573 565//565 579//579
f 560//560 574//574 561//561
f 574//574 576//576 575//575
f 578//578 580//580 583//583
f 571//571 572//572 584//584
f 572//572 585//585 584//584
f 584//584 585//585 586//586
f 586//586 585//585 587//587
f 576//576 581//581 577//577
f 583//583 582//582 581//581
f 586//586 587//587 588//588
f 573//573 579//579 578//578
f 589//589 590//590 591//591
f 592//592 593//593 590//590
f 594//594 595//595 593//593
f 596//596 589//589 591//591
f 597//597 598//598 599//599
f 589//589 592//592 590//590
f 592//592 594//594 593//593
f 599//599 598//598 600//600
f 600//600 601//601 602//602
f 603//603 604//604 595//595
f 605//605 606//606 604//604
f 607//607 608//608 606//606
f 594//594 603//603 595//595
f 603//603 605//605 604//604
f 602//602 609//609 610//610
f 610//610 611//611 612//612
f 605//605 607//607 606//606
f 612//612 613//613 614//614
f 596//596 591//591 615//615
f 616//616 615//615 617//617
f 618//618 617//617 619//619
f 596//596 615//615 616//616
f 616//616 617//617 618//618
f 618//618 619//619 620//620
f 600//600 598//598 601//601
f 602//602 601//601 609//609
f 620//620 619//619 621//621
f 622//622 621//621 623//623
f 624//624 623//623 608//608
f 620//620 621//621 622//622
f 622//622 623//623 624//624
f 610//610 609//609 611//611
f 612//612 611//611 613//613
f 607//607 624//624 608//608
f 625//625 626//626 627//627
f 628//628 629//629 630//630
f 631//631 630//630 632//632
f 633//633 627//627 629//629
f 634//634 632//632 635//635
f 636//636 635//635 637//637
f 633//633 625//625 627//627
f 631//631 628//628 630//630
f 631//631 632//632 634//634
f 638//638 639//639 640//640
f 633//633 629//629 628//628
f 634//634 635//635 636//636
f 636//636 637//637 641//641
f 642//642 640//640 639//639
f 642//642 639//639 643//643
f 642//642 643//643 644//644
f 644//644 643//643 645//645
f 646//646 647//647 626//626
f 648//648 649//649 647//647
f 641//641 637//637 650//650
f 651//651 650//650 652//652
f 653//653 654//654 649//649
f 655//655 652//652 654//654
f 625//625 646//646 626//626
f 646//646 648//648 647//647
f 641//641 650//650 651//651
f 651//651 652//652 655//655
f 644//644 645//645 656//656
f 645//645 657//657 656//656
f 656//656 657//657 658//658
f 658//658 657//657 659//659
f 648//648 653//653 649//649
f 655//655 654//654 653//653
f 658//658 659//659 660//660
f 661//661 662//662 663//663
f 664//664 663//663 665//665
f 666//666 667//667 662//662
f 668//668 669//669 667//667
f 670//670 665//665 671//671
f 672//672 671//671 673//673
f 664//664 661//661 663//663
f 664//664 665//665 670//670
f 674//674 675//675 676//676
f 661//661 666//666 662//662
f 666//666 668//668 667//667
f 670//670 671//671 672//672
f 676//676 675//675 677//677
f 675//675 678//678 677//677
f 677//677 678//678 679//679
f 679//679 678//678 680//680
f 672//672 673//673 681//681
f 682//682 683//683 669//669
f 684//684 685//685 683//683
f 686//686 687//687 688//688
f 689//689 690//690 685//685
f 691//691 688//688 690//690
f 681//681 673//673 687//687
f 668//668 682//682 669//669
f 682//682 684//684 683//683
f 691//691 686//686 688//688
f 679//679 680//680 692//692
f 680//680 693//693 692//692
f 692//692 693//693 694//694
f 694//694 693//693 695//695
f 684//684 689//689 685//685
f 691//691 690//690 689//689
f 694//694 695//695 696//696
f 681//681 687//687 686//686
f 697//697 698//698 699//699
f 700//700 701//701 698//698
f 702//702 703//703 701//701
f 697//697 699//699 704//704
f 697//697 700//700 698//698
f 700//700 702//702 701//701
f 705//705 706//706 707//707
f 707//707 708//708 709//709
f 710//710 711//711 703//703
f 712//712 713//713 711//711
f 714//714 715//715 713//713
f 702//702 710//710 703//703
f 710//710 712//712 711//711
f 709//709 716//716 717//717
f 717//717 718//718 719//719
f 712//712 714//714 713//713
f 704//704 699//699 720//720
f 721//721 720//720 722//722
f 723//723 722//722 724//724
f 704//704 720//720 721//721
f 705//705 725//725 706//706
f 721//721 722//722 723//723
f 723//723 724//724 726//726
f 707//707 706//706 708//708
f 709//709 708//708 716//716
f 726//726 724//724 727//727
f 728//728 727//727 729//729
f 730//730 729//729 715//715
f 726//726 727//727 728//728
f 730//730 728//728 729//729
f 717//717 716//716 718//718
f 719//719 718//718 731//731
f 730//730 715//715 714//714
f 719//719 731//731 732//732
f 733//733 734//734 735//735
f 736//736 737//737 738//738
f 739//739 738//738 740//740
f 741//741 735//735 737//737
f 742//742 740//740 743//743
f 744//744 743//743 745//745
f 741//741 733//733 735//735
f 736//736 738//738 739//739
f 739//739 740//740 742//742
f 746//746 747//747 748//748
f 736//736 741//741 737//737
f 742//742 743//743 744//744
f 744//744 745//745 749//749
f 746//746 748//748 750//750
f 748//748 751//751 750//750
f 750//750 751//751 752//752
f 752//752 751//751 753//753
f 754//754 755//755 734//734
f 756//756 757//757 755//755
f 749//749 745//745 758//758
f 759//759 758//758 760//760
f 761//761 762//762 757//757
f 763//763 760//760 762//762
f 733//733 754//754 734//734
f 754//754 756//756 755//755
f 749//749 758//758 759//759
f 759//759 760//760 763//763
f 752//752 753//753 764//764
f 753//753 765//765 764//764
f 764//764 765//765 766//766
f 766//766 765//765 767//767
f 756//756 761//761 757//757
f 763//763 762//762 761//761
f 766//766 767//767 768//768
f 769//769 770//770 771//771
f 772//772 771//771 773//773
f 774//774 775//775 770//770
f 776//776 777//777 775//775
f 778//778 773//773 779//779
f 780//780 779//779 781//781
f 772//772 769//769 771//771
f 772//772 773//773 778//778
f 782//782 783//783 784//784
f 769//769 774//774 770//770
f 774//774 776//776 775//775
f 778//778 779//779 780//780
f 784//784 783//783 785//785
f 785//785 783//783 786//786
f 785//785 786//786 787//787
f 786//786 788//788 787//787
f 780//780 781//781 789//789
f 790//790 791//791 777//777
f 792//792 793//793 791//791
f 794//794 795//795 796//796
f 797//797 798//798 793//793
f 799//799 796//796 798//798
f 789//789 781//781 795//795
f 776//776 790//790 777//777
f 790//790 792//792 791//791
f 794//794 796//796 799//799
f 787//787 788//788 800//800
f 800//800 788//788 801//801
f 800//800 801//801 802//802
f 801//801 803//803 802//802
f 792//792 797//797 793//793
f 797//797 799//799 798//798
f 802//802 803//803 804//804
f 789//789 795//795 794//794
f 805//805 806//806 807//807
f 808//808 809//809 806//806
f 810//810 811//811 809//809
f 812//812 805//805 807//807
f 813//813 814//814 815//815
f 808//808 806//806 805//805
f 808//808 810//810 809//809
f 816//816 815//815 814//814
f 816//816 817//817 818//818
f 819//819 820//820 811//811
f 821//821 822//822 820//820
f 823//823 824//824 822//822
f 810//810 819//819 811//811
f 819//819 821//821 820//820
f 818//818 825//825 826//826
f 826//826 827//827 828//828
f 821//821 823//823 822//822
f 828//828 829//829 830//830
f 812//812 807//807 831//831
f 832//832 831//831 833//833
f 834//834 833//833 835//835
f 812//812 831//831 832//832
f 832//832 833//833 834//834
f 834//834 835//835 836//836
f 816//816 814//814 817//817
f 818//818 817//817 825//825
f 836//836 835//835 837//837
f 838//838 837//837 839//839
f 840//840 839//839 824//824
f 836//836 837//837 838//838
f 838//838 839//839 840//840
f 826//826 825//825 827//827
f 828//828 827//827 829//829
f 823//823 840//840 824//824
f 841//841 842//842 843//843
f 844//844 845//845 846//846
f 847//847 846//846 848//848
f 849//849 843//843 845//845
f 850//850 848//848 851//851
f 852//852 851//851 853//853
f 849//849 841//841 843//843
f 847//847 844//844 846//846
f 847//847 848//848 850//850
f 854//854 855//855 856//856
f 849//849 845//845 844//844
f 850//850 851//851 852//852
f 852//852 853//853 857//857
f 858//858 856//856 855//855
f 858//858 855//855 859//859
f 858//858 859//859 860//860
f 859//859 861//861 860//860
f 862//862 863//863 842//842
f 864//864 865//865 863//863
f 857//857 853//853 866//866
f 867//867 866//866 868//868
f 869//869 870//870 865//865
f 871//871 868//868 870//870
f 841//841 862//862 842//842
f 862//862 864//864 863//863
f 857//857 866//866 867//867
f 867//867 868//868 871//871
f 860//860 861//861 872//872
f 872//872 861//861 873//873
f 872//872 873//873 874//874
f 873//873 875//875 874//874
f 864//864 869//869 865//865
f 869//869 871//871 870//870
f 874//874 875//875 876//876
f 877//877 878//878 879//879
f 880//880 879//879 881//881
f 882//882 883//883 878//878
f 884//884 885//885 883//883
f 886//886 881//881 887//887
f 888//888 887//887 889//889
f 880//880 877//877 879//879
f 880//880 881//881 886//886
f 890//890 891//891 892//892
f 882//882 878//878 877//877
f 882//882 884//884 883//883
f 886//886 887//887 888//888
f 893//893 892//892 891//891
f 893//893 891//891 894//894
f 893//893 894//894 895//895
f 894//894 896//896 895//895
f 888//888 889//889 897//897
f 898//898 899//899 885//885
f 900//900 901//901 899//899
f 902//902 903//903 904//904
f 905//905 906//906 901//901
f 907//907 904//904 906//906
f 897//897 889//889 903//903
f 884//884 898//898 885//885
f 898//898 900//900 899//899
f 907//907 902//902 904//904
f 895//895 896//896 908//908
f 908//908 896//896 909//909
f 908//908 909//909 910//910
f 910//910 909//909 911//911
f 900//900 905//905 901//901
f 907//907 906//906 905//905
f 910//910 911//911 912//912
f 897//897 903//903 902//902
f 913//913 914//914 915//915
f 916//916 917//917 914//914
f 918//918 919//919 917//917
f 913//913 915//915 920//920
f 913//913 916//916 914//914
f 916//916 918//918 917//917
f 921//921 922//922 923//923
f 923//923 924//924 925//925
f 926//926 927//927 919//919
f 928//928 929//929 927//927
f 930//930 931//931 929//929
f 918//918 926//926 919//919
f 926//926 928//928 927//927
f 925//925 932//932 933//933
f 933//933 934//934 935//935
f 928//928 930//930 929//929
f 920//920 915//915 936//936
f 937//937 936//936 938//938
f 939//939 938//938 940//940
f 920//920 936//936 937//937
f 921//921 941//941 922//922
f 937//937 938//938 939//939
f 939//939 940//940 942//942
f 923//923 922//922 924//924
f 925//925 924//924 932//932
f 942//942 940//940 943//943
f 944//944 943//943 945//945
f 946//946 945//945 931//931
f 942//942 943//943 944//944
f 944//944 945//945 946//946
f 933//933 932//932 934//934
f 935//935 934//934 947//947
f 946//946 931//931 930//930
f 935//935 947//947 948//948
f 949//949 950//950 951//951
f 952//952 953//953 954//954
f 955//955 954//954 956//956
f 957//957 951//951 953//953
f 958//958 956//956 959//959
f 960//960 959//959 961//961
f 957//957 949//949 951//951
f 955//955 952//952 954//954
f 955//955 956//956 958//958
f 962//962 963//963 964//964
f 952//952 957//957 953//953
f 958//958 959//959 960//960
f 960//960 961//961 965//965
f 964//964 963//963 966//966
f 966//966 963//963 967//967
f 966//966 967//967 968//968
f 967//967 969//969 968//968
f 970//970 971//971 950//950
f 972//972 973//973 971//971
f 965//965 961//961 974//974
f 975//975 974//974 976//976
f 977//977 978//978 973//973
f 979//979 976//976 978//978
f 949//949 970//970 950//950
f 970//970 972//972 971//971
f 965//965 974//974 975//975
f 975//975 976//976 979//979
f 968//968 969//969 980//980
f 980//980 969//969 981//981
f 980//980 981//981 982//982
f 981//981 983//983 982//982
f 972//972 977//977 973//973
f 979//979 978//978 977//977
f 982//982 983//983 984//984
f 985//985 986//986 987//987
f 988//988 987//987 989//989
f 990//990 991//991 986//986
f 992//992 993//993 991//991
f 994//994 989//989 995//995
f 996//996 995//995 997//997
f 988//988 985//985 987//987
f 988//988 989//989 994//994
f 998//998 999//999 1000//1000
f 985//985 990//990 986//986
f 990//990 992//992 991//991
f 994//994 995//995 996//996
f 1000//1000 999//999 1001//1001
f 999//999 1002//1002 1001//1001
f 1001//1001 1002//1002 1003//1003
f 1003//1003 1002//1002 1004//1004
f 996//996 997//997 1005//1005
f 1006//1006 1007//1007 993//993
f 1008//1008 1009//1009 1007//1007
f 1010//1010 1011//1011 1012//1012
f 1013//1013 1014//1014 1009//1009
f 1015//1015 1012//1012 1014//1014
f 1005//1005 997//997 1011//1011
f 992//992 1006//1006 993//993
f 1006//1006 1008//1008 1007//1007
f 1010//1010 1012//1012 1015//1015
f 1003//1003 1004//1004 1016//1016
f 1004//1004 1017//1017 1016//1016
f 1016//1016 1017//1017 1018//1018
f 1018//1018 1017//1017 1019//1019
f 1008//1008 1013//1013 1009//1009
f 1013//1013 1015//1015 1014//1014
f 1018//1018 1019//1019 1020//1020
f 1005//1005 1011//1011 1010//1010
f 1021//1021 1022//1022 1023//1023
f 1024//1024 1025//1025 1022//1022
f 1026//1026 1027//1027 1025//1025
f 1028//1028 1021//1021 1023//1023
f 1029//1029 1030//1030 1031//1031
f 1021//1021 1024//1024 1022//1022
f 1024//1024 1026//1026 1025//1025
f 1031//1031 1030//1030 1032//1032
f 1032//1032 1033//1033 1034//1034
f 1035//1035 1036//1036 1027//1027
f 1037//1037 1038//1038 1036//1036
f 1039//1039 1040//1040 1038//1038
f 1026//1026 1035//1035 1027//1027
f 1035//1035 1037//1037 1036//1036
f 1034//1034 1041//1041 1042//1042
f 1042//1042 1043//1043 1044//1044
f 1037//1037 1039//1039 1038//1038
f 1044//1044 1045//1045 1046//1046
f 1028//1028 1023//1023 1047//1047
f 1048//1048 1047//1047 1049//1049
f 1050//1050 1049//1049 1051//1051
f 1028//1028 1047//1047 1048//1048
f 1048//1048 1049//1049 1050//1050
f 1050//1050 1051//1051 1052//1052
f 1032//1032 1030//1030 1033//1033
f 1034//1034 1033//1033 1041//1041
f 1052//1052 1051//1051 1053//1053
f 1054//1054 1053//1053 1055//1055
f 1056//1056 1055//1055 1040//1040
f 1052//1052 1053//1053 1054//1054
f 1054//1054 1055//1055 1056//1056
f 1042//1042 1041//1041 1043//1043
f 1044//1044 1043//1043 1045//1045
f 1039//1039 1056//1056 1040//1040
f 1057//1057 1058//1058 1059//1059
f 1060//1060 1061//1061 1062//1062
f 1063//1063 1062//1062 1064//1064
f 1065//1065 1059//1059 1061//1061
f 1066//1066 1064//1064 1067//1067
f 1068//1068 1067//1067 1069//1069
f 1065//1065 1057//1057 1059//1059
f 1063//1063 1060//1060 1062//1062
f 1063//1063 1064//1064 1066//1066
f 1070//1070 1071//1071 1072//1072
f 1060//1060 1065//1065 1061//1061
f 1066//1066 1067//1067 1068//1068
f 1068//1068 1069//1069 1073//1073
f 1072//1072 1071//1071 1074//1074
f 1071//1071 1075//1075 1074//1074
f 1074//1074 1075//1075 1076//1076
f 1076//1076 1075//1075 1077//1077
f 1078//1078 1079//1079 1058//1058
f 1080//1080 1081//1081 1079//1079
f 1073//1073 1069//1069 1082//1082
f 1083//1083 1082//1082 1084//1084
f 1085//1085 1086//1086 1081//1081
f 1087//1087 1084//1084 1086//1086
f 1057//1057 1078//1078 1058//1058
f 1078//1078 1080//1080 1079//1079
f 1073//1073 1082//1082 1083//1083
f 1083//1083 1084//1084 1087//1087
f 1076//1076 1077//1077 1088//1088
f 1088//1088 1077//1077 1089//1089
f 1088//1088 1089//1089 1090//1090
f 1090//1090 1089//1089 1091//1091
f 1080//1080 1085//1085 1081//1081
f 1085//1085 1087//1087 1086//1086
f 1090//1090 1091//1091 1092//1092
f 1093//1093 1094//1094 1095//1095
f 1096//1096 1095//1095 1097//1097
f 1098//1098 1099//1099 1094//1094
f 1100//1100 1101//1101 1099//1099
f 1102//1102 1097//1097 1103//1103
f 1104//1104 1103//1103 1105//1105
f 1096//1096 1093//1093 1095//1095
f 1096//1096 1097//1097 1102//1102
f 1106//1106 1107//1107 1108//1108
f 1093//1093 1098//1098 1094//1094
f 1098//1098 1100//1100 1099//1099
f 1102//1102 1103//1103 1104//1104
f 1108//1108 1107//1107 1109//1109
f 1107//1107 1110//1110 1109//1109
f 1109//1109 1110//1110 1111//1111
f 1111//1111 1110//1110 1112//1112
f 1104//1104 1105//1105 1113//1113
f 1114//1114 1115//1115 1101//1101
f 1116//1116 1117//1117 1115//1115
f 1118//1118 1119//1119 1120//1120
f 1121//1121 1122//1122 1117//1117
f 1123//1123 1120//1120 1122//1122
f 1113//1113 1105//1105 1119//1119
f 1100//1100 1114//1114 1101//1101
f 1114//1114 1116//1116 1115//1115
f 1123//1123 1118//1118 1120//1120
f 1111//1111 1112//1112 1124//1124
f 1124//1124 1112//1112 1125//1125
f 1124//1124 1125//1125 1126//1126
f 1126//1126 1125//1125 1127//1127
f 1116//1116 1121//1121 1117//1117
f 1121//1121 1123//1123 1122//1122
f 1126//1126 1127//1127 1128//1128
f 1113//1113 1119//1119 1118//1118
f 1129//1129 1130//1130 1131//1131
f 1132//1132 1133//1133 1130//1130
f 1134//1134 1135//1135 1133//1133
f 1129//1129 1131//1131 1136//1136
f 1129//1129 1132//1132 1130//1130
f 1132//1132 1134//1134 1133//1133
f 1137//1137 1138//1138 1139//1139
f 1139//1139 1140//1140 1141//1141
f 1142//1142 1143//1143 1135//1135
f 1144//1144 1145//1145 1143//1143
f 1146//1146 1147//1147 1145//1145
f 1134//1134 1142//1142 1135//1135
f 1142//1142 1144//1144 1143//1143
f 1141//1141 1148//1148 1149//1149
f 1149//1149 1150//1150 1151//1151
f 1144//1144 1146//1146 1145//1145
f 1136//1136 1131//1131 1152//1152
f 1153//1153 1152//1152 1154//1154
f 1155//1155 1154//1154 1156//1156
f 1136//1136 1152//1152 1153//1153
f 1137//1137 1157//1157 1138//1138
f 1153//1153 1154//1154 1155//1155
f 1155//1155 1156//1156 1158//1158
f 1139//1139 1138//1138 1140//1140
f 1141//1141 1140//1140 1148//1148
f 1158//1158 1156//1156 1159//1159
f 1160//1160 1159//1159 1161//1161
f 1162//1162 1161//1161 1147//1147
f 1158//1158 1159//1159 1160//1160
f 1162//1162 1160//1160 1161//1161
f 1149//1149 1148//1148 1150//1150
f 1151//1151 1150//1150 1163//1163
f 1146//1146 1162//1162 1147//1147
f 1151//1151 1163//1163 1164//1164
f 1165//1165 1166//1166 1167//1167
f 1168//1168 1169//1169 1170//1170
f 1171//1171 1170//1170 1172//1172
f 1173//1173 1167//1167 1169//1169
f 1174//1174 1172//1172 1175//1175
f 1176//1176 1175//1175 1177//1177
f 1173//1173 1165//1165 1167//1167
f 1168//1168 1170//1170 1171//1171
f 1171//1171 1172//1172 1174//1174
f 1178//1178 1179//1179 1180//1180
f 1168//1168 1173//1173 1169//1169
f 1174//1174 1175//1175 1176//1176
f 1176//1176 1177//1177 1181//1181
f 1178//1178 1180//1180 1182//1182
f 1180//1180 1183//1183 1182//1182
f 1182//1182 1183//1183 1184//1184
f 1184//1184 1183//1183 1185//1185
f 1186//1186 1187//1187 1166//1166
f 1188//1188 1189//1189 1187//1187
f 1181//1181 1177//1177 1190//1190
f 1191//1191 1190//1190 1192//1192
f 1193//1193 1194//1194 1189//1189
f 1195//1195 1192//1192 1194//1194
f 1165//1165 1186//1186 1166//1166
f 1186//1186 1188//1188 1187//1187
f 1181//1181 1190//1190 1191//1191
f 1191//1191 1192//1192 1195//1195
f 1184//1184 1185//1185 1196//1196
f 1185//1185 1197//1197 1196//1196
f 1196//1196 1197//1197 1198//1198
f 1198//1198 1197//1197 1199//1199
f 1188//1188 1193//1193 1189//1189
f 1193//1193 1195//1195 1194//1194
f 1198//1198 1199//1199 1200//1200
