v -0.12066 -0.11166 -0.24000
v -0.12300 -0.10600 -0.24000
v -0.12066 -0.10600 -0.24566
v -0.11500 -0.11166 -0.24566
v -0.11500 -0.11400 -0.24000
v -0.11500 -0.10600 -0.24800
v -0.12066 -0.02400 -0.24566
v -0.12066 -0.11166 0.24000
v -0.12300 -0.02400 -0.24000
v -0.11500 -0.02400 -0.24800
v -0.12066 -0.01834 -0.24000
v -0.11500 -0.01834 -0.24566
v -0.11500 -0.01600 -0.24000
v -0.12300 -0.02400 0.24000
v -0.11500 -0.01600 0.24000
v 0.11500 -0.11400 -0.24000
v 0.11500 -0.10600 -0.24800
v 0.11500 -0.02400 -0.24800
v 0.11500 -0.01600 -0.24000
v -0.12300 -0.10600 0.24000
v -0.11500 -0.11400 0.24000
v -0.12066 -0.10600 0.24566
v -0.11500 -0.11166 0.24566
v -0.11500 -0.10600 0.24800
v -0.12066 -0.02400 0.24566
v -0.12066 -0.01834 0.24000
v -0.11500 -0.02400 0.24800
v -0.11500 -0.01834 0.24566
v 0.11500 -0.11400 0.24000
v 0.11500 -0.11166 0.24566
v 0.11500 -0.10600 0.24800
v 0.11500 -0.02400 0.24800
v 0.11500 -0.01600 0.24000
v 0.11500 -0.11166 -0.24566
v 0.11500 -0.01834 -0.24566
v 0.12066 -0.11166 -0.24000
v 0.12066 -0.10600 -0.24566
v 0.12300 -0.10600 -0.24000
v 0.12066 -0.02400 -0.24566
v 0.12066 -0.11166 0.24000
v 0.12300 -0.02400 -0.24000
v 0.12300 -0.10600 0.24000
v 0.12066 -0.01834 -0.24000
v 0.12300 -0.02400 0.24000
v 0.11500 -0.01834 0.24566
v 0.12066 -0.10600 0.24566
v 0.12066 -0.01834 0.24000
v 0.12066 -0.02400 0.24566
v -0.04000 -0.01500 -0.19000
v -0.03236 -0.01500 -0.21351
v -0.03236 -0.01500 -0.16649
v -0.04000 -0.01500 -0.19000
v -0.03350 0.03020 -0.21000
v -0.03236 -0.01500 -0.21351
v -0.01236 -0.01500 -0.22804
v 0.01236 -0.01500 -0.22804
v -0.01236 -0.01500 -0.15196
v -0.03236 -0.01500 -0.16649
v -0.01236 -0.01500 -0.15196
v -0.02500 0.02170 -0.16114
v -0.04000 0.03670 -0.19000
v -0.03350 0.06500 -0.21000
v -0.03236 0.02906 -0.16649
v -0.03236 0.06500 -0.21351
v -0.01236 0.06500 -0.22804
v -0.01236 -0.01500 -0.22804
v -0.01236 0.01831 -0.15196
v 0.00000 0.01500 -0.15196
v 0.01236 0.06500 -0.22804
v -0.03236 0.06500 -0.21351
v 0.03350 0.06500 -0.21000
v -0.01236 0.06500 -0.22804
v -0.03350 0.06500 -0.21000
v 0.03236 -0.01500 -0.21351
v 0.01236 -0.01500 -0.15196
v 0.01236 -0.01500 -0.15196
v 0.03236 -0.01500 -0.16649
v 0.03236 -0.01500 -0.16649
v 0.01236 0.01831 -0.15196
v 0.04000 -0.01500 -0.19000
v 0.04000 -0.01500 -0.19000
v 0.03236 0.02906 -0.16649
v 0.01236 -0.01500 -0.22804
v 0.03236 0.06500 -0.21351
v 0.03236 -0.01500 -0.21351
v 0.02500 0.02170 -0.16114
v 0.04000 0.03670 -0.19000
v 0.03350 0.03020 -0.21000
v 0.03350 0.06500 -0.21000
v 0.01236 0.06500 -0.22804
v 0.03236 0.06500 -0.21351
v -0.03236 -0.01500 0.16649
v -0.04000 -0.01500 0.19000
v -0.03236 0.02906 0.16649
v -0.03236 -0.01500 0.16649
v -0.03236 -0.01500 0.21351
v -0.04000 -0.01500 0.19000
v -0.01236 -0.01500 0.15196
v -0.01236 0.01831 0.15196
v -0.01236 -0.01500 0.15196
v 0.01236 -0.01500 0.15196
v -0.01236 -0.01500 0.22804
v -0.04000 0.03670 0.19000
v -0.03236 -0.01500 0.21351
v -0.03350 0.03020 0.21000
v -0.03236 0.06500 0.21351
v -0.03350 0.06500 0.21000
v -0.02500 0.02170 0.16114
v 0.00000 0.01500 0.15196
v -0.01236 -0.01500 0.22804
v 0.01236 -0.01500 0.22804
v -0.01236 0.06500 0.22804
v -0.03236 0.06500 0.21351
v -0.01236 0.06500 0.22804
v -0.03350 0.06500 0.21000
v 0.01236 0.06500 0.22804
v 0.01236 -0.01500 0.15196
v 0.03236 -0.01500 0.16649
v 0.01236 -0.01500 0.22804
v 0.02500 0.02170 0.16114
v 0.03236 -0.01500 0.16649
v 0.03236 -0.01500 0.21351
v 0.04000 -0.01500 0.19000
v 0.03236 -0.01500 0.21351
v 0.04000 -0.01500 0.19000
v 0.03350 0.03020 0.21000
v 0.01236 0.01831 0.15196
v 0.03236 0.02906 0.16649
v 0.01236 0.06500 0.22804
v 0.03236 0.06500 0.21351
v 0.04000 0.03670 0.19000
v 0.03350 0.06500 0.21000
v 0.03236 0.06500 0.21351
v 0.03350 0.06500 0.21000
v -0.04330 0.04000 -0.21000
v -0.03350 0.03020 -0.21000
v -0.04000 0.03670 -0.19000
v -0.04330 0.04000 -0.21000
v -0.03350 0.06500 -0.21000
v -0.03350 0.03020 -0.21000
v -0.05000 0.06500 0.21000
v -0.05000 0.06500 -0.21000
v -0.04330 0.04000 0.21000
v -0.03236 0.02906 -0.16649
v -0.02500 0.02170 -0.16114
v -0.01236 0.01831 -0.15196
v -0.02500 0.02170 0.16114
v 0.00000 0.01500 0.15196
v 0.00000 0.01500 -0.15196
v -0.05000 0.06500 -0.21000
v -0.04330 0.09000 -0.21000
v -0.02500 0.10830 -0.21000
v 0.03350 0.06500 -0.21000
v -0.04330 0.09000 0.21000
v -0.04330 0.09000 -0.21000
v -0.02500 0.10830 0.21000
v -0.02500 0.10830 -0.21000
v 0.00000 0.11500 0.21000
v 0.00000 0.11500 -0.21000
v -0.03236 0.02906 0.16649
v -0.04000 0.03670 0.19000
v -0.01236 0.01831 0.15196
v -0.03350 0.03020 0.21000
v -0.04330 0.04000 0.21000
v -0.03350 0.03020 0.21000
v -0.03350 0.06500 0.21000
v -0.04330 0.09000 0.21000
v -0.05000 0.06500 0.21000
v -0.02500 0.10830 0.21000
v 0.00000 0.11500 0.21000
v 0.02500 0.10830 0.21000
v 0.04330 0.04000 -0.21000
v 0.04000 0.03670 -0.19000
v 0.03350 0.03020 -0.21000
v 0.04330 0.04000 -0.21000
v 0.03350 0.03020 -0.21000
v 0.04330 0.09000 -0.21000
v 0.01236 0.01831 -0.15196
v 0.01236 0.01831 0.15196
v 0.02500 0.02170 -0.16114
v 0.03236 0.02906 -0.16649
v 0.02500 0.02170 0.16114
v 0.05000 0.06500 -0.21000
v 0.04330 0.04000 0.21000
v 0.00000 0.11500 -0.21000
v 0.02500 0.10830 -0.21000
v 0.05000 0.06500 -0.21000
v 0.02500 0.10830 0.21000
v 0.02500 0.10830 -0.21000
v 0.04330 0.09000 -0.21000
v 0.05000 0.06500 0.21000
v 0.04330 0.09000 0.21000
v 0.03236 0.02906 0.16649
v 0.04000 0.03670 0.19000
v 0.03350 0.03020 0.21000
v 0.04330 0.04000 0.21000
v 0.03350 0.06500 0.21000
v 0.03350 0.03020 0.21000
v 0.04330 0.09000 0.21000
v 0.05000 0.06500 0.21000
vn -0.6887 -0.6887 -0.2265
vn -0.9641 -0.1877 -0.1877
vn -0.6887 -0.2265 -0.6887
vn -0.2265 -0.6887 -0.6887
vn -0.1877 -0.9641 -0.1877
vn -0.1877 -0.1877 -0.9641
vn -0.6887 0.2265 -0.6887
vn -0.6887 -0.6887 0.2265
vn -0.9641 0.1877 -0.1877
vn -0.1877 0.1877 -0.9641
vn -0.6887 0.6887 -0.2265
vn -0.2265 0.6887 -0.6887
vn -0.1877 0.9641 -0.1877
vn -0.9641 0.1877 0.1877
vn -0.1877 0.9641 0.1877
vn 0.1877 -0.9641 -0.1877
vn 0.1877 -0.1877 -0.9641
vn 0.1877 0.1877 -0.9641
vn 0.1877 0.9641 -0.1877
vn -0.9641 -0.1877 0.1877
vn -0.1877 -0.9641 0.1877
vn -0.6887 -0.2265 0.6887
vn -0.2265 -0.6887 0.6887
vn -0.1877 -0.1877 0.9641
vn -0.6887 0.2265 0.6887
vn -0.6887 0.6887 0.2265
vn -0.1877 0.1877 0.9641
vn -0.2265 0.6887 0.6887
vn 0.1877 -0.9641 0.1877
vn 0.2265 -0.6887 0.6887
vn 0.1877 -0.1877 0.9641
vn 0.1877 0.1877 0.9641
vn 0.1877 0.9641 0.1877
vn 0.2265 -0.6887 -0.6887
vn 0.2265 0.6887 -0.6887
vn 0.6887 -0.6887 -0.2265
vn 0.6887 -0.2265 -0.6887
vn 0.9641 -0.1877 -0.1877
vn 0.6887 0.2265 -0.6887
vn 0.6887 -0.6887 0.2265
vn 0.9641 0.1877 -0.1877
vn 0.9641 -0.1877 0.1877
vn 0.6887 0.6887 -0.2265
vn 0.9641 0.1877 0.1877
vn 0.2265 0.6887 0.6887
vn 0.6887 -0.2265 0.6887
vn 0.6887 0.6887 0.2265
vn 0.6887 0.2265 0.6887
vn 0.0000 -1.0000 0.0000
vn 0.0000 -1.0000 0.0000
vn 0.0000 -1.0000 0.0000
vn -1.0000 0.0000 -0.0000
vn -0.9511 0.0000 -0.3090
vn -0.8090 0.0000 -0.5878
vn 0.0000 -1.0000 0.0000
vn 0.0000 -1.0000 0.0000
vn 0.0000 -1.0000 0.0000
vn -0.8090 -0.0000 0.5878
vn -0.3090 -0.0000 0.9511
vn -0.5878 -0.0000 0.8090
vn -1.0000 0.0000 -0.0000
vn -0.9511 -0.0000 -0.3090
vn -0.8710 0.0000 0.4912
vn -0.8090 0.0000 -0.5878
vn -0.3090 0.0000 -0.9511
vn -0.3090 0.0000 -0.9511
vn -0.3561 0.0000 0.9345
vn 0.0000 0.0000 1.0000
vn 0.3090 0.0000 -0.9511
vn 0.0000 1.0000 0.0000
vn 0.0000 1.0000 0.0000
vn 0.0000 1.0000 0.0000
vn 0.0000 1.0000 0.0000
vn 0.0000 -1.0000 0.0000
vn 0.0000 -1.0000 0.0000
vn 0.3090 0.0000 0.9511
vn 0.0000 -1.0000 0.0000
vn 0.8090 -0.0000 0.5878
vn 0.3561 -0.0000 0.9345
vn 0.0000 -1.0000 0.0000
vn 1.0000 0.0000 -0.0000
vn 0.8710 0.0000 0.4912
vn 0.3090 0.0000 -0.9511
vn 0.8090 -0.0000 -0.5878
vn 0.8090 -0.0000 -0.5878
vn 0.5878 -0.0000 0.8090
vn 1.0000 -0.0000 0.0000
vn 0.9511 -0.0000 -0.3090
vn 0.9511 0.0000 -0.3090
vn 0.0000 1.0000 0.0000
vn 0.0000 1.0000 0.0000
vn -0.8090 -0.0000 -0.5878
vn -1.0000 0.0000 0.0000
vn -0.8710 0.0000 -0.4912
vn 0.0000 -1.0000 0.0000
vn 0.0000 -1.0000 0.0000
vn 0.0000 -1.0000 0.0000
vn 0.0000 -1.0000 0.0000
vn -0.3561 -0.0000 -0.9345
vn -0.3090 0.0000 -0.9511
vn 0.0000 -1.0000 0.0000
vn 0.0000 -1.0000 0.0000
vn -1.0000 -0.0000 -0.0000
vn -0.8090 -0.0000 0.5878
vn -0.9511 -0.0000 0.3090
vn -0.8090 0.0000 0.5878
vn -0.9511 0.0000 0.3090
vn -0.5878 -0.0000 -0.8090
vn 0.0000 0.0000 -1.0000
vn -0.3090 0.0000 0.9511
vn 0.3090 0.0000 0.9511
vn -0.3090 0.0000 0.9511
vn 0.0000 1.0000 0.0000
vn 0.0000 1.0000 0.0000
vn 0.0000 1.0000 0.0000
vn 0.0000 1.0000 0.0000
vn 0.3090 -0.0000 -0.9511
vn 0.0000 -1.0000 0.0000
vn 0.0000 -1.0000 0.0000
vn 0.5878 -0.0000 -0.8090
vn 0.8090 -0.0000 -0.5878
vn 0.0000 -1.0000 0.0000
vn 0.0000 -1.0000 0.0000
vn 0.8090 0.0000 0.5878
vn 1.0000 0.0000 0.0000
vn 0.9511 0.0000 0.3090
vn 0.3561 0.0000 -0.9345
vn 0.8710 0.0000 -0.4912
vn 0.3090 0.0000 0.9511
vn 0.8090 0.0000 0.5878
vn 1.0000 0.0000 0.0000
vn 0.9511 -0.0000 0.3090
vn 0.0000 1.0000 0.0000
vn 0.0000 1.0000 0.0000
vn -0.8660 -0.5000 -0.0000
vn -0.7071 -0.7071 -0.0000
vn -0.7071 -0.7071 -0.0000
vn 0.0000 0.0000 -1.0000
vn 0.0000 0.0000 -1.0000
vn 0.0000 0.0000 -1.0000
vn -1.0000 0.0000 -0.0000
vn -1.0000 -0.0000 0.0000
vn -0.8660 -0.5000 -0.0000
vn -0.7071 -0.7071 0.0000
vn -0.5812 -0.8138 0.0000
vn -0.2588 -0.9659 0.0000
vn -0.5812 -0.8138 0.0000
vn -0.0000 -1.0000 0.0000
vn 0.0000 -1.0000 0.0000
vn 0.0000 0.0000 -1.0000
vn 0.0000 0.0000 -1.0000
vn 0.0000 0.0000 -1.0000
vn 0.0000 0.0000 -1.0000
vn -0.8660 0.5000 0.0000
vn -0.8660 0.5000 0.0000
vn -0.5000 0.8660 0.0000
vn -0.5000 0.8660 -0.0000
vn 0.0000 1.0000 -0.0000
vn -0.0000 1.0000 0.0000
vn -0.7071 -0.7071 0.0000
vn -0.7071 -0.7071 -0.0000
vn -0.2588 -0.9659 0.0000
vn -0.7071 -0.7071 -0.0000
vn 0.0000 0.0000 1.0000
vn 0.0000 0.0000 1.0000
vn 0.0000 0.0000 1.0000
vn 0.0000 0.0000 1.0000
vn 0.0000 0.0000 1.0000
vn 0.0000 0.0000 1.0000
vn 0.0000 0.0000 1.0000
vn 0.0000 0.0000 1.0000
vn 0.8660 -0.5000 0.0000
vn 0.7071 -0.7071 0.0000
vn 0.7071 -0.7071 0.0000
vn 0.0000 0.0000 -1.0000
vn 0.0000 0.0000 -1.0000
vn 0.0000 0.0000 -1.0000
vn 0.2588 -0.9659 0.0000
vn 0.2588 -0.9659 0.0000
vn 0.5812 -0.8138 0.0000
vn 0.7071 -0.7071 0.0000
vn 0.5812 -0.8138 0.0000
vn 1.0000 0.0000 0.0000
vn 0.8660 -0.5000 0.0000
vn 0.0000 0.0000 -1.0000
vn 0.0000 0.0000 -1.0000
vn 0.0000 0.0000 -1.0000
vn 0.5000 0.8660 0.0000
vn 0.5000 0.8660 0.0000
vn 0.8660 0.5000 -0.0000
vn 1.0000 -0.0000 -0.0000
vn 0.8660 0.5000 0.0000
vn 0.7071 -0.7071 0.0000
vn 0.7071 -0.7071 0.0000
vn 0.7071 -0.7071 0.0000
vn 0.0000 0.0000 1.0000
vn 0.0000 0.0000 1.0000
vn 0.0000 0.0000 1.0000
vn 0.0000 0.0000 1.0000
vn 0.0000 0.0000 1.0000
f 1//1 2//2 3//3
f 1//1 4//4 5//5
f 1//1 3//3 4//4
f 3//3 6//6 4//4
f 3//3 2//2 7//7
f 3//3 7//7 6//6
f 1//1 8//8 2//2
f 1//1 5//5 8//8
f 2//2 9//9 7//7
f 6//6 7//7 10//10
f 7//7 9//9 11//11
f 7//7 12//12 10//10
f 7//7 11//11 12//12
f 11//11 13//13 12//12
f 2//2 14//14 9//9
f 9//9 14//14 11//11
f 11//11 15//15 13//13
f 4//4 16//16 5//5
f 4//4 6//6 17//17
f 6//6 10//10 18//18
f 10//10 12//12 18//18
f 12//12 13//13 19//19
f 13//13 15//15 19//19
f 2//2 8//8 20//20
f 5//5 21//21 8//8
f 2//2 20//20 14//14
f 8//8 22//22 20//20
f 8//8 21//21 23//23
f 8//8 23//23 22//22
f 22//22 23//23 24//24
f 20//20 22//22 25//25
f 22//22 24//24 25//25
f 11//11 14//14 26//26
f 11//11 26//26 15//15
f 20//20 25//25 14//14
f 24//24 27//27 25//25
f 14//14 25//25 26//26
f 25//25 27//27 28//28
f 25//25 28//28 26//26
f 26//26 28//28 15//15
f 5//5 29//29 21//21
f 21//21 30//30 23//23
f 23//23 30//30 24//24
f 24//24 31//31 27//27
f 27//27 32//32 28//28
f 28//28 33//33 15//15
f 4//4 34//34 16//16
f 4//4 17//17 34//34
f 6//6 18//18 17//17
f 5//5 16//16 29//29
f 12//12 35//35 18//18
f 12//12 19//19 35//35
f 34//34 36//36 16//16
f 34//34 17//17 37//37
f 34//34 37//37 36//36
f 36//36 37//37 38//38
f 17//17 39//39 37//37
f 37//37 39//39 38//38
f 16//16 36//36 40//40
f 36//36 38//38 40//40
f 38//38 41//41 42//42
f 17//17 18//18 39//39
f 38//38 39//39 41//41
f 18//18 35//35 39//39
f 39//39 43//43 41//41
f 35//35 19//19 43//43
f 35//35 43//43 39//39
f 41//41 43//43 44//44
f 19//19 33//33 43//43
f 21//21 29//29 30//30
f 24//24 30//30 31//31
f 15//15 33//33 19//19
f 27//27 31//31 32//32
f 28//28 32//32 45//45
f 28//28 45//45 33//33
f 16//16 40//40 29//29
f 38//38 42//42 40//40
f 29//29 40//40 30//30
f 30//30 46//46 31//31
f 30//30 40//40 46//46
f 40//40 42//42 46//46
f 31//31 46//46 32//32
f 42//42 44//44 46//46
f 42//42 41//41 44//44
f 43//43 33//33 47//47
f 43//43 47//47 44//44
f 46//46 48//48 32//32
f 46//46 44//44 48//48
f 32//32 48//48 45//45
f 44//44 47//47 48//48
f 45//45 47//47 33//33
f 45//45 48//48 47//47
f 49//49 50//50 51//51
f 52//52 53//53 54//54
f 50//50 55//55 51//51
f 55//55 56//56 57//57
f 51//51 55//55 57//57
f 58//58 59//59 60//60
f 52//52 61//61 53//53
f 54//54 53//53 62//62
f 52//52 58//58 61//61
f 58//58 63//63 61//61
f 54//54 62//62 64//64
f 54//54 65//65 66//66
f 58//58 60//60 63//63
f 59//59 67//67 60//60
f 59//59 68//68 67//67
f 54//54 64//64 65//65
f 66//66 65//65 69//69
f 70//70 71//71 72//72
f 70//70 73//73 71//71
f 56//56 74//74 75//75
f 57//57 56//56 75//75
f 59//59 76//76 68//68
f 75//75 74//74 77//77
f 76//76 78//78 79//79
f 74//74 80//80 77//77
f 81//81 82//82 78//78
f 66//66 69//69 83//83
f 83//83 84//84 85//85
f 76//76 79//79 68//68
f 78//78 86//86 79//79
f 78//78 82//82 86//86
f 83//83 69//69 84//84
f 85//85 87//87 81//81
f 85//85 88//88 87//87
f 85//85 84//84 88//88
f 81//81 87//87 82//82
f 84//84 89//89 88//88
f 72//72 71//71 90//90
f 90//90 71//71 91//91
f 92//92 93//93 94//94
f 95//95 96//96 97//97
f 95//95 98//98 96//96
f 92//92 99//99 100//100
f 98//98 101//101 102//102
f 96//96 98//98 102//102
f 93//93 103//103 94//94
f 93//93 104//104 103//103
f 104//104 105//105 103//103
f 104//104 106//106 105//105
f 106//106 107//107 105//105
f 92//92 94//94 108//108
f 92//92 108//108 99//99
f 100//100 99//99 109//109
f 104//104 110//110 106//106
f 110//110 111//111 112//112
f 110//110 112//112 106//106
f 113//113 114//114 115//115
f 114//114 116//116 115//115
f 100//100 109//109 117//117
f 101//101 118//118 119//119
f 117//117 120//120 121//121
f 102//102 101//101 119//119
f 119//119 118//118 122//122
f 118//118 123//123 122//122
f 124//124 125//125 126//126
f 117//117 109//109 127//127
f 117//117 127//127 120//120
f 121//121 120//120 128//128
f 111//111 124//124 129//129
f 112//112 111//111 129//129
f 124//124 130//130 129//129
f 121//121 131//131 125//125
f 121//121 128//128 131//131
f 125//125 131//131 126//126
f 124//124 126//126 132//132
f 124//124 132//132 130//130
f 133//133 134//134 115//115
f 116//116 133//133 115//115
f 135//135 136//136 137//137
f 138//138 139//139 140//140
f 135//135 141//141 142//142
f 135//135 137//137 143//143
f 143//143 137//137 144//144
f 143//143 144//144 145//145
f 145//145 146//146 147//147
f 148//148 146//146 149//149
f 138//138 150//150 151//151
f 138//138 152//152 139//139
f 138//138 151//151 152//152
f 152//152 153//153 139//139
f 142//142 154//154 155//155
f 155//155 156//156 157//157
f 157//157 158//158 159//159
f 160//160 161//161 145//145
f 143//143 145//145 161//161
f 135//135 143//143 141//141
f 160//160 145//145 147//147
f 146//146 162//162 147//147
f 162//162 146//146 148//148
f 143//143 161//161 163//163
f 164//164 165//165 166//166
f 142//142 141//141 154//154
f 155//155 154//154 156//156
f 157//157 156//156 158//158
f 164//164 167//167 168//168
f 164//164 166//166 169//169
f 164//164 169//169 167//167
f 169//169 166//166 170//170
f 170//170 166//166 171//171
f 172//172 173//173 174//174
f 175//175 176//176 177//177
f 149//149 178//178 179//179
f 178//178 180//180 179//179
f 181//181 182//182 180//180
f 172//172 182//182 173//173
f 181//181 173//173 182//182
f 172//172 183//183 184//184
f 152//152 185//185 153//153
f 185//185 186//186 153//153
f 177//177 176//176 153//153
f 175//175 177//177 187//187
f 186//186 177//177 153//153
f 159//159 188//188 189//189
f 183//183 190//190 191//191
f 189//189 192//192 190//190
f 149//149 179//179 148//148
f 182//182 179//179 180//180
f 172//172 193//193 182//182
f 172//172 194//194 193//193
f 172//172 184//184 194//194
f 184//184 183//183 191//191
f 184//184 195//195 194//194
f 196//196 197//197 198//198
f 159//159 158//158 188//188
f 190//190 192//192 191//191
f 189//189 188//188 192//192
f 199//199 166//166 197//197
f 171//171 166//166 199//199
f 196//196 199//199 197//197
f 196//196 200//200 199//199
