v -0.24566 -0.04666 -0.74000
v -0.24000 -0.04666 -0.74566
v -0.24000 -0.04900 -0.74000
v -0.24566 -0.04100 -0.74566
v -0.24800 -0.04100 -0.74000
v -0.24000 -0.04100 -0.74800
v -0.24800 0.04100 -0.74000
v -0.24000 0.04100 -0.74800
v -0.24000 -0.04900 0.74000
v -0.24800 -0.04100 0.74000
v -0.24566 0.04100 -0.74566
v 0.24000 -0.04900 -0.74000
v 0.24000 -0.04100 -0.74800
v -0.24566 -0.04666 0.74000
v -0.24000 -0.04666 0.74566
v -0.24566 -0.04100 0.74566
v -0.24000 -0.04100 0.74800
v -0.24566 0.04100 0.74566
v -0.24800 0.04100 0.74000
v -0.24000 0.04100 0.74800
v 0.24000 -0.04900 0.74000
v 0.24000 -0.04666 0.74566
v 0.24000 -0.04100 0.74800
v -0.24566 0.04666 -0.74000
v -0.24000 0.04666 -0.74566
v -0.24000 0.04900 -0.74000
v -0.20000 0.04900 -0.62500
v -0.18995 0.04900 -0.66250
v -0.16250 0.04900 -0.68995
v -0.20000 0.04900 -0.37500
v -0.18995 0.04900 -0.58750
v -0.18995 0.04900 -0.41250
v -0.12500 0.04900 -0.70000
v -0.16250 0.04900 -0.56005
v -0.16250 0.04900 -0.43995
v -0.12500 0.04900 -0.45000
v -0.12500 0.04900 -0.55000
v -0.24566 0.04666 0.74000
v -0.20000 0.04900 -0.12500
v -0.18995 0.04900 -0.33750
v -0.18995 0.04900 -0.16250
v -0.24000 0.04900 0.74000
v -0.20000 0.04900 0.12500
v -0.18995 0.04900 -0.08750
v -0.16250 0.04900 -0.31005
v -0.16250 0.04900 -0.18995
v -0.12500 0.04900 -0.30000
v -0.12500 0.04900 -0.20000
v -0.18995 0.04900 0.08750
v -0.16250 0.04900 -0.06005
v -0.16250 0.04900 0.06005
v -0.12500 0.04900 -0.05000
v 0.24000 0.04666 -0.74566
v 0.24000 0.04900 -0.74000
v 0.12500 0.04900 -0.70000
v -0.08750 0.04900 -0.56005
v -0.08750 0.04900 -0.43995
v -0.06005 0.04900 -0.41250
v -0.06005 0.04900 -0.58750
v -0.08750 0.04900 -0.68995
v 0.08750 0.04900 -0.68995
v -0.06005 0.04900 -0.66250
v -0.05000 0.04900 -0.62500
v 0.05000 0.04900 -0.62500
v 0.06005 0.04900 -0.41250
v -0.05000 0.04900 -0.37500
v 0.05000 0.04900 -0.37500
v -0.08750 0.04900 -0.18995
v -0.08750 0.04900 -0.31005
v -0.06005 0.04900 -0.33750
v -0.06005 0.04900 -0.16250
v -0.12500 0.04900 0.05000
v -0.08750 0.04900 -0.06005
v -0.08750 0.04900 0.06005
v -0.06005 0.04900 -0.08750
v 0.06005 0.04900 -0.33750
v 0.08750 0.04900 -0.31005
v -0.05000 0.04900 -0.12500
v -0.06005 0.04900 0.08750
v -0.05000 0.04900 0.12500
v -0.06005 0.04900 0.16250
v -0.18995 0.04900 0.33750
v -0.18995 0.04900 0.16250
v -0.20000 0.04900 0.37500
v -0.16250 0.04900 0.18995
v -0.16250 0.04900 0.31005
v -0.12500 0.04900 0.20000
v -0.12500 0.04900 0.30000
v -0.24000 0.04666 0.74566
v -0.18995 0.04900 0.41250
v -0.16250 0.04900 0.43995
v -0.20000 0.04900 0.62500
v -0.18995 0.04900 0.58750
v -0.18995 0.04900 0.66250
v -0.16250 0.04900 0.68995
v -0.16250 0.04900 0.56005
v -0.12500 0.04900 0.45000
v -0.08750 0.04900 0.43995
v -0.12500 0.04900 0.70000
v -0.08750 0.04900 0.31005
v -0.08750 0.04900 0.18995
v -0.06005 0.04900 0.33750
v 0.05000 0.04900 0.12500
v -0.05000 0.04900 0.37500
v 0.06005 0.04900 0.33750
v 0.24000 0.04100 0.74800
v -0.06005 0.04900 0.41250
v -0.12500 0.04900 0.55000
v 0.24000 0.04900 0.74000
v -0.08750 0.04900 0.56005
v 0.06005 0.04900 0.41250
v 0.05000 0.04900 0.37500
v -0.06005 0.04900 0.58750
v -0.05000 0.04900 0.62500
v 0.05000 0.04900 0.62500
v -0.06005 0.04900 0.66250
v 0.12500 0.04900 0.70000
v -0.08750 0.04900 0.68995
v 0.08750 0.04900 0.68995
v 0.24000 -0.04666 -0.74566
v 0.24000 0.04100 -0.74800
v 0.24566 -0.04666 -0.74000
v 0.24566 -0.04100 -0.74566
v 0.24800 -0.04100 -0.74000
v 0.24566 0.04100 -0.74566
v 0.24566 -0.04666 0.74000
v 0.24800 0.04100 -0.74000
v 0.24800 -0.04100 0.74000
v 0.24566 -0.04100 0.74566
v 0.24800 0.04100 0.74000
v 0.24566 0.04100 0.74566
v 0.06005 0.04900 -0.66250
v 0.06005 0.04900 -0.58750
v 0.08750 0.04900 -0.56005
v 0.08750 0.04900 -0.43995
v 0.12500 0.04900 -0.45000
v 0.12500 0.04900 -0.55000
v 0.06005 0.04900 -0.16250
v 0.05000 0.04900 -0.12500
v 0.06005 0.04900 -0.08750
v 0.08750 0.04900 -0.18995
v 0.12500 0.04900 -0.30000
v 0.12500 0.04900 -0.20000
v 0.06005 0.04900 0.08750
v 0.08750 0.04900 -0.06005
v 0.08750 0.04900 0.06005
v 0.12500 0.04900 -0.05000
v 0.16250 0.04900 -0.68995
v 0.16250 0.04900 -0.56005
v 0.16250 0.04900 -0.43995
v 0.18995 0.04900 -0.58750
v 0.24566 0.04666 -0.74000
v 0.18995 0.04900 -0.66250
v 0.20000 0.04900 -0.62500
v 0.18995 0.04900 -0.41250
v 0.20000 0.04900 -0.37500
v 0.20000 0.04900 -0.12500
v 0.16250 0.04900 -0.18995
v 0.16250 0.04900 -0.31005
v 0.18995 0.04900 -0.33750
v 0.18995 0.04900 -0.16250
v 0.12500 0.04900 0.05000
v 0.16250 0.04900 -0.06005
v 0.16250 0.04900 0.06005
v 0.18995 0.04900 -0.08750
v 0.20000 0.04900 0.12500
v 0.18995 0.04900 0.08750
v 0.06005 0.04900 0.16250
v 0.08750 0.04900 0.18995
v 0.08750 0.04900 0.31005
v 0.12500 0.04900 0.20000
v 0.12500 0.04900 0.30000
v 0.06005 0.04900 0.58750
v 0.06005 0.04900 0.66250
v 0.08750 0.04900 0.43995
v 0.08750 0.04900 0.56005
v 0.12500 0.04900 0.45000
v 0.12500 0.04900 0.55000
v 0.24000 0.04666 0.74566
v 0.16250 0.04900 0.31005
v 0.16250 0.04900 0.18995
v 0.18995 0.04900 0.16250
v 0.18995 0.04900 0.33750
v 0.20000 0.04900 0.37500
v 0.24566 0.04666 0.74000
v 0.16250 0.04900 0.43995
v 0.16250 0.04900 0.56005
v 0.18995 0.04900 0.41250
v 0.18995 0.04900 0.58750
v 0.16250 0.04900 0.68995
v 0.20000 0.04900 0.62500
v 0.18995 0.04900 0.66250
v -0.20000 0.09900 -0.62500
v -0.20000 0.04900 -0.62500
v -0.18995 0.04900 -0.58750
v -0.18995 0.09900 -0.66250
v -0.18995 0.04900 -0.66250
v -0.18995 0.09900 -0.58750
v -0.18995 0.09900 -0.66250
v -0.20000 0.09900 -0.62500
v -0.18995 0.09900 -0.58750
v -0.16250 0.09900 -0.68995
v -0.16250 0.04900 -0.68995
v -0.16250 0.04900 -0.56005
v -0.12500 0.09900 -0.70000
v -0.12500 0.04900 -0.70000
v -0.16250 0.09900 -0.56005
v -0.12500 0.04900 -0.55000
v -0.16250 0.09900 -0.68995
v -0.16250 0.09900 -0.56005
v -0.12500 0.09900 -0.70000
v -0.12500 0.09900 -0.55000
v -0.12500 0.09900 -0.55000
v -0.08750 0.09900 -0.68995
v -0.08750 0.04900 -0.68995
v -0.06005 0.09900 -0.66250
v -0.06005 0.04900 -0.66250
v -0.08750 0.09900 -0.56005
v -0.08750 0.04900 -0.56005
v -0.06005 0.04900 -0.58750
v -0.08750 0.09900 -0.68995
v -0.08750 0.09900 -0.56005
v -0.06005 0.09900 -0.58750
v -0.06005 0.09900 -0.66250
v -0.06005 0.09900 -0.58750
v -0.05000 0.09900 -0.62500
v -0.05000 0.04900 -0.62500
v -0.05000 0.09900 -0.62500
v -0.18995 0.09900 -0.41250
v -0.18995 0.04900 -0.41250
v -0.20000 0.04900 -0.37500
v -0.20000 0.09900 -0.37500
v -0.18995 0.09900 -0.41250
v -0.20000 0.09900 -0.37500
v -0.18995 0.09900 -0.33750
v -0.16250 0.09900 -0.43995
v -0.16250 0.04900 -0.43995
v -0.12500 0.09900 -0.45000
v -0.12500 0.04900 -0.45000
v -0.16250 0.09900 -0.43995
v -0.16250 0.09900 -0.31005
v -0.12500 0.09900 -0.45000
v -0.18995 0.04900 -0.33750
v -0.18995 0.09900 -0.33750
v -0.16250 0.04900 -0.31005
v -0.16250 0.09900 -0.31005
v -0.12500 0.04900 -0.30000
v -0.12500 0.09900 -0.30000
v -0.12500 0.09900 -0.30000
v -0.08750 0.09900 -0.43995
v -0.08750 0.04900 -0.43995
v -0.06005 0.09900 -0.41250
v -0.06005 0.04900 -0.41250
v -0.08750 0.09900 -0.43995
v -0.08750 0.09900 -0.31005
v -0.06005 0.09900 -0.41250
v -0.05000 0.09900 -0.37500
v -0.05000 0.04900 -0.37500
v -0.06005 0.09900 -0.33750
v -0.05000 0.09900 -0.37500
v -0.08750 0.04900 -0.31005
v -0.08750 0.09900 -0.31005
v -0.06005 0.04900 -0.33750
v -0.06005 0.09900 -0.33750
v -0.18995 0.09900 -0.16250
v -0.18995 0.04900 -0.16250
v -0.20000 0.04900 -0.12500
v -0.20000 0.09900 -0.12500
v -0.18995 0.04900 -0.08750
v -0.18995 0.09900 -0.08750
v -0.18995 0.09900 -0.16250
v -0.20000 0.09900 -0.12500
v -0.18995 0.09900 -0.08750
v -0.12500 0.09900 -0.20000
v -0.12500 0.04900 -0.20000
v -0.16250 0.04900 -0.18995
v -0.16250 0.09900 -0.18995
v -0.16250 0.04900 -0.06005
v -0.16250 0.09900 -0.06005
v -0.12500 0.04900 -0.05000
v -0.16250 0.09900 -0.18995
v -0.16250 0.09900 -0.06005
v -0.12500 0.09900 -0.05000
v -0.12500 0.09900 -0.20000
v -0.12500 0.09900 -0.05000
v -0.08750 0.09900 -0.18995
v -0.08750 0.04900 -0.18995
v -0.08750 0.04900 -0.06005
v -0.06005 0.09900 -0.16250
v -0.06005 0.04900 -0.16250
v -0.08750 0.09900 -0.06005
v -0.06005 0.04900 -0.08750
v -0.08750 0.09900 -0.18995
v -0.08750 0.09900 -0.06005
v -0.06005 0.09900 -0.08750
v -0.06005 0.09900 -0.16250
v -0.06005 0.09900 -0.08750
v -0.05000 0.04900 -0.12500
v -0.05000 0.09900 -0.12500
v -0.05000 0.09900 -0.12500
v -0.20000 0.09900 0.12500
v -0.20000 0.04900 0.12500
v -0.18995 0.04900 0.16250
v -0.18995 0.09900 0.08750
v -0.18995 0.04900 0.08750
v -0.18995 0.09900 0.16250
v -0.20000 0.09900 0.12500
v -0.18995 0.09900 0.16250
v -0.18995 0.09900 0.08750
v -0.16250 0.09900 0.06005
v -0.16250 0.04900 0.06005
v -0.16250 0.04900 0.18995
v -0.12500 0.09900 0.05000
v -0.12500 0.04900 0.05000
v -0.16250 0.09900 0.18995
v -0.12500 0.04900 0.20000
v -0.16250 0.09900 0.06005
v -0.16250 0.09900 0.18995
v -0.12500 0.09900 0.05000
v -0.12500 0.09900 0.20000
v -0.12500 0.09900 0.20000
v -0.08750 0.09900 0.06005
v -0.08750 0.04900 0.06005
v -0.06005 0.09900 0.08750
v -0.06005 0.04900 0.08750
v -0.08750 0.09900 0.18995
v -0.08750 0.04900 0.18995
v -0.06005 0.04900 0.16250
v -0.08750 0.09900 0.06005
v -0.08750 0.09900 0.18995
v -0.06005 0.09900 0.16250
v -0.06005 0.09900 0.08750
v -0.06005 0.09900 0.16250
v -0.05000 0.09900 0.12500
v -0.05000 0.04900 0.12500
v -0.05000 0.09900 0.12500
v -0.18995 0.09900 0.33750
v -0.18995 0.04900 0.33750
v -0.20000 0.04900 0.37500
v -0.20000 0.09900 0.37500
v -0.16250 0.09900 0.31005
v -0.16250 0.04900 0.31005
v -0.12500 0.09900 0.30000
v -0.12500 0.04900 0.30000
v -0.18995 0.09900 0.33750
v -0.18995 0.09900 0.41250
v -0.16250 0.09900 0.31005
v -0.16250 0.09900 0.43995
v -0.12500 0.09900 0.30000
v -0.18995 0.04900 0.41250
v -0.18995 0.09900 0.41250
v -0.20000 0.09900 0.37500
v -0.16250 0.04900 0.43995
v -0.16250 0.09900 0.43995
v -0.12500 0.04900 0.45000
v -0.12500 0.09900 0.45000
v -0.12500 0.09900 0.45000
v -0.08750 0.09900 0.31005
v -0.08750 0.04900 0.31005
v -0.06005 0.09900 0.33750
v -0.06005 0.04900 0.33750
v -0.08750 0.09900 0.31005
v -0.08750 0.09900 0.43995
v -0.06005 0.09900 0.33750
v -0.05000 0.09900 0.37500
v -0.05000 0.04900 0.37500
v -0.08750 0.04900 0.43995
v -0.08750 0.09900 0.43995
v -0.06005 0.04900 0.41250
v -0.06005 0.09900 0.41250
v -0.06005 0.09900 0.41250
v -0.05000 0.09900 0.37500
v -0.18995 0.09900 0.58750
v -0.18995 0.04900 0.58750
v -0.20000 0.04900 0.62500
v -0.20000 0.09900 0.62500
v -0.18995 0.04900 0.66250
v -0.18995 0.09900 0.66250
v -0.18995 0.09900 0.58750
v -0.20000 0.09900 0.62500
v -0.18995 0.09900 0.66250
v -0.12500 0.09900 0.55000
v -0.12500 0.04900 0.55000
v -0.16250 0.04900 0.56005
v -0.16250 0.09900 0.56005
v -0.16250 0.04900 0.68995
v -0.16250 0.09900 0.68995
v -0.12500 0.04900 0.70000
v -0.16250 0.09900 0.56005
v -0.16250 0.09900 0.68995
v -0.12500 0.09900 0.70000
v -0.12500 0.09900 0.55000
v -0.12500 0.09900 0.70000
v -0.08750 0.09900 0.56005
v -0.08750 0.04900 0.56005
v -0.08750 0.04900 0.68995
v -0.06005 0.09900 0.58750
v -0.06005 0.04900 0.58750
v -0.08750 0.09900 0.68995
v -0.06005 0.04900 0.66250
v -0.08750 0.09900 0.56005
v -0.08750 0.09900 0.68995
v -0.06005 0.09900 0.66250
v -0.06005 0.09900 0.58750
v -0.06005 0.09900 0.66250
v -0.05000 0.04900 0.62500
v -0.05000 0.09900 0.62500
v -0.05000 0.09900 0.62500
v 0.05000 0.09900 -0.62500
v 0.05000 0.04900 -0.62500
v 0.06005 0.04900 -0.58750
v 0.06005 0.09900 -0.66250
v 0.06005 0.04900 -0.66250
v 0.06005 0.09900 -0.58750
v 0.06005 0.09900 -0.66250
v 0.05000 0.09900 -0.62500
v 0.06005 0.09900 -0.58750
v 0.08750 0.09900 -0.68995
v 0.08750 0.04900 -0.68995
v 0.08750 0.04900 -0.56005
v 0.12500 0.09900 -0.70000
v 0.12500 0.04900 -0.70000
v 0.08750 0.09900 -0.56005
v 0.12500 0.04900 -0.55000
v 0.08750 0.09900 -0.68995
v 0.08750 0.09900 -0.56005
v 0.12500 0.09900 -0.70000
v 0.12500 0.09900 -0.55000
v 0.12500 0.09900 -0.55000
v 0.16250 0.09900 -0.68995
v 0.16250 0.04900 -0.68995
v 0.18995 0.09900 -0.66250
v 0.18995 0.04900 -0.66250
v 0.16250 0.09900 -0.56005
v 0.16250 0.04900 -0.56005
v 0.18995 0.04900 -0.58750
v 0.16250 0.09900 -0.68995
v 0.16250 0.09900 -0.56005
v 0.18995 0.09900 -0.58750
v 0.18995 0.09900 -0.66250
v 0.18995 0.09900 -0.58750
v 0.20000 0.09900 -0.62500
v 0.20000 0.04900 -0.62500
v 0.20000 0.09900 -0.62500
v 0.06005 0.09900 -0.41250
v 0.06005 0.04900 -0.41250
v 0.05000 0.04900 -0.37500
v 0.05000 0.09900 -0.37500
v 0.06005 0.09900 -0.41250
v 0.05000 0.09900 -0.37500
v 0.06005 0.09900 -0.33750
v 0.08750 0.09900 -0.43995
v 0.08750 0.04900 -0.43995
v 0.12500 0.09900 -0.45000
v 0.12500 0.04900 -0.45000
v 0.08750 0.09900 -0.43995
v 0.08750 0.09900 -0.31005
v 0.12500 0.09900 -0.45000
v 0.06005 0.04900 -0.33750
v 0.06005 0.09900 -0.33750
v 0.08750 0.04900 -0.31005
v 0.08750 0.09900 -0.31005
v 0.12500 0.04900 -0.30000
v 0.12500 0.09900 -0.30000
v 0.12500 0.09900 -0.30000
v 0.16250 0.09900 -0.43995
v 0.16250 0.04900 -0.43995
v 0.18995 0.09900 -0.41250
v 0.18995 0.04900 -0.41250
v 0.16250 0.09900 -0.43995
v 0.16250 0.09900 -0.31005
v 0.18995 0.09900 -0.41250
v 0.20000 0.09900 -0.37500
v 0.20000 0.04900 -0.37500
v 0.18995 0.09900 -0.33750
v 0.20000 0.09900 -0.37500
v 0.16250 0.04900 -0.31005
v 0.16250 0.09900 -0.31005
v 0.18995 0.04900 -0.33750
v 0.18995 0.09900 -0.33750
v 0.06005 0.09900 -0.16250
v 0.06005 0.04900 -0.16250
v 0.05000 0.04900 -0.12500
v 0.05000 0.09900 -0.12500
v 0.06005 0.04900 -0.08750
v 0.06005 0.09900 -0.08750
v 0.06005 0.09900 -0.16250
v 0.05000 0.09900 -0.12500
v 0.06005 0.09900 -0.08750
v 0.12500 0.09900 -0.20000
v 0.12500 0.04900 -0.20000
v 0.08750 0.04900 -0.18995
v 0.08750 0.09900 -0.18995
v 0.08750 0.04900 -0.06005
v 0.08750 0.09900 -0.06005
v 0.12500 0.04900 -0.05000
v 0.08750 0.09900 -0.18995
v 0.08750 0.09900 -0.06005
v 0.12500 0.09900 -0.05000
v 0.12500 0.09900 -0.20000
v 0.12500 0.09900 -0.05000
v 0.16250 0.09900 -0.18995
v 0.16250 0.04900 -0.18995
v 0.16250 0.04900 -0.06005
v 0.18995 0.09900 -0.16250
v 0.18995 0.04900 -0.16250
v 0.16250 0.09900 -0.06005
v 0.18995 0.04900 -0.08750
v 0.16250 0.09900 -0.18995
v 0.16250 0.09900 -0.06005
v 0.18995 0.09900 -0.08750
v 0.18995 0.09900 -0.16250
v 0.18995 0.09900 -0.08750
v 0.20000 0.04900 -0.12500
v 0.20000 0.09900 -0.12500
v 0.20000 0.09900 -0.12500
v 0.05000 0.09900 0.12500
v 0.05000 0.04900 0.12500
v 0.06005 0.04900 0.16250
v 0.06005 0.09900 0.08750
v 0.06005 0.04900 0.08750
v 0.06005 0.09900 0.16250
v 0.05000 0.09900 0.12500
v 0.06005 0.09900 0.16250
v 0.06005 0.09900 0.08750
v 0.08750 0.09900 0.06005
v 0.08750 0.04900 0.06005
v 0.08750 0.04900 0.18995
v 0.12500 0.09900 0.05000
v 0.12500 0.04900 0.05000
v 0.08750 0.09900 0.18995
v 0.12500 0.04900 0.20000
v 0.08750 0.09900 0.06005
v 0.08750 0.09900 0.18995
v 0.12500 0.09900 0.05000
v 0.12500 0.09900 0.20000
v 0.12500 0.09900 0.20000
v 0.16250 0.09900 0.06005
v 0.16250 0.04900 0.06005
v 0.18995 0.09900 0.08750
v 0.18995 0.04900 0.08750
v 0.16250 0.09900 0.18995
v 0.16250 0.04900 0.18995
v 0.18995 0.04900 0.16250
v 0.16250 0.09900 0.06005
v 0.16250 0.09900 0.18995
v 0.18995 0.09900 0.16250
v 0.18995 0.09900 0.08750
v 0.18995 0.09900 0.16250
v 0.20000 0.09900 0.12500
v 0.20000 0.04900 0.12500
v 0.20000 0.09900 0.12500
v 0.06005 0.09900 0.33750
v 0.06005 0.04900 0.33750
v 0.05000 0.04900 0.37500
v 0.05000 0.09900 0.37500
v 0.08750 0.09900 0.31005
v 0.08750 0.04900 0.31005
v 0.12500 0.09900 0.30000
v 0.12500 0.04900 0.30000
v 0.06005 0.09900 0.33750
v 0.06005 0.09900 0.41250
v 0.08750 0.09900 0.31005
v 0.08750 0.09900 0.43995
v 0.12500 0.09900 0.30000
v 0.06005 0.04900 0.41250
v 0.06005 0.09900 0.41250
v 0.05000 0.09900 0.37500
v 0.08750 0.04900 0.43995
v 0.08750 0.09900 0.43995
v 0.12500 0.04900 0.45000
v 0.12500 0.09900 0.45000
v 0.12500 0.09900 0.45000
v 0.16250 0.09900 0.31005
v 0.16250 0.04900 0.31005
v 0.18995 0.09900 0.33750
v 0.18995 0.04900 0.33750
v 0.16250 0.09900 0.31005
v 0.16250 0.09900 0.43995
v 0.18995 0.09900 0.33750
v 0.20000 0.09900 0.37500
v 0.20000 0.04900 0.37500
v 0.16250 0.04900 0.43995
v 0.16250 0.09900 0.43995
v 0.18995 0.04900 0.41250
v 0.18995 0.09900 0.41250
v 0.18995 0.09900 0.41250
v 0.20000 0.09900 0.37500
v 0.06005 0.09900 0.58750
v 0.06005 0.04900 0.58750
v 0.05000 0.04900 0.62500
v 0.05000 0.09900 0.62500
v 0.06005 0.04900 0.66250
v 0.06005 0.09900 0.66250
v 0.06005 0.09900 0.58750
v 0.05000 0.09900 0.62500
v 0.06005 0.09900 0.66250
v 0.12500 0.09900 0.55000
v 0.12500 0.04900 0.55000
v 0.08750 0.04900 0.56005
v 0.08750 0.09900 0.56005
v 0.08750 0.04900 0.68995
v 0.08750 0.09900 0.68995
v 0.12500 0.04900 0.70000
v 0.08750 0.09900 0.56005
v 0.08750 0.09900 0.68995
v 0.12500 0.09900 0.70000
v 0.12500 0.09900 0.55000
v 0.12500 0.09900 0.70000
v 0.16250 0.09900 0.56005
v 0.16250 0.04900 0.56005
v 0.16250 0.04900 0.68995
v 0.18995 0.09900 0.58750
v 0.18995 0.04900 0.58750
v 0.16250 0.09900 0.68995
v 0.18995 0.04900 0.66250
v 0.16250 0.09900 0.56005
v 0.16250 0.09900 0.68995
v 0.18995 0.09900 0.66250
v 0.18995 0.09900 0.58750
v 0.18995 0.09900 0.66250
v 0.20000 0.04900 0.62500
v 0.20000 0.09900 0.62500
v 0.20000 0.09900 0.62500
vn -0.6887 -0.6887 -0.2265
vn -0.2265 -0.6887 -0.6887
vn -0.1877 -0.9641 -0.1877
vn -0.6887 -0.2265 -0.6887
vn -0.9641 -0.1877 -0.1877
vn -0.1877 -0.1877 -0.9641
vn -0.9641 0.1877 -0.1877
vn -0.1877 0.1877 -0.9641
vn -0.1877 -0.9641 0.1877
vn -0.9641 -0.1877 0.1877
vn -0.6887 0.2265 -0.6887
vn 0.1877 -0.9641 -0.1877
vn 0.1877 -0.1877 -0.9641
vn -0.6887 -0.6887 0.2265
vn -0.2265 -0.6887 0.6887
vn -0.6887 -0.2265 0.6887
vn -0.1877 -0.1877 0.9641
vn -0.6887 0.2265 0.6887
vn -0.9641 0.1877 0.1877
vn -0.1877 0.1877 0.9641
vn 0.1877 -0.9641 0.1877
vn 0.2265 -0.6887 0.6887
vn 0.1877 -0.1877 0.9641
vn -0.6887 0.6887 -0.2265
vn -0.2265 0.6887 -0.6887
vn -0.1877 0.9641 -0.1877
vn 0.0000 1.0000 0.0000
vn 0.0000 1.0000 0.0000
vn 0.0000 1.0000 0.0000
vn 0.0000 1.0000 0.0000
vn 0.0000 1.0000 0.0000
vn 0.0000 1.0000 0.0000
vn 0.0000 1.0000 0.0000
vn 0.0000 1.0000 0.0000
vn 0.0000 1.0000 0.0000
vn 0.0000 1.0000 0.0000
vn 0.0000 1.0000 0.0000
vn -0.6887 0.6887 0.2265
vn 0.0000 1.0000 0.0000
vn 0.0000 1.0000 0.0000
vn 0.0000 1.0000 0.0000
vn -0.1877 0.9641 0.1877
vn 0.0000 1.0000 0.0000
vn 0.0000 1.0000 0.0000
vn 0.0000 1.0000 0.0000
vn 0.0000 1.0000 0.0000
vn 0.0000 1.0000 0.0000
vn 0.0000 1.0000 0.0000
vn 0.0000 1.0000 0.0000
vn 0.0000 1.0000 0.0000
vn 0.0000 1.0000 0.0000
vn 0.0000 1.0000 0.0000
vn 0.2265 0.6887 -0.6887
vn 0.1877 0.9641 -0.1877
vn 0.0000 1.0000 0.0000
vn 0.0000 1.0000 0.0000
vn 0.0000 1.0000 0.0000
vn 0.0000 1.0000 0.0000
vn 0.0000 1.0000 0.0000
vn 0.0000 1.0000 0.0000
vn 0.0000 1.0000 0.0000
vn 0.0000 1.0000 0.0000
vn 0.0000 1.0000 0.0000
vn 0.0000 1.0000 0.0000
vn 0.0000 1.0000 0.0000
vn 0.0000 1.0000 0.0000
vn 0.0000 1.0000 0.0000
vn 0.0000 1.0000 0.0000
vn 0.0000 1.0000 0.0000
vn 0.0000 1.0000 0.0000
vn 0.0000 1.0000 0.0000
vn 0.0000 1.0000 0.0000
vn 0.0000 1.0000 0.0000
vn 0.0000 1.0000 0.0000
vn 0.0000 1.0000 0.0000
vn 0.0000 1.0000 0.0000
vn 0.0000 1.0000 0.0000
vn 0.0000 1.0000 0.0000
vn 0.0000 1.0000 0.0000
vn 0.0000 1.0000 0.0000
vn 0.0000 1.0000 0.0000
vn 0.0000 1.0000 0.0000
vn 0.0000 1.0000 0.0000
vn 0.0000 1.0000 0.0000
vn 0.0000 1.0000 0.0000
vn 0.0000 1.0000 0.0000
vn 0.0000 1.0000 0.0000
vn 0.0000 1.0000 0.0000
vn -0.2265 0.6887 0.6887
vn 0.0000 1.0000 0.0000
vn 0.0000 1.0000 0.0000
vn 0.0000 1.0000 0.0000
vn 0.0000 1.0000 0.0000
vn 0.0000 1.0000 0.0000
vn 0.0000 1.0000 0.0000
vn 0.0000 1.0000 0.0000
vn 0.0000 1.0000 0.0000
vn 0.0000 1.0000 0.0000
vn 0.0000 1.0000 0.0000
vn 0.0000 1.0000 0.0000
vn 0.0000 1.0000 0.0000
vn 0.0000 1.0000 0.0000
vn 0.0000 1.0000 0.0000
vn 0.0000 1.0000 0.0000
vn 0.0000 1.0000 0.0000
vn 0.1877 0.1877 0.9641
vn 0.0000 1.0000 0.0000
vn 0.0000 1.0000 0.0000
vn 0.1877 0.9641 0.1877
vn 0.0000 1.0000 0.0000
vn 0.0000 1.0000 0.0000
vn 0.0000 1.0000 0.0000
vn 0.0000 1.0000 0.0000
vn 0.0000 1.0000 0.0000
vn 0.0000 1.0000 0.0000
vn 0.0000 1.0000 0.0000
vn 0.0000 1.0000 0.0000
vn 0.0000 1.0000 0.0000
vn 0.0000 1.0000 0.0000
vn 0.2265 -0.6887 -0.6887
vn 0.1877 0.1877 -0.9641
vn 0.6887 -0.6887 -0.2265
vn 0.6887 -0.2265 -0.6887
vn 0.9641 -0.1877 -0.1877
vn 0.6887 0.2265 -0.6887
vn 0.6887 -0.6887 0.2265
vn 0.9641 0.1877 -0.1877
vn 0.9641 -0.1877 0.1877
vn 0.6887 -0.2265 0.6887
vn 0.9641 0.1877 0.1877
vn 0.6887 0.2265 0.6887
vn 0.0000 1.0000 0.0000
vn 0.0000 1.0000 0.0000
vn 0.0000 1.0000 0.0000
vn 0.0000 1.0000 0.0000
vn 0.0000 1.0000 0.0000
vn 0.0000 1.0000 0.0000
vn 0.0000 1.0000 0.0000
vn 0.0000 1.0000 0.0000
vn 0.0000 1.0000 0.0000
vn 0.0000 1.0000 0.0000
vn 0.0000 1.0000 0.0000
vn 0.0000 1.0000 0.0000
vn 0.0000 1.0000 0.0000
vn 0.0000 1.0000 0.0000
vn 0.0000 1.0000 0.0000
vn 0.0000 1.0000 0.0000
vn 0.0000 1.0000 0.0000
vn 0.0000 1.0000 0.0000
vn 0.0000 1.0000 0.0000
vn 0.0000 1.0000 0.0000
vn 0.6887 0.6887 -0.2265
vn 0.0000 1.0000 0.0000
vn 0.0000 1.0000 0.0000
vn 0.0000 1.0000 0.0000
vn 0.0000 1.0000 0.0000
vn 0.0000 1.0000 0.0000
vn 0.0000 1.0000 0.0000
vn 0.0000 1.0000 0.0000
vn 0.0000 1.0000 0.0000
vn 0.0000 1.0000 0.0000
vn 0.0000 1.0000 0.0000
vn 0.0000 1.0000 0.0000
vn 0.0000 1.0000 0.0000
vn 0.0000 1.0000 0.0000
vn 0.0000 1.0000 0.0000
vn 0.0000 1.0000 0.0000
vn 0.0000 1.0000 0.0000
vn 0.0000 1.0000 0.0000
vn 0.0000 1.0000 0.0000
vn 0.0000 1.0000 0.0000
vn 0.0000 1.0000 0.0000
vn 0.0000 1.0000 0.0000
vn 0.0000 1.0000 0.0000
vn 0.0000 1.0000 0.0000
vn 0.0000 1.0000 0.0000
vn 0.0000 1.0000 0.0000
vn 0.0000 1.0000 0.0000
vn 0.2265 0.6887 0.6887
vn 0.0000 1.0000 0.0000
vn 0.0000 1.0000 0.0000
vn 0.0000 1.0000 0.0000
vn 0.0000 1.0000 0.0000
vn 0.0000 1.0000 0.0000
vn 0.6887 0.6887 0.2265
vn 0.0000 1.0000 0.0000
vn 0.0000 1.0000 0.0000
vn 0.0000 1.0000 0.0000
vn 0.0000 1.0000 0.0000
vn 0.0000 1.0000 0.0000
vn 0.0000 1.0000 0.0000
vn 0.0000 1.0000 0.0000
vn -1.0000 0.0000 0.0000
vn -1.0000 0.0000 0.0000
vn -0.8660 0.0000 0.5000
vn -0.8660 0.0000 -0.5000
vn -0.8660 0.0000 -0.5000
vn -0.8660 0.0000 0.5000
vn 0.0000 1.0000 0.0000
vn 0.0000 1.0000 0.0000
vn 0.0000 1.0000 0.0000
vn -0.5000 0.0000 -0.8660
vn -0.5000 0.0000 -0.8660
vn -0.5000 0.0000 0.8660
vn 0.0000 0.0000 -1.0000
vn -0.0000 0.0000 -1.0000
vn -0.5000 0.0000 0.8660
vn 0.0000 0.0000 1.0000
vn 0.0000 1.0000 0.0000
vn 0.0000 1.0000 0.0000
vn 0.0000 1.0000 0.0000
vn 0.0000 1.0000 0.0000
vn -0.0000 0.0000 1.0000
vn 0.5000 0.0000 -0.8660
vn 0.5000 0.0000 -0.8660
vn 0.8660 0.0000 -0.5000
vn 0.8660 0.0000 -0.5000
vn 0.5000 0.0000 0.8660
vn 0.5000 0.0000 0.8660
vn 0.8660 0.0000 0.5000
vn 0.0000 1.0000 0.0000
vn 0.0000 1.0000 0.0000
vn 0.8660 0.0000 0.5000
vn 0.0000 1.0000 0.0000
vn 0.0000 1.0000 0.0000
vn 1.0000 0.0000 0.0000
vn 1.0000 0.0000 0.0000
vn 0.0000 1.0000 0.0000
vn -0.8660 0.0000 -0.5000
vn -0.8660 0.0000 -0.5000
vn -1.0000 0.0000 0.0000
vn -1.0000 0.0000 0.0000
vn 0.0000 1.0000 0.0000
vn 0.0000 1.0000 0.0000
vn 0.0000 1.0000 0.0000
vn -0.5000 0.0000 -0.8660
vn -0.5000 0.0000 -0.8660
vn 0.0000 0.0000 -1.0000
vn -0.0000 0.0000 -1.0000
vn 0.0000 1.0000 0.0000
vn 0.0000 1.0000 0.0000
vn 0.0000 1.0000 0.0000
vn -0.8660 0.0000 0.5000
vn -0.8660 0.0000 0.5000
vn -0.5000 0.0000 0.8660
vn -0.5000 0.0000 0.8660
vn 0.0000 0.0000 1.0000
vn -0.0000 0.0000 1.0000
vn 0.0000 1.0000 0.0000
vn 0.5000 0.0000 -0.8660
vn 0.5000 0.0000 -0.8660
vn 0.8660 0.0000 -0.5000
vn 0.8660 0.0000 -0.5000
vn 0.0000 1.0000 0.0000
vn 0.0000 1.0000 0.0000
vn 0.0000 1.0000 0.0000
vn 1.0000 0.0000 0.0000
vn 1.0000 0.0000 0.0000
vn 0.0000 1.0000 0.0000
vn 0.0000 1.0000 0.0000
vn 0.5000 0.0000 0.8660
vn 0.5000 0.0000 0.8660
vn 0.8660 0.0000 0.5000
vn 0.8660 0.0000 0.5000
vn -0.8660 0.0000 -0.5000
vn -0.8660 0.0000 -0.5000
vn -1.0000 0.0000 0.0000
vn -1.0000 0.0000 0.0000
vn -0.8660 0.0000 0.5000
vn -0.8660 0.0000 0.5000
vn 0.0000 1.0000 0.0000
vn 0.0000 1.0000 0.0000
vn 0.0000 1.0000 0.0000
vn 0.0000 0.0000 -1.0000
vn -0.0000 0.0000 -1.0000
vn -0.5000 0.0000 -0.8660
vn -0.5000 0.0000 -0.8660
vn -0.5000 0.0000 0.8660
vn -0.5000 0.0000 0.8660
vn 0.0000 0.0000 1.0000
vn 0.0000 1.0000 0.0000
vn 0.0000 1.0000 0.0000
vn -0.0000 0.0000 1.0000
vn 0.0000 1.0000 0.0000
vn 0.0000 1.0000 0.0000
vn 0.5000 0.0000 -0.8660
vn 0.5000 0.0000 -0.8660
vn 0.5000 0.0000 0.8660
vn 0.8660 0.0000 -0.5000
vn 0.8660 0.0000 -0.5000
vn 0.5000 0.0000 0.8660
vn 0.8660 0.0000 0.5000
vn 0.0000 1.0000 0.0000
vn 0.0000 1.0000 0.0000
vn 0.8660 0.0000 0.5000
vn 0.0000 1.0000 0.0000
vn 0.0000 1.0000 0.0000
vn 1.0000 0.0000 0.0000
vn 1.0000 0.0000 0.0000
vn 0.0000 1.0000 0.0000
vn -1.0000 0.0000 0.0000
vn -1.0000 0.0000 0.0000
vn -0.8660 0.0000 0.5000
vn -0.8660 0.0000 -0.5000
vn -0.8660 0.0000 -0.5000
vn -0.8660 0.0000 0.5000
vn 0.0000 1.0000 0.0000
vn 0.0000 1.0000 0.0000
vn 0.0000 1.0000 0.0000
vn -0.5000 0.0000 -0.8660
vn -0.5000 0.0000 -0.8660
vn -0.5000 0.0000 0.8660
vn 0.0000 0.0000 -1.0000
vn -0.0000 0.0000 -1.0000
vn -0.5000 0.0000 0.8660
vn 0.0000 0.0000 1.0000
vn 0.0000 1.0000 0.0000
vn 0.0000 1.0000 0.0000
vn 0.0000 1.0000 0.0000
vn 0.0000 1.0000 0.0000
vn -0.0000 0.0000 1.0000
vn 0.5000 0.0000 -0.8660
vn 0.5000 0.0000 -0.8660
vn 0.8660 0.0000 -0.5000
vn 0.8660 0.0000 -0.5000
vn 0.5000 0.0000 0.8660
vn 0.5000 0.0000 0.8660
vn 0.8660 0.0000 0.5000
vn 0.0000 1.0000 0.0000
vn 0.0000 1.0000 0.0000
vn 0.8660 0.0000 0.5000
vn 0.0000 1.0000 0.0000
vn 0.0000 1.0000 0.0000
vn 1.0000 0.0000 0.0000
vn 1.0000 0.0000 0.0000
vn 0.0000 1.0000 0.0000
vn -0.8660 -0.0000 -0.5000
vn -0.8660 0.0000 -0.5000
vn -1.0000 -0.0000 -0.0000
vn -1.0000 0.0000 0.0000
vn -0.5000 0.0000 -0.8660
vn -0.5000 0.0000 -0.8660
vn 0.0000 0.0000 -1.0000
vn -0.0000 0.0000 -1.0000
vn 0.0000 1.0000 0.0000
vn 0.0000 1.0000 0.0000
vn 0.0000 1.0000 0.0000
vn 0.0000 1.0000 0.0000
vn 0.0000 1.0000 0.0000
vn -0.8660 0.0000 0.5000
vn -0.8660 0.0000 0.5000
vn 0.0000 1.0000 0.0000
vn -0.5000 0.0000 0.8660
vn -0.5000 0.0000 0.8660
vn 0.0000 0.0000 1.0000
vn -0.0000 0.0000 1.0000
vn 0.0000 1.0000 0.0000
vn 0.5000 0.0000 -0.8660
vn 0.5000 0.0000 -0.8660
vn 0.8660 0.0000 -0.5000
vn 0.8660 0.0000 -0.5000
vn 0.0000 1.0000 0.0000
vn 0.0000 1.0000 0.0000
vn 0.0000 1.0000 0.0000
vn 1.0000 0.0000 -0.0000
vn 1.0000 -0.0000 0.0000
vn 0.5000 0.0000 0.8660
vn 0.5000 0.0000 0.8660
vn 0.8660 0.0000 0.5000
vn 0.8660 -0.0000 0.5000
vn 0.0000 1.0000 0.0000
vn 0.0000 1.0000 0.0000
vn -0.8660 -0.0000 -0.5000
vn -0.8660 0.0000 -0.5000
vn -1.0000 -0.0000 -0.0000
vn -1.0000 0.0000 0.0000
vn -0.8660 0.0000 0.5000
vn -0.8660 0.0000 0.5000
vn 0.0000 1.0000 0.0000
vn 0.0000 1.0000 0.0000
vn 0.0000 1.0000 0.0000
vn 0.0000 0.0000 -1.0000
vn -0.0000 0.0000 -1.0000
vn -0.5000 0.0000 -0.8660
vn -0.5000 0.0000 -0.8660
vn -0.5000 0.0000 0.8660
vn -0.5000 0.0000 0.8660
vn 0.0000 0.0000 1.0000
vn 0.0000 1.0000 0.0000
vn 0.0000 1.0000 0.0000
vn -0.0000 0.0000 1.0000
vn 0.0000 1.0000 0.0000
vn 0.0000 1.0000 0.0000
vn 0.5000 0.0000 -0.8660
vn 0.5000 0.0000 -0.8660
vn 0.5000 0.0000 0.8660
vn 0.8660 0.0000 -0.5000
vn 0.8660 0.0000 -0.5000
vn 0.5000 0.0000 0.8660
vn 0.8660 0.0000 0.5000
vn 0.0000 1.0000 0.0000
vn 0.0000 1.0000 0.0000
vn 0.8660 -0.0000 0.5000
vn 0.0000 1.0000 0.0000
vn 0.0000 1.0000 0.0000
vn 1.0000 -0.0000 0.0000
vn 1.0000 0.0000 -0.0000
vn 0.0000 1.0000 0.0000
vn -1.0000 0.0000 -0.0000
vn -1.0000 0.0000 0.0000
vn -0.8660 0.0000 0.5000
vn -0.8660 0.0000 -0.5000
vn -0.8660 0.0000 -0.5000
vn -0.8660 0.0000 0.5000
vn 0.0000 1.0000 0.0000
vn 0.0000 1.0000 0.0000
vn 0.0000 1.0000 0.0000
vn -0.5000 0.0000 -0.8660
vn -0.5000 0.0000 -0.8660
vn -0.5000 0.0000 0.8660
vn 0.0000 0.0000 -1.0000
vn -0.0000 0.0000 -1.0000
vn -0.5000 0.0000 0.8660
vn 0.0000 0.0000 1.0000
vn 0.0000 1.0000 0.0000
vn 0.0000 1.0000 0.0000
vn 0.0000 1.0000 0.0000
vn 0.0000 1.0000 0.0000
vn -0.0000 0.0000 1.0000
vn 0.5000 0.0000 -0.8660
vn 0.5000 0.0000 -0.8660
vn 0.8660 0.0000 -0.5000
vn 0.8660 0.0000 -0.5000
vn 0.5000 0.0000 0.8660
vn 0.5000 0.0000 0.8660
vn 0.8660 0.0000 0.5000
vn 0.0000 1.0000 0.0000
vn 0.0000 1.0000 0.0000
vn 0.8660 0.0000 0.5000
vn 0.0000 1.0000 0.0000
vn 0.0000 1.0000 0.0000
vn 1.0000 0.0000 0.0000
vn 1.0000 0.0000 -0.0000
vn 0.0000 1.0000 0.0000
vn -0.8660 0.0000 -0.5000
vn -0.8660 0.0000 -0.5000
vn -1.0000 0.0000 0.0000
vn -1.0000 0.0000 -0.0000
vn 0.0000 1.0000 0.0000
vn 0.0000 1.0000 0.0000
vn 0.0000 1.0000 0.0000
vn -0.5000 0.0000 -0.8660
vn -0.5000 0.0000 -0.8660
vn 0.0000 0.0000 -1.0000
vn -0.0000 0.0000 -1.0000
vn 0.0000 1.0000 0.0000
vn 0.0000 1.0000 0.0000
vn 0.0000 1.0000 0.0000
vn -0.8660 0.0000 0.5000
vn -0.8660 0.0000 0.5000
vn -0.5000 0.0000 0.8660
vn -0.5000 0.0000 0.8660
vn 0.0000 0.0000 1.0000
vn -0.0000 0.0000 1.0000
vn 0.0000 1.0000 0.0000
vn 0.5000 0.0000 -0.8660
vn 0.5000 0.0000 -0.8660
vn 0.8660 0.0000 -0.5000
vn 0.8660 0.0000 -0.5000
vn 0.0000 1.0000 0.0000
vn 0.0000 1.0000 0.0000
vn 0.0000 1.0000 0.0000
vn 1.0000 0.0000 0.0000
vn 1.0000 0.0000 -0.0000
vn 0.0000 1.0000 0.0000
vn 0.0000 1.0000 0.0000
vn 0.5000 0.0000 0.8660
vn 0.5000 0.0000 0.8660
vn 0.8660 0.0000 0.5000
vn 0.8660 0.0000 0.5000
vn -0.8660 0.0000 -0.5000
vn -0.8660 0.0000 -0.5000
vn -1.0000 0.0000 0.0000
vn -1.0000 0.0000 -0.0000
vn -0.8660 0.0000 0.5000
vn -0.8660 0.0000 0.5000
vn 0.0000 1.0000 0.0000
vn 0.0000 1.0000 0.0000
vn 0.0000 1.0000 0.0000
vn 0.0000 0.0000 -1.0000
vn -0.0000 0.0000 -1.0000
vn -0.5000 0.0000 -0.8660
vn -0.5000 0.0000 -0.8660
vn -0.5000 0.0000 0.8660
vn -0.5000 0.0000 0.8660
vn 0.0000 0.0000 1.0000
vn 0.0000 1.0000 0.0000
vn 0.0000 1.0000 0.0000
vn -0.0000 0.0000 1.0000
vn 0.0000 1.0000 0.0000
vn 0.0000 1.0000 0.0000
vn 0.5000 0.0000 -0.8660
vn 0.5000 0.0000 -0.8660
vn 0.5000 0.0000 0.8660
vn 0.8660 0.0000 -0.5000
vn 0.8660 0.0000 -0.5000
vn 0.5000 0.0000 0.8660
vn 0.8660 0.0000 0.5000
vn 0.0000 1.0000 0.0000
vn 0.0000 1.0000 0.0000
vn 0.8660 0.0000 0.5000
vn 0.0000 1.0000 0.0000
vn 0.0000 1.0000 0.0000
vn 1.0000 0.0000 -0.0000
vn 1.0000 0.0000 0.0000
vn 0.0000 1.0000 0.0000
vn -1.0000 0.0000 -0.0000
vn -1.0000 0.0000 0.0000
vn -0.8660 0.0000 0.5000
vn -0.8660 0.0000 -0.5000
vn -0.8660 0.0000 -0.5000
vn -0.8660 0.0000 0.5000
vn 0.0000 1.0000 0.0000
vn 0.0000 1.0000 0.0000
vn 0.0000 1.0000 0.0000
vn -0.5000 0.0000 -0.8660
vn -0.5000 0.0000 -0.8660
vn -0.5000 0.0000 0.8660
vn 0.0000 0.0000 -1.0000
vn -0.0000 0.0000 -1.0000
vn -0.5000 0.0000 0.8660
vn 0.0000 0.0000 1.0000
vn 0.0000 1.0000 0.0000
vn 0.0000 1.0000 0.0000
vn 0.0000 1.0000 0.0000
vn 0.0000 1.0000 0.0000
vn -0.0000 0.0000 1.0000
vn 0.5000 0.0000 -0.8660
vn 0.5000 0.0000 -0.8660
vn 0.8660 0.0000 -0.5000
vn 0.8660 0.0000 -0.5000
vn 0.5000 0.0000 0.8660
vn 0.5000 0.0000 0.8660
vn 0.8660 0.0000 0.5000
vn 0.0000 1.0000 0.0000
vn 0.0000 1.0000 0.0000
vn 0.8660 0.0000 0.5000
vn 0.0000 1.0000 0.0000
vn 0.0000 1.0000 0.0000
vn 1.0000 0.0000 0.0000
vn 1.0000 0.0000 -0.0000
vn 0.0000 1.0000 0.0000
vn -0.8660 -0.0000 -0.5000
vn -0.8660 0.0000 -0.5000
vn -1.0000 -0.0000 -0.0000
vn -1.0000 0.0000 0.0000
vn -0.5000 0.0000 -0.8660
vn -0.5000 0.0000 -0.8660
vn 0.0000 0.0000 -1.0000
vn -0.0000 0.0000 -1.0000
vn 0.0000 1.0000 0.0000
vn 0.0000 1.0000 0.0000
vn 0.0000 1.0000 0.0000
vn 0.0000 1.0000 0.0000
vn 0.0000 1.0000 0.0000
vn -0.8660 0.0000 0.5000
vn -0.8660 0.0000 0.5000
vn 0.0000 1.0000 0.0000
vn -0.5000 0.0000 0.8660
vn -0.5000 0.0000 0.8660
vn 0.0000 0.0000 1.0000
vn -0.0000 0.0000 1.0000
vn 0.0000 1.0000 0.0000
vn 0.5000 0.0000 -0.8660
vn 0.5000 0.0000 -0.8660
vn 0.8660 0.0000 -0.5000
vn 0.8660 0.0000 -0.5000
vn 0.0000 1.0000 0.0000
vn 0.0000 1.0000 0.0000
vn 0.0000 1.0000 0.0000
vn 1.0000 0.0000 -0.0000
vn 1.0000 -0.0000 0.0000
vn 0.5000 0.0000 0.8660
vn 0.5000 0.0000 0.8660
vn 0.8660 0.0000 0.5000
vn 0.8660 -0.0000 0.5000
vn 0.0000 1.0000 0.0000
vn 0.0000 1.0000 0.0000
vn -0.8660 -0.0000 -0.5000
vn -0.8660 0.0000 -0.5000
vn -1.0000 -0.0000 -0.0000
vn -1.0000 0.0000 0.0000
vn -0.8660 0.0000 0.5000
vn -0.8660 0.0000 0.5000
vn 0.0000 1.0000 0.0000
vn 0.0000 1.0000 0.0000
vn 0.0000 1.0000 0.0000
vn 0.0000 0.0000 -1.0000
vn -0.0000 0.0000 -1.0000
vn -0.5000 0.0000 -0.8660
vn -0.5000 0.0000 -0.8660
vn -0.5000 0.0000 0.8660
vn -0.5000 0.0000 0.8660
vn 0.0000 0.0000 1.0000
vn 0.0000 1.0000 0.0000
vn 0.0000 1.0000 0.0000
vn -0.0000 0.0000 1.0000
vn 0.0000 1.0000 0.0000
vn 0.0000 1.0000 0.0000
vn 0.5000 0.0000 -0.8660
vn 0.5000 0.0000 -0.8660
vn 0.5000 0.0000 0.8660
vn 0.8660 0.0000 -0.5000
vn 0.8660 0.0000 -0.5000
vn 0.5000 0.0000 0.8660
vn 0.8660 0.0000 0.5000
vn 0.0000 1.0000 0.0000
vn 0.0000 1.0000 0.0000
vn 0.8660 -0.0000 0.5000
vn 0.0000 1.0000 0.0000
vn 0.0000 1.0000 0.0000
vn 1.0000 -0.0000 0.0000
vn 1.0000 0.0000 -0.0000
vn 0.0000 1.0000 0.0000
f 1//1 2//2 3//3
f 1//1 4//4 2//2
f 1//1 5//5 4//4
f 2//2 4//4 6//6
f 5//5 7//7 4//4
f 4//4 8//8 6//6
f 1//1 3//3 9//9
f 1//1 10//10 5//5
f 5//5 10//10 7//7
f 4//4 7//7 11//11
f 4//4 11//11 8//8
f 3//3 2//2 12//12
f 2//2 6//6 13//13
f 6//6 8//8 13//13
f 1//1 9//9 14//14
f 1//1 14//14 10//10
f 14//14 9//9 15//15
f 14//14 15//15 16//16
f 14//14 16//16 10//10
f 15//15 17//17 16//16
f 10//10 16//16 18//18
f 16//16 17//17 18//18
f 10//10 19//19 7//7
f 10//10 18//18 19//19
f 17//17 20//20 18//18
f 3//3 21//21 9//9
f 9//9 22//22 15//15
f 15//15 22//22 17//17
f 17//17 23//23 20//20
f 7//7 24//24 11//11
f 11//11 25//25 8//8
f 11//11 24//24 25//25
f 24//24 26//26 25//25
f 26//26 27//27 28//28
f 26//26 28//28 29//29
f 26//26 30//30 27//27
f 31//31 27//27 30//30
f 31//31 30//30 32//32
f 26//26 29//29 33//33
f 31//31 32//32 34//34
f 34//34 32//32 35//35
f 34//34 35//35 36//36
f 34//34 36//36 37//37
f 7//7 38//38 24//24
f 24//24 38//38 26//26
f 30//30 39//39 40//40
f 40//40 39//39 41//41
f 26//26 42//42 30//30
f 39//39 43//43 44//44
f 40//40 41//41 45//45
f 45//45 41//41 46//46
f 45//45 46//46 47//47
f 47//47 46//46 48//48
f 44//44 49//49 50//50
f 50//50 51//51 52//52
f 8//8 25//25 53//53
f 25//25 26//26 54//54
f 26//26 33//33 55//55
f 37//37 36//36 56//56
f 56//56 36//36 57//57
f 56//56 57//57 58//58
f 56//56 58//58 59//59
f 33//33 60//60 61//61
f 60//60 62//62 61//61
f 62//62 63//63 64//64
f 59//59 64//64 63//63
f 59//59 58//58 65//65
f 58//58 66//66 67//67
f 47//47 48//48 68//68
f 47//47 68//68 69//69
f 69//69 68//68 70//70
f 70//70 68//68 71//71
f 52//52 72//72 73//73
f 73//73 74//74 75//75
f 70//70 67//67 66//66
f 70//70 71//71 76//76
f 77//77 71//71 78//78
f 77//77 78//78 75//75
f 77//77 75//75 79//79
f 77//77 79//79 80//80
f 77//77 80//80 81//81
f 7//7 19//19 38//38
f 42//42 39//39 30//30
f 44//44 43//43 49//49
f 26//26 38//38 42//42
f 42//42 43//43 39//39
f 43//43 82//82 83//83
f 43//43 84//84 82//82
f 50//50 49//49 51//51
f 52//52 51//51 72//72
f 83//83 82//82 85//85
f 85//85 82//82 86//86
f 85//85 86//86 87//87
f 87//87 86//86 88//88
f 19//19 18//18 38//38
f 18//18 20//20 89//89
f 42//42 84//84 43//43
f 42//42 90//90 84//84
f 42//42 91//91 90//90
f 18//18 89//89 38//38
f 38//38 89//89 42//42
f 42//42 92//92 93//93
f 42//42 93//93 91//91
f 42//42 94//94 92//92
f 42//42 95//95 94//94
f 91//91 93//93 96//96
f 91//91 96//96 97//97
f 97//97 96//96 98//98
f 42//42 99//99 95//95
f 73//73 72//72 74//74
f 75//75 74//74 79//79
f 100//100 87//87 88//88
f 100//100 101//101 87//87
f 100//100 81//81 101//101
f 100//100 77//77 81//81
f 100//100 102//102 103//103
f 102//102 104//104 105//105
f 20//20 106//106 89//89
f 98//98 96//96 107//107
f 96//96 108//108 105//105
f 89//89 109//109 42//42
f 96//96 105//105 107//107
f 108//108 110//110 111//111
f 107//107 105//105 104//104
f 108//108 112//112 105//105
f 108//108 111//111 112//112
f 110//110 113//113 111//111
f 42//42 109//109 99//99
f 114//114 115//115 113//113
f 116//116 115//115 114//114
f 99//99 117//117 118//118
f 118//118 119//119 116//116
f 2//2 120//120 12//12
f 2//2 13//13 120//120
f 3//3 12//12 21//21
f 8//8 121//121 13//13
f 12//12 120//120 122//122
f 120//120 123//123 122//122
f 120//120 13//13 123//123
f 122//122 123//123 124//124
f 13//13 125//125 123//123
f 123//123 125//125 124//124
f 12//12 122//122 126//126
f 122//122 124//124 126//126
f 124//124 127//127 128//128
f 13//13 121//121 125//125
f 124//124 125//125 127//127
f 9//9 21//21 22//22
f 17//17 22//22 23//23
f 20//20 23//23 106//106
f 12//12 126//126 21//21
f 124//124 128//128 126//126
f 21//21 126//126 22//22
f 22//22 126//126 129//129
f 22//22 129//129 23//23
f 126//126 128//128 129//129
f 23//23 129//129 106//106
f 129//129 128//128 130//130
f 128//128 127//127 130//130
f 129//129 131//131 106//106
f 129//129 130//130 131//131
f 33//33 61//61 55//55
f 62//62 132//132 61//61
f 62//62 64//64 132//132
f 59//59 133//133 64//64
f 26//26 55//55 54//54
f 59//59 65//65 133//133
f 58//58 67//67 65//65
f 8//8 53//53 121//121
f 25//25 54//54 53//53
f 133//133 65//65 134//134
f 134//134 65//65 135//135
f 134//134 135//135 136//136
f 134//134 136//136 137//137
f 70//70 76//76 67//67
f 71//71 77//77 76//76
f 77//77 100//100 138//138
f 139//139 103//103 140//140
f 77//77 138//138 141//141
f 77//77 141//141 142//142
f 142//142 141//141 143//143
f 140//140 144//144 145//145
f 145//145 146//146 147//147
f 54//54 55//55 148//148
f 137//137 136//136 149//149
f 150//150 149//149 136//136
f 150//150 151//151 149//149
f 121//121 53//53 125//125
f 125//125 152//152 127//127
f 54//54 148//148 153//153
f 54//54 153//153 154//154
f 54//54 151//151 150//150
f 54//54 154//154 151//151
f 125//125 53//53 152//152
f 53//53 54//54 152//152
f 54//54 150//150 155//155
f 54//54 155//155 156//156
f 54//54 156//156 157//157
f 142//142 143//143 158//158
f 142//142 158//158 159//159
f 159//159 158//158 160//160
f 160//160 158//158 161//161
f 147//147 162//162 163//163
f 163//163 164//164 165//165
f 127//127 152//152 130//130
f 160//160 161//161 156//156
f 156//156 161//161 157//157
f 54//54 157//157 166//166
f 54//54 109//109 152//152
f 165//165 167//167 157//157
f 100//100 139//139 138//138
f 100//100 103//103 139//139
f 140//140 103//103 144//144
f 102//102 105//105 103//103
f 103//103 105//105 168//168
f 145//145 144//144 146//146
f 147//147 146//146 162//162
f 168//168 105//105 169//169
f 169//169 105//105 170//170
f 169//169 170//170 171//171
f 171//171 170//170 172//172
f 113//113 173//173 111//111
f 113//113 115//115 173//173
f 116//116 174//174 115//115
f 116//116 119//119 174//174
f 118//118 117//117 119//119
f 111//111 173//173 175//175
f 175//175 173//173 176//176
f 175//175 176//176 177//177
f 177//177 176//176 178//178
f 89//89 106//106 179//179
f 89//89 179//179 109//109
f 109//109 117//117 99//99
f 163//163 162//162 164//164
f 165//165 164//164 167//167
f 171//171 172//172 180//180
f 171//171 180//180 181//181
f 181//181 180//180 182//182
f 182//182 180//180 183//183
f 157//157 167//167 166//166
f 54//54 166//166 109//109
f 166//166 182//182 183//183
f 166//166 183//183 184//184
f 152//152 185//185 130//130
f 152//152 109//109 185//185
f 177//177 178//178 186//186
f 186//186 178//178 187//187
f 186//186 187//187 188//188
f 188//188 187//187 189//189
f 109//109 190//190 117//117
f 106//106 131//131 179//179
f 131//131 130//130 185//185
f 188//188 189//189 184//184
f 109//109 166//166 184//184
f 184//184 189//189 191//191
f 109//109 184//184 191//191
f 109//109 192//192 190//190
f 109//109 191//191 192//192
f 131//131 185//185 179//179
f 179//179 185//185 109//109
f 193//193 194//194 195//195
f 196//196 197//197 194//194
f 196//196 194//194 193//193
f 193//193 195//195 198//198
f 199//199 200//200 201//201
f 202//202 203//203 197//197
f 198//198 195//195 204//204
f 205//205 206//206 203//203
f 207//207 204//204 208//208
f 196//196 202//202 197//197
f 198//198 204//204 207//207
f 199//199 201//201 209//209
f 201//201 210//210 209//209
f 202//202 205//205 203//203
f 209//209 210//210 211//211
f 210//210 212//212 211//211
f 207//207 208//208 213//213
f 214//214 215//215 206//206
f 216//216 217//217 215//215
f 218//218 219//219 220//220
f 213//213 208//208 219//219
f 205//205 214//214 206//206
f 211//211 212//212 221//221
f 212//212 222//222 221//221
f 214//214 216//216 215//215
f 218//218 220//220 223//223
f 221//221 222//222 224//224
f 222//222 225//225 224//224
f 213//213 219//219 218//218
f 226//226 227//227 217//217
f 223//223 220//220 227//227
f 216//216 226//226 217//217
f 223//223 227//227 226//226
f 224//224 225//225 228//228
f 229//229 230//230 231//231
f 229//229 231//231 232//232
f 233//233 234//234 235//235
f 236//236 237//237 230//230
f 238//238 239//239 237//237
f 229//229 236//236 230//230
f 233//233 235//235 240//240
f 236//236 238//238 237//237
f 240//240 241//241 242//242
f 232//232 231//231 243//243
f 232//232 243//243 244//244
f 244//244 243//243 245//245
f 246//246 245//245 247//247
f 244//244 245//245 246//246
f 240//240 235//235 241//241
f 246//246 247//247 248//248
f 242//242 241//241 249//249
f 250//250 251//251 239//239
f 252//252 253//253 251//251
f 238//238 250//250 239//239
f 242//242 249//249 254//254
f 250//250 252//252 251//251
f 254//254 255//255 256//256
f 257//257 258//258 253//253
f 252//252 257//257 253//253
f 256//256 259//259 260//260
f 248//248 247//247 261//261
f 262//262 261//261 263//263
f 248//248 261//261 262//262
f 249//249 255//255 254//254
f 262//262 263//263 264//264
f 256//256 255//255 259//259
f 264//264 263//263 258//258
f 257//257 264//264 258//258
f 265//265 266//266 267//267
f 268//268 267//267 269//269
f 265//265 267//267 268//268
f 268//268 269//269 270//270
f 271//271 272//272 273//273
f 274//274 275//275 276//276
f 277//277 276//276 266//266
f 270//270 269//269 278//278
f 279//279 278//278 280//280
f 277//277 274//274 276//276
f 277//277 266//266 265//265
f 270//270 278//278 279//279
f 281//281 271//271 273//273
f 281//281 273//273 282//282
f 279//279 280//280 283//283
f 281//281 282//282 284//284
f 282//282 285//285 284//284
f 286//286 287//287 275//275
f 283//283 280//280 288//288
f 289//289 290//290 287//287
f 291//291 288//288 292//292
f 274//274 286//286 275//275
f 283//283 288//288 291//291
f 284//284 285//285 293//293
f 285//285 294//294 293//293
f 286//286 289//289 287//287
f 291//291 292//292 295//295
f 293//293 294//294 296//296
f 294//294 297//297 296//296
f 295//295 292//292 298//298
f 299//299 298//298 290//290
f 289//289 299//299 290//290
f 295//295 298//298 299//299
f 296//296 297//297 300//300
f 301//301 302//302 303//303
f 304//304 305//305 302//302
f 301//301 304//304 302//302
f 301//301 303//303 306//306
f 307//307 308//308 309//309
f 310//310 311//311 305//305
f 306//306 303//303 312//312
f 313//313 314//314 311//311
f 315//315 312//312 316//316
f 304//304 310//310 305//305
f 306//306 312//312 315//315
f 309//309 308//308 317//317
f 308//308 318//318 317//317
f 310//310 313//313 311//311
f 317//317 318//318 319//319
f 318//318 320//320 319//319
f 315//315 316//316 321//321
f 322//322 323//323 314//314
f 324//324 325//325 323//323
f 326//326 327//327 328//328
f 321//321 316//316 327//327
f 313//313 322//322 314//314
f 319//319 320//320 329//329
f 320//320 330//330 329//329
f 322//322 324//324 323//323
f 331//331 326//326 328//328
f 329//329 330//330 332//332
f 332//332 330//330 333//333
f 321//321 327//327 326//326
f 334//334 335//335 325//325
f 331//331 328//328 335//335
f 324//324 334//334 325//325
f 331//331 335//335 334//334
f 332//332 333//333 336//336
f 337//337 338//338 339//339
f 337//337 339//339 340//340
f 341//341 342//342 338//338
f 343//343 344//344 342//342
f 337//337 341//341 338//338
f 345//345 346//346 347//347
f 341//341 343//343 342//342
f 347//347 348//348 349//349
f 340//340 339//339 350//350
f 340//340 350//350 351//351
f 345//345 352//352 346//346
f 351//351 350//350 353//353
f 354//354 353//353 355//355
f 351//351 353//353 354//354
f 347//347 346//346 348//348
f 354//354 355//355 356//356
f 349//349 348//348 357//357
f 358//358 359//359 344//344
f 360//360 361//361 359//359
f 343//343 358//358 344//344
f 349//349 357//357 362//362
f 358//358 360//360 359//359
f 362//362 363//363 364//364
f 365//365 366//366 361//361
f 360//360 365//365 361//361
f 356//356 355//355 367//367
f 368//368 367//367 369//369
f 356//356 367//367 368//368
f 357//357 363//363 362//362
f 368//368 369//369 370//370
f 364//364 363//363 371//371
f 370//370 369//369 366//366
f 370//370 366//366 365//365
f 364//364 371//371 372//372
f 373//373 374//374 375//375
f 376//376 375//375 377//377
f 373//373 375//375 376//376
f 376//376 377//377 378//378
f 379//379 380//380 381//381
f 382//382 383//383 384//384
f 385//385 384//384 374//374
f 378//378 377//377 386//386
f 387//387 386//386 388//388
f 385//385 382//382 384//384
f 373//373 385//385 374//374
f 378//378 386//386 387//387
f 379//379 381//381 389//389
f 381//381 390//390 389//389
f 387//387 388//388 391//391
f 389//389 390//390 392//392
f 390//390 393//393 392//392
f 394//394 395//395 383//383
f 391//391 388//388 396//396
f 397//397 398//398 395//395
f 399//399 396//396 400//400
f 382//382 394//394 383//383
f 391//391 396//396 399//399
f 392//392 393//393 401//401
f 393//393 402//402 401//401
f 394//394 397//397 395//395
f 399//399 400//400 403//403
f 401//401 402//402 404//404
f 402//402 405//405 404//404
f 403//403 400//400 406//406
f 407//407 406//406 398//398
f 397//397 407//407 398//398
f 403//403 406//406 407//407
f 404//404 405//405 408//408
f 409//409 410//410 411//411
f 412//412 413//413 410//410
f 412//412 410//410 409//409
f 409//409 411//411 414//414
f 415//415 416//416 417//417
f 418//418 419//419 413//413
f 414//414 411//411 420//420
f 421//421 422//422 419//419
f 423//423 420//420 424//424
f 412//412 418//418 413//413
f 414//414 420//420 423//423
f 415//415 417//417 425//425
f 417//417 426//426 425//425
f 418//418 421//421 419//419
f 425//425 426//426 427//427
f 426//426 428//428 427//427
f 423//423 424//424 429//429
f 430//430 431//431 422//422
f 432//432 433//433 431//431
f 434//434 435//435 436//436
f 429//429 424//424 435//435
f 421//421 430//430 422//422
f 427//427 428//428 437//437
f 428//428 438//438 437//437
f 430//430 432//432 431//431
f 434//434 436//436 439//439
f 437//437 438//438 440//440
f 438//438 441//441 440//440
f 429//429 435//435 434//434
f 442//442 443//443 433//433
f 439//439 436//436 443//443
f 432//432 442//442 433//433
f 442//442 439//439 443//443
f 440//440 441//441 444//444
f 445//445 446//446 447//447
f 445//445 447//447 448//448
f 449//449 450//450 451//451
f 452//452 453//453 446//446
f 454//454 455//455 453//453
f 445//445 452//452 446//446
f 449//449 451//451 456//456
f 452//452 454//454 453//453
f 456//456 457//457 458//458
f 448//448 447//447 459//459
f 448//448 459//459 460//460
f 460//460 459//459 461//461
f 462//462 461//461 463//463
f 460//460 461//461 462//462
f 456//456 451//451 457//457
f 462//462 463//463 464//464
f 457//457 465//465 458//458
f 466//466 467//467 455//455
f 468//468 469//469 467//467
f 454//454 466//466 455//455
f 458//458 465//465 470//470
f 466//466 468//468 467//467
f 470//470 471//471 472//472
f 473//473 474//474 469//469
f 468//468 473//473 469//469
f 472//472 475//475 476//476
f 464//464 463//463 477//477
f 478//478 477//477 479//479
f 464//464 477//477 478//478
f 470//470 465//465 471//471
f 478//478 479//479 480//480
f 472//472 471//471 475//475
f 480//480 479//479 474//474
f 473//473 480//480 474//474
f 481//481 482//482 483//483
f 484//484 483//483 485//485
f 481//481 483//483 484//484
f 484//484 485//485 486//486
f 487//487 488//488 489//489
f 490//490 491//491 492//492
f 493//493 492//492 482//482
f 486//486 485//485 494//494
f 495//495 494//494 496//496
f 493//493 490//490 492//492
f 493//493 482//482 481//481
f 486//486 494//494 495//495
f 497//497 487//487 489//489
f 497//497 489//489 498//498
f 495//495 496//496 499//499
f 497//497 498//498 500//500
f 498//498 501//501 500//500
f 502//502 503//503 491//491
f 499//499 496//496 504//504
f 505//505 506//506 503//503
f 507//507 504//504 508//508
f 490//490 502//502 491//491
f 499//499 504//504 507//507
f 500//500 501//501 509//509
f 501//501 510//510 509//509
f 502//502 505//505 503//503
f 507//507 508//508 511//511
f 509//509 510//510 512//512
f 510//510 513//513 512//512
f 511//511 508//508 514//514
f 515//515 514//514 506//506
f 505//505 515//515 506//506
f 515//515 511//511 514//514
f 512//512 513//513 516//516
f 517//517 518//518 519//519
f 520//520 521//521 518//518
f 517//517 520//520 518//518
f 517//517 519//519 522//522
f 523//523 524//524 525//525
f 526//526 527//527 521//521
f 522//522 519//519 528//528
f 529//529 530//530 527//527
f 531//531 528//528 532//532
f 520//520 526//526 521//521
f 522//522 528//528 531//531
f 525//525 524//524 533//533
f 524//524 534//534 533//533
f 526//526 529//529 527//527
f 533//533 534//534 535//535
f 534//534 536//536 535//535
f 531//531 532//532 537//537
f 538//538 539//539 530//530
f 540//540 541//541 539//539
f 542//542 543//543 544//544
f 537//537 532//532 543//543
f 529//529 538//538 530//530
f 535//535 536//536 545//545
f 536//536 546//546 545//545
f 538//538 540//540 539//539
f 547//547 542//542 544//544
f 545//545 546//546 548//548
f 548//548 546//546 549//549
f 537//537 543//543 542//542
f 550//550 551//551 541//541
f 547//547 544//544 551//551
f 540//540 550//550 541//541
f 550//550 547//547 551//551
f 548//548 549//549 552//552
f 553//553 554//554 555//555
f 553//553 555//555 556//556
f 557//557 558//558 554//554
f 559//559 560//560 558//558
f 553//553 557//557 554//554
f 561//561 562//562 563//563
f 557//557 559//559 558//558
f 563//563 564//564 565//565
f 556//556 555//555 566//566
f 556//556 566//566 567//567
f 561//561 568//568 562//562
f 567//567 566//566 569//569
f 570//570 569//569 571//571
f 567//567 569//569 570//570
f 563//563 562//562 564//564
f 570//570 571//571 572//572
f 564//564 573//573 565//565
f 574//574 575//575 560//560
f 576//576 577//577 575//575
f 559//559 574//574 560//560
f 565//565 573//573 578//578
f 574//574 576//576 575//575
f 578//578 579//579 580//580
f 581//581 582//582 577//577
f 576//576 581//581 577//577
f 572//572 571//571 583//583
f 584//584 583//583 585//585
f 572//572 583//583 584//584
f 578//578 573//573 579//579
f 584//584 585//585 586//586
f 580//580 579//579 587//587
f 586//586 585//585 582//582
f 581//581 586//586 582//582
f 580//580 587//587 588//588
f 589//589 590//590 591//591
f 592//592 591//591 593//593
f 589//589 591//591 592//592
f 592//592 593//593 594//594
f 595//595 596//596 597//597
f 598//598 599//599 600//600
f 601//601 600//600 590//590
f 594//594 593//593 602//602
f 603//603 602//602 604//604
f 601//601 598//598 600//600
f 589//589 601//601 590//590
f 594//594 602//602 603//603
f 595//595 597//597 605//605
f 597//597 606//606 605//605
f 603//603 604//604 607//607
f 605//605 606//606 608//608
f 606//606 609//609 608//608
f 610//610 611//611 599//599
f 607//607 604//604 612//612
f 613//613 614//614 611//611
f 615//615 612//612 616//616
f 598//598 610//610 599//599
f 607//607 612//612 615//615
f 608//608 609//609 617//617
f 609//609 618//618 617//617
f 610//610 613//613 611//611
f 615//615 616//616 619//619
f 617//617 618//618 620//620
f 618//618 621//621 620//620
f 619//619 616//616 622//622
f 623//623 622//622 614//614
f 613//613 623//623 614//614
f 623//623 619//619 622//622
f 620//620 621//621 624//624
