v -0.12066 -0.04666 -0.49000
v -0.11500 -0.04666 -0.49566
v -0.11500 -0.04900 -0.49000
v -0.12066 -0.04100 -0.49566
v -0.12300 -0.04100 -0.49000
v -0.11500 -0.04100 -0.49800
v -0.12300 0.04100 -0.49000
v -0.11500 0.04100 -0.49800
v -0.11500 -0.04900 0.49000
v -0.12300 -0.04100 0.49000
v -0.12066 0.04100 -0.49566
v 0.11500 -0.04900 -0.49000
v 0.11500 -0.04100 -0.49800
v -0.12066 -0.04666 0.49000
v -0.11500 -0.04666 0.49566
v -0.12066 -0.04100 0.49566
v -0.11500 -0.04100 0.49800
v -0.12066 0.04100 0.49566
v -0.12300 0.04100 0.49000
v -0.11500 0.04100 0.49800
v 0.11500 -0.04900 0.49000
v 0.11500 -0.04666 0.49566
v 0.11500 -0.04100 0.49800
v -0.12066 0.04666 -0.49000
v -0.11500 0.04666 -0.49566
v -0.11500 0.04900 -0.49000
v -0.07500 0.04900 -0.37500
v -0.06495 0.04900 -0.41250
v -0.03750 0.04900 -0.43995
v -0.07500 0.04900 -0.12500
v -0.06495 0.04900 -0.33750
v -0.12066 0.04666 0.49000
v -0.11500 0.04900 0.49000
v -0.06495 0.04900 -0.16250
v -0.07500 0.04900 0.12500
v -0.06495 0.04900 -0.08750
v 0.11500 0.04100 -0.49800
v 0.00000 0.04900 -0.45000
v 0.11500 0.04900 -0.49000
v -0.03750 0.04900 -0.31005
v 0.00000 0.04900 -0.20000
v 0.00000 0.04900 -0.30000
v -0.03750 0.04900 -0.18995
v -0.06495 0.04900 0.08750
v -0.03750 0.04900 -0.06005
v 0.00000 0.04900 0.05000
v 0.00000 0.04900 -0.05000
v -0.11500 0.04666 0.49566
v -0.06495 0.04900 0.16250
v -0.07500 0.04900 0.37500
v -0.06495 0.04900 0.33750
v -0.06495 0.04900 0.41250
v -0.03750 0.04900 0.43995
v -0.03750 0.04900 0.06005
v -0.03750 0.04900 0.31005
v -0.03750 0.04900 0.18995
v 0.00000 0.04900 0.20000
v 0.11500 0.04100 0.49800
v 0.00000 0.04900 0.45000
v 0.11500 0.04900 0.49000
v 0.00000 0.04900 0.30000
v 0.11500 -0.04666 -0.49566
v 0.12066 -0.04666 -0.49000
v 0.12066 -0.04100 -0.49566
v 0.12300 -0.04100 -0.49000
v 0.12066 0.04100 -0.49566
v 0.12066 -0.04666 0.49000
v 0.12300 0.04100 -0.49000
v 0.12300 -0.04100 0.49000
v 0.12066 -0.04100 0.49566
v 0.12300 0.04100 0.49000
v 0.12066 0.04100 0.49566
v 0.03750 0.04900 -0.31005
v 0.11500 0.04666 -0.49566
v 0.03750 0.04900 -0.43995
v 0.06495 0.04900 -0.16250
v 0.06495 0.04900 -0.33750
v 0.03750 0.04900 -0.18995
v 0.03750 0.04900 0.06005
v 0.03750 0.04900 -0.06005
v 0.06495 0.04900 -0.08750
v 0.06495 0.04900 -0.41250
v 0.07500 0.04900 -0.37500
v 0.07500 0.04900 -0.12500
v 0.12066 0.04666 -0.49000
v 0.07500 0.04900 0.12500
v 0.06495 0.04900 0.08750
v 0.03750 0.04900 0.18995
v 0.06495 0.04900 0.16250
v 0.03750 0.04900 0.31005
v 0.06495 0.04900 0.33750
v 0.11500 0.04666 0.49566
v 0.03750 0.04900 0.43995
v 0.12066 0.04666 0.49000
v 0.07500 0.04900 0.37500
v 0.06495 0.04900 0.41250
v -0.06495 0.09900 -0.41250
v -0.06495 0.04900 -0.41250
v -0.07500 0.04900 -0.37500
v -0.07500 0.09900 -0.37500
v -0.06495 0.04900 -0.33750
v -0.07500 0.09900 -0.37500
v -0.06495 0.09900 -0.33750
v -0.06495 0.09900 -0.41250
v -0.06495 0.09900 -0.33750
v -0.03750 0.09900 -0.43995
v -0.03750 0.04900 -0.43995
v -0.03750 0.04900 -0.31005
v -0.03750 0.09900 -0.43995
v -0.03750 0.09900 -0.31005
v -0.03750 0.09900 -0.31005
v 0.00000 0.09900 -0.45000
v 0.00000 0.04900 -0.45000
v 0.00000 0.04900 -0.30000
v 0.00000 0.09900 -0.45000
v 0.00000 0.09900 -0.30000
v 0.00000 0.09900 -0.30000
v 0.03750 0.09900 -0.43995
v 0.03750 0.04900 -0.43995
v 0.03750 0.04900 -0.31005
v 0.03750 0.09900 -0.43995
v 0.03750 0.09900 -0.31005
v 0.03750 0.09900 -0.31005
v 0.06495 0.09900 -0.41250
v 0.06495 0.04900 -0.41250
v 0.06495 0.04900 -0.33750
v 0.06495 0.09900 -0.41250
v 0.06495 0.09900 -0.33750
v 0.06495 0.09900 -0.33750
v 0.07500 0.09900 -0.37500
v 0.07500 0.04900 -0.37500
v 0.07500 0.09900 -0.37500
v -0.06495 0.09900 -0.16250
v -0.06495 0.04900 -0.16250
v -0.07500 0.04900 -0.12500
v -0.07500 0.09900 -0.12500
v -0.06495 0.04900 -0.08750
v -0.07500 0.09900 -0.12500
v -0.06495 0.09900 -0.08750
v -0.06495 0.09900 -0.16250
v -0.06495 0.09900 -0.08750
v -0.03750 0.09900 -0.18995
v -0.03750 0.04900 -0.18995
v -0.03750 0.04900 -0.06005
v -0.03750 0.09900 -0.18995
v -0.03750 0.09900 -0.06005
v -0.03750 0.09900 -0.06005
v 0.00000 0.09900 -0.20000
v 0.00000 0.04900 -0.20000
v 0.00000 0.04900 -0.05000
v 0.00000 0.09900 -0.20000
v 0.00000 0.09900 -0.05000
v 0.00000 0.09900 -0.05000
v 0.03750 0.09900 -0.18995
v 0.03750 0.04900 -0.18995
v 0.03750 0.04900 -0.06005
v 0.03750 0.09900 -0.18995
v 0.03750 0.09900 -0.06005
v 0.03750 0.09900 -0.06005
v 0.06495 0.09900 -0.16250
v 0.06495 0.04900 -0.16250
v 0.06495 0.04900 -0.08750
v 0.06495 0.09900 -0.16250
v 0.06495 0.09900 -0.08750
v 0.06495 0.09900 -0.08750
v 0.07500 0.09900 -0.12500
v 0.07500 0.04900 -0.12500
v 0.07500 0.09900 -0.12500
v -0.06495 0.09900 0.08750
v -0.06495 0.04900 0.08750
v -0.07500 0.04900 0.12500
v -0.07500 0.09900 0.12500
v -0.06495 0.04900 0.16250
v -0.06495 0.09900 0.16250
v -0.06495 0.09900 0.08750
v -0.07500 0.09900 0.12500
v -0.06495 0.09900 0.16250
v -0.03750 0.09900 0.06005
v -0.03750 0.04900 0.06005
v -0.03750 0.04900 0.18995
v -0.03750 0.09900 0.06005
v -0.03750 0.09900 0.18995
v -0.03750 0.09900 0.18995
v 0.00000 0.09900 0.05000
v 0.00000 0.04900 0.05000
v 0.00000 0.04900 0.20000
v 0.00000 0.09900 0.05000
v 0.00000 0.09900 0.20000
v 0.00000 0.09900 0.20000
v 0.03750 0.09900 0.06005
v 0.03750 0.04900 0.06005
v 0.03750 0.04900 0.18995
v 0.03750 0.09900 0.06005
v 0.03750 0.09900 0.18995
v 0.03750 0.09900 0.18995
v 0.06495 0.09900 0.08750
v 0.06495 0.04900 0.08750
v 0.06495 0.04900 0.16250
v 0.06495 0.09900 0.08750
v 0.06495 0.09900 0.16250
v 0.06495 0.09900 0.16250
v 0.07500 0.09900 0.12500
v 0.07500 0.04900 0.12500
v 0.07500 0.09900 0.12500
v -0.06495 0.09900 0.33750
v -0.06495 0.04900 0.33750
v -0.07500 0.04900 0.37500
v -0.07500 0.09900 0.37500
v -0.06495 0.04900 0.41250
v -0.06495 0.09900 0.41250
v -0.07500 0.09900 0.37500
v -0.06495 0.09900 0.41250
v -0.06495 0.09900 0.33750
v -0.03750 0.09900 0.31005
v -0.03750 0.04900 0.31005
v -0.03750 0.04900 0.43995
v -0.03750 0.09900 0.31005
v -0.03750 0.09900 0.43995
v -0.03750 0.09900 0.43995
v 0.00000 0.09900 0.30000
v 0.00000 0.04900 0.30000
v 0.00000 0.04900 0.45000
v 0.00000 0.09900 0.30000
v 0.00000 0.09900 0.45000
v 0.00000 0.09900 0.45000
v 0.03750 0.09900 0.31005
v 0.03750 0.04900 0.31005
v 0.03750 0.04900 0.43995
v 0.03750 0.09900 0.31005
v 0.03750 0.09900 0.43995
v 0.03750 0.09900 0.43995
v 0.06495 0.09900 0.33750
v 0.06495 0.04900 0.33750
v 0.06495 0.04900 0.41250
v 0.06495 0.09900 0.33750
v 0.06495 0.09900 0.41250
v 0.06495 0.09900 0.41250
v 0.07500 0.09900 0.37500
v 0.07500 0.04900 0.37500
v 0.07500 0.09900 0.37500
vn -0.6887 -0.6887 -0.2265
vn -0.2265 -0.6887 -0.6887
vn -0.1877 -0.9641 -0.1877
vn -0.6887 -0.2265 -0.6887
vn -0.9641 -0.1877 -0.1877
vn -0.1877 -0.1877 -0.9641
vn -0.9641 0.1877 -0.1877
vn -0.1877 0.1877 -0.9641
vn -0.1877 -0.9641 0.1877
vn -0.9641 -0.1877 0.1877
vn -0.6887 0.2265 -0.6887
vn 0.1877 -0.9641 -0.1877
vn 0.1877 -0.1877 -0.9641
vn -0.6887 -0.6887 0.2265
vn -0.2265 -0.6887 0.6887
vn -0.6887 -0.2265 0.6887
vn -0.1877 -0.1877 0.9641
vn -0.6887 0.2265 0.6887
vn -0.9641 0.1877 0.1877
vn -0.1877 0.1877 0.9641
vn 0.1877 -0.9641 0.1877
vn 0.2265 -0.6887 0.6887
vn 0.1877 -0.1877 0.9641
vn -0.6887 0.6887 -0.2265
vn -0.2265 0.6887 -0.6887
vn -0.1877 0.9641 -0.1877
vn 0.0000 1.0000 0.0000
vn 0.0000 1.0000 0.0000
vn 0.0000 1.0000 0.0000
vn 0.0000 1.0000 0.0000
vn 0.0000 1.0000 0.0000
vn -0.6887 0.6887 0.2265
vn -0.1877 0.9641 0.1877
vn 0.0000 1.0000 0.0000
vn 0.0000 1.0000 0.0000
vn 0.0000 1.0000 0.0000
vn 0.1877 0.1877 -0.9641
vn 0.0000 1.0000 0.0000
vn 0.1877 0.9641 -0.1877
vn 0.0000 1.0000 0.0000
vn 0.0000 1.0000 0.0000
vn 0.0000 1.0000 0.0000
vn 0.0000 1.0000 0.0000
vn 0.0000 1.0000 0.0000
vn 0.0000 1.0000 0.0000
vn 0.0000 1.0000 0.0000
vn 0.0000 1.0000 0.0000
vn -0.2265 0.6887 0.6887
vn 0.0000 1.0000 0.0000
vn 0.0000 1.0000 0.0000
vn 0.0000 1.0000 0.0000
vn 0.0000 1.0000 0.0000
vn 0.0000 1.0000 0.0000
vn 0.0000 1.0000 0.0000
vn 0.0000 1.0000 0.0000
vn 0.0000 1.0000 0.0000
vn 0.0000 1.0000 0.0000
vn 0.1877 0.1877 0.9641
vn 0.0000 1.0000 0.0000
vn 0.1877 0.9641 0.1877
vn 0.0000 1.0000 0.0000
vn 0.2265 -0.6887 -0.6887
vn 0.6887 -0.6887 -0.2265
vn 0.6887 -0.2265 -0.6887
vn 0.9641 -0.1877 -0.1877
vn 0.6887 0.2265 -0.6887
vn 0.6887 -0.6887 0.2265
vn 0.9641 0.1877 -0.1877
vn 0.9641 -0.1877 0.1877
vn 0.6887 -0.2265 0.6887
vn 0.9641 0.1877 0.1877
vn 0.6887 0.2265 0.6887
vn 0.0000 1.0000 0.0000
vn 0.2265 0.6887 -0.6887
vn 0.0000 1.0000 0.0000
vn 0.0000 1.0000 0.0000
vn 0.0000 1.0000 0.0000
vn 0.0000 1.0000 0.0000
vn 0.0000 1.0000 0.0000
vn 0.0000 1.0000 0.0000
vn 0.0000 1.0000 0.0000
vn 0.0000 1.0000 0.0000
vn 0.0000 1.0000 0.0000
vn 0.0000 1.0000 0.0000
vn 0.6887 0.6887 -0.2265
vn 0.0000 1.0000 0.0000
vn 0.0000 1.0000 0.0000
vn 0.0000 1.0000 0.0000
vn 0.0000 1.0000 0.0000
vn 0.0000 1.0000 0.0000
vn 0.0000 1.0000 0.0000
vn 0.2265 0.6887 0.6887
vn 0.0000 1.0000 0.0000
vn 0.6887 0.6887 0.2265
vn 0.0000 1.0000 0.0000
vn 0.0000 1.0000 0.0000
vn -0.8660 0.0000 -0.5000
vn -0.8660 0.0000 -0.5000
vn -1.0000 0.0000 -0.0000
vn -1.0000 0.0000 0.0000
vn -0.8660 0.0000 0.5000
vn 0.0000 1.0000 0.0000
vn 0.0000 1.0000 0.0000
vn 0.0000 1.0000 0.0000
vn -0.8660 0.0000 0.5000
vn -0.5000 0.0000 -0.8660
vn -0.5000 0.0000 -0.8660
vn -0.5000 0.0000 0.8660
vn 0.0000 1.0000 0.0000
vn -0.5000 0.0000 0.8660
vn 0.0000 1.0000 0.0000
vn 0.0000 0.0000 -1.0000
vn 0.0000 0.0000 -1.0000
vn 0.0000 0.0000 1.0000
vn 0.0000 1.0000 0.0000
vn 0.0000 0.0000 1.0000
vn 0.0000 1.0000 0.0000
vn 0.5000 0.0000 -0.8660
vn 0.5000 0.0000 -0.8660
vn 0.5000 0.0000 0.8660
vn 0.0000 1.0000 0.0000
vn 0.5000 0.0000 0.8660
vn 0.0000 1.0000 0.0000
vn 0.8660 0.0000 -0.5000
vn 0.8660 0.0000 -0.5000
vn 0.8660 0.0000 0.5000
vn 0.0000 1.0000 0.0000
vn 0.8660 0.0000 0.5000
vn 0.0000 1.0000 0.0000
vn 1.0000 0.0000 0.0000
vn 1.0000 0.0000 0.0000
vn 0.0000 1.0000 0.0000
vn -0.8660 0.0000 -0.5000
vn -0.8660 0.0000 -0.5000
vn -1.0000 0.0000 -0.0000
vn -1.0000 0.0000 0.0000
vn -0.8660 0.0000 0.5000
vn 0.0000 1.0000 0.0000
vn 0.0000 1.0000 0.0000
vn 0.0000 1.0000 0.0000
vn -0.8660 0.0000 0.5000
vn -0.5000 0.0000 -0.8660
vn -0.5000 0.0000 -0.8660
vn -0.5000 0.0000 0.8660
vn 0.0000 1.0000 0.0000
vn -0.5000 0.0000 0.8660
vn 0.0000 1.0000 0.0000
vn 0.0000 0.0000 -1.0000
vn 0.0000 0.0000 -1.0000
vn 0.0000 0.0000 1.0000
vn 0.0000 1.0000 0.0000
vn 0.0000 0.0000 1.0000
vn 0.0000 1.0000 0.0000
vn 0.5000 0.0000 -0.8660
vn 0.5000 0.0000 -0.8660
vn 0.5000 0.0000 0.8660
vn 0.0000 1.0000 0.0000
vn 0.5000 0.0000 0.8660
vn 0.0000 1.0000 0.0000
vn 0.8660 0.0000 -0.5000
vn 0.8660 0.0000 -0.5000
vn 0.8660 0.0000 0.5000
vn 0.0000 1.0000 0.0000
vn 0.8660 0.0000 0.5000
vn 0.0000 1.0000 0.0000
vn 1.0000 0.0000 0.0000
vn 1.0000 0.0000 0.0000
vn 0.0000 1.0000 0.0000
vn -0.8660 0.0000 -0.5000
vn -0.8660 0.0000 -0.5000
vn -1.0000 0.0000 -0.0000
vn -1.0000 0.0000 0.0000
vn -0.8660 0.0000 0.5000
vn -0.8660 0.0000 0.5000
vn 0.0000 1.0000 0.0000
vn 0.0000 1.0000 0.0000
vn 0.0000 1.0000 0.0000
vn -0.5000 0.0000 -0.8660
vn -0.5000 -0.0000 -0.8660
vn -0.5000 0.0000 0.8660
vn 0.0000 1.0000 0.0000
vn -0.5000 0.0000 0.8660
vn 0.0000 1.0000 0.0000
vn 0.0000 -0.0000 -1.0000
vn 0.0000 0.0000 -1.0000
vn 0.0000 0.0000 1.0000
vn 0.0000 1.0000 0.0000
vn 0.0000 0.0000 1.0000
vn 0.0000 1.0000 0.0000
vn 0.5000 0.0000 -0.8660
vn 0.5000 0.0000 -0.8660
vn 0.5000 0.0000 0.8660
vn 0.0000 1.0000 0.0000
vn 0.5000 0.0000 0.8660
vn 0.0000 1.0000 0.0000
vn 0.8660 0.0000 -0.5000
vn 0.8660 0.0000 -0.5000
vn 0.8660 0.0000 0.5000
vn 0.0000 1.0000 0.0000
vn 0.8660 0.0000 0.5000
vn 0.0000 1.0000 0.0000
vn 1.0000 0.0000 0.0000
vn 1.0000 0.0000 0.0000
vn 0.0000 1.0000 0.0000
vn -0.8660 0.0000 -0.5000
vn -0.8660 0.0000 -0.5000
vn -1.0000 0.0000 -0.0000
vn -1.0000 0.0000 0.0000
vn -0.8660 0.0000 0.5000
vn -0.8660 0.0000 0.5000
vn 0.0000 1.0000 0.0000
vn 0.0000 1.0000 0.0000
vn 0.0000 1.0000 0.0000
vn -0.5000 0.0000 -0.8660
vn -0.5000 -0.0000 -0.8660
vn -0.5000 0.0000 0.8660
vn 0.0000 1.0000 0.0000
vn -0.5000 0.0000 0.8660
vn 0.0000 1.0000 0.0000
vn 0.0000 -0.0000 -1.0000
vn 0.0000 0.0000 -1.0000
vn 0.0000 0.0000 1.0000
vn 0.0000 1.0000 0.0000
vn 0.0000 0.0000 1.0000
vn 0.0000 1.0000 0.0000
vn 0.5000 0.0000 -0.8660
vn 0.5000 0.0000 -0.8660
vn 0.5000 0.0000 0.8660
vn 0.0000 1.0000 0.0000
vn 0.5000 0.0000 0.8660
vn 0.0000 1.0000 0.0000
vn 0.8660 0.0000 -0.5000
vn 0.8660 0.0000 -0.5000
vn 0.8660 0.0000 0.5000
vn 0.0000 1.0000 0.0000
vn 0.8660 0.0000 0.5000
vn 0.0000 1.0000 0.0000
vn 1.0000 0.0000 0.0000
vn 1.0000 0.0000 0.0000
vn 0.0000 1.0000 0.0000
f 1//1 2//2 3//3
f 1//1 4//4 2//2
f 1//1 5//5 4//4
f 2//2 4//4 6//6
f 5//5 7//7 4//4
f 4//4 8//8 6//6
f 1//1 3//3 9//9
f 1//1 10//10 5//5
f 5//5 10//10 7//7
f 4//4 7//7 11//11
f 4//4 11//11 8//8
f 3//3 2//2 12//12
f 2//2 6//6 13//13
f 6//6 8//8 13//13
f 1//1 14//14 10//10
f 1//1 9//9 14//14
f 14//14 9//9 15//15
f 14//14 15//15 16//16
f 14//14 16//16 10//10
f 15//15 17//17 16//16
f 10//10 16//16 18//18
f 16//16 17//17 18//18
f 10//10 19//19 7//7
f 10//10 18//18 19//19
f 17//17 20//20 18//18
f 3//3 21//21 9//9
f 9//9 22//22 15//15
f 15//15 22//22 17//17
f 17//17 23//23 20//20
f 7//7 24//24 11//11
f 11//11 25//25 8//8
f 11//11 24//24 25//25
f 24//24 26//26 25//25
f 26//26 27//27 28//28
f 26//26 28//28 29//29
f 26//26 30//30 27//27
f 27//27 30//30 31//31
f 7//7 32//32 24//24
f 24//24 32//32 26//26
f 26//26 33//33 30//30
f 31//31 30//30 34//34
f 30//30 35//35 36//36
f 8//8 25//25 37//37
f 26//26 29//29 38//38
f 25//25 26//26 39//39
f 31//31 34//34 40//40
f 40//40 41//41 42//42
f 40//40 34//34 43//43
f 36//36 44//44 45//45
f 40//40 43//43 41//41
f 46//46 47//47 45//45
f 7//7 19//19 32//32
f 26//26 32//32 33//33
f 36//36 35//35 44//44
f 33//33 35//35 30//30
f 19//19 18//18 32//32
f 18//18 20//20 48//48
f 18//18 48//48 32//32
f 32//32 48//48 33//33
f 33//33 49//49 35//35
f 33//33 50//50 49//49
f 49//49 50//50 51//51
f 33//33 52//52 50//50
f 33//33 53//53 52//52
f 45//45 44//44 54//54
f 49//49 55//55 56//56
f 46//46 45//45 54//54
f 56//56 55//55 57//57
f 20//20 58//58 48//48
f 49//49 51//51 55//55
f 33//33 59//59 53//53
f 48//48 60//60 33//33
f 57//57 55//55 61//61
f 2//2 62//62 12//12
f 2//2 13//13 62//62
f 3//3 12//12 21//21
f 8//8 37//37 13//13
f 12//12 62//62 63//63
f 62//62 64//64 63//63
f 62//62 13//13 64//64
f 63//63 64//64 65//65
f 13//13 66//66 64//64
f 64//64 66//66 65//65
f 12//12 63//63 67//67
f 63//63 65//65 67//67
f 65//65 68//68 69//69
f 13//13 37//37 66//66
f 65//65 66//66 68//68
f 9//9 21//21 22//22
f 17//17 22//22 23//23
f 20//20 23//23 58//58
f 12//12 67//67 21//21
f 65//65 69//69 67//67
f 21//21 67//67 22//22
f 22//22 67//67 70//70
f 22//22 70//70 23//23
f 67//67 69//69 70//70
f 23//23 70//70 58//58
f 70//70 69//69 71//71
f 69//69 68//68 71//71
f 70//70 72//72 58//58
f 70//70 71//71 72//72
f 26//26 38//38 39//39
f 42//42 41//41 73//73
f 25//25 74//74 37//37
f 25//25 39//39 74//74
f 39//39 38//38 75//75
f 76//76 77//77 73//73
f 41//41 78//78 73//73
f 47//47 79//79 80//80
f 76//76 73//73 78//78
f 81//81 80//80 79//79
f 39//39 75//75 82//82
f 39//39 82//82 83//83
f 39//39 83//83 77//77
f 39//39 77//77 76//76
f 39//39 76//76 84//84
f 37//37 74//74 66//66
f 66//66 85//85 68//68
f 66//66 74//74 85//85
f 74//74 39//39 85//85
f 39//39 84//84 86//86
f 81//81 87//87 84//84
f 68//68 85//85 71//71
f 39//39 60//60 85//85
f 47//47 46//46 79//79
f 57//57 61//61 88//88
f 81//81 79//79 87//87
f 89//89 88//88 90//90
f 61//61 90//90 88//88
f 33//33 60//60 59//59
f 89//89 90//90 91//91
f 48//48 58//58 92//92
f 48//48 92//92 60//60
f 60//60 93//93 59//59
f 84//84 87//87 86//86
f 89//89 91//91 86//86
f 39//39 86//86 60//60
f 85//85 60//60 94//94
f 85//85 94//94 71//71
f 86//86 91//91 95//95
f 60//60 86//86 95//95
f 60//60 96//96 93//93
f 60//60 95//95 96//96
f 58//58 72//72 92//92
f 72//72 71//71 94//94
f 72//72 94//94 92//92
f 92//92 94//94 60//60
f 97//97 98//98 99//99
f 100//100 99//99 101//101
f 100//100 97//97 99//99
f 102//102 103//103 104//104
f 100//100 101//101 105//105
f 106//106 107//107 98//98
f 105//105 101//101 108//108
f 97//97 106//106 98//98
f 104//104 103//103 109//109
f 105//105 108//108 110//110
f 103//103 111//111 109//109
f 112//112 113//113 107//107
f 110//110 108//108 114//114
f 106//106 112//112 107//107
f 109//109 111//111 115//115
f 110//110 114//114 116//116
f 111//111 117//117 115//115
f 118//118 119//119 113//113
f 116//116 114//114 120//120
f 112//112 118//118 113//113
f 115//115 117//117 121//121
f 116//116 120//120 122//122
f 117//117 123//123 121//121
f 124//124 125//125 119//119
f 122//122 120//120 126//126
f 118//118 124//124 119//119
f 121//121 123//123 127//127
f 122//122 126//126 128//128
f 123//123 129//129 127//127
f 130//130 131//131 125//125
f 128//128 126//126 131//131
f 124//124 130//130 125//125
f 127//127 129//129 132//132
f 128//128 131//131 130//130
f 133//133 134//134 135//135
f 136//136 135//135 137//137
f 136//136 133//133 135//135
f 138//138 139//139 140//140
f 136//136 137//137 141//141
f 142//142 143//143 134//134
f 141//141 137//137 144//144
f 133//133 142//142 134//134
f 140//140 139//139 145//145
f 141//141 144//144 146//146
f 139//139 147//147 145//145
f 148//148 149//149 143//143
f 146//146 144//144 150//150
f 142//142 148//148 143//143
f 145//145 147//147 151//151
f 146//146 150//150 152//152
f 147//147 153//153 151//151
f 154//154 155//155 149//149
f 152//152 150//150 156//156
f 148//148 154//154 149//149
f 151//151 153//153 157//157
f 152//152 156//156 158//158
f 153//153 159//159 157//157
f 160//160 161//161 155//155
f 158//158 156//156 162//162
f 154//154 160//160 155//155
f 157//157 159//159 163//163
f 158//158 162//162 164//164
f 159//159 165//165 163//163
f 166//166 167//167 161//161
f 164//164 162//162 167//167
f 160//160 166//166 161//161
f 163//163 165//165 168//168
f 166//166 164//164 167//167
f 169//169 170//170 171//171
f 172//172 171//171 173//173
f 169//169 171//171 172//172
f 172//172 173//173 174//174
f 175//175 176//176 177//177
f 178//178 179//179 170//170
f 174//174 173//173 180//180
f 169//169 178//178 170//170
f 175//175 177//177 181//181
f 174//174 180//180 182//182
f 177//177 183//183 181//181
f 184//184 185//185 179//179
f 182//182 180//180 186//186
f 178//178 184//184 179//179
f 181//181 183//183 187//187
f 182//182 186//186 188//188
f 183//183 189//189 187//187
f 190//190 191//191 185//185
f 188//188 186//186 192//192
f 184//184 190//190 185//185
f 187//187 189//189 193//193
f 188//188 192//192 194//194
f 189//189 195//195 193//193
f 196//196 197//197 191//191
f 194//194 192//192 198//198
f 190//190 196//196 191//191
f 193//193 195//195 199//199
f 194//194 198//198 200//200
f 195//195 201//201 199//199
f 202//202 203//203 197//197
f 200//200 198//198 203//203
f 196//196 202//202 197//197
f 200//200 203//203 202//202
f 199//199 201//201 204//204
f 205//205 206//206 207//207
f 208//208 207//207 209//209
f 208//208 205//205 207//207
f 208//208 209//209 210//210
f 211//211 212//212 213//213
f 214//214 215//215 206//206
f 210//210 209//209 216//216
f 205//205 214//214 206//206
f 213//213 212//212 217//217
f 210//210 216//216 218//218
f 212//212 219//219 217//217
f 220//220 221//221 215//215
f 218//218 216//216 222//222
f 214//214 220//220 215//215
f 217//217 219//219 223//223
f 218//218 222//222 224//224
f 219//219 225//225 223//223
f 226//226 227//227 221//221
f 224//224 222//222 228//228
f 220//220 226//226 221//221
f 223//223 225//225 229//229
f 224//224 228//228 230//230
f 225//225 231//231 229//229
f 232//232 233//233 227//227
f 230//230 228//228 234//234
f 226//226 232//232 227//227
f 229//229 231//231 235//235
f 230//230 234//234 236//236
f 231//231 237//237 235//235
f 238//238 239//239 233//233
f 236//236 234//234 239//239
f 232//232 238//238 233//233
f 236//236 239//239 238//238
f 235//235 237//237 240//240
