v -0.24566 -0.04666 -1.24000
v -0.24000 -0.04666 -1.24566
v -0.24000 -0.04900 -1.24000
v -0.24566 -0.04100 -1.24566
v -0.24800 -0.04100 -1.24000
v -0.24000 -0.04100 -1.24800
v -0.24800 0.04100 -1.24000
v -0.24000 0.04100 -1.24800
v -0.24000 -0.04900 1.24000
v -0.24800 -0.04100 1.24000
v -0.24566 0.04100 -1.24566
v 0.24000 -0.04900 -1.24000
v 0.24000 -0.04100 -1.24800
v -0.24566 -0.04666 1.24000
v -0.24000 -0.04666 1.24566
v -0.24566 -0.04100 1.24566
v -0.24000 -0.04100 1.24800
v -0.24566 0.04100 1.24566
v -0.24800 0.04100 1.24000
v -0.24000 0.04100 1.24800
v 0.24000 -0.04900 1.24000
v 0.24000 -0.04666 1.24566
v 0.24000 -0.04100 1.24800
v -0.24566 0.04666 -1.24000
v -0.24000 0.04666 -1.24566
v -0.24000 0.04900 -1.24000
v -0.20000 0.04900 -1.12500
v -0.18995 0.04900 -1.16250
v -0.16250 0.04900 -1.18995
v -0.20000 0.04900 -0.87500
v -0.18995 0.04900 -1.08750
v -0.18995 0.04900 -0.91250
v -0.20000 0.04900 -0.62500
v -0.20000 0.04900 -0.37500
v -0.18995 0.04900 -0.83750
v -0.18995 0.04900 -0.66250
v -0.12500 0.04900 -1.20000
v -0.16250 0.04900 -1.06005
v -0.16250 0.04900 -0.93995
v -0.12500 0.04900 -0.95000
v -0.12500 0.04900 -1.05000
v -0.16250 0.04900 -0.81005
v -0.16250 0.04900 -0.68995
v -0.12500 0.04900 -0.80000
v -0.12500 0.04900 -0.70000
v -0.24566 0.04666 1.24000
v -0.20000 0.04900 -0.12500
v -0.18995 0.04900 -0.58750
v -0.20000 0.04900 0.12500
v -0.18995 0.04900 -0.41250
v -0.20000 0.04900 0.37500
v -0.18995 0.04900 -0.16250
v -0.18995 0.04900 -0.33750
v -0.20000 0.04900 0.62500
v -0.18995 0.04900 -0.08750
v -0.16250 0.04900 -0.56005
v -0.16250 0.04900 -0.43995
v -0.12500 0.04900 -0.55000
v -0.12500 0.04900 -0.45000
v -0.16250 0.04900 -0.31005
v -0.16250 0.04900 -0.18995
v -0.18995 0.04900 0.08750
v -0.16250 0.04900 -0.06005
v -0.12500 0.04900 -0.30000
v -0.12500 0.04900 -0.20000
v -0.16250 0.04900 0.06005
v -0.12500 0.04900 -0.05000
v -0.08750 0.04900 -1.06005
v -0.08750 0.04900 -0.93995
v 0.24000 0.04666 -1.24566
v 0.24000 0.04900 -1.24000
v 0.12500 0.04900 -1.20000
v -0.06005 0.04900 -0.91250
v -0.06005 0.04900 -1.08750
v -0.08750 0.04900 -0.68995
v -0.08750 0.04900 -0.81005
v -0.06005 0.04900 -0.83750
v -0.06005 0.04900 -0.66250
v -0.08750 0.04900 -1.18995
v 0.08750 0.04900 -1.18995
v -0.05000 0.04900 -1.12500
v -0.05000 0.04900 -0.87500
v -0.06005 0.04900 -1.16250
v 0.05000 0.04900 -1.12500
v 0.05000 0.04900 -0.87500
v -0.05000 0.04900 -0.62500
v 0.05000 0.04900 -0.62500
v -0.08750 0.04900 -0.56005
v -0.08750 0.04900 -0.43995
v -0.06005 0.04900 -0.58750
v -0.06005 0.04900 -0.41250
v -0.08750 0.04900 -0.18995
v -0.08750 0.04900 -0.31005
v -0.12500 0.04900 0.05000
v -0.08750 0.04900 -0.06005
v -0.06005 0.04900 -0.33750
v -0.06005 0.04900 -0.16250
v -0.08750 0.04900 0.06005
v -0.06005 0.04900 -0.08750
v -0.05000 0.04900 -0.37500
v 0.05000 0.04900 -0.37500
v -0.05000 0.04900 -0.12500
v -0.06005 0.04900 0.08750
v -0.05000 0.04900 0.12500
v -0.24000 0.04900 1.24000
v -0.18995 0.04900 0.16250
v -0.18995 0.04900 0.33750
v -0.18995 0.04900 0.41250
v -0.18995 0.04900 0.58750
v -0.16250 0.04900 0.18995
v -0.16250 0.04900 0.31005
v -0.12500 0.04900 0.20000
v -0.12500 0.04900 0.30000
v -0.16250 0.04900 0.43995
v -0.16250 0.04900 0.56005
v -0.12500 0.04900 0.45000
v -0.12500 0.04900 0.55000
v -0.24000 0.04666 1.24566
v -0.20000 0.04900 0.87500
v -0.18995 0.04900 0.66250
v -0.18995 0.04900 0.83750
v -0.18995 0.04900 0.91250
v -0.20000 0.04900 1.12500
v -0.18995 0.04900 1.08750
v -0.18995 0.04900 1.16250
v -0.16250 0.04900 1.18995
v -0.16250 0.04900 0.68995
v -0.16250 0.04900 0.81005
v -0.12500 0.04900 0.80000
v -0.12500 0.04900 0.70000
v -0.16250 0.04900 1.06005
v -0.16250 0.04900 0.93995
v -0.12500 0.04900 1.20000
v -0.12500 0.04900 0.95000
v -0.12500 0.04900 1.05000
v -0.08750 0.04900 0.18995
v -0.08750 0.04900 0.31005
v -0.06005 0.04900 0.16250
v -0.06005 0.04900 0.33750
v -0.08750 0.04900 0.56005
v -0.08750 0.04900 0.43995
v -0.06005 0.04900 0.58750
v -0.06005 0.04900 0.41250
v -0.05000 0.04900 0.37500
v 0.05000 0.04900 0.37500
v 0.06005 0.04900 0.58750
v -0.05000 0.04900 0.62500
v 0.05000 0.04900 0.62500
v 0.24000 0.04100 1.24800
v -0.08750 0.04900 0.68995
v -0.08750 0.04900 0.81005
v -0.06005 0.04900 0.66250
v -0.06005 0.04900 0.83750
v -0.08750 0.04900 0.93995
v -0.08750 0.04900 1.06005
v -0.06005 0.04900 0.91250
v -0.06005 0.04900 1.08750
v 0.24000 0.04900 1.24000
v 0.06005 0.04900 0.83750
v -0.05000 0.04900 0.87500
v 0.05000 0.04900 0.87500
v 0.06005 0.04900 1.08750
v -0.05000 0.04900 1.12500
v 0.05000 0.04900 1.12500
v -0.06005 0.04900 1.16250
v 0.12500 0.04900 1.20000
v -0.08750 0.04900 1.18995
v 0.08750 0.04900 1.18995
v 0.24000 -0.04666 -1.24566
v 0.24000 0.04100 -1.24800
v 0.24566 -0.04666 -1.24000
v 0.24566 -0.04100 -1.24566
v 0.24800 -0.04100 -1.24000
v 0.24566 0.04100 -1.24566
v 0.24800 -0.04100 1.24000
v 0.24800 0.04100 -1.24000
v 0.24566 -0.04666 1.24000
v 0.24566 -0.04100 1.24566
v 0.24800 0.04100 1.24000
v 0.24566 0.04100 1.24566
v 0.06005 0.04900 -1.16250
v 0.06005 0.04900 -1.08750
v 0.06005 0.04900 -0.91250
v 0.06005 0.04900 -0.83750
v 0.06005 0.04900 -0.66250
v 0.08750 0.04900 -1.06005
v 0.08750 0.04900 -0.93995
v 0.12500 0.04900 -0.95000
v 0.12500 0.04900 -1.05000
v 0.08750 0.04900 -0.81005
v 0.08750 0.04900 -0.68995
v 0.12500 0.04900 -0.80000
v 0.12500 0.04900 -0.70000
v 0.06005 0.04900 -0.58750
v 0.06005 0.04900 -0.41250
v 0.06005 0.04900 -0.33750
v 0.08750 0.04900 -0.31005
v 0.05000 0.04900 -0.12500
v 0.08750 0.04900 -0.43995
v 0.08750 0.04900 -0.56005
v 0.12500 0.04900 -0.45000
v 0.12500 0.04900 -0.55000
v 0.06005 0.04900 -0.16250
v 0.08750 0.04900 -0.18995
v 0.06005 0.04900 -0.08750
v 0.06005 0.04900 0.08750
v 0.08750 0.04900 -0.06005
v 0.12500 0.04900 -0.30000
v 0.12500 0.04900 -0.20000
v 0.08750 0.04900 0.06005
v 0.12500 0.04900 -0.05000
v 0.16250 0.04900 -1.06005
v 0.16250 0.04900 -0.93995
v 0.16250 0.04900 -1.18995
v 0.18995 0.04900 -0.91250
v 0.18995 0.04900 -1.08750
v 0.16250 0.04900 -0.68995
v 0.16250 0.04900 -0.81005
v 0.18995 0.04900 -0.83750
v 0.18995 0.04900 -0.66250
v 0.24566 0.04666 -1.24000
v 0.18995 0.04900 -1.16250
v 0.20000 0.04900 -1.12500
v 0.20000 0.04900 -0.87500
v 0.20000 0.04900 -0.62500
v 0.20000 0.04900 -0.37500
v 0.16250 0.04900 -0.56005
v 0.16250 0.04900 -0.43995
v 0.18995 0.04900 -0.58750
v 0.18995 0.04900 -0.41250
v 0.16250 0.04900 -0.18995
v 0.16250 0.04900 -0.31005
v 0.12500 0.04900 0.05000
v 0.16250 0.04900 -0.06005
v 0.18995 0.04900 -0.33750
v 0.18995 0.04900 -0.16250
v 0.16250 0.04900 0.06005
v 0.18995 0.04900 -0.08750
v 0.20000 0.04900 -0.12500
v 0.20000 0.04900 0.12500
v 0.20000 0.04900 0.37500
v 0.18995 0.04900 0.08750
v 0.20000 0.04900 0.62500
v 0.05000 0.04900 0.12500
v 0.06005 0.04900 0.16250
v 0.06005 0.04900 0.33750
v 0.06005 0.04900 0.41250
v 0.08750 0.04900 0.18995
v 0.08750 0.04900 0.31005
v 0.12500 0.04900 0.20000
v 0.12500 0.04900 0.30000
v 0.08750 0.04900 0.43995
v 0.08750 0.04900 0.56005
v 0.12500 0.04900 0.45000
v 0.12500 0.04900 0.55000
v 0.06005 0.04900 0.66250
v 0.06005 0.04900 0.91250
v 0.06005 0.04900 1.16250
v 0.08750 0.04900 0.68995
v 0.08750 0.04900 0.81005
v 0.12500 0.04900 0.80000
v 0.12500 0.04900 0.70000
v 0.08750 0.04900 0.93995
v 0.08750 0.04900 1.06005
v 0.24000 0.04666 1.24566
v 0.12500 0.04900 0.95000
v 0.12500 0.04900 1.05000
v 0.16250 0.04900 0.18995
v 0.16250 0.04900 0.31005
v 0.18995 0.04900 0.16250
v 0.18995 0.04900 0.33750
v 0.16250 0.04900 0.43995
v 0.16250 0.04900 0.56005
v 0.18995 0.04900 0.41250
v 0.18995 0.04900 0.58750
v 0.24566 0.04666 1.24000
v 0.16250 0.04900 0.68995
v 0.16250 0.04900 0.81005
v 0.18995 0.04900 0.66250
v 0.18995 0.04900 0.83750
v 0.16250 0.04900 0.93995
v 0.16250 0.04900 1.06005
v 0.18995 0.04900 0.91250
v 0.18995 0.04900 1.08750
v 0.16250 0.04900 1.18995
v 0.20000 0.04900 0.87500
v 0.20000 0.04900 1.12500
v 0.18995 0.04900 1.16250
v -0.20000 0.09900 -1.12500
v -0.20000 0.04900 -1.12500
v -0.18995 0.04900 -1.08750
v -0.18995 0.09900 -1.16250
v -0.18995 0.04900 -1.16250
v -0.18995 0.09900 -1.08750
v -0.20000 0.09900 -1.12500
v -0.18995 0.09900 -1.08750
v -0.18995 0.09900 -1.16250
v -0.16250 0.09900 -1.18995
v -0.16250 0.04900 -1.18995
v -0.16250 0.04900 -1.06005
v -0.12500 0.09900 -1.20000
v -0.12500 0.04900 -1.20000
v -0.16250 0.09900 -1.06005
v -0.12500 0.04900 -1.05000
v -0.16250 0.09900 -1.18995
v -0.16250 0.09900 -1.06005
v -0.12500 0.09900 -1.05000
v -0.12500 0.09900 -1.20000
v -0.12500 0.09900 -1.05000
v -0.08750 0.09900 -1.18995
v -0.08750 0.04900 -1.18995
v -0.08750 0.04900 -1.06005
v -0.06005 0.09900 -1.16250
v -0.06005 0.04900 -1.16250
v -0.08750 0.09900 -1.06005
v -0.06005 0.04900 -1.08750
v -0.08750 0.09900 -1.18995
v -0.08750 0.09900 -1.06005
v -0.06005 0.09900 -1.08750
v -0.06005 0.09900 -1.16250
v -0.06005 0.09900 -1.08750
v -0.05000 0.04900 -1.12500
v -0.05000 0.09900 -1.12500
v -0.05000 0.09900 -1.12500
v -0.20000 0.09900 -0.87500
v -0.20000 0.04900 -0.87500
v -0.18995 0.04900 -0.83750
v -0.18995 0.09900 -0.91250
v -0.18995 0.04900 -0.91250
v -0.18995 0.09900 -0.83750
v -0.18995 0.09900 -0.91250
v -0.20000 0.09900 -0.87500
v -0.18995 0.09900 -0.83750
v -0.12500 0.09900 -0.95000
v -0.12500 0.04900 -0.95000
v -0.16250 0.04900 -0.93995
v -0.16250 0.09900 -0.93995
v -0.16250 0.04900 -0.81005
v -0.16250 0.09900 -0.81005
v -0.12500 0.04900 -0.80000
v -0.16250 0.09900 -0.93995
v -0.16250 0.09900 -0.81005
v -0.12500 0.09900 -0.80000
v -0.12500 0.09900 -0.95000
v -0.12500 0.09900 -0.80000
v -0.08750 0.09900 -0.93995
v -0.08750 0.04900 -0.93995
v -0.08750 0.04900 -0.81005
v -0.08750 0.09900 -0.81005
v -0.06005 0.04900 -0.83750
v -0.06005 0.09900 -0.91250
v -0.06005 0.04900 -0.91250
v -0.08750 0.09900 -0.93995
v -0.08750 0.09900 -0.81005
v -0.06005 0.09900 -0.83750
v -0.06005 0.09900 -0.91250
v -0.06005 0.09900 -0.83750
v -0.05000 0.09900 -0.87500
v -0.05000 0.04900 -0.87500
v -0.05000 0.09900 -0.87500
v -0.18995 0.09900 -0.66250
v -0.18995 0.04900 -0.66250
v -0.20000 0.04900 -0.62500
v -0.20000 0.09900 -0.62500
v -0.20000 0.09900 -0.62500
v -0.18995 0.09900 -0.58750
v -0.18995 0.09900 -0.66250
v -0.16250 0.09900 -0.68995
v -0.16250 0.04900 -0.68995
v -0.12500 0.09900 -0.70000
v -0.12500 0.04900 -0.70000
v -0.16250 0.09900 -0.68995
v -0.16250 0.09900 -0.56005
v -0.12500 0.09900 -0.70000
v -0.18995 0.04900 -0.58750
v -0.18995 0.09900 -0.58750
v -0.16250 0.04900 -0.56005
v -0.16250 0.09900 -0.56005
v -0.12500 0.04900 -0.55000
v -0.12500 0.09900 -0.55000
v -0.12500 0.09900 -0.55000
v -0.08750 0.09900 -0.68995
v -0.08750 0.04900 -0.68995
v -0.06005 0.09900 -0.66250
v -0.06005 0.04900 -0.66250
v -0.08750 0.09900 -0.68995
v -0.08750 0.09900 -0.56005
v -0.06005 0.09900 -0.66250
v -0.05000 0.09900 -0.62500
v -0.05000 0.04900 -0.62500
v -0.06005 0.09900 -0.58750
v -0.05000 0.09900 -0.62500
v -0.08750 0.04900 -0.56005
v -0.08750 0.09900 -0.56005
v -0.06005 0.04900 -0.58750
v -0.06005 0.09900 -0.58750
v -0.18995 0.09900 -0.41250
v -0.18995 0.04900 -0.41250
v -0.20000 0.04900 -0.37500
v -0.20000 0.09900 -0.37500
v -0.18995 0.04900 -0.33750
v -0.18995 0.09900 -0.33750
v -0.20000 0.09900 -0.37500
v -0.18995 0.09900 -0.33750
v -0.18995 0.09900 -0.41250
v -0.16250 0.09900 -0.43995
v -0.16250 0.04900 -0.43995
v -0.16250 0.04900 -0.31005
v -0.12500 0.09900 -0.45000
v -0.12500 0.04900 -0.45000
v -0.16250 0.09900 -0.31005
v -0.12500 0.04900 -0.30000
v -0.16250 0.09900 -0.43995
v -0.16250 0.09900 -0.31005
v -0.12500 0.09900 -0.45000
v -0.12500 0.09900 -0.30000
v -0.12500 0.09900 -0.30000
v -0.08750 0.09900 -0.43995
v -0.08750 0.04900 -0.43995
v -0.08750 0.09900 -0.31005
v -0.08750 0.04900 -0.31005
v -0.06005 0.04900 -0.33750
v -0.06005 0.09900 -0.41250
v -0.06005 0.04900 -0.41250
v -0.08750 0.09900 -0.43995
v -0.08750 0.09900 -0.31005
v -0.06005 0.09900 -0.33750
v -0.06005 0.09900 -0.41250
v -0.06005 0.09900 -0.33750
v -0.05000 0.04900 -0.37500
v -0.05000 0.09900 -0.37500
v -0.05000 0.09900 -0.37500
v -0.20000 0.09900 -0.12500
v -0.20000 0.04900 -0.12500
v -0.18995 0.04900 -0.08750
v -0.18995 0.09900 -0.16250
v -0.18995 0.04900 -0.16250
v -0.18995 0.09900 -0.08750
v -0.18995 0.09900 -0.16250
v -0.20000 0.09900 -0.12500
v -0.18995 0.09900 -0.08750
v -0.16250 0.09900 -0.18995
v -0.16250 0.04900 -0.18995
v -0.16250 0.04900 -0.06005
v -0.12500 0.09900 -0.20000
v -0.12500 0.04900 -0.20000
v -0.16250 0.09900 -0.06005
v -0.12500 0.04900 -0.05000
v -0.16250 0.09900 -0.18995
v -0.16250 0.09900 -0.06005
v -0.12500 0.09900 -0.05000
v -0.12500 0.09900 -0.20000
v -0.12500 0.09900 -0.05000
v -0.08750 0.09900 -0.18995
v -0.08750 0.04900 -0.18995
v -0.08750 0.04900 -0.06005
v -0.06005 0.09900 -0.16250
v -0.06005 0.04900 -0.16250
v -0.08750 0.09900 -0.06005
v -0.06005 0.04900 -0.08750
v -0.08750 0.09900 -0.18995
v -0.08750 0.09900 -0.06005
v -0.06005 0.09900 -0.08750
v -0.06005 0.09900 -0.16250
v -0.06005 0.09900 -0.08750
v -0.05000 0.04900 -0.12500
v -0.05000 0.09900 -0.12500
v -0.05000 0.09900 -0.12500
v -0.20000 0.09900 0.12500
v -0.20000 0.04900 0.12500
v -0.18995 0.04900 0.16250
v -0.18995 0.09900 0.08750
v -0.18995 0.04900 0.08750
v -0.18995 0.09900 0.16250
v -0.20000 0.09900 0.12500
v -0.18995 0.09900 0.16250
v -0.18995 0.09900 0.08750
v -0.16250 0.09900 0.06005
v -0.16250 0.04900 0.06005
v -0.16250 0.04900 0.18995
v -0.12500 0.09900 0.05000
v -0.12500 0.04900 0.05000
v -0.16250 0.09900 0.18995
v -0.12500 0.04900 0.20000
v -0.16250 0.09900 0.06005
v -0.16250 0.09900 0.18995
v -0.12500 0.09900 0.20000
v -0.12500 0.09900 0.05000
v -0.12500 0.09900 0.20000
v -0.08750 0.09900 0.06005
v -0.08750 0.04900 0.06005
v -0.08750 0.04900 0.18995
v -0.06005 0.09900 0.08750
v -0.06005 0.04900 0.08750
v -0.08750 0.09900 0.18995
v -0.06005 0.04900 0.16250
v -0.08750 0.09900 0.06005
v -0.08750 0.09900 0.18995
v -0.06005 0.09900 0.16250
v -0.06005 0.09900 0.08750
v -0.06005 0.09900 0.16250
v -0.05000 0.04900 0.12500
v -0.05000 0.09900 0.12500
v -0.05000 0.09900 0.12500
v -0.20000 0.09900 0.37500
v -0.20000 0.04900 0.37500
v -0.18995 0.04900 0.41250
v -0.18995 0.09900 0.33750
v -0.18995 0.04900 0.33750
v -0.18995 0.09900 0.41250
v -0.20000 0.09900 0.37500
v -0.18995 0.09900 0.41250
v -0.18995 0.09900 0.33750
v -0.12500 0.09900 0.30000
v -0.12500 0.04900 0.30000
v -0.16250 0.04900 0.31005
v -0.16250 0.09900 0.31005
v -0.16250 0.04900 0.43995
v -0.16250 0.09900 0.43995
v -0.12500 0.04900 0.45000
v -0.16250 0.09900 0.31005
v -0.16250 0.09900 0.43995
v -0.12500 0.09900 0.45000
v -0.12500 0.09900 0.30000
v -0.12500 0.09900 0.45000
v -0.08750 0.09900 0.31005
v -0.08750 0.04900 0.31005
v -0.08750 0.04900 0.43995
v -0.08750 0.09900 0.43995
v -0.06005 0.04900 0.41250
v -0.06005 0.09900 0.33750
v -0.06005 0.04900 0.33750
v -0.08750 0.09900 0.31005
v -0.08750 0.09900 0.43995
v -0.06005 0.09900 0.41250
v -0.06005 0.09900 0.33750
v -0.06005 0.09900 0.41250
v -0.05000 0.09900 0.37500
v -0.05000 0.04900 0.37500
v -0.05000 0.09900 0.37500
v -0.18995 0.09900 0.58750
v -0.18995 0.04900 0.58750
v -0.20000 0.04900 0.62500
v -0.20000 0.09900 0.62500
v -0.16250 0.09900 0.56005
v -0.16250 0.04900 0.56005
v -0.12500 0.09900 0.55000
v -0.12500 0.04900 0.55000
v -0.18995 0.09900 0.58750
v -0.18995 0.09900 0.66250
v -0.16250 0.09900 0.56005
v -0.16250 0.09900 0.68995
v -0.12500 0.09900 0.55000
v -0.18995 0.04900 0.66250
v -0.18995 0.09900 0.66250
v -0.20000 0.09900 0.62500
v -0.16250 0.04900 0.68995
v -0.16250 0.09900 0.68995
v -0.12500 0.04900 0.70000
v -0.12500 0.09900 0.70000
v -0.12500 0.09900 0.70000
v -0.08750 0.09900 0.56005
v -0.08750 0.04900 0.56005
v -0.06005 0.09900 0.58750
v -0.06005 0.04900 0.58750
v -0.08750 0.09900 0.56005
v -0.08750 0.09900 0.68995
v -0.06005 0.09900 0.58750
v -0.05000 0.09900 0.62500
v -0.05000 0.04900 0.62500
v -0.08750 0.04900 0.68995
v -0.08750 0.09900 0.68995
v -0.06005 0.04900 0.66250
v -0.06005 0.09900 0.66250
v -0.06005 0.09900 0.66250
v -0.05000 0.09900 0.62500
v -0.18995 0.09900 0.83750
v -0.18995 0.04900 0.83750
v -0.20000 0.04900 0.87500
v -0.20000 0.09900 0.87500
v -0.18995 0.04900 0.91250
v -0.18995 0.09900 0.91250
v -0.20000 0.09900 0.87500
v -0.18995 0.09900 0.91250
v -0.18995 0.09900 0.83750
v -0.16250 0.09900 0.81005
v -0.16250 0.04900 0.81005
v -0.16250 0.04900 0.93995
v -0.12500 0.09900 0.80000
v -0.12500 0.04900 0.80000
v -0.16250 0.09900 0.93995
v -0.12500 0.04900 0.95000
v -0.16250 0.09900 0.81005
v -0.16250 0.09900 0.93995
v -0.12500 0.09900 0.80000
v -0.12500 0.09900 0.95000
v -0.12500 0.09900 0.95000
v -0.08750 0.09900 0.81005
v -0.08750 0.04900 0.81005
v -0.08750 0.09900 0.93995
v -0.08750 0.04900 0.93995
v -0.06005 0.04900 0.91250
v -0.06005 0.09900 0.83750
v -0.06005 0.04900 0.83750
v -0.08750 0.09900 0.81005
v -0.08750 0.09900 0.93995
v -0.06005 0.09900 0.91250
v -0.06005 0.09900 0.83750
v -0.06005 0.09900 0.91250
v -0.05000 0.04900 0.87500
v -0.05000 0.09900 0.87500
v -0.05000 0.09900 0.87500
v -0.20000 0.09900 1.12500
v -0.20000 0.04900 1.12500
v -0.18995 0.04900 1.16250
v -0.18995 0.09900 1.08750
v -0.18995 0.04900 1.08750
v -0.18995 0.09900 1.16250
v -0.20000 0.09900 1.12500
v -0.18995 0.09900 1.16250
v -0.18995 0.09900 1.08750
v -0.16250 0.09900 1.06005
v -0.16250 0.04900 1.06005
v -0.16250 0.04900 1.18995
v -0.12500 0.09900 1.05000
v -0.12500 0.04900 1.05000
v -0.16250 0.09900 1.18995
v -0.12500 0.04900 1.20000
v -0.16250 0.09900 1.06005
v -0.16250 0.09900 1.18995
v -0.12500 0.09900 1.20000
v -0.12500 0.09900 1.05000
v -0.12500 0.09900 1.20000
v -0.08750 0.09900 1.06005
v -0.08750 0.04900 1.06005
v -0.08750 0.04900 1.18995
v -0.06005 0.09900 1.08750
v -0.06005 0.04900 1.08750
v -0.08750 0.09900 1.18995
v -0.06005 0.04900 1.16250
v -0.08750 0.09900 1.06005
v -0.08750 0.09900 1.18995
v -0.06005 0.09900 1.16250
v -0.06005 0.09900 1.08750
v -0.06005 0.09900 1.16250
v -0.05000 0.04900 1.12500
v -0.05000 0.09900 1.12500
v -0.05000 0.09900 1.12500
v 0.05000 0.09900 -1.12500
v 0.05000 0.04900 -1.12500
v 0.06005 0.04900 -1.08750
v 0.06005 0.09900 -1.16250
v 0.06005 0.04900 -1.16250
v 0.06005 0.09900 -1.08750
v 0.05000 0.09900 -1.12500
v 0.06005 0.09900 -1.08750
v 0.06005 0.09900 -1.16250
v 0.08750 0.09900 -1.18995
v 0.08750 0.04900 -1.18995
v 0.08750 0.04900 -1.06005
v 0.12500 0.09900 -1.20000
v 0.12500 0.04900 -1.20000
v 0.08750 0.09900 -1.06005
v 0.12500 0.04900 -1.05000
v 0.08750 0.09900 -1.18995
v 0.08750 0.09900 -1.06005
v 0.12500 0.09900 -1.05000
v 0.12500 0.09900 -1.20000
v 0.12500 0.09900 -1.05000
v 0.16250 0.09900 -1.18995
v 0.16250 0.04900 -1.18995
v 0.16250 0.04900 -1.06005
v 0.18995 0.09900 -1.16250
v 0.18995 0.04900 -1.16250
v 0.16250 0.09900 -1.06005
v 0.18995 0.04900 -1.08750
v 0.16250 0.09900 -1.18995
v 0.16250 0.09900 -1.06005
v 0.18995 0.09900 -1.08750
v 0.18995 0.09900 -1.16250
v 0.18995 0.09900 -1.08750
v 0.20000 0.04900 -1.12500
v 0.20000 0.09900 -1.12500
v 0.20000 0.09900 -1.12500
v 0.05000 0.09900 -0.87500
v 0.05000 0.04900 -0.87500
v 0.06005 0.04900 -0.83750
v 0.06005 0.09900 -0.91250
v 0.06005 0.04900 -0.91250
v 0.06005 0.09900 -0.83750
v 0.06005 0.09900 -0.91250
v 0.05000 0.09900 -0.87500
v 0.06005 0.09900 -0.83750
v 0.12500 0.09900 -0.95000
v 0.12500 0.04900 -0.95000
v 0.08750 0.04900 -0.93995
v 0.08750 0.04900 -0.81005
v 0.08750 0.09900 -0.93995
v 0.08750 0.09900 -0.81005
v 0.12500 0.04900 -0.80000
v 0.08750 0.09900 -0.93995
v 0.08750 0.09900 -0.81005
v 0.12500 0.09900 -0.80000
v 0.12500 0.09900 -0.95000
v 0.12500 0.09900 -0.80000
v 0.16250 0.09900 -0.93995
v 0.16250 0.04900 -0.93995
v 0.16250 0.04900 -0.81005
v 0.18995 0.09900 -0.91250
v 0.18995 0.04900 -0.91250
v 0.16250 0.09900 -0.81005
v 0.18995 0.04900 -0.83750
v 0.16250 0.09900 -0.93995
v 0.16250 0.09900 -0.81005
v 0.18995 0.09900 -0.83750
v 0.18995 0.09900 -0.91250
v 0.18995 0.09900 -0.83750
v 0.20000 0.09900 -0.87500
v 0.20000 0.04900 -0.87500
v 0.20000 0.09900 -0.87500
v 0.06005 0.09900 -0.66250
v 0.06005 0.04900 -0.66250
v 0.05000 0.04900 -0.62500
v 0.05000 0.09900 -0.62500
v 0.05000 0.09900 -0.62500
v 0.06005 0.09900 -0.58750
v 0.06005 0.09900 -0.66250
v 0.08750 0.09900 -0.68995
v 0.08750 0.04900 -0.68995
v 0.12500 0.09900 -0.70000
v 0.12500 0.04900 -0.70000
v 0.08750 0.09900 -0.68995
v 0.08750 0.09900 -0.56005
v 0.12500 0.09900 -0.70000
v 0.06005 0.04900 -0.58750
v 0.06005 0.09900 -0.58750
v 0.08750 0.04900 -0.56005
v 0.08750 0.09900 -0.56005
v 0.12500 0.04900 -0.55000
v 0.12500 0.09900 -0.55000
v 0.12500 0.09900 -0.55000
v 0.16250 0.09900 -0.68995
v 0.16250 0.04900 -0.68995
v 0.18995 0.09900 -0.66250
v 0.18995 0.04900 -0.66250
v 0.16250 0.09900 -0.68995
v 0.16250 0.09900 -0.56005
v 0.18995 0.09900 -0.66250
v 0.20000 0.09900 -0.62500
v 0.20000 0.04900 -0.62500
v 0.18995 0.09900 -0.58750
v 0.20000 0.09900 -0.62500
v 0.16250 0.04900 -0.56005
v 0.16250 0.09900 -0.56005
v 0.18995 0.04900 -0.58750
v 0.18995 0.09900 -0.58750
v 0.06005 0.09900 -0.41250
v 0.06005 0.04900 -0.41250
v 0.05000 0.04900 -0.37500
v 0.05000 0.09900 -0.37500
v 0.06005 0.04900 -0.33750
v 0.06005 0.09900 -0.33750
v 0.05000 0.09900 -0.37500
v 0.06005 0.09900 -0.33750
v 0.06005 0.09900 -0.41250
v 0.08750 0.04900 -0.31005
v 0.08750 0.09900 -0.43995
v 0.08750 0.04900 -0.43995
v 0.12500 0.09900 -0.45000
v 0.12500 0.04900 -0.45000
v 0.08750 0.09900 -0.31005
v 0.12500 0.04900 -0.30000
v 0.08750 0.09900 -0.43995
v 0.08750 0.09900 -0.31005
v 0.12500 0.09900 -0.45000
v 0.12500 0.09900 -0.30000
v 0.12500 0.09900 -0.30000
v 0.16250 0.09900 -0.43995
v 0.16250 0.04900 -0.43995
v 0.18995 0.09900 -0.41250
v 0.18995 0.04900 -0.41250
v 0.16250 0.09900 -0.31005
v 0.16250 0.04900 -0.31005
v 0.18995 0.04900 -0.33750
v 0.16250 0.09900 -0.43995
v 0.16250 0.09900 -0.31005
v 0.18995 0.09900 -0.33750
v 0.18995 0.09900 -0.41250
v 0.18995 0.09900 -0.33750
v 0.20000 0.04900 -0.37500
v 0.20000 0.09900 -0.37500
v 0.20000 0.09900 -0.37500
v 0.05000 0.09900 -0.12500
v 0.05000 0.04900 -0.12500
v 0.06005 0.04900 -0.08750
v 0.06005 0.09900 -0.16250
v 0.06005 0.04900 -0.16250
v 0.06005 0.09900 -0.08750
v 0.06005 0.09900 -0.16250
v 0.05000 0.09900 -0.12500
v 0.06005 0.09900 -0.08750
v 0.08750 0.09900 -0.18995
v 0.08750 0.04900 -0.18995
v 0.08750 0.04900 -0.06005
v 0.12500 0.09900 -0.20000
v 0.12500 0.04900 -0.20000
v 0.08750 0.09900 -0.06005
v 0.12500 0.04900 -0.05000
v 0.08750 0.09900 -0.18995
v 0.08750 0.09900 -0.06005
v 0.12500 0.09900 -0.05000
v 0.12500 0.09900 -0.20000
v 0.12500 0.09900 -0.05000
v 0.16250 0.09900 -0.18995
v 0.16250 0.04900 -0.18995
v 0.16250 0.04900 -0.06005
v 0.18995 0.09900 -0.16250
v 0.18995 0.04900 -0.16250
v 0.16250 0.09900 -0.06005
v 0.18995 0.04900 -0.08750
v 0.16250 0.09900 -0.18995
v 0.16250 0.09900 -0.06005
v 0.18995 0.09900 -0.08750
v 0.18995 0.09900 -0.16250
v 0.18995 0.09900 -0.08750
v 0.20000 0.04900 -0.12500
v 0.20000 0.09900 -0.12500
v 0.20000 0.09900 -0.12500
v 0.05000 0.09900 0.12500
v 0.05000 0.04900 0.12500
v 0.06005 0.04900 0.16250
v 0.06005 0.09900 0.08750
v 0.06005 0.04900 0.08750
v 0.06005 0.09900 0.16250
v 0.05000 0.09900 0.12500
v 0.06005 0.09900 0.16250
v 0.06005 0.09900 0.08750
v 0.08750 0.09900 0.06005
v 0.08750 0.04900 0.06005
v 0.08750 0.04900 0.18995
v 0.12500 0.09900 0.05000
v 0.12500 0.04900 0.05000
v 0.08750 0.09900 0.18995
v 0.12500 0.04900 0.20000
v 0.08750 0.09900 0.06005
v 0.08750 0.09900 0.18995
v 0.12500 0.09900 0.20000
v 0.12500 0.09900 0.05000
v 0.12500 0.09900 0.20000
v 0.16250 0.09900 0.06005
v 0.16250 0.04900 0.06005
v 0.16250 0.04900 0.18995
v 0.18995 0.09900 0.08750
v 0.18995 0.04900 0.08750
v 0.16250 0.09900 0.18995
v 0.18995 0.04900 0.16250
v 0.16250 0.09900 0.06005
v 0.16250 0.09900 0.18995
v 0.18995 0.09900 0.16250
v 0.18995 0.09900 0.08750
v 0.18995 0.09900 0.16250
v 0.20000 0.04900 0.12500
v 0.20000 0.09900 0.12500
v 0.20000 0.09900 0.12500
v 0.05000 0.09900 0.37500
v 0.05000 0.04900 0.37500
v 0.06005 0.04900 0.41250
v 0.06005 0.09900 0.33750
v 0.06005 0.04900 0.33750
v 0.06005 0.09900 0.41250
v 0.05000 0.09900 0.37500
v 0.06005 0.09900 0.41250
v 0.06005 0.09900 0.33750
v 0.12500 0.09900 0.30000
v 0.12500 0.04900 0.30000
v 0.08750 0.04900 0.31005
v 0.08750 0.04900 0.43995
v 0.08750 0.09900 0.31005
v 0.08750 0.09900 0.43995
v 0.12500 0.04900 0.45000
v 0.08750 0.09900 0.31005
v 0.08750 0.09900 0.43995
v 0.12500 0.09900 0.45000
v 0.12500 0.09900 0.30000
v 0.12500 0.09900 0.45000
v 0.16250 0.09900 0.31005
v 0.16250 0.04900 0.31005
v 0.16250 0.04900 0.43995
v 0.18995 0.09900 0.33750
v 0.18995 0.04900 0.33750
v 0.16250 0.09900 0.43995
v 0.18995 0.04900 0.41250
v 0.16250 0.09900 0.31005
v 0.16250 0.09900 0.43995
v 0.18995 0.09900 0.41250
v 0.18995 0.09900 0.33750
v 0.18995 0.09900 0.41250
v 0.20000 0.09900 0.37500
v 0.20000 0.04900 0.37500
v 0.20000 0.09900 0.37500
v 0.06005 0.09900 0.58750
v 0.06005 0.04900 0.58750
v 0.05000 0.04900 0.62500
v 0.05000 0.09900 0.62500
v 0.08750 0.09900 0.56005
v 0.08750 0.04900 0.56005
v 0.12500 0.09900 0.55000
v 0.12500 0.04900 0.55000
v 0.06005 0.09900 0.58750
v 0.06005 0.09900 0.66250
v 0.08750 0.09900 0.56005
v 0.08750 0.09900 0.68995
v 0.12500 0.09900 0.55000
v 0.06005 0.04900 0.66250
v 0.06005 0.09900 0.66250
v 0.05000 0.09900 0.62500
v 0.08750 0.04900 0.68995
v 0.08750 0.09900 0.68995
v 0.12500 0.04900 0.70000
v 0.12500 0.09900 0.70000
v 0.12500 0.09900 0.70000
v 0.16250 0.09900 0.56005
v 0.16250 0.04900 0.56005
v 0.18995 0.09900 0.58750
v 0.18995 0.04900 0.58750
v 0.16250 0.09900 0.56005
v 0.16250 0.09900 0.68995
v 0.18995 0.09900 0.58750
v 0.20000 0.09900 0.62500
v 0.20000 0.04900 0.62500
v 0.16250 0.04900 0.68995
v 0.16250 0.09900 0.68995
v 0.18995 0.04900 0.66250
v 0.18995 0.09900 0.66250
v 0.18995 0.09900 0.66250
v 0.20000 0.09900 0.62500
v 0.06005 0.09900 0.83750
v 0.06005 0.04900 0.83750
v 0.05000 0.04900 0.87500
v 0.05000 0.09900 0.87500
v 0.06005 0.04900 0.91250
v 0.06005 0.09900 0.91250
v 0.05000 0.09900 0.87500
v 0.06005 0.09900 0.91250
v 0.06005 0.09900 0.83750
v 0.08750 0.04900 0.93995
v 0.08750 0.09900 0.81005
v 0.08750 0.04900 0.81005
v 0.12500 0.09900 0.80000
v 0.12500 0.04900 0.80000
v 0.08750 0.09900 0.93995
v 0.12500 0.04900 0.95000
v 0.08750 0.09900 0.81005
v 0.08750 0.09900 0.93995
v 0.12500 0.09900 0.80000
v 0.12500 0.09900 0.95000
v 0.12500 0.09900 0.95000
v 0.16250 0.09900 0.81005
v 0.16250 0.04900 0.81005
v 0.18995 0.09900 0.83750
v 0.18995 0.04900 0.83750
v 0.16250 0.09900 0.93995
v 0.16250 0.04900 0.93995
v 0.18995 0.04900 0.91250
v 0.16250 0.09900 0.81005
v 0.16250 0.09900 0.93995
v 0.18995 0.09900 0.91250
v 0.18995 0.09900 0.83750
v 0.18995 0.09900 0.91250
v 0.20000 0.04900 0.87500
v 0.20000 0.09900 0.87500
v 0.20000 0.09900 0.87500
v 0.05000 0.09900 1.12500
v 0.05000 0.04900 1.12500
v 0.06005 0.04900 1.16250
v 0.06005 0.09900 1.08750
v 0.06005 0.04900 1.08750
v 0.06005 0.09900 1.16250
v 0.05000 0.09900 1.12500
v 0.06005 0.09900 1.16250
v 0.06005 0.09900 1.08750
v 0.08750 0.09900 1.06005
v 0.08750 0.04900 1.06005
v 0.08750 0.04900 1.18995
v 0.12500 0.09900 1.05000
v 0.12500 0.04900 1.05000
v 0.08750 0.09900 1.18995
v 0.12500 0.04900 1.20000
v 0.08750 0.09900 1.06005
v 0.08750 0.09900 1.18995
v 0.12500 0.09900 1.20000
v 0.12500 0.09900 1.05000
v 0.12500 0.09900 1.20000
v 0.16250 0.09900 1.06005
v 0.16250 0.04900 1.06005
v 0.16250 0.04900 1.18995
v 0.18995 0.09900 1.08750
v 0.18995 0.04900 1.08750
v 0.16250 0.09900 1.18995
v 0.18995 0.04900 1.16250
v 0.16250 0.09900 1.06005
v 0.16250 0.09900 1.18995
v 0.18995 0.09900 1.16250
v 0.18995 0.09900 1.08750
v 0.18995 0.09900 1.16250
v 0.20000 0.04900 1.12500
v 0.20000 0.09900 1.12500
v 0.20000 0.09900 1.12500
vn -0.6887 -0.6887 -0.2265
vn -0.2265 -0.6887 -0.6887
vn -0.1877 -0.9641 -0.1877
vn -0.6887 -0.2265 -0.6887
vn -0.9641 -0.1877 -0.1877
vn -0.1877 -0.1877 -0.9641
vn -0.9641 0.1877 -0.1877
vn -0.1877 0.1877 -0.9641
vn -0.1877 -0.9641 0.1877
vn -0.9641 -0.1877 0.1877
vn -0.6887 0.2265 -0.6887
vn 0.1877 -0.9641 -0.1877
vn 0.1877 -0.1877 -0.9641
vn -0.6887 -0.6887 0.2265
vn -0.2265 -0.6887 0.6887
vn -0.6887 -0.2265 0.6887
vn -0.1877 -0.1877 0.9641
vn -0.6887 0.2265 0.6887
vn -0.9641 0.1877 0.1877
vn -0.1877 0.1877 0.9641
vn 0.1877 -0.9641 0.1877
vn 0.2265 -0.6887 0.6887
vn 0.1877 -0.1877 0.9641
vn -0.6887 0.6887 -0.2265
vn -0.2265 0.6887 -0.6887
vn -0.1877 0.9641 -0.1877
vn 0.0000 1.0000 0.0000
vn 0.0000 1.0000 0.0000
vn 0.0000 1.0000 0.0000
vn 0.0000 1.0000 0.0000
vn 0.0000 1.0000 0.0000
vn 0.0000 1.0000 0.0000
vn 0.0000 1.0000 0.0000
vn 0.0000 1.0000 0.0000
vn 0.0000 1.0000 0.0000
vn 0.0000 1.0000 0.0000
vn 0.0000 1.0000 0.0000
vn 0.0000 1.0000 0.0000
vn 0.0000 1.0000 0.0000
vn 0.0000 1.0000 0.0000
vn 0.0000 1.0000 0.0000
vn 0.0000 1.0000 0.0000
vn 0.0000 1.0000 0.0000
vn 0.0000 1.0000 0.0000
vn 0.0000 1.0000 0.0000
vn -0.6887 0.6887 0.2265
vn 0.0000 1.0000 0.0000
vn 0.0000 1.0000 0.0000
vn 0.0000 1.0000 0.0000
vn 0.0000 1.0000 0.0000
vn 0.0000 1.0000 0.0000
vn 0.0000 1.0000 0.0000
vn 0.0000 1.0000 0.0000
vn 0.0000 1.0000 0.0000
vn 0.0000 1.0000 0.0000
vn 0.0000 1.0000 0.0000
vn 0.0000 1.0000 0.0000
vn 0.0000 1.0000 0.0000
vn 0.0000 1.0000 0.0000
vn 0.0000 1.0000 0.0000
vn 0.0000 1.0000 0.0000
vn 0.0000 1.0000 0.0000
vn 0.0000 1.0000 0.0000
vn 0.0000 1.0000 0.0000
vn 0.0000 1.0000 0.0000
vn 0.0000 1.0000 0.0000
vn 0.0000 1.0000 0.0000
vn 0.0000 1.0000 0.0000
vn 0.0000 1.0000 0.0000
vn 0.2265 0.6887 -0.6887
vn 0.1877 0.9641 -0.1877
vn 0.0000 1.0000 0.0000
vn 0.0000 1.0000 0.0000
vn 0.0000 1.0000 0.0000
vn 0.0000 1.0000 0.0000
vn 0.0000 1.0000 0.0000
vn 0.0000 1.0000 0.0000
vn 0.0000 1.0000 0.0000
vn 0.0000 1.0000 0.0000
vn 0.0000 1.0000 0.0000
vn 0.0000 1.0000 0.0000
vn 0.0000 1.0000 0.0000
vn 0.0000 1.0000 0.0000
vn 0.0000 1.0000 0.0000
vn 0.0000 1.0000 0.0000
vn 0.0000 1.0000 0.0000
vn 0.0000 1.0000 0.0000
vn 0.0000 1.0000 0.0000
vn 0.0000 1.0000 0.0000
vn 0.0000 1.0000 0.0000
vn 0.0000 1.0000 0.0000
vn 0.0000 1.0000 0.0000
vn 0.0000 1.0000 0.0000
vn 0.0000 1.0000 0.0000
vn 0.0000 1.0000 0.0000
vn 0.0000 1.0000 0.0000
vn 0.0000 1.0000 0.0000
vn 0.0000 1.0000 0.0000
vn 0.0000 1.0000 0.0000
vn 0.0000 1.0000 0.0000
vn 0.0000 1.0000 0.0000
vn 0.0000 1.0000 0.0000
vn 0.0000 1.0000 0.0000
vn 0.0000 1.0000 0.0000
vn -0.1877 0.9641 0.1877
vn 0.0000 1.0000 0.0000
vn 0.0000 1.0000 0.0000
vn 0.0000 1.0000 0.0000
vn 0.0000 1.0000 0.0000
vn 0.0000 1.0000 0.0000
vn 0.0000 1.0000 0.0000
vn 0.0000 1.0000 0.0000
vn 0.0000 1.0000 0.0000
vn 0.0000 1.0000 0.0000
vn 0.0000 1.0000 0.0000
vn 0.0000 1.0000 0.0000
vn 0.0000 1.0000 0.0000
vn -0.2265 0.6887 0.6887
vn 0.0000 1.0000 0.0000
vn 0.0000 1.0000 0.0000
vn 0.0000 1.0000 0.0000
vn 0.0000 1.0000 0.0000
vn 0.0000 1.0000 0.0000
vn 0.0000 1.0000 0.0000
vn 0.0000 1.0000 0.0000
vn 0.0000 1.0000 0.0000
vn 0.0000 1.0000 0.0000
vn 0.0000 1.0000 0.0000
vn 0.0000 1.0000 0.0000
vn 0.0000 1.0000 0.0000
vn 0.0000 1.0000 0.0000
vn 0.0000 1.0000 0.0000
vn 0.0000 1.0000 0.0000
vn 0.0000 1.0000 0.0000
vn 0.0000 1.0000 0.0000
vn 0.0000 1.0000 0.0000
vn 0.0000 1.0000 0.0000
vn 0.0000 1.0000 0.0000
vn 0.0000 1.0000 0.0000
vn 0.0000 1.0000 0.0000
vn 0.0000 1.0000 0.0000
vn 0.0000 1.0000 0.0000
vn 0.0000 1.0000 0.0000
vn 0.0000 1.0000 0.0000
vn 0.0000 1.0000 0.0000
vn 0.0000 1.0000 0.0000
vn 0.0000 1.0000 0.0000
vn 0.0000 1.0000 0.0000
vn 0.1877 0.1877 0.9641
vn 0.0000 1.0000 0.0000
vn 0.0000 1.0000 0.0000
vn 0.0000 1.0000 0.0000
vn 0.0000 1.0000 0.0000
vn 0.0000 1.0000 0.0000
vn 0.0000 1.0000 0.0000
vn 0.0000 1.0000 0.0000
vn 0.0000 1.0000 0.0000
vn 0.1877 0.9641 0.1877
vn 0.0000 1.0000 0.0000
vn 0.0000 1.0000 0.0000
vn 0.0000 1.0000 0.0000
vn 0.0000 1.0000 0.0000
vn 0.0000 1.0000 0.0000
vn 0.0000 1.0000 0.0000
vn 0.0000 1.0000 0.0000
vn 0.0000 1.0000 0.0000
vn 0.0000 1.0000 0.0000
vn 0.0000 1.0000 0.0000
vn 0.2265 -0.6887 -0.6887
vn 0.1877 0.1877 -0.9641
vn 0.6887 -0.6887 -0.2265
vn 0.6887 -0.2265 -0.6887
vn 0.9641 -0.1877 -0.1877
vn 0.6887 0.2265 -0.6887
vn 0.9641 -0.1877 0.1877
vn 0.9641 0.1877 -0.1877
vn 0.6887 -0.6887 0.2265
vn 0.6887 -0.2265 0.6887
vn 0.9641 0.1877 0.1877
vn 0.6887 0.2265 0.6887
vn 0.0000 1.0000 0.0000
vn 0.0000 1.0000 0.0000
vn 0.0000 1.0000 0.0000
vn 0.0000 1.0000 0.0000
vn 0.0000 1.0000 0.0000
vn 0.0000 1.0000 0.0000
vn 0.0000 1.0000 0.0000
vn 0.0000 1.0000 0.0000
vn 0.0000 1.0000 0.0000
vn 0.0000 1.0000 0.0000
vn 0.0000 1.0000 0.0000
vn 0.0000 1.0000 0.0000
vn 0.0000 1.0000 0.0000
vn 0.0000 1.0000 0.0000
vn 0.0000 1.0000 0.0000
vn 0.0000 1.0000 0.0000
vn 0.0000 1.0000 0.0000
vn 0.0000 1.0000 0.0000
vn 0.0000 1.0000 0.0000
vn 0.0000 1.0000 0.0000
vn 0.0000 1.0000 0.0000
vn 0.0000 1.0000 0.0000
vn 0.0000 1.0000 0.0000
vn 0.0000 1.0000 0.0000
vn 0.0000 1.0000 0.0000
vn 0.0000 1.0000 0.0000
vn 0.0000 1.0000 0.0000
vn 0.0000 1.0000 0.0000
vn 0.0000 1.0000 0.0000
vn 0.0000 1.0000 0.0000
vn 0.0000 1.0000 0.0000
vn 0.0000 1.0000 0.0000
vn 0.0000 1.0000 0.0000
vn 0.0000 1.0000 0.0000
vn 0.0000 1.0000 0.0000
vn 0.0000 1.0000 0.0000
vn 0.0000 1.0000 0.0000
vn 0.0000 1.0000 0.0000
vn 0.0000 1.0000 0.0000
vn 0.0000 1.0000 0.0000
vn 0.6887 0.6887 -0.2265
vn 0.0000 1.0000 0.0000
vn 0.0000 1.0000 0.0000
vn 0.0000 1.0000 0.0000
vn 0.0000 1.0000 0.0000
vn 0.0000 1.0000 0.0000
vn 0.0000 1.0000 0.0000
vn 0.0000 1.0000 0.0000
vn 0.0000 1.0000 0.0000
vn 0.0000 1.0000 0.0000
vn 0.0000 1.0000 0.0000
vn 0.0000 1.0000 0.0000
vn 0.0000 1.0000 0.0000
vn 0.0000 1.0000 0.0000
vn 0.0000 1.0000 0.0000
vn 0.0000 1.0000 0.0000
vn 0.0000 1.0000 0.0000
vn 0.0000 1.0000 0.0000
vn 0.0000 1.0000 0.0000
vn 0.0000 1.0000 0.0000
vn 0.0000 1.0000 0.0000
vn 0.0000 1.0000 0.0000
vn 0.0000 1.0000 0.0000
vn 0.0000 1.0000 0.0000
vn 0.0000 1.0000 0.0000
vn 0.0000 1.0000 0.0000
vn 0.0000 1.0000 0.0000
vn 0.0000 1.0000 0.0000
vn 0.0000 1.0000 0.0000
vn 0.0000 1.0000 0.0000
vn 0.0000 1.0000 0.0000
vn 0.0000 1.0000 0.0000
vn 0.0000 1.0000 0.0000
vn 0.0000 1.0000 0.0000
vn 0.0000 1.0000 0.0000
vn 0.0000 1.0000 0.0000
vn 0.0000 1.0000 0.0000
vn 0.0000 1.0000 0.0000
vn 0.0000 1.0000 0.0000
vn 0.0000 1.0000 0.0000
vn 0.0000 1.0000 0.0000
vn 0.0000 1.0000 0.0000
vn 0.0000 1.0000 0.0000
vn 0.0000 1.0000 0.0000
vn 0.2265 0.6887 0.6887
vn 0.0000 1.0000 0.0000
vn 0.0000 1.0000 0.0000
vn 0.0000 1.0000 0.0000
vn 0.0000 1.0000 0.0000
vn 0.0000 1.0000 0.0000
vn 0.0000 1.0000 0.0000
vn 0.0000 1.0000 0.0000
vn 0.0000 1.0000 0.0000
vn 0.0000 1.0000 0.0000
vn 0.0000 1.0000 0.0000
vn 0.6887 0.6887 0.2265
vn 0.0000 1.0000 0.0000
vn 0.0000 1.0000 0.0000
vn 0.0000 1.0000 0.0000
vn 0.0000 1.0000 0.0000
vn 0.0000 1.0000 0.0000
vn 0.0000 1.0000 0.0000
vn 0.0000 1.0000 0.0000
vn 0.0000 1.0000 0.0000
vn 0.0000 1.0000 0.0000
vn 0.0000 1.0000 0.0000
vn 0.0000 1.0000 0.0000
vn 0.0000 1.0000 0.0000
vn -1.0000 0.0000 0.0000
vn -1.0000 -0.0000 -0.0000
vn -0.8660 0.0000 0.5000
vn -0.8660 -0.0000 -0.5000
vn -0.8660 0.0000 -0.5000
vn -0.8660 0.0000 0.5000
vn 0.0000 1.0000 0.0000
vn 0.0000 1.0000 0.0000
vn 0.0000 1.0000 0.0000
vn -0.5000 0.0000 -0.8660
vn -0.5000 0.0000 -0.8660
vn -0.5000 0.0000 0.8660
vn 0.0000 0.0000 -1.0000
vn -0.0000 0.0000 -1.0000
vn -0.5000 0.0000 0.8660
vn 0.0000 0.0000 1.0000
vn 0.0000 1.0000 0.0000
vn 0.0000 1.0000 0.0000
vn -0.0000 0.0000 1.0000
vn 0.0000 1.0000 0.0000
vn 0.0000 1.0000 0.0000
vn 0.5000 0.0000 -0.8660
vn 0.5000 0.0000 -0.8660
vn 0.5000 0.0000 0.8660
vn 0.8660 0.0000 -0.5000
vn 0.8660 0.0000 -0.5000
vn 0.5000 0.0000 0.8660
vn 0.8660 0.0000 0.5000
vn 0.0000 1.0000 0.0000
vn 0.0000 1.0000 0.0000
vn 0.8660 -0.0000 0.5000
vn 0.0000 1.0000 0.0000
vn 0.0000 1.0000 0.0000
vn 1.0000 -0.0000 0.0000
vn 1.0000 0.0000 -0.0000
vn 0.0000 1.0000 0.0000
vn -1.0000 0.0000 0.0000
vn -1.0000 0.0000 0.0000
vn -0.8660 0.0000 0.5000
vn -0.8660 0.0000 -0.5000
vn -0.8660 0.0000 -0.5000
vn -0.8660 0.0000 0.5000
vn 0.0000 1.0000 0.0000
vn 0.0000 1.0000 0.0000
vn 0.0000 1.0000 0.0000
vn 0.0000 0.0000 -1.0000
vn -0.0000 0.0000 -1.0000
vn -0.5000 0.0000 -0.8660
vn -0.5000 0.0000 -0.8660
vn -0.5000 0.0000 0.8660
vn -0.5000 0.0000 0.8660
vn 0.0000 0.0000 1.0000
vn 0.0000 1.0000 0.0000
vn 0.0000 1.0000 0.0000
vn -0.0000 0.0000 1.0000
vn 0.0000 1.0000 0.0000
vn 0.0000 1.0000 0.0000
vn 0.5000 0.0000 -0.8660
vn 0.5000 0.0000 -0.8660
vn 0.5000 0.0000 0.8660
vn 0.5000 0.0000 0.8660
vn 0.8660 0.0000 0.5000
vn 0.8660 0.0000 -0.5000
vn 0.8660 0.0000 -0.5000
vn 0.0000 1.0000 0.0000
vn 0.0000 1.0000 0.0000
vn 0.8660 0.0000 0.5000
vn 0.0000 1.0000 0.0000
vn 0.0000 1.0000 0.0000
vn 1.0000 0.0000 0.0000
vn 1.0000 0.0000 0.0000
vn 0.0000 1.0000 0.0000
vn -0.8660 0.0000 -0.5000
vn -0.8660 0.0000 -0.5000
vn -1.0000 0.0000 0.0000
vn -1.0000 0.0000 0.0000
vn 0.0000 1.0000 0.0000
vn 0.0000 1.0000 0.0000
vn 0.0000 1.0000 0.0000
vn -0.5000 0.0000 -0.8660
vn -0.5000 0.0000 -0.8660
vn 0.0000 0.0000 -1.0000
vn -0.0000 0.0000 -1.0000
vn 0.0000 1.0000 0.0000
vn 0.0000 1.0000 0.0000
vn 0.0000 1.0000 0.0000
vn -0.8660 0.0000 0.5000
vn -0.8660 0.0000 0.5000
vn -0.5000 0.0000 0.8660
vn -0.5000 0.0000 0.8660
vn 0.0000 0.0000 1.0000
vn -0.0000 0.0000 1.0000
vn 0.0000 1.0000 0.0000
vn 0.5000 0.0000 -0.8660
vn 0.5000 0.0000 -0.8660
vn 0.8660 0.0000 -0.5000
vn 0.8660 0.0000 -0.5000
vn 0.0000 1.0000 0.0000
vn 0.0000 1.0000 0.0000
vn 0.0000 1.0000 0.0000
vn 1.0000 0.0000 0.0000
vn 1.0000 0.0000 0.0000
vn 0.0000 1.0000 0.0000
vn 0.0000 1.0000 0.0000
vn 0.5000 0.0000 0.8660
vn 0.5000 0.0000 0.8660
vn 0.8660 0.0000 0.5000
vn 0.8660 0.0000 0.5000
vn -0.8660 0.0000 -0.5000
vn -0.8660 0.0000 -0.5000
vn -1.0000 0.0000 0.0000
vn -1.0000 0.0000 0.0000
vn -0.8660 0.0000 0.5000
vn -0.8660 0.0000 0.5000
vn 0.0000 1.0000 0.0000
vn 0.0000 1.0000 0.0000
vn 0.0000 1.0000 0.0000
vn -0.5000 0.0000 -0.8660
vn -0.5000 0.0000 -0.8660
vn -0.5000 0.0000 0.8660
vn 0.0000 0.0000 -1.0000
vn -0.0000 0.0000 -1.0000
vn -0.5000 0.0000 0.8660
vn 0.0000 0.0000 1.0000
vn 0.0000 1.0000 0.0000
vn 0.0000 1.0000 0.0000
vn 0.0000 1.0000 0.0000
vn 0.0000 1.0000 0.0000
vn -0.0000 0.0000 1.0000
vn 0.5000 0.0000 -0.8660
vn 0.5000 0.0000 -0.8660
vn 0.5000 0.0000 0.8660
vn 0.5000 0.0000 0.8660
vn 0.8660 0.0000 0.5000
vn 0.8660 0.0000 -0.5000
vn 0.8660 0.0000 -0.5000
vn 0.0000 1.0000 0.0000
vn 0.0000 1.0000 0.0000
vn 0.8660 0.0000 0.5000
vn 0.0000 1.0000 0.0000
vn 0.0000 1.0000 0.0000
vn 1.0000 0.0000 0.0000
vn 1.0000 0.0000 0.0000
vn 0.0000 1.0000 0.0000
vn -1.0000 0.0000 0.0000
vn -1.0000 -0.0000 -0.0000
vn -0.8660 0.0000 0.5000
vn -0.8660 -0.0000 -0.5000
vn -0.8660 0.0000 -0.5000
vn -0.8660 0.0000 0.5000
vn 0.0000 1.0000 0.0000
vn 0.0000 1.0000 0.0000
vn 0.0000 1.0000 0.0000
vn -0.5000 0.0000 -0.8660
vn -0.5000 0.0000 -0.8660
vn -0.5000 0.0000 0.8660
vn 0.0000 0.0000 -1.0000
vn -0.0000 0.0000 -1.0000
vn -0.5000 0.0000 0.8660
vn 0.0000 0.0000 1.0000
vn 0.0000 1.0000 0.0000
vn 0.0000 1.0000 0.0000
vn -0.0000 0.0000 1.0000
vn 0.0000 1.0000 0.0000
vn 0.0000 1.0000 0.0000
vn 0.5000 0.0000 -0.8660
vn 0.5000 0.0000 -0.8660
vn 0.5000 0.0000 0.8660
vn 0.8660 0.0000 -0.5000
vn 0.8660 0.0000 -0.5000
vn 0.5000 0.0000 0.8660
vn 0.8660 0.0000 0.5000
vn 0.0000 1.0000 0.0000
vn 0.0000 1.0000 0.0000
vn 0.8660 -0.0000 0.5000
vn 0.0000 1.0000 0.0000
vn 0.0000 1.0000 0.0000
vn 1.0000 -0.0000 0.0000
vn 1.0000 0.0000 -0.0000
vn 0.0000 1.0000 0.0000
vn -1.0000 0.0000 0.0000
vn -1.0000 -0.0000 -0.0000
vn -0.8660 0.0000 0.5000
vn -0.8660 -0.0000 -0.5000
vn -0.8660 0.0000 -0.5000
vn -0.8660 0.0000 0.5000
vn 0.0000 1.0000 0.0000
vn 0.0000 1.0000 0.0000
vn 0.0000 1.0000 0.0000
vn -0.5000 0.0000 -0.8660
vn -0.5000 0.0000 -0.8660
vn -0.5000 0.0000 0.8660
vn 0.0000 0.0000 -1.0000
vn -0.0000 0.0000 -1.0000
vn -0.5000 0.0000 0.8660
vn 0.0000 0.0000 1.0000
vn 0.0000 1.0000 0.0000
vn 0.0000 1.0000 0.0000
vn -0.0000 0.0000 1.0000
vn 0.0000 1.0000 0.0000
vn 0.0000 1.0000 0.0000
vn 0.5000 0.0000 -0.8660
vn 0.5000 0.0000 -0.8660
vn 0.5000 0.0000 0.8660
vn 0.8660 0.0000 -0.5000
vn 0.8660 0.0000 -0.5000
vn 0.5000 0.0000 0.8660
vn 0.8660 0.0000 0.5000
vn 0.0000 1.0000 0.0000
vn 0.0000 1.0000 0.0000
vn 0.8660 -0.0000 0.5000
vn 0.0000 1.0000 0.0000
vn 0.0000 1.0000 0.0000
vn 1.0000 -0.0000 0.0000
vn 1.0000 0.0000 -0.0000
vn 0.0000 1.0000 0.0000
vn -1.0000 0.0000 0.0000
vn -1.0000 -0.0000 -0.0000
vn -0.8660 0.0000 0.5000
vn -0.8660 -0.0000 -0.5000
vn -0.8660 0.0000 -0.5000
vn -0.8660 0.0000 0.5000
vn 0.0000 1.0000 0.0000
vn 0.0000 1.0000 0.0000
vn 0.0000 1.0000 0.0000
vn 0.0000 0.0000 -1.0000
vn -0.0000 0.0000 -1.0000
vn -0.5000 0.0000 -0.8660
vn -0.5000 0.0000 -0.8660
vn -0.5000 0.0000 0.8660
vn -0.5000 0.0000 0.8660
vn 0.0000 0.0000 1.0000
vn 0.0000 1.0000 0.0000
vn 0.0000 1.0000 0.0000
vn -0.0000 0.0000 1.0000
vn 0.0000 1.0000 0.0000
vn 0.0000 1.0000 0.0000
vn 0.5000 0.0000 -0.8660
vn 0.5000 0.0000 -0.8660
vn 0.5000 0.0000 0.8660
vn 0.5000 0.0000 0.8660
vn 0.8660 0.0000 0.5000
vn 0.8660 0.0000 -0.5000
vn 0.8660 0.0000 -0.5000
vn 0.0000 1.0000 0.0000
vn 0.0000 1.0000 0.0000
vn 0.8660 -0.0000 0.5000
vn 0.0000 1.0000 0.0000
vn 0.0000 1.0000 0.0000
vn 1.0000 0.0000 -0.0000
vn 1.0000 -0.0000 0.0000
vn 0.0000 1.0000 0.0000
vn -0.8660 -0.0000 -0.5000
vn -0.8660 0.0000 -0.5000
vn -1.0000 -0.0000 -0.0000
vn -1.0000 0.0000 0.0000
vn -0.5000 0.0000 -0.8660
vn -0.5000 0.0000 -0.8660
vn 0.0000 0.0000 -1.0000
vn -0.0000 0.0000 -1.0000
vn 0.0000 1.0000 0.0000
vn 0.0000 1.0000 0.0000
vn 0.0000 1.0000 0.0000
vn 0.0000 1.0000 0.0000
vn 0.0000 1.0000 0.0000
vn -0.8660 0.0000 0.5000
vn -0.8660 0.0000 0.5000
vn 0.0000 1.0000 0.0000
vn -0.5000 0.0000 0.8660
vn -0.5000 0.0000 0.8660
vn 0.0000 0.0000 1.0000
vn -0.0000 0.0000 1.0000
vn 0.0000 1.0000 0.0000
vn 0.5000 0.0000 -0.8660
vn 0.5000 0.0000 -0.8660
vn 0.8660 0.0000 -0.5000
vn 0.8660 0.0000 -0.5000
vn 0.0000 1.0000 0.0000
vn 0.0000 1.0000 0.0000
vn 0.0000 1.0000 0.0000
vn 1.0000 0.0000 -0.0000
vn 1.0000 -0.0000 0.0000
vn 0.5000 0.0000 0.8660
vn 0.5000 0.0000 0.8660
vn 0.8660 0.0000 0.5000
vn 0.8660 -0.0000 0.5000
vn 0.0000 1.0000 0.0000
vn 0.0000 1.0000 0.0000
vn -0.8660 -0.0000 -0.5000
vn -0.8660 0.0000 -0.5000
vn -1.0000 -0.0000 -0.0000
vn -1.0000 0.0000 0.0000
vn -0.8660 0.0000 0.5000
vn -0.8660 0.0000 0.5000
vn 0.0000 1.0000 0.0000
vn 0.0000 1.0000 0.0000
vn 0.0000 1.0000 0.0000
vn -0.5000 0.0000 -0.8660
vn -0.5000 -0.0000 -0.8660
vn -0.5000 0.0000 0.8660
vn -0.0000 -0.0000 -1.0000
vn 0.0000 0.0000 -1.0000
vn -0.5000 0.0000 0.8660
vn -0.0000 0.0000 1.0000
vn 0.0000 1.0000 0.0000
vn 0.0000 1.0000 0.0000
vn 0.0000 1.0000 0.0000
vn 0.0000 1.0000 0.0000
vn 0.0000 -0.0000 1.0000
vn 0.5000 0.0000 -0.8660
vn 0.5000 0.0000 -0.8660
vn 0.5000 0.0000 0.8660
vn 0.5000 -0.0000 0.8660
vn 0.8660 0.0000 0.5000
vn 0.8660 0.0000 -0.5000
vn 0.8660 0.0000 -0.5000
vn 0.0000 1.0000 0.0000
vn 0.0000 1.0000 0.0000
vn 0.8660 -0.0000 0.5000
vn 0.0000 1.0000 0.0000
vn 0.0000 1.0000 0.0000
vn 1.0000 -0.0000 0.0000
vn 1.0000 0.0000 -0.0000
vn 0.0000 1.0000 0.0000
vn -1.0000 0.0000 0.0000
vn -1.0000 -0.0000 -0.0000
vn -0.8660 0.0000 0.5000
vn -0.8660 -0.0000 -0.5000
vn -0.8660 0.0000 -0.5000
vn -0.8660 0.0000 0.5000
vn 0.0000 1.0000 0.0000
vn 0.0000 1.0000 0.0000
vn 0.0000 1.0000 0.0000
vn -0.5000 0.0000 -0.8660
vn -0.5000 -0.0000 -0.8660
vn -0.5000 0.0000 0.8660
vn -0.0000 -0.0000 -1.0000
vn 0.0000 0.0000 -1.0000
vn -0.5000 0.0000 0.8660
vn -0.0000 0.0000 1.0000
vn 0.0000 1.0000 0.0000
vn 0.0000 1.0000 0.0000
vn 0.0000 -0.0000 1.0000
vn 0.0000 1.0000 0.0000
vn 0.0000 1.0000 0.0000
vn 0.5000 0.0000 -0.8660
vn 0.5000 0.0000 -0.8660
vn 0.5000 -0.0000 0.8660
vn 0.8660 0.0000 -0.5000
vn 0.8660 0.0000 -0.5000
vn 0.5000 0.0000 0.8660
vn 0.8660 0.0000 0.5000
vn 0.0000 1.0000 0.0000
vn 0.0000 1.0000 0.0000
vn 0.8660 -0.0000 0.5000
vn 0.0000 1.0000 0.0000
vn 0.0000 1.0000 0.0000
vn 1.0000 -0.0000 0.0000
vn 1.0000 0.0000 -0.0000
vn 0.0000 1.0000 0.0000
vn -1.0000 0.0000 0.0000
vn -1.0000 -0.0000 -0.0000
vn -0.8660 0.0000 0.5000
vn -0.8660 -0.0000 -0.5000
vn -0.8660 0.0000 -0.5000
vn -0.8660 0.0000 0.5000
vn 0.0000 1.0000 0.0000
vn 0.0000 1.0000 0.0000
vn 0.0000 1.0000 0.0000
vn -0.5000 0.0000 -0.8660
vn -0.5000 0.0000 -0.8660
vn -0.5000 0.0000 0.8660
vn 0.0000 0.0000 -1.0000
vn -0.0000 0.0000 -1.0000
vn -0.5000 0.0000 0.8660
vn 0.0000 0.0000 1.0000
vn 0.0000 1.0000 0.0000
vn 0.0000 1.0000 0.0000
vn -0.0000 0.0000 1.0000
vn 0.0000 1.0000 0.0000
vn 0.0000 1.0000 0.0000
vn 0.5000 0.0000 -0.8660
vn 0.5000 0.0000 -0.8660
vn 0.5000 0.0000 0.8660
vn 0.8660 0.0000 -0.5000
vn 0.8660 0.0000 -0.5000
vn 0.5000 0.0000 0.8660
vn 0.8660 0.0000 0.5000
vn 0.0000 1.0000 0.0000
vn 0.0000 1.0000 0.0000
vn 0.8660 -0.0000 0.5000
vn 0.0000 1.0000 0.0000
vn 0.0000 1.0000 0.0000
vn 1.0000 -0.0000 0.0000
vn 1.0000 0.0000 -0.0000
vn 0.0000 1.0000 0.0000
vn -1.0000 0.0000 -0.0000
vn -1.0000 0.0000 0.0000
vn -0.8660 0.0000 0.5000
vn -0.8660 0.0000 -0.5000
vn -0.8660 0.0000 -0.5000
vn -0.8660 0.0000 0.5000
vn 0.0000 1.0000 0.0000
vn 0.0000 1.0000 0.0000
vn 0.0000 1.0000 0.0000
vn 0.0000 0.0000 -1.0000
vn -0.0000 0.0000 -1.0000
vn -0.5000 0.0000 -0.8660
vn -0.5000 0.0000 0.8660
vn -0.5000 0.0000 -0.8660
vn -0.5000 0.0000 0.8660
vn 0.0000 0.0000 1.0000
vn 0.0000 1.0000 0.0000
vn 0.0000 1.0000 0.0000
vn -0.0000 0.0000 1.0000
vn 0.0000 1.0000 0.0000
vn 0.0000 1.0000 0.0000
vn 0.5000 0.0000 -0.8660
vn 0.5000 0.0000 -0.8660
vn 0.5000 0.0000 0.8660
vn 0.8660 0.0000 -0.5000
vn 0.8660 0.0000 -0.5000
vn 0.5000 0.0000 0.8660
vn 0.8660 0.0000 0.5000
vn 0.0000 1.0000 0.0000
vn 0.0000 1.0000 0.0000
vn 0.8660 0.0000 0.5000
vn 0.0000 1.0000 0.0000
vn 0.0000 1.0000 0.0000
vn 1.0000 0.0000 0.0000
vn 1.0000 0.0000 -0.0000
vn 0.0000 1.0000 0.0000
vn -0.8660 0.0000 -0.5000
vn -0.8660 0.0000 -0.5000
vn -1.0000 0.0000 0.0000
vn -1.0000 0.0000 -0.0000
vn 0.0000 1.0000 0.0000
vn 0.0000 1.0000 0.0000
vn 0.0000 1.0000 0.0000
vn -0.5000 0.0000 -0.8660
vn -0.5000 0.0000 -0.8660
vn 0.0000 0.0000 -1.0000
vn -0.0000 0.0000 -1.0000
vn 0.0000 1.0000 0.0000
vn 0.0000 1.0000 0.0000
vn 0.0000 1.0000 0.0000
vn -0.8660 0.0000 0.5000
vn -0.8660 0.0000 0.5000
vn -0.5000 0.0000 0.8660
vn -0.5000 0.0000 0.8660
vn 0.0000 0.0000 1.0000
vn -0.0000 0.0000 1.0000
vn 0.0000 1.0000 0.0000
vn 0.5000 0.0000 -0.8660
vn 0.5000 0.0000 -0.8660
vn 0.8660 0.0000 -0.5000
vn 0.8660 0.0000 -0.5000
vn 0.0000 1.0000 0.0000
vn 0.0000 1.0000 0.0000
vn 0.0000 1.0000 0.0000
vn 1.0000 0.0000 0.0000
vn 1.0000 0.0000 -0.0000
vn 0.0000 1.0000 0.0000
vn 0.0000 1.0000 0.0000
vn 0.5000 0.0000 0.8660
vn 0.5000 0.0000 0.8660
vn 0.8660 0.0000 0.5000
vn 0.8660 0.0000 0.5000
vn -0.8660 0.0000 -0.5000
vn -0.8660 0.0000 -0.5000
vn -1.0000 0.0000 0.0000
vn -1.0000 0.0000 -0.0000
vn -0.8660 0.0000 0.5000
vn -0.8660 0.0000 0.5000
vn 0.0000 1.0000 0.0000
vn 0.0000 1.0000 0.0000
vn 0.0000 1.0000 0.0000
vn -0.5000 0.0000 0.8660
vn -0.5000 0.0000 -0.8660
vn -0.5000 0.0000 -0.8660
vn 0.0000 0.0000 -1.0000
vn -0.0000 0.0000 -1.0000
vn -0.5000 0.0000 0.8660
vn 0.0000 0.0000 1.0000
vn 0.0000 1.0000 0.0000
vn 0.0000 1.0000 0.0000
vn 0.0000 1.0000 0.0000
vn 0.0000 1.0000 0.0000
vn -0.0000 0.0000 1.0000
vn 0.5000 0.0000 -0.8660
vn 0.5000 0.0000 -0.8660
vn 0.8660 0.0000 -0.5000
vn 0.8660 0.0000 -0.5000
vn 0.5000 0.0000 0.8660
vn 0.5000 0.0000 0.8660
vn 0.8660 0.0000 0.5000
vn 0.0000 1.0000 0.0000
vn 0.0000 1.0000 0.0000
vn 0.8660 0.0000 0.5000
vn 0.0000 1.0000 0.0000
vn 0.0000 1.0000 0.0000
vn 1.0000 0.0000 -0.0000
vn 1.0000 0.0000 0.0000
vn 0.0000 1.0000 0.0000
vn -1.0000 0.0000 0.0000
vn -1.0000 -0.0000 -0.0000
vn -0.8660 0.0000 0.5000
vn -0.8660 -0.0000 -0.5000
vn -0.8660 0.0000 -0.5000
vn -0.8660 0.0000 0.5000
vn 0.0000 1.0000 0.0000
vn 0.0000 1.0000 0.0000
vn 0.0000 1.0000 0.0000
vn -0.5000 0.0000 -0.8660
vn -0.5000 0.0000 -0.8660
vn -0.5000 0.0000 0.8660
vn 0.0000 0.0000 -1.0000
vn -0.0000 0.0000 -1.0000
vn -0.5000 0.0000 0.8660
vn 0.0000 0.0000 1.0000
vn 0.0000 1.0000 0.0000
vn 0.0000 1.0000 0.0000
vn -0.0000 0.0000 1.0000
vn 0.0000 1.0000 0.0000
vn 0.0000 1.0000 0.0000
vn 0.5000 0.0000 -0.8660
vn 0.5000 0.0000 -0.8660
vn 0.5000 0.0000 0.8660
vn 0.8660 0.0000 -0.5000
vn 0.8660 0.0000 -0.5000
vn 0.5000 0.0000 0.8660
vn 0.8660 0.0000 0.5000
vn 0.0000 1.0000 0.0000
vn 0.0000 1.0000 0.0000
vn 0.8660 -0.0000 0.5000
vn 0.0000 1.0000 0.0000
vn 0.0000 1.0000 0.0000
vn 1.0000 -0.0000 0.0000
vn 1.0000 0.0000 -0.0000
vn 0.0000 1.0000 0.0000
vn -1.0000 0.0000 0.0000
vn -1.0000 -0.0000 -0.0000
vn -0.8660 0.0000 0.5000
vn -0.8660 -0.0000 -0.5000
vn -0.8660 0.0000 -0.5000
vn -0.8660 0.0000 0.5000
vn 0.0000 1.0000 0.0000
vn 0.0000 1.0000 0.0000
vn 0.0000 1.0000 0.0000
vn -0.5000 0.0000 -0.8660
vn -0.5000 0.0000 -0.8660
vn -0.5000 0.0000 0.8660
vn 0.0000 0.0000 -1.0000
vn -0.0000 0.0000 -1.0000
vn -0.5000 0.0000 0.8660
vn 0.0000 0.0000 1.0000
vn 0.0000 1.0000 0.0000
vn 0.0000 1.0000 0.0000
vn -0.0000 0.0000 1.0000
vn 0.0000 1.0000 0.0000
vn 0.0000 1.0000 0.0000
vn 0.5000 0.0000 -0.8660
vn 0.5000 0.0000 -0.8660
vn 0.5000 0.0000 0.8660
vn 0.8660 0.0000 -0.5000
vn 0.8660 0.0000 -0.5000
vn 0.5000 0.0000 0.8660
vn 0.8660 0.0000 0.5000
vn 0.0000 1.0000 0.0000
vn 0.0000 1.0000 0.0000
vn 0.8660 -0.0000 0.5000
vn 0.0000 1.0000 0.0000
vn 0.0000 1.0000 0.0000
vn 1.0000 -0.0000 0.0000
vn 1.0000 0.0000 -0.0000
vn 0.0000 1.0000 0.0000
vn -1.0000 0.0000 0.0000
vn -1.0000 -0.0000 -0.0000
vn -0.8660 0.0000 0.5000
vn -0.8660 -0.0000 -0.5000
vn -0.8660 0.0000 -0.5000
vn -0.8660 0.0000 0.5000
vn 0.0000 1.0000 0.0000
vn 0.0000 1.0000 0.0000
vn 0.0000 1.0000 0.0000
vn 0.0000 0.0000 -1.0000
vn -0.0000 0.0000 -1.0000
vn -0.5000 0.0000 -0.8660
vn -0.5000 0.0000 0.8660
vn -0.5000 0.0000 -0.8660
vn -0.5000 0.0000 0.8660
vn 0.0000 0.0000 1.0000
vn 0.0000 1.0000 0.0000
vn 0.0000 1.0000 0.0000
vn -0.0000 0.0000 1.0000
vn 0.0000 1.0000 0.0000
vn 0.0000 1.0000 0.0000
vn 0.5000 0.0000 -0.8660
vn 0.5000 0.0000 -0.8660
vn 0.5000 0.0000 0.8660
vn 0.8660 0.0000 -0.5000
vn 0.8660 0.0000 -0.5000
vn 0.5000 0.0000 0.8660
vn 0.8660 0.0000 0.5000
vn 0.0000 1.0000 0.0000
vn 0.0000 1.0000 0.0000
vn 0.8660 -0.0000 0.5000
vn 0.0000 1.0000 0.0000
vn 0.0000 1.0000 0.0000
vn 1.0000 0.0000 -0.0000
vn 1.0000 -0.0000 0.0000
vn 0.0000 1.0000 0.0000
vn -0.8660 -0.0000 -0.5000
vn -0.8660 0.0000 -0.5000
vn -1.0000 -0.0000 -0.0000
vn -1.0000 0.0000 0.0000
vn -0.5000 0.0000 -0.8660
vn -0.5000 0.0000 -0.8660
vn 0.0000 0.0000 -1.0000
vn -0.0000 0.0000 -1.0000
vn 0.0000 1.0000 0.0000
vn 0.0000 1.0000 0.0000
vn 0.0000 1.0000 0.0000
vn 0.0000 1.0000 0.0000
vn 0.0000 1.0000 0.0000
vn -0.8660 0.0000 0.5000
vn -0.8660 0.0000 0.5000
vn 0.0000 1.0000 0.0000
vn -0.5000 0.0000 0.8660
vn -0.5000 0.0000 0.8660
vn 0.0000 0.0000 1.0000
vn -0.0000 0.0000 1.0000
vn 0.0000 1.0000 0.0000
vn 0.5000 0.0000 -0.8660
vn 0.5000 0.0000 -0.8660
vn 0.8660 0.0000 -0.5000
vn 0.8660 0.0000 -0.5000
vn 0.0000 1.0000 0.0000
vn 0.0000 1.0000 0.0000
vn 0.0000 1.0000 0.0000
vn 1.0000 0.0000 -0.0000
vn 1.0000 -0.0000 0.0000
vn 0.5000 0.0000 0.8660
vn 0.5000 0.0000 0.8660
vn 0.8660 0.0000 0.5000
vn 0.8660 -0.0000 0.5000
vn 0.0000 1.0000 0.0000
vn 0.0000 1.0000 0.0000
vn -0.8660 -0.0000 -0.5000
vn -0.8660 0.0000 -0.5000
vn -1.0000 -0.0000 -0.0000
vn -1.0000 0.0000 0.0000
vn -0.8660 0.0000 0.5000
vn -0.8660 0.0000 0.5000
vn 0.0000 1.0000 0.0000
vn 0.0000 1.0000 0.0000
vn 0.0000 1.0000 0.0000
vn -0.5000 0.0000 0.8660
vn -0.5000 0.0000 -0.8660
vn -0.5000 -0.0000 -0.8660
vn -0.0000 -0.0000 -1.0000
vn 0.0000 0.0000 -1.0000
vn -0.5000 0.0000 0.8660
vn -0.0000 0.0000 1.0000
vn 0.0000 1.0000 0.0000
vn 0.0000 1.0000 0.0000
vn 0.0000 1.0000 0.0000
vn 0.0000 1.0000 0.0000
vn 0.0000 -0.0000 1.0000
vn 0.5000 0.0000 -0.8660
vn 0.5000 0.0000 -0.8660
vn 0.8660 0.0000 -0.5000
vn 0.8660 0.0000 -0.5000
vn 0.5000 0.0000 0.8660
vn 0.5000 -0.0000 0.8660
vn 0.8660 0.0000 0.5000
vn 0.0000 1.0000 0.0000
vn 0.0000 1.0000 0.0000
vn 0.8660 -0.0000 0.5000
vn 0.0000 1.0000 0.0000
vn 0.0000 1.0000 0.0000
vn 1.0000 -0.0000 0.0000
vn 1.0000 0.0000 -0.0000
vn 0.0000 1.0000 0.0000
vn -1.0000 0.0000 0.0000
vn -1.0000 -0.0000 -0.0000
vn -0.8660 0.0000 0.5000
vn -0.8660 -0.0000 -0.5000
vn -0.8660 0.0000 -0.5000
vn -0.8660 0.0000 0.5000
vn 0.0000 1.0000 0.0000
vn 0.0000 1.0000 0.0000
vn 0.0000 1.0000 0.0000
vn -0.5000 0.0000 -0.8660
vn -0.5000 -0.0000 -0.8660
vn -0.5000 0.0000 0.8660
vn -0.0000 -0.0000 -1.0000
vn 0.0000 0.0000 -1.0000
vn -0.5000 0.0000 0.8660
vn -0.0000 0.0000 1.0000
vn 0.0000 1.0000 0.0000
vn 0.0000 1.0000 0.0000
vn 0.0000 -0.0000 1.0000
vn 0.0000 1.0000 0.0000
vn 0.0000 1.0000 0.0000
vn 0.5000 0.0000 -0.8660
vn 0.5000 0.0000 -0.8660
vn 0.5000 -0.0000 0.8660
vn 0.8660 0.0000 -0.5000
vn 0.8660 0.0000 -0.5000
vn 0.5000 0.0000 0.8660
vn 0.8660 0.0000 0.5000
vn 0.0000 1.0000 0.0000
vn 0.0000 1.0000 0.0000
vn 0.8660 -0.0000 0.5000
vn 0.0000 1.0000 0.0000
vn 0.0000 1.0000 0.0000
vn 1.0000 -0.0000 0.0000
vn 1.0000 0.0000 -0.0000
vn 0.0000 1.0000 0.0000
f 1//1 2//2 3//3
f 1//1 4//4 2//2
f 1//1 5//5 4//4
f 2//2 4//4 6//6
f 5//5 7//7 4//4
f 4//4 8//8 6//6
f 1//1 3//3 9//9
f 1//1 10//10 5//5
f 5//5 10//10 7//7
f 4//4 7//7 11//11
f 4//4 11//11 8//8
f 3//3 2//2 12//12
f 2//2 6//6 13//13
f 6//6 8//8 13//13
f 1//1 9//9 14//14
f 1//1 14//14 10//10
f 14//14 9//9 15//15
f 14//14 15//15 16//16
f 14//14 16//16 10//10
f 15//15 17//17 16//16
f 10//10 16//16 18//18
f 16//16 17//17 18//18
f 10//10 19//19 7//7
f 10//10 18//18 19//19
f 17//17 20//20 18//18
f 3//3 21//21 9//9
f 9//9 22//22 15//15
f 15//15 22//22 17//17
f 17//17 23//23 20//20
f 7//7 24//24 11//11
f 11//11 25//25 8//8
f 11//11 24//24 25//25
f 24//24 26//26 25//25
f 26//26 27//27 28//28
f 26//26 28//28 29//29
f 26//26 30//30 27//27
f 27//27 30//30 31//31
f 31//31 30//30 32//32
f 26//26 33//33 30//30
f 26//26 34//34 33//33
f 35//35 30//30 33//33
f 35//35 33//33 36//36
f 26//26 29//29 37//37
f 31//31 32//32 38//38
f 38//38 32//32 39//39
f 38//38 39//39 40//40
f 38//38 40//40 41//41
f 35//35 36//36 42//42
f 42//42 36//36 43//43
f 42//42 43//43 44//44
f 44//44 43//43 45//45
f 7//7 46//46 24//24
f 24//24 46//46 26//26
f 26//26 47//47 34//34
f 48//48 33//33 34//34
f 26//26 49//49 47//47
f 48//48 34//34 50//50
f 26//26 51//51 49//49
f 34//34 52//52 53//53
f 34//34 47//47 52//52
f 26//26 54//54 51//51
f 47//47 49//49 55//55
f 48//48 50//50 56//56
f 56//56 50//50 57//57
f 56//56 57//57 58//58
f 58//58 57//57 59//59
f 53//53 52//52 60//60
f 60//60 52//52 61//61
f 55//55 62//62 63//63
f 60//60 61//61 64//64
f 64//64 61//61 65//65
f 63//63 66//66 67//67
f 41//41 40//40 68//68
f 68//68 40//40 69//69
f 8//8 25//25 70//70
f 25//25 26//26 71//71
f 26//26 37//37 72//72
f 68//68 69//69 73//73
f 68//68 73//73 74//74
f 44//44 45//45 75//75
f 44//44 75//75 76//76
f 76//76 75//75 77//77
f 77//77 75//75 78//78
f 37//37 79//79 80//80
f 74//74 73//73 81//81
f 81//81 73//73 82//82
f 79//79 83//83 80//80
f 83//83 81//81 84//84
f 81//81 82//82 85//85
f 77//77 78//78 82//82
f 82//82 78//78 86//86
f 82//82 86//86 87//87
f 58//58 59//59 88//88
f 88//88 59//59 89//89
f 88//88 89//89 90//90
f 90//90 89//89 91//91
f 64//64 65//65 92//92
f 64//64 92//92 93//93
f 67//67 94//94 95//95
f 93//93 92//92 96//96
f 96//96 92//92 97//97
f 95//95 98//98 99//99
f 86//86 90//90 91//91
f 86//86 91//91 100//100
f 86//86 100//100 101//101
f 96//96 97//97 100//100
f 100//100 97//97 102//102
f 99//99 103//103 102//102
f 100//100 102//102 101//101
f 102//102 104//104 101//101
f 7//7 19//19 46//46
f 26//26 105//105 54//54
f 55//55 49//49 62//62
f 106//106 49//49 51//51
f 106//106 51//51 107//107
f 26//26 46//46 105//105
f 51//51 54//54 108//108
f 108//108 54//54 109//109
f 63//63 62//62 66//66
f 106//106 107//107 110//110
f 110//110 107//107 111//111
f 67//67 66//66 94//94
f 110//110 111//111 112//112
f 112//112 111//111 113//113
f 108//108 109//109 114//114
f 114//114 109//109 115//115
f 114//114 115//115 116//116
f 116//116 115//115 117//117
f 19//19 18//18 46//46
f 18//18 20//20 118//118
f 54//54 119//119 120//120
f 105//105 119//119 54//54
f 120//120 119//119 121//121
f 18//18 118//118 46//46
f 46//46 118//118 105//105
f 105//105 122//122 119//119
f 122//122 123//123 124//124
f 105//105 123//123 122//122
f 105//105 125//125 123//123
f 105//105 126//126 125//125
f 120//120 121//121 127//127
f 127//127 121//121 128//128
f 129//129 127//127 128//128
f 127//127 129//129 130//130
f 122//122 131//131 132//132
f 122//122 124//124 131//131
f 105//105 133//133 126//126
f 132//132 131//131 134//134
f 134//134 131//131 135//135
f 95//95 94//94 98//98
f 112//112 113//113 136//136
f 136//136 113//113 137//137
f 99//99 98//98 103//103
f 136//136 137//137 138//138
f 139//139 138//138 137//137
f 140//140 116//116 117//117
f 140//140 141//141 116//116
f 141//141 140//140 142//142
f 141//141 142//142 143//143
f 102//102 103//103 104//104
f 139//139 104//104 138//138
f 139//139 101//101 104//104
f 139//139 144//144 145//145
f 143//143 145//145 144//144
f 143//143 142//142 146//146
f 147//147 148//148 142//142
f 20//20 149//149 118//118
f 130//130 129//129 150//150
f 150//150 129//129 151//151
f 150//150 151//151 152//152
f 152//152 151//151 153//153
f 134//134 135//135 154//154
f 154//154 135//135 155//155
f 154//154 155//155 156//156
f 156//156 155//155 157//157
f 118//118 158//158 105//105
f 152//152 148//148 147//147
f 152//152 153//153 159//159
f 160//160 161//161 153//153
f 160//160 156//156 161//161
f 105//105 158//158 133//133
f 156//156 157//157 162//162
f 157//157 163//163 164//164
f 165//165 164//164 163//163
f 133//133 166//166 167//167
f 167//167 168//168 165//165
f 2//2 169//169 12//12
f 2//2 13//13 169//169
f 3//3 12//12 21//21
f 8//8 170//170 13//13
f 12//12 169//169 171//171
f 169//169 172//172 171//171
f 169//169 13//13 172//172
f 171//171 172//172 173//173
f 13//13 174//174 172//172
f 172//172 174//174 173//173
f 12//12 171//171 21//21
f 171//171 173//173 175//175
f 173//173 176//176 175//175
f 13//13 170//170 174//174
f 173//173 174//174 176//176
f 9//9 21//21 22//22
f 17//17 22//22 23//23
f 20//20 23//23 149//149
f 171//171 177//177 21//21
f 171//171 175//175 177//177
f 21//21 177//177 22//22
f 22//22 177//177 178//178
f 22//22 178//178 23//23
f 177//177 175//175 178//178
f 23//23 178//178 149//149
f 178//178 175//175 179//179
f 175//175 176//176 179//179
f 178//178 180//180 149//149
f 178//178 179//179 180//180
f 37//37 80//80 72//72
f 83//83 181//181 80//80
f 83//83 84//84 181//181
f 81//81 85//85 84//84
f 26//26 72//72 71//71
f 84//84 85//85 182//182
f 182//182 85//85 183//183
f 82//82 87//87 85//85
f 184//184 85//85 87//87
f 184//184 87//87 185//185
f 8//8 70//70 170//170
f 25//25 71//71 70//70
f 182//182 183//183 186//186
f 186//186 183//183 187//187
f 186//186 187//187 188//188
f 186//186 188//188 189//189
f 184//184 185//185 190//190
f 190//190 185//185 191//191
f 190//190 191//191 192//192
f 192//192 191//191 193//193
f 86//86 101//101 87//87
f 194//194 87//87 101//101
f 194//194 101//101 195//195
f 139//139 196//196 101//101
f 196//196 139//139 197//197
f 139//139 198//198 197//197
f 199//199 194//194 195//195
f 199//199 200//200 194//194
f 200//200 199//199 201//201
f 200//200 201//201 202//202
f 197//197 198//198 203//203
f 197//197 203//203 204//204
f 205//205 206//206 207//207
f 197//197 204//204 208//208
f 208//208 204//204 209//209
f 207//207 210//210 211//211
f 189//189 188//188 212//212
f 212//212 188//188 213//213
f 71//71 72//72 214//214
f 215//215 216//216 212//212
f 215//215 212//212 213//213
f 217//217 192//192 193//193
f 192//192 217//217 218//218
f 218//218 217//217 219//219
f 219//219 217//217 220//220
f 170//170 70//70 174//174
f 174//174 221//221 176//176
f 71//71 214//214 222//222
f 71//71 222//222 223//223
f 71//71 223//223 216//216
f 71//71 216//216 215//215
f 71//71 215//215 224//224
f 174//174 70//70 221//221
f 70//70 71//71 221//221
f 219//219 220//220 224//224
f 71//71 224//224 225//225
f 224//224 220//220 225//225
f 71//71 225//225 226//226
f 202//202 201//201 227//227
f 227//227 201//201 228//228
f 227//227 228//228 229//229
f 229//229 228//228 230//230
f 208//208 209//209 231//231
f 208//208 231//231 232//232
f 211//211 233//233 234//234
f 232//232 231//231 235//235
f 235//235 231//231 236//236
f 234//234 237//237 238//238
f 176//176 221//221 179//179
f 225//225 229//229 230//230
f 225//225 230//230 226//226
f 71//71 226//226 239//239
f 71//71 239//239 240//240
f 71//71 158//158 221//221
f 235//235 236//236 226//226
f 226//226 236//236 239//239
f 71//71 240//240 241//241
f 238//238 242//242 239//239
f 71//71 241//241 243//243
f 139//139 205//205 198//198
f 139//139 244//244 205//205
f 139//139 245//245 244//244
f 139//139 246//246 245//245
f 205//205 244//244 206//206
f 139//139 145//145 246//246
f 143//143 247//247 145//145
f 143//143 146//146 247//247
f 142//142 148//148 146//146
f 207//207 206//206 210//210
f 245//245 246//246 248//248
f 248//248 246//246 249//249
f 211//211 210//210 233//233
f 248//248 249//249 250//250
f 250//250 249//249 251//251
f 247//247 146//146 252//252
f 252//252 146//146 253//253
f 252//252 253//253 254//254
f 254//254 253//253 255//255
f 152//152 256//256 148//148
f 152//152 159//159 256//256
f 153//153 161//161 159//159
f 156//156 257//257 161//161
f 156//156 162//162 257//257
f 157//157 164//164 162//162
f 165//165 258//258 164//164
f 165//165 168//168 258//258
f 167//167 166//166 168//168
f 256//256 159//159 259//259
f 259//259 159//159 260//260
f 259//259 260//260 261//261
f 259//259 261//261 262//262
f 257//257 162//162 263//263
f 263//263 162//162 264//264
f 118//118 149//149 265//265
f 118//118 265//265 158//158
f 158//158 166//166 133//133
f 263//263 264//264 266//266
f 266//266 264//264 267//267
f 234//234 233//233 237//237
f 250//250 251//251 268//268
f 268//268 251//251 269//269
f 238//238 237//237 242//242
f 268//268 269//269 270//270
f 270//270 269//269 271//271
f 254//254 255//255 272//272
f 272//272 255//255 273//273
f 272//272 273//273 274//274
f 274//274 273//273 275//275
f 239//239 242//242 240//240
f 270//270 271//271 240//240
f 240//240 271//271 241//241
f 71//71 243//243 158//158
f 274//274 275//275 241//241
f 241//241 275//275 243//243
f 221//221 276//276 179//179
f 221//221 158//158 276//276
f 262//262 261//261 277//277
f 277//277 261//261 278//278
f 277//277 278//278 279//279
f 279//279 278//278 280//280
f 266//266 267//267 281//281
f 281//281 267//267 282//282
f 281//281 282//282 283//283
f 283//283 282//282 284//284
f 158//158 285//285 166//166
f 149//149 180//180 265//265
f 180//180 179//179 276//276
f 279//279 280//280 243//243
f 243//243 280//280 286//286
f 158//158 243//243 286//286
f 286//286 283//283 284//284
f 286//286 284//284 287//287
f 158//158 286//286 287//287
f 158//158 288//288 285//285
f 158//158 287//287 288//288
f 180//180 276//276 265//265
f 265//265 276//276 158//158
f 289//289 290//290 291//291
f 292//292 293//293 290//290
f 289//289 292//292 290//290
f 289//289 291//291 294//294
f 295//295 296//296 297//297
f 298//298 299//299 293//293
f 294//294 291//291 300//300
f 301//301 302//302 299//299
f 303//303 300//300 304//304
f 292//292 298//298 293//293
f 294//294 300//300 303//303
f 297//297 296//296 305//305
f 296//296 306//306 305//305
f 298//298 301//301 299//299
f 303//303 304//304 307//307
f 305//305 306//306 308//308
f 306//306 309//309 308//308
f 310//310 311//311 302//302
f 307//307 304//304 312//312
f 313//313 314//314 311//311
f 315//315 312//312 316//316
f 301//301 310//310 302//302
f 307//307 312//312 315//315
f 308//308 309//309 317//317
f 309//309 318//318 317//317
f 310//310 313//313 311//311
f 315//315 316//316 319//319
f 317//317 318//318 320//320
f 318//318 321//321 320//320
f 319//319 316//316 322//322
f 323//323 322//322 314//314
f 313//313 323//323 314//314
f 319//319 322//322 323//323
f 320//320 321//321 324//324
f 325//325 326//326 327//327
f 328//328 329//329 326//326
f 328//328 326//326 325//325
f 325//325 327//327 330//330
f 331//331 332//332 333//333
f 334//334 335//335 336//336
f 337//337 336//336 329//329
f 330//330 327//327 338//338
f 339//339 338//338 340//340
f 337//337 334//334 336//336
f 328//328 337//337 329//329
f 330//330 338//338 339//339
f 331//331 333//333 341//341
f 341//341 333//333 342//342
f 339//339 340//340 343//343
f 341//341 342//342 344//344
f 342//342 345//345 344//344
f 346//346 347//347 335//335
f 343//343 340//340 348//348
f 349//349 348//348 350//350
f 351//351 352//352 347//347
f 334//334 346//346 335//335
f 343//343 348//348 349//349
f 344//344 345//345 353//353
f 345//345 354//354 353//353
f 346//346 351//351 347//347
f 349//349 350//350 355//355
f 353//353 354//354 356//356
f 356//356 354//354 357//357
f 358//358 359//359 352//352
f 355//355 350//350 359//359
f 351//351 358//358 352//352
f 355//355 359//359 358//358
f 356//356 357//357 360//360
f 361//361 362//362 363//363
f 364//364 361//361 363//363
f 365//365 366//366 367//367
f 368//368 369//369 362//362
f 370//370 371//371 369//369
f 361//361 368//368 362//362
f 367//367 366//366 372//372
f 368//368 370//370 369//369
f 372//372 373//373 374//374
f 364//364 363//363 375//375
f 364//364 375//375 376//376
f 376//376 375//375 377//377
f 378//378 377//377 379//379
f 376//376 377//377 378//378
f 372//372 366//366 373//373
f 378//378 379//379 380//380
f 374//374 373//373 381//381
f 382//382 383//383 371//371
f 384//384 385//385 383//383
f 370//370 382//382 371//371
f 374//374 381//381 386//386
f 382//382 384//384 383//383
f 386//386 387//387 388//388
f 389//389 390//390 385//385
f 384//384 389//389 385//385
f 388//388 391//391 392//392
f 380//380 379//379 393//393
f 394//394 393//393 395//395
f 380//380 393//393 394//394
f 381//381 387//387 386//386
f 394//394 395//395 396//396
f 388//388 387//387 391//391
f 396//396 395//395 390//390
f 389//389 396//396 390//390
f 397//397 398//398 399//399
f 400//400 399//399 401//401
f 400//400 397//397 399//399
f 400//400 401//401 402//402
f 403//403 404//404 405//405
f 406//406 407//407 398//398
f 402//402 401//401 408//408
f 409//409 410//410 407//407
f 411//411 408//408 412//412
f 397//397 406//406 398//398
f 402//402 408//408 411//411
f 405//405 404//404 413//413
f 404//404 414//414 413//413
f 406//406 409//409 407//407
f 413//413 414//414 415//415
f 414//414 416//416 415//415
f 411//411 412//412 417//417
f 418//418 419//419 410//410
f 420//420 421//421 422//422
f 423//423 424//424 419//419
f 417//417 412//412 421//421
f 409//409 418//418 410//410
f 415//415 416//416 425//425
f 416//416 426//426 425//425
f 418//418 423//423 419//419
f 420//420 422//422 427//427
f 425//425 426//426 428//428
f 426//426 429//429 428//428
f 417//417 421//421 420//420
f 427//427 422//422 430//430
f 431//431 430//430 424//424
f 423//423 431//431 424//424
f 427//427 430//430 431//431
f 428//428 429//429 432//432
f 433//433 434//434 435//435
f 436//436 437//437 434//434
f 436//436 434//434 433//433
f 433//433 435//435 438//438
f 439//439 440//440 441//441
f 442//442 443//443 437//437
f 438//438 435//435 444//444
f 445//445 446//446 443//443
f 447//447 444//444 448//448
f 436//436 442//442 437//437
f 438//438 444//444 447//447
f 439//439 441//441 449//449
f 441//441 450//450 449//449
f 442//442 445//445 443//443
f 447//447 448//448 451//451
f 449//449 450//450 452//452
f 450//450 453//453 452//452
f 454//454 455//455 446//446
f 451//451 448//448 456//456
f 457//457 458//458 455//455
f 459//459 456//456 460//460
f 445//445 454//454 446//446
f 451//451 456//456 459//459
f 452//452 453//453 461//461
f 453//453 462//462 461//461
f 454//454 457//457 455//455
f 459//459 460//460 463//463
f 461//461 462//462 464//464
f 462//462 465//465 464//464
f 463//463 460//460 466//466
f 467//467 466//466 458//458
f 457//457 467//467 458//458
f 463//463 466//466 467//467
f 464//464 465//465 468//468
f 469//469 470//470 471//471
f 472//472 473//473 470//470
f 469//469 472//472 470//470
f 469//469 471//471 474//474
f 475//475 476//476 477//477
f 478//478 479//479 473//473
f 474//474 471//471 480//480
f 481//481 482//482 479//479
f 483//483 480//480 484//484
f 472//472 478//478 473//473
f 474//474 480//480 483//483
f 477//477 476//476 485//485
f 476//476 486//486 485//485
f 478//478 481//481 479//479
f 483//483 484//484 487//487
f 485//485 486//486 488//488
f 486//486 489//489 488//488
f 490//490 491//491 482//482
f 487//487 484//484 492//492
f 493//493 494//494 491//491
f 495//495 492//492 496//496
f 481//481 490//490 482//482
f 487//487 492//492 495//495
f 488//488 489//489 497//497
f 489//489 498//498 497//497
f 490//490 493//493 491//491
f 495//495 496//496 499//499
f 497//497 498//498 500//500
f 498//498 501//501 500//500
f 499//499 496//496 502//502
f 503//503 502//502 494//494
f 493//493 503//503 494//494
f 499//499 502//502 503//503
f 500//500 501//501 504//504
f 505//505 506//506 507//507
f 508//508 509//509 506//506
f 505//505 508//508 506//506
f 505//505 507//507 510//510
f 511//511 512//512 513//513
f 514//514 515//515 516//516
f 517//517 516//516 509//509
f 510//510 507//507 518//518
f 519//519 518//518 520//520
f 517//517 514//514 516//516
f 508//508 517//517 509//509
f 510//510 518//518 519//519
f 513//513 512//512 521//521
f 512//512 522//522 521//521
f 519//519 520//520 523//523
f 521//521 522//522 524//524
f 522//522 525//525 524//524
f 526//526 527//527 515//515
f 523//523 520//520 528//528
f 529//529 528//528 530//530
f 531//531 532//532 527//527
f 514//514 526//526 515//515
f 523//523 528//528 529//529
f 524//524 525//525 533//533
f 525//525 534//534 533//533
f 526//526 531//531 527//527
f 529//529 530//530 535//535
f 533//533 534//534 536//536
f 534//534 537//537 536//536
f 538//538 539//539 532//532
f 535//535 530//530 539//539
f 531//531 538//538 532//532
f 535//535 539//539 538//538
f 536//536 537//537 540//540
f 541//541 542//542 543//543
f 541//541 543//543 544//544
f 545//545 546//546 542//542
f 547//547 548//548 546//546
f 541//541 545//545 542//542
f 549//549 550//550 551//551
f 545//545 547//547 546//546
f 551//551 552//552 553//553
f 544//544 543//543 554//554
f 544//544 554//554 555//555
f 549//549 556//556 550//550
f 555//555 554//554 557//557
f 558//558 557//557 559//559
f 555//555 557//557 558//558
f 551//551 550//550 552//552
f 558//558 559//559 560//560
f 553//553 552//552 561//561
f 562//562 563//563 548//548
f 564//564 565//565 563//563
f 547//547 562//562 548//548
f 553//553 561//561 566//566
f 562//562 564//564 563//563
f 566//566 567//567 568//568
f 569//569 570//570 565//565
f 564//564 569//569 565//565
f 560//560 559//559 571//571
f 572//572 571//571 573//573
f 560//560 571//571 572//572
f 561//561 567//567 566//566
f 572//572 573//573 574//574
f 568//568 567//567 575//575
f 574//574 573//573 570//570
f 574//574 570//570 569//569
f 568//568 575//575 576//576
f 577//577 578//578 579//579
f 580//580 579//579 581//581
f 580//580 577//577 579//579
f 580//580 581//581 582//582
f 583//583 584//584 585//585
f 586//586 587//587 578//578
f 582//582 581//581 588//588
f 589//589 590//590 587//587
f 591//591 588//588 592//592
f 577//577 586//586 578//578
f 582//582 588//588 591//591
f 585//585 584//584 593//593
f 593//593 584//584 594//594
f 586//586 589//589 587//587
f 593//593 594//594 595//595
f 594//594 596//596 595//595
f 591//591 592//592 597//597
f 598//598 599//599 590//590
f 600//600 601//601 602//602
f 603//603 604//604 599//599
f 597//597 592//592 601//601
f 589//589 598//598 590//590
f 595//595 596//596 605//605
f 596//596 606//606 605//605
f 598//598 603//603 599//599
f 600//600 602//602 607//607
f 605//605 606//606 608//608
f 608//608 606//606 609//609
f 597//597 601//601 600//600
f 607//607 602//602 610//610
f 611//611 610//610 604//604
f 603//603 611//611 604//604
f 607//607 610//610 611//611
f 608//608 609//609 612//612
f 613//613 614//614 615//615
f 616//616 617//617 614//614
f 613//613 616//616 614//614
f 613//613 615//615 618//618
f 619//619 620//620 621//621
f 622//622 623//623 617//617
f 618//618 615//615 624//624
f 625//625 626//626 623//623
f 627//627 624//624 628//628
f 616//616 622//622 617//617
f 618//618 624//624 627//627
f 621//621 620//620 629//629
f 620//620 630//630 629//629
f 622//622 625//625 623//623
f 627//627 628//628 631//631
f 629//629 630//630 632//632
f 630//630 633//633 632//632
f 634//634 635//635 626//626
f 631//631 628//628 636//636
f 637//637 638//638 635//635
f 639//639 636//636 640//640
f 625//625 634//634 626//626
f 631//631 636//636 639//639
f 632//632 633//633 641//641
f 633//633 642//642 641//641
f 634//634 637//637 635//635
f 639//639 640//640 643//643
f 641//641 642//642 644//644
f 642//642 645//645 644//644
f 643//643 640//640 646//646
f 647//647 646//646 638//638
f 637//637 647//647 638//638
f 643//643 646//646 647//647
f 644//644 645//645 648//648
f 649//649 650//650 651//651
f 652//652 653//653 650//650
f 649//649 652//652 650//650
f 649//649 651//651 654//654
f 655//655 656//656 657//657
f 658//658 659//659 653//653
f 654//654 651//651 660//660
f 661//661 662//662 659//659
f 663//663 660//660 664//664
f 652//652 658//658 653//653
f 654//654 660//660 663//663
f 657//657 656//656 665//665
f 656//656 666//666 665//665
f 658//658 661//661 659//659
f 663//663 664//664 667//667
f 665//665 666//666 668//668
f 666//666 669//669 668//668
f 670//670 671//671 662//662
f 667//667 664//664 672//672
f 673//673 674//674 671//671
f 675//675 672//672 676//676
f 661//661 670//670 662//662
f 667//667 672//672 675//675
f 668//668 669//669 677//677
f 669//669 678//678 677//677
f 670//670 673//673 671//671
f 675//675 676//676 679//679
f 677//677 678//678 680//680
f 678//678 681//681 680//680
f 679//679 676//676 682//682
f 683//683 682//682 674//674
f 673//673 683//683 674//674
f 683//683 679//679 682//682
f 680//680 681//681 684//684
f 685//685 686//686 687//687
f 688//688 689//689 686//686
f 688//688 686//686 685//685
f 685//685 687//687 690//690
f 691//691 692//692 693//693
f 694//694 695//695 696//696
f 690//690 687//687 697//697
f 698//698 696//696 689//689
f 699//699 697//697 700//700
f 698//698 694//694 696//696
f 688//688 698//698 689//689
f 690//690 697//697 699//699
f 691//691 693//693 701//701
f 701//701 693//693 702//702
f 699//699 700//700 703//703
f 701//701 702//702 704//704
f 702//702 705//705 704//704
f 706//706 707//707 695//695
f 703//703 700//700 708//708
f 709//709 710//710 707//707
f 711//711 708//708 712//712
f 694//694 706//706 695//695
f 703//703 708//708 711//711
f 704//704 705//705 713//713
f 705//705 714//714 713//713
f 706//706 709//709 707//707
f 711//711 712//712 715//715
f 713//713 714//714 716//716
f 716//716 714//714 717//717
f 718//718 719//719 710//710
f 715//715 712//712 719//719
f 709//709 718//718 710//710
f 715//715 719//719 718//718
f 716//716 717//717 720//720
f 721//721 722//722 723//723
f 724//724 721//721 723//723
f 725//725 726//726 727//727
f 728//728 729//729 722//722
f 730//730 731//731 729//729
f 721//721 728//728 722//722
f 727//727 726//726 732//732
f 728//728 730//730 729//729
f 732//732 733//733 734//734
f 724//724 723//723 735//735
f 724//724 735//735 736//736
f 736//736 735//735 737//737
f 738//738 737//737 739//739
f 736//736 737//737 738//738
f 732//732 726//726 733//733
f 738//738 739//739 740//740
f 733//733 741//741 734//734
f 742//742 743//743 731//731
f 744//744 745//745 743//743
f 730//730 742//742 731//731
f 734//734 741//741 746//746
f 742//742 744//744 743//743
f 746//746 747//747 748//748
f 749//749 750//750 745//745
f 744//744 749//749 745//745
f 748//748 751//751 752//752
f 740//740 739//739 753//753
f 754//754 753//753 755//755
f 740//740 753//753 754//754
f 746//746 741//741 747//747
f 754//754 755//755 756//756
f 748//748 747//747 751//751
f 756//756 755//755 750//750
f 749//749 756//756 750//750
f 757//757 758//758 759//759
f 760//760 759//759 761//761
f 760//760 757//757 759//759
f 760//760 761//761 762//762
f 763//763 764//764 765//765
f 762//762 761//761 766//766
f 767//767 768//768 758//758
f 769//769 770//770 768//768
f 771//771 766//766 772//772
f 757//757 767//767 758//758
f 762//762 766//766 771//771
f 765//765 764//764 773//773
f 764//764 774//774 773//773
f 767//767 769//769 768//768
f 773//773 774//774 775//775
f 774//774 776//776 775//775
f 771//771 772//772 777//777
f 778//778 779//779 770//770
f 780//780 781//781 779//779
f 782//782 783//783 784//784
f 777//777 772//772 783//783
f 769//769 778//778 770//770
f 775//775 776//776 785//785
f 776//776 786//786 785//785
f 778//778 780//780 779//779
f 782//782 784//784 787//787
f 785//785 786//786 788//788
f 786//786 789//789 788//788
f 777//777 783//783 782//782
f 787//787 784//784 790//790
f 791//791 790//790 781//781
f 780//780 791//791 781//781
f 791//791 787//787 790//790
f 788//788 789//789 792//792
f 793//793 794//794 795//795
f 796//796 797//797 794//794
f 796//796 794//794 793//793
f 793//793 795//795 798//798
f 799//799 800//800 801//801
f 802//802 803//803 797//797
f 798//798 795//795 804//804
f 805//805 806//806 803//803
f 807//807 804//804 808//808
f 796//796 802//802 797//797
f 798//798 804//804 807//807
f 799//799 801//801 809//809
f 801//801 810//810 809//809
f 802//802 805//805 803//803
f 807//807 808//808 811//811
f 809//809 810//810 812//812
f 810//810 813//813 812//812
f 814//814 815//815 806//806
f 811//811 808//808 816//816
f 817//817 818//818 815//815
f 819//819 816//816 820//820
f 805//805 814//814 806//806
f 811//811 816//816 819//819
f 812//812 813//813 821//821
f 813//813 822//822 821//821
f 814//814 817//817 815//815
f 819//819 820//820 823//823
f 821//821 822//822 824//824
f 822//822 825//825 824//824
f 823//823 820//820 826//826
f 827//827 826//826 818//818
f 817//817 827//827 818//818
f 823//823 826//826 827//827
f 824//824 825//825 828//828
f 829//829 830//830 831//831
f 832//832 833//833 830//830
f 829//829 832//832 830//830
f 829//829 831//831 834//834
f 835//835 836//836 837//837
f 838//838 839//839 833//833
f 834//834 831//831 840//840
f 841//841 842//842 839//839
f 843//843 840//840 844//844
f 832//832 838//838 833//833
f 834//834 840//840 843//843
f 837//837 836//836 845//845
f 836//836 846//846 845//845
f 838//838 841//841 839//839
f 843//843 844//844 847//847
f 845//845 846//846 848//848
f 846//846 849//849 848//848
f 850//850 851//851 842//842
f 847//847 844//844 852//852
f 853//853 854//854 851//851
f 855//855 852//852 856//856
f 841//841 850//850 842//842
f 847//847 852//852 855//855
f 848//848 849//849 857//857
f 849//849 858//858 857//857
f 850//850 853//853 851//851
f 855//855 856//856 859//859
f 857//857 858//858 860//860
f 858//858 861//861 860//860
f 859//859 856//856 862//862
f 863//863 862//862 854//854
f 853//853 863//863 854//854
f 863//863 859//859 862//862
f 860//860 861//861 864//864
f 865//865 866//866 867//867
f 868//868 869//869 866//866
f 865//865 868//868 866//866
f 865//865 867//867 870//870
f 871//871 872//872 873//873
f 874//874 875//875 876//876
f 870//870 867//867 877//877
f 878//878 876//876 869//869
f 879//879 877//877 880//880
f 878//878 874//874 876//876
f 868//868 878//878 869//869
f 870//870 877//877 879//879
f 873//873 872//872 881//881
f 872//872 882//882 881//881
f 879//879 880//880 883//883
f 881//881 882//882 884//884
f 882//882 885//885 884//884
f 886//886 887//887 875//875
f 883//883 880//880 888//888
f 889//889 890//890 887//887
f 891//891 888//888 892//892
f 874//874 886//886 875//875
f 883//883 888//888 891//891
f 884//884 885//885 893//893
f 885//885 894//894 893//893
f 886//886 889//889 887//887
f 891//891 892//892 895//895
f 893//893 894//894 896//896
f 894//894 897//897 896//896
f 898//898 899//899 890//890
f 895//895 892//892 899//899
f 889//889 898//898 890//890
f 898//898 895//895 899//899
f 896//896 897//897 900//900
f 901//901 902//902 903//903
f 901//901 903//903 904//904
f 905//905 906//906 902//902
f 907//907 908//908 906//906
f 901//901 905//905 902//902
f 909//909 910//910 911//911
f 905//905 907//907 906//906
f 911//911 912//912 913//913
f 904//904 903//903 914//914
f 904//904 914//914 915//915
f 909//909 916//916 910//910
f 915//915 914//914 917//917
f 918//918 917//917 919//919
f 915//915 917//917 918//918
f 911//911 910//910 912//912
f 918//918 919//919 920//920
f 912//912 921//921 913//913
f 922//922 923//923 908//908
f 924//924 925//925 923//923
f 907//907 922//922 908//908
f 913//913 921//921 926//926
f 922//922 924//924 923//923
f 926//926 927//927 928//928
f 929//929 930//930 925//925
f 924//924 929//929 925//925
f 920//920 919//919 931//931
f 932//932 931//931 933//933
f 920//920 931//931 932//932
f 926//926 921//921 927//927
f 932//932 933//933 934//934
f 928//928 927//927 935//935
f 934//934 933//933 930//930
f 934//934 930//930 929//929
f 928//928 935//935 936//936
f 937//937 938//938 939//939
f 940//940 939//939 941//941
f 940//940 937//937 939//939
f 940//940 941//941 942//942
f 943//943 944//944 945//945
f 942//942 941//941 946//946
f 947//947 948//948 938//938
f 949//949 950//950 948//948
f 951//951 946//946 952//952
f 937//937 947//947 938//938
f 942//942 946//946 951//951
f 945//945 944//944 953//953
f 953//953 944//944 954//954
f 947//947 949//949 948//948
f 953//953 954//954 955//955
f 954//954 956//956 955//955
f 951//951 952//952 957//957
f 958//958 959//959 950//950
f 960//960 961//961 959//959
f 962//962 963//963 964//964
f 957//957 952//952 963//963
f 949//949 958//958 950//950
f 955//955 956//956 965//965
f 956//956 966//966 965//965
f 958//958 960//960 959//959
f 962//962 964//964 967//967
f 965//965 966//966 968//968
f 968//968 966//966 969//969
f 957//957 963//963 962//962
f 967//967 964//964 970//970
f 971//971 970//970 961//961
f 960//960 971//971 961//961
f 971//971 967//967 970//970
f 968//968 969//969 972//972
f 973//973 974//974 975//975
f 976//976 977//977 974//974
f 973//973 976//976 974//974
f 973//973 975//975 978//978
f 979//979 980//980 981//981
f 982//982 983//983 977//977
f 978//978 975//975 984//984
f 985//985 986//986 983//983
f 987//987 984//984 988//988
f 976//976 982//982 977//977
f 978//978 984//984 987//987
f 981//981 980//980 989//989
f 980//980 990//990 989//989
f 982//982 985//985 983//983
f 987//987 988//988 991//991
f 989//989 990//990 992//992
f 990//990 993//993 992//992
f 994//994 995//995 986//986
f 991//991 988//988 996//996
f 997//997 998//998 995//995
f 999//999 996//996 1000//1000
f 985//985 994//994 986//986
f 991//991 996//996 999//999
f 992//992 993//993 1001//1001
f 993//993 1002//1002 1001//1001
f 994//994 997//997 995//995
f 999//999 1000//1000 1003//1003
f 1001//1001 1002//1002 1004//1004
f 1002//1002 1005//1005 1004//1004
f 1003//1003 1000//1000 1006//1006
f 1007//1007 1006//1006 998//998
f 997//997 1007//1007 998//998
f 1007//1007 1003//1003 1006//1006
f 1004//1004 1005//1005 1008//1008
