v -0.24566 -0.04666 -0.49000
v -0.24000 -0.04666 -0.49566
v -0.24000 -0.04900 -0.49000
v -0.24566 -0.04100 -0.49566
v -0.24800 -0.04100 -0.49000
v -0.24000 -0.04100 -0.49800
v -0.24566 0.04100 -0.49566
v -0.24566 -0.04666 0.49000
v -0.24800 0.04100 -0.49000
v -0.24000 0.04100 -0.49800
v -0.24800 0.04100 0.49000
v 0.24000 -0.04900 -0.49000
v 0.24000 -0.04100 -0.49800
v 0.24000 0.04100 -0.49800
v -0.24000 -0.04900 0.49000
v -0.24800 -0.04100 0.49000
v -0.24000 -0.04666 0.49566
v -0.24566 -0.04100 0.49566
v -0.24000 -0.04100 0.49800
v -0.24566 0.04100 0.49566
v -0.24000 0.04100 0.49800
v 0.24000 -0.04900 0.49000
v 0.24000 -0.04666 0.49566
v 0.24000 -0.04100 0.49800
v -0.24566 0.04666 -0.49000
v -0.24000 0.04666 -0.49566
v -0.24000 0.04900 -0.49000
v -0.18995 0.04900 -0.41250
v -0.16250 0.04900 -0.43995
v -0.20000 0.04900 -0.37500
v -0.20000 0.04900 -0.12500
v -0.18995 0.04900 -0.33750
v -0.12500 0.04900 -0.45000
v -0.18995 0.04900 -0.16250
v -0.16250 0.04900 -0.31005
v -0.12500 0.04900 -0.20000
v -0.12500 0.04900 -0.30000
v -0.24000 0.04900 0.49000
v -0.20000 0.04900 0.12500
v -0.18995 0.04900 -0.08750
v -0.16250 0.04900 -0.18995
v -0.18995 0.04900 0.08750
v -0.16250 0.04900 -0.06005
v -0.16250 0.04900 0.06005
v -0.12500 0.04900 -0.05000
v 0.24000 0.04666 -0.49566
v 0.12500 0.04900 -0.45000
v -0.08750 0.04900 -0.31005
v -0.08750 0.04900 -0.43995
v 0.08750 0.04900 -0.43995
v -0.06005 0.04900 -0.41250
v -0.05000 0.04900 -0.37500
v 0.05000 0.04900 -0.37500
v -0.06005 0.04900 -0.33750
v 0.06005 0.04900 -0.16250
v -0.08750 0.04900 -0.18995
v -0.06005 0.04900 -0.16250
v -0.08750 0.04900 0.06005
v -0.08750 0.04900 -0.06005
v -0.05000 0.04900 -0.12500
v 0.05000 0.04900 -0.12500
v -0.06005 0.04900 -0.08750
v -0.24566 0.04666 0.49000
v -0.20000 0.04900 0.37500
v -0.18995 0.04900 0.16250
v -0.12500 0.04900 0.05000
v -0.18995 0.04900 0.33750
v -0.16250 0.04900 0.18995
v -0.12500 0.04900 0.30000
v -0.12500 0.04900 0.20000
v -0.24000 0.04666 0.49566
v -0.18995 0.04900 0.41250
v -0.16250 0.04900 0.43995
v -0.16250 0.04900 0.31005
v -0.12500 0.04900 0.45000
v -0.08750 0.04900 0.31005
v -0.08750 0.04900 0.18995
v -0.06005 0.04900 0.16250
v -0.06005 0.04900 0.08750
v -0.05000 0.04900 0.12500
v 0.24000 0.04100 0.49800
v -0.06005 0.04900 0.33750
v 0.12500 0.04900 0.45000
v 0.24000 0.04900 0.49000
v 0.06005 0.04900 0.33750
v -0.05000 0.04900 0.37500
v 0.05000 0.04900 0.37500
v -0.06005 0.04900 0.41250
v -0.08750 0.04900 0.43995
v 0.08750 0.04900 0.43995
v 0.24000 -0.04666 -0.49566
v 0.24566 -0.04666 -0.49000
v 0.24566 -0.04100 -0.49566
v 0.24800 -0.04100 -0.49000
v 0.24800 0.04100 -0.49000
v 0.24566 -0.04666 0.49000
v 0.24800 -0.04100 0.49000
v 0.24566 0.04100 -0.49566
v 0.24566 -0.04100 0.49566
v 0.24800 0.04100 0.49000
v 0.24566 0.04100 0.49566
v 0.06005 0.04900 -0.41250
v 0.24000 0.04900 -0.49000
v 0.06005 0.04900 -0.33750
v 0.08750 0.04900 -0.31005
v 0.08750 0.04900 -0.18995
v 0.12500 0.04900 -0.20000
v 0.12500 0.04900 -0.30000
v 0.06005 0.04900 -0.08750
v 0.08750 0.04900 -0.06005
v 0.16250 0.04900 -0.43995
v 0.16250 0.04900 -0.18995
v 0.16250 0.04900 -0.31005
v 0.18995 0.04900 -0.16250
v 0.18995 0.04900 -0.33750
v 0.24566 0.04666 -0.49000
v 0.18995 0.04900 -0.41250
v 0.20000 0.04900 -0.37500
v 0.20000 0.04900 -0.12500
v 0.16250 0.04900 -0.06005
v 0.16250 0.04900 0.06005
v 0.18995 0.04900 -0.08750
v 0.20000 0.04900 0.12500
v 0.18995 0.04900 0.08750
v 0.12500 0.04900 -0.05000
v 0.06005 0.04900 0.08750
v 0.05000 0.04900 0.12500
v 0.06005 0.04900 0.16250
v 0.08750 0.04900 0.06005
v 0.08750 0.04900 0.18995
v 0.08750 0.04900 0.31005
v 0.12500 0.04900 0.20000
v 0.06005 0.04900 0.41250
v 0.12500 0.04900 0.30000
v 0.24000 0.04666 0.49566
v 0.12500 0.04900 0.05000
v 0.16250 0.04900 0.18995
v 0.16250 0.04900 0.31005
v 0.18995 0.04900 0.16250
v 0.18995 0.04900 0.33750
v 0.24566 0.04666 0.49000
v 0.16250 0.04900 0.43995
v 0.20000 0.04900 0.37500
v 0.18995 0.04900 0.41250
v -0.18995 0.09900 -0.41250
v -0.18995 0.04900 -0.41250
v -0.20000 0.04900 -0.37500
v -0.20000 0.09900 -0.37500
v -0.18995 0.04900 -0.33750
v -0.18995 0.09900 -0.41250
v -0.20000 0.09900 -0.37500
v -0.18995 0.09900 -0.33750
v -0.18995 0.09900 -0.33750
v -0.16250 0.09900 -0.43995
v -0.16250 0.04900 -0.43995
v -0.12500 0.09900 -0.45000
v -0.12500 0.04900 -0.45000
v -0.16250 0.04900 -0.31005
v -0.16250 0.09900 -0.31005
v -0.12500 0.04900 -0.30000
v -0.16250 0.09900 -0.43995
v -0.16250 0.09900 -0.31005
v -0.12500 0.09900 -0.45000
v -0.12500 0.09900 -0.30000
v -0.12500 0.09900 -0.30000
v -0.08750 0.09900 -0.43995
v -0.08750 0.04900 -0.43995
v -0.06005 0.09900 -0.41250
v -0.06005 0.04900 -0.41250
v -0.08750 0.04900 -0.31005
v -0.08750 0.09900 -0.31005
v -0.06005 0.04900 -0.33750
v -0.08750 0.09900 -0.43995
v -0.08750 0.09900 -0.31005
v -0.06005 0.09900 -0.41250
v -0.06005 0.09900 -0.33750
v -0.06005 0.09900 -0.33750
v -0.05000 0.09900 -0.37500
v -0.05000 0.04900 -0.37500
v -0.05000 0.09900 -0.37500
v -0.18995 0.09900 -0.16250
v -0.18995 0.04900 -0.16250
v -0.20000 0.04900 -0.12500
v -0.20000 0.09900 -0.12500
v -0.18995 0.04900 -0.08750
v -0.18995 0.09900 -0.16250
v -0.20000 0.09900 -0.12500
v -0.18995 0.09900 -0.08750
v -0.18995 0.09900 -0.08750
v -0.16250 0.09900 -0.18995
v -0.16250 0.04900 -0.18995
v -0.12500 0.09900 -0.20000
v -0.12500 0.04900 -0.20000
v -0.16250 0.04900 -0.06005
v -0.16250 0.09900 -0.06005
v -0.12500 0.04900 -0.05000
v -0.16250 0.09900 -0.18995
v -0.16250 0.09900 -0.06005
v -0.12500 0.09900 -0.20000
v -0.12500 0.09900 -0.05000
v -0.12500 0.09900 -0.05000
v -0.08750 0.09900 -0.18995
v -0.08750 0.04900 -0.18995
v -0.06005 0.09900 -0.16250
v -0.06005 0.04900 -0.16250
v -0.08750 0.04900 -0.06005
v -0.08750 0.09900 -0.06005
v -0.06005 0.04900 -0.08750
v -0.08750 0.09900 -0.18995
v -0.08750 0.09900 -0.06005
v -0.06005 0.09900 -0.16250
v -0.06005 0.09900 -0.08750
v -0.06005 0.09900 -0.08750
v -0.05000 0.09900 -0.12500
v -0.05000 0.04900 -0.12500
v -0.05000 0.09900 -0.12500
v -0.18995 0.09900 0.08750
v -0.18995 0.04900 0.08750
v -0.20000 0.04900 0.12500
v -0.20000 0.09900 0.12500
v -0.18995 0.04900 0.16250
v -0.18995 0.09900 0.16250
v -0.18995 0.09900 0.08750
v -0.20000 0.09900 0.12500
v -0.18995 0.09900 0.16250
v -0.16250 0.09900 0.06005
v -0.16250 0.04900 0.06005
v -0.12500 0.09900 0.05000
v -0.12500 0.04900 0.05000
v -0.16250 0.04900 0.18995
v -0.16250 0.09900 0.18995
v -0.12500 0.04900 0.20000
v -0.16250 0.09900 0.06005
v -0.16250 0.09900 0.18995
v -0.12500 0.09900 0.05000
v -0.12500 0.09900 0.20000
v -0.12500 0.09900 0.20000
v -0.08750 0.09900 0.06005
v -0.08750 0.04900 0.06005
v -0.06005 0.09900 0.08750
v -0.06005 0.04900 0.08750
v -0.08750 0.04900 0.18995
v -0.08750 0.09900 0.18995
v -0.06005 0.04900 0.16250
v -0.08750 0.09900 0.06005
v -0.08750 0.09900 0.18995
v -0.06005 0.09900 0.08750
v -0.06005 0.09900 0.16250
v -0.06005 0.09900 0.16250
v -0.05000 0.09900 0.12500
v -0.05000 0.04900 0.12500
v -0.05000 0.09900 0.12500
v -0.18995 0.09900 0.33750
v -0.18995 0.04900 0.33750
v -0.20000 0.04900 0.37500
v -0.20000 0.09900 0.37500
v -0.18995 0.04900 0.41250
v -0.18995 0.09900 0.41250
v -0.18995 0.09900 0.33750
v -0.20000 0.09900 0.37500
v -0.18995 0.09900 0.41250
v -0.16250 0.09900 0.31005
v -0.16250 0.04900 0.31005
v -0.12500 0.09900 0.30000
v -0.12500 0.04900 0.30000
v -0.16250 0.04900 0.43995
v -0.16250 0.09900 0.43995
v -0.12500 0.04900 0.45000
v -0.16250 0.09900 0.31005
v -0.16250 0.09900 0.43995
v -0.12500 0.09900 0.30000
v -0.12500 0.09900 0.45000
v -0.12500 0.09900 0.45000
v -0.08750 0.09900 0.31005
v -0.08750 0.04900 0.31005
v -0.06005 0.09900 0.33750
v -0.06005 0.04900 0.33750
v -0.08750 0.04900 0.43995
v -0.08750 0.09900 0.43995
v -0.06005 0.04900 0.41250
v -0.08750 0.09900 0.31005
v -0.08750 0.09900 0.43995
v -0.06005 0.09900 0.33750
v -0.06005 0.09900 0.41250
v -0.06005 0.09900 0.41250
v -0.05000 0.09900 0.37500
v -0.05000 0.04900 0.37500
v -0.05000 0.09900 0.37500
v 0.06005 0.09900 -0.41250
v 0.06005 0.04900 -0.41250
v 0.05000 0.04900 -0.37500
v 0.05000 0.09900 -0.37500
v 0.06005 0.04900 -0.33750
v 0.06005 0.09900 -0.41250
v 0.05000 0.09900 -0.37500
v 0.06005 0.09900 -0.33750
v 0.06005 0.09900 -0.33750
v 0.08750 0.09900 -0.43995
v 0.08750 0.04900 -0.43995
v 0.12500 0.09900 -0.45000
v 0.12500 0.04900 -0.45000
v 0.08750 0.04900 -0.31005
v 0.08750 0.09900 -0.31005
v 0.12500 0.04900 -0.30000
v 0.08750 0.09900 -0.43995
v 0.08750 0.09900 -0.31005
v 0.12500 0.09900 -0.45000
v 0.12500 0.09900 -0.30000
v 0.12500 0.09900 -0.30000
v 0.16250 0.09900 -0.43995
v 0.16250 0.04900 -0.43995
v 0.18995 0.09900 -0.41250
v 0.18995 0.04900 -0.41250
v 0.16250 0.04900 -0.31005
v 0.16250 0.09900 -0.31005
v 0.18995 0.04900 -0.33750
v 0.16250 0.09900 -0.43995
v 0.16250 0.09900 -0.31005
v 0.18995 0.09900 -0.41250
v 0.18995 0.09900 -0.33750
v 0.18995 0.09900 -0.33750
v 0.20000 0.09900 -0.37500
v 0.20000 0.04900 -0.37500
v 0.20000 0.09900 -0.37500
v 0.06005 0.09900 -0.16250
v 0.06005 0.04900 -0.16250
v 0.05000 0.04900 -0.12500
v 0.05000 0.09900 -0.12500
v 0.06005 0.04900 -0.08750
v 0.06005 0.09900 -0.16250
v 0.05000 0.09900 -0.12500
v 0.06005 0.09900 -0.08750
v 0.06005 0.09900 -0.08750
v 0.08750 0.09900 -0.18995
v 0.08750 0.04900 -0.18995
v 0.12500 0.09900 -0.20000
v 0.12500 0.04900 -0.20000
v 0.08750 0.04900 -0.06005
v 0.08750 0.09900 -0.06005
v 0.12500 0.04900 -0.05000
v 0.08750 0.09900 -0.18995
v 0.08750 0.09900 -0.06005
v 0.12500 0.09900 -0.20000
v 0.12500 0.09900 -0.05000
v 0.12500 0.09900 -0.05000
v 0.16250 0.09900 -0.18995
v 0.16250 0.04900 -0.18995
v 0.18995 0.09900 -0.16250
v 0.18995 0.04900 -0.16250
v 0.16250 0.04900 -0.06005
v 0.16250 0.09900 -0.06005
v 0.18995 0.04900 -0.08750
v 0.16250 0.09900 -0.18995
v 0.16250 0.09900 -0.06005
v 0.18995 0.09900 -0.16250
v 0.18995 0.09900 -0.08750
v 0.18995 0.09900 -0.08750
v 0.20000 0.09900 -0.12500
v 0.20000 0.04900 -0.12500
v 0.20000 0.09900 -0.12500
v 0.06005 0.09900 0.08750
v 0.06005 0.04900 0.08750
v 0.05000 0.04900 0.12500
v 0.05000 0.09900 0.12500
v 0.06005 0.04900 0.16250
v 0.06005 0.09900 0.16250
v 0.06005 0.09900 0.08750
v 0.05000 0.09900 0.12500
v 0.06005 0.09900 0.16250
v 0.08750 0.09900 0.06005
v 0.08750 0.04900 0.06005
v 0.12500 0.09900 0.05000
v 0.12500 0.04900 0.05000
v 0.08750 0.04900 0.18995
v 0.08750 0.09900 0.18995
v 0.12500 0.04900 0.20000
v 0.08750 0.09900 0.06005
v 0.08750 0.09900 0.18995
v 0.12500 0.09900 0.05000
v 0.12500 0.09900 0.20000
v 0.12500 0.09900 0.20000
v 0.16250 0.09900 0.06005
v 0.16250 0.04900 0.06005
v 0.18995 0.09900 0.08750
v 0.18995 0.04900 0.08750
v 0.16250 0.04900 0.18995
v 0.16250 0.09900 0.18995
v 0.18995 0.04900 0.16250
v 0.16250 0.09900 0.06005
v 0.16250 0.09900 0.18995
v 0.18995 0.09900 0.08750
v 0.18995 0.09900 0.16250
v 0.18995 0.09900 0.16250
v 0.20000 0.09900 0.12500
v 0.20000 0.04900 0.12500
v 0.20000 0.09900 0.12500
v 0.06005 0.09900 0.33750
v 0.06005 0.04900 0.33750
v 0.05000 0.04900 0.37500
v 0.05000 0.09900 0.37500
v 0.06005 0.04900 0.41250
v 0.06005 0.09900 0.41250
v 0.06005 0.09900 0.33750
v 0.05000 0.09900 0.37500
v 0.06005 0.09900 0.41250
v 0.08750 0.09900 0.31005
v 0.08750 0.04900 0.31005
v 0.12500 0.09900 0.30000
v 0.12500 0.04900 0.30000
v 0.08750 0.04900 0.43995
v 0.08750 0.09900 0.43995
v 0.12500 0.04900 0.45000
v 0.08750 0.09900 0.31005
v 0.08750 0.09900 0.43995
v 0.12500 0.09900 0.30000
v 0.12500 0.09900 0.45000
v 0.12500 0.09900 0.45000
v 0.16250 0.09900 0.31005
v 0.16250 0.04900 0.31005
v 0.18995 0.09900 0.33750
v 0.18995 0.04900 0.33750
v 0.16250 0.04900 0.43995
v 0.16250 0.09900 0.43995
v 0.18995 0.04900 0.41250
v 0.16250 0.09900 0.31005
v 0.16250 0.09900 0.43995
v 0.18995 0.09900 0.33750
v 0.18995 0.09900 0.41250
v 0.18995 0.09900 0.41250
v 0.20000 0.09900 0.37500
v 0.20000 0.04900 0.37500
v 0.20000 0.09900 0.37500
vn -0.6887 -0.6887 -0.2265
vn -0.2265 -0.6887 -0.6887
vn -0.1877 -0.9641 -0.1877
vn -0.6887 -0.2265 -0.6887
vn -0.9641 -0.1877 -0.1877
vn -0.1877 -0.1877 -0.9641
vn -0.6887 0.2265 -0.6887
vn -0.6887 -0.6887 0.2265
vn -0.9641 0.1877 -0.1877
vn -0.1877 0.1877 -0.9641
vn -0.9641 0.1877 0.1877
vn 0.1877 -0.9641 -0.1877
vn 0.1877 -0.1877 -0.9641
vn 0.1877 0.1877 -0.9641
vn -0.1877 -0.9641 0.1877
vn -0.9641 -0.1877 0.1877
vn -0.2265 -0.6887 0.6887
vn -0.6887 -0.2265 0.6887
vn -0.1877 -0.1877 0.9641
vn -0.6887 0.2265 0.6887
vn -0.1877 0.1877 0.9641
vn 0.1877 -0.9641 0.1877
vn 0.2265 -0.6887 0.6887
vn 0.1877 -0.1877 0.9641
vn -0.6887 0.6887 -0.2265
vn -0.2265 0.6887 -0.6887
vn -0.1877 0.9641 -0.1877
vn 0.0000 1.0000 0.0000
vn 0.0000 1.0000 0.0000
vn 0.0000 1.0000 0.0000
vn 0.0000 1.0000 0.0000
vn 0.0000 1.0000 0.0000
vn 0.0000 1.0000 0.0000
vn 0.0000 1.0000 0.0000
vn 0.0000 1.0000 0.0000
vn 0.0000 1.0000 0.0000
vn 0.0000 1.0000 0.0000
vn -0.1877 0.9641 0.1877
vn 0.0000 1.0000 0.0000
vn 0.0000 1.0000 0.0000
vn 0.0000 1.0000 0.0000
vn 0.0000 1.0000 0.0000
vn 0.0000 1.0000 0.0000
vn 0.0000 1.0000 0.0000
vn 0.0000 1.0000 0.0000
vn 0.2265 0.6887 -0.6887
vn 0.0000 1.0000 0.0000
vn 0.0000 1.0000 0.0000
vn 0.0000 1.0000 0.0000
vn 0.0000 1.0000 0.0000
vn 0.0000 1.0000 0.0000
vn 0.0000 1.0000 0.0000
vn 0.0000 1.0000 0.0000
vn 0.0000 1.0000 0.0000
vn 0.0000 1.0000 0.0000
vn 0.0000 1.0000 0.0000
vn 0.0000 1.0000 0.0000
vn 0.0000 1.0000 0.0000
vn 0.0000 1.0000 0.0000
vn 0.0000 1.0000 0.0000
vn 0.0000 1.0000 0.0000
vn 0.0000 1.0000 0.0000
vn -0.6887 0.6887 0.2265
vn 0.0000 1.0000 0.0000
vn 0.0000 1.0000 0.0000
vn 0.0000 1.0000 0.0000
vn 0.0000 1.0000 0.0000
vn 0.0000 1.0000 0.0000
vn 0.0000 1.0000 0.0000
vn 0.0000 1.0000 0.0000
vn -0.2265 0.6887 0.6887
vn 0.0000 1.0000 0.0000
vn 0.0000 1.0000 0.0000
vn 0.0000 1.0000 0.0000
vn 0.0000 1.0000 0.0000
vn 0.0000 1.0000 0.0000
vn 0.0000 1.0000 0.0000
vn 0.0000 1.0000 0.0000
vn 0.0000 1.0000 0.0000
vn 0.0000 1.0000 0.0000
vn 0.1877 0.1877 0.9641
vn 0.0000 1.0000 0.0000
vn 0.0000 1.0000 0.0000
vn 0.1877 0.9641 0.1877
vn 0.0000 1.0000 0.0000
vn 0.0000 1.0000 0.0000
vn 0.0000 1.0000 0.0000
vn 0.0000 1.0000 0.0000
vn 0.0000 1.0000 0.0000
vn 0.0000 1.0000 0.0000
vn 0.2265 -0.6887 -0.6887
vn 0.6887 -0.6887 -0.2265
vn 0.6887 -0.2265 -0.6887
vn 0.9641 -0.1877 -0.1877
vn 0.9641 0.1877 -0.1877
vn 0.6887 -0.6887 0.2265
vn 0.9641 -0.1877 0.1877
vn 0.6887 0.2265 -0.6887
vn 0.6887 -0.2265 0.6887
vn 0.9641 0.1877 0.1877
vn 0.6887 0.2265 0.6887
vn 0.0000 1.0000 0.0000
vn 0.1877 0.9641 -0.1877
vn 0.0000 1.0000 0.0000
vn 0.0000 1.0000 0.0000
vn 0.0000 1.0000 0.0000
vn 0.0000 1.0000 0.0000
vn 0.0000 1.0000 0.0000
vn 0.0000 1.0000 0.0000
vn 0.0000 1.0000 0.0000
vn 0.0000 1.0000 0.0000
vn 0.0000 1.0000 0.0000
vn 0.0000 1.0000 0.0000
vn 0.0000 1.0000 0.0000
vn 0.0000 1.0000 0.0000
vn 0.6887 0.6887 -0.2265
vn 0.0000 1.0000 0.0000
vn 0.0000 1.0000 0.0000
vn 0.0000 1.0000 0.0000
vn 0.0000 1.0000 0.0000
vn 0.0000 1.0000 0.0000
vn 0.0000 1.0000 0.0000
vn 0.0000 1.0000 0.0000
vn 0.0000 1.0000 0.0000
vn 0.0000 1.0000 0.0000
vn 0.0000 1.0000 0.0000
vn 0.0000 1.0000 0.0000
vn 0.0000 1.0000 0.0000
vn 0.0000 1.0000 0.0000
vn 0.0000 1.0000 0.0000
vn 0.0000 1.0000 0.0000
vn 0.0000 1.0000 0.0000
vn 0.0000 1.0000 0.0000
vn 0.0000 1.0000 0.0000
vn 0.2265 0.6887 0.6887
vn 0.0000 1.0000 0.0000
vn 0.0000 1.0000 0.0000
vn 0.0000 1.0000 0.0000
vn 0.0000 1.0000 0.0000
vn 0.0000 1.0000 0.0000
vn 0.6887 0.6887 0.2265
vn 0.0000 1.0000 0.0000
vn 0.0000 1.0000 0.0000
vn 0.0000 1.0000 0.0000
vn -0.8660 0.0000 -0.5000
vn -0.8660 0.0000 -0.5000
vn -1.0000 0.0000 0.0000
vn -1.0000 0.0000 0.0000
vn -0.8660 0.0000 0.5000
vn 0.0000 1.0000 0.0000
vn 0.0000 1.0000 0.0000
vn 0.0000 1.0000 0.0000
vn -0.8660 0.0000 0.5000
vn -0.5000 0.0000 -0.8660
vn -0.5000 0.0000 -0.8660
vn 0.0000 0.0000 -1.0000
vn -0.0000 0.0000 -1.0000
vn -0.5000 0.0000 0.8660
vn -0.5000 0.0000 0.8660
vn 0.0000 0.0000 1.0000
vn 0.0000 1.0000 0.0000
vn 0.0000 1.0000 0.0000
vn 0.0000 1.0000 0.0000
vn -0.0000 0.0000 1.0000
vn 0.0000 1.0000 0.0000
vn 0.5000 0.0000 -0.8660
vn 0.5000 0.0000 -0.8660
vn 0.8660 0.0000 -0.5000
vn 0.8660 0.0000 -0.5000
vn 0.5000 0.0000 0.8660
vn 0.5000 0.0000 0.8660
vn 0.8660 0.0000 0.5000
vn 0.0000 1.0000 0.0000
vn 0.0000 1.0000 0.0000
vn 0.0000 1.0000 0.0000
vn 0.8660 0.0000 0.5000
vn 0.0000 1.0000 0.0000
vn 1.0000 0.0000 0.0000
vn 1.0000 0.0000 0.0000
vn 0.0000 1.0000 0.0000
vn -0.8660 0.0000 -0.5000
vn -0.8660 0.0000 -0.5000
vn -1.0000 0.0000 0.0000
vn -1.0000 0.0000 0.0000
vn -0.8660 0.0000 0.5000
vn 0.0000 1.0000 0.0000
vn 0.0000 1.0000 0.0000
vn 0.0000 1.0000 0.0000
vn -0.8660 0.0000 0.5000
vn -0.5000 0.0000 -0.8660
vn -0.5000 0.0000 -0.8660
vn 0.0000 0.0000 -1.0000
vn -0.0000 0.0000 -1.0000
vn -0.5000 0.0000 0.8660
vn -0.5000 0.0000 0.8660
vn 0.0000 0.0000 1.0000
vn 0.0000 1.0000 0.0000
vn 0.0000 1.0000 0.0000
vn 0.0000 1.0000 0.0000
vn -0.0000 0.0000 1.0000
vn 0.0000 1.0000 0.0000
vn 0.5000 0.0000 -0.8660
vn 0.5000 0.0000 -0.8660
vn 0.8660 0.0000 -0.5000
vn 0.8660 0.0000 -0.5000
vn 0.5000 0.0000 0.8660
vn 0.5000 0.0000 0.8660
vn 0.8660 0.0000 0.5000
vn 0.0000 1.0000 0.0000
vn 0.0000 1.0000 0.0000
vn 0.0000 1.0000 0.0000
vn 0.8660 0.0000 0.5000
vn 0.0000 1.0000 0.0000
vn 1.0000 0.0000 0.0000
vn 1.0000 0.0000 0.0000
vn 0.0000 1.0000 0.0000
vn -0.8660 0.0000 -0.5000
vn -0.8660 0.0000 -0.5000
vn -1.0000 0.0000 0.0000
vn -1.0000 0.0000 0.0000
vn -0.8660 0.0000 0.5000
vn -0.8660 0.0000 0.5000
vn 0.0000 1.0000 0.0000
vn 0.0000 1.0000 0.0000
vn 0.0000 1.0000 0.0000
vn -0.5000 0.0000 -0.8660
vn -0.5000 0.0000 -0.8660
vn 0.0000 0.0000 -1.0000
vn -0.0000 0.0000 -1.0000
vn -0.5000 0.0000 0.8660
vn -0.5000 0.0000 0.8660
vn 0.0000 0.0000 1.0000
vn 0.0000 1.0000 0.0000
vn 0.0000 1.0000 0.0000
vn 0.0000 1.0000 0.0000
vn -0.0000 0.0000 1.0000
vn 0.0000 1.0000 0.0000
vn 0.5000 0.0000 -0.8660
vn 0.5000 0.0000 -0.8660
vn 0.8660 0.0000 -0.5000
vn 0.8660 0.0000 -0.5000
vn 0.5000 0.0000 0.8660
vn 0.5000 0.0000 0.8660
vn 0.8660 0.0000 0.5000
vn 0.0000 1.0000 0.0000
vn 0.0000 1.0000 0.0000
vn 0.0000 1.0000 0.0000
vn 0.8660 0.0000 0.5000
vn 0.0000 1.0000 0.0000
vn 1.0000 0.0000 0.0000
vn 1.0000 0.0000 0.0000
vn 0.0000 1.0000 0.0000
vn -0.8660 0.0000 -0.5000
vn -0.8660 0.0000 -0.5000
vn -1.0000 0.0000 0.0000
vn -1.0000 0.0000 0.0000
vn -0.8660 0.0000 0.5000
vn -0.8660 0.0000 0.5000
vn 0.0000 1.0000 0.0000
vn 0.0000 1.0000 0.0000
vn 0.0000 1.0000 0.0000
vn -0.5000 0.0000 -0.8660
vn -0.5000 0.0000 -0.8660
vn 0.0000 0.0000 -1.0000
vn -0.0000 0.0000 -1.0000
vn -0.5000 0.0000 0.8660
vn -0.5000 0.0000 0.8660
vn 0.0000 0.0000 1.0000
vn 0.0000 1.0000 0.0000
vn 0.0000 1.0000 0.0000
vn 0.0000 1.0000 0.0000
vn -0.0000 0.0000 1.0000
vn 0.0000 1.0000 0.0000
vn 0.5000 0.0000 -0.8660
vn 0.5000 0.0000 -0.8660
vn 0.8660 0.0000 -0.5000
vn 0.8660 0.0000 -0.5000
vn 0.5000 0.0000 0.8660
vn 0.5000 0.0000 0.8660
vn 0.8660 0.0000 0.5000
vn 0.0000 1.0000 0.0000
vn 0.0000 1.0000 0.0000
vn 0.0000 1.0000 0.0000
vn 0.8660 0.0000 0.5000
vn 0.0000 1.0000 0.0000
vn 1.0000 0.0000 0.0000
vn 1.0000 0.0000 0.0000
vn 0.0000 1.0000 0.0000
vn -0.8660 0.0000 -0.5000
vn -0.8660 0.0000 -0.5000
vn -1.0000 0.0000 0.0000
vn -1.0000 0.0000 -0.0000
vn -0.8660 0.0000 0.5000
vn 0.0000 1.0000 0.0000
vn 0.0000 1.0000 0.0000
vn 0.0000 1.0000 0.0000
vn -0.8660 0.0000 0.5000
vn -0.5000 0.0000 -0.8660
vn -0.5000 0.0000 -0.8660
vn 0.0000 0.0000 -1.0000
vn -0.0000 0.0000 -1.0000
vn -0.5000 0.0000 0.8660
vn -0.5000 0.0000 0.8660
vn 0.0000 0.0000 1.0000
vn 0.0000 1.0000 0.0000
vn 0.0000 1.0000 0.0000
vn 0.0000 1.0000 0.0000
vn -0.0000 0.0000 1.0000
vn 0.0000 1.0000 0.0000
vn 0.5000 0.0000 -0.8660
vn 0.5000 0.0000 -0.8660
vn 0.8660 0.0000 -0.5000
vn 0.8660 0.0000 -0.5000
vn 0.5000 0.0000 0.8660
vn 0.5000 0.0000 0.8660
vn 0.8660 0.0000 0.5000
vn 0.0000 1.0000 0.0000
vn 0.0000 1.0000 0.0000
vn 0.0000 1.0000 0.0000
vn 0.8660 0.0000 0.5000
vn 0.0000 1.0000 0.0000
vn 1.0000 0.0000 0.0000
vn 1.0000 0.0000 -0.0000
vn 0.0000 1.0000 0.0000
vn -0.8660 0.0000 -0.5000
vn -0.8660 0.0000 -0.5000
vn -1.0000 0.0000 0.0000
vn -1.0000 0.0000 -0.0000
vn -0.8660 0.0000 0.5000
vn 0.0000 1.0000 0.0000
vn 0.0000 1.0000 0.0000
vn 0.0000 1.0000 0.0000
vn -0.8660 0.0000 0.5000
vn -0.5000 0.0000 -0.8660
vn -0.5000 0.0000 -0.8660
vn 0.0000 0.0000 -1.0000
vn -0.0000 0.0000 -1.0000
vn -0.5000 0.0000 0.8660
vn -0.5000 0.0000 0.8660
vn 0.0000 0.0000 1.0000
vn 0.0000 1.0000 0.0000
vn 0.0000 1.0000 0.0000
vn 0.0000 1.0000 0.0000
vn -0.0000 0.0000 1.0000
vn 0.0000 1.0000 0.0000
vn 0.5000 0.0000 -0.8660
vn 0.5000 0.0000 -0.8660
vn 0.8660 0.0000 -0.5000
vn 0.8660 0.0000 -0.5000
vn 0.5000 0.0000 0.8660
vn 0.5000 0.0000 0.8660
vn 0.8660 0.0000 0.5000
vn 0.0000 1.0000 0.0000
vn 0.0000 1.0000 0.0000
vn 0.0000 1.0000 0.0000
vn 0.8660 0.0000 0.5000
vn 0.0000 1.0000 0.0000
vn 1.0000 0.0000 0.0000
vn 1.0000 0.0000 -0.0000
vn 0.0000 1.0000 0.0000
vn -0.8660 0.0000 -0.5000
vn -0.8660 0.0000 -0.5000
vn -1.0000 0.0000 0.0000
vn -1.0000 0.0000 -0.0000
vn -0.8660 0.0000 0.5000
vn -0.8660 0.0000 0.5000
vn 0.0000 1.0000 0.0000
vn 0.0000 1.0000 0.0000
vn 0.0000 1.0000 0.0000
vn -0.5000 0.0000 -0.8660
vn -0.5000 0.0000 -0.8660
vn 0.0000 0.0000 -1.0000
vn -0.0000 0.0000 -1.0000
vn -0.5000 0.0000 0.8660
vn -0.5000 0.0000 0.8660
vn 0.0000 0.0000 1.0000
vn 0.0000 1.0000 0.0000
vn 0.0000 1.0000 0.0000
vn 0.0000 1.0000 0.0000
vn -0.0000 0.0000 1.0000
vn 0.0000 1.0000 0.0000
vn 0.5000 0.0000 -0.8660
vn 0.5000 0.0000 -0.8660
vn 0.8660 0.0000 -0.5000
vn 0.8660 0.0000 -0.5000
vn 0.5000 0.0000 0.8660
vn 0.5000 0.0000 0.8660
vn 0.8660 0.0000 0.5000
vn 0.0000 1.0000 0.0000
vn 0.0000 1.0000 0.0000
vn 0.0000 1.0000 0.0000
vn 0.8660 0.0000 0.5000
vn 0.0000 1.0000 0.0000
vn 1.0000 0.0000 0.0000
vn 1.0000 0.0000 -0.0000
vn 0.0000 1.0000 0.0000
vn -0.8660 0.0000 -0.5000
vn -0.8660 0.0000 -0.5000
vn -1.0000 0.0000 0.0000
vn -1.0000 0.0000 -0.0000
vn -0.8660 0.0000 0.5000
vn -0.8660 0.0000 0.5000
vn 0.0000 1.0000 0.0000
vn 0.0000 1.0000 0.0000
vn 0.0000 1.0000 0.0000
vn -0.5000 0.0000 -0.8660
vn -0.5000 0.0000 -0.8660
vn 0.0000 0.0000 -1.0000
vn -0.0000 0.0000 -1.0000
vn -0.5000 0.0000 0.8660
vn -0.5000 0.0000 0.8660
vn 0.0000 0.0000 1.0000
vn 0.0000 1.0000 0.0000
vn 0.0000 1.0000 0.0000
vn 0.0000 1.0000 0.0000
vn -0.0000 0.0000 1.0000
vn 0.0000 1.0000 0.0000
vn 0.5000 0.0000 -0.8660
vn 0.5000 0.0000 -0.8660
vn 0.8660 0.0000 -0.5000
vn 0.8660 0.0000 -0.5000
vn 0.5000 0.0000 0.8660
vn 0.5000 0.0000 0.8660
vn 0.8660 0.0000 0.5000
vn 0.0000 1.0000 0.0000
vn 0.0000 1.0000 0.0000
vn 0.0000 1.0000 0.0000
vn 0.8660 0.0000 0.5000
vn 0.0000 1.0000 0.0000
vn 1.0000 0.0000 0.0000
vn 1.0000 0.0000 -0.0000
vn 0.0000 1.0000 0.0000
f 1//1 2//2 3//3
f 1//1 4//4 2//2
f 1//1 5//5 4//4
f 2//2 4//4 6//6
f 4//4 5//5 7//7
f 4//4 7//7 6//6
f 1//1 3//3 8//8
f 1//1 8//8 5//5
f 5//5 9//9 7//7
f 6//6 7//7 10//10
f 5//5 11//11 9//9
f 3//3 2//2 12//12
f 2//2 6//6 13//13
f 6//6 10//10 14//14
f 3//3 15//15 8//8
f 5//5 8//8 16//16
f 5//5 16//16 11//11
f 8//8 15//15 17//17
f 8//8 17//17 18//18
f 8//8 18//18 16//16
f 17//17 19//19 18//18
f 16//16 18//18 20//20
f 18//18 19//19 20//20
f 16//16 20//20 11//11
f 19//19 21//21 20//20
f 3//3 22//22 15//15
f 15//15 23//23 17//17
f 17//17 23//23 19//19
f 19//19 24//24 21//21
f 7//7 9//9 25//25
f 7//7 26//26 10//10
f 7//7 25//25 26//26
f 25//25 27//27 26//26
f 27//27 28//28 29//29
f 27//27 30//30 28//28
f 27//27 31//31 30//30
f 30//30 31//31 32//32
f 27//27 29//29 33//33
f 32//32 34//34 35//35
f 35//35 36//36 37//37
f 9//9 11//11 25//25
f 25//25 38//38 27//27
f 32//32 31//31 34//34
f 27//27 38//38 31//31
f 31//31 39//39 40//40
f 35//35 34//34 41//41
f 35//35 41//41 36//36
f 40//40 42//42 43//43
f 43//43 44//44 45//45
f 10//10 26//26 46//46
f 26//26 27//27 46//46
f 27//27 33//33 47//47
f 37//37 36//36 48//48
f 33//33 49//49 50//50
f 49//49 51//51 50//50
f 51//51 52//52 53//53
f 52//52 54//54 53//53
f 48//48 55//55 54//54
f 48//48 36//36 56//56
f 48//48 56//56 57//57
f 45//45 58//58 59//59
f 48//48 57//57 55//55
f 57//57 60//60 61//61
f 59//59 61//61 62//62
f 59//59 58//58 61//61
f 62//62 61//61 60//60
f 40//40 39//39 42//42
f 25//25 11//11 63//63
f 25//25 63//63 38//38
f 38//38 39//39 31//31
f 39//39 64//64 65//65
f 43//43 42//42 44//44
f 45//45 44//44 66//66
f 65//65 67//67 68//68
f 69//69 70//70 68//68
f 11//11 20//20 63//63
f 20//20 21//21 71//71
f 65//65 64//64 67//67
f 38//38 64//64 39//39
f 20//20 71//71 63//63
f 63//63 71//71 38//38
f 38//38 72//72 64//64
f 38//38 73//73 72//72
f 68//68 67//67 74//74
f 69//69 68//68 74//74
f 38//38 75//75 73//73
f 45//45 66//66 58//58
f 70//70 76//76 77//77
f 77//77 76//76 78//78
f 61//61 58//58 79//79
f 80//80 61//61 79//79
f 21//21 81//81 71//71
f 70//70 69//69 76//76
f 78//78 76//76 82//82
f 38//38 83//83 75//75
f 71//71 84//84 38//38
f 78//78 82//82 85//85
f 82//82 86//86 87//87
f 88//88 87//87 86//86
f 89//89 90//90 88//88
f 75//75 83//83 89//89
f 2//2 91//91 12//12
f 2//2 13//13 91//91
f 6//6 14//14 13//13
f 3//3 12//12 22//22
f 12//12 91//91 92//92
f 91//91 93//93 92//92
f 91//91 13//13 93//93
f 92//92 93//93 94//94
f 13//13 14//14 93//93
f 93//93 95//95 94//94
f 12//12 92//92 96//96
f 92//92 94//94 96//96
f 94//94 95//95 97//97
f 93//93 14//14 98//98
f 93//93 98//98 95//95
f 15//15 22//22 23//23
f 19//19 23//23 24//24
f 21//21 24//24 81//81
f 12//12 96//96 22//22
f 94//94 97//97 96//96
f 22//22 96//96 23//23
f 23//23 96//96 99//99
f 23//23 99//99 24//24
f 96//96 97//97 99//99
f 24//24 99//99 81//81
f 97//97 100//100 99//99
f 97//97 95//95 100//100
f 99//99 101//101 81//81
f 99//99 100//100 101//101
f 33//33 50//50 47//47
f 51//51 102//102 50//50
f 51//51 53//53 102//102
f 27//27 47//47 103//103
f 54//54 104//104 53//53
f 54//54 105//105 104//104
f 54//54 106//106 105//105
f 10//10 46//46 14//14
f 27//27 103//103 46//46
f 107//107 108//108 105//105
f 54//54 55//55 106//106
f 57//57 61//61 55//55
f 80//80 109//109 61//61
f 80//80 110//110 109//109
f 107//107 105//105 106//106
f 103//103 47//47 111//111
f 108//108 112//112 113//113
f 113//113 114//114 115//115
f 14//14 46//46 98//98
f 98//98 116//116 95//95
f 103//103 111//111 117//117
f 103//103 117//117 118//118
f 98//98 46//46 116//116
f 46//46 103//103 116//116
f 103//103 118//118 119//119
f 118//118 115//115 114//114
f 108//108 107//107 112//112
f 113//113 112//112 114//114
f 120//120 121//121 122//122
f 95//95 116//116 100//100
f 118//118 114//114 119//119
f 103//103 119//119 123//123
f 103//103 84//84 116//116
f 122//122 124//124 119//119
f 78//78 125//125 80//80
f 80//80 125//125 110//110
f 78//78 126//126 120//120
f 78//78 127//127 126//126
f 78//78 128//128 127//127
f 78//78 85//85 128//128
f 78//78 120//120 125//125
f 120//120 126//126 129//129
f 128//128 85//85 130//130
f 130//130 131//131 132//132
f 82//82 87//87 85//85
f 88//88 133//133 87//87
f 88//88 90//90 133//133
f 89//89 83//83 90//90
f 38//38 84//84 83//83
f 130//130 85//85 131//131
f 132//132 131//131 134//134
f 71//71 81//81 135//135
f 71//71 135//135 84//84
f 120//120 129//129 136//136
f 120//120 136//136 121//121
f 122//122 121//121 124//124
f 132//132 134//134 137//137
f 137//137 138//138 139//139
f 119//119 124//124 123//123
f 103//103 123//123 84//84
f 139//139 140//140 123//123
f 116//116 141//141 100//100
f 116//116 84//84 141//141
f 137//137 134//134 138//138
f 139//139 138//138 140//140
f 84//84 142//142 83//83
f 81//81 101//101 135//135
f 100//100 141//141 101//101
f 123//123 140//140 143//143
f 84//84 123//123 143//143
f 84//84 143//143 144//144
f 84//84 144//144 142//142
f 101//101 141//141 135//135
f 135//135 141//141 84//84
f 145//145 146//146 147//147
f 148//148 147//147 149//149
f 145//145 147//147 148//148
f 150//150 151//151 152//152
f 148//148 149//149 153//153
f 154//154 155//155 146//146
f 156//156 157//157 155//155
f 153//153 149//149 158//158
f 159//159 158//158 160//160
f 145//145 154//154 146//146
f 150//150 152//152 161//161
f 154//154 156//156 155//155
f 161//161 162//162 163//163
f 153//153 158//158 159//159
f 152//152 162//162 161//161
f 159//159 160//160 164//164
f 162//162 165//165 163//163
f 166//166 167//167 157//157
f 168//168 169//169 167//167
f 164//164 160//160 170//170
f 171//171 170//170 172//172
f 156//156 166//166 157//157
f 163//163 165//165 173//173
f 166//166 168//168 167//167
f 173//173 174//174 175//175
f 164//164 170//170 171//171
f 165//165 174//174 173//173
f 176//176 171//171 172//172
f 175//175 174//174 177//177
f 178//178 179//179 169//169
f 176//176 172//172 179//179
f 168//168 178//178 169//169
f 175//175 177//177 180//180
f 176//176 179//179 178//178
f 181//181 182//182 183//183
f 184//184 183//183 185//185
f 181//181 183//183 184//184
f 186//186 187//187 188//188
f 184//184 185//185 189//189
f 190//190 191//191 182//182
f 192//192 193//193 191//191
f 189//189 185//185 194//194
f 195//195 194//194 196//196
f 181//181 190//190 182//182
f 186//186 188//188 197//197
f 190//190 192//192 191//191
f 197//197 198//198 199//199
f 189//189 194//194 195//195
f 197//197 188//188 198//198
f 195//195 196//196 200//200
f 198//198 201//201 199//199
f 202//202 203//203 193//193
f 204//204 205//205 203//203
f 200//200 196//196 206//206
f 207//207 206//206 208//208
f 192//192 202//202 193//193
f 199//199 201//201 209//209
f 202//202 204//204 203//203
f 209//209 210//210 211//211
f 200//200 206//206 207//207
f 201//201 210//210 209//209
f 207//207 208//208 212//212
f 211//211 210//210 213//213
f 214//214 215//215 205//205
f 212//212 208//208 215//215
f 204//204 214//214 205//205
f 211//211 213//213 216//216
f 212//212 215//215 214//214
f 217//217 218//218 219//219
f 220//220 219//219 221//221
f 217//217 219//219 220//220
f 220//220 221//221 222//222
f 223//223 224//224 225//225
f 226//226 227//227 218//218
f 228//228 229//229 227//227
f 222//222 221//221 230//230
f 231//231 230//230 232//232
f 217//217 226//226 218//218
f 223//223 225//225 233//233
f 226//226 228//228 227//227
f 233//233 234//234 235//235
f 222//222 230//230 231//231
f 233//233 225//225 234//234
f 231//231 232//232 236//236
f 234//234 237//237 235//235
f 238//238 239//239 229//229
f 240//240 241//241 239//239
f 236//236 232//232 242//242
f 243//243 242//242 244//244
f 228//228 238//238 229//229
f 235//235 237//237 245//245
f 238//238 240//240 239//239
f 245//245 246//246 247//247
f 236//236 242//242 243//243
f 237//237 246//246 245//245
f 243//243 244//244 248//248
f 247//247 246//246 249//249
f 250//250 251//251 241//241
f 248//248 244//244 251//251
f 240//240 250//250 241//241
f 248//248 251//251 250//250
f 247//247 249//249 252//252
f 253//253 254//254 255//255
f 256//256 255//255 257//257
f 253//253 255//255 256//256
f 256//256 257//257 258//258
f 259//259 260//260 261//261
f 262//262 263//263 254//254
f 264//264 265//265 263//263
f 258//258 257//257 266//266
f 267//267 266//266 268//268
f 262//262 254//254 253//253
f 269//269 259//259 261//261
f 262//262 264//264 263//263
f 269//269 270//270 271//271
f 258//258 266//266 267//267
f 269//269 261//261 270//270
f 267//267 268//268 272//272
f 270//270 273//273 271//271
f 274//274 275//275 265//265
f 276//276 277//277 275//275
f 272//272 268//268 278//278
f 279//279 278//278 280//280
f 264//264 274//274 265//265
f 271//271 273//273 281//281
f 274//274 276//276 275//275
f 281//281 282//282 283//283
f 272//272 278//278 279//279
f 273//273 282//282 281//281
f 279//279 280//280 284//284
f 282//282 285//285 283//283
f 286//286 287//287 277//277
f 284//284 280//280 287//287
f 276//276 286//286 277//277
f 284//284 287//287 286//286
f 283//283 285//285 288//288
f 289//289 290//290 291//291
f 292//292 291//291 293//293
f 289//289 291//291 292//292
f 294//294 295//295 296//296
f 292//292 293//293 297//297
f 298//298 299//299 290//290
f 300//300 301//301 299//299
f 297//297 293//293 302//302
f 303//303 302//302 304//304
f 289//289 298//298 290//290
f 294//294 296//296 305//305
f 298//298 300//300 299//299
f 305//305 306//306 307//307
f 297//297 302//302 303//303
f 296//296 306//306 305//305
f 303//303 304//304 308//308
f 306//306 309//309 307//307
f 310//310 311//311 301//301
f 312//312 313//313 311//311
f 308//308 304//304 314//314
f 315//315 314//314 316//316
f 300//300 310//310 301//301
f 307//307 309//309 317//317
f 310//310 312//312 311//311
f 317//317 318//318 319//319
f 308//308 314//314 315//315
f 309//309 318//318 317//317
f 320//320 315//315 316//316
f 319//319 318//318 321//321
f 322//322 323//323 313//313
f 320//320 316//316 323//323
f 312//312 322//322 313//313
f 319//319 321//321 324//324
f 322//322 320//320 323//323
f 325//325 326//326 327//327
f 328//328 327//327 329//329
f 325//325 327//327 328//328
f 330//330 331//331 332//332
f 328//328 329//329 333//333
f 334//334 335//335 326//326
f 336//336 337//337 335//335
f 333//333 329//329 338//338
f 339//339 338//338 340//340
f 325//325 334//334 326//326
f 330//330 332//332 341//341
f 334//334 336//336 335//335
f 341//341 342//342 343//343
f 333//333 338//338 339//339
f 341//341 332//332 342//342
f 339//339 340//340 344//344
f 342//342 345//345 343//343
f 346//346 347//347 337//337
f 348//348 349//349 347//347
f 344//344 340//340 350//350
f 351//351 350//350 352//352
f 336//336 346//346 337//337
f 343//343 345//345 353//353
f 346//346 348//348 347//347
f 353//353 354//354 355//355
f 344//344 350//350 351//351
f 345//345 354//354 353//353
f 351//351 352//352 356//356
f 355//355 354//354 357//357
f 358//358 359//359 349//349
f 356//356 352//352 359//359
f 348//348 358//358 349//349
f 355//355 357//357 360//360
f 358//358 356//356 359//359
f 361//361 362//362 363//363
f 364//364 363//363 365//365
f 361//361 363//363 364//364
f 364//364 365//365 366//366
f 367//367 368//368 369//369
f 370//370 371//371 362//362
f 372//372 373//373 371//371
f 366//366 365//365 374//374
f 375//375 374//374 376//376
f 361//361 370//370 362//362
f 367//367 369//369 377//377
f 370//370 372//372 371//371
f 377//377 378//378 379//379
f 366//366 374//374 375//375
f 377//377 369//369 378//378
f 375//375 376//376 380//380
f 378//378 381//381 379//379
f 382//382 383//383 373//373
f 384//384 385//385 383//383
f 380//380 376//376 386//386
f 387//387 386//386 388//388
f 372//372 382//382 373//373
f 379//379 381//381 389//389
f 382//382 384//384 383//383
f 389//389 390//390 391//391
f 380//380 386//386 387//387
f 381//381 390//390 389//389
f 387//387 388//388 392//392
f 391//391 390//390 393//393
f 394//394 395//395 385//385
f 392//392 388//388 395//395
f 384//384 394//394 385//385
f 394//394 392//392 395//395
f 391//391 393//393 396//396
f 397//397 398//398 399//399
f 400//400 399//399 401//401
f 397//397 399//399 400//400
f 400//400 401//401 402//402
f 403//403 404//404 405//405
f 406//406 407//407 398//398
f 408//408 409//409 407//407
f 402//402 401//401 410//410
f 411//411 410//410 412//412
f 406//406 398//398 397//397
f 413//413 403//403 405//405
f 406//406 408//408 407//407
f 413//413 414//414 415//415
f 402//402 410//410 411//411
f 413//413 405//405 414//414
f 411//411 412//412 416//416
f 414//414 417//417 415//415
f 418//418 419//419 409//409
f 420//420 421//421 419//419
f 416//416 412//412 422//422
f 423//423 422//422 424//424
f 408//408 418//418 409//409
f 415//415 417//417 425//425
f 418//418 420//420 419//419
f 425//425 426//426 427//427
f 416//416 422//422 423//423
f 417//417 426//426 425//425
f 423//423 424//424 428//428
f 426//426 429//429 427//427
f 430//430 431//431 421//421
f 428//428 424//424 431//431
f 420//420 430//430 421//421
f 430//430 428//428 431//431
f 427//427 429//429 432//432
