v -0.24566 -0.04666 -0.36500
v -0.24000 -0.04666 -0.37066
v -0.24000 -0.04900 -0.36500
v -0.24566 -0.04100 -0.37066
v -0.24800 -0.04100 -0.36500
v -0.24000 -0.04100 -0.37300
v -0.24566 0.04100 -0.37066
v -0.24566 -0.04666 0.36500
v -0.24800 0.04100 -0.36500
v -0.24000 0.04100 -0.37300
v -0.24800 0.04100 0.36500
v 0.24000 -0.04900 -0.36500
v 0.24000 -0.04100 -0.37300
v 0.24000 0.04100 -0.37300
v -0.24000 -0.04900 0.36500
v -0.24800 -0.04100 0.36500
v -0.24000 -0.04666 0.37066
v -0.24566 -0.04100 0.37066
v -0.24000 -0.04100 0.37300
v -0.24566 0.04100 0.37066
v -0.24000 0.04100 0.37300
v 0.24000 -0.04900 0.36500
v 0.24000 -0.04666 0.37066
v 0.24000 -0.04100 0.37300
v -0.24566 0.04666 -0.36500
v -0.24000 0.04666 -0.37066
v -0.24000 0.04900 -0.36500
v -0.20000 0.04900 -0.25000
v -0.18995 0.04900 -0.28750
v -0.16250 0.04900 -0.31495
v -0.18995 0.04900 -0.21250
v -0.20000 0.04900 0.00000
v -0.12500 0.04900 -0.32500
v -0.24000 0.04900 0.36500
v -0.18995 0.04900 -0.03750
v -0.16250 0.04900 -0.18505
v -0.16250 0.04900 -0.06495
v -0.12500 0.04900 -0.07500
v -0.12500 0.04900 -0.17500
v 0.24000 0.04666 -0.37066
v 0.12500 0.04900 -0.32500
v -0.08750 0.04900 -0.31495
v 0.08750 0.04900 -0.31495
v -0.06005 0.04900 -0.28750
v -0.05000 0.04900 -0.25000
v 0.05000 0.04900 -0.25000
v -0.06005 0.04900 -0.21250
v -0.08750 0.04900 -0.18505
v -0.08750 0.04900 -0.06495
v -0.06005 0.04900 -0.03750
v 0.06005 0.04900 -0.21250
v 0.08750 0.04900 -0.18505
v -0.05000 0.04900 0.00000
v -0.06005 0.04900 0.03750
v -0.24566 0.04666 0.36500
v -0.20000 0.04900 0.25000
v -0.18995 0.04900 0.03750
v -0.18995 0.04900 0.21250
v -0.16250 0.04900 0.06495
v -0.16250 0.04900 0.18505
v -0.12500 0.04900 0.07500
v -0.12500 0.04900 0.17500
v -0.24000 0.04666 0.37066
v -0.18995 0.04900 0.28750
v -0.16250 0.04900 0.31495
v -0.12500 0.04900 0.32500
v -0.08750 0.04900 0.18505
v -0.08750 0.04900 0.06495
v -0.06005 0.04900 0.21250
v 0.06005 0.04900 0.03750
v 0.24000 0.04100 0.37300
v 0.12500 0.04900 0.32500
v 0.24000 0.04900 0.36500
v -0.05000 0.04900 0.25000
v 0.05000 0.04900 0.25000
v -0.06005 0.04900 0.28750
v -0.08750 0.04900 0.31495
v 0.08750 0.04900 0.31495
v 0.24000 -0.04666 -0.37066
v 0.24566 -0.04666 -0.36500
v 0.24566 -0.04100 -0.37066
v 0.24800 -0.04100 -0.36500
v 0.24800 0.04100 -0.36500
v 0.24566 -0.04666 0.36500
v 0.24800 -0.04100 0.36500
v 0.24566 0.04100 -0.37066
v 0.24566 -0.04100 0.37066
v 0.24800 0.04100 0.36500
v 0.24566 0.04100 0.37066
v 0.06005 0.04900 -0.28750
v 0.24000 0.04900 -0.36500
v 0.06005 0.04900 -0.03750
v 0.08750 0.04900 -0.06495
v 0.12500 0.04900 -0.07500
v 0.12500 0.04900 -0.17500
v 0.16250 0.04900 -0.31495
v 0.24566 0.04666 -0.36500
v 0.18995 0.04900 -0.28750
v 0.20000 0.04900 -0.25000
v 0.20000 0.04900 0.00000
v 0.16250 0.04900 -0.18505
v 0.16250 0.04900 -0.06495
v 0.18995 0.04900 -0.03750
v 0.18995 0.04900 -0.21250
v 0.05000 0.04900 0.00000
v 0.06005 0.04900 0.21250
v 0.08750 0.04900 0.06495
v 0.08750 0.04900 0.18505
v 0.12500 0.04900 0.07500
v 0.12500 0.04900 0.17500
v 0.06005 0.04900 0.28750
v 0.24000 0.04666 0.37066
v 0.16250 0.04900 0.18505
v 0.16250 0.04900 0.06495
v 0.18995 0.04900 0.03750
v 0.18995 0.04900 0.21250
v 0.20000 0.04900 0.25000
v 0.24566 0.04666 0.36500
v 0.16250 0.04900 0.31495
v 0.18995 0.04900 0.28750
v -0.18995 0.09900 -0.28750
v -0.18995 0.04900 -0.28750
v -0.20000 0.04900 -0.25000
v -0.20000 0.09900 -0.25000
v -0.18995 0.04900 -0.21250
v -0.18995 0.09900 -0.21250
v -0.18995 0.09900 -0.28750
v -0.20000 0.09900 -0.25000
v -0.18995 0.09900 -0.21250
v -0.16250 0.09900 -0.31495
v -0.16250 0.04900 -0.31495
v -0.12500 0.09900 -0.32500
v -0.12500 0.04900 -0.32500
v -0.16250 0.04900 -0.18505
v -0.16250 0.09900 -0.18505
v -0.16250 0.09900 -0.31495
v -0.16250 0.09900 -0.18505
v -0.12500 0.09900 -0.32500
v -0.12500 0.09900 -0.17500
v -0.12500 0.04900 -0.17500
v -0.12500 0.09900 -0.17500
v -0.08750 0.09900 -0.31495
v -0.08750 0.04900 -0.31495
v -0.06005 0.09900 -0.28750
v -0.06005 0.04900 -0.28750
v -0.08750 0.09900 -0.18505
v -0.08750 0.04900 -0.18505
v -0.06005 0.04900 -0.21250
v -0.08750 0.09900 -0.31495
v -0.08750 0.09900 -0.18505
v -0.06005 0.09900 -0.21250
v -0.06005 0.09900 -0.28750
v -0.06005 0.09900 -0.21250
v -0.05000 0.09900 -0.25000
v -0.05000 0.04900 -0.25000
v -0.05000 0.09900 -0.25000
v -0.18995 0.09900 -0.03750
v -0.18995 0.04900 -0.03750
v -0.20000 0.04900 0.00000
v -0.20000 0.09900 0.00000
v -0.16250 0.09900 -0.06495
v -0.16250 0.04900 -0.06495
v -0.12500 0.09900 -0.07500
v -0.12500 0.04900 -0.07500
v -0.18995 0.09900 -0.03750
v -0.18995 0.09900 0.03750
v -0.16250 0.09900 -0.06495
v -0.16250 0.09900 0.06495
v -0.12500 0.09900 -0.07500
v -0.08750 0.09900 -0.06495
v -0.08750 0.04900 -0.06495
v -0.06005 0.09900 -0.03750
v -0.06005 0.04900 -0.03750
v -0.12500 0.09900 0.07500
v -0.08750 0.09900 -0.06495
v -0.08750 0.09900 0.06495
v -0.06005 0.09900 -0.03750
v -0.05000 0.09900 0.00000
v -0.05000 0.04900 0.00000
v -0.18995 0.04900 0.03750
v -0.18995 0.09900 0.03750
v -0.20000 0.09900 0.00000
v -0.16250 0.04900 0.06495
v -0.16250 0.09900 0.06495
v -0.12500 0.04900 0.07500
v -0.12500 0.09900 0.07500
v -0.08750 0.04900 0.06495
v -0.08750 0.09900 0.06495
v -0.06005 0.04900 0.03750
v -0.06005 0.09900 0.03750
v -0.06005 0.09900 0.03750
v -0.05000 0.09900 0.00000
v -0.12500 0.09900 0.17500
v -0.12500 0.04900 0.17500
v -0.16250 0.04900 0.18505
v -0.16250 0.09900 0.18505
v -0.18995 0.09900 0.21250
v -0.18995 0.04900 0.21250
v -0.20000 0.04900 0.25000
v -0.20000 0.09900 0.25000
v -0.18995 0.04900 0.28750
v -0.18995 0.09900 0.28750
v -0.18995 0.09900 0.21250
v -0.20000 0.09900 0.25000
v -0.18995 0.09900 0.28750
v -0.16250 0.04900 0.31495
v -0.16250 0.09900 0.31495
v -0.12500 0.04900 0.32500
v -0.16250 0.09900 0.18505
v -0.16250 0.09900 0.31495
v -0.12500 0.09900 0.17500
v -0.12500 0.09900 0.32500
v -0.12500 0.09900 0.32500
v -0.08750 0.09900 0.18505
v -0.08750 0.04900 0.18505
v -0.06005 0.09900 0.21250
v -0.06005 0.04900 0.21250
v -0.08750 0.04900 0.31495
v -0.08750 0.09900 0.31495
v -0.06005 0.04900 0.28750
v -0.08750 0.09900 0.18505
v -0.08750 0.09900 0.31495
v -0.06005 0.09900 0.21250
v -0.06005 0.09900 0.28750
v -0.06005 0.09900 0.28750
v -0.05000 0.09900 0.25000
v -0.05000 0.04900 0.25000
v -0.05000 0.09900 0.25000
v 0.06005 0.09900 -0.28750
v 0.06005 0.04900 -0.28750
v 0.05000 0.04900 -0.25000
v 0.05000 0.09900 -0.25000
v 0.06005 0.04900 -0.21250
v 0.06005 0.09900 -0.21250
v 0.06005 0.09900 -0.28750
v 0.05000 0.09900 -0.25000
v 0.06005 0.09900 -0.21250
v 0.08750 0.09900 -0.31495
v 0.08750 0.04900 -0.31495
v 0.12500 0.09900 -0.32500
v 0.12500 0.04900 -0.32500
v 0.08750 0.04900 -0.18505
v 0.08750 0.09900 -0.18505
v 0.08750 0.09900 -0.31495
v 0.08750 0.09900 -0.18505
v 0.12500 0.09900 -0.32500
v 0.12500 0.09900 -0.17500
v 0.12500 0.04900 -0.17500
v 0.12500 0.09900 -0.17500
v 0.16250 0.09900 -0.31495
v 0.16250 0.04900 -0.31495
v 0.18995 0.09900 -0.28750
v 0.18995 0.04900 -0.28750
v 0.16250 0.09900 -0.18505
v 0.16250 0.04900 -0.18505
v 0.18995 0.04900 -0.21250
v 0.16250 0.09900 -0.31495
v 0.16250 0.09900 -0.18505
v 0.18995 0.09900 -0.21250
v 0.18995 0.09900 -0.28750
v 0.18995 0.09900 -0.21250
v 0.20000 0.09900 -0.25000
v 0.20000 0.04900 -0.25000
v 0.20000 0.09900 -0.25000
v 0.06005 0.09900 -0.03750
v 0.06005 0.04900 -0.03750
v 0.05000 0.04900 0.00000
v 0.05000 0.09900 0.00000
v 0.08750 0.09900 -0.06495
v 0.08750 0.04900 -0.06495
v 0.12500 0.09900 -0.07500
v 0.12500 0.04900 -0.07500
v 0.06005 0.09900 -0.03750
v 0.06005 0.09900 0.03750
v 0.08750 0.09900 -0.06495
v 0.08750 0.09900 0.06495
v 0.12500 0.09900 -0.07500
v 0.16250 0.09900 -0.06495
v 0.16250 0.04900 -0.06495
v 0.18995 0.09900 -0.03750
v 0.18995 0.04900 -0.03750
v 0.12500 0.09900 0.07500
v 0.16250 0.09900 -0.06495
v 0.16250 0.09900 0.06495
v 0.18995 0.09900 -0.03750
v 0.20000 0.09900 0.00000
v 0.20000 0.04900 0.00000
v 0.06005 0.04900 0.03750
v 0.06005 0.09900 0.03750
v 0.05000 0.09900 0.00000
v 0.08750 0.04900 0.06495
v 0.08750 0.09900 0.06495
v 0.12500 0.04900 0.07500
v 0.12500 0.09900 0.07500
v 0.16250 0.04900 0.06495
v 0.16250 0.09900 0.06495
v 0.18995 0.04900 0.03750
v 0.18995 0.09900 0.03750
v 0.18995 0.09900 0.03750
v 0.20000 0.09900 0.00000
v 0.12500 0.09900 0.17500
v 0.12500 0.04900 0.17500
v 0.08750 0.04900 0.18505
v 0.08750 0.09900 0.18505
v 0.06005 0.09900 0.21250
v 0.06005 0.04900 0.21250
v 0.05000 0.04900 0.25000
v 0.05000 0.09900 0.25000
v 0.06005 0.04900 0.28750
v 0.06005 0.09900 0.28750
v 0.06005 0.09900 0.21250
v 0.05000 0.09900 0.25000
v 0.06005 0.09900 0.28750
v 0.08750 0.04900 0.31495
v 0.08750 0.09900 0.31495
v 0.12500 0.04900 0.32500
v 0.08750 0.09900 0.18505
v 0.08750 0.09900 0.31495
v 0.12500 0.09900 0.17500
v 0.12500 0.09900 0.32500
v 0.12500 0.09900 0.32500
v 0.16250 0.09900 0.18505
v 0.16250 0.04900 0.18505
v 0.18995 0.09900 0.21250
v 0.18995 0.04900 0.21250
v 0.16250 0.04900 0.31495
v 0.16250 0.09900 0.31495
v 0.18995 0.04900 0.28750
v 0.16250 0.09900 0.18505
v 0.16250 0.09900 0.31495
v 0.18995 0.09900 0.21250
v 0.18995 0.09900 0.28750
v 0.18995 0.09900 0.28750
v 0.20000 0.09900 0.25000
v 0.20000 0.04900 0.25000
v 0.20000 0.09900 0.25000
vn -0.6887 -0.6887 -0.2265
vn -0.2265 -0.6887 -0.6887
vn -0.1877 -0.9641 -0.1877
vn -0.6887 -0.2265 -0.6887
vn -0.9641 -0.1877 -0.1877
vn -0.1877 -0.1877 -0.9641
vn -0.6887 0.2265 -0.6887
vn -0.6887 -0.6887 0.2265
vn -0.9641 0.1877 -0.1877
vn -0.1877 0.1877 -0.9641
vn -0.9641 0.1877 0.1877
vn 0.1877 -0.9641 -0.1877
vn 0.1877 -0.1877 -0.9641
vn 0.1877 0.1877 -0.9641
vn -0.1877 -0.9641 0.1877
vn -0.9641 -0.1877 0.1877
vn -0.2265 -0.6887 0.6887
vn -0.6887 -0.2265 0.6887
vn -0.1877 -0.1877 0.9641
vn -0.6887 0.2265 0.6887
vn -0.1877 0.1877 0.9641
vn 0.1877 -0.9641 0.1877
vn 0.2265 -0.6887 0.6887
vn 0.1877 -0.1877 0.9641
vn -0.6887 0.6887 -0.2265
vn -0.2265 0.6887 -0.6887
vn -0.1877 0.9641 -0.1877
vn 0.0000 1.0000 0.0000
vn 0.0000 1.0000 0.0000
vn 0.0000 1.0000 0.0000
vn 0.0000 1.0000 0.0000
vn 0.0000 1.0000 0.0000
vn 0.0000 1.0000 0.0000
vn -0.1877 0.9641 0.1877
vn 0.0000 1.0000 0.0000
vn 0.0000 1.0000 0.0000
vn 0.0000 1.0000 0.0000
vn 0.0000 1.0000 0.0000
vn 0.0000 1.0000 0.0000
vn 0.2265 0.6887 -0.6887
vn 0.0000 1.0000 0.0000
vn 0.0000 1.0000 0.0000
vn 0.0000 1.0000 0.0000
vn 0.0000 1.0000 0.0000
vn 0.0000 1.0000 0.0000
vn 0.0000 1.0000 0.0000
vn 0.0000 1.0000 0.0000
vn 0.0000 1.0000 0.0000
vn 0.0000 1.0000 0.0000
vn 0.0000 1.0000 0.0000
vn 0.0000 1.0000 0.0000
vn 0.0000 1.0000 0.0000
vn 0.0000 1.0000 0.0000
vn 0.0000 1.0000 0.0000
vn -0.6887 0.6887 0.2265
vn 0.0000 1.0000 0.0000
vn 0.0000 1.0000 0.0000
vn 0.0000 1.0000 0.0000
vn 0.0000 1.0000 0.0000
vn 0.0000 1.0000 0.0000
vn 0.0000 1.0000 0.0000
vn 0.0000 1.0000 0.0000
vn -0.2265 0.6887 0.6887
vn 0.0000 1.0000 0.0000
vn 0.0000 1.0000 0.0000
vn 0.0000 1.0000 0.0000
vn 0.0000 1.0000 0.0000
vn 0.0000 1.0000 0.0000
vn 0.0000 1.0000 0.0000
vn 0.0000 1.0000 0.0000
vn 0.1877 0.1877 0.9641
vn 0.0000 1.0000 0.0000
vn 0.1877 0.9641 0.1877
vn 0.0000 1.0000 0.0000
vn 0.0000 1.0000 0.0000
vn 0.0000 1.0000 0.0000
vn 0.0000 1.0000 0.0000
vn 0.0000 1.0000 0.0000
vn 0.2265 -0.6887 -0.6887
vn 0.6887 -0.6887 -0.2265
vn 0.6887 -0.2265 -0.6887
vn 0.9641 -0.1877 -0.1877
vn 0.9641 0.1877 -0.1877
vn 0.6887 -0.6887 0.2265
vn 0.9641 -0.1877 0.1877
vn 0.6887 0.2265 -0.6887
vn 0.6887 -0.2265 0.6887
vn 0.9641 0.1877 0.1877
vn 0.6887 0.2265 0.6887
vn 0.0000 1.0000 0.0000
vn 0.1877 0.9641 -0.1877
vn 0.0000 1.0000 0.0000
vn 0.0000 1.0000 0.0000
vn 0.0000 1.0000 0.0000
vn 0.0000 1.0000 0.0000
vn 0.0000 1.0000 0.0000
vn 0.6887 0.6887 -0.2265
vn 0.0000 1.0000 0.0000
vn 0.0000 1.0000 0.0000
vn 0.0000 1.0000 0.0000
vn 0.0000 1.0000 0.0000
vn 0.0000 1.0000 0.0000
vn 0.0000 1.0000 0.0000
vn 0.0000 1.0000 0.0000
vn 0.0000 1.0000 0.0000
vn 0.0000 1.0000 0.0000
vn 0.0000 1.0000 0.0000
vn 0.0000 1.0000 0.0000
vn 0.0000 1.0000 0.0000
vn 0.0000 1.0000 0.0000
vn 0.0000 1.0000 0.0000
vn 0.2265 0.6887 0.6887
vn 0.0000 1.0000 0.0000
vn 0.0000 1.0000 0.0000
vn 0.0000 1.0000 0.0000
vn 0.0000 1.0000 0.0000
vn 0.0000 1.0000 0.0000
vn 0.6887 0.6887 0.2265
vn 0.0000 1.0000 0.0000
vn 0.0000 1.0000 0.0000
vn -0.8660 0.0000 -0.5000
vn -0.8660 0.0000 -0.5000
vn -1.0000 0.0000 0.0000
vn -1.0000 0.0000 0.0000
vn -0.8660 0.0000 0.5000
vn -0.8660 0.0000 0.5000
vn 0.0000 1.0000 0.0000
vn 0.0000 1.0000 0.0000
vn 0.0000 1.0000 0.0000
vn -0.5000 0.0000 -0.8660
vn -0.5000 0.0000 -0.8660
vn 0.0000 0.0000 -1.0000
vn -0.0000 0.0000 -1.0000
vn -0.5000 0.0000 0.8660
vn -0.5000 0.0000 0.8660
vn 0.0000 1.0000 0.0000
vn 0.0000 1.0000 0.0000
vn 0.0000 1.0000 0.0000
vn 0.0000 1.0000 0.0000
vn 0.0000 0.0000 1.0000
vn 0.0000 0.0000 1.0000
vn 0.5000 0.0000 -0.8660
vn 0.5000 0.0000 -0.8660
vn 0.8660 0.0000 -0.5000
vn 0.8660 0.0000 -0.5000
vn 0.5000 0.0000 0.8660
vn 0.5000 0.0000 0.8660
vn 0.8660 0.0000 0.5000
vn 0.0000 1.0000 0.0000
vn 0.0000 1.0000 0.0000
vn 0.8660 0.0000 0.5000
vn 0.0000 1.0000 0.0000
vn 0.0000 1.0000 0.0000
vn 1.0000 0.0000 0.0000
vn 1.0000 0.0000 0.0000
vn 0.0000 1.0000 0.0000
vn -0.8660 0.0000 -0.5000
vn -0.8660 0.0000 -0.5000
vn -1.0000 0.0000 0.0000
vn -1.0000 0.0000 0.0000
vn -0.5000 0.0000 -0.8660
vn -0.5000 0.0000 -0.8660
vn 0.0000 0.0000 -1.0000
vn -0.0000 0.0000 -1.0000
vn 0.0000 1.0000 0.0000
vn 0.0000 1.0000 0.0000
vn 0.0000 1.0000 0.0000
vn 0.0000 1.0000 0.0000
vn 0.0000 1.0000 0.0000
vn 0.5000 0.0000 -0.8660
vn 0.5000 0.0000 -0.8660
vn 0.8660 0.0000 -0.5000
vn 0.8660 0.0000 -0.5000
vn 0.0000 1.0000 0.0000
vn 0.0000 1.0000 0.0000
vn 0.0000 1.0000 0.0000
vn 0.0000 1.0000 0.0000
vn 1.0000 0.0000 0.0000
vn 1.0000 0.0000 0.0000
vn -0.8660 0.0000 0.5000
vn -0.8660 0.0000 0.5000
vn 0.0000 1.0000 0.0000
vn -0.5000 0.0000 0.8660
vn -0.5000 0.0000 0.8660
vn 0.0000 0.0000 1.0000
vn -0.0000 0.0000 1.0000
vn 0.5000 0.0000 0.8660
vn 0.5000 0.0000 0.8660
vn 0.8660 0.0000 0.5000
vn 0.8660 0.0000 0.5000
vn 0.0000 1.0000 0.0000
vn 0.0000 1.0000 0.0000
vn 0.0000 0.0000 -1.0000
vn -0.0000 0.0000 -1.0000
vn -0.5000 0.0000 -0.8660
vn -0.5000 0.0000 -0.8660
vn -0.8660 0.0000 -0.5000
vn -0.8660 0.0000 -0.5000
vn -1.0000 0.0000 0.0000
vn -1.0000 0.0000 0.0000
vn -0.8660 0.0000 0.5000
vn -0.8660 0.0000 0.5000
vn 0.0000 1.0000 0.0000
vn 0.0000 1.0000 0.0000
vn 0.0000 1.0000 0.0000
vn -0.5000 0.0000 0.8660
vn -0.5000 0.0000 0.8660
vn 0.0000 0.0000 1.0000
vn 0.0000 1.0000 0.0000
vn 0.0000 1.0000 0.0000
vn 0.0000 1.0000 0.0000
vn 0.0000 1.0000 0.0000
vn -0.0000 0.0000 1.0000
vn 0.5000 0.0000 -0.8660
vn 0.5000 0.0000 -0.8660
vn 0.8660 0.0000 -0.5000
vn 0.8660 0.0000 -0.5000
vn 0.5000 0.0000 0.8660
vn 0.5000 0.0000 0.8660
vn 0.8660 0.0000 0.5000
vn 0.0000 1.0000 0.0000
vn 0.0000 1.0000 0.0000
vn 0.0000 1.0000 0.0000
vn 0.0000 1.0000 0.0000
vn 0.8660 0.0000 0.5000
vn 1.0000 0.0000 0.0000
vn 1.0000 0.0000 0.0000
vn 0.0000 1.0000 0.0000
vn -0.8660 0.0000 -0.5000
vn -0.8660 0.0000 -0.5000
vn -1.0000 0.0000 0.0000
vn -1.0000 0.0000 -0.0000
vn -0.8660 0.0000 0.5000
vn -0.8660 0.0000 0.5000
vn 0.0000 1.0000 0.0000
vn 0.0000 1.0000 0.0000
vn 0.0000 1.0000 0.0000
vn -0.5000 0.0000 -0.8660
vn -0.5000 0.0000 -0.8660
vn 0.0000 0.0000 -1.0000
vn -0.0000 0.0000 -1.0000
vn -0.5000 0.0000 0.8660
vn -0.5000 0.0000 0.8660
vn 0.0000 1.0000 0.0000
vn 0.0000 1.0000 0.0000
vn 0.0000 1.0000 0.0000
vn 0.0000 1.0000 0.0000
vn 0.0000 0.0000 1.0000
vn 0.0000 0.0000 1.0000
vn 0.5000 0.0000 -0.8660
vn 0.5000 0.0000 -0.8660
vn 0.8660 0.0000 -0.5000
vn 0.8660 0.0000 -0.5000
vn 0.5000 0.0000 0.8660
vn 0.5000 0.0000 0.8660
vn 0.8660 0.0000 0.5000
vn 0.0000 1.0000 0.0000
vn 0.0000 1.0000 0.0000
vn 0.8660 0.0000 0.5000
vn 0.0000 1.0000 0.0000
vn 0.0000 1.0000 0.0000
vn 1.0000 0.0000 0.0000
vn 1.0000 0.0000 -0.0000
vn 0.0000 1.0000 0.0000
vn -0.8660 0.0000 -0.5000
vn -0.8660 0.0000 -0.5000
vn -1.0000 0.0000 0.0000
vn -1.0000 0.0000 -0.0000
vn -0.5000 0.0000 -0.8660
vn -0.5000 0.0000 -0.8660
vn 0.0000 0.0000 -1.0000
vn -0.0000 0.0000 -1.0000
vn 0.0000 1.0000 0.0000
vn 0.0000 1.0000 0.0000
vn 0.0000 1.0000 0.0000
vn 0.0000 1.0000 0.0000
vn 0.0000 1.0000 0.0000
vn 0.5000 0.0000 -0.8660
vn 0.5000 0.0000 -0.8660
vn 0.8660 0.0000 -0.5000
vn 0.8660 0.0000 -0.5000
vn 0.0000 1.0000 0.0000
vn 0.0000 1.0000 0.0000
vn 0.0000 1.0000 0.0000
vn 0.0000 1.0000 0.0000
vn 1.0000 0.0000 0.0000
vn 1.0000 0.0000 -0.0000
vn -0.8660 0.0000 0.5000
vn -0.8660 0.0000 0.5000
vn 0.0000 1.0000 0.0000
vn -0.5000 0.0000 0.8660
vn -0.5000 0.0000 0.8660
vn 0.0000 0.0000 1.0000
vn -0.0000 0.0000 1.0000
vn 0.5000 0.0000 0.8660
vn 0.5000 0.0000 0.8660
vn 0.8660 0.0000 0.5000
vn 0.8660 0.0000 0.5000
vn 0.0000 1.0000 0.0000
vn 0.0000 1.0000 0.0000
vn 0.0000 0.0000 -1.0000
vn -0.0000 0.0000 -1.0000
vn -0.5000 0.0000 -0.8660
vn -0.5000 0.0000 -0.8660
vn -0.8660 0.0000 -0.5000
vn -0.8660 0.0000 -0.5000
vn -1.0000 0.0000 0.0000
vn -1.0000 0.0000 -0.0000
vn -0.8660 0.0000 0.5000
vn -0.8660 0.0000 0.5000
vn 0.0000 1.0000 0.0000
vn 0.0000 1.0000 0.0000
vn 0.0000 1.0000 0.0000
vn -0.5000 0.0000 0.8660
vn -0.5000 0.0000 0.8660
vn 0.0000 0.0000 1.0000
vn 0.0000 1.0000 0.0000
vn 0.0000 1.0000 0.0000
vn 0.0000 1.0000 0.0000
vn 0.0000 1.0000 0.0000
vn -0.0000 0.0000 1.0000
vn 0.5000 0.0000 -0.8660
vn 0.5000 0.0000 -0.8660
vn 0.8660 0.0000 -0.5000
vn 0.8660 0.0000 -0.5000
vn 0.5000 0.0000 0.8660
vn 0.5000 0.0000 0.8660
vn 0.8660 0.0000 0.5000
vn 0.0000 1.0000 0.0000
vn 0.0000 1.0000 0.0000
vn 0.0000 1.0000 0.0000
vn 0.0000 1.0000 0.0000
vn 0.8660 0.0000 0.5000
vn 1.0000 0.0000 0.0000
vn 1.0000 0.0000 -0.0000
vn 0.0000 1.0000 0.0000
f 1//1 2//2 3//3
f 1//1 4//4 2//2
f 1//1 5//5 4//4
f 2//2 4//4 6//6
f 4//4 5//5 7//7
f 4//4 7//7 6//6
f 1//1 3//3 8//8
f 1//1 8//8 5//5
f 5//5 9//9 7//7
f 6//6 7//7 10//10
f 5//5 11//11 9//9
f 3//3 2//2 12//12
f 2//2 6//6 13//13
f 6//6 10//10 14//14
f 3//3 15//15 8//8
f 5//5 8//8 16//16
f 5//5 16//16 11//11
f 8//8 15//15 17//17
f 8//8 17//17 18//18
f 8//8 18//18 16//16
f 17//17 19//19 18//18
f 16//16 18//18 20//20
f 18//18 19//19 20//20
f 16//16 20//20 11//11
f 19//19 21//21 20//20
f 3//3 22//22 15//15
f 15//15 23//23 17//17
f 17//17 23//23 19//19
f 19//19 24//24 21//21
f 7//7 9//9 25//25
f 7//7 26//26 10//10
f 7//7 25//25 26//26
f 25//25 27//27 26//26
f 27//27 28//28 29//29
f 27//27 29//29 30//30
f 27//27 31//31 28//28
f 27//27 32//32 31//31
f 27//27 30//30 33//33
f 9//9 11//11 25//25
f 25//25 34//34 27//27
f 31//31 32//32 35//35
f 31//31 35//35 36//36
f 36//36 35//35 37//37
f 36//36 38//38 39//39
f 36//36 37//37 38//38
f 10//10 26//26 40//40
f 26//26 27//27 40//40
f 27//27 33//33 41//41
f 33//33 42//42 43//43
f 42//42 44//44 43//43
f 44//44 45//45 46//46
f 47//47 46//46 45//45
f 39//39 38//38 48//48
f 48//48 38//38 49//49
f 48//48 50//50 47//47
f 48//48 49//49 50//50
f 47//47 50//50 51//51
f 52//52 50//50 53//53
f 52//52 53//53 54//54
f 27//27 34//34 32//32
f 25//25 11//11 55//55
f 25//25 55//55 34//34
f 32//32 56//56 57//57
f 57//57 56//56 58//58
f 57//57 58//58 59//59
f 59//59 58//58 60//60
f 59//59 60//60 61//61
f 61//61 60//60 62//62
f 11//11 20//20 55//55
f 20//20 21//21 63//63
f 34//34 56//56 32//32
f 20//20 63//63 55//55
f 55//55 63//63 34//34
f 34//34 64//64 56//56
f 34//34 65//65 64//64
f 34//34 66//66 65//65
f 67//67 68//68 61//61
f 67//67 61//61 62//62
f 67//67 54//54 68//68
f 67//67 52//52 54//54
f 67//67 69//69 70//70
f 21//21 71//71 63//63
f 34//34 72//72 66//66
f 63//63 73//73 34//34
f 69//69 74//74 75//75
f 76//76 75//75 74//74
f 66//66 72//72 77//77
f 77//77 78//78 76//76
f 2//2 79//79 12//12
f 2//2 13//13 79//79
f 6//6 14//14 13//13
f 3//3 12//12 22//22
f 12//12 79//79 80//80
f 79//79 81//81 80//80
f 79//79 13//13 81//81
f 80//80 81//81 82//82
f 13//13 14//14 81//81
f 81//81 83//83 82//82
f 12//12 80//80 84//84
f 80//80 82//82 84//84
f 82//82 83//83 85//85
f 81//81 14//14 86//86
f 81//81 86//86 83//83
f 15//15 22//22 23//23
f 19//19 23//23 24//24
f 21//21 24//24 71//71
f 12//12 84//84 22//22
f 82//82 85//85 84//84
f 22//22 84//84 23//23
f 23//23 84//84 87//87
f 23//23 87//87 24//24
f 84//84 85//85 87//87
f 24//24 87//87 71//71
f 85//85 88//88 87//87
f 85//85 83//83 88//88
f 87//87 89//89 71//71
f 87//87 88//88 89//89
f 33//33 43//43 41//41
f 44//44 90//90 43//43
f 27//27 41//41 91//91
f 44//44 46//46 90//90
f 47//47 51//51 46//46
f 10//10 40//40 14//14
f 27//27 91//91 40//40
f 50//50 52//52 51//51
f 67//67 92//92 52//52
f 52//52 92//92 93//93
f 52//52 94//94 95//95
f 52//52 93//93 94//94
f 91//91 41//41 96//96
f 14//14 40//40 86//86
f 86//86 97//97 83//83
f 91//91 96//96 98//98
f 91//91 98//98 99//99
f 86//86 40//40 97//97
f 40//40 91//91 97//97
f 91//91 99//99 100//100
f 95//95 94//94 101//101
f 101//101 94//94 102//102
f 101//101 103//103 104//104
f 101//101 102//102 103//103
f 83//83 97//97 88//88
f 104//104 103//103 99//99
f 99//99 103//103 100//100
f 91//91 73//73 97//97
f 67//67 105//105 92//92
f 67//67 70//70 105//105
f 69//69 106//106 70//70
f 70//70 106//106 107//107
f 107//107 106//106 108//108
f 107//107 108//108 109//109
f 109//109 108//108 110//110
f 69//69 75//75 106//106
f 76//76 111//111 75//75
f 76//76 78//78 111//111
f 77//77 72//72 78//78
f 34//34 73//73 72//72
f 63//63 71//71 112//112
f 63//63 112//112 73//73
f 109//109 113//113 114//114
f 109//109 110//110 113//113
f 114//114 113//113 115//115
f 115//115 113//113 116//116
f 115//115 116//116 100//100
f 91//91 100//100 73//73
f 100//100 116//116 117//117
f 97//97 118//118 88//88
f 97//97 73//73 118//118
f 73//73 119//119 72//72
f 71//71 89//89 112//112
f 88//88 118//118 89//89
f 73//73 100//100 117//117
f 73//73 120//120 119//119
f 73//73 117//117 120//120
f 89//89 118//118 112//112
f 112//112 118//118 73//73
f 121//121 122//122 123//123
f 124//124 123//123 125//125
f 121//121 123//123 124//124
f 124//124 125//125 126//126
f 127//127 128//128 129//129
f 130//130 131//131 122//122
f 132//132 133//133 131//131
f 126//126 125//125 134//134
f 121//121 130//130 122//122
f 130//130 132//132 131//131
f 126//126 134//134 135//135
f 127//127 129//129 136//136
f 136//136 129//129 137//137
f 136//136 137//137 138//138
f 137//137 139//139 138//138
f 135//135 134//134 140//140
f 135//135 140//140 141//141
f 142//142 143//143 133//133
f 144//144 145//145 143//143
f 146//146 147//147 148//148
f 132//132 142//142 133//133
f 142//142 144//144 143//143
f 138//138 139//139 149//149
f 139//139 150//150 149//149
f 146//146 148//148 151//151
f 149//149 150//150 152//152
f 152//152 150//150 153//153
f 154//154 155//155 145//145
f 151//151 148//148 155//155
f 144//144 154//154 145//145
f 151//151 155//155 154//154
f 152//152 153//153 156//156
f 141//141 140//140 147//147
f 141//141 147//147 146//146
f 157//157 158//158 159//159
f 157//157 159//159 160//160
f 161//161 162//162 158//158
f 163//163 164//164 162//162
f 157//157 161//161 158//158
f 165//165 166//166 167//167
f 161//161 163//163 162//162
f 167//167 168//168 169//169
f 170//170 171//171 164//164
f 172//172 173//173 171//171
f 163//163 170//170 164//164
f 169//169 174//174 175//175
f 170//170 172//172 171//171
f 175//175 176//176 177//177
f 178//178 179//179 173//173
f 172//172 178//178 173//173
f 160//160 159//159 180//180
f 160//160 180//180 181//181
f 165//165 182//182 166//166
f 181//181 180//180 183//183
f 184//184 183//183 185//185
f 181//181 183//183 184//184
f 167//167 166//166 168//168
f 184//184 185//185 186//186
f 169//169 168//168 174//174
f 186//186 185//185 187//187
f 188//188 187//187 189//189
f 186//186 187//187 188//188
f 175//175 174//174 176//176
f 188//188 189//189 190//190
f 177//177 176//176 191//191
f 190//190 189//189 179//179
f 190//190 179//179 178//178
f 177//177 191//191 192//192
f 193//193 194//194 195//195
f 196//196 193//193 195//195
f 197//197 198//198 199//199
f 200//200 199//199 201//201
f 197//197 199//199 200//200
f 200//200 201//201 202//202
f 203//203 204//204 205//205
f 196//196 195//195 198//198
f 202//202 201//201 206//206
f 207//207 206//206 208//208
f 197//197 196//196 198//198
f 203//203 205//205 209//209
f 209//209 205//205 210//210
f 209//209 210//210 211//211
f 210//210 212//212 211//211
f 202//202 206//206 207//207
f 207//207 208//208 213//213
f 214//214 215//215 194//194
f 193//193 214//214 194//194
f 216//216 217//217 215//215
f 213//213 208//208 218//218
f 219//219 218//218 220//220
f 211//211 212//212 221//221
f 212//212 222//222 221//221
f 214//214 216//216 215//215
f 221//221 222//222 223//223
f 223//223 222//222 224//224
f 213//213 218//218 219//219
f 219//219 220//220 225//225
f 226//226 227//227 217//217
f 225//225 220//220 227//227
f 216//216 226//226 217//217
f 225//225 227//227 226//226
f 223//223 224//224 228//228
f 229//229 230//230 231//231
f 232//232 231//231 233//233
f 229//229 231//231 232//232
f 232//232 233//233 234//234
f 235//235 236//236 237//237
f 238//238 239//239 230//230
f 240//240 241//241 239//239
f 234//234 233//233 242//242
f 229//229 238//238 230//230
f 238//238 240//240 239//239
f 234//234 242//242 243//243
f 235//235 237//237 244//244
f 244//244 237//237 245//245
f 244//244 245//245 246//246
f 245//245 247//247 246//246
f 243//243 242//242 248//248
f 243//243 248//248 249//249
f 250//250 251//251 241//241
f 252//252 253//253 251//251
f 254//254 255//255 256//256
f 240//240 250//250 241//241
f 250//250 252//252 251//251
f 246//246 247//247 257//257
f 247//247 258//258 257//257
f 254//254 256//256 259//259
f 257//257 258//258 260//260
f 260//260 258//258 261//261
f 262//262 263//263 253//253
f 259//259 256//256 263//263
f 252//252 262//262 253//253
f 262//262 259//259 263//263
f 260//260 261//261 264//264
f 249//249 248//248 255//255
f 249//249 255//255 254//254
f 265//265 266//266 267//267
f 265//265 267//267 268//268
f 269//269 270//270 266//266
f 271//271 272//272 270//270
f 265//265 269//269 266//266
f 273//273 274//274 275//275
f 269//269 271//271 270//270
f 275//275 276//276 277//277
f 278//278 279//279 272//272
f 280//280 281//281 279//279
f 271//271 278//278 272//272
f 277//277 282//282 283//283
f 278//278 280//280 279//279
f 283//283 284//284 285//285
f 286//286 287//287 281//281
f 280//280 286//286 281//281
f 268//268 267//267 288//288
f 268//268 288//288 289//289
f 273//273 290//290 274//274
f 289//289 288//288 291//291
f 292//292 291//291 293//293
f 289//289 291//291 292//292
f 275//275 274//274 276//276
f 292//292 293//293 294//294
f 277//277 276//276 282//282
f 294//294 293//293 295//295
f 296//296 295//295 297//297
f 294//294 295//295 296//296
f 283//283 282//282 284//284
f 296//296 297//297 298//298
f 285//285 284//284 299//299
f 298//298 297//297 287//287
f 286//286 298//298 287//287
f 285//285 299//299 300//300
f 301//301 302//302 303//303
f 304//304 301//301 303//303
f 305//305 306//306 307//307
f 308//308 307//307 309//309
f 305//305 307//307 308//308
f 308//308 309//309 310//310
f 311//311 312//312 313//313
f 304//304 303//303 306//306
f 310//310 309//309 314//314
f 315//315 314//314 316//316
f 305//305 304//304 306//306
f 311//311 313//313 317//317
f 317//317 313//313 318//318
f 317//317 318//318 319//319
f 318//318 320//320 319//319
f 310//310 314//314 315//315
f 315//315 316//316 321//321
f 322//322 323//323 302//302
f 301//301 322//322 302//302
f 324//324 325//325 323//323
f 321//321 316//316 326//326
f 327//327 326//326 328//328
f 319//319 320//320 329//329
f 320//320 330//330 329//329
f 322//322 324//324 323//323
f 329//329 330//330 331//331
f 331//331 330//330 332//332
f 321//321 326//326 327//327
f 327//327 328//328 333//333
f 334//334 335//335 325//325
f 333//333 328//328 335//335
f 324//324 334//334 325//325
f 334//334 333//333 335//335
f 331//331 332//332 336//336
