v -0.12066 -0.04666 -0.11500
v -0.11500 -0.04666 -0.12066
v -0.11500 -0.04900 -0.11500
v -0.12066 -0.04100 -0.12066
v -0.12300 -0.04100 -0.11500
v -0.11500 -0.04100 -0.12300
v -0.12066 0.04100 -0.12066
v -0.12066 -0.04666 0.11500
v -0.12300 0.04100 -0.11500
v -0.11500 0.04100 -0.12300
v -0.12300 0.04100 0.11500
v 0.11500 -0.04900 -0.11500
v 0.11500 -0.04100 -0.12300
v 0.11500 0.04100 -0.12300
v -0.11500 -0.04900 0.11500
v -0.12300 -0.04100 0.11500
v -0.11500 -0.04666 0.12066
v -0.12066 -0.04100 0.12066
v -0.11500 -0.04100 0.12300
v -0.12066 0.04100 0.12066
v -0.11500 0.04100 0.12300
v 0.11500 -0.04900 0.11500
v 0.11500 -0.04100 0.12300
v -0.12066 0.04666 -0.11500
v -0.11500 0.04666 -0.12066
v -0.11500 0.04900 -0.11500
v -0.06495 0.04900 -0.03750
v -0.03750 0.04900 -0.06495
v -0.11500 0.04900 0.11500
v -0.07500 0.04900 0.00000
v 0.11500 0.04900 -0.11500
v 0.00000 0.04900 -0.07500
v -0.12066 0.04666 0.11500
v -0.06495 0.04900 0.03750
v -0.11500 0.04666 0.12066
v -0.03750 0.04900 0.06495
v 0.11500 0.04100 0.12300
v 0.00000 0.04900 0.07500
v 0.11500 0.04900 0.11500
v 0.11500 -0.04666 -0.12066
v 0.12066 -0.04666 -0.11500
v 0.12066 -0.04100 -0.12066
v 0.12300 -0.04100 -0.11500
v 0.12066 0.04100 -0.12066
v 0.12066 -0.04666 0.11500
v 0.12300 0.04100 -0.11500
v 0.12300 -0.04100 0.11500
v 0.11500 -0.04666 0.12066
v 0.12066 -0.04100 0.12066
v 0.12300 0.04100 0.11500
v 0.12066 0.04100 0.12066
v 0.11500 0.04666 -0.12066
v 0.03750 0.04900 -0.06495
v 0.06495 0.04900 -0.03750
v 0.12066 0.04666 -0.11500
v 0.07500 0.04900 0.00000
v 0.03750 0.04900 0.06495
v 0.11500 0.04666 0.12066
v 0.06495 0.04900 0.03750
v 0.12066 0.04666 0.11500
v -0.06495 0.09900 -0.03750
v -0.06495 0.04900 -0.03750
v -0.07500 0.04900 0.00000
v -0.07500 0.09900 0.00000
v 0.00000 0.09900 -0.07500
v 0.00000 0.04900 -0.07500
v -0.03750 0.04900 -0.06495
v -0.03750 0.09900 -0.06495
v -0.06495 0.09900 0.03750
v -0.03750 0.09900 -0.06495
v -0.06495 0.09900 -0.03750
v -0.03750 0.09900 0.06495
v 0.00000 0.09900 -0.07500
v -0.06495 0.04900 0.03750
v -0.06495 0.09900 0.03750
v -0.07500 0.09900 0.00000
v -0.03750 0.04900 0.06495
v -0.03750 0.09900 0.06495
v 0.00000 0.09900 0.07500
v 0.00000 0.04900 0.07500
v 0.00000 0.09900 0.07500
v 0.03750 0.09900 -0.06495
v 0.03750 0.04900 -0.06495
v 0.03750 0.09900 -0.06495
v 0.06495 0.09900 -0.03750
v 0.06495 0.04900 -0.03750
v 0.03750 0.09900 0.06495
v 0.06495 0.09900 -0.03750
v 0.07500 0.09900 0.00000
v 0.07500 0.04900 0.00000
v 0.03750 0.09900 0.06495
v 0.03750 0.04900 0.06495
v 0.06495 0.04900 0.03750
v 0.06495 0.09900 0.03750
v 0.06495 0.09900 0.03750
v 0.07500 0.09900 0.00000
vn -0.6887 -0.6887 -0.2265
vn -0.2265 -0.6887 -0.6887
vn -0.1877 -0.9641 -0.1877
vn -0.6887 -0.2265 -0.6887
vn -0.9641 -0.1877 -0.1877
vn -0.1877 -0.1877 -0.9641
vn -0.6887 0.2265 -0.6887
vn -0.6887 -0.6887 0.2265
vn -0.9641 0.1877 -0.1877
vn -0.1877 0.1877 -0.9641
vn -0.9641 0.1877 0.1877
vn 0.1877 -0.9641 -0.1877
vn 0.1877 -0.1877 -0.9641
vn 0.1877 0.1877 -0.9641
vn -0.1877 -0.9641 0.1877
vn -0.9641 -0.1877 0.1877
vn -0.2265 -0.6887 0.6887
vn -0.6887 -0.2265 0.6887
vn -0.1877 -0.1877 0.9641
vn -0.6887 0.2265 0.6887
vn -0.1877 0.1877 0.9641
vn 0.1877 -0.9641 0.1877
vn 0.1877 -0.1877 0.9641
vn -0.6887 0.6887 -0.2265
vn -0.2265 0.6887 -0.6887
vn -0.1877 0.9641 -0.1877
vn 0.0000 1.0000 0.0000
vn 0.0000 1.0000 0.0000
vn -0.1877 0.9641 0.1877
vn 0.0000 1.0000 0.0000
vn 0.1877 0.9641 -0.1877
vn 0.0000 1.0000 0.0000
vn -0.6887 0.6887 0.2265
vn 0.0000 1.0000 0.0000
vn -0.2265 0.6887 0.6887
vn 0.0000 1.0000 0.0000
vn 0.1877 0.1877 0.9641
vn 0.0000 1.0000 0.0000
vn 0.1877 0.9641 0.1877
vn 0.2265 -0.6887 -0.6887
vn 0.6887 -0.6887 -0.2265
vn 0.6887 -0.2265 -0.6887
vn 0.9641 -0.1877 -0.1877
vn 0.6887 0.2265 -0.6887
vn 0.6887 -0.6887 0.2265
vn 0.9641 0.1877 -0.1877
vn 0.9641 -0.1877 0.1877
vn 0.2265 -0.6887 0.6887
vn 0.6887 -0.2265 0.6887
vn 0.9641 0.1877 0.1877
vn 0.6887 0.2265 0.6887
vn 0.2265 0.6887 -0.6887
vn 0.0000 1.0000 0.0000
vn 0.0000 1.0000 0.0000
vn 0.6887 0.6887 -0.2265
vn 0.0000 1.0000 0.0000
vn 0.0000 1.0000 0.0000
vn 0.2265 0.6887 0.6887
vn 0.0000 1.0000 0.0000
vn 0.6887 0.6887 0.2265
vn -0.8660 0.0000 -0.5000
vn -0.8660 0.0000 -0.5000
vn -1.0000 0.0000 0.0000
vn -1.0000 0.0000 0.0000
vn 0.0000 -0.0000 -1.0000
vn 0.0000 0.0000 -1.0000
vn -0.5000 -0.0000 -0.8660
vn -0.5000 0.0000 -0.8660
vn 0.0000 1.0000 0.0000
vn 0.0000 1.0000 0.0000
vn 0.0000 1.0000 0.0000
vn 0.0000 1.0000 0.0000
vn 0.0000 1.0000 0.0000
vn -0.8660 0.0000 0.5000
vn -0.8660 0.0000 0.5000
vn 0.0000 1.0000 0.0000
vn -0.5000 0.0000 0.8660
vn -0.5000 0.0000 0.8660
vn 0.0000 1.0000 0.0000
vn 0.0000 0.0000 1.0000
vn 0.0000 0.0000 1.0000
vn 0.5000 0.0000 -0.8660
vn 0.5000 0.0000 -0.8660
vn 0.0000 1.0000 0.0000
vn 0.8660 0.0000 -0.5000
vn 0.8660 0.0000 -0.5000
vn 0.0000 1.0000 0.0000
vn 0.0000 1.0000 0.0000
vn 1.0000 0.0000 0.0000
vn 1.0000 0.0000 0.0000
vn 0.5000 0.0000 0.8660
vn 0.5000 0.0000 0.8660
vn 0.8660 0.0000 0.5000
vn 0.0000 1.0000 0.0000
vn 0.8660 0.0000 0.5000
vn 0.0000 1.0000 0.0000
f 1//1 2//2 3//3
f 1//1 4//4 2//2
f 1//1 5//5 4//4
f 2//2 4//4 6//6
f 4//4 5//5 7//7
f 4//4 7//7 6//6
f 1//1 8//8 5//5
f 1//1 3//3 8//8
f 5//5 9//9 7//7
f 6//6 7//7 10//10
f 5//5 11//11 9//9
f 2//2 12//12 3//3
f 2//2 6//6 13//13
f 6//6 10//10 14//14
f 3//3 15//15 8//8
f 5//5 8//8 16//16
f 5//5 16//16 11//11
f 8//8 15//15 17//17
f 8//8 17//17 18//18
f 8//8 18//18 16//16
f 17//17 19//19 18//18
f 16//16 18//18 20//20
f 18//18 19//19 20//20
f 16//16 20//20 11//11
f 19//19 21//21 20//20
f 3//3 22//22 15//15
f 15//15 22//22 17//17
f 17//17 23//23 19//19
f 19//19 23//23 21//21
f 7//7 9//9 24//24
f 7//7 25//25 10//10
f 7//7 24//24 25//25
f 24//24 26//26 25//25
f 26//26 27//27 28//28
f 9//9 11//11 24//24
f 24//24 29//29 26//26
f 26//26 30//30 27//27
f 10//10 25//25 14//14
f 25//25 26//26 31//31
f 26//26 28//28 32//32
f 26//26 29//29 30//30
f 24//24 11//11 33//33
f 24//24 33//33 29//29
f 29//29 34//34 30//30
f 11//11 20//20 33//33
f 20//20 21//21 35//35
f 20//20 35//35 33//33
f 33//33 35//35 29//29
f 29//29 36//36 34//34
f 21//21 37//37 35//35
f 29//29 38//38 36//36
f 29//29 35//35 39//39
f 2//2 40//40 12//12
f 2//2 13//13 40//40
f 6//6 14//14 13//13
f 3//3 12//12 22//22
f 40//40 41//41 12//12
f 40//40 42//42 41//41
f 40//40 13//13 42//42
f 41//41 42//42 43//43
f 13//13 44//44 42//42
f 42//42 44//44 43//43
f 12//12 41//41 45//45
f 41//41 43//43 45//45
f 43//43 46//46 47//47
f 13//13 14//14 44//44
f 43//43 44//44 46//46
f 17//17 22//22 48//48
f 17//17 48//48 23//23
f 21//21 23//23 37//37
f 12//12 45//45 22//22
f 43//43 47//47 45//45
f 22//22 45//45 48//48
f 48//48 45//45 49//49
f 48//48 49//49 23//23
f 45//45 47//47 49//49
f 23//23 49//49 37//37
f 47//47 50//50 49//49
f 47//47 46//46 50//50
f 49//49 51//51 37//37
f 49//49 50//50 51//51
f 26//26 32//32 31//31
f 25//25 52//52 14//14
f 25//25 31//31 52//52
f 31//31 32//32 53//53
f 31//31 53//53 54//54
f 14//14 52//52 44//44
f 44//44 55//55 46//46
f 44//44 52//52 55//55
f 52//52 31//31 55//55
f 31//31 54//54 56//56
f 46//46 55//55 50//50
f 31//31 39//39 55//55
f 29//29 39//39 38//38
f 39//39 57//57 38//38
f 35//35 37//37 58//58
f 35//35 58//58 39//39
f 39//39 56//56 59//59
f 31//31 56//56 39//39
f 55//55 39//39 60//60
f 55//55 60//60 50//50
f 39//39 59//59 57//57
f 37//37 51//51 58//58
f 50//50 60//60 51//51
f 51//51 60//60 58//58
f 39//39 58//58 60//60
f 61//61 62//62 63//63
f 64//64 61//61 63//63
f 65//65 66//66 67//67
f 68//68 65//65 67//67
f 68//68 67//67 62//62
f 61//61 68//68 62//62
f 69//69 70//70 71//71
f 72//72 73//73 70//70
f 64//64 63//63 74//74
f 75//75 64//64 74//74
f 69//69 71//71 76//76
f 75//75 74//74 77//77
f 69//69 72//72 70//70
f 75//75 77//77 78//78
f 72//72 79//79 73//73
f 78//78 77//77 80//80
f 78//78 80//80 81//81
f 82//82 83//83 66//66
f 65//65 82//82 66//66
f 79//79 84//84 73//73
f 85//85 86//86 83//83
f 82//82 85//85 83//83
f 87//87 88//88 84//84
f 89//89 90//90 86//86
f 89//89 86//86 85//85
f 79//79 87//87 84//84
f 91//91 92//92 93//93
f 87//87 94//94 88//88
f 91//91 93//93 95//95
f 81//81 80//80 92//92
f 81//81 92//92 91//91
f 95//95 93//93 90//90
f 95//95 90//90 89//89
f 94//94 96//96 88//88
