v -0.12066 -0.04666 -0.24000
v -0.11500 -0.04666 -0.24566
v -0.11500 -0.04900 -0.24000
v -0.12066 -0.04100 -0.24566
v -0.12300 -0.04100 -0.24000
v -0.11500 -0.04100 -0.24800
v -0.12066 0.04100 -0.24566
v -0.12066 -0.04666 0.24000
v -0.12300 0.04100 -0.24000
v -0.11500 0.04100 -0.24800
v -0.12300 0.04100 0.24000
v 0.11500 -0.04900 -0.24000
v 0.11500 -0.04100 -0.24800
v 0.11500 0.04100 -0.24800
v -0.11500 -0.04900 0.24000
v -0.12300 -0.04100 0.24000
v -0.11500 -0.04666 0.24566
v -0.12066 -0.04100 0.24566
v -0.11500 -0.04100 0.24800
v -0.12066 0.04100 0.24566
v -0.11500 0.04100 0.24800
v 0.11500 -0.04900 0.24000
v 0.11500 -0.04666 0.24566
v 0.11500 -0.04100 0.24800
v -0.12066 0.04666 -0.24000
v -0.11500 0.04666 -0.24566
v -0.11500 0.04900 -0.24000
v -0.06495 0.04900 -0.16250
v -0.03750 0.04900 -0.18995
v -0.07500 0.04900 -0.12500
v -0.11500 0.04900 0.24000
v -0.07500 0.04900 0.12500
v -0.06495 0.04900 -0.08750
v 0.00000 0.04900 -0.20000
v 0.11500 0.04900 -0.24000
v -0.06495 0.04900 0.08750
v -0.03750 0.04900 -0.06005
v 0.00000 0.04900 0.05000
v 0.00000 0.04900 -0.05000
v -0.12066 0.04666 0.24000
v -0.11500 0.04666 0.24566
v -0.06495 0.04900 0.16250
v -0.03750 0.04900 0.18995
v -0.03750 0.04900 0.06005
v 0.11500 0.04100 0.24800
v 0.00000 0.04900 0.20000
v 0.11500 0.04900 0.24000
v 0.11500 -0.04666 -0.24566
v 0.12066 -0.04666 -0.24000
v 0.12066 -0.04100 -0.24566
v 0.12300 -0.04100 -0.24000
v 0.12066 0.04100 -0.24566
v 0.12066 -0.04666 0.24000
v 0.12300 0.04100 -0.24000
v 0.12300 -0.04100 0.24000
v 0.12066 -0.04100 0.24566
v 0.12300 0.04100 0.24000
v 0.12066 0.04100 0.24566
v 0.11500 0.04666 -0.24566
v 0.03750 0.04900 -0.18995
v 0.03750 0.04900 0.06005
v 0.03750 0.04900 -0.06005
v 0.06495 0.04900 -0.08750
v 0.06495 0.04900 0.08750
v 0.06495 0.04900 -0.16250
v 0.07500 0.04900 -0.12500
v 0.12066 0.04666 -0.24000
v 0.07500 0.04900 0.12500
v 0.11500 0.04666 0.24566
v 0.03750 0.04900 0.18995
v 0.12066 0.04666 0.24000
v 0.06495 0.04900 0.16250
v -0.06495 0.09900 -0.16250
v -0.06495 0.04900 -0.16250
v -0.07500 0.04900 -0.12500
v -0.07500 0.09900 -0.12500
v -0.06495 0.09900 -0.16250
v -0.07500 0.09900 -0.12500
v -0.06495 0.09900 -0.08750
v -0.06495 0.04900 -0.08750
v -0.06495 0.09900 -0.08750
v -0.03750 0.09900 -0.18995
v -0.03750 0.04900 -0.18995
v -0.03750 0.09900 -0.18995
v 0.00000 0.09900 -0.20000
v 0.00000 0.04900 -0.20000
v -0.03750 0.09900 -0.06005
v 0.00000 0.09900 -0.20000
v -0.03750 0.04900 -0.06005
v -0.03750 0.09900 -0.06005
v 0.00000 0.04900 -0.05000
v 0.00000 0.09900 -0.05000
v 0.00000 0.09900 -0.05000
v 0.03750 0.09900 -0.18995
v 0.03750 0.04900 -0.18995
v 0.03750 0.09900 -0.18995
v 0.06495 0.09900 -0.16250
v 0.06495 0.04900 -0.16250
v 0.03750 0.09900 -0.06005
v 0.06495 0.09900 -0.16250
v 0.03750 0.04900 -0.06005
v 0.03750 0.09900 -0.06005
v 0.06495 0.04900 -0.08750
v 0.06495 0.09900 -0.08750
v 0.06495 0.09900 -0.08750
v 0.07500 0.09900 -0.12500
v 0.07500 0.04900 -0.12500
v 0.07500 0.09900 -0.12500
v -0.06495 0.09900 0.08750
v -0.06495 0.04900 0.08750
v -0.07500 0.04900 0.12500
v -0.07500 0.09900 0.12500
v -0.06495 0.04900 0.16250
v -0.06495 0.09900 0.16250
v -0.06495 0.09900 0.08750
v -0.07500 0.09900 0.12500
v -0.06495 0.09900 0.16250
v -0.03750 0.09900 0.06005
v -0.03750 0.04900 0.06005
v -0.03750 0.09900 0.06005
v 0.00000 0.09900 0.05000
v 0.00000 0.04900 0.05000
v -0.03750 0.09900 0.18995
v 0.00000 0.09900 0.05000
v -0.03750 0.04900 0.18995
v -0.03750 0.09900 0.18995
v 0.00000 0.04900 0.20000
v 0.00000 0.09900 0.20000
v 0.00000 0.09900 0.20000
v 0.03750 0.09900 0.06005
v 0.03750 0.04900 0.06005
v 0.03750 0.09900 0.06005
v 0.06495 0.09900 0.08750
v 0.06495 0.04900 0.08750
v 0.03750 0.09900 0.18995
v 0.06495 0.09900 0.08750
v 0.03750 0.04900 0.18995
v 0.03750 0.09900 0.18995
v 0.06495 0.04900 0.16250
v 0.06495 0.09900 0.16250
v 0.06495 0.09900 0.16250
v 0.07500 0.09900 0.12500
v 0.07500 0.04900 0.12500
v 0.07500 0.09900 0.12500
vn -0.6887 -0.6887 -0.2265
vn -0.2265 -0.6887 -0.6887
vn -0.1877 -0.9641 -0.1877
vn -0.6887 -0.2265 -0.6887
vn -0.9641 -0.1877 -0.1877
vn -0.1877 -0.1877 -0.9641
vn -0.6887 0.2265 -0.6887
vn -0.6887 -0.6887 0.2265
vn -0.9641 0.1877 -0.1877
vn -0.1877 0.1877 -0.9641
vn -0.9641 0.1877 0.1877
vn 0.1877 -0.9641 -0.1877
vn 0.1877 -0.1877 -0.9641
vn 0.1877 0.1877 -0.9641
vn -0.1877 -0.9641 0.1877
vn -0.9641 -0.1877 0.1877
vn -0.2265 -0.6887 0.6887
vn -0.6887 -0.2265 0.6887
vn -0.1877 -0.1877 0.9641
vn -0.6887 0.2265 0.6887
vn -0.1877 0.1877 0.9641
vn 0.1877 -0.9641 0.1877
vn 0.2265 -0.6887 0.6887
vn 0.1877 -0.1877 0.9641
vn -0.6887 0.6887 -0.2265
vn -0.2265 0.6887 -0.6887
vn -0.1877 0.9641 -0.1877
vn 0.0000 1.0000 0.0000
vn 0.0000 1.0000 0.0000
vn 0.0000 1.0000 0.0000
vn -0.1877 0.9641 0.1877
vn 0.0000 1.0000 0.0000
vn 0.0000 1.0000 0.0000
vn 0.0000 1.0000 0.0000
vn 0.1877 0.9641 -0.1877
vn 0.0000 1.0000 0.0000
vn 0.0000 1.0000 0.0000
vn 0.0000 1.0000 0.0000
vn 0.0000 1.0000 0.0000
vn -0.6887 0.6887 0.2265
vn -0.2265 0.6887 0.6887
vn 0.0000 1.0000 0.0000
vn 0.0000 1.0000 0.0000
vn 0.0000 1.0000 0.0000
vn 0.1877 0.1877 0.9641
vn 0.0000 1.0000 0.0000
vn 0.1877 0.9641 0.1877
vn 0.2265 -0.6887 -0.6887
vn 0.6887 -0.6887 -0.2265
vn 0.6887 -0.2265 -0.6887
vn 0.9641 -0.1877 -0.1877
vn 0.6887 0.2265 -0.6887
vn 0.6887 -0.6887 0.2265
vn 0.9641 0.1877 -0.1877
vn 0.9641 -0.1877 0.1877
vn 0.6887 -0.2265 0.6887
vn 0.9641 0.1877 0.1877
vn 0.6887 0.2265 0.6887
vn 0.2265 0.6887 -0.6887
vn 0.0000 1.0000 0.0000
vn 0.0000 1.0000 0.0000
vn 0.0000 1.0000 0.0000
vn 0.0000 1.0000 0.0000
vn 0.0000 1.0000 0.0000
vn 0.0000 1.0000 0.0000
vn 0.0000 1.0000 0.0000
vn 0.6887 0.6887 -0.2265
vn 0.0000 1.0000 0.0000
vn 0.2265 0.6887 0.6887
vn 0.0000 1.0000 0.0000
vn 0.6887 0.6887 0.2265
vn 0.0000 1.0000 0.0000
vn -0.8660 0.0000 -0.5000
vn -0.8660 0.0000 -0.5000
vn -1.0000 0.0000 -0.0000
vn -1.0000 0.0000 0.0000
vn 0.0000 1.0000 0.0000
vn 0.0000 1.0000 0.0000
vn 0.0000 1.0000 0.0000
vn -0.8660 0.0000 0.5000
vn -0.8660 0.0000 0.5000
vn -0.5000 0.0000 -0.8660
vn -0.5000 0.0000 -0.8660
vn 0.0000 1.0000 0.0000
vn 0.0000 0.0000 -1.0000
vn 0.0000 0.0000 -1.0000
vn 0.0000 1.0000 0.0000
vn 0.0000 1.0000 0.0000
vn -0.5000 0.0000 0.8660
vn -0.5000 0.0000 0.8660
vn 0.0000 0.0000 1.0000
vn 0.0000 1.0000 0.0000
vn 0.0000 0.0000 1.0000
vn 0.5000 0.0000 -0.8660
vn 0.5000 0.0000 -0.8660
vn 0.0000 1.0000 0.0000
vn 0.8660 0.0000 -0.5000
vn 0.8660 0.0000 -0.5000
vn 0.0000 1.0000 0.0000
vn 0.0000 1.0000 0.0000
vn 0.5000 0.0000 0.8660
vn 0.5000 0.0000 0.8660
vn 0.8660 0.0000 0.5000
vn 0.8660 0.0000 0.5000
vn 0.0000 1.0000 0.0000
vn 1.0000 0.0000 0.0000
vn 1.0000 0.0000 0.0000
vn 0.0000 1.0000 0.0000
vn -0.8660 0.0000 -0.5000
vn -0.8660 0.0000 -0.5000
vn -1.0000 0.0000 -0.0000
vn -1.0000 0.0000 0.0000
vn -0.8660 0.0000 0.5000
vn -0.8660 0.0000 0.5000
vn 0.0000 1.0000 0.0000
vn 0.0000 1.0000 0.0000
vn 0.0000 1.0000 0.0000
vn -0.5000 0.0000 -0.8660
vn -0.5000 0.0000 -0.8660
vn 0.0000 1.0000 0.0000
vn 0.0000 0.0000 -1.0000
vn 0.0000 0.0000 -1.0000
vn 0.0000 1.0000 0.0000
vn 0.0000 1.0000 0.0000
vn -0.5000 0.0000 0.8660
vn -0.5000 0.0000 0.8660
vn 0.0000 0.0000 1.0000
vn 0.0000 1.0000 0.0000
vn 0.0000 0.0000 1.0000
vn 0.5000 0.0000 -0.8660
vn 0.5000 0.0000 -0.8660
vn 0.0000 1.0000 0.0000
vn 0.8660 0.0000 -0.5000
vn 0.8660 0.0000 -0.5000
vn 0.0000 1.0000 0.0000
vn 0.0000 1.0000 0.0000
vn 0.5000 0.0000 0.8660
vn 0.5000 0.0000 0.8660
vn 0.8660 0.0000 0.5000
vn 0.8660 0.0000 0.5000
vn 0.0000 1.0000 0.0000
vn 1.0000 0.0000 0.0000
vn 1.0000 0.0000 0.0000
vn 0.0000 1.0000 0.0000
f 1//1 2//2 3//3
f 1//1 4//4 2//2
f 1//1 5//5 4//4
f 2//2 4//4 6//6
f 4//4 5//5 7//7
f 4//4 7//7 6//6
f 1//1 8//8 5//5
f 1//1 3//3 8//8
f 5//5 9//9 7//7
f 6//6 7//7 10//10
f 5//5 11//11 9//9
f 3//3 2//2 12//12
f 2//2 6//6 13//13
f 6//6 10//10 14//14
f 3//3 15//15 8//8
f 5//5 8//8 16//16
f 5//5 16//16 11//11
f 8//8 15//15 17//17
f 8//8 17//17 18//18
f 8//8 18//18 16//16
f 17//17 19//19 18//18
f 16//16 18//18 20//20
f 18//18 19//19 20//20
f 16//16 20//20 11//11
f 19//19 21//21 20//20
f 3//3 22//22 15//15
f 15//15 23//23 17//17
f 17//17 23//23 19//19
f 19//19 24//24 21//21
f 7//7 9//9 25//25
f 7//7 26//26 10//10
f 7//7 25//25 26//26
f 25//25 27//27 26//26
f 27//27 28//28 29//29
f 27//27 30//30 28//28
f 9//9 11//11 25//25
f 25//25 31//31 27//27
f 27//27 31//31 30//30
f 30//30 32//32 33//33
f 10//10 26//26 14//14
f 27//27 29//29 34//34
f 26//26 27//27 35//35
f 33//33 36//36 37//37
f 38//38 39//39 37//37
f 25//25 11//11 40//40
f 25//25 40//40 31//31
f 33//33 32//32 36//36
f 31//31 32//32 30//30
f 11//11 20//20 40//40
f 20//20 21//21 41//41
f 20//20 41//41 40//40
f 40//40 41//41 31//31
f 31//31 42//42 32//32
f 31//31 43//43 42//42
f 37//37 36//36 44//44
f 38//38 37//37 44//44
f 21//21 45//45 41//41
f 31//31 46//46 43//43
f 41//41 47//47 31//31
f 2//2 48//48 12//12
f 2//2 13//13 48//48
f 6//6 14//14 13//13
f 3//3 12//12 22//22
f 12//12 48//48 49//49
f 48//48 50//50 49//49
f 48//48 13//13 50//50
f 49//49 50//50 51//51
f 13//13 52//52 50//50
f 50//50 52//52 51//51
f 12//12 49//49 53//53
f 49//49 51//51 53//53
f 51//51 54//54 55//55
f 13//13 14//14 52//52
f 51//51 52//52 54//54
f 15//15 22//22 23//23
f 19//19 23//23 24//24
f 21//21 24//24 45//45
f 12//12 53//53 22//22
f 51//51 55//55 53//53
f 22//22 53//53 23//23
f 23//23 53//53 56//56
f 23//23 56//56 24//24
f 53//53 55//55 56//56
f 24//24 56//56 45//45
f 55//55 57//57 56//56
f 55//55 54//54 57//57
f 56//56 58//58 45//45
f 56//56 57//57 58//58
f 27//27 34//34 35//35
f 26//26 59//59 14//14
f 26//26 35//35 59//59
f 35//35 34//34 60//60
f 39//39 61//61 62//62
f 63//63 62//62 64//64
f 35//35 60//60 65//65
f 35//35 65//65 66//66
f 14//14 59//59 52//52
f 52//52 67//67 54//54
f 52//52 59//59 67//67
f 59//59 35//35 67//67
f 35//35 66//66 68//68
f 66//66 63//63 64//64
f 54//54 67//67 57//57
f 35//35 47//47 67//67
f 39//39 38//38 61//61
f 61//61 64//64 62//62
f 31//31 47//47 46//46
f 41//41 45//45 69//69
f 41//41 69//69 47//47
f 47//47 70//70 46//46
f 66//66 64//64 68//68
f 35//35 68//68 47//47
f 67//67 47//47 71//71
f 67//67 71//71 57//57
f 47//47 68//68 72//72
f 47//47 72//72 70//70
f 45//45 58//58 69//69
f 57//57 71//71 58//58
f 58//58 71//71 69//69
f 69//69 71//71 47//47
f 73//73 74//74 75//75
f 73//73 75//75 76//76
f 77//77 78//78 79//79
f 76//76 75//75 80//80
f 76//76 80//80 81//81
f 82//82 83//83 74//74
f 73//73 82//82 74//74
f 77//77 79//79 84//84
f 85//85 86//86 83//83
f 82//82 85//85 83//83
f 84//84 87//87 88//88
f 81//81 80//80 89//89
f 81//81 89//89 90//90
f 79//79 87//87 84//84
f 90//90 89//89 91//91
f 88//88 87//87 92//92
f 90//90 91//91 93//93
f 94//94 95//95 86//86
f 85//85 94//94 86//86
f 88//88 92//92 96//96
f 97//97 98//98 95//95
f 94//94 97//97 95//95
f 96//96 99//99 100//100
f 93//93 91//91 101//101
f 92//92 99//99 96//96
f 93//93 101//101 102//102
f 102//102 101//101 103//103
f 102//102 103//103 104//104
f 99//99 105//105 100//100
f 106//106 107//107 98//98
f 97//97 106//106 98//98
f 100//100 105//105 108//108
f 104//104 103//103 107//107
f 106//106 104//104 107//107
f 109//109 110//110 111//111
f 109//109 111//111 112//112
f 112//112 111//111 113//113
f 112//112 113//113 114//114
f 115//115 116//116 117//117
f 118//118 119//119 110//110
f 109//109 118//118 110//110
f 115//115 117//117 120//120
f 121//121 122//122 119//119
f 118//118 121//121 119//119
f 120//120 123//123 124//124
f 114//114 113//113 125//125
f 114//114 125//125 126//126
f 117//117 123//123 120//120
f 126//126 125//125 127//127
f 124//124 123//123 128//128
f 126//126 127//127 129//129
f 130//130 131//131 122//122
f 121//121 130//130 122//122
f 124//124 128//128 132//132
f 133//133 134//134 131//131
f 130//130 133//133 131//131
f 132//132 135//135 136//136
f 129//129 127//127 137//137
f 128//128 135//135 132//132
f 129//129 137//137 138//138
f 138//138 137//137 139//139
f 138//138 139//139 140//140
f 135//135 141//141 136//136
f 142//142 143//143 134//134
f 133//133 142//142 134//134
f 140//140 139//139 143//143
f 142//142 140//140 143//143
f 136//136 141//141 144//144
