v -0.24566 -0.04666 -0.99000
v -0.24000 -0.04666 -0.99566
v -0.24000 -0.04900 -0.99000
v -0.24566 -0.04100 -0.99566
v -0.24800 -0.04100 -0.99000
v -0.24000 -0.04100 -0.99800
v -0.24800 0.04100 -0.99000
v -0.24000 0.04100 -0.99800
v -0.24000 -0.04900 0.99000
v -0.24800 -0.04100 0.99000
v -0.24566 0.04100 -0.99566
v 0.24000 -0.04900 -0.99000
v 0.24000 -0.04100 -0.99800
v -0.24566 -0.04666 0.99000
v -0.24000 -0.04666 0.99566
v -0.24566 -0.04100 0.99566
v -0.24000 -0.04100 0.99800
v -0.24566 0.04100 0.99566
v -0.24800 0.04100 0.99000
v -0.24000 0.04100 0.99800
v 0.24000 -0.04900 0.99000
v 0.24000 -0.04666 0.99566
v 0.24000 -0.04100 0.99800
v -0.24566 0.04666 -0.99000
v -0.24000 0.04666 -0.99566
v -0.24000 0.04900 -0.99000
v -0.20000 0.04900 -0.87500
v -0.18995 0.04900 -0.91250
v -0.16250 0.04900 -0.93995
v -0.20000 0.04900 -0.62500
v -0.18995 0.04900 -0.83750
v -0.20000 0.04900 -0.37500
v -0.18995 0.04900 -0.66250
v -0.18995 0.04900 -0.58750
v -0.12500 0.04900 -0.95000
v -0.16250 0.04900 -0.81005
v -0.08750 0.04900 -0.93995
v -0.12500 0.04900 -0.70000
v -0.12500 0.04900 -0.80000
v -0.16250 0.04900 -0.68995
v -0.18995 0.04900 -0.41250
v -0.16250 0.04900 -0.56005
v -0.16250 0.04900 -0.43995
v -0.12500 0.04900 -0.55000
v -0.24566 0.04666 0.99000
v -0.20000 0.04900 -0.12500
v -0.20000 0.04900 0.12500
v -0.18995 0.04900 -0.33750
v -0.20000 0.04900 0.37500
v -0.18995 0.04900 -0.16250
v -0.18995 0.04900 0.08750
v -0.18995 0.04900 -0.08750
v -0.16250 0.04900 -0.31005
v -0.12500 0.04900 -0.45000
v -0.16250 0.04900 -0.18995
v -0.12500 0.04900 -0.30000
v -0.16250 0.04900 -0.06005
v -0.12500 0.04900 -0.20000
v -0.16250 0.04900 0.06005
v -0.12500 0.04900 -0.05000
v -0.08750 0.04900 -0.81005
v 0.24000 0.04666 -0.99566
v 0.24000 0.04900 -0.99000
v 0.08750 0.04900 -0.93995
v -0.06005 0.04900 -0.66250
v -0.06005 0.04900 -0.83750
v -0.08750 0.04900 -0.68995
v -0.08750 0.04900 -0.43995
v -0.08750 0.04900 -0.56005
v -0.06005 0.04900 -0.58750
v -0.05000 0.04900 -0.87500
v -0.06005 0.04900 -0.91250
v 0.05000 0.04900 -0.87500
v 0.12500 0.04900 -0.95000
v -0.05000 0.04900 -0.62500
v -0.06005 0.04900 -0.41250
v 0.05000 0.04900 -0.62500
v -0.08750 0.04900 -0.31005
v -0.08750 0.04900 -0.18995
v -0.06005 0.04900 -0.33750
v -0.08750 0.04900 0.06005
v -0.08750 0.04900 -0.06005
v -0.06005 0.04900 -0.16250
v -0.06005 0.04900 -0.08750
v -0.05000 0.04900 -0.37500
v 0.05000 0.04900 -0.37500
v -0.05000 0.04900 -0.12500
v -0.06005 0.04900 0.08750
v -0.05000 0.04900 0.12500
v -0.24000 0.04900 0.99000
v -0.18995 0.04900 0.16250
v -0.18995 0.04900 0.33750
v -0.20000 0.04900 0.62500
v -0.18995 0.04900 0.41250
v -0.16250 0.04900 0.18995
v -0.12500 0.04900 0.05000
v -0.16250 0.04900 0.31005
v -0.12500 0.04900 0.20000
v -0.18995 0.04900 0.58750
v -0.16250 0.04900 0.43995
v -0.12500 0.04900 0.30000
v -0.12500 0.04900 0.55000
v -0.12500 0.04900 0.45000
v -0.24000 0.04666 0.99566
v -0.18995 0.04900 0.66250
v -0.20000 0.04900 0.87500
v -0.18995 0.04900 0.83750
v -0.18995 0.04900 0.91250
v -0.16250 0.04900 0.93995
v -0.16250 0.04900 0.56005
v -0.16250 0.04900 0.81005
v -0.16250 0.04900 0.68995
v -0.12500 0.04900 0.70000
v -0.12500 0.04900 0.95000
v -0.12500 0.04900 0.80000
v -0.08750 0.04900 0.18995
v -0.08750 0.04900 0.31005
v -0.06005 0.04900 0.16250
v -0.08750 0.04900 0.56005
v -0.08750 0.04900 0.43995
v -0.06005 0.04900 0.33750
v -0.06005 0.04900 0.41250
v -0.05000 0.04900 0.37500
v 0.05000 0.04900 0.37500
v 0.24000 0.04100 0.99800
v -0.08750 0.04900 0.68995
v -0.06005 0.04900 0.58750
v -0.08750 0.04900 0.81005
v -0.06005 0.04900 0.66250
v -0.06005 0.04900 0.83750
v 0.24000 0.04900 0.99000
v 0.06005 0.04900 0.58750
v -0.05000 0.04900 0.62500
v 0.05000 0.04900 0.62500
v 0.06005 0.04900 0.83750
v -0.05000 0.04900 0.87500
v 0.05000 0.04900 0.87500
v -0.06005 0.04900 0.91250
v -0.08750 0.04900 0.93995
v 0.08750 0.04900 0.93995
v 0.12500 0.04900 0.95000
v 0.24000 -0.04666 -0.99566
v 0.24000 0.04100 -0.99800
v 0.24566 -0.04666 -0.99000
v 0.24566 -0.04100 -0.99566
v 0.24800 -0.04100 -0.99000
v 0.24566 0.04100 -0.99566
v 0.24800 -0.04100 0.99000
v 0.24800 0.04100 -0.99000
v 0.24566 -0.04666 0.99000
v 0.24566 -0.04100 0.99566
v 0.24800 0.04100 0.99000
v 0.24566 0.04100 0.99566
v 0.06005 0.04900 -0.91250
v 0.06005 0.04900 -0.83750
v 0.06005 0.04900 -0.66250
v 0.06005 0.04900 -0.58750
v 0.08750 0.04900 -0.81005
v 0.12500 0.04900 -0.70000
v 0.12500 0.04900 -0.80000
v 0.08750 0.04900 -0.68995
v 0.06005 0.04900 -0.41250
v 0.08750 0.04900 -0.56005
v 0.12500 0.04900 -0.45000
v 0.12500 0.04900 -0.55000
v 0.06005 0.04900 -0.33750
v 0.08750 0.04900 -0.31005
v 0.05000 0.04900 -0.12500
v 0.06005 0.04900 0.08750
v 0.06005 0.04900 -0.08750
v 0.08750 0.04900 -0.43995
v 0.08750 0.04900 -0.18995
v 0.12500 0.04900 -0.30000
v 0.06005 0.04900 -0.16250
v 0.08750 0.04900 -0.06005
v 0.12500 0.04900 -0.20000
v 0.08750 0.04900 0.06005
v 0.12500 0.04900 -0.05000
v 0.16250 0.04900 -0.81005
v 0.16250 0.04900 -0.93995
v 0.18995 0.04900 -0.66250
v 0.18995 0.04900 -0.83750
v 0.16250 0.04900 -0.68995
v 0.16250 0.04900 -0.43995
v 0.16250 0.04900 -0.56005
v 0.18995 0.04900 -0.58750
v 0.24566 0.04666 -0.99000
v 0.18995 0.04900 -0.91250
v 0.20000 0.04900 -0.87500
v 0.20000 0.04900 -0.62500
v 0.20000 0.04900 -0.37500
v 0.18995 0.04900 -0.41250
v 0.16250 0.04900 -0.31005
v 0.16250 0.04900 -0.18995
v 0.18995 0.04900 -0.33750
v 0.16250 0.04900 0.06005
v 0.16250 0.04900 -0.06005
v 0.18995 0.04900 -0.16250
v 0.18995 0.04900 -0.08750
v 0.20000 0.04900 -0.12500
v 0.18995 0.04900 0.08750
v 0.05000 0.04900 0.12500
v 0.06005 0.04900 0.16250
v 0.06005 0.04900 0.33750
v 0.06005 0.04900 0.41250
v 0.08750 0.04900 0.18995
v 0.12500 0.04900 0.05000
v 0.08750 0.04900 0.31005
v 0.12500 0.04900 0.20000
v 0.08750 0.04900 0.43995
v 0.12500 0.04900 0.30000
v 0.08750 0.04900 0.56005
v 0.12500 0.04900 0.45000
v 0.06005 0.04900 0.66250
v 0.06005 0.04900 0.91250
v 0.08750 0.04900 0.68995
v 0.12500 0.04900 0.55000
v 0.08750 0.04900 0.81005
v 0.12500 0.04900 0.70000
v 0.24000 0.04666 0.99566
v 0.12500 0.04900 0.80000
v 0.16250 0.04900 0.18995
v 0.16250 0.04900 0.31005
v 0.18995 0.04900 0.16250
v 0.16250 0.04900 0.43995
v 0.18995 0.04900 0.33750
v 0.16250 0.04900 0.56005
v 0.18995 0.04900 0.41250
v 0.20000 0.04900 0.12500
v 0.20000 0.04900 0.37500
v 0.18995 0.04900 0.58750
v 0.24566 0.04666 0.99000
v 0.16250 0.04900 0.68995
v 0.16250 0.04900 0.81005
v 0.18995 0.04900 0.66250
v 0.18995 0.04900 0.83750
v 0.16250 0.04900 0.93995
v 0.20000 0.04900 0.62500
v 0.20000 0.04900 0.87500
v 0.18995 0.04900 0.91250
v -0.18995 0.09900 -0.91250
v -0.18995 0.04900 -0.91250
v -0.20000 0.04900 -0.87500
v -0.20000 0.09900 -0.87500
v -0.18995 0.04900 -0.83750
v -0.18995 0.09900 -0.83750
v -0.18995 0.09900 -0.91250
v -0.20000 0.09900 -0.87500
v -0.18995 0.09900 -0.83750
v -0.16250 0.09900 -0.93995
v -0.16250 0.04900 -0.93995
v -0.16250 0.04900 -0.81005
v -0.12500 0.09900 -0.95000
v -0.12500 0.04900 -0.95000
v -0.16250 0.09900 -0.81005
v -0.12500 0.04900 -0.80000
v -0.16250 0.09900 -0.93995
v -0.16250 0.09900 -0.81005
v -0.12500 0.09900 -0.80000
v -0.12500 0.09900 -0.95000
v -0.12500 0.09900 -0.80000
v -0.08750 0.09900 -0.93995
v -0.08750 0.04900 -0.93995
v -0.08750 0.04900 -0.81005
v -0.06005 0.09900 -0.91250
v -0.06005 0.04900 -0.91250
v -0.08750 0.09900 -0.81005
v -0.06005 0.04900 -0.83750
v -0.08750 0.09900 -0.93995
v -0.08750 0.09900 -0.81005
v -0.06005 0.09900 -0.83750
v -0.06005 0.09900 -0.91250
v -0.06005 0.09900 -0.83750
v -0.05000 0.09900 -0.87500
v -0.05000 0.04900 -0.87500
v -0.05000 0.09900 -0.87500
v -0.18995 0.09900 -0.66250
v -0.18995 0.04900 -0.66250
v -0.20000 0.04900 -0.62500
v -0.20000 0.09900 -0.62500
v -0.18995 0.04900 -0.58750
v -0.18995 0.09900 -0.58750
v -0.18995 0.09900 -0.66250
v -0.20000 0.09900 -0.62500
v -0.18995 0.09900 -0.58750
v -0.16250 0.09900 -0.68995
v -0.16250 0.04900 -0.68995
v -0.16250 0.04900 -0.56005
v -0.12500 0.09900 -0.70000
v -0.12500 0.04900 -0.70000
v -0.16250 0.09900 -0.56005
v -0.12500 0.04900 -0.55000
v -0.16250 0.09900 -0.68995
v -0.16250 0.09900 -0.56005
v -0.12500 0.09900 -0.55000
v -0.12500 0.09900 -0.70000
v -0.12500 0.09900 -0.55000
v -0.08750 0.09900 -0.68995
v -0.08750 0.04900 -0.68995
v -0.08750 0.04900 -0.56005
v -0.06005 0.09900 -0.66250
v -0.06005 0.04900 -0.66250
v -0.08750 0.09900 -0.56005
v -0.06005 0.04900 -0.58750
v -0.08750 0.09900 -0.68995
v -0.08750 0.09900 -0.56005
v -0.06005 0.09900 -0.58750
v -0.06005 0.09900 -0.66250
v -0.06005 0.09900 -0.58750
v -0.05000 0.09900 -0.62500
v -0.05000 0.04900 -0.62500
v -0.05000 0.09900 -0.62500
v -0.18995 0.09900 -0.41250
v -0.18995 0.04900 -0.41250
v -0.20000 0.04900 -0.37500
v -0.20000 0.09900 -0.37500
v -0.18995 0.04900 -0.33750
v -0.18995 0.09900 -0.33750
v -0.20000 0.09900 -0.37500
v -0.18995 0.09900 -0.33750
v -0.18995 0.09900 -0.41250
v -0.16250 0.09900 -0.43995
v -0.16250 0.04900 -0.43995
v -0.16250 0.04900 -0.31005
v -0.12500 0.09900 -0.45000
v -0.12500 0.04900 -0.45000
v -0.16250 0.09900 -0.31005
v -0.12500 0.04900 -0.30000
v -0.16250 0.09900 -0.43995
v -0.16250 0.09900 -0.31005
v -0.12500 0.09900 -0.30000
v -0.12500 0.09900 -0.45000
v -0.12500 0.09900 -0.30000
v -0.08750 0.09900 -0.43995
v -0.08750 0.04900 -0.43995
v -0.08750 0.04900 -0.31005
v -0.06005 0.09900 -0.41250
v -0.06005 0.04900 -0.41250
v -0.08750 0.09900 -0.31005
v -0.06005 0.04900 -0.33750
v -0.08750 0.09900 -0.43995
v -0.08750 0.09900 -0.31005
v -0.06005 0.09900 -0.33750
v -0.06005 0.09900 -0.41250
v -0.06005 0.09900 -0.33750
v -0.05000 0.09900 -0.37500
v -0.05000 0.04900 -0.37500
v -0.05000 0.09900 -0.37500
v -0.18995 0.09900 -0.16250
v -0.18995 0.04900 -0.16250
v -0.20000 0.04900 -0.12500
v -0.20000 0.09900 -0.12500
v -0.18995 0.04900 -0.08750
v -0.18995 0.09900 -0.08750
v -0.20000 0.09900 -0.12500
v -0.18995 0.09900 -0.08750
v -0.18995 0.09900 -0.16250
v -0.16250 0.09900 -0.18995
v -0.16250 0.04900 -0.18995
v -0.16250 0.04900 -0.06005
v -0.12500 0.09900 -0.20000
v -0.12500 0.04900 -0.20000
v -0.16250 0.09900 -0.06005
v -0.12500 0.04900 -0.05000
v -0.16250 0.09900 -0.18995
v -0.16250 0.09900 -0.06005
v -0.12500 0.09900 -0.05000
v -0.12500 0.09900 -0.20000
v -0.12500 0.09900 -0.05000
v -0.08750 0.09900 -0.18995
v -0.08750 0.04900 -0.18995
v -0.08750 0.04900 -0.06005
v -0.06005 0.09900 -0.16250
v -0.06005 0.04900 -0.16250
v -0.08750 0.09900 -0.06005
v -0.06005 0.04900 -0.08750
v -0.08750 0.09900 -0.18995
v -0.08750 0.09900 -0.06005
v -0.06005 0.09900 -0.08750
v -0.06005 0.09900 -0.16250
v -0.06005 0.09900 -0.08750
v -0.05000 0.09900 -0.12500
v -0.05000 0.04900 -0.12500
v -0.05000 0.09900 -0.12500
v -0.18995 0.09900 0.08750
v -0.18995 0.04900 0.08750
v -0.20000 0.04900 0.12500
v -0.20000 0.09900 0.12500
v -0.18995 0.04900 0.16250
v -0.18995 0.09900 0.16250
v -0.18995 0.09900 0.08750
v -0.20000 0.09900 0.12500
v -0.18995 0.09900 0.16250
v -0.16250 0.09900 0.06005
v -0.16250 0.04900 0.06005
v -0.16250 0.04900 0.18995
v -0.12500 0.09900 0.05000
v -0.12500 0.04900 0.05000
v -0.16250 0.09900 0.18995
v -0.12500 0.04900 0.20000
v -0.16250 0.09900 0.06005
v -0.16250 0.09900 0.18995
v -0.12500 0.09900 0.20000
v -0.12500 0.09900 0.05000
v -0.12500 0.09900 0.20000
v -0.08750 0.09900 0.06005
v -0.08750 0.04900 0.06005
v -0.08750 0.04900 0.18995
v -0.06005 0.09900 0.08750
v -0.06005 0.04900 0.08750
v -0.08750 0.09900 0.18995
v -0.06005 0.04900 0.16250
v -0.08750 0.09900 0.06005
v -0.08750 0.09900 0.18995
v -0.06005 0.09900 0.16250
v -0.06005 0.09900 0.08750
v -0.06005 0.09900 0.16250
v -0.05000 0.09900 0.12500
v -0.05000 0.04900 0.12500
v -0.05000 0.09900 0.12500
v -0.18995 0.09900 0.33750
v -0.18995 0.04900 0.33750
v -0.20000 0.04900 0.37500
v -0.20000 0.09900 0.37500
v -0.18995 0.04900 0.41250
v -0.18995 0.09900 0.41250
v -0.18995 0.09900 0.33750
v -0.20000 0.09900 0.37500
v -0.18995 0.09900 0.41250
v -0.16250 0.09900 0.31005
v -0.16250 0.04900 0.31005
v -0.16250 0.04900 0.43995
v -0.12500 0.09900 0.30000
v -0.12500 0.04900 0.30000
v -0.16250 0.09900 0.43995
v -0.12500 0.04900 0.45000
v -0.16250 0.09900 0.31005
v -0.16250 0.09900 0.43995
v -0.12500 0.09900 0.45000
v -0.12500 0.09900 0.30000
v -0.12500 0.09900 0.45000
v -0.08750 0.09900 0.31005
v -0.08750 0.04900 0.31005
v -0.08750 0.04900 0.43995
v -0.06005 0.09900 0.33750
v -0.06005 0.04900 0.33750
v -0.08750 0.09900 0.43995
v -0.06005 0.04900 0.41250
v -0.08750 0.09900 0.31005
v -0.08750 0.09900 0.43995
v -0.06005 0.09900 0.41250
v -0.06005 0.09900 0.33750
v -0.06005 0.09900 0.41250
v -0.05000 0.09900 0.37500
v -0.05000 0.04900 0.37500
v -0.05000 0.09900 0.37500
v -0.18995 0.09900 0.58750
v -0.18995 0.04900 0.58750
v -0.20000 0.04900 0.62500
v -0.20000 0.09900 0.62500
v -0.18995 0.04900 0.66250
v -0.18995 0.09900 0.66250
v -0.18995 0.09900 0.58750
v -0.20000 0.09900 0.62500
v -0.18995 0.09900 0.66250
v -0.16250 0.09900 0.56005
v -0.16250 0.04900 0.56005
v -0.16250 0.04900 0.68995
v -0.12500 0.09900 0.55000
v -0.12500 0.04900 0.55000
v -0.16250 0.09900 0.68995
v -0.12500 0.04900 0.70000
v -0.16250 0.09900 0.56005
v -0.16250 0.09900 0.68995
v -0.12500 0.09900 0.70000
v -0.12500 0.09900 0.55000
v -0.12500 0.09900 0.70000
v -0.08750 0.09900 0.56005
v -0.08750 0.04900 0.56005
v -0.08750 0.04900 0.68995
v -0.06005 0.09900 0.58750
v -0.06005 0.04900 0.58750
v -0.08750 0.09900 0.68995
v -0.06005 0.04900 0.66250
v -0.08750 0.09900 0.56005
v -0.08750 0.09900 0.68995
v -0.06005 0.09900 0.66250
v -0.06005 0.09900 0.58750
v -0.06005 0.09900 0.66250
v -0.05000 0.09900 0.62500
v -0.05000 0.04900 0.62500
v -0.05000 0.09900 0.62500
v -0.18995 0.09900 0.83750
v -0.18995 0.04900 0.83750
v -0.20000 0.04900 0.87500
v -0.20000 0.09900 0.87500
v -0.18995 0.04900 0.91250
v -0.18995 0.09900 0.91250
v -0.20000 0.09900 0.87500
v -0.18995 0.09900 0.91250
v -0.18995 0.09900 0.83750
v -0.16250 0.09900 0.81005
v -0.16250 0.04900 0.81005
v -0.16250 0.04900 0.93995
v -0.12500 0.09900 0.80000
v -0.12500 0.04900 0.80000
v -0.16250 0.09900 0.93995
v -0.12500 0.04900 0.95000
v -0.16250 0.09900 0.81005
v -0.16250 0.09900 0.93995
v -0.12500 0.09900 0.95000
v -0.12500 0.09900 0.80000
v -0.12500 0.09900 0.95000
v -0.08750 0.09900 0.81005
v -0.08750 0.04900 0.81005
v -0.08750 0.04900 0.93995
v -0.06005 0.09900 0.83750
v -0.06005 0.04900 0.83750
v -0.08750 0.09900 0.93995
v -0.06005 0.04900 0.91250
v -0.08750 0.09900 0.81005
v -0.08750 0.09900 0.93995
v -0.06005 0.09900 0.91250
v -0.06005 0.09900 0.83750
v -0.06005 0.09900 0.91250
v -0.05000 0.09900 0.87500
v -0.05000 0.04900 0.87500
v -0.05000 0.09900 0.87500
v 0.06005 0.09900 -0.91250
v 0.06005 0.04900 -0.91250
v 0.05000 0.04900 -0.87500
v 0.05000 0.09900 -0.87500
v 0.06005 0.04900 -0.83750
v 0.06005 0.09900 -0.83750
v 0.06005 0.09900 -0.91250
v 0.05000 0.09900 -0.87500
v 0.06005 0.09900 -0.83750
v 0.08750 0.09900 -0.93995
v 0.08750 0.04900 -0.93995
v 0.08750 0.04900 -0.81005
v 0.12500 0.09900 -0.95000
v 0.12500 0.04900 -0.95000
v 0.08750 0.09900 -0.81005
v 0.12500 0.04900 -0.80000
v 0.08750 0.09900 -0.93995
v 0.08750 0.09900 -0.81005
v 0.12500 0.09900 -0.80000
v 0.12500 0.09900 -0.95000
v 0.12500 0.09900 -0.80000
v 0.16250 0.09900 -0.93995
v 0.16250 0.04900 -0.93995
v 0.16250 0.04900 -0.81005
v 0.18995 0.09900 -0.91250
v 0.18995 0.04900 -0.91250
v 0.16250 0.09900 -0.81005
v 0.18995 0.04900 -0.83750
v 0.16250 0.09900 -0.93995
v 0.16250 0.09900 -0.81005
v 0.18995 0.09900 -0.83750
v 0.18995 0.09900 -0.91250
v 0.18995 0.09900 -0.83750
v 0.20000 0.09900 -0.87500
v 0.20000 0.04900 -0.87500
v 0.20000 0.09900 -0.87500
v 0.06005 0.09900 -0.66250
v 0.06005 0.04900 -0.66250
v 0.05000 0.04900 -0.62500
v 0.05000 0.09900 -0.62500
v 0.06005 0.04900 -0.58750
v 0.06005 0.09900 -0.58750
v 0.06005 0.09900 -0.66250
v 0.05000 0.09900 -0.62500
v 0.06005 0.09900 -0.58750
v 0.08750 0.09900 -0.68995
v 0.08750 0.04900 -0.68995
v 0.08750 0.04900 -0.56005
v 0.12500 0.09900 -0.70000
v 0.12500 0.04900 -0.70000
v 0.08750 0.09900 -0.56005
v 0.12500 0.04900 -0.55000
v 0.08750 0.09900 -0.68995
v 0.08750 0.09900 -0.56005
v 0.12500 0.09900 -0.55000
v 0.12500 0.09900 -0.70000
v 0.12500 0.09900 -0.55000
v 0.16250 0.09900 -0.68995
v 0.16250 0.04900 -0.68995
v 0.16250 0.04900 -0.56005
v 0.18995 0.09900 -0.66250
v 0.18995 0.04900 -0.66250
v 0.16250 0.09900 -0.56005
v 0.18995 0.04900 -0.58750
v 0.16250 0.09900 -0.68995
v 0.16250 0.09900 -0.56005
v 0.18995 0.09900 -0.58750
v 0.18995 0.09900 -0.66250
v 0.18995 0.09900 -0.58750
v 0.20000 0.09900 -0.62500
v 0.20000 0.04900 -0.62500
v 0.20000 0.09900 -0.62500
v 0.06005 0.09900 -0.41250
v 0.06005 0.04900 -0.41250
v 0.05000 0.04900 -0.37500
v 0.05000 0.09900 -0.37500
v 0.06005 0.04900 -0.33750
v 0.06005 0.09900 -0.33750
v 0.05000 0.09900 -0.37500
v 0.06005 0.09900 -0.33750
v 0.06005 0.09900 -0.41250
v 0.08750 0.09900 -0.43995
v 0.08750 0.04900 -0.43995
v 0.08750 0.04900 -0.31005
v 0.12500 0.09900 -0.45000
v 0.12500 0.04900 -0.45000
v 0.08750 0.09900 -0.31005
v 0.12500 0.04900 -0.30000
v 0.08750 0.09900 -0.43995
v 0.08750 0.09900 -0.31005
v 0.12500 0.09900 -0.30000
v 0.12500 0.09900 -0.45000
v 0.12500 0.09900 -0.30000
v 0.16250 0.09900 -0.43995
v 0.16250 0.04900 -0.43995
v 0.16250 0.04900 -0.31005
v 0.18995 0.09900 -0.41250
v 0.18995 0.04900 -0.41250
v 0.16250 0.09900 -0.31005
v 0.18995 0.04900 -0.33750
v 0.16250 0.09900 -0.43995
v 0.16250 0.09900 -0.31005
v 0.18995 0.09900 -0.33750
v 0.18995 0.09900 -0.41250
v 0.18995 0.09900 -0.33750
v 0.20000 0.09900 -0.37500
v 0.20000 0.04900 -0.37500
v 0.20000 0.09900 -0.37500
v 0.06005 0.09900 -0.16250
v 0.06005 0.04900 -0.16250
v 0.05000 0.04900 -0.12500
v 0.05000 0.09900 -0.12500
v 0.06005 0.04900 -0.08750
v 0.06005 0.09900 -0.08750
v 0.05000 0.09900 -0.12500
v 0.06005 0.09900 -0.08750
v 0.06005 0.09900 -0.16250
v 0.08750 0.09900 -0.18995
v 0.08750 0.04900 -0.18995
v 0.08750 0.04900 -0.06005
v 0.12500 0.09900 -0.20000
v 0.12500 0.04900 -0.20000
v 0.08750 0.09900 -0.06005
v 0.12500 0.04900 -0.05000
v 0.08750 0.09900 -0.18995
v 0.08750 0.09900 -0.06005
v 0.12500 0.09900 -0.05000
v 0.12500 0.09900 -0.20000
v 0.12500 0.09900 -0.05000
v 0.16250 0.09900 -0.18995
v 0.16250 0.04900 -0.18995
v 0.16250 0.04900 -0.06005
v 0.18995 0.09900 -0.16250
v 0.18995 0.04900 -0.16250
v 0.16250 0.09900 -0.06005
v 0.18995 0.04900 -0.08750
v 0.16250 0.09900 -0.18995
v 0.16250 0.09900 -0.06005
v 0.18995 0.09900 -0.08750
v 0.18995 0.09900 -0.16250
v 0.18995 0.09900 -0.08750
v 0.20000 0.09900 -0.12500
v 0.20000 0.04900 -0.12500
v 0.20000 0.09900 -0.12500
v 0.06005 0.09900 0.08750
v 0.06005 0.04900 0.08750
v 0.05000 0.04900 0.12500
v 0.05000 0.09900 0.12500
v 0.06005 0.04900 0.16250
v 0.06005 0.09900 0.16250
v 0.06005 0.09900 0.08750
v 0.05000 0.09900 0.12500
v 0.06005 0.09900 0.16250
v 0.08750 0.09900 0.06005
v 0.08750 0.04900 0.06005
v 0.08750 0.04900 0.18995
v 0.12500 0.09900 0.05000
v 0.12500 0.04900 0.05000
v 0.08750 0.09900 0.18995
v 0.12500 0.04900 0.20000
v 0.08750 0.09900 0.06005
v 0.08750 0.09900 0.18995
v 0.12500 0.09900 0.20000
v 0.12500 0.09900 0.05000
v 0.12500 0.09900 0.20000
v 0.16250 0.09900 0.06005
v 0.16250 0.04900 0.06005
v 0.16250 0.04900 0.18995
v 0.18995 0.09900 0.08750
v 0.18995 0.04900 0.08750
v 0.16250 0.09900 0.18995
v 0.18995 0.04900 0.16250
v 0.16250 0.09900 0.06005
v 0.16250 0.09900 0.18995
v 0.18995 0.09900 0.16250
v 0.18995 0.09900 0.08750
v 0.18995 0.09900 0.16250
v 0.20000 0.09900 0.12500
v 0.20000 0.04900 0.12500
v 0.20000 0.09900 0.12500
v 0.06005 0.09900 0.33750
v 0.06005 0.04900 0.33750
v 0.05000 0.04900 0.37500
v 0.05000 0.09900 0.37500
v 0.06005 0.04900 0.41250
v 0.06005 0.09900 0.41250
v 0.06005 0.09900 0.33750
v 0.05000 0.09900 0.37500
v 0.06005 0.09900 0.41250
v 0.08750 0.09900 0.31005
v 0.08750 0.04900 0.31005
v 0.08750 0.04900 0.43995
v 0.12500 0.09900 0.30000
v 0.12500 0.04900 0.30000
v 0.08750 0.09900 0.43995
v 0.12500 0.04900 0.45000
v 0.08750 0.09900 0.31005
v 0.08750 0.09900 0.43995
v 0.12500 0.09900 0.45000
v 0.12500 0.09900 0.30000
v 0.12500 0.09900 0.45000
v 0.16250 0.09900 0.31005
v 0.16250 0.04900 0.31005
v 0.16250 0.04900 0.43995
v 0.18995 0.09900 0.33750
v 0.18995 0.04900 0.33750
v 0.16250 0.09900 0.43995
v 0.18995 0.04900 0.41250
v 0.16250 0.09900 0.31005
v 0.16250 0.09900 0.43995
v 0.18995 0.09900 0.41250
v 0.18995 0.09900 0.33750
v 0.18995 0.09900 0.41250
v 0.20000 0.09900 0.37500
v 0.20000 0.04900 0.37500
v 0.20000 0.09900 0.37500
v 0.06005 0.09900 0.58750
v 0.06005 0.04900 0.58750
v 0.05000 0.04900 0.62500
v 0.05000 0.09900 0.62500
v 0.06005 0.04900 0.66250
v 0.06005 0.09900 0.66250
v 0.06005 0.09900 0.58750
v 0.05000 0.09900 0.62500
v 0.06005 0.09900 0.66250
v 0.08750 0.09900 0.56005
v 0.08750 0.04900 0.56005
v 0.08750 0.04900 0.68995
v 0.12500 0.09900 0.55000
v 0.12500 0.04900 0.55000
v 0.08750 0.09900 0.68995
v 0.12500 0.04900 0.70000
v 0.08750 0.09900 0.56005
v 0.08750 0.09900 0.68995
v 0.12500 0.09900 0.70000
v 0.12500 0.09900 0.55000
v 0.12500 0.09900 0.70000
v 0.16250 0.09900 0.56005
v 0.16250 0.04900 0.56005
v 0.16250 0.04900 0.68995
v 0.18995 0.09900 0.58750
v 0.18995 0.04900 0.58750
v 0.16250 0.09900 0.68995
v 0.18995 0.04900 0.66250
v 0.16250 0.09900 0.56005
v 0.16250 0.09900 0.68995
v 0.18995 0.09900 0.66250
v 0.18995 0.09900 0.58750
v 0.18995 0.09900 0.66250
v 0.20000 0.09900 0.62500
v 0.20000 0.04900 0.62500
v 0.20000 0.09900 0.62500
v 0.06005 0.09900 0.83750
v 0.06005 0.04900 0.83750
v 0.05000 0.04900 0.87500
v 0.05000 0.09900 0.87500
v 0.06005 0.04900 0.91250
v 0.06005 0.09900 0.91250
v 0.05000 0.09900 0.87500
v 0.06005 0.09900 0.91250
v 0.06005 0.09900 0.83750
v 0.08750 0.09900 0.81005
v 0.08750 0.04900 0.81005
v 0.08750 0.04900 0.93995
v 0.12500 0.09900 0.80000
v 0.12500 0.04900 0.80000
v 0.08750 0.09900 0.93995
v 0.12500 0.04900 0.95000
v 0.08750 0.09900 0.81005
v 0.08750 0.09900 0.93995
v 0.12500 0.09900 0.95000
v 0.12500 0.09900 0.80000
v 0.12500 0.09900 0.95000
v 0.16250 0.09900 0.81005
v 0.16250 0.04900 0.81005
v 0.16250 0.04900 0.93995
v 0.18995 0.09900 0.83750
v 0.18995 0.04900 0.83750
v 0.16250 0.09900 0.93995
v 0.18995 0.04900 0.91250
v 0.16250 0.09900 0.81005
v 0.16250 0.09900 0.93995
v 0.18995 0.09900 0.91250
v 0.18995 0.09900 0.83750
v 0.18995 0.09900 0.91250
v 0.20000 0.09900 0.87500
v 0.20000 0.04900 0.87500
v 0.20000 0.09900 0.87500
vn -0.6887 -0.6887 -0.2265
vn -0.2265 -0.6887 -0.6887
vn -0.1877 -0.9641 -0.1877
vn -0.6887 -0.2265 -0.6887
vn -0.9641 -0.1877 -0.1877
vn -0.1877 -0.1877 -0.9641
vn -0.9641 0.1877 -0.1877
vn -0.1877 0.1877 -0.9641
vn -0.1877 -0.9641 0.1877
vn -0.9641 -0.1877 0.1877
vn -0.6887 0.2265 -0.6887
vn 0.1877 -0.9641 -0.1877
vn 0.1877 -0.1877 -0.9641
vn -0.6887 -0.6887 0.2265
vn -0.2265 -0.6887 0.6887
vn -0.6887 -0.2265 0.6887
vn -0.1877 -0.1877 0.9641
vn -0.6887 0.2265 0.6887
vn -0.9641 0.1877 0.1877
vn -0.1877 0.1877 0.9641
vn 0.1877 -0.9641 0.1877
vn 0.2265 -0.6887 0.6887
vn 0.1877 -0.1877 0.9641
vn -0.6887 0.6887 -0.2265
vn -0.2265 0.6887 -0.6887
vn -0.1877 0.9641 -0.1877
vn 0.0000 1.0000 0.0000
vn 0.0000 1.0000 0.0000
vn 0.0000 1.0000 0.0000
vn 0.0000 1.0000 0.0000
vn 0.0000 1.0000 0.0000
vn 0.0000 1.0000 0.0000
vn 0.0000 1.0000 0.0000
vn 0.0000 1.0000 0.0000
vn 0.0000 1.0000 0.0000
vn 0.0000 1.0000 0.0000
vn 0.0000 1.0000 0.0000
vn 0.0000 1.0000 0.0000
vn 0.0000 1.0000 0.0000
vn 0.0000 1.0000 0.0000
vn 0.0000 1.0000 0.0000
vn 0.0000 1.0000 0.0000
vn 0.0000 1.0000 0.0000
vn 0.0000 1.0000 0.0000
vn -0.6887 0.6887 0.2265
vn 0.0000 1.0000 0.0000
vn 0.0000 1.0000 0.0000
vn 0.0000 1.0000 0.0000
vn 0.0000 1.0000 0.0000
vn 0.0000 1.0000 0.0000
vn 0.0000 1.0000 0.0000
vn 0.0000 1.0000 0.0000
vn 0.0000 1.0000 0.0000
vn 0.0000 1.0000 0.0000
vn 0.0000 1.0000 0.0000
vn 0.0000 1.0000 0.0000
vn 0.0000 1.0000 0.0000
vn 0.0000 1.0000 0.0000
vn 0.0000 1.0000 0.0000
vn 0.0000 1.0000 0.0000
vn 0.0000 1.0000 0.0000
vn 0.2265 0.6887 -0.6887
vn 0.1877 0.9641 -0.1877
vn 0.0000 1.0000 0.0000
vn 0.0000 1.0000 0.0000
vn 0.0000 1.0000 0.0000
vn 0.0000 1.0000 0.0000
vn 0.0000 1.0000 0.0000
vn 0.0000 1.0000 0.0000
vn 0.0000 1.0000 0.0000
vn 0.0000 1.0000 0.0000
vn 0.0000 1.0000 0.0000
vn 0.0000 1.0000 0.0000
vn 0.0000 1.0000 0.0000
vn 0.0000 1.0000 0.0000
vn 0.0000 1.0000 0.0000
vn 0.0000 1.0000 0.0000
vn 0.0000 1.0000 0.0000
vn 0.0000 1.0000 0.0000
vn 0.0000 1.0000 0.0000
vn 0.0000 1.0000 0.0000
vn 0.0000 1.0000 0.0000
vn 0.0000 1.0000 0.0000
vn 0.0000 1.0000 0.0000
vn 0.0000 1.0000 0.0000
vn 0.0000 1.0000 0.0000
vn 0.0000 1.0000 0.0000
vn 0.0000 1.0000 0.0000
vn 0.0000 1.0000 0.0000
vn -0.1877 0.9641 0.1877
vn 0.0000 1.0000 0.0000
vn 0.0000 1.0000 0.0000
vn 0.0000 1.0000 0.0000
vn 0.0000 1.0000 0.0000
vn 0.0000 1.0000 0.0000
vn 0.0000 1.0000 0.0000
vn 0.0000 1.0000 0.0000
vn 0.0000 1.0000 0.0000
vn 0.0000 1.0000 0.0000
vn 0.0000 1.0000 0.0000
vn 0.0000 1.0000 0.0000
vn 0.0000 1.0000 0.0000
vn 0.0000 1.0000 0.0000
vn -0.2265 0.6887 0.6887
vn 0.0000 1.0000 0.0000
vn 0.0000 1.0000 0.0000
vn 0.0000 1.0000 0.0000
vn 0.0000 1.0000 0.0000
vn 0.0000 1.0000 0.0000
vn 0.0000 1.0000 0.0000
vn 0.0000 1.0000 0.0000
vn 0.0000 1.0000 0.0000
vn 0.0000 1.0000 0.0000
vn 0.0000 1.0000 0.0000
vn 0.0000 1.0000 0.0000
vn 0.0000 1.0000 0.0000
vn 0.0000 1.0000 0.0000
vn 0.0000 1.0000 0.0000
vn 0.0000 1.0000 0.0000
vn 0.0000 1.0000 0.0000
vn 0.0000 1.0000 0.0000
vn 0.0000 1.0000 0.0000
vn 0.0000 1.0000 0.0000
vn 0.0000 1.0000 0.0000
vn 0.1877 0.1877 0.9641
vn 0.0000 1.0000 0.0000
vn 0.0000 1.0000 0.0000
vn 0.0000 1.0000 0.0000
vn 0.0000 1.0000 0.0000
vn 0.0000 1.0000 0.0000
vn 0.1877 0.9641 0.1877
vn 0.0000 1.0000 0.0000
vn 0.0000 1.0000 0.0000
vn 0.0000 1.0000 0.0000
vn 0.0000 1.0000 0.0000
vn 0.0000 1.0000 0.0000
vn 0.0000 1.0000 0.0000
vn 0.0000 1.0000 0.0000
vn 0.0000 1.0000 0.0000
vn 0.0000 1.0000 0.0000
vn 0.0000 1.0000 0.0000
vn 0.2265 -0.6887 -0.6887
vn 0.1877 0.1877 -0.9641
vn 0.6887 -0.6887 -0.2265
vn 0.6887 -0.2265 -0.6887
vn 0.9641 -0.1877 -0.1877
vn 0.6887 0.2265 -0.6887
vn 0.9641 -0.1877 0.1877
vn 0.9641 0.1877 -0.1877
vn 0.6887 -0.6887 0.2265
vn 0.6887 -0.2265 0.6887
vn 0.9641 0.1877 0.1877
vn 0.6887 0.2265 0.6887
vn 0.0000 1.0000 0.0000
vn 0.0000 1.0000 0.0000
vn 0.0000 1.0000 0.0000
vn 0.0000 1.0000 0.0000
vn 0.0000 1.0000 0.0000
vn 0.0000 1.0000 0.0000
vn 0.0000 1.0000 0.0000
vn 0.0000 1.0000 0.0000
vn 0.0000 1.0000 0.0000
vn 0.0000 1.0000 0.0000
vn 0.0000 1.0000 0.0000
vn 0.0000 1.0000 0.0000
vn 0.0000 1.0000 0.0000
vn 0.0000 1.0000 0.0000
vn 0.0000 1.0000 0.0000
vn 0.0000 1.0000 0.0000
vn 0.0000 1.0000 0.0000
vn 0.0000 1.0000 0.0000
vn 0.0000 1.0000 0.0000
vn 0.0000 1.0000 0.0000
vn 0.0000 1.0000 0.0000
vn 0.0000 1.0000 0.0000
vn 0.0000 1.0000 0.0000
vn 0.0000 1.0000 0.0000
vn 0.0000 1.0000 0.0000
vn 0.0000 1.0000 0.0000
vn 0.0000 1.0000 0.0000
vn 0.0000 1.0000 0.0000
vn 0.0000 1.0000 0.0000
vn 0.0000 1.0000 0.0000
vn 0.0000 1.0000 0.0000
vn 0.0000 1.0000 0.0000
vn 0.0000 1.0000 0.0000
vn 0.6887 0.6887 -0.2265
vn 0.0000 1.0000 0.0000
vn 0.0000 1.0000 0.0000
vn 0.0000 1.0000 0.0000
vn 0.0000 1.0000 0.0000
vn 0.0000 1.0000 0.0000
vn 0.0000 1.0000 0.0000
vn 0.0000 1.0000 0.0000
vn 0.0000 1.0000 0.0000
vn 0.0000 1.0000 0.0000
vn 0.0000 1.0000 0.0000
vn 0.0000 1.0000 0.0000
vn 0.0000 1.0000 0.0000
vn 0.0000 1.0000 0.0000
vn 0.0000 1.0000 0.0000
vn 0.0000 1.0000 0.0000
vn 0.0000 1.0000 0.0000
vn 0.0000 1.0000 0.0000
vn 0.0000 1.0000 0.0000
vn 0.0000 1.0000 0.0000
vn 0.0000 1.0000 0.0000
vn 0.0000 1.0000 0.0000
vn 0.0000 1.0000 0.0000
vn 0.0000 1.0000 0.0000
vn 0.0000 1.0000 0.0000
vn 0.0000 1.0000 0.0000
vn 0.0000 1.0000 0.0000
vn 0.0000 1.0000 0.0000
vn 0.0000 1.0000 0.0000
vn 0.0000 1.0000 0.0000
vn 0.0000 1.0000 0.0000
vn 0.0000 1.0000 0.0000
vn 0.0000 1.0000 0.0000
vn 0.2265 0.6887 0.6887
vn 0.0000 1.0000 0.0000
vn 0.0000 1.0000 0.0000
vn 0.0000 1.0000 0.0000
vn 0.0000 1.0000 0.0000
vn 0.0000 1.0000 0.0000
vn 0.0000 1.0000 0.0000
vn 0.0000 1.0000 0.0000
vn 0.0000 1.0000 0.0000
vn 0.0000 1.0000 0.0000
vn 0.0000 1.0000 0.0000
vn 0.0000 1.0000 0.0000
vn 0.6887 0.6887 0.2265
vn 0.0000 1.0000 0.0000
vn 0.0000 1.0000 0.0000
vn 0.0000 1.0000 0.0000
vn 0.0000 1.0000 0.0000
vn 0.0000 1.0000 0.0000
vn 0.0000 1.0000 0.0000
vn 0.0000 1.0000 0.0000
vn 0.0000 1.0000 0.0000
vn -0.8660 0.0000 -0.5000
vn -0.8660 0.0000 -0.5000
vn -1.0000 0.0000 0.0000
vn -1.0000 0.0000 0.0000
vn -0.8660 0.0000 0.5000
vn -0.8660 0.0000 0.5000
vn 0.0000 1.0000 0.0000
vn 0.0000 1.0000 0.0000
vn 0.0000 1.0000 0.0000
vn -0.5000 0.0000 -0.8660
vn -0.5000 0.0000 -0.8660
vn -0.5000 0.0000 0.8660
vn 0.0000 0.0000 -1.0000
vn -0.0000 0.0000 -1.0000
vn -0.5000 0.0000 0.8660
vn 0.0000 0.0000 1.0000
vn 0.0000 1.0000 0.0000
vn 0.0000 1.0000 0.0000
vn -0.0000 0.0000 1.0000
vn 0.0000 1.0000 0.0000
vn 0.0000 1.0000 0.0000
vn 0.5000 0.0000 -0.8660
vn 0.5000 0.0000 -0.8660
vn 0.5000 0.0000 0.8660
vn 0.8660 0.0000 -0.5000
vn 0.8660 0.0000 -0.5000
vn 0.5000 0.0000 0.8660
vn 0.8660 0.0000 0.5000
vn 0.0000 1.0000 0.0000
vn 0.0000 1.0000 0.0000
vn 0.8660 0.0000 0.5000
vn 0.0000 1.0000 0.0000
vn 0.0000 1.0000 0.0000
vn 1.0000 0.0000 0.0000
vn 1.0000 0.0000 0.0000
vn 0.0000 1.0000 0.0000
vn -0.8660 0.0000 -0.5000
vn -0.8660 0.0000 -0.5000
vn -1.0000 0.0000 0.0000
vn -1.0000 0.0000 0.0000
vn -0.8660 0.0000 0.5000
vn -0.8660 0.0000 0.5000
vn 0.0000 1.0000 0.0000
vn 0.0000 1.0000 0.0000
vn 0.0000 1.0000 0.0000
vn -0.5000 0.0000 -0.8660
vn -0.5000 0.0000 -0.8660
vn -0.5000 0.0000 0.8660
vn 0.0000 0.0000 -1.0000
vn -0.0000 0.0000 -1.0000
vn -0.5000 0.0000 0.8660
vn 0.0000 0.0000 1.0000
vn 0.0000 1.0000 0.0000
vn 0.0000 1.0000 0.0000
vn -0.0000 0.0000 1.0000
vn 0.0000 1.0000 0.0000
vn 0.0000 1.0000 0.0000
vn 0.5000 0.0000 -0.8660
vn 0.5000 0.0000 -0.8660
vn 0.5000 0.0000 0.8660
vn 0.8660 0.0000 -0.5000
vn 0.8660 0.0000 -0.5000
vn 0.5000 0.0000 0.8660
vn 0.8660 0.0000 0.5000
vn 0.0000 1.0000 0.0000
vn 0.0000 1.0000 0.0000
vn 0.8660 0.0000 0.5000
vn 0.0000 1.0000 0.0000
vn 0.0000 1.0000 0.0000
vn 1.0000 0.0000 0.0000
vn 1.0000 0.0000 0.0000
vn 0.0000 1.0000 0.0000
vn -0.8660 0.0000 -0.5000
vn -0.8660 0.0000 -0.5000
vn -1.0000 0.0000 0.0000
vn -1.0000 0.0000 0.0000
vn -0.8660 0.0000 0.5000
vn -0.8660 0.0000 0.5000
vn 0.0000 1.0000 0.0000
vn 0.0000 1.0000 0.0000
vn 0.0000 1.0000 0.0000
vn -0.5000 0.0000 -0.8660
vn -0.5000 0.0000 -0.8660
vn -0.5000 0.0000 0.8660
vn 0.0000 0.0000 -1.0000
vn -0.0000 0.0000 -1.0000
vn -0.5000 0.0000 0.8660
vn 0.0000 0.0000 1.0000
vn 0.0000 1.0000 0.0000
vn 0.0000 1.0000 0.0000
vn -0.0000 0.0000 1.0000
vn 0.0000 1.0000 0.0000
vn 0.0000 1.0000 0.0000
vn 0.5000 0.0000 -0.8660
vn 0.5000 0.0000 -0.8660
vn 0.5000 0.0000 0.8660
vn 0.8660 0.0000 -0.5000
vn 0.8660 0.0000 -0.5000
vn 0.5000 0.0000 0.8660
vn 0.8660 0.0000 0.5000
vn 0.0000 1.0000 0.0000
vn 0.0000 1.0000 0.0000
vn 0.8660 0.0000 0.5000
vn 0.0000 1.0000 0.0000
vn 0.0000 1.0000 0.0000
vn 1.0000 0.0000 0.0000
vn 1.0000 0.0000 0.0000
vn 0.0000 1.0000 0.0000
vn -0.8660 0.0000 -0.5000
vn -0.8660 0.0000 -0.5000
vn -1.0000 0.0000 0.0000
vn -1.0000 0.0000 0.0000
vn -0.8660 0.0000 0.5000
vn -0.8660 0.0000 0.5000
vn 0.0000 1.0000 0.0000
vn 0.0000 1.0000 0.0000
vn 0.0000 1.0000 0.0000
vn -0.5000 0.0000 -0.8660
vn -0.5000 0.0000 -0.8660
vn -0.5000 0.0000 0.8660
vn 0.0000 0.0000 -1.0000
vn -0.0000 0.0000 -1.0000
vn -0.5000 0.0000 0.8660
vn 0.0000 0.0000 1.0000
vn 0.0000 1.0000 0.0000
vn 0.0000 1.0000 0.0000
vn -0.0000 0.0000 1.0000
vn 0.0000 1.0000 0.0000
vn 0.0000 1.0000 0.0000
vn 0.5000 0.0000 -0.8660
vn 0.5000 0.0000 -0.8660
vn 0.5000 0.0000 0.8660
vn 0.8660 0.0000 -0.5000
vn 0.8660 0.0000 -0.5000
vn 0.5000 0.0000 0.8660
vn 0.8660 0.0000 0.5000
vn 0.0000 1.0000 0.0000
vn 0.0000 1.0000 0.0000
vn 0.8660 0.0000 0.5000
vn 0.0000 1.0000 0.0000
vn 0.0000 1.0000 0.0000
vn 1.0000 0.0000 0.0000
vn 1.0000 0.0000 0.0000
vn 0.0000 1.0000 0.0000
vn -0.8660 -0.0000 -0.5000
vn -0.8660 0.0000 -0.5000
vn -1.0000 -0.0000 -0.0000
vn -1.0000 0.0000 0.0000
vn -0.8660 0.0000 0.5000
vn -0.8660 0.0000 0.5000
vn 0.0000 1.0000 0.0000
vn 0.0000 1.0000 0.0000
vn 0.0000 1.0000 0.0000
vn -0.5000 0.0000 -0.8660
vn -0.5000 0.0000 -0.8660
vn -0.5000 0.0000 0.8660
vn 0.0000 0.0000 -1.0000
vn -0.0000 0.0000 -1.0000
vn -0.5000 0.0000 0.8660
vn 0.0000 0.0000 1.0000
vn 0.0000 1.0000 0.0000
vn 0.0000 1.0000 0.0000
vn -0.0000 0.0000 1.0000
vn 0.0000 1.0000 0.0000
vn 0.0000 1.0000 0.0000
vn 0.5000 0.0000 -0.8660
vn 0.5000 0.0000 -0.8660
vn 0.5000 0.0000 0.8660
vn 0.8660 0.0000 -0.5000
vn 0.8660 0.0000 -0.5000
vn 0.5000 0.0000 0.8660
vn 0.8660 0.0000 0.5000
vn 0.0000 1.0000 0.0000
vn 0.0000 1.0000 0.0000
vn 0.8660 -0.0000 0.5000
vn 0.0000 1.0000 0.0000
vn 0.0000 1.0000 0.0000
vn 1.0000 0.0000 -0.0000
vn 1.0000 -0.0000 0.0000
vn 0.0000 1.0000 0.0000
vn -0.8660 -0.0000 -0.5000
vn -0.8660 0.0000 -0.5000
vn -1.0000 -0.0000 -0.0000
vn -1.0000 0.0000 0.0000
vn -0.8660 0.0000 0.5000
vn -0.8660 0.0000 0.5000
vn 0.0000 1.0000 0.0000
vn 0.0000 1.0000 0.0000
vn 0.0000 1.0000 0.0000
vn -0.5000 0.0000 -0.8660
vn -0.5000 0.0000 -0.8660
vn -0.5000 0.0000 0.8660
vn 0.0000 0.0000 -1.0000
vn -0.0000 0.0000 -1.0000
vn -0.5000 0.0000 0.8660
vn 0.0000 0.0000 1.0000
vn 0.0000 1.0000 0.0000
vn 0.0000 1.0000 0.0000
vn -0.0000 0.0000 1.0000
vn 0.0000 1.0000 0.0000
vn 0.0000 1.0000 0.0000
vn 0.5000 0.0000 -0.8660
vn 0.5000 0.0000 -0.8660
vn 0.5000 0.0000 0.8660
vn 0.8660 0.0000 -0.5000
vn 0.8660 0.0000 -0.5000
vn 0.5000 0.0000 0.8660
vn 0.8660 0.0000 0.5000
vn 0.0000 1.0000 0.0000
vn 0.0000 1.0000 0.0000
vn 0.8660 -0.0000 0.5000
vn 0.0000 1.0000 0.0000
vn 0.0000 1.0000 0.0000
vn 1.0000 0.0000 -0.0000
vn 1.0000 -0.0000 0.0000
vn 0.0000 1.0000 0.0000
vn -0.8660 -0.0000 -0.5000
vn -0.8660 0.0000 -0.5000
vn -1.0000 -0.0000 -0.0000
vn -1.0000 0.0000 0.0000
vn -0.8660 0.0000 0.5000
vn -0.8660 0.0000 0.5000
vn 0.0000 1.0000 0.0000
vn 0.0000 1.0000 0.0000
vn 0.0000 1.0000 0.0000
vn -0.5000 0.0000 -0.8660
vn -0.5000 0.0000 -0.8660
vn -0.5000 0.0000 0.8660
vn 0.0000 0.0000 -1.0000
vn -0.0000 0.0000 -1.0000
vn -0.5000 0.0000 0.8660
vn 0.0000 0.0000 1.0000
vn 0.0000 1.0000 0.0000
vn 0.0000 1.0000 0.0000
vn -0.0000 0.0000 1.0000
vn 0.0000 1.0000 0.0000
vn 0.0000 1.0000 0.0000
vn 0.5000 0.0000 -0.8660
vn 0.5000 0.0000 -0.8660
vn 0.5000 0.0000 0.8660
vn 0.8660 0.0000 -0.5000
vn 0.8660 0.0000 -0.5000
vn 0.5000 0.0000 0.8660
vn 0.8660 0.0000 0.5000
vn 0.0000 1.0000 0.0000
vn 0.0000 1.0000 0.0000
vn 0.8660 -0.0000 0.5000
vn 0.0000 1.0000 0.0000
vn 0.0000 1.0000 0.0000
vn 1.0000 0.0000 -0.0000
vn 1.0000 -0.0000 0.0000
vn 0.0000 1.0000 0.0000
vn -0.8660 -0.0000 -0.5000
vn -0.8660 0.0000 -0.5000
vn -1.0000 -0.0000 -0.0000
vn -1.0000 0.0000 0.0000
vn -0.8660 0.0000 0.5000
vn -0.8660 0.0000 0.5000
vn 0.0000 1.0000 0.0000
vn 0.0000 1.0000 0.0000
vn 0.0000 1.0000 0.0000
vn -0.5000 0.0000 -0.8660
vn -0.5000 0.0000 -0.8660
vn -0.5000 0.0000 0.8660
vn 0.0000 0.0000 -1.0000
vn -0.0000 0.0000 -1.0000
vn -0.5000 0.0000 0.8660
vn 0.0000 0.0000 1.0000
vn 0.0000 1.0000 0.0000
vn 0.0000 1.0000 0.0000
vn -0.0000 0.0000 1.0000
vn 0.0000 1.0000 0.0000
vn 0.0000 1.0000 0.0000
vn 0.5000 0.0000 -0.8660
vn 0.5000 0.0000 -0.8660
vn 0.5000 0.0000 0.8660
vn 0.8660 0.0000 -0.5000
vn 0.8660 0.0000 -0.5000
vn 0.5000 0.0000 0.8660
vn 0.8660 0.0000 0.5000
vn 0.0000 1.0000 0.0000
vn 0.0000 1.0000 0.0000
vn 0.8660 -0.0000 0.5000
vn 0.0000 1.0000 0.0000
vn 0.0000 1.0000 0.0000
vn 1.0000 0.0000 -0.0000
vn 1.0000 -0.0000 0.0000
vn 0.0000 1.0000 0.0000
vn -0.8660 0.0000 -0.5000
vn -0.8660 0.0000 -0.5000
vn -1.0000 0.0000 0.0000
vn -1.0000 0.0000 -0.0000
vn -0.8660 0.0000 0.5000
vn -0.8660 0.0000 0.5000
vn 0.0000 1.0000 0.0000
vn 0.0000 1.0000 0.0000
vn 0.0000 1.0000 0.0000
vn -0.5000 0.0000 -0.8660
vn -0.5000 0.0000 -0.8660
vn -0.5000 0.0000 0.8660
vn 0.0000 0.0000 -1.0000
vn -0.0000 0.0000 -1.0000
vn -0.5000 0.0000 0.8660
vn 0.0000 0.0000 1.0000
vn 0.0000 1.0000 0.0000
vn 0.0000 1.0000 0.0000
vn -0.0000 0.0000 1.0000
vn 0.0000 1.0000 0.0000
vn 0.0000 1.0000 0.0000
vn 0.5000 0.0000 -0.8660
vn 0.5000 0.0000 -0.8660
vn 0.5000 0.0000 0.8660
vn 0.8660 0.0000 -0.5000
vn 0.8660 0.0000 -0.5000
vn 0.5000 0.0000 0.8660
vn 0.8660 0.0000 0.5000
vn 0.0000 1.0000 0.0000
vn 0.0000 1.0000 0.0000
vn 0.8660 0.0000 0.5000
vn 0.0000 1.0000 0.0000
vn 0.0000 1.0000 0.0000
vn 1.0000 0.0000 0.0000
vn 1.0000 0.0000 -0.0000
vn 0.0000 1.0000 0.0000
vn -0.8660 0.0000 -0.5000
vn -0.8660 0.0000 -0.5000
vn -1.0000 0.0000 0.0000
vn -1.0000 0.0000 -0.0000
vn -0.8660 0.0000 0.5000
vn -0.8660 0.0000 0.5000
vn 0.0000 1.0000 0.0000
vn 0.0000 1.0000 0.0000
vn 0.0000 1.0000 0.0000
vn -0.5000 0.0000 -0.8660
vn -0.5000 0.0000 -0.8660
vn -0.5000 0.0000 0.8660
vn 0.0000 0.0000 -1.0000
vn -0.0000 0.0000 -1.0000
vn -0.5000 0.0000 0.8660
vn 0.0000 0.0000 1.0000
vn 0.0000 1.0000 0.0000
vn 0.0000 1.0000 0.0000
vn -0.0000 0.0000 1.0000
vn 0.0000 1.0000 0.0000
vn 0.0000 1.0000 0.0000
vn 0.5000 0.0000 -0.8660
vn 0.5000 0.0000 -0.8660
vn 0.5000 0.0000 0.8660
vn 0.8660 0.0000 -0.5000
vn 0.8660 0.0000 -0.5000
vn 0.5000 0.0000 0.8660
vn 0.8660 0.0000 0.5000
vn 0.0000 1.0000 0.0000
vn 0.0000 1.0000 0.0000
vn 0.8660 0.0000 0.5000
vn 0.0000 1.0000 0.0000
vn 0.0000 1.0000 0.0000
vn 1.0000 0.0000 0.0000
vn 1.0000 0.0000 -0.0000
vn 0.0000 1.0000 0.0000
vn -0.8660 0.0000 -0.5000
vn -0.8660 0.0000 -0.5000
vn -1.0000 0.0000 0.0000
vn -1.0000 0.0000 -0.0000
vn -0.8660 0.0000 0.5000
vn -0.8660 0.0000 0.5000
vn 0.0000 1.0000 0.0000
vn 0.0000 1.0000 0.0000
vn 0.0000 1.0000 0.0000
vn -0.5000 0.0000 -0.8660
vn -0.5000 0.0000 -0.8660
vn -0.5000 0.0000 0.8660
vn 0.0000 0.0000 -1.0000
vn -0.0000 0.0000 -1.0000
vn -0.5000 0.0000 0.8660
vn 0.0000 0.0000 1.0000
vn 0.0000 1.0000 0.0000
vn 0.0000 1.0000 0.0000
vn -0.0000 0.0000 1.0000
vn 0.0000 1.0000 0.0000
vn 0.0000 1.0000 0.0000
vn 0.5000 0.0000 -0.8660
vn 0.5000 0.0000 -0.8660
vn 0.5000 0.0000 0.8660
vn 0.8660 0.0000 -0.5000
vn 0.8660 0.0000 -0.5000
vn 0.5000 0.0000 0.8660
vn 0.8660 0.0000 0.5000
vn 0.0000 1.0000 0.0000
vn 0.0000 1.0000 0.0000
vn 0.8660 0.0000 0.5000
vn 0.0000 1.0000 0.0000
vn 0.0000 1.0000 0.0000
vn 1.0000 0.0000 0.0000
vn 1.0000 0.0000 -0.0000
vn 0.0000 1.0000 0.0000
vn -0.8660 0.0000 -0.5000
vn -0.8660 0.0000 -0.5000
vn -1.0000 0.0000 0.0000
vn -1.0000 0.0000 -0.0000
vn -0.8660 0.0000 0.5000
vn -0.8660 0.0000 0.5000
vn 0.0000 1.0000 0.0000
vn 0.0000 1.0000 0.0000
vn 0.0000 1.0000 0.0000
vn -0.5000 0.0000 -0.8660
vn -0.5000 0.0000 -0.8660
vn -0.5000 0.0000 0.8660
vn 0.0000 0.0000 -1.0000
vn -0.0000 0.0000 -1.0000
vn -0.5000 0.0000 0.8660
vn 0.0000 0.0000 1.0000
vn 0.0000 1.0000 0.0000
vn 0.0000 1.0000 0.0000
vn -0.0000 0.0000 1.0000
vn 0.0000 1.0000 0.0000
vn 0.0000 1.0000 0.0000
vn 0.5000 0.0000 -0.8660
vn 0.5000 0.0000 -0.8660
vn 0.5000 0.0000 0.8660
vn 0.8660 0.0000 -0.5000
vn 0.8660 0.0000 -0.5000
vn 0.5000 0.0000 0.8660
vn 0.8660 0.0000 0.5000
vn 0.0000 1.0000 0.0000
vn 0.0000 1.0000 0.0000
vn 0.8660 0.0000 0.5000
vn 0.0000 1.0000 0.0000
vn 0.0000 1.0000 0.0000
vn 1.0000 0.0000 0.0000
vn 1.0000 0.0000 -0.0000
vn 0.0000 1.0000 0.0000
vn -0.8660 -0.0000 -0.5000
vn -0.8660 0.0000 -0.5000
vn -1.0000 -0.0000 -0.0000
vn -1.0000 0.0000 0.0000
vn -0.8660 0.0000 0.5000
vn -0.8660 0.0000 0.5000
vn 0.0000 1.0000 0.0000
vn 0.0000 1.0000 0.0000
vn 0.0000 1.0000 0.0000
vn -0.5000 0.0000 -0.8660
vn -0.5000 0.0000 -0.8660
vn -0.5000 0.0000 0.8660
vn 0.0000 0.0000 -1.0000
vn -0.0000 0.0000 -1.0000
vn -0.5000 0.0000 0.8660
vn 0.0000 0.0000 1.0000
vn 0.0000 1.0000 0.0000
vn 0.0000 1.0000 0.0000
vn -0.0000 0.0000 1.0000
vn 0.0000 1.0000 0.0000
vn 0.0000 1.0000 0.0000
vn 0.5000 0.0000 -0.8660
vn 0.5000 0.0000 -0.8660
vn 0.5000 0.0000 0.8660
vn 0.8660 0.0000 -0.5000
vn 0.8660 0.0000 -0.5000
vn 0.5000 0.0000 0.8660
vn 0.8660 0.0000 0.5000
vn 0.0000 1.0000 0.0000
vn 0.0000 1.0000 0.0000
vn 0.8660 -0.0000 0.5000
vn 0.0000 1.0000 0.0000
vn 0.0000 1.0000 0.0000
vn 1.0000 0.0000 -0.0000
vn 1.0000 -0.0000 0.0000
vn 0.0000 1.0000 0.0000
vn -0.8660 -0.0000 -0.5000
vn -0.8660 0.0000 -0.5000
vn -1.0000 -0.0000 -0.0000
vn -1.0000 0.0000 0.0000
vn -0.8660 0.0000 0.5000
vn -0.8660 0.0000 0.5000
vn 0.0000 1.0000 0.0000
vn 0.0000 1.0000 0.0000
vn 0.0000 1.0000 0.0000
vn -0.5000 0.0000 -0.8660
vn -0.5000 0.0000 -0.8660
vn -0.5000 0.0000 0.8660
vn 0.0000 0.0000 -1.0000
vn -0.0000 0.0000 -1.0000
vn -0.5000 0.0000 0.8660
vn 0.0000 0.0000 1.0000
vn 0.0000 1.0000 0.0000
vn 0.0000 1.0000 0.0000
vn -0.0000 0.0000 1.0000
vn 0.0000 1.0000 0.0000
vn 0.0000 1.0000 0.0000
vn 0.5000 0.0000 -0.8660
vn 0.5000 0.0000 -0.8660
vn 0.5000 0.0000 0.8660
vn 0.8660 0.0000 -0.5000
vn 0.8660 0.0000 -0.5000
vn 0.5000 0.0000 0.8660
vn 0.8660 0.0000 0.5000
vn 0.0000 1.0000 0.0000
vn 0.0000 1.0000 0.0000
vn 0.8660 -0.0000 0.5000
vn 0.0000 1.0000 0.0000
vn 0.0000 1.0000 0.0000
vn 1.0000 0.0000 -0.0000
vn 1.0000 -0.0000 0.0000
vn 0.0000 1.0000 0.0000
vn -0.8660 -0.0000 -0.5000
vn -0.8660 0.0000 -0.5000
vn -1.0000 -0.0000 -0.0000
vn -1.0000 0.0000 0.0000
vn -0.8660 0.0000 0.5000
vn -0.8660 0.0000 0.5000
vn 0.0000 1.0000 0.0000
vn 0.0000 1.0000 0.0000
vn 0.0000 1.0000 0.0000
vn -0.5000 0.0000 -0.8660
vn -0.5000 0.0000 -0.8660
vn -0.5000 0.0000 0.8660
vn 0.0000 0.0000 -1.0000
vn -0.0000 0.0000 -1.0000
vn -0.5000 0.0000 0.8660
vn 0.0000 0.0000 1.0000
vn 0.0000 1.0000 0.0000
vn 0.0000 1.0000 0.0000
vn -0.0000 0.0000 1.0000
vn 0.0000 1.0000 0.0000
vn 0.0000 1.0000 0.0000
vn 0.5000 0.0000 -0.8660
vn 0.5000 0.0000 -0.8660
vn 0.5000 0.0000 0.8660
vn 0.8660 0.0000 -0.5000
vn 0.8660 0.0000 -0.5000
vn 0.5000 0.0000 0.8660
vn 0.8660 0.0000 0.5000
vn 0.0000 1.0000 0.0000
vn 0.0000 1.0000 0.0000
vn 0.8660 -0.0000 0.5000
vn 0.0000 1.0000 0.0000
vn 0.0000 1.0000 0.0000
vn 1.0000 0.0000 -0.0000
vn 1.0000 -0.0000 0.0000
vn 0.0000 1.0000 0.0000
vn -0.8660 -0.0000 -0.5000
vn -0.8660 0.0000 -0.5000
vn -1.0000 -0.0000 -0.0000
vn -1.0000 0.0000 0.0000
vn -0.8660 0.0000 0.5000
vn -0.8660 0.0000 0.5000
vn 0.0000 1.0000 0.0000
vn 0.0000 1.0000 0.0000
vn 0.0000 1.0000 0.0000
vn -0.5000 0.0000 -0.8660
vn -0.5000 0.0000 -0.8660
vn -0.5000 0.0000 0.8660
vn 0.0000 0.0000 -1.0000
vn -0.0000 0.0000 -1.0000
vn -0.5000 0.0000 0.8660
vn 0.0000 0.0000 1.0000
vn 0.0000 1.0000 0.0000
vn 0.0000 1.0000 0.0000
vn -0.0000 0.0000 1.0000
vn 0.0000 1.0000 0.0000
vn 0.0000 1.0000 0.0000
vn 0.5000 0.0000 -0.8660
vn 0.5000 0.0000 -0.8660
vn 0.5000 0.0000 0.8660
vn 0.8660 0.0000 -0.5000
vn 0.8660 0.0000 -0.5000
vn 0.5000 0.0000 0.8660
vn 0.8660 0.0000 0.5000
vn 0.0000 1.0000 0.0000
vn 0.0000 1.0000 0.0000
vn 0.8660 -0.0000 0.5000
vn 0.0000 1.0000 0.0000
vn 0.0000 1.0000 0.0000
vn 1.0000 0.0000 -0.0000
vn 1.0000 -0.0000 0.0000
vn 0.0000 1.0000 0.0000
f 1//1 2//2 3//3
f 1//1 4//4 2//2
f 1//1 5//5 4//4
f 2//2 4//4 6//6
f 5//5 7//7 4//4
f 4//4 8//8 6//6
f 1//1 3//3 9//9
f 1//1 10//10 5//5
f 5//5 10//10 7//7
f 4//4 7//7 11//11
f 4//4 11//11 8//8
f 3//3 2//2 12//12
f 2//2 6//6 13//13
f 6//6 8//8 13//13
f 1//1 9//9 14//14
f 1//1 14//14 10//10
f 14//14 9//9 15//15
f 14//14 15//15 16//16
f 14//14 16//16 10//10
f 15//15 17//17 16//16
f 10//10 16//16 18//18
f 16//16 17//17 18//18
f 10//10 19//19 7//7
f 10//10 18//18 19//19
f 17//17 20//20 18//18
f 3//3 21//21 9//9
f 9//9 22//22 15//15
f 15//15 22//22 17//17
f 17//17 23//23 20//20
f 7//7 24//24 11//11
f 11//11 25//25 8//8
f 11//11 24//24 25//25
f 24//24 26//26 25//25
f 26//26 27//27 28//28
f 26//26 28//28 29//29
f 26//26 30//30 27//27
f 27//27 30//30 31//31
f 26//26 32//32 30//30
f 31//31 30//30 33//33
f 34//34 30//30 32//32
f 26//26 29//29 35//35
f 31//31 33//33 36//36
f 26//26 35//35 37//37
f 36//36 38//38 39//39
f 36//36 33//33 40//40
f 34//34 41//41 42//42
f 36//36 40//40 38//38
f 42//42 43//43 44//44
f 7//7 45//45 24//24
f 24//24 45//45 26//26
f 26//26 46//46 32//32
f 34//34 32//32 41//41
f 26//26 47//47 46//46
f 48//48 32//32 46//46
f 26//26 49//49 47//47
f 48//48 46//46 50//50
f 46//46 51//51 52//52
f 42//42 41//41 43//43
f 48//48 50//50 53//53
f 44//44 43//43 54//54
f 53//53 55//55 56//56
f 53//53 50//50 55//55
f 52//52 51//51 57//57
f 56//56 55//55 58//58
f 57//57 59//59 60//60
f 39//39 38//38 61//61
f 8//8 25//25 62//62
f 25//25 26//26 63//63
f 26//26 37//37 64//64
f 61//61 65//65 66//66
f 61//61 38//38 67//67
f 44//44 68//68 69//69
f 61//61 67//67 65//65
f 69//69 68//68 70//70
f 66//66 65//65 71//71
f 37//37 72//72 64//64
f 71//71 73//73 72//72
f 26//26 64//64 74//74
f 71//71 65//65 75//75
f 70//70 76//76 75//75
f 71//71 75//75 77//77
f 44//44 54//54 68//68
f 56//56 58//58 78//78
f 70//70 68//68 76//76
f 78//78 79//79 80//80
f 78//78 58//58 79//79
f 60//60 81//81 82//82
f 80//80 79//79 83//83
f 82//82 81//81 84//84
f 75//75 76//76 85//85
f 80//80 83//83 85//85
f 75//75 85//85 86//86
f 85//85 87//87 86//86
f 85//85 83//83 87//87
f 84//84 88//88 87//87
f 87//87 89//89 86//86
f 7//7 19//19 45//45
f 26//26 90//90 49//49
f 46//46 47//47 51//51
f 47//47 49//49 91//91
f 26//26 45//45 90//90
f 91//91 49//49 92//92
f 49//49 93//93 94//94
f 57//57 51//51 59//59
f 91//91 92//92 95//95
f 60//60 59//59 96//96
f 95//95 97//97 98//98
f 95//95 92//92 97//97
f 94//94 99//99 100//100
f 98//98 97//97 101//101
f 102//102 103//103 100//100
f 19//19 18//18 45//45
f 18//18 20//20 104//104
f 94//94 93//93 99//99
f 90//90 93//93 49//49
f 18//18 104//104 45//45
f 45//45 104//104 90//90
f 90//90 105//105 93//93
f 90//90 106//106 105//105
f 105//105 106//106 107//107
f 90//90 108//108 106//106
f 90//90 109//109 108//108
f 100//100 99//99 110//110
f 105//105 111//111 112//112
f 102//102 100//100 110//110
f 112//112 111//111 113//113
f 105//105 107//107 111//111
f 90//90 114//114 109//109
f 113//113 111//111 115//115
f 60//60 96//96 81//81
f 98//98 101//101 116//116
f 84//84 81//81 88//88
f 116//116 117//117 118//118
f 116//116 101//101 117//117
f 103//103 119//119 120//120
f 121//121 118//118 117//117
f 120//120 119//119 122//122
f 87//87 88//88 89//89
f 121//121 89//89 118//118
f 121//121 86//86 89//89
f 123//123 124//124 121//121
f 122//122 124//124 123//123
f 20//20 125//125 104//104
f 103//103 102//102 119//119
f 113//113 115//115 126//126
f 122//122 119//119 127//127
f 126//126 128//128 129//129
f 126//126 115//115 128//128
f 129//129 128//128 130//130
f 104//104 131//131 90//90
f 122//122 127//127 132//132
f 133//133 134//134 127//127
f 129//129 134//134 133//133
f 90//90 131//131 114//114
f 129//129 130//130 135//135
f 130//130 136//136 137//137
f 138//138 137//137 136//136
f 139//139 140//140 138//138
f 114//114 141//141 139//139
f 2//2 142//142 12//12
f 2//2 13//13 142//142
f 3//3 12//12 21//21
f 8//8 143//143 13//13
f 12//12 142//142 144//144
f 142//142 145//145 144//144
f 142//142 13//13 145//145
f 144//144 145//145 146//146
f 13//13 147//147 145//145
f 145//145 147//147 146//146
f 12//12 144//144 21//21
f 144//144 146//146 148//148
f 146//146 149//149 148//148
f 13//13 143//143 147//147
f 146//146 147//147 149//149
f 9//9 21//21 22//22
f 17//17 22//22 23//23
f 20//20 23//23 125//125
f 144//144 150//150 21//21
f 144//144 148//148 150//150
f 21//21 150//150 22//22
f 22//22 150//150 151//151
f 22//22 151//151 23//23
f 150//150 148//148 151//151
f 23//23 151//151 125//125
f 151//151 148//148 152//152
f 148//148 149//149 152//152
f 151//151 153//153 125//125
f 151//151 152//152 153//153
f 72//72 73//73 154//154
f 72//72 154//154 64//64
f 71//71 77//77 73//73
f 26//26 74//74 63//63
f 73//73 77//77 155//155
f 75//75 86//86 77//77
f 155//155 77//77 156//156
f 157//157 77//77 86//86
f 8//8 62//62 143//143
f 25//25 63//63 62//62
f 155//155 156//156 158//158
f 158//158 159//159 160//160
f 158//158 156//156 161//161
f 157//157 162//162 163//163
f 158//158 161//161 159//159
f 164//164 165//165 163//163
f 157//157 86//86 162//162
f 121//121 166//166 86//86
f 121//121 167//167 166//166
f 121//121 168//168 167//167
f 168//168 169//169 170//170
f 163//163 162//162 171//171
f 164//164 163//163 171//171
f 167//167 172//172 173//173
f 167//167 168//168 174//174
f 167//167 174//174 172//172
f 170//170 169//169 175//175
f 173//173 172//172 176//176
f 175//175 177//177 178//178
f 160//160 159//159 179//179
f 63//63 74//74 180//180
f 181//181 182//182 179//179
f 179//179 159//159 183//183
f 165//165 184//184 185//185
f 181//181 179//179 183//183
f 185//185 184//184 186//186
f 143//143 62//62 147//147
f 147//147 187//187 149//149
f 63//63 180//180 188//188
f 63//63 188//188 189//189
f 63//63 189//189 182//182
f 63//63 182//182 181//181
f 63//63 181//181 190//190
f 147//147 62//62 187//187
f 62//62 63//63 187//187
f 63//63 190//190 191//191
f 186//186 192//192 190//190
f 165//165 164//164 184//184
f 173//173 176//176 193//193
f 186//186 184//184 192//192
f 193//193 194//194 195//195
f 193//193 176//176 194//194
f 178//178 196//196 197//197
f 195//195 194//194 198//198
f 197//197 196//196 199//199
f 149//149 187//187 152//152
f 190//190 192//192 191//191
f 195//195 198//198 191//191
f 63//63 131//131 187//187
f 191//191 198//198 200//200
f 199//199 201//201 200//200
f 63//63 191//191 131//131
f 121//121 202//202 168//168
f 121//121 203//203 202//202
f 168//168 202//202 169//169
f 121//121 204//204 203//203
f 121//121 124//124 204//204
f 122//122 205//205 124//124
f 122//122 132//132 205//205
f 175//175 169//169 177//177
f 203//203 204//204 206//206
f 178//178 177//177 207//207
f 206//206 208//208 209//209
f 206//206 204//204 208//208
f 205//205 132//132 210//210
f 209//209 208//208 211//211
f 210//210 212//212 213//213
f 127//127 134//134 132//132
f 129//129 214//214 134//134
f 129//129 135//135 214//214
f 130//130 137//137 135//135
f 138//138 215//215 137//137
f 138//138 140//140 215//215
f 139//139 141//141 140//140
f 210//210 132//132 212//212
f 214//214 135//135 216//216
f 213//213 212//212 217//217
f 216//216 218//218 219//219
f 216//216 135//135 218//218
f 104//104 125//125 220//220
f 104//104 220//220 131//131
f 131//131 141//141 114//114
f 219//219 218//218 221//221
f 178//178 207//207 196//196
f 209//209 211//211 222//222
f 199//199 196//196 201//201
f 222//222 223//223 224//224
f 222//222 211//211 223//223
f 213//213 217//217 225//225
f 224//224 223//223 226//226
f 225//225 227//227 228//228
f 200//200 201//201 229//229
f 224//224 226//226 229//229
f 131//131 191//191 200//200
f 229//229 226//226 230//230
f 131//131 200//200 229//229
f 228//228 231//231 230//230
f 131//131 229//229 230//230
f 187//187 232//232 152//152
f 187//187 131//131 232//232
f 225//225 217//217 227//227
f 219//219 221//221 233//233
f 228//228 227//227 231//231
f 233//233 234//234 235//235
f 233//233 221//221 234//234
f 235//235 234//234 236//236
f 131//131 237//237 141//141
f 125//125 153//153 220//220
f 153//153 152//152 232//232
f 230//230 231//231 238//238
f 235//235 236//236 238//238
f 131//131 230//230 238//238
f 238//238 236//236 239//239
f 131//131 238//238 239//239
f 131//131 240//240 237//237
f 131//131 239//239 240//240
f 153//153 232//232 220//220
f 220//220 232//232 131//131
f 241//241 242//242 243//243
f 244//244 243//243 245//245
f 241//241 243//243 244//244
f 244//244 245//245 246//246
f 247//247 248//248 249//249
f 250//250 251//251 242//242
f 246//246 245//245 252//252
f 253//253 254//254 251//251
f 255//255 252//252 256//256
f 241//241 250//250 242//242
f 246//246 252//252 255//255
f 247//247 249//249 257//257
f 249//249 258//258 257//257
f 250//250 253//253 251//251
f 255//255 256//256 259//259
f 257//257 258//258 260//260
f 258//258 261//261 260//260
f 262//262 263//263 254//254
f 259//259 256//256 264//264
f 265//265 266//266 263//263
f 267//267 264//264 268//268
f 253//253 262//262 254//254
f 259//259 264//264 267//267
f 260//260 261//261 269//269
f 261//261 270//270 269//269
f 262//262 265//265 263//263
f 267//267 268//268 271//271
f 269//269 270//270 272//272
f 270//270 273//273 272//272
f 274//274 275//275 266//266
f 271//271 268//268 275//275
f 265//265 274//274 266//266
f 271//271 275//275 274//274
f 272//272 273//273 276//276
f 277//277 278//278 279//279
f 280//280 279//279 281//281
f 277//277 279//279 280//280
f 280//280 281//281 282//282
f 283//283 284//284 285//285
f 286//286 287//287 278//278
f 282//282 281//281 288//288
f 289//289 290//290 287//287
f 291//291 288//288 292//292
f 277//277 286//286 278//278
f 282//282 288//288 291//291
f 283//283 285//285 293//293
f 285//285 294//294 293//293
f 286//286 289//289 287//287
f 291//291 292//292 295//295
f 293//293 294//294 296//296
f 294//294 297//297 296//296
f 298//298 299//299 290//290
f 295//295 292//292 300//300
f 301//301 302//302 299//299
f 303//303 300//300 304//304
f 289//289 298//298 290//290
f 295//295 300//300 303//303
f 296//296 297//297 305//305
f 297//297 306//306 305//305
f 298//298 301//301 299//299
f 303//303 304//304 307//307
f 305//305 306//306 308//308
f 306//306 309//309 308//308
f 310//310 311//311 302//302
f 307//307 304//304 311//311
f 301//301 310//310 302//302
f 307//307 311//311 310//310
f 308//308 309//309 312//312
f 313//313 314//314 315//315
f 316//316 315//315 317//317
f 316//316 313//313 315//315
f 316//316 317//317 318//318
f 319//319 320//320 321//321
f 322//322 323//323 314//314
f 318//318 317//317 324//324
f 325//325 326//326 323//323
f 327//327 324//324 328//328
f 313//313 322//322 314//314
f 318//318 324//324 327//327
f 321//321 320//320 329//329
f 320//320 330//330 329//329
f 322//322 325//325 323//323
f 327//327 328//328 331//331
f 329//329 330//330 332//332
f 330//330 333//333 332//332
f 334//334 335//335 326//326
f 331//331 328//328 336//336
f 337//337 338//338 335//335
f 339//339 336//336 340//340
f 325//325 334//334 326//326
f 331//331 336//336 339//339
f 332//332 333//333 341//341
f 333//333 342//342 341//341
f 334//334 337//337 335//335
f 339//339 340//340 343//343
f 341//341 342//342 344//344
f 342//342 345//345 344//344
f 346//346 347//347 338//338
f 343//343 340//340 347//347
f 337//337 346//346 338//338
f 343//343 347//347 346//346
f 344//344 345//345 348//348
f 349//349 350//350 351//351
f 352//352 351//351 353//353
f 352//352 349//349 351//351
f 352//352 353//353 354//354
f 355//355 356//356 357//357
f 358//358 359//359 350//350
f 354//354 353//353 360//360
f 361//361 362//362 359//359
f 363//363 360//360 364//364
f 349//349 358//358 350//350
f 354//354 360//360 363//363
f 357//357 356//356 365//365
f 356//356 366//366 365//365
f 358//358 361//361 359//359
f 363//363 364//364 367//367
f 365//365 366//366 368//368
f 366//366 369//369 368//368
f 370//370 371//371 362//362
f 367//367 364//364 372//372
f 373//373 374//374 371//371
f 375//375 372//372 376//376
f 361//361 370//370 362//362
f 367//367 372//372 375//375
f 368//368 369//369 377//377
f 369//369 378//378 377//377
f 370//370 373//373 371//371
f 375//375 376//376 379//379
f 377//377 378//378 380//380
f 378//378 381//381 380//380
f 382//382 383//383 374//374
f 379//379 376//376 383//383
f 373//373 382//382 374//374
f 379//379 383//383 382//382
f 380//380 381//381 384//384
f 385//385 386//386 387//387
f 388//388 387//387 389//389
f 385//385 387//387 388//388
f 388//388 389//389 390//390
f 391//391 392//392 393//393
f 394//394 395//395 386//386
f 390//390 389//389 396//396
f 397//397 398//398 395//395
f 399//399 396//396 400//400
f 385//385 394//394 386//386
f 390//390 396//396 399//399
f 391//391 393//393 401//401
f 393//393 402//402 401//401
f 394//394 397//397 395//395
f 399//399 400//400 403//403
f 401//401 402//402 404//404
f 402//402 405//405 404//404
f 406//406 407//407 398//398
f 403//403 400//400 408//408
f 409//409 410//410 407//407
f 411//411 408//408 412//412
f 397//397 406//406 398//398
f 403//403 408//408 411//411
f 404//404 405//405 413//413
f 405//405 414//414 413//413
f 406//406 409//409 407//407
f 411//411 412//412 415//415
f 413//413 414//414 416//416
f 414//414 417//417 416//416
f 418//418 419//419 410//410
f 415//415 412//412 419//419
f 409//409 418//418 410//410
f 415//415 419//419 418//418
f 416//416 417//417 420//420
f 421//421 422//422 423//423
f 424//424 423//423 425//425
f 421//421 423//423 424//424
f 424//424 425//425 426//426
f 427//427 428//428 429//429
f 430//430 431//431 422//422
f 426//426 425//425 432//432
f 433//433 434//434 431//431
f 435//435 432//432 436//436
f 421//421 430//430 422//422
f 426//426 432//432 435//435
f 427//427 429//429 437//437
f 429//429 438//438 437//437
f 430//430 433//433 431//431
f 435//435 436//436 439//439
f 437//437 438//438 440//440
f 438//438 441//441 440//440
f 442//442 443//443 434//434
f 439//439 436//436 444//444
f 445//445 446//446 443//443
f 447//447 444//444 448//448
f 433//433 442//442 434//434
f 439//439 444//444 447//447
f 440//440 441//441 449//449
f 441//441 450//450 449//449
f 442//442 445//445 443//443
f 447//447 448//448 451//451
f 449//449 450//450 452//452
f 450//450 453//453 452//452
f 454//454 455//455 446//446
f 451//451 448//448 455//455
f 445//445 454//454 446//446
f 451//451 455//455 454//454
f 452//452 453//453 456//456
f 457//457 458//458 459//459
f 460//460 459//459 461//461
f 457//457 459//459 460//460
f 460//460 461//461 462//462
f 463//463 464//464 465//465
f 466//466 467//467 458//458
f 462//462 461//461 468//468
f 469//469 470//470 467//467
f 471//471 468//468 472//472
f 457//457 466//466 458//458
f 462//462 468//468 471//471
f 463//463 465//465 473//473
f 465//465 474//474 473//473
f 466//466 469//469 467//467
f 471//471 472//472 475//475
f 473//473 474//474 476//476
f 474//474 477//477 476//476
f 478//478 479//479 470//470
f 475//475 472//472 480//480
f 481//481 482//482 479//479
f 483//483 480//480 484//484
f 469//469 478//478 470//470
f 475//475 480//480 483//483
f 476//476 477//477 485//485
f 477//477 486//486 485//485
f 478//478 481//481 479//479
f 483//483 484//484 487//487
f 485//485 486//486 488//488
f 486//486 489//489 488//488
f 490//490 491//491 482//482
f 487//487 484//484 491//491
f 481//481 490//490 482//482
f 487//487 491//491 490//490
f 488//488 489//489 492//492
f 493//493 494//494 495//495
f 496//496 495//495 497//497
f 496//496 493//493 495//495
f 496//496 497//497 498//498
f 499//499 500//500 501//501
f 502//502 503//503 494//494
f 498//498 497//497 504//504
f 505//505 506//506 503//503
f 507//507 504//504 508//508
f 493//493 502//502 494//494
f 498//498 504//504 507//507
f 501//501 500//500 509//509
f 500//500 510//510 509//509
f 502//502 505//505 503//503
f 507//507 508//508 511//511
f 509//509 510//510 512//512
f 510//510 513//513 512//512
f 514//514 515//515 506//506
f 511//511 508//508 516//516
f 517//517 518//518 515//515
f 519//519 516//516 520//520
f 505//505 514//514 506//506
f 511//511 516//516 519//519
f 512//512 513//513 521//521
f 513//513 522//522 521//521
f 514//514 517//517 515//515
f 519//519 520//520 523//523
f 521//521 522//522 524//524
f 522//522 525//525 524//524
f 526//526 527//527 518//518
f 523//523 520//520 527//527
f 517//517 526//526 518//518
f 523//523 527//527 526//526
f 524//524 525//525 528//528
f 529//529 530//530 531//531
f 532//532 531//531 533//533
f 529//529 531//531 532//532
f 532//532 533//533 534//534
f 535//535 536//536 537//537
f 538//538 539//539 530//530
f 534//534 533//533 540//540
f 541//541 542//542 539//539
f 543//543 540//540 544//544
f 529//529 538//538 530//530
f 534//534 540//540 543//543
f 535//535 537//537 545//545
f 537//537 546//546 545//545
f 538//538 541//541 539//539
f 543//543 544//544 547//547
f 545//545 546//546 548//548
f 546//546 549//549 548//548
f 550//550 551//551 542//542
f 547//547 544//544 552//552
f 553//553 554//554 551//551
f 555//555 552//552 556//556
f 541//541 550//550 542//542
f 547//547 552//552 555//555
f 548//548 549//549 557//557
f 549//549 558//558 557//557
f 550//550 553//553 551//551
f 555//555 556//556 559//559
f 557//557 558//558 560//560
f 558//558 561//561 560//560
f 562//562 563//563 554//554
f 559//559 556//556 563//563
f 553//553 562//562 554//554
f 559//559 563//563 562//562
f 560//560 561//561 564//564
f 565//565 566//566 567//567
f 568//568 567//567 569//569
f 565//565 567//567 568//568
f 568//568 569//569 570//570
f 571//571 572//572 573//573
f 574//574 575//575 566//566
f 570//570 569//569 576//576
f 577//577 578//578 575//575
f 579//579 576//576 580//580
f 565//565 574//574 566//566
f 570//570 576//576 579//579
f 571//571 573//573 581//581
f 573//573 582//582 581//581
f 574//574 577//577 575//575
f 579//579 580//580 583//583
f 581//581 582//582 584//584
f 582//582 585//585 584//584
f 586//586 587//587 578//578
f 583//583 580//580 588//588
f 589//589 590//590 587//587
f 591//591 588//588 592//592
f 577//577 586//586 578//578
f 583//583 588//588 591//591
f 584//584 585//585 593//593
f 585//585 594//594 593//593
f 586//586 589//589 587//587
f 591//591 592//592 595//595
f 593//593 594//594 596//596
f 594//594 597//597 596//596
f 598//598 599//599 590//590
f 595//595 592//592 599//599
f 589//589 598//598 590//590
f 598//598 595//595 599//599
f 596//596 597//597 600//600
f 601//601 602//602 603//603
f 604//604 603//603 605//605
f 604//604 601//601 603//603
f 604//604 605//605 606//606
f 607//607 608//608 609//609
f 610//610 611//611 602//602
f 606//606 605//605 612//612
f 613//613 614//614 611//611
f 615//615 612//612 616//616
f 601//601 610//610 602//602
f 606//606 612//612 615//615
f 609//609 608//608 617//617
f 608//608 618//618 617//617
f 610//610 613//613 611//611
f 615//615 616//616 619//619
f 617//617 618//618 620//620
f 618//618 621//621 620//620
f 622//622 623//623 614//614
f 619//619 616//616 624//624
f 625//625 626//626 623//623
f 627//627 624//624 628//628
f 613//613 622//622 614//614
f 619//619 624//624 627//627
f 620//620 621//621 629//629
f 621//621 630//630 629//629
f 622//622 625//625 623//623
f 627//627 628//628 631//631
f 629//629 630//630 632//632
f 630//630 633//633 632//632
f 634//634 635//635 626//626
f 631//631 628//628 635//635
f 625//625 634//634 626//626
f 634//634 631//631 635//635
f 632//632 633//633 636//636
f 637//637 638//638 639//639
f 640//640 639//639 641//641
f 640//640 637//637 639//639
f 640//640 641//641 642//642
f 643//643 644//644 645//645
f 646//646 647//647 638//638
f 642//642 641//641 648//648
f 649//649 650//650 647//647
f 651//651 648//648 652//652
f 637//637 646//646 638//638
f 642//642 648//648 651//651
f 645//645 644//644 653//653
f 644//644 654//654 653//653
f 646//646 649//649 647//647
f 651//651 652//652 655//655
f 653//653 654//654 656//656
f 654//654 657//657 656//656
f 658//658 659//659 650//650
f 655//655 652//652 660//660
f 661//661 662//662 659//659
f 663//663 660//660 664//664
f 649//649 658//658 650//650
f 655//655 660//660 663//663
f 656//656 657//657 665//665
f 657//657 666//666 665//665
f 658//658 661//661 659//659
f 663//663 664//664 667//667
f 665//665 666//666 668//668
f 666//666 669//669 668//668
f 670//670 671//671 662//662
f 667//667 664//664 671//671
f 661//661 670//670 662//662
f 670//670 667//667 671//671
f 668//668 669//669 672//672
f 673//673 674//674 675//675
f 676//676 675//675 677//677
f 673//673 675//675 676//676
f 676//676 677//677 678//678
f 679//679 680//680 681//681
f 682//682 683//683 674//674
f 678//678 677//677 684//684
f 685//685 686//686 683//683
f 687//687 684//684 688//688
f 673//673 682//682 674//674
f 678//678 684//684 687//687
f 679//679 681//681 689//689
f 681//681 690//690 689//689
f 682//682 685//685 683//683
f 687//687 688//688 691//691
f 689//689 690//690 692//692
f 690//690 693//693 692//692
f 694//694 695//695 686//686
f 691//691 688//688 696//696
f 697//697 698//698 695//695
f 699//699 696//696 700//700
f 685//685 694//694 686//686
f 691//691 696//696 699//699
f 692//692 693//693 701//701
f 693//693 702//702 701//701
f 694//694 697//697 695//695
f 699//699 700//700 703//703
f 701//701 702//702 704//704
f 702//702 705//705 704//704
f 706//706 707//707 698//698
f 703//703 700//700 707//707
f 697//697 706//706 698//698
f 703//703 707//707 706//706
f 704//704 705//705 708//708
f 709//709 710//710 711//711
f 712//712 711//711 713//713
f 709//709 711//711 712//712
f 712//712 713//713 714//714
f 715//715 716//716 717//717
f 718//718 719//719 710//710
f 714//714 713//713 720//720
f 721//721 722//722 719//719
f 723//723 720//720 724//724
f 709//709 718//718 710//710
f 714//714 720//720 723//723
f 715//715 717//717 725//725
f 717//717 726//726 725//725
f 718//718 721//721 719//719
f 723//723 724//724 727//727
f 725//725 726//726 728//728
f 726//726 729//729 728//728
f 730//730 731//731 722//722
f 727//727 724//724 732//732
f 733//733 734//734 731//731
f 735//735 732//732 736//736
f 721//721 730//730 722//722
f 727//727 732//732 735//735
f 728//728 729//729 737//737
f 729//729 738//738 737//737
f 730//730 733//733 731//731
f 735//735 736//736 739//739
f 737//737 738//738 740//740
f 738//738 741//741 740//740
f 742//742 743//743 734//734
f 739//739 736//736 743//743
f 733//733 742//742 734//734
f 739//739 743//743 742//742
f 740//740 741//741 744//744
f 745//745 746//746 747//747
f 748//748 747//747 749//749
f 745//745 747//747 748//748
f 748//748 749//749 750//750
f 751//751 752//752 753//753
f 754//754 755//755 746//746
f 750//750 749//749 756//756
f 757//757 758//758 755//755
f 759//759 756//756 760//760
f 745//745 754//754 746//746
f 750//750 756//756 759//759
f 751//751 753//753 761//761
f 753//753 762//762 761//761
f 754//754 757//757 755//755
f 759//759 760//760 763//763
f 761//761 762//762 764//764
f 762//762 765//765 764//764
f 766//766 767//767 758//758
f 763//763 760//760 768//768
f 769//769 770//770 767//767
f 771//771 768//768 772//772
f 757//757 766//766 758//758
f 763//763 768//768 771//771
f 764//764 765//765 773//773
f 765//765 774//774 773//773
f 766//766 769//769 767//767
f 771//771 772//772 775//775
f 773//773 774//774 776//776
f 774//774 777//777 776//776
f 778//778 779//779 770//770
f 775//775 772//772 779//779
f 769//769 778//778 770//770
f 778//778 775//775 779//779
f 776//776 777//777 780//780
f 781//781 782//782 783//783
f 784//784 783//783 785//785
f 784//784 781//781 783//783
f 784//784 785//785 786//786
f 787//787 788//788 789//789
f 790//790 791//791 782//782
f 786//786 785//785 792//792
f 793//793 794//794 791//791
f 795//795 792//792 796//796
f 781//781 790//790 782//782
f 786//786 792//792 795//795
f 789//789 788//788 797//797
f 788//788 798//798 797//797
f 790//790 793//793 791//791
f 795//795 796//796 799//799
f 797//797 798//798 800//800
f 798//798 801//801 800//800
f 802//802 803//803 794//794
f 799//799 796//796 804//804
f 805//805 806//806 803//803
f 807//807 804//804 808//808
f 793//793 802//802 794//794
f 799//799 804//804 807//807
f 800//800 801//801 809//809
f 801//801 810//810 809//809
f 802//802 805//805 803//803
f 807//807 808//808 811//811
f 809//809 810//810 812//812
f 810//810 813//813 812//812
f 814//814 815//815 806//806
f 811//811 808//808 815//815
f 805//805 814//814 806//806
f 814//814 811//811 815//815
f 812//812 813//813 816//816
