v -0.09789 -0.04900 -0.07112
v -0.07112 0.04900 -0.09789
v -0.07112 -0.04900 -0.09789
v -0.11508 -0.04900 0.03739
v -0.11508 -0.04900 -0.03739
v -0.09789 -0.04900 -0.07112
v -0.11508 -0.04900 -0.03739
v -0.09789 0.04900 -0.07112
v -0.12100 -0.04900 0.00000
v -0.11508 0.04900 -0.03739
v -0.09789 -0.04900 0.07112
v -0.07112 -0.04900 -0.09789
v -0.12100 0.04900 0.00000
v -0.03739 0.04900 -0.11508
v -0.03739 -0.04900 -0.11508
v 0.00000 0.04900 -0.12100
v 0.00000 -0.04900 -0.12100
v -0.07112 -0.04900 0.09789
v -0.03739 -0.04900 -0.11508
v -0.03739 -0.04900 0.11508
v 0.00000 -0.04900 -0.12100
v -0.12100 -0.04900 0.00000
v -0.11508 -0.04900 0.03739
v -0.09789 -0.04900 0.07112
v -0.11508 0.04900 0.03739
v -0.07112 -0.04900 0.09789
v -0.09789 0.04900 0.07112
v -0.07112 0.04900 0.09789
v 0.00000 -0.04900 0.12100
v -0.03739 -0.04900 0.11508
v 0.00000 -0.04900 0.12100
v -0.03739 0.04900 0.11508
v 0.00000 0.04900 0.12100
v -0.11508 0.04900 0.03739
v -0.09789 0.04900 -0.07112
v -0.11508 0.04900 -0.03739
v -0.09789 0.04900 0.07112
v -0.07112 0.04900 -0.09789
v -0.07500 0.04900 0.00000
v -0.06495 0.04900 -0.03750
v -0.03750 0.04900 -0.06495
v -0.03739 0.04900 -0.11508
v 0.00000 0.04900 -0.07500
v 0.00000 0.04900 -0.12100
v -0.12100 0.04900 0.00000
v -0.07112 0.04900 0.09789
v -0.06495 0.04900 0.03750
v -0.03750 0.04900 0.06495
v -0.03739 0.04900 0.11508
v 0.00000 0.04900 0.07500
v 0.00000 0.04900 0.12100
v 0.03739 0.04900 -0.11508
v 0.03739 -0.04900 -0.11508
v 0.07112 0.04900 -0.09789
v 0.07112 -0.04900 -0.09789
v 0.03739 -0.04900 -0.11508
v 0.03739 -0.04900 0.11508
v 0.07112 -0.04900 -0.09789
v 0.09789 0.04900 -0.07112
v 0.09789 -0.04900 -0.07112
v 0.07112 -0.04900 0.09789
v 0.09789 -0.04900 -0.07112
v 0.09789 -0.04900 0.07112
v 0.11508 -0.04900 -0.03739
v 0.11508 -0.04900 -0.03739
v 0.11508 0.04900 -0.03739
v 0.12100 -0.04900 0.00000
v 0.12100 0.04900 0.00000
v 0.03739 -0.04900 0.11508
v 0.07112 -0.04900 0.09789
v 0.03739 0.04900 0.11508
v 0.07112 0.04900 0.09789
v 0.11508 -0.04900 0.03739
v 0.12100 -0.04900 0.00000
v 0.11508 -0.04900 0.03739
v 0.11508 0.04900 0.03739
v 0.09789 -0.04900 0.07112
v 0.09789 0.04900 0.07112
v 0.03739 0.04900 -0.11508
v 0.03750 0.04900 -0.06495
v 0.07112 0.04900 -0.09789
v 0.06495 0.04900 -0.03750
v 0.07500 0.04900 0.00000
v 0.09789 0.04900 -0.07112
v 0.09789 0.04900 0.07112
v 0.11508 0.04900 -0.03739
v 0.03739 0.04900 0.11508
v 0.03750 0.04900 0.06495
v 0.07112 0.04900 0.09789
v 0.06495 0.04900 0.03750
v 0.11508 0.04900 0.03739
v 0.12100 0.04900 0.00000
v -0.06495 0.09900 -0.03750
v -0.06495 0.04900 -0.03750
v -0.07500 0.04900 0.00000
v -0.07500 0.09900 0.00000
v 0.00000 0.09900 -0.07500
v 0.00000 0.04900 -0.07500
v -0.03750 0.04900 -0.06495
v -0.03750 0.09900 -0.06495
v -0.06495 0.09900 0.03750
v -0.03750 0.09900 -0.06495
v -0.06495 0.09900 -0.03750
v -0.03750 0.09900 0.06495
v 0.00000 0.09900 -0.07500
v -0.06495 0.04900 0.03750
v -0.06495 0.09900 0.03750
v -0.07500 0.09900 0.00000
v -0.03750 0.04900 0.06495
v -0.03750 0.09900 0.06495
v 0.00000 0.09900 0.07500
v 0.00000 0.04900 0.07500
v 0.00000 0.09900 0.07500
v 0.03750 0.09900 -0.06495
v 0.03750 0.04900 -0.06495
v 0.03750 0.09900 -0.06495
v 0.06495 0.09900 -0.03750
v 0.06495 0.04900 -0.03750
v 0.03750 0.09900 0.06495
v 0.06495 0.09900 -0.03750
v 0.07500 0.09900 0.00000
v 0.07500 0.04900 0.00000
v 0.03750 0.09900 0.06495
v 0.03750 0.04900 0.06495
v 0.06495 0.04900 0.03750
v 0.06495 0.09900 0.03750
v 0.06495 0.09900 0.03750
v 0.07500 0.09900 0.00000
vn -0.8090 0.0000 -0.5878
vn -0.5878 0.0000 -0.8090
vn -0.5878 -0.0000 -0.8090
vn 0.0000 -1.0000 0.0000
vn 0.0000 -1.0000 0.0000
vn 0.0000 -1.0000 0.0000
vn -0.9511 0.0000 -0.3090
vn -0.8090 0.0000 -0.5878
vn -1.0000 0.0000 0.0000
vn -0.9511 0.0000 -0.3090
vn 0.0000 -1.0000 0.0000
vn 0.0000 -1.0000 0.0000
vn -1.0000 0.0000 0.0000
vn -0.3090 -0.0000 -0.9511
vn -0.3090 0.0000 -0.9511
vn 0.0000 0.0000 -1.0000
vn 0.0000 -0.0000 -1.0000
vn 0.0000 -1.0000 0.0000
vn 0.0000 -1.0000 0.0000
vn 0.0000 -1.0000 0.0000
vn 0.0000 -1.0000 0.0000
vn 0.0000 -1.0000 0.0000
vn -0.9511 0.0000 0.3090
vn -0.8090 0.0000 0.5878
vn -0.9511 0.0000 0.3090
vn -0.5878 0.0000 0.8090
vn -0.8090 0.0000 0.5878
vn -0.5878 0.0000 0.8090
vn 0.0000 -1.0000 0.0000
vn -0.3090 0.0000 0.9511
vn 0.0000 0.0000 1.0000
vn -0.3090 0.0000 0.9511
vn 0.0000 0.0000 1.0000
vn 0.0000 1.0000 0.0000
vn 0.0000 1.0000 0.0000
vn 0.0000 1.0000 0.0000
vn 0.0000 1.0000 0.0000
vn 0.0000 1.0000 0.0000
vn 0.0000 1.0000 0.0000
vn 0.0000 1.0000 0.0000
vn 0.0000 1.0000 0.0000
vn 0.0000 1.0000 0.0000
vn 0.0000 1.0000 0.0000
vn 0.0000 1.0000 0.0000
vn 0.0000 1.0000 0.0000
vn 0.0000 1.0000 0.0000
vn 0.0000 1.0000 0.0000
vn 0.0000 1.0000 0.0000
vn 0.0000 1.0000 0.0000
vn 0.0000 1.0000 0.0000
vn 0.0000 1.0000 0.0000
vn 0.3090 -0.0000 -0.9511
vn 0.3090 0.0000 -0.9511
vn 0.5878 0.0000 -0.8090
vn 0.5878 0.0000 -0.8090
vn 0.0000 -1.0000 0.0000
vn 0.0000 -1.0000 0.0000
vn 0.0000 -1.0000 0.0000
vn 0.8090 0.0000 -0.5878
vn 0.8090 -0.0000 -0.5878
vn 0.0000 -1.0000 0.0000
vn 0.0000 -1.0000 0.0000
vn 0.0000 -1.0000 0.0000
vn 0.0000 -1.0000 0.0000
vn 0.9511 0.0000 -0.3090
vn 0.9511 -0.0000 -0.3090
vn 1.0000 -0.0000 0.0000
vn 1.0000 0.0000 0.0000
vn 0.3090 0.0000 0.9511
vn 0.5878 -0.0000 0.8090
vn 0.3090 -0.0000 0.9511
vn 0.5878 0.0000 0.8090
vn 0.0000 -1.0000 0.0000
vn 0.0000 -1.0000 0.0000
vn 0.9511 0.0000 0.3090
vn 0.9511 -0.0000 0.3090
vn 0.8090 0.0000 0.5878
vn 0.8090 0.0000 0.5878
vn 0.0000 1.0000 0.0000
vn 0.0000 1.0000 0.0000
vn 0.0000 1.0000 0.0000
vn 0.0000 1.0000 0.0000
vn 0.0000 1.0000 0.0000
vn 0.0000 1.0000 0.0000
vn 0.0000 1.0000 0.0000
vn 0.0000 1.0000 0.0000
vn 0.0000 1.0000 0.0000
vn 0.0000 1.0000 0.0000
vn 0.0000 1.0000 0.0000
vn 0.0000 1.0000 0.0000
vn 0.0000 1.0000 0.0000
vn 0.0000 1.0000 0.0000
vn -0.8660 0.0000 -0.5000
vn -0.8660 0.0000 -0.5000
vn -1.0000 0.0000 0.0000
vn -1.0000 0.0000 0.0000
vn 0.0000 -0.0000 -1.0000
vn 0.0000 0.0000 -1.0000
vn -0.5000 -0.0000 -0.8660
vn -0.5000 0.0000 -0.8660
vn 0.0000 1.0000 0.0000
vn 0.0000 1.0000 0.0000
vn 0.0000 1.0000 0.0000
vn 0.0000 1.0000 0.0000
vn 0.0000 1.0000 0.0000
vn -0.8660 0.0000 0.5000
vn -0.8660 0.0000 0.5000
vn 0.0000 1.0000 0.0000
vn -0.5000 0.0000 0.8660
vn -0.5000 0.0000 0.8660
vn 0.0000 1.0000 0.0000
vn 0.0000 0.0000 1.0000
vn 0.0000 0.0000 1.0000
vn 0.5000 0.0000 -0.8660
vn 0.5000 0.0000 -0.8660
vn 0.0000 1.0000 0.0000
vn 0.8660 0.0000 -0.5000
vn 0.8660 0.0000 -0.5000
vn 0.0000 1.0000 0.0000
vn 0.0000 1.0000 0.0000
vn 1.0000 0.0000 0.0000
vn 1.0000 0.0000 0.0000
vn 0.5000 0.0000 0.8660
vn 0.5000 0.0000 0.8660
vn 0.8660 0.0000 0.5000
vn 0.0000 1.0000 0.0000
vn 0.8660 0.0000 0.5000
vn 0.0000 1.0000 0.0000
f 1//1 2//2 3//3
f 4//4 5//5 6//6
f 7//7 8//8 1//1
f 9//9 10//10 7//7
f 11//11 6//6 12//12
f 1//1 8//8 2//2
f 7//7 10//10 8//8
f 9//9 13//13 10//10
f 3//3 14//14 15//15
f 15//15 16//16 17//17
f 18//18 12//12 19//19
f 20//20 19//19 21//21
f 3//3 2//2 14//14
f 15//15 14//14 16//16
f 4//4 22//22 5//5
f 11//11 4//4 6//6
f 23//23 13//13 9//9
f 24//24 25//25 23//23
f 11//11 12//12 18//18
f 24//24 26//26 27//27
f 23//23 25//25 13//13
f 24//24 27//27 25//25
f 26//26 28//28 27//27
f 18//18 19//19 20//20
f 20//20 21//21 29//29
f 26//26 30//30 28//28
f 30//30 31//31 32//32
f 30//30 32//32 28//28
f 32//32 31//31 33//33
f 34//34 35//35 36//36
f 37//37 38//38 35//35
f 38//38 39//39 40//40
f 37//37 39//39 38//38
f 38//38 41//41 42//42
f 38//38 40//40 41//41
f 42//42 43//43 44//44
f 42//42 41//41 43//43
f 34//34 36//36 45//45
f 37//37 35//35 34//34
f 37//37 46//46 39//39
f 46//46 47//47 39//39
f 46//46 48//48 47//47
f 46//46 49//49 48//48
f 49//49 50//50 48//48
f 49//49 51//51 50//50
f 17//17 52//52 53//53
f 53//53 54//54 55//55
f 29//29 21//21 56//56
f 57//57 56//56 58//58
f 17//17 16//16 52//52
f 53//53 52//52 54//54
f 55//55 59//59 60//60
f 61//61 58//58 62//62
f 63//63 62//62 64//64
f 65//65 60//60 66//66
f 67//67 65//65 68//68
f 55//55 54//54 59//59
f 60//60 59//59 66//66
f 65//65 66//66 68//68
f 29//29 56//56 57//57
f 57//57 58//58 61//61
f 31//31 69//69 33//33
f 69//69 70//70 71//71
f 69//69 71//71 33//33
f 70//70 72//72 71//71
f 61//61 62//62 63//63
f 73//73 64//64 74//74
f 63//63 64//64 73//73
f 75//75 67//67 76//76
f 77//77 75//75 78//78
f 70//70 77//77 72//72
f 76//76 67//67 68//68
f 75//75 76//76 78//78
f 77//77 78//78 72//72
f 44//44 43//43 79//79
f 79//79 43//43 80//80
f 79//79 80//80 81//81
f 81//81 80//80 82//82
f 81//81 82//82 83//83
f 81//81 83//83 84//84
f 85//85 86//86 84//84
f 87//87 88//88 50//50
f 51//51 87//87 50//50
f 89//89 90//90 88//88
f 87//87 89//89 88//88
f 89//89 84//84 83//83
f 89//89 83//83 90//90
f 89//89 85//85 84//84
f 91//91 92//92 86//86
f 85//85 91//91 86//86
f 93//93 94//94 95//95
f 96//96 93//93 95//95
f 97//97 98//98 99//99
f 100//100 97//97 99//99
f 100//100 99//99 94//94
f 93//93 100//100 94//94
f 101//101 102//102 103//103
f 104//104 105//105 102//102
f 96//96 95//95 106//106
f 107//107 96//96 106//106
f 101//101 103//103 108//108
f 107//107 106//106 109//109
f 101//101 104//104 102//102
f 107//107 109//109 110//110
f 104//104 111//111 105//105
f 110//110 109//109 112//112
f 110//110 112//112 113//113
f 114//114 115//115 98//98
f 97//97 114//114 98//98
f 111//111 116//116 105//105
f 117//117 118//118 115//115
f 114//114 117//117 115//115
f 119//119 120//120 116//116
f 121//121 122//122 118//118
f 121//121 118//118 117//117
f 111//111 119//119 116//116
f 123//123 124//124 125//125
f 119//119 126//126 120//120
f 123//123 125//125 127//127
f 113//113 112//112 124//124
f 113//113 124//124 123//123
f 127//127 125//125 122//122
f 127//127 122//122 121//121
f 126//126 128//128 120//120
