v -0.22164 -0.04900 -0.10674
v -0.19233 0.04900 -0.15338
v -0.19233 -0.04900 -0.15338
v -0.15338 0.04900 -0.19233
v -0.15338 -0.04900 -0.19233
v -0.23983 -0.04900 0.05474
v -0.23983 -0.04900 -0.05474
v -0.22164 -0.04900 -0.10674
v -0.22164 -0.04900 0.10674
v -0.19233 -0.04900 -0.15338
v -0.23983 -0.04900 -0.05474
v -0.22164 0.04900 -0.10674
v -0.24600 -0.04900 0.00000
v -0.23983 0.04900 -0.05474
v -0.19233 -0.04900 0.15338
v -0.15338 -0.04900 -0.19233
v -0.15338 -0.04900 0.19233
v -0.10674 -0.04900 -0.22164
v -0.19244 0.04900 -0.15320
v -0.15320 0.04900 -0.19244
v -0.10674 0.04900 -0.22164
v -0.24600 0.04900 0.00000
v -0.10674 -0.04900 -0.22164
v -0.05474 0.04900 -0.23983
v -0.05474 -0.04900 -0.23983
v 0.00000 0.04900 -0.24600
v 0.00000 -0.04900 -0.24600
v -0.10674 -0.04900 0.22164
v -0.05474 -0.04900 -0.23983
v -0.05474 -0.04900 0.23983
v 0.00000 -0.04900 -0.24600
v -0.24600 -0.04900 0.00000
v -0.23983 -0.04900 0.05474
v -0.22164 -0.04900 0.10674
v -0.23983 0.04900 0.05474
v -0.19233 -0.04900 0.15338
v -0.22164 0.04900 0.10674
v -0.15338 -0.04900 0.19233
v -0.19233 0.04900 0.15338
v -0.10674 -0.04900 0.22164
v -0.15338 0.04900 0.19233
v -0.19244 0.04900 0.15320
v -0.15320 0.04900 0.19244
v 0.00000 -0.04900 0.24600
v -0.05474 -0.04900 0.23983
v -0.10674 0.04900 0.22164
v 0.00000 -0.04900 0.24600
v -0.05474 0.04900 0.23983
v 0.00000 0.04900 0.24600
v -0.22164 0.04900 -0.10674
v -0.20000 0.04900 -0.12500
v -0.19244 0.04900 -0.15320
v -0.10674 0.04900 -0.22164
v -0.15320 0.04900 -0.19244
v -0.12500 0.04900 -0.20000
v -0.23983 0.04900 0.05474
v -0.23983 0.04900 -0.05474
v -0.22164 0.04900 0.10674
v -0.18995 0.04900 0.08750
v -0.18995 0.04900 -0.08750
v -0.16250 0.04900 0.06005
v -0.16250 0.04900 -0.06005
v -0.12500 0.04900 0.05000
v -0.12500 0.04900 -0.05000
v -0.08750 0.04900 -0.18995
v -0.05474 0.04900 -0.23983
v -0.06005 0.04900 -0.16250
v -0.05000 0.04900 -0.12500
v 0.00000 0.04900 -0.24600
v -0.08750 0.04900 0.06005
v -0.08750 0.04900 -0.06005
v -0.06005 0.04900 -0.08750
v -0.05000 0.04900 0.12500
v -0.24600 0.04900 0.00000
v -0.20000 0.04900 0.12500
v -0.19244 0.04900 0.15320
v -0.10674 0.04900 0.22164
v -0.12500 0.04900 0.20000
v -0.15320 0.04900 0.19244
v -0.06005 0.04900 0.08750
v -0.05474 0.04900 0.23983
v 0.00000 0.04900 0.24600
v -0.08750 0.04900 0.18995
v -0.06005 0.04900 0.16250
v 0.05474 0.04900 -0.23983
v 0.05474 -0.04900 -0.23983
v 0.10674 0.04900 -0.22164
v 0.10674 -0.04900 -0.22164
v 0.05474 -0.04900 -0.23983
v 0.05474 -0.04900 0.23983
v 0.10674 -0.04900 -0.22164
v 0.10674 -0.04900 0.22164
v 0.15338 -0.04900 -0.19233
v 0.15320 0.04900 -0.19244
v 0.15338 0.04900 -0.19233
v 0.15338 -0.04900 -0.19233
v 0.19233 0.04900 -0.15338
v 0.19233 -0.04900 -0.15338
v 0.15338 -0.04900 0.19233
v 0.19233 -0.04900 -0.15338
v 0.19233 -0.04900 0.15338
v 0.22164 -0.04900 -0.10674
v 0.22164 -0.04900 0.10674
v 0.23983 -0.04900 -0.05474
v 0.23983 -0.04900 0.05474
v 0.24600 -0.04900 0.00000
v 0.22164 -0.04900 -0.10674
v 0.22164 0.04900 -0.10674
v 0.23983 -0.04900 -0.05474
v 0.23983 0.04900 -0.05474
v 0.24600 -0.04900 0.00000
v 0.24600 0.04900 0.00000
v 0.19244 0.04900 -0.15320
v 0.05474 -0.04900 0.23983
v 0.10674 -0.04900 0.22164
v 0.05474 0.04900 0.23983
v 0.15338 -0.04900 0.19233
v 0.10674 0.04900 0.22164
v 0.23983 -0.04900 0.05474
v 0.23983 0.04900 0.05474
v 0.22164 -0.04900 0.10674
v 0.22164 0.04900 0.10674
v 0.19233 -0.04900 0.15338
v 0.15338 0.04900 0.19233
v 0.19233 0.04900 0.15338
v 0.19244 0.04900 0.15320
v 0.15320 0.04900 0.19244
v 0.05474 0.04900 -0.23983
v 0.05000 0.04900 -0.12500
v 0.06005 0.04900 -0.16250
v 0.08750 0.04900 -0.18995
v 0.12500 0.04900 -0.20000
v 0.10674 0.04900 -0.22164
v 0.06005 0.04900 0.08750
v 0.06005 0.04900 -0.08750
v 0.08750 0.04900 -0.06005
v 0.12500 0.04900 0.05000
v 0.12500 0.04900 -0.05000
v 0.15320 0.04900 -0.19244
v 0.22164 0.04900 -0.10674
v 0.19244 0.04900 -0.15320
v 0.20000 0.04900 -0.12500
v 0.16250 0.04900 0.06005
v 0.16250 0.04900 -0.06005
v 0.18995 0.04900 0.08750
v 0.18995 0.04900 -0.08750
v 0.20000 0.04900 0.12500
v 0.22164 0.04900 0.10674
v 0.23983 0.04900 -0.05474
v 0.23983 0.04900 0.05474
v 0.24600 0.04900 0.00000
v 0.05000 0.04900 0.12500
v 0.08750 0.04900 0.06005
v 0.05474 0.04900 0.23983
v 0.06005 0.04900 0.16250
v 0.08750 0.04900 0.18995
v 0.10674 0.04900 0.22164
v 0.12500 0.04900 0.20000
v 0.15320 0.04900 0.19244
v 0.19244 0.04900 0.15320
v -0.18995 0.04900 -0.16250
v -0.19233 0.04900 -0.15338
v -0.19244 0.04900 -0.15320
v -0.16250 0.04900 -0.18995
v -0.15320 0.04900 -0.19244
v -0.15338 0.04900 -0.19233
v -0.18995 0.04900 -0.16250
v -0.19244 0.04900 -0.15320
v -0.18995 0.09900 -0.16250
v -0.20000 0.04900 -0.12500
v -0.20000 0.09900 -0.12500
v -0.18995 0.09900 -0.16250
v -0.20000 0.09900 -0.12500
v -0.18995 0.09900 -0.08750
v -0.16250 0.04900 -0.18995
v -0.12500 0.09900 -0.20000
v -0.15320 0.04900 -0.19244
v -0.12500 0.04900 -0.20000
v -0.16250 0.09900 -0.18995
v -0.16250 0.09900 -0.18995
v -0.16250 0.09900 -0.06005
v -0.12500 0.09900 -0.20000
v -0.18995 0.04900 -0.08750
v -0.18995 0.09900 -0.08750
v -0.16250 0.04900 -0.06005
v -0.16250 0.09900 -0.06005
v -0.12500 0.04900 -0.05000
v -0.12500 0.09900 -0.05000
v -0.12500 0.09900 -0.05000
v -0.08750 0.09900 -0.18995
v -0.08750 0.04900 -0.18995
v -0.06005 0.09900 -0.16250
v -0.06005 0.04900 -0.16250
v -0.08750 0.09900 -0.18995
v -0.08750 0.09900 -0.06005
v -0.06005 0.09900 -0.16250
v -0.05000 0.09900 -0.12500
v -0.05000 0.04900 -0.12500
v -0.06005 0.09900 -0.08750
v -0.05000 0.09900 -0.12500
v -0.08750 0.09900 -0.06005
v -0.08750 0.04900 -0.06005
v -0.06005 0.04900 -0.08750
v -0.06005 0.09900 -0.08750
v -0.18995 0.04900 0.16250
v -0.19244 0.04900 0.15320
v -0.19233 0.04900 0.15338
v -0.16250 0.04900 0.18995
v -0.15338 0.04900 0.19233
v -0.15320 0.04900 0.19244
v -0.18995 0.09900 0.08750
v -0.18995 0.04900 0.08750
v -0.20000 0.04900 0.12500
v -0.20000 0.09900 0.12500
v -0.12500 0.09900 0.05000
v -0.12500 0.04900 0.05000
v -0.16250 0.04900 0.06005
v -0.16250 0.09900 0.06005
v -0.18995 0.09900 0.08750
v -0.18995 0.09900 0.16250
v -0.16250 0.09900 0.06005
v -0.16250 0.09900 0.18995
v -0.12500 0.09900 0.05000
v -0.19244 0.04900 0.15320
v -0.18995 0.04900 0.16250
v -0.18995 0.09900 0.16250
v -0.20000 0.09900 0.12500
v -0.16250 0.04900 0.18995
v -0.15320 0.04900 0.19244
v -0.16250 0.09900 0.18995
v -0.12500 0.04900 0.20000
v -0.12500 0.09900 0.20000
v -0.12500 0.09900 0.20000
v -0.08750 0.09900 0.06005
v -0.08750 0.04900 0.06005
v -0.06005 0.09900 0.08750
v -0.06005 0.04900 0.08750
v -0.08750 0.09900 0.06005
v -0.08750 0.09900 0.18995
v -0.06005 0.09900 0.08750
v -0.05000 0.09900 0.12500
v -0.05000 0.04900 0.12500
v -0.08750 0.09900 0.18995
v -0.08750 0.04900 0.18995
v -0.06005 0.04900 0.16250
v -0.06005 0.09900 0.16250
v -0.06005 0.09900 0.16250
v -0.05000 0.09900 0.12500
v 0.06005 0.09900 -0.16250
v 0.06005 0.04900 -0.16250
v 0.05000 0.04900 -0.12500
v 0.05000 0.09900 -0.12500
v 0.06005 0.09900 -0.16250
v 0.05000 0.09900 -0.12500
v 0.06005 0.09900 -0.08750
v 0.12500 0.09900 -0.20000
v 0.12500 0.04900 -0.20000
v 0.08750 0.04900 -0.18995
v 0.08750 0.09900 -0.18995
v 0.08750 0.09900 -0.18995
v 0.08750 0.09900 -0.06005
v 0.12500 0.09900 -0.20000
v 0.06005 0.04900 -0.08750
v 0.06005 0.09900 -0.08750
v 0.08750 0.04900 -0.06005
v 0.08750 0.09900 -0.06005
v 0.12500 0.04900 -0.05000
v 0.12500 0.09900 -0.05000
v 0.12500 0.09900 -0.05000
v 0.16250 0.04900 -0.18995
v 0.15338 0.04900 -0.19233
v 0.15320 0.04900 -0.19244
v 0.19233 0.04900 -0.15338
v 0.18995 0.04900 -0.16250
v 0.19244 0.04900 -0.15320
v 0.16250 0.09900 -0.18995
v 0.15320 0.04900 -0.19244
v 0.16250 0.04900 -0.18995
v 0.18995 0.09900 -0.16250
v 0.18995 0.04900 -0.16250
v 0.16250 0.09900 -0.18995
v 0.16250 0.09900 -0.06005
v 0.18995 0.09900 -0.16250
v 0.20000 0.09900 -0.12500
v 0.19244 0.04900 -0.15320
v 0.20000 0.04900 -0.12500
v 0.18995 0.09900 -0.08750
v 0.20000 0.09900 -0.12500
v 0.16250 0.09900 -0.06005
v 0.16250 0.04900 -0.06005
v 0.18995 0.04900 -0.08750
v 0.18995 0.09900 -0.08750
v 0.06005 0.09900 0.08750
v 0.06005 0.04900 0.08750
v 0.05000 0.04900 0.12500
v 0.05000 0.09900 0.12500
v 0.12500 0.09900 0.05000
v 0.12500 0.04900 0.05000
v 0.08750 0.04900 0.06005
v 0.08750 0.09900 0.06005
v 0.06005 0.09900 0.08750
v 0.06005 0.09900 0.16250
v 0.08750 0.09900 0.06005
v 0.08750 0.09900 0.18995
v 0.12500 0.09900 0.05000
v 0.06005 0.04900 0.16250
v 0.06005 0.09900 0.16250
v 0.05000 0.09900 0.12500
v 0.08750 0.04900 0.18995
v 0.08750 0.09900 0.18995
v 0.12500 0.04900 0.20000
v 0.12500 0.09900 0.20000
v 0.12500 0.09900 0.20000
v 0.16250 0.04900 0.18995
v 0.15338 0.04900 0.19233
v 0.18995 0.04900 0.16250
v 0.19233 0.04900 0.15338
v 0.15320 0.04900 0.19244
v 0.19244 0.04900 0.15320
v 0.16250 0.09900 0.06005
v 0.16250 0.04900 0.06005
v 0.18995 0.09900 0.08750
v 0.18995 0.04900 0.08750
v 0.16250 0.09900 0.06005
v 0.16250 0.09900 0.18995
v 0.18995 0.09900 0.08750
v 0.20000 0.09900 0.12500
v 0.20000 0.04900 0.12500
v 0.16250 0.04900 0.18995
v 0.18995 0.04900 0.16250
v 0.16250 0.09900 0.18995
v 0.15320 0.04900 0.19244
v 0.18995 0.09900 0.16250
v 0.18995 0.09900 0.16250
v 0.19244 0.04900 0.15320
v 0.20000 0.09900 0.12500
vn -0.9010 0.0000 -0.4339
vn -0.7818 0.0000 -0.6235
vn -0.7818 0.0000 -0.6235
vn -0.6235 0.0000 -0.7818
vn -0.6235 0.0000 -0.7818
vn 0.0000 -1.0000 0.0000
vn 0.0000 -1.0000 0.0000
vn 0.0000 -1.0000 0.0000
vn 0.0000 -1.0000 0.0000
vn 0.0000 -1.0000 0.0000
vn -0.9749 -0.0000 -0.2225
vn -0.9010 -0.0000 -0.4339
vn -1.0000 0.0000 -0.0000
vn -0.9749 0.0000 -0.2225
vn 0.0000 -1.0000 0.0000
vn 0.0000 -1.0000 0.0000
vn 0.0000 -1.0000 0.0000
vn 0.0000 -1.0000 0.0000
vn -0.8467 0.0000 -0.5320
vn -0.5320 0.0000 -0.8467
vn -0.4339 0.0000 -0.9010
vn -1.0000 0.0000 0.0000
vn -0.4339 -0.0000 -0.9010
vn -0.2225 -0.0000 -0.9749
vn -0.2225 -0.0000 -0.9749
vn -0.0000 -0.0000 -1.0000
vn 0.0000 0.0000 -1.0000
vn 0.0000 -1.0000 0.0000
vn 0.0000 -1.0000 0.0000
vn 0.0000 -1.0000 0.0000
vn 0.0000 -1.0000 0.0000
vn 0.0000 -1.0000 0.0000
vn -0.9749 0.0000 0.2225
vn -0.9010 0.0000 0.4339
vn -0.9749 0.0000 0.2225
vn -0.7818 -0.0000 0.6235
vn -0.9010 0.0000 0.4339
vn -0.6235 0.0000 0.7818
vn -0.7818 0.0000 0.6235
vn -0.4339 -0.0000 0.9010
vn -0.6235 -0.0000 0.7818
vn -0.8467 0.0000 0.5320
vn -0.5320 -0.0000 0.8467
vn 0.0000 -1.0000 0.0000
vn -0.2225 0.0000 0.9749
vn -0.4339 0.0000 0.9010
vn -0.0000 -0.0000 1.0000
vn -0.2225 -0.0000 0.9749
vn -0.0000 0.0000 1.0000
vn 0.0000 1.0000 0.0000
vn 0.0000 1.0000 0.0000
vn 0.0000 1.0000 0.0000
vn 0.0000 1.0000 0.0000
vn 0.0000 1.0000 0.0000
vn 0.0000 1.0000 0.0000
vn 0.0000 1.0000 0.0000
vn 0.0000 1.0000 0.0000
vn 0.0000 1.0000 0.0000
vn 0.0000 1.0000 0.0000
vn 0.0000 1.0000 0.0000
vn 0.0000 1.0000 0.0000
vn 0.0000 1.0000 0.0000
vn 0.0000 1.0000 0.0000
vn 0.0000 1.0000 0.0000
vn 0.0000 1.0000 0.0000
vn 0.0000 1.0000 0.0000
vn 0.0000 1.0000 0.0000
vn 0.0000 1.0000 0.0000
vn 0.0000 1.0000 0.0000
vn 0.0000 1.0000 0.0000
vn 0.0000 1.0000 0.0000
vn 0.0000 1.0000 0.0000
vn 0.0000 1.0000 0.0000
vn 0.0000 1.0000 0.0000
vn 0.0000 1.0000 0.0000
vn 0.0000 1.0000 0.0000
vn 0.0000 1.0000 0.0000
vn 0.0000 1.0000 0.0000
vn 0.0000 1.0000 0.0000
vn 0.0000 1.0000 0.0000
vn 0.0000 1.0000 0.0000
vn 0.0000 1.0000 0.0000
vn 0.0000 1.0000 0.0000
vn 0.0000 1.0000 0.0000
vn 0.2225 0.0000 -0.9749
vn 0.2225 0.0000 -0.9749
vn 0.4339 0.0000 -0.9010
vn 0.4339 -0.0000 -0.9010
vn 0.0000 -1.0000 0.0000
vn 0.0000 -1.0000 0.0000
vn 0.0000 -1.0000 0.0000
vn 0.0000 -1.0000 0.0000
vn 0.0000 -1.0000 0.0000
vn 0.5320 -0.0000 -0.8467
vn 0.6235 -0.0000 -0.7818
vn 0.6235 -0.0000 -0.7818
vn 0.7818 -0.0000 -0.6235
vn 0.7818 -0.0000 -0.6235
vn 0.0000 -1.0000 0.0000
vn 0.0000 -1.0000 0.0000
vn 0.0000 -1.0000 0.0000
vn 0.0000 -1.0000 0.0000
vn 0.0000 -1.0000 0.0000
vn 0.0000 -1.0000 0.0000
vn 0.0000 -1.0000 0.0000
vn 0.0000 -1.0000 0.0000
vn 0.9010 -0.0000 -0.4339
vn 0.9010 -0.0000 -0.4339
vn 0.9749 -0.0000 -0.2225
vn 0.9749 -0.0000 -0.2225
vn 1.0000 -0.0000 0.0000
vn 1.0000 -0.0000 0.0000
vn 0.8467 -0.0000 -0.5320
vn 0.2225 0.0000 0.9749
vn 0.4339 -0.0000 0.9010
vn 0.2225 -0.0000 0.9749
vn 0.6235 -0.0000 0.7818
vn 0.4339 -0.0000 0.9010
vn 0.9749 0.0000 0.2225
vn 0.9749 -0.0000 0.2225
vn 0.9010 0.0000 0.4339
vn 0.9010 0.0000 0.4339
vn 0.7818 0.0000 0.6235
vn 0.6235 0.0000 0.7818
vn 0.7818 0.0000 0.6235
vn 0.8467 0.0000 0.5320
vn 0.5320 -0.0000 0.8467
vn 0.0000 1.0000 0.0000
vn 0.0000 1.0000 0.0000
vn 0.0000 1.0000 0.0000
vn 0.0000 1.0000 0.0000
vn 0.0000 1.0000 0.0000
vn 0.0000 1.0000 0.0000
vn 0.0000 1.0000 0.0000
vn 0.0000 1.0000 0.0000
vn 0.0000 1.0000 0.0000
vn 0.0000 1.0000 0.0000
vn 0.0000 1.0000 0.0000
vn 0.0000 1.0000 0.0000
vn 0.0000 1.0000 0.0000
vn 0.0000 1.0000 0.0000
vn 0.0000 1.0000 0.0000
vn 0.0000 1.0000 0.0000
vn 0.0000 1.0000 0.0000
vn 0.0000 1.0000 0.0000
vn 0.0000 1.0000 0.0000
vn 0.0000 1.0000 0.0000
vn 0.0000 1.0000 0.0000
vn 0.0000 1.0000 0.0000
vn 0.0000 1.0000 0.0000
vn 0.0000 1.0000 0.0000
vn 0.0000 1.0000 0.0000
vn 0.0000 1.0000 0.0000
vn 0.0000 1.0000 0.0000
vn 0.0000 1.0000 0.0000
vn 0.0000 1.0000 0.0000
vn 0.0000 1.0000 0.0000
vn 0.0000 1.0000 0.0000
vn 0.0000 1.0000 0.0000
vn 0.0000 1.0000 0.0000
vn 0.0000 -1.0000 0.0000
vn 0.0000 -1.0000 0.0000
vn 0.0000 -1.0000 0.0000
vn 0.0000 -1.0000 0.0000
vn 0.0000 -1.0000 0.0000
vn 0.0000 -1.0000 0.0000
vn -0.8660 0.0000 -0.5000
vn -0.9659 -0.0000 -0.2588
vn -0.8660 -0.0000 -0.5000
vn -1.0000 -0.0000 -0.0000
vn -1.0000 0.0000 0.0000
vn 0.0000 1.0000 0.0000
vn 0.0000 1.0000 0.0000
vn 0.0000 1.0000 0.0000
vn -0.5000 -0.0000 -0.8660
vn -0.0000 -0.0000 -1.0000
vn -0.2588 -0.0000 -0.9659
vn -0.0000 0.0000 -1.0000
vn -0.5000 0.0000 -0.8660
vn 0.0000 1.0000 0.0000
vn 0.0000 1.0000 0.0000
vn 0.0000 1.0000 0.0000
vn -0.8660 0.0000 0.5000
vn -0.8660 0.0000 0.5000
vn -0.5000 0.0000 0.8660
vn -0.5000 0.0000 0.8660
vn 0.0000 0.0000 1.0000
vn 0.0000 1.0000 0.0000
vn 0.0000 0.0000 1.0000
vn 0.5000 0.0000 -0.8660
vn 0.5000 0.0000 -0.8660
vn 0.8660 0.0000 -0.5000
vn 0.8660 0.0000 -0.5000
vn 0.0000 1.0000 0.0000
vn 0.0000 1.0000 0.0000
vn 0.0000 1.0000 0.0000
vn 1.0000 0.0000 0.0000
vn 1.0000 0.0000 0.0000
vn 0.0000 1.0000 0.0000
vn 0.0000 1.0000 0.0000
vn 0.5000 0.0000 0.8660
vn 0.5000 0.0000 0.8660
vn 0.8660 0.0000 0.5000
vn 0.8660 0.0000 0.5000
vn 0.0000 -1.0000 0.0000
vn 0.0000 -1.0000 0.0000
vn 0.0000 -1.0000 0.0000
vn 0.0000 -1.0000 0.0000
vn 0.0000 -1.0000 0.0000
vn 0.0000 -1.0000 0.0000
vn -0.8660 0.0000 -0.5000
vn -0.8660 0.0000 -0.5000
vn -1.0000 0.0000 -0.0000
vn -1.0000 0.0000 0.0000
vn 0.0000 0.0000 -1.0000
vn -0.0000 0.0000 -1.0000
vn -0.5000 0.0000 -0.8660
vn -0.5000 0.0000 -0.8660
vn 0.0000 1.0000 0.0000
vn 0.0000 1.0000 0.0000
vn 0.0000 1.0000 0.0000
vn 0.0000 1.0000 0.0000
vn 0.0000 1.0000 0.0000
vn -0.9659 0.0000 0.2588
vn -0.8660 0.0000 0.5000
vn -0.8660 0.0000 0.5000
vn 0.0000 1.0000 0.0000
vn -0.5000 0.0000 0.8660
vn -0.2588 0.0000 0.9659
vn -0.5000 0.0000 0.8660
vn 0.0000 0.0000 1.0000
vn 0.0000 1.0000 0.0000
vn -0.0000 0.0000 1.0000
vn 0.5000 0.0000 -0.8660
vn 0.5000 0.0000 -0.8660
vn 0.8660 0.0000 -0.5000
vn 0.8660 0.0000 -0.5000
vn 0.0000 1.0000 0.0000
vn 0.0000 1.0000 0.0000
vn 0.0000 1.0000 0.0000
vn 1.0000 0.0000 0.0000
vn 1.0000 0.0000 0.0000
vn 0.5000 0.0000 0.8660
vn 0.5000 0.0000 0.8660
vn 0.8660 0.0000 0.5000
vn 0.8660 0.0000 0.5000
vn 0.0000 1.0000 0.0000
vn 0.0000 1.0000 0.0000
vn -0.8660 0.0000 -0.5000
vn -0.8660 0.0000 -0.5000
vn -1.0000 0.0000 0.0000
vn -1.0000 0.0000 -0.0000
vn 0.0000 1.0000 0.0000
vn 0.0000 1.0000 0.0000
vn 0.0000 1.0000 0.0000
vn 0.0000 0.0000 -1.0000
vn -0.0000 0.0000 -1.0000
vn -0.5000 0.0000 -0.8660
vn -0.5000 0.0000 -0.8660
vn 0.0000 1.0000 0.0000
vn 0.0000 1.0000 0.0000
vn 0.0000 1.0000 0.0000
vn -0.8660 0.0000 0.5000
vn -0.8660 0.0000 0.5000
vn -0.5000 0.0000 0.8660
vn -0.5000 0.0000 0.8660
vn 0.0000 0.0000 1.0000
vn 0.0000 1.0000 0.0000
vn 0.0000 0.0000 1.0000
vn 0.0000 -1.0000 0.0000
vn 0.0000 -1.0000 0.0000
vn 0.0000 -1.0000 0.0000
vn 0.0000 -1.0000 0.0000
vn 0.0000 -1.0000 0.0000
vn 0.0000 -1.0000 0.0000
vn 0.5000 0.0000 -0.8660
vn 0.2588 0.0000 -0.9659
vn 0.5000 0.0000 -0.8660
vn 0.8660 0.0000 -0.5000
vn 0.8660 0.0000 -0.5000
vn 0.0000 1.0000 0.0000
vn 0.0000 1.0000 0.0000
vn 0.0000 1.0000 0.0000
vn 1.0000 0.0000 -0.0000
vn 0.9659 0.0000 -0.2588
vn 1.0000 0.0000 0.0000
vn 0.0000 1.0000 0.0000
vn 0.0000 1.0000 0.0000
vn 0.5000 0.0000 0.8660
vn 0.5000 0.0000 0.8660
vn 0.8660 0.0000 0.5000
vn 0.8660 0.0000 0.5000
vn -0.8660 0.0000 -0.5000
vn -0.8660 0.0000 -0.5000
vn -1.0000 0.0000 0.0000
vn -1.0000 0.0000 -0.0000
vn 0.0000 0.0000 -1.0000
vn -0.0000 0.0000 -1.0000
vn -0.5000 0.0000 -0.8660
vn -0.5000 0.0000 -0.8660
vn 0.0000 1.0000 0.0000
vn 0.0000 1.0000 0.0000
vn 0.0000 1.0000 0.0000
vn 0.0000 1.0000 0.0000
vn 0.0000 1.0000 0.0000
vn -0.8660 0.0000 0.5000
vn -0.8660 0.0000 0.5000
vn 0.0000 1.0000 0.0000
vn -0.5000 0.0000 0.8660
vn -0.5000 0.0000 0.8660
vn 0.0000 0.0000 1.0000
vn 0.0000 1.0000 0.0000
vn 0.0000 0.0000 1.0000
vn 0.0000 -1.0000 0.0000
vn 0.0000 -1.0000 0.0000
vn 0.0000 -1.0000 0.0000
vn 0.0000 -1.0000 0.0000
vn 0.0000 -1.0000 0.0000
vn 0.0000 -1.0000 0.0000
vn 0.5000 0.0000 -0.8660
vn 0.5000 0.0000 -0.8660
vn 0.8660 0.0000 -0.5000
vn 0.8660 0.0000 -0.5000
vn 0.0000 1.0000 0.0000
vn 0.0000 1.0000 0.0000
vn 0.0000 1.0000 0.0000
vn 1.0000 0.0000 0.0000
vn 1.0000 -0.0000 0.0000
vn 0.5000 0.0000 0.8660
vn 0.8660 0.0000 0.5000
vn 0.5000 0.0000 0.8660
vn 0.2588 0.0000 0.9659
vn 0.8660 -0.0000 0.5000
vn 0.0000 1.0000 0.0000
vn 0.9659 -0.0000 0.2588
vn 0.0000 1.0000 0.0000
f 1//1 2//2 3//3
f 3//3 4//4 5//5
f 6//6 7//7 8//8
f 9//9 8//8 10//10
f 11//11 12//12 1//1
f 13//13 14//14 11//11
f 15//15 10//10 16//16
f 17//17 16//16 18//18
f 1//1 19//19 2//2
f 5//5 4//4 20//20
f 5//5 20//20 21//21
f 3//3 2//2 4//4
f 11//11 14//14 12//12
f 1//1 12//12 19//19
f 13//13 22//22 14//14
f 5//5 21//21 23//23
f 23//23 24//24 25//25
f 25//25 26//26 27//27
f 28//28 18//18 29//29
f 30//30 29//29 31//31
f 23//23 21//21 24//24
f 25//25 24//24 26//26
f 6//6 32//32 7//7
f 9//9 6//6 8//8
f 15//15 9//9 10//10
f 33//33 22//22 13//13
f 34//34 35//35 33//33
f 36//36 37//37 34//34
f 15//15 16//16 17//17
f 36//36 38//38 39//39
f 38//38 40//40 41//41
f 33//33 35//35 22//22
f 34//34 37//37 35//35
f 36//36 42//42 37//37
f 36//36 39//39 42//42
f 38//38 41//41 39//39
f 40//40 43//43 41//41
f 17//17 18//18 28//28
f 28//28 29//29 30//30
f 30//30 31//31 44//44
f 40//40 45//45 46//46
f 45//45 47//47 48//48
f 40//40 46//46 43//43
f 45//45 48//48 46//46
f 48//48 47//47 49//49
f 50//50 51//51 52//52
f 53//53 54//54 55//55
f 56//56 50//50 57//57
f 58//58 51//51 50//50
f 51//51 59//59 60//60
f 60//60 61//61 62//62
f 62//62 63//63 64//64
f 53//53 55//55 65//65
f 53//53 65//65 66//66
f 66//66 65//65 67//67
f 66//66 68//68 69//69
f 66//66 67//67 68//68
f 64//64 70//70 71//71
f 71//71 70//70 72//72
f 69//69 68//68 73//73
f 72//72 73//73 68//68
f 56//56 57//57 74//74
f 58//58 50//50 56//56
f 58//58 59//59 51//51
f 58//58 75//75 59//59
f 60//60 59//59 61//61
f 62//62 61//61 63//63
f 58//58 76//76 75//75
f 77//77 78//78 79//79
f 64//64 63//63 70//70
f 72//72 70//70 80//80
f 72//72 80//80 73//73
f 81//81 69//69 73//73
f 81//81 82//82 69//69
f 77//77 81//81 78//78
f 81//81 83//83 78//78
f 81//81 84//84 83//83
f 81//81 73//73 84//84
f 27//27 85//85 86//86
f 86//86 87//87 88//88
f 44//44 31//31 89//89
f 90//90 89//89 91//91
f 92//92 91//91 93//93
f 27//27 26//26 85//85
f 86//86 85//85 87//87
f 88//88 87//87 94//94
f 88//88 95//95 96//96
f 96//96 97//97 98//98
f 99//99 93//93 100//100
f 101//101 100//100 102//102
f 103//103 102//102 104//104
f 105//105 104//104 106//106
f 107//107 98//98 108//108
f 109//109 107//107 110//110
f 111//111 109//109 112//112
f 88//88 94//94 95//95
f 96//96 95//95 97//97
f 98//98 97//97 113//113
f 98//98 113//113 108//108
f 107//107 108//108 110//110
f 109//109 110//110 112//112
f 44//44 89//89 90//90
f 90//90 91//91 92//92
f 47//47 114//114 49//49
f 114//114 115//115 116//116
f 115//115 117//117 118//118
f 114//114 116//116 49//49
f 115//115 118//118 116//116
f 92//92 93//93 99//99
f 99//99 100//100 101//101
f 101//101 102//102 103//103
f 103//103 104//104 105//105
f 119//119 111//111 120//120
f 121//121 119//119 122//122
f 117//117 123//123 124//124
f 123//123 121//121 125//125
f 120//120 111//111 112//112
f 121//121 122//122 126//126
f 119//119 120//120 122//122
f 123//123 125//125 124//124
f 117//117 127//127 118//118
f 117//117 124//124 127//127
f 121//121 126//126 125//125
f 128//128 129//129 130//130
f 128//128 130//130 131//131
f 128//128 131//131 132//132
f 128//128 132//132 133//133
f 82//82 128//128 69//69
f 82//82 129//129 128//128
f 129//129 134//134 135//135
f 135//135 134//134 136//136
f 136//136 137//137 138//138
f 133//133 132//132 139//139
f 140//140 141//141 142//142
f 138//138 143//143 144//144
f 144//144 145//145 146//146
f 140//140 142//142 146//146
f 140//140 146//146 147//147
f 148//148 149//149 140//140
f 150//150 151//151 149//149
f 134//134 129//129 152//152
f 82//82 152//152 129//129
f 153//153 136//136 134//134
f 137//137 136//136 153//153
f 154//154 155//155 152//152
f 82//82 154//154 152//152
f 154//154 156//156 155//155
f 154//154 157//157 156//156
f 157//157 158//158 156//156
f 143//143 138//138 137//137
f 145//145 144//144 143//143
f 146//146 145//145 147//147
f 148//148 140//140 147//147
f 148//148 150//150 149//149
f 157//157 159//159 158//158
f 148//148 147//147 160//160
f 161//161 162//162 163//163
f 164//164 165//165 166//166
f 161//161 166//166 162//162
f 161//161 164//164 166//166
f 167//167 168//168 169//169
f 169//169 168//168 170//170
f 169//169 170//170 171//171
f 172//172 173//173 174//174
f 175//175 176//176 177//177
f 176//176 178//178 177//177
f 167//167 179//179 175//175
f 175//175 179//179 176//176
f 167//167 169//169 179//179
f 172//172 174//174 180//180
f 180//180 181//181 182//182
f 171//171 170//170 183//183
f 171//171 183//183 184//184
f 184//184 183//183 185//185
f 186//186 185//185 187//187
f 184//184 185//185 186//186
f 180//180 174//174 181//181
f 182//182 181//181 188//188
f 186//186 187//187 189//189
f 190//190 191//191 178//178
f 192//192 193//193 191//191
f 176//176 190//190 178//178
f 182//182 188//188 194//194
f 190//190 192//192 191//191
f 194//194 195//195 196//196
f 197//197 198//198 193//193
f 192//192 197//197 193//193
f 196//196 199//199 200//200
f 201//201 202//202 203//203
f 189//189 187//187 202//202
f 188//188 195//195 194//194
f 201//201 203//203 204//204
f 196//196 195//195 199//199
f 189//189 202//202 201//201
f 204//204 203//203 198//198
f 197//197 204//204 198//198
f 205//205 206//206 207//207
f 205//205 207//207 208//208
f 208//208 207//207 209//209
f 208//208 209//209 210//210
f 211//211 212//212 213//213
f 211//211 213//213 214//214
f 215//215 216//216 217//217
f 218//218 217//217 212//212
f 218//218 215//215 217//217
f 211//211 218//218 212//212
f 219//219 220//220 221//221
f 221//221 222//222 223//223
f 214//214 213//213 224//224
f 225//225 214//214 224//224
f 225//225 226//226 214//214
f 219//219 227//227 220//220
f 225//225 228//228 226//226
f 228//228 229//229 230//230
f 230//230 229//229 231//231
f 228//228 230//230 226//226
f 221//221 220//220 222//222
f 223//223 222//222 232//232
f 230//230 231//231 233//233
f 234//234 235//235 216//216
f 236//236 237//237 235//235
f 215//215 234//234 216//216
f 223//223 232//232 238//238
f 234//234 236//236 235//235
f 238//238 239//239 240//240
f 241//241 242//242 237//237
f 236//236 241//241 237//237
f 243//243 244//244 245//245
f 233//233 231//231 244//244
f 232//232 239//239 238//238
f 243//243 245//245 246//246
f 240//240 239//239 247//247
f 233//233 244//244 243//243
f 246//246 245//245 242//242
f 246//246 242//242 241//241
f 240//240 247//247 248//248
f 249//249 250//250 251//251
f 249//249 251//251 252//252
f 253//253 254//254 255//255
f 256//256 257//257 258//258
f 259//259 258//258 250//250
f 259//259 256//256 258//258
f 249//249 259//259 250//250
f 253//253 255//255 260//260
f 260//260 261//261 262//262
f 252//252 251//251 263//263
f 252//252 263//263 264//264
f 264//264 263//263 265//265
f 266//266 265//265 267//267
f 264//264 265//265 266//266
f 260//260 255//255 261//261
f 261//261 268//268 262//262
f 266//266 267//267 269//269
f 270//270 271//271 272//272
f 270//270 273//273 271//271
f 270//270 274//274 273//273
f 274//274 275//275 273//273
f 276//276 277//277 257//257
f 278//278 277//277 276//276
f 278//278 279//279 280//280
f 256//256 276//276 257//257
f 262//262 268//268 281//281
f 278//278 276//276 279//279
f 281//281 282//282 283//283
f 280//280 284//284 285//285
f 284//284 286//286 285//285
f 280//280 279//279 284//284
f 283//283 287//287 288//288
f 289//289 290//290 291//291
f 269//269 267//267 290//290
f 281//281 268//268 282//282
f 289//289 291//291 292//292
f 283//283 282//282 287//287
f 269//269 290//290 289//289
f 292//292 291//291 286//286
f 284//284 292//292 286//286
f 293//293 294//294 295//295
f 293//293 295//295 296//296
f 297//297 298//298 299//299
f 300//300 299//299 294//294
f 300//300 297//297 299//299
f 293//293 300//300 294//294
f 301//301 302//302 303//303
f 303//303 304//304 305//305
f 296//296 295//295 306//306
f 296//296 306//306 307//307
f 301//301 308//308 302//302
f 307//307 306//306 309//309
f 310//310 309//309 311//311
f 307//307 309//309 310//310
f 303//303 302//302 304//304
f 304//304 312//312 305//305
f 310//310 311//311 313//313
f 314//314 315//315 316//316
f 316//316 315//315 317//317
f 314//314 318//318 315//315
f 316//316 317//317 319//319
f 320//320 321//321 298//298
f 322//322 323//323 321//321
f 297//297 320//320 298//298
f 305//305 312//312 324//324
f 320//320 322//322 321//321
f 324//324 325//325 326//326
f 327//327 328//328 323//323
f 322//322 327//327 323//323
f 329//329 330//330 331//331
f 313//313 311//311 332//332
f 329//329 313//313 332//332
f 324//324 312//312 325//325
f 330//330 333//333 331//331
f 326//326 325//325 334//334
f 329//329 331//331 313//313
f 333//333 335//335 328//328
f 330//330 335//335 333//333
f 327//327 333//333 328//328
f 326//326 334//334 336//336
