v -0.15338 0.04900 0.19233
v -0.15338 -0.04900 0.19233
v -0.10674 -0.04900 0.22164
v -0.19233 0.04900 0.15338
v -0.19233 -0.04900 0.15338
v -0.22164 -0.04900 -0.10674
v -0.22164 -0.04900 0.10674
v -0.23983 -0.04900 0.05474
v -0.19233 -0.04900 -0.15338
v -0.19233 -0.04900 0.15338
v -0.15338 -0.04900 -0.19233
v -0.15338 -0.04900 0.19233
v -0.23983 0.04900 0.05474
v -0.23983 -0.04900 0.05474
v -0.22164 -0.04900 0.10674
v -0.22164 0.04900 0.10674
v -0.24600 0.04900 0.00000
v -0.24600 -0.04900 0.00000
v -0.10674 0.04900 0.22164
v -0.05474 -0.04900 0.23983
v -0.05474 0.04900 0.23983
v 0.00000 -0.04900 0.24600
v -0.10674 -0.04900 -0.22164
v -0.10674 -0.04900 0.22164
v -0.05474 -0.04900 -0.23983
v -0.05474 -0.04900 0.23983
v 0.00000 -0.04900 -0.24600
v 0.00000 -0.04900 0.24600
v -0.22164 0.04900 -0.10674
v -0.23983 0.04900 0.05474
v -0.22164 0.04900 0.10674
v -0.19233 0.04900 -0.15338
v -0.19233 0.04900 0.15338
v -0.15338 0.04900 -0.19233
v -0.15338 0.04900 0.19233
v 0.00000 0.04900 0.24600
v -0.10674 0.04900 -0.22164
v -0.10674 0.04900 0.22164
v -0.05474 0.04900 -0.23983
v -0.05474 0.04900 0.23983
v 0.00000 0.04900 -0.24600
v 0.00000 0.04900 0.24600
v -0.23983 -0.04900 -0.05474
v -0.24600 -0.04900 0.00000
v -0.23983 0.04900 -0.05474
v -0.23983 -0.04900 -0.05474
v -0.22164 0.04900 -0.10674
v -0.22164 -0.04900 -0.10674
v -0.19233 0.04900 -0.15338
v -0.19233 -0.04900 -0.15338
v -0.15338 0.04900 -0.19233
v -0.15338 -0.04900 -0.19233
v -0.10674 0.04900 -0.22164
v -0.10674 -0.04900 -0.22164
v -0.05474 0.04900 -0.23983
v -0.05474 -0.04900 -0.23983
v 0.00000 0.04900 -0.24600
v 0.00000 -0.04900 -0.24600
v -0.23983 0.04900 -0.05474
v -0.24600 0.04900 0.00000
v 0.05474 -0.04900 0.23983
v 0.05474 0.04900 0.23983
v 0.10674 -0.04900 0.22164
v 0.10674 0.04900 0.22164
v 0.15338 -0.04900 0.19233
v 0.05474 -0.04900 -0.23983
v 0.05474 -0.04900 0.23983
v 0.10674 -0.04900 -0.22164
v 0.10674 -0.04900 0.22164
v 0.15338 0.04900 0.19233
v 0.19233 -0.04900 0.15338
v 0.19233 0.04900 0.15338
v 0.22164 -0.04900 0.10674
v 0.15338 -0.04900 -0.19233
v 0.15338 -0.04900 0.19233
v 0.19233 -0.04900 -0.15338
v 0.19233 -0.04900 0.15338
v 0.22164 -0.04900 -0.10674
v 0.22164 -0.04900 0.10674
v 0.23983 -0.04900 -0.05474
v 0.23983 -0.04900 0.05474
v 0.22164 0.04900 0.10674
v 0.23983 -0.04900 0.05474
v 0.23983 0.04900 0.05474
v 0.24600 -0.04900 0.00000
v 0.05474 0.04900 -0.23983
v 0.05474 0.04900 0.23983
v 0.10674 0.04900 -0.22164
v 0.10674 0.04900 0.22164
v 0.24600 0.04900 0.00000
v 0.15338 0.04900 -0.19233
v 0.15338 0.04900 0.19233
v 0.19233 0.04900 -0.15338
v 0.19233 0.04900 0.15338
v 0.22164 0.04900 -0.10674
v 0.22164 0.04900 0.10674
v 0.23983 0.04900 -0.05474
v 0.23983 0.04900 0.05474
v 0.05474 0.04900 -0.23983
v 0.05474 -0.04900 -0.23983
v 0.10674 0.04900 -0.22164
v 0.10674 -0.04900 -0.22164
v 0.24600 -0.04900 0.00000
v 0.23983 -0.04900 -0.05474
v 0.22164 0.04900 -0.10674
v 0.22164 -0.04900 -0.10674
v 0.19233 -0.04900 -0.15338
v 0.23983 0.04900 -0.05474
v 0.19233 0.04900 -0.15338
v 0.15338 -0.04900 -0.19233
v 0.15338 0.04900 -0.19233
v 0.24600 0.04900 0.00000
vn -0.6235 0.0000 0.7818
vn -0.6235 -0.0000 0.7818
vn -0.4339 0.0000 0.9010
vn -0.7818 -0.0000 0.6235
vn -0.7818 -0.0000 0.6235
vn 0.0000 -1.0000 0.0000
vn 0.0000 -1.0000 0.0000
vn 0.0000 -1.0000 0.0000
vn 0.0000 -1.0000 0.0000
vn 0.0000 -1.0000 0.0000
vn 0.0000 -1.0000 0.0000
vn 0.0000 -1.0000 0.0000
vn -0.9749 0.0000 0.2225
vn -0.9749 0.0000 0.2225
vn -0.9010 0.0000 0.4339
vn -0.9010 -0.0000 0.4339
vn -1.0000 0.0000 0.0000
vn -1.0000 0.0000 -0.0000
vn -0.4339 0.0000 0.9010
vn -0.2225 0.0000 0.9749
vn -0.2225 0.0000 0.9749
vn 0.0000 0.0000 1.0000
vn 0.0000 -1.0000 0.0000
vn 0.0000 -1.0000 0.0000
vn 0.0000 -1.0000 0.0000
vn 0.0000 -1.0000 0.0000
vn 0.0000 -1.0000 0.0000
vn 0.0000 -1.0000 0.0000
vn 0.0000 1.0000 0.0000
vn 0.0000 1.0000 0.0000
vn 0.0000 1.0000 0.0000
vn 0.0000 1.0000 0.0000
vn 0.0000 1.0000 0.0000
vn 0.0000 1.0000 0.0000
vn 0.0000 1.0000 0.0000
vn 0.0000 0.0000 1.0000
vn 0.0000 1.0000 0.0000
vn 0.0000 1.0000 0.0000
vn 0.0000 1.0000 0.0000
vn 0.0000 1.0000 0.0000
vn 0.0000 1.0000 0.0000
vn 0.0000 1.0000 0.0000
vn 0.0000 -1.0000 0.0000
vn 0.0000 -1.0000 0.0000
vn -0.9749 0.0000 -0.2225
vn -0.9749 0.0000 -0.2225
vn -0.9010 0.0000 -0.4339
vn -0.9010 0.0000 -0.4339
vn -0.7818 0.0000 -0.6235
vn -0.7818 0.0000 -0.6235
vn -0.6235 0.0000 -0.7818
vn -0.6235 0.0000 -0.7818
vn -0.4339 0.0000 -0.9010
vn -0.4339 0.0000 -0.9010
vn -0.2225 0.0000 -0.9749
vn -0.2225 -0.0000 -0.9749
vn -0.0000 -0.0000 -1.0000
vn 0.0000 0.0000 -1.0000
vn 0.0000 1.0000 0.0000
vn 0.0000 1.0000 0.0000
vn 0.2225 0.0000 0.9749
vn 0.2225 -0.0000 0.9749
vn 0.4339 -0.0000 0.9010
vn 0.4339 0.0000 0.9010
vn 0.6235 0.0000 0.7818
vn 0.0000 -1.0000 0.0000
vn 0.0000 -1.0000 0.0000
vn 0.0000 -1.0000 0.0000
vn 0.0000 -1.0000 0.0000
vn 0.6235 0.0000 0.7818
vn 0.7818 0.0000 0.6235
vn 0.7818 0.0000 0.6235
vn 0.9010 0.0000 0.4339
vn 0.0000 -1.0000 0.0000
vn 0.0000 -1.0000 0.0000
vn 0.0000 -1.0000 0.0000
vn 0.0000 -1.0000 0.0000
vn 0.0000 -1.0000 0.0000
vn 0.0000 -1.0000 0.0000
vn 0.0000 -1.0000 0.0000
vn 0.0000 -1.0000 0.0000
vn 0.9010 0.0000 0.4339
vn 0.9749 0.0000 0.2225
vn 0.9749 0.0000 0.2225
vn 1.0000 0.0000 -0.0000
vn 0.0000 1.0000 0.0000
vn 0.0000 1.0000 0.0000
vn 0.0000 1.0000 0.0000
vn 0.0000 1.0000 0.0000
vn 1.0000 -0.0000 -0.0000
vn 0.0000 1.0000 0.0000
vn 0.0000 1.0000 0.0000
vn 0.0000 1.0000 0.0000
vn 0.0000 1.0000 0.0000
vn 0.0000 1.0000 0.0000
vn 0.0000 1.0000 0.0000
vn 0.0000 1.0000 0.0000
vn 0.0000 1.0000 0.0000
vn 0.2225 0.0000 -0.9749
vn 0.2225 0.0000 -0.9749
vn 0.4339 0.0000 -0.9010
vn 0.4339 0.0000 -0.9010
vn 0.0000 -1.0000 0.0000
vn 0.9749 -0.0000 -0.2225
vn 0.9010 -0.0000 -0.4339
vn 0.9010 -0.0000 -0.4339
vn 0.7818 -0.0000 -0.6235
vn 0.9749 -0.0000 -0.2225
vn 0.7818 0.0000 -0.6235
vn 0.6235 0.0000 -0.7818
vn 0.6235 0.0000 -0.7818
vn 0.0000 1.0000 0.0000
f 1//1 2//2 3//3
f 4//4 5//5 2//2
f 6//6 7//7 8//8
f 9//9 10//10 7//7
f 11//11 12//12 10//10
f 13//13 14//14 15//15
f 16//16 15//15 5//5
f 17//17 18//18 14//14
f 19//19 3//3 20//20
f 21//21 20//20 22//22
f 23//23 24//24 12//12
f 25//25 26//26 24//24
f 27//27 28//28 26//26
f 4//4 16//16 5//5
f 1//1 4//4 2//2
f 16//16 13//13 15//15
f 13//13 17//17 14//14
f 29//29 30//30 31//31
f 32//32 31//31 33//33
f 34//34 33//33 35//35
f 19//19 1//1 3//3
f 21//21 19//19 20//20
f 36//36 21//21 22//22
f 37//37 35//35 38//38
f 39//39 38//38 40//40
f 41//41 40//40 42//42
f 43//43 8//8 44//44
f 6//6 8//8 43//43
f 9//9 7//7 6//6
f 11//11 10//10 9//9
f 23//23 12//12 11//11
f 45//45 46//46 18//18
f 47//47 48//48 46//46
f 49//49 50//50 48//48
f 51//51 52//52 50//50
f 25//25 24//24 23//23
f 27//27 26//26 25//25
f 53//53 54//54 52//52
f 55//55 56//56 54//54
f 57//57 58//58 56//56
f 17//17 45//45 18//18
f 45//45 47//47 46//46
f 47//47 49//49 48//48
f 59//59 60//60 30//30
f 29//29 59//59 30//30
f 32//32 29//29 31//31
f 34//34 32//32 33//33
f 37//37 34//34 35//35
f 49//49 51//51 50//50
f 51//51 53//53 52//52
f 39//39 37//37 38//38
f 41//41 39//39 40//40
f 53//53 55//55 54//54
f 55//55 57//57 56//56
f 36//36 22//22 61//61
f 62//62 61//61 63//63
f 64//64 63//63 65//65
f 66//66 67//67 28//28
f 68//68 69//69 67//67
f 70//70 65//65 71//71
f 72//72 71//71 73//73
f 74//74 75//75 69//69
f 76//76 77//77 75//75
f 78//78 79//79 77//77
f 80//80 81//81 79//79
f 82//82 73//73 83//83
f 84//84 83//83 85//85
f 62//62 36//36 61//61
f 64//64 62//62 63//63
f 86//86 42//42 87//87
f 88//88 87//87 89//89
f 70//70 64//64 65//65
f 72//72 70//70 71//71
f 82//82 72//72 73//73
f 84//84 82//82 83//83
f 90//90 84//84 85//85
f 91//91 89//89 92//92
f 93//93 92//92 94//94
f 95//95 94//94 96//96
f 97//97 96//96 98//98
f 66//66 28//28 27//27
f 68//68 67//67 66//66
f 74//74 69//69 68//68
f 99//99 100//100 58//58
f 101//101 102//102 100//100
f 76//76 75//75 74//74
f 78//78 77//77 76//76
f 80//80 79//79 78//78
f 103//103 81//81 80//80
f 90//90 85//85 104//104
f 105//105 106//106 107//107
f 108//108 104//104 106//106
f 109//109 107//107 110//110
f 111//111 110//110 102//102
f 86//86 41//41 42//42
f 88//88 86//86 87//87
f 91//91 88//88 89//89
f 57//57 99//99 58//58
f 99//99 101//101 100//100
f 101//101 111//111 102//102
f 108//108 90//90 104//104
f 105//105 108//108 106//106
f 93//93 91//91 92//92
f 95//95 93//93 94//94
f 97//97 95//95 96//96
f 112//112 97//97 98//98
f 111//111 109//109 110//110
f 109//109 105//105 107//107
