v -0.23983 -0.14900 0.05474
v -0.23983 -0.14900 -0.05474
v -0.22164 -0.14900 -0.10674
v -0.22164 -0.14900 0.10674
v -0.19233 -0.14900 -0.15338
v -0.19233 -0.14900 0.15338
v -0.15338 -0.14900 -0.19233
v -0.15338 -0.14900 0.19233
v -0.10674 -0.14900 -0.22164
v -0.22164 -0.14900 -0.10674
v -0.19233 0.14900 -0.15338
v -0.19233 -0.14900 -0.15338
v -0.15338 0.14900 -0.19233
v -0.15338 -0.14900 -0.19233
v -0.23983 -0.14900 -0.05474
v -0.22164 0.14900 -0.10674
v -0.24600 -0.14900 0.00000
v -0.23983 0.14900 -0.05474
v -0.10674 -0.14900 0.22164
v -0.05474 -0.14900 -0.23983
v -0.05474 -0.14900 0.23983
v 0.00000 -0.14900 -0.24600
v -0.10674 0.14900 -0.22164
v -0.10674 -0.14900 -0.22164
v -0.05474 0.14900 -0.23983
v -0.05474 -0.14900 -0.23983
v 0.00000 0.14900 -0.24600
v 0.00000 -0.14900 -0.24600
v -0.24600 -0.14900 0.00000
v -0.23983 -0.14900 0.05474
v -0.24600 0.14900 0.00000
v -0.22164 -0.14900 0.10674
v -0.23983 0.14900 0.05474
v -0.19233 -0.14900 0.15338
v -0.22164 0.14900 0.10674
v -0.15338 -0.14900 0.19233
v -0.19233 0.14900 0.15338
v -0.10674 -0.14900 0.22164
v -0.15338 0.14900 0.19233
v 0.00000 -0.14900 0.24600
v -0.05474 -0.14900 0.23983
v -0.10674 0.14900 0.22164
v 0.00000 -0.14900 0.24600
v -0.05474 0.14900 0.23983
v -0.19244 0.14900 -0.15320
v -0.15320 0.14900 -0.19244
v -0.22164 0.14900 -0.10674
v -0.20000 0.14900 -0.12500
v -0.19244 0.14900 -0.15320
v -0.10674 0.14900 -0.22164
v -0.15320 0.14900 -0.19244
v -0.12500 0.14900 -0.20000
v -0.23983 0.14900 0.05474
v -0.23983 0.14900 -0.05474
v -0.22164 0.14900 0.10674
v -0.18995 0.14900 0.08750
v -0.18995 0.14900 -0.08750
v -0.16250 0.14900 0.06005
v -0.16250 0.14900 -0.06005
v -0.12500 0.14900 0.05000
v -0.12500 0.14900 -0.05000
v -0.08750 0.14900 -0.18995
v -0.05474 0.14900 -0.23983
v -0.06005 0.14900 -0.16250
v -0.05000 0.14900 -0.12500
v 0.00000 0.14900 -0.24600
v -0.08750 0.14900 0.06005
v -0.08750 0.14900 -0.06005
v -0.06005 0.14900 -0.08750
v -0.05000 0.14900 0.12500
v -0.19244 0.14900 0.15320
v -0.15320 0.14900 0.19244
v -0.24600 0.14900 0.00000
v -0.20000 0.14900 0.12500
v -0.19244 0.14900 0.15320
v -0.10674 0.14900 0.22164
v -0.12500 0.14900 0.20000
v -0.15320 0.14900 0.19244
v 0.00000 0.14900 0.24600
v -0.06005 0.14900 0.08750
v -0.05474 0.14900 0.23983
v 0.00000 0.14900 0.24600
v -0.08750 0.14900 0.18995
v -0.06005 0.14900 0.16250
v 0.05474 -0.14900 -0.23983
v 0.05474 -0.14900 0.23983
v 0.10674 -0.14900 -0.22164
v 0.10674 -0.14900 0.22164
v 0.15338 -0.14900 -0.19233
v 0.05474 0.14900 -0.23983
v 0.05474 -0.14900 -0.23983
v 0.10674 0.14900 -0.22164
v 0.10674 -0.14900 -0.22164
v 0.15338 -0.14900 0.19233
v 0.19233 -0.14900 -0.15338
v 0.19233 -0.14900 0.15338
v 0.22164 -0.14900 -0.10674
v 0.22164 -0.14900 0.10674
v 0.23983 -0.14900 -0.05474
v 0.23983 -0.14900 0.05474
v 0.24600 -0.14900 0.00000
v 0.15338 0.14900 -0.19233
v 0.15338 -0.14900 -0.19233
v 0.19233 0.14900 -0.15338
v 0.19233 -0.14900 -0.15338
v 0.22164 -0.14900 -0.10674
v 0.22164 0.14900 -0.10674
v 0.23983 -0.14900 -0.05474
v 0.23983 0.14900 -0.05474
v 0.24600 -0.14900 0.00000
v 0.24600 0.14900 0.00000
v 0.05474 -0.14900 0.23983
v 0.10674 -0.14900 0.22164
v 0.05474 0.14900 0.23983
v 0.15338 -0.14900 0.19233
v 0.10674 0.14900 0.22164
v 0.23983 -0.14900 0.05474
v 0.23983 0.14900 0.05474
v 0.22164 -0.14900 0.10674
v 0.22164 0.14900 0.10674
v 0.19233 -0.14900 0.15338
v 0.15338 0.14900 0.19233
v 0.19233 0.14900 0.15338
v 0.15320 0.14900 -0.19244
v 0.05474 0.14900 -0.23983
v 0.05000 0.14900 -0.12500
v 0.06005 0.14900 -0.16250
v 0.08750 0.14900 -0.18995
v 0.12500 0.14900 -0.20000
v 0.10674 0.14900 -0.22164
v 0.06005 0.14900 0.08750
v 0.06005 0.14900 -0.08750
v 0.08750 0.14900 -0.06005
v 0.12500 0.14900 0.05000
v 0.12500 0.14900 -0.05000
v 0.19244 0.14900 -0.15320
v 0.15320 0.14900 -0.19244
v 0.22164 0.14900 -0.10674
v 0.19244 0.14900 -0.15320
v 0.20000 0.14900 -0.12500
v 0.16250 0.14900 0.06005
v 0.16250 0.14900 -0.06005
v 0.18995 0.14900 0.08750
v 0.18995 0.14900 -0.08750
v 0.20000 0.14900 0.12500
v 0.22164 0.14900 0.10674
v 0.23983 0.14900 -0.05474
v 0.23983 0.14900 0.05474
v 0.24600 0.14900 0.00000
v 0.05000 0.14900 0.12500
v 0.08750 0.14900 0.06005
v 0.05474 0.14900 0.23983
v 0.06005 0.14900 0.16250
v 0.08750 0.14900 0.18995
v 0.10674 0.14900 0.22164
v 0.12500 0.14900 0.20000
v 0.19244 0.14900 0.15320
v 0.15320 0.14900 0.19244
v 0.15320 0.14900 0.19244
v 0.19244 0.14900 0.15320
v -0.18995 0.14900 -0.16250
v -0.19233 0.14900 -0.15338
v -0.19244 0.14900 -0.15320
v -0.18995 0.14900 -0.16250
v -0.19244 0.14900 -0.15320
v -0.18995 0.19900 -0.16250
v -0.20000 0.14900 -0.12500
v -0.20000 0.19900 -0.12500
v -0.18995 0.19900 -0.16250
v -0.20000 0.19900 -0.12500
v -0.18995 0.19900 -0.08750
v -0.16250 0.14900 -0.18995
v -0.15320 0.14900 -0.19244
v -0.15338 0.14900 -0.19233
v -0.16250 0.14900 -0.18995
v -0.12500 0.19900 -0.20000
v -0.15320 0.14900 -0.19244
v -0.12500 0.14900 -0.20000
v -0.16250 0.19900 -0.18995
v -0.16250 0.19900 -0.18995
v -0.16250 0.19900 -0.06005
v -0.12500 0.19900 -0.20000
v -0.18995 0.14900 -0.08750
v -0.18995 0.19900 -0.08750
v -0.16250 0.14900 -0.06005
v -0.16250 0.19900 -0.06005
v -0.12500 0.19900 -0.05000
v -0.12500 0.14900 -0.05000
v -0.12500 0.19900 -0.05000
v -0.08750 0.19900 -0.18995
v -0.08750 0.14900 -0.18995
v -0.08750 0.19900 -0.18995
v -0.06005 0.19900 -0.16250
v -0.06005 0.14900 -0.16250
v -0.08750 0.19900 -0.06005
v -0.06005 0.19900 -0.16250
v -0.05000 0.19900 -0.12500
v -0.05000 0.14900 -0.12500
v -0.06005 0.19900 -0.08750
v -0.05000 0.19900 -0.12500
v -0.08750 0.19900 -0.06005
v -0.08750 0.14900 -0.06005
v -0.06005 0.14900 -0.08750
v -0.06005 0.19900 -0.08750
v -0.18995 0.19900 0.08750
v -0.18995 0.14900 0.08750
v -0.20000 0.14900 0.12500
v -0.20000 0.19900 0.12500
v -0.12500 0.19900 0.05000
v -0.12500 0.14900 0.05000
v -0.16250 0.14900 0.06005
v -0.16250 0.19900 0.06005
v -0.18995 0.19900 0.08750
v -0.18995 0.19900 0.16250
v -0.16250 0.19900 0.06005
v -0.16250 0.19900 0.18995
v -0.12500 0.19900 0.05000
v -0.18995 0.14900 0.16250
v -0.19244 0.14900 0.15320
v -0.19233 0.14900 0.15338
v -0.19244 0.14900 0.15320
v -0.18995 0.14900 0.16250
v -0.18995 0.19900 0.16250
v -0.20000 0.19900 0.12500
v -0.16250 0.14900 0.18995
v -0.15338 0.14900 0.19233
v -0.15320 0.14900 0.19244
v -0.16250 0.14900 0.18995
v -0.16250 0.19900 0.18995
v -0.12500 0.19900 0.20000
v -0.15320 0.14900 0.19244
v -0.12500 0.14900 0.20000
v -0.12500 0.19900 0.20000
v -0.08750 0.19900 0.06005
v -0.08750 0.14900 0.06005
v -0.08750 0.19900 0.06005
v -0.06005 0.19900 0.08750
v -0.06005 0.14900 0.08750
v -0.08750 0.19900 0.18995
v -0.06005 0.19900 0.08750
v -0.05000 0.19900 0.12500
v -0.05000 0.14900 0.12500
v -0.08750 0.19900 0.18995
v -0.08750 0.14900 0.18995
v -0.06005 0.14900 0.16250
v -0.06005 0.19900 0.16250
v -0.06005 0.19900 0.16250
v -0.05000 0.19900 0.12500
v 0.06005 0.19900 -0.16250
v 0.06005 0.14900 -0.16250
v 0.05000 0.14900 -0.12500
v 0.05000 0.19900 -0.12500
v 0.06005 0.19900 -0.16250
v 0.05000 0.19900 -0.12500
v 0.06005 0.19900 -0.08750
v 0.12500 0.19900 -0.20000
v 0.12500 0.14900 -0.20000
v 0.08750 0.14900 -0.18995
v 0.08750 0.19900 -0.18995
v 0.08750 0.19900 -0.18995
v 0.08750 0.19900 -0.06005
v 0.12500 0.19900 -0.20000
v 0.06005 0.14900 -0.08750
v 0.06005 0.19900 -0.08750
v 0.08750 0.14900 -0.06005
v 0.08750 0.19900 -0.06005
v 0.12500 0.19900 -0.05000
v 0.12500 0.14900 -0.05000
v 0.12500 0.19900 -0.05000
v 0.16250 0.14900 -0.18995
v 0.15338 0.14900 -0.19233
v 0.15320 0.14900 -0.19244
v 0.19233 0.14900 -0.15338
v 0.18995 0.14900 -0.16250
v 0.16250 0.19900 -0.18995
v 0.15320 0.14900 -0.19244
v 0.16250 0.14900 -0.18995
v 0.16250 0.19900 -0.18995
v 0.18995 0.19900 -0.16250
v 0.18995 0.14900 -0.16250
v 0.16250 0.19900 -0.06005
v 0.18995 0.19900 -0.16250
v 0.19244 0.14900 -0.15320
v 0.20000 0.19900 -0.12500
v 0.19244 0.14900 -0.15320
v 0.20000 0.14900 -0.12500
v 0.18995 0.19900 -0.08750
v 0.20000 0.19900 -0.12500
v 0.16250 0.19900 -0.06005
v 0.16250 0.14900 -0.06005
v 0.18995 0.14900 -0.08750
v 0.18995 0.19900 -0.08750
v 0.06005 0.19900 0.08750
v 0.06005 0.14900 0.08750
v 0.05000 0.14900 0.12500
v 0.05000 0.19900 0.12500
v 0.12500 0.19900 0.05000
v 0.12500 0.14900 0.05000
v 0.08750 0.14900 0.06005
v 0.08750 0.19900 0.06005
v 0.06005 0.19900 0.08750
v 0.06005 0.19900 0.16250
v 0.08750 0.19900 0.06005
v 0.08750 0.19900 0.18995
v 0.12500 0.19900 0.05000
v 0.06005 0.14900 0.16250
v 0.06005 0.19900 0.16250
v 0.05000 0.19900 0.12500
v 0.08750 0.14900 0.18995
v 0.08750 0.19900 0.18995
v 0.12500 0.19900 0.20000
v 0.12500 0.14900 0.20000
v 0.12500 0.19900 0.20000
v 0.16250 0.19900 0.06005
v 0.16250 0.14900 0.06005
v 0.16250 0.19900 0.06005
v 0.18995 0.19900 0.08750
v 0.18995 0.14900 0.08750
v 0.16250 0.19900 0.18995
v 0.18995 0.19900 0.08750
v 0.20000 0.19900 0.12500
v 0.20000 0.14900 0.12500
v 0.16250 0.14900 0.18995
v 0.15338 0.14900 0.19233
v 0.18995 0.14900 0.16250
v 0.19233 0.14900 0.15338
v 0.15320 0.14900 0.19244
v 0.16250 0.14900 0.18995
v 0.18995 0.14900 0.16250
v 0.16250 0.19900 0.18995
v 0.18995 0.19900 0.16250
v 0.18995 0.19900 0.16250
v 0.15320 0.14900 0.19244
v 0.19244 0.14900 0.15320
v 0.19244 0.14900 0.15320
v 0.20000 0.19900 0.12500
vn 0.0000 -1.0000 0.0000
vn 0.0000 -1.0000 0.0000
vn 0.0000 -1.0000 0.0000
vn 0.0000 -1.0000 0.0000
vn 0.0000 -1.0000 0.0000
vn 0.0000 -1.0000 0.0000
vn 0.0000 -1.0000 0.0000
vn 0.0000 -1.0000 0.0000
vn 0.0000 -1.0000 0.0000
vn -0.9010 -0.0000 -0.4339
vn -0.7818 0.0000 -0.6235
vn -0.7818 0.0000 -0.6235
vn -0.6235 0.0000 -0.7818
vn -0.6235 0.0000 -0.7818
vn -0.9749 0.0000 -0.2225
vn -0.9010 0.0000 -0.4339
vn -1.0000 0.0000 0.0000
vn -0.9749 0.0000 -0.2225
vn 0.0000 -1.0000 0.0000
vn 0.0000 -1.0000 0.0000
vn 0.0000 -1.0000 0.0000
vn 0.0000 -1.0000 0.0000
vn -0.4339 0.0000 -0.9010
vn -0.4339 0.0000 -0.9010
vn -0.2225 0.0000 -0.9749
vn -0.2225 0.0000 -0.9749
vn 0.0000 0.0000 -1.0000
vn 0.0000 0.0000 -1.0000
vn 0.0000 -1.0000 0.0000
vn -0.9749 0.0000 0.2225
vn -1.0000 0.0000 -0.0000
vn -0.9010 0.0000 0.4339
vn -0.9749 0.0000 0.2225
vn -0.7818 0.0000 0.6235
vn -0.9010 0.0000 0.4339
vn -0.6235 0.0000 0.7818
vn -0.7818 0.0000 0.6235
vn -0.4339 0.0000 0.9010
vn -0.6235 -0.0000 0.7818
vn 0.0000 -1.0000 0.0000
vn -0.2225 0.0000 0.9749
vn -0.4339 0.0000 0.9010
vn -0.0000 -0.0000 1.0000
vn -0.2225 -0.0000 0.9749
vn -0.8467 0.0000 -0.5320
vn -0.5320 0.0000 -0.8467
vn 0.0000 1.0000 0.0000
vn 0.0000 1.0000 0.0000
vn 0.0000 1.0000 0.0000
vn 0.0000 1.0000 0.0000
vn 0.0000 1.0000 0.0000
vn 0.0000 1.0000 0.0000
vn 0.0000 1.0000 0.0000
vn 0.0000 1.0000 0.0000
vn 0.0000 1.0000 0.0000
vn 0.0000 1.0000 0.0000
vn 0.0000 1.0000 0.0000
vn 0.0000 1.0000 0.0000
vn 0.0000 1.0000 0.0000
vn 0.0000 1.0000 0.0000
vn 0.0000 1.0000 0.0000
vn 0.0000 1.0000 0.0000
vn 0.0000 1.0000 0.0000
vn 0.0000 1.0000 0.0000
vn 0.0000 1.0000 0.0000
vn 0.0000 1.0000 0.0000
vn 0.0000 1.0000 0.0000
vn 0.0000 1.0000 0.0000
vn 0.0000 1.0000 0.0000
vn 0.0000 1.0000 0.0000
vn -0.8467 0.0000 0.5320
vn -0.5320 -0.0000 0.8467
vn 0.0000 1.0000 0.0000
vn 0.0000 1.0000 0.0000
vn 0.0000 1.0000 0.0000
vn 0.0000 1.0000 0.0000
vn 0.0000 1.0000 0.0000
vn 0.0000 1.0000 0.0000
vn -0.0000 0.0000 1.0000
vn 0.0000 1.0000 0.0000
vn 0.0000 1.0000 0.0000
vn 0.0000 1.0000 0.0000
vn 0.0000 1.0000 0.0000
vn 0.0000 1.0000 0.0000
vn 0.0000 -1.0000 0.0000
vn 0.0000 -1.0000 0.0000
vn 0.0000 -1.0000 0.0000
vn 0.0000 -1.0000 0.0000
vn 0.0000 -1.0000 0.0000
vn 0.2225 0.0000 -0.9749
vn 0.2225 0.0000 -0.9749
vn 0.4339 0.0000 -0.9010
vn 0.4339 -0.0000 -0.9010
vn 0.0000 -1.0000 0.0000
vn 0.0000 -1.0000 0.0000
vn 0.0000 -1.0000 0.0000
vn 0.0000 -1.0000 0.0000
vn 0.0000 -1.0000 0.0000
vn 0.0000 -1.0000 0.0000
vn 0.0000 -1.0000 0.0000
vn 0.0000 -1.0000 0.0000
vn 0.6235 -0.0000 -0.7818
vn 0.6235 0.0000 -0.7818
vn 0.7818 0.0000 -0.6235
vn 0.7818 -0.0000 -0.6235
vn 0.9010 0.0000 -0.4339
vn 0.9010 -0.0000 -0.4339
vn 0.9749 0.0000 -0.2225
vn 0.9749 0.0000 -0.2225
vn 1.0000 -0.0000 0.0000
vn 1.0000 0.0000 0.0000
vn 0.2225 0.0000 0.9749
vn 0.4339 0.0000 0.9010
vn 0.2225 0.0000 0.9749
vn 0.6235 -0.0000 0.7818
vn 0.4339 -0.0000 0.9010
vn 0.9749 0.0000 0.2225
vn 0.9749 -0.0000 0.2225
vn 0.9010 0.0000 0.4339
vn 0.9010 0.0000 0.4339
vn 0.7818 0.0000 0.6235
vn 0.6235 0.0000 0.7818
vn 0.7818 0.0000 0.6235
vn 0.5320 -0.0000 -0.8467
vn 0.0000 1.0000 0.0000
vn 0.0000 1.0000 0.0000
vn 0.0000 1.0000 0.0000
vn 0.0000 1.0000 0.0000
vn 0.0000 1.0000 0.0000
vn 0.0000 1.0000 0.0000
vn 0.0000 1.0000 0.0000
vn 0.0000 1.0000 0.0000
vn 0.0000 1.0000 0.0000
vn 0.0000 1.0000 0.0000
vn 0.0000 1.0000 0.0000
vn 0.8467 -0.0000 -0.5320
vn 0.0000 1.0000 0.0000
vn 0.0000 1.0000 0.0000
vn 0.0000 1.0000 0.0000
vn 0.0000 1.0000 0.0000
vn 0.0000 1.0000 0.0000
vn 0.0000 1.0000 0.0000
vn 0.0000 1.0000 0.0000
vn 0.0000 1.0000 0.0000
vn 0.0000 1.0000 0.0000
vn 0.0000 1.0000 0.0000
vn 0.0000 1.0000 0.0000
vn 0.0000 1.0000 0.0000
vn 0.0000 1.0000 0.0000
vn 0.0000 1.0000 0.0000
vn 0.0000 1.0000 0.0000
vn 0.0000 1.0000 0.0000
vn 0.0000 1.0000 0.0000
vn 0.0000 1.0000 0.0000
vn 0.0000 1.0000 0.0000
vn 0.0000 1.0000 0.0000
vn 0.8467 0.0000 0.5320
vn 0.5320 -0.0000 0.8467
vn 0.0000 1.0000 0.0000
vn 0.0000 1.0000 0.0000
vn 0.0000 -1.0000 0.0000
vn 0.0000 -1.0000 0.0000
vn 0.0000 -1.0000 0.0000
vn -0.8660 0.0000 -0.5000
vn -0.9659 -0.0000 -0.2588
vn -0.8660 -0.0000 -0.5000
vn -1.0000 -0.0000 -0.0000
vn -1.0000 0.0000 0.0000
vn 0.0000 1.0000 0.0000
vn 0.0000 1.0000 0.0000
vn 0.0000 1.0000 0.0000
vn 0.0000 -1.0000 0.0000
vn 0.0000 -1.0000 0.0000
vn 0.0000 -1.0000 0.0000
vn -0.5000 -0.0000 -0.8660
vn -0.0000 -0.0000 -1.0000
vn -0.2588 -0.0000 -0.9659
vn -0.0000 0.0000 -1.0000
vn -0.5000 0.0000 -0.8660
vn 0.0000 1.0000 0.0000
vn 0.0000 1.0000 0.0000
vn 0.0000 1.0000 0.0000
vn -0.8660 0.0000 0.5000
vn -0.8660 0.0000 0.5000
vn -0.5000 0.0000 0.8660
vn -0.5000 0.0000 0.8660
vn 0.0000 1.0000 0.0000
vn 0.0000 0.0000 1.0000
vn 0.0000 0.0000 1.0000
vn 0.5000 0.0000 -0.8660
vn 0.5000 0.0000 -0.8660
vn 0.0000 1.0000 0.0000
vn 0.8660 0.0000 -0.5000
vn 0.8660 0.0000 -0.5000
vn 0.0000 1.0000 0.0000
vn 0.0000 1.0000 0.0000
vn 1.0000 0.0000 0.0000
vn 1.0000 0.0000 0.0000
vn 0.0000 1.0000 0.0000
vn 0.0000 1.0000 0.0000
vn 0.5000 0.0000 0.8660
vn 0.5000 0.0000 0.8660
vn 0.8660 0.0000 0.5000
vn 0.8660 0.0000 0.5000
vn -0.8660 0.0000 -0.5000
vn -0.8660 0.0000 -0.5000
vn -1.0000 0.0000 -0.0000
vn -1.0000 0.0000 0.0000
vn 0.0000 -0.0000 -1.0000
vn 0.0000 0.0000 -1.0000
vn -0.5000 -0.0000 -0.8660
vn -0.5000 0.0000 -0.8660
vn 0.0000 1.0000 0.0000
vn 0.0000 1.0000 0.0000
vn 0.0000 1.0000 0.0000
vn 0.0000 1.0000 0.0000
vn 0.0000 1.0000 0.0000
vn 0.0000 -1.0000 0.0000
vn 0.0000 -1.0000 0.0000
vn 0.0000 -1.0000 0.0000
vn -0.9659 0.0000 0.2588
vn -0.8660 0.0000 0.5000
vn -0.8660 -0.0000 0.5000
vn 0.0000 1.0000 0.0000
vn 0.0000 -1.0000 0.0000
vn 0.0000 -1.0000 0.0000
vn 0.0000 -1.0000 0.0000
vn -0.5000 -0.0000 0.8660
vn -0.5000 0.0000 0.8660
vn 0.0000 1.0000 0.0000
vn -0.2588 0.0000 0.9659
vn 0.0000 0.0000 1.0000
vn 0.0000 -0.0000 1.0000
vn 0.5000 0.0000 -0.8660
vn 0.5000 -0.0000 -0.8660
vn 0.0000 1.0000 0.0000
vn 0.8660 -0.0000 -0.5000
vn 0.8660 0.0000 -0.5000
vn 0.0000 1.0000 0.0000
vn 0.0000 1.0000 0.0000
vn 1.0000 0.0000 0.0000
vn 1.0000 0.0000 0.0000
vn 0.5000 0.0000 0.8660
vn 0.5000 -0.0000 0.8660
vn 0.8660 0.0000 0.5000
vn 0.0000 1.0000 0.0000
vn 0.8660 0.0000 0.5000
vn 0.0000 1.0000 0.0000
vn -0.8660 0.0000 -0.5000
vn -0.8660 -0.0000 -0.5000
vn -1.0000 0.0000 0.0000
vn -1.0000 -0.0000 -0.0000
vn 0.0000 1.0000 0.0000
vn 0.0000 1.0000 0.0000
vn 0.0000 1.0000 0.0000
vn 0.0000 0.0000 -1.0000
vn -0.0000 0.0000 -1.0000
vn -0.5000 0.0000 -0.8660
vn -0.5000 -0.0000 -0.8660
vn 0.0000 1.0000 0.0000
vn 0.0000 1.0000 0.0000
vn 0.0000 1.0000 0.0000
vn -0.8660 -0.0000 0.5000
vn -0.8660 0.0000 0.5000
vn -0.5000 0.0000 0.8660
vn -0.5000 0.0000 0.8660
vn 0.0000 1.0000 0.0000
vn 0.0000 0.0000 1.0000
vn 0.0000 0.0000 1.0000
vn 0.0000 -1.0000 0.0000
vn 0.0000 -1.0000 0.0000
vn 0.0000 -1.0000 0.0000
vn 0.0000 -1.0000 0.0000
vn 0.0000 -1.0000 0.0000
vn 0.5000 0.0000 -0.8660
vn 0.2588 0.0000 -0.9659
vn 0.5000 0.0000 -0.8660
vn 0.0000 1.0000 0.0000
vn 0.8660 0.0000 -0.5000
vn 0.8660 0.0000 -0.5000
vn 0.0000 1.0000 0.0000
vn 0.0000 1.0000 0.0000
vn 0.0000 -1.0000 0.0000
vn 1.0000 0.0000 0.0000
vn 0.9659 0.0000 -0.2588
vn 1.0000 0.0000 0.0000
vn 0.0000 1.0000 0.0000
vn 0.0000 1.0000 0.0000
vn 0.5000 -0.0000 0.8660
vn 0.5000 0.0000 0.8660
vn 0.8660 -0.0000 0.5000
vn 0.8660 0.0000 0.5000
vn -0.8660 0.0000 -0.5000
vn -0.8660 0.0000 -0.5000
vn -1.0000 0.0000 0.0000
vn -1.0000 -0.0000 -0.0000
vn 0.0000 -0.0000 -1.0000
vn 0.0000 0.0000 -1.0000
vn -0.5000 -0.0000 -0.8660
vn -0.5000 0.0000 -0.8660
vn 0.0000 1.0000 0.0000
vn 0.0000 1.0000 0.0000
vn 0.0000 1.0000 0.0000
vn 0.0000 1.0000 0.0000
vn 0.0000 1.0000 0.0000
vn -0.8660 -0.0000 0.5000
vn -0.8660 0.0000 0.5000
vn 0.0000 1.0000 0.0000
vn -0.5000 0.0000 0.8660
vn -0.5000 0.0000 0.8660
vn 0.0000 1.0000 0.0000
vn -0.0000 0.0000 1.0000
vn 0.0000 0.0000 1.0000
vn 0.5000 0.0000 -0.8660
vn 0.5000 0.0000 -0.8660
vn 0.0000 1.0000 0.0000
vn 0.8660 0.0000 -0.5000
vn 0.8660 -0.0000 -0.5000
vn 0.0000 1.0000 0.0000
vn 0.0000 1.0000 0.0000
vn 1.0000 -0.0000 0.0000
vn 1.0000 -0.0000 0.0000
vn 0.0000 -1.0000 0.0000
vn 0.0000 -1.0000 0.0000
vn 0.0000 -1.0000 0.0000
vn 0.0000 -1.0000 0.0000
vn 0.0000 -1.0000 0.0000
vn 0.5000 0.0000 0.8660
vn 0.8660 0.0000 0.5000
vn 0.5000 0.0000 0.8660
vn 0.0000 1.0000 0.0000
vn 0.8660 -0.0000 0.5000
vn 0.2588 0.0000 0.9659
vn 0.0000 -1.0000 0.0000
vn 0.9659 -0.0000 0.2588
vn 0.0000 1.0000 0.0000
f 1//1 2//2 3//3
f 4//4 3//3 5//5
f 6//6 5//5 7//7
f 8//8 7//7 9//9
f 10//10 11//11 12//12
f 12//12 13//13 14//14
f 15//15 16//16 10//10
f 17//17 18//18 15//15
f 19//19 9//9 20//20
f 21//21 20//20 22//22
f 14//14 23//23 24//24
f 24//24 25//25 26//26
f 26//26 27//27 28//28
f 1//1 29//29 2//2
f 4//4 1//1 3//3
f 6//6 4//4 5//5
f 6//6 7//7 8//8
f 30//30 31//31 17//17
f 32//32 33//33 30//30
f 34//34 35//35 32//32
f 34//34 36//36 37//37
f 36//36 38//38 39//39
f 8//8 9//9 19//19
f 19//19 20//20 21//21
f 21//21 22//22 40//40
f 38//38 41//41 42//42
f 41//41 43//43 44//44
f 10//10 45//45 11//11
f 14//14 13//13 46//46
f 14//14 46//46 23//23
f 12//12 11//11 13//13
f 15//15 18//18 16//16
f 10//10 16//16 45//45
f 17//17 31//31 18//18
f 47//47 48//48 49//49
f 50//50 51//51 52//52
f 53//53 47//47 54//54
f 55//55 48//48 47//47
f 48//48 56//56 57//57
f 57//57 58//58 59//59
f 59//59 60//60 61//61
f 24//24 23//23 25//25
f 26//26 25//25 27//27
f 50//50 52//52 62//62
f 50//50 62//62 63//63
f 63//63 62//62 64//64
f 63//63 65//65 66//66
f 63//63 64//64 65//65
f 61//61 67//67 68//68
f 68//68 67//67 69//69
f 66//66 65//65 70//70
f 69//69 70//70 65//65
f 30//30 33//33 31//31
f 32//32 35//35 33//33
f 34//34 71//71 35//35
f 34//34 37//37 71//71
f 36//36 39//39 37//37
f 38//38 72//72 39//39
f 53//53 54//54 73//73
f 55//55 47//47 53//53
f 55//55 56//56 48//48
f 55//55 74//74 56//56
f 57//57 56//56 58//58
f 59//59 58//58 60//60
f 55//55 75//75 74//74
f 76//76 77//77 78//78
f 38//38 42//42 72//72
f 41//41 44//44 42//42
f 44//44 43//43 79//79
f 61//61 60//60 67//67
f 69//69 67//67 80//80
f 69//69 80//80 70//70
f 81//81 66//66 70//70
f 81//81 82//82 66//66
f 76//76 81//81 77//77
f 81//81 83//83 77//77
f 81//81 84//84 83//83
f 81//81 70//70 84//84
f 40//40 22//22 85//85
f 86//86 85//85 87//87
f 88//88 87//87 89//89
f 28//28 90//90 91//91
f 91//91 92//92 93//93
f 94//94 89//89 95//95
f 96//96 95//95 97//97
f 98//98 97//97 99//99
f 100//100 99//99 101//101
f 93//93 102//102 103//103
f 103//103 104//104 105//105
f 106//106 105//105 107//107
f 108//108 106//106 109//109
f 110//110 108//108 111//111
f 40//40 85//85 86//86
f 86//86 87//87 88//88
f 43//43 112//112 79//79
f 112//112 113//113 114//114
f 113//113 115//115 116//116
f 88//88 89//89 94//94
f 94//94 95//95 96//96
f 96//96 97//97 98//98
f 98//98 99//99 100//100
f 117//117 110//110 118//118
f 119//119 117//117 120//120
f 115//115 121//121 122//122
f 121//121 119//119 123//123
f 28//28 27//27 90//90
f 91//91 90//90 92//92
f 93//93 92//92 124//124
f 125//125 126//126 127//127
f 125//125 127//127 128//128
f 125//125 128//128 129//129
f 125//125 129//129 130//130
f 82//82 125//125 66//66
f 82//82 126//126 125//125
f 126//126 131//131 132//132
f 132//132 131//131 133//133
f 133//133 134//134 135//135
f 93//93 124//124 102//102
f 103//103 102//102 104//104
f 105//105 104//104 136//136
f 105//105 136//136 107//107
f 106//106 107//107 109//109
f 108//108 109//109 111//111
f 130//130 129//129 137//137
f 138//138 139//139 140//140
f 135//135 141//141 142//142
f 142//142 143//143 144//144
f 138//138 140//140 144//144
f 138//138 144//144 145//145
f 146//146 147//147 138//138
f 148//148 149//149 147//147
f 112//112 114//114 79//79
f 113//113 116//116 114//114
f 131//131 126//126 150//150
f 82//82 150//150 126//126
f 151//151 133//133 131//131
f 134//134 133//133 151//151
f 152//152 153//153 150//150
f 82//82 152//152 150//150
f 152//152 154//154 153//153
f 152//152 155//155 154//154
f 155//155 156//156 154//154
f 118//118 110//110 111//111
f 119//119 120//120 157//157
f 117//117 118//118 120//120
f 121//121 123//123 122//122
f 115//115 158//158 116//116
f 115//115 122//122 158//158
f 119//119 157//157 123//123
f 141//141 135//135 134//134
f 143//143 142//142 141//141
f 144//144 143//143 145//145
f 146//146 138//138 145//145
f 146//146 148//148 147//147
f 155//155 159//159 156//156
f 146//146 145//145 160//160
f 161//161 162//162 163//163
f 164//164 165//165 166//166
f 166//166 165//165 167//167
f 166//166 167//167 168//168
f 169//169 170//170 171//171
f 172//172 173//173 174//174
f 161//161 174//174 162//162
f 161//161 172//172 174//174
f 175//175 176//176 177//177
f 176//176 178//178 177//177
f 175//175 179//179 176//176
f 164//164 179//179 175//175
f 164//164 166//166 179//179
f 169//169 171//171 180//180
f 180//180 181//181 182//182
f 168//168 167//167 183//183
f 168//168 183//183 184//184
f 184//184 183//183 185//185
f 180//180 171//171 181//181
f 184//184 185//185 186//186
f 182//182 181//181 187//187
f 186//186 185//185 188//188
f 186//186 188//188 189//189
f 190//190 191//191 178//178
f 176//176 190//190 178//178
f 182//182 187//187 192//192
f 193//193 194//194 191//191
f 190//190 193//193 191//191
f 192//192 195//195 196//196
f 197//197 198//198 194//194
f 193//193 197//197 194//194
f 196//196 199//199 200//200
f 187//187 195//195 192//192
f 201//201 202//202 203//203
f 196//196 195//195 199//199
f 201//201 203//203 204//204
f 189//189 188//188 202//202
f 189//189 202//202 201//201
f 204//204 203//203 198//198
f 197//197 204//204 198//198
f 205//205 206//206 207//207
f 205//205 207//207 208//208
f 209//209 210//210 211//211
f 212//212 209//209 211//211
f 212//212 211//211 206//206
f 205//205 212//212 206//206
f 213//213 214//214 215//215
f 215//215 216//216 217//217
f 218//218 219//219 220//220
f 208//208 207//207 221//221
f 222//222 208//208 221//221
f 222//222 223//223 208//208
f 213//213 224//224 214//214
f 218//218 220//220 225//225
f 225//225 220//220 226//226
f 225//225 226//226 227//227
f 222//222 228//228 223//223
f 215//215 214//214 216//216
f 228//228 229//229 223//223
f 217//217 216//216 230//230
f 228//228 231//231 229//229
f 229//229 231//231 232//232
f 229//229 232//232 233//233
f 234//234 235//235 210//210
f 209//209 234//234 210//210
f 217//217 230//230 236//236
f 237//237 238//238 235//235
f 234//234 237//237 235//235
f 236//236 239//239 240//240
f 241//241 242//242 238//238
f 237//237 241//241 238//238
f 230//230 239//239 236//236
f 243//243 244//244 245//245
f 240//240 239//239 246//246
f 243//243 245//245 247//247
f 233//233 232//232 244//244
f 233//233 244//244 243//243
f 247//247 245//245 242//242
f 247//247 242//242 241//241
f 240//240 246//246 248//248
f 249//249 250//250 251//251
f 249//249 251//251 252//252
f 253//253 254//254 255//255
f 256//256 257//257 258//258
f 259//259 256//256 258//258
f 259//259 258//258 250//250
f 249//249 259//259 250//250
f 253//253 255//255 260//260
f 260//260 261//261 262//262
f 252//252 251//251 263//263
f 252//252 263//263 264//264
f 264//264 263//263 265//265
f 260//260 255//255 261//261
f 264//264 265//265 266//266
f 261//261 267//267 262//262
f 266//266 265//265 268//268
f 266//266 268//268 269//269
f 270//270 271//271 272//272
f 270//270 273//273 271//271
f 270//270 274//274 273//273
f 275//275 276//276 257//257
f 256//256 275//275 257//257
f 277//277 276//276 275//275
f 262//262 267//267 278//278
f 277//277 279//279 280//280
f 277//277 275//275 279//279
f 278//278 281//281 282//282
f 274//274 283//283 273//273
f 280//280 284//284 285//285
f 284//284 286//286 285//285
f 280//280 279//279 284//284
f 282//282 287//287 288//288
f 278//278 267//267 281//281
f 289//289 290//290 291//291
f 282//282 281//281 287//287
f 289//289 291//291 292//292
f 269//269 268//268 290//290
f 269//269 290//290 289//289
f 292//292 291//291 286//286
f 284//284 292//292 286//286
f 293//293 294//294 295//295
f 293//293 295//295 296//296
f 297//297 298//298 299//299
f 300//300 297//297 299//299
f 300//300 299//299 294//294
f 293//293 300//300 294//294
f 301//301 302//302 303//303
f 303//303 304//304 305//305
f 296//296 295//295 306//306
f 296//296 306//306 307//307
f 301//301 308//308 302//302
f 307//307 306//306 309//309
f 303//303 302//302 304//304
f 307//307 309//309 310//310
f 304//304 311//311 305//305
f 310//310 309//309 312//312
f 310//310 312//312 313//313
f 314//314 315//315 298//298
f 297//297 314//314 298//298
f 305//305 311//311 316//316
f 317//317 318//318 315//315
f 314//314 317//317 315//315
f 316//316 319//319 320//320
f 321//321 322//322 318//318
f 317//317 321//321 318//318
f 323//323 324//324 325//325
f 325//325 324//324 326//326
f 323//323 327//327 324//324
f 316//316 311//311 319//319
f 328//328 329//329 330//330
f 320//320 319//319 331//331
f 329//329 332//332 330//330
f 313//313 312//312 333//333
f 328//328 313//313 333//333
f 328//328 330//330 313//313
f 325//325 326//326 334//334
f 332//332 335//335 322//322
f 329//329 335//335 332//332
f 321//321 332//332 322//322
f 320//320 331//331 336//336
