v -0.12066 -0.14100 -0.12066
v -0.11500 -0.14666 -0.12066
v -0.12066 -0.14666 -0.11500
v -0.11500 -0.14100 -0.12300
v -0.12300 -0.14100 -0.11500
v -0.11500 -0.14900 -0.11500
v -0.12300 -0.14100 0.11500
v -0.11500 -0.14900 0.11500
v -0.11500 0.14100 -0.12300
v -0.12300 0.14100 -0.11500
v 0.11500 -0.14100 -0.12300
v 0.11500 -0.14900 -0.11500
v -0.12066 -0.14666 0.11500
v -0.12066 -0.14100 0.12066
v -0.11500 -0.14666 0.12066
v -0.11500 -0.14100 0.12300
v -0.12066 0.14100 0.12066
v 0.11500 -0.14900 0.11500
v 0.11500 -0.14666 0.12066
v 0.11500 -0.14100 0.12300
v -0.11500 0.14100 0.12300
v -0.12066 0.14100 -0.12066
v -0.11500 0.14666 -0.12066
v -0.12066 0.14666 -0.11500
v -0.11500 0.14900 -0.11500
v -0.12066 0.14666 0.11500
v -0.11500 0.14900 0.11500
v -0.06495 0.14900 -0.03750
v -0.03750 0.14900 -0.06495
v -0.07500 0.14900 0.00000
v 0.11500 0.14666 -0.12066
v 0.00000 0.14900 -0.07500
v -0.12300 0.14100 0.11500
v -0.11500 0.14666 0.12066
v -0.06495 0.14900 0.03750
v -0.03750 0.14900 0.06495
v 0.00000 0.14900 0.07500
v 0.11500 0.14100 0.12300
v 0.11500 0.14900 0.11500
v 0.11500 -0.14666 -0.12066
v 0.12066 -0.14100 -0.12066
v 0.12066 -0.14666 -0.11500
v 0.12300 -0.14100 -0.11500
v 0.12300 -0.14100 0.11500
v 0.12066 0.14100 -0.12066
v 0.12066 -0.14666 0.11500
v 0.12066 -0.14100 0.12066
v 0.12300 0.14100 0.11500
v 0.12066 0.14100 0.12066
v 0.11500 0.14100 -0.12300
v 0.11500 0.14900 -0.11500
v 0.03750 0.14900 -0.06495
v 0.12300 0.14100 -0.11500
v 0.12066 0.14666 -0.11500
v 0.06495 0.14900 -0.03750
v 0.07500 0.14900 0.00000
v 0.03750 0.14900 0.06495
v 0.11500 0.14666 0.12066
v 0.12066 0.14666 0.11500
v 0.06495 0.14900 0.03750
v -0.03750 0.19900 -0.06495
v -0.03750 0.14900 -0.06495
v -0.06495 0.14900 -0.03750
v -0.06495 0.19900 -0.03750
v 0.00000 0.19900 -0.07500
v 0.00000 0.14900 -0.07500
v -0.07500 0.14900 0.00000
v -0.07500 0.19900 0.00000
v -0.06495 0.19900 0.03750
v -0.06495 0.19900 -0.03750
v -0.07500 0.19900 0.00000
v -0.06495 0.14900 0.03750
v -0.06495 0.19900 0.03750
v -0.03750 0.19900 -0.06495
v -0.03750 0.14900 0.06495
v -0.03750 0.19900 0.06495
v 0.00000 0.19900 -0.07500
v 0.00000 0.19900 0.07500
v -0.03750 0.19900 0.06495
v 0.00000 0.14900 0.07500
v 0.00000 0.19900 0.07500
v 0.03750 0.19900 -0.06495
v 0.03750 0.14900 -0.06495
v 0.06495 0.19900 -0.03750
v 0.06495 0.14900 -0.03750
v 0.03750 0.19900 -0.06495
v 0.03750 0.19900 0.06495
v 0.06495 0.19900 -0.03750
v 0.06495 0.19900 0.03750
v 0.03750 0.19900 0.06495
v 0.06495 0.14900 0.03750
v 0.06495 0.19900 0.03750
v 0.03750 0.14900 0.06495
v 0.07500 0.19900 0.00000
v 0.07500 0.14900 0.00000
v 0.07500 0.19900 0.00000
v -0.06495 -0.03750 -0.17400
v -0.06495 -0.03750 -0.12400
v -0.07500 0.00000 -0.12400
v -0.07500 0.00000 -0.17400
v -0.06495 -0.03750 -0.17400
v -0.07500 0.00000 -0.17400
v -0.06495 0.03750 -0.17400
v -0.06495 0.03750 -0.12400
v -0.06495 -0.03750 -0.12400
v -0.06495 0.03750 -0.12400
v -0.07500 0.00000 -0.12400
v -0.03750 -0.06495 -0.17400
v 0.00000 -0.07500 -0.17400
v -0.03750 -0.06495 -0.12400
v 0.00000 -0.07500 -0.12400
v -0.03750 -0.06495 -0.17400
v -0.03750 -0.06495 -0.12400
v -0.03750 0.06495 -0.17400
v -0.03750 0.06495 -0.12400
v 0.00000 -0.07500 -0.17400
v 0.00000 -0.07500 -0.12400
v 0.00000 0.07500 -0.17400
v 0.00000 0.07500 -0.12400
v -0.06495 0.03750 -0.17400
v -0.03750 0.06495 -0.12400
v -0.03750 0.06495 -0.17400
v 0.00000 0.07500 -0.12400
v 0.00000 0.07500 -0.17400
v 0.03750 -0.06495 -0.17400
v 0.03750 -0.06495 -0.12400
v 0.03750 -0.06495 -0.17400
v 0.03750 -0.06495 -0.12400
v 0.03750 0.06495 -0.17400
v 0.03750 0.06495 -0.12400
v 0.06495 -0.03750 -0.17400
v 0.06495 -0.03750 -0.12400
v 0.06495 -0.03750 -0.17400
v 0.06495 0.03750 -0.17400
v 0.06495 -0.03750 -0.12400
v 0.06495 0.03750 -0.12400
v 0.07500 0.00000 -0.17400
v 0.07500 0.00000 -0.17400
v 0.07500 0.00000 -0.12400
v 0.06495 0.03750 -0.17400
v 0.07500 0.00000 -0.12400
v 0.03750 0.06495 -0.17400
v 0.03750 0.06495 -0.12400
v 0.06495 0.03750 -0.12400
vn -0.6887 -0.2265 -0.6887
vn -0.2265 -0.6887 -0.6887
vn -0.6887 -0.6887 -0.2265
vn -0.1877 -0.1877 -0.9641
vn -0.9641 -0.1877 -0.1877
vn -0.1877 -0.9641 -0.1877
vn -0.9641 -0.1877 0.1877
vn -0.1877 -0.9641 0.1877
vn -0.1877 0.1877 -0.9641
vn -0.9641 0.1877 -0.1877
vn 0.1877 -0.1877 -0.9641
vn 0.1877 -0.9641 -0.1877
vn -0.6887 -0.6887 0.2265
vn -0.6887 -0.2265 0.6887
vn -0.2265 -0.6887 0.6887
vn -0.1877 -0.1877 0.9641
vn -0.6887 0.2265 0.6887
vn 0.1877 -0.9641 0.1877
vn 0.2265 -0.6887 0.6887
vn 0.1877 -0.1877 0.9641
vn -0.1877 0.1877 0.9641
vn -0.6887 0.2265 -0.6887
vn -0.2265 0.6887 -0.6887
vn -0.6887 0.6887 -0.2265
vn -0.1877 0.9641 -0.1877
vn -0.6887 0.6887 0.2265
vn -0.1877 0.9641 0.1877
vn 0.0000 1.0000 0.0000
vn 0.0000 1.0000 0.0000
vn 0.0000 1.0000 0.0000
vn 0.2265 0.6887 -0.6887
vn 0.0000 1.0000 0.0000
vn -0.9641 0.1877 0.1877
vn -0.2265 0.6887 0.6887
vn 0.0000 1.0000 0.0000
vn 0.0000 1.0000 0.0000
vn 0.0000 1.0000 0.0000
vn 0.1877 0.1877 0.9641
vn 0.1877 0.9641 0.1877
vn 0.2265 -0.6887 -0.6887
vn 0.6887 -0.2265 -0.6887
vn 0.6887 -0.6887 -0.2265
vn 0.9641 -0.1877 -0.1877
vn 0.9641 -0.1877 0.1877
vn 0.6887 0.2265 -0.6887
vn 0.6887 -0.6887 0.2265
vn 0.6887 -0.2265 0.6887
vn 0.9641 0.1877 0.1877
vn 0.6887 0.2265 0.6887
vn 0.1877 0.1877 -0.9641
vn 0.1877 0.9641 -0.1877
vn 0.0000 1.0000 0.0000
vn 0.9641 0.1877 -0.1877
vn 0.6887 0.6887 -0.2265
vn 0.0000 1.0000 0.0000
vn 0.0000 1.0000 0.0000
vn 0.0000 1.0000 0.0000
vn 0.2265 0.6887 0.6887
vn 0.6887 0.6887 0.2265
vn 0.0000 1.0000 0.0000
vn -0.5000 0.0000 -0.8660
vn -0.5000 0.0000 -0.8660
vn -0.8660 0.0000 -0.5000
vn -0.8660 0.0000 -0.5000
vn 0.0000 0.0000 -1.0000
vn 0.0000 0.0000 -1.0000
vn -1.0000 0.0000 0.0000
vn -1.0000 0.0000 0.0000
vn 0.0000 1.0000 0.0000
vn 0.0000 1.0000 0.0000
vn 0.0000 1.0000 0.0000
vn -0.8660 0.0000 0.5000
vn -0.8660 0.0000 0.5000
vn 0.0000 1.0000 0.0000
vn -0.5000 0.0000 0.8660
vn 0.0000 1.0000 0.0000
vn 0.0000 1.0000 0.0000
vn 0.0000 1.0000 0.0000
vn -0.5000 0.0000 0.8660
vn 0.0000 0.0000 1.0000
vn 0.0000 0.0000 1.0000
vn 0.5000 0.0000 -0.8660
vn 0.5000 -0.0000 -0.8660
vn 0.8660 -0.0000 -0.5000
vn 0.8660 0.0000 -0.5000
vn 0.0000 1.0000 0.0000
vn 0.0000 1.0000 0.0000
vn 0.0000 1.0000 0.0000
vn 0.0000 1.0000 0.0000
vn 0.5000 0.0000 0.8660
vn 0.8660 0.0000 0.5000
vn 0.8660 0.0000 0.5000
vn 0.5000 0.0000 0.8660
vn 1.0000 0.0000 0.0000
vn 1.0000 0.0000 0.0000
vn 0.0000 1.0000 0.0000
vn -0.8660 -0.5000 0.0000
vn -0.8660 -0.5000 0.0000
vn -1.0000 -0.0000 0.0000
vn -1.0000 -0.0000 0.0000
vn 0.0000 0.0000 -1.0000
vn 0.0000 0.0000 -1.0000
vn 0.0000 0.0000 -1.0000
vn -0.8660 0.5000 0.0000
vn 0.0000 0.0000 1.0000
vn 0.0000 0.0000 1.0000
vn 0.0000 0.0000 1.0000
vn -0.5000 -0.8660 0.0000
vn 0.0000 -1.0000 0.0000
vn -0.5000 -0.8660 0.0000
vn 0.0000 -1.0000 0.0000
vn 0.0000 0.0000 -1.0000
vn 0.0000 0.0000 1.0000
vn 0.0000 0.0000 -1.0000
vn 0.0000 0.0000 1.0000
vn 0.0000 0.0000 -1.0000
vn 0.0000 0.0000 1.0000
vn 0.0000 0.0000 -1.0000
vn 0.0000 0.0000 1.0000
vn -0.8660 0.5000 0.0000
vn -0.5000 0.8660 0.0000
vn -0.5000 0.8660 -0.0000
vn 0.0000 1.0000 -0.0000
vn 0.0000 1.0000 0.0000
vn 0.5000 -0.8660 0.0000
vn 0.5000 -0.8660 0.0000
vn 0.0000 0.0000 -1.0000
vn 0.0000 0.0000 1.0000
vn 0.0000 0.0000 -1.0000
vn 0.0000 0.0000 1.0000
vn 0.8660 -0.5000 0.0000
vn 0.8660 -0.5000 0.0000
vn 0.0000 0.0000 -1.0000
vn 0.0000 0.0000 -1.0000
vn 0.0000 0.0000 1.0000
vn 0.0000 0.0000 1.0000
vn 1.0000 -0.0000 0.0000
vn 0.0000 0.0000 -1.0000
vn 1.0000 -0.0000 0.0000
vn 0.8660 0.5000 0.0000
vn 0.0000 0.0000 1.0000
vn 0.5000 0.8660 -0.0000
vn 0.5000 0.8660 0.0000
vn 0.8660 0.5000 -0.0000
f 1//1 2//2 3//3
f 1//1 4//4 2//2
f 1//1 3//3 5//5
f 2//2 6//6 3//3
f 3//3 7//7 5//5
f 3//3 6//6 8//8
f 1//1 9//9 4//4
f 1//1 5//5 10//10
f 5//5 7//7 10//10
f 2//2 4//4 11//11
f 2//2 12//12 6//6
f 4//4 9//9 11//11
f 3//3 13//13 7//7
f 3//3 8//8 13//13
f 13//13 14//14 7//7
f 13//13 8//8 15//15
f 13//13 15//15 14//14
f 14//14 15//15 16//16
f 7//7 14//14 17//17
f 14//14 16//16 17//17
f 6//6 18//18 8//8
f 8//8 19//19 15//15
f 15//15 19//19 16//16
f 16//16 20//20 21//21
f 1//1 10//10 22//22
f 1//1 22//22 9//9
f 22//22 23//23 9//9
f 22//22 24//24 23//23
f 22//22 10//10 24//24
f 23//23 24//24 25//25
f 10//10 26//26 24//24
f 24//24 27//27 25//25
f 25//25 28//28 29//29
f 25//25 30//30 28//28
f 9//9 23//23 31//31
f 23//23 25//25 31//31
f 25//25 29//29 32//32
f 7//7 33//33 10//10
f 7//7 17//17 33//33
f 16//16 21//21 17//17
f 25//25 27//27 30//30
f 10//10 33//33 26//26
f 24//24 26//26 27//27
f 33//33 17//17 26//26
f 17//17 21//21 34//34
f 26//26 34//34 27//27
f 17//17 34//34 26//26
f 27//27 35//35 30//30
f 27//27 36//36 35//35
f 27//27 37//37 36//36
f 21//21 38//38 34//34
f 27//27 34//34 39//39
f 2//2 40//40 12//12
f 2//2 11//11 40//40
f 6//6 12//12 18//18
f 40//40 41//41 42//42
f 40//40 11//11 41//41
f 40//40 42//42 12//12
f 41//41 43//43 42//42
f 12//12 42//42 18//18
f 42//42 43//43 44//44
f 11//11 45//45 41//41
f 41//41 45//45 43//43
f 8//8 18//18 19//19
f 16//16 19//19 20//20
f 42//42 46//46 18//18
f 42//42 44//44 46//46
f 18//18 46//46 19//19
f 19//19 46//46 47//47
f 19//19 47//47 20//20
f 46//46 44//44 47//47
f 43//43 48//48 44//44
f 20//20 47//47 49//49
f 44//44 48//48 47//47
f 9//9 50//50 11//11
f 25//25 32//32 51//51
f 9//9 31//31 50//50
f 25//25 51//51 31//31
f 51//51 32//32 52//52
f 11//11 50//50 45//45
f 43//43 45//45 53//53
f 43//43 53//53 48//48
f 50//50 31//31 45//45
f 31//31 54//54 45//45
f 45//45 54//54 53//53
f 31//31 51//51 54//54
f 51//51 52//52 55//55
f 51//51 55//55 56//56
f 53//53 54//54 48//48
f 51//51 39//39 54//54
f 21//21 20//20 38//38
f 27//27 39//39 37//37
f 39//39 57//57 37//37
f 34//34 38//38 58//58
f 34//34 58//58 39//39
f 20//20 49//49 38//38
f 47//47 48//48 49//49
f 51//51 56//56 39//39
f 54//54 39//39 59//59
f 54//54 59//59 48//48
f 39//39 60//60 57//57
f 39//39 56//56 60//60
f 38//38 49//49 58//58
f 48//48 59//59 49//49
f 39//39 58//58 59//59
f 58//58 49//49 59//59
f 61//61 62//62 63//63
f 64//64 61//61 63//63
f 61//61 65//65 62//62
f 65//65 66//66 62//62
f 64//64 63//63 67//67
f 68//68 64//64 67//67
f 69//69 70//70 71//71
f 68//68 67//67 72//72
f 73//73 68//68 72//72
f 69//69 74//74 70//70
f 73//73 72//72 75//75
f 69//69 76//76 74//74
f 76//76 77//77 74//74
f 76//76 78//78 77//77
f 73//73 75//75 79//79
f 79//79 75//75 80//80
f 79//79 80//80 81//81
f 65//65 82//82 66//66
f 82//82 83//83 66//66
f 84//84 85//85 83//83
f 82//82 84//84 83//83
f 78//78 86//86 77//77
f 78//78 87//87 86//86
f 87//87 88//88 86//86
f 87//87 89//89 88//88
f 90//90 91//91 92//92
f 81//81 80//80 93//93
f 81//81 93//93 90//90
f 90//90 93//93 91//91
f 94//94 95//95 85//85
f 94//94 85//85 84//84
f 89//89 96//96 88//88
f 92//92 91//91 95//95
f 92//92 95//95 94//94
f 97//97 98//98 99//99
f 97//97 99//99 100//100
f 101//101 102//102 103//103
f 100//100 99//99 104//104
f 105//105 106//106 107//107
f 108//108 109//109 110//110
f 110//110 109//109 111//111
f 97//97 108//108 98//98
f 98//98 108//108 110//110
f 101//101 103//103 112//112
f 105//105 113//113 106//106
f 112//112 103//103 114//114
f 113//113 115//115 106//106
f 112//112 114//114 116//116
f 113//113 117//117 115//115
f 114//114 118//118 116//116
f 115//115 117//117 119//119
f 100//100 104//104 120//120
f 120//120 104//104 121//121
f 120//120 121//121 122//122
f 122//122 121//121 123//123
f 122//122 123//123 124//124
f 109//109 125//125 111//111
f 111//111 125//125 126//126
f 116//116 118//118 127//127
f 117//117 128//128 119//119
f 127//127 118//118 129//129
f 128//128 130//130 119//119
f 125//125 131//131 126//126
f 126//126 131//131 132//132
f 127//127 129//129 133//133
f 133//133 129//129 134//134
f 128//128 135//135 130//130
f 135//135 136//136 130//130
f 131//131 137//137 132//132
f 133//133 134//134 138//138
f 132//132 137//137 139//139
f 137//137 140//140 139//139
f 135//135 141//141 136//136
f 142//142 124//124 143//143
f 143//143 124//124 123//123
f 142//142 144//144 140//140
f 142//142 143//143 144//144
f 139//139 140//140 144//144
