v -0.12300 -0.15000 -0.25000
v -0.12300 0.15000 0.00000
v -0.12300 -0.11000 -0.25000
v -0.12300 -0.15000 -0.25000
v -0.12300 -0.11000 -0.25000
v 0.12300 -0.15000 -0.25000
v -0.12300 -0.11000 -0.25000
v -0.12300 0.15000 0.00000
v 0.12300 -0.11000 -0.25000
v -0.12300 -0.15000 0.25000
v -0.12300 -0.15000 0.25000
v -0.12300 -0.15000 -0.25000
v 0.12300 -0.15000 0.25000
v -0.12300 0.15000 0.25000
v -0.12300 0.15000 0.25000
v -0.06495 0.15000 0.08750
v -0.12300 0.15000 0.00000
v -0.03750 0.15000 0.06005
v -0.07500 0.15000 0.12500
v -0.06495 0.15000 0.16250
v -0.03750 0.15000 0.18995
v -0.12300 -0.15000 0.25000
v 0.12300 0.15000 0.25000
v -0.12300 0.15000 0.25000
v 0.00000 0.15000 0.05000
v 0.03750 0.15000 0.06005
v 0.12300 0.15000 0.25000
v 0.12300 -0.11000 -0.25000
v 0.12300 -0.15000 -0.25000
v 0.12300 -0.15000 -0.25000
v 0.12300 -0.11000 -0.25000
v 0.12300 0.15000 0.00000
v 0.12300 -0.15000 0.25000
v 0.12300 -0.15000 0.25000
v 0.12300 0.15000 0.00000
v 0.12300 0.15000 0.00000
v 0.00000 0.15000 0.20000
v 0.03750 0.15000 0.18995
v 0.12300 0.15000 0.25000
v 0.06495 0.15000 0.08750
v 0.07500 0.15000 0.12500
v 0.06495 0.15000 0.16250
v -0.07500 0.19900 0.12500
v -0.06495 0.15000 0.08750
v -0.07500 0.15000 0.12500
v -0.06495 0.19900 0.08750
v -0.06495 0.19900 0.16250
v -0.06495 0.15000 0.16250
v -0.06495 0.19900 0.16250
v -0.06495 0.19900 0.08750
v -0.07500 0.19900 0.12500
v -0.03750 0.15000 0.06005
v -0.03750 0.19900 0.06005
v -0.03750 0.19900 0.06005
v 0.00000 0.15000 0.05000
v 0.00000 0.19900 0.05000
v -0.03750 0.19900 0.18995
v 0.00000 0.19900 0.05000
v -0.03750 0.19900 0.18995
v -0.03750 0.15000 0.18995
v 0.00000 0.19900 0.20000
v 0.00000 0.19900 0.20000
v 0.00000 0.15000 0.20000
v 0.03750 0.15000 0.06005
v 0.03750 0.19900 0.06005
v 0.03750 0.19900 0.06005
v 0.06495 0.15000 0.08750
v 0.06495 0.19900 0.08750
v 0.03750 0.19900 0.18995
v 0.06495 0.19900 0.08750
v 0.03750 0.19900 0.18995
v 0.03750 0.15000 0.18995
v 0.06495 0.19900 0.16250
v 0.06495 0.15000 0.16250
v 0.06495 0.19900 0.16250
v 0.07500 0.15000 0.12500
v 0.07500 0.19900 0.12500
v 0.07500 0.19900 0.12500
vn -1.0000 0.0000 0.0000
vn -1.0000 0.0000 0.0000
vn -1.0000 0.0000 0.0000
vn 0.0000 0.0000 -1.0000
vn 0.0000 0.0000 -1.0000
vn 0.0000 0.0000 -1.0000
vn 0.0000 0.6931 -0.7208
vn -0.0000 0.6931 -0.7208
vn -0.0000 0.6931 -0.7208
vn -1.0000 0.0000 0.0000
vn 0.0000 -1.0000 0.0000
vn 0.0000 -1.0000 0.0000
vn 0.0000 -1.0000 0.0000
vn -1.0000 0.0000 0.0000
vn 0.0000 1.0000 0.0000
vn 0.0000 1.0000 0.0000
vn 0.0000 1.0000 0.0000
vn 0.0000 1.0000 0.0000
vn 0.0000 1.0000 0.0000
vn 0.0000 1.0000 0.0000
vn 0.0000 1.0000 0.0000
vn 0.0000 0.0000 1.0000
vn 0.0000 0.0000 1.0000
vn 0.0000 0.0000 1.0000
vn 0.0000 1.0000 0.0000
vn 0.0000 1.0000 0.0000
vn 0.0000 1.0000 0.0000
vn 0.0000 0.0000 -1.0000
vn 0.0000 -1.0000 0.0000
vn 1.0000 0.0000 0.0000
vn 1.0000 0.0000 0.0000
vn 1.0000 0.0000 0.0000
vn 0.0000 0.0000 1.0000
vn 1.0000 0.0000 0.0000
vn 0.0000 0.6931 -0.7208
vn 0.0000 1.0000 0.0000
vn 0.0000 1.0000 0.0000
vn 0.0000 1.0000 0.0000
vn 1.0000 0.0000 0.0000
vn 0.0000 1.0000 0.0000
vn 0.0000 1.0000 0.0000
vn 0.0000 1.0000 0.0000
vn -1.0000 0.0000 -0.0000
vn -0.8660 0.0000 -0.5000
vn -1.0000 0.0000 0.0000
vn -0.8660 0.0000 -0.5000
vn -0.8660 0.0000 0.5000
vn -0.8660 0.0000 0.5000
vn 0.0000 1.0000 0.0000
vn 0.0000 1.0000 0.0000
vn 0.0000 1.0000 0.0000
vn -0.5000 0.0000 -0.8660
vn -0.5000 0.0000 -0.8660
vn 0.0000 1.0000 0.0000
vn 0.0000 0.0000 -1.0000
vn 0.0000 0.0000 -1.0000
vn 0.0000 1.0000 0.0000
vn 0.0000 1.0000 0.0000
vn -0.5000 0.0000 0.8660
vn -0.5000 -0.0000 0.8660
vn 0.0000 1.0000 0.0000
vn 0.0000 -0.0000 1.0000
vn 0.0000 0.0000 1.0000
vn 0.5000 0.0000 -0.8660
vn 0.5000 0.0000 -0.8660
vn 0.0000 1.0000 0.0000
vn 0.8660 0.0000 -0.5000
vn 0.8660 0.0000 -0.5000
vn 0.0000 1.0000 0.0000
vn 0.0000 1.0000 0.0000
vn 0.5000 0.0000 0.8660
vn 0.5000 0.0000 0.8660
vn 0.8660 0.0000 0.5000
vn 0.8660 0.0000 0.5000
vn 0.0000 1.0000 0.0000
vn 1.0000 0.0000 0.0000
vn 1.0000 0.0000 0.0000
vn 0.0000 1.0000 0.0000
f 1//1 2//2 3//3
f 4//4 5//5 6//6
f 7//7 8//8 9//9
f 10//10 2//2 1//1
f 11//11 12//12 13//13
f 10//10 14//14 2//2
f 15//15 16//16 17//17
f 17//17 16//16 18//18
f 15//15 19//19 16//16
f 15//15 20//20 19//19
f 15//15 21//21 20//20
f 22//22 23//23 24//24
f 17//17 18//18 25//25
f 17//17 25//25 26//26
f 15//15 27//27 21//21
f 5//5 28//28 6//6
f 13//13 12//12 29//29
f 30//30 31//31 32//32
f 22//22 33//33 23//23
f 34//34 30//30 32//32
f 9//9 8//8 35//35
f 17//17 26//26 36//36
f 27//27 37//37 21//21
f 27//27 38//38 37//37
f 34//34 32//32 39//39
f 36//36 26//26 40//40
f 36//36 40//40 41//41
f 36//36 41//41 42//42
f 27//27 42//42 38//38
f 27//27 36//36 42//42
f 43//43 44//44 45//45
f 43//43 46//46 44//44
f 47//47 45//45 48//48
f 47//47 43//43 45//45
f 49//49 50//50 51//51
f 46//46 52//52 44//44
f 46//46 53//53 52//52
f 49//49 54//54 50//50
f 53//53 55//55 52//52
f 53//53 56//56 55//55
f 57//57 58//58 54//54
f 59//59 48//48 60//60
f 49//49 57//57 54//54
f 47//47 48//48 59//59
f 57//57 61//61 58//58
f 59//59 60//60 62//62
f 62//62 60//60 63//63
f 56//56 64//64 55//55
f 56//56 65//65 64//64
f 61//61 66//66 58//58
f 65//65 67//67 64//64
f 65//65 68//68 67//67
f 69//69 70//70 66//66
f 61//61 69//69 66//66
f 62//62 63//63 71//71
f 71//71 63//63 72//72
f 73//73 72//72 74//74
f 69//69 75//75 70//70
f 71//71 72//72 73//73
f 68//68 76//76 67//67
f 77//77 76//76 68//68
f 77//77 74//74 76//76
f 73//73 74//74 77//77
f 75//75 78//78 70//70
