v -0.24800 -0.15000 -0.25000
v -0.24800 0.15000 0.00000
v -0.24800 -0.11000 -0.25000
v -0.24800 -0.15000 -0.25000
v -0.24800 -0.11000 -0.25000
v 0.24800 -0.15000 -0.25000
v -0.24800 -0.11000 -0.25000
v -0.24800 0.15000 0.00000
v 0.24800 -0.11000 -0.25000
v -0.24800 -0.15000 0.25000
v -0.24800 -0.15000 0.25000
v -0.24800 -0.15000 -0.25000
v 0.24800 -0.15000 0.25000
v -0.24800 0.15000 0.25000
v -0.24800 0.15000 0.00000
v -0.18995 0.15000 0.08750
v -0.16250 0.15000 0.06005
v -0.20000 0.15000 0.12500
v -0.12500 0.15000 0.05000
v -0.24800 0.15000 0.25000
v -0.18995 0.15000 0.16250
v -0.16250 0.15000 0.18995
v -0.12500 0.15000 0.20000
v -0.24800 -0.15000 0.25000
v 0.24800 0.15000 0.25000
v -0.24800 0.15000 0.25000
v 0.24800 0.15000 0.00000
v -0.08750 0.15000 0.06005
v 0.12500 0.15000 0.05000
v -0.06005 0.15000 0.08750
v 0.08750 0.15000 0.06005
v -0.05000 0.15000 0.12500
v 0.06005 0.15000 0.08750
v 0.12500 0.15000 0.20000
v -0.06005 0.15000 0.16250
v -0.08750 0.15000 0.18995
v 0.06005 0.15000 0.16250
v 0.08750 0.15000 0.18995
v 0.24800 -0.11000 -0.25000
v 0.24800 -0.15000 -0.25000
v 0.24800 -0.15000 -0.25000
v 0.24800 -0.11000 -0.25000
v 0.24800 0.15000 0.00000
v 0.24800 -0.15000 0.25000
v 0.24800 -0.15000 0.25000
v 0.24800 0.15000 0.00000
v 0.05000 0.15000 0.12500
v 0.24800 0.15000 0.25000
v 0.24800 0.15000 0.25000
v 0.16250 0.15000 0.06005
v 0.18995 0.15000 0.08750
v 0.20000 0.15000 0.12500
v 0.16250 0.15000 0.18995
v 0.18995 0.15000 0.16250
v -0.20000 0.19900 0.12500
v -0.18995 0.15000 0.08750
v -0.20000 0.15000 0.12500
v -0.18995 0.19900 0.08750
v -0.16250 0.19900 0.06005
v -0.12500 0.15000 0.05000
v -0.16250 0.15000 0.06005
v -0.12500 0.19900 0.05000
v -0.16250 0.19900 0.06005
v -0.18995 0.19900 0.08750
v -0.18995 0.19900 0.16250
v -0.16250 0.19900 0.18995
v -0.12500 0.19900 0.05000
v -0.18995 0.19900 0.16250
v -0.18995 0.15000 0.16250
v -0.20000 0.19900 0.12500
v -0.16250 0.19900 0.18995
v -0.16250 0.15000 0.18995
v -0.12500 0.19900 0.20000
v -0.12500 0.19900 0.20000
v -0.12500 0.15000 0.20000
v -0.08750 0.15000 0.06005
v -0.08750 0.19900 0.06005
v -0.08750 0.19900 0.06005
v -0.06005 0.15000 0.08750
v -0.06005 0.19900 0.08750
v -0.08750 0.19900 0.18995
v -0.06005 0.19900 0.08750
v -0.05000 0.15000 0.12500
v -0.05000 0.19900 0.12500
v -0.06005 0.19900 0.16250
v -0.08750 0.15000 0.18995
v -0.06005 0.15000 0.16250
v -0.06005 0.19900 0.16250
v -0.08750 0.19900 0.18995
v -0.05000 0.19900 0.12500
v 0.05000 0.19900 0.12500
v 0.06005 0.15000 0.08750
v 0.05000 0.15000 0.12500
v 0.06005 0.19900 0.08750
v 0.08750 0.19900 0.06005
v 0.12500 0.15000 0.05000
v 0.08750 0.15000 0.06005
v 0.12500 0.19900 0.05000
v 0.08750 0.19900 0.06005
v 0.06005 0.19900 0.08750
v 0.06005 0.19900 0.16250
v 0.08750 0.19900 0.18995
v 0.12500 0.19900 0.05000
v 0.06005 0.19900 0.16250
v 0.06005 0.15000 0.16250
v 0.05000 0.19900 0.12500
v 0.08750 0.19900 0.18995
v 0.08750 0.15000 0.18995
v 0.12500 0.19900 0.20000
v 0.12500 0.19900 0.20000
v 0.12500 0.15000 0.20000
v 0.16250 0.15000 0.06005
v 0.16250 0.19900 0.06005
v 0.16250 0.19900 0.06005
v 0.18995 0.15000 0.08750
v 0.18995 0.19900 0.08750
v 0.16250 0.19900 0.18995
v 0.18995 0.19900 0.08750
v 0.20000 0.15000 0.12500
v 0.20000 0.19900 0.12500
v 0.18995 0.19900 0.16250
v 0.16250 0.15000 0.18995
v 0.18995 0.15000 0.16250
v 0.18995 0.19900 0.16250
v 0.16250 0.19900 0.18995
v 0.20000 0.19900 0.12500
vn -1.0000 0.0000 0.0000
vn -1.0000 0.0000 0.0000
vn -1.0000 0.0000 0.0000
vn 0.0000 0.0000 -1.0000
vn 0.0000 0.0000 -1.0000
vn 0.0000 0.0000 -1.0000
vn 0.0000 0.6931 -0.7208
vn 0.0000 0.6931 -0.7208
vn 0.0000 0.6931 -0.7208
vn -1.0000 0.0000 0.0000
vn 0.0000 -1.0000 0.0000
vn 0.0000 -1.0000 0.0000
vn 0.0000 -1.0000 0.0000
vn -1.0000 0.0000 0.0000
vn 0.0000 1.0000 0.0000
vn 0.0000 1.0000 0.0000
vn 0.0000 1.0000 0.0000
vn 0.0000 1.0000 0.0000
vn 0.0000 1.0000 0.0000
vn 0.0000 1.0000 0.0000
vn 0.0000 1.0000 0.0000
vn 0.0000 1.0000 0.0000
vn 0.0000 1.0000 0.0000
vn 0.0000 0.0000 1.0000
vn 0.0000 0.0000 1.0000
vn 0.0000 0.0000 1.0000
vn 0.0000 1.0000 0.0000
vn 0.0000 1.0000 0.0000
vn 0.0000 1.0000 0.0000
vn 0.0000 1.0000 0.0000
vn 0.0000 1.0000 0.0000
vn 0.0000 1.0000 0.0000
vn 0.0000 1.0000 0.0000
vn 0.0000 1.0000 0.0000
vn 0.0000 1.0000 0.0000
vn 0.0000 1.0000 0.0000
vn 0.0000 1.0000 0.0000
vn 0.0000 1.0000 0.0000
vn 0.0000 0.0000 -1.0000
vn 0.0000 -1.0000 0.0000
vn 1.0000 0.0000 0.0000
vn 1.0000 0.0000 0.0000
vn 1.0000 0.0000 0.0000
vn 0.0000 0.0000 1.0000
vn 1.0000 0.0000 0.0000
vn 0.0000 0.6931 -0.7208
vn 0.0000 1.0000 0.0000
vn 0.0000 1.0000 0.0000
vn 1.0000 0.0000 0.0000
vn 0.0000 1.0000 0.0000
vn 0.0000 1.0000 0.0000
vn 0.0000 1.0000 0.0000
vn 0.0000 1.0000 0.0000
vn 0.0000 1.0000 0.0000
vn -1.0000 0.0000 0.0000
vn -0.8660 0.0000 -0.5000
vn -1.0000 0.0000 0.0000
vn -0.8660 0.0000 -0.5000
vn -0.5000 0.0000 -0.8660
vn 0.0000 0.0000 -1.0000
vn -0.5000 0.0000 -0.8660
vn -0.0000 0.0000 -1.0000
vn 0.0000 1.0000 0.0000
vn 0.0000 1.0000 0.0000
vn 0.0000 1.0000 0.0000
vn 0.0000 1.0000 0.0000
vn 0.0000 1.0000 0.0000
vn -0.8660 0.0000 0.5000
vn -0.8660 0.0000 0.5000
vn 0.0000 1.0000 0.0000
vn -0.5000 0.0000 0.8660
vn -0.5000 0.0000 0.8660
vn 0.0000 1.0000 0.0000
vn 0.0000 0.0000 1.0000
vn -0.0000 0.0000 1.0000
vn 0.5000 0.0000 -0.8660
vn 0.5000 0.0000 -0.8660
vn 0.0000 1.0000 0.0000
vn 0.8660 0.0000 -0.5000
vn 0.8660 0.0000 -0.5000
vn 0.0000 1.0000 0.0000
vn 0.0000 1.0000 0.0000
vn 1.0000 0.0000 0.0000
vn 1.0000 0.0000 0.0000
vn 0.8660 0.0000 0.5000
vn 0.5000 0.0000 0.8660
vn 0.8660 0.0000 0.5000
vn 0.0000 1.0000 0.0000
vn 0.5000 0.0000 0.8660
vn 0.0000 1.0000 0.0000
vn -1.0000 0.0000 0.0000
vn -0.8660 0.0000 -0.5000
vn -1.0000 0.0000 -0.0000
vn -0.8660 0.0000 -0.5000
vn -0.5000 0.0000 -0.8660
vn 0.0000 0.0000 -1.0000
vn -0.5000 0.0000 -0.8660
vn -0.0000 0.0000 -1.0000
vn 0.0000 1.0000 0.0000
vn 0.0000 1.0000 0.0000
vn 0.0000 1.0000 0.0000
vn 0.0000 1.0000 0.0000
vn 0.0000 1.0000 0.0000
vn -0.8660 0.0000 0.5000
vn -0.8660 0.0000 0.5000
vn 0.0000 1.0000 0.0000
vn -0.5000 0.0000 0.8660
vn -0.5000 0.0000 0.8660
vn 0.0000 1.0000 0.0000
vn 0.0000 0.0000 1.0000
vn -0.0000 0.0000 1.0000
vn 0.5000 0.0000 -0.8660
vn 0.5000 0.0000 -0.8660
vn 0.0000 1.0000 0.0000
vn 0.8660 0.0000 -0.5000
vn 0.8660 0.0000 -0.5000
vn 0.0000 1.0000 0.0000
vn 0.0000 1.0000 0.0000
vn 1.0000 0.0000 0.0000
vn 1.0000 0.0000 -0.0000
vn 0.8660 0.0000 0.5000
vn 0.5000 0.0000 0.8660
vn 0.8660 0.0000 0.5000
vn 0.0000 1.0000 0.0000
vn 0.5000 0.0000 0.8660
vn 0.0000 1.0000 0.0000
f 1//1 2//2 3//3
f 4//4 5//5 6//6
f 7//7 8//8 9//9
f 10//10 2//2 1//1
f 11//11 12//12 13//13
f 10//10 14//14 2//2
f 15//15 16//16 17//17
f 15//15 18//18 16//16
f 15//15 17//17 19//19
f 20//20 18//18 15//15
f 20//20 21//21 18//18
f 20//20 22//22 21//21
f 20//20 23//23 22//22
f 24//24 25//25 26//26
f 15//15 19//19 27//27
f 28//28 29//29 19//19
f 30//30 31//31 28//28
f 32//32 33//33 30//30
f 20//20 34//34 23//23
f 33//33 32//32 35//35
f 36//36 37//37 35//35
f 23//23 38//38 36//36
f 5//5 39//39 6//6
f 13//13 12//12 40//40
f 41//41 42//42 43//43
f 24//24 44//44 25//25
f 45//45 41//41 43//43
f 9//9 8//8 46//46
f 28//28 31//31 29//29
f 30//30 33//33 31//31
f 27//27 19//19 29//29
f 35//35 47//47 33//33
f 35//35 37//37 47//47
f 36//36 38//38 37//37
f 23//23 34//34 38//38
f 20//20 48//48 34//34
f 45//45 43//43 49//49
f 27//27 29//29 50//50
f 27//27 50//50 51//51
f 27//27 51//51 52//52
f 48//48 53//53 34//34
f 48//48 52//52 54//54
f 48//48 27//27 52//52
f 48//48 54//54 53//53
f 55//55 56//56 57//57
f 58//58 56//56 55//55
f 59//59 60//60 61//61
f 59//59 62//62 60//60
f 58//58 61//61 56//56
f 59//59 61//61 58//58
f 63//63 64//64 65//65
f 63//63 66//66 67//67
f 68//68 57//57 69//69
f 55//55 57//57 68//68
f 64//64 70//70 65//65
f 71//71 69//69 72//72
f 63//63 65//65 66//66
f 68//68 69//69 71//71
f 67//67 66//66 73//73
f 74//74 72//72 75//75
f 71//71 72//72 74//74
f 62//62 76//76 60//60
f 62//62 77//77 76//76
f 67//67 73//73 78//78
f 77//77 79//79 76//76
f 77//77 80//80 79//79
f 78//78 81//81 82//82
f 80//80 83//83 79//79
f 80//80 84//84 83//83
f 78//78 73//73 81//81
f 85//85 86//86 87//87
f 82//82 81//81 88//88
f 85//85 89//89 86//86
f 89//89 75//75 86//86
f 74//74 75//75 89//89
f 84//84 87//87 83//83
f 85//85 87//87 84//84
f 82//82 88//88 90//90
f 91//91 92//92 93//93
f 94//94 92//92 91//91
f 95//95 96//96 97//97
f 95//95 98//98 96//96
f 94//94 97//97 92//92
f 95//95 97//97 94//94
f 99//99 100//100 101//101
f 99//99 102//102 103//103
f 104//104 93//93 105//105
f 91//91 93//93 104//104
f 100//100 106//106 101//101
f 107//107 105//105 108//108
f 99//99 101//101 102//102
f 104//104 105//105 107//107
f 103//103 102//102 109//109
f 110//110 108//108 111//111
f 107//107 108//108 110//110
f 98//98 112//112 96//96
f 98//98 113//113 112//112
f 103//103 109//109 114//114
f 113//113 115//115 112//112
f 113//113 116//116 115//115
f 114//114 117//117 118//118
f 116//116 119//119 115//115
f 116//116 120//120 119//119
f 114//114 109//109 117//117
f 121//121 122//122 123//123
f 118//118 117//117 124//124
f 121//121 125//125 122//122
f 125//125 111//111 122//122
f 110//110 111//111 125//125
f 120//120 123//123 119//119
f 120//120 121//121 123//123
f 118//118 124//124 126//126
