v -0.12300 0.15000 0.12500
v -0.12300 -0.11000 -0.37500
v -0.12300 -0.15000 -0.37500
v -0.12300 -0.15000 -0.37500
v -0.12300 -0.11000 -0.37500
v 0.12300 -0.15000 -0.37500
v -0.12300 0.15000 0.12500
v 0.12300 -0.11000 -0.37500
v -0.12300 -0.11000 -0.37500
v -0.12300 -0.15000 0.37500
v -0.12300 -0.15000 0.37500
v -0.12300 -0.15000 -0.37500
v 0.12300 -0.15000 0.37500
v -0.12300 0.15000 0.37500
v -0.06495 0.15000 0.21250
v -0.03750 0.15000 0.18505
v -0.12300 0.15000 0.37500
v -0.07500 0.15000 0.25000
v -0.06495 0.15000 0.28750
v -0.03750 0.15000 0.31495
v -0.12300 -0.15000 0.37500
v 0.12300 0.15000 0.37500
v -0.12300 0.15000 0.37500
v 0.00000 0.15000 0.17500
v 0.03750 0.15000 0.18505
v 0.12300 0.15000 0.37500
v 0.12300 -0.11000 -0.37500
v 0.12300 -0.15000 -0.37500
v 0.12300 0.15000 0.12500
v 0.12300 -0.15000 -0.37500
v 0.12300 -0.11000 -0.37500
v 0.12300 -0.15000 0.37500
v 0.12300 -0.15000 0.37500
v 0.12300 0.15000 0.12500
v 0.00000 0.15000 0.32500
v 0.03750 0.15000 0.31495
v 0.12300 0.15000 0.37500
v 0.06495 0.15000 0.21250
v 0.07500 0.15000 0.25000
v 0.06495 0.15000 0.28750
v -0.07500 0.19900 0.25000
v -0.06495 0.15000 0.21250
v -0.07500 0.15000 0.25000
v -0.06495 0.19900 0.28750
v -0.06495 0.15000 0.28750
v -0.06495 0.19900 0.21250
v -0.06495 0.19900 0.28750
v -0.06495 0.19900 0.21250
v -0.07500 0.19900 0.25000
v -0.03750 0.19900 0.18505
v 0.00000 0.15000 0.17500
v -0.03750 0.15000 0.18505
v 0.00000 0.19900 0.17500
v -0.03750 0.19900 0.18505
v -0.03750 0.19900 0.31495
v -0.03750 0.19900 0.31495
v -0.03750 0.15000 0.31495
v 0.00000 0.19900 0.17500
v 0.00000 0.19900 0.32500
v 0.00000 0.19900 0.32500
v 0.00000 0.15000 0.32500
v 0.03750 0.15000 0.18505
v 0.03750 0.19900 0.18505
v 0.03750 0.19900 0.18505
v 0.03750 0.19900 0.31495
v 0.03750 0.19900 0.31495
v 0.03750 0.15000 0.31495
v 0.06495 0.15000 0.21250
v 0.06495 0.19900 0.21250
v 0.06495 0.19900 0.21250
v 0.06495 0.19900 0.28750
v 0.06495 0.19900 0.28750
v 0.06495 0.15000 0.28750
v 0.07500 0.15000 0.25000
v 0.07500 0.19900 0.25000
v 0.07500 0.19900 0.25000
vn -1.0000 0.0000 0.0000
vn -1.0000 0.0000 0.0000
vn -1.0000 0.0000 0.0000
vn 0.0000 0.0000 -1.0000
vn 0.0000 0.0000 -1.0000
vn 0.0000 0.0000 -1.0000
vn -0.0000 0.9714 -0.2375
vn -0.0000 0.8872 -0.4614
vn 0.0000 0.8872 -0.4614
vn -1.0000 0.0000 0.0000
vn 0.0000 -1.0000 0.0000
vn 0.0000 -1.0000 0.0000
vn 0.0000 -1.0000 0.0000
vn -1.0000 0.0000 0.0000
vn 0.0000 1.0000 0.0000
vn 0.0000 1.0000 0.0000
vn 0.0000 1.0000 0.0000
vn 0.0000 1.0000 0.0000
vn 0.0000 1.0000 0.0000
vn 0.0000 1.0000 0.0000
vn 0.0000 0.0000 1.0000
vn 0.0000 0.0000 1.0000
vn 0.0000 0.0000 1.0000
vn 0.0000 1.0000 0.0000
vn 0.0000 1.0000 0.0000
vn 0.0000 1.0000 0.0000
vn 0.0000 0.0000 -1.0000
vn 0.0000 -1.0000 0.0000
vn 1.0000 0.0000 0.0000
vn 1.0000 0.0000 0.0000
vn 1.0000 0.0000 0.0000
vn 0.0000 0.0000 1.0000
vn 1.0000 0.0000 0.0000
vn 0.0000 0.9714 -0.2375
vn 0.0000 1.0000 0.0000
vn 0.0000 1.0000 0.0000
vn 1.0000 0.0000 0.0000
vn 0.0000 1.0000 0.0000
vn 0.0000 1.0000 0.0000
vn 0.0000 1.0000 0.0000
vn -1.0000 0.0000 -0.0000
vn -0.8660 0.0000 -0.5000
vn -1.0000 0.0000 0.0000
vn -0.8660 0.0000 0.5000
vn -0.8660 0.0000 0.5000
vn -0.8660 0.0000 -0.5000
vn 0.0000 1.0000 0.0000
vn 0.0000 1.0000 0.0000
vn 0.0000 1.0000 0.0000
vn -0.5000 0.0000 -0.8660
vn 0.0000 0.0000 -1.0000
vn -0.5000 0.0000 -0.8660
vn 0.0000 0.0000 -1.0000
vn 0.0000 1.0000 0.0000
vn 0.0000 1.0000 0.0000
vn -0.5000 0.0000 0.8660
vn -0.5000 -0.0000 0.8660
vn 0.0000 1.0000 0.0000
vn 0.0000 1.0000 0.0000
vn 0.0000 -0.0000 1.0000
vn 0.0000 0.0000 1.0000
vn 0.5000 0.0000 -0.8660
vn 0.5000 0.0000 -0.8660
vn 0.0000 1.0000 0.0000
vn 0.0000 1.0000 0.0000
vn 0.5000 0.0000 0.8660
vn 0.5000 0.0000 0.8660
vn 0.8660 0.0000 -0.5000
vn 0.8660 0.0000 -0.5000
vn 0.0000 1.0000 0.0000
vn 0.0000 1.0000 0.0000
vn 0.8660 0.0000 0.5000
vn 0.8660 0.0000 0.5000
vn 1.0000 0.0000 0.0000
vn 1.0000 0.0000 0.0000
vn 0.0000 1.0000 0.0000
f 1//1 2//2 3//3
f 4//4 5//5 6//6
f 7//7 8//8 9//9
f 10//10 1//1 3//3
f 11//11 12//12 13//13
f 10//10 14//14 1//1
f 7//7 15//15 16//16
f 17//17 15//15 7//7
f 17//17 18//18 15//15
f 17//17 19//19 18//18
f 17//17 20//20 19//19
f 21//21 22//22 23//23
f 7//7 16//16 24//24
f 7//7 24//24 25//25
f 17//17 26//26 20//20
f 5//5 27//27 6//6
f 13//13 12//12 28//28
f 29//29 30//30 31//31
f 21//21 32//32 22//22
f 33//33 30//30 29//29
f 7//7 34//34 8//8
f 7//7 25//25 34//34
f 26//26 35//35 20//20
f 26//26 36//36 35//35
f 33//33 29//29 37//37
f 34//34 25//25 38//38
f 34//34 38//38 39//39
f 34//34 39//39 40//40
f 26//26 40//40 36//36
f 26//26 34//34 40//40
f 41//41 42//42 43//43
f 44//44 43//43 45//45
f 41//41 46//46 42//42
f 44//44 41//41 43//43
f 47//47 48//48 49//49
f 50//50 51//51 52//52
f 50//50 53//53 51//51
f 46//46 52//52 42//42
f 47//47 54//54 48//48
f 46//46 50//50 52//52
f 47//47 55//55 54//54
f 56//56 45//45 57//57
f 44//44 45//45 56//56
f 55//55 58//58 54//54
f 55//55 59//59 58//58
f 56//56 57//57 60//60
f 60//60 57//57 61//61
f 53//53 62//62 51//51
f 53//53 63//63 62//62
f 59//59 64//64 58//58
f 59//59 65//65 64//64
f 60//60 61//61 66//66
f 66//66 61//61 67//67
f 63//63 68//68 62//62
f 63//63 69//69 68//68
f 65//65 70//70 64//64
f 65//65 71//71 70//70
f 72//72 67//67 73//73
f 66//66 67//67 72//72
f 69//69 74//74 68//68
f 75//75 73//73 74//74
f 72//72 73//73 75//75
f 71//71 76//76 70//70
f 75//75 74//74 69//69
