v -0.24800 0.15000 0.25000
v -0.24800 -0.11000 -0.50000
v -0.24800 -0.15000 -0.50000
v -0.24800 -0.15000 -0.50000
v -0.24800 -0.11000 -0.50000
v 0.24800 -0.15000 -0.50000
v -0.24800 0.15000 0.25000
v 0.24800 -0.11000 -0.50000
v -0.24800 -0.11000 -0.50000
v -0.24800 -0.15000 0.50000
v -0.24800 -0.15000 0.50000
v -0.24800 -0.15000 -0.50000
v 0.24800 -0.15000 0.50000
v -0.24800 0.15000 0.50000
v -0.18995 0.15000 0.33750
v -0.16250 0.15000 0.31005
v -0.20000 0.15000 0.37500
v -0.24800 0.15000 0.50000
v -0.18995 0.15000 0.41250
v -0.16250 0.15000 0.43995
v -0.12500 0.15000 0.30000
v -0.12500 0.15000 0.45000
v -0.24800 -0.15000 0.50000
v 0.24800 0.15000 0.50000
v -0.24800 0.15000 0.50000
v 0.12500 0.15000 0.45000
v 0.24800 0.15000 0.25000
v -0.08750 0.15000 0.31005
v 0.12500 0.15000 0.30000
v -0.06005 0.15000 0.33750
v 0.08750 0.15000 0.31005
v -0.05000 0.15000 0.37500
v 0.06005 0.15000 0.33750
v 0.08750 0.15000 0.43995
v -0.08750 0.15000 0.43995
v -0.06005 0.15000 0.41250
v 0.06005 0.15000 0.41250
v 0.24800 -0.11000 -0.50000
v 0.24800 -0.15000 -0.50000
v 0.24800 0.15000 0.25000
v 0.24800 -0.15000 -0.50000
v 0.24800 -0.11000 -0.50000
v 0.24800 -0.15000 0.50000
v 0.24800 -0.15000 0.50000
v 0.05000 0.15000 0.37500
v 0.24800 0.15000 0.50000
v 0.24800 0.15000 0.50000
v 0.16250 0.15000 0.31005
v 0.16250 0.15000 0.43995
v 0.18995 0.15000 0.33750
v 0.20000 0.15000 0.37500
v 0.18995 0.15000 0.41250
v -0.20000 0.19900 0.37500
v -0.18995 0.15000 0.33750
v -0.20000 0.15000 0.37500
v -0.18995 0.19900 0.33750
v -0.18995 0.19900 0.41250
v -0.18995 0.15000 0.41250
v -0.18995 0.19900 0.33750
v -0.20000 0.19900 0.37500
v -0.18995 0.19900 0.41250
v -0.16250 0.15000 0.31005
v -0.16250 0.19900 0.31005
v -0.16250 0.19900 0.31005
v -0.12500 0.15000 0.30000
v -0.12500 0.19900 0.30000
v -0.16250 0.19900 0.43995
v -0.12500 0.19900 0.30000
v -0.16250 0.19900 0.43995
v -0.16250 0.15000 0.43995
v -0.12500 0.19900 0.45000
v -0.12500 0.15000 0.45000
v -0.12500 0.19900 0.45000
v -0.08750 0.15000 0.31005
v -0.08750 0.19900 0.31005
v -0.08750 0.19900 0.31005
v -0.06005 0.15000 0.33750
v -0.08750 0.19900 0.43995
v -0.06005 0.19900 0.33750
v -0.06005 0.19900 0.33750
v -0.08750 0.19900 0.43995
v -0.08750 0.15000 0.43995
v -0.06005 0.19900 0.41250
v -0.06005 0.15000 0.41250
v -0.06005 0.19900 0.41250
v -0.05000 0.15000 0.37500
v -0.05000 0.19900 0.37500
v -0.05000 0.19900 0.37500
v 0.05000 0.19900 0.37500
v 0.06005 0.15000 0.33750
v 0.05000 0.15000 0.37500
v 0.06005 0.19900 0.33750
v 0.06005 0.19900 0.41250
v 0.06005 0.15000 0.41250
v 0.06005 0.19900 0.33750
v 0.05000 0.19900 0.37500
v 0.06005 0.19900 0.41250
v 0.08750 0.15000 0.31005
v 0.08750 0.19900 0.31005
v 0.08750 0.19900 0.31005
v 0.12500 0.15000 0.30000
v 0.12500 0.19900 0.30000
v 0.08750 0.19900 0.43995
v 0.12500 0.19900 0.30000
v 0.08750 0.19900 0.43995
v 0.08750 0.15000 0.43995
v 0.12500 0.19900 0.45000
v 0.12500 0.15000 0.45000
v 0.12500 0.19900 0.45000
v 0.16250 0.15000 0.31005
v 0.16250 0.19900 0.31005
v 0.16250 0.19900 0.31005
v 0.18995 0.15000 0.33750
v 0.18995 0.19900 0.33750
v 0.16250 0.19900 0.43995
v 0.18995 0.19900 0.33750
v 0.16250 0.19900 0.43995
v 0.16250 0.15000 0.43995
v 0.18995 0.19900 0.41250
v 0.18995 0.15000 0.41250
v 0.18995 0.19900 0.41250
v 0.20000 0.15000 0.37500
v 0.20000 0.19900 0.37500
v 0.20000 0.19900 0.37500
vn -1.0000 0.0000 0.0000
vn -1.0000 0.0000 0.0000
vn -1.0000 0.0000 0.0000
vn 0.0000 0.0000 -1.0000
vn 0.0000 0.0000 -1.0000
vn 0.0000 0.0000 -1.0000
vn 0.0000 0.9861 -0.1661
vn 0.0000 0.9448 -0.3275
vn 0.0000 0.9448 -0.3275
vn -1.0000 0.0000 0.0000
vn 0.0000 -1.0000 0.0000
vn 0.0000 -1.0000 0.0000
vn 0.0000 -1.0000 0.0000
vn -1.0000 0.0000 0.0000
vn 0.0000 1.0000 0.0000
vn 0.0000 1.0000 0.0000
vn 0.0000 1.0000 0.0000
vn 0.0000 1.0000 0.0000
vn 0.0000 1.0000 0.0000
vn 0.0000 1.0000 0.0000
vn 0.0000 1.0000 0.0000
vn 0.0000 1.0000 0.0000
vn 0.0000 0.0000 1.0000
vn 0.0000 0.0000 1.0000
vn 0.0000 0.0000 1.0000
vn 0.0000 1.0000 0.0000
vn 0.0000 0.9861 -0.1661
vn 0.0000 1.0000 0.0000
vn 0.0000 1.0000 0.0000
vn 0.0000 1.0000 0.0000
vn 0.0000 1.0000 0.0000
vn 0.0000 1.0000 0.0000
vn 0.0000 1.0000 0.0000
vn 0.0000 1.0000 0.0000
vn 0.0000 1.0000 0.0000
vn 0.0000 1.0000 0.0000
vn 0.0000 1.0000 0.0000
vn 0.0000 0.0000 -1.0000
vn 0.0000 -1.0000 0.0000
vn 1.0000 0.0000 0.0000
vn 1.0000 0.0000 0.0000
vn 1.0000 0.0000 0.0000
vn 0.0000 0.0000 1.0000
vn 1.0000 0.0000 0.0000
vn 0.0000 1.0000 0.0000
vn 0.0000 1.0000 0.0000
vn 1.0000 0.0000 0.0000
vn 0.0000 1.0000 0.0000
vn 0.0000 1.0000 0.0000
vn 0.0000 1.0000 0.0000
vn 0.0000 1.0000 0.0000
vn 0.0000 1.0000 0.0000
vn -1.0000 0.0000 0.0000
vn -0.8660 0.0000 -0.5000
vn -1.0000 0.0000 0.0000
vn -0.8660 0.0000 -0.5000
vn -0.8660 0.0000 0.5000
vn -0.8660 0.0000 0.5000
vn 0.0000 1.0000 0.0000
vn 0.0000 1.0000 0.0000
vn 0.0000 1.0000 0.0000
vn -0.5000 0.0000 -0.8660
vn -0.5000 0.0000 -0.8660
vn 0.0000 1.0000 0.0000
vn -0.0000 0.0000 -1.0000
vn 0.0000 0.0000 -1.0000
vn 0.0000 1.0000 0.0000
vn 0.0000 1.0000 0.0000
vn -0.5000 0.0000 0.8660
vn -0.5000 0.0000 0.8660
vn -0.0000 0.0000 1.0000
vn 0.0000 0.0000 1.0000
vn 0.0000 1.0000 0.0000
vn 0.5000 0.0000 -0.8660
vn 0.5000 0.0000 -0.8660
vn 0.0000 1.0000 0.0000
vn 0.8660 0.0000 -0.5000
vn 0.0000 1.0000 0.0000
vn 0.0000 1.0000 0.0000
vn 0.8660 0.0000 -0.5000
vn 0.5000 0.0000 0.8660
vn 0.5000 0.0000 0.8660
vn 0.8660 0.0000 0.5000
vn 0.8660 0.0000 0.5000
vn 0.0000 1.0000 0.0000
vn 1.0000 0.0000 0.0000
vn 1.0000 0.0000 0.0000
vn 0.0000 1.0000 0.0000
vn -1.0000 0.0000 0.0000
vn -0.8660 0.0000 -0.5000
vn -1.0000 0.0000 -0.0000
vn -0.8660 0.0000 -0.5000
vn -0.8660 0.0000 0.5000
vn -0.8660 0.0000 0.5000
vn 0.0000 1.0000 0.0000
vn 0.0000 1.0000 0.0000
vn 0.0000 1.0000 0.0000
vn -0.5000 0.0000 -0.8660
vn 0.0000 1.0000 0.0000
vn -0.5000 0.0000 -0.8660
vn -0.0000 0.0000 -1.0000
vn 0.0000 0.0000 -1.0000
vn 0.0000 1.0000 0.0000
vn 0.0000 1.0000 0.0000
vn -0.5000 0.0000 0.8660
vn -0.5000 0.0000 0.8660
vn -0.0000 0.0000 1.0000
vn 0.0000 0.0000 1.0000
vn 0.0000 1.0000 0.0000
vn 0.5000 0.0000 -0.8660
vn 0.5000 0.0000 -0.8660
vn 0.0000 1.0000 0.0000
vn 0.8660 0.0000 -0.5000
vn 0.8660 0.0000 -0.5000
vn 0.0000 1.0000 0.0000
vn 0.0000 1.0000 0.0000
vn 0.5000 0.0000 0.8660
vn 0.5000 0.0000 0.8660
vn 0.8660 0.0000 0.5000
vn 0.8660 0.0000 0.5000
vn 0.0000 1.0000 0.0000
vn 1.0000 0.0000 0.0000
vn 1.0000 0.0000 -0.0000
vn 0.0000 1.0000 0.0000
f 1//1 2//2 3//3
f 4//4 5//5 6//6
f 7//7 8//8 9//9
f 10//10 1//1 3//3
f 11//11 12//12 13//13
f 10//10 14//14 1//1
f 7//7 15//15 16//16
f 7//7 17//17 15//15
f 18//18 17//17 7//7
f 18//18 19//19 17//17
f 18//18 20//20 19//19
f 7//7 16//16 21//21
f 18//18 22//22 20//20
f 23//23 24//24 25//25
f 18//18 26//26 22//22
f 7//7 21//21 27//27
f 28//28 29//29 21//21
f 30//30 31//31 28//28
f 32//32 33//33 30//30
f 22//22 34//34 35//35
f 33//33 32//32 36//36
f 35//35 37//37 36//36
f 5//5 38//38 6//6
f 13//13 12//12 39//39
f 40//40 41//41 42//42
f 23//23 43//43 24//24
f 44//44 41//41 40//40
f 7//7 27//27 8//8
f 30//30 33//33 31//31
f 28//28 31//31 29//29
f 36//36 45//45 33//33
f 36//36 37//37 45//45
f 35//35 34//34 37//37
f 22//22 26//26 34//34
f 18//18 46//46 26//26
f 27//27 21//21 29//29
f 44//44 40//40 47//47
f 27//27 29//29 48//48
f 46//46 49//49 26//26
f 27//27 48//48 50//50
f 27//27 50//50 51//51
f 46//46 51//51 52//52
f 46//46 52//52 49//49
f 46//46 27//27 51//51
f 53//53 54//54 55//55
f 56//56 54//54 53//53
f 57//57 55//55 58//58
f 53//53 55//55 57//57
f 59//59 60//60 61//61
f 56//56 62//62 54//54
f 63//63 62//62 56//56
f 64//64 59//59 61//61
f 63//63 65//65 62//62
f 63//63 66//66 65//65
f 64//64 67//67 68//68
f 69//69 58//58 70//70
f 57//57 58//58 69//69
f 64//64 61//61 67//67
f 71//71 70//70 72//72
f 68//68 67//67 73//73
f 69//69 70//70 71//71
f 66//66 74//74 65//65
f 66//66 75//75 74//74
f 68//68 73//73 76//76
f 75//75 77//77 74//74
f 76//76 78//78 79//79
f 75//75 80//80 77//77
f 81//81 72//72 82//82
f 76//76 73//73 78//78
f 71//71 72//72 81//81
f 83//83 82//82 84//84
f 83//83 81//81 82//82
f 79//79 78//78 85//85
f 80//80 86//86 77//77
f 80//80 87//87 86//86
f 87//87 84//84 86//86
f 87//87 83//83 84//84
f 79//79 85//85 88//88
f 89//89 90//90 91//91
f 92//92 90//90 89//89
f 93//93 91//91 94//94
f 89//89 91//91 93//93
f 95//95 96//96 97//97
f 92//92 98//98 90//90
f 99//99 95//95 97//97
f 100//100 98//98 92//92
f 100//100 101//101 98//98
f 100//100 102//102 101//101
f 99//99 103//103 104//104
f 105//105 94//94 106//106
f 93//93 94//94 105//105
f 99//99 97//97 103//103
f 107//107 106//106 108//108
f 104//104 103//103 109//109
f 105//105 106//106 107//107
f 102//102 110//110 101//101
f 102//102 111//111 110//110
f 104//104 109//109 112//112
f 111//111 113//113 110//110
f 111//111 114//114 113//113
f 112//112 115//115 116//116
f 117//117 108//108 118//118
f 112//112 109//109 115//115
f 107//107 108//108 117//117
f 119//119 118//118 120//120
f 119//119 117//117 118//118
f 116//116 115//115 121//121
f 114//114 122//122 113//113
f 114//114 123//123 122//122
f 123//123 120//120 122//122
f 123//123 119//119 120//120
f 116//116 121//121 124//124
