v -0.12066 -0.14666 -0.49000
v -0.12300 -0.14100 -0.49000
v -0.12066 -0.14100 -0.49566
v -0.11500 -0.14666 -0.49566
v -0.11500 -0.14900 -0.49000
v -0.11500 -0.14100 -0.49800
v -0.12300 -0.03850 -0.26335
v -0.12300 -0.02691 -0.28741
v -0.12300 -0.14100 0.49000
v -0.11500 -0.14900 0.49000
v -0.12300 -0.03850 -0.23665
v -0.12300 0.14100 -0.49000
v -0.11500 0.14100 -0.49800
v -0.12300 -0.00603 -0.30406
v -0.12300 0.02000 -0.31000
v -0.12300 -0.02691 -0.03741
v -0.12300 -0.02691 -0.21259
v -0.12300 -0.03850 -0.01335
v -0.12300 -0.00603 -0.05406
v -0.12300 -0.00603 -0.19594
v -0.12300 0.02000 -0.06000
v -0.12300 0.02000 -0.19000
v 0.11500 -0.14900 -0.49000
v 0.11500 -0.14666 -0.49566
v -0.12066 -0.14666 0.49000
v -0.12300 -0.03850 0.01335
v -0.12300 -0.02691 0.03741
v -0.12066 -0.14100 0.49566
v -0.11500 -0.14666 0.49566
v -0.11500 -0.14100 0.49800
v -0.12300 -0.03850 0.23665
v -0.12300 -0.03850 0.26335
v -0.12300 -0.02691 0.28741
v -0.12300 -0.02691 0.21259
v -0.12300 -0.00603 0.19594
v -0.12300 -0.00603 0.05406
v -0.12300 0.02000 0.19000
v -0.12300 0.02000 0.06000
v -0.12300 -0.00603 0.30406
v -0.12066 0.14100 0.49566
v -0.12300 0.14100 0.49000
v 0.11500 -0.14666 0.49566
v 0.11500 -0.14100 0.49800
v -0.11500 0.14100 0.49800
v -0.12066 0.14100 -0.49566
v -0.12300 0.04603 -0.30406
v -0.12300 0.06691 -0.28741
v -0.12300 0.07850 -0.26335
v -0.12300 0.07850 -0.23665
v -0.12300 0.04603 -0.19594
v -0.12300 0.06691 -0.03741
v -0.12300 0.06691 -0.21259
v -0.12300 0.04603 -0.05406
v -0.12300 0.07850 -0.01335
v -0.12300 0.07850 0.01335
v -0.12300 0.07850 0.23665
v -0.12066 0.14666 -0.49000
v -0.11500 0.14666 -0.49566
v -0.11500 0.14900 -0.49000
v -0.07500 0.14900 -0.37500
v -0.06495 0.14900 -0.41250
v -0.03750 0.14900 -0.43995
v -0.07500 0.14900 -0.12500
v -0.06495 0.14900 -0.33750
v -0.12066 0.14666 0.49000
v -0.11500 0.14900 0.49000
v -0.06495 0.14900 -0.16250
v -0.07500 0.14900 0.12500
v -0.06495 0.14900 -0.08750
v 0.11500 0.14100 -0.49800
v 0.00000 0.14900 -0.45000
v 0.11500 0.14666 -0.49566
v -0.03750 0.14900 -0.31005
v 0.00000 0.14900 -0.20000
v 0.00000 0.14900 -0.30000
v -0.03750 0.14900 -0.18995
v -0.06495 0.14900 0.08750
v -0.03750 0.14900 -0.06005
v 0.00000 0.14900 0.05000
v 0.00000 0.14900 -0.05000
v -0.12300 0.04603 0.19594
v -0.12300 0.04603 0.05406
v -0.12300 0.06691 0.21259
v -0.12300 0.06691 0.03741
v -0.12300 0.07850 0.26335
v -0.12300 0.02000 0.31000
v -0.12300 0.04603 0.30406
v -0.12300 0.06691 0.28741
v -0.11500 0.14666 0.49566
v -0.06495 0.14900 0.16250
v -0.07500 0.14900 0.37500
v -0.06495 0.14900 0.33750
v -0.06495 0.14900 0.41250
v -0.03750 0.14900 0.43995
v -0.03750 0.14900 0.06005
v -0.03750 0.14900 0.31005
v -0.03750 0.14900 0.18995
v 0.00000 0.14900 0.20000
v 0.00000 0.14900 0.45000
v 0.11500 0.14100 0.49800
v 0.11500 0.14666 0.49566
v 0.00000 0.14900 0.30000
v 0.11500 -0.14100 -0.49800
v 0.12066 -0.14666 -0.49000
v 0.12066 -0.14100 -0.49566
v 0.12300 -0.14100 -0.49000
v 0.12300 -0.02691 -0.28741
v 0.12300 -0.03850 -0.26335
v 0.12300 -0.03850 -0.23665
v 0.12066 -0.14666 0.49000
v 0.12300 -0.14100 0.49000
v 0.12300 0.14100 -0.49000
v 0.12300 -0.00603 -0.30406
v 0.12300 0.02000 -0.31000
v 0.12300 -0.02691 -0.21259
v 0.12300 -0.03850 -0.01335
v 0.12300 -0.00603 -0.19594
v 0.12300 -0.02691 -0.03741
v 0.12300 -0.00603 -0.05406
v 0.12300 0.02000 -0.19000
v 0.12300 0.04603 -0.19594
v 0.11500 -0.14900 0.49000
v 0.12300 -0.03850 0.01335
v 0.12300 -0.02691 0.03741
v 0.12066 -0.14100 0.49566
v 0.12300 -0.03850 0.23665
v 0.12300 -0.03850 0.26335
v 0.12300 -0.02691 0.28741
v 0.12300 -0.00603 0.05406
v 0.12300 -0.02691 0.21259
v 0.12300 0.02000 0.06000
v 0.12300 -0.00603 0.19594
v 0.12300 0.02000 0.19000
v 0.12300 -0.00603 0.30406
v 0.12300 0.02000 0.31000
v 0.12300 0.14100 0.49000
v 0.11500 0.14900 -0.49000
v 0.03750 0.14900 -0.31005
v 0.03750 0.14900 -0.43995
v 0.06495 0.14900 -0.16250
v 0.06495 0.14900 -0.33750
v 0.03750 0.14900 -0.18995
v 0.03750 0.14900 0.06005
v 0.03750 0.14900 -0.06005
v 0.06495 0.14900 -0.08750
v 0.12066 0.14100 -0.49566
v 0.12300 0.04603 -0.30406
v 0.12300 0.06691 -0.28741
v 0.12300 0.07850 -0.26335
v 0.12300 0.06691 -0.21259
v 0.12300 0.02000 -0.06000
v 0.12300 0.04603 -0.05406
v 0.12300 0.06691 -0.03741
v 0.12300 0.07850 -0.23665
v 0.12300 0.07850 -0.01335
v 0.06495 0.14900 -0.41250
v 0.07500 0.14900 -0.37500
v 0.07500 0.14900 -0.12500
v 0.12066 0.14666 -0.49000
v 0.07500 0.14900 0.12500
v 0.06495 0.14900 0.08750
v 0.12066 0.14666 0.49000
v 0.03750 0.14900 0.18995
v 0.03750 0.14900 0.31005
v 0.06495 0.14900 0.16250
v 0.11500 0.14900 0.49000
v 0.06495 0.14900 0.33750
v 0.03750 0.14900 0.43995
v 0.12300 0.04603 0.05406
v 0.12300 0.06691 0.03741
v 0.12300 0.04603 0.19594
v 0.12300 0.06691 0.21259
v 0.12300 0.07850 0.01335
v 0.12300 0.07850 0.23665
v 0.12066 0.14100 0.49566
v 0.12300 0.04603 0.30406
v 0.12300 0.06691 0.28741
v 0.12300 0.07850 0.26335
v 0.07500 0.14900 0.37500
v 0.06495 0.14900 0.41250
v -0.07500 0.14900 -0.37500
v -0.06495 0.19900 -0.41250
v -0.06495 0.14900 -0.41250
v -0.07500 0.19900 -0.37500
v -0.07500 0.19900 -0.37500
v -0.06495 0.19900 -0.33750
v -0.06495 0.19900 -0.41250
v -0.06495 0.14900 -0.33750
v -0.06495 0.19900 -0.33750
v -0.03750 0.19900 -0.43995
v -0.03750 0.14900 -0.43995
v -0.03750 0.19900 -0.43995
v -0.03750 0.14900 -0.31005
v -0.03750 0.19900 -0.31005
v -0.03750 0.19900 -0.31005
v 0.00000 0.19900 -0.45000
v 0.00000 0.19900 -0.45000
v 0.00000 0.14900 -0.45000
v 0.00000 0.14900 -0.30000
v 0.00000 0.19900 -0.30000
v 0.00000 0.19900 -0.30000
v 0.03750 0.19900 -0.43995
v 0.03750 0.19900 -0.43995
v 0.03750 0.14900 -0.43995
v 0.03750 0.14900 -0.31005
v 0.03750 0.19900 -0.31005
v 0.03750 0.19900 -0.31005
v 0.06495 0.19900 -0.41250
v 0.06495 0.14900 -0.41250
v 0.06495 0.19900 -0.41250
v 0.06495 0.14900 -0.33750
v 0.06495 0.19900 -0.33750
v 0.06495 0.19900 -0.33750
v 0.07500 0.19900 -0.37500
v 0.07500 0.14900 -0.37500
v 0.07500 0.19900 -0.37500
v -0.07500 0.14900 -0.12500
v -0.06495 0.19900 -0.16250
v -0.06495 0.14900 -0.16250
v -0.07500 0.19900 -0.12500
v -0.07500 0.19900 -0.12500
v -0.06495 0.19900 -0.08750
v -0.06495 0.19900 -0.16250
v -0.06495 0.14900 -0.08750
v -0.06495 0.19900 -0.08750
v -0.03750 0.19900 -0.18995
v -0.03750 0.14900 -0.18995
v -0.03750 0.19900 -0.18995
v -0.03750 0.14900 -0.06005
v -0.03750 0.19900 -0.06005
v -0.03750 0.19900 -0.06005
v 0.00000 0.19900 -0.20000
v 0.00000 0.19900 -0.20000
v 0.00000 0.14900 -0.20000
v 0.00000 0.14900 -0.05000
v 0.00000 0.19900 -0.05000
v 0.00000 0.19900 -0.05000
v 0.03750 0.19900 -0.18995
v 0.03750 0.19900 -0.18995
v 0.03750 0.14900 -0.18995
v 0.03750 0.14900 -0.06005
v 0.03750 0.19900 -0.06005
v 0.03750 0.19900 -0.06005
v 0.06495 0.19900 -0.16250
v 0.06495 0.14900 -0.16250
v 0.06495 0.19900 -0.16250
v 0.06495 0.14900 -0.08750
v 0.06495 0.19900 -0.08750
v 0.06495 0.19900 -0.08750
v 0.07500 0.19900 -0.12500
v 0.07500 0.14900 -0.12500
v 0.07500 0.19900 -0.12500
v -0.06495 0.14900 0.08750
v -0.07500 0.14900 0.12500
v -0.06495 0.19900 0.08750
v -0.07500 0.19900 0.12500
v -0.06495 0.14900 0.16250
v -0.06495 0.19900 0.16250
v -0.06495 0.19900 0.08750
v -0.07500 0.19900 0.12500
v -0.06495 0.19900 0.16250
v -0.03750 0.19900 0.06005
v -0.03750 0.14900 0.06005
v -0.03750 0.19900 0.06005
v -0.03750 0.14900 0.18995
v -0.03750 0.19900 0.18995
v -0.03750 0.19900 0.18995
v 0.00000 0.19900 0.05000
v 0.00000 0.19900 0.05000
v 0.00000 0.14900 0.05000
v 0.00000 0.14900 0.20000
v 0.00000 0.19900 0.20000
v 0.00000 0.19900 0.20000
v 0.03750 0.19900 0.06005
v 0.03750 0.19900 0.06005
v 0.03750 0.14900 0.06005
v 0.03750 0.14900 0.18995
v 0.03750 0.19900 0.18995
v 0.03750 0.19900 0.18995
v 0.06495 0.19900 0.08750
v 0.06495 0.14900 0.08750
v 0.06495 0.19900 0.08750
v 0.06495 0.14900 0.16250
v 0.06495 0.19900 0.16250
v 0.06495 0.19900 0.16250
v 0.07500 0.19900 0.12500
v 0.07500 0.14900 0.12500
v 0.07500 0.19900 0.12500
v -0.06495 0.14900 0.33750
v -0.07500 0.14900 0.37500
v -0.06495 0.19900 0.33750
v -0.07500 0.19900 0.37500
v -0.06495 0.14900 0.41250
v -0.06495 0.19900 0.41250
v -0.06495 0.19900 0.33750
v -0.07500 0.19900 0.37500
v -0.06495 0.19900 0.41250
v -0.03750 0.19900 0.31005
v -0.03750 0.14900 0.31005
v -0.03750 0.19900 0.31005
v -0.03750 0.14900 0.43995
v -0.03750 0.19900 0.43995
v -0.03750 0.19900 0.43995
v 0.00000 0.19900 0.30000
v 0.00000 0.19900 0.30000
v 0.00000 0.14900 0.30000
v 0.00000 0.14900 0.45000
v 0.00000 0.19900 0.45000
v 0.00000 0.19900 0.45000
v 0.03750 0.19900 0.31005
v 0.03750 0.19900 0.31005
v 0.03750 0.14900 0.31005
v 0.03750 0.14900 0.43995
v 0.03750 0.19900 0.43995
v 0.03750 0.19900 0.43995
v 0.06495 0.19900 0.33750
v 0.06495 0.14900 0.33750
v 0.06495 0.19900 0.33750
v 0.06495 0.14900 0.41250
v 0.06495 0.19900 0.41250
v 0.06495 0.19900 0.41250
v 0.07500 0.19900 0.37500
v 0.07500 0.14900 0.37500
v 0.07500 0.19900 0.37500
v -0.12300 -0.02691 -0.28741
v -0.12300 -0.03850 -0.26335
v 0.12300 -0.03850 -0.26335
v -0.12300 -0.00603 -0.30406
v 0.12300 -0.02691 -0.28741
v -0.12300 0.02000 -0.31000
v 0.12300 -0.00603 -0.30406
v -0.12300 -0.03850 -0.23665
v 0.12300 -0.03850 -0.23665
v -0.12300 -0.02691 -0.21259
v 0.12300 -0.02691 -0.21259
v -0.12300 -0.00603 -0.19594
v 0.12300 -0.00603 -0.19594
v -0.12300 0.02000 -0.19000
v 0.12300 0.02000 -0.19000
v -0.12300 0.04603 -0.30406
v 0.12300 0.02000 -0.31000
v -0.12300 0.06691 -0.28741
v 0.12300 0.04603 -0.30406
v -0.12300 0.07850 -0.26335
v 0.12300 0.06691 -0.28741
v -0.12300 0.07850 -0.23665
v 0.12300 0.07850 -0.26335
v -0.12300 0.04603 -0.19594
v 0.12300 0.04603 -0.19594
v -0.12300 0.06691 -0.21259
v 0.12300 0.06691 -0.21259
v 0.12300 0.07850 -0.23665
v -0.12300 -0.02691 -0.03741
v -0.12300 -0.03850 -0.01335
v 0.12300 -0.03850 -0.01335
v -0.12300 -0.00603 -0.05406
v 0.12300 -0.02691 -0.03741
v -0.12300 0.02000 -0.06000
v 0.12300 -0.00603 -0.05406
v -0.12300 -0.03850 0.01335
v 0.12300 -0.03850 0.01335
v -0.12300 -0.02691 0.03741
v 0.12300 -0.02691 0.03741
v -0.12300 -0.00603 0.05406
v 0.12300 -0.00603 0.05406
v -0.12300 0.02000 0.06000
v 0.12300 0.02000 0.06000
v -0.12300 0.04603 -0.05406
v 0.12300 0.02000 -0.06000
v -0.12300 0.06691 -0.03741
v 0.12300 0.04603 -0.05406
v -0.12300 0.07850 -0.01335
v 0.12300 0.06691 -0.03741
v -0.12300 0.07850 0.01335
v 0.12300 0.07850 -0.01335
v -0.12300 0.04603 0.05406
v 0.12300 0.04603 0.05406
v -0.12300 0.06691 0.03741
v 0.12300 0.06691 0.03741
v 0.12300 0.07850 0.01335
v -0.12300 -0.02691 0.21259
v -0.12300 -0.03850 0.23665
v 0.12300 -0.03850 0.23665
v -0.12300 -0.00603 0.19594
v 0.12300 -0.02691 0.21259
v -0.12300 0.02000 0.19000
v 0.12300 -0.00603 0.19594
v -0.12300 -0.03850 0.26335
v 0.12300 -0.03850 0.26335
v -0.12300 -0.02691 0.28741
v 0.12300 -0.02691 0.28741
v -0.12300 -0.00603 0.30406
v 0.12300 -0.00603 0.30406
v -0.12300 0.02000 0.31000
v 0.12300 0.02000 0.31000
v -0.12300 0.04603 0.19594
v 0.12300 0.02000 0.19000
v -0.12300 0.06691 0.21259
v 0.12300 0.04603 0.19594
v -0.12300 0.07850 0.23665
v 0.12300 0.06691 0.21259
v -0.12300 0.07850 0.26335
v 0.12300 0.07850 0.23665
v -0.12300 0.04603 0.30406
v 0.12300 0.04603 0.30406
v -0.12300 0.06691 0.28741
v 0.12300 0.06691 0.28741
v 0.12300 0.07850 0.26335
vn -0.6887 -0.6887 -0.2265
vn -0.9641 -0.1877 -0.1877
vn -0.6887 -0.2265 -0.6887
vn -0.2265 -0.6887 -0.6887
vn -0.1877 -0.9641 -0.1877
vn -0.1877 -0.1877 -0.9641
vn -1.0000 0.0000 0.0000
vn -1.0000 0.0000 0.0000
vn -0.9641 -0.1877 0.1877
vn -0.1877 -0.9641 0.1877
vn -1.0000 0.0000 0.0000
vn -0.9641 0.1877 -0.1877
vn -0.1877 0.1877 -0.9641
vn -1.0000 0.0000 0.0000
vn -1.0000 0.0000 0.0000
vn -1.0000 0.0000 0.0000
vn -1.0000 0.0000 0.0000
vn -1.0000 0.0000 0.0000
vn -1.0000 0.0000 0.0000
vn -1.0000 0.0000 0.0000
vn -1.0000 0.0000 0.0000
vn -1.0000 0.0000 0.0000
vn 0.1877 -0.9641 -0.1877
vn 0.2265 -0.6887 -0.6887
vn -0.6887 -0.6887 0.2265
vn -1.0000 0.0000 0.0000
vn -1.0000 0.0000 0.0000
vn -0.6887 -0.2265 0.6887
vn -0.2265 -0.6887 0.6887
vn -0.1877 -0.1877 0.9641
vn -1.0000 0.0000 0.0000
vn -1.0000 0.0000 0.0000
vn -1.0000 0.0000 0.0000
vn -1.0000 0.0000 0.0000
vn -1.0000 0.0000 0.0000
vn -1.0000 0.0000 0.0000
vn -1.0000 0.0000 0.0000
vn -1.0000 0.0000 0.0000
vn -1.0000 0.0000 0.0000
vn -0.6887 0.2265 0.6887
vn -0.9641 0.1877 0.1877
vn 0.2265 -0.6887 0.6887
vn 0.1877 -0.1877 0.9641
vn -0.1877 0.1877 0.9641
vn -0.6887 0.2265 -0.6887
vn -1.0000 0.0000 0.0000
vn -1.0000 0.0000 0.0000
vn -1.0000 0.0000 0.0000
vn -1.0000 0.0000 0.0000
vn -1.0000 0.0000 0.0000
vn -1.0000 0.0000 0.0000
vn -1.0000 0.0000 0.0000
vn -1.0000 0.0000 0.0000
vn -1.0000 0.0000 0.0000
vn -1.0000 0.0000 0.0000
vn -1.0000 0.0000 0.0000
vn -0.6887 0.6887 -0.2265
vn -0.2265 0.6887 -0.6887
vn -0.1877 0.9641 -0.1877
vn 0.0000 1.0000 0.0000
vn 0.0000 1.0000 0.0000
vn 0.0000 1.0000 0.0000
vn 0.0000 1.0000 0.0000
vn 0.0000 1.0000 0.0000
vn -0.6887 0.6887 0.2265
vn -0.1877 0.9641 0.1877
vn 0.0000 1.0000 0.0000
vn 0.0000 1.0000 0.0000
vn 0.0000 1.0000 0.0000
vn 0.1877 0.1877 -0.9641
vn 0.0000 1.0000 0.0000
vn 0.2265 0.6887 -0.6887
vn 0.0000 1.0000 0.0000
vn 0.0000 1.0000 0.0000
vn 0.0000 1.0000 0.0000
vn 0.0000 1.0000 0.0000
vn 0.0000 1.0000 0.0000
vn 0.0000 1.0000 0.0000
vn 0.0000 1.0000 0.0000
vn 0.0000 1.0000 0.0000
vn -1.0000 0.0000 0.0000
vn -1.0000 0.0000 0.0000
vn -1.0000 0.0000 0.0000
vn -1.0000 0.0000 0.0000
vn -1.0000 0.0000 0.0000
vn -1.0000 0.0000 0.0000
vn -1.0000 0.0000 0.0000
vn -1.0000 0.0000 0.0000
vn -0.2265 0.6887 0.6887
vn 0.0000 1.0000 0.0000
vn 0.0000 1.0000 0.0000
vn 0.0000 1.0000 0.0000
vn 0.0000 1.0000 0.0000
vn 0.0000 1.0000 0.0000
vn 0.0000 1.0000 0.0000
vn 0.0000 1.0000 0.0000
vn 0.0000 1.0000 0.0000
vn 0.0000 1.0000 0.0000
vn 0.0000 1.0000 0.0000
vn 0.1877 0.1877 0.9641
vn 0.2265 0.6887 0.6887
vn 0.0000 1.0000 0.0000
vn 0.1877 -0.1877 -0.9641
vn 0.6887 -0.6887 -0.2265
vn 0.6887 -0.2265 -0.6887
vn 0.9641 -0.1877 -0.1877
vn 1.0000 0.0000 0.0000
vn 1.0000 0.0000 0.0000
vn 1.0000 0.0000 0.0000
vn 0.6887 -0.6887 0.2265
vn 0.9641 -0.1877 0.1877
vn 0.9641 0.1877 -0.1877
vn 1.0000 0.0000 0.0000
vn 1.0000 0.0000 0.0000
vn 1.0000 0.0000 0.0000
vn 1.0000 0.0000 0.0000
vn 1.0000 0.0000 0.0000
vn 1.0000 0.0000 0.0000
vn 1.0000 0.0000 0.0000
vn 1.0000 0.0000 0.0000
vn 1.0000 0.0000 0.0000
vn 0.1877 -0.9641 0.1877
vn 1.0000 0.0000 0.0000
vn 1.0000 0.0000 0.0000
vn 0.6887 -0.2265 0.6887
vn 1.0000 0.0000 0.0000
vn 1.0000 0.0000 0.0000
vn 1.0000 0.0000 0.0000
vn 1.0000 0.0000 0.0000
vn 1.0000 0.0000 0.0000
vn 1.0000 0.0000 0.0000
vn 1.0000 0.0000 0.0000
vn 1.0000 0.0000 0.0000
vn 1.0000 0.0000 0.0000
vn 1.0000 0.0000 0.0000
vn 0.9641 0.1877 0.1877
vn 0.1877 0.9641 -0.1877
vn 0.0000 1.0000 0.0000
vn 0.0000 1.0000 0.0000
vn 0.0000 1.0000 0.0000
vn 0.0000 1.0000 0.0000
vn 0.0000 1.0000 0.0000
vn 0.0000 1.0000 0.0000
vn 0.0000 1.0000 0.0000
vn 0.0000 1.0000 0.0000
vn 0.6887 0.2265 -0.6887
vn 1.0000 0.0000 0.0000
vn 1.0000 0.0000 0.0000
vn 1.0000 0.0000 0.0000
vn 1.0000 0.0000 0.0000
vn 1.0000 0.0000 0.0000
vn 1.0000 0.0000 0.0000
vn 1.0000 0.0000 0.0000
vn 1.0000 0.0000 0.0000
vn 1.0000 0.0000 0.0000
vn 0.0000 1.0000 0.0000
vn 0.0000 1.0000 0.0000
vn 0.0000 1.0000 0.0000
vn 0.6887 0.6887 -0.2265
vn 0.0000 1.0000 0.0000
vn 0.0000 1.0000 0.0000
vn 0.6887 0.6887 0.2265
vn 0.0000 1.0000 0.0000
vn 0.0000 1.0000 0.0000
vn 0.0000 1.0000 0.0000
vn 0.1877 0.9641 0.1877
vn 0.0000 1.0000 0.0000
vn 0.0000 1.0000 0.0000
vn 1.0000 0.0000 0.0000
vn 1.0000 0.0000 0.0000
vn 1.0000 0.0000 0.0000
vn 1.0000 0.0000 0.0000
vn 1.0000 0.0000 0.0000
vn 1.0000 0.0000 0.0000
vn 0.6887 0.2265 0.6887
vn 1.0000 0.0000 0.0000
vn 1.0000 0.0000 0.0000
vn 1.0000 0.0000 0.0000
vn 0.0000 1.0000 0.0000
vn 0.0000 1.0000 0.0000
vn -1.0000 0.0000 -0.0000
vn -0.8660 0.0000 -0.5000
vn -0.8660 0.0000 -0.5000
vn -1.0000 0.0000 0.0000
vn 0.0000 1.0000 0.0000
vn 0.0000 1.0000 0.0000
vn 0.0000 1.0000 0.0000
vn -0.8660 0.0000 0.5000
vn -0.8660 -0.0000 0.5000
vn -0.5000 0.0000 -0.8660
vn -0.5000 -0.0000 -0.8660
vn 0.0000 1.0000 0.0000
vn -0.5000 -0.0000 0.8660
vn -0.5000 0.0000 0.8660
vn 0.0000 1.0000 0.0000
vn 0.0000 -0.0000 -1.0000
vn 0.0000 1.0000 0.0000
vn 0.0000 0.0000 -1.0000
vn 0.0000 0.0000 1.0000
vn 0.0000 1.0000 0.0000
vn 0.0000 -0.0000 1.0000
vn 0.5000 0.0000 -0.8660
vn 0.0000 1.0000 0.0000
vn 0.5000 -0.0000 -0.8660
vn 0.5000 -0.0000 0.8660
vn 0.0000 1.0000 0.0000
vn 0.5000 0.0000 0.8660
vn 0.8660 -0.0000 -0.5000
vn 0.8660 0.0000 -0.5000
vn 0.0000 1.0000 0.0000
vn 0.8660 0.0000 0.5000
vn 0.8660 0.0000 0.5000
vn 0.0000 1.0000 0.0000
vn 1.0000 0.0000 0.0000
vn 1.0000 0.0000 0.0000
vn 0.0000 1.0000 0.0000
vn -1.0000 0.0000 -0.0000
vn -0.8660 0.0000 -0.5000
vn -0.8660 0.0000 -0.5000
vn -1.0000 0.0000 0.0000
vn 0.0000 1.0000 0.0000
vn 0.0000 1.0000 0.0000
vn 0.0000 1.0000 0.0000
vn -0.8660 0.0000 0.5000
vn -0.8660 -0.0000 0.5000
vn -0.5000 0.0000 -0.8660
vn -0.5000 -0.0000 -0.8660
vn 0.0000 1.0000 0.0000
vn -0.5000 -0.0000 0.8660
vn -0.5000 0.0000 0.8660
vn 0.0000 1.0000 0.0000
vn 0.0000 -0.0000 -1.0000
vn 0.0000 1.0000 0.0000
vn 0.0000 0.0000 -1.0000
vn 0.0000 0.0000 1.0000
vn 0.0000 1.0000 0.0000
vn 0.0000 -0.0000 1.0000
vn 0.5000 0.0000 -0.8660
vn 0.0000 1.0000 0.0000
vn 0.5000 -0.0000 -0.8660
vn 0.5000 -0.0000 0.8660
vn 0.0000 1.0000 0.0000
vn 0.5000 0.0000 0.8660
vn 0.8660 -0.0000 -0.5000
vn 0.8660 0.0000 -0.5000
vn 0.0000 1.0000 0.0000
vn 0.8660 0.0000 0.5000
vn 0.8660 0.0000 0.5000
vn 0.0000 1.0000 0.0000
vn 1.0000 0.0000 0.0000
vn 1.0000 0.0000 0.0000
vn 0.0000 1.0000 0.0000
vn -0.8660 0.0000 -0.5000
vn -1.0000 0.0000 -0.0000
vn -0.8660 0.0000 -0.5000
vn -1.0000 0.0000 0.0000
vn -0.8660 0.0000 0.5000
vn -0.8660 -0.0000 0.5000
vn 0.0000 1.0000 0.0000
vn 0.0000 1.0000 0.0000
vn 0.0000 1.0000 0.0000
vn -0.5000 0.0000 -0.8660
vn -0.5000 -0.0000 -0.8660
vn 0.0000 1.0000 0.0000
vn -0.5000 -0.0000 0.8660
vn -0.5000 0.0000 0.8660
vn 0.0000 1.0000 0.0000
vn 0.0000 -0.0000 -1.0000
vn 0.0000 1.0000 0.0000
vn 0.0000 0.0000 -1.0000
vn 0.0000 0.0000 1.0000
vn 0.0000 1.0000 0.0000
vn 0.0000 0.0000 1.0000
vn 0.5000 0.0000 -0.8660
vn 0.0000 1.0000 0.0000
vn 0.5000 -0.0000 -0.8660
vn 0.5000 0.0000 0.8660
vn 0.0000 1.0000 0.0000
vn 0.5000 0.0000 0.8660
vn 0.8660 -0.0000 -0.5000
vn 0.8660 0.0000 -0.5000
vn 0.0000 1.0000 0.0000
vn 0.8660 0.0000 0.5000
vn 0.8660 0.0000 0.5000
vn 0.0000 1.0000 0.0000
vn 1.0000 0.0000 0.0000
vn 1.0000 0.0000 0.0000
vn 0.0000 1.0000 0.0000
vn -0.8660 0.0000 -0.5000
vn -1.0000 0.0000 -0.0000
vn -0.8660 0.0000 -0.5000
vn -1.0000 0.0000 0.0000
vn -0.8660 0.0000 0.5000
vn -0.8660 -0.0000 0.5000
vn 0.0000 1.0000 0.0000
vn 0.0000 1.0000 0.0000
vn 0.0000 1.0000 0.0000
vn -0.5000 0.0000 -0.8660
vn -0.5000 -0.0000 -0.8660
vn 0.0000 1.0000 0.0000
vn -0.5000 -0.0000 0.8660
vn -0.5000 0.0000 0.8660
vn 0.0000 1.0000 0.0000
vn 0.0000 -0.0000 -1.0000
vn 0.0000 1.0000 0.0000
vn 0.0000 0.0000 -1.0000
vn 0.0000 0.0000 1.0000
vn 0.0000 1.0000 0.0000
vn 0.0000 0.0000 1.0000
vn 0.5000 0.0000 -0.8660
vn 0.0000 1.0000 0.0000
vn 0.5000 -0.0000 -0.8660
vn 0.5000 0.0000 0.8660
vn 0.0000 1.0000 0.0000
vn 0.5000 0.0000 0.8660
vn 0.8660 -0.0000 -0.5000
vn 0.8660 0.0000 -0.5000
vn 0.0000 1.0000 0.0000
vn 0.8660 0.0000 0.5000
vn 0.8660 0.0000 0.5000
vn 0.0000 1.0000 0.0000
vn 1.0000 0.0000 0.0000
vn 1.0000 0.0000 0.0000
vn 0.0000 1.0000 0.0000
vn 0.0000 0.7818 0.6235
vn 0.0000 0.9749 0.2225
vn 0.0000 0.9749 0.2225
vn 0.0000 0.4339 0.9010
vn 0.0000 0.7818 0.6235
vn 0.0000 -0.0000 1.0000
vn 0.0000 0.4339 0.9010
vn -0.0000 0.9749 -0.2225
vn 0.0000 0.9749 -0.2225
vn -0.0000 0.7818 -0.6235
vn -0.0000 0.7818 -0.6235
vn -0.0000 0.4339 -0.9010
vn -0.0000 0.4339 -0.9010
vn 0.0000 0.0000 -1.0000
vn -0.0000 -0.0000 -1.0000
vn -0.0000 -0.4339 0.9010
vn -0.0000 0.0000 1.0000
vn -0.0000 -0.7818 0.6235
vn -0.0000 -0.4339 0.9010
vn -0.0000 -0.9749 0.2225
vn -0.0000 -0.7818 0.6235
vn 0.0000 -0.9749 -0.2225
vn 0.0000 -0.9749 0.2225
vn 0.0000 -0.4339 -0.9010
vn 0.0000 -0.4339 -0.9010
vn 0.0000 -0.7818 -0.6235
vn 0.0000 -0.7818 -0.6235
vn 0.0000 -0.9749 -0.2225
vn 0.0000 0.7818 0.6235
vn 0.0000 0.9749 0.2225
vn 0.0000 0.9749 0.2225
vn 0.0000 0.4339 0.9010
vn 0.0000 0.7818 0.6235
vn 0.0000 -0.0000 1.0000
vn 0.0000 0.4339 0.9010
vn 0.0000 0.9749 -0.2225
vn 0.0000 0.9749 -0.2225
vn 0.0000 0.7818 -0.6235
vn 0.0000 0.7818 -0.6235
vn 0.0000 0.4339 -0.9010
vn 0.0000 0.4339 -0.9010
vn 0.0000 0.0000 -1.0000
vn 0.0000 -0.0000 -1.0000
vn -0.0000 -0.4339 0.9010
vn -0.0000 0.0000 1.0000
vn -0.0000 -0.7818 0.6235
vn -0.0000 -0.4339 0.9010
vn -0.0000 -0.9749 0.2225
vn -0.0000 -0.7818 0.6235
vn 0.0000 -0.9749 -0.2225
vn 0.0000 -0.9749 0.2225
vn 0.0000 -0.4339 -0.9010
vn 0.0000 -0.4339 -0.9010
vn 0.0000 -0.7818 -0.6235
vn 0.0000 -0.7818 -0.6235
vn 0.0000 -0.9749 -0.2225
vn 0.0000 0.7818 0.6235
vn 0.0000 0.9749 0.2225
vn 0.0000 0.9749 0.2225
vn -0.0000 0.4339 0.9010
vn -0.0000 0.7818 0.6235
vn 0.0000 -0.0000 1.0000
vn 0.0000 0.4339 0.9010
vn 0.0000 0.9749 -0.2225
vn 0.0000 0.9749 -0.2225
vn 0.0000 0.7818 -0.6235
vn 0.0000 0.7818 -0.6235
vn 0.0000 0.4339 -0.9010
vn 0.0000 0.4339 -0.9010
vn 0.0000 0.0000 -1.0000
vn 0.0000 -0.0000 -1.0000
vn 0.0000 -0.4339 0.9010
vn 0.0000 0.0000 1.0000
vn 0.0000 -0.7818 0.6235
vn 0.0000 -0.4339 0.9010
vn 0.0000 -0.9749 0.2225
vn 0.0000 -0.7818 0.6235
vn 0.0000 -0.9749 -0.2225
vn 0.0000 -0.9749 0.2225
vn 0.0000 -0.4339 -0.9010
vn 0.0000 -0.4339 -0.9010
vn 0.0000 -0.7818 -0.6235
vn 0.0000 -0.7818 -0.6235
vn 0.0000 -0.9749 -0.2225
f 1//1 2//2 3//3
f 1//1 3//3 4//4
f 1//1 4//4 5//5
f 3//3 6//6 4//4
f 2//2 7//7 8//8
f 1//1 9//9 2//2
f 1//1 5//5 10//10
f 2//2 9//9 7//7
f 9//9 11//11 7//7
f 2//2 12//12 3//3
f 3//3 13//13 6//6
f 2//2 8//8 14//14
f 2//2 14//14 15//15
f 2//2 15//15 12//12
f 11//11 16//16 17//17
f 11//11 18//18 16//16
f 17//17 16//16 19//19
f 17//17 19//19 20//20
f 21//21 22//22 20//20
f 21//21 20//20 19//19
f 4//4 23//23 5//5
f 4//4 6//6 24//24
f 5//5 23//23 10//10
f 1//1 25//25 9//9
f 1//1 10//10 25//25
f 9//9 18//18 11//11
f 9//9 26//26 18//18
f 9//9 27//27 26//26
f 25//25 28//28 9//9
f 25//25 29//29 28//28
f 25//25 10//10 29//29
f 28//28 29//29 30//30
f 9//9 31//31 27//27
f 9//9 32//32 31//31
f 9//9 33//33 32//32
f 27//27 31//31 34//34
f 27//27 34//34 35//35
f 27//27 35//35 36//36
f 36//36 37//37 38//38
f 36//36 35//35 37//37
f 9//9 39//39 33//33
f 9//9 28//28 40//40
f 28//28 30//30 40//40
f 9//9 41//41 39//39
f 10//10 42//42 29//29
f 29//29 43//43 30//30
f 30//30 43//43 44//44
f 3//3 12//12 45//45
f 3//3 45//45 13//13
f 12//12 15//15 46//46
f 12//12 46//46 47//47
f 12//12 47//47 48//48
f 12//12 48//48 49//49
f 21//21 50//50 22//22
f 50//50 51//51 52//52
f 50//50 21//21 53//53
f 50//50 53//53 51//51
f 52//52 54//54 49//49
f 12//12 49//49 54//54
f 12//12 54//54 55//55
f 54//54 52//52 51//51
f 12//12 55//55 56//56
f 12//12 57//57 45//45
f 45//45 58//58 13//13
f 45//45 57//57 58//58
f 57//57 59//59 58//58
f 59//59 60//60 61//61
f 59//59 61//61 62//62
f 59//59 63//63 60//60
f 60//60 63//63 64//64
f 12//12 65//65 57//57
f 57//57 65//65 59//59
f 59//59 66//66 63//63
f 64//64 63//63 67//67
f 63//63 68//68 69//69
f 6//6 13//13 70//70
f 59//59 62//62 71//71
f 13//13 58//58 72//72
f 58//58 59//59 72//72
f 64//64 67//67 73//73
f 73//73 74//74 75//75
f 67//67 76//76 73//73
f 69//69 77//77 78//78
f 73//73 76//76 74//74
f 78//78 79//79 80//80
f 38//38 81//81 82//82
f 82//82 83//83 84//84
f 38//38 37//37 81//81
f 82//82 81//81 83//83
f 84//84 56//56 55//55
f 12//12 56//56 85//85
f 84//84 83//83 56//56
f 41//41 86//86 39//39
f 9//9 40//40 41//41
f 30//30 44//44 40//40
f 41//41 87//87 86//86
f 41//41 88//88 87//87
f 41//41 85//85 88//88
f 12//12 85//85 41//41
f 12//12 41//41 65//65
f 59//59 65//65 66//66
f 69//69 68//68 77//77
f 63//63 66//66 68//68
f 41//41 40//40 65//65
f 40//40 44//44 89//89
f 40//40 89//89 65//65
f 65//65 89//89 66//66
f 68//68 66//66 90//90
f 90//90 66//66 91//91
f 90//90 91//91 92//92
f 66//66 93//93 91//91
f 66//66 94//94 93//93
f 78//78 77//77 95//95
f 90//90 96//96 97//97
f 78//78 95//95 79//79
f 97//97 96//96 98//98
f 90//90 92//92 96//96
f 66//66 99//99 94//94
f 44//44 100//100 89//89
f 89//89 101//101 66//66
f 96//96 102//102 98//98
f 4//4 24//24 23//23
f 6//6 103//103 24//24
f 6//6 70//70 103//103
f 24//24 104//104 23//23
f 24//24 105//105 104//104
f 24//24 103//103 105//105
f 104//104 105//105 106//106
f 106//106 107//107 108//108
f 106//106 108//108 109//109
f 23//23 104//104 110//110
f 104//104 106//106 110//110
f 106//106 109//109 111//111
f 103//103 70//70 105//105
f 105//105 112//112 106//106
f 106//106 113//113 107//107
f 106//106 114//114 113//113
f 106//106 112//112 114//114
f 115//115 116//116 109//109
f 117//117 118//118 115//115
f 116//116 115//115 118//118
f 119//119 117//117 120//120
f 119//119 120//120 121//121
f 117//117 119//119 118//118
f 10//10 23//23 122//122
f 10//10 122//122 42//42
f 29//29 42//42 43//43
f 23//23 110//110 122//122
f 106//106 111//111 110//110
f 111//111 109//109 116//116
f 111//111 116//116 123//123
f 111//111 123//123 124//124
f 122//122 110//110 42//42
f 42//42 110//110 125//125
f 42//42 125//125 43//43
f 110//110 111//111 125//125
f 111//111 126//126 127//127
f 111//111 127//127 128//128
f 111//111 124//124 129//129
f 129//129 130//130 126//126
f 131//131 132//132 129//129
f 129//129 132//132 130//130
f 131//131 133//133 132//132
f 111//111 129//129 126//126
f 111//111 128//128 134//134
f 111//111 134//134 135//135
f 43//43 125//125 100//100
f 125//125 111//111 136//136
f 111//111 135//135 136//136
f 59//59 71//71 137//137
f 75//75 74//74 138//138
f 13//13 72//72 70//70
f 59//59 137//137 72//72
f 71//71 139//139 137//137
f 138//138 140//140 141//141
f 138//138 74//74 142//142
f 80//80 143//143 144//144
f 138//138 142//142 140//140
f 144//144 143//143 145//145
f 105//105 70//70 146//146
f 105//105 146//146 112//112
f 112//112 147//147 114//114
f 112//112 148//148 147//147
f 112//112 149//149 148//148
f 119//119 121//121 150//150
f 119//119 150//150 151//151
f 150//150 152//152 151//151
f 150//150 153//153 152//152
f 154//154 153//153 150//150
f 154//154 155//155 153//153
f 136//136 154//154 149//149
f 139//139 156//156 137//137
f 156//156 157//157 137//137
f 157//157 141//141 137//137
f 141//141 140//140 137//137
f 137//137 140//140 158//158
f 70//70 72//72 146//146
f 146//146 159//159 112//112
f 72//72 137//137 159//159
f 72//72 159//159 146//146
f 137//137 158//158 160//160
f 158//158 145//145 161//161
f 137//137 162//162 159//159
f 112//112 159//159 162//162
f 112//112 136//136 149//149
f 44//44 43//43 100//100
f 80//80 79//79 143//143
f 98//98 102//102 163//163
f 145//145 143//143 161//161
f 163//163 164//164 165//165
f 163//163 102//102 164//164
f 66//66 166//166 99//99
f 164//164 167//167 165//165
f 89//89 100//100 101//101
f 66//66 101//101 166//166
f 99//99 166//166 168//168
f 169//169 133//133 131//131
f 170//170 171//171 169//169
f 169//169 171//171 133//133
f 170//170 172//172 171//171
f 173//173 172//172 170//170
f 136//136 155//155 154//154
f 173//173 174//174 172//172
f 136//136 173//173 155//155
f 136//136 174//174 173//173
f 125//125 175//175 100//100
f 125//125 136//136 175//175
f 136//136 135//135 176//176
f 136//136 176//176 177//177
f 136//136 178//178 174//174
f 136//136 177//177 178//178
f 158//158 161//161 160//160
f 165//165 167//167 160//160
f 137//137 160//160 166//166
f 112//112 162//162 136//136
f 137//137 166//166 162//162
f 160//160 167//167 179//179
f 160//160 179//179 166//166
f 168//168 166//166 180//180
f 180//180 166//166 179//179
f 100//100 175//175 101//101
f 175//175 136//136 162//162
f 101//101 162//162 166//166
f 101//101 175//175 162//162
f 181//181 182//182 183//183
f 181//181 184//184 182//182
f 185//185 186//186 187//187
f 181//181 188//188 184//184
f 188//188 189//189 184//184
f 183//183 190//190 191//191
f 183//183 182//182 190//190
f 187//187 186//186 192//192
f 188//188 193//193 189//189
f 189//189 193//193 194//194
f 186//186 195//195 192//192
f 191//191 190//190 196//196
f 192//192 195//195 197//197
f 191//191 196//196 198//198
f 193//193 199//199 194//194
f 195//195 200//200 197//197
f 194//194 199//199 201//201
f 198//198 196//196 202//202
f 197//197 200//200 203//203
f 198//198 202//202 204//204
f 199//199 205//205 201//201
f 200//200 206//206 203//203
f 201//201 205//205 207//207
f 204//204 208//208 209//209
f 204//204 202//202 208//208
f 203//203 206//206 210//210
f 205//205 211//211 207//207
f 207//207 211//211 212//212
f 206//206 213//213 210//210
f 209//209 214//214 215//215
f 209//209 208//208 214//214
f 210//210 213//213 216//216
f 215//215 212//212 211//211
f 215//215 214//214 212//212
f 217//217 218//218 219//219
f 217//217 220//220 218//218
f 221//221 222//222 223//223
f 217//217 224//224 220//220
f 224//224 225//225 220//220
f 219//219 226//226 227//227
f 219//219 218//218 226//226
f 223//223 222//222 228//228
f 224//224 229//229 225//225
f 225//225 229//229 230//230
f 222//222 231//231 228//228
f 227//227 226//226 232//232
f 228//228 231//231 233//233
f 227//227 232//232 234//234
f 229//229 235//235 230//230
f 231//231 236//236 233//233
f 230//230 235//235 237//237
f 234//234 232//232 238//238
f 233//233 236//236 239//239
f 234//234 238//238 240//240
f 235//235 241//241 237//237
f 236//236 242//242 239//239
f 237//237 241//241 243//243
f 240//240 244//244 245//245
f 240//240 238//238 244//244
f 239//239 242//242 246//246
f 241//241 247//247 243//243
f 243//243 247//247 248//248
f 242//242 249//249 246//246
f 245//245 250//250 251//251
f 245//245 244//244 250//250
f 246//246 249//249 252//252
f 251//251 248//248 247//247
f 251//251 250//250 248//248
f 253//253 254//254 255//255
f 254//254 256//256 255//255
f 254//254 257//257 256//256
f 257//257 258//258 256//256
f 259//259 260//260 261//261
f 253//253 262//262 263//263
f 253//253 255//255 262//262
f 259//259 261//261 264//264
f 257//257 265//265 258//258
f 258//258 265//265 266//266
f 261//261 267//267 264//264
f 263//263 262//262 268//268
f 264//264 267//267 269//269
f 263//263 268//268 270//270
f 265//265 271//271 266//266
f 267//267 272//272 269//269
f 266//266 271//271 273//273
f 270//270 268//268 274//274
f 269//269 272//272 275//275
f 270//270 274//274 276//276
f 271//271 277//277 273//273
f 272//272 278//278 275//275
f 273//273 277//277 279//279
f 276//276 280//280 281//281
f 276//276 274//274 280//280
f 275//275 278//278 282//282
f 277//277 283//283 279//279
f 279//279 283//283 284//284
f 278//278 285//285 282//282
f 281//281 286//286 287//287
f 281//281 280//280 286//286
f 283//283 287//287 284//284
f 282//282 285//285 288//288
f 287//287 286//286 284//284
f 289//289 290//290 291//291
f 290//290 292//292 291//291
f 290//290 293//293 292//292
f 293//293 294//294 292//292
f 295//295 296//296 297//297
f 289//289 298//298 299//299
f 289//289 291//291 298//298
f 295//295 297//297 300//300
f 293//293 301//301 294//294
f 294//294 301//301 302//302
f 297//297 303//303 300//300
f 299//299 298//298 304//304
f 300//300 303//303 305//305
f 299//299 304//304 306//306
f 301//301 307//307 302//302
f 303//303 308//308 305//305
f 302//302 307//307 309//309
f 306//306 304//304 310//310
f 305//305 308//308 311//311
f 306//306 310//310 312//312
f 307//307 313//313 309//309
f 308//308 314//314 311//311
f 309//309 313//313 315//315
f 312//312 316//316 317//317
f 312//312 310//310 316//316
f 311//311 314//314 318//318
f 313//313 319//319 315//315
f 315//315 319//319 320//320
f 314//314 321//321 318//318
f 317//317 322//322 323//323
f 317//317 316//316 322//322
f 319//319 323//323 320//320
f 318//318 321//321 324//324
f 323//323 322//322 320//320
f 325//325 326//326 327//327
f 328//328 325//325 329//329
f 330//330 328//328 331//331
f 326//326 332//332 333//333
f 332//332 334//334 335//335
f 334//334 336//336 337//337
f 336//336 338//338 339//339
f 340//340 330//330 341//341
f 342//342 340//340 343//343
f 344//344 342//342 345//345
f 346//346 344//344 347//347
f 338//338 348//348 349//349
f 348//348 350//350 351//351
f 350//350 346//346 352//352
f 326//326 333//333 327//327
f 325//325 327//327 329//329
f 328//328 329//329 331//331
f 330//330 331//331 341//341
f 332//332 335//335 333//333
f 334//334 337//337 335//335
f 336//336 339//339 337//337
f 340//340 341//341 343//343
f 342//342 343//343 345//345
f 345//345 347//347 344//344
f 338//338 349//349 339//339
f 351//351 349//349 348//348
f 350//350 352//352 351//351
f 346//346 347//347 352//352
f 353//353 354//354 355//355
f 356//356 353//353 357//357
f 358//358 356//356 359//359
f 354//354 360//360 361//361
f 360//360 362//362 363//363
f 362//362 364//364 365//365
f 364//364 366//366 367//367
f 368//368 358//358 369//369
f 370//370 368//368 371//371
f 372//372 370//370 373//373
f 374//374 372//372 375//375
f 366//366 376//376 377//377
f 376//376 378//378 379//379
f 378//378 374//374 380//380
f 354//354 361//361 355//355
f 353//353 355//355 357//357
f 356//356 357//357 359//359
f 359//359 369//369 358//358
f 360//360 363//363 361//361
f 365//365 363//363 362//362
f 364//364 367//367 365//365
f 368//368 369//369 371//371
f 370//370 371//371 373//373
f 372//372 373//373 375//375
f 366//366 377//377 367//367
f 376//376 379//379 377//377
f 378//378 380//380 379//379
f 374//374 375//375 380//380
f 381//381 382//382 383//383
f 384//384 381//381 385//385
f 386//386 384//384 387//387
f 382//382 388//388 389//389
f 388//388 390//390 391//391
f 390//390 392//392 393//393
f 392//392 394//394 395//395
f 396//396 386//386 397//397
f 398//398 396//396 399//399
f 400//400 398//398 401//401
f 402//402 400//400 403//403
f 394//394 404//404 405//405
f 404//404 406//406 407//407
f 406//406 402//402 408//408
f 382//382 389//389 383//383
f 381//381 383//383 385//385
f 384//384 385//385 387//387
f 386//386 387//387 397//397
f 388//388 391//391 389//389
f 390//390 393//393 391//391
f 392//392 395//395 393//393
f 396//396 397//397 399//399
f 398//398 399//399 401//401
f 400//400 401//401 403//403
f 394//394 405//405 395//395
f 404//404 407//407 405//405
f 406//406 408//408 407//407
f 402//402 403//403 408//408
