v -0.12066 -0.04666 -0.74000
v -0.11500 -0.04666 -0.74566
v -0.11500 -0.04900 -0.74000
v -0.12066 -0.04100 -0.74566
v -0.12300 -0.04100 -0.74000
v -0.11500 -0.04100 -0.74800
v -0.11500 -0.04900 0.74000
v -0.12300 -0.04100 0.74000
v -0.12300 0.04100 -0.74000
v -0.11500 0.04100 -0.74800
v 0.11500 -0.04900 -0.74000
v 0.11500 -0.04100 -0.74800
v -0.12066 -0.04666 0.74000
v -0.11500 -0.04666 0.74566
v -0.12066 -0.04100 0.74566
v -0.11500 -0.04100 0.74800
v -0.12066 0.04100 0.74566
v 0.11500 -0.04900 0.74000
v 0.11500 -0.04666 0.74566
v 0.11500 -0.04100 0.74800
v -0.11500 0.04100 0.74800
v -0.12066 0.04100 -0.74566
v -0.12066 0.04666 -0.74000
v -0.11500 0.04666 -0.74566
v -0.11500 0.04900 -0.74000
v -0.12066 0.04666 0.74000
v 0.11500 0.04100 -0.74800
v 0.11500 0.04900 -0.74000
v -0.11500 0.04900 0.74000
v -0.12300 0.04100 0.74000
v -0.11500 0.04666 0.74566
v 0.11500 0.04666 0.74566
v 0.11500 0.04900 0.74000
v 0.11500 -0.04666 -0.74566
v 0.12066 -0.04666 -0.74000
v 0.12066 -0.04100 -0.74566
v 0.12300 -0.04100 -0.74000
v 0.12066 -0.04666 0.74000
v 0.12066 0.04100 -0.74566
v 0.12300 0.04100 -0.74000
v 0.12300 -0.04100 0.74000
v 0.12066 -0.04100 0.74566
v 0.11500 0.04100 0.74800
v 0.12300 0.04100 0.74000
v 0.11500 0.04666 -0.74566
v 0.12066 0.04666 -0.74000
v 0.12066 0.04100 0.74566
v 0.12066 0.04666 0.74000
vn -0.6887 -0.6887 -0.2265
vn -0.2265 -0.6887 -0.6887
vn -0.1877 -0.9641 -0.1877
vn -0.6887 -0.2265 -0.6887
vn -0.9641 -0.1877 -0.1877
vn -0.1877 -0.1877 -0.9641
vn -0.1877 -0.9641 0.1877
vn -0.9641 -0.1877 0.1877
vn -0.9641 0.1877 -0.1877
vn -0.1877 0.1877 -0.9641
vn 0.1877 -0.9641 -0.1877
vn 0.1877 -0.1877 -0.9641
vn -0.6887 -0.6887 0.2265
vn -0.2265 -0.6887 0.6887
vn -0.6887 -0.2265 0.6887
vn -0.1877 -0.1877 0.9641
vn -0.6887 0.2265 0.6887
vn 0.1877 -0.9641 0.1877
vn 0.2265 -0.6887 0.6887
vn 0.1877 -0.1877 0.9641
vn -0.1877 0.1877 0.9641
vn -0.6887 0.2265 -0.6887
vn -0.6887 0.6887 -0.2265
vn -0.2265 0.6887 -0.6887
vn -0.1877 0.9641 -0.1877
vn -0.6887 0.6887 0.2265
vn 0.1877 0.1877 -0.9641
vn 0.1877 0.9641 -0.1877
vn -0.1877 0.9641 0.1877
vn -0.9641 0.1877 0.1877
vn -0.2265 0.6887 0.6887
vn 0.2265 0.6887 0.6887
vn 0.1877 0.9641 0.1877
vn 0.2265 -0.6887 -0.6887
vn 0.6887 -0.6887 -0.2265
vn 0.6887 -0.2265 -0.6887
vn 0.9641 -0.1877 -0.1877
vn 0.6887 -0.6887 0.2265
vn 0.6887 0.2265 -0.6887
vn 0.9641 0.1877 -0.1877
vn 0.9641 -0.1877 0.1877
vn 0.6887 -0.2265 0.6887
vn 0.1877 0.1877 0.9641
vn 0.9641 0.1877 0.1877
vn 0.2265 0.6887 -0.6887
vn 0.6887 0.6887 -0.2265
vn 0.6887 0.2265 0.6887
vn 0.6887 0.6887 0.2265
f 1//1 2//2 3//3
f 4//4 1//1 5//5
f 4//4 2//2 1//1
f 2//2 4//4 6//6
f 7//7 1//1 3//3
f 1//1 8//8 5//5
f 9//9 4//4 5//5
f 6//6 4//4 10//10
f 8//8 9//9 5//5
f 11//11 3//3 2//2
f 6//6 12//12 2//2
f 10//10 12//12 6//6
f 13//13 1//1 7//7
f 8//8 1//1 13//13
f 14//14 13//13 7//7
f 15//15 8//8 13//13
f 14//14 15//15 13//13
f 16//16 15//15 14//14
f 17//17 8//8 15//15
f 16//16 17//17 15//15
f 3//3 18//18 7//7
f 7//7 19//19 14//14
f 14//14 19//19 16//16
f 20//20 21//21 16//16
f 4//4 9//9 22//22
f 10//10 4//4 22//22
f 23//23 22//22 9//9
f 24//24 10//10 22//22
f 24//24 22//22 23//23
f 25//25 24//24 23//23
f 23//23 9//9 26//26
f 26//26 25//25 23//23
f 10//10 24//24 27//27
f 25//25 28//28 24//24
f 29//29 28//28 25//25
f 9//9 8//8 30//30
f 8//8 17//17 30//30
f 21//21 17//17 16//16
f 26//26 9//9 30//30
f 25//25 26//26 29//29
f 17//17 26//26 30//30
f 17//17 21//21 31//31
f 26//26 17//17 31//31
f 29//29 26//26 31//31
f 31//31 21//21 32//32
f 33//33 29//29 31//31
f 11//11 2//2 34//34
f 2//2 12//12 34//34
f 3//3 11//11 18//18
f 11//11 34//34 35//35
f 35//35 34//34 36//36
f 34//34 12//12 36//36
f 37//37 35//35 36//36
f 38//38 11//11 35//35
f 37//37 38//38 35//35
f 36//36 12//12 39//39
f 36//36 39//39 37//37
f 37//37 40//40 41//41
f 7//7 18//18 19//19
f 16//16 19//19 20//20
f 38//38 18//18 11//11
f 37//37 41//41 38//38
f 38//38 19//19 18//18
f 42//42 19//19 38//38
f 20//20 19//19 42//42
f 41//41 42//42 38//38
f 42//42 43//43 20//20
f 42//42 41//41 44//44
f 12//12 10//10 27//27
f 24//24 45//45 27//27
f 45//45 24//24 28//28
f 39//39 12//12 27//27
f 40//40 37//37 39//39
f 45//45 39//39 27//27
f 46//46 39//39 45//45
f 46//46 40//40 39//39
f 45//45 28//28 46//46
f 46//46 44//44 40//40
f 28//28 33//33 46//46
f 20//20 43//43 21//21
f 33//33 28//28 29//29
f 21//21 43//43 32//32
f 33//33 31//31 32//32
f 44//44 41//41 40//40
f 43//43 42//42 47//47
f 42//42 44//44 47//47
f 48//48 44//44 46//46
f 46//46 33//33 48//48
f 32//32 43//43 47//47
f 48//48 32//32 47//47
f 44//44 48//48 47//47
f 32//32 48//48 33//33
