v -0.12066 -0.04666 -0.11500
v -0.11500 -0.04666 -0.12066
v -0.11500 -0.04900 -0.11500
v -0.12300 -0.04100 -0.11500
v -0.12066 -0.04100 -0.12066
v -0.11500 -0.04100 -0.12300
v -0.12066 -0.04666 0.11500
v -0.12066 0.04100 -0.12066
v 0.11500 -0.04900 -0.11500
v 0.11500 -0.04100 -0.12300
v -0.11500 -0.04900 0.11500
v -0.12300 -0.04100 0.11500
v -0.11500 -0.04666 0.12066
v -0.12066 -0.04100 0.12066
v -0.11500 -0.04100 0.12300
v -0.12300 0.04100 0.11500
v -0.12066 0.04100 0.12066
v 0.11500 -0.04900 0.11500
v 0.11500 -0.04100 0.12300
v -0.11500 0.04100 0.12300
v -0.12300 0.04100 -0.11500
v -0.11500 0.04100 -0.12300
v -0.12066 0.04666 -0.11500
v -0.11500 0.04666 -0.12066
v -0.11500 0.04900 -0.11500
v -0.11500 0.04900 0.11500
v 0.11500 0.04100 -0.12300
v 0.11500 0.04900 -0.11500
v -0.12066 0.04666 0.11500
v -0.11500 0.04666 0.12066
v 0.11500 0.04100 0.12300
v 0.11500 0.04900 0.11500
v 0.11500 -0.04666 -0.12066
v 0.12066 -0.04666 -0.11500
v 0.12066 -0.04100 -0.12066
v 0.12300 -0.04100 -0.11500
v 0.12066 -0.04666 0.11500
v 0.12066 0.04100 -0.12066
v 0.12300 0.04100 -0.11500
v 0.12300 -0.04100 0.11500
v 0.11500 -0.04666 0.12066
v 0.12066 -0.04100 0.12066
v 0.12300 0.04100 0.11500
v 0.11500 0.04666 -0.12066
v 0.12066 0.04666 -0.11500
v 0.11500 0.04666 0.12066
v 0.12066 0.04100 0.12066
v 0.12066 0.04666 0.11500
vn -0.6887 -0.6887 -0.2265
vn -0.2265 -0.6887 -0.6887
vn -0.1877 -0.9641 -0.1877
vn -0.9641 -0.1877 -0.1877
vn -0.6887 -0.2265 -0.6887
vn -0.1877 -0.1877 -0.9641
vn -0.6887 -0.6887 0.2265
vn -0.6887 0.2265 -0.6887
vn 0.1877 -0.9641 -0.1877
vn 0.1877 -0.1877 -0.9641
vn -0.1877 -0.9641 0.1877
vn -0.9641 -0.1877 0.1877
vn -0.2265 -0.6887 0.6887
vn -0.6887 -0.2265 0.6887
vn -0.1877 -0.1877 0.9641
vn -0.9641 0.1877 0.1877
vn -0.6887 0.2265 0.6887
vn 0.1877 -0.9641 0.1877
vn 0.1877 -0.1877 0.9641
vn -0.1877 0.1877 0.9641
vn -0.9641 0.1877 -0.1877
vn -0.1877 0.1877 -0.9641
vn -0.6887 0.6887 -0.2265
vn -0.2265 0.6887 -0.6887
vn -0.1877 0.9641 -0.1877
vn -0.1877 0.9641 0.1877
vn 0.1877 0.1877 -0.9641
vn 0.1877 0.9641 -0.1877
vn -0.6887 0.6887 0.2265
vn -0.2265 0.6887 0.6887
vn 0.1877 0.1877 0.9641
vn 0.1877 0.9641 0.1877
vn 0.2265 -0.6887 -0.6887
vn 0.6887 -0.6887 -0.2265
vn 0.6887 -0.2265 -0.6887
vn 0.9641 -0.1877 -0.1877
vn 0.6887 -0.6887 0.2265
vn 0.6887 0.2265 -0.6887
vn 0.9641 0.1877 -0.1877
vn 0.9641 -0.1877 0.1877
vn 0.2265 -0.6887 0.6887
vn 0.6887 -0.2265 0.6887
vn 0.9641 0.1877 0.1877
vn 0.2265 0.6887 -0.6887
vn 0.6887 0.6887 -0.2265
vn 0.2265 0.6887 0.6887
vn 0.6887 0.2265 0.6887
vn 0.6887 0.6887 0.2265
f 1//1 2//2 3//3
f 4//4 5//5 1//1
f 5//5 2//2 1//1
f 6//6 2//2 5//5
f 7//7 1//1 3//3
f 7//7 4//4 1//1
f 4//4 8//8 5//5
f 8//8 6//6 5//5
f 9//9 3//3 2//2
f 2//2 6//6 10//10
f 3//3 11//11 7//7
f 4//4 7//7 12//12
f 11//11 13//13 7//7
f 7//7 14//14 12//12
f 13//13 14//14 7//7
f 14//14 13//13 15//15
f 4//4 12//12 16//16
f 17//17 12//12 14//14
f 15//15 17//17 14//14
f 3//3 18//18 11//11
f 11//11 18//18 13//13
f 19//19 15//15 13//13
f 20//20 15//15 19//19
f 8//8 4//4 21//21
f 6//6 8//8 22//22
f 4//4 16//16 21//21
f 21//21 23//23 8//8
f 24//24 22//22 8//8
f 24//24 8//8 23//23
f 23//23 25//25 24//24
f 16//16 23//23 21//21
f 26//26 25//25 23//23
f 27//27 6//6 22//22
f 27//27 22//22 24//24
f 25//25 28//28 24//24
f 26//26 28//28 25//25
f 12//12 17//17 16//16
f 20//20 17//17 15//15
f 23//23 16//16 29//29
f 26//26 23//23 29//29
f 29//29 16//16 17//17
f 17//17 20//20 30//30
f 30//30 29//29 17//17
f 30//30 26//26 29//29
f 31//31 30//30 20//20
f 32//32 26//26 30//30
f 9//9 2//2 33//33
f 33//33 2//2 10//10
f 18//18 3//3 9//9
f 10//10 6//6 27//27
f 34//34 9//9 33//33
f 34//34 33//33 35//35
f 33//33 10//10 35//35
f 34//34 35//35 36//36
f 37//37 9//9 34//34
f 36//36 37//37 34//34
f 10//10 38//38 35//35
f 35//35 38//38 36//36
f 36//36 39//39 40//40
f 13//13 18//18 41//41
f 19//19 13//13 41//41
f 37//37 18//18 9//9
f 36//36 40//40 37//37
f 37//37 41//41 18//18
f 42//42 41//41 37//37
f 19//19 41//41 42//42
f 40//40 42//42 37//37
f 42//42 31//31 19//19
f 42//42 40//40 43//43
f 27//27 24//24 44//44
f 44//44 24//24 28//28
f 10//10 27//27 38//38
f 39//39 36//36 38//38
f 38//38 27//27 44//44
f 45//45 38//38 44//44
f 45//45 39//39 38//38
f 44//44 28//28 45//45
f 43//43 39//39 45//45
f 28//28 32//32 45//45
f 20//20 19//19 31//31
f 32//32 28//28 26//26
f 30//30 31//31 46//46
f 32//32 30//30 46//46
f 43//43 40//40 39//39
f 31//31 42//42 47//47
f 43//43 47//47 42//42
f 48//48 43//43 45//45
f 45//45 32//32 48//48
f 31//31 47//47 46//46
f 48//48 46//46 47//47
f 43//43 48//48 47//47
f 32//32 46//46 48//48
