v -0.12066 -0.04666 -0.24000
v -0.11500 -0.04666 -0.24566
v -0.11500 -0.04900 -0.24000
v -0.12300 -0.04100 -0.24000
v -0.12066 -0.04100 -0.24566
v -0.11500 -0.04100 -0.24800
v -0.12066 -0.04666 0.24000
v -0.12066 0.04100 -0.24566
v 0.11500 -0.04900 -0.24000
v 0.11500 -0.04100 -0.24800
v -0.11500 -0.04900 0.24000
v -0.12300 -0.04100 0.24000
v -0.11500 -0.04666 0.24566
v -0.12066 -0.04100 0.24566
v -0.11500 -0.04100 0.24800
v -0.12300 0.04100 0.24000
v -0.12066 0.04100 0.24566
v 0.11500 -0.04900 0.24000
v 0.11500 -0.04666 0.24566
v -0.11500 0.04100 0.24800
v 0.11500 -0.04100 0.24800
v -0.12300 0.04100 -0.24000
v -0.11500 0.04100 -0.24800
v -0.12066 0.04666 -0.24000
v -0.11500 0.04666 -0.24566
v -0.11500 0.04900 -0.24000
v -0.11500 0.04900 0.24000
v 0.11500 0.04100 -0.24800
v 0.11500 0.04900 -0.24000
v -0.12066 0.04666 0.24000
v -0.11500 0.04666 0.24566
v 0.11500 0.04100 0.24800
v 0.11500 0.04900 0.24000
v 0.11500 -0.04666 -0.24566
v 0.12066 -0.04666 -0.24000
v 0.12066 -0.04100 -0.24566
v 0.12300 -0.04100 -0.24000
v 0.12066 -0.04666 0.24000
v 0.12066 0.04100 -0.24566
v 0.12300 0.04100 -0.24000
v 0.12300 -0.04100 0.24000
v 0.12066 -0.04100 0.24566
v 0.12300 0.04100 0.24000
v 0.11500 0.04666 -0.24566
v 0.12066 0.04666 -0.24000
v 0.11500 0.04666 0.24566
v 0.12066 0.04100 0.24566
v 0.12066 0.04666 0.24000
vn -0.6887 -0.6887 -0.2265
vn -0.2265 -0.6887 -0.6887
vn -0.1877 -0.9641 -0.1877
vn -0.9641 -0.1877 -0.1877
vn -0.6887 -0.2265 -0.6887
vn -0.1877 -0.1877 -0.9641
vn -0.6887 -0.6887 0.2265
vn -0.6887 0.2265 -0.6887
vn 0.1877 -0.9641 -0.1877
vn 0.1877 -0.1877 -0.9641
vn -0.1877 -0.9641 0.1877
vn -0.9641 -0.1877 0.1877
vn -0.2265 -0.6887 0.6887
vn -0.6887 -0.2265 0.6887
vn -0.1877 -0.1877 0.9641
vn -0.9641 0.1877 0.1877
vn -0.6887 0.2265 0.6887
vn 0.1877 -0.9641 0.1877
vn 0.2265 -0.6887 0.6887
vn -0.1877 0.1877 0.9641
vn 0.1877 -0.1877 0.9641
vn -0.9641 0.1877 -0.1877
vn -0.1877 0.1877 -0.9641
vn -0.6887 0.6887 -0.2265
vn -0.2265 0.6887 -0.6887
vn -0.1877 0.9641 -0.1877
vn -0.1877 0.9641 0.1877
vn 0.1877 0.1877 -0.9641
vn 0.1877 0.9641 -0.1877
vn -0.6887 0.6887 0.2265
vn -0.2265 0.6887 0.6887
vn 0.1877 0.1877 0.9641
vn 0.1877 0.9641 0.1877
vn 0.2265 -0.6887 -0.6887
vn 0.6887 -0.6887 -0.2265
vn 0.6887 -0.2265 -0.6887
vn 0.9641 -0.1877 -0.1877
vn 0.6887 -0.6887 0.2265
vn 0.6887 0.2265 -0.6887
vn 0.9641 0.1877 -0.1877
vn 0.9641 -0.1877 0.1877
vn 0.6887 -0.2265 0.6887
vn 0.9641 0.1877 0.1877
vn 0.2265 0.6887 -0.6887
vn 0.6887 0.6887 -0.2265
vn 0.2265 0.6887 0.6887
vn 0.6887 0.2265 0.6887
vn 0.6887 0.6887 0.2265
f 1//1 2//2 3//3
f 4//4 5//5 1//1
f 5//5 2//2 1//1
f 6//6 2//2 5//5
f 3//3 7//7 1//1
f 7//7 4//4 1//1
f 5//5 4//4 8//8
f 8//8 6//6 5//5
f 9//9 3//3 2//2
f 2//2 6//6 10//10
f 3//3 11//11 7//7
f 12//12 4//4 7//7
f 13//13 7//7 11//11
f 14//14 12//12 7//7
f 13//13 14//14 7//7
f 15//15 14//14 13//13
f 4//4 12//12 16//16
f 17//17 12//12 14//14
f 15//15 17//17 14//14
f 3//3 18//18 11//11
f 11//11 19//19 13//13
f 13//13 19//19 15//15
f 20//20 15//15 21//21
f 8//8 4//4 22//22
f 6//6 8//8 23//23
f 4//4 16//16 22//22
f 22//22 24//24 8//8
f 25//25 23//23 8//8
f 25//25 8//8 24//24
f 24//24 26//26 25//25
f 16//16 24//24 22//22
f 27//27 26//26 24//24
f 28//28 6//6 23//23
f 28//28 23//23 25//25
f 26//26 29//29 25//25
f 27//27 29//29 26//26
f 12//12 17//17 16//16
f 15//15 20//20 17//17
f 24//24 16//16 30//30
f 27//27 24//24 30//30
f 30//30 16//16 17//17
f 17//17 20//20 31//31
f 31//31 30//30 17//17
f 31//31 27//27 30//30
f 32//32 31//31 20//20
f 33//33 27//27 31//31
f 9//9 2//2 34//34
f 34//34 2//2 10//10
f 18//18 3//3 9//9
f 10//10 6//6 28//28
f 35//35 9//9 34//34
f 35//35 34//34 36//36
f 34//34 10//10 36//36
f 35//35 36//36 37//37
f 38//38 9//9 35//35
f 37//37 38//38 35//35
f 10//10 39//39 36//36
f 36//36 39//39 37//37
f 37//37 40//40 41//41
f 11//11 18//18 19//19
f 15//15 19//19 21//21
f 38//38 18//18 9//9
f 37//37 41//41 38//38
f 38//38 19//19 18//18
f 42//42 19//19 38//38
f 21//21 19//19 42//42
f 41//41 42//42 38//38
f 42//42 32//32 21//21
f 41//41 43//43 42//42
f 28//28 25//25 44//44
f 44//44 25//25 29//29
f 10//10 28//28 39//39
f 40//40 37//37 39//39
f 39//39 28//28 44//44
f 45//45 39//39 44//44
f 45//45 40//40 39//39
f 44//44 29//29 45//45
f 45//45 43//43 40//40
f 29//29 33//33 45//45
f 20//20 21//21 32//32
f 33//33 29//29 27//27
f 31//31 32//32 46//46
f 33//33 31//31 46//46
f 43//43 41//41 40//40
f 42//42 47//47 32//32
f 42//42 43//43 47//47
f 43//43 45//45 48//48
f 45//45 33//33 48//48
f 32//32 47//47 46//46
f 48//48 46//46 47//47
f 43//43 48//48 47//47
f 33//33 46//46 48//48
