v -0.24566 -0.04666 -0.24000
v -0.24000 -0.04666 -0.24566
v -0.24000 -0.04900 -0.24000
v -0.24566 -0.04100 -0.24566
v -0.24800 -0.04100 -0.24000
v -0.24000 -0.04100 -0.24800
v -0.24566 -0.04666 0.24000
v -0.24566 0.04100 -0.24566
v 0.24000 -0.04900 -0.24000
v 0.24000 -0.04100 -0.24800
v -0.24000 -0.04900 0.24000
v -0.24800 -0.04100 0.24000
v -0.24000 -0.04666 0.24566
v -0.24566 -0.04100 0.24566
v -0.24000 -0.04100 0.24800
v -0.24800 0.04100 0.24000
v -0.24566 0.04100 0.24566
v 0.24000 -0.04900 0.24000
v 0.24000 -0.04100 0.24800
v -0.24000 0.04100 0.24800
v -0.24800 0.04100 -0.24000
v -0.24000 0.04100 -0.24800
v -0.24566 0.04666 -0.24000
v -0.24000 0.04666 -0.24566
v -0.24000 0.04900 -0.24000
v -0.24000 0.04900 0.24000
v 0.24000 0.04100 -0.24800
v 0.24000 0.04666 -0.24566
v 0.24000 0.04900 -0.24000
v -0.24566 0.04666 0.24000
v -0.24000 0.04666 0.24566
v 0.24000 0.04100 0.24800
v 0.24000 0.04900 0.24000
v 0.24000 -0.04666 -0.24566
v 0.24566 -0.04666 -0.24000
v 0.24566 -0.04100 -0.24566
v 0.24800 -0.04100 -0.24000
v 0.24566 -0.04666 0.24000
v 0.24800 0.04100 -0.24000
v 0.24800 -0.04100 0.24000
v 0.24000 -0.04666 0.24566
v 0.24566 -0.04100 0.24566
v 0.24800 0.04100 0.24000
v 0.24566 0.04100 -0.24566
v 0.24566 0.04666 -0.24000
v 0.24000 0.04666 0.24566
v 0.24566 0.04100 0.24566
v 0.24566 0.04666 0.24000
vn -0.6887 -0.6887 -0.2265
vn -0.2265 -0.6887 -0.6887
vn -0.1877 -0.9641 -0.1877
vn -0.6887 -0.2265 -0.6887
vn -0.9641 -0.1877 -0.1877
vn -0.1877 -0.1877 -0.9641
vn -0.6887 -0.6887 0.2265
vn -0.6887 0.2265 -0.6887
vn 0.1877 -0.9641 -0.1877
vn 0.1877 -0.1877 -0.9641
vn -0.1877 -0.9641 0.1877
vn -0.9641 -0.1877 0.1877
vn -0.2265 -0.6887 0.6887
vn -0.6887 -0.2265 0.6887
vn -0.1877 -0.1877 0.9641
vn -0.9641 0.1877 0.1877
vn -0.6887 0.2265 0.6887
vn 0.1877 -0.9641 0.1877
vn 0.1877 -0.1877 0.9641
vn -0.1877 0.1877 0.9641
vn -0.9641 0.1877 -0.1877
vn -0.1877 0.1877 -0.9641
vn -0.6887 0.6887 -0.2265
vn -0.2265 0.6887 -0.6887
vn -0.1877 0.9641 -0.1877
vn -0.1877 0.9641 0.1877
vn 0.1877 0.1877 -0.9641
vn 0.2265 0.6887 -0.6887
vn 0.1877 0.9641 -0.1877
vn -0.6887 0.6887 0.2265
vn -0.2265 0.6887 0.6887
vn 0.1877 0.1877 0.9641
vn 0.1877 0.9641 0.1877
vn 0.2265 -0.6887 -0.6887
vn 0.6887 -0.6887 -0.2265
vn 0.6887 -0.2265 -0.6887
vn 0.9641 -0.1877 -0.1877
vn 0.6887 -0.6887 0.2265
vn 0.9641 0.1877 -0.1877
vn 0.9641 -0.1877 0.1877
vn 0.2265 -0.6887 0.6887
vn 0.6887 -0.2265 0.6887
vn 0.9641 0.1877 0.1877
vn 0.6887 0.2265 -0.6887
vn 0.6887 0.6887 -0.2265
vn 0.2265 0.6887 0.6887
vn 0.6887 0.2265 0.6887
vn 0.6887 0.6887 0.2265
f 1//1 2//2 3//3
f 4//4 2//2 1//1
f 5//5 4//4 1//1
f 6//6 2//2 4//4
f 7//7 1//1 3//3
f 7//7 5//5 1//1
f 5//5 8//8 4//4
f 8//8 6//6 4//4
f 9//9 3//3 2//2
f 2//2 6//6 10//10
f 3//3 11//11 7//7
f 5//5 7//7 12//12
f 11//11 13//13 7//7
f 13//13 14//14 7//7
f 7//7 14//14 12//12
f 14//14 13//13 15//15
f 5//5 12//12 16//16
f 17//17 12//12 14//14
f 15//15 17//17 14//14
f 3//3 18//18 11//11
f 11//11 18//18 13//13
f 19//19 15//15 13//13
f 20//20 15//15 19//19
f 8//8 5//5 21//21
f 8//8 22//22 6//6
f 5//5 16//16 21//21
f 21//21 23//23 8//8
f 24//24 22//22 8//8
f 8//8 23//23 24//24
f 23//23 25//25 24//24
f 16//16 23//23 21//21
f 26//26 25//25 23//23
f 22//22 27//27 6//6
f 28//28 22//22 24//24
f 25//25 28//28 24//24
f 26//26 29//29 25//25
f 12//12 17//17 16//16
f 20//20 17//17 15//15
f 23//23 16//16 30//30
f 26//26 23//23 30//30
f 30//30 16//16 17//17
f 17//17 20//20 31//31
f 31//31 30//30 17//17
f 31//31 26//26 30//30
f 32//32 31//31 20//20
f 33//33 26//26 31//31
f 9//9 2//2 34//34
f 2//2 10//10 34//34
f 18//18 3//3 9//9
f 10//10 6//6 27//27
f 34//34 35//35 9//9
f 36//36 35//35 34//34
f 10//10 36//36 34//34
f 35//35 36//36 37//37
f 38//38 9//9 35//35
f 37//37 38//38 35//35
f 10//10 27//27 36//36
f 37//37 36//36 39//39
f 37//37 39//39 40//40
f 13//13 18//18 41//41
f 19//19 13//13 41//41
f 38//38 18//18 9//9
f 37//37 40//40 38//38
f 38//38 41//41 18//18
f 42//42 41//41 38//38
f 19//19 41//41 42//42
f 40//40 42//42 38//38
f 42//42 32//32 19//19
f 42//42 40//40 43//43
f 28//28 27//27 22//22
f 28//28 25//25 29//29
f 36//36 27//27 44//44
f 39//39 36//36 44//44
f 27//27 28//28 44//44
f 39//39 44//44 45//45
f 45//45 44//44 28//28
f 29//29 45//45 28//28
f 43//43 39//39 45//45
f 29//29 33//33 45//45
f 20//20 19//19 32//32
f 33//33 29//29 26//26
f 31//31 32//32 46//46
f 33//33 31//31 46//46
f 43//43 40//40 39//39
f 42//42 47//47 32//32
f 42//42 43//43 47//47
f 48//48 43//43 45//45
f 45//45 33//33 48//48
f 32//32 47//47 46//46
f 43//43 48//48 47//47
f 48//48 46//46 47//47
f 33//33 46//46 48//48
