v -0.37500 -0.04900 -0.25000
v -0.12500 0.04900 -0.25000
v -0.12500 -0.04900 -0.25000
v -0.37500 -0.04900 0.25000
v -0.37500 0.04900 -0.25000
v -0.37500 -0.04900 -0.25000
v -0.37500 0.04900 -0.25000
v -0.37500 -0.04900 -0.25000
v -0.12500 -0.04900 -0.25000
v 0.37500 -0.04900 0.25000
v -0.12500 -0.04900 -0.25000
v -0.12500 0.04900 -0.25000
v 0.19877 0.04900 0.07377
v -0.37500 0.04900 0.25000
v -0.37500 -0.04900 0.25000
v -0.37500 -0.04900 0.25000
v 0.37500 -0.04900 0.25000
v -0.37500 0.04900 0.25000
v -0.37500 0.04900 -0.25000
v -0.31495 0.04900 -0.16250
v -0.28750 0.04900 -0.18995
v -0.25000 0.04900 -0.20000
v -0.32500 0.04900 -0.12500
v -0.12500 0.04900 -0.25000
v -0.21250 0.04900 -0.18995
v -0.32500 0.04900 0.12500
v -0.31495 0.04900 -0.08750
v -0.31495 0.04900 0.08750
v -0.28750 0.04900 -0.06005
v -0.18505 0.04900 -0.16250
v -0.17500 0.04900 -0.12500
v -0.21250 0.04900 -0.06005
v -0.06495 0.04900 0.08750
v -0.18505 0.04900 -0.08750
v 0.18505 0.04900 0.08750
v -0.37500 0.04900 0.25000
v -0.28750 0.04900 0.06005
v -0.25000 0.04900 0.05000
v -0.21250 0.04900 0.06005
v -0.18505 0.04900 0.08750
v -0.07500 0.04900 0.12500
v -0.25000 0.04900 -0.05000
v -0.31495 0.04900 0.16250
v -0.28750 0.04900 0.18995
v -0.25000 0.04900 0.20000
v 0.00000 0.04900 0.20000
v -0.03750 0.04900 0.06005
v -0.06495 0.04900 0.16250
v 0.00000 0.04900 0.05000
v 0.03750 0.04900 0.06005
v -0.17500 0.04900 0.12500
v -0.18505 0.04900 0.16250
v -0.21250 0.04900 0.18995
v -0.03750 0.04900 0.18995
v 0.30123 0.04900 0.17623
v 0.37500 0.04900 0.25000
v 0.37500 0.04900 0.25000
v 0.37500 -0.04900 0.25000
v 0.19877 0.04900 0.07377
v 0.06495 0.04900 0.08750
v 0.07500 0.04900 0.12500
v 0.17500 0.04900 0.12500
v 0.37500 0.04900 0.25000
v 0.21250 0.04900 0.18995
v 0.03750 0.04900 0.18995
v 0.06495 0.04900 0.16250
v 0.18505 0.04900 0.16250
v 0.25000 0.04900 0.20000
v 0.28750 0.04900 0.18995
v 0.30123 0.04900 0.17623
v -0.28750 0.09900 -0.18995
v -0.28750 0.04900 -0.18995
v -0.31495 0.04900 -0.16250
v -0.31495 0.09900 -0.16250
v -0.32500 0.04900 -0.12500
v -0.32500 0.09900 -0.12500
v -0.28750 0.09900 -0.18995
v -0.31495 0.09900 -0.16250
v -0.31495 0.09900 -0.08750
v -0.25000 0.09900 -0.20000
v -0.25000 0.04900 -0.20000
v -0.21250 0.09900 -0.18995
v -0.21250 0.04900 -0.18995
v -0.18505 0.09900 -0.16250
v -0.18505 0.04900 -0.16250
v -0.28750 0.09900 -0.06005
v -0.25000 0.09900 -0.20000
v -0.25000 0.09900 -0.05000
v -0.21250 0.09900 -0.18995
v -0.21250 0.09900 -0.06005
v -0.18505 0.09900 -0.16250
v -0.31495 0.04900 -0.08750
v -0.31495 0.09900 -0.08750
v -0.28750 0.04900 -0.06005
v -0.28750 0.09900 -0.06005
v -0.32500 0.09900 -0.12500
v -0.21250 0.09900 -0.06005
v -0.21250 0.04900 -0.06005
v -0.18505 0.04900 -0.08750
v -0.25000 0.04900 -0.05000
v -0.25000 0.09900 -0.05000
v -0.18505 0.09900 -0.08750
v -0.18505 0.09900 -0.08750
v -0.17500 0.09900 -0.12500
v -0.17500 0.04900 -0.12500
v -0.17500 0.09900 -0.12500
v -0.28750 0.09900 0.06005
v -0.28750 0.04900 0.06005
v -0.31495 0.04900 0.08750
v -0.31495 0.09900 0.08750
v -0.32500 0.04900 0.12500
v -0.32500 0.09900 0.12500
v -0.28750 0.09900 0.06005
v -0.31495 0.09900 0.08750
v -0.31495 0.09900 0.16250
v -0.25000 0.09900 0.05000
v -0.25000 0.04900 0.05000
v -0.21250 0.09900 0.06005
v -0.21250 0.04900 0.06005
v -0.18505 0.09900 0.08750
v -0.18505 0.04900 0.08750
v -0.28750 0.09900 0.18995
v -0.25000 0.09900 0.05000
v -0.25000 0.09900 0.20000
v -0.21250 0.09900 0.06005
v -0.21250 0.09900 0.18995
v -0.18505 0.09900 0.08750
v -0.31495 0.04900 0.16250
v -0.31495 0.09900 0.16250
v -0.28750 0.04900 0.18995
v -0.28750 0.09900 0.18995
v -0.32500 0.09900 0.12500
v -0.21250 0.09900 0.18995
v -0.21250 0.04900 0.18995
v -0.18505 0.04900 0.16250
v -0.25000 0.04900 0.20000
v -0.25000 0.09900 0.20000
v -0.18505 0.09900 0.16250
v -0.18505 0.09900 0.16250
v -0.17500 0.09900 0.12500
v -0.17500 0.04900 0.12500
v -0.17500 0.09900 0.12500
v 0.00000 0.09900 0.05000
v 0.00000 0.04900 0.05000
v -0.03750 0.04900 0.06005
v -0.06495 0.09900 0.08750
v -0.06495 0.04900 0.08750
v -0.07500 0.04900 0.12500
v -0.03750 0.09900 0.06005
v -0.07500 0.09900 0.12500
v -0.06495 0.09900 0.08750
v -0.06495 0.09900 0.16250
v -0.03750 0.09900 0.06005
v -0.03750 0.09900 0.18995
v 0.00000 0.09900 0.05000
v -0.06495 0.04900 0.16250
v -0.06495 0.09900 0.16250
v -0.03750 0.04900 0.18995
v -0.03750 0.09900 0.18995
v 0.00000 0.04900 0.20000
v -0.07500 0.09900 0.12500
v 0.00000 0.09900 0.20000
v 0.00000 0.09900 0.20000
v 0.03750 0.09900 0.06005
v 0.03750 0.04900 0.06005
v 0.06495 0.09900 0.08750
v 0.06495 0.04900 0.08750
v 0.07500 0.09900 0.12500
v 0.07500 0.04900 0.12500
v 0.03750 0.09900 0.06005
v 0.03750 0.09900 0.18995
v 0.06495 0.09900 0.08750
v 0.03750 0.09900 0.18995
v 0.03750 0.04900 0.18995
v 0.06495 0.04900 0.16250
v 0.06495 0.09900 0.16250
v 0.06495 0.09900 0.16250
v 0.07500 0.09900 0.12500
v 0.18505 0.09900 0.08750
v 0.18505 0.04900 0.08750
v 0.17500 0.04900 0.12500
v 0.17500 0.09900 0.12500
v 0.18505 0.04900 0.16250
v 0.18505 0.09900 0.16250
v 0.18505 0.09900 0.08750
v 0.17500 0.09900 0.12500
v 0.18505 0.09900 0.16250
v 0.21250 0.04900 0.06005
v 0.30123 0.04900 0.17623
v 0.19877 0.04900 0.07377
v 0.25000 0.04900 0.05000
v 0.28750 0.04900 0.06005
v 0.31495 0.04900 0.08750
v 0.32500 0.04900 0.12500
v 0.31495 0.04900 0.16250
v 0.21250 0.04900 0.06005
v 0.25000 0.09900 0.05000
v 0.25000 0.04900 0.05000
v 0.28750 0.09900 0.06005
v 0.28750 0.04900 0.06005
v 0.21250 0.09900 0.06005
v 0.19877 0.04900 0.07377
v 0.21250 0.09900 0.06005
v 0.21250 0.09900 0.18995
v 0.25000 0.09900 0.05000
v 0.25000 0.09900 0.20000
v 0.28750 0.09900 0.06005
v 0.31495 0.09900 0.08750
v 0.31495 0.04900 0.08750
v 0.32500 0.09900 0.12500
v 0.32500 0.04900 0.12500
v 0.28750 0.09900 0.18995
v 0.31495 0.09900 0.08750
v 0.21250 0.04900 0.18995
v 0.21250 0.09900 0.18995
v 0.25000 0.04900 0.20000
v 0.25000 0.09900 0.20000
v 0.28750 0.04900 0.18995
v 0.28750 0.09900 0.18995
v 0.31495 0.09900 0.16250
v 0.31495 0.04900 0.16250
v 0.30123 0.04900 0.17623
v 0.31495 0.09900 0.16250
v 0.32500 0.09900 0.12500
vn 0.0000 0.0000 -1.0000
vn 0.0000 0.0000 -1.0000
vn 0.0000 0.0000 -1.0000
vn -1.0000 0.0000 0.0000
vn -1.0000 0.0000 0.0000
vn -1.0000 0.0000 0.0000
vn 0.0000 0.0000 -1.0000
vn 0.0000 -1.0000 0.0000
vn 0.0000 -1.0000 0.0000
vn 0.0000 -1.0000 0.0000
vn 0.7071 0.0000 -0.7071
vn 0.7071 0.0000 -0.7071
vn 0.7071 0.0000 -0.7071
vn -1.0000 0.0000 0.0000
vn 0.0000 -1.0000 0.0000
vn 0.0000 0.0000 1.0000
vn 0.0000 0.0000 1.0000
vn 0.0000 0.0000 1.0000
vn 0.0000 1.0000 0.0000
vn 0.0000 1.0000 0.0000
vn 0.0000 1.0000 0.0000
vn 0.0000 1.0000 0.0000
vn 0.0000 1.0000 0.0000
vn 0.0000 1.0000 0.0000
vn 0.0000 1.0000 0.0000
vn 0.0000 1.0000 0.0000
vn 0.0000 1.0000 0.0000
vn 0.0000 1.0000 0.0000
vn 0.0000 1.0000 0.0000
vn 0.0000 1.0000 0.0000
vn 0.0000 1.0000 0.0000
vn 0.0000 1.0000 0.0000
vn 0.0000 1.0000 0.0000
vn 0.0000 1.0000 0.0000
vn 0.0000 1.0000 0.0000
vn 0.0000 1.0000 0.0000
vn 0.0000 1.0000 0.0000
vn 0.0000 1.0000 0.0000
vn 0.0000 1.0000 0.0000
vn 0.0000 1.0000 0.0000
vn 0.0000 1.0000 0.0000
vn 0.0000 1.0000 0.0000
vn 0.0000 1.0000 0.0000
vn 0.0000 1.0000 0.0000
vn 0.0000 1.0000 0.0000
vn 0.0000 1.0000 0.0000
vn 0.0000 1.0000 0.0000
vn 0.0000 1.0000 0.0000
vn 0.0000 1.0000 0.0000
vn 0.0000 1.0000 0.0000
vn 0.0000 1.0000 0.0000
vn 0.0000 1.0000 0.0000
vn 0.0000 1.0000 0.0000
vn 0.0000 1.0000 0.0000
vn 0.7071 0.0000 -0.7071
vn 0.7071 0.0000 -0.7071
vn 0.0000 0.0000 1.0000
vn 0.7071 0.0000 -0.7071
vn 0.0000 1.0000 0.0000
vn 0.0000 1.0000 0.0000
vn 0.0000 1.0000 0.0000
vn 0.0000 1.0000 0.0000
vn 0.0000 1.0000 0.0000
vn 0.0000 1.0000 0.0000
vn 0.0000 1.0000 0.0000
vn 0.0000 1.0000 0.0000
vn 0.0000 1.0000 0.0000
vn 0.0000 1.0000 0.0000
vn 0.0000 1.0000 0.0000
vn 0.0000 1.0000 0.0000
vn -0.5000 0.0000 -0.8660
vn -0.5000 0.0000 -0.8660
vn -0.8660 0.0000 -0.5000
vn -0.8660 0.0000 -0.5000
vn -1.0000 0.0000 0.0000
vn -1.0000 0.0000 -0.0000
vn 0.0000 1.0000 0.0000
vn 0.0000 1.0000 0.0000
vn 0.0000 1.0000 0.0000
vn 0.0000 0.0000 -1.0000
vn 0.0000 0.0000 -1.0000
vn 0.5000 0.0000 -0.8660
vn 0.5000 0.0000 -0.8660
vn 0.8660 0.0000 -0.5000
vn 0.8660 0.0000 -0.5000
vn 0.0000 1.0000 0.0000
vn 0.0000 1.0000 0.0000
vn 0.0000 1.0000 0.0000
vn 0.0000 1.0000 0.0000
vn 0.0000 1.0000 0.0000
vn 0.0000 1.0000 0.0000
vn -0.8660 0.0000 0.5000
vn -0.8660 0.0000 0.5000
vn -0.5000 0.0000 0.8660
vn -0.5000 0.0000 0.8660
vn 0.0000 1.0000 0.0000
vn 0.5000 0.0000 0.8660
vn 0.5000 0.0000 0.8660
vn 0.8660 0.0000 0.5000
vn 0.0000 0.0000 1.0000
vn 0.0000 0.0000 1.0000
vn 0.8660 0.0000 0.5000
vn 0.0000 1.0000 0.0000
vn 1.0000 0.0000 0.0000
vn 1.0000 0.0000 0.0000
vn 0.0000 1.0000 0.0000
vn -0.5000 0.0000 -0.8660
vn -0.5000 0.0000 -0.8660
vn -0.8660 0.0000 -0.5000
vn -0.8660 0.0000 -0.5000
vn -1.0000 0.0000 0.0000
vn -1.0000 0.0000 -0.0000
vn 0.0000 1.0000 0.0000
vn 0.0000 1.0000 0.0000
vn 0.0000 1.0000 0.0000
vn 0.0000 0.0000 -1.0000
vn -0.0000 0.0000 -1.0000
vn 0.5000 0.0000 -0.8660
vn 0.5000 0.0000 -0.8660
vn 0.8660 0.0000 -0.5000
vn 0.8660 0.0000 -0.5000
vn 0.0000 1.0000 0.0000
vn 0.0000 1.0000 0.0000
vn 0.0000 1.0000 0.0000
vn 0.0000 1.0000 0.0000
vn 0.0000 1.0000 0.0000
vn 0.0000 1.0000 0.0000
vn -0.8660 0.0000 0.5000
vn -0.8660 0.0000 0.5000
vn -0.5000 0.0000 0.8660
vn -0.5000 0.0000 0.8660
vn 0.0000 1.0000 0.0000
vn 0.5000 0.0000 0.8660
vn 0.5000 0.0000 0.8660
vn 0.8660 0.0000 0.5000
vn 0.0000 0.0000 1.0000
vn -0.0000 0.0000 1.0000
vn 0.8660 0.0000 0.5000
vn 0.0000 1.0000 0.0000
vn 1.0000 0.0000 0.0000
vn 1.0000 0.0000 0.0000
vn 0.0000 1.0000 0.0000
vn 0.0000 0.0000 -1.0000
vn -0.0000 0.0000 -1.0000
vn -0.5000 0.0000 -0.8660
vn -0.8660 0.0000 -0.5000
vn -0.8660 0.0000 -0.5000
vn -1.0000 0.0000 0.0000
vn -0.5000 0.0000 -0.8660
vn -1.0000 0.0000 -0.0000
vn 0.0000 1.0000 0.0000
vn 0.0000 1.0000 0.0000
vn 0.0000 1.0000 0.0000
vn 0.0000 1.0000 0.0000
vn 0.0000 1.0000 0.0000
vn -0.8660 0.0000 0.5000
vn -0.8660 0.0000 0.5000
vn -0.5000 0.0000 0.8660
vn -0.5000 0.0000 0.8660
vn 0.0000 0.0000 1.0000
vn 0.0000 1.0000 0.0000
vn 0.0000 1.0000 0.0000
vn -0.0000 0.0000 1.0000
vn 0.5000 0.0000 -0.8660
vn 0.5000 0.0000 -0.8660
vn 0.8660 0.0000 -0.5000
vn 0.8660 0.0000 -0.5000
vn 1.0000 0.0000 0.0000
vn 1.0000 0.0000 -0.0000
vn 0.0000 1.0000 0.0000
vn 0.0000 1.0000 0.0000
vn 0.0000 1.0000 0.0000
vn 0.5000 0.0000 0.8660
vn 0.5000 0.0000 0.8660
vn 0.8660 0.0000 0.5000
vn 0.8660 0.0000 0.5000
vn 0.0000 1.0000 0.0000
vn 0.0000 1.0000 0.0000
vn -0.8660 0.0000 -0.5000
vn -0.8660 0.0000 -0.5000
vn -1.0000 0.0000 0.0000
vn -1.0000 -0.0000 0.0000
vn -0.8660 -0.0000 0.5000
vn -0.8660 0.0000 0.5000
vn 0.0000 1.0000 0.0000
vn 0.0000 1.0000 0.0000
vn 0.0000 1.0000 0.0000
vn 0.0000 -1.0000 0.0000
vn 0.0000 -1.0000 0.0000
vn 0.0000 -1.0000 0.0000
vn 0.0000 -1.0000 0.0000
vn 0.0000 -1.0000 0.0000
vn 0.0000 -1.0000 0.0000
vn 0.0000 -1.0000 0.0000
vn 0.0000 -1.0000 0.0000
vn -0.5000 0.0000 -0.8660
vn 0.0000 0.0000 -1.0000
vn -0.0000 0.0000 -1.0000
vn 0.5000 0.0000 -0.8660
vn 0.5000 0.0000 -0.8660
vn -0.5000 0.0000 -0.8660
vn -0.7071 0.0000 -0.7071
vn 0.0000 1.0000 0.0000
vn 0.0000 1.0000 0.0000
vn 0.0000 1.0000 0.0000
vn 0.0000 1.0000 0.0000
vn 0.0000 1.0000 0.0000
vn 0.8660 0.0000 -0.5000
vn 0.8660 -0.0000 -0.5000
vn 1.0000 -0.0000 0.0000
vn 1.0000 0.0000 0.0000
vn 0.0000 1.0000 0.0000
vn 0.0000 1.0000 0.0000
vn -0.5000 0.0000 0.8660
vn -0.5000 0.0000 0.8660
vn 0.0000 0.0000 1.0000
vn -0.0000 0.0000 1.0000
vn 0.5000 0.0000 0.8660
vn 0.5000 0.0000 0.8660
vn 0.8660 0.0000 0.5000
vn 0.8660 0.0000 0.5000
vn 0.7071 0.0000 0.7071
vn 0.0000 1.0000 0.0000
vn 0.0000 1.0000 0.0000
f 1//1 2//2 3//3
f 4//4 5//5 6//6
f 1//1 7//7 2//2
f 8//8 9//9 10//10
f 11//11 12//12 13//13
f 4//4 14//14 5//5
f 15//15 8//8 10//10
f 16//16 17//17 18//18
f 19//19 20//20 21//21
f 19//19 21//21 22//22
f 19//19 23//23 20//20
f 19//19 22//22 24//24
f 24//24 22//22 25//25
f 19//19 26//26 23//23
f 23//23 26//26 27//27
f 27//27 28//28 29//29
f 24//24 25//25 30//30
f 24//24 30//30 31//31
f 32//32 33//33 34//34
f 24//24 31//31 35//35
f 34//34 35//35 31//31
f 36//36 26//26 19//19
f 29//29 28//28 37//37
f 27//27 26//26 28//28
f 29//29 37//37 38//38
f 29//29 38//38 39//39
f 29//29 39//39 40//40
f 29//29 41//41 42//42
f 36//36 43//43 26//26
f 36//36 44//44 43//43
f 36//36 45//45 44//44
f 36//36 46//46 45//45
f 42//42 41//41 32//32
f 34//34 33//33 47//47
f 32//32 41//41 33//33
f 29//29 40//40 48//48
f 29//29 48//48 41//41
f 34//34 47//47 49//49
f 34//34 49//49 50//50
f 40//40 51//51 48//48
f 51//51 52//52 48//48
f 53//53 54//54 52//52
f 52//52 54//54 48//48
f 45//45 46//46 53//53
f 53//53 46//46 54//54
f 11//11 13//13 55//55
f 11//11 55//55 56//56
f 18//18 17//17 57//57
f 11//11 56//56 58//58
f 24//24 35//35 59//59
f 34//34 50//50 35//35
f 35//35 50//50 60//60
f 60//60 61//61 62//62
f 35//35 60//60 62//62
f 36//36 63//63 46//46
f 46//46 64//64 65//65
f 61//61 66//66 67//67
f 65//65 64//64 66//66
f 61//61 67//67 62//62
f 66//66 64//64 67//67
f 46//46 68//68 64//64
f 63//63 68//68 46//46
f 63//63 69//69 68//68
f 63//63 70//70 69//69
f 71//71 72//72 73//73
f 74//74 73//73 75//75
f 71//71 73//73 74//74
f 74//74 75//75 76//76
f 77//77 78//78 79//79
f 80//80 81//81 72//72
f 82//82 83//83 81//81
f 84//84 85//85 83//83
f 71//71 80//80 72//72
f 80//80 82//82 81//81
f 77//77 86//86 87//87
f 87//87 88//88 89//89
f 82//82 84//84 83//83
f 89//89 90//90 91//91
f 76//76 75//75 92//92
f 93//93 92//92 94//94
f 76//76 92//92 93//93
f 93//93 94//94 95//95
f 78//78 96//96 79//79
f 77//77 79//79 86//86
f 97//97 98//98 99//99
f 95//95 94//94 100//100
f 101//101 100//100 98//98
f 87//87 86//86 88//88
f 97//97 99//99 102//102
f 89//89 88//88 90//90
f 91//91 90//90 103//103
f 95//95 100//100 101//101
f 101//101 98//98 97//97
f 104//104 105//105 85//85
f 84//84 104//104 85//85
f 102//102 99//99 105//105
f 104//104 102//102 105//105
f 91//91 103//103 106//106
f 107//107 108//108 109//109
f 110//110 109//109 111//111
f 107//107 109//109 110//110
f 110//110 111//111 112//112
f 113//113 114//114 115//115
f 116//116 117//117 108//108
f 118//118 119//119 117//117
f 120//120 121//121 119//119
f 107//107 116//116 108//108
f 116//116 118//118 117//117
f 113//113 122//122 123//123
f 123//123 124//124 125//125
f 118//118 120//120 119//119
f 125//125 126//126 127//127
f 112//112 111//111 128//128
f 129//129 128//128 130//130
f 112//112 128//128 129//129
f 129//129 130//130 131//131
f 114//114 132//132 115//115
f 113//113 115//115 122//122
f 133//133 134//134 135//135
f 131//131 130//130 136//136
f 137//137 136//136 134//134
f 123//123 122//122 124//124
f 133//133 135//135 138//138
f 125//125 124//124 126//126
f 127//127 126//126 139//139
f 131//131 136//136 137//137
f 137//137 134//134 133//133
f 140//140 141//141 121//121
f 120//120 140//140 121//121
f 138//138 135//135 141//141
f 140//140 138//138 141//141
f 127//127 139//139 142//142
f 143//143 144//144 145//145
f 146//146 147//147 148//148
f 149//149 145//145 147//147
f 149//149 143//143 145//145
f 146//146 149//149 147//147
f 146//146 148//148 150//150
f 151//151 152//152 153//153
f 153//153 154//154 155//155
f 150//150 148//148 156//156
f 157//157 156//156 158//158
f 159//159 158//158 160//160
f 150//150 156//156 157//157
f 151//151 161//161 152//152
f 157//157 158//158 159//159
f 153//153 152//152 154//154
f 154//154 162//162 155//155
f 159//159 160//160 163//163
f 164//164 165//165 144//144
f 166//166 167//167 165//165
f 168//168 169//169 167//167
f 143//143 164//164 144//144
f 164//164 166//166 165//165
f 155//155 162//162 170//170
f 170//170 171//171 172//172
f 166//166 168//168 167//167
f 173//173 174//174 175//175
f 176//176 175//175 169//169
f 163//163 160//160 174//174
f 170//170 162//162 171//171
f 168//168 176//176 169//169
f 173//173 175//175 176//176
f 172//172 177//177 178//178
f 172//172 171//171 177//177
f 163//163 174//174 173//173
f 179//179 180//180 181//181
f 179//179 181//181 182//182
f 182//182 181//181 183//183
f 182//182 183//183 184//184
f 185//185 186//186 187//187
f 188//188 189//189 190//190
f 188//188 191//191 189//189
f 191//191 192//192 189//189
f 192//192 193//193 189//189
f 193//193 194//194 195//195
f 193//193 195//195 189//189
f 196//196 197//197 198//198
f 198//198 199//199 200//200
f 201//201 202//202 180//180
f 196//196 202//202 201//201
f 196//196 201//201 197//197
f 198//198 197//197 199//199
f 179//179 201//201 180//180
f 185//185 187//187 203//203
f 203//203 204//204 205//205
f 205//205 206//206 207//207
f 200//200 208//208 209//209
f 209//209 210//210 211//211
f 200//200 199//199 208//208
f 209//209 208//208 210//210
f 207//207 212//212 213//213
f 184//184 183//183 214//214
f 215//215 214//214 216//216
f 217//217 216//216 218//218
f 184//184 214//214 215//215
f 203//203 187//187 204//204
f 205//205 204//204 206//206
f 207//207 206//206 212//212
f 215//215 216//216 217//217
f 217//217 218//218 219//219
f 211//211 220//220 221//221
f 219//219 218//218 222//222
f 221//221 219//219 222//222
f 211//211 210//210 220//220
f 221//221 220//220 219//219
f 213//213 223//223 224//224
f 213//213 212//212 223//223
