v -0.37500 -0.04900 0.25000
v 0.12500 0.04900 -0.25000
v 0.12500 -0.04900 -0.25000
v -0.30123 0.04900 0.17623
v -0.19877 0.04900 0.07377
v -0.37500 0.04900 0.25000
v -0.37500 -0.04900 0.25000
v 0.37500 -0.04900 0.25000
v -0.37500 0.04900 0.25000
v 0.12500 0.04900 -0.25000
v -0.19877 0.04900 0.07377
v -0.18505 0.04900 0.08750
v -0.03750 0.04900 0.06005
v -0.37500 0.04900 0.25000
v -0.28750 0.04900 0.18995
v -0.30123 0.04900 0.17623
v -0.25000 0.04900 0.20000
v 0.00000 0.04900 0.20000
v -0.17500 0.04900 0.12500
v -0.07500 0.04900 0.12500
v -0.06495 0.04900 0.08750
v -0.18505 0.04900 0.16250
v -0.21250 0.04900 0.18995
v -0.03750 0.04900 0.18995
v -0.06495 0.04900 0.16250
v 0.12500 -0.04900 -0.25000
v 0.37500 0.04900 -0.25000
v 0.37500 -0.04900 -0.25000
v 0.37500 -0.04900 0.25000
v 0.12500 -0.04900 -0.25000
v 0.37500 -0.04900 -0.25000
v 0.12500 0.04900 -0.25000
v 0.37500 0.04900 0.25000
v 0.37500 -0.04900 -0.25000
v 0.37500 0.04900 -0.25000
v -0.37500 -0.04900 0.25000
v 0.37500 0.04900 0.25000
v 0.37500 -0.04900 0.25000
v 0.18505 0.04900 -0.16250
v 0.21250 0.04900 -0.18995
v 0.17500 0.04900 -0.12500
v 0.00000 0.04900 0.05000
v 0.18505 0.04900 -0.08750
v 0.25000 0.04900 -0.20000
v 0.37500 0.04900 -0.25000
v 0.28750 0.04900 -0.18995
v 0.31495 0.04900 -0.16250
v 0.32500 0.04900 -0.12500
v 0.18505 0.04900 0.08750
v 0.21250 0.04900 -0.06005
v 0.28750 0.04900 0.06005
v 0.25000 0.04900 -0.05000
v 0.28750 0.04900 -0.06005
v 0.31495 0.04900 -0.08750
v 0.31495 0.04900 0.08750
v 0.37500 0.04900 0.25000
v 0.03750 0.04900 0.06005
v 0.06495 0.04900 0.08750
v 0.07500 0.04900 0.12500
v 0.17500 0.04900 0.12500
v 0.21250 0.04900 0.18995
v 0.03750 0.04900 0.18995
v 0.06495 0.04900 0.16250
v 0.18505 0.04900 0.16250
v 0.25000 0.04900 0.20000
v 0.21250 0.04900 0.06005
v 0.25000 0.04900 0.05000
v 0.32500 0.04900 0.12500
v 0.31495 0.04900 0.16250
v 0.28750 0.04900 0.18995
v 0.18505 0.09900 -0.16250
v 0.18505 0.04900 -0.16250
v 0.17500 0.04900 -0.12500
v 0.17500 0.09900 -0.12500
v 0.18505 0.04900 -0.08750
v 0.18505 0.09900 -0.08750
v 0.18505 0.09900 -0.16250
v 0.17500 0.09900 -0.12500
v 0.18505 0.09900 -0.08750
v 0.25000 0.09900 -0.20000
v 0.25000 0.04900 -0.20000
v 0.21250 0.04900 -0.18995
v 0.28750 0.09900 -0.18995
v 0.28750 0.04900 -0.18995
v 0.21250 0.09900 -0.18995
v 0.21250 0.09900 -0.18995
v 0.21250 0.09900 -0.06005
v 0.25000 0.09900 -0.20000
v 0.25000 0.09900 -0.05000
v 0.28750 0.09900 -0.18995
v 0.31495 0.09900 -0.16250
v 0.31495 0.04900 -0.16250
v 0.32500 0.09900 -0.12500
v 0.32500 0.04900 -0.12500
v 0.28750 0.09900 -0.06005
v 0.31495 0.09900 -0.16250
v 0.21250 0.04900 -0.06005
v 0.21250 0.09900 -0.06005
v 0.25000 0.04900 -0.05000
v 0.25000 0.09900 -0.05000
v 0.28750 0.04900 -0.06005
v 0.28750 0.09900 -0.06005
v 0.31495 0.09900 -0.08750
v 0.31495 0.04900 -0.08750
v 0.31495 0.09900 -0.08750
v 0.32500 0.09900 -0.12500
v -0.28750 0.04900 0.06005
v -0.31495 0.04900 0.16250
v -0.31495 0.04900 0.08750
v -0.25000 0.04900 0.05000
v -0.19877 0.04900 0.07377
v -0.21250 0.04900 0.06005
v -0.32500 0.04900 0.12500
v -0.30123 0.04900 0.17623
v -0.28750 0.04900 0.06005
v -0.31495 0.04900 0.08750
v -0.28750 0.09900 0.06005
v -0.32500 0.04900 0.12500
v -0.31495 0.09900 0.08750
v -0.32500 0.09900 0.12500
v -0.28750 0.09900 0.06005
v -0.31495 0.09900 0.08750
v -0.31495 0.09900 0.16250
v -0.25000 0.09900 0.05000
v -0.25000 0.04900 0.05000
v -0.21250 0.09900 0.06005
v -0.21250 0.04900 0.06005
v -0.18505 0.09900 0.08750
v -0.19877 0.04900 0.07377
v -0.18505 0.04900 0.08750
v -0.28750 0.09900 0.18995
v -0.25000 0.09900 0.05000
v -0.25000 0.09900 0.20000
v -0.21250 0.09900 0.06005
v -0.21250 0.09900 0.18995
v -0.18505 0.09900 0.08750
v -0.31495 0.04900 0.16250
v -0.30123 0.04900 0.17623
v -0.31495 0.09900 0.16250
v -0.28750 0.04900 0.18995
v -0.28750 0.09900 0.18995
v -0.32500 0.09900 0.12500
v -0.21250 0.09900 0.18995
v -0.21250 0.04900 0.18995
v -0.18505 0.04900 0.16250
v -0.25000 0.04900 0.20000
v -0.25000 0.09900 0.20000
v -0.18505 0.09900 0.16250
v -0.18505 0.09900 0.16250
v -0.17500 0.09900 0.12500
v -0.17500 0.04900 0.12500
v -0.17500 0.09900 0.12500
v 0.00000 0.09900 0.05000
v 0.00000 0.04900 0.05000
v -0.03750 0.04900 0.06005
v -0.06495 0.09900 0.08750
v -0.06495 0.04900 0.08750
v -0.07500 0.04900 0.12500
v -0.03750 0.09900 0.06005
v -0.07500 0.09900 0.12500
v -0.06495 0.09900 0.08750
v -0.06495 0.09900 0.16250
v -0.03750 0.09900 0.06005
v -0.03750 0.09900 0.18995
v 0.00000 0.09900 0.05000
v -0.06495 0.04900 0.16250
v -0.06495 0.09900 0.16250
v -0.03750 0.04900 0.18995
v -0.03750 0.09900 0.18995
v 0.00000 0.04900 0.20000
v -0.07500 0.09900 0.12500
v 0.00000 0.09900 0.20000
v 0.00000 0.09900 0.20000
v 0.03750 0.09900 0.06005
v 0.03750 0.04900 0.06005
v 0.06495 0.09900 0.08750
v 0.06495 0.04900 0.08750
v 0.07500 0.09900 0.12500
v 0.07500 0.04900 0.12500
v 0.03750 0.09900 0.06005
v 0.03750 0.09900 0.18995
v 0.06495 0.09900 0.08750
v 0.03750 0.09900 0.18995
v 0.03750 0.04900 0.18995
v 0.06495 0.04900 0.16250
v 0.06495 0.09900 0.16250
v 0.06495 0.09900 0.16250
v 0.07500 0.09900 0.12500
v 0.18505 0.09900 0.08750
v 0.18505 0.04900 0.08750
v 0.17500 0.04900 0.12500
v 0.17500 0.09900 0.12500
v 0.18505 0.04900 0.16250
v 0.18505 0.09900 0.16250
v 0.18505 0.09900 0.08750
v 0.17500 0.09900 0.12500
v 0.18505 0.09900 0.16250
v 0.25000 0.09900 0.05000
v 0.25000 0.04900 0.05000
v 0.21250 0.04900 0.06005
v 0.28750 0.09900 0.06005
v 0.28750 0.04900 0.06005
v 0.21250 0.09900 0.06005
v 0.21250 0.09900 0.06005
v 0.21250 0.09900 0.18995
v 0.25000 0.09900 0.05000
v 0.25000 0.09900 0.20000
v 0.28750 0.09900 0.06005
v 0.31495 0.09900 0.08750
v 0.31495 0.04900 0.08750
v 0.32500 0.09900 0.12500
v 0.32500 0.04900 0.12500
v 0.28750 0.09900 0.18995
v 0.31495 0.09900 0.08750
v 0.21250 0.04900 0.18995
v 0.21250 0.09900 0.18995
v 0.25000 0.04900 0.20000
v 0.25000 0.09900 0.20000
v 0.28750 0.04900 0.18995
v 0.28750 0.09900 0.18995
v 0.31495 0.09900 0.16250
v 0.31495 0.04900 0.16250
v 0.31495 0.09900 0.16250
v 0.32500 0.09900 0.12500
vn -0.7071 0.0000 -0.7071
vn -0.7071 0.0000 -0.7071
vn -0.7071 0.0000 -0.7071
vn -0.7071 0.0000 -0.7071
vn -0.7071 0.0000 -0.7071
vn -0.7071 0.0000 -0.7071
vn 0.0000 0.0000 1.0000
vn 0.0000 0.0000 1.0000
vn 0.0000 0.0000 1.0000
vn 0.0000 1.0000 0.0000
vn 0.0000 1.0000 0.0000
vn 0.0000 1.0000 0.0000
vn 0.0000 1.0000 0.0000
vn 0.0000 1.0000 0.0000
vn 0.0000 1.0000 0.0000
vn 0.0000 1.0000 0.0000
vn 0.0000 1.0000 0.0000
vn 0.0000 1.0000 0.0000
vn 0.0000 1.0000 0.0000
vn 0.0000 1.0000 0.0000
vn 0.0000 1.0000 0.0000
vn 0.0000 1.0000 0.0000
vn 0.0000 1.0000 0.0000
vn 0.0000 1.0000 0.0000
vn 0.0000 1.0000 0.0000
vn 0.0000 0.0000 -1.0000
vn 0.0000 0.0000 -1.0000
vn 0.0000 0.0000 -1.0000
vn 0.0000 -1.0000 0.0000
vn 0.0000 -1.0000 0.0000
vn 0.0000 -1.0000 0.0000
vn 0.0000 0.0000 -1.0000
vn 1.0000 0.0000 0.0000
vn 1.0000 0.0000 0.0000
vn 1.0000 0.0000 0.0000
vn 0.0000 -1.0000 0.0000
vn 0.0000 0.0000 1.0000
vn 1.0000 0.0000 0.0000
vn 0.0000 1.0000 0.0000
vn 0.0000 1.0000 0.0000
vn 0.0000 1.0000 0.0000
vn 0.0000 1.0000 0.0000
vn 0.0000 1.0000 0.0000
vn 0.0000 1.0000 0.0000
vn 0.0000 1.0000 0.0000
vn 0.0000 1.0000 0.0000
vn 0.0000 1.0000 0.0000
vn 0.0000 1.0000 0.0000
vn 0.0000 1.0000 0.0000
vn 0.0000 1.0000 0.0000
vn 0.0000 1.0000 0.0000
vn 0.0000 1.0000 0.0000
vn 0.0000 1.0000 0.0000
vn 0.0000 1.0000 0.0000
vn 0.0000 1.0000 0.0000
vn 0.0000 1.0000 0.0000
vn 0.0000 1.0000 0.0000
vn 0.0000 1.0000 0.0000
vn 0.0000 1.0000 0.0000
vn 0.0000 1.0000 0.0000
vn 0.0000 1.0000 0.0000
vn 0.0000 1.0000 0.0000
vn 0.0000 1.0000 0.0000
vn 0.0000 1.0000 0.0000
vn 0.0000 1.0000 0.0000
vn 0.0000 1.0000 0.0000
vn 0.0000 1.0000 0.0000
vn 0.0000 1.0000 0.0000
vn 0.0000 1.0000 0.0000
vn 0.0000 1.0000 0.0000
vn -0.8660 0.0000 -0.5000
vn -0.8660 0.0000 -0.5000
vn -1.0000 0.0000 0.0000
vn -1.0000 -0.0000 0.0000
vn -0.8660 -0.0000 0.5000
vn -0.8660 0.0000 0.5000
vn 0.0000 1.0000 0.0000
vn 0.0000 1.0000 0.0000
vn 0.0000 1.0000 0.0000
vn 0.0000 0.0000 -1.0000
vn 0.0000 0.0000 -1.0000
vn -0.5000 0.0000 -0.8660
vn 0.5000 0.0000 -0.8660
vn 0.5000 0.0000 -0.8660
vn -0.5000 0.0000 -0.8660
vn 0.0000 1.0000 0.0000
vn 0.0000 1.0000 0.0000
vn 0.0000 1.0000 0.0000
vn 0.0000 1.0000 0.0000
vn 0.0000 1.0000 0.0000
vn 0.8660 0.0000 -0.5000
vn 0.8660 -0.0000 -0.5000
vn 1.0000 -0.0000 0.0000
vn 1.0000 0.0000 0.0000
vn 0.0000 1.0000 0.0000
vn 0.0000 1.0000 0.0000
vn -0.5000 0.0000 0.8660
vn -0.5000 0.0000 0.8660
vn 0.0000 0.0000 1.0000
vn 0.0000 0.0000 1.0000
vn 0.5000 0.0000 0.8660
vn 0.5000 0.0000 0.8660
vn 0.8660 0.0000 0.5000
vn 0.8660 0.0000 0.5000
vn 0.0000 1.0000 0.0000
vn 0.0000 1.0000 0.0000
vn 0.0000 -1.0000 0.0000
vn 0.0000 -1.0000 0.0000
vn 0.0000 -1.0000 0.0000
vn 0.0000 -1.0000 0.0000
vn 0.0000 -1.0000 0.0000
vn 0.0000 -1.0000 0.0000
vn 0.0000 -1.0000 0.0000
vn 0.0000 -1.0000 0.0000
vn -0.5000 0.0000 -0.8660
vn -0.8660 0.0000 -0.5000
vn -0.5000 0.0000 -0.8660
vn -1.0000 0.0000 0.0000
vn -0.8660 0.0000 -0.5000
vn -1.0000 0.0000 -0.0000
vn 0.0000 1.0000 0.0000
vn 0.0000 1.0000 0.0000
vn 0.0000 1.0000 0.0000
vn 0.0000 0.0000 -1.0000
vn -0.0000 0.0000 -1.0000
vn 0.5000 0.0000 -0.8660
vn 0.5000 -0.0000 -0.8660
vn 0.8660 -0.0000 -0.5000
vn 0.7071 -0.0000 -0.7071
vn 0.8660 0.0000 -0.5000
vn 0.0000 1.0000 0.0000
vn 0.0000 1.0000 0.0000
vn 0.0000 1.0000 0.0000
vn 0.0000 1.0000 0.0000
vn 0.0000 1.0000 0.0000
vn 0.0000 1.0000 0.0000
vn -0.8660 0.0000 0.5000
vn -0.7071 0.0000 0.7071
vn -0.8660 0.0000 0.5000
vn -0.5000 0.0000 0.8660
vn -0.5000 0.0000 0.8660
vn 0.0000 1.0000 0.0000
vn 0.5000 0.0000 0.8660
vn 0.5000 0.0000 0.8660
vn 0.8660 0.0000 0.5000
vn 0.0000 0.0000 1.0000
vn -0.0000 0.0000 1.0000
vn 0.8660 0.0000 0.5000
vn 0.0000 1.0000 0.0000
vn 1.0000 0.0000 0.0000
vn 1.0000 0.0000 0.0000
vn 0.0000 1.0000 0.0000
vn 0.0000 0.0000 -1.0000
vn -0.0000 0.0000 -1.0000
vn -0.5000 0.0000 -0.8660
vn -0.8660 0.0000 -0.5000
vn -0.8660 0.0000 -0.5000
vn -1.0000 0.0000 0.0000
vn -0.5000 0.0000 -0.8660
vn -1.0000 0.0000 -0.0000
vn 0.0000 1.0000 0.0000
vn 0.0000 1.0000 0.0000
vn 0.0000 1.0000 0.0000
vn 0.0000 1.0000 0.0000
vn 0.0000 1.0000 0.0000
vn -0.8660 0.0000 0.5000
vn -0.8660 0.0000 0.5000
vn -0.5000 0.0000 0.8660
vn -0.5000 0.0000 0.8660
vn 0.0000 0.0000 1.0000
vn 0.0000 1.0000 0.0000
vn 0.0000 1.0000 0.0000
vn -0.0000 0.0000 1.0000
vn 0.5000 0.0000 -0.8660
vn 0.5000 0.0000 -0.8660
vn 0.8660 0.0000 -0.5000
vn 0.8660 0.0000 -0.5000
vn 1.0000 0.0000 0.0000
vn 1.0000 0.0000 -0.0000
vn 0.0000 1.0000 0.0000
vn 0.0000 1.0000 0.0000
vn 0.0000 1.0000 0.0000
vn 0.5000 0.0000 0.8660
vn 0.5000 0.0000 0.8660
vn 0.8660 0.0000 0.5000
vn 0.8660 0.0000 0.5000
vn 0.0000 1.0000 0.0000
vn 0.0000 1.0000 0.0000
vn -0.8660 0.0000 -0.5000
vn -0.8660 0.0000 -0.5000
vn -1.0000 0.0000 0.0000
vn -1.0000 -0.0000 0.0000
vn -0.8660 -0.0000 0.5000
vn -0.8660 0.0000 0.5000
vn 0.0000 1.0000 0.0000
vn 0.0000 1.0000 0.0000
vn 0.0000 1.0000 0.0000
vn 0.0000 0.0000 -1.0000
vn -0.0000 0.0000 -1.0000
vn -0.5000 0.0000 -0.8660
vn 0.5000 0.0000 -0.8660
vn 0.5000 0.0000 -0.8660
vn -0.5000 0.0000 -0.8660
vn 0.0000 1.0000 0.0000
vn 0.0000 1.0000 0.0000
vn 0.0000 1.0000 0.0000
vn 0.0000 1.0000 0.0000
vn 0.0000 1.0000 0.0000
vn 0.8660 0.0000 -0.5000
vn 0.8660 -0.0000 -0.5000
vn 1.0000 -0.0000 0.0000
vn 1.0000 0.0000 0.0000
vn 0.0000 1.0000 0.0000
vn 0.0000 1.0000 0.0000
vn -0.5000 0.0000 0.8660
vn -0.5000 0.0000 0.8660
vn 0.0000 0.0000 1.0000
vn -0.0000 0.0000 1.0000
vn 0.5000 0.0000 0.8660
vn 0.5000 0.0000 0.8660
vn 0.8660 0.0000 0.5000
vn 0.8660 0.0000 0.5000
vn 0.0000 1.0000 0.0000
vn 0.0000 1.0000 0.0000
f 1//1 2//2 3//3
f 1//1 4//4 5//5
f 1//1 6//6 4//4
f 7//7 8//8 9//9
f 1//1 5//5 2//2
f 10//10 11//11 12//12
f 10//10 12//12 13//13
f 14//14 15//15 16//16
f 14//14 17//17 15//15
f 14//14 18//18 17//17
f 12//12 19//19 20//20
f 12//12 21//21 13//13
f 12//12 20//20 21//21
f 19//19 22//22 20//20
f 23//23 24//24 22//22
f 22//22 25//25 20//20
f 22//22 24//24 25//25
f 17//17 18//18 23//23
f 23//23 18//18 24//24
f 26//26 27//27 28//28
f 29//29 30//30 31//31
f 26//26 32//32 27//27
f 33//33 34//34 35//35
f 36//36 30//30 29//29
f 9//9 8//8 37//37
f 38//38 34//34 33//33
f 10//10 39//39 40//40
f 10//10 41//41 39//39
f 10//10 13//13 42//42
f 10//10 42//42 41//41
f 41//41 42//42 43//43
f 10//10 40//40 44//44
f 10//10 44//44 45//45
f 45//45 44//44 46//46
f 45//45 46//46 47//47
f 45//45 47//47 48//48
f 43//43 49//49 50//50
f 50//50 51//51 52//52
f 51//51 53//53 52//52
f 48//48 54//54 55//55
f 53//53 55//55 54//54
f 56//56 45//45 48//48
f 43//43 42//42 57//57
f 43//43 57//57 58//58
f 43//43 58//58 49//49
f 58//58 59//59 49//49
f 59//59 60//60 49//49
f 14//14 56//56 18//18
f 18//18 61//61 62//62
f 59//59 63//63 64//64
f 62//62 61//61 63//63
f 59//59 64//64 60//60
f 63//63 61//61 64//64
f 18//18 65//65 61//61
f 50//50 49//49 66//66
f 50//50 66//66 67//67
f 50//50 67//67 51//51
f 53//53 51//51 55//55
f 48//48 55//55 68//68
f 56//56 48//48 68//68
f 56//56 65//65 18//18
f 56//56 68//68 69//69
f 56//56 70//70 65//65
f 56//56 69//69 70//70
f 71//71 72//72 73//73
f 71//71 73//73 74//74
f 74//74 73//73 75//75
f 74//74 75//75 76//76
f 77//77 78//78 79//79
f 80//80 81//81 82//82
f 83//83 84//84 81//81
f 85//85 82//82 72//72
f 85//85 80//80 82//82
f 80//80 83//83 81//81
f 71//71 85//85 72//72
f 77//77 79//79 86//86
f 86//86 87//87 88//88
f 88//88 89//89 90//90
f 91//91 92//92 84//84
f 93//93 94//94 92//92
f 83//83 91//91 84//84
f 91//91 93//93 92//92
f 90//90 95//95 96//96
f 76//76 75//75 97//97
f 98//98 97//97 99//99
f 100//100 99//99 101//101
f 76//76 97//97 98//98
f 86//86 79//79 87//87
f 88//88 87//87 89//89
f 90//90 89//89 95//95
f 98//98 99//99 100//100
f 102//102 100//100 101//101
f 103//103 104//104 94//94
f 102//102 101//101 104//104
f 93//93 103//103 94//94
f 103//103 102//102 104//104
f 96//96 105//105 106//106
f 96//96 95//95 105//105
f 107//107 108//108 109//109
f 107//107 110//110 111//111
f 110//110 112//112 111//111
f 107//107 111//111 108//108
f 109//109 108//108 113//113
f 108//108 111//111 114//114
f 115//115 116//116 117//117
f 116//116 118//118 119//119
f 116//116 119//119 117//117
f 118//118 120//120 119//119
f 121//121 122//122 123//123
f 115//115 124//124 125//125
f 125//125 126//126 127//127
f 127//127 128//128 129//129
f 128//128 130//130 129//129
f 115//115 117//117 124//124
f 125//125 124//124 126//126
f 121//121 131//131 132//132
f 132//132 133//133 134//134
f 127//127 126//126 128//128
f 134//134 135//135 136//136
f 118//118 137//137 120//120
f 137//137 138//138 139//139
f 139//139 138//138 140//140
f 137//137 139//139 120//120
f 139//139 140//140 141//141
f 122//122 142//142 123//123
f 121//121 123//123 131//131
f 143//143 144//144 145//145
f 141//141 140//140 146//146
f 147//147 146//146 144//144
f 132//132 131//131 133//133
f 143//143 145//145 148//148
f 134//134 133//133 135//135
f 136//136 135//135 149//149
f 141//141 146//146 147//147
f 147//147 144//144 143//143
f 150//150 151//151 130//130
f 128//128 150//150 130//130
f 148//148 145//145 151//151
f 150//150 148//148 151//151
f 136//136 149//149 152//152
f 153//153 154//154 155//155
f 156//156 157//157 158//158
f 159//159 155//155 157//157
f 159//159 153//153 155//155
f 156//156 159//159 157//157
f 156//156 158//158 160//160
f 161//161 162//162 163//163
f 163//163 164//164 165//165
f 160//160 158//158 166//166
f 167//167 166//166 168//168
f 169//169 168//168 170//170
f 160//160 166//166 167//167
f 161//161 171//171 162//162
f 167//167 168//168 169//169
f 163//163 162//162 164//164
f 164//164 172//172 165//165
f 169//169 170//170 173//173
f 174//174 175//175 154//154
f 176//176 177//177 175//175
f 178//178 179//179 177//177
f 153//153 174//174 154//154
f 174//174 176//176 175//175
f 165//165 172//172 180//180
f 180//180 181//181 182//182
f 176//176 178//178 177//177
f 183//183 184//184 185//185
f 186//186 185//185 179//179
f 173//173 170//170 184//184
f 180//180 172//172 181//181
f 178//178 186//186 179//179
f 183//183 185//185 186//186
f 182//182 187//187 188//188
f 182//182 181//181 187//187
f 173//173 184//184 183//183
f 189//189 190//190 191//191
f 189//189 191//191 192//192
f 192//192 191//191 193//193
f 192//192 193//193 194//194
f 195//195 196//196 197//197
f 198//198 199//199 200//200
f 201//201 202//202 199//199
f 203//203 200//200 190//190
f 203//203 198//198 200//200
f 198//198 201//201 199//199
f 189//189 203//203 190//190
f 195//195 197//197 204//204
f 204//204 205//205 206//206
f 206//206 207//207 208//208
f 209//209 210//210 202//202
f 211//211 212//212 210//210
f 201//201 209//209 202//202
f 209//209 211//211 210//210
f 208//208 213//213 214//214
f 194//194 193//193 215//215
f 216//216 215//215 217//217
f 218//218 217//217 219//219
f 194//194 215//215 216//216
f 204//204 197//197 205//205
f 206//206 205//205 207//207
f 208//208 207//207 213//213
f 216//216 217//217 218//218
f 218//218 219//219 220//220
f 221//221 222//222 212//212
f 220//220 219//219 222//222
f 211//211 221//221 212//212
f 221//221 220//220 222//222
f 214//214 223//223 224//224
f 214//214 213//213 223//223
