v -0.24566 -0.04666 -0.24000
v -0.24000 -0.04666 -0.24566
v -0.24000 -0.04900 -0.24000
v -0.24566 -0.04100 -0.24566
v -0.24800 -0.04100 -0.24000
v -0.24000 -0.04100 -0.24800
v -0.24750 -0.04222 -0.03367
v -0.24566 -0.04666 -0.02445
v 0.24000 -0.04900 -0.24000
v 0.24000 -0.04100 -0.24800
v -0.24000 -0.04900 -0.01959
v -0.24566 -0.04666 -0.02445
v -0.24800 -0.04100 -0.03464
v -0.24800 -0.02343 -0.04865
v -0.24800 0.00000 -0.05400
v -0.24566 0.04100 -0.24566
v -0.24800 0.04100 -0.24000
v -0.24000 0.04100 -0.24800
v 0.24000 0.04100 -0.24800
v -0.24800 0.02343 -0.04865
v -0.24566 -0.04666 0.24000
v -0.24566 -0.04666 0.02445
v -0.24000 -0.04900 0.01959
v -0.24750 -0.04222 0.03367
v -0.24566 -0.04666 0.02445
v -0.24800 -0.04100 0.03464
v -0.24800 -0.04100 0.24000
v -0.24800 -0.02343 0.04865
v -0.24800 0.00000 0.05400
v -0.24000 -0.04900 0.24000
v 0.24000 -0.04900 0.01959
v -0.24000 -0.04666 0.24566
v -0.24566 -0.04100 0.24566
v -0.24000 -0.04100 0.24800
v 0.24000 -0.04900 0.24000
v 0.24000 -0.04100 0.24800
v -0.24800 0.04100 0.24000
v -0.24800 0.02343 0.04865
v -0.24566 0.04100 0.24566
v -0.24000 0.04100 0.24800
v -0.24566 0.04666 -0.24000
v -0.24000 0.04666 -0.24566
v -0.24000 0.04900 -0.24000
v -0.18995 0.04900 -0.16250
v -0.16250 0.04900 -0.18995
v -0.12500 0.04900 -0.20000
v -0.24566 0.04666 -0.02445
v -0.24566 0.04666 -0.02445
v -0.20000 0.04900 -0.12500
v -0.18995 0.04900 -0.08750
v 0.24000 0.04900 -0.24000
v 0.12500 0.04900 -0.20000
v -0.08750 0.04900 -0.18995
v 0.08750 0.04900 -0.18995
v -0.06005 0.04900 -0.16250
v 0.06005 0.04900 -0.16250
v -0.05000 0.04900 -0.12500
v -0.24800 0.04100 -0.03464
v -0.24750 0.04222 -0.03367
v -0.24000 0.04900 -0.01959
v -0.17003 0.04900 -0.01959
v -0.16250 0.04900 -0.06005
v -0.12500 0.04900 -0.05000
v -0.08750 0.04900 -0.06005
v -0.06005 0.04900 -0.08750
v 0.06005 0.04900 -0.08750
v 0.08750 0.04900 -0.06005
v -0.24800 0.04100 0.03464
v -0.18995 0.04900 0.08750
v -0.16250 0.04900 0.06005
v -0.24000 0.04900 0.01959
v -0.02854 0.04900 0.01959
v -0.20000 0.04900 0.12500
v -0.24566 0.04666 0.24000
v -0.24750 0.04222 0.03367
v -0.24566 0.04666 0.02445
v -0.24000 0.04900 0.24000
v -0.24566 0.04666 0.02445
v -0.12500 0.04900 0.05000
v -0.08750 0.04900 0.06005
v -0.06005 0.04900 0.08750
v -0.05000 0.04900 0.12500
v 0.07105 0.04900 0.01959
v -0.06005 0.04900 0.16250
v -0.18995 0.04900 0.16250
v -0.16250 0.04900 0.18995
v -0.24000 0.04666 0.24566
v -0.12500 0.04900 0.20000
v -0.08750 0.04900 0.18995
v 0.08750 0.04900 0.18995
v 0.12500 0.04900 0.20000
v 0.24000 0.04100 0.24800
v 0.24000 0.04900 0.24000
v 0.24000 -0.04666 -0.24566
v 0.24566 -0.04666 -0.24000
v 0.24566 -0.04100 -0.24566
v 0.24800 -0.04100 -0.24000
v 0.24566 -0.04666 -0.02445
v 0.24566 -0.04666 -0.02445
v 0.24000 -0.04900 -0.01959
v 0.24750 -0.04222 -0.03367
v 0.24800 -0.04100 -0.03464
v 0.24800 -0.02343 -0.04865
v 0.24800 0.00000 -0.05400
v 0.24566 0.04100 -0.24566
v 0.24800 0.04100 -0.24000
v 0.24800 0.02343 -0.04865
v 0.24566 -0.04666 0.02445
v 0.24566 -0.04666 0.24000
v 0.24566 -0.04666 0.02445
v 0.24750 -0.04222 0.03367
v 0.24800 -0.04100 0.03464
v 0.24800 -0.04100 0.24000
v 0.24800 -0.02343 0.04865
v 0.24800 0.00000 0.05400
v 0.24000 -0.04666 0.24566
v 0.24566 -0.04100 0.24566
v 0.24800 0.04100 0.24000
v 0.24800 0.02343 0.04865
v 0.24566 0.04100 0.24566
v 0.24000 0.04666 -0.24566
v 0.05000 0.04900 -0.12500
v 0.16250 0.04900 -0.18995
v 0.24566 0.04666 -0.24000
v 0.18995 0.04900 -0.16250
v 0.20000 0.04900 -0.12500
v 0.24800 0.04100 -0.03464
v 0.24566 0.04666 -0.02445
v 0.24000 0.04900 -0.01959
v 0.12500 0.04900 -0.05000
v 0.24750 0.04222 -0.03367
v 0.24566 0.04666 -0.02445
v 0.18995 0.04900 -0.08750
v 0.16250 0.04900 -0.06005
v 0.06005 0.04900 0.08750
v 0.08750 0.04900 0.06005
v 0.12500 0.04900 0.05000
v 0.16250 0.04900 0.06005
v 0.24800 0.04100 0.03464
v 0.24750 0.04222 0.03367
v 0.24000 0.04900 0.01959
v 0.18995 0.04900 0.08750
v 0.20000 0.04900 0.12500
v 0.24566 0.04666 0.02445
v 0.24566 0.04666 0.02445
v 0.05000 0.04900 0.12500
v 0.06005 0.04900 0.16250
v 0.24000 0.04666 0.24566
v 0.18995 0.04900 0.16250
v 0.24566 0.04666 0.24000
v 0.16250 0.04900 0.18995
v -0.16250 0.04900 -0.18995
v -0.12500 0.09900 -0.20000
v -0.12500 0.04900 -0.20000
v -0.18995 0.04900 -0.16250
v -0.20000 0.04900 -0.12500
v -0.18995 0.09900 -0.16250
v -0.16250 0.09900 -0.18995
v -0.20000 0.09900 -0.12500
v -0.18995 0.09900 -0.16250
v -0.20000 0.09900 -0.12500
v -0.18995 0.09900 -0.08750
v -0.16250 0.09900 -0.18995
v -0.16250 0.09900 -0.06005
v -0.12500 0.09900 -0.20000
v -0.08750 0.09900 -0.18995
v -0.08750 0.04900 -0.18995
v -0.06005 0.09900 -0.16250
v -0.06005 0.04900 -0.16250
v -0.05000 0.09900 -0.12500
v -0.05000 0.04900 -0.12500
v -0.12500 0.09900 -0.05000
v -0.08750 0.09900 -0.18995
v -0.08750 0.09900 -0.06005
v -0.06005 0.09900 -0.16250
v -0.06005 0.09900 -0.08750
v -0.05000 0.09900 -0.12500
v -0.18995 0.04900 -0.08750
v -0.16250 0.04900 -0.06005
v -0.18995 0.09900 -0.08750
v -0.12500 0.04900 -0.05000
v -0.16250 0.09900 -0.06005
v -0.12500 0.09900 -0.05000
v -0.08750 0.04900 -0.06005
v -0.06005 0.04900 -0.08750
v -0.08750 0.09900 -0.06005
v -0.06005 0.09900 -0.08750
v 0.08750 0.04900 -0.18995
v 0.12500 0.09900 -0.20000
v 0.12500 0.04900 -0.20000
v 0.06005 0.04900 -0.16250
v 0.05000 0.04900 -0.12500
v 0.06005 0.09900 -0.16250
v 0.08750 0.09900 -0.18995
v 0.05000 0.09900 -0.12500
v 0.06005 0.09900 -0.16250
v 0.05000 0.09900 -0.12500
v 0.06005 0.09900 -0.08750
v 0.08750 0.09900 -0.18995
v 0.08750 0.09900 -0.06005
v 0.12500 0.09900 -0.20000
v 0.16250 0.09900 -0.18995
v 0.16250 0.04900 -0.18995
v 0.18995 0.09900 -0.16250
v 0.18995 0.04900 -0.16250
v 0.20000 0.09900 -0.12500
v 0.20000 0.04900 -0.12500
v 0.12500 0.09900 -0.05000
v 0.16250 0.09900 -0.18995
v 0.16250 0.09900 -0.06005
v 0.18995 0.09900 -0.16250
v 0.18995 0.09900 -0.08750
v 0.20000 0.09900 -0.12500
v 0.06005 0.04900 -0.08750
v 0.08750 0.04900 -0.06005
v 0.06005 0.09900 -0.08750
v 0.12500 0.04900 -0.05000
v 0.08750 0.09900 -0.06005
v 0.12500 0.09900 -0.05000
v 0.16250 0.04900 -0.06005
v 0.18995 0.04900 -0.08750
v 0.16250 0.09900 -0.06005
v 0.18995 0.09900 -0.08750
v -0.16250 0.04900 0.06005
v -0.12500 0.09900 0.05000
v -0.12500 0.04900 0.05000
v -0.18995 0.04900 0.08750
v -0.20000 0.04900 0.12500
v -0.18995 0.09900 0.08750
v -0.16250 0.09900 0.06005
v -0.20000 0.09900 0.12500
v -0.18995 0.09900 0.08750
v -0.18995 0.09900 0.16250
v -0.16250 0.09900 0.06005
v -0.16250 0.09900 0.18995
v -0.12500 0.09900 0.05000
v -0.08750 0.09900 0.06005
v -0.08750 0.04900 0.06005
v -0.06005 0.09900 0.08750
v -0.06005 0.04900 0.08750
v -0.05000 0.09900 0.12500
v -0.05000 0.04900 0.12500
v -0.12500 0.09900 0.20000
v -0.08750 0.09900 0.06005
v -0.08750 0.09900 0.18995
v -0.06005 0.09900 0.08750
v -0.18995 0.04900 0.16250
v -0.16250 0.04900 0.18995
v -0.18995 0.09900 0.16250
v -0.12500 0.04900 0.20000
v -0.16250 0.09900 0.18995
v -0.20000 0.09900 0.12500
v -0.12500 0.09900 0.20000
v -0.08750 0.04900 0.18995
v -0.06005 0.04900 0.16250
v -0.08750 0.09900 0.18995
v -0.06005 0.09900 0.16250
v -0.06005 0.09900 0.16250
v -0.05000 0.09900 0.12500
v 0.08750 0.04900 0.06005
v 0.12500 0.09900 0.05000
v 0.12500 0.04900 0.05000
v 0.06005 0.04900 0.08750
v 0.05000 0.04900 0.12500
v 0.06005 0.09900 0.08750
v 0.08750 0.09900 0.06005
v 0.05000 0.09900 0.12500
v 0.06005 0.09900 0.08750
v 0.06005 0.09900 0.16250
v 0.08750 0.09900 0.06005
v 0.08750 0.09900 0.18995
v 0.12500 0.09900 0.05000
v 0.16250 0.09900 0.06005
v 0.16250 0.04900 0.06005
v 0.18995 0.09900 0.08750
v 0.18995 0.04900 0.08750
v 0.20000 0.09900 0.12500
v 0.20000 0.04900 0.12500
v 0.12500 0.09900 0.20000
v 0.16250 0.09900 0.06005
v 0.16250 0.09900 0.18995
v 0.18995 0.09900 0.08750
v 0.06005 0.04900 0.16250
v 0.08750 0.04900 0.18995
v 0.06005 0.09900 0.16250
v 0.12500 0.04900 0.20000
v 0.08750 0.09900 0.18995
v 0.05000 0.09900 0.12500
v 0.12500 0.09900 0.20000
v 0.16250 0.04900 0.18995
v 0.18995 0.04900 0.16250
v 0.16250 0.09900 0.18995
v 0.18995 0.09900 0.16250
v 0.18995 0.09900 0.16250
v 0.20000 0.09900 0.12500
v -0.50000 -0.05265 -0.01202
v -0.50000 -0.04222 -0.03367
v -0.24750 -0.04222 -0.03367
v -0.50000 -0.05265 -0.01202
v -0.50000 0.04222 -0.03367
v -0.50000 -0.04222 -0.03367
v -0.50000 -0.05265 0.01202
v -0.50000 0.05265 -0.01202
v -0.50000 -0.02343 -0.04865
v -0.24800 -0.02343 -0.04865
v -0.24800 -0.04100 -0.03464
v -0.24800 0.00000 -0.05400
v -0.50000 0.02343 -0.04865
v -0.50000 -0.02343 -0.04865
v -0.50000 0.00000 -0.05400
v -0.50000 0.00000 -0.05400
v -0.50000 0.02343 -0.04865
v -0.24800 0.02343 -0.04865
v 0.50000 -0.05265 -0.01202
v -0.50000 -0.04222 0.03367
v -0.50000 -0.05265 0.01202
v -0.24750 -0.04222 0.03367
v -0.24800 -0.04100 0.03464
v -0.50000 -0.02343 0.04865
v -0.24800 -0.02343 0.04865
v -0.50000 0.00000 0.05400
v -0.50000 -0.04222 0.03367
v -0.50000 0.05265 0.01202
v -0.50000 -0.02343 0.04865
v -0.50000 0.04222 0.03367
v -0.50000 0.00000 0.05400
v -0.50000 0.02343 0.04865
v -0.24800 0.00000 0.05400
v -0.50000 0.02343 0.04865
v -0.24800 0.02343 0.04865
v 0.50000 -0.05265 0.01202
v -0.50000 0.04222 -0.03367
v -0.24800 0.04100 -0.03464
v -0.50000 0.05265 -0.01202
v -0.24750 0.04222 -0.03367
v -0.50000 0.05265 0.01202
v 0.50000 0.05265 -0.01202
v -0.50000 0.04222 0.03367
v -0.24750 0.04222 0.03367
v -0.24800 0.04100 0.03464
v 0.50000 0.05265 0.01202
v 0.24750 -0.04222 -0.03367
v 0.50000 -0.04222 -0.03367
v 0.24800 -0.04100 -0.03464
v 0.50000 -0.02343 -0.04865
v 0.24800 -0.02343 -0.04865
v 0.50000 0.00000 -0.05400
v 0.50000 -0.05265 -0.01202
v 0.50000 -0.04222 -0.03367
v 0.50000 0.04222 -0.03367
v 0.50000 -0.05265 0.01202
v 0.50000 0.05265 -0.01202
v 0.24800 0.00000 -0.05400
v 0.50000 0.02343 -0.04865
v 0.24800 0.02343 -0.04865
v 0.50000 -0.02343 -0.04865
v 0.50000 0.02343 -0.04865
v 0.50000 0.00000 -0.05400
v 0.24750 -0.04222 0.03367
v 0.50000 -0.04222 0.03367
v 0.24800 -0.04100 0.03464
v 0.24800 -0.02343 0.04865
v 0.50000 -0.02343 0.04865
v 0.24800 0.00000 0.05400
v 0.50000 0.00000 0.05400
v 0.24800 0.02343 0.04865
v 0.50000 -0.04222 0.03367
v 0.50000 0.05265 0.01202
v 0.50000 0.04222 0.03367
v 0.50000 -0.02343 0.04865
v 0.50000 0.02343 0.04865
v 0.50000 0.00000 0.05400
v 0.50000 0.02343 0.04865
v 0.50000 0.04222 -0.03367
v 0.24800 0.04100 -0.03464
v 0.24750 0.04222 -0.03367
v 0.24800 0.04100 0.03464
v 0.50000 0.04222 0.03367
v 0.24750 0.04222 0.03367
vn -0.6887 -0.6887 -0.2265
vn -0.2265 -0.6887 -0.6887
vn -0.1877 -0.9641 -0.1877
vn -0.6887 -0.2265 -0.6887
vn -0.9641 -0.1877 -0.1877
vn -0.1877 -0.1877 -0.9641
vn -0.9239 -0.3827 0.0000
vn -0.1486 -0.9474 -0.2835
vn 0.1877 -0.9641 -0.1877
vn 0.1877 -0.1877 -0.9641
vn -0.0558 -0.9599 -0.2747
vn -0.9239 -0.3827 0.0000
vn -0.9611 -0.2764 0.0000
vn -1.0000 0.0000 0.0000
vn -1.0000 0.0000 0.0000
vn -0.6887 0.2265 -0.6887
vn -0.9641 0.1877 -0.1877
vn -0.1877 0.1877 -0.9641
vn 0.1877 0.1877 -0.9641
vn -1.0000 0.0000 0.0000
vn -0.6887 -0.6887 0.2265
vn -0.1486 -0.9474 0.2835
vn -0.0558 -0.9599 0.2747
vn -0.9239 -0.3827 -0.0000
vn -0.9239 -0.3827 0.0000
vn -0.9611 -0.2764 -0.0000
vn -0.9641 -0.1877 0.1877
vn -1.0000 0.0000 0.0000
vn -1.0000 0.0000 0.0000
vn -0.1877 -0.9641 0.1877
vn 0.0558 -0.9599 0.2747
vn -0.2265 -0.6887 0.6887
vn -0.6887 -0.2265 0.6887
vn -0.1877 -0.1877 0.9641
vn 0.1877 -0.9641 0.1877
vn 0.1877 -0.1877 0.9641
vn -0.9641 0.1877 0.1877
vn -1.0000 0.0000 0.0000
vn -0.6887 0.2265 0.6887
vn -0.1877 0.1877 0.9641
vn -0.6887 0.6887 -0.2265
vn -0.2265 0.6887 -0.6887
vn -0.1877 0.9641 -0.1877
vn 0.0000 1.0000 0.0000
vn 0.0000 1.0000 0.0000
vn 0.0000 1.0000 0.0000
vn -0.9239 0.3827 0.0000
vn -0.1486 0.9474 -0.2835
vn 0.0000 1.0000 0.0000
vn 0.0000 1.0000 0.0000
vn 0.1877 0.9641 -0.1877
vn 0.0000 1.0000 0.0000
vn 0.0000 1.0000 0.0000
vn 0.0000 1.0000 0.0000
vn 0.0000 1.0000 0.0000
vn 0.0000 1.0000 0.0000
vn 0.0000 1.0000 0.0000
vn -0.9611 0.2764 0.0000
vn -0.9239 0.3827 0.0000
vn -0.0558 0.9599 -0.2747
vn 0.0000 0.9749 -0.2225
vn 0.0000 1.0000 0.0000
vn 0.0000 1.0000 0.0000
vn 0.0000 1.0000 0.0000
vn 0.0000 1.0000 0.0000
vn 0.0000 1.0000 0.0000
vn 0.0000 1.0000 0.0000
vn -0.9611 0.2764 -0.0000
vn 0.0000 1.0000 0.0000
vn 0.0000 1.0000 0.0000
vn -0.0558 0.9599 0.2747
vn 0.0000 0.9749 0.2225
vn 0.0000 1.0000 0.0000
vn -0.6887 0.6887 0.2265
vn -0.9239 0.3827 -0.0000
vn -0.9239 0.3827 0.0000
vn -0.1877 0.9641 0.1877
vn -0.1486 0.9474 0.2835
vn 0.0000 1.0000 0.0000
vn 0.0000 1.0000 0.0000
vn 0.0000 1.0000 0.0000
vn 0.0000 1.0000 0.0000
vn 0.0000 0.9749 0.2225
vn 0.0000 1.0000 0.0000
vn 0.0000 1.0000 0.0000
vn 0.0000 1.0000 0.0000
vn -0.2265 0.6887 0.6887
vn 0.0000 1.0000 0.0000
vn 0.0000 1.0000 0.0000
vn 0.0000 1.0000 0.0000
vn 0.0000 1.0000 0.0000
vn 0.1877 0.1877 0.9641
vn 0.1877 0.9641 0.1877
vn 0.2265 -0.6887 -0.6887
vn 0.6887 -0.6887 -0.2265
vn 0.6887 -0.2265 -0.6887
vn 0.9641 -0.1877 -0.1877
vn 0.1486 -0.9474 -0.2835
vn 0.9239 -0.3827 -0.0000
vn 0.0558 -0.9599 -0.2747
vn 0.9239 -0.3827 -0.0000
vn 0.9611 -0.2764 0.0000
vn 1.0000 0.0000 0.0000
vn 1.0000 0.0000 0.0000
vn 0.6887 0.2265 -0.6887
vn 0.9641 0.1877 -0.1877
vn 1.0000 0.0000 0.0000
vn 0.1486 -0.9474 0.2835
vn 0.6887 -0.6887 0.2265
vn 0.9239 -0.3827 0.0000
vn 0.9239 -0.3827 0.0000
vn 0.9611 -0.2764 0.0000
vn 0.9641 -0.1877 0.1877
vn 1.0000 0.0000 0.0000
vn 1.0000 0.0000 0.0000
vn 0.2265 -0.6887 0.6887
vn 0.6887 -0.2265 0.6887
vn 0.9641 0.1877 0.1877
vn 1.0000 0.0000 0.0000
vn 0.6887 0.2265 0.6887
vn 0.2265 0.6887 -0.6887
vn 0.0000 1.0000 0.0000
vn 0.0000 1.0000 0.0000
vn 0.6887 0.6887 -0.2265
vn 0.0000 1.0000 0.0000
vn 0.0000 1.0000 0.0000
vn 0.9611 0.2764 -0.0000
vn 0.1486 0.9474 -0.2835
vn 0.0558 0.9599 -0.2747
vn 0.0000 1.0000 0.0000
vn 0.9239 0.3827 -0.0000
vn 0.9239 0.3827 0.0000
vn 0.0000 1.0000 0.0000
vn 0.0000 1.0000 0.0000
vn 0.0000 1.0000 0.0000
vn 0.0000 1.0000 0.0000
vn 0.0000 1.0000 0.0000
vn 0.0000 1.0000 0.0000
vn 0.9611 0.2764 0.0000
vn 0.9239 0.3827 0.0000
vn 0.0558 0.9599 0.2747
vn 0.0000 1.0000 0.0000
vn 0.0000 1.0000 0.0000
vn 0.9239 0.3827 0.0000
vn 0.1486 0.9474 0.2835
vn 0.0000 1.0000 0.0000
vn 0.0000 1.0000 0.0000
vn 0.2265 0.6887 0.6887
vn 0.0000 1.0000 0.0000
vn 0.6887 0.6887 0.2265
vn 0.0000 1.0000 0.0000
vn -0.5000 0.0000 -0.8660
vn 0.0000 0.0000 -1.0000
vn 0.0000 0.0000 -1.0000
vn -0.8660 0.0000 -0.5000
vn -1.0000 0.0000 0.0000
vn -0.8660 0.0000 -0.5000
vn -0.5000 0.0000 -0.8660
vn -1.0000 0.0000 -0.0000
vn 0.0000 1.0000 0.0000
vn 0.0000 1.0000 0.0000
vn 0.0000 1.0000 0.0000
vn 0.0000 1.0000 0.0000
vn 0.0000 1.0000 0.0000
vn 0.0000 1.0000 0.0000
vn 0.5000 0.0000 -0.8660
vn 0.5000 0.0000 -0.8660
vn 0.8660 0.0000 -0.5000
vn 0.8660 0.0000 -0.5000
vn 1.0000 0.0000 0.0000
vn 1.0000 0.0000 -0.0000
vn 0.0000 1.0000 0.0000
vn 0.0000 1.0000 0.0000
vn 0.0000 1.0000 0.0000
vn 0.0000 1.0000 0.0000
vn 0.0000 1.0000 0.0000
vn 0.0000 1.0000 0.0000
vn -0.8660 0.0000 0.5000
vn -0.5000 0.0000 0.8660
vn -0.8660 0.0000 0.5000
vn 0.0000 0.0000 1.0000
vn -0.5000 0.0000 0.8660
vn 0.0000 0.0000 1.0000
vn 0.5000 0.0000 0.8660
vn 0.8660 0.0000 0.5000
vn 0.5000 0.0000 0.8660
vn 0.8660 0.0000 0.5000
vn -0.5000 0.0000 -0.8660
vn 0.0000 0.0000 -1.0000
vn 0.0000 0.0000 -1.0000
vn -0.8660 0.0000 -0.5000
vn -1.0000 0.0000 0.0000
vn -0.8660 0.0000 -0.5000
vn -0.5000 0.0000 -0.8660
vn -1.0000 -0.0000 0.0000
vn 0.0000 1.0000 0.0000
vn 0.0000 1.0000 0.0000
vn 0.0000 1.0000 0.0000
vn 0.0000 1.0000 0.0000
vn 0.0000 1.0000 0.0000
vn 0.0000 1.0000 0.0000
vn 0.5000 0.0000 -0.8660
vn 0.5000 0.0000 -0.8660
vn 0.8660 0.0000 -0.5000
vn 0.8660 -0.0000 -0.5000
vn 1.0000 -0.0000 0.0000
vn 1.0000 0.0000 0.0000
vn 0.0000 1.0000 0.0000
vn 0.0000 1.0000 0.0000
vn 0.0000 1.0000 0.0000
vn 0.0000 1.0000 0.0000
vn 0.0000 1.0000 0.0000
vn 0.0000 1.0000 0.0000
vn -0.8660 -0.0000 0.5000
vn -0.5000 0.0000 0.8660
vn -0.8660 0.0000 0.5000
vn 0.0000 0.0000 1.0000
vn -0.5000 0.0000 0.8660
vn 0.0000 0.0000 1.0000
vn 0.5000 0.0000 0.8660
vn 0.8660 0.0000 0.5000
vn 0.5000 0.0000 0.8660
vn 0.8660 0.0000 0.5000
vn -0.5000 0.0000 -0.8660
vn 0.0000 0.0000 -1.0000
vn -0.0000 0.0000 -1.0000
vn -0.8660 0.0000 -0.5000
vn -1.0000 0.0000 0.0000
vn -0.8660 0.0000 -0.5000
vn -0.5000 0.0000 -0.8660
vn -1.0000 0.0000 -0.0000
vn 0.0000 1.0000 0.0000
vn 0.0000 1.0000 0.0000
vn 0.0000 1.0000 0.0000
vn 0.0000 1.0000 0.0000
vn 0.0000 1.0000 0.0000
vn 0.5000 0.0000 -0.8660
vn 0.5000 0.0000 -0.8660
vn 0.8660 0.0000 -0.5000
vn 0.8660 0.0000 -0.5000
vn 1.0000 0.0000 0.0000
vn 1.0000 0.0000 -0.0000
vn 0.0000 1.0000 0.0000
vn 0.0000 1.0000 0.0000
vn 0.0000 1.0000 0.0000
vn 0.0000 1.0000 0.0000
vn -0.8660 0.0000 0.5000
vn -0.5000 0.0000 0.8660
vn -0.8660 0.0000 0.5000
vn 0.0000 0.0000 1.0000
vn -0.5000 0.0000 0.8660
vn 0.0000 1.0000 0.0000
vn -0.0000 0.0000 1.0000
vn 0.5000 0.0000 0.8660
vn 0.8660 0.0000 0.5000
vn 0.5000 0.0000 0.8660
vn 0.8660 0.0000 0.5000
vn 0.0000 1.0000 0.0000
vn 0.0000 1.0000 0.0000
vn -0.5000 0.0000 -0.8660
vn 0.0000 0.0000 -1.0000
vn -0.0000 0.0000 -1.0000
vn -0.8660 0.0000 -0.5000
vn -1.0000 0.0000 0.0000
vn -0.8660 0.0000 -0.5000
vn -0.5000 0.0000 -0.8660
vn -1.0000 -0.0000 0.0000
vn 0.0000 1.0000 0.0000
vn 0.0000 1.0000 0.0000
vn 0.0000 1.0000 0.0000
vn 0.0000 1.0000 0.0000
vn 0.0000 1.0000 0.0000
vn 0.5000 0.0000 -0.8660
vn 0.5000 0.0000 -0.8660
vn 0.8660 0.0000 -0.5000
vn 0.8660 -0.0000 -0.5000
vn 1.0000 -0.0000 0.0000
vn 1.0000 0.0000 0.0000
vn 0.0000 1.0000 0.0000
vn 0.0000 1.0000 0.0000
vn 0.0000 1.0000 0.0000
vn 0.0000 1.0000 0.0000
vn -0.8660 -0.0000 0.5000
vn -0.5000 0.0000 0.8660
vn -0.8660 0.0000 0.5000
vn 0.0000 0.0000 1.0000
vn -0.5000 0.0000 0.8660
vn 0.0000 1.0000 0.0000
vn -0.0000 0.0000 1.0000
vn 0.5000 0.0000 0.8660
vn 0.8660 0.0000 0.5000
vn 0.5000 0.0000 0.8660
vn 0.8660 0.0000 0.5000
vn 0.0000 1.0000 0.0000
vn 0.0000 1.0000 0.0000
vn 0.0000 -0.9749 -0.2225
vn 0.0000 -0.7818 -0.6235
vn 0.0000 -0.8045 -0.5939
vn -1.0000 0.0000 0.0000
vn -1.0000 0.0000 0.0000
vn -1.0000 0.0000 0.0000
vn -1.0000 0.0000 0.0000
vn -1.0000 0.0000 0.0000
vn 0.0000 -0.4339 -0.9010
vn 0.0000 -0.4339 -0.9010
vn -0.0000 -0.6235 -0.7818
vn 0.0000 -0.0000 -1.0000
vn -1.0000 0.0000 0.0000
vn -1.0000 0.0000 0.0000
vn -1.0000 0.0000 0.0000
vn -0.0000 0.0000 -1.0000
vn 0.0000 0.4339 -0.9010
vn -0.0000 0.4339 -0.9010
vn 0.0000 -0.9749 -0.2225
vn 0.0000 -0.7818 0.6235
vn 0.0000 -0.9749 0.2225
vn -0.0000 -0.8045 0.5939
vn 0.0000 -0.6235 0.7818
vn 0.0000 -0.4339 0.9010
vn 0.0000 -0.4339 0.9010
vn 0.0000 -0.0000 1.0000
vn -1.0000 0.0000 0.0000
vn -1.0000 0.0000 0.0000
vn -1.0000 0.0000 0.0000
vn -1.0000 0.0000 0.0000
vn -1.0000 0.0000 0.0000
vn -1.0000 0.0000 0.0000
vn 0.0000 0.0000 1.0000
vn 0.0000 0.4339 0.9010
vn 0.0000 0.4339 0.9010
vn -0.0000 -0.9749 0.2225
vn -0.0000 0.7818 -0.6235
vn 0.0000 0.6235 -0.7818
vn 0.0000 0.9749 -0.2225
vn 0.0000 0.8045 -0.5939
vn -0.0000 0.9749 0.2225
vn -0.0000 0.9749 -0.2225
vn 0.0000 0.7818 0.6235
vn -0.0000 0.8045 0.5939
vn 0.0000 0.6235 0.7818
vn -0.0000 0.9749 0.2225
vn 0.0000 -0.8045 -0.5939
vn 0.0000 -0.7818 -0.6235
vn -0.0000 -0.6235 -0.7818
vn 0.0000 -0.4339 -0.9010
vn 0.0000 -0.4339 -0.9010
vn 0.0000 -0.0000 -1.0000
vn 1.0000 0.0000 0.0000
vn 1.0000 0.0000 0.0000
vn 1.0000 0.0000 0.0000
vn 1.0000 0.0000 0.0000
vn 1.0000 0.0000 0.0000
vn -0.0000 0.0000 -1.0000
vn -0.0000 0.4339 -0.9010
vn 0.0000 0.4339 -0.9010
vn 1.0000 0.0000 0.0000
vn 1.0000 0.0000 0.0000
vn 1.0000 0.0000 0.0000
vn 0.0000 -0.8045 0.5939
vn -0.0000 -0.7818 0.6235
vn -0.0000 -0.6235 0.7818
vn -0.0000 -0.4339 0.9010
vn 0.0000 -0.4339 0.9010
vn 0.0000 -0.0000 1.0000
vn 0.0000 0.0000 1.0000
vn 0.0000 0.4339 0.9010
vn 1.0000 0.0000 0.0000
vn 1.0000 0.0000 0.0000
vn 1.0000 0.0000 0.0000
vn 1.0000 0.0000 0.0000
vn 1.0000 0.0000 0.0000
vn 1.0000 0.0000 0.0000
vn -0.0000 0.4339 0.9010
vn 0.0000 0.7818 -0.6235
vn 0.0000 0.6235 -0.7818
vn -0.0000 0.8045 -0.5939
vn -0.0000 0.6235 0.7818
vn -0.0000 0.7818 0.6235
vn -0.0000 0.8045 0.5939
f 1//1 2//2 3//3
f 1//1 4//4 2//2
f 1//1 5//5 4//4
f 2//2 4//4 6//6
f 1//1 7//7 5//5
f 1//1 3//3 8//8
f 3//3 2//2 9//9
f 2//2 6//6 10//10
f 3//3 9//9 11//11
f 3//3 11//11 8//8
f 1//1 12//12 7//7
f 5//5 7//7 13//13
f 5//5 13//13 14//14
f 5//5 14//14 15//15
f 4//4 16//16 6//6
f 4//4 5//5 16//16
f 5//5 15//15 17//17
f 5//5 17//17 16//16
f 6//6 16//16 18//18
f 6//6 18//18 19//19
f 17//17 15//15 20//20
f 21//21 22//22 23//23
f 21//21 24//24 25//25
f 21//21 26//26 24//24
f 27//27 28//28 26//26
f 27//27 29//29 28//28
f 30//30 23//23 31//31
f 21//21 23//23 30//30
f 21//21 27//27 26//26
f 21//21 30//30 32//32
f 21//21 32//32 33//33
f 21//21 33//33 27//27
f 32//32 34//34 33//33
f 30//30 35//35 32//32
f 32//32 36//36 34//34
f 37//37 38//38 29//29
f 27//27 37//37 29//29
f 27//27 33//33 37//37
f 33//33 34//34 39//39
f 33//33 39//39 37//37
f 34//34 40//40 39//39
f 34//34 36//36 40//40
f 16//16 17//17 41//41
f 16//16 42//42 18//18
f 16//16 41//41 42//42
f 41//41 43//43 42//42
f 43//43 44//44 45//45
f 43//43 45//45 46//46
f 17//17 47//47 41//41
f 41//41 48//48 43//43
f 43//43 49//49 44//44
f 43//43 50//50 49//49
f 18//18 42//42 19//19
f 42//42 43//43 51//51
f 43//43 46//46 52//52
f 46//46 53//53 54//54
f 53//53 55//55 56//56
f 55//55 57//57 56//56
f 17//17 20//20 58//58
f 17//17 58//58 59//59
f 17//17 59//59 47//47
f 43//43 48//48 60//60
f 43//43 61//61 50//50
f 43//43 60//60 61//61
f 50//50 61//61 62//62
f 62//62 61//61 63//63
f 63//63 61//61 64//64
f 57//57 65//65 66//66
f 64//64 66//66 65//65
f 64//64 61//61 66//66
f 66//66 61//61 67//67
f 37//37 68//68 38//38
f 69//69 70//70 71//71
f 70//70 72//72 71//71
f 69//69 71//71 73//73
f 74//74 75//75 68//68
f 74//74 76//76 75//75
f 77//77 71//71 78//78
f 70//70 79//79 72//72
f 79//79 80//80 72//72
f 80//80 81//81 72//72
f 82//82 83//83 72//72
f 81//81 82//82 72//72
f 82//82 84//84 83//83
f 73//73 71//71 77//77
f 37//37 74//74 68//68
f 74//74 77//77 78//78
f 73//73 77//77 85//85
f 85//85 77//77 86//86
f 37//37 39//39 74//74
f 39//39 40//40 87//87
f 39//39 87//87 74//74
f 74//74 87//87 77//77
f 77//77 88//88 86//86
f 89//89 90//90 84//84
f 77//77 91//91 88//88
f 40//40 92//92 87//87
f 87//87 93//93 77//77
f 88//88 90//90 89//89
f 2//2 94//94 9//9
f 2//2 10//10 94//94
f 9//9 94//94 95//95
f 94//94 96//96 95//95
f 94//94 10//10 96//96
f 95//95 96//96 97//97
f 9//9 95//95 98//98
f 95//95 97//97 99//99
f 9//9 100//100 11//11
f 9//9 98//98 100//100
f 97//97 101//101 99//99
f 97//97 102//102 101//101
f 97//97 103//103 102//102
f 97//97 104//104 103//103
f 6//6 19//19 10//10
f 10//10 105//105 96//96
f 96//96 105//105 97//97
f 97//97 106//106 104//104
f 10//10 19//19 105//105
f 97//97 105//105 106//106
f 106//106 107//107 104//104
f 35//35 31//31 108//108
f 109//109 110//110 111//111
f 109//109 111//111 112//112
f 113//113 112//112 114//114
f 113//113 114//114 115//115
f 30//30 31//31 35//35
f 32//32 35//35 116//116
f 32//32 116//116 36//36
f 35//35 108//108 109//109
f 109//109 112//112 113//113
f 35//35 109//109 116//116
f 116//116 109//109 117//117
f 116//116 117//117 36//36
f 109//109 113//113 117//117
f 118//118 115//115 119//119
f 40//40 36//36 92//92
f 113//113 115//115 118//118
f 36//36 117//117 92//92
f 113//113 118//118 117//117
f 117//117 118//118 120//120
f 117//117 120//120 92//92
f 43//43 52//52 51//51
f 46//46 54//54 52//52
f 42//42 121//121 19//19
f 42//42 51//51 121//121
f 53//53 56//56 54//54
f 57//57 122//122 56//56
f 52//52 123//123 51//51
f 19//19 121//121 105//105
f 105//105 124//124 106//106
f 105//105 121//121 124//124
f 121//121 51//51 124//124
f 123//123 125//125 51//51
f 51//51 125//125 126//126
f 106//106 124//124 127//127
f 124//124 51//51 128//128
f 51//51 126//126 129//129
f 57//57 66//66 122//122
f 67//67 61//61 130//130
f 130//130 61//61 129//129
f 106//106 127//127 107//107
f 124//124 131//131 127//127
f 124//124 132//132 131//131
f 51//51 129//129 128//128
f 126//126 133//133 129//129
f 130//130 129//129 134//134
f 134//134 129//129 133//133
f 135//135 136//136 83//83
f 136//136 137//137 83//83
f 137//137 138//138 83//83
f 84//84 135//135 83//83
f 118//118 119//119 139//139
f 118//118 139//139 140//140
f 138//138 141//141 83//83
f 138//138 142//142 141//141
f 142//142 143//143 141//141
f 118//118 140//140 144//144
f 93//93 145//145 141//141
f 84//84 146//146 135//135
f 84//84 147//147 146//146
f 84//84 90//90 147//147
f 88//88 91//91 90//90
f 77//77 93//93 91//91
f 87//87 92//92 148//148
f 87//87 148//148 93//93
f 143//143 93//93 141//141
f 143//143 149//149 93//93
f 118//118 144//144 150//150
f 150//150 145//145 93//93
f 91//91 93//93 151//151
f 151//151 93//93 149//149
f 92//92 120//120 148//148
f 118//118 150//150 120//120
f 120//120 150//150 148//148
f 148//148 150//150 93//93
f 152//152 153//153 154//154
f 155//155 156//156 157//157
f 155//155 158//158 152//152
f 152//152 158//158 153//153
f 156//156 159//159 157//157
f 160//160 161//161 162//162
f 155//155 157//157 158//158
f 160//160 162//162 163//163
f 163//163 164//164 165//165
f 154//154 166//166 167//167
f 167//167 168//168 169//169
f 169//169 170//170 171//171
f 154//154 153//153 166//166
f 167//167 166//166 168//168
f 165//165 172//172 173//173
f 173//173 174//174 175//175
f 169//169 168//168 170//170
f 175//175 176//176 177//177
f 156//156 178//178 159//159
f 178//178 179//179 180//180
f 179//179 181//181 182//182
f 178//178 180//180 159//159
f 179//179 182//182 180//180
f 163//163 162//162 164//164
f 165//165 164//164 172//172
f 181//181 183//183 182//182
f 184//184 185//185 186//186
f 171//171 187//187 185//185
f 181//181 184//184 183//183
f 185//185 187//187 186//186
f 172//172 174//174 173//173
f 175//175 174//174 176//176
f 171//171 170//170 187//187
f 183//183 184//184 186//186
f 188//188 189//189 190//190
f 191//191 192//192 193//193
f 191//191 194//194 188//188
f 188//188 194//194 189//189
f 192//192 195//195 193//193
f 196//196 197//197 198//198
f 191//191 193//193 194//194
f 196//196 198//198 199//199
f 199//199 200//200 201//201
f 190//190 202//202 203//203
f 203//203 204//204 205//205
f 205//205 206//206 207//207
f 190//190 189//189 202//202
f 203//203 202//202 204//204
f 201//201 208//208 209//209
f 209//209 210//210 211//211
f 205//205 204//204 206//206
f 211//211 212//212 213//213
f 192//192 214//214 195//195
f 214//214 215//215 216//216
f 215//215 217//217 218//218
f 214//214 216//216 195//195
f 215//215 218//218 216//216
f 199//199 198//198 200//200
f 200//200 208//208 201//201
f 218//218 217//217 219//219
f 220//220 221//221 222//222
f 207//207 223//223 221//221
f 217//217 220//220 219//219
f 221//221 223//223 222//222
f 209//209 208//208 210//210
f 211//211 210//210 212//212
f 207//207 206//206 223//223
f 220//220 222//222 219//219
f 224//224 225//225 226//226
f 227//227 228//228 229//229
f 227//227 230//230 224//224
f 224//224 230//230 225//225
f 228//228 231//231 229//229
f 227//227 229//229 230//230
f 232//232 233//233 234//234
f 234//234 235//235 236//236
f 226//226 237//237 238//238
f 238//238 239//239 240//240
f 240//240 241//241 242//242
f 226//226 225//225 237//237
f 238//238 237//237 239//239
f 236//236 243//243 244//244
f 244//244 245//245 246//246
f 240//240 239//239 241//241
f 228//228 247//247 231//231
f 247//247 248//248 249//249
f 248//248 250//250 251//251
f 247//247 249//249 231//231
f 232//232 252//252 233//233
f 248//248 251//251 249//249
f 234//234 233//233 235//235
f 236//236 235//235 243//243
f 250//250 253//253 251//251
f 254//254 255//255 256//256
f 242//242 257//257 255//255
f 250//250 254//254 253//253
f 255//255 257//257 256//256
f 243//243 245//245 244//244
f 246//246 245//245 258//258
f 242//242 241//241 257//257
f 246//246 258//258 259//259
f 253//253 254//254 256//256
f 260//260 261//261 262//262
f 263//263 264//264 265//265
f 263//263 266//266 260//260
f 260//260 266//266 261//261
f 264//264 267//267 265//265
f 263//263 265//265 266//266
f 268//268 269//269 270//270
f 270//270 271//271 272//272
f 262//262 273//273 274//274
f 274//274 275//275 276//276
f 276//276 277//277 278//278
f 262//262 261//261 273//273
f 274//274 273//273 275//275
f 272//272 279//279 280//280
f 280//280 281//281 282//282
f 276//276 275//275 277//277
f 264//264 283//283 267//267
f 283//283 284//284 285//285
f 284//284 286//286 287//287
f 283//283 285//285 267//267
f 268//268 288//288 269//269
f 284//284 287//287 285//285
f 270//270 269//269 271//271
f 271//271 279//279 272//272
f 287//287 286//286 289//289
f 290//290 291//291 292//292
f 278//278 293//293 291//291
f 286//286 290//290 289//289
f 291//291 293//293 292//292
f 280//280 279//279 281//281
f 282//282 281//281 294//294
f 278//278 277//277 293//293
f 282//282 294//294 295//295
f 290//290 292//292 289//289
f 296//296 297//297 298//298
f 299//299 300//300 301//301
f 302//302 303//303 299//299
f 297//297 304//304 305//305
f 296//296 8//8 11//11
f 296//296 298//298 8//8
f 297//297 306//306 298//298
f 297//297 305//305 306//306
f 304//304 307//307 305//305
f 301//301 308//308 309//309
f 309//309 308//308 310//310
f 304//304 311//311 307//307
f 301//301 300//300 308//308
f 299//299 303//303 300//300
f 311//311 312//312 313//313
f 311//311 313//313 307//307
f 296//296 11//11 314//314
f 315//315 316//316 317//317
f 315//315 318//318 319//319
f 319//319 320//320 321//321
f 316//316 23//23 22//22
f 316//316 22//22 317//317
f 315//315 317//317 318//318
f 319//319 318//318 320//320
f 322//322 323//323 302//302
f 322//322 324//324 325//325
f 324//324 326//326 327//327
f 302//302 323//323 303//303
f 322//322 325//325 323//323
f 324//324 327//327 325//325
f 321//321 328//328 329//329
f 321//321 320//320 328//328
f 329//329 328//328 330//330
f 316//316 296//296 331//331
f 316//316 31//31 23//23
f 312//312 332//332 333//333
f 334//334 335//335 332//332
f 312//312 333//333 313//313
f 332//332 335//335 333//333
f 334//334 48//48 335//335
f 334//334 60//60 48//48
f 334//334 61//61 60//60
f 334//334 129//129 61//61
f 336//336 337//337 334//334
f 329//329 330//330 338//338
f 338//338 339//339 336//336
f 338//338 330//330 340//340
f 338//338 340//340 339//339
f 336//336 339//339 78//78
f 336//336 78//78 71//71
f 336//336 71//71 341//341
f 314//314 11//11 100//100
f 331//331 296//296 314//314
f 314//314 100//100 98//98
f 314//314 98//98 342//342
f 343//343 342//342 344//344
f 345//345 344//344 346//346
f 314//314 342//342 343//343
f 343//343 344//344 345//345
f 345//345 346//346 347//347
f 348//348 349//349 350//350
f 351//351 348//348 352//352
f 347//347 346//346 353//353
f 354//354 353//353 355//355
f 349//349 356//356 357//357
f 356//356 358//358 357//357
f 347//347 353//353 354//354
f 349//349 357//357 350//350
f 348//348 350//350 352//352
f 316//316 331//331 31//31
f 331//331 108//108 31//31
f 331//331 359//359 108//108
f 360//360 361//361 359//359
f 360//360 362//362 361//361
f 363//363 364//364 362//362
f 360//360 359//359 331//331
f 360//360 363//363 362//362
f 365//365 366//366 364//364
f 363//363 365//365 364//364
f 367//367 351//351 368//368
f 367//367 369//369 370//370
f 370//370 371//371 372//372
f 365//365 373//373 366//366
f 351//351 352//352 368//368
f 367//367 368//368 369//369
f 370//370 369//369 371//371
f 334//334 337//337 129//129
f 374//374 355//355 375//375
f 374//374 375//375 376//376
f 337//337 376//376 128//128
f 337//337 128//128 129//129
f 354//354 355//355 374//374
f 337//337 374//374 376//376
f 341//341 71//71 72//72
f 341//341 72//72 83//83
f 336//336 341//341 337//337
f 373//373 377//377 366//366
f 378//378 379//379 377//377
f 341//341 83//83 141//141
f 341//341 145//145 379//379
f 341//341 141//141 145//145
f 373//373 378//378 377//377
f 378//378 341//341 379//379
