v -0.23068 -0.09168 -0.21300
v -0.23800 -0.07400 -0.21300
v -0.23068 -0.07400 -0.23068
v -0.21300 -0.09168 -0.23068
v -0.21300 -0.09900 -0.21300
v -0.21300 -0.07400 -0.23800
v -0.23068 0.07400 -0.23068
v -0.23068 -0.09168 0.21300
v -0.23800 -0.07400 0.21300
v -0.23800 0.07400 -0.21300
v -0.21300 0.07400 -0.23800
v -0.23068 0.09168 -0.21300
v -0.23068 0.09168 -0.18303
v -0.21300 0.09168 -0.23068
v -0.21300 0.09900 -0.21300
v -0.22800 0.09279 -0.18460
v -0.23406 0.08351 -0.16800
v -0.23267 0.08686 -0.17747
v -0.23131 0.09016 -0.18214
v -0.23068 0.09168 -0.18303
v -0.21300 0.09900 -0.18717
v -0.21200 0.09900 -0.18717
v -0.23406 0.08351 0.20800
v 0.21300 -0.09168 -0.23068
v 0.21300 -0.09900 -0.21300
v -0.21300 -0.09900 0.21300
v 0.21300 0.07400 -0.23800
v 0.21300 0.09900 -0.21300
v -0.19986 0.09900 -0.18214
v -0.19786 0.09900 -0.18014
v -0.19283 0.09900 -0.16800
v -0.19283 0.09900 0.20671
v 0.19786 0.09900 -0.18014
v -0.23068 -0.07400 0.23068
v -0.21300 -0.09168 0.23068
v -0.21300 -0.07400 0.23800
v -0.23068 0.07400 0.23068
v -0.23800 0.07400 0.21300
v -0.21300 0.07400 0.23800
v -0.23333 0.08528 0.21300
v -0.23068 0.08638 0.21830
v -0.22800 0.08638 0.22098
v -0.22636 0.08686 0.22214
v -0.21954 0.09168 0.22414
v -0.21300 0.09168 0.23068
v -0.20301 0.09168 0.23068
v -0.20300 0.09167 0.23068
v -0.21300 0.09399 0.22510
v -0.21200 0.09399 0.22510
v -0.20301 0.09168 0.23068
v -0.20932 0.09438 0.22415
v 0.21300 -0.09168 0.23068
v 0.21300 0.07400 0.23800
v 0.20300 0.09167 0.23068
v 0.21300 -0.07400 -0.23800
v 0.21300 0.09168 -0.23068
v 0.19986 0.09900 -0.18214
v 0.19283 0.09900 -0.16800
v 0.23068 -0.07400 -0.23068
v 0.23068 -0.09168 -0.21300
v 0.23800 -0.07400 -0.21300
v 0.23068 0.07400 -0.23068
v 0.23068 -0.09168 0.21300
v 0.23800 0.07400 -0.21300
v 0.23800 -0.07400 0.21300
v 0.21200 0.09900 -0.18717
v 0.21300 0.09900 -0.18717
v 0.23068 0.09168 -0.21300
v 0.23068 0.09168 -0.18303
v 0.22800 0.09279 -0.18460
v 0.23068 0.09168 -0.18303
v 0.23267 0.08686 -0.17747
v 0.23406 0.08351 -0.16800
v 0.23131 0.09016 -0.18214
v 0.23800 0.07400 0.21300
v 0.21300 -0.09900 0.21300
v 0.21300 -0.07400 0.23800
v 0.19283 0.09900 0.20671
v 0.21300 0.09168 0.23068
v 0.23068 -0.07400 0.23068
v 0.23406 0.08351 0.20800
v 0.23068 0.07400 0.23068
v 0.20932 0.09438 0.22415
v 0.20301 0.09168 0.23068
v 0.20301 0.09168 0.23068
v 0.21200 0.09399 0.22510
v 0.21300 0.09399 0.22510
v 0.21954 0.09168 0.22414
v 0.22800 0.08638 0.22098
v 0.22636 0.08686 0.22214
v 0.23068 0.08638 0.21830
v 0.23333 0.08528 0.21300
v -0.21907 0.10100 0.22800
v -0.22068 0.10750 0.24254
v -0.22068 0.10221 0.22800
v -0.21318 0.09579 0.22584
v -0.22732 0.11428 0.22800
v -0.21200 0.09534 0.22566
v -0.20300 0.09148 0.23507
v -0.20301 0.09168 0.23068
v -0.20932 0.09438 0.22415
v -0.20300 0.09167 0.23068
v -0.20300 0.10441 0.24918
v -0.19200 0.10100 0.20488
v 0.19200 0.10896 0.19759
v -0.19283 0.09900 0.20671
v -0.19200 0.10896 0.19759
v -0.19200 0.10896 0.19759
v -0.19200 0.12808 0.19842
v 0.19200 0.12808 0.19842
v 0.20300 0.09167 0.23068
v 0.20300 0.10441 0.24918
v -0.22800 0.33974 0.33133
v -0.22800 0.11815 0.22800
v -0.20300 0.32917 0.35398
v -0.22800 0.13235 0.22800
v -0.22800 0.34227 0.32589
v -0.22509 0.14900 0.22800
v -0.22068 0.34975 0.30987
v -0.22068 0.16233 0.22248
v -0.22068 0.16233 0.22248
v -0.21912 0.16314 0.22214
v -0.21200 0.16427 0.21941
v -0.20601 0.16314 0.21615
v -0.20300 0.16203 0.21425
v -0.20300 0.35284 0.30323
v -0.22068 0.33227 0.34735
v -0.22068 0.35576 0.33880
v -0.22068 0.35830 0.33336
v -0.20300 0.34829 0.35482
v -0.20300 0.36577 0.31734
v -0.20300 0.36493 0.33645
v -0.20300 0.36240 0.34189
v -0.19207 0.14900 0.20818
v -0.19786 0.15852 0.21262
v 0.20300 0.35284 0.30323
v -0.19200 0.14862 0.20800
v 0.20300 0.32917 0.35398
v 0.20300 0.36493 0.33645
v 0.20300 0.36240 0.34189
v 0.19200 0.10100 0.20488
v 0.19283 0.09900 0.20671
v 0.19200 0.10896 0.19759
v 0.20300 0.09148 0.23507
v 0.20301 0.09168 0.23068
v 0.20932 0.09438 0.22415
v 0.21200 0.09534 0.22566
v 0.22068 0.10750 0.24254
v 0.21318 0.09579 0.22584
v 0.21907 0.10100 0.22800
v 0.22068 0.10221 0.22800
v 0.22732 0.11428 0.22800
v 0.19200 0.14862 0.20800
v 0.19207 0.14900 0.20818
v 0.19786 0.15852 0.21262
v 0.20300 0.16203 0.21425
v 0.20300 0.36577 0.31734
v 0.20300 0.34829 0.35482
v 0.22068 0.33227 0.34735
v 0.22800 0.33974 0.33133
v 0.22800 0.11815 0.22800
v 0.20601 0.16314 0.21615
v 0.22068 0.34975 0.30987
v 0.21200 0.16427 0.21941
v 0.22800 0.13235 0.22800
v 0.22509 0.14900 0.22800
v 0.22068 0.16233 0.22248
v 0.21912 0.16314 0.22214
v 0.22068 0.16233 0.22248
v 0.22800 0.34227 0.32589
v 0.22068 0.35576 0.33880
v 0.22068 0.35830 0.33336
v -0.24214 0.08686 -0.16800
v -0.23267 0.08686 -0.17747
v -0.23406 0.08351 -0.16800
v -0.24214 0.10100 -0.18214
v -0.23068 0.09168 -0.18303
v -0.23131 0.09016 -0.18214
v -0.22800 0.09279 -0.18460
v -0.22800 0.10100 -0.18800
v -0.24800 0.10100 -0.16800
v -0.21300 0.09900 -0.18717
v -0.21200 0.10100 -0.18800
v -0.24214 0.14900 -0.18214
v -0.22800 0.14900 -0.18800
v -0.24800 0.14900 -0.16800
v -0.21200 0.14900 -0.18800
v -0.21200 0.09900 -0.18717
v -0.19986 0.09900 -0.18214
v -0.19786 0.10100 -0.18214
v -0.19786 0.09900 -0.18014
v -0.19200 0.10100 -0.16800
v -0.19283 0.09900 -0.16800
v -0.19786 0.14900 -0.18214
v -0.19200 0.14900 -0.16800
v -0.23406 0.08351 0.20800
v -0.24214 0.08686 0.20800
v -0.24800 0.10100 0.20800
v -0.19200 0.10100 0.20488
v -0.19200 0.14900 0.20800
v -0.24800 0.14900 0.20800
v -0.19283 0.09900 0.20671
v -0.19200 0.10896 0.19759
v -0.19200 0.12808 0.19842
v -0.19200 0.14862 0.20800
v -0.23333 0.08528 0.21300
v -0.23068 0.08638 0.21830
v -0.22800 0.08686 0.22214
v -0.24214 0.10100 0.22214
v -0.22800 0.10100 0.22800
v -0.22800 0.08638 0.22098
v -0.22636 0.08686 0.22214
v -0.22636 0.08686 0.22214
v -0.21954 0.09168 0.22414
v -0.21300 0.09399 0.22510
v -0.21318 0.09579 0.22584
v -0.21907 0.10100 0.22800
v -0.22068 0.10221 0.22800
v -0.24214 0.14900 0.22214
v -0.22800 0.11815 0.22800
v -0.22800 0.13235 0.22800
v -0.22800 0.14900 0.22800
v -0.22732 0.11428 0.22800
v -0.21200 0.09534 0.22566
v -0.21200 0.09399 0.22510
v -0.20932 0.09438 0.22415
v -0.22800 0.16314 -0.18214
v -0.24214 0.16314 -0.16800
v -0.21200 0.16314 -0.18214
v -0.22800 0.16900 -0.16800
v -0.21200 0.16900 -0.16800
v -0.19786 0.16314 -0.16800
v -0.24214 0.16314 0.20800
v -0.21200 0.16900 0.20800
v -0.22800 0.16900 0.20800
v -0.19786 0.16314 0.20800
v -0.22800 0.16314 0.22214
v -0.22509 0.14900 0.22800
v -0.22068 0.16233 0.22248
v -0.21200 0.16427 0.21941
v -0.21912 0.16314 0.22214
v -0.21912 0.16314 0.22214
v -0.19786 0.15852 0.21262
v -0.19207 0.14900 0.20818
v -0.20300 0.16203 0.21425
v -0.20601 0.16314 0.21615
v 0.19786 0.10100 -0.18214
v 0.19786 0.09900 -0.18014
v 0.19200 0.10100 -0.16800
v 0.19986 0.09900 -0.18214
v 0.19283 0.09900 -0.16800
v 0.21200 0.10100 -0.18800
v 0.21200 0.09900 -0.18717
v 0.21300 0.09900 -0.18717
v 0.19786 0.14900 -0.18214
v 0.19200 0.14900 -0.16800
v 0.21200 0.14900 -0.18800
v 0.22800 0.10100 -0.18800
v 0.22800 0.09279 -0.18460
v 0.24214 0.08686 -0.16800
v 0.23406 0.08351 -0.16800
v 0.23267 0.08686 -0.17747
v 0.24214 0.10100 -0.18214
v 0.23068 0.09168 -0.18303
v 0.23131 0.09016 -0.18214
v 0.24800 0.10100 -0.16800
v 0.22800 0.14900 -0.18800
v 0.24800 0.14900 -0.16800
v 0.24214 0.14900 -0.18214
v 0.19283 0.09900 0.20671
v 0.19200 0.10896 0.19759
v 0.24214 0.08686 0.20800
v 0.24800 0.14900 0.20800
v 0.19200 0.10100 0.20488
v 0.19200 0.12808 0.19842
v 0.23406 0.08351 0.20800
v 0.24800 0.10100 0.20800
v 0.21200 0.09534 0.22566
v 0.20932 0.09438 0.22415
v 0.21200 0.09399 0.22510
v 0.21318 0.09579 0.22584
v 0.21300 0.09399 0.22510
v 0.21954 0.09168 0.22414
v 0.22800 0.08686 0.22214
v 0.22636 0.08686 0.22214
v 0.22800 0.08638 0.22098
v 0.23068 0.08638 0.21830
v 0.22800 0.10100 0.22800
v 0.22636 0.08686 0.22214
v 0.21907 0.10100 0.22800
v 0.22068 0.10221 0.22800
v 0.23333 0.08528 0.21300
v 0.24214 0.10100 0.22214
v 0.22732 0.11428 0.22800
v 0.22800 0.11815 0.22800
v 0.24214 0.14900 0.22214
v 0.22800 0.13235 0.22800
v 0.19786 0.16314 -0.16800
v 0.21200 0.16314 -0.18214
v 0.21200 0.16900 -0.16800
v 0.22800 0.16314 -0.18214
v 0.24214 0.16314 -0.16800
v 0.22800 0.16900 -0.16800
v 0.19786 0.16314 0.20800
v 0.22800 0.16900 0.20800
v 0.19200 0.14900 0.20800
v 0.21200 0.16900 0.20800
v 0.24214 0.16314 0.20800
v 0.19200 0.14862 0.20800
v 0.19207 0.14900 0.20818
v 0.19786 0.15852 0.21262
v 0.20300 0.16203 0.21425
v 0.20601 0.16314 0.21615
v 0.21200 0.16427 0.21941
v 0.22800 0.14900 0.22800
v 0.22509 0.14900 0.22800
v 0.22800 0.16314 0.22214
v 0.22068 0.16233 0.22248
v 0.21912 0.16314 0.22214
v 0.21912 0.16314 0.22214
vn -0.6887 -0.6887 -0.2265
vn -0.9641 -0.1877 -0.1877
vn -0.6887 -0.2265 -0.6887
vn -0.2265 -0.6887 -0.6887
vn -0.1877 -0.9641 -0.1877
vn -0.1877 -0.1877 -0.9641
vn -0.6887 0.2265 -0.6887
vn -0.6887 -0.6887 0.2265
vn -0.9641 -0.1877 0.1877
vn -0.9641 0.1877 -0.1877
vn -0.1877 0.1877 -0.9641
vn -0.6887 0.6887 -0.2265
vn -0.9239 0.3827 -0.0000
vn -0.2265 0.6887 -0.6887
vn -0.1877 0.9641 -0.1877
vn -0.3827 0.9239 -0.0000
vn -0.9239 0.3827 -0.0000
vn -0.9239 0.3827 0.0000
vn -0.9239 0.3827 -0.0000
vn -0.3827 0.9239 0.0000
vn -0.2044 0.9789 0.0000
vn 0.0000 1.0000 0.0000
vn -0.9239 0.3827 -0.0000
vn 0.2265 -0.6887 -0.6887
vn 0.1877 -0.9641 -0.1877
vn -0.1877 -0.9641 0.1877
vn 0.1877 0.1877 -0.9641
vn 0.1877 0.9641 -0.1877
vn 0.0000 1.0000 0.0000
vn 0.0000 1.0000 0.0000
vn 0.0000 1.0000 0.0000
vn 0.0000 1.0000 0.0000
vn 0.0000 1.0000 0.0000
vn -0.6887 -0.2265 0.6887
vn -0.2265 -0.6887 0.6887
vn -0.1877 -0.1877 0.9641
vn -0.6887 0.2265 0.6887
vn -0.9641 0.1877 0.1877
vn -0.1877 0.1877 0.9641
vn -0.9007 0.3731 0.2228
vn -0.7831 0.4397 0.4397
vn -0.5774 0.5774 0.5774
vn -0.5774 0.5774 0.5774
vn -0.5353 0.6534 0.5353
vn -0.2265 0.6887 0.6887
vn -0.0000 0.3827 0.9239
vn -0.0000 0.3827 0.9239
vn -0.1817 0.9085 0.3763
vn 0.0000 0.9239 0.3827
vn 0.0000 0.9239 0.3827
vn 0.0000 0.9239 0.3827
vn 0.2265 -0.6887 0.6887
vn 0.1877 0.1877 0.9641
vn 0.0000 0.3827 0.9239
vn 0.1877 -0.1877 -0.9641
vn 0.2265 0.6887 -0.6887
vn 0.0000 1.0000 0.0000
vn 0.0000 1.0000 0.0000
vn 0.6887 -0.2265 -0.6887
vn 0.6887 -0.6887 -0.2265
vn 0.9641 -0.1877 -0.1877
vn 0.6887 0.2265 -0.6887
vn 0.6887 -0.6887 0.2265
vn 0.9641 0.1877 -0.1877
vn 0.9641 -0.1877 0.1877
vn 0.0000 1.0000 0.0000
vn 0.2044 0.9789 -0.0000
vn 0.6887 0.6887 -0.2265
vn 0.9239 0.3827 -0.0000
vn 0.3827 0.9239 -0.0000
vn 0.3827 0.9239 0.0000
vn 0.9239 0.3827 0.0000
vn 0.9239 0.3827 0.0000
vn 0.9239 0.3827 -0.0000
vn 0.9641 0.1877 0.1877
vn 0.1877 -0.9641 0.1877
vn 0.1877 -0.1877 0.9641
vn 0.0000 1.0000 0.0000
vn 0.2265 0.6887 0.6887
vn 0.6887 -0.2265 0.6887
vn 0.9239 0.3827 -0.0000
vn 0.6887 0.2265 0.6887
vn -0.0000 0.9239 0.3827
vn 0.0000 0.9239 0.3827
vn 0.0000 0.3827 0.9239
vn -0.0000 0.9239 0.3827
vn 0.1817 0.9085 0.3763
vn 0.5353 0.6534 0.5353
vn 0.5774 0.5774 0.5774
vn 0.5774 0.5774 0.5774
vn 0.7831 0.4397 0.4397
vn 0.9007 0.3731 0.2228
vn -0.5774 -0.7673 0.2793
vn -0.6887 -0.4964 0.5285
vn -0.7117 -0.6601 0.2403
vn -0.5247 -0.8293 0.1922
vn -0.9171 -0.2699 0.2933
vn -0.3574 -0.9331 -0.0407
vn -0.2265 -0.9153 0.3331
vn -0.3574 -0.9331 -0.0407
vn -0.3574 -0.9331 -0.0407
vn -0.1908 -0.9807 -0.0428
vn -0.1877 -0.5776 0.7945
vn 0.0000 -0.6756 -0.7373
vn -0.0000 -0.6756 -0.7373
vn 0.0000 -0.6756 -0.7373
vn 0.0000 -0.6756 -0.7373
vn -0.0000 0.0436 -0.9990
vn 0.0000 0.2377 -0.9713
vn -0.0000 0.2377 -0.9713
vn 0.1908 -0.9807 -0.0428
vn 0.1877 -0.5776 0.7945
vn -0.9641 0.0908 0.2494
vn -0.9433 -0.1403 0.3010
vn -0.1877 -0.2374 0.9531
vn -0.9984 0.0241 -0.0516
vn -0.9641 0.2494 -0.0908
vn -0.9239 0.1617 -0.3468
vn -0.6887 0.4964 -0.5285
vn -0.9239 0.1617 -0.3468
vn -0.3827 0.3904 -0.8373
vn -0.3827 0.3904 -0.8373
vn -0.3827 0.3904 -0.8373
vn -0.3827 0.3904 -0.8373
vn -0.1262 0.4192 -0.8991
vn -0.1877 0.5776 -0.7945
vn -0.6887 -0.0858 0.7199
vn -0.6887 0.5285 0.4964
vn -0.6887 0.7199 0.0858
vn -0.2265 0.3331 0.9153
vn -0.2265 0.9153 -0.3331
vn -0.1877 0.9531 0.2374
vn -0.1877 0.7945 0.5776
vn 0.0000 0.4226 -0.9063
vn -0.0000 0.4226 -0.9063
vn 0.1877 0.5776 -0.7945
vn 0.0000 0.4226 -0.9063
vn 0.1877 -0.2374 0.9531
vn 0.1877 0.9531 0.2374
vn 0.1877 0.7945 0.5776
vn -0.0000 -0.6756 -0.7373
vn 0.0000 -0.6756 -0.7373
vn 0.0000 0.0436 -0.9990
vn 0.2265 -0.9153 0.3331
vn 0.3574 -0.9331 -0.0407
vn 0.3574 -0.9331 -0.0407
vn 0.3574 -0.9331 -0.0407
vn 0.6887 -0.4964 0.5285
vn 0.5247 -0.8293 0.1922
vn 0.5774 -0.7673 0.2793
vn 0.7117 -0.6601 0.2403
vn 0.9171 -0.2699 0.2933
vn -0.0000 0.4226 -0.9063
vn 0.0000 0.4226 -0.9063
vn 0.0000 0.4226 -0.9063
vn 0.1262 0.4192 -0.8991
vn 0.2265 0.9153 -0.3331
vn 0.2265 0.3331 0.9153
vn 0.6887 -0.0858 0.7199
vn 0.9641 0.0908 0.2494
vn 0.9433 -0.1403 0.3010
vn 0.3827 0.3904 -0.8373
vn 0.6887 0.4964 -0.5285
vn 0.3827 0.3904 -0.8373
vn 0.9984 0.0241 -0.0516
vn 0.9239 0.1617 -0.3468
vn 0.9239 0.1617 -0.3468
vn 0.3827 0.3904 -0.8373
vn 0.3827 0.3904 -0.8373
vn 0.9641 0.2494 -0.0908
vn 0.6887 0.5285 0.4964
vn 0.6887 0.7199 0.0858
vn -0.6887 -0.6887 -0.2265
vn -0.5353 -0.6534 -0.5353
vn -0.3763 -0.9085 -0.1817
vn -0.6887 -0.2265 -0.6887
vn -0.3574 -0.3574 -0.8629
vn -0.4992 -0.4992 -0.7083
vn -0.2340 -0.3721 -0.8982
vn -0.1877 -0.1877 -0.9641
vn -0.9641 -0.1877 -0.1877
vn -0.0000 -0.3827 -0.9239
vn 0.1877 -0.1877 -0.9641
vn -0.6887 0.2265 -0.6887
vn -0.1877 0.1877 -0.9641
vn -0.9641 0.1877 -0.1877
vn 0.1877 0.1877 -0.9641
vn 0.1898 -0.3757 -0.9071
vn 0.4350 -0.4350 -0.7884
vn 0.6887 -0.2265 -0.6887
vn 0.7884 -0.4350 -0.4350
vn 0.9641 -0.1877 -0.1877
vn 0.9071 -0.3757 -0.1898
vn 0.6887 0.2265 -0.6887
vn 0.9641 0.1877 -0.1877
vn -0.3763 -0.9085 0.1817
vn -0.6887 -0.6887 0.2265
vn -0.9641 -0.1877 0.1877
vn 0.9586 -0.2847 -0.0000
vn 0.9641 0.1877 0.1877
vn -0.9641 0.1877 0.1877
vn 0.9239 -0.3827 0.0000
vn 1.0000 0.0000 0.0000
vn 1.0000 0.0000 0.0000
vn 0.9984 0.0000 0.0569
vn -0.3574 -0.8629 0.3574
vn -0.3574 -0.8629 0.3574
vn -0.2265 -0.6887 0.6887
vn -0.6887 -0.2265 0.6887
vn -0.1877 -0.1877 0.9641
vn -0.2585 -0.8925 0.3697
vn 0.0000 -0.9239 0.3827
vn -0.0000 -0.3827 0.9239
vn 0.0000 -0.3827 0.9239
vn 0.0000 -0.3827 0.9239
vn -0.0000 -0.3827 0.9239
vn 0.0000 -0.3049 0.9524
vn 0.0000 0.0000 1.0000
vn -0.6887 0.2265 0.6887
vn -0.3641 0.0000 0.9314
vn -0.3641 0.0000 0.9314
vn -0.1877 0.1877 0.9641
vn 0.0000 0.0000 1.0000
vn 0.1305 -0.3794 0.9160
vn 0.1817 -0.3763 0.9085
vn 0.3574 -0.3574 0.8629
vn -0.2265 0.6887 -0.6887
vn -0.6887 0.6887 -0.2265
vn 0.2265 0.6887 -0.6887
vn -0.1877 0.9641 -0.1877
vn 0.1877 0.9641 -0.1877
vn 0.6887 0.6887 -0.2265
vn -0.6887 0.6887 0.2265
vn 0.1877 0.9641 0.1877
vn -0.1877 0.9641 0.1877
vn 0.6887 0.6887 0.2265
vn -0.2265 0.6887 0.6887
vn 0.0000 0.2231 0.9748
vn 0.0000 0.3827 0.9239
vn 0.1368 0.9152 0.3791
vn 0.0000 0.3827 0.9239
vn 0.0000 0.9239 0.3827
vn 0.7593 0.4601 0.4601
vn 0.8971 0.2388 0.3716
vn 0.5774 0.5774 0.5774
vn 0.3869 0.8371 0.3869
vn -0.6887 -0.2265 -0.6887
vn -0.7884 -0.4350 -0.4350
vn -0.9641 -0.1877 -0.1877
vn -0.4350 -0.4350 -0.7884
vn -0.9071 -0.3757 -0.1898
vn -0.1877 -0.1877 -0.9641
vn -0.1898 -0.3757 -0.9071
vn 0.0000 -0.3827 -0.9239
vn -0.6887 0.2265 -0.6887
vn -0.9641 0.1877 -0.1877
vn -0.1877 0.1877 -0.9641
vn 0.1877 -0.1877 -0.9641
vn 0.2340 -0.3721 -0.8982
vn 0.6887 -0.6887 -0.2265
vn 0.3763 -0.9085 -0.1817
vn 0.5353 -0.6534 -0.5353
vn 0.6887 -0.2265 -0.6887
vn 0.3574 -0.3574 -0.8629
vn 0.4992 -0.4992 -0.7083
vn 0.9641 -0.1877 -0.1877
vn 0.1877 0.1877 -0.9641
vn 0.9641 0.1877 -0.1877
vn 0.6887 0.2265 -0.6887
vn -0.9239 -0.3827 0.0000
vn -1.0000 0.0000 0.0000
vn 0.6887 -0.6887 0.2265
vn 0.9641 0.1877 0.1877
vn -0.9586 -0.2847 0.0000
vn -1.0000 0.0000 0.0000
vn 0.3763 -0.9085 0.1817
vn 0.9641 -0.1877 0.1877
vn -0.1305 -0.3794 0.9160
vn -0.3574 -0.3574 0.8629
vn -0.1817 -0.3763 0.9085
vn 0.0000 -0.3827 0.9239
vn -0.0000 -0.3827 0.9239
vn 0.0000 -0.3827 0.9239
vn 0.2265 -0.6887 0.6887
vn 0.0000 -0.9239 0.3827
vn 0.2585 -0.8925 0.3697
vn 0.3574 -0.8629 0.3574
vn 0.1877 -0.1877 0.9641
vn 0.0000 -0.3827 0.9239
vn 0.0000 -0.3049 0.9524
vn 0.0000 0.0000 1.0000
vn 0.3574 -0.8629 0.3574
vn 0.6887 -0.2265 0.6887
vn 0.0000 0.0000 1.0000
vn 0.3641 0.0000 0.9314
vn 0.6887 0.2265 0.6887
vn 0.3641 0.0000 0.9314
vn -0.6887 0.6887 -0.2265
vn -0.2265 0.6887 -0.6887
vn -0.1877 0.9641 -0.1877
vn 0.2265 0.6887 -0.6887
vn 0.6887 0.6887 -0.2265
vn 0.1877 0.9641 -0.1877
vn -0.6887 0.6887 0.2265
vn 0.1877 0.9641 0.1877
vn -0.9641 0.1877 0.1877
vn -0.1877 0.9641 0.1877
vn 0.6887 0.6887 0.2265
vn -0.9984 0.0000 0.0569
vn -0.8971 0.2388 0.3716
vn -0.7593 0.4601 0.4601
vn -0.5774 0.5774 0.5774
vn -0.3869 0.8371 0.3869
vn -0.1368 0.9152 0.3791
vn 0.1877 0.1877 0.9641
vn -0.0000 0.2231 0.9748
vn 0.2265 0.6887 0.6887
vn -0.0000 0.3827 0.9239
vn 0.0000 0.9239 0.3827
vn 0.0000 0.3827 0.9239
f 1//1 2//2 3//3
f 1//1 3//3 4//4
f 1//1 4//4 5//5
f 4//4 3//3 6//6
f 3//3 2//2 7//7
f 3//3 7//7 6//6
f 1//1 8//8 2//2
f 1//1 5//5 8//8
f 2//2 9//9 10//10
f 2//2 10//10 7//7
f 6//6 7//7 11//11
f 7//7 10//10 12//12
f 10//10 13//13 12//12
f 7//7 12//12 14//14
f 7//7 14//14 11//11
f 12//12 15//15 14//14
f 12//12 16//16 15//15
f 10//10 17//17 18//18
f 10//10 19//19 13//13
f 10//10 18//18 19//19
f 12//12 20//20 16//16
f 15//15 16//16 21//21
f 15//15 21//21 22//22
f 10//10 23//23 17//17
f 5//5 4//4 24//24
f 4//4 6//6 24//24
f 5//5 25//25 26//26
f 6//6 11//11 27//27
f 11//11 14//14 27//27
f 14//14 15//15 28//28
f 15//15 22//22 28//28
f 28//28 22//22 29//29
f 28//28 29//29 30//30
f 28//28 30//30 31//31
f 32//32 33//33 31//31
f 2//2 8//8 9//9
f 5//5 26//26 8//8
f 8//8 34//34 9//9
f 8//8 35//35 34//34
f 8//8 26//26 35//35
f 35//35 36//36 34//34
f 9//9 34//34 37//37
f 34//34 36//36 37//37
f 9//9 38//38 10//10
f 10//10 38//38 23//23
f 9//9 37//37 38//38
f 36//36 39//39 37//37
f 38//38 40//40 23//23
f 38//38 41//41 40//40
f 38//38 37//37 41//41
f 37//37 42//42 41//41
f 37//37 43//43 42//42
f 37//37 44//44 43//43
f 37//37 39//39 45//45
f 37//37 45//45 44//44
f 39//39 46//46 45//45
f 39//39 47//47 46//46
f 45//45 48//48 44//44
f 45//45 49//49 48//48
f 45//45 50//50 49//49
f 49//49 50//50 51//51
f 26//26 52//52 35//35
f 35//35 52//52 36//36
f 36//36 53//53 39//39
f 39//39 54//54 47//47
f 5//5 24//24 25//25
f 6//6 55//55 24//24
f 6//6 27//27 55//55
f 14//14 56//56 27//27
f 14//14 28//28 56//56
f 28//28 31//31 57//57
f 33//33 57//57 31//31
f 32//32 58//58 33//33
f 24//24 59//59 60//60
f 25//25 24//24 60//60
f 24//24 55//55 59//59
f 60//60 59//59 61//61
f 55//55 62//62 59//59
f 59//59 62//62 61//61
f 25//25 60//60 63//63
f 60//60 61//61 63//63
f 61//61 64//64 65//65
f 55//55 27//27 62//62
f 61//61 62//62 64//64
f 28//28 57//57 66//66
f 28//28 66//66 67//67
f 27//27 56//56 62//62
f 62//62 56//56 68//68
f 56//56 28//28 68//68
f 28//28 67//67 68//68
f 62//62 68//68 64//64
f 64//64 68//68 69//69
f 68//68 67//67 70//70
f 68//68 70//70 71//71
f 64//64 72//72 73//73
f 64//64 69//69 74//74
f 64//64 74//74 72//72
f 64//64 73//73 75//75
f 26//26 25//25 76//76
f 26//26 76//76 52//52
f 36//36 52//52 77//77
f 36//36 77//77 53//53
f 58//58 32//32 78//78
f 39//39 79//79 54//54
f 39//39 53//53 79//79
f 25//25 63//63 76//76
f 61//61 65//65 63//63
f 76//76 63//63 52//52
f 52//52 63//63 80//80
f 52//52 80//80 77//77
f 63//63 65//65 80//80
f 77//77 80//80 53//53
f 65//65 75//75 80//80
f 65//65 64//64 75//75
f 75//75 73//73 81//81
f 80//80 82//82 53//53
f 80//80 75//75 82//82
f 79//79 83//83 84//84
f 79//79 85//85 54//54
f 79//79 86//86 83//83
f 79//79 87//87 86//86
f 79//79 88//88 87//87
f 82//82 89//89 90//90
f 82//82 91//91 89//89
f 53//53 82//82 79//79
f 82//82 88//88 79//79
f 82//82 90//90 88//88
f 75//75 92//92 91//91
f 75//75 81//81 92//92
f 75//75 91//91 82//82
f 93//93 94//94 95//95
f 93//93 96//96 94//94
f 95//95 94//94 97//97
f 96//96 98//98 99//99
f 94//94 96//96 99//99
f 98//98 100//100 99//99
f 98//98 101//101 100//100
f 99//99 100//100 102//102
f 94//94 99//99 103//103
f 104//104 105//105 106//106
f 104//104 107//107 105//105
f 108//108 109//109 110//110
f 99//99 102//102 111//111
f 99//99 112//112 103//103
f 94//94 113//113 97//97
f 97//97 113//113 114//114
f 94//94 103//103 115//115
f 114//114 113//113 116//116
f 116//116 117//117 118//118
f 118//118 119//119 120//120
f 121//121 119//119 122//122
f 122//122 119//119 123//123
f 124//124 119//119 125//125
f 124//124 123//123 119//119
f 125//125 119//119 126//126
f 94//94 127//127 113//113
f 116//116 113//113 117//117
f 118//118 117//117 119//119
f 94//94 115//115 127//127
f 117//117 113//113 128//128
f 117//117 129//129 119//119
f 127//127 128//128 113//113
f 117//117 128//128 129//129
f 115//115 130//130 127//127
f 119//119 131//131 126//126
f 127//127 130//130 128//128
f 119//119 129//129 131//131
f 128//128 132//132 129//129
f 129//129 132//132 131//131
f 128//128 130//130 133//133
f 128//128 133//133 132//132
f 103//103 112//112 115//115
f 134//134 135//135 136//136
f 125//125 136//136 135//135
f 109//109 137//137 136//136
f 137//137 134//134 136//136
f 125//125 126//126 136//136
f 115//115 138//138 130//130
f 126//126 131//131 136//136
f 131//131 132//132 139//139
f 130//130 140//140 133//133
f 132//132 133//133 140//140
f 141//141 142//142 106//106
f 141//141 106//106 105//105
f 108//108 110//110 143//143
f 99//99 111//111 144//144
f 99//99 144//144 112//112
f 144//144 111//111 145//145
f 144//144 145//145 146//146
f 144//144 146//146 147//147
f 144//144 148//148 112//112
f 144//144 147//147 149//149
f 144//144 149//149 148//148
f 149//149 150//150 148//148
f 150//150 151//151 148//148
f 151//151 152//152 148//148
f 109//109 153//153 110//110
f 109//109 154//154 153//153
f 109//109 155//155 154//154
f 109//109 156//156 155//155
f 109//109 136//136 156//156
f 115//115 112//112 138//138
f 131//131 157//157 136//136
f 130//130 138//138 158//158
f 131//131 139//139 157//157
f 130//130 158//158 140//140
f 132//132 140//140 139//139
f 112//112 148//148 159//159
f 148//148 152//152 160//160
f 152//152 161//161 160//160
f 156//156 136//136 162//162
f 162//162 163//163 164//164
f 161//161 165//165 160//160
f 165//165 166//166 163//163
f 166//166 167//167 163//163
f 164//164 163//163 168//168
f 168//168 163//163 169//169
f 162//162 136//136 163//163
f 112//112 159//159 138//138
f 148//148 160//160 159//159
f 165//165 163//163 170//170
f 165//165 170//170 160//160
f 138//138 159//159 158//158
f 136//136 157//157 163//163
f 158//158 159//159 171//171
f 157//157 139//139 172//172
f 157//157 172//172 163//163
f 158//158 171//171 140//140
f 139//139 140//140 172//172
f 140//140 171//171 172//172
f 170//170 163//163 172//172
f 170//170 172//172 160//160
f 159//159 160//160 171//171
f 160//160 172//172 171//171
f 173//173 174//174 175//175
f 176//176 177//177 178//178
f 176//176 179//179 177//177
f 176//176 180//180 179//179
f 173//173 181//181 176//176
f 173//173 176//176 174//174
f 176//176 178//178 174//174
f 180//180 182//182 179//179
f 180//180 183//183 182//182
f 176//176 184//184 180//180
f 176//176 181//181 184//184
f 180//180 184//184 185//185
f 181//181 186//186 184//184
f 180//180 187//187 183//183
f 180//180 185//185 187//187
f 183//183 188//188 182//182
f 183//183 189//189 188//188
f 183//183 190//190 189//189
f 190//190 191//191 189//189
f 190//190 192//192 191//191
f 192//192 193//193 191//191
f 183//183 187//187 190//190
f 190//190 187//187 194//194
f 190//190 194//194 192//192
f 192//192 194//194 195//195
f 173//173 175//175 196//196
f 173//173 197//197 181//181
f 181//181 198//198 186//186
f 192//192 199//199 193//193
f 192//192 195//195 200//200
f 173//173 196//196 197//197
f 181//181 197//197 198//198
f 186//186 198//198 201//201
f 199//199 202//202 193//193
f 192//192 203//203 199//199
f 192//192 204//204 203//203
f 192//192 205//205 204//204
f 192//192 200//200 205//205
f 197//197 196//196 206//206
f 197//197 206//206 207//207
f 197//197 207//207 208//208
f 197//197 209//209 198//198
f 197//197 208//208 209//209
f 208//208 210//210 209//209
f 208//208 207//207 211//211
f 208//208 211//211 212//212
f 208//208 213//213 210//210
f 210//210 213//213 214//214
f 210//210 214//214 215//215
f 210//210 215//215 216//216
f 210//210 217//217 218//218
f 210//210 216//216 217//217
f 198//198 209//209 219//219
f 209//209 210//210 220//220
f 209//209 220//220 221//221
f 198//198 219//219 201//201
f 209//209 222//222 219//219
f 209//209 221//221 222//222
f 210//210 218//218 223//223
f 210//210 223//223 220//220
f 224//224 225//225 226//226
f 216//216 215//215 225//225
f 216//216 225//225 224//224
f 184//184 227//227 185//185
f 184//184 186//186 228//228
f 184//184 228//228 227//227
f 185//185 227//227 187//187
f 187//187 227//227 229//229
f 228//228 230//230 227//227
f 227//227 230//230 229//229
f 230//230 231//231 229//229
f 187//187 229//229 194//194
f 194//194 229//229 232//232
f 194//194 232//232 195//195
f 229//229 231//231 232//232
f 186//186 233//233 228//228
f 228//228 233//233 230//230
f 230//230 234//234 231//231
f 195//195 232//232 200//200
f 231//231 234//234 232//232
f 186//186 201//201 233//233
f 230//230 233//233 235//235
f 230//230 235//235 234//234
f 232//232 236//236 200//200
f 232//232 234//234 236//236
f 201//201 219//219 233//233
f 219//219 222//222 237//237
f 219//219 237//237 233//233
f 221//221 238//238 222//222
f 222//222 239//239 237//237
f 222//222 238//238 239//239
f 233//233 237//237 235//235
f 235//235 240//240 234//234
f 235//235 237//237 240//240
f 237//237 239//239 241//241
f 237//237 242//242 240//240
f 200//200 243//243 244//244
f 245//245 243//243 236//236
f 200//200 236//236 243//243
f 205//205 200//200 244//244
f 234//234 240//240 246//246
f 234//234 246//246 236//236
f 246//246 245//245 236//236
f 247//247 248//248 249//249
f 247//247 250//250 248//248
f 249//249 248//248 251//251
f 247//247 252//252 250//250
f 252//252 253//253 250//250
f 252//252 254//254 253//253
f 247//247 249//249 255//255
f 249//249 256//256 255//255
f 247//247 255//255 252//252
f 252//252 255//255 257//257
f 252//252 258//258 254//254
f 258//258 259//259 254//254
f 260//260 261//261 262//262
f 263//263 264//264 259//259
f 263//263 265//265 264//264
f 258//258 263//263 259//259
f 263//263 262//262 265//265
f 260//260 262//262 263//263
f 260//260 263//263 266//266
f 252//252 267//267 258//258
f 252//252 257//257 267//267
f 258//258 267//267 263//263
f 263//263 268//268 266//266
f 263//263 267//267 269//269
f 263//263 269//269 268//268
f 249//249 251//251 270//270
f 249//249 271//271 256//256
f 260//260 272//272 261//261
f 260//260 266//266 272//272
f 266//266 268//268 273//273
f 249//249 270//270 274//274
f 249//249 274//274 271//271
f 256//256 271//271 275//275
f 272//272 276//276 261//261
f 266//266 277//277 272//272
f 266//266 273//273 277//277
f 278//278 279//279 280//280
f 281//281 282//282 283//283
f 278//278 280//280 282//282
f 278//278 282//282 281//281
f 284//284 285//285 286//286
f 284//284 286//286 287//287
f 288//288 283//283 289//289
f 284//284 288//288 289//289
f 281//281 283//283 288//288
f 281//281 288//288 290//290
f 290//290 288//288 291//291
f 272//272 287//287 292//292
f 272//272 292//292 276//276
f 272//272 284//284 287//287
f 284//284 293//293 288//288
f 272//272 293//293 284//284
f 272//272 277//277 293//293
f 291//291 288//288 294//294
f 288//288 295//295 294//294
f 288//288 293//293 296//296
f 277//277 273//273 293//293
f 273//273 296//296 293//293
f 288//288 296//296 295//295
f 295//295 296//296 297//297
f 255//255 256//256 298//298
f 255//255 299//299 257//257
f 255//255 298//298 299//299
f 298//298 300//300 299//299
f 257//257 299//299 267//267
f 267//267 299//299 301//301
f 267//267 301//301 269//269
f 269//269 301//301 302//302
f 269//269 302//302 268//268
f 299//299 300//300 301//301
f 300//300 303//303 301//301
f 301//301 303//303 302//302
f 256//256 304//304 298//298
f 298//298 304//304 300//300
f 268//268 302//302 273//273
f 300//300 305//305 303//303
f 303//303 305//305 302//302
f 256//256 275//275 306//306
f 256//256 306//306 304//304
f 300//300 304//304 307//307
f 302//302 308//308 273//273
f 300//300 307//307 305//305
f 302//302 305//305 308//308
f 275//275 309//309 306//306
f 309//309 310//310 306//306
f 306//306 310//310 311//311
f 306//306 311//311 304//304
f 311//311 312//312 304//304
f 304//304 313//313 307//307
f 304//304 312//312 313//313
f 313//313 314//314 307//307
f 297//297 315//315 316//316
f 316//316 317//317 318//318
f 316//316 315//315 317//317
f 297//297 296//296 315//315
f 315//315 296//296 317//317
f 296//296 308//308 317//317
f 273//273 308//308 296//296
f 307//307 317//317 305//305
f 307//307 314//314 317//317
f 314//314 319//319 317//317
f 320//320 318//318 317//317
f 305//305 317//317 308//308
