v -0.21300 -0.04900 -0.46300
v -0.23068 -0.04168 -0.46300
v -0.21300 -0.04168 -0.48068
v -0.23068 -0.02400 -0.48068
v -0.23800 -0.02400 -0.46300
v -0.21300 -0.02400 -0.48800
v -0.23800 0.02400 -0.46300
v -0.23068 0.02400 -0.48068
v -0.21300 0.02400 -0.48800
v -0.23068 -0.04168 0.46300
v -0.23800 0.02400 0.46300
v -0.23068 0.04168 -0.46300
v -0.23406 0.03351 -0.41800
v -0.23267 0.03686 -0.42747
v -0.21300 0.04168 -0.48068
v -0.23131 0.04016 -0.43214
v -0.21300 0.04900 -0.46300
v -0.21300 0.04900 -0.43717
v -0.23068 0.04168 -0.43303
v -0.23068 0.04168 -0.43303
v -0.22800 0.04279 -0.43460
v -0.21200 0.04900 -0.43717
v -0.23406 0.03351 0.45800
v 0.21300 -0.04168 -0.48068
v 0.21300 0.02400 -0.48800
v 0.21300 0.04900 -0.46300
v -0.19986 0.04900 -0.43214
v -0.19786 0.04900 -0.43014
v 0.19786 0.04900 -0.43014
v -0.19283 0.04900 -0.41800
v -0.21300 -0.04900 0.46300
v -0.23800 -0.02400 0.46300
v -0.21300 -0.04168 0.48068
v -0.23068 -0.02400 0.48068
v -0.21300 -0.02400 0.48800
v -0.23068 0.02400 0.48068
v -0.21300 0.02400 0.48800
v -0.23068 0.03638 0.46830
v -0.23333 0.03528 0.46300
v -0.22800 0.03638 0.47098
v -0.22636 0.03686 0.47214
v -0.21300 0.04168 0.48068
v -0.21954 0.04168 0.47414
v -0.21300 0.04399 0.47510
v -0.21200 0.04399 0.47510
v 0.21300 -0.04900 0.46300
v 0.21300 -0.02400 0.48800
v -0.19283 0.04900 0.45800
v 0.19283 0.04900 0.45800
v 0.21300 0.04168 0.48068
v -0.19786 0.04691 0.46805
v -0.20364 0.04521 0.47214
v -0.19490 0.04900 0.46300
v 0.19490 0.04900 0.46300
v 0.21300 -0.04900 -0.46300
v 0.21300 -0.02400 -0.48800
v 0.21300 0.04168 -0.48068
v 0.19283 0.04900 -0.41800
v 0.23068 -0.04168 -0.46300
v 0.23068 -0.02400 -0.48068
v 0.23800 -0.02400 -0.46300
v 0.23068 0.02400 -0.48068
v 0.23800 0.02400 -0.46300
v 0.23068 -0.04168 0.46300
v 0.23800 -0.02400 0.46300
v 0.23068 0.04168 -0.46300
v 0.23267 0.03686 -0.42747
v 0.23406 0.03351 -0.41800
v 0.21300 0.04900 -0.43717
v 0.22800 0.04279 -0.43460
v 0.23068 0.04168 -0.43303
v 0.23068 0.04168 -0.43303
v 0.23131 0.04016 -0.43214
v 0.19986 0.04900 -0.43214
v 0.21200 0.04900 -0.43717
v 0.23800 0.02400 0.46300
v 0.21300 -0.04168 0.48068
v 0.21300 0.02400 0.48800
v 0.19786 0.04691 0.46805
v 0.20364 0.04521 0.47214
v 0.21200 0.04399 0.47510
v 0.23068 -0.02400 0.48068
v 0.23068 0.02400 0.48068
v 0.23406 0.03351 0.45800
v 0.21300 0.04399 0.47510
v 0.21954 0.04168 0.47414
v 0.23068 0.03638 0.46830
v 0.22800 0.03638 0.47098
v 0.22636 0.03686 0.47214
v 0.23333 0.03528 0.46300
v -0.22068 0.05044 0.50858
v -0.20300 0.04214 0.49297
v -0.20300 0.04397 0.51202
v -0.22068 0.05775 0.48467
v -0.22800 0.06605 0.50028
v -0.22800 0.07134 0.49746
v -0.22068 0.06304 0.48186
v -0.22068 0.08695 0.48916
v -0.21246 0.07030 0.47800
v -0.20300 0.05431 0.47821
v -0.21200 0.06844 0.47800
v -0.20300 0.05961 0.47539
v -0.20300 0.07122 0.47427
v -0.21200 0.07142 0.47800
v -0.20453 0.07937 0.47490
v 0.20300 0.04397 0.51202
v 0.20300 0.04214 0.49297
v 0.20300 0.05961 0.47539
v 0.20127 0.07865 0.47356
v -0.20127 0.07865 0.47356
v -0.22800 0.18247 0.71925
v -0.20300 0.09342 0.48573
v -0.20300 0.07952 0.47427
v -0.20127 0.07865 0.47356
v -0.20300 0.16040 0.73099
v -0.22068 0.20338 0.70814
v -0.22068 0.16687 0.72755
v -0.22800 0.18777 0.71644
v -0.20300 0.20985 0.70470
v -0.20300 0.17517 0.74316
v -0.22068 0.19077 0.73486
v -0.22068 0.19607 0.73204
v -0.20300 0.19421 0.74133
v -0.20300 0.19951 0.73851
v -0.20300 0.21168 0.72374
v 0.20300 0.09342 0.48573
v 0.20300 0.20985 0.70470
v 0.20300 0.16040 0.73099
v 0.20300 0.19421 0.74133
v 0.20300 0.19951 0.73851
v 0.20300 0.05431 0.47821
v 0.20300 0.07952 0.47427
v 0.20127 0.07865 0.47356
v 0.22068 0.05044 0.50858
v 0.22068 0.05775 0.48467
v 0.22068 0.06304 0.48186
v 0.21200 0.06844 0.47800
v 0.20300 0.07122 0.47427
v 0.21246 0.07030 0.47800
v 0.21200 0.07142 0.47800
v 0.22068 0.08695 0.48916
v 0.20453 0.07937 0.47490
v 0.22800 0.06605 0.50028
v 0.22800 0.07134 0.49746
v 0.20300 0.17517 0.74316
v 0.20300 0.21168 0.72374
v 0.22068 0.16687 0.72755
v 0.22800 0.18247 0.71925
v 0.22068 0.20338 0.70814
v 0.22068 0.19077 0.73486
v 0.22800 0.18777 0.71644
v 0.22068 0.19607 0.73204
v -0.24214 0.03686 -0.41800
v -0.23267 0.03686 -0.42747
v -0.23406 0.03351 -0.41800
v -0.24800 0.05100 -0.41800
v -0.24214 0.05100 -0.43214
v -0.23131 0.04016 -0.43214
v -0.23068 0.04168 -0.43303
v -0.22800 0.04279 -0.43460
v -0.22800 0.05100 -0.43800
v -0.21300 0.04900 -0.43717
v -0.21200 0.05100 -0.43800
v -0.24214 0.09900 -0.43214
v -0.21200 0.09900 -0.43800
v -0.21200 0.04900 -0.43717
v -0.19986 0.04900 -0.43214
v -0.19786 0.05100 -0.43214
v -0.19786 0.04900 -0.43014
v -0.19200 0.05100 -0.41800
v -0.19283 0.04900 -0.41800
v -0.19786 0.09900 -0.43214
v -0.23406 0.03351 0.45800
v -0.24214 0.03686 0.45800
v -0.24800 0.05100 0.45800
v -0.24800 0.09900 -0.41800
v -0.19200 0.05100 0.45800
v -0.19283 0.04900 0.45800
v -0.19200 0.09900 0.45800
v -0.23333 0.03528 0.46300
v -0.23068 0.03638 0.46830
v -0.22800 0.03686 0.47214
v -0.24214 0.05100 0.47214
v -0.22800 0.05100 0.47800
v -0.22800 0.03638 0.47098
v -0.22636 0.03686 0.47214
v -0.22636 0.03686 0.47214
v -0.21954 0.04168 0.47414
v -0.21300 0.04399 0.47510
v -0.21200 0.05100 0.47800
v -0.21200 0.04399 0.47510
v -0.20364 0.04521 0.47214
v -0.19786 0.05100 0.47214
v -0.19786 0.04691 0.46805
v -0.21200 0.06844 0.47800
v -0.21246 0.07030 0.47800
v -0.21200 0.07142 0.47800
v -0.24800 0.09900 0.45800
v -0.24214 0.09900 0.47214
v -0.21200 0.09900 0.47800
v -0.20300 0.07122 0.47427
v -0.19490 0.04900 0.46300
v -0.20127 0.07865 0.47356
v -0.19786 0.09900 0.47214
v -0.22800 0.09900 -0.43800
v -0.24214 0.11314 -0.41800
v -0.22800 0.11314 -0.43214
v -0.21200 0.11314 -0.43214
v -0.19200 0.09900 -0.41800
v -0.19786 0.11314 -0.41800
v -0.22800 0.11900 -0.41800
v -0.21200 0.11900 -0.41800
v -0.24214 0.11314 0.45800
v -0.22800 0.11900 0.45800
v -0.21200 0.11900 0.45800
v -0.19786 0.11314 0.45800
v -0.22800 0.09900 0.47800
v -0.22800 0.11314 0.47214
v -0.21200 0.11314 0.47214
v -0.20453 0.07937 0.47490
v -0.20300 0.07952 0.47427
v 0.22800 0.05100 -0.43800
v 0.22800 0.04279 -0.43460
v 0.21300 0.04900 -0.43717
v 0.24214 0.03686 -0.41800
v 0.23406 0.03351 -0.41800
v 0.23267 0.03686 -0.42747
v 0.24214 0.05100 -0.43214
v 0.23131 0.04016 -0.43214
v 0.23068 0.04168 -0.43303
v 0.24800 0.05100 -0.41800
v 0.19786 0.05100 -0.43214
v 0.19986 0.04900 -0.43214
v 0.19786 0.04900 -0.43014
v 0.19200 0.05100 -0.41800
v 0.19283 0.04900 -0.41800
v 0.21200 0.05100 -0.43800
v 0.21200 0.04900 -0.43717
v 0.19786 0.09900 -0.43214
v 0.22800 0.09900 -0.43800
v 0.24800 0.09900 -0.41800
v 0.24214 0.03686 0.45800
v 0.24800 0.05100 0.45800
v 0.19283 0.04900 0.45800
v 0.19200 0.05100 0.45800
v 0.19200 0.09900 -0.41800
v 0.23406 0.03351 0.45800
v 0.24800 0.09900 0.45800
v 0.19786 0.05100 0.47214
v 0.19786 0.04691 0.46805
v 0.20364 0.04521 0.47214
v 0.21200 0.05100 0.47800
v 0.21200 0.04399 0.47510
v 0.21300 0.04399 0.47510
v 0.21954 0.04168 0.47414
v 0.22800 0.03686 0.47214
v 0.22636 0.03686 0.47214
v 0.22800 0.03638 0.47098
v 0.23068 0.03638 0.46830
v 0.22800 0.05100 0.47800
v 0.22636 0.03686 0.47214
v 0.23333 0.03528 0.46300
v 0.24214 0.05100 0.47214
v 0.19490 0.04900 0.46300
v 0.20300 0.07122 0.47427
v 0.21200 0.06844 0.47800
v 0.19786 0.09900 0.47214
v 0.20127 0.07865 0.47356
v 0.22800 0.09900 0.47800
v 0.21246 0.07030 0.47800
v 0.21200 0.07142 0.47800
v 0.21200 0.09900 -0.43800
v 0.19786 0.11314 -0.41800
v 0.21200 0.11314 -0.43214
v 0.24214 0.09900 -0.43214
v 0.22800 0.11314 -0.43214
v 0.24214 0.11314 -0.41800
v 0.21200 0.11900 -0.41800
v 0.22800 0.11900 -0.41800
v 0.19786 0.11314 0.45800
v 0.22800 0.11900 0.45800
v 0.19200 0.09900 0.45800
v 0.24214 0.11314 0.45800
v 0.21200 0.11900 0.45800
v 0.20300 0.07952 0.47427
v 0.20453 0.07937 0.47490
v 0.21200 0.09900 0.47800
v 0.21200 0.11314 0.47214
v 0.24214 0.09900 0.47214
v 0.22800 0.11314 0.47214
vn -0.1877 -0.9641 -0.1877
vn -0.6887 -0.6887 -0.2265
vn -0.2265 -0.6887 -0.6887
vn -0.6887 -0.2265 -0.6887
vn -0.9641 -0.1877 -0.1877
vn -0.1877 -0.1877 -0.9641
vn -0.9641 0.1877 -0.1877
vn -0.6887 0.2265 -0.6887
vn -0.1877 0.1877 -0.9641
vn -0.6887 -0.6887 0.2265
vn -0.9641 0.1877 0.1877
vn -0.6887 0.6887 -0.2265
vn -0.9239 0.3827 -0.0000
vn -0.9239 0.3827 0.0000
vn -0.2265 0.6887 -0.6887
vn -0.9239 0.3827 0.0000
vn -0.1877 0.9641 -0.1877
vn -0.2044 0.9789 -0.0000
vn -0.9239 0.3827 0.0000
vn -0.3827 0.9239 0.0000
vn -0.3827 0.9239 -0.0000
vn 0.0000 1.0000 0.0000
vn -0.9239 0.3827 -0.0000
vn 0.2265 -0.6887 -0.6887
vn 0.1877 0.1877 -0.9641
vn 0.1877 0.9641 -0.1877
vn 0.0000 1.0000 0.0000
vn 0.0000 1.0000 0.0000
vn 0.0000 1.0000 0.0000
vn 0.0000 1.0000 0.0000
vn -0.1877 -0.9641 0.1877
vn -0.9641 -0.1877 0.1877
vn -0.2265 -0.6887 0.6887
vn -0.6887 -0.2265 0.6887
vn -0.1877 -0.1877 0.9641
vn -0.6887 0.2265 0.6887
vn -0.1877 0.1877 0.9641
vn -0.7831 0.4397 0.4397
vn -0.9007 0.3731 0.2228
vn -0.5774 0.5774 0.5774
vn -0.5774 0.5774 0.5774
vn -0.2265 0.6887 0.6887
vn -0.5353 0.6534 0.5353
vn -0.1817 0.9085 0.3763
vn 0.0000 0.9239 0.3827
vn 0.1877 -0.9641 0.1877
vn 0.1877 -0.1877 0.9641
vn 0.0000 1.0000 0.0000
vn 0.0000 1.0000 0.0000
vn 0.2265 0.6887 0.6887
vn -0.0000 0.9239 0.3827
vn 0.0000 0.9239 0.3827
vn -0.0000 0.9687 0.2482
vn 0.0000 0.9687 0.2482
vn 0.1877 -0.9641 -0.1877
vn 0.1877 -0.1877 -0.9641
vn 0.2265 0.6887 -0.6887
vn 0.0000 1.0000 0.0000
vn 0.6887 -0.6887 -0.2265
vn 0.6887 -0.2265 -0.6887
vn 0.9641 -0.1877 -0.1877
vn 0.6887 0.2265 -0.6887
vn 0.9641 0.1877 -0.1877
vn 0.6887 -0.6887 0.2265
vn 0.9641 -0.1877 0.1877
vn 0.6887 0.6887 -0.2265
vn 0.9239 0.3827 0.0000
vn 0.9239 0.3827 0.0000
vn 0.2044 0.9789 0.0000
vn 0.3827 0.9239 0.0000
vn 0.3827 0.9239 0.0000
vn 0.9239 0.3827 -0.0000
vn 0.9239 0.3827 -0.0000
vn 0.0000 1.0000 0.0000
vn 0.0000 1.0000 0.0000
vn 0.9641 0.1877 0.1877
vn 0.2265 -0.6887 0.6887
vn 0.1877 0.1877 0.9641
vn 0.0000 0.9239 0.3827
vn 0.0000 0.9239 0.3827
vn -0.0000 0.9239 0.3827
vn 0.6887 -0.2265 0.6887
vn 0.6887 0.2265 0.6887
vn 0.9239 0.3827 -0.0000
vn 0.1817 0.9085 0.3763
vn 0.5353 0.6534 0.5353
vn 0.7831 0.4397 0.4397
vn 0.5774 0.5774 0.5774
vn 0.5774 0.5774 0.5774
vn 0.9007 0.3731 0.2228
vn -0.6887 -0.7145 0.1233
vn -0.2265 -0.9314 -0.2848
vn -0.1877 -0.9394 0.2869
vn -0.6887 -0.5233 -0.5018
vn -0.9641 -0.2538 -0.0776
vn -0.9641 0.0776 -0.2538
vn -0.6887 -0.1233 -0.7145
vn -0.6887 0.5018 -0.5233
vn -0.5206 0.1420 -0.8419
vn -0.1877 -0.6184 -0.7632
vn -0.3574 -0.0895 -0.9296
vn -0.1877 -0.2869 -0.9394
vn -0.1092 -0.0953 -0.9894
vn -0.5774 0.2387 -0.7808
vn -0.4333 0.4943 -0.7536
vn 0.1877 -0.9394 0.2869
vn 0.2265 -0.9314 -0.2848
vn 0.1877 -0.2869 -0.9394
vn -0.0000 -0.0958 -0.9954
vn 0.0000 -0.0958 -0.9954
vn -0.9641 -0.0776 0.2538
vn -0.1877 0.7632 -0.6184
vn -0.1432 0.6295 -0.7637
vn -0.0000 0.6361 -0.7716
vn -0.1877 -0.7632 0.6184
vn -0.6887 0.7145 -0.1233
vn -0.6887 -0.5018 0.5233
vn -0.9641 0.2538 0.0776
vn -0.1877 0.9394 -0.2869
vn -0.2265 -0.2848 0.9314
vn -0.6887 0.1233 0.7145
vn -0.6887 0.5233 0.5018
vn -0.1877 0.2869 0.9394
vn -0.1877 0.6184 0.7632
vn -0.2265 0.9314 0.2848
vn 0.1877 0.7632 -0.6184
vn 0.1877 0.9394 -0.2869
vn 0.1877 -0.7632 0.6184
vn 0.1877 0.2869 0.9394
vn 0.1877 0.6184 0.7632
vn 0.1877 -0.6184 -0.7632
vn 0.1432 0.6295 -0.7637
vn 0.0000 0.6361 -0.7716
vn 0.6887 -0.7145 0.1233
vn 0.6887 -0.5233 -0.5018
vn 0.6887 -0.1233 -0.7145
vn 0.3574 -0.0895 -0.9296
vn 0.1092 -0.0953 -0.9894
vn 0.5206 0.1420 -0.8419
vn 0.5774 0.2387 -0.7808
vn 0.6887 0.5018 -0.5233
vn 0.4333 0.4943 -0.7536
vn 0.9641 -0.2538 -0.0776
vn 0.9641 0.0776 -0.2538
vn 0.2265 -0.2848 0.9314
vn 0.2265 0.9314 0.2848
vn 0.6887 -0.5018 0.5233
vn 0.9641 -0.0776 0.2538
vn 0.6887 0.7145 -0.1233
vn 0.6887 0.1233 0.7145
vn 0.9641 0.2538 0.0776
vn 0.6887 0.5233 0.5018
vn -0.6887 -0.6887 -0.2265
vn -0.5353 -0.6534 -0.5353
vn -0.3763 -0.9085 -0.1817
vn -0.9641 -0.1877 -0.1877
vn -0.6887 -0.2265 -0.6887
vn -0.4992 -0.4992 -0.7083
vn -0.3574 -0.3574 -0.8629
vn -0.2340 -0.3721 -0.8982
vn -0.1877 -0.1877 -0.9641
vn -0.0000 -0.3827 -0.9239
vn 0.1877 -0.1877 -0.9641
vn -0.6887 0.2265 -0.6887
vn 0.1877 0.1877 -0.9641
vn 0.1898 -0.3757 -0.9071
vn 0.4350 -0.4350 -0.7884
vn 0.6887 -0.2265 -0.6887
vn 0.7884 -0.4350 -0.4350
vn 0.9641 -0.1877 -0.1877
vn 0.9071 -0.3757 -0.1898
vn 0.6887 0.2265 -0.6887
vn -0.3763 -0.9085 0.1817
vn -0.6887 -0.6887 0.2265
vn -0.9641 -0.1877 0.1877
vn -0.9641 0.1877 -0.1877
vn 0.9641 -0.1877 0.1877
vn 0.9071 -0.3757 0.1898
vn 0.9641 0.1877 0.1877
vn -0.3574 -0.8629 0.3574
vn -0.3574 -0.8629 0.3574
vn -0.2265 -0.6887 0.6887
vn -0.6887 -0.2265 0.6887
vn -0.1877 -0.1877 0.9641
vn -0.2585 -0.8925 0.3697
vn 0.0000 -0.9239 0.3827
vn 0.0000 -0.3827 0.9239
vn -0.0000 -0.3827 0.9239
vn -0.0000 -0.3827 0.9239
vn 0.1877 -0.1877 0.9641
vn 0.1817 -0.3763 0.9085
vn 0.4165 -0.4165 0.8081
vn 0.6887 -0.2265 0.6887
vn 0.7621 -0.4578 0.4578
vn 0.1519 -0.0000 0.9884
vn 0.0000 0.0000 1.0000
vn 0.0869 0.0000 0.9962
vn -0.9641 0.1877 0.1877
vn -0.6887 0.2265 0.6887
vn 0.1877 0.1877 0.9641
vn 0.3827 -0.0000 0.9239
vn 0.8629 -0.3574 0.3574
vn 0.3827 0.0000 0.9239
vn 0.6887 0.2265 0.6887
vn -0.1877 0.1877 -0.9641
vn -0.6887 0.6887 -0.2265
vn -0.2265 0.6887 -0.6887
vn 0.2265 0.6887 -0.6887
vn 0.9641 0.1877 -0.1877
vn 0.6887 0.6887 -0.2265
vn -0.1877 0.9641 -0.1877
vn 0.1877 0.9641 -0.1877
vn -0.6887 0.6887 0.2265
vn -0.1877 0.9641 0.1877
vn 0.1877 0.9641 0.1877
vn 0.6887 0.6887 0.2265
vn -0.1877 0.1877 0.9641
vn -0.2265 0.6887 0.6887
vn 0.2265 0.6887 0.6887
vn 0.3827 0.0000 0.9239
vn 0.3827 0.0000 0.9239
vn 0.1877 -0.1877 -0.9641
vn 0.2340 -0.3721 -0.8982
vn 0.0000 -0.3827 -0.9239
vn 0.6887 -0.6887 -0.2265
vn 0.3763 -0.9085 -0.1817
vn 0.5353 -0.6534 -0.5353
vn 0.6887 -0.2265 -0.6887
vn 0.4992 -0.4992 -0.7083
vn 0.3574 -0.3574 -0.8629
vn 0.9641 -0.1877 -0.1877
vn -0.6887 -0.2265 -0.6887
vn -0.4350 -0.4350 -0.7884
vn -0.7884 -0.4350 -0.4350
vn -0.9641 -0.1877 -0.1877
vn -0.9071 -0.3757 -0.1898
vn -0.1877 -0.1877 -0.9641
vn -0.1898 -0.3757 -0.9071
vn -0.6887 0.2265 -0.6887
vn 0.1877 0.1877 -0.9641
vn 0.9641 0.1877 -0.1877
vn 0.6887 -0.6887 0.2265
vn 0.9641 -0.1877 0.1877
vn -0.9071 -0.3757 0.1898
vn -0.9641 -0.1877 0.1877
vn -0.9641 0.1877 -0.1877
vn 0.3763 -0.9085 0.1817
vn 0.9641 0.1877 0.1877
vn -0.6887 -0.2265 0.6887
vn -0.7621 -0.4578 0.4578
vn -0.4165 -0.4165 0.8081
vn -0.1877 -0.1877 0.9641
vn -0.1817 -0.3763 0.9085
vn 0.0000 -0.3827 0.9239
vn -0.0000 -0.3827 0.9239
vn 0.2265 -0.6887 0.6887
vn 0.0000 -0.9239 0.3827
vn 0.2585 -0.8925 0.3697
vn 0.3574 -0.8629 0.3574
vn 0.1877 -0.1877 0.9641
vn -0.0000 -0.3827 0.9239
vn 0.3574 -0.8629 0.3574
vn 0.6887 -0.2265 0.6887
vn -0.8629 -0.3574 0.3574
vn -0.3827 0.0000 0.9239
vn -0.1519 0.0000 0.9884
vn -0.6887 0.2265 0.6887
vn -0.3827 0.0000 0.9239
vn 0.1877 0.1877 0.9641
vn 0.0000 0.0000 1.0000
vn -0.0869 0.0000 0.9962
vn -0.1877 0.1877 -0.9641
vn -0.6887 0.6887 -0.2265
vn -0.2265 0.6887 -0.6887
vn 0.6887 0.2265 -0.6887
vn 0.2265 0.6887 -0.6887
vn 0.6887 0.6887 -0.2265
vn -0.1877 0.9641 -0.1877
vn 0.1877 0.9641 -0.1877
vn -0.6887 0.6887 0.2265
vn 0.1877 0.9641 0.1877
vn -0.9641 0.1877 0.1877
vn 0.6887 0.6887 0.2265
vn -0.1877 0.9641 0.1877
vn -0.3827 -0.0000 0.9239
vn -0.3827 -0.0000 0.9239
vn -0.1877 0.1877 0.9641
vn -0.2265 0.6887 0.6887
vn 0.6887 0.2265 0.6887
vn 0.2265 0.6887 0.6887
f 1//1 2//2 3//3
f 2//2 4//4 3//3
f 2//2 5//5 4//4
f 3//3 4//4 6//6
f 4//4 5//5 7//7
f 4//4 8//8 6//6
f 4//4 7//7 8//8
f 6//6 8//8 9//9
f 2//2 10//10 5//5
f 1//1 10//10 2//2
f 5//5 11//11 7//7
f 8//8 7//7 12//12
f 7//7 13//13 14//14
f 8//8 15//15 9//9
f 7//7 16//16 12//12
f 7//7 14//14 16//16
f 8//8 12//12 15//15
f 12//12 17//17 15//15
f 12//12 18//18 17//17
f 12//12 16//16 19//19
f 12//12 20//20 21//21
f 12//12 21//21 18//18
f 17//17 18//18 22//22
f 7//7 23//23 13//13
f 1//1 3//3 24//24
f 3//3 6//6 24//24
f 6//6 9//9 25//25
f 9//9 15//15 25//25
f 15//15 17//17 26//26
f 17//17 22//22 26//26
f 26//26 22//22 27//27
f 27//27 28//28 29//29
f 28//28 30//30 29//29
f 1//1 31//31 10//10
f 5//5 10//10 32//32
f 5//5 32//32 11//11
f 31//31 33//33 10//10
f 10//10 33//33 34//34
f 10//10 34//34 32//32
f 33//33 35//35 34//34
f 32//32 34//34 36//36
f 34//34 35//35 36//36
f 32//32 36//36 11//11
f 35//35 37//37 36//36
f 7//7 11//11 23//23
f 11//11 36//36 38//38
f 11//11 39//39 23//23
f 11//11 38//38 39//39
f 36//36 40//40 38//38
f 36//36 41//41 40//40
f 36//36 37//37 42//42
f 36//36 43//43 41//41
f 36//36 42//42 43//43
f 42//42 44//44 43//43
f 42//42 45//45 44//44
f 1//1 46//46 31//31
f 31//31 46//46 33//33
f 33//33 47//47 35//35
f 35//35 47//47 37//37
f 48//48 49//49 30//30
f 37//37 50//50 42//42
f 50//50 51//51 52//52
f 42//42 50//50 45//45
f 50//50 52//52 45//45
f 48//48 53//53 54//54
f 50//50 53//53 51//51
f 1//1 24//24 55//55
f 6//6 56//56 24//24
f 6//6 25//25 56//56
f 1//1 55//55 46//46
f 15//15 57//57 25//25
f 15//15 26//26 57//57
f 30//30 58//58 29//29
f 26//26 27//27 29//29
f 58//58 30//30 49//49
f 55//55 24//24 59//59
f 24//24 60//60 59//59
f 24//24 56//56 60//60
f 59//59 60//60 61//61
f 56//56 62//62 60//60
f 60//60 62//62 61//61
f 56//56 25//25 62//62
f 61//61 62//62 63//63
f 55//55 59//59 64//64
f 59//59 61//61 64//64
f 61//61 63//63 65//65
f 25//25 57//57 62//62
f 62//62 66//66 63//63
f 63//63 67//67 68//68
f 62//62 57//57 66//66
f 57//57 26//26 66//66
f 66//66 26//26 69//69
f 66//66 69//69 70//70
f 66//66 70//70 71//71
f 63//63 66//66 72//72
f 63//63 73//73 67//67
f 63//63 72//72 73//73
f 26//26 29//29 74//74
f 26//26 74//74 75//75
f 26//26 75//75 69//69
f 63//63 68//68 76//76
f 33//33 46//46 77//77
f 33//33 77//77 47//47
f 37//37 47//47 78//78
f 37//37 78//78 50//50
f 79//79 54//54 53//53
f 80//80 79//79 53//53
f 80//80 53//53 81//81
f 50//50 81//81 53//53
f 48//48 54//54 49//49
f 55//55 64//64 46//46
f 61//61 65//65 64//64
f 65//65 63//63 76//76
f 46//46 64//64 77//77
f 77//77 64//64 82//82
f 77//77 82//82 47//47
f 64//64 65//65 82//82
f 47//47 82//82 78//78
f 65//65 76//76 82//82
f 82//82 83//83 78//78
f 82//82 76//76 83//83
f 76//76 68//68 84//84
f 50//50 85//85 81//81
f 50//50 86//86 85//85
f 83//83 87//87 88//88
f 78//78 83//83 50//50
f 83//83 88//88 89//89
f 76//76 87//87 83//83
f 76//76 84//84 90//90
f 76//76 90//90 87//87
f 83//83 86//86 50//50
f 83//83 89//89 86//86
f 91//91 92//92 93//93
f 94//94 95//95 96//96
f 91//91 95//95 94//94
f 94//94 96//96 97//97
f 97//97 96//96 98//98
f 97//97 98//98 99//99
f 91//91 94//94 92//92
f 92//92 94//94 100//100
f 94//94 97//97 100//100
f 97//97 101//101 102//102
f 97//97 102//102 100//100
f 97//97 99//99 101//101
f 102//102 101//101 103//103
f 99//99 98//98 104//104
f 104//104 98//98 105//105
f 92//92 106//106 93//93
f 92//92 100//100 107//107
f 100//100 102//102 108//108
f 102//102 103//103 109//109
f 103//103 110//110 109//109
f 91//91 111//111 95//95
f 95//95 111//111 96//96
f 98//98 112//112 105//105
f 105//105 112//112 113//113
f 113//113 112//112 114//114
f 91//91 93//93 115//115
f 96//96 116//116 98//98
f 98//98 116//116 112//112
f 91//91 117//117 111//111
f 91//91 115//115 117//117
f 96//96 111//111 118//118
f 96//96 118//118 116//116
f 112//112 116//116 119//119
f 115//115 120//120 117//117
f 117//117 120//120 121//121
f 111//111 121//121 118//118
f 117//117 121//121 111//111
f 118//118 121//121 122//122
f 118//118 122//122 116//116
f 120//120 123//123 121//121
f 121//121 123//123 124//124
f 121//121 124//124 122//122
f 122//122 124//124 125//125
f 122//122 125//125 116//116
f 116//116 125//125 119//119
f 114//114 112//112 126//126
f 93//93 106//106 115//115
f 112//112 119//119 127//127
f 115//115 128//128 120//120
f 120//120 129//129 123//123
f 123//123 129//129 124//124
f 124//124 130//130 125//125
f 119//119 125//125 127//127
f 92//92 107//107 106//106
f 100//100 131//131 107//107
f 100//100 108//108 131//131
f 102//102 109//109 108//108
f 114//114 132//132 133//133
f 107//107 134//134 106//106
f 107//107 131//131 135//135
f 107//107 135//135 134//134
f 131//131 108//108 135//135
f 108//108 136//136 135//135
f 108//108 137//137 136//136
f 108//108 138//138 137//137
f 108//108 109//109 138//138
f 137//137 139//139 136//136
f 139//139 140//140 141//141
f 140//140 142//142 141//141
f 134//134 135//135 143//143
f 135//135 136//136 144//144
f 135//135 144//144 143//143
f 139//139 141//141 136//136
f 136//136 141//141 144//144
f 114//114 126//126 132//132
f 112//112 127//127 126//126
f 115//115 106//106 128//128
f 120//120 128//128 145//145
f 120//120 145//145 129//129
f 124//124 129//129 130//130
f 125//125 146//146 127//127
f 125//125 130//130 146//146
f 132//132 126//126 142//142
f 142//142 126//126 141//141
f 106//106 134//134 147//147
f 134//134 143//143 148//148
f 143//143 144//144 148//148
f 126//126 149//149 141//141
f 144//144 141//141 149//149
f 106//106 147//147 128//128
f 134//134 148//148 147//147
f 126//126 127//127 149//149
f 128//128 147//147 145//145
f 145//145 147//147 150//150
f 144//144 151//151 148//148
f 144//144 149//149 151//151
f 145//145 150//150 129//129
f 129//129 150//150 152//152
f 129//129 152//152 130//130
f 130//130 152//152 146//146
f 127//127 146//146 149//149
f 146//146 152//152 149//149
f 147//147 148//148 150//150
f 148//148 152//152 150//150
f 148//148 151//151 152//152
f 151//151 149//149 152//152
f 153//153 154//154 155//155
f 153//153 156//156 157//157
f 157//157 158//158 154//154
f 157//157 159//159 158//158
f 153//153 157//157 154//154
f 157//157 160//160 159//159
f 157//157 161//161 160//160
f 161//161 162//162 160//160
f 161//161 163//163 162//162
f 157//157 156//156 164//164
f 157//157 164//164 161//161
f 161//161 165//165 163//163
f 163//163 166//166 162//162
f 163//163 167//167 166//166
f 163//163 168//168 167//167
f 168//168 169//169 167//167
f 168//168 170//170 169//169
f 170//170 171//171 169//169
f 163//163 165//165 168//168
f 168//168 172//172 170//170
f 153//153 155//155 173//173
f 153//153 174//174 156//156
f 156//156 175//175 176//176
f 170//170 177//177 171//171
f 153//153 173//173 174//174
f 156//156 174//174 175//175
f 177//177 178//178 171//171
f 170//170 179//179 177//177
f 174//174 173//173 180//180
f 174//174 180//180 181//181
f 174//174 181//181 182//182
f 174//174 183//183 175//175
f 174//174 182//182 183//183
f 182//182 184//184 183//183
f 182//182 181//181 185//185
f 182//182 185//185 186//186
f 182//182 187//187 184//184
f 184//184 187//187 188//188
f 184//184 188//188 189//189
f 184//184 189//189 190//190
f 190//190 189//189 191//191
f 190//190 191//191 192//192
f 193//193 192//192 194//194
f 184//184 190//190 195//195
f 184//184 195//195 196//196
f 184//184 196//196 197//197
f 175//175 183//183 198//198
f 183//183 184//184 199//199
f 184//184 197//197 200//200
f 190//190 192//192 193//193
f 190//190 193//193 195//195
f 193//193 201//201 195//195
f 193//193 194//194 202//202
f 193//193 202//202 177//177
f 177//177 202//202 178//178
f 193//193 203//203 201//201
f 193//193 177//177 179//179
f 193//193 204//204 203//203
f 156//156 176//176 164//164
f 161//161 164//164 205//205
f 161//161 205//205 165//165
f 164//164 176//176 206//206
f 164//164 207//207 205//205
f 164//164 206//206 207//207
f 205//205 207//207 165//165
f 207//207 208//208 165//165
f 168//168 165//165 172//172
f 170//170 172//172 209//209
f 165//165 208//208 172//172
f 172//172 208//208 210//210
f 172//172 210//210 209//209
f 206//206 211//211 207//207
f 207//207 211//211 208//208
f 211//211 212//212 208//208
f 208//208 212//212 210//210
f 176//176 213//213 206//206
f 170//170 209//209 179//179
f 209//209 210//210 179//179
f 206//206 214//214 211//211
f 211//211 214//214 212//212
f 212//212 215//215 210//210
f 176//176 175//175 198//198
f 176//176 198//198 213//213
f 210//210 216//216 179//179
f 206//206 213//213 214//214
f 212//212 214//214 215//215
f 210//210 215//215 216//216
f 183//183 199//199 198//198
f 184//184 217//217 199//199
f 184//184 200//200 217//217
f 198//198 199//199 213//213
f 199//199 217//217 218//218
f 199//199 218//218 213//213
f 217//217 200//200 218//218
f 218//218 200//200 219//219
f 220//220 221//221 204//204
f 197//197 220//220 200//200
f 220//220 204//204 200//200
f 193//193 179//179 204//204
f 221//221 203//203 204//204
f 200//200 204//204 219//219
f 204//204 216//216 219//219
f 204//204 179//179 216//216
f 213//213 218//218 214//214
f 218//218 215//215 214//214
f 218//218 219//219 215//215
f 219//219 216//216 215//215
f 222//222 223//223 224//224
f 225//225 226//226 227//227
f 228//228 227//227 229//229
f 228//228 229//229 230//230
f 225//225 227//227 228//228
f 228//228 230//230 223//223
f 222//222 228//228 223//223
f 225//225 228//228 231//231
f 232//232 233//233 234//234
f 235//235 234//234 236//236
f 235//235 232//232 234//234
f 232//232 237//237 233//233
f 237//237 238//238 233//233
f 237//237 224//224 238//238
f 235//235 239//239 232//232
f 232//232 239//239 237//237
f 237//237 222//222 224//224
f 237//237 240//240 222//222
f 222//222 240//240 228//228
f 228//228 241//241 231//231
f 225//225 242//242 226//226
f 225//225 231//231 243//243
f 235//235 236//236 244//244
f 235//235 245//245 246//246
f 242//242 247//247 226//226
f 225//225 243//243 242//242
f 235//235 244//244 245//245
f 231//231 248//248 243//243
f 249//249 250//250 251//251
f 252//252 251//251 253//253
f 252//252 253//253 254//254
f 252//252 254//254 255//255
f 256//256 257//257 258//258
f 256//256 258//258 259//259
f 260//260 255//255 261//261
f 252//252 255//255 260//260
f 256//256 260//260 261//261
f 242//242 259//259 262//262
f 242//242 262//262 247//247
f 256//256 259//259 242//242
f 256//256 242//242 263//263
f 242//242 243//243 263//263
f 256//256 263//263 260//260
f 245//245 244//244 264//264
f 245//245 264//264 249//249
f 249//249 264//264 250//250
f 249//249 251//251 252//252
f 249//249 252//252 265//265
f 252//252 266//266 265//265
f 245//245 249//249 267//267
f 249//249 265//265 268//268
f 249//249 268//268 267//267
f 252//252 260//260 269//269
f 252//252 269//269 266//266
f 266//266 269//269 270//270
f 270//270 269//269 271//271
f 243//243 248//248 263//263
f 260//260 263//263 269//269
f 235//235 246//246 239//239
f 237//237 239//239 272//272
f 246//246 273//273 239//239
f 239//239 274//274 272//272
f 239//239 273//273 274//274
f 237//237 272//272 240//240
f 228//228 240//240 275//275
f 228//228 275//275 241//241
f 272//272 274//274 240//240
f 274//274 276//276 240//240
f 240//240 276//276 275//275
f 275//275 277//277 241//241
f 275//275 276//276 277//277
f 273//273 278//278 274//274
f 274//274 278//278 279//279
f 274//274 279//279 276//276
f 276//276 279//279 277//277
f 246//246 280//280 273//273
f 231//231 241//241 248//248
f 241//241 277//277 248//248
f 273//273 280//280 278//278
f 278//278 281//281 279//279
f 279//279 281//281 277//277
f 246//246 245//245 282//282
f 246//246 282//282 280//280
f 277//277 283//283 248//248
f 278//278 280//280 284//284
f 278//278 284//284 281//281
f 277//277 281//281 283//283
f 245//245 267//267 282//282
f 268//268 285//285 267//267
f 285//285 286//286 267//267
f 271//271 287//287 286//286
f 286//286 287//287 267//267
f 282//282 267//267 280//280
f 267//267 287//287 288//288
f 267//267 288//288 280//280
f 271//271 269//269 287//287
f 263//263 248//248 289//289
f 263//263 289//289 269//269
f 287//287 269//269 288//288
f 288//288 269//269 290//290
f 248//248 283//283 289//289
f 269//269 289//289 290//290
f 289//289 283//283 290//290
f 280//280 288//288 284//284
f 288//288 281//281 284//284
f 288//288 290//290 281//281
f 290//290 283//283 281//281
