v -0.23068 -0.09168 -0.21300
v -0.23800 -0.07400 -0.21300
v -0.23068 -0.07400 -0.23068
v -0.21300 -0.09168 -0.23068
v -0.21300 -0.09900 -0.21300
v -0.21300 -0.07400 -0.23800
v -0.23068 0.07400 -0.23068
v -0.23800 0.07400 -0.21300
v -0.21300 0.07400 -0.23800
v -0.23068 -0.09168 0.21300
v -0.23800 -0.07400 0.21300
v -0.23068 0.09168 -0.21300
v -0.21300 0.09168 -0.23068
v -0.21300 0.09900 -0.21300
v -0.23068 0.09168 -0.18303
v -0.23406 0.08351 -0.16800
v -0.23267 0.08686 -0.17747
v -0.23131 0.09016 -0.18214
v -0.23068 0.09168 -0.18303
v -0.22800 0.09279 -0.18460
v -0.21300 0.09900 -0.18717
v -0.21200 0.09900 -0.18717
v -0.23406 0.08351 0.20800
v 0.21300 -0.09168 -0.23068
v 0.21300 0.07400 -0.23800
v 0.21300 -0.09900 -0.21300
v -0.21300 -0.09900 0.21300
v 0.21300 0.09900 -0.21300
v -0.19986 0.09900 -0.18214
v -0.19786 0.09900 -0.18014
v -0.19283 0.09900 -0.16800
v -0.23800 0.07400 0.21300
v -0.23068 -0.07400 0.23068
v -0.21300 -0.09168 0.23068
v -0.21300 -0.07400 0.23800
v -0.23068 0.07400 0.23068
v -0.21300 0.07400 0.23800
v -0.23333 0.08528 0.21300
v -0.23068 0.08638 0.21830
v -0.22800 0.08638 0.22098
v -0.22636 0.08686 0.22214
v -0.21954 0.09168 0.22414
v -0.21300 0.09168 0.23068
v -0.21302 0.09398 0.22509
v -0.21300 0.09398 0.22512
v -0.20625 0.09168 0.23068
v -0.20625 0.09168 0.23068
v -0.20529 0.09104 0.23094
v -0.20300 0.09021 0.23129
v 0.21300 -0.09168 0.23068
v 0.21300 0.07400 0.23800
v -0.19283 0.09900 0.19601
v 0.19283 0.09900 0.19601
v 0.20300 0.09021 0.23129
v 0.21300 -0.07400 -0.23800
v 0.21300 0.09168 -0.23068
v 0.19986 0.09900 -0.18214
v 0.19786 0.09900 -0.18014
v 0.19283 0.09900 -0.16800
v 0.23068 -0.07400 -0.23068
v 0.23068 -0.09168 -0.21300
v 0.23800 -0.07400 -0.21300
v 0.23068 0.07400 -0.23068
v 0.23800 0.07400 -0.21300
v 0.23068 -0.09168 0.21300
v 0.23800 -0.07400 0.21300
v 0.23068 0.09168 -0.21300
v 0.22800 0.09279 -0.18460
v 0.23068 0.09168 -0.18303
v 0.23068 0.09168 -0.18303
v 0.23267 0.08686 -0.17747
v 0.23406 0.08351 -0.16800
v 0.23131 0.09016 -0.18214
v 0.21200 0.09900 -0.18717
v 0.21300 0.09900 -0.18717
v 0.23800 0.07400 0.21300
v 0.21300 -0.09900 0.21300
v 0.21300 -0.07400 0.23800
v 0.23068 -0.07400 0.23068
v 0.23068 0.07400 0.23068
v 0.23406 0.08351 0.20800
v 0.21300 0.09168 0.23068
v 0.21302 0.09398 0.22509
v 0.21300 0.09398 0.22512
v 0.20625 0.09168 0.23068
v 0.21954 0.09168 0.22414
v 0.20529 0.09104 0.23094
v 0.20625 0.09168 0.23068
v 0.23333 0.08528 0.21300
v 0.23068 0.08638 0.21830
v 0.22800 0.08638 0.22098
v 0.22636 0.08686 0.22214
v -0.20300 0.09045 0.23315
v -0.20625 0.09168 0.23068
v -0.20529 0.09104 0.23094
v -0.20300 0.09021 0.23129
v -0.22068 0.10191 0.22800
v -0.22068 0.10753 0.23772
v -0.22485 0.11013 0.22800
v -0.21956 0.10100 0.22800
v -0.22800 0.13954 0.22800
v -0.21302 0.09398 0.22509
v -0.21300 0.09398 0.22512
v -0.20300 0.10563 0.24480
v 0.20300 0.09021 0.23129
v -0.19200 0.10100 0.19341
v -0.19200 0.10116 0.19320
v 0.19200 0.10116 0.19320
v 0.19200 0.10100 0.19341
v -0.19283 0.09900 0.19601
v -0.19200 0.12013 0.19071
v 0.19200 0.12013 0.19071
v -0.19200 0.10116 0.19320
v 0.20300 0.10563 0.24480
v -0.22800 0.39029 0.29519
v -0.20300 0.38382 0.31934
v -0.22800 0.14900 0.22800
v -0.22800 0.15439 0.22577
v -0.22561 0.16314 0.22214
v -0.22800 0.39184 0.28939
v -0.22068 0.16774 0.21104
v -0.22068 0.39642 0.27232
v -0.21279 0.16900 0.20800
v -0.22068 0.16774 0.21104
v -0.20300 0.39831 0.26525
v -0.21200 0.16900 0.20766
v -0.20300 0.16527 0.20280
v -0.22068 0.38571 0.31226
v -0.22068 0.40736 0.29976
v -0.22068 0.40892 0.29397
v -0.20300 0.41349 0.27689
v -0.20300 0.40279 0.31684
v -0.20300 0.41599 0.29586
v -0.20300 0.41444 0.30166
v -0.19200 0.14900 0.19844
v -0.19786 0.16314 0.20223
v 0.20300 0.39831 0.26525
v 0.20300 0.38382 0.31934
v 0.20300 0.41599 0.29586
v 0.20300 0.41444 0.30166
v 0.20300 0.09045 0.23315
v 0.19283 0.09900 0.19601
v 0.19200 0.10116 0.19320
v 0.19200 0.14900 0.19844
v 0.19786 0.16314 0.20223
v 0.20300 0.16527 0.20280
v 0.20529 0.09104 0.23094
v 0.20625 0.09168 0.23068
v 0.21956 0.10100 0.22800
v 0.21300 0.09398 0.22512
v 0.21302 0.09398 0.22509
v 0.22068 0.10753 0.23772
v 0.22068 0.10191 0.22800
v 0.22485 0.11013 0.22800
v 0.22800 0.13954 0.22800
v 0.20300 0.41349 0.27689
v 0.20300 0.40279 0.31684
v 0.22068 0.38571 0.31226
v 0.22800 0.39029 0.29519
v 0.21200 0.16900 0.20766
v 0.22068 0.39642 0.27232
v 0.21279 0.16900 0.20800
v 0.22561 0.16314 0.22214
v 0.22800 0.15439 0.22577
v 0.22800 0.14900 0.22800
v 0.22068 0.16774 0.21104
v 0.22068 0.16774 0.21104
v 0.22800 0.39184 0.28939
v 0.22068 0.40892 0.29397
v 0.22068 0.40736 0.29976
v -0.24214 0.08686 -0.16800
v -0.23267 0.08686 -0.17747
v -0.23406 0.08351 -0.16800
v -0.24214 0.10100 -0.18214
v -0.23131 0.09016 -0.18214
v -0.24800 0.10100 -0.16800
v -0.23068 0.09168 -0.18303
v -0.22800 0.09279 -0.18460
v -0.22800 0.10100 -0.18800
v -0.24214 0.14900 -0.18214
v -0.21300 0.09900 -0.18717
v -0.21200 0.10100 -0.18800
v -0.21200 0.14900 -0.18800
v -0.22800 0.14900 -0.18800
v -0.24800 0.14900 -0.16800
v -0.24214 0.16314 -0.16800
v -0.22800 0.16314 -0.18214
v -0.21200 0.16314 -0.18214
v -0.21200 0.09900 -0.18717
v -0.19986 0.09900 -0.18214
v -0.19786 0.10100 -0.18214
v -0.19786 0.09900 -0.18014
v -0.19200 0.10100 -0.16800
v -0.19283 0.09900 -0.16800
v -0.19786 0.14900 -0.18214
v -0.19786 0.16314 -0.16800
v -0.19200 0.14900 -0.16800
v -0.24214 0.08686 0.20800
v -0.23406 0.08351 0.20800
v -0.24800 0.10100 0.20800
v -0.24214 0.16314 0.20800
v -0.19200 0.10100 0.19341
v -0.19200 0.12013 0.19071
v -0.19200 0.14900 0.19844
v -0.24800 0.14900 0.20800
v -0.19283 0.09900 0.19601
v -0.19200 0.10116 0.19320
v -0.19786 0.16314 0.20223
v -0.23333 0.08528 0.21300
v -0.23068 0.08638 0.21830
v -0.22800 0.08686 0.22214
v -0.24214 0.10100 0.22214
v -0.22800 0.08638 0.22098
v -0.22636 0.08686 0.22214
v -0.22636 0.08686 0.22214
v -0.22800 0.10100 0.22800
v -0.21954 0.09168 0.22414
v -0.24214 0.14900 0.22214
v -0.22800 0.13954 0.22800
v -0.21956 0.10100 0.22800
v -0.22068 0.10191 0.22800
v -0.21302 0.09398 0.22509
v -0.22485 0.11013 0.22800
v -0.22800 0.14900 0.22800
v -0.22800 0.16314 0.22214
v -0.22800 0.15439 0.22577
v -0.22800 0.16900 -0.16800
v -0.21200 0.16900 -0.16800
v -0.21200 0.16900 0.20766
v -0.20300 0.16527 0.20280
v -0.22800 0.16900 0.20800
v -0.19786 0.16314 0.20223
v -0.22068 0.16774 0.21104
v -0.21279 0.16900 0.20800
v -0.22561 0.16314 0.22214
v -0.22561 0.16314 0.22214
v 0.24214 0.08686 -0.16800
v 0.23406 0.08351 -0.16800
v 0.23267 0.08686 -0.17747
v 0.24214 0.10100 -0.18214
v 0.23131 0.09016 -0.18214
v 0.19786 0.10100 -0.18214
v 0.19986 0.09900 -0.18214
v 0.19786 0.09900 -0.18014
v 0.19200 0.10100 -0.16800
v 0.19283 0.09900 -0.16800
v 0.19786 0.14900 -0.18214
v 0.21200 0.10100 -0.18800
v 0.21200 0.09900 -0.18717
v 0.21300 0.09900 -0.18717
v 0.19200 0.14900 -0.16800
v 0.19786 0.16314 -0.16800
v 0.21200 0.14900 -0.18800
v 0.21200 0.16314 -0.18214
v 0.22800 0.10100 -0.18800
v 0.22800 0.09279 -0.18460
v 0.22800 0.14900 -0.18800
v 0.23068 0.09168 -0.18303
v 0.24800 0.10100 -0.16800
v 0.24800 0.14900 -0.16800
v 0.22800 0.16314 -0.18214
v 0.24214 0.14900 -0.18214
v 0.24214 0.16314 -0.16800
v 0.24214 0.08686 0.20800
v 0.19283 0.09900 0.19601
v 0.19200 0.12013 0.19071
v 0.19786 0.16314 0.20223
v 0.24800 0.14900 0.20800
v 0.23406 0.08351 0.20800
v 0.19200 0.10100 0.19341
v 0.19200 0.10116 0.19320
v 0.19200 0.14900 0.19844
v 0.24800 0.10100 0.20800
v 0.24214 0.16314 0.20800
v 0.23333 0.08528 0.21300
v 0.23068 0.08638 0.21830
v 0.22800 0.10100 0.22800
v 0.21954 0.09168 0.22414
v 0.22636 0.08686 0.22214
v 0.22800 0.08686 0.22214
v 0.22636 0.08686 0.22214
v 0.22800 0.08638 0.22098
v 0.24214 0.10100 0.22214
v 0.21956 0.10100 0.22800
v 0.21302 0.09398 0.22509
v 0.22068 0.10191 0.22800
v 0.22485 0.11013 0.22800
v 0.22800 0.13954 0.22800
v 0.24214 0.14900 0.22214
v 0.22800 0.14900 0.22800
v 0.22800 0.16314 0.22214
v 0.22800 0.15439 0.22577
v 0.21200 0.16900 -0.16800
v 0.22800 0.16900 -0.16800
v 0.20300 0.16527 0.20280
v 0.22800 0.16900 0.20800
v 0.19786 0.16314 0.20223
v 0.21200 0.16900 0.20766
v 0.21279 0.16900 0.20800
v 0.22068 0.16774 0.21104
v 0.22561 0.16314 0.22214
v 0.22561 0.16314 0.22214
vn -0.6887 -0.6887 -0.2265
vn -0.9641 -0.1877 -0.1877
vn -0.6887 -0.2265 -0.6887
vn -0.2265 -0.6887 -0.6887
vn -0.1877 -0.9641 -0.1877
vn -0.1877 -0.1877 -0.9641
vn -0.6887 0.2265 -0.6887
vn -0.9641 0.1877 -0.1877
vn -0.1877 0.1877 -0.9641
vn -0.6887 -0.6887 0.2265
vn -0.9641 -0.1877 0.1877
vn -0.6887 0.6887 -0.2265
vn -0.2265 0.6887 -0.6887
vn -0.1877 0.9641 -0.1877
vn -0.9239 0.3827 -0.0000
vn -0.9239 0.3827 -0.0000
vn -0.9239 0.3827 0.0000
vn -0.9239 0.3827 -0.0000
vn -0.3827 0.9239 0.0000
vn -0.3827 0.9239 -0.0000
vn -0.2044 0.9789 0.0000
vn 0.0000 1.0000 0.0000
vn -0.9239 0.3827 -0.0000
vn 0.2265 -0.6887 -0.6887
vn 0.1877 0.1877 -0.9641
vn 0.1877 -0.9641 -0.1877
vn -0.1877 -0.9641 0.1877
vn 0.1877 0.9641 -0.1877
vn 0.0000 1.0000 0.0000
vn 0.0000 1.0000 0.0000
vn 0.0000 1.0000 0.0000
vn -0.9641 0.1877 0.1877
vn -0.6887 -0.2265 0.6887
vn -0.2265 -0.6887 0.6887
vn -0.1877 -0.1877 0.9641
vn -0.6887 0.2265 0.6887
vn -0.1877 0.1877 0.9641
vn -0.9007 0.3731 0.2228
vn -0.7831 0.4397 0.4397
vn -0.5774 0.5774 0.5774
vn -0.5774 0.5774 0.5774
vn -0.5353 0.6534 0.5353
vn -0.2265 0.6887 0.6887
vn -0.3574 0.8629 0.3574
vn -0.2681 0.8900 0.3687
vn 0.0000 0.9239 0.3827
vn -0.0000 0.3827 0.9239
vn 0.0000 0.3827 0.9239
vn 0.0000 0.3827 0.9239
vn 0.2265 -0.6887 0.6887
vn 0.1877 0.1877 0.9641
vn 0.0000 1.0000 0.0000
vn 0.0000 1.0000 0.0000
vn -0.0000 0.3827 0.9239
vn 0.1877 -0.1877 -0.9641
vn 0.2265 0.6887 -0.6887
vn 0.0000 1.0000 0.0000
vn 0.0000 1.0000 0.0000
vn 0.0000 1.0000 0.0000
vn 0.6887 -0.2265 -0.6887
vn 0.6887 -0.6887 -0.2265
vn 0.9641 -0.1877 -0.1877
vn 0.6887 0.2265 -0.6887
vn 0.9641 0.1877 -0.1877
vn 0.6887 -0.6887 0.2265
vn 0.9641 -0.1877 0.1877
vn 0.6887 0.6887 -0.2265
vn 0.3827 0.9239 -0.0000
vn 0.3827 0.9239 0.0000
vn 0.9239 0.3827 -0.0000
vn 0.9239 0.3827 0.0000
vn 0.9239 0.3827 0.0000
vn 0.9239 0.3827 -0.0000
vn 0.0000 1.0000 0.0000
vn 0.2044 0.9789 -0.0000
vn 0.9641 0.1877 0.1877
vn 0.1877 -0.9641 0.1877
vn 0.1877 -0.1877 0.9641
vn 0.6887 -0.2265 0.6887
vn 0.6887 0.2265 0.6887
vn 0.9239 0.3827 -0.0000
vn 0.2265 0.6887 0.6887
vn 0.3574 0.8629 0.3574
vn 0.2681 0.8900 0.3687
vn 0.0000 0.9239 0.3827
vn 0.5353 0.6534 0.5353
vn 0.0000 0.3827 0.9239
vn 0.0000 0.3827 0.9239
vn 0.9007 0.3731 0.2228
vn 0.7831 0.4397 0.4397
vn 0.5774 0.5774 0.5774
vn 0.5774 0.5774 0.5774
vn -0.2265 -0.8435 0.4870
vn -0.5774 -0.7071 0.4082
vn -0.5421 -0.7605 0.3574
vn -0.1871 -0.9739 0.1282
vn -0.6974 -0.6206 0.3583
vn -0.6887 -0.3971 0.6066
vn -0.9147 -0.2341 0.3295
vn -0.5774 -0.7071 0.4082
vn -0.9358 -0.0913 0.3406
vn -0.5774 -0.7071 0.4082
vn -0.5774 -0.7071 0.4082
vn -0.1877 -0.4308 0.8827
vn 0.1871 -0.9739 0.1282
vn 0.0000 -0.7934 -0.6088
vn 0.0000 -0.7934 -0.6088
vn 0.0000 -0.7934 -0.6088
vn -0.0000 -0.7934 -0.6088
vn -0.0000 -0.7934 -0.6088
vn -0.0000 0.0654 -0.9979
vn 0.0000 0.0654 -0.9979
vn 0.0000 -0.1305 -0.9914
vn 0.1877 -0.4308 0.8827
vn -0.9641 0.1327 0.2299
vn -0.1877 -0.0682 0.9799
vn -1.0000 0.0000 0.0000
vn -0.9964 0.0219 -0.0816
vn -0.9239 0.0990 -0.3696
vn -0.9641 0.2299 -0.1327
vn -0.3827 0.2391 -0.8924
vn -0.6887 0.3971 -0.6066
vn -0.3827 0.2391 -0.8924
vn -0.9239 0.0990 -0.3696
vn -0.1877 0.4308 -0.8827
vn -0.3827 0.2391 -0.8924
vn -0.1400 0.2563 -0.9564
vn -0.6887 0.0405 0.7239
vn -0.6887 0.6066 0.3971
vn -0.6887 0.7239 -0.0405
vn -0.2265 0.8435 -0.4870
vn -0.2265 0.4870 0.8435
vn -0.1877 0.9799 0.0682
vn -0.1877 0.8827 0.4308
vn -0.0000 0.2588 -0.9659
vn 0.0000 0.2588 -0.9659
vn 0.1877 0.4308 -0.8827
vn 0.1877 -0.0682 0.9799
vn 0.1877 0.9799 0.0682
vn 0.1877 0.8827 0.4308
vn 0.2265 -0.8435 0.4870
vn -0.0000 -0.7934 -0.6088
vn 0.0000 -0.1305 -0.9914
vn 0.0000 0.2588 -0.9659
vn -0.0000 0.2588 -0.9659
vn 0.1400 0.2563 -0.9564
vn 0.5421 -0.7605 0.3574
vn 0.5774 -0.7071 0.4082
vn 0.5774 -0.7071 0.4082
vn 0.5774 -0.7071 0.4082
vn 0.5774 -0.7071 0.4082
vn 0.6887 -0.3971 0.6066
vn 0.6974 -0.6206 0.3583
vn 0.9147 -0.2341 0.3295
vn 0.9358 -0.0913 0.3406
vn 0.2265 0.8435 -0.4870
vn 0.2265 0.4870 0.8435
vn 0.6887 0.0405 0.7239
vn 0.9641 0.1327 0.2299
vn 0.3827 0.2391 -0.8924
vn 0.6887 0.3971 -0.6066
vn 0.3827 0.2391 -0.8924
vn 0.9239 0.0990 -0.3696
vn 0.9964 0.0219 -0.0816
vn 1.0000 0.0000 0.0000
vn 0.3827 0.2391 -0.8924
vn 0.9239 0.0990 -0.3696
vn 0.9641 0.2299 -0.1327
vn 0.6887 0.7239 -0.0405
vn 0.6887 0.6066 0.3971
vn -0.6887 -0.6887 -0.2265
vn -0.5353 -0.6534 -0.5353
vn -0.3763 -0.9085 -0.1817
vn -0.6887 -0.2265 -0.6887
vn -0.4992 -0.4992 -0.7083
vn -0.9641 -0.1877 -0.1877
vn -0.3574 -0.3574 -0.8629
vn -0.2340 -0.3721 -0.8982
vn -0.1877 -0.1877 -0.9641
vn -0.6887 0.2265 -0.6887
vn -0.0000 -0.3827 -0.9239
vn 0.1877 -0.1877 -0.9641
vn 0.1877 0.1877 -0.9641
vn -0.1877 0.1877 -0.9641
vn -0.9641 0.1877 -0.1877
vn -0.6887 0.6887 -0.2265
vn -0.2265 0.6887 -0.6887
vn 0.2265 0.6887 -0.6887
vn 0.1898 -0.3757 -0.9071
vn 0.4350 -0.4350 -0.7884
vn 0.6887 -0.2265 -0.6887
vn 0.7884 -0.4350 -0.4350
vn 0.9641 -0.1877 -0.1877
vn 0.9071 -0.3757 -0.1898
vn 0.6887 0.2265 -0.6887
vn 0.6887 0.6887 -0.2265
vn 0.9641 0.1877 -0.1877
vn -0.6887 -0.6887 0.2265
vn -0.3763 -0.9085 0.1817
vn -0.9641 -0.1877 0.1877
vn -0.6887 0.6887 0.2265
vn 0.9521 -0.3059 0.0000
vn 1.0000 0.0000 0.0000
vn 0.9740 0.2265 0.0000
vn -0.9641 0.1877 0.1877
vn 0.9239 -0.3827 0.0000
vn 1.0000 0.0000 0.0000
vn 0.9239 0.3827 0.0000
vn -0.3574 -0.8629 0.3574
vn -0.3574 -0.8629 0.3574
vn -0.2265 -0.6887 0.6887
vn -0.6887 -0.2265 0.6887
vn -0.2585 -0.8925 0.3697
vn 0.0000 -0.9239 0.3827
vn -0.0000 -0.3827 0.9239
vn -0.1877 -0.1877 0.9641
vn 0.0000 -0.3827 0.9239
vn -0.6887 0.2265 0.6887
vn -0.3710 0.0000 0.9286
vn 0.0000 -0.2984 0.9544
vn 0.0000 0.0000 1.0000
vn 0.0000 -0.3827 0.9239
vn 0.0000 0.0000 1.0000
vn -0.3769 0.1728 0.9100
vn -0.2265 0.6887 0.6887
vn -0.3328 0.3609 0.8712
vn -0.1877 0.9641 -0.1877
vn 0.1877 0.9641 -0.1877
vn 0.1400 0.9902 0.0000
vn 0.3827 0.9239 0.0000
vn -0.1877 0.9641 0.1877
vn 0.3827 0.9239 0.0000
vn 0.0000 0.9239 0.3827
vn 0.0000 0.9988 0.0488
vn 0.0000 0.3827 0.9239
vn 0.0000 0.9239 0.3827
vn 0.6887 -0.6887 -0.2265
vn 0.3763 -0.9085 -0.1817
vn 0.5353 -0.6534 -0.5353
vn 0.6887 -0.2265 -0.6887
vn 0.4992 -0.4992 -0.7083
vn -0.6887 -0.2265 -0.6887
vn -0.4350 -0.4350 -0.7884
vn -0.7884 -0.4350 -0.4350
vn -0.9641 -0.1877 -0.1877
vn -0.9071 -0.3757 -0.1898
vn -0.6887 0.2265 -0.6887
vn -0.1877 -0.1877 -0.9641
vn -0.1898 -0.3757 -0.9071
vn 0.0000 -0.3827 -0.9239
vn -0.9641 0.1877 -0.1877
vn -0.6887 0.6887 -0.2265
vn -0.1877 0.1877 -0.9641
vn -0.2265 0.6887 -0.6887
vn 0.1877 -0.1877 -0.9641
vn 0.2340 -0.3721 -0.8982
vn 0.1877 0.1877 -0.9641
vn 0.3574 -0.3574 -0.8629
vn 0.9641 -0.1877 -0.1877
vn 0.9641 0.1877 -0.1877
vn 0.2265 0.6887 -0.6887
vn 0.6887 0.2265 -0.6887
vn 0.6887 0.6887 -0.2265
vn 0.6887 -0.6887 0.2265
vn -0.9239 -0.3827 0.0000
vn -1.0000 0.0000 0.0000
vn -0.9239 0.3827 -0.0000
vn 0.9641 0.1877 0.1877
vn 0.3763 -0.9085 0.1817
vn -0.9521 -0.3059 0.0000
vn -1.0000 0.0000 0.0000
vn -0.9740 0.2265 0.0000
vn 0.9641 -0.1877 0.1877
vn 0.6887 0.6887 0.2265
vn 0.3574 -0.8629 0.3574
vn 0.3574 -0.8629 0.3574
vn 0.1877 -0.1877 0.9641
vn 0.0000 -0.3827 0.9239
vn 0.0000 -0.3827 0.9239
vn 0.2265 -0.6887 0.6887
vn 0.0000 -0.9239 0.3827
vn 0.2585 -0.8925 0.3697
vn 0.6887 -0.2265 0.6887
vn 0.0000 -0.2984 0.9544
vn 0.0000 -0.3827 0.9239
vn 0.0000 0.0000 1.0000
vn 0.0000 0.0000 1.0000
vn 0.3710 0.0000 0.9286
vn 0.6887 0.2265 0.6887
vn 0.3769 0.1728 0.9100
vn 0.2265 0.6887 0.6887
vn 0.3328 0.3609 0.8712
vn -0.1877 0.9641 -0.1877
vn 0.1877 0.9641 -0.1877
vn -0.3827 0.9239 0.0000
vn 0.1877 0.9641 0.1877
vn -0.3827 0.9239 0.0000
vn -0.1400 0.9902 0.0000
vn 0.0000 0.9988 0.0488
vn -0.0000 0.9239 0.3827
vn 0.0000 0.9239 0.3827
vn 0.0000 0.3827 0.9239
f 1//1 2//2 3//3
f 1//1 3//3 4//4
f 1//1 4//4 5//5
f 4//4 3//3 6//6
f 3//3 2//2 7//7
f 3//3 7//7 6//6
f 2//2 8//8 7//7
f 6//6 7//7 9//9
f 1//1 10//10 2//2
f 1//1 5//5 10//10
f 2//2 11//11 8//8
f 7//7 8//8 12//12
f 7//7 12//12 13//13
f 7//7 13//13 9//9
f 12//12 14//14 13//13
f 8//8 15//15 12//12
f 8//8 16//16 17//17
f 8//8 17//17 18//18
f 8//8 18//18 15//15
f 12//12 19//19 20//20
f 12//12 20//20 14//14
f 14//14 20//20 21//21
f 14//14 21//21 22//22
f 8//8 23//23 16//16
f 5//5 4//4 24//24
f 4//4 6//6 24//24
f 6//6 9//9 25//25
f 5//5 26//26 27//27
f 9//9 13//13 25//25
f 13//13 14//14 28//28
f 14//14 22//22 28//28
f 28//28 22//22 29//29
f 28//28 29//29 30//30
f 28//28 30//30 31//31
f 2//2 10//10 11//11
f 5//5 27//27 10//10
f 11//11 32//32 8//8
f 10//10 33//33 11//11
f 10//10 34//34 33//33
f 10//10 27//27 34//34
f 34//34 35//35 33//33
f 11//11 33//33 36//36
f 33//33 35//35 36//36
f 11//11 36//36 32//32
f 35//35 37//37 36//36
f 8//8 32//32 23//23
f 32//32 38//38 23//23
f 32//32 39//39 38//38
f 32//32 36//36 39//39
f 36//36 40//40 39//39
f 36//36 41//41 40//40
f 36//36 42//42 41//41
f 36//36 43//43 42//42
f 36//36 37//37 43//43
f 43//43 44//44 42//42
f 43//43 45//45 44//44
f 43//43 46//46 45//45
f 37//37 47//47 43//43
f 37//37 48//48 47//47
f 37//37 49//49 48//48
f 27//27 50//50 34//34
f 34//34 50//50 35//35
f 35//35 51//51 37//37
f 52//52 53//53 31//31
f 37//37 54//54 49//49
f 5//5 24//24 26//26
f 6//6 55//55 24//24
f 6//6 25//25 55//55
f 13//13 56//56 25//25
f 13//13 28//28 56//56
f 28//28 31//31 57//57
f 58//58 57//57 31//31
f 59//59 58//58 31//31
f 59//59 31//31 53//53
f 24//24 60//60 61//61
f 26//26 24//24 61//61
f 24//24 55//55 60//60
f 61//61 60//60 62//62
f 55//55 63//63 60//60
f 60//60 63//63 62//62
f 55//55 25//25 63//63
f 62//62 63//63 64//64
f 26//26 61//61 65//65
f 61//61 62//62 65//65
f 62//62 64//64 66//66
f 25//25 56//56 63//63
f 63//63 56//56 67//67
f 56//56 28//28 67//67
f 63//63 67//67 64//64
f 67//67 68//68 69//69
f 64//64 67//67 70//70
f 64//64 71//71 72//72
f 64//64 73//73 71//71
f 64//64 70//70 73//73
f 28//28 57//57 74//74
f 28//28 74//74 75//75
f 28//28 75//75 67//67
f 67//67 75//75 68//68
f 64//64 72//72 76//76
f 27//27 26//26 77//77
f 27//27 77//77 50//50
f 35//35 50//50 78//78
f 35//35 78//78 51//51
f 37//37 51//51 54//54
f 26//26 65//65 77//77
f 62//62 66//66 65//65
f 66//66 64//64 76//76
f 77//77 65//65 50//50
f 50//50 65//65 79//79
f 50//50 79//79 78//78
f 65//65 66//66 79//79
f 78//78 79//79 51//51
f 66//66 76//76 79//79
f 79//79 80//80 51//51
f 79//79 76//76 80//80
f 76//76 72//72 81//81
f 82//82 83//83 84//84
f 82//82 84//84 85//85
f 82//82 86//86 83//83
f 51//51 87//87 54//54
f 51//51 88//88 87//87
f 51//51 82//82 88//88
f 76//76 89//89 90//90
f 76//76 81//81 89//89
f 80//80 86//86 82//82
f 80//80 90//90 91//91
f 80//80 92//92 86//86
f 80//80 91//91 92//92
f 51//51 80//80 82//82
f 76//76 90//90 80//80
f 93//93 94//94 95//95
f 93//93 95//95 96//96
f 97//97 98//98 99//99
f 97//97 100//100 98//98
f 99//99 98//98 101//101
f 100//100 102//102 103//103
f 100//100 103//103 94//94
f 100//100 94//94 93//93
f 100//100 93//93 98//98
f 98//98 93//93 104//104
f 93//93 96//96 105//105
f 106//106 107//107 108//108
f 106//106 109//109 110//110
f 111//111 112//112 113//113
f 93//93 114//114 104//104
f 98//98 115//115 101//101
f 98//98 104//104 116//116
f 117//117 115//115 118//118
f 119//119 118//118 120//120
f 121//121 122//122 123//123
f 119//119 122//122 124//124
f 123//123 125//125 126//126
f 126//126 125//125 127//127
f 101//101 115//115 117//117
f 123//123 122//122 125//125
f 98//98 128//128 115//115
f 119//119 120//120 122//122
f 118//118 115//115 120//120
f 98//98 116//116 128//128
f 120//120 115//115 129//129
f 120//120 130//130 122//122
f 115//115 128//128 129//129
f 120//120 129//129 130//130
f 122//122 130//130 131//131
f 122//122 131//131 125//125
f 128//128 132//132 129//129
f 128//128 116//116 132//132
f 130//130 129//129 133//133
f 130//130 133//133 131//131
f 129//129 134//134 133//133
f 129//129 132//132 134//134
f 104//104 114//114 116//116
f 135//135 136//136 137//137
f 136//136 127//127 137//137
f 111//111 135//135 137//137
f 127//127 125//125 137//137
f 125//125 131//131 137//137
f 116//116 138//138 132//132
f 131//131 133//133 139//139
f 133//133 134//134 140//140
f 132//132 140//140 134//134
f 93//93 105//105 141//141
f 109//109 142//142 110//110
f 106//106 108//108 109//109
f 113//113 112//112 143//143
f 93//93 141//141 114//114
f 111//111 144//144 112//112
f 111//111 145//145 144//144
f 111//111 146//146 145//145
f 141//141 105//105 147//147
f 141//141 147//147 148//148
f 141//141 148//148 149//149
f 149//149 148//148 150//150
f 149//149 150//150 151//151
f 141//141 152//152 114//114
f 141//141 149//149 152//152
f 149//149 153//153 152//152
f 153//153 154//154 152//152
f 152//152 154//154 155//155
f 111//111 137//137 146//146
f 116//116 114//114 138//138
f 131//131 156//156 137//137
f 131//131 139//139 156//156
f 132//132 138//138 157//157
f 133//133 140//140 139//139
f 132//132 157//157 140//140
f 114//114 152//152 158//158
f 152//152 155//155 159//159
f 146//146 137//137 160//160
f 160//160 161//161 162//162
f 163//163 161//161 164//164
f 165//165 164//164 159//159
f 162//162 161//161 166//166
f 163//163 167//167 161//161
f 155//155 165//165 159//159
f 160//160 137//137 161//161
f 114//114 158//158 138//138
f 152//152 159//159 158//158
f 164//164 161//161 168//168
f 164//164 168//168 159//159
f 137//137 156//156 161//161
f 156//156 169//169 161//161
f 138//138 158//158 157//157
f 157//157 158//158 170//170
f 156//156 139//139 169//169
f 139//139 140//140 169//169
f 140//140 170//170 169//169
f 157//157 170//170 140//140
f 168//168 161//161 169//169
f 168//168 169//169 159//159
f 159//159 170//170 158//158
f 159//159 169//169 170//170
f 171//171 172//172 173//173
f 174//174 175//175 172//172
f 171//171 174//174 172//172
f 171//171 176//176 174//174
f 174//174 177//177 175//175
f 174//174 178//178 177//177
f 174//174 179//179 178//178
f 174//174 176//176 180//180
f 174//174 180//180 179//179
f 179//179 181//181 178//178
f 179//179 182//182 181//181
f 179//179 183//183 182//182
f 179//179 180//180 184//184
f 176//176 185//185 180//180
f 180//180 185//185 186//186
f 180//180 186//186 187//187
f 180//180 187//187 184//184
f 179//179 184//184 183//183
f 184//184 187//187 183//183
f 187//187 188//188 183//183
f 182//182 189//189 181//181
f 182//182 190//190 189//189
f 182//182 191//191 190//190
f 182//182 183//183 191//191
f 191//191 192//192 190//190
f 191//191 193//193 192//192
f 193//193 194//194 192//192
f 191//191 195//195 193//193
f 191//191 183//183 195//195
f 183//183 188//188 195//195
f 188//188 196//196 195//195
f 193//193 195//195 197//197
f 195//195 196//196 197//197
f 171//171 198//198 176//176
f 171//171 173//173 199//199
f 176//176 200//200 185//185
f 185//185 201//201 186//186
f 193//193 202//202 194//194
f 193//193 197//197 203//203
f 197//197 196//196 204//204
f 171//171 199//199 198//198
f 176//176 198//198 200//200
f 185//185 200//200 205//205
f 185//185 205//205 201//201
f 202//202 206//206 194//194
f 193//193 207//207 202//202
f 193//193 203//203 207//207
f 197//197 204//204 203//203
f 196//196 208//208 204//204
f 198//198 199//199 209//209
f 198//198 209//209 210//210
f 198//198 211//211 212//212
f 198//198 210//210 211//211
f 211//211 210//210 213//213
f 211//211 213//213 214//214
f 211//211 215//215 216//216
f 216//216 215//215 217//217
f 198//198 212//212 200//200
f 212//212 211//211 216//216
f 200//200 212//212 218//218
f 212//212 216//216 219//219
f 216//216 220//220 221//221
f 216//216 217//217 222//222
f 216//216 222//222 220//220
f 216//216 221//221 223//223
f 216//216 223//223 219//219
f 200//200 218//218 205//205
f 205//205 218//218 201//201
f 212//212 224//224 218//218
f 212//212 219//219 224//224
f 218//218 225//225 201//201
f 218//218 226//226 225//225
f 218//218 224//224 226//226
f 186//186 227//227 187//187
f 187//187 227//227 188//188
f 188//188 227//227 228//228
f 188//188 228//228 196//196
f 186//186 201//201 227//227
f 227//227 229//229 228//228
f 196//196 228//228 230//230
f 227//227 201//201 231//231
f 227//227 231//231 229//229
f 228//228 229//229 230//230
f 196//196 230//230 232//232
f 201//201 225//225 231//231
f 225//225 233//233 231//231
f 231//231 233//233 234//234
f 231//231 234//234 229//229
f 225//225 226//226 235//235
f 225//225 236//236 233//233
f 237//237 238//238 239//239
f 240//240 239//239 241//241
f 237//237 239//239 240//240
f 242//242 243//243 244//244
f 242//242 244//244 245//245
f 245//245 244//244 246//246
f 242//242 245//245 247//247
f 248//248 249//249 243//243
f 248//248 250//250 249//249
f 242//242 248//248 243//243
f 242//242 247//247 248//248
f 245//245 251//251 247//247
f 247//247 251//251 252//252
f 248//248 247//247 253//253
f 247//247 252//252 254//254
f 247//247 254//254 253//253
f 248//248 255//255 250//250
f 255//255 256//256 250//250
f 248//248 257//257 255//255
f 240//240 258//258 256//256
f 240//240 241//241 258//258
f 255//255 240//240 256//256
f 237//237 240//240 259//259
f 255//255 257//257 240//240
f 240//240 260//260 259//259
f 248//248 253//253 257//257
f 253//253 254//254 257//257
f 254//254 261//261 257//257
f 240//240 257//257 262//262
f 240//240 262//262 260//260
f 257//257 261//261 262//262
f 261//261 263//263 262//262
f 262//262 263//263 260//260
f 237//237 264//264 238//238
f 237//237 259//259 264//264
f 245//245 246//246 265//265
f 245//245 266//266 251//251
f 251//251 267//267 252//252
f 259//259 260//260 268//268
f 260//260 263//263 268//268
f 264//264 269//269 238//238
f 245//245 270//270 271//271
f 245//245 265//265 270//270
f 245//245 271//271 266//266
f 251//251 266//266 272//272
f 251//251 272//272 267//267
f 259//259 273//273 264//264
f 259//259 268//268 273//273
f 263//263 274//274 268//268
f 264//264 275//275 269//269
f 264//264 276//276 275//275
f 277//277 278//278 279//279
f 280//280 281//281 282//282
f 280//280 282//282 276//276
f 280//280 277//277 279//279
f 280//280 276//276 264//264
f 280//280 264//264 283//283
f 264//264 273//273 283//283
f 273//273 268//268 283//283
f 284//284 285//285 278//278
f 284//284 278//278 277//277
f 284//284 277//277 286//286
f 286//286 277//277 287//287
f 277//277 288//288 287//287
f 280//280 283//283 277//277
f 283//283 289//289 277//277
f 268//268 274//274 289//289
f 277//277 289//289 288//288
f 283//283 268//268 289//289
f 288//288 289//289 290//290
f 291//291 292//292 289//289
f 291//291 289//289 274//274
f 289//289 292//292 290//290
f 252//252 293//293 254//254
f 254//254 293//293 261//261
f 261//261 293//293 294//294
f 261//261 294//294 263//263
f 252//252 295//295 293//293
f 293//293 296//296 294//294
f 263//263 294//294 296//296
f 252//252 297//297 295//295
f 293//293 295//295 298//298
f 293//293 298//298 296//296
f 263//263 296//296 274//274
f 298//298 299//299 296//296
f 299//299 300//300 296//296
f 301//301 296//296 300//300
f 291//291 274//274 296//296
f 302//302 292//292 291//291
f 301//301 291//291 296//296
