v -0.23068 -0.14168 -0.21300
v -0.23068 -0.12400 -0.23068
v -0.21300 -0.14168 -0.23068
v -0.23800 -0.12400 -0.21300
v -0.21300 -0.14900 -0.21300
v -0.21300 -0.12400 -0.23800
v -0.23068 0.12400 -0.23068
v -0.23800 0.12400 -0.21300
v -0.23068 -0.14168 0.21300
v -0.23800 -0.12400 0.21300
v -0.21300 0.12400 -0.23800
v -0.23068 0.14168 -0.21300
v -0.21300 0.14168 -0.23068
v -0.23800 0.12400 0.21300
v 0.21300 -0.14168 -0.23068
v 0.21300 -0.12400 -0.23800
v 0.21300 -0.14900 -0.21300
v -0.21300 -0.14900 0.21300
v 0.21300 0.12400 -0.23800
v -0.21300 -0.14168 0.23068
v -0.23068 -0.12400 0.23068
v -0.21300 -0.12400 0.23800
v -0.23068 0.12400 0.23068
v -0.23068 0.14168 0.21300
v -0.21300 0.12400 0.23800
v -0.21300 0.14168 0.23068
v -0.20648 0.14168 0.23068
v -0.20339 0.13959 0.23154
v -0.20300 0.13945 0.23160
v 0.21300 -0.14168 0.23068
v 0.21300 0.12400 0.23800
v -0.21300 0.14900 -0.21300
v -0.21300 0.14900 0.19704
v 0.21300 0.14168 -0.23068
v -0.22174 0.14538 0.20884
v -0.22068 0.14582 0.20623
v -0.20674 0.14900 0.19149
v -0.20300 0.14900 0.19002
v -0.22195 0.14529 0.21300
v -0.22178 0.14462 0.21479
v -0.22068 0.14408 0.21719
v -0.21300 0.14373 0.22573
v -0.20648 0.14168 0.23068
v 0.20300 0.14900 0.19002
v 0.23068 -0.14168 -0.21300
v 0.23068 -0.12400 -0.23068
v 0.23800 -0.12400 -0.21300
v 0.23068 0.12400 -0.23068
v 0.23800 0.12400 -0.21300
v 0.23068 -0.14168 0.21300
v 0.23800 -0.12400 0.21300
v 0.23068 0.14168 -0.21300
v 0.23068 0.14168 0.21300
v 0.21300 -0.14900 0.21300
v 0.21300 -0.12400 0.23800
v 0.20300 0.13945 0.23160
v 0.23068 -0.12400 0.23068
v 0.23800 0.12400 0.21300
v 0.23068 0.12400 0.23068
v 0.20339 0.13959 0.23154
v 0.20648 0.14168 0.23068
v 0.21300 0.14168 0.23068
v 0.21300 0.14900 -0.21300
v 0.21300 0.14900 0.19704
v 0.20674 0.14900 0.19149
v 0.22068 0.14582 0.20623
v 0.22174 0.14538 0.20884
v 0.22195 0.14529 0.21300
v 0.22068 0.14408 0.21719
v 0.21300 0.14373 0.22573
v 0.20648 0.14168 0.23068
v 0.22178 0.14462 0.21479
v -0.20300 0.13954 0.23193
v -0.20339 0.13959 0.23154
v -0.20300 0.13945 0.23160
v 0.20300 0.13954 0.23193
v -0.22800 0.16034 0.21094
v -0.22068 0.14582 0.20623
v -0.22174 0.14538 0.20884
v -0.22195 0.14529 0.21300
v -0.22068 0.16280 0.19343
v -0.20674 0.14900 0.19149
v -0.21300 0.14900 0.19704
v -0.20300 0.16382 0.18618
v -0.20300 0.14900 0.19002
v -0.22800 0.15950 0.21688
v -0.22178 0.14462 0.21479
v -0.22068 0.14408 0.21719
v -0.22068 0.15704 0.23439
v -0.21300 0.14373 0.22573
v -0.20648 0.14168 0.23068
v -0.20300 0.15603 0.24164
v -0.22068 0.40839 0.22795
v -0.22800 0.40509 0.25140
v -0.20300 0.40161 0.27615
v -0.20300 0.40941 0.22070
v -0.22068 0.40263 0.26890
v -0.22800 0.40593 0.24545
v -0.20300 0.42589 0.23041
v -0.22068 0.42343 0.24791
v -0.20300 0.43068 0.24893
v -0.22068 0.42260 0.25386
v -0.20300 0.42014 0.27136
v -0.20300 0.42985 0.25488
v 0.20300 0.14900 0.19002
v 0.20300 0.15603 0.24164
v 0.20300 0.40941 0.22070
v 0.20300 0.43068 0.24893
v 0.20300 0.40161 0.27615
v 0.20300 0.42985 0.25488
v 0.20300 0.13945 0.23160
v 0.20339 0.13959 0.23154
v 0.20648 0.14168 0.23068
v 0.20300 0.16382 0.18618
v 0.20300 0.42589 0.23041
v 0.20300 0.42014 0.27136
v 0.20674 0.14900 0.19149
v 0.22068 0.16280 0.19343
v 0.21300 0.14900 0.19704
v 0.22068 0.14582 0.20623
v 0.22800 0.16034 0.21094
v 0.22174 0.14538 0.20884
v 0.22195 0.14529 0.21300
v 0.22068 0.15704 0.23439
v 0.21300 0.14373 0.22573
v 0.22068 0.14408 0.21719
v 0.22800 0.15950 0.21688
v 0.22178 0.14462 0.21479
v 0.22068 0.40839 0.22795
v 0.22800 0.40509 0.25140
v 0.22068 0.40263 0.26890
v 0.22800 0.40593 0.24545
v 0.22068 0.42343 0.24791
v 0.22068 0.42260 0.25386
vn -0.6887 -0.6887 -0.2265
vn -0.6887 -0.2265 -0.6887
vn -0.2265 -0.6887 -0.6887
vn -0.9641 -0.1877 -0.1877
vn -0.1877 -0.9641 -0.1877
vn -0.1877 -0.1877 -0.9641
vn -0.6887 0.2265 -0.6887
vn -0.9641 0.1877 -0.1877
vn -0.6887 -0.6887 0.2265
vn -0.9641 -0.1877 0.1877
vn -0.1877 0.1877 -0.9641
vn -0.6887 0.6887 -0.2265
vn -0.2265 0.6887 -0.6887
vn -0.9641 0.1877 0.1877
vn 0.2265 -0.6887 -0.6887
vn 0.1877 -0.1877 -0.9641
vn 0.1877 -0.9641 -0.1877
vn -0.1877 -0.9641 0.1877
vn 0.1877 0.1877 -0.9641
vn -0.2265 -0.6887 0.6887
vn -0.6887 -0.2265 0.6887
vn -0.1877 -0.1877 0.9641
vn -0.6887 0.2265 0.6887
vn -0.6887 0.6887 0.2265
vn -0.1877 0.1877 0.9641
vn -0.2265 0.6887 0.6887
vn -0.0000 0.3827 0.9239
vn 0.0000 0.3827 0.9239
vn 0.0000 0.3827 0.9239
vn 0.2265 -0.6887 0.6887
vn 0.1877 0.1877 0.9641
vn -0.1877 0.9641 -0.1877
vn -0.2874 0.9578 -0.0000
vn 0.2265 0.6887 -0.6887
vn -0.3827 0.9239 0.0000
vn -0.3827 0.9239 -0.0000
vn 0.0000 1.0000 0.0000
vn 0.0000 1.0000 0.0000
vn -0.3767 0.9095 0.1757
vn -0.3574 0.8629 0.3574
vn -0.3574 0.8629 0.3574
vn -0.2631 0.8913 0.3692
vn 0.0000 0.9239 0.3827
vn 0.0000 1.0000 0.0000
vn 0.6887 -0.6887 -0.2265
vn 0.6887 -0.2265 -0.6887
vn 0.9641 -0.1877 -0.1877
vn 0.6887 0.2265 -0.6887
vn 0.9641 0.1877 -0.1877
vn 0.6887 -0.6887 0.2265
vn 0.9641 -0.1877 0.1877
vn 0.6887 0.6887 -0.2265
vn 0.6887 0.6887 0.2265
vn 0.1877 -0.9641 0.1877
vn 0.1877 -0.1877 0.9641
vn -0.0000 0.3827 0.9239
vn 0.6887 -0.2265 0.6887
vn 0.9641 0.1877 0.1877
vn 0.6887 0.2265 0.6887
vn -0.0000 0.3827 0.9239
vn 0.0000 0.3827 0.9239
vn 0.2265 0.6887 0.6887
vn 0.1877 0.9641 -0.1877
vn 0.2874 0.9578 0.0000
vn 0.0000 1.0000 0.0000
vn 0.3827 0.9239 -0.0000
vn 0.3827 0.9239 0.0000
vn 0.3767 0.9095 0.1757
vn 0.3574 0.8629 0.3574
vn 0.2631 0.8913 0.3692
vn 0.0000 0.9239 0.3827
vn 0.3574 0.8629 0.3574
vn -0.2265 -0.7779 0.5862
vn -0.5389 -0.7161 0.4436
vn -0.1846 -0.9515 0.2461
vn 0.2265 -0.7779 0.5862
vn -0.9641 -0.1597 -0.2120
vn -0.7995 -0.3615 -0.4797
vn -0.9059 -0.3443 -0.2464
vn -0.9239 -0.3790 -0.0533
vn -0.6887 -0.1285 -0.7135
vn -0.4281 -0.3131 -0.8478
vn -0.5774 -0.4914 -0.6521
vn -0.1877 -0.0517 -0.9809
vn -0.1869 -0.2460 -0.9511
vn -0.9641 -0.2120 0.1597
vn -0.9036 -0.3996 0.1544
vn -0.7914 -0.4882 0.3679
vn -0.6887 -0.3202 0.6505
vn -0.5774 -0.6521 0.4914
vn -0.5774 -0.6521 0.4914
vn -0.1877 -0.3200 0.9286
vn -0.6887 0.3202 -0.6505
vn -0.9641 0.1597 0.2120
vn -0.1877 0.0517 0.9809
vn -0.1877 0.3200 -0.9286
vn -0.6887 0.1285 0.7135
vn -0.9641 0.2120 -0.1597
vn -0.2265 0.7779 -0.5862
vn -0.6887 0.7135 -0.1285
vn -0.1877 0.9809 -0.0517
vn -0.6887 0.6505 0.3202
vn -0.2265 0.5862 0.7779
vn -0.1877 0.9286 0.3200
vn 0.1869 -0.2460 -0.9511
vn 0.1877 -0.3200 0.9286
vn 0.1877 0.3200 -0.9286
vn 0.1877 0.9809 -0.0517
vn 0.1877 0.0517 0.9809
vn 0.1877 0.9286 0.3200
vn 0.1846 -0.9515 0.2461
vn 0.5389 -0.7161 0.4436
vn 0.5774 -0.6521 0.4914
vn 0.1877 -0.0517 -0.9809
vn 0.2265 0.7779 -0.5862
vn 0.2265 0.5862 0.7779
vn 0.4281 -0.3131 -0.8478
vn 0.6887 -0.1285 -0.7135
vn 0.5774 -0.4914 -0.6521
vn 0.7995 -0.3615 -0.4797
vn 0.9641 -0.1597 -0.2120
vn 0.9059 -0.3443 -0.2464
vn 0.9239 -0.3790 -0.0533
vn 0.6887 -0.3202 0.6505
vn 0.5774 -0.6521 0.4914
vn 0.7914 -0.4882 0.3679
vn 0.9641 -0.2120 0.1597
vn 0.9036 -0.3996 0.1544
vn 0.6887 0.3202 -0.6505
vn 0.9641 0.1597 0.2120
vn 0.6887 0.1285 0.7135
vn 0.9641 0.2120 -0.1597
vn 0.6887 0.7135 -0.1285
vn 0.6887 0.6505 0.3202
f 1//1 2//2 3//3
f 1//1 4//4 2//2
f 1//1 3//3 5//5
f 3//3 2//2 6//6
f 2//2 7//7 6//6
f 2//2 4//4 8//8
f 1//1 5//5 9//9
f 1//1 10//10 4//4
f 2//2 8//8 7//7
f 6//6 7//7 11//11
f 7//7 12//12 13//13
f 7//7 8//8 12//12
f 7//7 13//13 11//11
f 4//4 14//14 8//8
f 8//8 14//14 12//12
f 3//3 15//15 5//5
f 3//3 6//6 15//15
f 6//6 11//11 16//16
f 5//5 17//17 18//18
f 11//11 13//13 19//19
f 1//1 9//9 10//10
f 5//5 18//18 9//9
f 4//4 10//10 14//14
f 9//9 20//20 21//21
f 9//9 21//21 10//10
f 9//9 18//18 20//20
f 20//20 22//22 21//21
f 10//10 21//21 23//23
f 21//21 22//22 23//23
f 12//12 14//14 24//24
f 10//10 23//23 14//14
f 22//22 25//25 23//23
f 14//14 23//23 24//24
f 23//23 26//26 24//24
f 23//23 25//25 26//26
f 25//25 27//27 26//26
f 25//25 28//28 27//27
f 25//25 29//29 28//28
f 18//18 30//30 20//20
f 20//20 30//30 22//22
f 22//22 31//31 25//25
f 25//25 31//31 29//29
f 12//12 32//32 13//13
f 12//12 33//33 32//32
f 13//13 32//32 34//34
f 12//12 24//24 35//35
f 12//12 35//35 36//36
f 12//12 36//36 33//33
f 32//32 33//33 37//37
f 32//32 37//37 38//38
f 24//24 39//39 35//35
f 24//24 40//40 39//39
f 24//24 41//41 40//40
f 24//24 26//26 41//41
f 26//26 42//42 41//41
f 26//26 43//43 42//42
f 32//32 38//38 44//44
f 5//5 15//15 17//17
f 6//6 16//16 15//15
f 11//11 19//19 16//16
f 13//13 34//34 19//19
f 15//15 45//45 17//17
f 15//15 16//16 46//46
f 15//15 46//46 45//45
f 45//45 46//46 47//47
f 16//16 48//48 46//46
f 46//46 49//49 47//47
f 17//17 45//45 50//50
f 45//45 47//47 50//50
f 47//47 49//49 51//51
f 16//16 19//19 48//48
f 46//46 48//48 49//49
f 19//19 34//34 48//48
f 48//48 34//34 52//52
f 48//48 52//52 49//49
f 49//49 52//52 53//53
f 18//18 17//17 54//54
f 18//18 54//54 30//30
f 22//22 30//30 55//55
f 22//22 55//55 31//31
f 31//31 56//56 29//29
f 17//17 50//50 54//54
f 47//47 51//51 50//50
f 54//54 50//50 30//30
f 30//30 57//57 55//55
f 30//30 50//50 57//57
f 50//50 51//51 57//57
f 55//55 57//57 31//31
f 51//51 58//58 57//57
f 51//51 49//49 58//58
f 49//49 53//53 58//58
f 57//57 58//58 59//59
f 57//57 59//59 31//31
f 31//31 60//60 56//56
f 31//31 61//61 60//60
f 31//31 62//62 61//61
f 31//31 59//59 62//62
f 59//59 53//53 62//62
f 58//58 53//53 59//59
f 32//32 63//63 34//34
f 32//32 44//44 63//63
f 34//34 63//63 52//52
f 63//63 64//64 52//52
f 63//63 44//44 65//65
f 63//63 65//65 64//64
f 52//52 64//64 66//66
f 52//52 66//66 67//67
f 52//52 67//67 53//53
f 53//53 67//67 68//68
f 62//62 69//69 70//70
f 62//62 53//53 69//69
f 62//62 70//70 71//71
f 53//53 68//68 72//72
f 53//53 72//72 69//69
f 73//73 74//74 75//75
f 73//73 75//75 76//76
f 77//77 78//78 79//79
f 77//77 79//79 80//80
f 81//81 82//82 83//83
f 84//84 82//82 81//81
f 81//81 78//78 77//77
f 81//81 83//83 78//78
f 84//84 85//85 82//82
f 86//86 80//80 87//87
f 86//86 87//87 88//88
f 77//77 80//80 86//86
f 89//89 88//88 90//90
f 86//86 88//88 89//89
f 89//89 90//90 91//91
f 89//89 91//91 74//74
f 73//73 89//89 74//74
f 73//73 92//92 89//89
f 81//81 77//77 93//93
f 84//84 81//81 93//93
f 77//77 86//86 94//94
f 86//86 89//89 94//94
f 89//89 92//92 95//95
f 84//84 93//93 96//96
f 89//89 97//97 94//94
f 89//89 95//95 97//97
f 77//77 94//94 98//98
f 77//77 98//98 93//93
f 96//96 93//93 99//99
f 93//93 98//98 100//100
f 93//93 100//100 99//99
f 99//99 100//100 101//101
f 98//98 94//94 102//102
f 94//94 97//97 102//102
f 97//97 95//95 103//103
f 98//98 102//102 100//100
f 100//100 102//102 101//101
f 102//102 103//103 104//104
f 101//101 102//102 104//104
f 102//102 97//97 103//103
f 84//84 105//105 85//85
f 73//73 106//106 92//92
f 92//92 106//106 95//95
f 84//84 96//96 107//107
f 96//96 99//99 107//107
f 99//99 101//101 108//108
f 103//103 95//95 109//109
f 101//101 104//104 110//110
f 104//104 103//103 110//110
f 76//76 75//75 111//111
f 76//76 111//111 112//112
f 76//76 112//112 113//113
f 84//84 114//114 105//105
f 73//73 76//76 106//106
f 84//84 107//107 114//114
f 95//95 106//106 109//109
f 99//99 115//115 107//107
f 99//99 108//108 115//115
f 101//101 110//110 108//108
f 103//103 109//109 116//116
f 103//103 116//116 110//110
f 114//114 117//117 105//105
f 114//114 118//118 117//117
f 118//118 119//119 117//117
f 118//118 120//120 119//119
f 118//118 121//121 120//120
f 121//121 122//122 120//120
f 121//121 123//123 122//122
f 124//124 125//125 126//126
f 127//127 124//124 126//126
f 76//76 113//113 124//124
f 124//124 113//113 125//125
f 76//76 124//124 106//106
f 127//127 126//126 128//128
f 121//121 128//128 123//123
f 121//121 127//127 128//128
f 114//114 129//129 118//118
f 118//118 129//129 121//121
f 121//121 130//130 127//127
f 127//127 130//130 124//124
f 124//124 131//131 106//106
f 114//114 107//107 129//129
f 124//124 130//130 131//131
f 106//106 131//131 109//109
f 121//121 129//129 132//132
f 121//121 132//132 130//130
f 107//107 115//115 129//129
f 129//129 115//115 133//133
f 115//115 108//108 133//133
f 129//129 133//133 132//132
f 130//130 134//134 131//131
f 131//131 116//116 109//109
f 108//108 110//110 133//133
f 110//110 116//116 134//134
f 133//133 110//110 134//134
f 133//133 134//134 130//130
f 134//134 116//116 131//131
f 132//132 133//133 130//130
