v -0.16500 -0.19284 0.22981
v -0.16500 -0.15000 0.25981
v -0.20100 -0.14400 0.24942
v -0.20100 -0.18512 0.22062
v -0.16500 -0.25981 0.15000
v -0.16500 -0.22981 0.19284
v -0.20100 -0.22062 0.18512
v -0.20100 -0.24942 0.14400
v -0.20100 -0.22062 0.18512
v -0.20100 -0.18512 0.22062
v -0.22500 -0.15427 0.18385
v -0.22500 -0.12000 0.20785
v -0.20100 -0.24942 0.14400
v -0.22500 -0.18385 0.15427
v -0.22500 -0.11827 0.14095
v 0.16500 -0.19284 0.22981
v 0.16500 -0.25981 0.15000
v 0.16500 -0.22981 0.19284
v -0.16500 -0.10261 0.28191
v -0.20100 -0.09850 0.27063
v -0.20100 -0.05001 0.28362
v -0.20100 -0.14400 0.24942
v -0.22500 -0.08208 0.22553
v -0.20100 -0.09850 0.27063
v -0.20100 -0.05001 0.28362
v -0.22500 -0.04168 0.23635
v -0.16500 -0.05209 0.29544
v -0.20100 0.00000 0.28800
v -0.22500 0.00000 0.24000
v -0.20100 0.00000 0.28800
v -0.16500 0.00000 0.30000
v -0.22500 -0.06293 0.17290
v -0.22500 -0.09200 0.15935
v -0.22500 -0.03195 0.18120
v -0.22500 0.00000 0.18400
v 0.16500 -0.15000 0.25981
v 0.16500 -0.10261 0.28191
v 0.16500 -0.05209 0.29544
v -0.22500 -0.11827 0.14095
v -0.22500 -0.09200 0.15935
v 0.22500 -0.09200 0.15935
v -0.22500 -0.06293 0.17290
v -0.22500 -0.03195 0.18120
v 0.22500 -0.03195 0.18120
v 0.22500 -0.06293 0.17290
v -0.22500 0.00000 0.18400
v 0.22500 0.00000 0.18400
v -0.16500 -0.28191 0.10261
v -0.20100 -0.27063 0.09850
v -0.20100 -0.27063 0.09850
v -0.22500 -0.20785 0.12000
v -0.16500 -0.29544 0.05209
v -0.22500 -0.22553 0.08208
v -0.20100 -0.28362 0.05001
v -0.22500 -0.14095 0.11827
v -0.22500 -0.15935 0.09200
v -0.22500 -0.17290 0.06293
v -0.20100 -0.28362 0.05001
v -0.22500 -0.23635 0.04168
v -0.20100 -0.28800 0.00000
v -0.16500 -0.30000 0.00000
v -0.20100 -0.28800 0.00000
v -0.22500 -0.24000 0.00000
v -0.22500 -0.18120 0.03195
v -0.22500 -0.18400 0.00000
v 0.16500 -0.28191 0.10261
v -0.22500 -0.17290 0.06293
v -0.22500 -0.15935 0.09200
v 0.22500 -0.15935 0.09200
v 0.16500 -0.29544 0.05209
v 0.16500 -0.30000 0.00000
v -0.22500 -0.18120 0.03195
v 0.22500 -0.17290 0.06293
v -0.22500 -0.18400 0.00000
v 0.22500 -0.18120 0.03195
v -0.22500 -0.14095 0.11827
v 0.22500 -0.11827 0.14095
v 0.22500 -0.14095 0.11827
v 0.20100 -0.18512 0.22062
v 0.20100 -0.14400 0.24942
v 0.20100 -0.24942 0.14400
v 0.20100 -0.22062 0.18512
v 0.20100 -0.14400 0.24942
v 0.20100 -0.18512 0.22062
v 0.22500 -0.15427 0.18385
v 0.20100 -0.22062 0.18512
v 0.22500 -0.18385 0.15427
v 0.22500 -0.20785 0.12000
v 0.22500 -0.14095 0.11827
v 0.16500 0.00000 0.30000
v 0.20100 -0.09850 0.27063
v 0.20100 -0.09850 0.27063
v 0.22500 -0.12000 0.20785
v 0.20100 -0.05001 0.28362
v 0.22500 -0.08208 0.22553
v 0.20100 -0.05001 0.28362
v 0.20100 0.00000 0.28800
v 0.20100 0.00000 0.28800
v 0.22500 -0.04168 0.23635
v 0.22500 0.00000 0.24000
v 0.22500 -0.09200 0.15935
v 0.22500 -0.11827 0.14095
v 0.22500 -0.06293 0.17290
v 0.22500 -0.03195 0.18120
v 0.22500 0.00000 0.18400
v 0.22500 -0.18400 0.00000
v 0.20100 -0.27063 0.09850
v 0.20100 -0.24942 0.14400
v 0.22500 -0.22553 0.08208
v 0.20100 -0.28362 0.05001
v 0.20100 -0.27063 0.09850
v 0.22500 -0.15935 0.09200
v 0.22500 -0.17290 0.06293
v 0.20100 -0.28362 0.05001
v 0.22500 -0.23635 0.04168
v 0.20100 -0.28800 0.00000
v 0.20100 -0.28800 0.00000
v 0.22500 -0.24000 0.00000
v 0.22500 -0.18120 0.03195
v 0.22500 -0.18400 0.00000
v -0.20100 0.05001 0.28362
v -0.22500 0.04168 0.23635
v -0.20100 0.05001 0.28362
v -0.16500 0.05209 0.29544
v -0.20100 0.09850 0.27063
v -0.22500 0.08208 0.22553
v -0.16500 0.10261 0.28191
v -0.20100 0.14400 0.24942
v -0.16500 0.15000 0.25981
v -0.20100 0.09850 0.27063
v -0.22500 0.12000 0.20785
v -0.20100 0.14400 0.24942
v -0.22500 0.03195 0.18120
v -0.22500 0.06293 0.17290
v -0.22500 0.09200 0.15935
v -0.22500 0.15427 0.18385
v -0.22500 0.11827 0.14095
v 0.16500 0.05209 0.29544
v 0.16500 0.10261 0.28191
v -0.22500 0.03195 0.18120
v 0.22500 0.03195 0.18120
v -0.22500 0.06293 0.17290
v 0.22500 0.06293 0.17290
v -0.22500 0.09200 0.15935
v 0.22500 0.09200 0.15935
v -0.20100 0.18512 0.22062
v -0.16500 0.19284 0.22981
v -0.20100 0.18512 0.22062
v -0.20100 0.22062 0.18512
v -0.16500 0.22981 0.19284
v -0.22500 0.18385 0.15427
v -0.22500 0.14095 0.11827
v -0.20100 0.22062 0.18512
v -0.22500 0.20785 0.12000
v -0.20100 0.24942 0.14400
v -0.16500 0.25981 0.15000
v 0.16500 0.15000 0.25981
v 0.16500 0.19284 0.22981
v 0.16500 0.22981 0.19284
v -0.22500 0.11827 0.14095
v 0.22500 0.11827 0.14095
v -0.22500 0.14095 0.11827
v 0.22500 0.14095 0.11827
v -0.22500 0.15935 0.09200
v -0.22500 0.17290 0.06293
v -0.22500 0.22553 0.08208
v -0.20100 0.24942 0.14400
v -0.20100 0.27063 0.09850
v -0.16500 0.28191 0.10261
v -0.20100 0.27063 0.09850
v -0.20100 0.28362 0.05001
v -0.22500 0.18120 0.03195
v -0.22500 0.23635 0.04168
v -0.22500 0.18400 0.00000
v -0.22500 0.24000 0.00000
v -0.20100 0.28362 0.05001
v -0.16500 0.29544 0.05209
v -0.20100 0.28800 0.00000
v -0.20100 0.28800 0.00000
v -0.16500 0.30000 0.00000
v -0.22500 0.15935 0.09200
v 0.22500 0.15935 0.09200
v 0.16500 0.25981 0.15000
v 0.16500 0.28191 0.10261
v -0.22500 0.17290 0.06293
v 0.22500 0.17290 0.06293
v -0.22500 0.18120 0.03195
v 0.22500 0.18120 0.03195
v -0.22500 0.18400 0.00000
v 0.22500 0.18400 0.00000
v 0.16500 0.29544 0.05209
v 0.20100 0.05001 0.28362
v 0.20100 0.05001 0.28362
v 0.20100 0.09850 0.27063
v 0.22500 0.04168 0.23635
v 0.22500 0.08208 0.22553
v 0.20100 0.09850 0.27063
v 0.20100 0.14400 0.24942
v 0.20100 0.14400 0.24942
v 0.22500 0.12000 0.20785
v 0.20100 0.18512 0.22062
v 0.22500 0.03195 0.18120
v 0.22500 0.06293 0.17290
v 0.22500 0.09200 0.15935
v 0.22500 0.15427 0.18385
v 0.22500 0.11827 0.14095
v 0.20100 0.18512 0.22062
v 0.20100 0.22062 0.18512
v 0.20100 0.22062 0.18512
v 0.22500 0.18385 0.15427
v 0.20100 0.24942 0.14400
v 0.20100 0.24942 0.14400
v 0.22500 0.14095 0.11827
v 0.16500 0.30000 0.00000
v 0.22500 0.20785 0.12000
v 0.22500 0.15935 0.09200
v 0.22500 0.17290 0.06293
v 0.22500 0.22553 0.08208
v 0.20100 0.27063 0.09850
v 0.20100 0.27063 0.09850
v 0.20100 0.28362 0.05001
v 0.22500 0.23635 0.04168
v 0.22500 0.18120 0.03195
v 0.22500 0.24000 0.00000
v 0.22500 0.18400 0.00000
v 0.20100 0.28362 0.05001
v 0.20100 0.28800 0.00000
v 0.20100 0.28800 0.00000
v -0.20100 -0.28362 -0.05001
v -0.16500 -0.29544 -0.05209
v -0.20100 -0.28362 -0.05001
v -0.22500 -0.23635 -0.04168
v -0.20100 -0.27063 -0.09850
v -0.16500 -0.28191 -0.10261
v -0.22500 -0.22553 -0.08208
v -0.22500 -0.18120 -0.03195
v -0.22500 -0.17290 -0.06293
v -0.20100 -0.27063 -0.09850
v -0.20100 -0.24942 -0.14400
v -0.16500 -0.25981 -0.15000
v -0.22500 -0.20785 -0.12000
v -0.20100 -0.22062 -0.18512
v -0.20100 -0.24942 -0.14400
v -0.22500 -0.15935 -0.09200
v -0.22500 -0.18385 -0.15427
v -0.22500 -0.14095 -0.11827
v 0.16500 -0.29544 -0.05209
v -0.22500 -0.18120 -0.03195
v -0.22500 -0.17290 -0.06293
v 0.22500 -0.18120 -0.03195
v -0.22500 -0.15935 -0.09200
v 0.22500 -0.17290 -0.06293
v 0.16500 -0.28191 -0.10261
v 0.16500 -0.25981 -0.15000
v -0.22500 -0.14095 -0.11827
v 0.22500 -0.15935 -0.09200
v -0.22500 -0.11827 -0.14095
v -0.22500 -0.15427 -0.18385
v -0.22500 -0.11827 -0.14095
v 0.22500 -0.14095 -0.11827
v -0.22500 -0.09200 -0.15935
v 0.22500 -0.11827 -0.14095
v -0.16500 -0.22981 -0.19284
v -0.20100 -0.22062 -0.18512
v -0.20100 -0.18512 -0.22062
v -0.16500 -0.19284 -0.22981
v -0.20100 -0.18512 -0.22062
v -0.20100 -0.14400 -0.24942
v -0.16500 -0.15000 -0.25981
v -0.20100 -0.14400 -0.24942
v 0.16500 -0.22981 -0.19284
v 0.16500 -0.19284 -0.22981
v 0.16500 -0.15000 -0.25981
v -0.22500 -0.12000 -0.20785
v -0.22500 -0.09200 -0.15935
v -0.22500 -0.06293 -0.17290
v -0.22500 -0.08208 -0.22553
v -0.22500 -0.03195 -0.18120
v -0.22500 -0.04168 -0.23635
v -0.22500 0.00000 -0.18400
v -0.22500 0.00000 -0.24000
v -0.20100 -0.09850 -0.27063
v -0.20100 -0.05001 -0.28362
v -0.16500 -0.10261 -0.28191
v -0.20100 -0.09850 -0.27063
v -0.16500 -0.05209 -0.29544
v -0.20100 0.00000 -0.28800
v -0.20100 -0.05001 -0.28362
v -0.16500 0.00000 -0.30000
v -0.20100 0.00000 -0.28800
v -0.22500 -0.06293 -0.17290
v 0.22500 -0.09200 -0.15935
v -0.22500 -0.03195 -0.18120
v 0.22500 -0.06293 -0.17290
v -0.22500 0.00000 -0.18400
v 0.22500 -0.03195 -0.18120
v 0.16500 -0.10261 -0.28191
v 0.16500 -0.05209 -0.29544
v 0.16500 0.00000 -0.30000
v 0.20100 -0.28362 -0.05001
v 0.20100 -0.28362 -0.05001
v 0.22500 -0.23635 -0.04168
v 0.20100 -0.27063 -0.09850
v 0.22500 -0.22553 -0.08208
v 0.22500 -0.18120 -0.03195
v 0.22500 -0.17290 -0.06293
v 0.20100 -0.27063 -0.09850
v 0.22500 -0.20785 -0.12000
v 0.20100 -0.24942 -0.14400
v 0.20100 -0.24942 -0.14400
v 0.22500 -0.15935 -0.09200
v 0.22500 -0.14095 -0.11827
v 0.22500 -0.18385 -0.15427
v 0.22500 -0.11827 -0.14095
v 0.20100 -0.22062 -0.18512
v 0.20100 -0.22062 -0.18512
v 0.22500 -0.15427 -0.18385
v 0.20100 -0.18512 -0.22062
v 0.20100 -0.18512 -0.22062
v 0.22500 -0.12000 -0.20785
v 0.20100 -0.14400 -0.24942
v 0.22500 0.00000 -0.18400
v 0.22500 -0.09200 -0.15935
v 0.22500 -0.06293 -0.17290
v 0.22500 -0.08208 -0.22553
v 0.22500 -0.03195 -0.18120
v 0.22500 -0.04168 -0.23635
v 0.22500 0.00000 -0.18400
v 0.22500 0.00000 -0.24000
v 0.20100 -0.09850 -0.27063
v 0.20100 -0.14400 -0.24942
v 0.20100 -0.09850 -0.27063
v 0.20100 -0.05001 -0.28362
v 0.20100 -0.05001 -0.28362
v 0.20100 0.00000 -0.28800
v 0.20100 0.00000 -0.28800
v -0.22500 0.11827 -0.14095
v -0.22500 0.14095 -0.11827
v -0.22500 0.18385 -0.15427
v -0.22500 0.15935 -0.09200
v -0.22500 0.14095 -0.11827
v 0.22500 0.14095 -0.11827
v -0.22500 0.11827 -0.14095
v 0.22500 0.11827 -0.14095
v -0.22500 0.18120 -0.03195
v -0.22500 0.23635 -0.04168
v -0.22500 0.17290 -0.06293
v -0.22500 0.22553 -0.08208
v -0.20100 0.28362 -0.05001
v -0.20100 0.28362 -0.05001
v -0.16500 0.29544 -0.05209
v -0.20100 0.27063 -0.09850
v -0.22500 0.15935 -0.09200
v -0.22500 0.20785 -0.12000
v -0.20100 0.24942 -0.14400
v -0.20100 0.27063 -0.09850
v -0.16500 0.28191 -0.10261
v -0.20100 0.24942 -0.14400
v -0.16500 0.25981 -0.15000
v -0.22500 0.18120 -0.03195
v 0.22500 0.18120 -0.03195
v -0.22500 0.17290 -0.06293
v 0.22500 0.17290 -0.06293
v 0.16500 0.29544 -0.05209
v 0.22500 0.15935 -0.09200
v 0.16500 0.28191 -0.10261
v -0.22500 0.03195 -0.18120
v -0.22500 0.04168 -0.23635
v -0.22500 0.06293 -0.17290
v -0.22500 0.08208 -0.22553
v -0.22500 0.09200 -0.15935
v -0.22500 0.12000 -0.20785
v -0.22500 0.15427 -0.18385
v -0.20100 0.05001 -0.28362
v -0.20100 0.09850 -0.27063
v -0.16500 0.05209 -0.29544
v -0.20100 0.05001 -0.28362
v -0.16500 0.10261 -0.28191
v -0.20100 0.14400 -0.24942
v -0.20100 0.18512 -0.22062
v -0.20100 0.09850 -0.27063
v -0.20100 0.14400 -0.24942
v -0.16500 0.15000 -0.25981
v -0.22500 0.03195 -0.18120
v -0.22500 0.09200 -0.15935
v -0.22500 0.06293 -0.17290
v 0.22500 0.06293 -0.17290
v 0.22500 0.03195 -0.18120
v 0.22500 0.09200 -0.15935
v 0.16500 0.05209 -0.29544
v 0.16500 0.10261 -0.28191
v 0.16500 0.15000 -0.25981
v -0.20100 0.22062 -0.18512
v -0.20100 0.18512 -0.22062
v -0.20100 0.22062 -0.18512
v -0.16500 0.22981 -0.19284
v -0.16500 0.19284 -0.22981
v 0.16500 0.22981 -0.19284
v 0.16500 0.25981 -0.15000
v 0.16500 0.19284 -0.22981
v 0.22500 0.14095 -0.11827
v 0.22500 0.11827 -0.14095
v 0.22500 0.15427 -0.18385
v 0.22500 0.23635 -0.04168
v 0.22500 0.18120 -0.03195
v 0.22500 0.22553 -0.08208
v 0.22500 0.17290 -0.06293
v 0.20100 0.28362 -0.05001
v 0.20100 0.28362 -0.05001
v 0.20100 0.27063 -0.09850
v 0.22500 0.15935 -0.09200
v 0.22500 0.20785 -0.12000
v 0.22500 0.18385 -0.15427
v 0.20100 0.24942 -0.14400
v 0.20100 0.27063 -0.09850
v 0.20100 0.24942 -0.14400
v 0.20100 0.22062 -0.18512
v 0.22500 0.03195 -0.18120
v 0.22500 0.04168 -0.23635
v 0.22500 0.06293 -0.17290
v 0.22500 0.08208 -0.22553
v 0.22500 0.09200 -0.15935
v 0.22500 0.12000 -0.20785
v 0.20100 0.14400 -0.24942
v 0.20100 0.05001 -0.28362
v 0.20100 0.05001 -0.28362
v 0.20100 0.09850 -0.27063
v 0.20100 0.09850 -0.27063
v 0.20100 0.14400 -0.24942
v 0.20100 0.18512 -0.22062
v 0.20100 0.22062 -0.18512
v 0.20100 0.18512 -0.22062
vn -0.1588 -0.6346 0.7563
vn -0.1588 -0.4937 0.8550
vn -0.3162 -0.4743 0.8216
vn -0.3162 -0.6098 0.7267
vn -0.1588 -0.8550 0.4937
vn -0.1588 -0.7563 0.6346
vn -0.3162 -0.7267 0.6098
vn -0.3162 -0.8216 0.4743
vn -0.8944 -0.3426 0.2875
vn -0.8944 -0.2875 0.3426
vn -0.9703 -0.1554 0.1852
vn -0.9703 -0.1209 0.2094
vn -0.8944 -0.3873 0.2236
vn -0.9703 -0.1852 0.1554
vn -1.0000 0.0000 0.0000
vn 0.1588 -0.6346 0.7563
vn 0.1588 -0.8550 0.4937
vn 0.1588 -0.7563 0.6346
vn -0.1588 -0.3377 0.9278
vn -0.3162 -0.3245 0.8915
vn -0.3162 -0.1647 0.9343
vn -0.8944 -0.2236 0.3873
vn -0.9703 -0.0827 0.2272
vn -0.8944 -0.1530 0.4202
vn -0.8944 -0.0777 0.4404
vn -0.9703 -0.0420 0.2381
vn -0.1588 -0.1714 0.9723
vn -0.8944 -0.0000 0.4472
vn -0.9703 0.0000 0.2418
vn -0.3162 0.0000 0.9487
vn -0.1588 -0.0000 0.9873
vn -1.0000 0.0000 0.0000
vn -1.0000 0.0000 0.0000
vn -1.0000 0.0000 0.0000
vn -1.0000 0.0000 0.0000
vn 0.1588 -0.4937 0.8550
vn 0.1588 -0.3377 0.9278
vn 0.1588 -0.1714 0.9723
vn 0.0000 0.6428 -0.7660
vn 0.0000 0.5000 -0.8660
vn 0.0000 0.5000 -0.8660
vn 0.0000 0.3420 -0.9397
vn 0.0000 0.1736 -0.9848
vn 0.0000 0.1736 -0.9848
vn 0.0000 0.3420 -0.9397
vn 0.0000 0.0000 -1.0000
vn 0.0000 0.0000 -1.0000
vn -0.1588 -0.9278 0.3377
vn -0.3162 -0.8915 0.3245
vn -0.8944 -0.4202 0.1530
vn -0.9703 -0.2094 0.1209
vn -0.1588 -0.9723 0.1714
vn -0.9703 -0.2272 0.0827
vn -0.8944 -0.4404 0.0777
vn -1.0000 0.0000 0.0000
vn -1.0000 0.0000 0.0000
vn -1.0000 0.0000 0.0000
vn -0.3162 -0.9343 0.1647
vn -0.9703 -0.2381 0.0420
vn -0.8944 -0.4472 -0.0000
vn -0.1588 -0.9873 -0.0000
vn -0.3162 -0.9487 0.0000
vn -0.9703 -0.2418 0.0000
vn -1.0000 0.0000 0.0000
vn -1.0000 0.0000 0.0000
vn 0.1588 -0.9278 0.3377
vn -0.0000 0.9397 -0.3420
vn 0.0000 0.8660 -0.5000
vn -0.0000 0.8660 -0.5000
vn 0.1588 -0.9723 0.1714
vn 0.1588 -0.9873 0.0000
vn -0.0000 0.9848 -0.1736
vn -0.0000 0.9397 -0.3420
vn 0.0000 1.0000 0.0000
vn 0.0000 0.9848 -0.1736
vn 0.0000 0.7660 -0.6428
vn 0.0000 0.6428 -0.7660
vn 0.0000 0.7660 -0.6428
vn 0.3162 -0.6098 0.7267
vn 0.3162 -0.4743 0.8216
vn 0.3162 -0.8216 0.4743
vn 0.3162 -0.7267 0.6098
vn 0.8944 -0.2236 0.3873
vn 0.8944 -0.2875 0.3426
vn 0.9703 -0.1554 0.1852
vn 0.8944 -0.3426 0.2875
vn 0.9703 -0.1852 0.1554
vn 0.9703 -0.2094 0.1209
vn 1.0000 0.0000 0.0000
vn 0.1588 0.0000 0.9873
vn 0.3162 -0.3245 0.8915
vn 0.8944 -0.1530 0.4202
vn 0.9703 -0.1209 0.2094
vn 0.8944 -0.0777 0.4404
vn 0.9703 -0.0827 0.2272
vn 0.3162 -0.1647 0.9343
vn 0.3162 -0.0000 0.9487
vn 0.8944 0.0000 0.4472
vn 0.9703 -0.0420 0.2381
vn 0.9703 0.0000 0.2418
vn 1.0000 0.0000 0.0000
vn 1.0000 0.0000 0.0000
vn 1.0000 0.0000 0.0000
vn 1.0000 0.0000 0.0000
vn 1.0000 0.0000 0.0000
vn 0.0000 1.0000 0.0000
vn 0.3162 -0.8915 0.3245
vn 0.8944 -0.3873 0.2236
vn 0.9703 -0.2272 0.0827
vn 0.3162 -0.9343 0.1647
vn 0.8944 -0.4202 0.1530
vn 1.0000 0.0000 0.0000
vn 1.0000 0.0000 0.0000
vn 0.8944 -0.4404 0.0777
vn 0.9703 -0.2381 0.0420
vn 0.3162 -0.9487 -0.0000
vn 0.8944 -0.4472 0.0000
vn 0.9703 -0.2418 -0.0000
vn 1.0000 0.0000 0.0000
vn 1.0000 0.0000 0.0000
vn -0.8944 0.0777 0.4404
vn -0.9703 0.0420 0.2381
vn -0.3162 0.1647 0.9343
vn -0.1588 0.1714 0.9723
vn -0.3162 0.3245 0.8915
vn -0.9703 0.0827 0.2272
vn -0.1588 0.3377 0.9278
vn -0.3162 0.4743 0.8216
vn -0.1588 0.4937 0.8550
vn -0.8944 0.1530 0.4202
vn -0.9703 0.1209 0.2094
vn -0.8944 0.2236 0.3873
vn -1.0000 0.0000 0.0000
vn -1.0000 0.0000 0.0000
vn -1.0000 0.0000 0.0000
vn -0.9703 0.1554 0.1852
vn -1.0000 0.0000 0.0000
vn 0.1588 0.1714 0.9723
vn 0.1588 0.3377 0.9278
vn -0.0000 -0.1736 -0.9848
vn 0.0000 -0.1736 -0.9848
vn -0.0000 -0.3420 -0.9397
vn -0.0000 -0.3420 -0.9397
vn 0.0000 -0.5000 -0.8660
vn -0.0000 -0.5000 -0.8660
vn -0.3162 0.6098 0.7267
vn -0.1588 0.6346 0.7563
vn -0.8944 0.2875 0.3426
vn -0.3162 0.7267 0.6098
vn -0.1588 0.7563 0.6346
vn -0.9703 0.1852 0.1554
vn -1.0000 0.0000 0.0000
vn -0.8944 0.3426 0.2875
vn -0.9703 0.2094 0.1209
vn -0.3162 0.8216 0.4743
vn -0.1588 0.8550 0.4937
vn 0.1588 0.4937 0.8550
vn 0.1588 0.6346 0.7563
vn 0.1588 0.7563 0.6346
vn 0.0000 -0.6428 -0.7660
vn 0.0000 -0.6428 -0.7660
vn 0.0000 -0.7660 -0.6428
vn 0.0000 -0.7660 -0.6428
vn -1.0000 0.0000 0.0000
vn -1.0000 0.0000 0.0000
vn -0.9703 0.2272 0.0827
vn -0.8944 0.3873 0.2236
vn -0.3162 0.8915 0.3245
vn -0.1588 0.9278 0.3377
vn -0.8944 0.4202 0.1530
vn -0.3162 0.9343 0.1647
vn -1.0000 0.0000 0.0000
vn -0.9703 0.2381 0.0420
vn -1.0000 0.0000 0.0000
vn -0.9703 0.2418 -0.0000
vn -0.8944 0.4404 0.0777
vn -0.1588 0.9723 0.1714
vn -0.8944 0.4472 0.0000
vn -0.3162 0.9487 -0.0000
vn -0.1588 0.9873 0.0000
vn 0.0000 -0.8660 -0.5000
vn 0.0000 -0.8660 -0.5000
vn 0.1588 0.8550 0.4937
vn 0.1588 0.9278 0.3377
vn 0.0000 -0.9397 -0.3420
vn 0.0000 -0.9397 -0.3420
vn 0.0000 -0.9848 -0.1736
vn 0.0000 -0.9848 -0.1736
vn 0.0000 -1.0000 0.0000
vn 0.0000 -1.0000 0.0000
vn 0.1588 0.9723 0.1714
vn 0.3162 0.1647 0.9343
vn 0.8944 0.0777 0.4404
vn 0.8944 0.1530 0.4202
vn 0.9703 0.0420 0.2381
vn 0.9703 0.0827 0.2272
vn 0.3162 0.3245 0.8915
vn 0.8944 0.2236 0.3873
vn 0.3162 0.4743 0.8216
vn 0.9703 0.1209 0.2094
vn 0.8944 0.2875 0.3426
vn 1.0000 0.0000 0.0000
vn 1.0000 0.0000 0.0000
vn 1.0000 0.0000 0.0000
vn 0.9703 0.1554 0.1852
vn 1.0000 0.0000 0.0000
vn 0.3162 0.6098 0.7267
vn 0.8944 0.3426 0.2875
vn 0.3162 0.7267 0.6098
vn 0.9703 0.1852 0.1554
vn 0.8944 0.3873 0.2236
vn 0.3162 0.8216 0.4743
vn 1.0000 0.0000 0.0000
vn 0.1588 0.9873 0.0000
vn 0.9703 0.2094 0.1209
vn 1.0000 0.0000 0.0000
vn 1.0000 0.0000 0.0000
vn 0.9703 0.2272 0.0827
vn 0.8944 0.4202 0.1530
vn 0.3162 0.8915 0.3245
vn 0.8944 0.4404 0.0777
vn 0.9703 0.2381 0.0420
vn 1.0000 0.0000 0.0000
vn 0.9703 0.2418 0.0000
vn 1.0000 0.0000 0.0000
vn 0.3162 0.9343 0.1647
vn 0.8944 0.4472 -0.0000
vn 0.3162 0.9487 0.0000
vn -0.8944 -0.4404 -0.0777
vn -0.1588 -0.9723 -0.1714
vn -0.3162 -0.9343 -0.1647
vn -0.9703 -0.2381 -0.0420
vn -0.8944 -0.4202 -0.1530
vn -0.1588 -0.9278 -0.3377
vn -0.9703 -0.2272 -0.0827
vn -1.0000 0.0000 0.0000
vn -1.0000 0.0000 0.0000
vn -0.3162 -0.8915 -0.3245
vn -0.8944 -0.3873 -0.2236
vn -0.1588 -0.8550 -0.4937
vn -0.9703 -0.2094 -0.1209
vn -0.8944 -0.3426 -0.2875
vn -0.3162 -0.8216 -0.4743
vn -1.0000 0.0000 0.0000
vn -0.9703 -0.1852 -0.1554
vn -1.0000 0.0000 0.0000
vn 0.1588 -0.9723 -0.1714
vn 0.0000 0.9848 0.1736
vn 0.0000 0.9397 0.3420
vn 0.0000 0.9848 0.1736
vn 0.0000 0.8660 0.5000
vn 0.0000 0.9397 0.3420
vn 0.1588 -0.9278 -0.3377
vn 0.1588 -0.8550 -0.4937
vn 0.0000 0.7660 0.6428
vn 0.0000 0.8660 0.5000
vn -1.0000 0.0000 0.0000
vn -0.9703 -0.1554 -0.1852
vn 0.0000 0.6428 0.7660
vn 0.0000 0.7660 0.6428
vn 0.0000 0.5000 0.8660
vn 0.0000 0.6428 0.7660
vn -0.1588 -0.7563 -0.6346
vn -0.3162 -0.7267 -0.6098
vn -0.8944 -0.2875 -0.3426
vn -0.1588 -0.6346 -0.7563
vn -0.3162 -0.6098 -0.7267
vn -0.8944 -0.2236 -0.3873
vn -0.1588 -0.4937 -0.8550
vn -0.3162 -0.4743 -0.8216
vn 0.1588 -0.7563 -0.6346
vn 0.1588 -0.6346 -0.7563
vn 0.1588 -0.4937 -0.8550
vn -0.9703 -0.1209 -0.2094
vn -1.0000 0.0000 0.0000
vn -1.0000 0.0000 0.0000
vn -0.9703 -0.0827 -0.2272
vn -1.0000 0.0000 0.0000
vn -0.9703 -0.0420 -0.2381
vn -1.0000 0.0000 0.0000
vn -0.9703 -0.0000 -0.2418
vn -0.8944 -0.1530 -0.4202
vn -0.8944 -0.0777 -0.4404
vn -0.1588 -0.3377 -0.9278
vn -0.3162 -0.3245 -0.8915
vn -0.1588 -0.1714 -0.9723
vn -0.8944 0.0000 -0.4472
vn -0.3162 -0.1647 -0.9343
vn -0.1588 0.0000 -0.9873
vn -0.3162 -0.0000 -0.9487
vn -0.0000 0.3420 0.9397
vn -0.0000 0.5000 0.8660
vn -0.0000 0.1736 0.9848
vn -0.0000 0.3420 0.9397
vn 0.0000 0.0000 1.0000
vn 0.0000 0.1736 0.9848
vn 0.1588 -0.3377 -0.9278
vn 0.1588 -0.1714 -0.9723
vn 0.1588 -0.0000 -0.9873
vn 0.3162 -0.9343 -0.1647
vn 0.8944 -0.4404 -0.0777
vn 0.9703 -0.2381 -0.0420
vn 0.3162 -0.8915 -0.3245
vn 0.9703 -0.2272 -0.0827
vn 1.0000 0.0000 0.0000
vn 1.0000 0.0000 0.0000
vn 0.8944 -0.4202 -0.1530
vn 0.9703 -0.2094 -0.1209
vn 0.3162 -0.8216 -0.4743
vn 0.8944 -0.3873 -0.2236
vn 1.0000 0.0000 0.0000
vn 1.0000 0.0000 0.0000
vn 0.9703 -0.1852 -0.1554
vn 1.0000 0.0000 0.0000
vn 0.3162 -0.7267 -0.6098
vn 0.8944 -0.3426 -0.2875
vn 0.9703 -0.1554 -0.1852
vn 0.3162 -0.6098 -0.7267
vn 0.8944 -0.2875 -0.3426
vn 0.9703 -0.1209 -0.2094
vn 0.3162 -0.4743 -0.8216
vn 0.0000 0.0000 1.0000
vn 1.0000 0.0000 0.0000
vn 1.0000 0.0000 0.0000
vn 0.9703 -0.0827 -0.2272
vn 1.0000 0.0000 0.0000
vn 0.9703 -0.0420 -0.2381
vn 1.0000 0.0000 0.0000
vn 0.9703 0.0000 -0.2418
vn 0.3162 -0.3245 -0.8915
vn 0.8944 -0.2236 -0.3873
vn 0.8944 -0.1530 -0.4202
vn 0.3162 -0.1647 -0.9343
vn 0.8944 -0.0777 -0.4404
vn 0.3162 0.0000 -0.9487
vn 0.8944 -0.0000 -0.4472
vn -1.0000 0.0000 0.0000
vn -1.0000 0.0000 0.0000
vn -0.9703 0.1852 -0.1554
vn 0.0000 -0.8660 0.5000
vn 0.0000 -0.7660 0.6428
vn 0.0000 -0.7660 0.6428
vn 0.0000 -0.6428 0.7660
vn 0.0000 -0.6428 0.7660
vn -1.0000 0.0000 0.0000
vn -0.9703 0.2381 -0.0420
vn -1.0000 0.0000 0.0000
vn -0.9703 0.2272 -0.0827
vn -0.8944 0.4404 -0.0777
vn -0.3162 0.9343 -0.1647
vn -0.1588 0.9723 -0.1714
vn -0.3162 0.8915 -0.3245
vn -1.0000 0.0000 0.0000
vn -0.9703 0.2094 -0.1209
vn -0.8944 0.3873 -0.2236
vn -0.8944 0.4202 -0.1530
vn -0.1588 0.9278 -0.3377
vn -0.3162 0.8216 -0.4743
vn -0.1588 0.8550 -0.4937
vn -0.0000 -0.9848 0.1736
vn 0.0000 -0.9848 0.1736
vn -0.0000 -0.9397 0.3420
vn -0.0000 -0.9397 0.3420
vn 0.1588 0.9723 -0.1714
vn -0.0000 -0.8660 0.5000
vn 0.1588 0.9278 -0.3377
vn -1.0000 0.0000 0.0000
vn -0.9703 0.0420 -0.2381
vn -1.0000 0.0000 0.0000
vn -0.9703 0.0827 -0.2272
vn -1.0000 0.0000 0.0000
vn -0.9703 0.1209 -0.2094
vn -0.9703 0.1554 -0.1852
vn -0.8944 0.0777 -0.4404
vn -0.8944 0.1530 -0.4202
vn -0.1588 0.1714 -0.9723
vn -0.3162 0.1647 -0.9343
vn -0.1588 0.3377 -0.9278
vn -0.8944 0.2236 -0.3873
vn -0.8944 0.2875 -0.3426
vn -0.3162 0.3245 -0.8915
vn -0.3162 0.4743 -0.8216
vn -0.1588 0.4937 -0.8550
vn 0.0000 -0.1736 0.9848
vn 0.0000 -0.5000 0.8660
vn 0.0000 -0.3420 0.9397
vn 0.0000 -0.3420 0.9397
vn 0.0000 -0.1736 0.9848
vn 0.0000 -0.5000 0.8660
vn 0.1588 0.1714 -0.9723
vn 0.1588 0.3377 -0.9278
vn 0.1588 0.4937 -0.8550
vn -0.8944 0.3426 -0.2875
vn -0.3162 0.6098 -0.7267
vn -0.3162 0.7267 -0.6098
vn -0.1588 0.7563 -0.6346
vn -0.1588 0.6346 -0.7563
vn 0.1588 0.7563 -0.6346
vn 0.1588 0.8550 -0.4937
vn 0.1588 0.6346 -0.7563
vn 1.0000 0.0000 0.0000
vn 1.0000 0.0000 0.0000
vn 0.9703 0.1554 -0.1852
vn 0.9703 0.2381 -0.0420
vn 1.0000 0.0000 0.0000
vn 0.9703 0.2272 -0.0827
vn 1.0000 0.0000 0.0000
vn 0.8944 0.4404 -0.0777
vn 0.3162 0.9343 -0.1647
vn 0.8944 0.4202 -0.1530
vn 1.0000 0.0000 0.0000
vn 0.9703 0.2094 -0.1209
vn 0.9703 0.1852 -0.1554
vn 0.8944 0.3873 -0.2236
vn 0.3162 0.8915 -0.3245
vn 0.3162 0.8216 -0.4743
vn 0.8944 0.3426 -0.2875
vn 1.0000 0.0000 0.0000
vn 0.9703 0.0420 -0.2381
vn 1.0000 0.0000 0.0000
vn 0.9703 0.0827 -0.2272
vn 1.0000 0.0000 0.0000
vn 0.9703 0.1209 -0.2094
vn 0.8944 0.2236 -0.3873
vn 0.8944 0.0777 -0.4404
vn 0.3162 0.1647 -0.9343
vn 0.3162 0.3245 -0.8915
vn 0.8944 0.1530 -0.4202
vn 0.3162 0.4743 -0.8216
vn 0.8944 0.2875 -0.3426
vn 0.3162 0.7267 -0.6098
vn 0.3162 0.6098 -0.7267
f 1//1 2//2 3//3
f 3//3 4//4 1//1
f 5//5 6//6 7//7
f 7//7 8//8 5//5
f 6//6 1//1 4//4
f 4//4 7//7 6//6
f 9//9 10//10 11//11
f 12//12 11//11 10//10
f 13//13 9//9 14//14
f 11//11 14//14 9//9
f 14//14 11//11 15//15
f 2//2 1//1 16//16
f 6//6 5//5 17//17
f 1//1 6//6 18//18
f 2//2 19//19 20//20
f 21//21 20//20 19//19
f 10//10 22//22 12//12
f 23//23 12//12 22//22
f 20//20 3//3 2//2
f 22//22 24//24 23//23
f 24//24 25//25 26//26
f 19//19 27//27 21//21
f 25//25 28//28 29//29
f 30//30 21//21 27//27
f 27//27 31//31 30//30
f 26//26 23//23 24//24
f 29//29 26//26 25//25
f 12//12 23//23 32//32
f 11//11 12//12 33//33
f 33//33 15//15 11//11
f 32//32 33//33 12//12
f 23//23 26//26 34//34
f 34//34 32//32 23//23
f 26//26 29//29 35//35
f 35//35 34//34 26//26
f 19//19 2//2 36//36
f 27//27 19//19 37//37
f 31//31 27//27 38//38
f 39//39 40//40 41//41
f 42//42 43//43 44//44
f 40//40 42//42 45//45
f 43//43 46//46 47//47
f 48//48 5//5 8//8
f 8//8 49//49 48//48
f 50//50 13//13 51//51
f 52//52 48//48 49//49
f 51//51 53//53 50//50
f 54//54 50//50 53//53
f 14//14 51//51 13//13
f 51//51 14//14 55//55
f 53//53 51//51 56//56
f 55//55 56//56 51//51
f 56//56 57//57 53//53
f 49//49 58//58 52//52
f 53//53 59//59 54//54
f 60//60 54//54 59//59
f 61//61 52//52 58//58
f 58//58 62//62 61//61
f 59//59 63//63 60//60
f 59//59 53//53 57//57
f 57//57 64//64 59//59
f 63//63 59//59 64//64
f 64//64 65//65 63//63
f 5//5 48//48 66//66
f 67//67 68//68 69//69
f 48//48 52//52 70//70
f 52//52 61//61 71//71
f 72//72 67//67 73//73
f 74//74 72//72 75//75
f 15//15 55//55 14//14
f 76//76 39//39 77//77
f 68//68 76//76 78//78
f 16//16 36//36 2//2
f 17//17 18//18 6//6
f 18//18 16//16 1//1
f 36//36 16//16 79//79
f 79//79 80//80 36//36
f 81//81 82//82 18//18
f 18//18 17//17 81//81
f 82//82 79//79 16//16
f 16//16 18//18 82//82
f 83//83 84//84 85//85
f 84//84 86//86 87//87
f 88//88 87//87 86//86
f 87//87 85//85 84//84
f 85//85 87//87 89//89
f 36//36 37//37 19//19
f 37//37 38//38 27//27
f 38//38 90//90 31//31
f 45//45 41//41 40//40
f 44//44 45//45 42//42
f 47//47 44//44 43//43
f 37//37 36//36 80//80
f 80//80 91//91 37//37
f 38//38 37//37 91//91
f 92//92 83//83 93//93
f 94//94 92//92 95//95
f 93//93 95//95 92//92
f 91//91 96//96 38//38
f 90//90 38//38 96//96
f 96//96 97//97 90//90
f 98//98 94//94 99//99
f 95//95 99//99 94//94
f 99//99 100//100 98//98
f 85//85 93//93 83//83
f 95//95 93//93 101//101
f 93//93 85//85 102//102
f 102//102 101//101 93//93
f 101//101 103//103 95//95
f 99//99 95//95 103//103
f 103//103 104//104 99//99
f 100//100 99//99 104//104
f 104//104 105//105 100//100
f 66//66 17//17 5//5
f 70//70 66//66 48//48
f 78//78 69//69 68//68
f 71//71 70//70 52//52
f 69//69 73//73 67//67
f 73//73 75//75 72//72
f 75//75 106//106 74//74
f 17//17 66//66 107//107
f 107//107 81//81 17//17
f 86//86 108//108 88//88
f 109//109 88//88 108//108
f 110//110 107//107 66//66
f 108//108 111//111 109//109
f 87//87 88//88 112//112
f 112//112 89//89 87//87
f 88//88 109//109 113//113
f 113//113 112//112 88//88
f 66//66 70//70 110//110
f 111//111 114//114 115//115
f 115//115 109//109 111//111
f 116//116 110//110 70//70
f 70//70 71//71 116//116
f 114//114 117//117 118//118
f 118//118 115//115 114//114
f 119//119 113//113 109//109
f 109//109 115//115 119//119
f 120//120 119//119 115//115
f 115//115 118//118 120//120
f 77//77 78//78 76//76
f 41//41 77//77 39//39
f 89//89 102//102 85//85
f 28//28 121//121 122//122
f 123//123 30//30 31//31
f 31//31 124//124 123//123
f 125//125 123//123 124//124
f 122//122 29//29 28//28
f 126//126 122//122 121//121
f 124//124 127//127 125//125
f 128//128 125//125 127//127
f 127//127 129//129 128//128
f 121//121 130//130 126//126
f 131//131 126//126 130//130
f 130//130 132//132 131//131
f 29//29 122//122 133//133
f 133//133 35//35 29//29
f 122//122 126//126 134//134
f 134//134 133//133 122//122
f 126//126 131//131 135//135
f 136//136 131//131 132//132
f 135//135 134//134 126//126
f 137//137 135//135 131//131
f 131//131 136//136 137//137
f 124//124 31//31 90//90
f 127//127 124//124 138//138
f 129//129 127//127 139//139
f 46//46 140//140 141//141
f 140//140 142//142 143//143
f 142//142 144//144 145//145
f 146//146 128//128 129//129
f 129//129 147//147 146//146
f 132//132 148//148 136//136
f 149//149 146//146 147//147
f 147//147 150//150 149//149
f 151//151 136//136 148//148
f 136//136 151//151 152//152
f 148//148 153//153 151//151
f 154//154 151//151 153//153
f 155//155 149//149 150//150
f 150//150 156//156 155//155
f 147//147 129//129 157//157
f 150//150 147//147 158//158
f 156//156 150//150 159//159
f 152//152 137//137 136//136
f 144//144 160//160 161//161
f 160//160 162//162 163//163
f 164//164 152//152 151//151
f 151//151 154//154 164//164
f 165//165 164//164 154//154
f 154//154 166//166 165//165
f 153//153 167//167 154//154
f 166//166 154//154 167//167
f 168//168 155//155 156//156
f 156//156 169//169 168//168
f 167//167 170//170 166//166
f 171//171 168//168 169//169
f 172//172 165//165 166//166
f 166//166 173//173 172//172
f 174//174 172//172 173//173
f 173//173 175//175 174//174
f 173//173 166//166 170//170
f 170//170 176//176 173//173
f 169//169 177//177 171//171
f 175//175 173//173 176//176
f 176//176 178//178 175//175
f 179//179 171//171 177//177
f 177//177 180//180 179//179
f 162//162 181//181 182//182
f 169//169 156//156 183//183
f 177//177 169//169 184//184
f 181//181 185//185 186//186
f 185//185 187//187 188//188
f 187//187 189//189 190//190
f 180//180 177//177 191//191
f 90//90 138//138 124//124
f 138//138 139//139 127//127
f 139//139 157//157 129//129
f 141//141 47//47 46//46
f 143//143 141//141 140//140
f 145//145 143//143 142//142
f 161//161 145//145 144//144
f 138//138 90//90 97//97
f 97//97 192//192 138//138
f 193//193 98//98 100//100
f 139//139 138//138 192//192
f 194//194 193//193 195//195
f 100//100 195//195 193//193
f 195//195 196//196 194//194
f 192//192 197//197 139//139
f 157//157 139//139 197//197
f 198//198 194//194 196//196
f 197//197 199//199 157//157
f 196//196 200//200 198//198
f 201//201 198//198 200//200
f 195//195 100//100 105//105
f 105//105 202//202 195//195
f 196//196 195//195 202//202
f 202//202 203//203 196//196
f 200//200 196//196 203//203
f 203//203 204//204 200//200
f 205//205 200//200 204//204
f 204//204 206//206 205//205
f 157//157 158//158 147//147
f 158//158 159//159 150//150
f 159//159 183//183 156//156
f 158//158 157//157 199//199
f 199//199 207//207 158//158
f 200//200 205//205 201//201
f 208//208 201//201 205//205
f 159//159 158//158 207//207
f 207//207 209//209 159//159
f 205//205 210//210 208//208
f 210//210 205//205 206//206
f 211//211 208//208 210//210
f 183//183 159//159 209//209
f 209//209 212//212 183//183
f 163//163 161//161 160//160
f 182//182 163//163 162//162
f 206//206 213//213 210//210
f 186//186 182//182 181//181
f 183//183 184//184 169//169
f 188//188 186//186 185//185
f 190//190 188//188 187//187
f 184//184 191//191 177//177
f 191//191 214//214 180//180
f 215//215 210//210 213//213
f 210//210 215//215 211//211
f 213//213 216//216 215//215
f 216//216 217//217 218//218
f 218//218 215//215 216//216
f 219//219 211//211 215//215
f 184//184 183//183 212//212
f 212//212 220//220 184//184
f 215//215 218//218 219//219
f 221//221 219//219 218//218
f 191//191 184//184 220//220
f 222//222 218//218 217//217
f 217//217 223//223 222//222
f 224//224 222//222 223//223
f 223//223 225//225 224//224
f 218//218 222//222 221//221
f 220//220 226//226 191//191
f 222//222 224//224 227//227
f 214//214 191//191 226//226
f 226//226 228//228 214//214
f 227//227 221//221 222//222
f 229//229 60//60 63//63
f 230//230 61//61 62//62
f 62//62 231//231 230//230
f 63//63 232//232 229//229
f 233//233 229//229 232//232
f 234//234 230//230 231//231
f 232//232 235//235 233//233
f 232//232 63//63 65//65
f 65//65 236//236 232//232
f 235//235 232//232 236//236
f 236//236 237//237 235//235
f 231//231 238//238 234//234
f 239//239 233//233 235//235
f 240//240 234//234 238//238
f 235//235 241//241 239//239
f 242//242 239//239 241//241
f 238//238 243//243 240//240
f 241//241 235//235 237//237
f 237//237 244//244 241//241
f 245//245 241//241 244//244
f 244//244 246//246 245//245
f 61//61 230//230 247//247
f 248//248 74//74 106//106
f 249//249 248//248 250//250
f 251//251 249//249 252//252
f 230//230 234//234 253//253
f 234//234 240//240 254//254
f 255//255 251//251 256//256
f 246//246 257//257 258//258
f 259//259 255//255 260//260
f 261//261 259//259 262//262
f 263//263 240//240 243//243
f 243//243 264//264 263//263
f 241//241 245//245 242//242
f 265//265 242//242 245//245
f 258//258 245//245 246//246
f 245//245 258//258 265//265
f 266//266 263//263 264//264
f 264//264 267//267 266//266
f 268//268 265//265 258//258
f 269//269 266//266 267//267
f 267//267 270//270 269//269
f 240//240 263//263 271//271
f 263//263 266//266 272//272
f 266//266 269//269 273//273
f 274//274 258//258 257//257
f 257//257 275//275 274//274
f 275//275 276//276 277//277
f 258//258 274//274 268//268
f 277//277 274//274 275//275
f 276//276 278//278 279//279
f 279//279 277//277 276//276
f 278//278 280//280 281//281
f 281//281 279//279 278//278
f 282//282 268//268 274//274
f 274//274 277//277 282//282
f 283//283 282//282 277//277
f 284//284 269//269 270//270
f 270//270 285//285 284//284
f 286//286 284//284 285//285
f 277//277 279//279 283//283
f 279//279 281//281 287//287
f 285//285 288//288 286//286
f 287//287 283//283 279//279
f 289//289 286//286 288//288
f 288//288 290//290 289//289
f 291//291 261//261 292//292
f 293//293 291//291 294//294
f 295//295 293//293 296//296
f 269//269 284//284 297//297
f 284//284 286//286 298//298
f 286//286 289//289 299//299
f 247//247 71//71 61//61
f 253//253 247//247 230//230
f 106//106 250//250 248//248
f 250//250 252//252 249//249
f 254//254 253//253 234//234
f 252//252 256//256 251//251
f 300//300 116//116 71//71
f 71//71 247//247 300//300
f 117//117 301//301 302//302
f 302//302 118//118 117//117
f 303//303 300//300 247//247
f 304//304 302//302 301//301
f 305//305 120//120 118//118
f 118//118 302//302 305//305
f 306//306 305//305 302//302
f 302//302 304//304 306//306
f 247//247 253//253 303//303
f 301//301 307//307 304//304
f 308//308 304//304 307//307
f 309//309 303//303 253//253
f 253//253 254//254 309//309
f 307//307 310//310 308//308
f 304//304 308//308 311//311
f 311//311 306//306 304//304
f 312//312 311//311 308//308
f 313//313 308//308 310//310
f 308//308 313//313 312//312
f 256//256 260//260 255//255
f 260//260 262//262 259//259
f 314//314 312//312 313//313
f 271//271 254//254 240//240
f 272//272 271//271 263//263
f 273//273 272//272 266//266
f 315//315 309//309 254//254
f 254//254 271//271 315//315
f 310//310 316//316 313//313
f 313//313 317//317 314//314
f 317//317 313//313 316//316
f 318//318 315//315 271//271
f 271//271 272//272 318//318
f 316//316 319//319 317//317
f 320//320 317//317 319//319
f 321//321 318//318 272//272
f 272//272 273//273 321//321
f 262//262 292//292 261//261
f 292//292 294//294 291//291
f 294//294 296//296 293//293
f 296//296 322//322 295//295
f 297//297 273//273 269//269
f 298//298 297//297 284//284
f 299//299 298//298 286//286
f 323//323 314//314 317//317
f 317//317 320//320 323//323
f 324//324 323//323 320//320
f 320//320 325//325 324//324
f 326//326 324//324 325//325
f 325//325 327//327 326//326
f 328//328 326//326 327//327
f 327//327 329//329 328//328
f 330//330 321//321 273//273
f 319//319 331//331 320//320
f 325//325 320//320 331//331
f 331//331 332//332 325//325
f 273//273 297//297 330//330
f 333//333 330//330 297//297
f 327//327 325//325 332//332
f 329//329 327//327 334//334
f 297//297 298//298 333//333
f 332//332 334//334 327//327
f 335//335 333//333 298//298
f 298//298 299//299 335//335
f 334//334 336//336 329//329
f 337//337 338//338 339//339
f 340//340 341//341 342//342
f 341//341 343//343 344//344
f 345//345 174//174 175//175
f 175//175 346//346 345//345
f 347//347 345//345 346//346
f 346//346 348//348 347//347
f 346//346 175//175 178//178
f 178//178 349//349 346//346
f 350//350 179//179 180//180
f 180//180 351//351 350//350
f 348//348 346//346 349//349
f 352//352 350//350 351//351
f 353//353 347//347 348//348
f 338//338 353//353 354//354
f 348//348 354//354 353//353
f 354//354 339//339 338//338
f 339//339 354//354 355//355
f 349//349 356//356 348//348
f 354//354 348//348 356//356
f 351//351 357//357 352//352
f 356//356 355//355 354//354
f 358//358 352//352 357//357
f 357//357 359//359 358//358
f 189//189 360//360 361//361
f 360//360 362//362 363//363
f 351//351 180//180 214//214
f 357//357 351//351 364//364
f 362//362 340//340 365//365
f 359//359 357//357 366//366
f 280//280 367//367 368//368
f 368//368 281//281 280//280
f 367//367 369//369 370//370
f 370//370 368//368 367//367
f 369//369 371//371 372//372
f 371//371 337//337 373//373
f 373//373 372//372 371//371
f 372//372 370//370 369//369
f 281//281 368//368 374//374
f 368//368 370//370 375//375
f 374//374 287//287 281//281
f 376//376 289//289 290//290
f 290//290 377//377 376//376
f 375//375 374//374 368//368
f 378//378 376//376 377//377
f 379//379 375//375 370//370
f 370//370 372//372 379//379
f 380//380 379//379 372//372
f 381//381 382//382 383//383
f 377//377 381//381 378//378
f 383//383 378//378 381//381
f 384//384 295//295 322//322
f 385//385 386//386 387//387
f 386//386 384//384 388//388
f 343//343 385//385 389//389
f 289//289 376//376 390//390
f 376//376 378//378 391//391
f 378//378 383//383 392//392
f 339//339 373//373 337//337
f 373//373 339//339 393//393
f 355//355 393//393 339//339
f 372//372 373//373 380//380
f 393//393 380//380 373//373
f 394//394 395//395 396//396
f 396//396 397//397 394//394
f 395//395 358//358 359//359
f 359//359 396//396 395//395
f 382//382 394//394 397//397
f 397//397 383//383 382//382
f 397//397 396//396 398//398
f 396//396 359//359 399//399
f 383//383 397//397 400//400
f 389//389 344//344 343//343
f 344//344 342//342 341//341
f 401//401 402//402 403//403
f 361//361 190//190 189//189
f 363//363 361//361 360//360
f 365//365 363//363 362//362
f 214//214 364//364 351//351
f 342//342 365//365 340//340
f 364//364 366//366 357//357
f 366//366 399//399 359//359
f 404//404 224//224 225//225
f 225//225 405//405 404//404
f 406//406 404//404 405//405
f 405//405 407//407 406//406
f 224//224 404//404 408//408
f 364//364 214//214 228//228
f 228//228 409//409 364//364
f 408//408 227//227 224//224
f 404//404 406//406 410//410
f 366//366 364//364 409//409
f 410//410 408//408 404//404
f 407//407 411//411 412//412
f 412//412 406//406 407//407
f 411//411 401//401 413//413
f 413//413 412//412 411//411
f 414//414 410//410 406//406
f 409//409 415//415 366//366
f 415//415 416//416 399//399
f 406//406 412//412 414//414
f 417//417 414//414 412//412
f 399//399 366//366 415//415
f 322//322 388//388 384//384
f 388//388 387//387 386//386
f 387//387 389//389 385//385
f 390//390 299//299 289//289
f 391//391 390//390 376//376
f 392//392 391//391 378//378
f 418//418 328//328 329//329
f 329//329 419//419 418//418
f 420//420 418//418 419//419
f 419//419 421//421 420//420
f 422//422 420//420 421//421
f 402//402 422//422 423//423
f 423//423 403//403 402//402
f 421//421 423//423 422//422
f 403//403 423//423 424//424
f 419//419 329//329 336//336
f 421//421 419//419 425//425
f 426//426 335//335 299//299
f 299//299 390//390 426//426
f 336//336 425//425 419//419
f 427//427 426//426 390//390
f 423//423 421//421 428//428
f 425//425 428//428 421//421
f 428//428 424//424 423//423
f 390//390 391//391 427//427
f 429//429 427//427 391//391
f 391//391 392//392 429//429
f 398//398 400//400 397//397
f 399//399 398//398 396//396
f 400//400 392//392 383//383
f 403//403 413//413 401//401
f 413//413 403//403 430//430
f 412//412 413//413 417//417
f 430//430 417//417 413//413
f 424//424 430//430 403//403
f 400//400 398//398 431//431
f 431//431 432//432 400//400
f 398//398 399//399 416//416
f 416//416 431//431 398//398
f 432//432 429//429 392//392
f 392//392 400//400 432//432
