v -0.08000 -0.28283 0.33706
v -0.08000 -0.22000 0.38105
v -0.10000 -0.20000 0.34641
v -0.08000 -0.22000 0.38105
v -0.08000 -0.28283 0.33706
v -0.05000 -0.28925 0.34472
v -0.05000 -0.22500 0.38971
v -0.10000 -0.30642 0.25712
v -0.10000 -0.34641 0.20000
v -0.08000 -0.38105 0.22000
v -0.08000 -0.33706 0.28283
v -0.08000 -0.33706 0.28283
v -0.08000 -0.38105 0.22000
v -0.05000 -0.38971 0.22500
v -0.05000 -0.34472 0.28925
v -0.10000 -0.25712 0.30642
v -0.10000 -0.20106 0.23962
v -0.10000 -0.23962 0.20106
v 0.05000 -0.28925 0.34472
v 0.05000 -0.38971 0.22500
v 0.05000 -0.34472 0.28925
v -0.10000 -0.06946 0.39392
v -0.10000 -0.13681 0.37588
v -0.08000 -0.15049 0.41346
v -0.10000 -0.10698 0.29394
v -0.08000 -0.15049 0.41346
v -0.05000 -0.15391 0.42286
v -0.08000 -0.07641 0.43332
v -0.08000 -0.07641 0.43332
v -0.10000 0.00000 0.40000
v -0.08000 0.00000 0.44000
v -0.10000 -0.05432 0.30805
v -0.10000 0.00000 0.31280
v -0.05000 -0.07814 0.44316
v -0.08000 0.00000 0.44000
v -0.05000 0.00000 0.45000
v -0.10000 -0.15640 0.27089
v 0.05000 -0.22500 0.38971
v 0.05000 -0.15391 0.42286
v 0.05000 -0.07814 0.44316
v -0.10000 -0.15640 0.27089
v -0.10000 -0.10698 0.29394
v 0.10000 -0.10698 0.29394
v -0.10000 -0.20106 0.23962
v 0.10000 -0.15640 0.27089
v -0.10000 -0.23962 0.20106
v 0.10000 -0.20106 0.23962
v -0.10000 -0.05432 0.30805
v 0.10000 -0.05432 0.30805
v -0.10000 0.00000 0.31280
v 0.10000 0.00000 0.31280
v -0.08000 -0.41346 0.15049
v -0.08000 -0.43332 0.07641
v -0.10000 -0.37588 0.13681
v -0.08000 -0.41346 0.15049
v -0.05000 -0.42286 0.15391
v -0.05000 -0.44316 0.07814
v -0.10000 -0.27089 0.15640
v -0.10000 -0.29394 0.10698
v -0.10000 -0.39392 0.06946
v -0.10000 -0.40000 0.00000
v -0.08000 -0.44000 0.00000
v -0.10000 -0.30805 0.05432
v -0.10000 -0.31280 0.00000
v -0.08000 -0.43332 0.07641
v -0.08000 -0.44000 0.00000
v -0.05000 -0.45000 0.00000
v 0.05000 -0.42286 0.15391
v -0.10000 -0.27089 0.15640
v 0.10000 -0.23962 0.20106
v -0.10000 -0.29394 0.10698
v 0.10000 -0.27089 0.15640
v 0.05000 -0.44316 0.07814
v 0.05000 -0.45000 0.00000
v -0.10000 -0.30805 0.05432
v 0.10000 -0.29394 0.10698
v -0.10000 -0.31280 0.00000
v 0.10000 -0.30805 0.05432
v 0.08000 -0.28283 0.33706
v 0.08000 -0.22000 0.38105
v 0.08000 -0.22000 0.38105
v 0.08000 -0.28283 0.33706
v 0.10000 -0.25712 0.30642
v 0.10000 -0.20000 0.34641
v 0.08000 -0.38105 0.22000
v 0.08000 -0.33706 0.28283
v 0.08000 -0.33706 0.28283
v 0.08000 -0.38105 0.22000
v 0.10000 -0.34641 0.20000
v 0.10000 -0.30642 0.25712
v 0.10000 -0.23962 0.20106
v 0.10000 -0.20106 0.23962
v 0.05000 0.00000 0.45000
v 0.08000 -0.15049 0.41346
v 0.08000 -0.07641 0.43332
v 0.08000 -0.15049 0.41346
v 0.10000 -0.13681 0.37588
v 0.08000 -0.07641 0.43332
v 0.08000 0.00000 0.44000
v 0.10000 -0.06946 0.39392
v 0.08000 0.00000 0.44000
v 0.10000 0.00000 0.40000
v 0.10000 -0.10698 0.29394
v 0.10000 -0.05432 0.30805
v 0.10000 0.00000 0.31280
v 0.10000 -0.15640 0.27089
v 0.10000 -0.31280 0.00000
v 0.08000 -0.41346 0.15049
v 0.08000 -0.43332 0.07641
v 0.08000 -0.41346 0.15049
v 0.10000 -0.37588 0.13681
v 0.10000 -0.39392 0.06946
v 0.10000 -0.29394 0.10698
v 0.10000 -0.27089 0.15640
v 0.08000 -0.44000 0.00000
v 0.08000 -0.43332 0.07641
v 0.10000 -0.30805 0.05432
v 0.08000 -0.44000 0.00000
v 0.10000 -0.40000 0.00000
v 0.10000 -0.31280 0.00000
v -0.10000 0.06946 0.39392
v -0.08000 0.07641 0.43332
v -0.10000 0.13681 0.37588
v -0.10000 0.05432 0.30805
v -0.10000 0.10698 0.29394
v -0.08000 0.07641 0.43332
v -0.05000 0.07814 0.44316
v -0.08000 0.15049 0.41346
v -0.08000 0.15049 0.41346
v -0.10000 0.20000 0.34641
v -0.08000 0.22000 0.38105
v -0.05000 0.15391 0.42286
v -0.08000 0.22000 0.38105
v -0.05000 0.22500 0.38971
v -0.10000 0.15640 0.27089
v -0.10000 0.20106 0.23962
v -0.10000 0.25712 0.30642
v 0.05000 0.07814 0.44316
v 0.05000 0.15391 0.42286
v -0.10000 0.05432 0.30805
v 0.10000 0.05432 0.30805
v -0.10000 0.10698 0.29394
v 0.10000 0.10698 0.29394
v -0.10000 0.15640 0.27089
v 0.10000 0.15640 0.27089
v -0.10000 0.20106 0.23962
v 0.10000 0.20106 0.23962
v -0.08000 0.28283 0.33706
v -0.08000 0.28283 0.33706
v -0.05000 0.28925 0.34472
v -0.10000 0.30642 0.25712
v -0.08000 0.33706 0.28283
v -0.10000 0.23962 0.20106
v -0.10000 0.34641 0.20000
v -0.08000 0.33706 0.28283
v -0.05000 0.34472 0.28925
v -0.08000 0.38105 0.22000
v -0.08000 0.38105 0.22000
v -0.05000 0.38971 0.22500
v 0.05000 0.22500 0.38971
v 0.05000 0.28925 0.34472
v 0.05000 0.34472 0.28925
v -0.10000 0.27089 0.15640
v -0.10000 0.29394 0.10698
v -0.10000 0.37588 0.13681
v -0.08000 0.41346 0.15049
v -0.10000 0.39392 0.06946
v -0.08000 0.41346 0.15049
v -0.05000 0.42286 0.15391
v -0.08000 0.43332 0.07641
v -0.10000 0.30805 0.05432
v -0.08000 0.43332 0.07641
v -0.10000 0.31280 0.00000
v -0.10000 0.40000 0.00000
v -0.08000 0.44000 0.00000
v -0.05000 0.44316 0.07814
v -0.08000 0.44000 0.00000
v -0.05000 0.45000 0.00000
v -0.10000 0.23962 0.20106
v 0.10000 0.23962 0.20106
v -0.10000 0.27089 0.15640
v 0.10000 0.27089 0.15640
v -0.10000 0.29394 0.10698
v 0.10000 0.29394 0.10698
v 0.05000 0.38971 0.22500
v 0.05000 0.42286 0.15391
v -0.10000 0.30805 0.05432
v 0.10000 0.30805 0.05432
v -0.10000 0.31280 0.00000
v 0.10000 0.31280 0.00000
v 0.05000 0.44316 0.07814
v 0.08000 0.07641 0.43332
v 0.08000 0.07641 0.43332
v 0.10000 0.06946 0.39392
v 0.08000 0.15049 0.41346
v 0.10000 0.05432 0.30805
v 0.10000 0.13681 0.37588
v 0.08000 0.15049 0.41346
v 0.08000 0.22000 0.38105
v 0.10000 0.20000 0.34641
v 0.10000 0.10698 0.29394
v 0.08000 0.22000 0.38105
v 0.10000 0.15640 0.27089
v 0.10000 0.25712 0.30642
v 0.10000 0.20106 0.23962
v 0.08000 0.28283 0.33706
v 0.08000 0.28283 0.33706
v 0.08000 0.33706 0.28283
v 0.08000 0.33706 0.28283
v 0.10000 0.30642 0.25712
v 0.10000 0.23962 0.20106
v 0.08000 0.38105 0.22000
v 0.08000 0.38105 0.22000
v 0.10000 0.34641 0.20000
v 0.05000 0.45000 0.00000
v 0.10000 0.27089 0.15640
v 0.10000 0.37588 0.13681
v 0.10000 0.29394 0.10698
v 0.08000 0.41346 0.15049
v 0.08000 0.41346 0.15049
v 0.08000 0.43332 0.07641
v 0.10000 0.30805 0.05432
v 0.10000 0.39392 0.06946
v 0.08000 0.43332 0.07641
v 0.08000 0.44000 0.00000
v 0.10000 0.40000 0.00000
v 0.10000 0.31280 0.00000
v 0.08000 0.44000 0.00000
v -0.10000 -0.39392 -0.06946
v -0.08000 -0.43332 -0.07641
v -0.10000 -0.30805 -0.05432
v -0.08000 -0.41346 -0.15049
v -0.10000 -0.37588 -0.13681
v -0.08000 -0.43332 -0.07641
v -0.05000 -0.44316 -0.07814
v -0.05000 -0.42286 -0.15391
v -0.10000 -0.29394 -0.10698
v -0.10000 -0.34641 -0.20000
v -0.08000 -0.38105 -0.22000
v -0.08000 -0.41346 -0.15049
v -0.08000 -0.38105 -0.22000
v -0.05000 -0.38971 -0.22500
v -0.10000 -0.27089 -0.15640
v -0.10000 -0.30642 -0.25712
v -0.10000 -0.23962 -0.20106
v 0.05000 -0.44316 -0.07814
v -0.10000 -0.30805 -0.05432
v -0.10000 -0.29394 -0.10698
v 0.10000 -0.30805 -0.05432
v 0.05000 -0.42286 -0.15391
v 0.05000 -0.38971 -0.22500
v -0.10000 -0.27089 -0.15640
v 0.10000 -0.29394 -0.10698
v -0.10000 -0.23962 -0.20106
v 0.10000 -0.27089 -0.15640
v -0.10000 -0.20106 -0.23962
v 0.10000 -0.23962 -0.20106
v -0.08000 -0.33706 -0.28283
v -0.08000 -0.33706 -0.28283
v -0.05000 -0.34472 -0.28925
v -0.10000 -0.20106 -0.23962
v -0.10000 -0.25712 -0.30642
v -0.08000 -0.28283 -0.33706
v -0.08000 -0.28283 -0.33706
v -0.05000 -0.28925 -0.34472
v -0.10000 -0.20000 -0.34641
v -0.08000 -0.22000 -0.38105
v -0.08000 -0.22000 -0.38105
v -0.05000 -0.22500 -0.38971
v 0.05000 -0.34472 -0.28925
v 0.05000 -0.28925 -0.34472
v 0.05000 -0.22500 -0.38971
v -0.10000 -0.15640 -0.27089
v -0.10000 -0.13681 -0.37588
v -0.10000 -0.10698 -0.29394
v -0.10000 -0.05432 -0.30805
v -0.10000 -0.06946 -0.39392
v -0.08000 -0.15049 -0.41346
v -0.08000 -0.07641 -0.43332
v -0.08000 -0.15049 -0.41346
v -0.05000 -0.15391 -0.42286
v -0.05000 -0.07814 -0.44316
v -0.10000 0.00000 -0.31280
v -0.10000 0.00000 -0.40000
v -0.08000 0.00000 -0.44000
v -0.08000 -0.07641 -0.43332
v -0.08000 0.00000 -0.44000
v -0.05000 0.00000 -0.45000
v -0.10000 -0.15640 -0.27089
v 0.10000 -0.20106 -0.23962
v -0.10000 -0.10698 -0.29394
v 0.10000 -0.15640 -0.27089
v -0.10000 -0.05432 -0.30805
v 0.10000 -0.10698 -0.29394
v -0.10000 0.00000 -0.31280
v 0.10000 -0.05432 -0.30805
v 0.05000 -0.15391 -0.42286
v 0.05000 -0.07814 -0.44316
v 0.05000 0.00000 -0.45000
v 0.08000 -0.43332 -0.07641
v 0.08000 -0.41346 -0.15049
v 0.08000 -0.43332 -0.07641
v 0.10000 -0.39392 -0.06946
v 0.10000 -0.30805 -0.05432
v 0.10000 -0.37588 -0.13681
v 0.10000 -0.29394 -0.10698
v 0.08000 -0.38105 -0.22000
v 0.08000 -0.41346 -0.15049
v 0.10000 -0.34641 -0.20000
v 0.08000 -0.38105 -0.22000
v 0.10000 -0.27089 -0.15640
v 0.10000 -0.23962 -0.20106
v 0.10000 -0.30642 -0.25712
v 0.08000 -0.33706 -0.28283
v 0.08000 -0.33706 -0.28283
v 0.08000 -0.28283 -0.33706
v 0.10000 -0.20106 -0.23962
v 0.10000 -0.25712 -0.30642
v 0.08000 -0.28283 -0.33706
v 0.10000 -0.20000 -0.34641
v 0.08000 -0.22000 -0.38105
v 0.08000 -0.22000 -0.38105
v 0.10000 0.00000 -0.31280
v 0.10000 -0.15640 -0.27089
v 0.10000 -0.10698 -0.29394
v 0.10000 -0.05432 -0.30805
v 0.10000 -0.13681 -0.37588
v 0.08000 -0.15049 -0.41346
v 0.08000 -0.07641 -0.43332
v 0.08000 -0.15049 -0.41346
v 0.10000 -0.06946 -0.39392
v 0.08000 0.00000 -0.44000
v 0.10000 0.00000 -0.31280
v 0.10000 0.00000 -0.40000
v 0.08000 -0.07641 -0.43332
v 0.08000 0.00000 -0.44000
v -0.10000 0.29394 -0.10698
v -0.10000 0.30805 -0.05432
v -0.10000 0.39392 -0.06946
v -0.08000 0.43332 -0.07641
v -0.10000 0.37588 -0.13681
v -0.08000 0.43332 -0.07641
v -0.05000 0.44316 -0.07814
v -0.08000 0.41346 -0.15049
v -0.10000 0.27089 -0.15640
v -0.10000 0.34641 -0.20000
v -0.10000 0.23962 -0.20106
v -0.10000 0.30642 -0.25712
v -0.08000 0.41346 -0.15049
v -0.08000 0.38105 -0.22000
v -0.05000 0.42286 -0.15391
v -0.08000 0.38105 -0.22000
v -0.05000 0.38971 -0.22500
v -0.10000 0.30805 -0.05432
v 0.10000 0.30805 -0.05432
v -0.10000 0.29394 -0.10698
v 0.10000 0.29394 -0.10698
v 0.05000 0.44316 -0.07814
v -0.10000 0.27089 -0.15640
v 0.10000 0.27089 -0.15640
v -0.10000 0.23962 -0.20106
v 0.10000 0.23962 -0.20106
v 0.05000 0.42286 -0.15391
v -0.10000 0.05432 -0.30805
v -0.10000 0.10698 -0.29394
v -0.10000 0.13681 -0.37588
v -0.10000 0.15640 -0.27089
v -0.10000 0.20106 -0.23962
v -0.10000 0.25712 -0.30642
v -0.10000 0.20000 -0.34641
v -0.10000 0.06946 -0.39392
v -0.08000 0.07641 -0.43332
v -0.08000 0.15049 -0.41346
v -0.08000 0.07641 -0.43332
v -0.05000 0.07814 -0.44316
v -0.05000 0.15391 -0.42286
v -0.08000 0.22000 -0.38105
v -0.08000 0.15049 -0.41346
v -0.08000 0.22000 -0.38105
v -0.05000 0.22500 -0.38971
v -0.10000 0.05432 -0.30805
v -0.10000 0.10698 -0.29394
v 0.10000 0.05432 -0.30805
v -0.10000 0.20106 -0.23962
v 0.10000 0.20106 -0.23962
v -0.10000 0.15640 -0.27089
v 0.10000 0.15640 -0.27089
v 0.10000 0.10698 -0.29394
v 0.05000 0.07814 -0.44316
v 0.05000 0.15391 -0.42286
v 0.05000 0.22500 -0.38971
v -0.08000 0.28283 -0.33706
v -0.08000 0.33706 -0.28283
v -0.08000 0.28283 -0.33706
v -0.08000 0.33706 -0.28283
v -0.05000 0.34472 -0.28925
v -0.05000 0.28925 -0.34472
v 0.05000 0.34472 -0.28925
v 0.05000 0.38971 -0.22500
v 0.05000 0.28925 -0.34472
v 0.10000 0.30805 -0.05432
v 0.10000 0.29394 -0.10698
v 0.10000 0.37588 -0.13681
v 0.08000 0.43332 -0.07641
v 0.10000 0.39392 -0.06946
v 0.08000 0.43332 -0.07641
v 0.08000 0.41346 -0.15049
v 0.10000 0.27089 -0.15640
v 0.10000 0.34641 -0.20000
v 0.10000 0.23962 -0.20106
v 0.10000 0.30642 -0.25712
v 0.08000 0.41346 -0.15049
v 0.08000 0.38105 -0.22000
v 0.08000 0.38105 -0.22000
v 0.10000 0.10698 -0.29394
v 0.10000 0.05432 -0.30805
v 0.10000 0.06946 -0.39392
v 0.10000 0.15640 -0.27089
v 0.10000 0.13681 -0.37588
v 0.10000 0.20000 -0.34641
v 0.10000 0.20106 -0.23962
v 0.10000 0.25712 -0.30642
v 0.08000 0.07641 -0.43332
v 0.08000 0.15049 -0.41346
v 0.08000 0.07641 -0.43332
v 0.08000 0.22000 -0.38105
v 0.08000 0.15049 -0.41346
v 0.08000 0.22000 -0.38105
v 0.08000 0.33706 -0.28283
v 0.08000 0.28283 -0.33706
v 0.08000 0.33706 -0.28283
v 0.08000 0.28283 -0.33706
vn -0.8944 -0.2875 0.3426
vn -0.8944 -0.2236 0.3873
vn -0.9703 -0.1209 0.2094
vn -0.3162 -0.4743 0.8216
vn -0.3162 -0.6098 0.7267
vn -0.1588 -0.6346 0.7563
vn -0.1588 -0.4937 0.8550
vn -0.9703 -0.1852 0.1554
vn -0.9703 -0.2094 0.1209
vn -0.8944 -0.3873 0.2236
vn -0.8944 -0.3426 0.2875
vn -0.3162 -0.7267 0.6098
vn -0.3162 -0.8216 0.4743
vn -0.1588 -0.8550 0.4937
vn -0.1588 -0.7563 0.6346
vn -0.9703 -0.1554 0.1852
vn -1.0000 0.0000 0.0000
vn -1.0000 0.0000 0.0000
vn 0.1588 -0.6346 0.7563
vn 0.1588 -0.8550 0.4937
vn 0.1588 -0.7563 0.6346
vn -0.9703 -0.0420 0.2381
vn -0.9703 -0.0827 0.2272
vn -0.8944 -0.1530 0.4202
vn -1.0000 0.0000 0.0000
vn -0.3162 -0.3245 0.8915
vn -0.1588 -0.3377 0.9278
vn -0.3162 -0.1647 0.9343
vn -0.8944 -0.0777 0.4404
vn -0.9703 -0.0000 0.2418
vn -0.8944 0.0000 0.4472
vn -1.0000 0.0000 0.0000
vn -1.0000 0.0000 0.0000
vn -0.1588 -0.1714 0.9723
vn -0.3162 0.0000 0.9487
vn -0.1588 0.0000 0.9873
vn -1.0000 0.0000 0.0000
vn 0.1588 -0.4937 0.8550
vn 0.1588 -0.3377 0.9278
vn 0.1588 -0.1714 0.9723
vn 0.0000 0.5000 -0.8660
vn 0.0000 0.3420 -0.9397
vn 0.0000 0.3420 -0.9397
vn 0.0000 0.6428 -0.7660
vn 0.0000 0.5000 -0.8660
vn 0.0000 0.7660 -0.6428
vn 0.0000 0.6428 -0.7660
vn 0.0000 0.1736 -0.9848
vn 0.0000 0.1736 -0.9848
vn 0.0000 0.0000 -1.0000
vn 0.0000 0.0000 -1.0000
vn -0.8944 -0.4202 0.1530
vn -0.8944 -0.4404 0.0777
vn -0.9703 -0.2272 0.0827
vn -0.3162 -0.8915 0.3245
vn -0.1588 -0.9278 0.3377
vn -0.1588 -0.9723 0.1714
vn -1.0000 0.0000 0.0000
vn -1.0000 0.0000 0.0000
vn -0.9703 -0.2381 0.0420
vn -0.9703 -0.2418 -0.0000
vn -0.8944 -0.4472 0.0000
vn -1.0000 0.0000 0.0000
vn -1.0000 0.0000 0.0000
vn -0.3162 -0.9343 0.1647
vn -0.3162 -0.9487 0.0000
vn -0.1588 -0.9873 0.0000
vn 0.1588 -0.9278 0.3377
vn -0.0000 0.8660 -0.5000
vn -0.0000 0.7660 -0.6428
vn 0.0000 0.9397 -0.3420
vn 0.0000 0.8660 -0.5000
vn 0.1588 -0.9723 0.1714
vn 0.1588 -0.9873 -0.0000
vn 0.0000 0.9848 -0.1736
vn 0.0000 0.9397 -0.3420
vn 0.0000 1.0000 0.0000
vn 0.0000 0.9848 -0.1736
vn 0.3162 -0.6098 0.7267
vn 0.3162 -0.4743 0.8216
vn 0.8944 -0.2236 0.3873
vn 0.8944 -0.2875 0.3426
vn 0.9703 -0.1554 0.1852
vn 0.9703 -0.1209 0.2094
vn 0.3162 -0.8216 0.4743
vn 0.3162 -0.7267 0.6098
vn 0.8944 -0.3426 0.2875
vn 0.8944 -0.3873 0.2236
vn 0.9703 -0.2094 0.1209
vn 0.9703 -0.1852 0.1554
vn 1.0000 0.0000 0.0000
vn 1.0000 0.0000 0.0000
vn 0.1588 -0.0000 0.9873
vn 0.3162 -0.3245 0.8915
vn 0.8944 -0.0777 0.4404
vn 0.8944 -0.1530 0.4202
vn 0.9703 -0.0827 0.2272
vn 0.3162 -0.1647 0.9343
vn 0.3162 -0.0000 0.9487
vn 0.9703 -0.0420 0.2381
vn 0.8944 -0.0000 0.4472
vn 0.9703 0.0000 0.2418
vn 1.0000 0.0000 0.0000
vn 1.0000 0.0000 0.0000
vn 1.0000 0.0000 0.0000
vn 1.0000 0.0000 0.0000
vn 0.0000 1.0000 0.0000
vn 0.3162 -0.8915 0.3245
vn 0.3162 -0.9343 0.1647
vn 0.8944 -0.4202 0.1530
vn 0.9703 -0.2272 0.0827
vn 0.9703 -0.2381 0.0420
vn 1.0000 0.0000 0.0000
vn 1.0000 0.0000 0.0000
vn 0.3162 -0.9487 -0.0000
vn 0.8944 -0.4404 0.0777
vn 1.0000 0.0000 0.0000
vn 0.8944 -0.4472 -0.0000
vn 0.9703 -0.2418 0.0000
vn 1.0000 0.0000 0.0000
vn -0.9703 0.0420 0.2381
vn -0.8944 0.0777 0.4404
vn -0.9703 0.0827 0.2272
vn -1.0000 0.0000 0.0000
vn -1.0000 0.0000 0.0000
vn -0.3162 0.1647 0.9343
vn -0.1588 0.1714 0.9723
vn -0.3162 0.3245 0.8915
vn -0.8944 0.1530 0.4202
vn -0.9703 0.1209 0.2094
vn -0.8944 0.2236 0.3873
vn -0.1588 0.3377 0.9278
vn -0.3162 0.4743 0.8216
vn -0.1588 0.4937 0.8550
vn -1.0000 0.0000 0.0000
vn -1.0000 0.0000 0.0000
vn -0.9703 0.1554 0.1852
vn 0.1588 0.1714 0.9723
vn 0.1588 0.3377 0.9278
vn 0.0000 -0.1736 -0.9848
vn 0.0000 -0.1736 -0.9848
vn 0.0000 -0.3420 -0.9397
vn 0.0000 -0.3420 -0.9397
vn -0.0000 -0.5000 -0.8660
vn 0.0000 -0.5000 -0.8660
vn 0.0000 -0.6428 -0.7660
vn -0.0000 -0.6428 -0.7660
vn -0.8944 0.2875 0.3426
vn -0.3162 0.6098 0.7267
vn -0.1588 0.6346 0.7563
vn -0.9703 0.1852 0.1554
vn -0.8944 0.3426 0.2875
vn -1.0000 0.0000 0.0000
vn -0.9703 0.2094 0.1209
vn -0.3162 0.7267 0.6098
vn -0.1588 0.7563 0.6346
vn -0.8944 0.3873 0.2236
vn -0.3162 0.8216 0.4743
vn -0.1588 0.8550 0.4937
vn 0.1588 0.4937 0.8550
vn 0.1588 0.6346 0.7563
vn 0.1588 0.7563 0.6346
vn -1.0000 0.0000 0.0000
vn -1.0000 0.0000 0.0000
vn -0.9703 0.2272 0.0827
vn -0.8944 0.4202 0.1530
vn -0.9703 0.2381 0.0420
vn -0.3162 0.8915 0.3245
vn -0.1588 0.9278 0.3377
vn -0.3162 0.9343 0.1647
vn -1.0000 0.0000 0.0000
vn -0.8944 0.4404 0.0777
vn -1.0000 0.0000 0.0000
vn -0.9703 0.2418 0.0000
vn -0.8944 0.4472 -0.0000
vn -0.1588 0.9723 0.1714
vn -0.3162 0.9487 -0.0000
vn -0.1588 0.9873 -0.0000
vn 0.0000 -0.7660 -0.6428
vn 0.0000 -0.7660 -0.6428
vn 0.0000 -0.8660 -0.5000
vn 0.0000 -0.8660 -0.5000
vn 0.0000 -0.9397 -0.3420
vn 0.0000 -0.9397 -0.3420
vn 0.1588 0.8550 0.4937
vn 0.1588 0.9278 0.3377
vn 0.0000 -0.9848 -0.1736
vn 0.0000 -0.9848 -0.1736
vn 0.0000 -1.0000 0.0000
vn 0.0000 -1.0000 0.0000
vn 0.1588 0.9723 0.1714
vn 0.3162 0.1647 0.9343
vn 0.8944 0.0777 0.4404
vn 0.9703 0.0420 0.2381
vn 0.8944 0.1530 0.4202
vn 1.0000 0.0000 0.0000
vn 0.9703 0.0827 0.2272
vn 0.3162 0.3245 0.8915
vn 0.3162 0.4743 0.8216
vn 0.9703 0.1209 0.2094
vn 1.0000 0.0000 0.0000
vn 0.8944 0.2236 0.3873
vn 1.0000 0.0000 0.0000
vn 0.9703 0.1554 0.1852
vn 1.0000 0.0000 0.0000
vn 0.3162 0.6098 0.7267
vn 0.8944 0.2875 0.3426
vn 0.3162 0.7267 0.6098
vn 0.8944 0.3426 0.2875
vn 0.9703 0.1852 0.1554
vn 1.0000 0.0000 0.0000
vn 0.3162 0.8216 0.4743
vn 0.8944 0.3873 0.2236
vn 0.9703 0.2094 0.1209
vn 0.1588 0.9873 0.0000
vn 1.0000 0.0000 0.0000
vn 0.9703 0.2272 0.0827
vn 1.0000 0.0000 0.0000
vn 0.3162 0.8915 0.3245
vn 0.8944 0.4202 0.1530
vn 0.8944 0.4404 0.0777
vn 1.0000 0.0000 0.0000
vn 0.9703 0.2381 0.0420
vn 0.3162 0.9343 0.1647
vn 0.3162 0.9487 0.0000
vn 0.9703 0.2418 -0.0000
vn 1.0000 0.0000 0.0000
vn 0.8944 0.4472 0.0000
vn -0.9703 -0.2381 -0.0420
vn -0.8944 -0.4404 -0.0777
vn -1.0000 0.0000 0.0000
vn -0.8944 -0.4202 -0.1530
vn -0.9703 -0.2272 -0.0827
vn -0.3162 -0.9343 -0.1647
vn -0.1588 -0.9723 -0.1714
vn -0.1588 -0.9278 -0.3377
vn -1.0000 0.0000 0.0000
vn -0.9703 -0.2094 -0.1209
vn -0.8944 -0.3873 -0.2236
vn -0.3162 -0.8915 -0.3245
vn -0.3162 -0.8216 -0.4743
vn -0.1588 -0.8550 -0.4937
vn -1.0000 0.0000 0.0000
vn -0.9703 -0.1852 -0.1554
vn -1.0000 0.0000 0.0000
vn 0.1588 -0.9723 -0.1714
vn 0.0000 0.9848 0.1736
vn 0.0000 0.9397 0.3420
vn 0.0000 0.9848 0.1736
vn 0.1588 -0.9278 -0.3377
vn 0.1588 -0.8550 -0.4937
vn 0.0000 0.8660 0.5000
vn 0.0000 0.9397 0.3420
vn 0.0000 0.7660 0.6428
vn 0.0000 0.8660 0.5000
vn 0.0000 0.6428 0.7660
vn 0.0000 0.7660 0.6428
vn -0.8944 -0.3426 -0.2875
vn -0.3162 -0.7267 -0.6098
vn -0.1588 -0.7563 -0.6346
vn -1.0000 0.0000 0.0000
vn -0.9703 -0.1554 -0.1852
vn -0.8944 -0.2875 -0.3426
vn -0.3162 -0.6098 -0.7267
vn -0.1588 -0.6346 -0.7563
vn -0.9703 -0.1209 -0.2094
vn -0.8944 -0.2236 -0.3873
vn -0.3162 -0.4743 -0.8216
vn -0.1588 -0.4937 -0.8550
vn 0.1588 -0.7563 -0.6346
vn 0.1588 -0.6346 -0.7563
vn 0.1588 -0.4937 -0.8550
vn -1.0000 0.0000 0.0000
vn -0.9703 -0.0827 -0.2272
vn -1.0000 0.0000 0.0000
vn -1.0000 0.0000 0.0000
vn -0.9703 -0.0420 -0.2381
vn -0.8944 -0.1530 -0.4202
vn -0.8944 -0.0777 -0.4404
vn -0.3162 -0.3245 -0.8915
vn -0.1588 -0.3377 -0.9278
vn -0.1588 -0.1714 -0.9723
vn -1.0000 0.0000 0.0000
vn -0.9703 0.0000 -0.2418
vn -0.8944 -0.0000 -0.4472
vn -0.3162 -0.1647 -0.9343
vn -0.3162 -0.0000 -0.9487
vn -0.1588 -0.0000 -0.9873
vn -0.0000 0.5000 0.8660
vn -0.0000 0.6428 0.7660
vn 0.0000 0.3420 0.9397
vn 0.0000 0.5000 0.8660
vn 0.0000 0.1736 0.9848
vn 0.0000 0.3420 0.9397
vn 0.0000 0.0000 1.0000
vn 0.0000 0.1736 0.9848
vn 0.1588 -0.3377 -0.9278
vn 0.1588 -0.1714 -0.9723
vn 0.1588 0.0000 -0.9873
vn 0.3162 -0.9343 -0.1647
vn 0.3162 -0.8915 -0.3245
vn 0.8944 -0.4404 -0.0777
vn 0.9703 -0.2381 -0.0420
vn 1.0000 0.0000 0.0000
vn 0.9703 -0.2272 -0.0827
vn 1.0000 0.0000 0.0000
vn 0.3162 -0.8216 -0.4743
vn 0.8944 -0.4202 -0.1530
vn 0.9703 -0.2094 -0.1209
vn 0.8944 -0.3873 -0.2236
vn 1.0000 0.0000 0.0000
vn 1.0000 0.0000 0.0000
vn 0.9703 -0.1852 -0.1554
vn 0.3162 -0.7267 -0.6098
vn 0.8944 -0.3426 -0.2875
vn 0.3162 -0.6098 -0.7267
vn 1.0000 0.0000 0.0000
vn 0.9703 -0.1554 -0.1852
vn 0.8944 -0.2875 -0.3426
vn 0.9703 -0.1209 -0.2094
vn 0.3162 -0.4743 -0.8216
vn 0.8944 -0.2236 -0.3873
vn 0.0000 0.0000 1.0000
vn 1.0000 0.0000 0.0000
vn 1.0000 0.0000 0.0000
vn 1.0000 0.0000 0.0000
vn 0.9703 -0.0827 -0.2272
vn 0.3162 -0.3245 -0.8915
vn 0.3162 -0.1647 -0.9343
vn 0.8944 -0.1530 -0.4202
vn 0.9703 -0.0420 -0.2381
vn 0.3162 0.0000 -0.9487
vn 1.0000 0.0000 0.0000
vn 0.9703 -0.0000 -0.2418
vn 0.8944 -0.0777 -0.4404
vn 0.8944 0.0000 -0.4472
vn -1.0000 0.0000 0.0000
vn -1.0000 0.0000 0.0000
vn -0.9703 0.2381 -0.0420
vn -0.8944 0.4404 -0.0777
vn -0.9703 0.2272 -0.0827
vn -0.3162 0.9343 -0.1647
vn -0.1588 0.9723 -0.1714
vn -0.3162 0.8915 -0.3245
vn -1.0000 0.0000 0.0000
vn -0.9703 0.2094 -0.1209
vn -1.0000 0.0000 0.0000
vn -0.9703 0.1852 -0.1554
vn -0.8944 0.4202 -0.1530
vn -0.8944 0.3873 -0.2236
vn -0.1588 0.9278 -0.3377
vn -0.3162 0.8216 -0.4743
vn -0.1588 0.8550 -0.4937
vn 0.0000 -0.9848 0.1736
vn 0.0000 -0.9848 0.1736
vn 0.0000 -0.9397 0.3420
vn 0.0000 -0.9397 0.3420
vn 0.1588 0.9723 -0.1714
vn -0.0000 -0.8660 0.5000
vn 0.0000 -0.8660 0.5000
vn 0.0000 -0.7660 0.6428
vn -0.0000 -0.7660 0.6428
vn 0.1588 0.9278 -0.3377
vn -1.0000 0.0000 0.0000
vn -1.0000 0.0000 0.0000
vn -0.9703 0.0827 -0.2272
vn -1.0000 0.0000 0.0000
vn -1.0000 0.0000 0.0000
vn -0.9703 0.1554 -0.1852
vn -0.9703 0.1209 -0.2094
vn -0.9703 0.0420 -0.2381
vn -0.8944 0.0777 -0.4404
vn -0.8944 0.1530 -0.4202
vn -0.3162 0.1647 -0.9343
vn -0.1588 0.1714 -0.9723
vn -0.1588 0.3377 -0.9278
vn -0.8944 0.2236 -0.3873
vn -0.3162 0.3245 -0.8915
vn -0.3162 0.4743 -0.8216
vn -0.1588 0.4937 -0.8550
vn 0.0000 -0.1736 0.9848
vn 0.0000 -0.3420 0.9397
vn 0.0000 -0.1736 0.9848
vn 0.0000 -0.6428 0.7660
vn 0.0000 -0.6428 0.7660
vn 0.0000 -0.5000 0.8660
vn 0.0000 -0.5000 0.8660
vn 0.0000 -0.3420 0.9397
vn 0.1588 0.1714 -0.9723
vn 0.1588 0.3377 -0.9278
vn 0.1588 0.4937 -0.8550
vn -0.8944 0.2875 -0.3426
vn -0.8944 0.3426 -0.2875
vn -0.3162 0.6098 -0.7267
vn -0.3162 0.7267 -0.6098
vn -0.1588 0.7563 -0.6346
vn -0.1588 0.6346 -0.7563
vn 0.1588 0.7563 -0.6346
vn 0.1588 0.8550 -0.4937
vn 0.1588 0.6346 -0.7563
vn 1.0000 0.0000 0.0000
vn 1.0000 0.0000 0.0000
vn 0.9703 0.2272 -0.0827
vn 0.3162 0.9343 -0.1647
vn 0.9703 0.2381 -0.0420
vn 0.8944 0.4404 -0.0777
vn 0.8944 0.4202 -0.1530
vn 1.0000 0.0000 0.0000
vn 0.9703 0.2094 -0.1209
vn 1.0000 0.0000 0.0000
vn 0.9703 0.1852 -0.1554
vn 0.3162 0.8915 -0.3245
vn 0.3162 0.8216 -0.4743
vn 0.8944 0.3873 -0.2236
vn 1.0000 0.0000 0.0000
vn 1.0000 0.0000 0.0000
vn 0.9703 0.0420 -0.2381
vn 1.0000 0.0000 0.0000
vn 0.9703 0.0827 -0.2272
vn 0.9703 0.1209 -0.2094
vn 1.0000 0.0000 0.0000
vn 0.9703 0.1554 -0.1852
vn 0.3162 0.1647 -0.9343
vn 0.3162 0.3245 -0.8915
vn 0.8944 0.0777 -0.4404
vn 0.3162 0.4743 -0.8216
vn 0.8944 0.1530 -0.4202
vn 0.8944 0.2236 -0.3873
vn 0.3162 0.7267 -0.6098
vn 0.3162 0.6098 -0.7267
vn 0.8944 0.3426 -0.2875
vn 0.8944 0.2875 -0.3426
f 1//1 2//2 3//3
f 4//4 5//5 6//6
f 6//6 7//7 4//4
f 8//8 9//9 10//10
f 10//10 11//11 8//8
f 12//12 13//13 14//14
f 14//14 15//15 12//12
f 16//16 8//8 11//11
f 11//11 1//1 16//16
f 3//3 16//16 1//1
f 8//8 16//16 17//17
f 17//17 18//18 8//8
f 5//5 12//12 15//15
f 15//15 6//6 5//5
f 7//7 6//6 19//19
f 15//15 14//14 20//20
f 6//6 15//15 21//21
f 22//22 23//23 24//24
f 23//23 3//3 2//2
f 2//2 24//24 23//23
f 3//3 23//23 25//25
f 26//26 4//4 7//7
f 7//7 27//27 26//26
f 28//28 26//26 27//27
f 24//24 29//29 22//22
f 30//30 22//22 29//29
f 29//29 31//31 30//30
f 23//23 22//22 32//32
f 22//22 30//30 33//33
f 33//33 32//32 22//22
f 27//27 34//34 28//28
f 35//35 28//28 34//34
f 34//34 36//36 35//35
f 16//16 3//3 37//37
f 25//25 37//37 3//3
f 37//37 17//17 16//16
f 32//32 25//25 23//23
f 27//27 7//7 38//38
f 34//34 27//27 39//39
f 36//36 34//34 40//40
f 41//41 42//42 43//43
f 44//44 41//41 45//45
f 46//46 44//44 47//47
f 42//42 48//48 49//49
f 48//48 50//50 51//51
f 52//52 10//10 9//9
f 53//53 52//52 54//54
f 9//9 54//54 52//52
f 13//13 55//55 56//56
f 56//56 14//14 13//13
f 57//57 56//56 55//55
f 9//9 8//8 18//18
f 18//18 58//58 9//9
f 54//54 9//9 58//58
f 58//58 59//59 54//54
f 54//54 60//60 53//53
f 60//60 54//54 59//59
f 60//60 61//61 62//62
f 62//62 53//53 60//60
f 61//61 60//60 63//63
f 63//63 64//64 61//61
f 55//55 65//65 57//57
f 65//65 66//66 67//67
f 67//67 57//57 65//65
f 59//59 63//63 60//60
f 14//14 56//56 68//68
f 69//69 46//46 70//70
f 71//71 69//69 72//72
f 56//56 57//57 73//73
f 57//57 67//67 74//74
f 75//75 71//71 76//76
f 77//77 75//75 78//78
f 19//19 38//38 7//7
f 20//20 21//21 15//15
f 21//21 19//19 6//6
f 38//38 19//19 79//79
f 79//79 80//80 38//38
f 81//81 82//82 83//83
f 83//83 84//84 81//81
f 21//21 20//20 85//85
f 85//85 86//86 21//21
f 87//87 88//88 89//89
f 19//19 21//21 86//86
f 86//86 79//79 19//19
f 82//82 87//87 90//90
f 90//90 83//83 82//82
f 89//89 90//90 87//87
f 83//83 90//90 91//91
f 91//91 92//92 83//83
f 38//38 39//39 27//27
f 39//39 40//40 34//34
f 40//40 93//93 36//36
f 45//45 47//47 44//44
f 43//43 45//45 41//41
f 49//49 43//43 42//42
f 51//51 49//49 48//48
f 39//39 38//38 80//80
f 80//80 94//94 39//39
f 40//40 39//39 94//94
f 95//95 96//96 97//97
f 96//96 81//81 84//84
f 84//84 97//97 96//96
f 94//94 98//98 40//40
f 93//93 40//40 98//98
f 98//98 99//99 93//93
f 97//97 100//100 95//95
f 101//101 95//95 100//100
f 100//100 102//102 101//101
f 100//100 97//97 103//103
f 102//102 100//100 104//104
f 104//104 105//105 102//102
f 84//84 83//83 92//92
f 92//92 106//106 84//84
f 97//97 84//84 106//106
f 106//106 103//103 97//97
f 103//103 104//104 100//100
f 68//68 20//20 14//14
f 73//73 68//68 56//56
f 47//47 70//70 46//46
f 70//70 72//72 69//69
f 72//72 76//76 71//71
f 74//74 73//73 57//57
f 76//76 78//78 75//75
f 78//78 107//107 77//77
f 20//20 68//68 108//108
f 108//108 85//85 20//20
f 109//109 108//108 68//68
f 88//88 110//110 111//111
f 111//111 89//89 88//88
f 112//112 111//111 110//110
f 89//89 111//111 113//113
f 90//90 89//89 114//114
f 114//114 91//91 90//90
f 113//113 114//114 89//89
f 68//68 73//73 109//109
f 73//73 74//74 115//115
f 115//115 109//109 73//73
f 110//110 116//116 112//112
f 111//111 112//112 117//117
f 116//116 118//118 119//119
f 119//119 112//112 116//116
f 120//120 117//117 112//112
f 112//112 119//119 120//120
f 117//117 113//113 111//111
f 121//121 30//30 31//31
f 31//31 122//122 121//121
f 123//123 121//121 122//122
f 30//30 121//121 124//124
f 124//124 33//33 30//30
f 121//121 123//123 125//125
f 126//126 35//35 36//36
f 36//36 127//127 126//126
f 128//128 126//126 127//127
f 122//122 129//129 123//123
f 130//130 123//123 129//129
f 129//129 131//131 130//130
f 127//127 132//132 128//128
f 133//133 128//128 132//132
f 132//132 134//134 133//133
f 125//125 124//124 121//121
f 135//135 125//125 123//123
f 123//123 130//130 135//135
f 136//136 135//135 130//130
f 130//130 137//137 136//136
f 127//127 36//36 93//93
f 132//132 127//127 138//138
f 134//134 132//132 139//139
f 50//50 140//140 141//141
f 140//140 142//142 143//143
f 142//142 144//144 145//145
f 144//144 146//146 147//147
f 137//137 130//130 131//131
f 131//131 148//148 137//137
f 149//149 133//133 134//134
f 134//134 150//150 149//149
f 151//151 137//137 148//148
f 148//148 152//152 151//151
f 137//137 151//151 153//153
f 153//153 136//136 137//137
f 154//154 151//151 152//152
f 155//155 149//149 150//150
f 150//150 156//156 155//155
f 152//152 157//157 154//154
f 158//158 155//155 156//156
f 156//156 159//159 158//158
f 150//150 134//134 160//160
f 156//156 150//150 161//161
f 159//159 156//156 162//162
f 163//163 153//153 151//151
f 151//151 154//154 163//163
f 164//164 163//163 154//154
f 165//165 154//154 157//157
f 157//157 166//166 165//165
f 154//154 165//165 164//164
f 167//167 165//165 166//166
f 168//168 158//158 159//159
f 159//159 169//169 168//168
f 170//170 168//168 169//169
f 171//171 164//164 165//165
f 165//165 167//167 171//171
f 166//166 172//172 167//167
f 173//173 171//171 167//167
f 167//167 174//174 173//173
f 174//174 167//167 172//172
f 172//172 175//175 174//174
f 169//169 176//176 170//170
f 177//177 170//170 176//176
f 176//176 178//178 177//177
f 146//146 179//179 180//180
f 179//179 181//181 182//182
f 181//181 183//183 184//184
f 169//169 159//159 185//185
f 176//176 169//169 186//186
f 183//183 187//187 188//188
f 187//187 189//189 190//190
f 178//178 176//176 191//191
f 93//93 138//138 127//127
f 138//138 139//139 132//132
f 139//139 160//160 134//134
f 141//141 51//51 50//50
f 143//143 141//141 140//140
f 145//145 143//143 142//142
f 147//147 145//145 144//144
f 180//180 147//147 146//146
f 138//138 93//93 99//99
f 99//99 192//192 138//138
f 139//139 138//138 192//192
f 193//193 101//101 102//102
f 102//102 194//194 193//193
f 195//195 193//193 194//194
f 194//194 102//102 105//105
f 105//105 196//196 194//194
f 197//197 194//194 196//196
f 192//192 198//198 139//139
f 160//160 139//139 198//198
f 198//198 199//199 160//160
f 194//194 197//197 195//195
f 200//200 197//197 201//201
f 202//202 195//195 197//197
f 197//197 200//200 202//202
f 196//196 201//201 197//197
f 201//201 203//203 200//200
f 204//204 200//200 203//203
f 203//203 205//205 204//204
f 160//160 161//161 150//150
f 161//161 162//162 156//156
f 162//162 185//185 159//159
f 161//161 160//160 199//199
f 199//199 206//206 161//161
f 207//207 202//202 200//200
f 162//162 161//161 206//206
f 206//206 208//208 162//162
f 200//200 204//204 207//207
f 209//209 207//207 204//204
f 204//204 210//210 209//209
f 210//210 204//204 205//205
f 205//205 211//211 210//210
f 185//185 162//162 208//208
f 208//208 212//212 185//185
f 213//213 209//209 210//210
f 210//210 214//214 213//213
f 182//182 180//180 179//179
f 184//184 182//182 181//181
f 185//185 186//186 169//169
f 188//188 184//184 183//183
f 190//190 188//188 187//187
f 186//186 191//191 176//176
f 191//191 215//215 178//178
f 214//214 210//210 211//211
f 211//211 216//216 214//214
f 217//217 214//214 216//216
f 216//216 218//218 217//217
f 186//186 185//185 212//212
f 212//212 219//219 186//186
f 191//191 186//186 219//219
f 220//220 213//213 214//214
f 214//214 217//217 220//220
f 221//221 220//220 217//217
f 218//218 222//222 223//223
f 219//219 224//224 191//191
f 215//215 191//191 224//224
f 224//224 225//225 215//215
f 223//223 217//217 218//218
f 217//217 223//223 221//221
f 226//226 223//223 222//222
f 222//222 227//227 226//226
f 228//228 221//221 223//223
f 223//223 226//226 228//228
f 61//61 229//229 230//230
f 230//230 62//62 61//61
f 229//229 61//61 64//64
f 64//64 231//231 229//229
f 232//232 230//230 229//229
f 233//233 229//229 231//231
f 66//66 234//234 235//235
f 235//235 67//67 66//66
f 236//236 235//235 234//234
f 231//231 237//237 233//233
f 229//229 233//233 232//232
f 238//238 233//233 237//237
f 233//233 238//238 239//239
f 239//239 232//232 233//233
f 234//234 240//240 236//236
f 240//240 241//241 242//242
f 242//242 236//236 240//240
f 237//237 243//243 238//238
f 244//244 238//238 243//243
f 243//243 245//245 244//244
f 67//67 235//235 246//246
f 247//247 77//77 107//107
f 248//248 247//247 249//249
f 235//235 236//236 250//250
f 236//236 242//242 251//251
f 252//252 248//248 253//253
f 254//254 252//252 255//255
f 256//256 254//254 257//257
f 258//258 239//239 238//238
f 241//241 259//259 260//260
f 260//260 242//242 241//241
f 238//238 244//244 258//258
f 245//245 261//261 262//262
f 262//262 244//244 245//245
f 244//244 262//262 263//263
f 263//263 258//258 244//244
f 259//259 264//264 265//265
f 265//265 260//260 259//259
f 262//262 266//266 267//267
f 267//267 263//263 262//262
f 264//264 268//268 269//269
f 269//269 265//265 264//264
f 242//242 260//260 270//270
f 260//260 265//265 271//271
f 265//265 269//269 272//272
f 266//266 262//262 261//261
f 261//261 273//273 266//266
f 274//274 266//266 273//273
f 273//273 275//275 274//274
f 275//275 276//276 277//277
f 278//278 267//267 266//266
f 266//266 274//274 278//278
f 279//279 278//278 274//274
f 268//268 280//280 281//281
f 281//281 269//269 268//268
f 282//282 281//281 280//280
f 277//277 274//274 275//275
f 276//276 283//283 284//284
f 284//284 277//277 276//276
f 274//274 277//277 279//279
f 277//277 284//284 285//285
f 285//285 279//279 277//277
f 280//280 286//286 282//282
f 286//286 287//287 288//288
f 288//288 282//282 286//286
f 289//289 256//256 290//290
f 291//291 289//289 292//292
f 293//293 291//291 294//294
f 295//295 293//293 296//296
f 269//269 281//281 297//297
f 281//281 282//282 298//298
f 282//282 288//288 299//299
f 246//246 74//74 67//67
f 250//250 246//246 235//235
f 107//107 249//249 247//247
f 249//249 253//253 248//248
f 251//251 250//250 236//236
f 253//253 255//255 252//252
f 255//255 257//257 254//254
f 74//74 246//246 300//300
f 300//300 115//115 74//74
f 301//301 300//300 246//246
f 118//118 302//302 303//303
f 303//303 119//119 118//118
f 304//304 120//120 119//119
f 119//119 303//303 304//304
f 305//305 303//303 302//302
f 303//303 305//305 306//306
f 306//306 304//304 303//303
f 246//246 250//250 301//301
f 250//250 251//251 307//307
f 307//307 301//301 250//250
f 302//302 308//308 305//305
f 309//309 305//305 308//308
f 308//308 310//310 309//309
f 311//311 306//306 305//305
f 305//305 309//309 311//311
f 312//312 311//311 309//309
f 309//309 313//313 312//312
f 270//270 251//251 242//242
f 271//271 270//270 260//260
f 272//272 271//271 265//265
f 251//251 270//270 314//314
f 314//314 307//307 251//251
f 310//310 315//315 313//313
f 313//313 309//309 310//310
f 270//270 271//271 316//316
f 316//316 314//314 270//270
f 317//317 312//312 313//313
f 313//313 318//318 317//317
f 315//315 319//319 318//318
f 318//318 313//313 315//315
f 320//320 318//318 319//319
f 271//271 272//272 321//321
f 321//321 316//316 271//271
f 319//319 322//322 320//320
f 257//257 290//290 256//256
f 290//290 292//292 289//289
f 292//292 294//294 291//291
f 294//294 296//296 293//293
f 296//296 323//323 295//295
f 297//297 272//272 269//269
f 298//298 297//297 281//281
f 299//299 298//298 282//282
f 324//324 317//317 318//318
f 318//318 320//320 324//324
f 325//325 324//324 320//320
f 326//326 325//325 327//327
f 272//272 297//297 328//328
f 328//328 321//321 272//272
f 329//329 328//328 297//297
f 322//322 330//330 327//327
f 327//327 320//320 322//322
f 320//320 327//327 325//325
f 331//331 327//327 330//330
f 297//297 298//298 329//329
f 298//298 299//299 332//332
f 332//332 329//329 298//298
f 327//327 331//331 326//326
f 333//333 326//326 331//331
f 331//331 334//334 333//333
f 330//330 335//335 331//331
f 335//335 336//336 334//334
f 334//334 331//331 335//335
f 337//337 338//338 339//339
f 338//338 173//173 174//174
f 174//174 339//339 338//338
f 339//339 174//174 175//175
f 175//175 340//340 339//339
f 339//339 341//341 337//337
f 341//341 339//339 340//340
f 342//342 177//177 178//178
f 178//178 343//343 342//342
f 344//344 342//342 343//343
f 345//345 337//337 341//341
f 341//341 346//346 345//345
f 347//347 345//345 346//346
f 346//346 348//348 347//347
f 346//346 341//341 349//349
f 340//340 349//349 341//341
f 349//349 350//350 346//346
f 343//343 351//351 344//344
f 352//352 344//344 351//351
f 351//351 353//353 352//352
f 189//189 354//354 355//355
f 354//354 356//356 357//357
f 343//343 178//178 215//215
f 351//351 343//343 358//358
f 356//356 359//359 360//360
f 359//359 361//361 362//362
f 353//353 351//351 363//363
f 364//364 365//365 366//366
f 367//367 368//368 369//369
f 365//365 367//367 370//370
f 369//369 370//370 367//367
f 283//283 364//364 371//371
f 371//371 284//284 283//283
f 366//366 371//371 364//364
f 284//284 371//371 372//372
f 372//372 285//285 284//284
f 373//373 372//372 371//371
f 287//287 374//374 375//375
f 375//375 288//288 287//287
f 376//376 375//375 374//374
f 370//370 366//366 365//365
f 366//366 370//370 377//377
f 377//377 373//373 366//366
f 371//371 366//366 373//373
f 374//374 378//378 376//376
f 378//378 379//379 380//380
f 380//380 376//376 378//378
f 381//381 295//295 323//323
f 382//382 381//381 383//383
f 361//361 384//384 385//385
f 384//384 386//386 387//387
f 386//386 382//382 388//388
f 288//288 375//375 389//389
f 375//375 376//376 390//390
f 376//376 380//380 391//391
f 368//368 347//347 348//348
f 348//348 369//369 368//368
f 370//370 369//369 392//392
f 369//369 348//348 393//393
f 393//393 392//392 369//369
f 394//394 395//395 396//396
f 396//396 397//397 394//394
f 348//348 346//346 350//350
f 350//350 393//393 348//348
f 395//395 352//352 353//353
f 353//353 396//396 395//395
f 392//392 377//377 370//370
f 379//379 394//394 397//397
f 397//397 380//380 379//379
f 397//397 396//396 398//398
f 396//396 353//353 399//399
f 380//380 397//397 400//400
f 355//355 190//190 189//189
f 357//357 355//355 354//354
f 215//215 358//358 343//343
f 360//360 357//357 356//356
f 362//362 360//360 359//359
f 385//385 362//362 361//361
f 358//358 363//363 351//351
f 363//363 399//399 353//353
f 401//401 402//402 403//403
f 358//358 215//215 225//225
f 225//225 404//404 358//358
f 363//363 358//358 404//404
f 405//405 226//226 227//227
f 227//227 401//401 405//405
f 406//406 228//228 226//226
f 226//226 405//405 406//406
f 403//403 405//405 401//401
f 407//407 406//406 405//405
f 402//402 408//408 409//409
f 408//408 410//410 411//411
f 411//411 409//409 408//408
f 404//404 412//412 363//363
f 399//399 363//363 412//412
f 412//412 413//413 399//399
f 409//409 403//403 402//402
f 405//405 403//403 407//407
f 414//414 407//407 403//403
f 403//403 409//409 414//414
f 323//323 383//383 381//381
f 383//383 388//388 382//382
f 388//388 387//387 386//386
f 387//387 385//385 384//384
f 389//389 299//299 288//288
f 390//390 389//389 375//375
f 391//391 390//390 376//376
f 415//415 416//416 417//417
f 418//418 415//415 419//419
f 419//419 420//420 418//418
f 421//421 418//418 420//420
f 420//420 422//422 421//421
f 299//299 389//389 423//423
f 423//423 332//332 299//299
f 424//424 423//423 389//389
f 416//416 333//333 334//334
f 334//334 417//417 416//416
f 417//417 419//419 415//415
f 336//336 425//425 417//417
f 417//417 334//334 336//336
f 419//419 417//417 425//425
f 389//389 390//390 424//424
f 390//390 391//391 426//426
f 426//426 424//424 390//390
f 420//420 419//419 427//427
f 427//427 428//428 420//420
f 425//425 427//427 419//419
f 398//398 400//400 397//397
f 399//399 398//398 396//396
f 400//400 391//391 380//380
f 400//400 398//398 429//429
f 429//429 430//430 400//400
f 410//410 421//421 422//422
f 422//422 411//411 410//410
f 409//409 411//411 431//431
f 432//432 431//431 411//411
f 411//411 422//422 432//432
f 398//398 399//399 413//413
f 413//413 429//429 398//398
f 431//431 414//414 409//409
f 391//391 400//400 430//430
f 430//430 426//426 391//391
f 428//428 432//432 422//422
f 422//422 420//420 428//428
