v -0.15100 -0.21726 0.25892
v -0.15100 -0.16900 0.29272
v -0.17500 -0.14500 0.25115
v -0.15100 -0.16900 0.29272
v -0.15100 -0.21726 0.25892
v -0.11500 -0.22498 0.26812
v -0.11500 -0.17500 0.30311
v -0.15100 -0.25892 0.21726
v -0.15100 -0.29272 0.16900
v -0.11500 -0.30311 0.17500
v -0.11500 -0.26812 0.22498
v -0.15100 -0.25892 0.21726
v -0.17500 -0.18641 0.22215
v -0.17500 -0.22215 0.18641
v -0.15100 -0.29272 0.16900
v -0.17500 -0.15967 0.19029
v -0.17500 -0.19029 0.15967
v 0.11500 -0.22498 0.26812
v 0.11500 -0.30311 0.17500
v 0.11500 -0.26812 0.22498
v -0.15100 -0.05869 0.33287
v -0.15100 -0.11560 0.31762
v -0.11500 -0.11971 0.32889
v -0.17500 -0.09919 0.27251
v -0.15100 -0.11560 0.31762
v -0.17500 -0.05036 0.28559
v -0.15100 -0.05869 0.33287
v -0.15100 0.00000 0.33800
v -0.17500 0.00000 0.29000
v -0.15100 0.00000 0.33800
v -0.11500 -0.06078 0.34468
v -0.17500 -0.04313 0.24463
v -0.17500 0.00000 0.24840
v -0.11500 0.00000 0.35000
v -0.17500 -0.12420 0.21512
v -0.17500 -0.08496 0.23342
v 0.11500 -0.17500 0.30311
v 0.11500 -0.11971 0.32889
v 0.11500 -0.06078 0.34468
v -0.17500 -0.12420 0.21512
v -0.17500 -0.08496 0.23342
v 0.17500 -0.08496 0.23342
v -0.17500 -0.15967 0.19029
v 0.17500 -0.12420 0.21512
v -0.17500 -0.19029 0.15967
v 0.17500 -0.15967 0.19029
v -0.17500 -0.04313 0.24463
v 0.17500 -0.04313 0.24463
v -0.17500 0.00000 0.24840
v 0.17500 0.00000 0.24840
v -0.15100 -0.31762 0.11560
v -0.11500 -0.32889 0.11971
v -0.15100 -0.31762 0.11560
v -0.17500 -0.25115 0.14500
v -0.15100 -0.33287 0.05869
v -0.17500 -0.27251 0.09919
v -0.11500 -0.34468 0.06078
v -0.17500 -0.21512 0.12420
v -0.17500 -0.23342 0.08496
v -0.15100 -0.33287 0.05869
v -0.17500 -0.28559 0.05036
v -0.15100 -0.33800 0.00000
v -0.15100 -0.33800 0.00000
v -0.11500 -0.35000 0.00000
v -0.17500 -0.29000 0.00000
v -0.17500 -0.24463 0.04313
v -0.17500 -0.24840 0.00000
v 0.11500 -0.32889 0.11971
v -0.17500 -0.21512 0.12420
v 0.17500 -0.19029 0.15967
v -0.17500 -0.23342 0.08496
v 0.17500 -0.21512 0.12420
v 0.11500 -0.34468 0.06078
v 0.11500 -0.35000 0.00000
v -0.17500 -0.24463 0.04313
v 0.17500 -0.23342 0.08496
v -0.17500 -0.24840 0.00000
v 0.17500 -0.24463 0.04313
v 0.15100 -0.21726 0.25892
v 0.15100 -0.16900 0.29272
v 0.15100 -0.29272 0.16900
v 0.15100 -0.25892 0.21726
v 0.15100 -0.25892 0.21726
v 0.15100 -0.29272 0.16900
v 0.17500 -0.25115 0.14500
v 0.15100 -0.21726 0.25892
v 0.17500 -0.22215 0.18641
v 0.15100 -0.16900 0.29272
v 0.17500 -0.18641 0.22215
v 0.17500 -0.19029 0.15967
v 0.17500 -0.15967 0.19029
v 0.11500 0.00000 0.35000
v 0.15100 -0.11560 0.31762
v 0.15100 -0.05869 0.33287
v 0.15100 -0.11560 0.31762
v 0.17500 -0.09919 0.27251
v 0.17500 -0.14500 0.25115
v 0.15100 -0.05869 0.33287
v 0.15100 0.00000 0.33800
v 0.15100 0.00000 0.33800
v 0.17500 -0.05036 0.28559
v 0.17500 -0.08496 0.23342
v 0.17500 0.00000 0.29000
v 0.17500 -0.04313 0.24463
v 0.17500 -0.12420 0.21512
v 0.17500 0.00000 0.24840
v 0.17500 -0.24840 0.00000
v 0.15100 -0.31762 0.11560
v 0.17500 -0.27251 0.09919
v 0.15100 -0.33287 0.05869
v 0.15100 -0.31762 0.11560
v 0.17500 -0.28559 0.05036
v 0.17500 -0.21512 0.12420
v 0.17500 -0.23342 0.08496
v 0.15100 -0.33800 0.00000
v 0.15100 -0.33287 0.05869
v 0.17500 -0.24463 0.04313
v 0.15100 -0.33800 0.00000
v 0.17500 -0.29000 0.00000
v 0.17500 -0.24840 0.00000
v -0.15100 0.05869 0.33287
v -0.17500 0.05036 0.28559
v -0.15100 0.05869 0.33287
v -0.15100 0.11560 0.31762
v -0.11500 0.06078 0.34468
v -0.17500 0.04313 0.24463
v -0.17500 0.09919 0.27251
v -0.17500 0.08496 0.23342
v -0.15100 0.11560 0.31762
v -0.15100 0.16900 0.29272
v -0.11500 0.11971 0.32889
v -0.17500 0.14500 0.25115
v -0.15100 0.16900 0.29272
v -0.11500 0.17500 0.30311
v -0.17500 0.12420 0.21512
v -0.17500 0.18641 0.22215
v -0.17500 0.15967 0.19029
v 0.11500 0.06078 0.34468
v 0.11500 0.11971 0.32889
v -0.17500 0.04313 0.24463
v 0.17500 0.04313 0.24463
v -0.17500 0.08496 0.23342
v 0.17500 0.08496 0.23342
v -0.17500 0.12420 0.21512
v 0.17500 0.12420 0.21512
v -0.17500 0.15967 0.19029
v 0.17500 0.15967 0.19029
v -0.15100 0.21726 0.25892
v -0.11500 0.22498 0.26812
v -0.15100 0.21726 0.25892
v -0.17500 0.22215 0.18641
v -0.15100 0.25892 0.21726
v -0.15100 0.25892 0.21726
v -0.17500 0.19029 0.15967
v -0.17500 0.25115 0.14500
v -0.11500 0.26812 0.22498
v -0.15100 0.29272 0.16900
v -0.15100 0.29272 0.16900
v -0.11500 0.30311 0.17500
v 0.11500 0.17500 0.30311
v 0.11500 0.22498 0.26812
v 0.11500 0.26812 0.22498
v -0.17500 0.21512 0.12420
v -0.17500 0.23342 0.08496
v -0.17500 0.27251 0.09919
v -0.15100 0.31762 0.11560
v -0.15100 0.31762 0.11560
v -0.17500 0.28559 0.05036
v -0.15100 0.33287 0.05869
v -0.11500 0.32889 0.11971
v -0.17500 0.24463 0.04313
v -0.17500 0.24840 0.00000
v -0.15100 0.33287 0.05869
v -0.17500 0.29000 0.00000
v -0.15100 0.33800 0.00000
v -0.15100 0.33800 0.00000
v -0.11500 0.34468 0.06078
v -0.11500 0.35000 0.00000
v -0.17500 0.19029 0.15967
v 0.17500 0.19029 0.15967
v -0.17500 0.21512 0.12420
v 0.17500 0.21512 0.12420
v -0.17500 0.23342 0.08496
v 0.17500 0.23342 0.08496
v 0.11500 0.30311 0.17500
v 0.11500 0.32889 0.11971
v -0.17500 0.24463 0.04313
v 0.17500 0.24463 0.04313
v -0.17500 0.24840 0.00000
v 0.17500 0.24840 0.00000
v 0.11500 0.34468 0.06078
v 0.15100 0.05869 0.33287
v 0.15100 0.05869 0.33287
v 0.15100 0.11560 0.31762
v 0.17500 0.05036 0.28559
v 0.17500 0.09919 0.27251
v 0.17500 0.04313 0.24463
v 0.15100 0.11560 0.31762
v 0.15100 0.16900 0.29272
v 0.15100 0.16900 0.29272
v 0.17500 0.14500 0.25115
v 0.17500 0.08496 0.23342
v 0.17500 0.12420 0.21512
v 0.17500 0.18641 0.22215
v 0.17500 0.15967 0.19029
v 0.15100 0.21726 0.25892
v 0.15100 0.21726 0.25892
v 0.15100 0.25892 0.21726
v 0.15100 0.25892 0.21726
v 0.17500 0.22215 0.18641
v 0.17500 0.19029 0.15967
v 0.15100 0.29272 0.16900
v 0.15100 0.29272 0.16900
v 0.11500 0.35000 0.00000
v 0.17500 0.25115 0.14500
v 0.17500 0.21512 0.12420
v 0.17500 0.27251 0.09919
v 0.17500 0.23342 0.08496
v 0.15100 0.31762 0.11560
v 0.15100 0.31762 0.11560
v 0.15100 0.33287 0.05869
v 0.17500 0.24463 0.04313
v 0.17500 0.28559 0.05036
v 0.17500 0.24840 0.00000
v 0.17500 0.29000 0.00000
v 0.15100 0.33287 0.05869
v 0.15100 0.33800 0.00000
v 0.15100 0.33800 0.00000
v -0.15100 -0.33287 -0.05869
v -0.15100 -0.33287 -0.05869
v -0.11500 -0.34468 -0.06078
v -0.17500 -0.28559 -0.05036
v -0.15100 -0.31762 -0.11560
v -0.17500 -0.27251 -0.09919
v -0.17500 -0.24463 -0.04313
v -0.11500 -0.32889 -0.11971
v -0.17500 -0.23342 -0.08496
v -0.15100 -0.31762 -0.11560
v -0.15100 -0.29272 -0.16900
v -0.17500 -0.25115 -0.14500
v -0.15100 -0.29272 -0.16900
v -0.11500 -0.30311 -0.17500
v -0.17500 -0.21512 -0.12420
v -0.17500 -0.22215 -0.18641
v -0.17500 -0.19029 -0.15967
v 0.11500 -0.34468 -0.06078
v -0.17500 -0.24463 -0.04313
v -0.17500 -0.23342 -0.08496
v 0.17500 -0.24463 -0.04313
v 0.11500 -0.32889 -0.11971
v 0.11500 -0.30311 -0.17500
v -0.17500 -0.21512 -0.12420
v 0.17500 -0.23342 -0.08496
v -0.17500 -0.19029 -0.15967
v 0.17500 -0.21512 -0.12420
v -0.17500 -0.15967 -0.19029
v 0.17500 -0.19029 -0.15967
v -0.15100 -0.25892 -0.21726
v -0.15100 -0.25892 -0.21726
v -0.11500 -0.26812 -0.22498
v -0.17500 -0.18641 -0.22215
v -0.17500 -0.15967 -0.19029
v -0.15100 -0.21726 -0.25892
v -0.15100 -0.21726 -0.25892
v -0.11500 -0.22498 -0.26812
v -0.15100 -0.16900 -0.29272
v -0.15100 -0.16900 -0.29272
v -0.11500 -0.17500 -0.30311
v 0.11500 -0.26812 -0.22498
v 0.11500 -0.22498 -0.26812
v 0.11500 -0.17500 -0.30311
v -0.17500 -0.14500 -0.25115
v -0.17500 -0.12420 -0.21512
v -0.17500 -0.08496 -0.23342
v -0.17500 -0.09919 -0.27251
v -0.17500 -0.04313 -0.24463
v -0.17500 -0.05036 -0.28559
v -0.17500 0.00000 -0.24840
v -0.17500 0.00000 -0.29000
v -0.15100 -0.11560 -0.31762
v -0.15100 -0.11560 -0.31762
v -0.11500 -0.11971 -0.32889
v -0.15100 -0.05869 -0.33287
v -0.11500 -0.06078 -0.34468
v -0.15100 0.00000 -0.33800
v -0.15100 -0.05869 -0.33287
v -0.15100 0.00000 -0.33800
v -0.11500 0.00000 -0.35000
v -0.17500 -0.12420 -0.21512
v 0.17500 -0.15967 -0.19029
v -0.17500 -0.08496 -0.23342
v 0.17500 -0.12420 -0.21512
v -0.17500 -0.04313 -0.24463
v 0.17500 -0.08496 -0.23342
v -0.17500 0.00000 -0.24840
v 0.17500 -0.04313 -0.24463
v 0.11500 -0.11971 -0.32889
v 0.11500 -0.06078 -0.34468
v 0.11500 0.00000 -0.35000
v 0.15100 -0.33287 -0.05869
v 0.15100 -0.33287 -0.05869
v 0.17500 -0.28559 -0.05036
v 0.17500 -0.24463 -0.04313
v 0.15100 -0.31762 -0.11560
v 0.17500 -0.27251 -0.09919
v 0.17500 -0.23342 -0.08496
v 0.15100 -0.29272 -0.16900
v 0.15100 -0.31762 -0.11560
v 0.17500 -0.25115 -0.14500
v 0.15100 -0.29272 -0.16900
v 0.17500 -0.21512 -0.12420
v 0.17500 -0.19029 -0.15967
v 0.17500 -0.22215 -0.18641
v 0.15100 -0.25892 -0.21726
v 0.15100 -0.21726 -0.25892
v 0.15100 -0.25892 -0.21726
v 0.17500 -0.18641 -0.22215
v 0.17500 -0.15967 -0.19029
v 0.15100 -0.21726 -0.25892
v 0.17500 -0.14500 -0.25115
v 0.15100 -0.16900 -0.29272
v 0.15100 -0.16900 -0.29272
v 0.17500 0.00000 -0.24840
v 0.17500 -0.12420 -0.21512
v 0.17500 -0.08496 -0.23342
v 0.17500 -0.09919 -0.27251
v 0.17500 -0.04313 -0.24463
v 0.17500 0.00000 -0.24840
v 0.17500 -0.05036 -0.28559
v 0.15100 -0.11560 -0.31762
v 0.15100 -0.11560 -0.31762
v 0.15100 -0.05869 -0.33287
v 0.15100 0.00000 -0.33800
v 0.17500 0.00000 -0.29000
v 0.15100 -0.05869 -0.33287
v 0.15100 0.00000 -0.33800
v -0.17500 0.24463 -0.04313
v -0.17500 0.23342 -0.08496
v -0.17500 0.28559 -0.05036
v -0.15100 0.33287 -0.05869
v -0.15100 0.33287 -0.05869
v -0.17500 0.27251 -0.09919
v -0.15100 0.31762 -0.11560
v -0.11500 0.34468 -0.06078
v -0.17500 0.21512 -0.12420
v -0.17500 0.25115 -0.14500
v -0.17500 0.19029 -0.15967
v -0.17500 0.22215 -0.18641
v -0.15100 0.29272 -0.16900
v -0.15100 0.31762 -0.11560
v -0.15100 0.29272 -0.16900
v -0.11500 0.32889 -0.11971
v -0.11500 0.30311 -0.17500
v -0.17500 0.24463 -0.04313
v 0.17500 0.24463 -0.04313
v -0.17500 0.23342 -0.08496
v 0.17500 0.23342 -0.08496
v 0.11500 0.34468 -0.06078
v -0.17500 0.21512 -0.12420
v 0.17500 0.21512 -0.12420
v -0.17500 0.19029 -0.15967
v 0.17500 0.19029 -0.15967
v 0.11500 0.32889 -0.11971
v -0.17500 0.04313 -0.24463
v -0.17500 0.05036 -0.28559
v -0.17500 0.08496 -0.23342
v -0.17500 0.09919 -0.27251
v -0.17500 0.12420 -0.21512
v -0.17500 0.15967 -0.19029
v -0.17500 0.18641 -0.22215
v -0.17500 0.14500 -0.25115
v -0.15100 0.05869 -0.33287
v -0.15100 0.05869 -0.33287
v -0.11500 0.06078 -0.34468
v -0.15100 0.11560 -0.31762
v -0.11500 0.11971 -0.32889
v -0.15100 0.16900 -0.29272
v -0.15100 0.11560 -0.31762
v -0.15100 0.16900 -0.29272
v -0.11500 0.17500 -0.30311
v -0.17500 0.04313 -0.24463
v -0.17500 0.08496 -0.23342
v 0.17500 0.04313 -0.24463
v -0.17500 0.15967 -0.19029
v 0.17500 0.15967 -0.19029
v -0.17500 0.12420 -0.21512
v 0.17500 0.12420 -0.21512
v 0.17500 0.08496 -0.23342
v 0.11500 0.06078 -0.34468
v 0.11500 0.11971 -0.32889
v 0.11500 0.17500 -0.30311
v -0.15100 0.25892 -0.21726
v -0.15100 0.21726 -0.25892
v -0.15100 0.21726 -0.25892
v -0.15100 0.25892 -0.21726
v -0.11500 0.26812 -0.22498
v -0.11500 0.22498 -0.26812
v 0.11500 0.26812 -0.22498
v 0.11500 0.30311 -0.17500
v 0.11500 0.22498 -0.26812
v 0.17500 0.24463 -0.04313
v 0.17500 0.28559 -0.05036
v 0.17500 0.23342 -0.08496
v 0.17500 0.27251 -0.09919
v 0.15100 0.33287 -0.05869
v 0.15100 0.33287 -0.05869
v 0.15100 0.31762 -0.11560
v 0.17500 0.21512 -0.12420
v 0.17500 0.25115 -0.14500
v 0.17500 0.19029 -0.15967
v 0.17500 0.22215 -0.18641
v 0.15100 0.31762 -0.11560
v 0.15100 0.29272 -0.16900
v 0.15100 0.29272 -0.16900
v 0.17500 0.04313 -0.24463
v 0.17500 0.08496 -0.23342
v 0.17500 0.05036 -0.28559
v 0.17500 0.12420 -0.21512
v 0.17500 0.09919 -0.27251
v 0.17500 0.14500 -0.25115
v 0.17500 0.15967 -0.19029
v 0.17500 0.18641 -0.22215
v 0.15100 0.16900 -0.29272
v 0.15100 0.05869 -0.33287
v 0.15100 0.05869 -0.33287
v 0.15100 0.11560 -0.31762
v 0.15100 0.16900 -0.29272
v 0.15100 0.11560 -0.31762
v 0.15100 0.25892 -0.21726
v 0.15100 0.25892 -0.21726
v 0.15100 0.21726 -0.25892
v 0.15100 0.21726 -0.25892
vn -0.8944 -0.2875 0.3426
vn -0.8944 -0.2236 0.3873
vn -0.9703 -0.1209 0.2094
vn -0.3162 -0.4743 0.8216
vn -0.3162 -0.6098 0.7267
vn -0.1588 -0.6346 0.7563
vn -0.1588 -0.4937 0.8550
vn -0.3162 -0.7267 0.6098
vn -0.3162 -0.8216 0.4743
vn -0.1588 -0.8550 0.4937
vn -0.1588 -0.7563 0.6346
vn -0.8944 -0.3426 0.2875
vn -0.9703 -0.1554 0.1852
vn -0.9703 -0.1852 0.1554
vn -0.8944 -0.3873 0.2236
vn -1.0000 0.0000 0.0000
vn -1.0000 0.0000 0.0000
vn 0.1588 -0.6346 0.7563
vn 0.1588 -0.8550 0.4937
vn 0.1588 -0.7563 0.6346
vn -0.3162 -0.1647 0.9343
vn -0.3162 -0.3245 0.8915
vn -0.1588 -0.3377 0.9278
vn -0.9703 -0.0827 0.2272
vn -0.8944 -0.1530 0.4202
vn -0.9703 -0.0420 0.2381
vn -0.8944 -0.0777 0.4404
vn -0.8944 -0.0000 0.4472
vn -0.9703 0.0000 0.2418
vn -0.3162 0.0000 0.9487
vn -0.1588 -0.1714 0.9723
vn -1.0000 0.0000 0.0000
vn -1.0000 0.0000 0.0000
vn -0.1588 0.0000 0.9873
vn -1.0000 0.0000 0.0000
vn -1.0000 0.0000 0.0000
vn 0.1588 -0.4937 0.8550
vn 0.1588 -0.3377 0.9278
vn 0.1588 -0.1714 0.9723
vn 0.0000 0.5000 -0.8660
vn 0.0000 0.3420 -0.9397
vn 0.0000 0.3420 -0.9397
vn -0.0000 0.6428 -0.7660
vn -0.0000 0.5000 -0.8660
vn 0.0000 0.7660 -0.6428
vn 0.0000 0.6428 -0.7660
vn 0.0000 0.1736 -0.9848
vn 0.0000 0.1736 -0.9848
vn 0.0000 0.0000 -1.0000
vn 0.0000 -0.0000 -1.0000
vn -0.3162 -0.8915 0.3245
vn -0.1588 -0.9278 0.3377
vn -0.8944 -0.4202 0.1530
vn -0.9703 -0.2094 0.1209
vn -0.8944 -0.4404 0.0777
vn -0.9703 -0.2272 0.0827
vn -0.1588 -0.9723 0.1714
vn -1.0000 0.0000 0.0000
vn -1.0000 0.0000 0.0000
vn -0.3162 -0.9343 0.1647
vn -0.9703 -0.2381 0.0420
vn -0.8944 -0.4472 -0.0000
vn -0.3162 -0.9487 0.0000
vn -0.1588 -0.9873 -0.0000
vn -0.9703 -0.2418 0.0000
vn -1.0000 0.0000 0.0000
vn -1.0000 0.0000 0.0000
vn 0.1588 -0.9278 0.3377
vn 0.0000 0.8660 -0.5000
vn 0.0000 0.7660 -0.6428
vn 0.0000 0.9397 -0.3420
vn 0.0000 0.8660 -0.5000
vn 0.1588 -0.9723 0.1714
vn 0.1588 -0.9873 0.0000
vn 0.0000 0.9848 -0.1736
vn 0.0000 0.9397 -0.3420
vn 0.0000 1.0000 0.0000
vn 0.0000 0.9848 -0.1736
vn 0.3162 -0.6098 0.7267
vn 0.3162 -0.4743 0.8216
vn 0.3162 -0.8216 0.4743
vn 0.3162 -0.7267 0.6098
vn 0.8944 -0.3426 0.2875
vn 0.8944 -0.3873 0.2236
vn 0.9703 -0.2094 0.1209
vn 0.8944 -0.2875 0.3426
vn 0.9703 -0.1852 0.1554
vn 0.8944 -0.2236 0.3873
vn 0.9703 -0.1554 0.1852
vn 1.0000 0.0000 0.0000
vn 1.0000 0.0000 0.0000
vn 0.1588 0.0000 0.9873
vn 0.3162 -0.3245 0.8915
vn 0.8944 -0.0777 0.4404
vn 0.8944 -0.1530 0.4202
vn 0.9703 -0.0827 0.2272
vn 0.9703 -0.1209 0.2094
vn 0.3162 -0.1647 0.9343
vn 0.3162 -0.0000 0.9487
vn 0.8944 0.0000 0.4472
vn 0.9703 -0.0420 0.2381
vn 1.0000 0.0000 0.0000
vn 0.9703 -0.0000 0.2418
vn 1.0000 0.0000 0.0000
vn 1.0000 0.0000 0.0000
vn 1.0000 0.0000 0.0000
vn 0.0000 1.0000 -0.0000
vn 0.3162 -0.8915 0.3245
vn 0.9703 -0.2272 0.0827
vn 0.3162 -0.9343 0.1647
vn 0.8944 -0.4202 0.1530
vn 0.9703 -0.2381 0.0420
vn 1.0000 0.0000 0.0000
vn 1.0000 0.0000 0.0000
vn 0.3162 -0.9487 -0.0000
vn 0.8944 -0.4404 0.0777
vn 1.0000 0.0000 0.0000
vn 0.8944 -0.4472 0.0000
vn 0.9703 -0.2418 -0.0000
vn 1.0000 0.0000 0.0000
vn -0.8944 0.0777 0.4404
vn -0.9703 0.0420 0.2381
vn -0.3162 0.1647 0.9343
vn -0.3162 0.3245 0.8915
vn -0.1588 0.1714 0.9723
vn -1.0000 0.0000 0.0000
vn -0.9703 0.0827 0.2272
vn -1.0000 0.0000 0.0000
vn -0.8944 0.1530 0.4202
vn -0.3162 0.4743 0.8216
vn -0.1588 0.3377 0.9278
vn -0.9703 0.1209 0.2094
vn -0.8944 0.2236 0.3873
vn -0.1588 0.4937 0.8550
vn -1.0000 0.0000 0.0000
vn -0.9703 0.1554 0.1852
vn -1.0000 0.0000 0.0000
vn 0.1588 0.1714 0.9723
vn 0.1588 0.3377 0.9278
vn 0.0000 -0.1736 -0.9848
vn 0.0000 -0.1736 -0.9848
vn 0.0000 -0.3420 -0.9397
vn 0.0000 -0.3420 -0.9397
vn 0.0000 -0.5000 -0.8660
vn 0.0000 -0.5000 -0.8660
vn 0.0000 -0.6428 -0.7660
vn 0.0000 -0.6428 -0.7660
vn -0.3162 0.6098 0.7267
vn -0.1588 0.6346 0.7563
vn -0.8944 0.2875 0.3426
vn -0.9703 0.1852 0.1554
vn -0.8944 0.3426 0.2875
vn -0.3162 0.7267 0.6098
vn -1.0000 0.0000 0.0000
vn -0.9703 0.2094 0.1209
vn -0.1588 0.7563 0.6346
vn -0.8944 0.3873 0.2236
vn -0.3162 0.8216 0.4743
vn -0.1588 0.8550 0.4937
vn 0.1588 0.4937 0.8550
vn 0.1588 0.6346 0.7563
vn 0.1588 0.7563 0.6346
vn -1.0000 0.0000 0.0000
vn -1.0000 0.0000 0.0000
vn -0.9703 0.2272 0.0827
vn -0.3162 0.8915 0.3245
vn -0.8944 0.4202 0.1530
vn -0.9703 0.2381 0.0420
vn -0.3162 0.9343 0.1647
vn -0.1588 0.9278 0.3377
vn -1.0000 0.0000 0.0000
vn -1.0000 0.0000 0.0000
vn -0.8944 0.4404 0.0777
vn -0.9703 0.2418 -0.0000
vn -0.8944 0.4472 0.0000
vn -0.3162 0.9487 -0.0000
vn -0.1588 0.9723 0.1714
vn -0.1588 0.9873 0.0000
vn -0.0000 -0.7660 -0.6428
vn 0.0000 -0.7660 -0.6428
vn 0.0000 -0.8660 -0.5000
vn -0.0000 -0.8660 -0.5000
vn 0.0000 -0.9397 -0.3420
vn 0.0000 -0.9397 -0.3420
vn 0.1588 0.8550 0.4937
vn 0.1588 0.9278 0.3377
vn 0.0000 -0.9848 -0.1736
vn 0.0000 -0.9848 -0.1736
vn 0.0000 -1.0000 -0.0000
vn 0.0000 -1.0000 0.0000
vn 0.1588 0.9723 0.1714
vn 0.3162 0.1647 0.9343
vn 0.8944 0.0777 0.4404
vn 0.8944 0.1530 0.4202
vn 0.9703 0.0420 0.2381
vn 0.9703 0.0827 0.2272
vn 1.0000 0.0000 0.0000
vn 0.3162 0.3245 0.8915
vn 0.8944 0.2236 0.3873
vn 0.3162 0.4743 0.8216
vn 0.9703 0.1209 0.2094
vn 1.0000 0.0000 0.0000
vn 1.0000 0.0000 0.0000
vn 0.9703 0.1554 0.1852
vn 1.0000 0.0000 0.0000
vn 0.3162 0.6098 0.7267
vn 0.8944 0.2875 0.3426
vn 0.3162 0.7267 0.6098
vn 0.8944 0.3426 0.2875
vn 0.9703 0.1852 0.1554
vn 1.0000 0.0000 0.0000
vn 0.8944 0.3873 0.2236
vn 0.3162 0.8216 0.4743
vn 0.1588 0.9873 -0.0000
vn 0.9703 0.2094 0.1209
vn 1.0000 0.0000 0.0000
vn 0.9703 0.2272 0.0827
vn 1.0000 0.0000 0.0000
vn 0.3162 0.8915 0.3245
vn 0.8944 0.4202 0.1530
vn 0.8944 0.4404 0.0777
vn 1.0000 0.0000 0.0000
vn 0.9703 0.2381 0.0420
vn 1.0000 0.0000 0.0000
vn 0.9703 0.2418 0.0000
vn 0.3162 0.9343 0.1647
vn 0.8944 0.4472 -0.0000
vn 0.3162 0.9487 0.0000
vn -0.8944 -0.4404 -0.0777
vn -0.3162 -0.9343 -0.1647
vn -0.1588 -0.9723 -0.1714
vn -0.9703 -0.2381 -0.0420
vn -0.8944 -0.4202 -0.1530
vn -0.9703 -0.2272 -0.0827
vn -1.0000 0.0000 0.0000
vn -0.1588 -0.9278 -0.3377
vn -1.0000 0.0000 0.0000
vn -0.3162 -0.8915 -0.3245
vn -0.8944 -0.3873 -0.2236
vn -0.9703 -0.2094 -0.1209
vn -0.3162 -0.8216 -0.4743
vn -0.1588 -0.8550 -0.4937
vn -1.0000 0.0000 0.0000
vn -0.9703 -0.1852 -0.1554
vn -1.0000 0.0000 0.0000
vn 0.1588 -0.9723 -0.1714
vn 0.0000 0.9848 0.1736
vn 0.0000 0.9397 0.3420
vn 0.0000 0.9848 0.1736
vn 0.1588 -0.9278 -0.3377
vn 0.1588 -0.8550 -0.4937
vn 0.0000 0.8660 0.5000
vn 0.0000 0.9397 0.3420
vn -0.0000 0.7660 0.6428
vn -0.0000 0.8660 0.5000
vn 0.0000 0.6428 0.7660
vn 0.0000 0.7660 0.6428
vn -0.8944 -0.3426 -0.2875
vn -0.3162 -0.7267 -0.6098
vn -0.1588 -0.7563 -0.6346
vn -0.9703 -0.1554 -0.1852
vn -1.0000 0.0000 0.0000
vn -0.8944 -0.2875 -0.3426
vn -0.3162 -0.6098 -0.7267
vn -0.1588 -0.6346 -0.7563
vn -0.8944 -0.2236 -0.3873
vn -0.3162 -0.4743 -0.8216
vn -0.1588 -0.4937 -0.8550
vn 0.1588 -0.7563 -0.6346
vn 0.1588 -0.6346 -0.7563
vn 0.1588 -0.4937 -0.8550
vn -0.9703 -0.1209 -0.2094
vn -1.0000 0.0000 0.0000
vn -1.0000 0.0000 0.0000
vn -0.9703 -0.0827 -0.2272
vn -1.0000 0.0000 0.0000
vn -0.9703 -0.0420 -0.2381
vn -1.0000 0.0000 0.0000
vn -0.9703 -0.0000 -0.2418
vn -0.8944 -0.1530 -0.4202
vn -0.3162 -0.3245 -0.8915
vn -0.1588 -0.3377 -0.9278
vn -0.8944 -0.0777 -0.4404
vn -0.1588 -0.1714 -0.9723
vn -0.8944 0.0000 -0.4472
vn -0.3162 -0.1647 -0.9343
vn -0.3162 -0.0000 -0.9487
vn -0.1588 0.0000 -0.9873
vn 0.0000 0.5000 0.8660
vn 0.0000 0.6428 0.7660
vn 0.0000 0.3420 0.9397
vn 0.0000 0.5000 0.8660
vn 0.0000 0.1736 0.9848
vn 0.0000 0.3420 0.9397
vn 0.0000 -0.0000 1.0000
vn 0.0000 0.1736 0.9848
vn 0.1588 -0.3377 -0.9278
vn 0.1588 -0.1714 -0.9723
vn 0.1588 -0.0000 -0.9873
vn 0.3162 -0.9343 -0.1647
vn 0.8944 -0.4404 -0.0777
vn 0.9703 -0.2381 -0.0420
vn 1.0000 0.0000 0.0000
vn 0.3162 -0.8915 -0.3245
vn 0.9703 -0.2272 -0.0827
vn 1.0000 0.0000 0.0000
vn 0.3162 -0.8216 -0.4743
vn 0.8944 -0.4202 -0.1530
vn 0.9703 -0.2094 -0.1209
vn 0.8944 -0.3873 -0.2236
vn 1.0000 0.0000 0.0000
vn 1.0000 0.0000 0.0000
vn 0.9703 -0.1852 -0.1554
vn 0.3162 -0.7267 -0.6098
vn 0.3162 -0.6098 -0.7267
vn 0.8944 -0.3426 -0.2875
vn 0.9703 -0.1554 -0.1852
vn 1.0000 0.0000 0.0000
vn 0.8944 -0.2875 -0.3426
vn 0.9703 -0.1209 -0.2094
vn 0.3162 -0.4743 -0.8216
vn 0.8944 -0.2236 -0.3873
vn 0.0000 0.0000 1.0000
vn 1.0000 0.0000 0.0000
vn 1.0000 0.0000 0.0000
vn 0.9703 -0.0827 -0.2272
vn 1.0000 0.0000 0.0000
vn 1.0000 0.0000 0.0000
vn 0.9703 -0.0420 -0.2381
vn 0.3162 -0.3245 -0.8915
vn 0.8944 -0.1530 -0.4202
vn 0.3162 -0.1647 -0.9343
vn 0.3162 0.0000 -0.9487
vn 0.9703 0.0000 -0.2418
vn 0.8944 -0.0777 -0.4404
vn 0.8944 -0.0000 -0.4472
vn -1.0000 0.0000 0.0000
vn -1.0000 0.0000 0.0000
vn -0.9703 0.2381 -0.0420
vn -0.8944 0.4404 -0.0777
vn -0.3162 0.9343 -0.1647
vn -0.9703 0.2272 -0.0827
vn -0.3162 0.8915 -0.3245
vn -0.1588 0.9723 -0.1714
vn -1.0000 0.0000 0.0000
vn -0.9703 0.2094 -0.1209
vn -1.0000 0.0000 0.0000
vn -0.9703 0.1852 -0.1554
vn -0.8944 0.3873 -0.2236
vn -0.8944 0.4202 -0.1530
vn -0.3162 0.8216 -0.4743
vn -0.1588 0.9278 -0.3377
vn -0.1588 0.8550 -0.4937
vn 0.0000 -0.9848 0.1736
vn 0.0000 -0.9848 0.1736
vn 0.0000 -0.9397 0.3420
vn 0.0000 -0.9397 0.3420
vn 0.1588 0.9723 -0.1714
vn 0.0000 -0.8660 0.5000
vn 0.0000 -0.8660 0.5000
vn 0.0000 -0.7660 0.6428
vn 0.0000 -0.7660 0.6428
vn 0.1588 0.9278 -0.3377
vn -1.0000 0.0000 0.0000
vn -0.9703 0.0420 -0.2381
vn -1.0000 0.0000 0.0000
vn -0.9703 0.0827 -0.2272
vn -1.0000 0.0000 0.0000
vn -1.0000 0.0000 0.0000
vn -0.9703 0.1554 -0.1852
vn -0.9703 0.1209 -0.2094
vn -0.8944 0.0777 -0.4404
vn -0.3162 0.1647 -0.9343
vn -0.1588 0.1714 -0.9723
vn -0.8944 0.1530 -0.4202
vn -0.1588 0.3377 -0.9278
vn -0.8944 0.2236 -0.3873
vn -0.3162 0.3245 -0.8915
vn -0.3162 0.4743 -0.8216
vn -0.1588 0.4937 -0.8550
vn 0.0000 -0.1736 0.9848
vn 0.0000 -0.3420 0.9397
vn 0.0000 -0.1736 0.9848
vn -0.0000 -0.6428 0.7660
vn 0.0000 -0.6428 0.7660
vn 0.0000 -0.5000 0.8660
vn -0.0000 -0.5000 0.8660
vn 0.0000 -0.3420 0.9397
vn 0.1588 0.1714 -0.9723
vn 0.1588 0.3377 -0.9278
vn 0.1588 0.4937 -0.8550
vn -0.8944 0.3426 -0.2875
vn -0.8944 0.2875 -0.3426
vn -0.3162 0.6098 -0.7267
vn -0.3162 0.7267 -0.6098
vn -0.1588 0.7563 -0.6346
vn -0.1588 0.6346 -0.7563
vn 0.1588 0.7563 -0.6346
vn 0.1588 0.8550 -0.4937
vn 0.1588 0.6346 -0.7563
vn 1.0000 0.0000 0.0000
vn 0.9703 0.2381 -0.0420
vn 1.0000 0.0000 0.0000
vn 0.9703 0.2272 -0.0827
vn 0.3162 0.9343 -0.1647
vn 0.8944 0.4404 -0.0777
vn 0.8944 0.4202 -0.1530
vn 1.0000 0.0000 0.0000
vn 0.9703 0.2094 -0.1209
vn 1.0000 0.0000 0.0000
vn 0.9703 0.1852 -0.1554
vn 0.3162 0.8915 -0.3245
vn 0.8944 0.3873 -0.2236
vn 0.3162 0.8216 -0.4743
vn 1.0000 0.0000 0.0000
vn 1.0000 0.0000 0.0000
vn 0.9703 0.0420 -0.2381
vn 1.0000 0.0000 0.0000
vn 0.9703 0.0827 -0.2272
vn 0.9703 0.1209 -0.2094
vn 1.0000 0.0000 0.0000
vn 0.9703 0.1554 -0.1852
vn 0.8944 0.2236 -0.3873
vn 0.3162 0.1647 -0.9343
vn 0.8944 0.0777 -0.4404
vn 0.3162 0.3245 -0.8915
vn 0.3162 0.4743 -0.8216
vn 0.8944 0.1530 -0.4202
vn 0.3162 0.7267 -0.6098
vn 0.8944 0.3426 -0.2875
vn 0.8944 0.2875 -0.3426
vn 0.3162 0.6098 -0.7267
f 1//1 2//2 3//3
f 4//4 5//5 6//6
f 6//6 7//7 4//4
f 8//8 9//9 10//10
f 10//10 11//11 8//8
f 12//12 1//1 13//13
f 5//5 8//8 11//11
f 3//3 13//13 1//1
f 13//13 14//14 12//12
f 15//15 12//12 14//14
f 14//14 13//13 16//16
f 16//16 17//17 14//14
f 11//11 6//6 5//5
f 7//7 6//6 18//18
f 11//11 10//10 19//19
f 6//6 11//11 20//20
f 21//21 22//22 23//23
f 24//24 3//3 2//2
f 22//22 4//4 7//7
f 2//2 25//25 24//24
f 26//26 24//24 25//25
f 7//7 23//23 22//22
f 25//25 27//27 26//26
f 27//27 28//28 29//29
f 30//30 21//21 31//31
f 24//24 26//26 32//32
f 29//29 26//26 27//27
f 26//26 29//29 33//33
f 23//23 31//31 21//21
f 31//31 34//34 30//30
f 13//13 3//3 35//35
f 3//3 24//24 36//36
f 36//36 35//35 3//3
f 35//35 16//16 13//13
f 32//32 36//36 24//24
f 33//33 32//32 26//26
f 23//23 7//7 37//37
f 31//31 23//23 38//38
f 34//34 31//31 39//39
f 40//40 41//41 42//42
f 43//43 40//40 44//44
f 45//45 43//43 46//46
f 41//41 47//47 48//48
f 47//47 49//49 50//50
f 9//9 51//51 52//52
f 53//53 15//15 54//54
f 55//55 53//53 56//56
f 54//54 56//56 53//53
f 52//52 10//10 9//9
f 57//57 52//52 51//51
f 14//14 54//54 15//15
f 54//54 14//14 17//17
f 17//17 58//58 54//54
f 56//56 54//54 58//58
f 58//58 59//59 56//56
f 51//51 60//60 57//57
f 56//56 61//61 55//55
f 61//61 56//56 59//59
f 62//62 55//55 61//61
f 60//60 63//63 64//64
f 65//65 61//61 66//66
f 61//61 65//65 62//62
f 64//64 57//57 60//60
f 59//59 66//66 61//61
f 66//66 67//67 65//65
f 10//10 52//52 68//68
f 69//69 45//45 70//70
f 71//71 69//69 72//72
f 52//52 57//57 73//73
f 57//57 64//64 74//74
f 75//75 71//71 76//76
f 77//77 75//75 78//78
f 18//18 37//37 7//7
f 19//19 20//20 11//11
f 20//20 18//18 6//6
f 37//37 18//18 79//79
f 79//79 80//80 37//37
f 20//20 19//19 81//81
f 81//81 82//82 20//20
f 83//83 84//84 85//85
f 18//18 20//20 82//82
f 82//82 79//79 18//18
f 86//86 83//83 87//87
f 88//88 86//86 89//89
f 87//87 89//89 86//86
f 85//85 87//87 83//83
f 89//89 87//87 90//90
f 90//90 91//91 89//89
f 37//37 38//38 23//23
f 38//38 39//39 31//31
f 39//39 92//92 34//34
f 42//42 44//44 40//40
f 44//44 46//46 43//43
f 48//48 42//42 41//41
f 50//50 48//48 47//47
f 38//38 37//37 80//80
f 39//39 38//38 93//93
f 80//80 93//93 38//38
f 94//94 95//95 96//96
f 95//95 88//88 97//97
f 97//97 96//96 95//95
f 92//92 39//39 98//98
f 93//93 98//98 39//39
f 98//98 99//99 92//92
f 100//100 94//94 101//101
f 96//96 101//101 94//94
f 101//101 96//96 102//102
f 101//101 103//103 100//100
f 103//103 101//101 104//104
f 89//89 97//97 88//88
f 97//97 89//89 91//91
f 91//91 105//105 97//97
f 96//96 97//97 105//105
f 105//105 102//102 96//96
f 102//102 104//104 101//101
f 104//104 106//106 103//103
f 68//68 19//19 10//10
f 73//73 68//68 52//52
f 46//46 70//70 45//45
f 70//70 72//72 69//69
f 72//72 76//76 71//71
f 74//74 73//73 57//57
f 76//76 78//78 75//75
f 78//78 107//107 77//77
f 19//19 68//68 108//108
f 108//108 81//81 19//19
f 109//109 85//85 84//84
f 110//110 108//108 68//68
f 84//84 111//111 109//109
f 112//112 109//109 111//111
f 87//87 85//85 113//113
f 113//113 90//90 87//87
f 85//85 109//109 114//114
f 114//114 113//113 85//85
f 68//68 73//73 110//110
f 73//73 74//74 115//115
f 111//111 116//116 112//112
f 109//109 112//112 117//117
f 115//115 110//110 73//73
f 116//116 118//118 119//119
f 119//119 112//112 116//116
f 112//112 119//119 120//120
f 117//117 114//114 109//109
f 120//120 117//117 112//112
f 28//28 121//121 122//122
f 123//123 30//30 34//34
f 124//124 123//123 125//125
f 122//122 29//29 28//28
f 29//29 122//122 126//126
f 127//127 122//122 121//121
f 122//122 127//127 128//128
f 34//34 125//125 123//123
f 121//121 129//129 127//127
f 130//130 124//124 131//131
f 132//132 127//127 129//129
f 129//129 133//133 132//132
f 125//125 131//131 124//124
f 131//131 134//134 130//130
f 126//126 33//33 29//29
f 128//128 126//126 122//122
f 127//127 132//132 135//135
f 135//135 128//128 127//127
f 136//136 132//132 133//133
f 137//137 135//135 132//132
f 132//132 136//136 137//137
f 125//125 34//34 92//92
f 131//131 125//125 138//138
f 134//134 131//131 139//139
f 49//49 140//140 141//141
f 140//140 142//142 143//143
f 142//142 144//144 145//145
f 144//144 146//146 147//147
f 148//148 130//130 134//134
f 134//134 149//149 148//148
f 133//133 150//150 136//136
f 151//151 136//136 150//150
f 150//150 152//152 151//151
f 153//153 148//148 149//149
f 154//154 137//137 136//136
f 136//136 151//151 154//154
f 155//155 151//151 152//152
f 149//149 156//156 153//153
f 152//152 157//157 155//155
f 158//158 153//153 156//156
f 156//156 159//159 158//158
f 149//149 134//134 160//160
f 156//156 149//149 161//161
f 159//159 156//156 162//162
f 163//163 154//154 151//151
f 151//151 155//155 163//163
f 164//164 163//163 155//155
f 155//155 165//165 164//164
f 165//165 155//155 157//157
f 166//166 158//158 159//159
f 157//157 167//167 165//165
f 168//168 165//165 167//167
f 169//169 166//166 170//170
f 159//159 170//170 166//166
f 171//171 164//164 165//165
f 172//172 171//171 168//168
f 165//165 168//168 171//171
f 167//167 173//173 168//168
f 174//174 168//168 173//173
f 168//168 174//174 172//172
f 173//173 175//175 174//174
f 176//176 169//169 177//177
f 170//170 177//177 169//169
f 177//177 178//178 176//176
f 146//146 179//179 180//180
f 179//179 181//181 182//182
f 181//181 183//183 184//184
f 170//170 159//159 185//185
f 177//177 170//170 186//186
f 183//183 187//187 188//188
f 187//187 189//189 190//190
f 178//178 177//177 191//191
f 92//92 138//138 125//125
f 138//138 139//139 131//131
f 139//139 160//160 134//134
f 141//141 50//50 49//49
f 143//143 141//141 140//140
f 145//145 143//143 142//142
f 147//147 145//145 144//144
f 180//180 147//147 146//146
f 138//138 92//92 99//99
f 139//139 138//138 192//192
f 99//99 192//192 138//138
f 193//193 100//100 103//103
f 194//194 193//193 195//195
f 103//103 195//195 193//193
f 195//195 103//103 106//106
f 196//196 195//195 197//197
f 160//160 139//139 198//198
f 192//192 198//198 139//139
f 195//195 196//196 194//194
f 199//199 194//194 196//196
f 198//198 200//200 160//160
f 196//196 201//201 199//199
f 106//106 197//197 195//195
f 197//197 202//202 196//196
f 201//201 196//196 202//202
f 202//202 203//203 201//201
f 204//204 201//201 203//203
f 203//203 205//205 204//204
f 160//160 161//161 149//149
f 161//161 162//162 156//156
f 162//162 185//185 159//159
f 161//161 160//160 200//200
f 200//200 206//206 161//161
f 207//207 199//199 201//201
f 162//162 161//161 206//206
f 201//201 204//204 207//207
f 206//206 208//208 162//162
f 209//209 207//207 204//204
f 210//210 204//204 205//205
f 205//205 211//211 210//210
f 204//204 210//210 209//209
f 212//212 209//209 210//210
f 185//185 162//162 208//208
f 208//208 213//213 185//185
f 182//182 180//180 179//179
f 184//184 182//182 181//181
f 185//185 186//186 170//170
f 188//188 184//184 183//183
f 190//190 188//188 187//187
f 186//186 191//191 177//177
f 191//191 214//214 178//178
f 215//215 210//210 211//211
f 210//210 215//215 212//212
f 211//211 216//216 215//215
f 217//217 215//215 216//216
f 216//216 218//218 217//217
f 186//186 185//185 213//213
f 191//191 186//186 219//219
f 220//220 212//212 215//215
f 213//213 219//219 186//186
f 215//215 217//217 220//220
f 221//221 220//220 217//217
f 218//218 222//222 223//223
f 222//222 224//224 225//225
f 214//214 191//191 226//226
f 223//223 217//217 218//218
f 217//217 223//223 221//221
f 219//219 226//226 191//191
f 225//225 223//223 222//222
f 223//223 225//225 227//227
f 226//226 228//228 214//214
f 227//227 221//221 223//223
f 229//229 62//62 65//65
f 63//63 230//230 231//231
f 232//232 65//65 67//67
f 65//65 232//232 229//229
f 233//233 229//229 232//232
f 234//234 232//232 235//235
f 231//231 64//64 63//63
f 236//236 231//231 230//230
f 67//67 235//235 232//232
f 235//235 237//237 234//234
f 230//230 238//238 236//236
f 232//232 234//234 233//233
f 239//239 233//233 234//234
f 234//234 240//240 239//239
f 238//238 241//241 242//242
f 242//242 236//236 238//238
f 240//240 234//234 237//237
f 237//237 243//243 240//240
f 244//244 240//240 243//243
f 243//243 245//245 244//244
f 64//64 231//231 246//246
f 247//247 77//77 107//107
f 248//248 247//247 249//249
f 231//231 236//236 250//250
f 236//236 242//242 251//251
f 252//252 248//248 253//253
f 254//254 252//252 255//255
f 256//256 254//254 257//257
f 258//258 239//239 240//240
f 241//241 259//259 260//260
f 260//260 242//242 241//241
f 240//240 244//244 258//258
f 261//261 244//244 245//245
f 245//245 262//262 261//261
f 263//263 258//258 244//244
f 259//259 264//264 265//265
f 244//244 261//261 263//263
f 266//266 263//263 261//261
f 265//265 260//260 259//259
f 264//264 267//267 268//268
f 268//268 265//265 264//264
f 242//242 260//260 269//269
f 260//260 265//265 270//270
f 265//265 268//268 271//271
f 272//272 261//261 262//262
f 262//262 273//273 272//272
f 261//261 272//272 266//266
f 273//273 274//274 275//275
f 275//275 272//272 273//273
f 274//274 276//276 277//277
f 276//276 278//278 279//279
f 280//280 266//266 272//272
f 272//272 275//275 280//280
f 267//267 281//281 282//282
f 283//283 280//280 275//275
f 282//282 268//268 267//267
f 284//284 282//282 281//281
f 277//277 275//275 274//274
f 275//275 277//277 283//283
f 279//279 277//277 276//276
f 277//277 279//279 285//285
f 281//281 286//286 284//284
f 285//285 283//283 277//277
f 286//286 287//287 288//288
f 288//288 284//284 286//286
f 289//289 256//256 290//290
f 291//291 289//289 292//292
f 293//293 291//291 294//294
f 295//295 293//293 296//296
f 268//268 282//282 297//297
f 282//282 284//284 298//298
f 284//284 288//288 299//299
f 246//246 74//74 64//64
f 250//250 246//246 231//231
f 107//107 249//249 247//247
f 249//249 253//253 248//248
f 251//251 250//250 236//236
f 253//253 255//255 252//252
f 255//255 257//257 254//254
f 74//74 246//246 300//300
f 300//300 115//115 74//74
f 118//118 301//301 302//302
f 302//302 119//119 118//118
f 119//119 302//302 303//303
f 304//304 300//300 246//246
f 305//305 302//302 301//301
f 302//302 305//305 306//306
f 303//303 120//120 119//119
f 306//306 303//303 302//302
f 246//246 250//250 304//304
f 250//250 251//251 307//307
f 301//301 308//308 305//305
f 309//309 305//305 308//308
f 307//307 304//304 250//250
f 308//308 310//310 309//309
f 311//311 306//306 305//305
f 305//305 309//309 311//311
f 312//312 311//311 309//309
f 313//313 309//309 310//310
f 309//309 313//313 312//312
f 269//269 251//251 242//242
f 270//270 269//269 260//260
f 271//271 270//270 265//265
f 251//251 269//269 314//314
f 314//314 307//307 251//251
f 269//269 270//270 315//315
f 310//310 316//316 313//313
f 317//317 313//313 316//316
f 318//318 312//312 313//313
f 313//313 317//317 318//318
f 315//315 314//314 269//269
f 316//316 319//319 317//317
f 320//320 317//317 319//319
f 270//270 271//271 321//321
f 321//321 315//315 270//270
f 319//319 322//322 320//320
f 257//257 290//290 256//256
f 290//290 292//292 289//289
f 292//292 294//294 291//291
f 294//294 296//296 293//293
f 296//296 323//323 295//295
f 297//297 271//271 268//268
f 298//298 297//297 282//282
f 299//299 298//298 284//284
f 324//324 318//318 317//317
f 317//317 320//320 324//324
f 325//325 324//324 320//320
f 320//320 326//326 325//325
f 327//327 325//325 326//326
f 328//328 327//327 329//329
f 271//271 297//297 330//330
f 330//330 321//321 271//271
f 326//326 320//320 322//322
f 322//322 331//331 326//326
f 329//329 326//326 331//331
f 332//332 330//330 297//297
f 297//297 298//298 332//332
f 298//298 299//299 333//333
f 326//326 329//329 327//327
f 329//329 334//334 328//328
f 334//334 329//329 335//335
f 331//331 335//335 329//329
f 333//333 332//332 298//298
f 335//335 336//336 334//334
f 337//337 172//172 174//174
f 338//338 337//337 339//339
f 339//339 174//174 175//175
f 174//174 339//339 337//337
f 175//175 340//340 339//339
f 341//341 176//176 178//178
f 339//339 342//342 338//338
f 342//342 339//339 340//340
f 343//343 341//341 344//344
f 178//178 344//344 341//341
f 345//345 338//338 342//342
f 342//342 346//346 345//345
f 347//347 345//345 346//346
f 346//346 348//348 347//347
f 348//348 346//346 349//349
f 346//346 342//342 350//350
f 340//340 350//350 342//342
f 350//350 349//349 346//346
f 351//351 343//343 352//352
f 344//344 352//352 343//343
f 352//352 353//353 351//351
f 189//189 354//354 355//355
f 354//354 356//356 357//357
f 344//344 178//178 214//214
f 352//352 344//344 358//358
f 356//356 359//359 360//360
f 359//359 361//361 362//362
f 353//353 352//352 363//363
f 278//278 364//364 365//365
f 364//364 366//366 367//367
f 368//368 369//369 370//370
f 366//366 368//368 371//371
f 371//371 367//367 366//366
f 370//370 371//371 368//368
f 365//365 279//279 278//278
f 279//279 365//365 372//372
f 367//367 365//365 364//364
f 372//372 285//285 279//279
f 287//287 373//373 374//374
f 375//375 372//372 365//365
f 374//374 288//288 287//287
f 376//376 374//374 373//373
f 365//365 367//367 375//375
f 377//377 375//375 367//367
f 367//367 371//371 377//377
f 378//378 379//379 380//380
f 373//373 378//378 376//376
f 380//380 376//376 378//378
f 381//381 295//295 323//323
f 382//382 381//381 383//383
f 361//361 384//384 385//385
f 384//384 386//386 387//387
f 386//386 382//382 388//388
f 288//288 374//374 389//389
f 374//374 376//376 390//390
f 376//376 380//380 391//391
f 369//369 347//347 348//348
f 348//348 370//370 369//369
f 349//349 392//392 348//348
f 370//370 348//348 392//392
f 371//371 370//370 393//393
f 392//392 393//393 370//370
f 394//394 395//395 396//396
f 396//396 397//397 394//394
f 395//395 351//351 353//353
f 353//353 396//396 395//395
f 393//393 377//377 371//371
f 379//379 394//394 397//397
f 397//397 380//380 379//379
f 397//397 396//396 398//398
f 396//396 353//353 399//399
f 380//380 397//397 400//400
f 355//355 190//190 189//189
f 357//357 355//355 354//354
f 214//214 358//358 344//344
f 360//360 357//357 356//356
f 362//362 360//360 359//359
f 385//385 362//362 361//361
f 358//358 363//363 352//352
f 363//363 399//399 353//353
f 224//224 401//401 402//402
f 401//401 403//403 404//404
f 358//358 214//214 228//228
f 363//363 358//358 405//405
f 402//402 225//225 224//224
f 225//225 402//402 406//406
f 228//228 405//405 358//358
f 406//406 227//227 225//225
f 404//404 402//402 401//401
f 407//407 406//406 402//402
f 403//403 408//408 409//409
f 409//409 404//404 403//403
f 408//408 410//410 411//411
f 411//411 409//409 408//408
f 399//399 363//363 412//412
f 402//402 404//404 407//407
f 413//413 407//407 404//404
f 405//405 412//412 363//363
f 412//412 414//414 399//399
f 404//404 409//409 413//413
f 323//323 383//383 381//381
f 383//383 388//388 382//382
f 387//387 385//385 384//384
f 388//388 387//387 386//386
f 389//389 299//299 288//288
f 390//390 389//389 374//374
f 391//391 390//390 376//376
f 415//415 328//328 334//334
f 416//416 415//415 417//417
f 418//418 416//416 419//419
f 419//419 420//420 418//418
f 421//421 418//418 420//420
f 420//420 422//422 421//421
f 422//422 420//420 423//423
f 299//299 389//389 424//424
f 334//334 417//417 415//415
f 417//417 334//334 336//336
f 417//417 419//419 416//416
f 419//419 417//417 425//425
f 424//424 333//333 299//299
f 336//336 425//425 417//417
f 426//426 424//424 389//389
f 389//389 390//390 426//426
f 390//390 391//391 427//427
f 420//420 419//419 428//428
f 428//428 423//423 420//420
f 425//425 428//428 419//419
f 427//427 426//426 390//390
f 398//398 400//400 397//397
f 399//399 398//398 396//396
f 400//400 391//391 380//380
f 400//400 398//398 429//429
f 410//410 421//421 422//422
f 422//422 411//411 410//410
f 409//409 411//411 430//430
f 411//411 422//422 431//431
f 423//423 431//431 422//422
f 429//429 432//432 400//400
f 431//431 430//430 411//411
f 398//398 399//399 414//414
f 414//414 429//429 398//398
f 430//430 413//413 409//409
f 391//391 400//400 432//432
f 432//432 427//427 391//391
