v -0.03600 -0.18019 0.08678
v -0.03600 -0.15637 0.12470
v -0.03600 -0.11727 0.09352
v -0.03600 -0.12470 0.15637
v -0.03600 -0.09352 0.11727
v -0.08600 -0.05207 0.10812
v -0.08600 -0.07482 0.09382
v -0.03600 -0.09352 0.11727
v -0.03600 -0.11727 0.09352
v -0.03600 -0.06508 0.13515
v -0.08600 0.00000 0.12000
v -0.08600 -0.02670 0.11699
v -0.03600 -0.03338 0.14624
v -0.08600 -0.05207 0.10812
v -0.08600 -0.02670 0.11699
v -0.08600 -0.01780 0.07799
v -0.08600 0.00000 0.12000
v -0.08600 0.00000 0.08000
v -0.03600 0.00000 0.15000
v -0.03600 -0.08678 0.18019
v -0.03600 -0.06508 0.13515
v -0.03600 -0.04450 0.19499
v -0.03600 -0.03338 0.14624
v -0.03600 0.00000 0.20000
v -0.03600 0.00000 0.15000
v -0.08600 -0.09382 0.07482
v -0.08600 -0.10812 0.05207
v -0.03600 -0.13515 0.06508
v -0.03600 -0.14624 0.03338
v -0.08600 -0.11699 0.02670
v -0.08600 -0.12000 0.00000
v -0.03600 -0.15000 0.00000
v -0.08600 -0.12000 0.00000
v -0.08600 -0.11699 0.02670
v -0.08600 -0.07799 0.01780
v -0.03600 -0.19499 0.04450
v -0.03600 -0.13515 0.06508
v -0.03600 -0.20000 0.00000
v -0.03600 -0.14624 0.03338
v -0.03600 -0.15000 0.00000
v -0.08600 -0.07482 0.09382
v -0.08600 -0.03471 0.07208
v -0.08600 -0.09382 0.07482
v -0.08600 -0.04988 0.06255
v -0.08600 -0.10812 0.05207
v -0.08600 -0.06255 0.04988
v -0.08600 -0.07208 0.03471
v -0.08600 -0.08000 0.00000
v -0.08600 -0.06255 0.04988
v -0.08600 -0.04988 0.06255
v 0.08600 -0.04988 0.06255
v -0.08600 -0.03471 0.07208
v -0.08600 -0.01780 0.07799
v 0.08600 -0.01780 0.07799
v -0.08600 0.00000 0.08000
v 0.08600 0.00000 0.08000
v 0.08600 -0.03471 0.07208
v -0.08600 -0.07208 0.03471
v 0.08600 -0.06255 0.04988
v -0.08600 -0.07799 0.01780
v 0.08600 -0.07208 0.03471
v -0.08600 -0.08000 0.00000
v 0.08600 -0.07799 0.01780
v -0.03600 -0.08678 0.18019
v -0.03600 -0.12470 0.15637
v 0.08600 -0.12470 0.15637
v -0.03600 -0.15637 0.12470
v 0.08600 -0.15637 0.12470
v 0.08600 -0.18019 0.08678
v 0.08600 -0.12470 0.15637
v 0.08600 -0.15637 0.12470
v 0.08600 -0.06255 0.04988
v -0.03600 -0.04450 0.19499
v 0.08600 -0.08678 0.18019
v -0.03600 0.00000 0.20000
v 0.08600 -0.04450 0.19499
v 0.08600 0.00000 0.20000
v 0.08600 0.00000 0.20000
v 0.08600 -0.04450 0.19499
v 0.08600 -0.01780 0.07799
v 0.08600 -0.08678 0.18019
v 0.08600 -0.04988 0.06255
v 0.08600 -0.03471 0.07208
v 0.08600 0.00000 0.08000
v -0.03600 -0.18019 0.08678
v -0.03600 -0.19499 0.04450
v 0.08600 -0.19499 0.04450
v -0.03600 -0.20000 0.00000
v 0.08600 -0.20000 0.00000
v 0.08600 -0.18019 0.08678
v 0.08600 -0.07208 0.03471
v 0.08600 -0.19499 0.04450
v 0.08600 -0.07799 0.01780
v 0.08600 -0.20000 0.00000
v 0.08600 -0.08000 0.00000
v 0.08600 -0.08000 0.00000
v -0.08600 0.02670 0.11699
v -0.08600 0.02670 0.11699
v -0.08600 0.01780 0.07799
v -0.08600 0.05207 0.10812
v -0.03600 0.03338 0.14624
v -0.08600 0.07482 0.09382
v -0.03600 0.06508 0.13515
v -0.03600 0.09352 0.11727
v -0.03600 0.04450 0.19499
v -0.03600 0.03338 0.14624
v -0.03600 0.06508 0.13515
v -0.03600 0.08678 0.18019
v -0.03600 0.09352 0.11727
v -0.03600 0.12470 0.15637
v -0.03600 0.11727 0.09352
v -0.03600 0.15637 0.12470
v -0.08600 0.03471 0.07208
v -0.08600 0.05207 0.10812
v -0.08600 0.04988 0.06255
v -0.08600 0.07482 0.09382
v -0.08600 0.09382 0.07482
v -0.08600 0.06255 0.04988
v -0.08600 0.09382 0.07482
v -0.08600 0.07208 0.03471
v -0.08600 0.10812 0.05207
v -0.08600 0.07799 0.01780
v -0.08600 0.08000 0.00000
v -0.08600 0.11699 0.02670
v -0.08600 0.01780 0.07799
v 0.08600 0.01780 0.07799
v -0.08600 0.03471 0.07208
v 0.08600 0.03471 0.07208
v -0.08600 0.04988 0.06255
v 0.08600 0.04988 0.06255
v -0.08600 0.06255 0.04988
v 0.08600 0.06255 0.04988
v -0.08600 0.07208 0.03471
v 0.08600 0.07208 0.03471
v -0.08600 0.07799 0.01780
v 0.08600 0.07799 0.01780
v -0.08600 0.08000 0.00000
v 0.08600 0.08000 0.00000
v -0.08600 0.10812 0.05207
v -0.03600 0.11727 0.09352
v -0.03600 0.13515 0.06508
v -0.08600 0.11699 0.02670
v -0.08600 0.12000 0.00000
v -0.08600 0.12000 0.00000
v -0.03600 0.14624 0.03338
v -0.03600 0.15000 0.00000
v -0.03600 0.13515 0.06508
v -0.03600 0.18019 0.08678
v -0.03600 0.14624 0.03338
v -0.03600 0.19499 0.04450
v -0.03600 0.15000 0.00000
v -0.03600 0.20000 0.00000
v -0.03600 0.04450 0.19499
v -0.03600 0.08678 0.18019
v 0.08600 0.04450 0.19499
v -0.03600 0.12470 0.15637
v 0.08600 0.08678 0.18019
v 0.08600 0.04450 0.19499
v 0.08600 0.08678 0.18019
v 0.08600 0.01780 0.07799
v 0.08600 0.03471 0.07208
v 0.08600 0.12470 0.15637
v -0.03600 0.15637 0.12470
v 0.08600 0.12470 0.15637
v -0.03600 0.18019 0.08678
v 0.08600 0.15637 0.12470
v 0.08600 0.15637 0.12470
v 0.08600 0.04988 0.06255
v 0.08600 0.06255 0.04988
v -0.03600 0.19499 0.04450
v 0.08600 0.18019 0.08678
v -0.03600 0.20000 0.00000
v 0.08600 0.19499 0.04450
v 0.08600 0.18019 0.08678
v 0.08600 0.07208 0.03471
v 0.08600 0.19499 0.04450
v 0.08600 0.07799 0.01780
v 0.08600 0.08000 0.00000
v 0.08600 0.20000 0.00000
v 0.08600 0.20000 0.00000
v -0.08600 -0.11699 -0.02670
v -0.03600 -0.14624 -0.03338
v -0.08600 -0.11699 -0.02670
v -0.08600 -0.10812 -0.05207
v -0.08600 -0.07799 -0.01780
v -0.08600 -0.10812 -0.05207
v -0.03600 -0.13515 -0.06508
v -0.08600 -0.09382 -0.07482
v -0.03600 -0.11727 -0.09352
v -0.03600 -0.09352 -0.11727
v -0.03600 -0.19499 -0.04450
v -0.03600 -0.14624 -0.03338
v -0.03600 -0.18019 -0.08678
v -0.03600 -0.13515 -0.06508
v -0.03600 -0.15637 -0.12470
v -0.03600 -0.11727 -0.09352
v -0.08600 -0.07208 -0.03471
v -0.08600 -0.09382 -0.07482
v -0.08600 -0.06255 -0.04988
v -0.08600 -0.07482 -0.09382
v -0.08600 -0.04988 -0.06255
v -0.08600 -0.07482 -0.09382
v -0.08600 -0.05207 -0.10812
v -0.08600 -0.03471 -0.07208
v -0.08600 -0.02670 -0.11699
v -0.08600 -0.01780 -0.07799
v -0.08600 0.00000 -0.08000
v -0.08600 0.00000 -0.12000
v -0.08600 -0.07799 -0.01780
v -0.08600 -0.07208 -0.03471
v 0.08600 -0.07799 -0.01780
v -0.08600 -0.06255 -0.04988
v 0.08600 -0.07208 -0.03471
v -0.08600 -0.04988 -0.06255
v 0.08600 -0.06255 -0.04988
v -0.08600 -0.03471 -0.07208
v 0.08600 -0.04988 -0.06255
v -0.08600 -0.01780 -0.07799
v 0.08600 -0.03471 -0.07208
v -0.08600 0.00000 -0.08000
v 0.08600 -0.01780 -0.07799
v -0.03600 -0.12470 -0.15637
v -0.03600 -0.09352 -0.11727
v -0.03600 -0.08678 -0.18019
v -0.08600 -0.05207 -0.10812
v -0.03600 -0.06508 -0.13515
v -0.03600 -0.03338 -0.14624
v -0.08600 -0.02670 -0.11699
v -0.08600 0.00000 -0.12000
v -0.03600 0.00000 -0.15000
v -0.03600 -0.06508 -0.13515
v -0.03600 -0.04450 -0.19499
v -0.03600 -0.03338 -0.14624
v -0.03600 0.00000 -0.15000
v -0.03600 0.00000 -0.20000
v -0.03600 -0.19499 -0.04450
v 0.08600 -0.19499 -0.04450
v -0.03600 -0.18019 -0.08678
v 0.08600 -0.18019 -0.08678
v 0.08600 -0.19499 -0.04450
v 0.08600 -0.07799 -0.01780
v 0.08600 -0.07208 -0.03471
v 0.08600 -0.15637 -0.12470
v 0.08600 -0.18019 -0.08678
v 0.08600 -0.06255 -0.04988
v 0.08600 -0.15637 -0.12470
v 0.08600 0.00000 -0.08000
v 0.08600 -0.04988 -0.06255
v 0.08600 -0.03471 -0.07208
v 0.08600 -0.12470 -0.15637
v -0.03600 -0.15637 -0.12470
v -0.03600 -0.12470 -0.15637
v 0.08600 -0.12470 -0.15637
v 0.08600 -0.08678 -0.18019
v -0.03600 -0.08678 -0.18019
v -0.03600 -0.04450 -0.19499
v 0.08600 -0.04450 -0.19499
v -0.03600 0.00000 -0.20000
v 0.08600 0.00000 -0.20000
v 0.08600 -0.08678 -0.18019
v 0.08600 -0.01780 -0.07799
v 0.08600 0.00000 -0.08000
v 0.08600 -0.04450 -0.19499
v 0.08600 0.00000 -0.20000
v -0.08600 0.07799 -0.01780
v -0.08600 0.07208 -0.03471
v -0.08600 0.11699 -0.02670
v -0.08600 0.06255 -0.04988
v -0.08600 0.10812 -0.05207
v -0.08600 0.01780 -0.07799
v -0.08600 0.02670 -0.11699
v -0.08600 0.03471 -0.07208
v -0.08600 0.05207 -0.10812
v -0.08600 0.04988 -0.06255
v -0.08600 0.09382 -0.07482
v -0.08600 0.07482 -0.09382
v -0.08600 0.07482 -0.09382
v -0.08600 0.09382 -0.07482
v -0.03600 0.11727 -0.09352
v -0.08600 0.07799 -0.01780
v 0.08600 0.07799 -0.01780
v -0.08600 0.07208 -0.03471
v 0.08600 0.07208 -0.03471
v -0.08600 0.06255 -0.04988
v 0.08600 0.06255 -0.04988
v -0.08600 0.04988 -0.06255
v -0.08600 0.03471 -0.07208
v 0.08600 0.03471 -0.07208
v -0.08600 0.01780 -0.07799
v 0.08600 0.01780 -0.07799
v 0.08600 0.04988 -0.06255
v -0.08600 0.11699 -0.02670
v -0.08600 0.10812 -0.05207
v -0.03600 0.14624 -0.03338
v -0.03600 0.13515 -0.06508
v -0.03600 0.14624 -0.03338
v -0.03600 0.13515 -0.06508
v -0.03600 0.19499 -0.04450
v -0.03600 0.11727 -0.09352
v -0.03600 0.18019 -0.08678
v -0.08600 0.02670 -0.11699
v -0.08600 0.05207 -0.10812
v -0.03600 0.06508 -0.13515
v -0.03600 0.03338 -0.14624
v -0.03600 0.09352 -0.11727
v -0.03600 0.06508 -0.13515
v -0.03600 0.09352 -0.11727
v -0.03600 0.12470 -0.15637
v -0.03600 0.03338 -0.14624
v -0.03600 0.04450 -0.19499
v -0.03600 0.08678 -0.18019
v -0.03600 0.15637 -0.12470
v 0.08600 0.07208 -0.03471
v 0.08600 0.06255 -0.04988
v 0.08600 0.15637 -0.12470
v 0.08600 0.04988 -0.06255
v 0.08600 0.12470 -0.15637
v -0.03600 0.19499 -0.04450
v -0.03600 0.18019 -0.08678
v 0.08600 0.19499 -0.04450
v -0.03600 0.15637 -0.12470
v 0.08600 0.18019 -0.08678
v 0.08600 0.07799 -0.01780
v 0.08600 0.19499 -0.04450
v 0.08600 0.18019 -0.08678
v -0.03600 0.04450 -0.19499
v 0.08600 0.04450 -0.19499
v -0.03600 0.08678 -0.18019
v 0.08600 0.08678 -0.18019
v 0.08600 0.01780 -0.07799
v 0.08600 0.03471 -0.07208
v 0.08600 0.04450 -0.19499
v 0.08600 0.08678 -0.18019
v 0.08600 0.12470 -0.15637
v -0.03600 0.12470 -0.15637
v 0.08600 0.15637 -0.12470
vn -1.0000 0.0000 0.0000
vn -1.0000 0.0000 0.0000
vn -1.0000 0.0000 0.0000
vn -1.0000 0.0000 0.0000
vn -1.0000 0.0000 0.0000
vn -0.5145 -0.3721 0.7726
vn -0.5145 -0.5346 0.6704
vn -0.5145 -0.5346 0.6704
vn -0.5145 -0.6704 0.5346
vn -0.5145 -0.3721 0.7726
vn -0.5145 -0.0000 0.8575
vn -0.5145 -0.1908 0.8360
vn -0.5145 -0.1908 0.8360
vn -1.0000 0.0000 0.0000
vn -1.0000 0.0000 0.0000
vn -1.0000 0.0000 0.0000
vn -1.0000 0.0000 0.0000
vn -1.0000 0.0000 0.0000
vn -0.5145 -0.0000 0.8575
vn -1.0000 0.0000 0.0000
vn -1.0000 0.0000 0.0000
vn -1.0000 0.0000 0.0000
vn -1.0000 0.0000 0.0000
vn -1.0000 0.0000 0.0000
vn -1.0000 0.0000 0.0000
vn -0.5145 -0.6704 0.5346
vn -0.5145 -0.7726 0.3721
vn -0.5145 -0.7726 0.3721
vn -0.5145 -0.8360 0.1908
vn -0.5145 -0.8360 0.1908
vn -0.5145 -0.8575 -0.0000
vn -0.5145 -0.8575 -0.0000
vn -1.0000 0.0000 0.0000
vn -1.0000 0.0000 0.0000
vn -1.0000 0.0000 0.0000
vn -1.0000 0.0000 0.0000
vn -1.0000 0.0000 0.0000
vn -1.0000 0.0000 0.0000
vn -1.0000 0.0000 0.0000
vn -1.0000 0.0000 0.0000
vn -1.0000 0.0000 0.0000
vn -1.0000 0.0000 0.0000
vn -1.0000 0.0000 0.0000
vn -1.0000 0.0000 0.0000
vn -1.0000 0.0000 0.0000
vn -1.0000 0.0000 0.0000
vn -1.0000 0.0000 0.0000
vn -1.0000 0.0000 0.0000
vn 0.0000 0.7818 -0.6235
vn -0.0000 0.6235 -0.7818
vn 0.0000 0.6235 -0.7818
vn 0.0000 0.4339 -0.9010
vn 0.0000 0.2225 -0.9749
vn 0.0000 0.2225 -0.9749
vn 0.0000 0.0000 -1.0000
vn 0.0000 -0.0000 -1.0000
vn -0.0000 0.4339 -0.9010
vn 0.0000 0.9010 -0.4339
vn 0.0000 0.7818 -0.6235
vn 0.0000 0.9749 -0.2225
vn 0.0000 0.9010 -0.4339
vn -0.0000 1.0000 0.0000
vn -0.0000 0.9749 -0.2225
vn 0.0000 -0.4339 0.9010
vn 0.0000 -0.6235 0.7818
vn 0.0000 -0.6235 0.7818
vn 0.0000 -0.7818 0.6235
vn 0.0000 -0.7818 0.6235
vn 0.0000 -0.9010 0.4339
vn 1.0000 0.0000 0.0000
vn 1.0000 0.0000 0.0000
vn 1.0000 0.0000 0.0000
vn 0.0000 -0.2225 0.9749
vn 0.0000 -0.4339 0.9010
vn 0.0000 0.0000 1.0000
vn 0.0000 -0.2225 0.9749
vn 0.0000 0.0000 1.0000
vn 1.0000 0.0000 0.0000
vn 1.0000 0.0000 0.0000
vn 1.0000 0.0000 0.0000
vn 1.0000 0.0000 0.0000
vn 1.0000 0.0000 0.0000
vn 1.0000 0.0000 0.0000
vn 1.0000 0.0000 0.0000
vn 0.0000 -0.9010 0.4339
vn -0.0000 -0.9749 0.2225
vn 0.0000 -0.9749 0.2225
vn 0.0000 -1.0000 -0.0000
vn -0.0000 -1.0000 -0.0000
vn 1.0000 0.0000 0.0000
vn 1.0000 0.0000 0.0000
vn 1.0000 0.0000 0.0000
vn 1.0000 0.0000 0.0000
vn 1.0000 0.0000 0.0000
vn 1.0000 0.0000 0.0000
vn 0.0000 1.0000 0.0000
vn -0.5145 0.1908 0.8360
vn -1.0000 0.0000 0.0000
vn -1.0000 0.0000 0.0000
vn -0.5145 0.3721 0.7726
vn -0.5145 0.1908 0.8360
vn -0.5145 0.5346 0.6704
vn -0.5145 0.3721 0.7726
vn -0.5145 0.5346 0.6704
vn -1.0000 0.0000 0.0000
vn -1.0000 0.0000 0.0000
vn -1.0000 0.0000 0.0000
vn -1.0000 0.0000 0.0000
vn -1.0000 0.0000 0.0000
vn -1.0000 0.0000 0.0000
vn -1.0000 0.0000 0.0000
vn -1.0000 0.0000 0.0000
vn -1.0000 0.0000 0.0000
vn -1.0000 0.0000 0.0000
vn -1.0000 0.0000 0.0000
vn -1.0000 0.0000 0.0000
vn -0.5145 0.6704 0.5346
vn -1.0000 0.0000 0.0000
vn -1.0000 0.0000 0.0000
vn -1.0000 0.0000 0.0000
vn -1.0000 0.0000 0.0000
vn -1.0000 0.0000 0.0000
vn -1.0000 0.0000 0.0000
vn -1.0000 0.0000 0.0000
vn 0.0000 -0.2225 -0.9749
vn 0.0000 -0.2225 -0.9749
vn 0.0000 -0.4339 -0.9010
vn 0.0000 -0.4339 -0.9010
vn 0.0000 -0.6235 -0.7818
vn 0.0000 -0.6235 -0.7818
vn 0.0000 -0.7818 -0.6235
vn 0.0000 -0.7818 -0.6235
vn 0.0000 -0.9010 -0.4339
vn 0.0000 -0.9010 -0.4339
vn 0.0000 -0.9749 -0.2225
vn 0.0000 -0.9749 -0.2225
vn 0.0000 -1.0000 -0.0000
vn 0.0000 -1.0000 0.0000
vn -0.5145 0.7726 0.3721
vn -0.5145 0.6704 0.5346
vn -0.5145 0.7726 0.3721
vn -0.5145 0.8360 0.1908
vn -1.0000 0.0000 0.0000
vn -0.5145 0.8575 0.0000
vn -0.5145 0.8360 0.1908
vn -0.5145 0.8575 0.0000
vn -1.0000 0.0000 0.0000
vn -1.0000 0.0000 0.0000
vn -1.0000 0.0000 0.0000
vn -1.0000 0.0000 0.0000
vn -1.0000 0.0000 0.0000
vn -1.0000 0.0000 0.0000
vn 0.0000 0.2225 0.9749
vn 0.0000 0.4339 0.9010
vn 0.0000 0.2225 0.9749
vn 0.0000 0.6235 0.7818
vn 0.0000 0.4339 0.9010
vn 1.0000 0.0000 0.0000
vn 1.0000 0.0000 0.0000
vn 1.0000 0.0000 0.0000
vn 1.0000 0.0000 0.0000
vn 1.0000 0.0000 0.0000
vn 0.0000 0.7818 0.6235
vn 0.0000 0.6235 0.7818
vn 0.0000 0.9010 0.4339
vn 0.0000 0.7818 0.6235
vn 1.0000 0.0000 0.0000
vn 1.0000 0.0000 0.0000
vn 1.0000 0.0000 0.0000
vn -0.0000 0.9749 0.2225
vn -0.0000 0.9010 0.4339
vn 0.0000 1.0000 0.0000
vn 0.0000 0.9749 0.2225
vn 1.0000 0.0000 0.0000
vn 1.0000 0.0000 0.0000
vn 1.0000 0.0000 0.0000
vn 1.0000 0.0000 0.0000
vn 1.0000 0.0000 0.0000
vn 1.0000 0.0000 0.0000
vn -0.0000 1.0000 -0.0000
vn -0.5145 -0.8360 -0.1908
vn -0.5145 -0.8360 -0.1908
vn -1.0000 0.0000 0.0000
vn -1.0000 0.0000 0.0000
vn -1.0000 0.0000 0.0000
vn -0.5145 -0.7726 -0.3721
vn -0.5145 -0.7726 -0.3721
vn -0.5145 -0.6704 -0.5346
vn -0.5145 -0.6704 -0.5346
vn -0.5145 -0.5346 -0.6704
vn -1.0000 0.0000 0.0000
vn -1.0000 0.0000 0.0000
vn -1.0000 0.0000 0.0000
vn -1.0000 0.0000 0.0000
vn -1.0000 0.0000 0.0000
vn -1.0000 0.0000 0.0000
vn -1.0000 0.0000 0.0000
vn -1.0000 0.0000 0.0000
vn -1.0000 0.0000 0.0000
vn -1.0000 0.0000 0.0000
vn -1.0000 0.0000 0.0000
vn -0.5145 -0.5346 -0.6704
vn -1.0000 0.0000 0.0000
vn -1.0000 0.0000 0.0000
vn -1.0000 0.0000 0.0000
vn -1.0000 0.0000 0.0000
vn -1.0000 0.0000 0.0000
vn -1.0000 0.0000 0.0000
vn 0.0000 0.9749 0.2225
vn 0.0000 0.9010 0.4339
vn 0.0000 0.9749 0.2225
vn 0.0000 0.7818 0.6235
vn 0.0000 0.9010 0.4339
vn 0.0000 0.6235 0.7818
vn 0.0000 0.7818 0.6235
vn 0.0000 0.4339 0.9010
vn 0.0000 0.6235 0.7818
vn 0.0000 0.2225 0.9749
vn 0.0000 0.4339 0.9010
vn -0.0000 -0.0000 1.0000
vn -0.0000 0.2225 0.9749
vn -1.0000 0.0000 0.0000
vn -1.0000 0.0000 0.0000
vn -1.0000 0.0000 0.0000
vn -0.5145 -0.3721 -0.7726
vn -0.5145 -0.3721 -0.7726
vn -0.5145 -0.1908 -0.8360
vn -0.5145 -0.1908 -0.8360
vn -0.5145 0.0000 -0.8575
vn -0.5145 0.0000 -0.8575
vn -1.0000 0.0000 0.0000
vn -1.0000 0.0000 0.0000
vn -1.0000 0.0000 0.0000
vn -1.0000 0.0000 0.0000
vn -1.0000 0.0000 0.0000
vn 0.0000 -0.9749 -0.2225
vn 0.0000 -0.9749 -0.2225
vn -0.0000 -0.9010 -0.4339
vn 0.0000 -0.9010 -0.4339
vn 1.0000 0.0000 0.0000
vn 1.0000 0.0000 0.0000
vn 1.0000 0.0000 0.0000
vn -0.0000 -0.7818 -0.6235
vn 1.0000 0.0000 0.0000
vn 1.0000 0.0000 0.0000
vn 1.0000 0.0000 0.0000
vn 0.0000 -0.0000 1.0000
vn 1.0000 0.0000 0.0000
vn 1.0000 0.0000 0.0000
vn 1.0000 0.0000 0.0000
vn 0.0000 -0.7818 -0.6235
vn 0.0000 -0.6235 -0.7818
vn 0.0000 -0.6235 -0.7818
vn 0.0000 -0.4339 -0.9010
vn 0.0000 -0.4339 -0.9010
vn -0.0000 -0.2225 -0.9749
vn 0.0000 -0.2225 -0.9749
vn 0.0000 0.0000 -1.0000
vn -0.0000 0.0000 -1.0000
vn 1.0000 0.0000 0.0000
vn 1.0000 0.0000 0.0000
vn 1.0000 0.0000 0.0000
vn 1.0000 0.0000 0.0000
vn 1.0000 0.0000 0.0000
vn -1.0000 0.0000 0.0000
vn -1.0000 0.0000 0.0000
vn -1.0000 0.0000 0.0000
vn -1.0000 0.0000 0.0000
vn -1.0000 0.0000 0.0000
vn -1.0000 0.0000 0.0000
vn -1.0000 0.0000 0.0000
vn -1.0000 0.0000 0.0000
vn -1.0000 0.0000 0.0000
vn -1.0000 0.0000 0.0000
vn -1.0000 0.0000 0.0000
vn -1.0000 0.0000 0.0000
vn -0.5145 0.5346 -0.6704
vn -0.5145 0.6704 -0.5346
vn -0.5145 0.6704 -0.5346
vn 0.0000 -0.9749 0.2225
vn 0.0000 -0.9749 0.2225
vn 0.0000 -0.9010 0.4339
vn 0.0000 -0.9010 0.4339
vn 0.0000 -0.7818 0.6235
vn 0.0000 -0.7818 0.6235
vn -0.0000 -0.6235 0.7818
vn 0.0000 -0.4339 0.9010
vn -0.0000 -0.4339 0.9010
vn 0.0000 -0.2225 0.9749
vn 0.0000 -0.2225 0.9749
vn 0.0000 -0.6235 0.7818
vn -0.5145 0.8360 -0.1908
vn -0.5145 0.7726 -0.3721
vn -0.5145 0.8360 -0.1908
vn -0.5145 0.7726 -0.3721
vn -1.0000 0.0000 0.0000
vn -1.0000 0.0000 0.0000
vn -1.0000 0.0000 0.0000
vn -1.0000 0.0000 0.0000
vn -1.0000 0.0000 0.0000
vn -0.5145 0.1908 -0.8360
vn -0.5145 0.3721 -0.7726
vn -0.5145 0.3721 -0.7726
vn -0.5145 0.1908 -0.8360
vn -0.5145 0.5346 -0.6704
vn -1.0000 0.0000 0.0000
vn -1.0000 0.0000 0.0000
vn -1.0000 0.0000 0.0000
vn -1.0000 0.0000 0.0000
vn -1.0000 0.0000 0.0000
vn -1.0000 0.0000 0.0000
vn -1.0000 0.0000 0.0000
vn 1.0000 0.0000 0.0000
vn 1.0000 0.0000 0.0000
vn 1.0000 0.0000 0.0000
vn 1.0000 0.0000 0.0000
vn 1.0000 0.0000 0.0000
vn -0.0000 0.9749 -0.2225
vn 0.0000 0.9010 -0.4339
vn 0.0000 0.9749 -0.2225
vn 0.0000 0.7818 -0.6235
vn 0.0000 0.9010 -0.4339
vn 1.0000 0.0000 0.0000
vn 1.0000 0.0000 0.0000
vn 1.0000 0.0000 0.0000
vn -0.0000 0.2225 -0.9749
vn 0.0000 0.2225 -0.9749
vn 0.0000 0.4339 -0.9010
vn -0.0000 0.4339 -0.9010
vn 1.0000 0.0000 0.0000
vn 1.0000 0.0000 0.0000
vn 1.0000 0.0000 0.0000
vn 1.0000 0.0000 0.0000
vn 0.0000 0.6235 -0.7818
vn -0.0000 0.6235 -0.7818
vn -0.0000 0.7818 -0.6235
f 1//1 2//2 3//3
f 2//2 4//4 5//5
f 5//5 3//3 2//2
f 6//6 7//7 8//8
f 9//9 8//8 7//7
f 8//8 10//10 6//6
f 11//11 12//12 13//13
f 14//14 15//15 16//16
f 12//12 6//6 10//10
f 15//15 17//17 18//18
f 10//10 13//13 12//12
f 13//13 19//19 11//11
f 4//4 20//20 21//21
f 20//20 22//22 23//23
f 23//23 21//21 20//20
f 22//22 24//24 25//25
f 25//25 23//23 22//22
f 21//21 5//5 4//4
f 26//26 27//27 28//28
f 28//28 9//9 26//26
f 29//29 28//28 27//27
f 27//27 30//30 29//29
f 30//30 31//31 32//32
f 33//33 34//34 35//35
f 32//32 29//29 30//30
f 36//36 1//1 37//37
f 3//3 37//37 1//1
f 38//38 36//36 39//39
f 37//37 39//39 36//36
f 39//39 40//40 38//38
f 7//7 26//26 9//9
f 41//41 14//14 42//42
f 43//43 41//41 44//44
f 42//42 44//44 41//41
f 45//45 43//43 46//46
f 44//44 46//46 43//43
f 16//16 42//42 14//14
f 18//18 16//16 15//15
f 34//34 45//45 47//47
f 46//46 47//47 45//45
f 47//47 35//35 34//34
f 35//35 48//48 33//33
f 49//49 50//50 51//51
f 52//52 53//53 54//54
f 53//53 55//55 56//56
f 50//50 52//52 57//57
f 58//58 49//49 59//59
f 60//60 58//58 61//61
f 62//62 60//60 63//63
f 64//64 65//65 66//66
f 65//65 67//67 68//68
f 69//69 68//68 67//67
f 68//68 66//66 65//65
f 70//70 71//71 72//72
f 73//73 64//64 74//74
f 75//75 73//73 76//76
f 74//74 76//76 73//73
f 66//66 74//74 64//64
f 76//76 77//77 75//75
f 78//78 79//79 80//80
f 81//81 70//70 82//82
f 79//79 81//81 83//83
f 82//82 83//83 81//81
f 83//83 80//80 79//79
f 80//80 84//84 78//78
f 67//67 85//85 69//69
f 85//85 86//86 87//87
f 86//86 88//88 89//89
f 87//87 69//69 85//85
f 71//71 90//90 91//91
f 89//89 87//87 86//86
f 90//90 92//92 93//93
f 92//92 94//94 95//95
f 93//93 91//91 90//90
f 95//95 93//93 92//92
f 51//51 59//59 49//49
f 56//56 54//54 53//53
f 57//57 51//51 50//50
f 54//54 57//57 52//52
f 59//59 61//61 58//58
f 61//61 63//63 60//60
f 63//63 96//96 62//62
f 72//72 82//82 70//70
f 91//91 72//72 71//71
f 97//97 11//11 19//19
f 17//17 98//98 99//99
f 100//100 97//97 101//101
f 19//19 101//101 97//97
f 102//102 100//100 103//103
f 101//101 103//103 100//100
f 103//103 104//104 102//102
f 24//24 105//105 106//106
f 106//106 25//25 24//24
f 107//107 106//106 105//105
f 105//105 108//108 107//107
f 109//109 107//107 108//108
f 108//108 110//110 109//109
f 111//111 109//109 110//110
f 110//110 112//112 111//111
f 99//99 18//18 17//17
f 113//113 99//99 98//98
f 98//98 114//114 113//113
f 115//115 113//113 114//114
f 114//114 116//116 115//115
f 117//117 102//102 104//104
f 118//118 115//115 116//116
f 116//116 119//119 118//118
f 120//120 118//118 119//119
f 119//119 121//121 120//120
f 122//122 120//120 121//121
f 123//123 122//122 124//124
f 55//55 125//125 126//126
f 125//125 127//127 128//128
f 127//127 129//129 130//130
f 129//129 131//131 132//132
f 131//131 133//133 134//134
f 133//133 135//135 136//136
f 135//135 137//137 138//138
f 139//139 117//117 140//140
f 104//104 140//140 117//117
f 140//140 141//141 139//139
f 121//121 124//124 122//122
f 142//142 139//139 141//141
f 124//124 143//143 123//123
f 144//144 142//142 145//145
f 141//141 145//145 142//142
f 145//145 146//146 144//144
f 147//147 111//111 112//112
f 112//112 148//148 147//147
f 149//149 147//147 148//148
f 148//148 150//150 149//149
f 151//151 149//149 150//150
f 150//150 152//152 151//151
f 153//153 75//75 77//77
f 154//154 153//153 155//155
f 156//156 154//154 157//157
f 77//77 155//155 153//153
f 158//158 78//78 84//84
f 159//159 158//158 160//160
f 155//155 157//157 154//154
f 84//84 160//160 158//158
f 160//160 161//161 159//159
f 162//162 159//159 161//161
f 163//163 156//156 164//164
f 165//165 163//163 166//166
f 157//157 164//164 156//156
f 164//164 166//166 163//163
f 167//167 162//162 168//168
f 126//126 56//56 55//55
f 128//128 126//126 125//125
f 130//130 128//128 127//127
f 132//132 130//130 129//129
f 134//134 132//132 131//131
f 136//136 134//134 133//133
f 138//138 136//136 135//135
f 161//161 168//168 162//162
f 168//168 169//169 167//167
f 170//170 165//165 171//171
f 172//172 170//170 173//173
f 174//174 167//167 169//169
f 169//169 175//175 174//174
f 176//176 174//174 175//175
f 166//166 171//171 165//165
f 171//171 173//173 170//170
f 175//175 177//177 176//176
f 177//177 178//178 179//179
f 173//173 180//180 172//172
f 179//179 176//176 177//177
f 31//31 181//181 182//182
f 183//183 33//33 48//48
f 184//184 183//183 185//185
f 181//181 186//186 187//187
f 182//182 32//32 31//31
f 187//187 182//182 181//181
f 186//186 188//188 189//189
f 189//189 187//187 186//186
f 190//190 189//189 188//188
f 191//191 38//38 40//40
f 40//40 192//192 191//191
f 193//193 191//191 192//192
f 192//192 194//194 193//193
f 195//195 193//193 194//194
f 194//194 196//196 195//195
f 48//48 185//185 183//183
f 185//185 197//197 184//184
f 198//198 184//184 197//197
f 197//197 199//199 198//198
f 200//200 198//198 199//199
f 199//199 201//201 200//200
f 188//188 202//202 190//190
f 203//203 200//200 201//201
f 201//201 204//204 203//203
f 205//205 203//203 204//204
f 204//204 206//206 205//205
f 206//206 207//207 208//208
f 209//209 62//62 96//96
f 210//210 209//209 211//211
f 212//212 210//210 213//213
f 214//214 212//212 215//215
f 216//216 214//214 217//217
f 218//218 216//216 219//219
f 220//220 218//218 221//221
f 222//222 195//195 196//196
f 196//196 223//223 222//222
f 224//224 222//222 223//223
f 202//202 225//225 226//226
f 226//226 190//190 202//202
f 227//227 226//226 225//225
f 225//225 228//228 227//227
f 208//208 205//205 206//206
f 228//228 229//229 230//230
f 230//230 227//227 228//228
f 223//223 231//231 224//224
f 232//232 224//224 231//231
f 231//231 233//233 232//232
f 233//233 234//234 235//235
f 235//235 232//232 233//233
f 88//88 236//236 237//237
f 236//236 238//238 239//239
f 237//237 89//89 88//88
f 94//94 240//240 241//241
f 241//241 95//95 94//94
f 242//242 241//241 240//240
f 239//239 237//237 236//236
f 243//243 239//239 238//238
f 240//240 244//244 242//242
f 245//245 242//242 244//244
f 244//244 246//246 245//245
f 96//96 211//211 209//209
f 211//211 213//213 210//210
f 213//213 215//215 212//212
f 215//215 217//217 214//214
f 217//217 219//219 216//216
f 219//219 221//221 218//218
f 221//221 247//247 220//220
f 248//248 245//245 246//246
f 249//249 248//248 250//250
f 238//238 251//251 243//243
f 251//251 252//252 253//253
f 253//253 243//243 251//251
f 246//246 250//250 248//248
f 254//254 253//253 252//252
f 252//252 255//255 254//254
f 255//255 256//256 257//257
f 256//256 258//258 259//259
f 250//250 260//260 249//249
f 261//261 249//249 260//260
f 262//262 261//261 263//263
f 257//257 254//254 255//255
f 259//259 257//257 256//256
f 260//260 263//263 261//261
f 263//263 264//264 262//262
f 265//265 123//123 143//143
f 266//266 265//265 267//267
f 268//268 266//266 269//269
f 267//267 269//269 266//266
f 207//207 270//270 271//271
f 270//270 272//272 273//273
f 274//274 268//268 275//275
f 269//269 275//275 268//268
f 272//272 274//274 276//276
f 275//275 276//276 274//274
f 276//276 273//273 272//272
f 277//277 278//278 279//279
f 137//137 280//280 281//281
f 280//280 282//282 283//283
f 282//282 284//284 285//285
f 286//286 287//287 288//288
f 289//289 220//220 247//247
f 287//287 289//289 290//290
f 284//284 286//286 291//291
f 143//143 267//267 265//265
f 292//292 144//144 146//146
f 293//293 292//292 294//294
f 146//146 294//294 292//292
f 278//278 293//293 295//295
f 294//294 295//295 293//293
f 295//295 279//279 278//278
f 296//296 151//151 152//152
f 297//297 296//296 298//298
f 152//152 298//298 296//296
f 299//299 297//297 300//300
f 298//298 300//300 297//297
f 271//271 208//208 207//207
f 273//273 271//271 270//270
f 301//301 302//302 303//303
f 229//229 301//301 304//304
f 304//304 230//230 229//229
f 303//303 304//304 301//301
f 302//302 277//277 305//305
f 305//305 303//303 302//302
f 279//279 305//305 277//277
f 306//306 307//307 308//308
f 234//234 309//309 310//310
f 310//310 235//235 234//234
f 309//309 306//306 311//311
f 311//311 310//310 309//309
f 308//308 311//311 306//306
f 307//307 299//299 312//312
f 312//312 308//308 307//307
f 300//300 312//312 299//299
f 281//281 138//138 137//137
f 283//283 281//281 280//280
f 285//285 283//283 282//282
f 290//290 288//288 287//287
f 288//288 291//291 286//286
f 247//247 290//290 289//289
f 291//291 285//285 284//284
f 313//313 314//314 315//315
f 314//314 316//316 317//317
f 318//318 172//172 180//180
f 319//319 318//318 320//320
f 321//321 319//319 322//322
f 178//178 323//323 324//324
f 323//323 313//313 325//325
f 180//180 320//320 318//318
f 324//324 179//179 178//178
f 325//325 324//324 323//323
f 315//315 325//325 313//313
f 320//320 322//322 319//319
f 258//258 326//326 327//327
f 326//326 328//328 329//329
f 330//330 262//262 264//264
f 331//331 330//330 332//332
f 316//316 331//331 333//333
f 332//332 333//333 331//331
f 333//333 317//317 316//316
f 327//327 259//259 258//258
f 264//264 332//332 330//330
f 334//334 329//329 328//328
f 329//329 327//327 326//326
f 335//335 321//321 336//336
f 328//328 335//335 334//334
f 336//336 334//334 335//335
f 317//317 315//315 314//314
f 322//322 336//336 321//321
