v -0.07200 -0.18705 0.22292
v -0.07200 -0.14550 0.25201
v -0.09000 -0.12750 0.22084
v -0.07200 -0.14550 0.25201
v -0.07200 -0.18705 0.22292
v -0.04500 -0.19284 0.22981
v -0.04500 -0.15000 0.25981
v -0.07200 -0.22292 0.18705
v -0.07200 -0.25201 0.14550
v -0.04500 -0.25981 0.15000
v -0.04500 -0.22981 0.19284
v -0.07200 -0.22292 0.18705
v -0.09000 -0.16391 0.19534
v -0.09000 -0.19534 0.16391
v -0.07200 -0.25201 0.14550
v -0.09000 -0.11827 0.14095
v 0.04500 -0.19284 0.22981
v 0.04500 -0.25981 0.15000
v 0.04500 -0.22981 0.19284
v -0.09000 -0.08722 0.23962
v -0.09000 -0.04428 0.25113
v -0.07200 -0.09953 0.27345
v -0.04500 -0.10261 0.28191
v -0.07200 -0.09953 0.27345
v -0.07200 -0.05053 0.28658
v -0.07200 -0.05053 0.28658
v -0.09000 0.00000 0.25500
v -0.07200 0.00000 0.29100
v -0.09000 0.00000 0.18400
v -0.04500 -0.05209 0.29544
v -0.07200 0.00000 0.29100
v -0.04500 0.00000 0.30000
v -0.09000 -0.09200 0.15935
v -0.09000 -0.06293 0.17290
v -0.09000 -0.03195 0.18120
v 0.04500 -0.15000 0.25981
v 0.04500 -0.10261 0.28191
v 0.04500 -0.05209 0.29544
v -0.09000 -0.11827 0.14095
v -0.09000 -0.09200 0.15935
v 0.09000 -0.09200 0.15935
v -0.09000 -0.06293 0.17290
v -0.09000 -0.03195 0.18120
v 0.09000 -0.03195 0.18120
v 0.09000 -0.06293 0.17290
v -0.09000 0.00000 0.18400
v 0.09000 0.00000 0.18400
v -0.07200 -0.27345 0.09953
v -0.09000 -0.22084 0.12750
v -0.07200 -0.28658 0.05053
v -0.09000 -0.23962 0.08722
v -0.07200 -0.27345 0.09953
v -0.04500 -0.28191 0.10261
v -0.04500 -0.29544 0.05209
v -0.09000 -0.14095 0.11827
v -0.09000 -0.15935 0.09200
v -0.09000 -0.17290 0.06293
v -0.09000 -0.25113 0.04428
v -0.09000 -0.25500 0.00000
v -0.07200 -0.29100 0.00000
v -0.09000 -0.18120 0.03195
v -0.07200 -0.28658 0.05053
v -0.07200 -0.29100 0.00000
v -0.04500 -0.30000 0.00000
v -0.09000 -0.18400 0.00000
v 0.04500 -0.28191 0.10261
v -0.09000 -0.17290 0.06293
v -0.09000 -0.15935 0.09200
v 0.09000 -0.15935 0.09200
v 0.04500 -0.29544 0.05209
v 0.04500 -0.30000 0.00000
v -0.09000 -0.18120 0.03195
v 0.09000 -0.17290 0.06293
v -0.09000 -0.18400 0.00000
v 0.09000 -0.18120 0.03195
v -0.09000 -0.14095 0.11827
v 0.09000 -0.11827 0.14095
v 0.09000 -0.14095 0.11827
v 0.07200 -0.18705 0.22292
v 0.07200 -0.14550 0.25201
v 0.07200 -0.25201 0.14550
v 0.07200 -0.22292 0.18705
v 0.07200 -0.22292 0.18705
v 0.07200 -0.25201 0.14550
v 0.09000 -0.22084 0.12750
v 0.07200 -0.18705 0.22292
v 0.09000 -0.19534 0.16391
v 0.07200 -0.14550 0.25201
v 0.09000 -0.16391 0.19534
v 0.09000 -0.14095 0.11827
v 0.04500 0.00000 0.30000
v 0.07200 -0.09953 0.27345
v 0.07200 -0.05053 0.28658
v 0.07200 -0.09953 0.27345
v 0.09000 -0.08722 0.23962
v 0.09000 -0.12750 0.22084
v 0.07200 -0.05053 0.28658
v 0.07200 0.00000 0.29100
v 0.07200 0.00000 0.29100
v 0.09000 -0.04428 0.25113
v 0.09000 0.00000 0.25500
v 0.09000 -0.03195 0.18120
v 0.09000 -0.09200 0.15935
v 0.09000 -0.06293 0.17290
v 0.09000 -0.11827 0.14095
v 0.09000 0.00000 0.18400
v 0.09000 -0.18400 0.00000
v 0.07200 -0.27345 0.09953
v 0.07200 -0.28658 0.05053
v 0.09000 -0.23962 0.08722
v 0.07200 -0.27345 0.09953
v 0.09000 -0.25113 0.04428
v 0.09000 -0.15935 0.09200
v 0.09000 -0.17290 0.06293
v 0.07200 -0.29100 0.00000
v 0.07200 -0.28658 0.05053
v 0.07200 -0.29100 0.00000
v 0.09000 -0.25500 0.00000
v 0.09000 -0.18400 0.00000
v 0.09000 -0.18120 0.03195
v -0.09000 0.04428 0.25113
v -0.07200 0.05053 0.28658
v -0.09000 0.03195 0.18120
v -0.09000 0.08722 0.23962
v -0.07200 0.05053 0.28658
v -0.04500 0.05209 0.29544
v -0.07200 0.09953 0.27345
v -0.07200 0.09953 0.27345
v -0.09000 0.12750 0.22084
v -0.07200 0.14550 0.25201
v -0.04500 0.10261 0.28191
v -0.07200 0.14550 0.25201
v -0.04500 0.15000 0.25981
v -0.09000 0.06293 0.17290
v -0.09000 0.09200 0.15935
v -0.09000 0.16391 0.19534
v -0.09000 0.11827 0.14095
v -0.09000 0.14095 0.11827
v 0.04500 0.05209 0.29544
v 0.04500 0.10261 0.28191
v -0.09000 0.03195 0.18120
v 0.09000 0.03195 0.18120
v -0.09000 0.06293 0.17290
v 0.09000 0.06293 0.17290
v -0.09000 0.09200 0.15935
v 0.09000 0.09200 0.15935
v -0.07200 0.18705 0.22292
v -0.04500 0.19284 0.22981
v -0.09000 0.19534 0.16391
v -0.07200 0.18705 0.22292
v -0.07200 0.22292 0.18705
v -0.09000 0.22084 0.12750
v -0.07200 0.22292 0.18705
v -0.04500 0.22981 0.19284
v -0.07200 0.25201 0.14550
v -0.07200 0.25201 0.14550
v -0.04500 0.25981 0.15000
v 0.04500 0.15000 0.25981
v 0.04500 0.19284 0.22981
v 0.04500 0.22981 0.19284
v -0.09000 0.11827 0.14095
v 0.09000 0.11827 0.14095
v -0.09000 0.14095 0.11827
v 0.09000 0.14095 0.11827
v -0.09000 0.15935 0.09200
v -0.09000 0.17290 0.06293
v -0.09000 0.23962 0.08722
v -0.09000 0.25113 0.04428
v -0.07200 0.27345 0.09953
v -0.07200 0.27345 0.09953
v -0.04500 0.28191 0.10261
v -0.07200 0.28658 0.05053
v -0.09000 0.18120 0.03195
v -0.09000 0.18400 0.00000
v -0.07200 0.28658 0.05053
v -0.09000 0.25500 0.00000
v -0.07200 0.29100 0.00000
v -0.04500 0.29544 0.05209
v -0.07200 0.29100 0.00000
v -0.04500 0.30000 0.00000
v -0.09000 0.15935 0.09200
v 0.09000 0.15935 0.09200
v 0.04500 0.25981 0.15000
v 0.04500 0.28191 0.10261
v -0.09000 0.17290 0.06293
v 0.09000 0.17290 0.06293
v -0.09000 0.18120 0.03195
v 0.09000 0.18120 0.03195
v -0.09000 0.18400 0.00000
v 0.09000 0.18400 0.00000
v 0.04500 0.29544 0.05209
v 0.07200 0.05053 0.28658
v 0.07200 0.05053 0.28658
v 0.09000 0.04428 0.25113
v 0.07200 0.09953 0.27345
v 0.07200 0.09953 0.27345
v 0.07200 0.14550 0.25201
v 0.07200 0.14550 0.25201
v 0.09000 0.08722 0.23962
v 0.09000 0.12750 0.22084
v 0.09000 0.03195 0.18120
v 0.09000 0.06293 0.17290
v 0.09000 0.16391 0.19534
v 0.09000 0.09200 0.15935
v 0.09000 0.11827 0.14095
v 0.07200 0.18705 0.22292
v 0.07200 0.18705 0.22292
v 0.07200 0.22292 0.18705
v 0.07200 0.22292 0.18705
v 0.09000 0.19534 0.16391
v 0.07200 0.25201 0.14550
v 0.07200 0.25201 0.14550
v 0.04500 0.30000 0.00000
v 0.09000 0.14095 0.11827
v 0.09000 0.22084 0.12750
v 0.09000 0.15935 0.09200
v 0.09000 0.23962 0.08722
v 0.09000 0.17290 0.06293
v 0.07200 0.27345 0.09953
v 0.07200 0.27345 0.09953
v 0.07200 0.28658 0.05053
v 0.09000 0.25113 0.04428
v 0.09000 0.18120 0.03195
v 0.09000 0.18400 0.00000
v 0.09000 0.25500 0.00000
v 0.07200 0.28658 0.05053
v 0.07200 0.29100 0.00000
v 0.07200 0.29100 0.00000
v -0.09000 -0.25113 -0.04428
v -0.07200 -0.28658 -0.05053
v -0.07200 -0.27345 -0.09953
v -0.07200 -0.28658 -0.05053
v -0.04500 -0.29544 -0.05209
v -0.04500 -0.28191 -0.10261
v -0.09000 -0.18120 -0.03195
v -0.09000 -0.23962 -0.08722
v -0.09000 -0.17290 -0.06293
v -0.07200 -0.25201 -0.14550
v -0.09000 -0.22084 -0.12750
v -0.07200 -0.27345 -0.09953
v -0.04500 -0.25981 -0.15000
v -0.07200 -0.25201 -0.14550
v -0.09000 -0.15935 -0.09200
v -0.09000 -0.19534 -0.16391
v -0.09000 -0.14095 -0.11827
v 0.04500 -0.29544 -0.05209
v -0.09000 -0.18120 -0.03195
v -0.09000 -0.17290 -0.06293
v 0.09000 -0.18120 -0.03195
v -0.09000 -0.15935 -0.09200
v 0.09000 -0.17290 -0.06293
v 0.04500 -0.28191 -0.10261
v 0.04500 -0.25981 -0.15000
v -0.09000 -0.14095 -0.11827
v 0.09000 -0.15935 -0.09200
v -0.09000 -0.11827 -0.14095
v 0.09000 -0.14095 -0.11827
v -0.09000 -0.09200 -0.15935
v 0.09000 -0.11827 -0.14095
v -0.07200 -0.22292 -0.18705
v -0.07200 -0.22292 -0.18705
v -0.04500 -0.22981 -0.19284
v -0.09000 -0.16391 -0.19534
v -0.07200 -0.18705 -0.22292
v -0.07200 -0.14550 -0.25201
v -0.07200 -0.18705 -0.22292
v -0.04500 -0.19284 -0.22981
v -0.07200 -0.14550 -0.25201
v -0.04500 -0.15000 -0.25981
v 0.04500 -0.22981 -0.19284
v 0.04500 -0.19284 -0.22981
v 0.04500 -0.15000 -0.25981
v -0.09000 -0.11827 -0.14095
v -0.09000 -0.12750 -0.22084
v -0.09000 -0.09200 -0.15935
v -0.09000 -0.06293 -0.17290
v -0.09000 -0.08722 -0.23962
v -0.09000 -0.03195 -0.18120
v -0.09000 -0.04428 -0.25113
v -0.09000 0.00000 -0.18400
v -0.09000 0.00000 -0.25500
v -0.07200 -0.09953 -0.27345
v -0.07200 -0.05053 -0.28658
v -0.07200 -0.09953 -0.27345
v -0.04500 -0.10261 -0.28191
v -0.04500 -0.05209 -0.29544
v -0.07200 0.00000 -0.29100
v -0.07200 -0.05053 -0.28658
v -0.07200 0.00000 -0.29100
v -0.04500 0.00000 -0.30000
v -0.09000 -0.06293 -0.17290
v 0.09000 -0.09200 -0.15935
v -0.09000 -0.03195 -0.18120
v 0.09000 -0.06293 -0.17290
v -0.09000 0.00000 -0.18400
v 0.09000 -0.03195 -0.18120
v 0.04500 -0.10261 -0.28191
v 0.04500 -0.05209 -0.29544
v 0.04500 0.00000 -0.30000
v 0.07200 -0.28658 -0.05053
v 0.07200 -0.27345 -0.09953
v 0.07200 -0.28658 -0.05053
v 0.09000 -0.25113 -0.04428
v 0.09000 -0.18120 -0.03195
v 0.09000 -0.23962 -0.08722
v 0.09000 -0.17290 -0.06293
v 0.07200 -0.25201 -0.14550
v 0.07200 -0.27345 -0.09953
v 0.09000 -0.22084 -0.12750
v 0.07200 -0.25201 -0.14550
v 0.09000 -0.15935 -0.09200
v 0.09000 -0.19534 -0.16391
v 0.09000 -0.14095 -0.11827
v 0.09000 -0.11827 -0.14095
v 0.07200 -0.22292 -0.18705
v 0.07200 -0.18705 -0.22292
v 0.07200 -0.22292 -0.18705
v 0.09000 -0.16391 -0.19534
v 0.07200 -0.18705 -0.22292
v 0.09000 -0.12750 -0.22084
v 0.07200 -0.14550 -0.25201
v 0.07200 -0.14550 -0.25201
v 0.09000 0.00000 -0.18400
v 0.09000 -0.09200 -0.15935
v 0.09000 -0.06293 -0.17290
v 0.09000 -0.08722 -0.23962
v 0.09000 -0.03195 -0.18120
v 0.09000 -0.04428 -0.25113
v 0.09000 0.00000 -0.18400
v 0.07200 -0.09953 -0.27345
v 0.07200 -0.05053 -0.28658
v 0.07200 -0.09953 -0.27345
v 0.07200 0.00000 -0.29100
v 0.09000 0.00000 -0.25500
v 0.07200 -0.05053 -0.28658
v 0.07200 0.00000 -0.29100
v -0.09000 0.15935 -0.09200
v -0.09000 0.14095 -0.11827
v 0.09000 0.14095 -0.11827
v -0.09000 0.11827 -0.14095
v 0.09000 0.11827 -0.14095
v -0.09000 0.18120 -0.03195
v -0.09000 0.17290 -0.06293
v -0.09000 0.25113 -0.04428
v -0.09000 0.23962 -0.08722
v -0.07200 0.28658 -0.05053
v -0.07200 0.28658 -0.05053
v -0.04500 0.29544 -0.05209
v -0.07200 0.27345 -0.09953
v -0.09000 0.15935 -0.09200
v -0.09000 0.22084 -0.12750
v -0.09000 0.14095 -0.11827
v -0.09000 0.11827 -0.14095
v -0.09000 0.19534 -0.16391
v -0.07200 0.25201 -0.14550
v -0.07200 0.27345 -0.09953
v -0.04500 0.28191 -0.10261
v -0.07200 0.25201 -0.14550
v -0.04500 0.25981 -0.15000
v -0.09000 0.18120 -0.03195
v 0.09000 0.18120 -0.03195
v -0.09000 0.17290 -0.06293
v 0.09000 0.17290 -0.06293
v 0.04500 0.29544 -0.05209
v 0.09000 0.15935 -0.09200
v 0.04500 0.28191 -0.10261
v -0.09000 0.03195 -0.18120
v -0.09000 0.04428 -0.25113
v -0.09000 0.06293 -0.17290
v -0.09000 0.08722 -0.23962
v -0.09000 0.09200 -0.15935
v -0.09000 0.12750 -0.22084
v -0.09000 0.16391 -0.19534
v -0.07200 0.05053 -0.28658
v -0.07200 0.09953 -0.27345
v -0.07200 0.05053 -0.28658
v -0.04500 0.05209 -0.29544
v -0.04500 0.10261 -0.28191
v -0.07200 0.14550 -0.25201
v -0.07200 0.09953 -0.27345
v -0.07200 0.14550 -0.25201
v -0.04500 0.15000 -0.25981
v -0.09000 0.03195 -0.18120
v -0.09000 0.09200 -0.15935
v -0.09000 0.06293 -0.17290
v 0.09000 0.06293 -0.17290
v 0.09000 0.03195 -0.18120
v 0.09000 0.09200 -0.15935
v 0.04500 0.05209 -0.29544
v 0.04500 0.10261 -0.28191
v 0.04500 0.15000 -0.25981
v -0.07200 0.22292 -0.18705
v -0.07200 0.18705 -0.22292
v -0.07200 0.18705 -0.22292
v -0.07200 0.22292 -0.18705
v -0.04500 0.22981 -0.19284
v -0.04500 0.19284 -0.22981
v 0.04500 0.22981 -0.19284
v 0.04500 0.25981 -0.15000
v 0.04500 0.19284 -0.22981
v 0.09000 0.18120 -0.03195
v 0.09000 0.25113 -0.04428
v 0.09000 0.23962 -0.08722
v 0.09000 0.17290 -0.06293
v 0.07200 0.28658 -0.05053
v 0.07200 0.28658 -0.05053
v 0.07200 0.27345 -0.09953
v 0.09000 0.15935 -0.09200
v 0.09000 0.22084 -0.12750
v 0.09000 0.14095 -0.11827
v 0.09000 0.19534 -0.16391
v 0.07200 0.27345 -0.09953
v 0.07200 0.25201 -0.14550
v 0.07200 0.25201 -0.14550
v 0.09000 0.03195 -0.18120
v 0.09000 0.06293 -0.17290
v 0.09000 0.04428 -0.25113
v 0.09000 0.08722 -0.23962
v 0.09000 0.11827 -0.14095
v 0.09000 0.16391 -0.19534
v 0.09000 0.09200 -0.15935
v 0.09000 0.12750 -0.22084
v 0.07200 0.14550 -0.25201
v 0.07200 0.05053 -0.28658
v 0.07200 0.09953 -0.27345
v 0.07200 0.05053 -0.28658
v 0.07200 0.14550 -0.25201
v 0.07200 0.09953 -0.27345
v 0.07200 0.22292 -0.18705
v 0.07200 0.18705 -0.22292
v 0.07200 0.22292 -0.18705
v 0.07200 0.18705 -0.22292
vn -0.8944 -0.2875 0.3426
vn -0.8944 -0.2236 0.3873
vn -0.9703 -0.1209 0.2094
vn -0.3162 -0.4743 0.8216
vn -0.3162 -0.6098 0.7267
vn -0.1588 -0.6346 0.7563
vn -0.1588 -0.4937 0.8550
vn -0.3162 -0.7267 0.6098
vn -0.3162 -0.8216 0.4743
vn -0.1588 -0.8550 0.4937
vn -0.1588 -0.7563 0.6346
vn -0.8944 -0.3426 0.2875
vn -0.9703 -0.1554 0.1852
vn -0.9703 -0.1852 0.1554
vn -0.8944 -0.3873 0.2236
vn -1.0000 0.0000 0.0000
vn 0.1588 -0.6346 0.7563
vn 0.1588 -0.8550 0.4937
vn 0.1588 -0.7563 0.6346
vn -0.9703 -0.0827 0.2272
vn -0.9703 -0.0420 0.2381
vn -0.8944 -0.1530 0.4202
vn -0.1588 -0.3377 0.9278
vn -0.3162 -0.3245 0.8915
vn -0.3162 -0.1647 0.9343
vn -0.8944 -0.0777 0.4404
vn -0.9703 0.0000 0.2418
vn -0.8944 -0.0000 0.4472
vn -1.0000 0.0000 0.0000
vn -0.1588 -0.1714 0.9723
vn -0.3162 0.0000 0.9487
vn -0.1588 0.0000 0.9873
vn -1.0000 0.0000 0.0000
vn -1.0000 0.0000 0.0000
vn -1.0000 0.0000 0.0000
vn 0.1588 -0.4937 0.8550
vn 0.1588 -0.3377 0.9278
vn 0.1588 -0.1714 0.9723
vn -0.0000 0.6428 -0.7660
vn 0.0000 0.5000 -0.8660
vn -0.0000 0.5000 -0.8660
vn 0.0000 0.3420 -0.9397
vn 0.0000 0.1736 -0.9848
vn 0.0000 0.1736 -0.9848
vn 0.0000 0.3420 -0.9397
vn 0.0000 -0.0000 -1.0000
vn 0.0000 0.0000 -1.0000
vn -0.8944 -0.4202 0.1530
vn -0.9703 -0.2094 0.1209
vn -0.8944 -0.4404 0.0777
vn -0.9703 -0.2272 0.0827
vn -0.3162 -0.8915 0.3245
vn -0.1588 -0.9278 0.3377
vn -0.1588 -0.9723 0.1714
vn -1.0000 0.0000 0.0000
vn -1.0000 0.0000 0.0000
vn -1.0000 0.0000 0.0000
vn -0.9703 -0.2381 0.0420
vn -0.9703 -0.2418 0.0000
vn -0.8944 -0.4472 -0.0000
vn -1.0000 0.0000 0.0000
vn -0.3162 -0.9343 0.1647
vn -0.3162 -0.9487 0.0000
vn -0.1588 -0.9873 -0.0000
vn -1.0000 0.0000 0.0000
vn 0.1588 -0.9278 0.3377
vn -0.0000 0.9397 -0.3420
vn 0.0000 0.8660 -0.5000
vn -0.0000 0.8660 -0.5000
vn 0.1588 -0.9723 0.1714
vn 0.1588 -0.9873 -0.0000
vn 0.0000 0.9848 -0.1736
vn 0.0000 0.9397 -0.3420
vn 0.0000 1.0000 -0.0000
vn 0.0000 0.9848 -0.1736
vn 0.0000 0.7660 -0.6428
vn 0.0000 0.6428 -0.7660
vn 0.0000 0.7660 -0.6428
vn 0.3162 -0.6098 0.7267
vn 0.3162 -0.4743 0.8216
vn 0.3162 -0.8216 0.4743
vn 0.3162 -0.7267 0.6098
vn 0.8944 -0.3426 0.2875
vn 0.8944 -0.3873 0.2236
vn 0.9703 -0.2094 0.1209
vn 0.8944 -0.2875 0.3426
vn 0.9703 -0.1852 0.1554
vn 0.8944 -0.2236 0.3873
vn 0.9703 -0.1554 0.1852
vn 1.0000 0.0000 0.0000
vn 0.1588 -0.0000 0.9873
vn 0.3162 -0.3245 0.8915
vn 0.8944 -0.0777 0.4404
vn 0.8944 -0.1530 0.4202
vn 0.9703 -0.0827 0.2272
vn 0.9703 -0.1209 0.2094
vn 0.3162 -0.1647 0.9343
vn 0.3162 -0.0000 0.9487
vn 0.8944 0.0000 0.4472
vn 0.9703 -0.0420 0.2381
vn 0.9703 -0.0000 0.2418
vn 1.0000 0.0000 0.0000
vn 1.0000 0.0000 0.0000
vn 1.0000 0.0000 0.0000
vn 1.0000 0.0000 0.0000
vn 1.0000 0.0000 0.0000
vn 0.0000 1.0000 0.0000
vn 0.3162 -0.8915 0.3245
vn 0.3162 -0.9343 0.1647
vn 0.9703 -0.2272 0.0827
vn 0.8944 -0.4202 0.1530
vn 0.9703 -0.2381 0.0420
vn 1.0000 0.0000 0.0000
vn 1.0000 0.0000 0.0000
vn 0.3162 -0.9487 -0.0000
vn 0.8944 -0.4404 0.0777
vn 0.8944 -0.4472 0.0000
vn 0.9703 -0.2418 -0.0000
vn 1.0000 0.0000 0.0000
vn 1.0000 0.0000 0.0000
vn -0.9703 0.0420 0.2381
vn -0.8944 0.0777 0.4404
vn -1.0000 0.0000 0.0000
vn -0.9703 0.0827 0.2272
vn -0.3162 0.1647 0.9343
vn -0.1588 0.1714 0.9723
vn -0.3162 0.3245 0.8915
vn -0.8944 0.1530 0.4202
vn -0.9703 0.1209 0.2094
vn -0.8944 0.2236 0.3873
vn -0.1588 0.3377 0.9278
vn -0.3162 0.4743 0.8216
vn -0.1588 0.4937 0.8550
vn -1.0000 0.0000 0.0000
vn -1.0000 0.0000 0.0000
vn -0.9703 0.1554 0.1852
vn -1.0000 0.0000 0.0000
vn -1.0000 0.0000 0.0000
vn 0.1588 0.1714 0.9723
vn 0.1588 0.3377 0.9278
vn 0.0000 -0.1736 -0.9848
vn 0.0000 -0.1736 -0.9848
vn -0.0000 -0.3420 -0.9397
vn 0.0000 -0.3420 -0.9397
vn 0.0000 -0.5000 -0.8660
vn -0.0000 -0.5000 -0.8660
vn -0.3162 0.6098 0.7267
vn -0.1588 0.6346 0.7563
vn -0.9703 0.1852 0.1554
vn -0.8944 0.2875 0.3426
vn -0.8944 0.3426 0.2875
vn -0.9703 0.2094 0.1209
vn -0.3162 0.7267 0.6098
vn -0.1588 0.7563 0.6346
vn -0.8944 0.3873 0.2236
vn -0.3162 0.8216 0.4743
vn -0.1588 0.8550 0.4937
vn 0.1588 0.4937 0.8550
vn 0.1588 0.6346 0.7563
vn 0.1588 0.7563 0.6346
vn 0.0000 -0.6428 -0.7660
vn 0.0000 -0.6428 -0.7660
vn -0.0000 -0.7660 -0.6428
vn 0.0000 -0.7660 -0.6428
vn -1.0000 0.0000 0.0000
vn -1.0000 0.0000 0.0000
vn -0.9703 0.2272 0.0827
vn -0.9703 0.2381 0.0420
vn -0.8944 0.4202 0.1530
vn -0.3162 0.8915 0.3245
vn -0.1588 0.9278 0.3377
vn -0.3162 0.9343 0.1647
vn -1.0000 0.0000 0.0000
vn -1.0000 0.0000 0.0000
vn -0.8944 0.4404 0.0777
vn -0.9703 0.2418 -0.0000
vn -0.8944 0.4472 0.0000
vn -0.1588 0.9723 0.1714
vn -0.3162 0.9487 -0.0000
vn -0.1588 0.9873 0.0000
vn 0.0000 -0.8660 -0.5000
vn -0.0000 -0.8660 -0.5000
vn 0.1588 0.8550 0.4937
vn 0.1588 0.9278 0.3377
vn 0.0000 -0.9397 -0.3420
vn 0.0000 -0.9397 -0.3420
vn 0.0000 -0.9848 -0.1736
vn 0.0000 -0.9848 -0.1736
vn 0.0000 -1.0000 0.0000
vn 0.0000 -1.0000 -0.0000
vn 0.1588 0.9723 0.1714
vn 0.3162 0.1647 0.9343
vn 0.8944 0.0777 0.4404
vn 0.9703 0.0420 0.2381
vn 0.8944 0.1530 0.4202
vn 0.3162 0.3245 0.8915
vn 0.3162 0.4743 0.8216
vn 0.8944 0.2236 0.3873
vn 0.9703 0.0827 0.2272
vn 0.9703 0.1209 0.2094
vn 1.0000 0.0000 0.0000
vn 1.0000 0.0000 0.0000
vn 0.9703 0.1554 0.1852
vn 1.0000 0.0000 0.0000
vn 1.0000 0.0000 0.0000
vn 0.3162 0.6098 0.7267
vn 0.8944 0.2875 0.3426
vn 0.3162 0.7267 0.6098
vn 0.8944 0.3426 0.2875
vn 0.9703 0.1852 0.1554
vn 0.8944 0.3873 0.2236
vn 0.3162 0.8216 0.4743
vn 0.1588 0.9873 0.0000
vn 1.0000 0.0000 0.0000
vn 0.9703 0.2094 0.1209
vn 1.0000 0.0000 0.0000
vn 0.9703 0.2272 0.0827
vn 1.0000 0.0000 0.0000
vn 0.3162 0.8915 0.3245
vn 0.8944 0.4202 0.1530
vn 0.8944 0.4404 0.0777
vn 0.9703 0.2381 0.0420
vn 1.0000 0.0000 0.0000
vn 1.0000 0.0000 0.0000
vn 0.9703 0.2418 0.0000
vn 0.3162 0.9343 0.1647
vn 0.3162 0.9487 0.0000
vn 0.8944 0.4472 -0.0000
vn -0.9703 -0.2381 -0.0420
vn -0.8944 -0.4404 -0.0777
vn -0.8944 -0.4202 -0.1530
vn -0.3162 -0.9343 -0.1647
vn -0.1588 -0.9723 -0.1714
vn -0.1588 -0.9278 -0.3377
vn -1.0000 0.0000 0.0000
vn -0.9703 -0.2272 -0.0827
vn -1.0000 0.0000 0.0000
vn -0.8944 -0.3873 -0.2236
vn -0.9703 -0.2094 -0.1209
vn -0.3162 -0.8915 -0.3245
vn -0.1588 -0.8550 -0.4937
vn -0.3162 -0.8216 -0.4743
vn -1.0000 0.0000 0.0000
vn -0.9703 -0.1852 -0.1554
vn -1.0000 0.0000 0.0000
vn 0.1588 -0.9723 -0.1714
vn 0.0000 0.9848 0.1736
vn 0.0000 0.9397 0.3420
vn 0.0000 0.9848 0.1736
vn 0.0000 0.8660 0.5000
vn 0.0000 0.9397 0.3420
vn 0.1588 -0.9278 -0.3377
vn 0.1588 -0.8550 -0.4937
vn -0.0000 0.7660 0.6428
vn -0.0000 0.8660 0.5000
vn 0.0000 0.6428 0.7660
vn 0.0000 0.7660 0.6428
vn 0.0000 0.5000 0.8660
vn 0.0000 0.6428 0.7660
vn -0.8944 -0.3426 -0.2875
vn -0.3162 -0.7267 -0.6098
vn -0.1588 -0.7563 -0.6346
vn -0.9703 -0.1554 -0.1852
vn -0.8944 -0.2875 -0.3426
vn -0.8944 -0.2236 -0.3873
vn -0.3162 -0.6098 -0.7267
vn -0.1588 -0.6346 -0.7563
vn -0.3162 -0.4743 -0.8216
vn -0.1588 -0.4937 -0.8550
vn 0.1588 -0.7563 -0.6346
vn 0.1588 -0.6346 -0.7563
vn 0.1588 -0.4937 -0.8550
vn -1.0000 0.0000 0.0000
vn -0.9703 -0.1209 -0.2094
vn -1.0000 0.0000 0.0000
vn -1.0000 0.0000 0.0000
vn -0.9703 -0.0827 -0.2272
vn -1.0000 0.0000 0.0000
vn -0.9703 -0.0420 -0.2381
vn -1.0000 0.0000 0.0000
vn -0.9703 -0.0000 -0.2418
vn -0.8944 -0.1530 -0.4202
vn -0.8944 -0.0777 -0.4404
vn -0.3162 -0.3245 -0.8915
vn -0.1588 -0.3377 -0.9278
vn -0.1588 -0.1714 -0.9723
vn -0.8944 0.0000 -0.4472
vn -0.3162 -0.1647 -0.9343
vn -0.3162 -0.0000 -0.9487
vn -0.1588 0.0000 -0.9873
vn -0.0000 0.3420 0.9397
vn -0.0000 0.5000 0.8660
vn 0.0000 0.1736 0.9848
vn 0.0000 0.3420 0.9397
vn 0.0000 0.0000 1.0000
vn 0.0000 0.1736 0.9848
vn 0.1588 -0.3377 -0.9278
vn 0.1588 -0.1714 -0.9723
vn 0.1588 0.0000 -0.9873
vn 0.3162 -0.9343 -0.1647
vn 0.3162 -0.8915 -0.3245
vn 0.8944 -0.4404 -0.0777
vn 0.9703 -0.2381 -0.0420
vn 1.0000 0.0000 0.0000
vn 0.9703 -0.2272 -0.0827
vn 1.0000 0.0000 0.0000
vn 0.3162 -0.8216 -0.4743
vn 0.8944 -0.4202 -0.1530
vn 0.9703 -0.2094 -0.1209
vn 0.8944 -0.3873 -0.2236
vn 1.0000 0.0000 0.0000
vn 0.9703 -0.1852 -0.1554
vn 1.0000 0.0000 0.0000
vn 1.0000 0.0000 0.0000
vn 0.3162 -0.7267 -0.6098
vn 0.3162 -0.6098 -0.7267
vn 0.8944 -0.3426 -0.2875
vn 0.9703 -0.1554 -0.1852
vn 0.8944 -0.2875 -0.3426
vn 0.9703 -0.1209 -0.2094
vn 0.3162 -0.4743 -0.8216
vn 0.8944 -0.2236 -0.3873
vn 0.0000 -0.0000 1.0000
vn 1.0000 0.0000 0.0000
vn 1.0000 0.0000 0.0000
vn 0.9703 -0.0827 -0.2272
vn 1.0000 0.0000 0.0000
vn 0.9703 -0.0420 -0.2381
vn 1.0000 0.0000 0.0000
vn 0.3162 -0.3245 -0.8915
vn 0.3162 -0.1647 -0.9343
vn 0.8944 -0.1530 -0.4202
vn 0.3162 0.0000 -0.9487
vn 0.9703 0.0000 -0.2418
vn 0.8944 -0.0777 -0.4404
vn 0.8944 -0.0000 -0.4472
vn 0.0000 -0.8660 0.5000
vn 0.0000 -0.7660 0.6428
vn 0.0000 -0.7660 0.6428
vn -0.0000 -0.6428 0.7660
vn 0.0000 -0.6428 0.7660
vn -1.0000 0.0000 0.0000
vn -1.0000 0.0000 0.0000
vn -0.9703 0.2381 -0.0420
vn -0.9703 0.2272 -0.0827
vn -0.8944 0.4404 -0.0777
vn -0.3162 0.9343 -0.1647
vn -0.1588 0.9723 -0.1714
vn -0.3162 0.8915 -0.3245
vn -1.0000 0.0000 0.0000
vn -0.9703 0.2094 -0.1209
vn -1.0000 0.0000 0.0000
vn -1.0000 0.0000 0.0000
vn -0.9703 0.1852 -0.1554
vn -0.8944 0.3873 -0.2236
vn -0.8944 0.4202 -0.1530
vn -0.1588 0.9278 -0.3377
vn -0.3162 0.8216 -0.4743
vn -0.1588 0.8550 -0.4937
vn 0.0000 -0.9848 0.1736
vn 0.0000 -0.9848 0.1736
vn -0.0000 -0.9397 0.3420
vn 0.0000 -0.9397 0.3420
vn 0.1588 0.9723 -0.1714
vn -0.0000 -0.8660 0.5000
vn 0.1588 0.9278 -0.3377
vn -1.0000 0.0000 0.0000
vn -0.9703 0.0420 -0.2381
vn -1.0000 0.0000 0.0000
vn -0.9703 0.0827 -0.2272
vn -1.0000 0.0000 0.0000
vn -0.9703 0.1209 -0.2094
vn -0.9703 0.1554 -0.1852
vn -0.8944 0.0777 -0.4404
vn -0.8944 0.1530 -0.4202
vn -0.3162 0.1647 -0.9343
vn -0.1588 0.1714 -0.9723
vn -0.1588 0.3377 -0.9278
vn -0.8944 0.2236 -0.3873
vn -0.3162 0.3245 -0.8915
vn -0.3162 0.4743 -0.8216
vn -0.1588 0.4937 -0.8550
vn 0.0000 -0.1736 0.9848
vn 0.0000 -0.5000 0.8660
vn 0.0000 -0.3420 0.9397
vn 0.0000 -0.3420 0.9397
vn 0.0000 -0.1736 0.9848
vn -0.0000 -0.5000 0.8660
vn 0.1588 0.1714 -0.9723
vn 0.1588 0.3377 -0.9278
vn 0.1588 0.4937 -0.8550
vn -0.8944 0.3426 -0.2875
vn -0.8944 0.2875 -0.3426
vn -0.3162 0.6098 -0.7267
vn -0.3162 0.7267 -0.6098
vn -0.1588 0.7563 -0.6346
vn -0.1588 0.6346 -0.7563
vn 0.1588 0.7563 -0.6346
vn 0.1588 0.8550 -0.4937
vn 0.1588 0.6346 -0.7563
vn 1.0000 0.0000 0.0000
vn 0.9703 0.2381 -0.0420
vn 0.9703 0.2272 -0.0827
vn 1.0000 0.0000 0.0000
vn 0.3162 0.9343 -0.1647
vn 0.8944 0.4404 -0.0777
vn 0.8944 0.4202 -0.1530
vn 1.0000 0.0000 0.0000
vn 0.9703 0.2094 -0.1209
vn 1.0000 0.0000 0.0000
vn 0.9703 0.1852 -0.1554
vn 0.3162 0.8915 -0.3245
vn 0.3162 0.8216 -0.4743
vn 0.8944 0.3873 -0.2236
vn 1.0000 0.0000 0.0000
vn 1.0000 0.0000 0.0000
vn 0.9703 0.0420 -0.2381
vn 0.9703 0.0827 -0.2272
vn 1.0000 0.0000 0.0000
vn 0.9703 0.1554 -0.1852
vn 1.0000 0.0000 0.0000
vn 0.9703 0.1209 -0.2094
vn 0.8944 0.2236 -0.3873
vn 0.3162 0.1647 -0.9343
vn 0.3162 0.3245 -0.8915
vn 0.8944 0.0777 -0.4404
vn 0.3162 0.4743 -0.8216
vn 0.8944 0.1530 -0.4202
vn 0.3162 0.7267 -0.6098
vn 0.3162 0.6098 -0.7267
vn 0.8944 0.3426 -0.2875
vn 0.8944 0.2875 -0.3426
f 1//1 2//2 3//3
f 4//4 5//5 6//6
f 6//6 7//7 4//4
f 8//8 9//9 10//10
f 10//10 11//11 8//8
f 12//12 1//1 13//13
f 3//3 13//13 1//1
f 13//13 14//14 12//12
f 15//15 12//12 14//14
f 14//14 13//13 16//16
f 5//5 8//8 11//11
f 11//11 6//6 5//5
f 7//7 6//6 17//17
f 11//11 10//10 18//18
f 6//6 11//11 19//19
f 20//20 3//3 2//2
f 21//21 20//20 22//22
f 2//2 22//22 20//20
f 7//7 23//23 24//24
f 25//25 24//24 23//23
f 24//24 4//4 7//7
f 22//22 26//26 21//21
f 27//27 21//21 26//26
f 26//26 28//28 27//27
f 21//21 27//27 29//29
f 23//23 30//30 25//25
f 31//31 25//25 30//30
f 30//30 32//32 31//31
f 13//13 3//3 33//33
f 3//3 20//20 34//34
f 33//33 16//16 13//13
f 34//34 33//33 3//3
f 20//20 21//21 35//35
f 35//35 34//34 20//20
f 29//29 35//35 21//21
f 23//23 7//7 36//36
f 30//30 23//23 37//37
f 32//32 30//30 38//38
f 39//39 40//40 41//41
f 42//42 43//43 44//44
f 40//40 42//42 45//45
f 43//43 46//46 47//47
f 48//48 15//15 49//49
f 50//50 48//48 51//51
f 49//49 51//51 48//48
f 9//9 52//52 53//53
f 53//53 10//10 9//9
f 54//54 53//53 52//52
f 14//14 49//49 15//15
f 49//49 14//14 55//55
f 16//16 55//55 14//14
f 55//55 56//56 49//49
f 51//51 49//49 56//56
f 56//56 57//57 51//51
f 51//51 58//58 50//50
f 58//58 59//59 60//60
f 60//60 50//50 58//58
f 59//59 58//58 61//61
f 52//52 62//62 54//54
f 62//62 63//63 64//64
f 64//64 54//54 62//62
f 58//58 51//51 57//57
f 57//57 61//61 58//58
f 61//61 65//65 59//59
f 10//10 53//53 66//66
f 67//67 68//68 69//69
f 53//53 54//54 70//70
f 54//54 64//64 71//71
f 72//72 67//67 73//73
f 74//74 72//72 75//75
f 76//76 39//39 77//77
f 68//68 76//76 78//78
f 17//17 36//36 7//7
f 18//18 19//19 11//11
f 19//19 17//17 6//6
f 36//36 17//17 79//79
f 79//79 80//80 36//36
f 19//19 18//18 81//81
f 81//81 82//82 19//19
f 83//83 84//84 85//85
f 17//17 19//19 82//82
f 82//82 79//79 17//17
f 86//86 83//83 87//87
f 88//88 86//86 89//89
f 87//87 89//89 86//86
f 85//85 87//87 83//83
f 89//89 87//87 90//90
f 36//36 37//37 23//23
f 37//37 38//38 30//30
f 38//38 91//91 32//32
f 45//45 41//41 40//40
f 44//44 45//45 42//42
f 47//47 44//44 43//43
f 37//37 36//36 80//80
f 80//80 92//92 37//37
f 38//38 37//37 92//92
f 93//93 94//94 95//95
f 94//94 88//88 96//96
f 96//96 95//95 94//94
f 92//92 97//97 38//38
f 91//91 38//38 97//97
f 97//97 98//98 91//91
f 99//99 93//93 100//100
f 100//100 101//101 99//99
f 95//95 100//100 93//93
f 101//101 100//100 102//102
f 89//89 96//96 88//88
f 95//95 96//96 103//103
f 103//103 104//104 95//95
f 96//96 89//89 105//105
f 105//105 103//103 96//96
f 90//90 105//105 89//89
f 100//100 95//95 104//104
f 104//104 102//102 100//100
f 102//102 106//106 101//101
f 66//66 18//18 10//10
f 70//70 66//66 53//53
f 78//78 69//69 68//68
f 71//71 70//70 54//54
f 69//69 73//73 67//67
f 73//73 75//75 72//72
f 75//75 107//107 74//74
f 18//18 66//66 108//108
f 108//108 81//81 18//18
f 109//109 108//108 66//66
f 110//110 85//85 84//84
f 84//84 111//111 110//110
f 112//112 110//110 111//111
f 87//87 85//85 113//113
f 113//113 90//90 87//87
f 85//85 110//110 114//114
f 114//114 113//113 85//85
f 66//66 70//70 109//109
f 70//70 71//71 115//115
f 115//115 109//109 70//70
f 111//111 116//116 112//112
f 116//116 117//117 118//118
f 118//118 112//112 116//116
f 112//112 118//118 119//119
f 120//120 114//114 110//110
f 110//110 112//112 120//120
f 119//119 120//120 112//112
f 77//77 78//78 76//76
f 41//41 77//77 39//39
f 121//121 27//27 28//28
f 28//28 122//122 121//121
f 27//27 121//121 123//123
f 124//124 121//121 122//122
f 125//125 31//31 32//32
f 32//32 126//126 125//125
f 127//127 125//125 126//126
f 122//122 128//128 124//124
f 129//129 124//124 128//128
f 128//128 130//130 129//129
f 126//126 131//131 127//127
f 132//132 127//127 131//131
f 131//131 133//133 132//132
f 123//123 29//29 27//27
f 121//121 124//124 134//134
f 134//134 123//123 121//121
f 124//124 129//129 135//135
f 135//135 134//134 124//124
f 136//136 129//129 130//130
f 137//137 135//135 129//129
f 129//129 136//136 137//137
f 138//138 137//137 136//136
f 126//126 32//32 91//91
f 131//131 126//126 139//139
f 133//133 131//131 140//140
f 46//46 141//141 142//142
f 141//141 143//143 144//144
f 143//143 145//145 146//146
f 147//147 132//132 133//133
f 133//133 148//148 147//147
f 149//149 136//136 150//150
f 130//130 150//150 136//136
f 150//150 151//151 149//149
f 136//136 149//149 138//138
f 152//152 149//149 151//151
f 153//153 147//147 148//148
f 148//148 154//154 153//153
f 151//151 155//155 152//152
f 156//156 153//153 154//154
f 154//154 157//157 156//156
f 148//148 133//133 158//158
f 154//154 148//148 159//159
f 157//157 154//154 160//160
f 145//145 161//161 162//162
f 161//161 163//163 164//164
f 165//165 138//138 149//149
f 149//149 152//152 165//165
f 166//166 165//165 152//152
f 152//152 167//167 166//166
f 167//167 152//152 155//155
f 168//168 167//167 169//169
f 155//155 169//169 167//167
f 170//170 156//156 157//157
f 157//157 171//171 170//170
f 172//172 170//170 171//171
f 173//173 166//166 167//167
f 167//167 168//168 173//173
f 174//174 173//173 168//168
f 169//169 175//175 168//168
f 168//168 176//176 174//174
f 176//176 168//168 175//175
f 175//175 177//177 176//176
f 171//171 178//178 172//172
f 179//179 172//172 178//178
f 178//178 180//180 179//179
f 163//163 181//181 182//182
f 171//171 157//157 183//183
f 178//178 171//171 184//184
f 181//181 185//185 186//186
f 185//185 187//187 188//188
f 187//187 189//189 190//190
f 180//180 178//178 191//191
f 91//91 139//139 126//126
f 139//139 140//140 131//131
f 140//140 158//158 133//133
f 142//142 47//47 46//46
f 144//144 142//142 141//141
f 146//146 144//144 143//143
f 162//162 146//146 145//145
f 139//139 91//91 98//98
f 98//98 192//192 139//139
f 140//140 139//139 192//192
f 193//193 99//99 101//101
f 101//101 194//194 193//193
f 195//195 193//193 194//194
f 194//194 101//101 106//106
f 192//192 196//196 140//140
f 158//158 140//140 196//196
f 196//196 197//197 158//158
f 198//198 195//195 199//199
f 194//194 199//199 195//195
f 199//199 200//200 198//198
f 106//106 201//201 194//194
f 199//199 194//194 201//201
f 201//201 202//202 199//199
f 200//200 199//199 202//202
f 203//203 200//200 204//204
f 202//202 204//204 200//200
f 204//204 205//205 203//203
f 158//158 159//159 148//148
f 159//159 160//160 154//154
f 160//160 183//183 157//157
f 159//159 158//158 197//197
f 197//197 206//206 159//159
f 207//207 198//198 200//200
f 160//160 159//159 206//206
f 206//206 208//208 160//160
f 200//200 203//203 207//207
f 209//209 207//207 203//203
f 210//210 203//203 205//205
f 211//211 209//209 210//210
f 203//203 210//210 209//209
f 183//183 160//160 208//208
f 208//208 212//212 183//183
f 164//164 162//162 161//161
f 182//182 164//164 163//163
f 186//186 182//182 181//181
f 183//183 184//184 171//171
f 188//188 186//186 185//185
f 190//190 188//188 187//187
f 184//184 191//191 178//178
f 191//191 213//213 180//180
f 205//205 214//214 210//210
f 215//215 210//210 214//214
f 214//214 216//216 215//215
f 210//210 215//215 211//211
f 217//217 215//215 216//216
f 216//216 218//218 217//217
f 184//184 183//183 212//212
f 212//212 219//219 184//184
f 191//191 184//184 219//219
f 220//220 211//211 215//215
f 215//215 217//217 220//220
f 221//221 220//220 217//217
f 222//222 217//217 218//218
f 218//218 223//223 222//222
f 223//223 224//224 225//225
f 219//219 226//226 191//191
f 213//213 191//191 226//226
f 226//226 227//227 213//213
f 217//217 222//222 221//221
f 225//225 222//222 223//223
f 228//228 221//221 222//222
f 222//222 225//225 228//228
f 59//59 229//229 230//230
f 230//230 60//60 59//59
f 229//229 59//59 65//65
f 231//231 230//230 229//229
f 63//63 232//232 233//233
f 233//233 64//64 63//63
f 234//234 233//233 232//232
f 65//65 235//235 229//229
f 236//236 229//229 235//235
f 235//235 237//237 236//236
f 229//229 236//236 231//231
f 238//238 231//231 236//236
f 236//236 239//239 238//238
f 232//232 240//240 234//234
f 241//241 234//234 240//240
f 240//240 242//242 241//241
f 239//239 236//236 237//237
f 237//237 243//243 239//239
f 244//244 239//239 243//243
f 243//243 245//245 244//244
f 64//64 233//233 246//246
f 247//247 74//74 107//107
f 248//248 247//247 249//249
f 250//250 248//248 251//251
f 233//233 234//234 252//252
f 234//234 241//241 253//253
f 254//254 250//250 255//255
f 256//256 254//254 257//257
f 258//258 256//256 259//259
f 260//260 238//238 239//239
f 242//242 261//261 262//262
f 262//262 241//241 242//242
f 239//239 244//244 260//260
f 263//263 244//244 245//245
f 264//264 260//260 244//244
f 244//244 263//263 264//264
f 265//265 264//264 263//263
f 261//261 266//266 267//267
f 267//267 262//262 261//261
f 266//266 268//268 269//269
f 269//269 267//267 266//266
f 241//241 262//262 270//270
f 262//262 267//267 271//271
f 267//267 269//269 272//272
f 245//245 273//273 263//263
f 274//274 263//263 273//273
f 273//273 275//275 274//274
f 263//263 274//274 265//265
f 275//275 276//276 277//277
f 277//277 274//274 275//275
f 276//276 278//278 279//279
f 279//279 277//277 276//276
f 278//278 280//280 281//281
f 282//282 265//265 274//274
f 274//274 277//277 282//282
f 283//283 282//282 277//277
f 268//268 284//284 285//285
f 285//285 269//269 268//268
f 286//286 285//285 284//284
f 277//277 279//279 283//283
f 281//281 279//279 278//278
f 279//279 281//281 287//287
f 287//287 283//283 279//279
f 284//284 288//288 286//286
f 288//288 289//289 290//290
f 290//290 286//286 288//288
f 291//291 258//258 292//292
f 293//293 291//291 294//294
f 295//295 293//293 296//296
f 269//269 285//285 297//297
f 285//285 286//286 298//298
f 286//286 290//290 299//299
f 246//246 71//71 64//64
f 252//252 246//246 233//233
f 107//107 249//249 247//247
f 249//249 251//251 248//248
f 253//253 252//252 234//234
f 251//251 255//255 250//250
f 71//71 246//246 300//300
f 300//300 115//115 71//71
f 301//301 300//300 246//246
f 117//117 302//302 303//303
f 303//303 118//118 117//117
f 118//118 303//303 304//304
f 305//305 303//303 302//302
f 304//304 119//119 118//118
f 306//306 304//304 303//303
f 303//303 305//305 306//306
f 246//246 252//252 301//301
f 252//252 253//253 307//307
f 307//307 301//301 252//252
f 302//302 308//308 305//305
f 309//309 305//305 308//308
f 308//308 310//310 309//309
f 311//311 306//306 305//305
f 305//305 309//309 311//311
f 312//312 309//309 310//310
f 313//313 311//311 309//309
f 309//309 312//312 313//313
f 314//314 313//313 312//312
f 255//255 257//257 254//254
f 257//257 259//259 256//256
f 270//270 253//253 241//241
f 271//271 270//270 262//262
f 272//272 271//271 267//267
f 253//253 270//270 315//315
f 315//315 307//307 253//253
f 270//270 271//271 316//316
f 316//316 315//315 270//270
f 310//310 317//317 312//312
f 318//318 312//312 317//317
f 312//312 318//318 314//314
f 317//317 319//319 318//318
f 320//320 318//318 319//319
f 271//271 272//272 321//321
f 321//321 316//316 271//271
f 319//319 322//322 320//320
f 259//259 292//292 258//258
f 292//292 294//294 291//291
f 294//294 296//296 293//293
f 296//296 323//323 295//295
f 297//297 272//272 269//269
f 298//298 297//297 285//285
f 299//299 298//298 286//286
f 324//324 314//314 318//318
f 325//325 324//324 320//320
f 318//318 320//320 324//324
f 320//320 326//326 325//325
f 327//327 325//325 326//326
f 326//326 328//328 327//327
f 329//329 327//327 328//328
f 330//330 321//321 272//272
f 272//272 297//297 330//330
f 331//331 330//330 297//297
f 326//326 320//320 322//322
f 322//322 332//332 326//326
f 328//328 326//326 332//332
f 297//297 298//298 331//331
f 298//298 299//299 333//333
f 333//333 331//331 298//298
f 328//328 334//334 329//329
f 332//332 335//335 328//328
f 335//335 336//336 334//334
f 334//334 328//328 335//335
f 337//337 338//338 339//339
f 338//338 340//340 341//341
f 342//342 174//174 176//176
f 343//343 342//342 344//344
f 344//344 345//345 343//343
f 176//176 344//344 342//342
f 344//344 176//176 177//177
f 177//177 346//346 344//344
f 345//345 344//344 346//346
f 347//347 179//179 180//180
f 180//180 348//348 347//347
f 349//349 347//347 348//348
f 350//350 343//343 345//345
f 345//345 351//351 350//350
f 352//352 350//350 351//351
f 353//353 352//352 354//354
f 351//351 354//354 352//352
f 354//354 351//351 355//355
f 351//351 345//345 356//356
f 346//346 356//356 345//345
f 356//356 355//355 351//351
f 348//348 357//357 349//349
f 358//358 349//349 357//357
f 357//357 359//359 358//358
f 189//189 360//360 361//361
f 360//360 362//362 363//363
f 348//348 180//180 213//213
f 357//357 348//348 364//364
f 362//362 337//337 365//365
f 359//359 357//357 366//366
f 280//280 367//367 368//368
f 367//367 369//369 370//370
f 370//370 368//368 367//367
f 369//369 371//371 372//372
f 371//371 353//353 373//373
f 372//372 370//370 369//369
f 373//373 372//372 371//371
f 368//368 281//281 280//280
f 281//281 368//368 374//374
f 374//374 287//287 281//281
f 375//375 374//374 368//368
f 289//289 376//376 377//377
f 377//377 290//290 289//289
f 378//378 377//377 376//376
f 368//368 370//370 375//375
f 379//379 375//375 370//370
f 370//370 372//372 379//379
f 380//380 381//381 382//382
f 376//376 380//380 378//378
f 382//382 378//378 380//380
f 383//383 295//295 323//323
f 384//384 385//385 386//386
f 385//385 383//383 387//387
f 340//340 384//384 388//388
f 290//290 377//377 389//389
f 377//377 378//378 390//390
f 378//378 382//382 391//391
f 354//354 373//373 353//353
f 373//373 354//354 392//392
f 355//355 392//392 354//354
f 372//372 373//373 393//393
f 392//392 393//393 373//373
f 394//394 395//395 396//396
f 396//396 397//397 394//394
f 395//395 358//358 359//359
f 359//359 396//396 395//395
f 393//393 379//379 372//372
f 381//381 394//394 397//397
f 397//397 382//382 381//381
f 397//397 396//396 398//398
f 396//396 359//359 399//399
f 382//382 397//397 400//400
f 388//388 341//341 340//340
f 341//341 339//339 338//338
f 361//361 190//190 189//189
f 363//363 361//361 360//360
f 365//365 363//363 362//362
f 213//213 364//364 348//348
f 339//339 365//365 337//337
f 364//364 366//366 357//357
f 366//366 399//399 359//359
f 224//224 401//401 402//402
f 403//403 402//402 401//401
f 401//401 404//404 403//403
f 364//364 213//213 227//227
f 227//227 405//405 364//364
f 366//366 364//364 405//405
f 402//402 225//225 224//224
f 406//406 228//228 225//225
f 225//225 402//402 406//406
f 407//407 406//406 402//402
f 404//404 408//408 409//409
f 409//409 403//403 404//404
f 408//408 410//410 411//411
f 411//411 409//409 408//408
f 405//405 412//412 366//366
f 412//412 413//413 399//399
f 399//399 366//366 412//412
f 414//414 407//407 403//403
f 402//402 403//403 407//407
f 403//403 409//409 414//414
f 323//323 387//387 383//383
f 387//387 386//386 385//385
f 386//386 388//388 384//384
f 389//389 299//299 290//290
f 390//390 389//389 377//377
f 391//391 390//390 378//378
f 415//415 329//329 334//334
f 416//416 415//415 417//417
f 417//417 418//418 416//416
f 410//410 419//419 420//420
f 419//419 421//421 422//422
f 422//422 420//420 419//419
f 421//421 416//416 418//418
f 418//418 422//422 421//421
f 420//420 422//422 423//423
f 299//299 389//389 424//424
f 424//424 333//333 299//299
f 425//425 424//424 389//389
f 334//334 417//417 415//415
f 418//418 417//417 426//426
f 336//336 426//426 417//417
f 417//417 334//334 336//336
f 389//389 390//390 425//425
f 390//390 391//391 427//427
f 427//427 425//425 390//390
f 422//422 418//418 428//428
f 428//428 423//423 422//422
f 426//426 428//428 418//418
f 398//398 400//400 397//397
f 399//399 398//398 396//396
f 400//400 391//391 382//382
f 400//400 398//398 429//429
f 429//429 430//430 400//400
f 420//420 411//411 410//410
f 409//409 411//411 431//431
f 423//423 432//432 420//420
f 411//411 420//420 432//432
f 432//432 431//431 411//411
f 398//398 399//399 413//413
f 413//413 429//429 398//398
f 431//431 414//414 409//409
f 391//391 400//400 430//430
f 430//430 427//427 391//391
