v -0.22600 -0.24940 0.29723
v -0.22600 -0.19400 0.33602
v -0.25000 -0.17000 0.29445
v -0.19000 -0.25712 0.30642
v -0.19000 -0.20000 0.34641
v -0.22600 -0.19400 0.33602
v -0.22600 -0.24940 0.29723
v -0.19000 -0.34641 0.20000
v -0.19000 -0.30642 0.25712
v -0.22600 -0.29723 0.24940
v -0.22600 -0.33602 0.19400
v -0.22600 -0.29723 0.24940
v -0.25000 -0.21855 0.26046
v -0.25000 -0.26046 0.21855
v -0.22600 -0.33602 0.19400
v -0.25000 -0.16558 0.19733
v 0.19000 -0.25712 0.30642
v 0.19000 -0.34641 0.20000
v 0.19000 -0.30642 0.25712
v -0.19000 -0.13681 0.37588
v -0.22600 -0.13270 0.36460
v -0.22600 -0.06738 0.38211
v -0.25000 -0.11629 0.31950
v -0.22600 -0.13270 0.36460
v -0.25000 -0.05904 0.33483
v -0.22600 -0.06738 0.38211
v -0.19000 -0.06946 0.39392
v -0.25000 0.00000 0.34000
v -0.22600 0.00000 0.38800
v -0.22600 0.00000 0.38800
v -0.19000 0.00000 0.40000
v -0.25000 -0.04473 0.25369
v -0.25000 0.00000 0.25760
v -0.25000 -0.12880 0.22309
v -0.25000 -0.08810 0.24206
v 0.19000 -0.20000 0.34641
v 0.19000 -0.13681 0.37588
v 0.19000 -0.06946 0.39392
v -0.25000 -0.12880 0.22309
v -0.25000 -0.08810 0.24206
v 0.25000 -0.08810 0.24206
v -0.25000 -0.16558 0.19733
v 0.25000 -0.12880 0.22309
v -0.25000 -0.04473 0.25369
v -0.25000 0.00000 0.25760
v 0.25000 0.00000 0.25760
v 0.25000 -0.04473 0.25369
v -0.19000 -0.37588 0.13681
v -0.22600 -0.36460 0.13270
v -0.22600 -0.36460 0.13270
v -0.25000 -0.29445 0.17000
v -0.22600 -0.38211 0.06738
v -0.25000 -0.31950 0.11629
v -0.19000 -0.39392 0.06946
v -0.25000 -0.19733 0.16558
v -0.25000 -0.22309 0.12880
v -0.25000 -0.24206 0.08810
v -0.22600 -0.38211 0.06738
v -0.25000 -0.33483 0.05904
v -0.22600 -0.38800 0.00000
v -0.25000 -0.34000 0.00000
v -0.19000 -0.40000 0.00000
v -0.22600 -0.38800 0.00000
v -0.25000 -0.25369 0.04473
v -0.25000 -0.25760 0.00000
v 0.19000 -0.37588 0.13681
v -0.25000 -0.22309 0.12880
v -0.25000 -0.19733 0.16558
v 0.25000 -0.19733 0.16558
v -0.25000 -0.24206 0.08810
v 0.25000 -0.22309 0.12880
v 0.19000 -0.39392 0.06946
v 0.19000 -0.40000 0.00000
v -0.25000 -0.25369 0.04473
v 0.25000 -0.24206 0.08810
v -0.25000 -0.25760 0.00000
v 0.25000 -0.25369 0.04473
v 0.25000 -0.16558 0.19733
v 0.22600 -0.24940 0.29723
v 0.22600 -0.19400 0.33602
v 0.22600 -0.33602 0.19400
v 0.22600 -0.29723 0.24940
v 0.22600 -0.29723 0.24940
v 0.22600 -0.33602 0.19400
v 0.25000 -0.29445 0.17000
v 0.22600 -0.24940 0.29723
v 0.25000 -0.26046 0.21855
v 0.22600 -0.19400 0.33602
v 0.25000 -0.21855 0.26046
v 0.25000 -0.19733 0.16558
v 0.19000 0.00000 0.40000
v 0.22600 -0.13270 0.36460
v 0.22600 -0.06738 0.38211
v 0.22600 -0.13270 0.36460
v 0.25000 -0.11629 0.31950
v 0.25000 -0.17000 0.29445
v 0.22600 -0.06738 0.38211
v 0.22600 0.00000 0.38800
v 0.22600 0.00000 0.38800
v 0.25000 -0.05904 0.33483
v 0.25000 0.00000 0.34000
v 0.25000 -0.04473 0.25369
v 0.25000 -0.16558 0.19733
v 0.25000 -0.12880 0.22309
v 0.25000 -0.08810 0.24206
v 0.25000 0.00000 0.25760
v 0.25000 -0.25760 0.00000
v 0.22600 -0.36460 0.13270
v 0.25000 -0.31950 0.11629
v 0.22600 -0.38211 0.06738
v 0.22600 -0.36460 0.13270
v 0.25000 -0.33483 0.05904
v 0.25000 -0.22309 0.12880
v 0.25000 -0.24206 0.08810
v 0.22600 -0.38211 0.06738
v 0.25000 -0.25369 0.04473
v 0.22600 -0.38800 0.00000
v 0.25000 -0.34000 0.00000
v 0.22600 -0.38800 0.00000
v 0.25000 -0.25760 0.00000
v -0.25000 0.05904 0.33483
v -0.22600 0.06738 0.38211
v -0.22600 0.06738 0.38211
v -0.19000 0.06946 0.39392
v -0.22600 0.13270 0.36460
v -0.25000 0.04473 0.25369
v -0.25000 0.11629 0.31950
v -0.22600 0.13270 0.36460
v -0.19000 0.13681 0.37588
v -0.22600 0.19400 0.33602
v -0.19000 0.20000 0.34641
v -0.25000 0.17000 0.29445
v -0.22600 0.19400 0.33602
v -0.25000 0.08810 0.24206
v -0.25000 0.12880 0.22309
v -0.25000 0.21855 0.26046
v -0.25000 0.16558 0.19733
v -0.25000 0.19733 0.16558
v 0.19000 0.06946 0.39392
v 0.19000 0.13681 0.37588
v -0.25000 0.04473 0.25369
v 0.25000 0.04473 0.25369
v -0.25000 0.08810 0.24206
v 0.25000 0.08810 0.24206
v -0.25000 0.12880 0.22309
v 0.25000 0.12880 0.22309
v -0.25000 0.16558 0.19733
v 0.25000 0.16558 0.19733
v -0.22600 0.24940 0.29723
v -0.19000 0.25712 0.30642
v -0.22600 0.24940 0.29723
v -0.25000 0.26046 0.21855
v -0.22600 0.29723 0.24940
v -0.22600 0.29723 0.24940
v -0.19000 0.30642 0.25712
v -0.25000 0.29445 0.17000
v -0.22600 0.33602 0.19400
v -0.22600 0.33602 0.19400
v -0.19000 0.34641 0.20000
v 0.19000 0.20000 0.34641
v 0.19000 0.25712 0.30642
v 0.19000 0.30642 0.25712
v -0.25000 0.19733 0.16558
v 0.25000 0.19733 0.16558
v -0.25000 0.22309 0.12880
v -0.25000 0.24206 0.08810
v -0.25000 0.31950 0.11629
v -0.22600 0.36460 0.13270
v -0.19000 0.37588 0.13681
v -0.22600 0.36460 0.13270
v -0.25000 0.33483 0.05904
v -0.22600 0.38211 0.06738
v -0.25000 0.25369 0.04473
v -0.25000 0.25760 0.00000
v -0.22600 0.38211 0.06738
v -0.19000 0.39392 0.06946
v -0.25000 0.34000 0.00000
v -0.22600 0.38800 0.00000
v -0.22600 0.38800 0.00000
v -0.19000 0.40000 0.00000
v -0.25000 0.22309 0.12880
v 0.25000 0.22309 0.12880
v -0.25000 0.24206 0.08810
v 0.25000 0.24206 0.08810
v 0.19000 0.34641 0.20000
v 0.19000 0.37588 0.13681
v -0.25000 0.25369 0.04473
v 0.25000 0.25369 0.04473
v -0.25000 0.25760 0.00000
v 0.25000 0.25760 0.00000
v 0.19000 0.39392 0.06946
v 0.22600 0.06738 0.38211
v 0.22600 0.06738 0.38211
v 0.25000 0.05904 0.33483
v 0.22600 0.13270 0.36460
v 0.25000 0.11629 0.31950
v 0.25000 0.04473 0.25369
v 0.22600 0.13270 0.36460
v 0.22600 0.19400 0.33602
v 0.22600 0.19400 0.33602
v 0.25000 0.17000 0.29445
v 0.25000 0.08810 0.24206
v 0.25000 0.12880 0.22309
v 0.25000 0.21855 0.26046
v 0.25000 0.16558 0.19733
v 0.22600 0.24940 0.29723
v 0.22600 0.24940 0.29723
v 0.22600 0.29723 0.24940
v 0.22600 0.29723 0.24940
v 0.25000 0.26046 0.21855
v 0.22600 0.33602 0.19400
v 0.22600 0.33602 0.19400
v 0.19000 0.40000 0.00000
v 0.25000 0.19733 0.16558
v 0.25000 0.22309 0.12880
v 0.25000 0.29445 0.17000
v 0.25000 0.31950 0.11629
v 0.25000 0.24206 0.08810
v 0.22600 0.36460 0.13270
v 0.22600 0.36460 0.13270
v 0.22600 0.38211 0.06738
v 0.25000 0.33483 0.05904
v 0.25000 0.25369 0.04473
v 0.25000 0.25760 0.00000
v 0.25000 0.34000 0.00000
v 0.22600 0.38211 0.06738
v 0.22600 0.38800 0.00000
v 0.22600 0.38800 0.00000
v -0.22600 -0.38211 -0.06738
v -0.25000 -0.33483 -0.05904
v -0.19000 -0.39392 -0.06946
v -0.22600 -0.38211 -0.06738
v -0.22600 -0.36460 -0.13270
v -0.19000 -0.37588 -0.13681
v -0.25000 -0.31950 -0.11629
v -0.25000 -0.25369 -0.04473
v -0.25000 -0.24206 -0.08810
v -0.22600 -0.36460 -0.13270
v -0.22600 -0.33602 -0.19400
v -0.19000 -0.34641 -0.20000
v -0.25000 -0.29445 -0.17000
v -0.22600 -0.33602 -0.19400
v -0.25000 -0.22309 -0.12880
v -0.25000 -0.26046 -0.21855
v -0.25000 -0.19733 -0.16558
v 0.19000 -0.39392 -0.06946
v -0.25000 -0.25369 -0.04473
v -0.25000 -0.24206 -0.08810
v 0.25000 -0.25369 -0.04473
v 0.19000 -0.37588 -0.13681
v 0.19000 -0.34641 -0.20000
v -0.25000 -0.22309 -0.12880
v 0.25000 -0.24206 -0.08810
v -0.25000 -0.19733 -0.16558
v 0.25000 -0.22309 -0.12880
v -0.25000 -0.16558 -0.19733
v 0.25000 -0.19733 -0.16558
v -0.22600 -0.29723 -0.24940
v -0.19000 -0.30642 -0.25712
v -0.22600 -0.29723 -0.24940
v -0.25000 -0.21855 -0.26046
v -0.22600 -0.24940 -0.29723
v -0.19000 -0.25712 -0.30642
v -0.22600 -0.24940 -0.29723
v -0.22600 -0.19400 -0.33602
v -0.19000 -0.20000 -0.34641
v -0.22600 -0.19400 -0.33602
v 0.19000 -0.30642 -0.25712
v 0.19000 -0.25712 -0.30642
v 0.19000 -0.20000 -0.34641
v -0.25000 -0.16558 -0.19733
v -0.25000 -0.12880 -0.22309
v -0.25000 -0.17000 -0.29445
v -0.25000 -0.08810 -0.24206
v -0.25000 -0.11629 -0.31950
v -0.25000 -0.05904 -0.33483
v -0.25000 -0.04473 -0.25369
v -0.25000 0.00000 -0.25760
v -0.25000 0.00000 -0.34000
v -0.22600 -0.13270 -0.36460
v -0.19000 -0.13681 -0.37588
v -0.22600 -0.13270 -0.36460
v -0.22600 -0.06738 -0.38211
v -0.19000 -0.06946 -0.39392
v -0.22600 -0.06738 -0.38211
v -0.22600 0.00000 -0.38800
v -0.19000 0.00000 -0.40000
v -0.22600 0.00000 -0.38800
v -0.25000 -0.12880 -0.22309
v 0.25000 -0.16558 -0.19733
v -0.25000 -0.08810 -0.24206
v 0.25000 -0.12880 -0.22309
v -0.25000 -0.04473 -0.25369
v 0.25000 -0.08810 -0.24206
v -0.25000 0.00000 -0.25760
v 0.25000 -0.04473 -0.25369
v 0.19000 -0.13681 -0.37588
v 0.19000 -0.06946 -0.39392
v 0.19000 0.00000 -0.40000
v 0.22600 -0.38211 -0.06738
v 0.25000 -0.33483 -0.05904
v 0.22600 -0.38211 -0.06738
v 0.25000 -0.25369 -0.04473
v 0.22600 -0.36460 -0.13270
v 0.25000 -0.31950 -0.11629
v 0.25000 -0.24206 -0.08810
v 0.22600 -0.36460 -0.13270
v 0.25000 -0.29445 -0.17000
v 0.22600 -0.33602 -0.19400
v 0.22600 -0.33602 -0.19400
v 0.25000 -0.22309 -0.12880
v 0.25000 -0.26046 -0.21855
v 0.25000 -0.19733 -0.16558
v 0.25000 -0.16558 -0.19733
v 0.22600 -0.29723 -0.24940
v 0.22600 -0.29723 -0.24940
v 0.25000 -0.21855 -0.26046
v 0.22600 -0.24940 -0.29723
v 0.22600 -0.24940 -0.29723
v 0.25000 -0.17000 -0.29445
v 0.22600 -0.19400 -0.33602
v 0.22600 -0.19400 -0.33602
v 0.25000 0.00000 -0.25760
v 0.25000 -0.12880 -0.22309
v 0.25000 -0.08810 -0.24206
v 0.25000 -0.11629 -0.31950
v 0.25000 -0.04473 -0.25369
v 0.25000 0.00000 -0.25760
v 0.25000 -0.05904 -0.33483
v 0.22600 -0.13270 -0.36460
v 0.22600 -0.13270 -0.36460
v 0.22600 -0.06738 -0.38211
v 0.25000 0.00000 -0.34000
v 0.22600 -0.06738 -0.38211
v 0.22600 0.00000 -0.38800
v 0.22600 0.00000 -0.38800
v -0.25000 0.19733 -0.16558
v -0.25000 0.16558 -0.19733
v 0.25000 0.16558 -0.19733
v -0.25000 0.25369 -0.04473
v -0.25000 0.24206 -0.08810
v -0.25000 0.33483 -0.05904
v -0.25000 0.31950 -0.11629
v -0.22600 0.38211 -0.06738
v -0.22600 0.38211 -0.06738
v -0.19000 0.39392 -0.06946
v -0.22600 0.36460 -0.13270
v -0.25000 0.22309 -0.12880
v -0.25000 0.29445 -0.17000
v -0.25000 0.19733 -0.16558
v -0.25000 0.16558 -0.19733
v -0.25000 0.26046 -0.21855
v -0.22600 0.33602 -0.19400
v -0.22600 0.36460 -0.13270
v -0.19000 0.37588 -0.13681
v -0.22600 0.33602 -0.19400
v -0.19000 0.34641 -0.20000
v -0.25000 0.25369 -0.04473
v 0.25000 0.25369 -0.04473
v -0.25000 0.24206 -0.08810
v 0.25000 0.24206 -0.08810
v 0.19000 0.39392 -0.06946
v -0.25000 0.22309 -0.12880
v 0.25000 0.22309 -0.12880
v 0.25000 0.19733 -0.16558
v 0.19000 0.37588 -0.13681
v -0.25000 0.04473 -0.25369
v -0.25000 0.05904 -0.33483
v -0.25000 0.08810 -0.24206
v -0.25000 0.11629 -0.31950
v -0.25000 0.12880 -0.22309
v -0.25000 0.21855 -0.26046
v -0.25000 0.17000 -0.29445
v -0.22600 0.06738 -0.38211
v -0.19000 0.06946 -0.39392
v -0.22600 0.06738 -0.38211
v -0.22600 0.13270 -0.36460
v -0.19000 0.13681 -0.37588
v -0.22600 0.19400 -0.33602
v -0.22600 0.13270 -0.36460
v -0.22600 0.19400 -0.33602
v -0.19000 0.20000 -0.34641
v -0.25000 0.08810 -0.24206
v -0.25000 0.04473 -0.25369
v 0.25000 0.04473 -0.25369
v -0.25000 0.12880 -0.22309
v 0.25000 0.12880 -0.22309
v 0.25000 0.08810 -0.24206
v 0.19000 0.06946 -0.39392
v 0.19000 0.13681 -0.37588
v 0.19000 0.20000 -0.34641
v -0.22600 0.29723 -0.24940
v -0.22600 0.24940 -0.29723
v -0.22600 0.24940 -0.29723
v -0.22600 0.29723 -0.24940
v -0.19000 0.30642 -0.25712
v -0.19000 0.25712 -0.30642
v 0.19000 0.30642 -0.25712
v 0.19000 0.34641 -0.20000
v 0.19000 0.25712 -0.30642
v 0.25000 0.25369 -0.04473
v 0.25000 0.33483 -0.05904
v 0.25000 0.24206 -0.08810
v 0.25000 0.31950 -0.11629
v 0.22600 0.38211 -0.06738
v 0.22600 0.38211 -0.06738
v 0.22600 0.36460 -0.13270
v 0.25000 0.29445 -0.17000
v 0.25000 0.22309 -0.12880
v 0.25000 0.19733 -0.16558
v 0.25000 0.26046 -0.21855
v 0.22600 0.33602 -0.19400
v 0.22600 0.36460 -0.13270
v 0.22600 0.33602 -0.19400
v 0.25000 0.04473 -0.25369
v 0.25000 0.08810 -0.24206
v 0.25000 0.05904 -0.33483
v 0.25000 0.11629 -0.31950
v 0.25000 0.16558 -0.19733
v 0.25000 0.21855 -0.26046
v 0.25000 0.12880 -0.22309
v 0.25000 0.17000 -0.29445
v 0.22600 0.19400 -0.33602
v 0.22600 0.06738 -0.38211
v 0.22600 0.06738 -0.38211
v 0.22600 0.13270 -0.36460
v 0.22600 0.13270 -0.36460
v 0.22600 0.19400 -0.33602
v 0.22600 0.29723 -0.24940
v 0.22600 0.24940 -0.29723
v 0.22600 0.29723 -0.24940
v 0.22600 0.24940 -0.29723
vn -0.8944 -0.2875 0.3426
vn -0.8944 -0.2236 0.3873
vn -0.9703 -0.1209 0.2094
vn -0.1588 -0.6346 0.7563
vn -0.1588 -0.4937 0.8550
vn -0.3162 -0.4743 0.8216
vn -0.3162 -0.6098 0.7267
vn -0.1588 -0.8550 0.4937
vn -0.1588 -0.7563 0.6346
vn -0.3162 -0.7267 0.6098
vn -0.3162 -0.8216 0.4743
vn -0.8944 -0.3426 0.2875
vn -0.9703 -0.1554 0.1852
vn -0.9703 -0.1852 0.1554
vn -0.8944 -0.3873 0.2236
vn -1.0000 0.0000 0.0000
vn 0.1588 -0.6346 0.7563
vn 0.1588 -0.8550 0.4937
vn 0.1588 -0.7563 0.6346
vn -0.1588 -0.3377 0.9278
vn -0.3162 -0.3245 0.8915
vn -0.3162 -0.1647 0.9343
vn -0.9703 -0.0827 0.2272
vn -0.8944 -0.1530 0.4202
vn -0.9703 -0.0420 0.2381
vn -0.8944 -0.0777 0.4404
vn -0.1588 -0.1714 0.9723
vn -0.9703 -0.0000 0.2418
vn -0.8944 -0.0000 0.4472
vn -0.3162 -0.0000 0.9487
vn -0.1588 0.0000 0.9873
vn -1.0000 0.0000 0.0000
vn -1.0000 0.0000 0.0000
vn -1.0000 0.0000 0.0000
vn -1.0000 0.0000 0.0000
vn 0.1588 -0.4937 0.8550
vn 0.1588 -0.3377 0.9278
vn 0.1588 -0.1714 0.9723
vn -0.0000 0.5000 -0.8660
vn 0.0000 0.3420 -0.9397
vn -0.0000 0.3420 -0.9397
vn -0.0000 0.6428 -0.7660
vn -0.0000 0.5000 -0.8660
vn 0.0000 0.1736 -0.9848
vn 0.0000 -0.0000 -1.0000
vn 0.0000 0.0000 -1.0000
vn 0.0000 0.1736 -0.9848
vn -0.1588 -0.9278 0.3377
vn -0.3162 -0.8915 0.3245
vn -0.8944 -0.4202 0.1530
vn -0.9703 -0.2094 0.1209
vn -0.8944 -0.4404 0.0777
vn -0.9703 -0.2272 0.0827
vn -0.1588 -0.9723 0.1714
vn -1.0000 0.0000 0.0000
vn -1.0000 0.0000 0.0000
vn -1.0000 0.0000 0.0000
vn -0.3162 -0.9343 0.1647
vn -0.9703 -0.2381 0.0420
vn -0.8944 -0.4472 -0.0000
vn -0.9703 -0.2418 -0.0000
vn -0.1588 -0.9873 0.0000
vn -0.3162 -0.9487 -0.0000
vn -1.0000 0.0000 0.0000
vn -1.0000 0.0000 0.0000
vn 0.1588 -0.9278 0.3377
vn 0.0000 0.8660 -0.5000
vn 0.0000 0.7660 -0.6428
vn 0.0000 0.7660 -0.6428
vn 0.0000 0.9397 -0.3420
vn 0.0000 0.8660 -0.5000
vn 0.1588 -0.9723 0.1714
vn 0.1588 -0.9873 -0.0000
vn -0.0000 0.9848 -0.1736
vn -0.0000 0.9397 -0.3420
vn 0.0000 1.0000 -0.0000
vn 0.0000 0.9848 -0.1736
vn 0.0000 0.6428 -0.7660
vn 0.3162 -0.6098 0.7267
vn 0.3162 -0.4743 0.8216
vn 0.3162 -0.8216 0.4743
vn 0.3162 -0.7267 0.6098
vn 0.8944 -0.3426 0.2875
vn 0.8944 -0.3873 0.2236
vn 0.9703 -0.2094 0.1209
vn 0.8944 -0.2875 0.3426
vn 0.9703 -0.1852 0.1554
vn 0.8944 -0.2236 0.3873
vn 0.9703 -0.1554 0.1852
vn 1.0000 0.0000 0.0000
vn 0.1588 -0.0000 0.9873
vn 0.3162 -0.3245 0.8915
vn 0.8944 -0.0777 0.4404
vn 0.8944 -0.1530 0.4202
vn 0.9703 -0.0827 0.2272
vn 0.9703 -0.1209 0.2094
vn 0.3162 -0.1647 0.9343
vn 0.3162 0.0000 0.9487
vn 0.8944 0.0000 0.4472
vn 0.9703 -0.0420 0.2381
vn 0.9703 0.0000 0.2418
vn 1.0000 0.0000 0.0000
vn 1.0000 0.0000 0.0000
vn 1.0000 0.0000 0.0000
vn 1.0000 0.0000 0.0000
vn 1.0000 0.0000 0.0000
vn 0.0000 1.0000 0.0000
vn 0.3162 -0.8915 0.3245
vn 0.9703 -0.2272 0.0827
vn 0.3162 -0.9343 0.1647
vn 0.8944 -0.4202 0.1530
vn 0.9703 -0.2381 0.0420
vn 1.0000 0.0000 0.0000
vn 1.0000 0.0000 0.0000
vn 0.8944 -0.4404 0.0777
vn 1.0000 0.0000 0.0000
vn 0.3162 -0.9487 0.0000
vn 0.9703 -0.2418 0.0000
vn 0.8944 -0.4472 0.0000
vn 1.0000 0.0000 0.0000
vn -0.9703 0.0420 0.2381
vn -0.8944 0.0777 0.4404
vn -0.3162 0.1647 0.9343
vn -0.1588 0.1714 0.9723
vn -0.3162 0.3245 0.8915
vn -1.0000 0.0000 0.0000
vn -0.9703 0.0827 0.2272
vn -0.8944 0.1530 0.4202
vn -0.1588 0.3377 0.9278
vn -0.3162 0.4743 0.8216
vn -0.1588 0.4937 0.8550
vn -0.9703 0.1209 0.2094
vn -0.8944 0.2236 0.3873
vn -1.0000 0.0000 0.0000
vn -1.0000 0.0000 0.0000
vn -0.9703 0.1554 0.1852
vn -1.0000 0.0000 0.0000
vn -1.0000 0.0000 0.0000
vn 0.1588 0.1714 0.9723
vn 0.1588 0.3377 0.9278
vn -0.0000 -0.1736 -0.9848
vn 0.0000 -0.1736 -0.9848
vn 0.0000 -0.3420 -0.9397
vn -0.0000 -0.3420 -0.9397
vn 0.0000 -0.5000 -0.8660
vn 0.0000 -0.5000 -0.8660
vn 0.0000 -0.6428 -0.7660
vn 0.0000 -0.6428 -0.7660
vn -0.3162 0.6098 0.7267
vn -0.1588 0.6346 0.7563
vn -0.8944 0.2875 0.3426
vn -0.9703 0.1852 0.1554
vn -0.8944 0.3426 0.2875
vn -0.3162 0.7267 0.6098
vn -0.1588 0.7563 0.6346
vn -0.9703 0.2094 0.1209
vn -0.8944 0.3873 0.2236
vn -0.3162 0.8216 0.4743
vn -0.1588 0.8550 0.4937
vn 0.1588 0.4937 0.8550
vn 0.1588 0.6346 0.7563
vn 0.1588 0.7563 0.6346
vn -0.0000 -0.7660 -0.6428
vn 0.0000 -0.7660 -0.6428
vn -1.0000 0.0000 0.0000
vn -1.0000 0.0000 0.0000
vn -0.9703 0.2272 0.0827
vn -0.3162 0.8915 0.3245
vn -0.1588 0.9278 0.3377
vn -0.8944 0.4202 0.1530
vn -0.9703 0.2381 0.0420
vn -0.3162 0.9343 0.1647
vn -1.0000 0.0000 0.0000
vn -1.0000 0.0000 0.0000
vn -0.8944 0.4404 0.0777
vn -0.1588 0.9723 0.1714
vn -0.9703 0.2418 0.0000
vn -0.8944 0.4472 0.0000
vn -0.3162 0.9487 0.0000
vn -0.1588 0.9873 -0.0000
vn -0.0000 -0.8660 -0.5000
vn -0.0000 -0.8660 -0.5000
vn 0.0000 -0.9397 -0.3420
vn -0.0000 -0.9397 -0.3420
vn 0.1588 0.8550 0.4937
vn 0.1588 0.9278 0.3377
vn 0.0000 -0.9848 -0.1736
vn 0.0000 -0.9848 -0.1736
vn 0.0000 -1.0000 0.0000
vn 0.0000 -1.0000 -0.0000
vn 0.1588 0.9723 0.1714
vn 0.3162 0.1647 0.9343
vn 0.8944 0.0777 0.4404
vn 0.9703 0.0420 0.2381
vn 0.8944 0.1530 0.4202
vn 0.9703 0.0827 0.2272
vn 1.0000 0.0000 0.0000
vn 0.3162 0.3245 0.8915
vn 0.8944 0.2236 0.3873
vn 0.3162 0.4743 0.8216
vn 0.9703 0.1209 0.2094
vn 1.0000 0.0000 0.0000
vn 1.0000 0.0000 0.0000
vn 0.9703 0.1554 0.1852
vn 1.0000 0.0000 0.0000
vn 0.3162 0.6098 0.7267
vn 0.8944 0.2875 0.3426
vn 0.3162 0.7267 0.6098
vn 0.8944 0.3426 0.2875
vn 0.9703 0.1852 0.1554
vn 0.8944 0.3873 0.2236
vn 0.3162 0.8216 0.4743
vn 0.1588 0.9873 0.0000
vn 1.0000 0.0000 0.0000
vn 1.0000 0.0000 0.0000
vn 0.9703 0.2094 0.1209
vn 0.9703 0.2272 0.0827
vn 1.0000 0.0000 0.0000
vn 0.8944 0.4202 0.1530
vn 0.3162 0.8915 0.3245
vn 0.8944 0.4404 0.0777
vn 0.9703 0.2381 0.0420
vn 1.0000 0.0000 0.0000
vn 1.0000 0.0000 0.0000
vn 0.9703 0.2418 -0.0000
vn 0.3162 0.9343 0.1647
vn 0.3162 0.9487 -0.0000
vn 0.8944 0.4472 -0.0000
vn -0.8944 -0.4404 -0.0777
vn -0.9703 -0.2381 -0.0420
vn -0.1588 -0.9723 -0.1714
vn -0.3162 -0.9343 -0.1647
vn -0.8944 -0.4202 -0.1530
vn -0.1588 -0.9278 -0.3377
vn -0.9703 -0.2272 -0.0827
vn -1.0000 0.0000 0.0000
vn -1.0000 0.0000 0.0000
vn -0.3162 -0.8915 -0.3245
vn -0.8944 -0.3873 -0.2236
vn -0.1588 -0.8550 -0.4937
vn -0.9703 -0.2094 -0.1209
vn -0.3162 -0.8216 -0.4743
vn -1.0000 0.0000 0.0000
vn -0.9703 -0.1852 -0.1554
vn -1.0000 0.0000 0.0000
vn 0.1588 -0.9723 -0.1714
vn 0.0000 0.9848 0.1736
vn 0.0000 0.9397 0.3420
vn 0.0000 0.9848 0.1736
vn 0.1588 -0.9278 -0.3377
vn 0.1588 -0.8550 -0.4937
vn -0.0000 0.8660 0.5000
vn -0.0000 0.9397 0.3420
vn -0.0000 0.7660 0.6428
vn -0.0000 0.8660 0.5000
vn 0.0000 0.6428 0.7660
vn 0.0000 0.7660 0.6428
vn -0.8944 -0.3426 -0.2875
vn -0.1588 -0.7563 -0.6346
vn -0.3162 -0.7267 -0.6098
vn -0.9703 -0.1554 -0.1852
vn -0.8944 -0.2875 -0.3426
vn -0.1588 -0.6346 -0.7563
vn -0.3162 -0.6098 -0.7267
vn -0.8944 -0.2236 -0.3873
vn -0.1588 -0.4937 -0.8550
vn -0.3162 -0.4743 -0.8216
vn 0.1588 -0.7563 -0.6346
vn 0.1588 -0.6346 -0.7563
vn 0.1588 -0.4937 -0.8550
vn -1.0000 0.0000 0.0000
vn -1.0000 0.0000 0.0000
vn -0.9703 -0.1209 -0.2094
vn -1.0000 0.0000 0.0000
vn -0.9703 -0.0827 -0.2272
vn -0.9703 -0.0420 -0.2381
vn -1.0000 0.0000 0.0000
vn -1.0000 0.0000 0.0000
vn -0.9703 0.0000 -0.2418
vn -0.8944 -0.1530 -0.4202
vn -0.1588 -0.3377 -0.9278
vn -0.3162 -0.3245 -0.8915
vn -0.8944 -0.0777 -0.4404
vn -0.1588 -0.1714 -0.9723
vn -0.3162 -0.1647 -0.9343
vn -0.8944 0.0000 -0.4472
vn -0.1588 -0.0000 -0.9873
vn -0.3162 0.0000 -0.9487
vn 0.0000 0.5000 0.8660
vn 0.0000 0.6428 0.7660
vn 0.0000 0.3420 0.9397
vn 0.0000 0.5000 0.8660
vn -0.0000 0.1736 0.9848
vn -0.0000 0.3420 0.9397
vn 0.0000 0.0000 1.0000
vn 0.0000 0.1736 0.9848
vn 0.1588 -0.3377 -0.9278
vn 0.1588 -0.1714 -0.9723
vn 0.1588 0.0000 -0.9873
vn 0.3162 -0.9343 -0.1647
vn 0.9703 -0.2381 -0.0420
vn 0.8944 -0.4404 -0.0777
vn 1.0000 0.0000 0.0000
vn 0.3162 -0.8915 -0.3245
vn 0.9703 -0.2272 -0.0827
vn 1.0000 0.0000 0.0000
vn 0.8944 -0.4202 -0.1530
vn 0.9703 -0.2094 -0.1209
vn 0.3162 -0.8216 -0.4743
vn 0.8944 -0.3873 -0.2236
vn 1.0000 0.0000 0.0000
vn 0.9703 -0.1852 -0.1554
vn 1.0000 0.0000 0.0000
vn 1.0000 0.0000 0.0000
vn 0.3162 -0.7267 -0.6098
vn 0.8944 -0.3426 -0.2875
vn 0.9703 -0.1554 -0.1852
vn 0.3162 -0.6098 -0.7267
vn 0.8944 -0.2875 -0.3426
vn 0.9703 -0.1209 -0.2094
vn 0.3162 -0.4743 -0.8216
vn 0.8944 -0.2236 -0.3873
vn 0.0000 -0.0000 1.0000
vn 1.0000 0.0000 0.0000
vn 1.0000 0.0000 0.0000
vn 0.9703 -0.0827 -0.2272
vn 1.0000 0.0000 0.0000
vn 1.0000 0.0000 0.0000
vn 0.9703 -0.0420 -0.2381
vn 0.3162 -0.3245 -0.8915
vn 0.8944 -0.1530 -0.4202
vn 0.3162 -0.1647 -0.9343
vn 0.9703 -0.0000 -0.2418
vn 0.8944 -0.0777 -0.4404
vn 0.3162 -0.0000 -0.9487
vn 0.8944 -0.0000 -0.4472
vn 0.0000 -0.7660 0.6428
vn -0.0000 -0.6428 0.7660
vn 0.0000 -0.6428 0.7660
vn -1.0000 0.0000 0.0000
vn -1.0000 0.0000 0.0000
vn -0.9703 0.2381 -0.0420
vn -0.9703 0.2272 -0.0827
vn -0.8944 0.4404 -0.0777
vn -0.3162 0.9343 -0.1647
vn -0.1588 0.9723 -0.1714
vn -0.3162 0.8915 -0.3245
vn -1.0000 0.0000 0.0000
vn -0.9703 0.2094 -0.1209
vn -1.0000 0.0000 0.0000
vn -1.0000 0.0000 0.0000
vn -0.9703 0.1852 -0.1554
vn -0.8944 0.3873 -0.2236
vn -0.8944 0.4202 -0.1530
vn -0.1588 0.9278 -0.3377
vn -0.3162 0.8216 -0.4743
vn -0.1588 0.8550 -0.4937
vn -0.0000 -0.9848 0.1736
vn 0.0000 -0.9848 0.1736
vn 0.0000 -0.9397 0.3420
vn -0.0000 -0.9397 0.3420
vn 0.1588 0.9723 -0.1714
vn 0.0000 -0.8660 0.5000
vn 0.0000 -0.8660 0.5000
vn 0.0000 -0.7660 0.6428
vn 0.1588 0.9278 -0.3377
vn -1.0000 0.0000 0.0000
vn -0.9703 0.0420 -0.2381
vn -1.0000 0.0000 0.0000
vn -0.9703 0.0827 -0.2272
vn -1.0000 0.0000 0.0000
vn -0.9703 0.1554 -0.1852
vn -0.9703 0.1209 -0.2094
vn -0.8944 0.0777 -0.4404
vn -0.1588 0.1714 -0.9723
vn -0.3162 0.1647 -0.9343
vn -0.8944 0.1530 -0.4202
vn -0.1588 0.3377 -0.9278
vn -0.8944 0.2236 -0.3873
vn -0.3162 0.3245 -0.8915
vn -0.3162 0.4743 -0.8216
vn -0.1588 0.4937 -0.8550
vn 0.0000 -0.3420 0.9397
vn 0.0000 -0.1736 0.9848
vn 0.0000 -0.1736 0.9848
vn -0.0000 -0.5000 0.8660
vn -0.0000 -0.5000 0.8660
vn -0.0000 -0.3420 0.9397
vn 0.1588 0.1714 -0.9723
vn 0.1588 0.3377 -0.9278
vn 0.1588 0.4937 -0.8550
vn -0.8944 0.3426 -0.2875
vn -0.8944 0.2875 -0.3426
vn -0.3162 0.6098 -0.7267
vn -0.3162 0.7267 -0.6098
vn -0.1588 0.7563 -0.6346
vn -0.1588 0.6346 -0.7563
vn 0.1588 0.7563 -0.6346
vn 0.1588 0.8550 -0.4937
vn 0.1588 0.6346 -0.7563
vn 1.0000 0.0000 0.0000
vn 0.9703 0.2381 -0.0420
vn 1.0000 0.0000 0.0000
vn 0.9703 0.2272 -0.0827
vn 0.3162 0.9343 -0.1647
vn 0.8944 0.4404 -0.0777
vn 0.8944 0.4202 -0.1530
vn 0.9703 0.2094 -0.1209
vn 1.0000 0.0000 0.0000
vn 1.0000 0.0000 0.0000
vn 0.9703 0.1852 -0.1554
vn 0.8944 0.3873 -0.2236
vn 0.3162 0.8915 -0.3245
vn 0.3162 0.8216 -0.4743
vn 1.0000 0.0000 0.0000
vn 1.0000 0.0000 0.0000
vn 0.9703 0.0420 -0.2381
vn 0.9703 0.0827 -0.2272
vn 1.0000 0.0000 0.0000
vn 0.9703 0.1554 -0.1852
vn 1.0000 0.0000 0.0000
vn 0.9703 0.1209 -0.2094
vn 0.8944 0.2236 -0.3873
vn 0.8944 0.0777 -0.4404
vn 0.3162 0.1647 -0.9343
vn 0.3162 0.3245 -0.8915
vn 0.8944 0.1530 -0.4202
vn 0.3162 0.4743 -0.8216
vn 0.8944 0.3426 -0.2875
vn 0.8944 0.2875 -0.3426
vn 0.3162 0.7267 -0.6098
vn 0.3162 0.6098 -0.7267
f 1//1 2//2 3//3
f 4//4 5//5 6//6
f 6//6 7//7 4//4
f 8//8 9//9 10//10
f 10//10 11//11 8//8
f 12//12 1//1 13//13
f 9//9 4//4 7//7
f 7//7 10//10 9//9
f 3//3 13//13 1//1
f 13//13 14//14 12//12
f 15//15 12//12 14//14
f 14//14 13//13 16//16
f 5//5 4//4 17//17
f 9//9 8//8 18//18
f 4//4 9//9 19//19
f 5//5 20//20 21//21
f 22//22 21//21 20//20
f 23//23 3//3 2//2
f 21//21 6//6 5//5
f 2//2 24//24 23//23
f 25//25 23//23 24//24
f 24//24 26//26 25//25
f 20//20 27//27 22//22
f 28//28 25//25 26//26
f 26//26 29//29 28//28
f 30//30 22//22 27//27
f 27//27 31//31 30//30
f 23//23 25//25 32//32
f 25//25 28//28 33//33
f 13//13 3//3 34//34
f 3//3 23//23 35//35
f 35//35 34//34 3//3
f 34//34 16//16 13//13
f 32//32 35//35 23//23
f 33//33 32//32 25//25
f 20//20 5//5 36//36
f 27//27 20//20 37//37
f 31//31 27//27 38//38
f 39//39 40//40 41//41
f 42//42 39//39 43//43
f 44//44 45//45 46//46
f 40//40 44//44 47//47
f 48//48 8//8 11//11
f 11//11 49//49 48//48
f 50//50 15//15 51//51
f 52//52 50//50 53//53
f 54//54 48//48 49//49
f 51//51 53//53 50//50
f 14//14 51//51 15//15
f 51//51 14//14 55//55
f 16//16 55//55 14//14
f 55//55 56//56 51//51
f 53//53 51//51 56//56
f 56//56 57//57 53//53
f 49//49 58//58 54//54
f 53//53 59//59 52//52
f 60//60 52//52 59//59
f 59//59 61//61 60//60
f 62//62 54//54 58//58
f 58//58 63//63 62//62
f 61//61 59//59 64//64
f 59//59 53//53 57//57
f 57//57 64//64 59//59
f 64//64 65//65 61//61
f 8//8 48//48 66//66
f 67//67 68//68 69//69
f 70//70 67//67 71//71
f 48//48 54//54 72//72
f 54//54 62//62 73//73
f 74//74 70//70 75//75
f 76//76 74//74 77//77
f 68//68 42//42 78//78
f 17//17 36//36 5//5
f 18//18 19//19 9//9
f 19//19 17//17 4//4
f 79//79 80//80 36//36
f 36//36 17//17 79//79
f 81//81 82//82 19//19
f 19//19 18//18 81//81
f 83//83 84//84 85//85
f 82//82 79//79 17//17
f 17//17 19//19 82//82
f 86//86 83//83 87//87
f 88//88 86//86 89//89
f 87//87 89//89 86//86
f 85//85 87//87 83//83
f 89//89 87//87 90//90
f 36//36 37//37 20//20
f 37//37 38//38 27//27
f 38//38 91//91 31//31
f 43//43 78//78 42//42
f 41//41 43//43 39//39
f 46//46 47//47 44//44
f 47//47 41//41 40//40
f 37//37 36//36 80//80
f 80//80 92//92 37//37
f 38//38 37//37 92//92
f 93//93 94//94 95//95
f 94//94 88//88 96//96
f 96//96 95//95 94//94
f 92//92 97//97 38//38
f 91//91 38//38 97//97
f 97//97 98//98 91//91
f 99//99 93//93 100//100
f 100//100 101//101 99//99
f 95//95 100//100 93//93
f 101//101 100//100 102//102
f 89//89 96//96 88//88
f 96//96 89//89 103//103
f 95//95 96//96 104//104
f 104//104 105//105 95//95
f 103//103 104//104 96//96
f 90//90 103//103 89//89
f 100//100 95//95 105//105
f 105//105 102//102 100//100
f 102//102 106//106 101//101
f 66//66 18//18 8//8
f 72//72 66//66 48//48
f 69//69 71//71 67//67
f 71//71 75//75 70//70
f 73//73 72//72 54//54
f 75//75 77//77 74//74
f 77//77 107//107 76//76
f 18//18 66//66 108//108
f 108//108 81//81 18//18
f 109//109 85//85 84//84
f 110//110 108//108 66//66
f 84//84 111//111 109//109
f 112//112 109//109 111//111
f 87//87 85//85 113//113
f 113//113 90//90 87//87
f 114//114 113//113 85//85
f 85//85 109//109 114//114
f 66//66 72//72 110//110
f 111//111 115//115 112//112
f 109//109 112//112 116//116
f 117//117 110//110 72//72
f 72//72 73//73 117//117
f 118//118 112//112 115//115
f 115//115 119//119 118//118
f 112//112 118//118 120//120
f 116//116 114//114 109//109
f 120//120 116//116 112//112
f 78//78 69//69 68//68
f 121//121 28//28 29//29
f 29//29 122//122 121//121
f 123//123 30//30 31//31
f 31//31 124//124 123//123
f 125//125 123//123 124//124
f 28//28 121//121 126//126
f 127//127 121//121 122//122
f 122//122 128//128 127//127
f 124//124 129//129 125//125
f 130//130 125//125 129//129
f 129//129 131//131 130//130
f 132//132 127//127 128//128
f 128//128 133//133 132//132
f 126//126 33//33 28//28
f 134//134 126//126 121//121
f 121//121 127//127 134//134
f 127//127 132//132 135//135
f 135//135 134//134 127//127
f 136//136 132//132 133//133
f 132//132 136//136 137//137
f 137//137 135//135 132//132
f 138//138 137//137 136//136
f 124//124 31//31 91//91
f 129//129 124//124 139//139
f 131//131 129//129 140//140
f 45//45 141//141 142//142
f 141//141 143//143 144//144
f 143//143 145//145 146//146
f 145//145 147//147 148//148
f 149//149 130//130 131//131
f 131//131 150//150 149//149
f 133//133 151//151 136//136
f 152//152 136//136 151//151
f 151//151 153//153 152//152
f 154//154 149//149 150//150
f 150//150 155//155 154//154
f 136//136 152//152 138//138
f 156//156 152//152 153//153
f 153//153 157//157 156//156
f 158//158 154//154 155//155
f 155//155 159//159 158//158
f 150//150 131//131 160//160
f 155//155 150//150 161//161
f 159//159 155//155 162//162
f 147//147 163//163 164//164
f 165//165 138//138 152//152
f 152//152 156//156 165//165
f 166//166 165//165 156//156
f 156//156 167//167 166//166
f 167//167 156//156 157//157
f 168//168 158//158 159//159
f 159//159 169//169 168//168
f 157//157 170//170 167//167
f 171//171 167//167 170//170
f 172//172 168//168 169//169
f 173//173 166//166 167//167
f 174//174 173//173 171//171
f 167//167 171//171 173//173
f 170//170 175//175 171//171
f 169//169 176//176 172//172
f 171//171 177//177 174//174
f 177//177 171//171 175//175
f 175//175 178//178 177//177
f 179//179 172//172 176//176
f 176//176 180//180 179//179
f 163//163 181//181 182//182
f 181//181 183//183 184//184
f 169//169 159//159 185//185
f 176//176 169//169 186//186
f 183//183 187//187 188//188
f 187//187 189//189 190//190
f 180//180 176//176 191//191
f 91//91 139//139 124//124
f 139//139 140//140 129//129
f 140//140 160//160 131//131
f 142//142 46//46 45//45
f 144//144 142//142 141//141
f 146//146 144//144 143//143
f 148//148 146//146 145//145
f 139//139 91//91 98//98
f 98//98 192//192 139//139
f 193//193 99//99 101//101
f 101//101 194//194 193//193
f 140//140 139//139 192//192
f 195//195 193//193 194//194
f 194//194 101//101 106//106
f 196//196 194//194 197//197
f 192//192 198//198 140//140
f 160//160 140//140 198//198
f 194//194 196//196 195//195
f 199//199 195//195 196//196
f 198//198 200//200 160//160
f 196//196 201//201 199//199
f 106//106 197//197 194//194
f 197//197 202//202 196//196
f 201//201 196//196 202//202
f 202//202 203//203 201//201
f 204//204 201//201 203//203
f 203//203 205//205 204//204
f 160//160 161//161 150//150
f 161//161 162//162 155//155
f 162//162 185//185 159//159
f 161//161 160//160 200//200
f 200//200 206//206 161//161
f 207//207 199//199 201//201
f 201//201 204//204 207//207
f 162//162 161//161 206//206
f 206//206 208//208 162//162
f 209//209 207//207 204//204
f 210//210 204//204 205//205
f 204//204 210//210 209//209
f 211//211 209//209 210//210
f 185//185 162//162 208//208
f 208//208 212//212 185//185
f 164//164 148//148 147//147
f 182//182 164//164 163//163
f 184//184 182//182 181//181
f 185//185 186//186 169//169
f 188//188 184//184 183//183
f 190//190 188//188 187//187
f 186//186 191//191 176//176
f 191//191 213//213 180//180
f 205//205 214//214 210//210
f 214//214 215//215 216//216
f 216//216 210//210 214//214
f 210//210 216//216 211//211
f 217//217 216//216 215//215
f 215//215 218//218 217//217
f 219//219 211//211 216//216
f 186//186 185//185 212//212
f 212//212 220//220 186//186
f 216//216 217//217 219//219
f 191//191 186//186 220//220
f 221//221 219//219 217//217
f 222//222 217//217 218//218
f 218//218 223//223 222//222
f 223//223 224//224 225//225
f 217//217 222//222 221//221
f 220//220 226//226 191//191
f 225//225 222//222 223//223
f 213//213 191//191 226//226
f 226//226 227//227 213//213
f 228//228 221//221 222//222
f 222//222 225//225 228//228
f 229//229 60//60 61//61
f 61//61 230//230 229//229
f 231//231 62//62 63//63
f 63//63 232//232 231//231
f 230//230 61//61 65//65
f 233//233 229//229 230//230
f 234//234 231//231 232//232
f 235//235 230//230 236//236
f 65//65 236//236 230//230
f 236//236 237//237 235//235
f 232//232 238//238 234//234
f 230//230 235//235 233//233
f 239//239 233//233 235//235
f 240//240 234//234 238//238
f 235//235 241//241 239//239
f 238//238 242//242 240//240
f 241//241 235//235 237//237
f 237//237 243//243 241//241
f 244//244 241//241 243//243
f 243//243 245//245 244//244
f 62//62 231//231 246//246
f 247//247 76//76 107//107
f 248//248 247//247 249//249
f 231//231 234//234 250//250
f 234//234 240//240 251//251
f 252//252 248//248 253//253
f 254//254 252//252 255//255
f 256//256 254//254 257//257
f 258//258 239//239 241//241
f 259//259 240//240 242//242
f 242//242 260//260 259//259
f 241//241 244//244 258//258
f 261//261 244//244 245//245
f 262//262 258//258 244//244
f 263//263 259//259 260//260
f 260//260 264//264 263//263
f 244//244 261//261 262//262
f 265//265 262//262 261//261
f 266//266 263//263 264//264
f 264//264 267//267 266//266
f 240//240 259//259 268//268
f 259//259 263//263 269//269
f 263//263 266//266 270//270
f 245//245 271//271 261//261
f 271//271 272//272 273//273
f 273//273 261//261 271//271
f 261//261 273//273 265//265
f 272//272 274//274 275//275
f 275//275 273//273 272//272
f 276//276 275//275 274//274
f 274//274 277//277 276//276
f 277//277 278//278 279//279
f 280//280 265//265 273//273
f 273//273 275//275 280//280
f 281//281 266//266 267//267
f 267//267 282//282 281//281
f 283//283 280//280 275//275
f 284//284 281//281 282//282
f 275//275 276//276 283//283
f 279//279 276//276 277//277
f 282//282 285//285 284//284
f 286//286 283//283 276//276
f 276//276 279//279 286//286
f 287//287 284//284 285//285
f 285//285 288//288 287//287
f 289//289 256//256 290//290
f 291//291 289//289 292//292
f 293//293 291//291 294//294
f 295//295 293//293 296//296
f 266//266 281//281 297//297
f 281//281 284//284 298//298
f 284//284 287//287 299//299
f 246//246 73//73 62//62
f 250//250 246//246 231//231
f 107//107 249//249 247//247
f 249//249 253//253 248//248
f 251//251 250//250 234//234
f 253//253 255//255 252//252
f 255//255 257//257 254//254
f 300//300 117//117 73//73
f 73//73 246//246 300//300
f 301//301 118//118 119//119
f 119//119 302//302 301//301
f 118//118 301//301 303//303
f 304//304 300//300 246//246
f 305//305 301//301 302//302
f 303//303 120//120 118//118
f 306//306 303//303 301//301
f 301//301 305//305 306//306
f 246//246 250//250 304//304
f 302//302 307//307 305//305
f 308//308 305//305 307//307
f 309//309 304//304 250//250
f 250//250 251//251 309//309
f 307//307 310//310 308//308
f 311//311 306//306 305//305
f 305//305 308//308 311//311
f 312//312 308//308 310//310
f 308//308 312//312 313//313
f 313//313 311//311 308//308
f 314//314 313//313 312//312
f 257//257 290//290 256//256
f 268//268 251//251 240//240
f 269//269 268//268 259//259
f 270//270 269//269 263//263
f 315//315 309//309 251//251
f 251//251 268//268 315//315
f 310//310 316//316 312//312
f 317//317 312//312 316//316
f 312//312 317//317 314//314
f 318//318 315//315 268//268
f 268//268 269//269 318//318
f 316//316 319//319 317//317
f 320//320 317//317 319//319
f 321//321 318//318 269//269
f 269//269 270//270 321//321
f 319//319 322//322 320//320
f 290//290 292//292 289//289
f 292//292 294//294 291//291
f 294//294 296//296 293//293
f 296//296 323//323 295//295
f 297//297 270//270 266//266
f 298//298 297//297 281//281
f 299//299 298//298 284//284
f 324//324 314//314 317//317
f 317//317 320//320 324//324
f 325//325 324//324 320//320
f 320//320 326//326 325//325
f 327//327 325//325 326//326
f 328//328 327//327 329//329
f 330//330 321//321 270//270
f 326//326 320//320 322//322
f 322//322 331//331 326//326
f 329//329 326//326 331//331
f 270//270 297//297 330//330
f 332//332 330//330 297//297
f 326//326 329//329 327//327
f 329//329 333//333 328//328
f 297//297 298//298 332//332
f 331//331 334//334 329//329
f 335//335 332//332 298//298
f 298//298 299//299 335//335
f 333//333 329//329 334//334
f 334//334 336//336 333//333
f 337//337 338//338 339//339
f 340//340 174//174 177//177
f 341//341 340//340 342//342
f 342//342 343//343 341//341
f 177//177 342//342 340//340
f 342//342 177//177 178//178
f 178//178 344//344 342//342
f 345//345 179//179 180//180
f 180//180 346//346 345//345
f 343//343 342//342 344//344
f 347//347 345//345 346//346
f 348//348 341//341 343//343
f 343//343 349//349 348//348
f 350//350 348//348 349//349
f 351//351 350//350 352//352
f 349//349 352//352 350//350
f 352//352 349//349 353//353
f 349//349 343//343 354//354
f 344//344 354//354 343//343
f 346//346 355//355 347//347
f 354//354 353//353 349//349
f 356//356 347//347 355//355
f 355//355 357//357 356//356
f 189//189 358//358 359//359
f 358//358 360//360 361//361
f 346//346 180//180 213//213
f 355//355 346//346 362//362
f 360//360 363//363 364//364
f 363//363 337//337 365//365
f 357//357 355//355 366//366
f 278//278 367//367 368//368
f 367//367 369//369 370//370
f 371//371 351//351 372//372
f 369//369 371//371 373//373
f 373//373 370//370 369//369
f 372//372 373//373 371//371
f 368//368 279//279 278//278
f 370//370 368//368 367//367
f 374//374 286//286 279//279
f 279//279 368//368 374//374
f 375//375 287//287 288//288
f 288//288 376//376 375//375
f 377//377 374//374 368//368
f 378//378 375//375 376//376
f 368//368 370//370 377//377
f 379//379 377//377 370//370
f 370//370 373//373 379//379
f 380//380 381//381 382//382
f 376//376 380//380 378//378
f 382//382 378//378 380//380
f 383//383 384//384 385//385
f 384//384 295//295 323//323
f 338//338 386//386 387//387
f 386//386 383//383 388//388
f 287//287 375//375 389//389
f 375//375 378//378 390//390
f 378//378 382//382 391//391
f 352//352 372//372 351//351
f 353//353 392//392 352//352
f 372//372 352//352 392//392
f 373//373 372//372 393//393
f 392//392 393//393 372//372
f 394//394 395//395 396//396
f 396//396 397//397 394//394
f 395//395 356//356 357//357
f 357//357 396//396 395//395
f 393//393 379//379 373//373
f 381//381 394//394 397//397
f 397//397 382//382 381//381
f 397//397 396//396 398//398
f 396//396 357//357 399//399
f 382//382 397//397 400//400
f 339//339 365//365 337//337
f 359//359 190//190 189//189
f 361//361 359//359 358//358
f 213//213 362//362 346//346
f 364//364 361//361 360//360
f 365//365 364//364 363//363
f 362//362 366//366 355//355
f 366//366 399//399 357//357
f 224//224 401//401 402//402
f 401//401 403//403 404//404
f 402//402 225//225 224//224
f 362//362 213//213 227//227
f 227//227 405//405 362//362
f 406//406 228//228 225//225
f 225//225 402//402 406//406
f 404//404 402//402 401//401
f 366//366 362//362 405//405
f 407//407 406//406 402//402
f 408//408 404//404 403//403
f 403//403 409//409 408//408
f 409//409 410//410 411//411
f 411//411 408//408 409//409
f 402//402 404//404 407//407
f 412//412 407//407 404//404
f 405//405 413//413 366//366
f 413//413 414//414 399//399
f 404//404 408//408 412//412
f 399//399 366//366 413//413
f 385//385 388//388 383//383
f 323//323 385//385 384//384
f 388//388 387//387 386//386
f 387//387 339//339 338//338
f 389//389 299//299 287//287
f 390//390 389//389 375//375
f 391//391 390//390 378//378
f 415//415 328//328 333//333
f 416//416 415//415 417//417
f 417//417 418//418 416//416
f 410//410 419//419 420//420
f 419//419 421//421 422//422
f 421//421 416//416 418//418
f 418//418 422//422 421//421
f 422//422 420//420 419//419
f 420//420 422//422 423//423
f 333//333 417//417 415//415
f 418//418 417//417 424//424
f 425//425 335//335 299//299
f 299//299 389//389 425//425
f 417//417 333//333 336//336
f 336//336 424//424 417//417
f 426//426 425//425 389//389
f 422//422 418//418 427//427
f 427//427 423//423 422//422
f 389//389 390//390 426//426
f 424//424 427//427 418//418
f 428//428 426//426 390//390
f 390//390 391//391 428//428
f 398//398 400//400 397//397
f 399//399 398//398 396//396
f 400//400 391//391 382//382
f 420//420 411//411 410//410
f 408//408 411//411 429//429
f 411//411 420//420 430//430
f 423//423 430//430 420//420
f 400//400 398//398 431//431
f 431//431 432//432 400//400
f 430//430 429//429 411//411
f 398//398 399//399 414//414
f 414//414 431//431 398//398
f 429//429 412//412 408//408
f 391//391 400//400 432//432
f 432//432 428//428 391//391
