v -0.10000 -0.25227 0.12149
v -0.10000 -0.21891 0.17458
v -0.10000 -0.16418 0.13093
v -0.10000 -0.17458 0.21891
v -0.10000 -0.13093 0.16418
v -0.24600 -0.07289 0.15136
v -0.24600 -0.10475 0.13135
v -0.10000 -0.13093 0.16418
v -0.10000 -0.16418 0.13093
v -0.10000 -0.09112 0.18920
v -0.24600 0.00000 0.16800
v -0.24600 -0.03738 0.16379
v -0.10000 -0.04673 0.20473
v -0.10000 0.00000 0.21000
v -0.10000 -0.12149 0.25227
v -0.10000 -0.09112 0.18920
v -0.10000 -0.06231 0.27298
v -0.10000 -0.04673 0.20473
v -0.10000 0.00000 0.28000
v -0.10000 0.00000 0.21000
v -0.24600 -0.13135 0.10475
v -0.24600 -0.15136 0.07289
v -0.10000 -0.18920 0.09112
v -0.10000 -0.20473 0.04673
v -0.24600 -0.16379 0.03738
v -0.24600 -0.16800 0.00000
v -0.10000 -0.21000 0.00000
v -0.10000 -0.27298 0.06231
v -0.10000 -0.18920 0.09112
v -0.10000 -0.28000 0.00000
v -0.10000 -0.20473 0.04673
v -0.10000 -0.21000 0.00000
v -0.24600 -0.10475 0.13135
v -0.24600 -0.07289 0.15136
v -0.24600 -0.03471 0.07208
v -0.24600 -0.15136 0.07289
v -0.24600 -0.13135 0.10475
v -0.24600 -0.06255 0.04988
v -0.24600 -0.04988 0.06255
v -0.24600 -0.03738 0.16379
v -0.24600 -0.01780 0.07799
v -0.24600 0.00000 0.16800
v -0.24600 0.00000 0.08000
v -0.24600 -0.16379 0.03738
v -0.24600 -0.07208 0.03471
v -0.24600 -0.16800 0.00000
v -0.24600 -0.07799 0.01780
v -0.24600 -0.08000 0.00000
v -0.24600 -0.03471 0.07208
v -0.24600 -0.01780 0.07799
v 0.24600 -0.01780 0.07799
v -0.24600 0.00000 0.08000
v 0.24600 0.00000 0.08000
v -0.24600 -0.07799 0.01780
v -0.24600 -0.07208 0.03471
v 0.24600 -0.07208 0.03471
v -0.24600 -0.08000 0.00000
v 0.24600 -0.07799 0.01780
v -0.24600 -0.06255 0.04988
v -0.24600 -0.04988 0.06255
v 0.24600 -0.04988 0.06255
v 0.24600 -0.03471 0.07208
v 0.24600 -0.06255 0.04988
v -0.10000 -0.12149 0.25227
v -0.10000 -0.17458 0.21891
v 0.24600 -0.17458 0.21891
v -0.10000 -0.21891 0.17458
v 0.24600 -0.21891 0.17458
v 0.24600 -0.25227 0.12149
v 0.24600 -0.17458 0.21891
v 0.24600 -0.21891 0.17458
v 0.24600 -0.06255 0.04988
v -0.10000 -0.06231 0.27298
v 0.24600 -0.12149 0.25227
v -0.10000 0.00000 0.28000
v 0.24600 -0.06231 0.27298
v 0.24600 0.00000 0.28000
v 0.24600 0.00000 0.28000
v 0.24600 -0.06231 0.27298
v 0.24600 -0.01780 0.07799
v 0.24600 -0.12149 0.25227
v 0.24600 -0.04988 0.06255
v 0.24600 -0.03471 0.07208
v 0.24600 0.00000 0.08000
v -0.10000 -0.25227 0.12149
v -0.10000 -0.27298 0.06231
v 0.24600 -0.27298 0.06231
v -0.10000 -0.28000 0.00000
v 0.24600 -0.28000 0.00000
v 0.24600 -0.25227 0.12149
v 0.24600 -0.07208 0.03471
v 0.24600 -0.27298 0.06231
v 0.24600 -0.28000 0.00000
v 0.24600 -0.08000 0.00000
v 0.24600 -0.07799 0.01780
v 0.24600 -0.08000 0.00000
v -0.24600 0.03738 0.16379
v -0.24600 0.07289 0.15136
v -0.10000 0.04673 0.20473
v -0.24600 0.10475 0.13135
v -0.10000 0.09112 0.18920
v -0.10000 0.13093 0.16418
v -0.10000 0.06231 0.27298
v -0.10000 0.04673 0.20473
v -0.10000 0.09112 0.18920
v -0.10000 0.12149 0.25227
v -0.10000 0.13093 0.16418
v -0.10000 0.17458 0.21891
v -0.10000 0.16418 0.13093
v -0.10000 0.21891 0.17458
v -0.24600 0.03738 0.16379
v -0.24600 0.01780 0.07799
v -0.24600 0.07289 0.15136
v -0.24600 0.03471 0.07208
v -0.24600 0.04988 0.06255
v -0.24600 0.10475 0.13135
v -0.24600 0.13135 0.10475
v -0.24600 0.13135 0.10475
v -0.24600 0.06255 0.04988
v -0.24600 0.15136 0.07289
v -0.24600 0.07208 0.03471
v -0.24600 0.07799 0.01780
v -0.24600 0.16379 0.03738
v -0.24600 0.08000 0.00000
v -0.24600 0.16800 0.00000
v -0.24600 0.01780 0.07799
v 0.24600 0.01780 0.07799
v -0.24600 0.03471 0.07208
v 0.24600 0.03471 0.07208
v -0.24600 0.04988 0.06255
v 0.24600 0.04988 0.06255
v -0.24600 0.06255 0.04988
v 0.24600 0.06255 0.04988
v -0.24600 0.07208 0.03471
v 0.24600 0.07208 0.03471
v -0.24600 0.07799 0.01780
v 0.24600 0.07799 0.01780
v -0.24600 0.08000 0.00000
v 0.24600 0.08000 0.00000
v -0.24600 0.15136 0.07289
v -0.10000 0.16418 0.13093
v -0.10000 0.18920 0.09112
v -0.24600 0.16379 0.03738
v -0.24600 0.16800 0.00000
v -0.10000 0.20473 0.04673
v -0.10000 0.21000 0.00000
v -0.10000 0.18920 0.09112
v -0.10000 0.25227 0.12149
v -0.10000 0.20473 0.04673
v -0.10000 0.27298 0.06231
v -0.10000 0.21000 0.00000
v -0.10000 0.28000 0.00000
v -0.10000 0.06231 0.27298
v -0.10000 0.12149 0.25227
v 0.24600 0.06231 0.27298
v -0.10000 0.17458 0.21891
v 0.24600 0.12149 0.25227
v 0.24600 0.06231 0.27298
v 0.24600 0.12149 0.25227
v 0.24600 0.01780 0.07799
v 0.24600 0.17458 0.21891
v 0.24600 0.03471 0.07208
v -0.10000 0.21891 0.17458
v 0.24600 0.17458 0.21891
v -0.10000 0.25227 0.12149
v 0.24600 0.21891 0.17458
v 0.24600 0.21891 0.17458
v 0.24600 0.04988 0.06255
v 0.24600 0.06255 0.04988
v 0.24600 0.07208 0.03471
v 0.24600 0.25227 0.12149
v -0.10000 0.27298 0.06231
v 0.24600 0.25227 0.12149
v -0.10000 0.28000 0.00000
v 0.24600 0.27298 0.06231
v 0.24600 0.27298 0.06231
v 0.24600 0.07799 0.01780
v 0.24600 0.08000 0.00000
v 0.24600 0.28000 0.00000
v 0.24600 0.28000 0.00000
v -0.24600 -0.16379 -0.03738
v -0.10000 -0.20473 -0.04673
v -0.24600 -0.15136 -0.07289
v -0.10000 -0.18920 -0.09112
v -0.24600 -0.13135 -0.10475
v -0.10000 -0.16418 -0.13093
v -0.10000 -0.13093 -0.16418
v -0.10000 -0.27298 -0.06231
v -0.10000 -0.20473 -0.04673
v -0.10000 -0.25227 -0.12149
v -0.10000 -0.18920 -0.09112
v -0.10000 -0.21891 -0.17458
v -0.10000 -0.16418 -0.13093
v -0.24600 -0.16379 -0.03738
v -0.24600 -0.07799 -0.01780
v -0.24600 -0.15136 -0.07289
v -0.24600 -0.07208 -0.03471
v -0.24600 -0.06255 -0.04988
v -0.24600 -0.13135 -0.10475
v -0.24600 -0.04988 -0.06255
v -0.24600 -0.10475 -0.13135
v -0.24600 -0.10475 -0.13135
v -0.24600 -0.07289 -0.15136
v -0.24600 -0.03471 -0.07208
v -0.24600 -0.01780 -0.07799
v -0.24600 -0.03738 -0.16379
v -0.24600 0.00000 -0.08000
v -0.24600 0.00000 -0.16800
v -0.24600 -0.07799 -0.01780
v -0.24600 -0.07208 -0.03471
v 0.24600 -0.07799 -0.01780
v -0.24600 -0.06255 -0.04988
v 0.24600 -0.07208 -0.03471
v -0.24600 -0.04988 -0.06255
v 0.24600 -0.06255 -0.04988
v -0.24600 -0.03471 -0.07208
v 0.24600 -0.04988 -0.06255
v -0.24600 -0.01780 -0.07799
v 0.24600 -0.03471 -0.07208
v -0.24600 0.00000 -0.08000
v 0.24600 -0.01780 -0.07799
v -0.10000 -0.17458 -0.21891
v -0.10000 -0.13093 -0.16418
v -0.10000 -0.12149 -0.25227
v -0.24600 -0.07289 -0.15136
v -0.10000 -0.09112 -0.18920
v -0.10000 -0.04673 -0.20473
v -0.24600 -0.03738 -0.16379
v -0.24600 0.00000 -0.16800
v -0.10000 0.00000 -0.21000
v -0.10000 -0.09112 -0.18920
v -0.10000 -0.06231 -0.27298
v -0.10000 -0.04673 -0.20473
v -0.10000 0.00000 -0.21000
v -0.10000 0.00000 -0.28000
v -0.10000 -0.27298 -0.06231
v 0.24600 -0.27298 -0.06231
v -0.10000 -0.25227 -0.12149
v 0.24600 -0.25227 -0.12149
v 0.24600 -0.27298 -0.06231
v 0.24600 -0.07799 -0.01780
v 0.24600 -0.07208 -0.03471
v 0.24600 -0.21891 -0.17458
v 0.24600 -0.25227 -0.12149
v 0.24600 -0.21891 -0.17458
v 0.24600 -0.06255 -0.04988
v 0.24600 0.00000 -0.08000
v 0.24600 -0.04988 -0.06255
v 0.24600 -0.03471 -0.07208
v 0.24600 -0.17458 -0.21891
v 0.24600 -0.01780 -0.07799
v 0.24600 -0.12149 -0.25227
v -0.10000 -0.21891 -0.17458
v -0.10000 -0.17458 -0.21891
v 0.24600 -0.17458 -0.21891
v 0.24600 -0.12149 -0.25227
v -0.10000 -0.12149 -0.25227
v -0.10000 -0.06231 -0.27298
v 0.24600 -0.06231 -0.27298
v -0.10000 0.00000 -0.28000
v 0.24600 0.00000 -0.28000
v 0.24600 0.00000 -0.08000
v 0.24600 -0.06231 -0.27298
v 0.24600 0.00000 -0.28000
v -0.24600 0.07208 -0.03471
v -0.24600 0.07799 -0.01780
v -0.24600 0.16379 -0.03738
v -0.24600 0.06255 -0.04988
v -0.24600 0.15136 -0.07289
v -0.24600 0.01780 -0.07799
v -0.24600 0.03471 -0.07208
v -0.24600 0.07289 -0.15136
v -0.24600 0.04988 -0.06255
v -0.24600 0.10475 -0.13135
v -0.24600 0.03738 -0.16379
v -0.24600 0.13135 -0.10475
v -0.24600 0.10475 -0.13135
v -0.24600 0.13135 -0.10475
v -0.10000 0.16418 -0.13093
v -0.24600 0.07208 -0.03471
v -0.24600 0.06255 -0.04988
v 0.24600 0.06255 -0.04988
v -0.24600 0.04988 -0.06255
v -0.24600 0.03471 -0.07208
v 0.24600 0.03471 -0.07208
v 0.24600 0.04988 -0.06255
v -0.24600 0.07799 -0.01780
v 0.24600 0.07799 -0.01780
v 0.24600 0.07208 -0.03471
v -0.24600 0.01780 -0.07799
v 0.24600 0.01780 -0.07799
v -0.24600 0.16379 -0.03738
v -0.24600 0.15136 -0.07289
v -0.10000 0.20473 -0.04673
v -0.10000 0.18920 -0.09112
v -0.10000 0.20473 -0.04673
v -0.10000 0.18920 -0.09112
v -0.10000 0.27298 -0.06231
v -0.10000 0.16418 -0.13093
v -0.10000 0.25227 -0.12149
v -0.24600 0.03738 -0.16379
v -0.24600 0.07289 -0.15136
v -0.10000 0.09112 -0.18920
v -0.10000 0.04673 -0.20473
v -0.10000 0.13093 -0.16418
v -0.10000 0.09112 -0.18920
v -0.10000 0.13093 -0.16418
v -0.10000 0.17458 -0.21891
v -0.10000 0.04673 -0.20473
v -0.10000 0.06231 -0.27298
v -0.10000 0.12149 -0.25227
v -0.10000 0.21891 -0.17458
v 0.24600 0.07799 -0.01780
v 0.24600 0.07208 -0.03471
v 0.24600 0.25227 -0.12149
v 0.24600 0.04988 -0.06255
v 0.24600 0.03471 -0.07208
v 0.24600 0.12149 -0.25227
v 0.24600 0.06255 -0.04988
v 0.24600 0.21891 -0.17458
v 0.24600 0.17458 -0.21891
v -0.10000 0.27298 -0.06231
v -0.10000 0.25227 -0.12149
v 0.24600 0.27298 -0.06231
v -0.10000 0.21891 -0.17458
v 0.24600 0.25227 -0.12149
v 0.24600 0.27298 -0.06231
v -0.10000 0.06231 -0.27298
v 0.24600 0.06231 -0.27298
v -0.10000 0.12149 -0.25227
v 0.24600 0.12149 -0.25227
v 0.24600 0.01780 -0.07799
v 0.24600 0.06231 -0.27298
v 0.24600 0.17458 -0.21891
v -0.10000 0.17458 -0.21891
v 0.24600 0.21891 -0.17458
vn -1.0000 0.0000 0.0000
vn -1.0000 0.0000 0.0000
vn -1.0000 0.0000 0.0000
vn -1.0000 0.0000 0.0000
vn -1.0000 0.0000 0.0000
vn -0.2765 -0.4170 0.8659
vn -0.2765 -0.5992 0.7514
vn -0.2765 -0.5992 0.7514
vn -0.2765 -0.7514 0.5992
vn -0.2765 -0.4170 0.8659
vn -0.2765 -0.0000 0.9610
vn -0.2765 -0.2138 0.9369
vn -0.2765 -0.2138 0.9369
vn -0.2765 -0.0000 0.9610
vn -1.0000 0.0000 0.0000
vn -1.0000 0.0000 0.0000
vn -1.0000 0.0000 0.0000
vn -1.0000 0.0000 0.0000
vn -1.0000 0.0000 0.0000
vn -1.0000 0.0000 0.0000
vn -0.2765 -0.7514 0.5992
vn -0.2765 -0.8659 0.4170
vn -0.2765 -0.8659 0.4170
vn -0.2765 -0.9369 0.2138
vn -0.2765 -0.9369 0.2138
vn -0.2765 -0.9610 -0.0000
vn -0.2765 -0.9610 -0.0000
vn -1.0000 0.0000 0.0000
vn -1.0000 0.0000 0.0000
vn -1.0000 0.0000 0.0000
vn -1.0000 0.0000 0.0000
vn -1.0000 0.0000 0.0000
vn -1.0000 0.0000 0.0000
vn -1.0000 0.0000 0.0000
vn -1.0000 0.0000 0.0000
vn -1.0000 0.0000 0.0000
vn -1.0000 0.0000 0.0000
vn -1.0000 0.0000 0.0000
vn -1.0000 0.0000 0.0000
vn -1.0000 0.0000 0.0000
vn -1.0000 0.0000 0.0000
vn -1.0000 0.0000 0.0000
vn -1.0000 0.0000 0.0000
vn -1.0000 0.0000 0.0000
vn -1.0000 0.0000 0.0000
vn -1.0000 0.0000 0.0000
vn -1.0000 0.0000 0.0000
vn -1.0000 0.0000 0.0000
vn -0.0000 0.4339 -0.9010
vn 0.0000 0.2225 -0.9749
vn -0.0000 0.2225 -0.9749
vn 0.0000 -0.0000 -1.0000
vn 0.0000 0.0000 -1.0000
vn 0.0000 0.9749 -0.2225
vn 0.0000 0.9010 -0.4339
vn 0.0000 0.9010 -0.4339
vn -0.0000 1.0000 0.0000
vn -0.0000 0.9749 -0.2225
vn 0.0000 0.7818 -0.6235
vn 0.0000 0.6235 -0.7818
vn 0.0000 0.6235 -0.7818
vn 0.0000 0.4339 -0.9010
vn 0.0000 0.7818 -0.6235
vn 0.0000 -0.4339 0.9010
vn 0.0000 -0.6235 0.7818
vn 0.0000 -0.6235 0.7818
vn -0.0000 -0.7818 0.6235
vn 0.0000 -0.7818 0.6235
vn -0.0000 -0.9010 0.4339
vn 1.0000 0.0000 0.0000
vn 1.0000 0.0000 0.0000
vn 1.0000 0.0000 0.0000
vn 0.0000 -0.2225 0.9749
vn 0.0000 -0.4339 0.9010
vn 0.0000 0.0000 1.0000
vn 0.0000 -0.2225 0.9749
vn 0.0000 -0.0000 1.0000
vn 1.0000 0.0000 0.0000
vn 1.0000 0.0000 0.0000
vn 1.0000 0.0000 0.0000
vn 1.0000 0.0000 0.0000
vn 1.0000 0.0000 0.0000
vn 1.0000 0.0000 0.0000
vn 1.0000 0.0000 0.0000
vn -0.0000 -0.9010 0.4339
vn -0.0000 -0.9749 0.2225
vn -0.0000 -0.9749 0.2225
vn 0.0000 -1.0000 -0.0000
vn -0.0000 -1.0000 -0.0000
vn 1.0000 0.0000 0.0000
vn 1.0000 0.0000 0.0000
vn 1.0000 0.0000 0.0000
vn 1.0000 0.0000 0.0000
vn 1.0000 0.0000 0.0000
vn 1.0000 0.0000 0.0000
vn -0.0000 1.0000 0.0000
vn -0.2765 0.2138 0.9369
vn -0.2765 0.4170 0.8659
vn -0.2765 0.2138 0.9369
vn -0.2765 0.5992 0.7514
vn -0.2765 0.4170 0.8659
vn -0.2765 0.5992 0.7514
vn -1.0000 0.0000 0.0000
vn -1.0000 0.0000 0.0000
vn -1.0000 0.0000 0.0000
vn -1.0000 0.0000 0.0000
vn -1.0000 0.0000 0.0000
vn -1.0000 0.0000 0.0000
vn -1.0000 0.0000 0.0000
vn -1.0000 0.0000 0.0000
vn -1.0000 0.0000 0.0000
vn -1.0000 0.0000 0.0000
vn -1.0000 0.0000 0.0000
vn -1.0000 0.0000 0.0000
vn -1.0000 0.0000 0.0000
vn -1.0000 0.0000 0.0000
vn -0.2765 0.7514 0.5992
vn -1.0000 0.0000 0.0000
vn -1.0000 0.0000 0.0000
vn -1.0000 0.0000 0.0000
vn -1.0000 0.0000 0.0000
vn -1.0000 0.0000 0.0000
vn -1.0000 0.0000 0.0000
vn -1.0000 0.0000 0.0000
vn -1.0000 0.0000 0.0000
vn 0.0000 -0.2225 -0.9749
vn 0.0000 -0.2225 -0.9749
vn 0.0000 -0.4339 -0.9010
vn 0.0000 -0.4339 -0.9010
vn 0.0000 -0.6235 -0.7818
vn 0.0000 -0.6235 -0.7818
vn 0.0000 -0.7818 -0.6235
vn 0.0000 -0.7818 -0.6235
vn -0.0000 -0.9010 -0.4339
vn 0.0000 -0.9010 -0.4339
vn 0.0000 -0.9749 -0.2225
vn -0.0000 -0.9749 -0.2225
vn 0.0000 -1.0000 0.0000
vn 0.0000 -1.0000 -0.0000
vn -0.2765 0.8659 0.4170
vn -0.2765 0.7514 0.5992
vn -0.2765 0.8659 0.4170
vn -0.2765 0.9369 0.2138
vn -0.2765 0.9610 0.0000
vn -0.2765 0.9369 0.2138
vn -0.2765 0.9610 0.0000
vn -1.0000 0.0000 0.0000
vn -1.0000 0.0000 0.0000
vn -1.0000 0.0000 0.0000
vn -1.0000 0.0000 0.0000
vn -1.0000 0.0000 0.0000
vn -1.0000 0.0000 0.0000
vn 0.0000 0.2225 0.9749
vn -0.0000 0.4339 0.9010
vn -0.0000 0.2225 0.9749
vn 0.0000 0.6235 0.7818
vn 0.0000 0.4339 0.9010
vn 1.0000 0.0000 0.0000
vn 1.0000 0.0000 0.0000
vn 1.0000 0.0000 0.0000
vn 1.0000 0.0000 0.0000
vn 1.0000 0.0000 0.0000
vn 0.0000 0.7818 0.6235
vn 0.0000 0.6235 0.7818
vn 0.0000 0.9010 0.4339
vn 0.0000 0.7818 0.6235
vn 1.0000 0.0000 0.0000
vn 1.0000 0.0000 0.0000
vn 1.0000 0.0000 0.0000
vn 1.0000 0.0000 0.0000
vn 1.0000 0.0000 0.0000
vn -0.0000 0.9749 0.2225
vn -0.0000 0.9010 0.4339
vn 0.0000 1.0000 0.0000
vn 0.0000 0.9749 0.2225
vn 1.0000 0.0000 0.0000
vn 1.0000 0.0000 0.0000
vn 1.0000 0.0000 0.0000
vn 1.0000 0.0000 0.0000
vn -0.0000 1.0000 0.0000
vn -0.2765 -0.9369 -0.2138
vn -0.2765 -0.9369 -0.2138
vn -0.2765 -0.8659 -0.4170
vn -0.2765 -0.8659 -0.4170
vn -0.2765 -0.7514 -0.5992
vn -0.2765 -0.7514 -0.5992
vn -0.2765 -0.5992 -0.7514
vn -1.0000 0.0000 0.0000
vn -1.0000 0.0000 0.0000
vn -1.0000 0.0000 0.0000
vn -1.0000 0.0000 0.0000
vn -1.0000 0.0000 0.0000
vn -1.0000 0.0000 0.0000
vn -1.0000 0.0000 0.0000
vn -1.0000 0.0000 0.0000
vn -1.0000 0.0000 0.0000
vn -1.0000 0.0000 0.0000
vn -1.0000 0.0000 0.0000
vn -1.0000 0.0000 0.0000
vn -1.0000 0.0000 0.0000
vn -1.0000 0.0000 0.0000
vn -0.2765 -0.5992 -0.7514
vn -1.0000 0.0000 0.0000
vn -1.0000 0.0000 0.0000
vn -1.0000 0.0000 0.0000
vn -1.0000 0.0000 0.0000
vn -1.0000 0.0000 0.0000
vn -1.0000 0.0000 0.0000
vn -0.0000 0.9749 0.2225
vn -0.0000 0.9010 0.4339
vn -0.0000 0.9749 0.2225
vn 0.0000 0.7818 0.6235
vn 0.0000 0.9010 0.4339
vn 0.0000 0.6235 0.7818
vn 0.0000 0.7818 0.6235
vn 0.0000 0.4339 0.9010
vn 0.0000 0.6235 0.7818
vn 0.0000 0.2225 0.9749
vn 0.0000 0.4339 0.9010
vn -0.0000 -0.0000 1.0000
vn -0.0000 0.2225 0.9749
vn -1.0000 0.0000 0.0000
vn -1.0000 0.0000 0.0000
vn -1.0000 0.0000 0.0000
vn -0.2765 -0.4170 -0.8659
vn -0.2765 -0.4170 -0.8659
vn -0.2765 -0.2138 -0.9369
vn -0.2765 -0.2138 -0.9369
vn -0.2765 0.0000 -0.9610
vn -0.2765 0.0000 -0.9610
vn -1.0000 0.0000 0.0000
vn -1.0000 0.0000 0.0000
vn -1.0000 0.0000 0.0000
vn -1.0000 0.0000 0.0000
vn -1.0000 0.0000 0.0000
vn 0.0000 -0.9749 -0.2225
vn 0.0000 -0.9749 -0.2225
vn 0.0000 -0.9010 -0.4339
vn 0.0000 -0.9010 -0.4339
vn 1.0000 0.0000 0.0000
vn 1.0000 0.0000 0.0000
vn 1.0000 0.0000 0.0000
vn 0.0000 -0.7818 -0.6235
vn 1.0000 0.0000 0.0000
vn 1.0000 0.0000 0.0000
vn 1.0000 0.0000 0.0000
vn 0.0000 -0.0000 1.0000
vn 1.0000 0.0000 0.0000
vn 1.0000 0.0000 0.0000
vn 1.0000 0.0000 0.0000
vn 1.0000 0.0000 0.0000
vn 1.0000 0.0000 0.0000
vn 0.0000 -0.7818 -0.6235
vn 0.0000 -0.6235 -0.7818
vn 0.0000 -0.6235 -0.7818
vn 0.0000 -0.4339 -0.9010
vn 0.0000 -0.4339 -0.9010
vn -0.0000 -0.2225 -0.9749
vn 0.0000 -0.2225 -0.9749
vn 0.0000 -0.0000 -1.0000
vn -0.0000 -0.0000 -1.0000
vn 1.0000 0.0000 0.0000
vn 1.0000 0.0000 0.0000
vn 1.0000 0.0000 0.0000
vn -1.0000 0.0000 0.0000
vn -1.0000 0.0000 0.0000
vn -1.0000 0.0000 0.0000
vn -1.0000 0.0000 0.0000
vn -1.0000 0.0000 0.0000
vn -1.0000 0.0000 0.0000
vn -1.0000 0.0000 0.0000
vn -1.0000 0.0000 0.0000
vn -1.0000 0.0000 0.0000
vn -1.0000 0.0000 0.0000
vn -1.0000 0.0000 0.0000
vn -1.0000 0.0000 0.0000
vn -0.2765 0.5992 -0.7514
vn -0.2765 0.7514 -0.5992
vn -0.2765 0.7514 -0.5992
vn 0.0000 -0.9010 0.4339
vn 0.0000 -0.7818 0.6235
vn 0.0000 -0.7818 0.6235
vn 0.0000 -0.6235 0.7818
vn -0.0000 -0.4339 0.9010
vn 0.0000 -0.4339 0.9010
vn 0.0000 -0.6235 0.7818
vn 0.0000 -0.9749 0.2225
vn 0.0000 -0.9749 0.2225
vn 0.0000 -0.9010 0.4339
vn 0.0000 -0.2225 0.9749
vn -0.0000 -0.2225 0.9749
vn -0.2765 0.9369 -0.2138
vn -0.2765 0.8659 -0.4170
vn -0.2765 0.9369 -0.2138
vn -0.2765 0.8659 -0.4170
vn -1.0000 0.0000 0.0000
vn -1.0000 0.0000 0.0000
vn -1.0000 0.0000 0.0000
vn -1.0000 0.0000 0.0000
vn -1.0000 0.0000 0.0000
vn -0.2765 0.2138 -0.9369
vn -0.2765 0.4170 -0.8659
vn -0.2765 0.4170 -0.8659
vn -0.2765 0.2138 -0.9369
vn -0.2765 0.5992 -0.7514
vn -1.0000 0.0000 0.0000
vn -1.0000 0.0000 0.0000
vn -1.0000 0.0000 0.0000
vn -1.0000 0.0000 0.0000
vn -1.0000 0.0000 0.0000
vn -1.0000 0.0000 0.0000
vn -1.0000 0.0000 0.0000
vn 1.0000 0.0000 0.0000
vn 1.0000 0.0000 0.0000
vn 1.0000 0.0000 0.0000
vn 1.0000 0.0000 0.0000
vn 1.0000 0.0000 0.0000
vn 1.0000 0.0000 0.0000
vn 1.0000 0.0000 0.0000
vn 1.0000 0.0000 0.0000
vn 1.0000 0.0000 0.0000
vn -0.0000 0.9749 -0.2225
vn -0.0000 0.9010 -0.4339
vn -0.0000 0.9749 -0.2225
vn 0.0000 0.7818 -0.6235
vn 0.0000 0.9010 -0.4339
vn 1.0000 0.0000 0.0000
vn 0.0000 0.2225 -0.9749
vn 0.0000 0.2225 -0.9749
vn 0.0000 0.4339 -0.9010
vn 0.0000 0.4339 -0.9010
vn 1.0000 0.0000 0.0000
vn 1.0000 0.0000 0.0000
vn 0.0000 0.6235 -0.7818
vn 0.0000 0.6235 -0.7818
vn 0.0000 0.7818 -0.6235
f 1//1 2//2 3//3
f 2//2 4//4 5//5
f 5//5 3//3 2//2
f 6//6 7//7 8//8
f 9//9 8//8 7//7
f 8//8 10//10 6//6
f 11//11 12//12 13//13
f 12//12 6//6 10//10
f 10//10 13//13 12//12
f 13//13 14//14 11//11
f 4//4 15//15 16//16
f 15//15 17//17 18//18
f 18//18 16//16 15//15
f 17//17 19//19 20//20
f 20//20 18//18 17//17
f 16//16 5//5 4//4
f 21//21 22//22 23//23
f 23//23 9//9 21//21
f 24//24 23//23 22//22
f 22//22 25//25 24//24
f 25//25 26//26 27//27
f 27//27 24//24 25//25
f 28//28 1//1 29//29
f 3//3 29//29 1//1
f 30//30 28//28 31//31
f 29//29 31//31 28//28
f 31//31 32//32 30//30
f 7//7 21//21 9//9
f 33//33 34//34 35//35
f 36//36 37//37 38//38
f 37//37 33//33 39//39
f 39//39 38//38 37//37
f 34//34 40//40 41//41
f 40//40 42//42 43//43
f 43//43 41//41 40//40
f 35//35 39//39 33//33
f 41//41 35//35 34//34
f 44//44 36//36 45//45
f 38//38 45//45 36//36
f 46//46 44//44 47//47
f 47//47 48//48 46//46
f 45//45 47//47 44//44
f 49//49 50//50 51//51
f 50//50 52//52 53//53
f 54//54 55//55 56//56
f 57//57 54//54 58//58
f 59//59 60//60 61//61
f 60//60 49//49 62//62
f 55//55 59//59 63//63
f 64//64 65//65 66//66
f 65//65 67//67 68//68
f 69//69 68//68 67//67
f 68//68 66//66 65//65
f 70//70 71//71 72//72
f 73//73 64//64 74//74
f 75//75 73//73 76//76
f 74//74 76//76 73//73
f 66//66 74//74 64//64
f 76//76 77//77 75//75
f 78//78 79//79 80//80
f 81//81 70//70 82//82
f 79//79 81//81 83//83
f 83//83 80//80 79//79
f 80//80 84//84 78//78
f 67//67 85//85 69//69
f 85//85 86//86 87//87
f 86//86 88//88 89//89
f 87//87 69//69 85//85
f 71//71 90//90 91//91
f 89//89 87//87 86//86
f 92//92 93//93 94//94
f 90//90 92//92 95//95
f 94//94 95//95 92//92
f 51//51 62//62 49//49
f 53//53 51//51 50//50
f 56//56 58//58 54//54
f 58//58 96//96 57//57
f 61//61 63//63 59//59
f 62//62 61//61 60//60
f 63//63 56//56 55//55
f 72//72 82//82 70//70
f 91//91 72//72 71//71
f 82//82 83//83 81//81
f 95//95 91//91 90//90
f 97//97 11//11 14//14
f 98//98 97//97 99//99
f 14//14 99//99 97//97
f 100//100 98//98 101//101
f 99//99 101//101 98//98
f 101//101 102//102 100//100
f 19//19 103//103 104//104
f 104//104 20//20 19//19
f 105//105 104//104 103//103
f 103//103 106//106 105//105
f 107//107 105//105 106//106
f 106//106 108//108 107//107
f 109//109 107//107 108//108
f 108//108 110//110 109//109
f 42//42 111//111 112//112
f 112//112 43//43 42//42
f 111//111 113//113 114//114
f 114//114 112//112 111//111
f 115//115 114//114 113//113
f 113//113 116//116 115//115
f 117//117 100//100 102//102
f 116//116 118//118 119//119
f 119//119 115//115 116//116
f 118//118 120//120 121//121
f 121//121 119//119 118//118
f 122//122 121//121 120//120
f 120//120 123//123 122//122
f 124//124 122//122 123//123
f 123//123 125//125 124//124
f 52//52 126//126 127//127
f 126//126 128//128 129//129
f 128//128 130//130 131//131
f 130//130 132//132 133//133
f 132//132 134//134 135//135
f 134//134 136//136 137//137
f 136//136 138//138 139//139
f 140//140 117//117 141//141
f 102//102 141//141 117//117
f 141//141 142//142 140//140
f 143//143 140//140 142//142
f 144//144 143//143 145//145
f 142//142 145//145 143//143
f 145//145 146//146 144//144
f 147//147 109//109 110//110
f 110//110 148//148 147//147
f 149//149 147//147 148//148
f 148//148 150//150 149//149
f 151//151 149//149 150//150
f 150//150 152//152 151//151
f 153//153 75//75 77//77
f 154//154 153//153 155//155
f 156//156 154//154 157//157
f 77//77 155//155 153//153
f 158//158 78//78 84//84
f 155//155 157//157 154//154
f 159//159 158//158 160//160
f 84//84 160//160 158//158
f 161//161 159//159 162//162
f 163//163 156//156 164//164
f 165//165 163//163 166//166
f 157//157 164//164 156//156
f 164//164 166//166 163//163
f 167//167 161//161 168//168
f 127//127 53//53 52//52
f 129//129 127//127 126//126
f 131//131 129//129 128//128
f 133//133 131//131 130//130
f 135//135 133//133 132//132
f 137//137 135//135 134//134
f 139//139 137//137 136//136
f 160//160 162//162 159//159
f 162//162 168//168 161//161
f 168//168 169//169 167//167
f 169//169 170//170 171//171
f 172//172 165//165 173//173
f 174//174 172//172 175//175
f 171//171 167//167 169//169
f 176//176 171//171 170//170
f 166//166 173//173 165//165
f 173//173 175//175 172//172
f 170//170 177//177 176//176
f 177//177 178//178 179//179
f 175//175 180//180 174//174
f 179//179 176//176 177//177
f 26//26 181//181 182//182
f 181//181 183//183 184//184
f 182//182 27//27 26//26
f 184//184 182//182 181//181
f 183//183 185//185 186//186
f 186//186 184//184 183//183
f 187//187 186//186 185//185
f 188//188 30//30 32//32
f 32//32 189//189 188//188
f 190//190 188//188 189//189
f 189//189 191//191 190//190
f 192//192 190//190 191//191
f 191//191 193//193 192//192
f 194//194 46//46 48//48
f 48//48 195//195 194//194
f 196//196 194//194 195//195
f 195//195 197//197 196//196
f 197//197 198//198 199//199
f 199//199 196//196 197//197
f 198//198 200//200 201//201
f 201//201 199//199 198//198
f 185//185 202//202 187//187
f 203//203 201//201 200//200
f 200//200 204//204 203//203
f 204//204 205//205 206//206
f 206//206 203//203 204//204
f 205//205 207//207 208//208
f 208//208 206//206 205//205
f 209//209 57//57 96//96
f 210//210 209//209 211//211
f 212//212 210//210 213//213
f 214//214 212//212 215//215
f 216//216 214//214 217//217
f 218//218 216//216 219//219
f 220//220 218//218 221//221
f 222//222 192//192 193//193
f 193//193 223//223 222//222
f 224//224 222//222 223//223
f 202//202 225//225 226//226
f 226//226 187//187 202//202
f 227//227 226//226 225//225
f 225//225 228//228 227//227
f 228//228 229//229 230//230
f 230//230 227//227 228//228
f 223//223 231//231 224//224
f 232//232 224//224 231//231
f 231//231 233//233 232//232
f 233//233 234//234 235//235
f 235//235 232//232 233//233
f 88//88 236//236 237//237
f 236//236 238//238 239//239
f 237//237 89//89 88//88
f 93//93 240//240 241//241
f 241//241 94//94 93//93
f 242//242 241//241 240//240
f 239//239 237//237 236//236
f 243//243 239//239 238//238
f 240//240 244//244 242//242
f 244//244 245//245 246//246
f 96//96 211//211 209//209
f 211//211 213//213 210//210
f 213//213 215//215 212//212
f 215//215 217//217 214//214
f 217//217 219//219 216//216
f 219//219 221//221 218//218
f 221//221 247//247 220//220
f 246//246 242//242 244//244
f 248//248 246//246 245//245
f 249//249 248//248 250//250
f 251//251 249//249 252//252
f 238//238 253//253 243//243
f 253//253 254//254 255//255
f 255//255 243//243 253//253
f 245//245 250//250 248//248
f 256//256 255//255 254//254
f 254//254 257//257 256//256
f 257//257 258//258 259//259
f 258//258 260//260 261//261
f 250//250 252//252 249//249
f 262//262 251//251 263//263
f 252//252 263//263 251//251
f 259//259 256//256 257//257
f 261//261 259//259 258//258
f 263//263 264//264 262//262
f 265//265 266//266 267//267
f 266//266 124//124 125//125
f 125//125 267//267 266//266
f 268//268 265//265 269//269
f 267//267 269//269 265//265
f 270//270 271//271 272//272
f 271//271 273//273 274//274
f 207//207 270//270 275//275
f 275//275 208//208 207//207
f 272//272 275//275 270//270
f 273//273 268//268 276//276
f 276//276 274//274 273//273
f 269//269 276//276 268//268
f 274//274 272//272 271//271
f 277//277 278//278 279//279
f 280//280 281//281 282//282
f 283//283 284//284 285//285
f 281//281 283//283 286//286
f 138//138 287//287 288//288
f 287//287 280//280 289//289
f 290//290 220//220 247//247
f 284//284 290//290 291//291
f 292//292 144//144 146//146
f 293//293 292//292 294//294
f 146//146 294//294 292//292
f 278//278 293//293 295//295
f 294//294 295//295 293//293
f 295//295 279//279 278//278
f 296//296 151//151 152//152
f 297//297 296//296 298//298
f 152//152 298//298 296//296
f 299//299 297//297 300//300
f 298//298 300//300 297//297
f 301//301 302//302 303//303
f 229//229 301//301 304//304
f 304//304 230//230 229//229
f 303//303 304//304 301//301
f 302//302 277//277 305//305
f 305//305 303//303 302//302
f 279//279 305//305 277//277
f 306//306 307//307 308//308
f 234//234 309//309 310//310
f 310//310 235//235 234//234
f 309//309 306//306 311//311
f 311//311 310//310 309//309
f 308//308 311//311 306//306
f 307//307 299//299 312//312
f 312//312 308//308 307//307
f 300//300 312//312 299//299
f 282//282 289//289 280//280
f 285//285 286//286 283//283
f 286//286 282//282 281//281
f 288//288 139//139 138//138
f 289//289 288//288 287//287
f 247//247 291//291 290//290
f 291//291 285//285 284//284
f 313//313 314//314 315//315
f 316//316 317//317 318//318
f 314//314 319//319 320//320
f 319//319 316//316 321//321
f 322//322 174//174 180//180
f 323//323 322//322 324//324
f 325//325 323//323 326//326
f 178//178 313//313 327//327
f 315//315 327//327 313//313
f 180//180 324//324 322//322
f 327//327 179//179 178//178
f 320//320 315//315 314//314
f 324//324 326//326 323//323
f 260//260 328//328 329//329
f 328//328 330//330 331//331
f 332//332 262//262 264//264
f 317//317 332//332 333//333
f 333//333 318//318 317//317
f 318//318 321//321 316//316
f 329//329 261//261 260//260
f 264//264 333//333 332//332
f 334//334 331//331 330//330
f 331//331 329//329 328//328
f 335//335 325//325 336//336
f 330//330 335//335 334//334
f 336//336 334//334 335//335
f 321//321 320//320 319//319
f 326//326 336//336 325//325
